<svg xmlns="http://www.w3.org/2000/svg" width="256" height="256" viewBox="0 0 24 24" fill="none">
    <path d="M15.2407 14.7061C15.1232 14.9414 14.9468 15.1179 14.7705 15.1767C14.6529 15.2355 14.5353 15.2355 14.4765 15.2355H5.12988C6.42313 17.9413 9.30354 19.7648 12.5367 19.5295C15.8873 19.2942 18.7678 16.7649 19.4144 13.412C19.5907 12.3532 19.5907 11.3533 19.4144 10.4121H11.7137L15.0056 13.7061C15.0644 13.765 15.1232 13.8826 15.1819 14.0002C15.2407 14.1179 15.2407 14.2355 15.2407 14.2943C15.2995 14.5296 15.2407 14.6473 15.2407 14.7061Z" fill="url(#paint0_radial_4803_6433)"/>
    <path d="M21.2372 10.471C21.2959 10.9416 21.3547 11.4709 21.3547 12.0003C21.3547 17.1767 17.1811 21.353 12.0081 21.353C7.77564 21.353 4.18982 18.5296 3.01414 14.6473C3.01414 14.5885 3.01414 14.5885 2.95535 14.5297C2.48508 12.8827 2.4263 11.0592 3.01414 9.1769C4.2486 5.58877 7.42293 3.0006 11.1851 2.64767C14.1243 2.41239 16.7696 3.53 18.6507 5.4123C19.1797 6.00052 18.827 6.94167 18.004 6.94167C17.7689 6.94167 17.5338 6.82402 17.3574 6.64756C15.8878 5.11819 13.7128 4.23586 11.3027 4.41233C8.01077 4.70644 5.18914 7.23578 4.54252 10.5298C4.36617 11.5886 4.36617 12.5886 4.54252 13.5297H12.2432L8.95131 10.2357C8.89253 10.1769 8.83375 10.0592 8.77496 9.94158C8.71618 9.82394 8.71618 9.70629 8.71618 9.64747C8.71618 9.52983 8.71618 9.41218 8.77496 9.35336C8.89253 9.11808 9.0101 8.94161 9.24523 8.88279C9.3628 8.82397 9.48037 8.82397 9.53915 8.82397H18.827H20.7669H23.5297C22.1189 3.64764 17.4162 -0.0581314 11.8905 0.000690416C5.60063 0.0595123 0.36886 5.11819 0.0161568 11.3533C-0.336547 18.2943 5.13036 24 12.0081 24C18.6507 24 24 18.6472 24 12.0003C24 11.4709 23.9412 11.0004 23.8824 10.471H21.2372Z" fill="url(#paint1_radial_4803_6433)"/>
    <defs>
        <radialGradient id="paint0_radial_4803_6433" cx="0" cy="0" r="1" gradientUnits="userSpaceOnUse" gradientTransform="translate(1.95113 -0.147232) scale(26.7182 26.7355)">
            <stop offset="0.475" stop-color="#4388DD"/>
            <stop offset="0.9988" stop-color="#FF4581"/>
        </radialGradient>
        <radialGradient id="paint1_radial_4803_6433" cx="0" cy="0" r="1" gradientUnits="userSpaceOnUse" gradientTransform="translate(1.9516 -0.147187) scale(26.7182 26.7355)">
            <stop offset="0.475" stop-color="#4388DD"/>
            <stop offset="0.9988" stop-color="#FF4581"/>
        </radialGradient>
    </defs>
</svg>