<svg width="400" height="400" viewBox="0 0 400 400" fill="none" xmlns="http://www.w3.org/2000/svg">
<rect width="400" height="400" rx="200" fill="#2094A2"/>
<rect width="400" height="400" rx="200" fill="url(#paint0_linear_922_2482)" fill-opacity="0.1"/>
<path d="M254.82 251.112C304.044 251.112 344.001 211.201 344.001 161.931C344.001 112.661 304.089 72.75 254.82 72.75H165.639V86.8795C195.503 90.366 218.624 115.735 218.624 146.563V251.066H254.774L254.82 251.112Z" fill="white"/>
<path d="M145.181 148.891C95.9571 148.891 56 188.802 56 238.072C56 287.341 95.9112 327.253 145.181 327.253H234.362V313.123C204.497 309.637 181.376 284.268 181.376 253.44V148.936H145.227L145.181 148.891Z" fill="white"/>
<defs>
<linearGradient id="paint0_linear_922_2482" x1="200" y1="0" x2="200" y2="400" gradientUnits="userSpaceOnUse">
<stop stop-color="white" stop-opacity="0"/>
<stop offset="1" stop-color="white"/>
</linearGradient>
</defs>
</svg>
