<svg width="256" height="256" viewBox="0 0 256 256" fill="none" xmlns="http://www.w3.org/2000/svg">
    <g clip-path="url(#clip0_5337_17064)">
        <path
            d="M240.838 70.1004L165.37 7.16977C157.508 0.609282 143.182 -1.91743 133.549 1.5584L41.0804 34.8739C31.448 38.3497 22.1043 49.3865 20.3343 59.4228L3.35917 155.701C1.58918 165.737 6.56566 179.301 14.4536 185.861L89.9473 248.824C97.8096 255.384 112.136 257.911 121.769 254.435L214.244 221.094C223.876 217.618 233.22 206.582 234.99 196.545L251.965 100.267C253.703 90.25 248.726 76.6673 240.838 70.1004ZM162.177 113.33L126.873 113.318L120.319 147.383C118.28 157.952 117.722 163.89 128.323 163.89H152.173L147.17 185.515H118.658C101.792 185.515 90.8195 169.361 95.206 146.594C96.931 137.648 102.158 113.401 102.158 113.401L86.7152 113.369L89.9601 96.4962C113.534 87.1397 124.225 68.0226 124.225 68.0226H135.659L130.631 93.822L165.941 93.7643L162.177 113.33Z"
            fill="#14C8FF" />
        <path
            d="M120.319 147.383C118.28 157.952 117.722 163.89 128.323 163.89H152.173L147.17 185.515H118.658C101.792 185.515 90.8195 169.361 95.206 146.594C96.9311 137.648 102.158 113.401 102.158 113.401L86.7152 113.369L89.9602 96.4962C113.534 87.1397 124.225 68.0226 124.225 68.0226H135.659L130.631 93.822L165.941 93.7643L162.177 113.33L126.873 113.318L120.319 147.383Z"
            fill="white" />
    </g>
    <defs>
        <clipPath id="clip0_5337_17064">
            <rect width="249.311" height="256" fill="white" transform="translate(3)" />
        </clipPath>
    </defs>
</svg>