<?xml version="1.0" standalone="no"?>
<!DOCTYPE svg PUBLIC "-//W3C//DTD SVG 20010904//EN"
 "http://www.w3.org/TR/2001/REC-SVG-20010904/DTD/svg10.dtd">
<svg version="1.0" xmlns="http://www.w3.org/2000/svg"
 width="256.000000pt" height="256.000000pt" viewBox="0 0 256.000000 256.000000"
 preserveAspectRatio="xMidYMid meet">
<metadata>
Created by potrace 1.10, written by Peter Selinger 2001-2011
</metadata>
<g transform="translate(0.000000,256.000000) scale(0.100000,-0.100000)"
fill="#000000" stroke="none">
<path d="M1250 2552 c0 -4 9 -13 20 -20 16 -10 20 -10 20 2 0 8 6 17 13 19 6
3 -3 6 -20 6 -18 1 -33 -2 -33 -7z"/>
<path d="M1680 2550 c0 -3 5 -32 11 -63 12 -56 30 -74 43 -41 8 20 -2 37 -18
31 -6 -2 -12 6 -12 19 -1 13 3 21 10 19 6 -3 22 -6 36 -9 49 -8 127 -39 220
-87 241 -123 454 -372 539 -631 6 -20 20 -43 30 -53 19 -16 19 -15 10 27 -14
62 -70 188 -126 282 -34 58 -83 116 -168 201 -128 128 -210 185 -361 250 -79
34 -214 69 -214 55z"/>
<path d="M1642 2491 c-8 -23 -7 -32 4 -42 8 -6 14 -10 15 -8 14 73 1 106 -19
50z"/>
<path d="M140 2499 c0 -5 4 -9 9 -9 5 0 21 -21 37 -47 35 -61 98 -129 137
-148 36 -18 34 -18 34 0 0 8 -6 15 -13 15 -8 0 -26 24 -40 53 -42 83 -71 114
-120 131 -24 8 -44 11 -44 5z m90 -73 c0 -8 7 -17 16 -20 8 -3 12 -10 9 -16
-7 -12 -21 1 -48 43 -18 28 -18 28 2 17 12 -6 21 -17 21 -24z"/>
<path d="M1100 2485 c0 -8 9 -19 20 -25 23 -12 25 -3 6 23 -16 21 -26 22 -26
2z"/>
<path d="M1587 2418 c-6 -18 -10 -37 -9 -42 2 -4 -1 -13 -6 -20 -5 -6 -6 -22
-2 -36 l7 -25 7 30 c3 17 9 43 12 59 3 16 9 37 15 48 7 12 6 18 -1 18 -6 0
-16 -15 -23 -32z"/>
<path d="M340 2430 c0 -5 5 -12 11 -15 6 -4 8 -13 5 -20 -3 -8 6 -21 19 -29
23 -15 24 -15 18 1 -5 13 -2 15 11 10 15 -6 15 -5 -1 18 -19 26 -63 50 -63 35z"/>
<path d="M1072 2413 c-1 -17 -5 -38 -8 -47 -4 -12 0 -16 16 -16 17 0 20 3 12
13 -6 6 -12 28 -15 47 l-4 35 -1 -32z"/>
<path d="M1310 2435 c0 -2 12 -11 28 -19 l27 -15 -40 -2 c-31 -1 -24 -4 29
-10 38 -5 72 -12 75 -15 3 -3 -13 -40 -36 -83 l-42 -77 22 -62 c12 -34 26 -62
30 -62 4 0 3 9 -3 19 -13 26 -13 34 3 25 6 -4 4 2 -6 13 -14 16 -15 23 -6 29
9 5 6 10 -9 15 -22 8 -31 29 -12 29 6 0 10 9 10 20 0 11 7 23 15 26 8 4 15 14
15 23 0 9 9 31 20 49 21 35 19 52 -6 52 -8 0 -25 11 -38 25 -20 21 -76 36 -76
20z"/>
<path d="M780 2427 c0 -2 6 -23 14 -45 8 -22 12 -43 9 -46 -4 -3 -1 -6 6 -6
17 0 5 67 -15 87 -8 8 -14 12 -14 10z"/>
<path d="M1773 2411 c-29 -24 -16 -44 17 -25 l25 15 -25 -7 c-25 -7 -25 -7 -6
15 23 26 19 27 -11 2z"/>
<path d="M724 2373 c5 -39 6 -41 15 -18 9 22 4 45 -9 45 -5 0 -7 -12 -6 -27z"/>
<path d="M560 2335 c13 -22 29 -47 37 -56 7 -8 13 -20 13 -26 0 -6 7 -16 15
-23 38 -32 -15 76 -56 115 l-32 30 23 -40z"/>
<path d="M694 2343 c1 -14 7 -28 14 -31 13 -4 16 16 6 42 -10 25 -21 19 -20
-11z"/>
<path d="M1765 2361 l-30 -6 38 -12 c32 -9 36 -9 27 2 -8 10 -7 14 2 18 17 7
0 6 -37 -2z"/>
<path d="M932 2343 c2 -10 11 -19 21 -21 24 -5 21 15 -4 28 -18 10 -20 9 -17
-7z"/>
<path d="M1526 2327 c-10 -7 -18 -27 -18 -45 -1 -18 -5 -32 -10 -32 -4 0 -8 5
-8 10 0 6 -7 10 -15 10 -8 0 -15 -4 -15 -9 0 -18 38 -22 72 -7 18 8 25 15 16
15 -17 1 -35 38 -23 49 4 4 13 -2 21 -12 13 -19 14 -19 14 7 0 30 -8 33 -34
14z"/>
<path d="M1763 2318 c1 -7 -3 -12 -10 -13 -6 0 -15 -3 -19 -7 -4 -5 23 -8 59
-8 37 0 67 -3 67 -7 -1 -5 -16 -37 -34 -72 l-33 -64 28 -75 c26 -69 49 -112
36 -67 -3 11 -9 38 -13 60 -4 22 -9 45 -13 50 -10 18 -10 39 0 51 5 7 8 18 7
25 -2 8 3 13 10 11 8 -1 11 2 8 7 -4 5 -2 12 4 16 5 3 10 20 10 36 0 25 -6 33
-35 45 -20 8 -40 12 -45 9 -6 -4 -10 -1 -10 4 0 6 -4 11 -10 11 -5 0 -9 -5 -7
-12z"/>
<path d="M668 2270 c5 -36 19 -48 28 -25 4 10 -1 25 -13 36 -20 20 -20 20 -15
-11z"/>
<path d="M1010 2276 c0 -3 24 -12 53 -21 28 -9 59 -19 67 -22 10 -4 12 -2 5 5
-5 6 -34 17 -64 26 -60 18 -61 18 -61 12z"/>
<path d="M886 2204 c19 -15 19 -16 -1 -8 -30 10 -54 10 -57 -1 -4 -14 82 -19
96 -5 13 13 -8 30 -38 30 -20 0 -20 0 0 -16z"/>
<path d="M680 2200 c0 -9 59 -100 65 -100 9 0 -41 100 -52 104 -7 3 -13 1 -13
-4z"/>
<path d="M1235 2201 c-2 -5 11 -27 31 -49 39 -45 129 -122 123 -105 -8 21
-148 162 -154 154z"/>
<path d="M1595 2186 c28 -14 57 -26 65 -26 8 0 -3 9 -26 19 -65 30 -94 34 -39
7z"/>
<path d="M1021 2177 c24 -22 28 -34 34 -119 8 -105 14 -122 38 -112 18 7 19
61 1 68 -6 2 -17 39 -24 81 -12 70 -16 77 -44 91 l-31 15 26 -24z"/>
<path d="M1450 2187 c0 -20 29 -56 30 -37 0 10 5 7 16 -8 8 -12 20 -20 26 -16
5 4 -4 21 -23 40 -35 36 -49 42 -49 21z"/>
<path d="M1720 2134 c0 -6 19 -31 41 -55 46 -48 38 -25 -10 31 -17 19 -31 30
-31 24z"/>
<path d="M892 2093 c-12 -23 -22 -48 -22 -55 1 -7 7 1 15 17 11 24 14 26 14
10 1 -15 3 -17 10 -7 6 10 10 3 15 -22 4 -20 11 -36 16 -36 15 0 12 57 -4 73
-8 7 -16 25 -18 38 -3 22 -6 20 -26 -18z"/>
<path d="M76 2029 c34 -34 67 -60 74 -57 14 4 -29 53 -82 91 -60 44 -57 31 8
-34z"/>
<path d="M500 2083 c1 -12 129 -97 136 -90 4 3 -8 18 -25 33 -35 29 -33 44 7
45 24 0 25 1 7 9 -25 11 -125 13 -125 3z"/>
<path d="M235 2025 c17 -14 34 -25 39 -25 16 0 -25 38 -47 43 -19 5 -17 2 8
-18z"/>
<path d="M1230 2024 c0 -8 -4 -12 -10 -9 -5 3 -10 2 -10 -3 0 -5 11 -14 24
-21 21 -12 23 -17 15 -45 -12 -41 -11 -46 5 -46 16 0 28 60 15 75 -5 5 -9 22
-9 37 0 18 -5 28 -15 28 -8 0 -15 -7 -15 -16z"/>
<path d="M780 2016 c0 -10 14 -32 30 -48 17 -15 30 -37 30 -47 0 -13 11 -23
36 -31 19 -7 37 -10 40 -8 2 3 -27 38 -66 79 -49 53 -69 69 -70 55z"/>
<path d="M1320 2004 c0 -27 14 -46 43 -57 9 -3 17 -13 17 -22 0 -8 6 -15 14
-15 12 0 12 4 0 30 -15 29 -12 50 7 50 5 0 7 -11 3 -24 -7 -28 11 -43 30 -27
10 9 15 8 20 -5 3 -9 4 -20 0 -25 -3 -5 4 -9 14 -9 11 0 22 9 25 21 3 11 14
23 25 26 31 8 41 73 11 73 -6 0 -6 -8 1 -20 6 -12 7 -20 1 -20 -5 0 -11 6 -14
13 -3 10 -9 10 -26 0 -27 -17 -41 -16 -60 1 -9 8 -32 16 -51 20 -19 3 -29 3
-22 0 6 -3 12 -18 11 -32 0 -25 -1 -24 -17 11 -19 43 -32 48 -32 11z m190 -38
c0 -2 -11 -11 -24 -19 -22 -15 -24 -15 -29 3 -4 17 0 20 24 20 16 0 29 -2 29
-4z"/>
<path d="M1690 2015 c-8 -10 -8 -15 0 -20 8 -5 7 -10 -2 -18 -7 -7 -11 -11 -9
-10 2 2 10 -2 18 -8 13 -11 17 -1 16 38 0 6 6 9 13 6 12 -4 12 -8 2 -21 -11
-13 -10 -15 3 -10 11 5 20 -3 29 -28 8 -19 18 -34 23 -34 5 0 6 -8 2 -17 -4
-13 -3 -15 5 -7 7 7 8 19 1 37 -6 15 -7 27 -4 27 4 0 -3 7 -15 16 -27 19 -29
34 -2 27 38 -10 20 5 -24 20 -37 13 -47 13 -56 2z"/>
<path d="M290 1969 c0 -5 5 -7 10 -4 7 4 9 -2 5 -17 -7 -27 16 -55 35 -43 7 4
14 -2 17 -14 3 -12 13 -21 25 -21 15 0 17 3 9 19 -6 10 -17 21 -26 25 -8 3
-15 10 -15 17 0 11 -39 48 -52 49 -5 0 -8 -5 -8 -11z"/>
<path d="M641 1903 c0 -46 3 -83 7 -83 5 0 35 25 68 55 32 30 50 52 39 48 -11
-3 -32 -17 -47 -31 -24 -22 -28 -23 -28 -8 0 9 -4 14 -10 11 -9 -6 -15 10 -23
65 -3 14 -5 -12 -6 -57z"/>
<path d="M410 1966 c0 -8 81 -69 85 -64 3 3 -15 19 -40 37 -25 18 -45 30 -45
27z"/>
<path d="M69 1914 c42 -49 152 -144 166 -143 5 0 0 7 -13 16 -13 9 -51 45 -85
80 -72 75 -120 108 -68 47z"/>
<path d="M1114 1919 c-10 -17 13 -36 27 -22 12 12 4 33 -11 33 -5 0 -12 -5
-16 -11z"/>
<path d="M550 1848 c18 -27 39 -48 47 -48 19 0 18 1 -34 50 l-46 45 33 -47z"/>
<path d="M1673 1878 c-13 -6 -23 -14 -23 -17 1 -6 91 -51 103 -51 4 0 4 7 1
15 -5 11 -2 13 11 9 13 -5 16 -3 13 7 -3 9 -17 13 -46 10 -35 -2 -41 0 -36 13
3 9 11 13 17 9 6 -3 7 -1 3 5 -9 14 -14 14 -43 0z"/>
<path d="M440 1872 c0 -5 13 -18 29 -30 36 -27 53 -10 19 18 -24 20 -48 26
-48 12z"/>
<path d="M920 1866 c-15 -19 -6 -46 15 -46 16 0 20 27 6 48 -6 10 -10 10 -21
-2z"/>
<path d="M1086 1829 c-33 -16 -80 -45 -106 -64 -75 -55 -194 -187 -235 -259
-20 -36 -40 -66 -43 -66 -4 0 -20 14 -37 31 -16 17 -39 35 -50 41 -11 5 2 -9
28 -33 52 -44 50 -61 -5 -55 -16 2 -29 -3 -32 -11 -9 -24 -53 -34 -99 -22 -84
21 -94 21 -54 0 52 -27 94 -28 149 -2 25 11 53 19 61 15 19 -7 49 23 119 116
30 41 89 109 130 150 67 68 96 90 223 166 57 33 21 29 -49 -7z"/>
<path d="M390 1820 c0 -6 4 -10 9 -10 4 0 24 -13 42 -30 19 -16 42 -32 52 -36
9 -3 17 -9 17 -13 0 -3 9 -7 20 -7 11 0 20 3 20 6 0 13 -46 49 -85 66 -22 10
-48 21 -57 26 -10 4 -18 3 -18 -2z"/>
<path d="M124 1779 c16 -39 46 -59 46 -31 0 10 -13 28 -29 40 l-30 22 13 -31z"/>
<path d="M1777 1803 c-3 -3 21 -25 53 -50 92 -69 189 -193 233 -298 47 -113
97 -311 97 -384 0 -79 57 0 131 182 34 85 56 107 107 107 39 0 87 -41 98 -84
8 -33 -12 -108 -38 -141 -18 -24 -18 -24 13 -60 17 -19 44 -45 60 -56 l29 -20
0 25 c0 17 -6 26 -15 26 -9 0 -18 7 -21 15 -3 8 -14 17 -24 20 -28 9 -31 44
-8 89 25 48 26 128 2 164 -21 32 -78 55 -118 46 -50 -10 -73 -40 -102 -131
-28 -88 -76 -187 -97 -200 -9 -5 -9 -3 -1 8 7 8 8 22 3 34 -4 11 -8 36 -8 56
-1 19 -6 40 -11 45 -6 6 -13 35 -17 64 -3 30 -12 65 -20 79 -7 15 -13 32 -13
39 0 7 -16 46 -35 87 -20 41 -36 78 -37 82 0 5 -9 14 -19 21 -11 7 -19 20 -19
28 0 8 -9 22 -20 31 -11 10 -20 22 -20 28 0 5 -21 28 -46 50 -26 22 -59 52
-75 66 -30 29 -54 41 -62 32z"/>
<path d="M1262 1783 c-12 -2 -20 -8 -17 -13 3 -4 22 -4 42 1 55 12 61 11 65
-11 3 -18 4 -18 15 5 11 25 11 25 -35 24 -26 -1 -57 -4 -70 -6z"/>
<path d="M263 1762 c10 -10 17 -23 17 -29 0 -5 12 -15 27 -22 25 -11 25 -11
12 6 -20 26 -59 63 -66 63 -3 0 1 -8 10 -18z"/>
<path d="M670 1774 c0 -6 16 -25 35 -44 25 -24 31 -36 22 -42 -9 -5 -8 -11 5
-25 26 -26 35 -7 14 32 -20 36 -76 95 -76 79z"/>
<path d="M760 1741 c0 -5 9 -11 20 -14 11 -3 18 -1 14 4 -9 15 16 10 33 -6 19
-20 30 -11 13 10 -13 16 -80 21 -80 6z"/>
<path d="M1669 1711 c-23 -19 -23 -20 -7 -54 25 -52 59 -72 99 -58 61 21 87
14 143 -39 29 -27 58 -50 64 -50 35 0 -18 103 -79 154 -75 64 -174 85 -220 47z
m181 -43 c62 -40 80 -59 104 -105 22 -43 4 -42 -29 1 -14 18 -43 41 -65 51
-34 16 -45 16 -85 5 -39 -11 -48 -10 -70 4 -30 20 -44 64 -24 78 29 19 112 3
169 -34z"/>
<path d="M170 1715 c0 -3 21 -24 46 -47 40 -38 227 -157 246 -158 4 0 5 7 1
16 -8 22 28 11 84 -27 23 -15 40 -22 37 -16 -8 18 -88 68 -186 116 -49 24 -85
47 -82 52 3 5 -2 6 -10 3 -9 -4 -18 1 -22 10 -3 9 -11 16 -18 16 -6 0 -22 6
-36 13 -34 18 -60 27 -60 22z"/>
<path d="M0 1693 c0 -2 35 -20 78 -39 42 -20 92 -42 110 -51 19 -8 36 -13 38
-10 2 2 -28 19 -68 38 -95 43 -158 68 -158 62z"/>
<path d="M610 1658 c0 -25 70 -78 102 -78 25 0 28 3 24 26 -3 15 -6 27 -8 28
-2 1 -12 8 -23 16 -18 13 -19 13 -9 0 6 -8 11 -23 11 -33 0 -15 -5 -13 -29 9
-15 15 -31 24 -35 21 -3 -4 0 -7 7 -7 7 0 10 -3 6 -7 -4 -4 -16 3 -26 17 -15
19 -20 21 -20 8z"/>
<path d="M1165 1582 c-68 -22 -146 -102 -174 -177 -26 -69 -26 -97 -2 -119 25
-22 36 -16 62 37 55 109 121 153 215 144 66 -7 94 10 94 58 0 70 -83 94 -195
57z m162 -28 c13 -58 12 -59 -52 -60 -104 -1 -187 -53 -236 -147 -37 -72 -55
-13 -18 62 38 80 130 150 209 159 19 2 37 5 38 7 12 11 56 -5 59 -21z"/>
<path d="M180 1585 c0 -3 14 -12 30 -20 17 -9 28 -20 25 -25 -4 -6 2 -13 11
-17 10 -3 26 -15 36 -25 10 -10 23 -16 28 -13 6 4 10 1 10 -4 0 -6 8 -11 18
-11 14 0 12 4 -8 19 -13 11 -28 17 -32 14 -5 -2 -7 -1 -6 4 5 15 -46 60 -79
71 -18 6 -33 9 -33 7z"/>
<path d="M330 1511 c25 -22 45 -45 45 -51 0 -5 3 -10 8 -10 4 0 10 0 14 0 3 0
-4 11 -16 24 -13 14 -18 26 -12 30 5 4 13 1 16 -5 4 -5 14 -8 22 -4 14 5 14 3
2 -11 -13 -16 -12 -16 8 -6 15 9 30 9 48 2 14 -5 24 -6 21 -1 -6 10 -103 41
-139 45 -14 1 -34 8 -44 15 -10 7 2 -5 27 -28z"/>
<path d="M1779 1473 c-36 -22 -57 -60 -64 -119 -8 -61 9 -155 34 -186 16 -20
22 -21 45 -10 24 11 26 16 26 80 0 65 17 112 40 112 16 0 80 -62 80 -77 0 -11
6 -14 23 -9 12 3 30 6 40 6 23 0 21 22 -8 85 -24 50 -93 125 -115 125 -6 0 7
-16 29 -35 41 -38 86 -127 76 -152 -4 -12 -14 -6 -44 26 -29 31 -45 41 -70 41
-42 0 -71 -46 -71 -112 0 -51 -14 -68 -37 -46 -10 10 -16 45 -19 109 -5 83 -3
98 15 127 11 17 28 32 36 32 8 0 15 5 15 10 0 13 0 13 -31 -7z"/>
<path d="M458 1450 c-26 -9 -51 -20 -55 -23 -11 -12 16 -8 54 8 19 8 44 15 55
15 10 0 16 5 13 10 -7 12 -7 12 -67 -10z"/>
<path d="M305 1392 c-6 -5 -50 -26 -100 -47 -86 -37 -150 -76 -99 -61 14 4 27
0 39 -14 20 -23 17 -30 -14 -33 -11 -1 -21 -7 -21 -14 0 -15 16 -17 25 -4 3 5
29 17 58 26 28 10 72 29 97 43 25 13 61 33 80 43 l35 17 -30 12 c-16 6 -41 9
-55 6 -25 -5 -25 -5 -2 6 18 9 31 9 58 -1 50 -18 53 -7 4 13 -45 18 -62 20
-75 8z m-20 -42 c4 -6 16 -8 28 -5 16 5 18 4 8 -3 -11 -8 -11 -10 0 -15 12 -5
-16 -9 -37 -6 -4 0 -10 -5 -15 -12 -6 -10 -10 -7 -17 11 -12 32 17 57 33 30z
m-45 -26 c0 -32 -33 -50 -82 -46 -26 3 -22 21 7 28 13 3 29 12 36 20 15 19 39
18 39 -2z"/>
<path d="M684 1379 c-41 -49 -66 -275 -45 -405 31 -203 122 -368 279 -508 74
-66 127 -98 216 -130 200 -73 437 -54 620 48 79 44 202 156 232 213 12 21 34
60 49 86 15 26 25 51 21 54 -3 3 -10 -5 -16 -18 -28 -64 -62 -111 -127 -175
-97 -95 -105 -101 -184 -141 -38 -19 -69 -39 -69 -44 0 -5 -6 -9 -13 -9 -8 0
-28 -7 -45 -16 -18 -8 -36 -13 -42 -9 -5 3 -15 3 -22 -1 -20 -13 -59 -17 -163
-17 -116 0 -158 10 -275 65 -47 22 -85 39 -85 37 0 -2 -16 7 -35 20 -52 36
-150 133 -150 150 0 8 -11 28 -24 46 -77 101 -129 248 -149 425 -7 59 11 233
28 273 19 45 18 80 -1 56z"/>
<path d="M1225 1331 c-77 -35 -122 -98 -132 -182 -4 -34 -11 -53 -22 -56 -65
-21 -105 -52 -130 -100 -23 -45 -10 -45 19 1 41 64 94 88 200 88 44 0 90 -4
102 -7 39 -12 87 -54 108 -95 36 -70 22 -125 -46 -194 -19 -19 -22 -25 -9 -18
52 27 85 86 85 149 0 84 -79 173 -154 173 -46 0 -47 60 -1 106 37 37 76 32
119 -16 20 -22 36 -46 36 -53 0 -8 9 -22 19 -31 15 -14 26 -16 47 -9 44 15 50
34 31 95 -42 134 -162 200 -272 149z m134 -22 c36 -13 94 -83 111 -135 22 -67
-34 -81 -63 -16 -44 98 -163 102 -209 7 -19 -39 -26 -45 -48 -43 -37 4 -39 47
-5 101 52 82 133 114 214 86z"/>
<path d="M484 1328 c-4 -7 -3 -8 4 -4 7 4 12 3 12 -3 0 -14 58 -44 73 -38 7 3
-2 10 -20 17 -17 6 -34 18 -37 26 -7 17 -22 18 -32 2z"/>
<path d="M383 1307 c10 -30 137 -65 137 -37 0 17 -59 41 -85 34 -14 -3 -25 -2
-25 3 0 5 -7 10 -15 10 -9 0 -14 -5 -12 -10z"/>
<path d="M55 1267 c-12 -9 -19 -31 -23 -67 l-5 -52 139 -137 c119 -116 360
-347 664 -636 140 -133 236 -220 280 -255 l45 -35 -29 35 c-15 19 -88 92 -162
163 -74 71 -132 132 -129 137 6 10 -49 61 -71 65 -11 1 -18 7 -17 13 1 5 -28
38 -65 73 -37 35 -166 158 -287 274 -121 116 -250 239 -287 274 -43 41 -68 72
-68 85 1 20 2 20 18 -3 30 -42 212 -220 467 -456 71 -66 170 -159 220 -206
154 -147 230 -217 261 -241 52 -40 98 -81 162 -145 35 -35 65 -63 67 -63 5 0
54 -42 81 -69 15 -15 31 -22 43 -18 16 4 130 69 241 137 79 49 119 67 124 57
2 -7 5 -6 5 4 1 8 17 23 36 32 19 9 35 22 35 29 0 6 3 8 6 5 4 -4 20 3 36 14
16 12 36 22 44 23 8 1 24 10 35 19 11 10 24 15 28 13 5 -3 16 3 26 14 14 15
15 20 4 20 -12 0 -12 2 0 9 7 5 21 7 30 4 9 -2 43 12 76 32 67 40 89 38 121
-11 18 -26 17 -27 -8 -49 -34 -29 -190 -121 -200 -117 -4 1 -8 -2 -8 -8 0 -5
-21 -21 -47 -35 -27 -14 -55 -30 -64 -37 -9 -6 -25 -8 -35 -4 -16 6 -16 9 -4
16 13 9 13 10 0 10 -8 0 -21 9 -28 20 -7 11 -17 20 -23 20 -6 0 1 -14 15 -31
14 -17 24 -34 21 -39 -3 -4 1 -13 9 -19 10 -9 28 -2 80 31 36 24 88 56 114 72
26 16 76 48 112 71 36 23 76 47 90 54 l25 12 -23 -20 c-38 -33 -355 -234 -387
-245 -52 -19 -172 -100 -153 -104 19 -4 14 -6 183 104 66 42 167 106 225 142
112 68 160 107 160 130 0 25 -243 243 -256 229 -3 -3 26 -29 65 -58 38 -30 70
-57 70 -60 1 -3 -14 -12 -31 -21 -48 -23 -655 -375 -707 -410 -43 -29 -44 -29
-65 -10 -11 10 -73 63 -136 117 -63 55 -122 106 -131 115 -9 8 -96 87 -195
175 -243 218 -424 385 -579 536 -72 70 -149 143 -172 162 -28 23 -38 38 -31
45 6 6 6 12 -1 16 -6 4 -11 2 -11 -5 0 -8 -4 -8 -15 1 -20 17 -19 31 3 23 14
-6 15 -4 4 9 -10 13 -10 17 0 21 7 2 10 7 7 11 -3 3 -14 0 -24 -7z"/>
<path d="M202 1168 c2 -18 24 -34 98 -70 116 -59 154 -63 95 -13 -37 32 -82
58 -163 92 -33 14 -33 13 -30 -9z"/>
<path d="M454 1125 c11 -8 16 -16 10 -16 -16 -2 50 -17 81 -17 28 -1 29 0 11
13 -10 8 -22 12 -27 10 -4 -3 -9 -1 -11 4 -1 4 -21 11 -43 15 -37 6 -39 5 -21
-9z"/>
<path d="M1849 1109 c-3 -41 3 -92 12 -113 5 -13 6 7 3 54 -7 77 -13 101 -15
59z"/>
<path d="M2402 1018 c-21 -21 -31 -23 -114 -21 -89 1 -91 1 -116 -29 -14 -16
-31 -27 -38 -24 -10 4 -14 -3 -14 -19 0 -14 -4 -25 -10 -25 -5 0 -10 -5 -10
-11 0 -5 5 -7 10 -4 6 3 10 -3 10 -14 0 -11 5 -23 11 -26 6 -5 8 -27 3 -61 -4
-33 -3 -54 3 -54 11 0 23 79 23 153 0 38 5 53 25 73 23 23 29 24 97 19 64 -6
78 -4 117 17 24 13 44 27 43 33 -1 18 -17 15 -40 -7z"/>
<path d="M378 1002 c-13 -6 -14 -10 -5 -23 7 -9 21 -18 31 -20 28 -6 45 -37
26 -49 -8 -5 -10 -10 -5 -10 41 0 52 49 19 85 -24 26 -36 29 -66 17z"/>
<path d="M1880 942 c0 -12 75 -36 91 -29 9 3 7 6 -6 6 -11 1 -33 8 -49 16 -33
17 -36 18 -36 7z"/>
<path d="M2018 923 c-16 -3 -28 -11 -28 -19 0 -29 -63 -138 -107 -185 -53 -57
-141 -104 -227 -121 -108 -21 -232 19 -320 104 -49 47 -49 47 -77 31 -23 -14
-26 -20 -17 -36 24 -46 92 -106 152 -136 195 -96 454 -10 570 189 26 45 91
184 83 179 -1 -1 -14 -4 -29 -6z m-601 -313 c23 -12 48 -23 55 -24 7 -1 18 -5
25 -9 7 -4 28 -8 48 -9 19 -1 35 -5 35 -10 0 -17 -109 0 -163 25 -55 25 -137
95 -137 116 0 7 21 -6 48 -28 26 -21 66 -49 89 -61z"/>
<path d="M520 895 c0 -19 5 -26 17 -23 25 5 27 25 4 38 -19 10 -21 8 -21 -15z"/>
<path d="M12 789 c21 -116 87 -273 169 -399 63 -97 248 -275 344 -332 44 -25
91 -49 104 -53 l24 -7 -19 25 c-11 13 -41 37 -69 53 -225 125 -418 371 -499
634 -15 47 -35 96 -45 109 l-19 25 10 -55z"/>
<path d="M2445 793 c-88 -22 -108 -24 -165 -15 -36 6 -74 13 -85 17 -17 7 -18
6 -7 -6 21 -23 159 -38 212 -23 25 7 71 18 103 24 31 6 57 16 57 21 0 12 2 12
-115 -18z"/>
<path d="M2086 697 c8 -26 24 -46 24 -30 0 6 3 18 6 26 3 9 -3 16 -16 20 -18
4 -20 2 -14 -16z"/>
<path d="M1180 687 c-27 -14 -48 -17 -90 -13 -42 4 -51 2 -36 -6 27 -15 133
-5 153 15 24 24 13 26 -27 4z"/>
<path d="M2490 637 c-60 -29 -207 -32 -257 -4 -18 10 -33 15 -33 12 0 -2 19
-15 43 -27 32 -17 59 -22 117 -22 65 0 83 4 135 32 68 35 64 43 -5 9z"/>
<path d="M2543 550 c-21 -32 -61 -52 -121 -60 l-57 -7 48 -2 c60 -1 147 39
147 69 0 25 -2 25 -17 0z"/>
<path d="M2251 331 c-6 -10 -31 -31 -56 -45 -44 -26 -65 -47 -26 -26 13 7 22
7 26 0 3 -5 1 -10 -6 -10 -7 0 -20 -6 -28 -14 -23 -20 -140 -79 -159 -80 -20
-1 -254 -147 -247 -154 2 -3 17 4 32 14 15 10 30 19 33 19 3 0 22 13 42 28 39
30 70 29 46 -1 -16 -19 -25 -24 159 91 153 96 179 118 193 165 10 36 6 41 -9
13z"/>
<path d="M1335 181 c-18 -7 -18 -8 -1 -18 11 -6 28 -8 40 -5 18 5 19 3 8 -11
-11 -13 -10 -17 7 -27 18 -9 21 -8 21 8 0 10 -6 27 -14 37 -12 17 -16 18 -32
5 -16 -14 -17 -13 -11 3 3 9 5 17 4 16 -1 0 -11 -4 -22 -8z"/>
</g>
</svg>
