<?xml version="1.0" standalone="no"?>
<!DOCTYPE svg PUBLIC "-//W3C//DTD SVG 20010904//EN"
 "http://www.w3.org/TR/2001/REC-SVG-20010904/DTD/svg10.dtd">
<svg version="1.0" xmlns="http://www.w3.org/2000/svg"
 width="362.000000pt" height="341.000000pt" viewBox="0 0 362.000000 341.000000"
 preserveAspectRatio="xMidYMid meet">

<g transform="translate(0.000000,341.000000) scale(0.100000,-0.100000)"
fill="#000000" stroke="none">
<path d="M0 3272 l0 -138 49 -37 c52 -40 66 -45 58 -22 -4 8 -2 17 2 20 5 2 0
22 -10 43 -28 55 -18 74 35 66 22 -4 50 -14 61 -24 48 -42 115 -55 115 -23 0
14 3 14 15 -5 20 -28 99 -82 119 -82 24 0 20 16 -23 94 -61 108 -89 137 -162
163 -60 21 -61 22 -19 16 25 -4 55 -7 68 -7 12 -1 22 -4 22 -8 0 -5 29 -19 85
-39 17 -6 18 -7 2 -8 -15 -1 -14 -5 8 -28 14 -15 25 -32 25 -38 0 -15 42 -51
67 -59 23 -7 39 -44 30 -68 -2 -7 0 -21 5 -30 10 -21 58 -24 58 -4 0 7 3 26 6
42 4 23 -1 36 -26 64 -56 62 -63 76 -48 99 9 14 23 21 45 21 31 0 41 -12 49
-57 1 -7 19 -27 40 -45 74 -64 166 -179 169 -211 1 -12 3 -25 4 -29 0 -4 12
-7 26 -6 18 2 25 8 25 24 0 21 -22 104 -40 151 -10 25 -2 37 16 22 8 -6 21 -8
30 -5 13 5 14 9 4 21 -21 25 -4 17 41 -21 l42 -35 23 28 c13 15 33 47 45 71
l21 43 18 -28 c9 -15 37 -47 61 -69 24 -23 54 -54 66 -69 21 -26 25 -27 53
-15 28 12 30 16 24 44 -3 17 -15 46 -26 64 -11 17 -15 32 -10 32 14 0 28 -21
36 -55 10 -40 23 -54 46 -48 38 10 45 32 45 137 0 98 0 100 25 106 18 5 24 12
22 26 -2 10 -3 27 -3 37 0 16 -27 17 -424 17 l-424 0 10 -32 c5 -18 9 -34 9
-34 0 -1 -17 14 -37 32 l-37 34 -108 0 c-87 0 -108 -3 -108 -14 0 -8 -5 -18
-10 -21 -6 -4 -10 -3 -9 2 5 31 -2 33 -136 33 -123 0 -134 -1 -129 -17 5 -17
5 -17 -6 0 -24 37 -30 14 -30 -121z m100 43 c0 -3 -11 7 -25 23 -14 17 -25 33
-25 37 0 3 11 -7 25 -23 14 -17 25 -33 25 -37z m200 -131 c0 -8 -4 -14 -10
-14 -5 0 -10 9 -10 21 0 11 5 17 10 14 6 -3 10 -13 10 -21z"/>
<path d="M1805 3400 c3 -5 17 -10 31 -10 16 0 24 -5 22 -14 -2 -8 6 -21 17
-29 16 -12 17 -18 7 -30 -10 -12 -9 -16 3 -21 9 -3 13 -10 10 -16 -3 -5 4 -11
17 -11 17 -1 18 -3 6 -6 -22 -6 -24 -49 -2 -57 8 -3 13 -10 10 -15 -3 -5 16
-12 44 -16 27 -4 52 -10 54 -14 3 -4 -11 -33 -30 -65 -18 -31 -34 -64 -34 -72
0 -7 -4 -14 -9 -14 -11 0 -23 -34 -26 -70 -1 -14 5 -43 15 -65 9 -22 20 -52
23 -67 4 -16 14 -28 22 -28 8 0 15 -5 15 -11 0 -5 -4 -7 -10 -4 -14 9 -12 -1
6 -38 21 -42 21 -42 36 -30 15 12 48 13 48 2 0 -14 -18 -19 -23 -7 -4 10 -6
10 -6 0 -1 -7 4 -19 11 -26 10 -10 17 -10 40 3 15 9 28 19 28 24 0 4 5 7 11 7
17 0 -10 -29 -43 -46 -34 -18 -72 -10 -63 13 5 14 3 14 -12 2 -9 -8 -14 -9
-10 -3 4 8 -11 14 -46 18 -28 4 -62 10 -74 13 -21 5 -23 2 -23 -32 0 -31 3
-36 17 -31 10 4 14 4 10 0 -7 -8 10 -34 23 -34 5 0 10 8 13 18 2 9 7 -4 11
-30 6 -33 13 -48 23 -48 10 0 14 7 10 20 -4 17 -1 19 36 15 39 -4 61 -20 51
-37 -3 -4 5 -8 16 -8 13 0 24 8 27 20 3 11 9 17 14 14 5 -3 9 2 9 10 0 9 5 17
10 17 6 1 15 3 20 4 6 1 15 3 20 4 6 0 10 8 10 16 0 9 9 15 25 15 18 0 25 5
25 20 0 40 -23 170 -30 170 -4 0 -42 27 -84 61 -71 57 -90 79 -66 79 6 0 10 6
10 14 0 10 7 13 21 11 11 -2 39 3 61 12 33 13 38 18 26 27 -19 14 -33 56 -19
56 5 0 16 -7 24 -15 13 -13 16 -13 21 0 3 8 11 15 19 15 8 0 20 28 31 76 20
83 45 119 77 109 14 -5 19 -2 19 12 0 11 4 23 8 28 5 6 7 31 4 58 l-4 47 -280
0 c-183 0 -277 -3 -273 -10z m305 -699 c0 -6 -4 -13 -10 -16 -5 -3 -10 1 -10
9 0 9 5 16 10 16 6 0 10 -4 10 -9z m-183 -53 c-3 -8 -6 -5 -6 6 -1 11 2 17 5
13 3 -3 4 -12 1 -19z m237 6 c3 -8 2 -12 -4 -9 -6 3 -10 10 -10 16 0 14 7 11
14 -7z"/>
<path d="M2374 3358 c4 -29 13 -58 21 -64 8 -6 15 -17 15 -25 0 -12 2 -12 9
-1 6 10 10 8 14 -10 6 -22 7 -22 22 -3 16 20 16 20 11 0 -7 -25 8 -50 23 -41
6 4 11 3 11 -3 0 -5 -6 -12 -12 -14 -10 -4 -10 -6 -1 -6 7 -1 10 -8 7 -16 -4
-10 0 -15 12 -16 15 0 13 -3 -6 -10 l-25 -10 25 -20 c14 -10 18 -17 9 -14 -12
5 -16 -1 -16 -23 0 -29 1 -30 69 -36 l68 -7 -42 -77 c-23 -42 -45 -82 -50 -89
-6 -7 -5 -20 2 -33 10 -18 70 -180 70 -188 0 -5 -58 8 -133 30 -65 18 -70 18
-88 2 -16 -14 -17 -20 -6 -33 11 -14 10 -14 -6 -2 -9 8 -21 10 -25 6 -4 -4 -1
-10 6 -12 9 -3 10 -9 3 -17 -8 -9 -1 -12 24 -12 19 0 35 5 35 11 0 5 11 10 24
10 13 0 24 -2 23 -5 -1 -3 6 -16 15 -30 21 -32 34 -75 20 -66 -5 3 -17 -5 -26
-19 -15 -23 -21 -25 -61 -19 -24 3 -49 3 -55 -1 -15 -9 8 -48 26 -41 8 3 14 2
14 -3 0 -9 60 -37 73 -33 4 1 7 -2 7 -8 0 -5 7 -6 17 -3 10 4 14 2 10 -4 -4
-7 9 -21 30 -34 64 -39 186 -146 233 -205 25 -31 57 -69 72 -84 15 -16 24 -30
21 -33 -3 -3 4 -18 15 -34 10 -15 27 -46 38 -68 10 -22 21 -42 25 -45 3 -3 9
-22 13 -42 4 -21 14 -44 22 -53 8 -8 13 -19 10 -24 -3 -5 1 -14 9 -21 8 -7 15
-20 15 -29 0 -9 7 -28 14 -43 9 -16 11 -30 5 -33 -5 -4 -9 -1 -9 6 0 7 -2 10
-5 7 -3 -3 -2 -19 1 -37 5 -21 10 -28 15 -20 5 8 11 -2 18 -28 6 -22 18 -46
26 -53 8 -7 15 -21 15 -32 0 -14 6 -19 23 -16 14 2 21 9 21 21 -2 16 7 21 32
18 11 -1 52 82 74 153 28 87 88 146 150 146 40 0 95 -37 119 -80 35 -63 23
-137 -41 -239 -17 -28 -7 -42 78 -114 l69 -59 3 489 2 488 -26 75 c-176 502
-598 878 -1140 1015 -90 22 -88 23 -80 -37z m163 -888 c1 -11 -2 -22 -8 -25
-5 -4 -9 5 -9 19 0 30 15 35 17 6z"/>
<path d="M475 3071 c-6 -11 33 -36 42 -27 7 7 -16 36 -28 36 -4 0 -10 -4 -14
-9z"/>
<path d="M0 2910 c0 -140 2 -160 16 -160 9 0 48 -25 87 -55 78 -61 110 -74
138 -56 26 16 43 14 70 -8 13 -10 42 -24 64 -32 22 -8 44 -20 48 -26 11 -18
42 -16 57 2 7 8 9 15 4 16 -28 2 -43 9 -67 32 -15 13 -27 31 -27 39 0 20 -36
51 -98 83 -70 37 -79 52 -75 127 3 61 1 65 -35 107 -33 39 -44 45 -81 47 -26
1 -55 11 -72 23 l-29 22 0 -161z"/>
<path d="M1273 2986 c0 -8 6 -12 13 -9 6 2 15 0 19 -6 4 -7 -5 -11 -24 -11
-21 0 -31 -5 -31 -15 0 -8 -5 -15 -11 -15 -8 0 -8 -5 1 -15 7 -8 23 -15 37
-15 13 0 31 7 39 15 9 8 24 15 35 15 16 0 9 9 -25 35 -53 40 -53 40 -53 21z"/>
<path d="M1273 2808 c-13 -29 -5 -88 13 -88 7 0 19 -9 27 -20 8 -11 17 -17 20
-13 11 10 8 93 -3 93 -6 0 -15 11 -20 25 -12 31 -24 32 -37 3z"/>
<path d="M710 2773 c0 -12 160 -113 179 -113 9 0 33 5 54 11 49 13 46 33 -11
74 -39 27 -53 30 -133 33 -49 2 -89 0 -89 -5z"/>
<path d="M1240 2750 c-6 -12 -9 -24 -7 -27 3 -2 11 5 17 17 6 12 9 24 7 27 -3
2 -11 -5 -17 -17z"/>
<path d="M1747 2690 c3 -11 9 -20 14 -20 5 0 9 9 9 20 0 11 -6 20 -14 20 -9 0
-12 -7 -9 -20z"/>
<path d="M1126 2654 c-3 -8 -6 -28 -6 -42 0 -24 7 -29 65 -48 71 -24 72 -20
14 42 -55 60 -66 68 -73 48z"/>
<path d="M1777 2579 c4 -13 8 -18 11 -10 2 7 -1 18 -6 23 -8 8 -9 4 -5 -13z"/>
<path d="M956 2528 c-11 -35 -13 -58 -6 -53 4 3 10 18 12 35 5 30 1 41 -6 18z"/>
<path d="M2 1775 l3 -720 38 -110 c137 -398 422 -731 779 -911 l68 -34 1365 0
1365 0 0 380 0 380 -31 -32 c-17 -18 -27 -27 -23 -19 11 21 13 70 3 77 -5 3
-9 19 -9 35 0 22 6 32 26 39 24 9 25 30 2 30 -6 0 -34 11 -62 24 -28 12 -75
33 -103 46 -29 13 -53 27 -53 31 0 19 102 55 213 73 20 4 37 12 37 17 0 6 -11
8 -27 5 -16 -3 -48 -8 -73 -11 -25 -2 -62 -7 -82 -10 -36 -6 -38 -4 -55 32
l-18 38 -145 1 -144 1 -9 27 c-22 66 24 140 86 138 164 -5 184 -4 224 12 23
10 44 24 47 33 5 11 2 13 -11 8 -42 -18 -76 -18 -90 0 -12 18 -15 18 -60 -3
-54 -24 -217 -40 -228 -22 -4 6 -22 1 -49 -15 -70 -41 -101 -35 -164 32 -58
61 -82 77 -134 88 -18 4 -43 13 -55 21 -22 14 -23 13 -23 -23 0 -51 26 -169
46 -214 20 -46 50 -62 102 -57 l40 3 -13 -32 c-23 -54 -83 -139 -126 -178 -82
-74 -219 -145 -254 -131 -9 3 -13 2 -10 -4 3 -6 0 -10 -7 -10 -7 0 -23 -3 -35
-6 -16 -4 -25 -1 -29 11 -11 28 -45 60 -104 97 -30 20 -80 59 -110 87 -30 28
-70 58 -87 66 -18 9 -33 19 -33 23 0 4 -9 13 -21 20 -18 12 -26 8 -76 -38 -30
-28 -60 -49 -66 -47 -6 2 -18 17 -27 35 -24 43 -107 140 -133 154 -47 25 -100
27 -161 6 -59 -19 -146 -73 -146 -90 0 -4 -7 -8 -15 -8 -8 0 -15 -6 -16 -12 0
-7 -4 -4 -9 7 -13 29 -11 105 3 145 23 62 -9 92 -55 52 -10 -8 -32 -15 -50
-14 -43 1 -49 -4 -38 -34 6 -14 6 -23 1 -20 -12 8 -42 -4 -36 -13 2 -4 -2 -8
-9 -8 -9 0 -12 7 -8 16 5 14 4 14 -13 1 -17 -14 -18 -13 -13 2 11 28 -3 28
-48 2 -24 -14 -48 -23 -53 -20 -5 3 -17 3 -26 0 -14 -6 -15 -18 -10 -86 5 -66
13 -91 42 -146 20 -37 50 -85 66 -107 43 -57 139 -155 153 -155 20 0 104 -51
114 -69 5 -10 26 -23 48 -30 21 -7 65 -37 96 -67 31 -30 62 -54 68 -54 6 0 43
12 82 26 58 21 95 27 207 31 89 4 148 2 168 -5 18 -6 72 -14 122 -18 49 -4 89
-10 89 -13 0 -3 32 -7 70 -9 62 -3 78 0 130 27 35 17 75 47 96 73 20 23 48 53
63 66 l26 24 -45 -7 c-25 -4 -70 -10 -100 -15 -30 -4 -82 -13 -115 -20 -124
-25 -303 4 -415 67 -94 54 -190 151 -190 192 0 10 8 4 19 -14 29 -49 129 -132
197 -165 230 -110 522 -64 712 115 78 72 131 149 188 270 24 51 50 95 60 99
13 5 15 2 9 -11 -4 -10 -15 -44 -25 -76 -20 -64 -70 -165 -105 -212 -25 -34
-76 -137 -70 -143 2 -2 21 6 42 17 21 11 46 22 55 25 10 3 34 30 53 61 20 30
40 55 45 55 5 0 17 -15 26 -32 20 -40 31 -48 66 -48 19 0 33 8 44 25 16 24 18
25 35 9 14 -13 16 -21 8 -35 -22 -42 20 -119 86 -158 18 -11 18 -11 -5 -5 -14
3 -36 16 -50 28 -13 11 -19 14 -12 5 10 -13 9 -22 -4 -48 -9 -18 -14 -41 -11
-52 3 -10 3 -19 0 -19 -3 0 -53 35 -112 78 -58 43 -119 87 -136 96 l-30 18 29
-24 c16 -13 62 -49 103 -80 l74 -56 -73 -37 c-40 -21 -120 -63 -178 -95 -58
-32 -215 -117 -350 -190 -135 -73 -302 -166 -373 -207 -70 -40 -133 -73 -140
-73 -15 0 -230 178 -258 214 -11 14 -26 26 -32 26 -7 0 -27 14 -46 30 -18 17
-30 30 -24 30 5 0 9 9 10 20 1 15 -4 20 -22 20 -13 0 -27 5 -30 10 -4 6 -11 8
-16 4 -11 -7 -28 6 -329 261 -319 269 -424 360 -620 536 -209 188 -221 200
-218 217 2 10 -4 16 -17 17 -11 0 -59 34 -106 75 l-87 75 30 19 c16 10 77 36
135 57 58 21 121 48 140 59 19 11 41 20 49 20 8 0 14 7 14 15 0 8 8 15 18 15
9 1 28 7 41 14 23 13 23 14 5 25 -18 12 -18 12 4 8 27 -6 29 9 2 18 -11 3 -20
11 -20 17 0 5 -7 7 -16 4 -8 -3 -12 -2 -9 4 6 10 -5 13 -40 11 -17 -1 -17 1 5
13 24 15 24 15 4 16 -12 0 -24 6 -27 14 -4 10 0 12 15 8 13 -3 19 -1 15 5 -4
6 -19 14 -34 18 -16 3 -42 17 -59 30 -17 13 -34 22 -37 19 -9 -9 -40 13 -43
30 -2 14 1 14 26 1 16 -8 49 -28 73 -45 46 -31 91 -40 81 -17 -3 6 -25 27 -50
46 -24 19 -42 36 -39 39 3 3 14 -3 24 -12 11 -10 24 -15 30 -12 6 4 21 1 33
-6 13 -7 28 -11 34 -10 13 3 37 -24 40 -44 3 -18 -10 -18 -25 0 -9 11 -9 15 1
18 9 3 9 6 0 12 -7 4 -12 2 -12 -4 0 -7 -15 -3 -37 10 l-38 22 35 -31 c19 -17
39 -31 44 -31 4 0 6 -6 3 -14 -8 -21 19 -42 36 -27 8 6 17 8 21 4 4 -4 -3 -12
-15 -19 -21 -11 -18 -13 45 -43 37 -18 74 -30 84 -28 16 4 16 5 0 6 -10 0 -18
5 -18 11 0 13 -70 42 -87 36 -7 -3 -13 -2 -13 3 0 13 48 23 73 16 18 -5 19 -4
7 5 -12 10 -10 11 10 6 34 -7 101 4 94 16 -17 26 -296 119 -312 103 -3 -3 -11
0 -19 6 -7 7 -25 13 -40 15 -15 1 -30 10 -35 18 -5 9 -17 16 -26 16 -9 0 -26
8 -37 17 -16 13 -17 14 -2 9 47 -17 50 -17 22 4 -16 11 -58 34 -92 50 -58 27
-68 38 -64 64 3 16 -29 74 -44 80 -8 3 -15 16 -15 29 0 14 -15 37 -36 58 -20
18 -45 48 -55 64 -19 30 -19 20 -17 -690z m243 357 c-3 -3 -11 0 -18 7 -9 10
-8 11 6 5 10 -3 15 -9 12 -12z m400 -202 c-3 -5 -14 -10 -23 -9 -14 0 -13 2 3
9 27 11 27 11 20 0z m645 -640 c0 -5 -2 -10 -4 -10 -3 0 -8 5 -11 10 -3 6 -1
10 4 10 6 0 11 -4 11 -10z m2148 -627 c-15 -2 -42 -2 -60 0 -18 2 -6 4 27 4
33 0 48 -2 33 -4z m-258 -216 c0 -2 -10 -12 -22 -23 l-23 -19 19 23 c18 21 26
27 26 19z m-657 -338 c-8 -8 -13 -7 -18 2 -5 8 -4 10 3 5 7 -4 12 -2 12 5 0 7
3 9 7 6 4 -4 2 -12 -4 -18z m-28 -17 c-6 -5 -28 -19 -50 -32 -33 -20 -37 -21
-25 -6 8 11 28 25 45 32 36 16 42 17 30 6z"/>
<path d="M620 2386 c0 -2 7 -9 15 -16 9 -7 15 -8 15 -2 0 5 -7 12 -15 16 -8 3
-15 4 -15 2z"/>
<path d="M190 2348 c0 -18 18 -34 28 -24 3 4 -2 14 -11 23 -16 16 -17 16 -17
1z"/>
<path d="M2392 2299 c-65 -19 -65 -90 1 -145 32 -27 31 -27 153 -8 53 8 102
-17 169 -85 49 -51 68 -60 80 -41 10 16 -15 81 -27 74 -7 -4 -8 -2 -4 5 20 31
-141 169 -222 190 -63 17 -116 20 -150 10z m142 -54 c21 -4 54 -14 75 -23 37
-17 101 -70 101 -84 0 -4 7 -16 15 -25 78 -89 78 -112 0 -32 -79 81 -110 90
-245 75 -61 -7 -87 6 -115 61 l-15 28 43 6 c43 6 72 5 141 -6z"/>
<path d="M315 2214 c28 -25 70 -57 95 -71 84 -48 195 -111 241 -136 l46 -25
-18 35 c-10 20 -26 45 -36 56 -17 19 -271 148 -343 173 l-35 13 50 -45z"/>
<path d="M1654 2116 c-82 -30 -123 -57 -178 -116 -90 -96 -126 -211 -91 -293
29 -70 91 -53 134 37 12 22 41 64 66 93 50 57 95 76 213 87 104 10 147 57 123
137 -10 33 -20 44 -54 60 -57 25 -137 24 -213 -5z"/>
<path d="M2456 1898 c-52 -81 -42 -303 16 -357 17 -16 25 -18 47 -9 52 22 61
43 61 138 0 99 11 120 60 120 27 0 81 -48 107 -94 8 -15 15 -16 56 -4 30 8 47
18 47 28 0 38 -102 211 -116 197 -2 -2 3 -18 12 -36 19 -39 5 -64 -31 -55 -13
3 -69 7 -124 8 -92 2 -103 4 -117 24 -11 16 -12 26 -4 42 15 27 4 25 -14 -2z"/>
<path d="M848 1893 c6 -2 12 -12 12 -21 0 -14 2 -14 9 -3 5 7 15 10 22 7 8 -4
5 0 -5 8 -11 9 -27 16 -35 15 -11 0 -12 -2 -3 -6z"/>
<path d="M790 1879 c0 -5 5 -7 10 -4 6 3 10 8 10 11 0 2 -4 4 -10 4 -5 0 -10
-5 -10 -11z"/>
<path d="M1737 1785 c-21 -8 -51 -23 -66 -34 -16 -11 -32 -17 -37 -13 -5 4 -6
3 -2 -2 10 -12 -11 -38 -25 -29 -5 3 -7 2 -4 -3 3 -5 -3 -21 -14 -34 -16 -20
-18 -21 -13 -5 6 15 2 14 -14 -7 -12 -14 -22 -33 -22 -41 0 -9 -4 -18 -9 -21
-5 -3 -14 -35 -21 -71 -7 -36 -15 -63 -18 -61 -3 3 -12 -3 -20 -15 -18 -26
-12 -32 22 -19 15 5 72 10 127 10 82 0 99 3 99 15 0 19 27 65 49 83 8 6 31 12
51 12 44 0 75 -25 110 -92 17 -34 32 -48 52 -52 61 -12 158 51 157 102 -1 88
-92 223 -179 267 -57 29 -159 33 -223 10z"/>
<path d="M3378 1648 c-21 -16 -46 -115 -38 -147 8 -34 34 -49 54 -32 19 16 50
83 59 128 10 52 -35 82 -75 51z"/>
<path d="M315 1520 c10 -16 82 -50 105 -50 30 0 17 14 -35 39 -48 22 -80 28
-70 11z"/>
<path d="M450 1461 c0 -10 72 -41 93 -41 12 1 -71 49 -85 50 -5 0 -8 -4 -8 -9z"/>
<path d="M1390 1379 c0 -7 -10 -9 -25 -7 -13 3 -22 1 -19 -3 3 -5 0 -9 -5 -9
-6 0 -11 -11 -11 -25 0 -14 5 -25 10 -25 6 0 10 5 10 10 0 6 15 24 33 40 17
16 26 30 20 30 -7 0 -13 -5 -13 -11z"/>
<path d="M538 1333 c-21 -5 -12 -33 11 -33 14 0 14 -2 1 -10 -13 -9 -13 -10 0
-11 8 -1 19 -1 23 0 5 1 20 -8 35 -19 22 -18 27 -19 34 -6 10 17 -2 45 -27 66
-16 14 -49 19 -77 13z"/>
<path d="M1975 179 c-4 -6 -5 -12 -2 -15 2 -3 7 2 10 11 7 17 1 20 -8 4z"/>
</g>
</svg>
