<?xml version="1.0" encoding="UTF-8"?>
<svg id="Layer_1" xmlns="http://www.w3.org/2000/svg" version="1.1" viewBox="0 0 256 256">
  <!-- Generator: Adobe Illustrator 30.1.0, SVG Export Plug-In . SVG Version: 2.1.1 Build 136)  -->
  <defs>
    <style>
      .st0 {
        fill: #be202c;
      }

      .st1 {
        fill: #fff;
      }

      .st2 {
        fill: #202020;
      }

      .st3 {
        fill: #f51c2b;
      }

      .st4 {
        fill: #999;
      }
    </style>
  </defs>
  <circle class="st1" cx="128" cy="128" r="128"/>
  <g>
    <path class="st3" d="M124.8,201.2c0,3.2-2.8,5.6-5.9,5.3-39.6-4-70.6-37.5-70.6-78.2s30.9-74.2,70.6-78.2c3.2-.3,5.9,2.2,5.9,5.3v27c0,2.6-1.9,4.9-4.5,5.3-19.6,3.1-34.6,20.1-34.6,40.6s15,37.5,34.6,40.6c2.6.4,4.5,2.7,4.5,5.3v27.1h0Z"/>
    <path class="st0" d="M205.1,135.7c-3.5,37-32.7,66.7-69.7,70.6-3.2.3-6-2.1-6-5.3v-27.1c0-2.6,1.9-4.8,4.4-5.3,17.3-3,30.9-16.9,33.5-34.3.4-2.6,2.7-4.5,5.3-4.5h27c3.3-.1,5.8,2.7,5.5,5.8Z"/>
    <path class="st2" d="M124.9,92.8v31.6c0,3,2.4,5.4,5.4,5.4h32c3.2,0,5.7-2.8,5.3-6-2.3-19.1-15.6-33.9-36.7-36.3-3.2-.4-6,2.1-6,5.3Z"/>
    <path class="st4" d="M162.5,55.1h0c0,2,1.1,3.8,2.8,4.8,12.4,7.1,22.8,17.4,29.9,29.9,1,1.7,2.8,2.8,4.8,2.8h.1c3,0,5.5-2.5,5.5-5.5v-32c0-3-2.5-5.5-5.5-5.5h-32.1c-3,.1-5.5,2.5-5.5,5.6Z"/>
  </g>
</svg>