<?xml version="1.0" encoding="utf-8"?>
<!-- Generator: Adobe Illustrator 23.1.1, SVG Export Plug-In . SVG Version: 6.00 Build 0)  -->
<svg version="1.1" id="Layer_1" xmlns="http://www.w3.org/2000/svg" xmlns:xlink="http://www.w3.org/1999/xlink" x="0px" y="0px"
	 viewBox="0 0 256 256" style="enable-background:new 0 0 256 256;" xml:space="preserve">
<style type="text/css">
	.st0{fill:#F7E342;}
</style>
<g id="XMLID_1_">
	<g>
		<path class="st0" d="M135.8,50.5c7.7,0.1,15.4,0.1,23.1,0c1.8,0,2.7,0.4,2.7,2.4c0,14.2,0,28.6,0,42.8c-0.4,0.3-0.9,0.6-1.3,0.9
			c-0.8-1.2-1.4-2.4-2.3-3.3c-6.2-6-13.5-10-21.9-11.9c-1.8-0.4-2.8-0.9-2.8-3.1c0.1-8.5,0.1-16.9,0-25.4
			C133.2,51.1,133.9,50.5,135.8,50.5z"/>
		<path class="st0" d="M22.1,50.5c7.2,0.1,14.4,0.1,21.7,0c2.8-0.1,3.6,0.8,3.6,3.6c-0.1,15.3,0,30.5,0,45.8c0,1.7,0,3.5,0,5.9
			c16.5-14.4,34-19.6,49.1-15.1c-0.1,1.2-1.2,1.5-1.8,2.2c-5.8,5.5-10,12-12.2,19.7c-0.6,2.2-1.4,3.1-4,2.6
			c-10.9-1.7-20.4,1.2-28.2,9.1c-1.9,2.1-2.8,4.1-2.8,6.9c0.1,21.7,0,43.2,0.1,64.9c0,3.6-0.6,5.1-4.6,4.9c-6.8-0.4-13.7-0.3-20.5,0
			c-2.4,0-3.5-0.5-3.5-3.2c0.1-47.9,0.1-95.9,0-143.8C18.7,50.9,19.7,50.4,22.1,50.5z"/>
		<polygon points="123.6,120.3 131.3,120.1 127.1,133 119.4,133.4 		"/>
		<path class="st0" d="M170.7,131c0,0,23.2-28.3,30.5-36.8c1-1.2,1.8-2.2,3.6-2.2c10.6,0,21.4,0,32,0c0.4,1.8-1.2,2.6-1.9,3.5
			c-12.4,14.4-24.9,28.7-37.4,42.9c-1.9,2.2-2.1,3.5-0.3,5.9c13.3,17.6,26.4,35.1,39.5,52.8c0.8,0.9,1.7,1.8,1.9,3.6
			c-11,0-21.9,0-32.7,0c-2.2,0-2.9-1.2-4-2.7c-8.3-12.2-26.7-38.5-27.4-38.2c-0.6,0.1-12.7,11.7-12.7,11.7s-0.3,23.6-0.1,26.7
			c0.1,1.9-0.8,2.6-2.6,2.6c-7.7-0.1-15.4-0.1-23.1,0c-2.3,0-2.7-1-2.7-2.9c0-7.7,0.1-15.4,0-23.1c0-2.3,0.9-3.1,3.1-3.6
			c13.6-3.5,22.9-10.9,28.8-22.2c1.7-3.2,3.1-6.7,4.2-10.4C169.5,138,170.7,131,170.7,131z"/>
		<path class="st0" d="M131.3,120.1l-7.7,0.3l-4.2,13.1l7.7-0.4L131.3,120.1z M146.8,114.8l-1.3,5.3l-7.7,0.1l-4.4,13.2l7.3-0.1
			l-1.7,5.9l-7.9,0.3l-4.6,12.8l-6,0.1l4.6-13.5l-7.3-0.1l-4.5,13.2h-6.5l4.4-13.3h-7.7l2.1-5.4l7.4-0.3l4.5-12.9l-7.6,0.1l1.2-6
			l8.1-0.3l4.5-12.9l6.2,0.3l-4.4,13.3l7.6-0.1l4.5-13.1h6.2l-4.2,13.3L146.8,114.8z"/>
		<path class="st0" d="M120.9,174.6c-0.1,7.8-0.1,15.6,0,23.5c0,2.2-0.9,2.7-2.9,2.7c-7.7-0.1-15.4-0.1-23.1,0
			c-2.1,0-2.6-0.8-2.6-2.6c0-12.9,0-26,0-39.9c2.2,1.8,3.8,3.2,5.4,4.5c5.9,4.6,12.4,7.6,19.9,8.8
			C119.4,171.7,120.9,172,120.9,174.6z"/>
		<path d="M43.6,50.5c-7.2,0.3-14.4,0.1-21.7,0c-2.4,0-3.5,0.5-3.5,3.2c0.1,47.9,0.1,95.9,0,143.8c0,2.8,1,3.2,3.5,3.2
			c6.8-0.1,13.7-0.3,20.5,0c4,0.3,4.7-1.3,4.6-4.9c-0.1-21.7,0-43.2-0.1-64.9c0-2.8,0.9-4.9,2.8-6.9c7.8-7.9,17.3-10.8,28.2-9.1
			c2.7,0.4,3.3-0.4,4-2.6c2.3-7.7,6.5-14.1,12.2-19.7c0.6-0.6,1.7-1,1.8-2.2c-14.9-4.5-32.3,0.8-48.7,15.1c0-2.4,0-4.1,0-5.9
			c0-15.3,0-30.5,0-45.8C47.2,51.3,46.6,50.4,43.6,50.5z M0.1,0.1c84.4,0,168.8,0,253.3-0.1c2.2,0,2.7,0.5,2.7,2.7
			C256,87.1,256,171.5,256,256c-84.1,0-168.2,0-252.3,0.1c-2.9,0-3.6-0.7-3.6-3.6C0.1,168.3,0.1,84.2,0.1,0.1z M120.9,198
			c-0.1-7.8-0.1-15.6,0-23.5c0-2.6-1.5-2.7-3.2-3.1c-7.3-1.3-14-4.2-19.9-8.8c-1.7-1.3-3.2-2.6-5.4-4.5c0,13.8,0,26.9,0,39.9
			c0,1.9,0.5,2.7,2.6,2.6c7.7-0.1,15.4-0.1,23.1,0C120,200.7,120.9,200.1,120.9,198z M161.6,95.7c0-14.2,0-28.6,0-42.8
			c0-2.1-0.9-2.4-2.7-2.4c-7.7,0.1-15.4,0.1-23.1,0c-1.9,0-2.6,0.8-2.6,2.6c0,8.5,0.1,16.9,0,25.4c0,2.2,0.9,2.7,2.8,3.1
			c8.5,1.8,15.8,5.8,21.9,11.9c0.9,0.9,1.5,2.2,2.3,3.3C160.7,96.4,161.2,96,161.6,95.7z M201.2,94.2c-7.2,8.5-30.5,36.8-30.5,36.8
			s-1.3,6.9-1.4,7.4c-1.2,3.8-2.6,7.3-4.2,10.4c-5.9,11.3-15.3,18.7-28.8,22.2c-2.2,0.5-3.1,1.3-3.1,3.6c0.1,7.7,0.1,15.4,0,23.1
			c0,1.9,0.4,2.9,2.7,2.9c7.7-0.1,15.4-0.1,23.1,0c1.9,0,2.7-0.6,2.6-2.6c-0.1-3.1,0.1-26.7,0.1-26.7s12.2-11.5,12.7-11.7
			c0.8-0.1,19,26,27.4,38.2c1,1.4,1.8,2.7,4,2.7c10.8-0.1,21.5,0,32.7,0c-0.3-1.8-1.2-2.7-1.9-3.6c-13.1-17.7-26.1-35.2-39.5-52.8
			c-1.8-2.4-1.7-3.8,0.3-5.9c12.6-14.2,25-28.6,37.4-42.9c0.8-0.9,2.3-1.5,1.9-3.5c-10.8,0-21.4,0-32,0
			C203,91.9,202.2,93,201.2,94.2z M145.5,120.1l1.3-5.3l-7.3-0.1l4.2-13.3h-6.2l-4.5,13.1l-7.6,0.1l4.5-12.9l-6.2-0.3l-4.5,12.9
			l-8.1,0.3l-1.2,6l7.6-0.1l-4.5,12.9l-7.4,0.3l-2.1,5.4h7.7l-4.4,13.3h6.5l4.5-13.2l7.3,0.1l-4.6,13.5l6-0.1l4.6-12.8l7.9-0.3
			l1.7-5.9l-7.3,0.1l4.4-13.2L145.5,120.1z"/>
	</g>
</g>
</svg>
