<?xml version="1.0" standalone="no"?>
<!DOCTYPE svg PUBLIC "-//W3C//DTD SVG 20010904//EN"
 "http://www.w3.org/TR/2001/REC-SVG-20010904/DTD/svg10.dtd">
<svg version="1.0" xmlns="http://www.w3.org/2000/svg"
 width="1000.000000pt" height="1000.000000pt" viewBox="0 0 1000.000000 1000.000000"
 preserveAspectRatio="xMidYMid meet">

<g transform="translate(0.000000,1000.000000) scale(0.100000,-0.100000)"
fill="#000000" stroke="none">
<path d="M4685 9239 c-760 -57 -1474 -302 -2105 -722 -889 -594 -1529 -1501
-1789 -2537 -93 -369 -125 -639 -125 -1050 0 -325 11 -466 59 -745 140 -806
513 -1560 1077 -2175 1150 -1255 2955 -1719 4574 -1175 912 307 1696 906 2229
1705 339 508 561 1067 664 1670 44 256 55 403 55 720 0 317 -11 464 -55 720
-97 570 -303 1106 -613 1593 -167 263 -357 499 -591 732 -483 484 -1045 834
-1689 1050 -533 179 -1137 255 -1691 214z m599 -300 c434 -32 827 -123 1221
-281 1202 -484 2103 -1520 2410 -2773 82 -334 109 -575 109 -955 0 -380 -27
-621 -109 -955 -276 -1126 -1032 -2082 -2068 -2615 -823 -424 -1730 -550
-2654 -369 -1212 237 -2275 1055 -2823 2174 -209 426 -325 826 -386 1325 -25
204 -25 676 0 880 61 499 177 899 386 1325 544 1109 1589 1921 2795 2169 363
75 765 102 1119 75z"/>
<path d="M4707 8700 c-511 -46 -937 -165 -1382 -385 -268 -133 -525 -297 -730
-469 l-30 -25 106 -106 106 -107 98 77 c433 338 950 568 1505 669 217 39 358
51 620 51 262 0 403 -12 620 -51 547 -99 1047 -319 1483 -652 l99 -75 106 106
c93 93 104 108 90 119 -249 198 -456 331 -723 463 -400 198 -753 305 -1208
366 -173 23 -597 33 -760 19z"/>
<path d="M7531 7537 l-104 -105 108 -119 c418 -456 682 -933 830 -1498 80
-305 110 -546 110 -885 0 -262 -12 -403 -51 -620 -101 -555 -331 -1072 -669
-1505 l-77 -98 107 -106 106 -106 25 30 c303 363 562 847 704 1316 111 368
155 677 155 1089 0 268 -8 373 -41 590 -117 747 -474 1469 -995 2013 l-104
108 -104 -104z"/>
<path d="M2251 7523 c-265 -280 -479 -592 -652 -948 -196 -403 -303 -776 -361
-1260 -17 -145 -17 -624 0 -770 59 -497 173 -885 383 -1305 129 -257 268 -473
458 -710 l20 -25 107 106 106 107 -79 103 c-386 503 -623 1099 -695 1744 -17
155 -17 575 0 730 73 653 316 1257 710 1763 44 57 129 158 189 224 59 66 109
123 111 127 1 3 -44 53 -101 109 l-104 104 -92 -99z"/>
<path d="M5032 7330 c-51 -15 -95 -30 -96 -32 -2 -1 -45 -113 -96 -248 -197
-521 -909 -2335 -1222 -3115 -207 -515 -300 -621 -603 -686 -49 -11 -100 -21
-112 -24 -22 -5 -23 -10 -23 -95 l0 -90 720 0 720 0 0 90 c0 85 -1 90 -22 94
-13 3 -77 14 -144 26 -260 46 -332 120 -303 311 21 140 209 686 587 1709 121
327 263 717 316 865 120 335 121 336 131 338 4 1 31 -65 61 -148 29 -82 149
-424 268 -760 118 -335 325 -920 461 -1299 135 -380 251 -720 257 -757 15 -85
2 -135 -47 -178 -39 -34 -151 -73 -265 -91 -119 -19 -110 -9 -110 -111 l0 -89
803 2 802 3 3 87 3 87 -38 6 c-148 26 -236 48 -292 76 -115 57 -208 170 -292
356 -79 175 -601 1601 -1245 3401 -59 166 -113 302 -119 301 -5 0 -52 -14
-103 -29z"/>
<path d="M2402 2387 l-103 -104 103 -98 c282 -267 594 -482 953 -656 382 -185
735 -290 1189 -351 233 -32 679 -32 912 0 454 61 807 166 1189 351 356 173
668 387 948 652 l99 92 -104 104 c-56 57 -106 102 -109 101 -4 -2 -61 -52
-127 -111 -444 -401 -914 -658 -1467 -802 -305 -80 -546 -110 -885 -110 -339
0 -580 30 -885 110 -557 146 -1027 404 -1477 810 -69 63 -128 115 -130 115 -2
0 -50 -47 -106 -103z"/>
</g>
</svg>
