<svg width="1000" height="1000" viewBox="0 0 1000 1000" fill="none" xmlns="http://www.w3.org/2000/svg">
<path fill-rule="evenodd" clip-rule="evenodd" d="M500 0C776.389 0 1000 223.611 1000 500C1000 776.389 776.389 1000 500 1000C223.611 1000 0 776.389 0 500C0 424.306 16.6667 352.083 47.2222 288.194C50 304.861 54.1667 321.528 61.1111 336.806C72.2222 363.194 87.5 386.111 107.639 406.25C127.083 425.694 150.694 441.667 177.083 452.778C202.083 463.194 229.861 468.75 258.333 468.75H301.389H312.5V457.639V373.611V362.5H301.389H258.333C243.75 362.5 229.861 359.722 218.056 354.167C204.861 348.611 193.056 340.972 183.333 331.25C173.611 321.528 165.278 309.722 159.722 296.528C154.861 284.028 151.389 270.833 151.389 256.944V256.25V255.556C151.389 241.667 154.167 227.778 159.722 215.972C165.278 202.778 172.917 190.972 182.639 181.25C192.361 171.528 204.167 163.194 217.361 158.333C229.861 153.472 243.75 150 257.639 150C272.222 150 285.417 152.778 297.917 158.333C311.111 163.889 322.917 171.528 332.639 181.25C342.361 190.972 350.694 202.778 355.556 215.972C360.417 228.472 363.889 242.361 363.889 256.25V415.972V575.694C363.889 604.167 369.444 631.944 379.861 656.944C390.972 683.333 406.25 706.25 426.389 726.389C445.833 745.833 469.444 761.806 495.833 772.917C520.833 783.333 548.611 788.889 577.083 788.889C605.556 788.889 633.333 783.333 658.333 772.917C684.028 761.806 707.639 746.528 727.778 726.389C747.222 706.944 763.194 683.333 774.306 656.944C783.333 635.417 788.889 611.806 790.278 586.806H790.972V575.694V571.528V568.75C790.278 542.361 784.722 518.056 775 494.444C763.889 468.75 748.611 445.139 728.472 425C709.028 405.556 685.417 389.583 659.028 378.472C634.028 368.056 606.25 362.5 577.778 362.5H534.722H523.611V373.611V457.639V468.75H534.722H577.778C592.361 468.75 606.25 471.528 618.056 477.083C631.25 482.639 643.056 490.278 652.778 500.694C662.5 510.417 670.833 522.222 676.389 535.417C681.25 547.917 684.722 561.111 684.722 575V575.694V576.389C684.722 590.278 681.944 604.167 676.389 615.972C670.833 629.167 663.194 640.972 653.472 650.694C643.75 660.417 631.944 668.75 618.75 673.611C606.25 678.472 592.361 681.944 578.472 681.944C564.583 681.944 550.694 679.167 538.194 673.611C525 668.056 513.194 660.417 503.472 650.694C493.75 640.972 485.417 629.167 480.556 615.972C475.694 603.472 472.222 589.583 472.222 575.694V415.972V256.25C472.222 227.778 466.667 200 456.25 175C445.139 148.611 429.861 125.694 409.722 105.556C390.278 86.1111 366.667 70.1389 340.278 59.0278C325.694 52.7778 309.722 48.6111 293.75 45.8333C355.556 15.9722 425.694 0 500 0Z" fill="#4250E4"/>
</svg>