<svg width="150" height="150" viewBox="0 0 150 150" fill="none" xmlns="http://www.w3.org/2000/svg">
<g clip-path="url(#clip0_104_8)">
<mask id="mask0_104_8" style="mask-type:luminance" maskUnits="userSpaceOnUse" x="0" y="0" width="150" height="150">
<path d="M150 0H0V150H150V0Z" fill="white"/>
</mask>
<g mask="url(#mask0_104_8)">
<path fill-rule="evenodd" clip-rule="evenodd" d="M75 0C116.458 0 150 33.5417 150 75C150 116.458 116.458 150 75 150C33.5417 150 0 116.458 0 75C0 63.6459 2.5 52.8125 7.08333 43.2291C7.5 45.7292 8.125 48.2292 9.16667 50.5209C10.8333 54.4791 13.125 57.9167 16.1458 60.9375C19.0625 63.8541 22.6041 66.25 26.5625 67.9167C30.3125 69.4791 34.4792 70.3125 38.75 70.3125H45.2083H46.875V68.6458V56.0417V54.375H45.2083H38.75C36.5625 54.375 34.4792 53.9583 32.7084 53.125C30.7292 52.2917 28.9584 51.1458 27.5 49.6875C26.0417 48.2292 24.7917 46.4583 23.9583 44.4792C23.2292 42.6042 22.7083 40.625 22.7083 38.5416V38.4375V38.3334C22.7083 36.25 23.125 34.1667 23.9583 32.3958C24.7917 30.4167 25.9375 28.6458 27.3958 27.1875C28.8542 25.7292 30.625 24.4791 32.6042 23.75C34.4792 23.0208 36.5625 22.5 38.6458 22.5C40.8333 22.5 42.8125 22.9167 44.6875 23.75C46.6667 24.5833 48.4375 25.7292 49.8958 27.1875C51.3542 28.6458 52.6041 30.4167 53.3334 32.3958C54.0625 34.2708 54.5833 36.3542 54.5833 38.4375V62.3958V86.3541C54.5833 90.625 55.4166 94.7916 56.9792 98.5416C58.6458 102.5 60.9375 105.938 63.9583 108.958C66.875 111.875 70.4166 114.271 74.375 115.937C78.125 117.5 82.2917 118.333 86.5625 118.333C90.8334 118.333 95 117.5 98.75 115.937C102.604 114.271 106.146 111.979 109.167 108.958C112.083 106.042 114.479 102.5 116.146 98.5416C117.5 95.3125 118.333 91.7709 118.542 88.0209H118.646V86.3541V85.7292V85.3125C118.542 81.3542 117.708 77.7084 116.25 74.1666C114.583 70.3125 112.292 66.7708 109.271 63.75C106.354 60.8334 102.812 58.4375 98.8542 56.7708C95.1042 55.2084 90.9375 54.375 86.6667 54.375H80.2083H78.5417V56.0417V68.6458V70.3125H80.2083H86.6667C88.8542 70.3125 90.9375 70.7292 92.7084 71.5625C94.6875 72.3958 96.4584 73.5417 97.9167 75.1041C99.375 76.5625 100.625 78.3333 101.458 80.3125C102.188 82.1875 102.708 84.1667 102.708 86.25V86.3541V86.4583C102.708 88.5417 102.292 90.625 101.458 92.3958C100.625 94.375 99.4791 96.1458 98.0208 97.6041C96.5625 99.0625 94.7916 100.313 92.8125 101.042C90.9375 101.771 88.8542 102.292 86.7708 102.292C84.6875 102.292 82.6041 101.875 80.7291 101.042C78.75 100.208 76.9791 99.0625 75.5208 97.6041C74.0625 96.1458 72.8125 94.375 72.0834 92.3958C71.3541 90.5208 70.8333 88.4375 70.8333 86.3541V62.3958V38.4375C70.8333 34.1667 70 30 68.4375 26.25C66.7708 22.2917 64.4792 18.8541 61.4583 15.8334C58.5417 12.9167 55 10.5208 51.0417 8.85417C48.8541 7.91667 46.4583 7.29167 44.0625 6.875C53.3334 2.39583 63.8541 0 75 0Z" fill="#4250E4"/>
</g>
</g>
<defs>
<clipPath id="clip0_104_8">
<rect width="150" height="150" fill="white"/>
</clipPath>
</defs>
</svg>
