<?xml version="1.0" encoding="UTF-8"?>
<svg id="Layer_1" xmlns="http://www.w3.org/2000/svg" version="1.1" xmlns:xlink="http://www.w3.org/1999/xlink" viewBox="0 0 200 200">
  <!-- Generator: Adobe Illustrator 29.8.0, SVG Export Plug-In . SVG Version: 2.1.1 Build 160)  -->
  <defs>
    <style>
      .st0 {
        fill: none;
      }

      .st1 {
        clip-path: url(#clippath);
      }
    </style>
    <clipPath id="clippath">
      <rect class="st0" x="1.46" y="7" width="197.08" height="175.18"/>
    </clipPath>
  </defs>
  <g class="st1">
    <g>
      <path d="M67.65,112.92c.53,1.52,1.09,3.04,1.68,4.54.37.94.74,1.87,1.13,2.77.25.55.49,1.11.76,1.68.33.72.65,1.46,1,2.17,1.37,2.89,2.88,5.7,4.54,8.41.78,1.31,1.6,2.6,2.43,3.88.47.72.94,1.44,1.45,2.13.39.55.8,1.13,1.21,1.68.25.37.53.74.8,1.09.35.47.72.94,1.09,1.42.45.6.92,1.19,1.39,1.76.02,0,.04-.02.06-.04,4.85-3.73,9.31-8.06,13.28-12.87.1-.12.18-.23.27-.35-.04-.02-1.17-1.5-1.68-2.24-.25-.31-.47-.62-.67-.92-.41-.55-.8-1.11-1.15-1.68-.33-.47-.63-.92-.92-1.4-.31-.43-.57-.88-.84-1.33-.49-.78-.96-1.56-1.41-2.36-.08-.1-.14-.23-.18-.33-.51-.88-1-1.79-1.45-2.71-.14-.18-.25-.39-.33-.6-.37-.7-.69-1.38-1.02-2.09-1.21-2.5-2.27-5.07-3.21-7.72-2.11-5.89-3.56-12.07-4.3-18.47-.37-3.18-.55-6.4-.55-9.66,0-1.21.02-2.42.08-3.63.04-1.09.1-2.17.21-3.26.02-.25.04-.47.06-.72.06-.7.12-1.38.23-2.07.04-.49.1-.99.16-1.48.18-1.38.41-2.75.67-4.1.12-.74.27-1.46.43-2.17.02-.23.08-.47.14-.7.16-.8.35-1.58.55-2.36.08-.35.16-.68.25-.99.21-.78.41-1.54.65-2.28.63-2.19,1.35-4.33,2.17-6.44.29-.74.59-1.48.9-2.19.02-.06.04-.14.08-.21.29-.72.61-1.42.92-2.11.88-1.95,1.86-3.88,2.9-5.74.18-.35.39-.7.59-1.05.1-.23.23-.43.35-.64.04-.06.08-.12.12-.18.04-.06.08-.12.12-.18,3.5-5.46,11.5-5.42,14.93.12.04.02.04.04.06.08.02.02.04.06.06.08,0,.02.02.06.04.08.02.04.04.08.06.12.14.23.27.45.39.68.14.21.27.45.39.68.39.74.78,1.46,1.17,2.17.43.82.84,1.64,1.23,2.48.18.37.37.74.53,1.13.04.06.06.14.1.21.33.72.63,1.44.94,2.17.25.55.47,1.11.67,1.68.23.51.43,1.03.61,1.56.29.72.55,1.46.8,2.21.25.74.49,1.48.72,2.22.25.82.49,1.64.72,2.46.21.74.41,1.5.59,2.24.02.08.04.16.06.25.12.51.25,1.03.35,1.54.12.51.23,1.01.33,1.52.18.92.37,1.83.51,2.75.16.97.31,1.93.45,2.91.1.76.18,1.54.27,2.3.08.76.16,1.54.21,2.3.04.31.06.64.08.94.04.68.08,1.38.1,2.07.02.43.04.88.04,1.31.02.37.02.74.02,1.11.02.39.02.76.02,1.13,0,.84-.02,1.66-.04,2.5-.02.49-.02,1.01-.06,1.52-.02.53-.04,1.05-.08,1.56-.06.82-.12,1.62-.18,2.4.06.02.1.02.16.04,6.22,1.17,12.31,2.95,18.18,5.27.12-.9.23-1.81.33-2.73v-.04c.06-.39.1-.8.12-1.21.08-.8.14-1.6.18-2.42.16-2.28.25-4.58.25-6.89,0-25.3-9.12-48.47-24.26-66.36-.04-.06-.08-.1-.12-.14-.03-.03-.04-.04-.02-.04.02,0-.18-.21-.27-.31l-.18-.18c-6.98-7.55-19.06-7.55-26.04,0l-.18.18s-.18.21-.27.31c-.06.07-.06.08-.02.04.06-.06-.08.08-.12.14l-1.6,1.91c-.39.51-.78,1.01-1.17,1.5-.45.6-.9,1.17-1.33,1.76-3.11,4.17-5.89,8.6-8.33,13.21-.31.6-.61,1.21-.92,1.81-.35.66-.65,1.33-.98,1.99-.65,1.36-1.25,2.71-1.82,4.06-.29.7-.57,1.38-.86,2.07-.27.7-.53,1.4-.8,2.09-.27.7-.51,1.4-.76,2.11-.25.7-.49,1.42-.72,2.11-.23.7-.45,1.4-.65,2.09-.02.04-.02.06-.04.1-.21.72-.41,1.42-.59,2.13-.21.72-.41,1.46-.59,2.19-.16.64-.31,1.27-.47,1.93-.18.82-.37,1.66-.53,2.5-.16.74-.31,1.48-.43,2.24-.14.76-.27,1.5-.39,2.26-.27,1.62-.49,3.26-.67,4.91-.14,1.42-.29,2.85-.37,4.31-.16,2.34-.25,4.68-.25,7.06,0,4.97.35,9.87,1.04,14.65.9,6.4,2.41,12.6,4.44,18.57h0Z"/>
      <path d="M61.37,95.06S16.91,109.93,1.84,159.13c0,0-3.65,14.29,11.61,20.55,0,0,44.87,12.76,85.44-19.37,0,0,21.67-15.25,32.55-44.8,0,0-11.81-4.76-18-5.46,0,0-6.1,14.7-14.54,24.02,0,0-18.29,23.49-49.95,28.24-31.66,4.75-22.98-12.18-22.98-12.18,0,0,13.2-25.78,39.89-36.46,0,0-4.1-12.37-4.5-18.61h0Z"/>
      <path d="M101.27,160.52s35.35,30.87,85.25,18.9c0,0,14.13-4.1,11.75-20.47,0,0-11.83-45.25-60.02-64,0,0-24.1-10.98-55-5.38,0,0,1.91,12.62,4.45,18.33,0,0,15.72-2.19,28.01.36,0,0,29.46,3.88,49.62,28.83,20.16,24.94,1.21,26.04,1.21,26.04,0,0-28.84,1.69-51.57-15.95,0,0-8.55,9.82-13.7,13.34h0Z"/>
    </g>
  </g>
</svg>