<?xml version="1.0" encoding="UTF-8"?>
<svg id="Layer_1" xmlns="http://www.w3.org/2000/svg" version="1.1" viewBox="0 0 1080 1080">
  <!-- Generator: Adobe Illustrator 29.3.1, SVG Export Plug-In . SVG Version: 2.1.0 Build 151)  -->
  <defs>
    <style>
      .st0 {
        fill: #9cd3b8;
      }

      .st1 {
        fill: #f67327;
      }
    </style>
  </defs>
  <path class="st1" d="M540.94,47.95l-.17.39-.23-.39h-148.03c-13.73,0-22.18,15.08-14.92,26.79l148.2,273.49c6.87,11.09,23.02,11.03,29.83-.06l146.73-273.49c7.21-11.71-1.24-26.74-14.91-26.74h-146.51Z"/>
  <path class="st0" d="M23.35,44.46h189.51c4.95,0,9.46,2.7,11.76,7.09l303.66,573.65c5.01,9.46,18.52,9.46,23.53,0L855.41,51.55c2.3-4.33,6.81-7.09,11.76-7.09h189.51c10.08,0,16.49,10.75,11.71,19.59l-516.64,964.49c-5.01,9.34-18.46,9.34-23.47,0L11.59,64.1c-4.73-8.89,1.69-19.59,11.71-19.59l.06-.06Z"/>
</svg>