<?xml version="1.0" encoding="utf-8"?>
<svg version="1.1" xmlns="http://www.w3.org/2000/svg" xmlns:xlink="http://www.w3.org/1999/xlink" x="0px" y="0px"
	 viewBox="0 0 327 327" style="enable-background:new 0 0 327 327;">
<style type="text/css">
	.st0{fill:url(#SVGID_1_);}
	.st1{fill:url(#SVGID_00000163045420754199007710000005953105328423574426_);}
	.st2{fill:#FFFFFF;}
</style>
<g>
		<linearGradient id="SVGID_1_" gradientUnits="userSpaceOnUse" x1="271.5728" y1="226.5394" x2="183.0728" y2="85.5394" gradientTransform="matrix(1 0 0 -1 0 328)">
		<stop  offset="0" style="stop-color:#FCC407"/>
		<stop  offset="1" style="stop-color:#FE9605"/>
	</linearGradient>
	<path class="st0" d="M225.5,62.2c13.3,8.2,24.8,18.9,33.9,31.5c9.1,12.6,15.7,26.9,19.3,42.1c3.6,15.2,4.2,30.9,1.7,46.3
		c-2.5,15.4-7.9,30.1-16.1,43.4c-8.2,13.3-18.9,24.8-31.5,33.9c-12.6,9.1-26.9,15.7-42.1,19.3c-15.2,3.6-30.9,4.2-46.3,1.7
		c-15.4-2.5-30.1-8-43.4-16.1l62.2-101.1L225.5,62.2z"/>

		<linearGradient id="SVGID_00000086692860927398666020000005699835920544557244_" gradientUnits="userSpaceOnUse" x1="173.8282" y1="292.9639" x2="75.8283" y2="135.9639" gradientTransform="matrix(1 0 0 -1 0 328)">
		<stop  offset="0" style="stop-color:#FF7001"/>
		<stop  offset="1" style="stop-color:#FE9604"/>
	</linearGradient>
	<path style="fill:url(#SVGID_00000086692860927398666020000005699835920544557244_);" d="M101.1,264.4
		c-13.3-8.2-24.8-18.9-33.9-31.5s-15.7-26.9-19.3-42.1c-3.6-15.2-4.2-30.9-1.7-46.3c2.5-15.4,8-30.1,16.1-43.4
		c8.2-13.3,18.9-24.8,31.5-33.9c12.6-9.1,26.9-15.7,42.1-19.3c15.2-3.6,30.9-4.2,46.3-1.7c15.4,2.5,30.1,8,43.4,16.1l-62.2,101.1
		L101.1,264.4z"/>
	<path class="st2" d="M233.9,186.8c-1.6-4.6-6.5-7.1-11.1-5.4l-37.1,13.2L175,160.3l35.7-56.6c2-3.2,1.8-7.3-0.4-10.2
		c-2.3-3-6.1-4.1-9.6-2.9l-42.9,14.5l-6.5-20.9c-1.5-4.7-6.4-7.2-11-5.7c-4.6,1.5-7.1,6.5-5.7,11.2l6.6,21.1l-28.1,9.5
		c-4.6,1.6-7.1,6.6-5.6,11.2c1.5,4.6,6.4,7.2,11,5.6l27.9-9.5l9.4,30.2l-40.1,63.5c-2,3.2-1.8,7.3,0.5,10.3c1.4,1.8,3.3,2.9,5.3,3.2
		c1.4,0.2,2.9,0.1,4.4-0.4l48.4-17.2l4.2,13.4c1,3.3,3.7,5.5,6.8,6c1.3,0.2,2.8,0.2,4.2-0.3c4.6-1.5,7.1-6.5,5.7-11.2l-4.3-13.8
		l37.5-13.3C233.1,196.5,235.5,191.4,233.9,186.8z M163,122l19.7-6.7l-14.5,23.1L163,122z M144.1,209.3l18.6-29.5l6.4,20.6
		L144.1,209.3z"/>
</g>
</svg>
