<?xml version="1.0" encoding="UTF-8"?><svg id="_레이어_1" xmlns="http://www.w3.org/2000/svg" viewBox="0 0 972.04 972.04"><defs><style>.cls-1{fill:#fff;}.cls-2{fill:#4db4dd;}.cls-3{fill:#1ea1d2;}.cls-4{fill:#1ba3d1;}.cls-5{fill:#1192c3;}.cls-6{fill:#31afdd;}.cls-7{fill:#4fb5dd;}.cls-8{fill:#23a1d3;}.cls-9{fill:#6fbee1;}.cls-10{fill:#2898c4;}.cls-11{fill:#1f9fd0;}.cls-12{fill:#79c1df;}.cls-13{fill:#34afdd;}.cls-14{fill:#d2ebf5;}.cls-15{fill:#94cee4;}</style></defs><circle class="cls-1" cx="486.02" cy="486.02" r="486"/><path class="cls-10" d="m486.02,29.99c61.58,0,121.29,12.05,177.5,35.82,54.3,22.97,103.07,55.85,144.96,97.74,41.89,41.89,74.78,90.66,97.74,144.96,23.77,56.2,35.82,115.92,35.82,177.5s-12.05,121.29-35.82,177.5c-22.97,54.3-55.85,103.07-97.74,144.96-41.89,41.89-90.66,74.78-144.96,97.74-56.2,23.77-115.92,35.82-177.5,35.82s-121.3-12.05-177.5-35.82c-54.3-22.97-103.07-55.85-144.96-97.74-41.89-41.89-74.78-90.66-97.74-144.96-23.77-56.2-35.82-115.92-35.82-177.5s12.05-121.3,35.82-177.5c22.97-54.3,55.85-103.07,97.74-144.96,41.89-41.89,90.66-74.78,144.96-97.74,56.2-23.77,115.92-35.82,177.5-35.82m0-29.99C217.6,0,0,217.6,0,486.02s217.6,486.02,486.02,486.02,486.02-217.6,486.02-486.02S754.44,0,486.02,0h0Z"/><path class="cls-10" d="m486.02,29.99c61.58,0,121.29,12.05,177.5,35.82,54.3,22.97,103.07,55.85,144.96,97.74,41.89,41.89,74.78,90.66,97.74,144.96,23.77,56.2,35.82,115.92,35.82,177.5s-12.05,121.29-35.82,177.5c-22.97,54.3-55.85,103.07-97.74,144.96-41.89,41.89-90.66,74.78-144.96,97.74-56.2,23.77-115.92,35.82-177.5,35.82s-121.3-12.05-177.5-35.82c-54.3-22.97-103.07-55.85-144.96-97.74-41.89-41.89-74.78-90.66-97.74-144.96-23.77-56.2-35.82-115.92-35.82-177.5s12.05-121.3,35.82-177.5c22.97-54.3,55.85-103.07,97.74-144.96,41.89-41.89,90.66-74.78,144.96-97.74,56.2-23.77,115.92-35.82,177.5-35.82m0-29.99C217.6,0,0,217.6,0,486.02s217.6,486.02,486.02,486.02,486.02-217.6,486.02-486.02S754.44,0,486.02,0h0Z"/><path class="cls-10" d="m486.02,29.99c61.58,0,121.29,12.05,177.5,35.82,54.3,22.97,103.07,55.85,144.96,97.74,41.89,41.89,74.78,90.66,97.74,144.96,23.77,56.2,35.82,115.92,35.82,177.5s-12.05,121.29-35.82,177.5c-22.97,54.3-55.85,103.07-97.74,144.96-41.89,41.89-90.66,74.78-144.96,97.74-56.2,23.77-115.92,35.82-177.5,35.82s-121.3-12.05-177.5-35.82c-54.3-22.97-103.07-55.85-144.96-97.74-41.89-41.89-74.78-90.66-97.74-144.96-23.77-56.2-35.82-115.92-35.82-177.5s12.05-121.3,35.82-177.5c22.97-54.3,55.85-103.07,97.74-144.96,41.89-41.89,90.66-74.78,144.96-97.74,56.2-23.77,115.92-35.82,177.5-35.82m0-29.99C217.6,0,0,217.6,0,486.02s217.6,486.02,486.02,486.02,486.02-217.6,486.02-486.02S754.44,0,486.02,0h0Z"/><path class="cls-10" d="m486.02,29.99c61.58,0,121.29,12.05,177.5,35.82,54.3,22.97,103.07,55.85,144.96,97.74,41.89,41.89,74.78,90.66,97.74,144.96,23.77,56.2,35.82,115.92,35.82,177.5s-12.05,121.29-35.82,177.5c-22.97,54.3-55.85,103.07-97.74,144.96-41.89,41.89-90.66,74.78-144.96,97.74-56.2,23.77-115.92,35.82-177.5,35.82s-121.3-12.05-177.5-35.82c-54.3-22.97-103.07-55.85-144.96-97.74-41.89-41.89-74.78-90.66-97.74-144.96-23.77-56.2-35.82-115.92-35.82-177.5s12.05-121.3,35.82-177.5c22.97-54.3,55.85-103.07,97.74-144.96,41.89-41.89,90.66-74.78,144.96-97.74,56.2-23.77,115.92-35.82,177.5-35.82m0-29.99C217.6,0,0,217.6,0,486.02s217.6,486.02,486.02,486.02,486.02-217.6,486.02-486.02S754.44,0,486.02,0h0Z"/><path class="cls-10" d="m486.02,85.52c54.08,0,106.53,10.58,155.88,31.46,47.69,20.17,90.52,49.05,127.31,85.84,36.79,36.79,65.67,79.62,85.84,127.31,20.88,49.36,31.46,101.8,31.46,155.88s-10.58,106.53-31.46,155.88c-20.17,47.69-49.05,90.52-85.84,127.31-36.79,36.79-79.62,65.67-127.31,85.84-49.36,20.88-101.8,31.46-155.88,31.46s-106.53-10.58-155.88-31.46c-47.69-20.17-90.52-49.05-127.31-85.84-36.79-36.79-65.67-79.62-85.84-127.31-20.88-49.36-31.46-101.8-31.46-155.88s10.58-106.53,31.46-155.88c20.17-47.69,49.05-90.52,85.84-127.31,36.79-36.79,79.62-65.67,127.31-85.84,49.36-20.88,101.8-31.46,155.88-31.46m0-29.99c-237.75,0-430.49,192.74-430.49,430.49s192.74,430.49,430.49,430.49,430.49-192.74,430.49-430.49S723.78,55.53,486.02,55.53h0Z"/><path class="cls-10" d="m486.02,85.52c54.08,0,106.53,10.58,155.88,31.46,47.69,20.17,90.52,49.05,127.31,85.84,36.79,36.79,65.67,79.62,85.84,127.31,20.88,49.36,31.46,101.8,31.46,155.88s-10.58,106.53-31.46,155.88c-20.17,47.69-49.05,90.52-85.84,127.31-36.79,36.79-79.62,65.67-127.31,85.84-49.36,20.88-101.8,31.46-155.88,31.46s-106.53-10.58-155.88-31.46c-47.69-20.17-90.52-49.05-127.31-85.84-36.79-36.79-65.67-79.62-85.84-127.31-20.88-49.36-31.46-101.8-31.46-155.88s10.58-106.53,31.46-155.88c20.17-47.69,49.05-90.52,85.84-127.31,36.79-36.79,79.62-65.67,127.31-85.84,49.36-20.88,101.8-31.46,155.88-31.46m0-29.99c-237.75,0-430.49,192.74-430.49,430.49s192.74,430.49,430.49,430.49,430.49-192.74,430.49-430.49S723.78,55.53,486.02,55.53h0Z"/><polygon class="cls-9" points="260.07 176.66 410.7 264.05 260.07 354.89 260.07 176.66"/><polygon class="cls-12" points="561.34 173.35 711.97 260.74 561.34 351.58 561.34 173.35"/><polygon class="cls-9" points="260.07 354.93 410.7 442.33 260.07 533.17 260.07 354.93"/><polygon class="cls-6" points="561.34 351.58 711.97 438.97 561.34 529.81 561.34 351.58"/><polygon class="cls-5" points="561.34 529.48 711.97 616.87 561.34 707.71 561.34 529.48"/><polygon class="cls-11" points="410.7 442.28 561.34 529.67 410.7 620.51 410.7 442.28"/><polygon class="cls-13" points="260.07 532.59 410.7 619.98 260.07 710.83 260.07 532.59"/><polygon class="cls-15" points="410.7 442.28 260.07 354.89 410.7 264.05 410.7 442.28"/><polygon class="cls-2" points="711.97 438.96 561.34 351.57 711.97 260.73 711.97 438.96"/><polygon class="cls-8" points="711.97 617.2 561.34 529.8 711.97 438.96 711.97 617.2"/><polygon class="cls-7" points="561.34 529.81 410.7 442.42 561.34 351.58 561.34 529.81"/><polygon class="cls-2" points="410.7 620.51 260.07 533.12 410.7 442.28 410.7 620.51"/><polygon class="cls-3" points="410.7 797.98 260.07 710.59 410.7 619.75 410.7 797.98"/><polygon class="cls-4" points="711.97 795.53 561.34 708.14 711.97 617.3 711.97 795.53"/><path class="cls-14" d="m583.8,707.57c-.56,0-1.12,0-1.68-.02-14.92-.29-28.64-4.46-40.78-12.39-12.07-7.88-21.74-18.47-28.75-31.47-7.02-13.01-10.42-27.51-10.12-43.09.23-11.81,2.58-22.97,6.98-33.17,4.39-10.18,10.43-19.22,17.96-26.88,7.54-7.67,16.38-13.71,26.29-17.95,3.37-1.44,6.9-2.64,10.53-3.58l2.9-125.25c.05-2.07,1.74-3.71,3.79-3.71.03,0,71.72,1.66,71.72,1.66,12.33.29,23.54,3.6,33.31,9.86,9.73,6.23,17.49,14.61,23.08,24.93,5.6,10.34,8.29,21.92,8,34.42-.29,12.72-3.58,24.27-9.77,34.34-6.17,10.05-14.43,18.03-24.54,23.74-9.68,5.47-20.31,8.24-31.6,8.24h0c-.54,0-1.09,0-1.64-.02l-16.27-.38c8.4,4.88,15.75,11.23,21.9,18.9,7.09,8.86,12.4,19.21,15.77,30.77,3.37,11.54,4.46,23.99,3.24,37-.18,1.95-1.82,3.44-3.78,3.44-.03,0-93.64-1.84-93.64-1.84-.68-.01-1.34-.21-1.91-.56-.63-.19-1.2-.53-1.66-1.02-.7-.73-1.07-1.7-1.05-2.71l1.35-58.42c-.22.12-.45.24-.67.37-6.77,3.79-12.48,9.04-16.96,15.61-4.5,6.58-7.39,14.1-8.61,22.36-.53,3.07-.82,6.4-.89,9.97-.28,14.32,4.04,27.72,11.26,34.97.11.11.22.23.32.36,3.65,4.73,8.1,8.68,13.22,11.73,6.41,3.82,13.71,5.88,21.7,6.13.28,0,.6,0,.92,0,8.15,0,15.68-2.08,22.4-6.17,7.06-4.3,12.91-10.39,17.38-18.08.69-1.19,1.95-1.89,3.28-1.89.31,0,.62.04.94.12l26.39,6.72c1.1.28,2.02,1.04,2.5,2.06.48,1.03.48,2.22,0,3.24-6.74,14.19-16.85,25.86-30.04,34.7-12.82,8.58-27.21,12.94-42.78,12.94Zm46.48-99.27c-1.04-6.46-3.33-12.52-6.84-18.06-4.28-6.75-9.87-12.29-16.59-16.45-3.05-1.89-6.29-3.37-9.67-4.43l-.88,38.26,33.99.67Zm-32.37-70.62c6.76,1.15,13.22,3.15,19.25,5.98-.04-.24-.06-.5-.06-.75l.6-26.05c.05-2.06,1.74-3.71,3.79-3.71.03,0,16.46.38,16.46.38.3,0,.6.01.89.01,5.96,0,11.54-1.44,16.58-4.27,5.32-2.99,9.67-7.18,12.91-12.46,3.23-5.26,4.94-11.33,5.1-18.06.16-6.83-1.27-13.03-4.25-18.43-2.99-5.42-7.14-9.81-12.32-13.05-5.15-3.21-10.96-4.92-17.26-5.06l-39.46-.91-2.23,96.4Z"/><path class="cls-10" d="m570.92,413.86l71.63,1.66c11.68.27,22.13,3.36,31.36,9.26,9.22,5.9,16.49,13.75,21.79,23.54,5.3,9.79,7.82,20.63,7.55,32.52-.28,12.09-3.35,22.91-9.21,32.44-5.86,9.54-13.58,17.01-23.17,22.42-9.15,5.17-19.06,7.75-29.74,7.75-.51,0-1.03,0-1.55-.02l-18.69-.43.6-26.05,16.36.38c.33,0,.65.01.98.01,6.65,0,12.8-1.59,18.44-4.76,5.92-3.33,10.68-7.92,14.28-13.79,3.6-5.86,5.49-12.52,5.66-19.96.17-7.54-1.4-14.33-4.73-20.35-3.33-6.02-7.87-10.83-13.63-14.43-5.76-3.6-12.15-5.48-19.18-5.64l-43.26-1-1.75,75.61-.08,3.31-.57,24.62c8.36,1.05,16.15,3.41,23.39,7.07,9.68,4.9,17.92,11.6,24.74,20.11,6.81,8.51,11.84,18.33,15.09,29.46,3.25,11.13,4.28,22.99,3.1,35.58l-41.33-.81-20.47-.4-13.75-.27h0s-18.02-.35-18.02-.35v-.38s-.9-.02-.9-.02l1.49-64.42c-2.21.82-4.36,1.8-6.45,2.97-7.32,4.1-13.4,9.69-18.25,16.78-4.85,7.09-7.92,15.07-9.23,23.94-.57,3.34-.86,6.84-.93,10.45-.31,15.96,4.68,30,12.37,37.72,3.94,5.11,8.69,9.34,14.28,12.67,7,4.17,14.84,6.39,23.53,6.67.35,0,.7.01,1.05.01,8.89,0,17.02-2.24,24.37-6.73,7.64-4.66,13.87-11.13,18.68-19.41l26.39,6.72c-6.47,13.63-16.05,24.69-28.73,33.18-12.24,8.2-25.8,12.3-40.68,12.3-.53,0-1.07,0-1.6-.02-14.27-.28-27.19-4.21-38.78-11.77-11.59-7.57-20.75-17.6-27.49-30.09-6.74-12.49-9.96-26.23-9.66-41.22.22-11.37,2.45-21.95,6.67-31.75,4.23-9.79,9.95-18.37,17.18-25.72,7.23-7.36,15.59-13.06,25.08-17.11,4.14-1.77,8.4-3.11,12.77-4.07l2.97-128.17m63.64,198.32c-.66-8.7-3.29-16.69-7.91-23.97-4.62-7.28-10.55-13.16-17.8-17.64-4.8-2.97-9.92-4.97-15.35-6.05l-1.08,46.83,24.67.48h0s2.35.05,2.35.05l15.13.3m-63.64-205.91c-4.11,0-7.49,3.28-7.58,7.41l-2.83,122.44c-2.84.85-5.62,1.85-8.29,2.99-10.37,4.43-19.62,10.75-27.51,18.77-7.85,7.99-14.15,17.42-18.73,28.04-4.6,10.66-7.05,22.3-7.29,34.6-.32,16.25,3.24,31.38,10.57,44.97,7.31,13.56,17.41,24.61,30.02,32.84,12.75,8.32,27.14,12.7,42.78,13.01.59.01,1.17.02,1.75.02,16.34,0,31.44-4.57,44.9-13.58,13.77-9.22,24.32-21.41,31.36-36.23.97-2.05.98-4.43.01-6.48-.96-2.05-2.8-3.57-5-4.13l-26.39-6.72c-.62-.16-1.25-.24-1.87-.24-2.66,0-5.18,1.4-6.56,3.77-4.15,7.14-9.56,12.77-16.08,16.75-6.2,3.78-12.88,5.62-20.42,5.62-.28,0-.57,0-.85,0-7.42-.24-13.91-2.07-19.84-5.6-4.71-2.8-8.8-6.43-12.15-10.79-.2-.25-.41-.5-.64-.72-6.53-6.55-10.42-18.89-10.16-32.22.07-3.39.34-6.52.82-9.32,0-.06.02-.11.03-.17,1.14-7.68,3.82-14.67,7.99-20.77,2.96-4.33,6.49-8.05,10.54-11.09l-1.19,51.3c-.08,3.33,2,6.2,4.96,7.3,1.01.53,2.16.84,3.38.87l18.02.35,13.75.27,20.47.4,41.33.81c.05,0,.1,0,.15,0,3.91,0,7.19-2.98,7.55-6.88,1.26-13.49.13-26.41-3.37-38.41-3.51-12.04-9.05-22.83-16.45-32.08-3.7-4.62-7.81-8.77-12.31-12.44l3.63.08c.58.01,1.15.02,1.72.02,11.95,0,23.21-2.94,33.47-8.73,10.67-6.03,19.39-14.46,25.9-25.06,6.54-10.65,10.02-22.84,10.33-36.24.3-13.16-2.54-25.38-8.46-36.31-5.9-10.89-14.1-19.74-24.38-26.32-10.37-6.63-22.24-10.15-35.27-10.45l-71.63-1.66c-.06,0-.12,0-.18,0h0Zm30.86,128.29l.42-18.06.08-3.31,1.57-68.02,35.67.83c5.69.13,10.71,1.6,15.34,4.49,4.69,2.93,8.29,6.75,11,11.66,2.69,4.87,3.93,10.27,3.78,16.51-.14,6.13-1.63,11.42-4.54,16.16-2.94,4.79-6.71,8.43-11.53,11.14-4.53,2.55-9.35,3.79-14.73,3.79-.27,0-.53,0-.8,0l-16.37-.38c-.06,0-.12,0-.18,0-1.95,0-3.83.75-5.24,2.1-1.46,1.39-2.3,3.3-2.35,5.31l-.49,21.19c-3.76-1.42-7.65-2.56-11.65-3.41h0Zm-1.6,69.36l.67-29.06c1.37.64,2.71,1.36,4.01,2.17,6.23,3.85,11.41,8.99,15.38,15.25,2.44,3.85,4.22,7.87,5.35,12.13l-6.02-.12-2.35-.05-17.05-.33h0Z"/></svg>