<svg width="120" height="120" viewBox="0 0 120 120" fill="none" xmlns="http://www.w3.org/2000/svg">
<path fill-rule="evenodd" clip-rule="evenodd" d="M83.2727 39.6364C88.0927 39.6364 92 43.5437 92 48.3636L92 68.2576C92 69.791 92.0001 71.1141 91.9111 72.2037C91.8171 73.3538 91.6096 74.4977 91.0488 75.5984C90.2121 77.2406 88.877 78.5757 87.2348 79.4124C86.1341 79.9733 84.9902 80.1807 83.8401 80.2747C82.7504 80.3637 81.4275 80.3637 79.8939 80.3636H69.3091C67.6318 80.3636 66.5489 80.3659 65.7246 80.4332C64.9343 80.4978 64.6413 80.6074 64.4975 80.6807C63.9501 80.9596 63.5051 81.4046 63.2262 81.952C63.1529 82.0958 63.0433 82.3889 62.9787 83.1791C62.9195 83.9039 62.9106 84.8288 62.9093 86.1818H71.6364C73.243 86.1818 74.5454 84.8794 74.5454 83.2727V81.8182H80.3636V83.2727C80.3636 88.0927 76.4563 92 71.6364 92H51.7424C50.2091 92 48.8858 92.0001 47.7963 91.911C46.6462 91.8171 45.5023 91.6096 44.4015 91.0488C42.7594 90.212 41.4243 88.8769 40.5876 87.2348C40.0267 86.1341 39.8193 84.9902 39.7253 83.8401C39.6363 82.7504 39.6363 81.4275 39.6364 79.8939V69.3091C39.6364 67.6318 39.6341 66.5489 39.5668 65.7246C39.5022 64.9343 39.3926 64.6413 39.3193 64.4975C39.0404 63.9501 38.5954 63.5051 38.048 63.2261C37.9041 63.1529 37.6111 63.0433 36.8208 62.9787C36.096 62.9195 35.1712 62.9106 33.8182 62.9093V71.6363C33.8182 73.243 35.1206 74.5454 36.7273 74.5454H38.1818V80.3636H36.7273C31.9073 80.3636 28 76.4563 28 71.6363V51.7424C28 50.209 27.9999 48.8859 28.0889 47.7963C28.1829 46.6462 28.3904 45.5023 28.9512 44.4015C29.7879 42.7594 31.123 41.4243 32.7652 40.5876C33.8659 40.0267 35.0098 39.8193 36.1599 39.7253C37.2496 39.6363 38.5725 39.6363 40.106 39.6364L50.6909 39.6364C52.3682 39.6364 53.4511 39.6341 54.2754 39.5668C55.0657 39.5022 55.3587 39.3926 55.5025 39.3193C56.0499 39.0404 56.4949 38.5954 56.7738 38.048C56.8471 37.9041 56.9567 37.6111 57.0213 36.8208C57.0805 36.0961 57.0894 35.1712 57.0907 33.8182H48.3636C46.757 33.8182 45.4545 35.1206 45.4545 36.7273V38.1818H39.6364V36.7273C39.6364 31.9073 43.5437 28 48.3636 28H68.2576C69.791 28 71.1141 27.9999 72.2037 28.0889C73.3538 28.1829 74.4977 28.3904 75.5984 28.9512C77.2406 29.7879 78.5757 31.123 79.4124 32.7652C79.9733 33.8659 80.1807 35.0098 80.2747 36.1599C80.3637 37.2495 80.3637 38.5724 80.3636 40.1058L80.3636 50.6909C80.3636 52.3682 80.3659 53.4511 80.4332 54.2754C80.4978 55.0657 80.6074 55.3587 80.6807 55.5025C80.9596 56.0499 81.4046 56.4949 81.952 56.7738C82.0958 56.8471 82.3889 56.9567 83.1791 57.0213C83.9039 57.0805 84.8288 57.0894 86.1818 57.0907V48.3636C86.1818 46.757 84.8794 45.4546 83.2727 45.4546H81.8182V39.6364H83.2727ZM43.2322 60C43.7313 59.442 44.1594 58.8189 44.5033 58.1439C45.0642 57.0432 45.2717 55.8993 45.3656 54.7492C45.4547 53.6595 45.4546 52.3366 45.4546 50.803L45.4535 46.9091H39.6364L39.6364 50.6909C39.6364 52.3681 39.6341 53.4511 39.5668 54.2754C39.5022 55.0657 39.3926 55.3587 39.3193 55.5025C39.0404 56.0499 38.5954 56.4949 38.048 56.7738C37.9041 56.8471 37.6111 56.9567 36.8209 57.0213C36.0961 57.0805 35.1712 57.0894 33.8182 57.0907V51.8545C33.8182 50.1773 33.8205 49.0943 33.8878 48.2701C33.9524 47.4798 34.062 47.1868 34.1353 47.0429C34.4142 46.4956 34.8592 46.0505 35.4066 45.7716C35.5504 45.6983 35.8434 45.5887 36.6337 45.5241C37.458 45.4568 38.5409 45.4545 40.2182 45.4545L50.803 45.4545C52.3366 45.4546 53.6595 45.4546 54.7492 45.3656C55.8993 45.2716 57.0432 45.0642 58.1439 44.5033C58.8189 44.1594 59.442 43.7313 60 43.2322C60.5579 43.7313 61.1811 44.1594 61.8561 44.5033C62.9568 45.0642 64.1007 45.2717 65.2508 45.3656C66.3405 45.4546 67.6634 45.4546 69.197 45.4546L73.0909 45.4534V39.6364L69.3091 39.6364C67.6318 39.6364 66.5489 39.6341 65.7246 39.5668C64.9343 39.5022 64.6413 39.3926 64.4975 39.3193C63.9501 39.0404 63.5051 38.5954 63.2262 38.048C63.1529 37.9041 63.0433 37.6111 62.9787 36.8208C62.9195 36.0961 62.9106 35.1712 62.9093 33.8182H68.1455C69.8227 33.8182 70.9057 33.8205 71.7299 33.8878C72.5202 33.9524 72.8132 34.062 72.9571 34.1353C73.5044 34.4142 73.9495 34.8592 74.2284 35.4066C74.3017 35.5504 74.4113 35.8434 74.4758 36.6337C74.5432 37.458 74.5454 38.5409 74.5454 40.2182V50.803C74.5454 52.3366 74.5453 53.6595 74.6344 54.7492C74.7283 55.8993 74.9358 57.0432 75.4967 58.1439C75.8406 58.8189 76.2687 59.442 76.7678 60C76.2687 60.558 75.8406 61.1811 75.4967 61.8561C74.9358 62.9568 74.7283 64.1007 74.6344 65.2508C74.5453 66.3405 74.5454 67.6634 74.5454 69.1968L74.5465 73.0909H80.3636L80.3636 69.3091C80.3636 67.6318 80.3659 66.5489 80.4332 65.7246C80.4978 64.9343 80.6074 64.6413 80.6807 64.4975C80.9596 63.9501 81.4046 63.5051 81.952 63.2262C82.0959 63.1529 82.3889 63.0433 83.1791 62.9787C83.9039 62.9195 84.8288 62.9106 86.1818 62.9093V68.1454C86.1818 69.8227 86.1795 70.9057 86.1122 71.7299C86.0476 72.5202 85.938 72.8132 85.8647 72.9571C85.5858 73.5044 85.1408 73.9495 84.5934 74.2284C84.4496 74.3017 84.1566 74.4113 83.3663 74.4758C82.542 74.5432 81.4591 74.5454 79.7818 74.5454H69.197C67.6634 74.5454 66.3405 74.5453 65.2508 74.6344C64.1007 74.7283 62.9568 74.9358 61.8561 75.4967C61.1811 75.8406 60.5579 76.2687 60 76.7678C59.442 76.2687 58.8189 75.8406 58.1439 75.4966C57.0432 74.9358 55.8993 74.7283 54.7492 74.6344C53.6595 74.5453 52.3366 74.5454 50.803 74.5454L46.9091 74.5465V80.3636L50.6909 80.3636C52.3681 80.3636 53.4511 80.3659 54.2754 80.4332C55.0657 80.4978 55.3587 80.6074 55.5025 80.6807C56.0499 80.9596 56.4949 81.4046 56.7738 81.952C56.8471 82.0958 56.9567 82.3888 57.0213 83.1791C57.0805 83.9039 57.0894 84.8288 57.0907 86.1818H51.8545C50.1773 86.1818 49.0943 86.1795 48.2701 86.1122C47.4798 86.0476 47.1868 85.938 47.0429 85.8647C46.4956 85.5858 46.0505 85.1408 45.7716 84.5934C45.6983 84.4496 45.5887 84.1566 45.5241 83.3663C45.4568 82.542 45.4545 81.459 45.4545 79.7818L45.4545 69.1969C45.4546 67.6634 45.4546 66.3405 45.3656 65.2508C45.2716 64.1007 45.0642 62.9568 44.5033 61.8561C44.1594 61.1811 43.7313 60.558 43.2322 60Z" fill="#292524"/>
</svg>
