<?xml version="1.0" standalone="no"?>
<!DOCTYPE svg PUBLIC "-//W3C//DTD SVG 20010904//EN"
 "http://www.w3.org/TR/2001/REC-SVG-20010904/DTD/svg10.dtd">
<svg version="1.0" xmlns="http://www.w3.org/2000/svg"
 width="200.000000pt" height="200.000000pt" viewBox="0 0 200.000000 200.000000"
 preserveAspectRatio="xMidYMid meet">

<g transform="translate(0.000000,200.000000) scale(0.100000,-0.100000)"
fill="#000000" stroke="none">
<path d="M0 1000 l0 -1000 1000 0 1000 0 0 1000 0 1000 -1000 0 -1000 0 0
-1000z m1243 461 c57 -37 61 -52 67 -236 l5 -170 38 -3 37 -3 0 73 c0 76 -9
98 -42 98 -15 0 -18 8 -18 45 l0 46 38 -7 c45 -8 69 -24 93 -61 17 -25 19 -51
19 -243 0 -192 -2 -218 -19 -243 -37 -57 -52 -61 -236 -67 l-170 -5 -3 -37 -3
-38 73 0 c76 0 98 9 98 42 0 15 8 18 45 18 l46 0 -7 -37 c-8 -46 -24 -70 -61
-94 -25 -17 -51 -19 -243 -19 -192 0 -218 2 -243 19 -57 37 -61 52 -67 236
l-5 170 -37 3 -38 3 0 -73 c0 -76 9 -98 42 -98 15 0 18 -8 18 -45 l0 -46 -37
7 c-46 8 -70 24 -94 61 -17 25 -19 51 -19 243 0 192 2 218 19 243 37 57 52 61
236 67 l170 5 3 38 3 37 -73 0 c-76 0 -98 -9 -98 -42 0 -15 -8 -18 -45 -18
l-46 0 7 38 c8 45 24 69 61 93 25 17 51 19 243 19 192 0 218 -2 243 -19z"/>
<path d="M1052 1353 l3 -38 70 -5 70 -5 3 -42 3 -43 -73 0 c-44 0 -84 6 -100
14 -24 13 -32 13 -55 0 -21 -10 -67 -14 -176 -14 -83 0 -157 -5 -168 -10 -16
-9 -19 -22 -19 -86 l0 -75 38 3 37 3 5 70 5 70 43 3 42 3 0 -73 c0 -44 -6 -84
-14 -100 -13 -24 -13 -32 0 -55 10 -21 14 -67 14 -176 0 -83 5 -157 10 -168 9
-16 22 -19 86 -19 l75 0 -3 38 -3 37 -70 5 -70 5 -3 43 -3 42 73 0 c44 0 84
-6 101 -14 23 -13 31 -13 55 0 20 10 66 14 175 14 83 0 157 5 168 10 16 9 19
22 19 86 l0 75 -37 -3 -38 -3 -5 -70 -5 -70 -42 -3 -43 -3 0 73 c0 44 6 84 14
101 13 23 13 31 0 55 -10 20 -14 66 -14 175 0 83 -5 157 -10 168 -9 16 -22 19
-86 19 l-75 0 3 -37z"/>
</g>
</svg>
