<?xml version="1.0" encoding="UTF-8"?>
<svg id="Layer_1" data-name="Layer 1" xmlns="http://www.w3.org/2000/svg" viewBox="0 0 256 256">
  <defs>
    <style>
      .cls-1, .cls-2, .cls-3, .cls-4 {
        stroke-width: 0px;
      }

      .cls-2 {
        fill: #4e7f23;
      }

      .cls-3 {
        fill: #834a2c;
      }

      .cls-4 {
        fill: #e8e8e8;
      }
    </style>
  </defs>
  <rect class="cls-2" width="256" height="256"/>
  <g>
    <path class="cls-4" d="M124.98,110.3c.84-.02,1.63.39,2.11,1.08,1.26,1.85,1.44,4.25.66,6.28-.97,2.5-2.84,4.55-4.97,6.19-5.8,4.46-13.03,6.65-20.22,8.03-1.86.36-3.73.67-5.52,1.29-1.44.5-2.8,1.2-4.24,1.71-4.64,1.64-9.74,1.19-14.6.44-9.27-1.43-18.38-3.88-27.11-7.29-2.05-.8-4.43-2.19-4.31-4.38-.02-.46,3.51-1.09,5.4-2.04,4.59-2.3,9.54-5.23,14.27-8.14,1.97-1.22,4.01-2.34,6.09-3.37,5.46-2.69,11.29-4.72,17.33-5.48,6.04-.77,12.3-.24,17.96,1.99,2.24.88,4.38,2.03,6.66,2.8,2.74.94,8.15.94,10.5.88Z"/>
    <path class="cls-4" d="M131.08,115.25c.47,1.61,1.37,3.08,2.56,4.27,5.83,5.84,14.84,7.29,23.05,6.46,8.19-.82,16.06-3.56,24.18-4.89,2.26-.37,4.57-.64,6.69-1.5,2.2-.89,4.08-2.39,6.09-3.65,3.29-2.07,6.96-3.53,10.77-4.31,2-.41,4.11-.65,5.86-1.69,3.61-2.15,4.57-6.85,5.19-11.01.23-1.54.52-2.65-.34-4.75-.29-.71-.89-1.24-1.63-1.41-2.56-.61-8.81-2.68-10.66-3.44-3.38-1.39-6.93-2.26-10.59-2.32-5-.08-9.64,2.33-14.39,3.91-5.74,1.91-11.97,2.72-17.04,6.02-1.65,1.08-3.14,2.4-4.81,3.45-2.21,1.39-4.69,2.27-7.14,3.14-4.14,1.47-8.47,2.56-12.44,4.33,0,0-6.56,3.21-5.34,7.4Z"/>
    <path class="cls-1" d="M114.29,109.62c3.4,2.38,4.88,7.45,3.36,11.47-.74,1.95-2.08,3.6-3.66,4.84-1.92,1.5-4.17,2.42-6.41,3.28-2.61,1-5.91,2.03-5.91,2.03-6.05,2.29-6.9,1.58-10.39.59-1.76-.5-3.56-1.02-5-2.21-.83-.69-1.51-1.58-2.32-2.3-1.15-1.02-2.55-1.68-3.7-2.71-2.51-2.25-3.48-6.14-2.73-9.55s2.68-5.83,5.89-8.05l8.37-1.96c3.82-.59,7.71-.34,11.43.72l11.07,3.83Z"/>
    <path class="cls-1" d="M178.82,121.23c3.16-.62,4.25-1.19,4.24-2.85,0-.64-.27-1.23-.64-1.74s-.79-1.01-.94-1.63c-.29-1.19.5-2.37.58-3.59.05-.8-.2-1.59-.26-2.4-.08-1.1.22-2.19.36-3.28.24-1.82.06-3.7-.52-5.44-.24-.71-.55-1.41-1-2-.77-1.01-1.9-1.64-3.02-2.18-2.59-1.24-6.24-2.87-8.18-2.48l-10.68,6.15c-1.49.83-12.49,5.66-13.98,6.49-.69.39-1.41.79-1.89,1.44-.5.68-.69,1.55-.85,2.39-.61,3.23-.98,6.79.6,9.63,1.68,3.03,4.41,5.76,8.26,6.04l13.89-1.45,14.04-3.1Z"/>
    <path class="cls-1" d="M127.79,107.7c-3.47,1.25-6.9,1.22-10.44.25s-6.97-2.4-10.49-3.48c-7.39-2.28-14.8-2.97-22.41-1.35s-14.23,4.95-20.66,8.78c-3.02,1.8-5.95,3.76-8.94,5.61s-5.91,3.24-9.42,2.91c-1.74-.16-3.31-.93-5-1.21-.12-.02-.39-.26-.42-.2.23-.36.24.78.3.86-.18-.24.09-.81.22-1.32.63-2.38,1.86-4.69,3.02-6.84,1.51-2.81,3.31-5.42,5.73-7.51,2.6-2.25,5.86-3.76,8.96-5.2,3.29-1.53,6.72-2.78,10.32-3.33s7.17-.46,10.74-.38c7.23.16,14.53.34,21.22,3.41,3.17,1.45,6.15,3.3,9.02,5.28s5.53,4.26,8.44,6.16,6.19,2.85,9.64,2.14c2.96-.6,5.53-2.44,7.79-4.36s4.18-4.04,6.38-5.95c2.6-2.27,5.55-4.1,8.57-5.77,6.31-3.49,12.92-6.57,19.48-9.56s13.36-5.71,20.38-7.57c6.14-1.63,13.79-3.6,19.92-1.01,2.32.98,4.74,2.92,5.44,5.27.54,1.79.21,4.1-.97,5.43-.63.7-1.06.98-2.09,1.04-1.78.11-3.66-.86-5.28-1.48-3.43-1.3-6.86-2.72-10.48-3.4s-7.39-.64-10.93.68c-3.23,1.2-6.18,2.88-9.54,3.73s-6.69,1.25-9.93,2.3c-3.43,1.12-6.25,3.05-9.18,5.08-4.43,3.08-9.45,4.94-14.53,6.66-4.22,1.42-8.49,2.68-12.79,3.82-.68.18-1.37.36-2.05.53-3.12.77-1.8,5.6,1.33,4.82,8.18-2.03,16.4-4.49,24.12-7.91,2.82-1.25,5.34-2.83,7.86-4.6,1.46-1.03,2.95-2.05,4.57-2.81s3.25-1.18,4.92-1.57c3.6-.84,7.29-1.31,10.74-2.69s6.47-3.33,10.11-3.5,7.33,1.01,10.78,2.28,7.42,3.48,11.3,2.96c6.04-.81,8.64-8.22,6.62-13.41-2.67-6.86-10.46-9.56-17.28-9.38-7.62.2-15.34,2.44-22.47,5s-14.26,5.87-21.19,9.24-13.55,6.39-19.44,11.02c-2.61,2.06-4.85,4.52-7.33,6.72-1.88,1.67-4.21,3.5-6.82,3.65-3.34.19-6.1-2.39-8.59-4.27-2.91-2.2-5.86-4.35-8.99-6.24s-6.51-3.53-10.03-4.63c-3.76-1.17-7.73-1.65-11.65-1.88-7.78-.46-16.11-.96-23.64,1.37-3.67,1.13-7.21,2.78-10.61,4.55-3.22,1.68-6.26,3.74-8.64,6.5s-4.04,5.65-5.52,8.8c-1.11,2.36-2.32,4.77-2.59,7.4-.39,3.85,3.64,5.01,6.67,5.72,4,.93,7.79.66,11.54-.99,3.46-1.53,6.57-3.84,9.77-5.84s6.64-4.02,10.13-5.73c6.83-3.34,14.38-5.61,22.05-5.1,3.8.25,7.52,1.27,11.14,2.43s7.18,2.7,10.91,3.51,7.83.72,11.56-.63c1.27-.46,2.12-1.7,1.75-3.08-.34-1.23-1.8-2.21-3.08-1.75Z"/>
    <path class="cls-1" d="M124.98,112.8c.42.02.68,1.53.72,1.84.14,1.29-.34,2.46-1,3.55-1.38,2.28-3.6,3.95-5.84,5.33-5.03,3.11-10.79,4.74-16.55,5.87-1.53.3-3.08.55-4.59.96-1.6.43-3.09,1.12-4.62,1.75-2.78,1.14-5.66,1.49-8.65,1.38-6.2-.22-12.47-1.67-18.45-3.23-3.48-.91-6.92-1.96-10.31-3.16-1.54-.54-3.15-1.03-4.61-1.77-.51-.26-1.06-.54-1.46-.95-.31-.31-.27-.7-.43-.12l-.64,1.1c-.3.34-.32.25-.33.24l-.12.05c.15-.06.31-.11.47-.16.44-.14.88-.27,1.32-.4,1.16-.35,2.31-.73,3.41-1.25,2.61-1.23,5.13-2.7,7.63-4.14,5.21-3.02,10.22-6.37,15.76-8.78,5.15-2.24,10.73-3.8,16.36-4.07s11.29.88,16.62,3.28c2.73,1.23,5.25,2.14,8.23,2.45,2.35.25,4.72.27,7.08.23,3.21-.06,3.22-5.06,0-5-2.47.05-4.98.05-7.43-.27-2.73-.36-5.13-1.67-7.63-2.74-6.33-2.7-13.25-3.52-20.06-2.67s-13.32,3.13-19.42,6.24-12.07,7.26-18.34,10.49c-1.03.53-1.95.92-3.06,1.27s-2.37.58-3.36,1.18c-3.09,1.88-.67,5.9,1.42,7.44,2.45,1.81,5.74,2.66,8.59,3.64,3.33,1.13,6.7,2.13,10.12,2.99s6.86,1.57,10.33,2.15,6.72,1.06,10.11.98,6.69-.94,9.93-2.31c3.07-1.3,6.35-1.7,9.58-2.41,7.05-1.56,14.19-4.13,19.72-8.91,2.65-2.29,4.92-5.48,5.2-9.06s-1.65-7.8-5.7-8c-3.22-.16-3.21,4.84,0,5Z"/>
    <path class="cls-1" d="M128.67,115.91c2.11,6.73,9.37,10.57,15.87,11.96,7.4,1.57,14.86.54,22.15-1.09,4.02-.9,8-1.96,12.04-2.77s7.91-1.02,11.49-2.93c3.3-1.77,6.15-4.16,9.69-5.52,1.75-.67,3.54-1.19,5.38-1.55s3.63-.68,5.35-1.45c3.14-1.4,5.02-4.38,6.07-7.54.49-1.48.79-3.01,1.04-4.55s.58-3.11.38-4.69c-.24-1.87-.95-3.83-2.63-4.85-1.08-.66-2.46-.86-3.67-1.22-2.53-.75-5.06-1.56-7.54-2.49-3.43-1.28-6.76-2.34-10.44-2.64-3.96-.31-7.74.65-11.43,2.01s-7.06,2.52-10.71,3.5-7.07,1.93-10.32,3.63c-3.42,1.78-6.12,4.58-9.7,6.1s-7.22,2.5-10.83,3.7c-4.37,1.45-9.74,3.35-11.77,7.95-.63,1.44-.78,2.92-.39,4.45.79,3.12,5.61,1.8,4.82-1.33-.08-.32-.08-.46-.02-.71.05-.2.19-.54.51-1,.44-.64-.27.27.25-.31.12-.13.24-.25.36-.38.18-.18.37-.35.56-.52.13-.11.25-.22.38-.32-.19.14-.17.13.06-.05,1.38-1.01,2.8-1.62,4.41-2.21,6.63-2.42,13.74-3.8,19.48-8.12,2.64-1.98,5.29-3.55,8.44-4.59s6.55-1.77,9.78-2.79,6.59-2.57,10.01-3.47c3.22-.85,6.47-.72,9.69.06,2.64.64,5.11,1.74,7.67,2.62,2.27.78,4.56,1.52,6.87,2.15.99.27,1.1.26,1.23,1.49s-.2,2.33-.42,3.58c-.43,2.42-.99,5.19-2.79,7-2.06,2.06-5.67,1.98-8.34,2.71-3.4.93-6.68,2.4-9.64,4.3-1.37.88-2.69,1.85-4.12,2.64-1.56.85-3.23,1.27-4.97,1.58-3.72.66-7.41,1.31-11.09,2.19-7.5,1.78-15.06,3.83-22.83,3.11-3.07-.28-6.19-1.05-8.94-2.45s-5.61-3.43-6.57-6.49-5.79-1.75-4.82,1.33Z"/>
    <path class="cls-1" d="M113.03,111.78c2.68,1.96,3.47,6.23,1.99,9.11-2.01,3.91-6.53,5.39-10.41,6.74-1.49.52-2.99.99-4.48,1.52-.94.34-1.89.66-2.87.89-.8.19-.91.24-1.84.22-.18,0-.96-.12-.36-.01-.27-.05-.54-.11-.8-.17-.64-.16-1.27-.36-1.9-.55-2.14-.62-3.88-1.16-5.45-2.81-.82-.86-1.67-1.63-2.64-2.32s-1.95-1.2-2.72-2.05c-1.22-1.36-1.74-3.24-1.73-5.03s.58-3.44,1.54-4.9c.45-.69,1.02-1.29,1.63-1.85.33-.31.7-.58,1.03-.88.11-.1.53-.46.24-.26-.1.07-.16.04-.03-.01.8-.33,1.81-.42,2.65-.62l3.92-.92c3.21-.75,6.51-.83,9.75-.17,2.39.49,4.67,1.41,6.97,2.21l6.11,2.12c1.28.44,2.73-.5,3.08-1.75.38-1.37-.47-2.63-1.75-3.08-2.04-.71-4.07-1.41-6.11-2.12-2.37-.82-4.72-1.77-7.2-2.25-4.16-.81-8.28-.7-12.39.26l-4.38,1.02c-1.05.25-2.11.38-3.02.97-4.13,2.68-7.01,7.23-7.04,12.22-.02,2.51.68,5.15,2.12,7.22,1.56,2.26,4,3.24,5.87,5.13.99.99,1.9,1.99,3.1,2.74s2.57,1.21,3.91,1.61c1.63.49,3.27,1.04,4.98,1.21,3.63.35,7.38-1.47,10.76-2.63,5.77-1.99,11.91-4.39,14.36-10.47,2.11-5.23.11-11.38-4.36-14.66-1.09-.8-2.79-.18-3.42.9-.74,1.27-.2,2.62.9,3.42Z"/>
    <path class="cls-1" d="M179.54,123.58c2.74-.56,5.77-1.58,6-4.83.05-.75-.06-1.48-.32-2.18-.29-.78-1.04-1.43-1.27-2.18-.06-.2-.21.47.06-.35.13-.39.25-.8.34-1.2.27-1.16.22-2.17.05-3.34-.25-1.74.35-3.44.38-5.19.04-2.06-.37-4.15-1.22-6.03-1.47-3.27-4.9-4.62-8-5.9-2.18-.9-5.14-2.06-7.4-.84-1.29.7-2.54,1.48-3.81,2.22-2.39,1.39-4.74,2.94-7.22,4.16-3.67,1.82-7.45,3.43-11.16,5.17-1.87.88-3.88,1.78-4.95,3.66-.9,1.58-1.06,3.58-1.29,5.35-.23,1.87-.26,3.74.1,5.6.98,5.13,6.26,10.86,11.84,10.48,3.46-.23,6.92-.73,10.37-1.09,5.92-.63,11.7-2.2,17.5-3.5,3.14-.7,1.81-5.52-1.33-4.82-2.51.56-5.02,1.12-7.53,1.69l-4.76,1.06c-.43.1-.88.18-1.31.29-.74.2.86-.07.2,0-2.99.25-5.98.63-8.96.95l-3.99.42c-1.44.15-2.84-.52-3.93-1.42-1.96-1.62-3.29-3.97-3.38-6.53-.04-1.38.1-2.74.35-4.09.11-.6.14-1.5.52-2,.29-.38.84-.61,1.25-.82,3.08-1.65,6.35-2.97,9.52-4.43,4.93-2.27,9.63-5.04,14.26-7.87.11-.07.32-.14.41-.24.05-.06-.71.3-.73.27.01.02.8.07.86.08,1.54.31,3.03.98,4.44,1.64,1.13.53,2.54,1.02,3.3,2.06.96,1.33,1.12,3.38,1.03,4.96-.05.94-.27,1.85-.38,2.79-.13,1.14.12,2.14.19,3.27.04.67-.24,1.24-.39,1.88-.23.96-.35,1.95-.1,2.91s.85,1.55,1.28,2.38c.06.11.14.21.19.32-.02.31,0,.29.03-.04-.08.27-.06.25.06-.08l.18-.21c-.19.18-.18.18.05,0-.03,0-.66.33-.28.17-.75.31-1.6.45-2.39.61-1.32.27-2.09,1.84-1.75,3.08.38,1.38,1.75,2.02,3.08,1.75Z"/>
    <path class="cls-3" d="M43.83,157.96c.13-.22.29-.42.49-.6,4.42-3.95,10.09-5.43,16.03-5,4.15.3,8.12,1.75,12.13,2.88,8.38,2.36,17.79,3.23,25.45-.92,3.85-2.08,7.04-5.32,11.09-6.96,3.62-1.47,7.71-1.57,11.24-3.22,2.4-1.12,4.44-2.92,6.84-4.04,2.79-1.3,5.93-1.63,9-1.86,8.91-.65,17.87-.6,26.77.15,5.75.49,11.68,1.25,17.19-.49,7.14-2.26,12.44-8.4,19.39-11.2,3.53-1.43,7.96-1.79,10.83.72,1.29,1.12,2.11,2.71,2.57,4.36,1.92,6.94-2.34,14.17-7.68,18.99-2.49,2.25-5.25,4.21-8.3,5.6-8.96,4.1-19.3,2.98-29.12,2.14-13.01-1.11-26.68-1.46-38.47,4.13-7.97,3.78-14.49,10-21.98,14.65-16.22,10.07-37.12,12.22-55.04,5.65-2.77-1.02-5.56-2.29-7.5-4.52-2.84-3.26-3.33-7.89-3.68-12.2-.24-2.88,2.07-7.06,2.78-8.27Z"/>
    <path class="cls-1" d="M45.99,159.22c.67-.97,2.19-1.7,3.21-2.26,1.32-.72,2.72-1.23,4.18-1.59,2.78-.69,5.77-.77,8.59-.32,3.5.56,6.84,1.78,10.24,2.72,3.09.85,6.25,1.46,9.45,1.77,6.39.62,13.03-.29,18.59-3.66,2.57-1.56,4.87-3.54,7.47-5.07,2.83-1.67,5.95-2.15,9.09-2.9,3.31-.79,6.02-2.28,8.86-4.11s5.61-2.62,8.88-2.92c7.25-.67,14.6-.74,21.87-.4s14.19,1.72,21.21.57c6.24-1.02,11.14-4.84,16.21-8.31,2.27-1.55,4.67-3.14,7.31-4,2.26-.74,5.25-1.18,7.28.4s2.48,4.53,2.35,6.9c-.15,2.86-1.44,5.59-3,7.95-3.3,4.97-8.6,9.1-14.24,11.03-6.16,2.1-12.75,1.99-19.16,1.55-13.25-.91-26.71-2.59-39.67,1.33-6.39,1.93-11.99,5.31-17.35,9.21s-10.22,7.74-15.97,10.64c-10.7,5.4-22.98,7.4-34.86,6.06-3.02-.34-6.02-.96-8.95-1.77-2.77-.77-5.62-1.63-8.14-3.05s-4.13-3.54-4.91-6.36c-.33-1.19-.56-2.41-.71-3.63-.16-1.3-.42-2.77-.21-4.02.34-2.04,1.35-3.99,2.38-5.75,1.62-2.79-2.7-5.3-4.32-2.52-1.24,2.13-2.41,4.51-2.89,6.95-.59,3.05,0,6.56.72,9.55s2.18,6.05,4.6,8.13c2.6,2.23,5.8,3.5,9.01,4.58,12.3,4.13,25.89,4.34,38.38.94,6.26-1.7,12.3-4.34,17.77-7.84s10.89-8.16,16.7-11.71c12.1-7.4,26.29-7.5,40.01-6.41,6.91.54,13.87,1.41,20.8.65s13.6-3.42,19.15-8.12c4.96-4.2,9.1-9.99,9.79-16.6.33-3.21-.31-6.83-2.23-9.49s-5.02-4.15-8.38-4.23c-6.49-.15-11.98,4.08-17.03,7.6-2.38,1.66-4.84,3.37-7.57,4.42-3.32,1.27-6.8,1.48-10.32,1.34s-7.18-.58-10.78-.82c-3.96-.26-7.93-.37-11.9-.35s-7.9.18-11.84.49c-3.53.28-7.02.76-10.22,2.36-1.52.76-2.89,1.77-4.33,2.67-1.52.95-3.05,1.61-4.78,2.07-3.28.87-6.61,1.33-9.7,2.84s-5.45,3.64-8.21,5.41-5.64,2.85-8.82,3.33c-6.64,1.01-13.25-.65-19.57-2.53s-13.57-3.16-20.24-.67c-2.94,1.1-6.29,2.81-8.11,5.45-.77,1.11-.2,2.78.9,3.42,1.24.73,2.65.22,3.42-.9Z"/>
    <path class="cls-1" d="M49.33,163.4c2.1,5.09,7.47,6.86,12.19,8.81,5.27,2.18,10.89,4.02,16.68,3.78s11.3-2.49,16.63-4.73,11.04-4.82,16.31-7.74c4.85-2.7,9.54-5.71,14.57-8.08s10.34-3.72,15.82-4.25c11.48-1.11,22.99.61,34.49.19,6.55-.24,13.06-1.29,18.76-4.71,5-3,9.09-7.48,11.61-12.74.59-1.22.33-2.7-.9-3.42-1.09-.64-2.83-.32-3.42.9-2.01,4.18-5.02,7.82-8.92,10.38-4.52,2.96-9.69,4.15-15.03,4.49-10.99.69-21.98-.88-32.98-.35-5.42.26-10.88,1.02-16.03,2.76s-9.74,4.28-14.33,6.95-9.61,5.5-14.65,7.85-10.02,4.64-15.25,6.23c-2.86.87-5.75,1.39-8.75,1.26s-5.91-.9-8.73-1.86-5.51-2.09-8.19-3.29c-1.75-.79-4.27-1.83-5.06-3.76-.51-1.25-1.66-2.14-3.08-1.75-1.18.32-2.26,1.82-1.75,3.08h0Z"/>
    <path class="cls-4" d="M113.59,117.33c.3-.16.64-.32.97-.23.36.09.59.45.74.8.71,1.73.15,3.77-.97,5.26s-2.73,2.53-4.34,3.48c-.25.15-.51.3-.8.33-.85.08-1.39-.87-1.7-1.67-.54-1.39-1.05-3.06-.19-4.28.75-1.07,1.95-1.59,2.95-2.04,0,0,2.31-1.11,3.34-1.64Z"/>
    <path class="cls-1" d="M45.99,159.22c.67-.97,2.19-1.7,3.21-2.26,1.32-.72,2.72-1.23,4.18-1.59,2.78-.69,5.77-.77,8.59-.32,3.5.56,6.84,1.78,10.24,2.72,3.09.85,6.25,1.46,9.45,1.77,6.39.62,13.03-.29,18.59-3.66,2.57-1.56,4.87-3.54,7.47-5.07,2.83-1.67,5.95-2.15,9.09-2.9,3.31-.79,6.02-2.28,8.86-4.11s5.61-2.62,8.88-2.92c7.25-.67,14.6-.74,21.87-.4s14.19,1.72,21.21.57c6.24-1.02,11.14-4.84,16.21-8.31,2.27-1.55,4.67-3.14,7.31-4,2.26-.74,5.25-1.18,7.28.4s2.48,4.53,2.35,6.9c-.15,2.86-1.44,5.59-3,7.95-3.3,4.97-8.6,9.1-14.24,11.03-6.16,2.1-12.75,1.99-19.16,1.55-13.25-.91-26.71-2.59-39.67,1.33-6.39,1.93-11.99,5.31-17.35,9.21s-10.22,7.74-15.97,10.64c-10.7,5.4-22.98,7.4-34.86,6.06-3.02-.34-6.02-.96-8.95-1.77-2.77-.77-5.62-1.63-8.14-3.05s-4.13-3.54-4.91-6.36c-.33-1.19-.56-2.41-.71-3.63-.16-1.3-.42-2.77-.21-4.02.34-2.04,1.35-3.99,2.38-5.75,1.62-2.79-2.7-5.3-4.32-2.52-1.24,2.13-2.41,4.51-2.89,6.95-.59,3.05,0,6.56.72,9.55s2.18,6.05,4.6,8.13c2.6,2.23,5.8,3.5,9.01,4.58,12.3,4.13,25.89,4.34,38.38.94,6.26-1.7,12.3-4.34,17.77-7.84s10.89-8.16,16.7-11.71c12.1-7.4,26.29-7.5,40.01-6.41,6.91.54,13.87,1.41,20.8.65s13.6-3.42,19.15-8.12c4.96-4.2,9.1-9.99,9.79-16.6.33-3.21-.31-6.83-2.23-9.49s-5.02-4.15-8.38-4.23c-6.49-.15-11.98,4.08-17.03,7.6-2.38,1.66-4.84,3.37-7.57,4.42-3.32,1.27-6.8,1.48-10.32,1.34s-7.18-.58-10.78-.82c-3.96-.26-7.93-.37-11.9-.35s-7.9.18-11.84.49c-3.53.28-7.02.76-10.22,2.36-1.52.76-2.89,1.77-4.33,2.67-1.52.95-3.05,1.61-4.78,2.07-3.28.87-6.61,1.33-9.7,2.84s-5.45,3.64-8.21,5.41-5.64,2.85-8.82,3.33c-6.64,1.01-13.25-.65-19.57-2.53s-13.57-3.16-20.24-.67c-2.94,1.1-6.29,2.81-8.11,5.45-.77,1.11-.2,2.78.9,3.42,1.24.73,2.65.22,3.42-.9Z"/>
    <path class="cls-1" d="M114.53,118.95c.41-.21.05-.01.03-.02l-.5-.03c-.24-.05-.42-.17-.53-.36l-.06-.08c.04.06.08.12.11.19.14.2-.07-.29-.02-.04.05.2.19.45.17.67,0-.05-.02-.42-.01-.04,0,.13.01.25,0,.38,0,.1-.02.21-.01.31,0,.29.1-.43,0,.04-.05.2-.09.41-.14.61-.03.11-.24.66-.08.29-.1.24-.22.47-.36.7-.11.18-.22.35-.34.52-.2.28-.05.06,0,0-.07.08-.14.17-.21.25-.33.37-.68.71-1.06,1.02-.08.07-.17.14-.25.21.26-.22.04-.03-.01,0-.2.15-.4.29-.61.43-.41.28-.83.54-1.26.8-.19.12-.39.23-.58.34s.19-.05.25-.06c.17,0,.34.06.49.14-.25-.13.11.07.08.09-.02.01-.17-.21-.18-.18,0-.01.25.4.06.06-.07-.12-.14-.23-.2-.35-.03-.07-.07-.19-.11-.24.04.05.16.42.03.06-.07-.2-.15-.4-.21-.6s-.13-.41-.18-.61c-.03-.1-.05-.21-.07-.31-.04-.18-.06-.45-.03-.12-.01-.2-.02-.4-.02-.61,0-.4-.02.04-.01.06-.03-.08.08-.27.1-.35.06-.24-.17.23,0,.04.03-.04.21-.32.07-.13s.06-.06.1-.11c.1-.11.22-.2.33-.31.18-.2-.25.16-.03.02.08-.05.16-.11.24-.17.18-.12.37-.23.56-.33.37-.2.75-.36,1.13-.53,1.12-.52,2.24-1.07,3.34-1.64.88-.45,1.2-1.75.67-2.57-.58-.89-1.63-1.15-2.57-.67-1.31.67-2.63,1.29-3.96,1.92-1.18.55-2.27,1.33-3,2.43-.83,1.25-.83,2.81-.49,4.22.29,1.23.78,2.54,1.62,3.5.54.61,1.31,1,2.13,1.05s1.58-.32,2.28-.74c2.19-1.31,4.44-2.93,5.51-5.33.67-1.5.96-3.14.56-4.77-.19-.78-.55-1.56-1.16-2.1-1.05-.92-2.32-.76-3.49-.18-.88.44-1.2,1.75-.67,2.57.58.9,1.62,1.14,2.57.67Z"/>
    <path class="cls-4" d="M95.08,119.55c.14,1.07.93,1.96,1.88,2.45s2.02.68,3.05.96c1.04.28,2.09.65,3.16.59,1.08-.06,2.22-.69,2.46-1.75.3-1.27-.75-2.43-1.73-3.29-1.35-1.18-2.58-2.79-4.55-2.71-2.42.17-4.5,2.04-4.27,3.75Z"/>
    <path class="cls-1" d="M93.28,120.01c.22,1.34,1.13,2.46,2.22,3.23s2.4,1.05,3.65,1.37c1.34.33,2.7.86,4.1.74s2.68-.6,3.55-1.73c.96-1.25.9-2.91.23-4.28-.52-1.07-1.44-1.83-2.29-2.63-.79-.74-1.59-1.53-2.54-2.06-1.26-.7-2.6-.86-4-.58-2.42.47-5.28,2.69-4.99,5.43.1.97.79,1.92,1.88,1.88.93-.04,1.99-.83,1.88-1.88,0-.07.02-.42,0-.46.04.06-.12.45,0,.15.02-.04.05-.13.05-.17.02-.22-.18.29-.04.11.05-.06.09-.15.13-.22.01-.03.08-.16.11-.16-.15.18-.18.22-.09.11.03-.04.06-.07.09-.1.13-.13.27-.26.41-.39.14-.14-.07.05-.09.07.08-.06.16-.12.25-.17.17-.11.35-.2.53-.3.08-.04.32-.12-.02,0,.1-.03.2-.07.3-.11.21-.07.42-.11.62-.16.1-.02.34-.02-.01,0,.11,0,.21-.02.32-.02.08,0,.16.01.23,0,.27,0-.3-.09-.05,0,.12.04.72.26.31.06.3.15.59.32.87.51s.02.02-.03-.03c.07.06.15.13.23.19.17.15.33.3.5.45.58.54,1.21,1.05,1.74,1.63.07.08.14.17.22.25-.02-.03-.15-.23-.04-.06.06.09.12.18.18.27.03.05.19.34.08.13-.1-.19,0,.03.02.07.03.1.05.2.08.3-.1-.44-.05-.08-.03-.03v.16c.02-.22.02-.26-.01-.13-.05.25.17-.29.03-.08-.11.18.11-.12.11-.11,0,.06-.15.14-.18.19.18-.24.2-.12.05-.05-.08.04-.17.09-.25.13.07-.04.36-.11.04-.03-.14.04-.65.12-.25.08-.24.02-.48.02-.72.01,0,0-.31-.04-.13,0,.21.03-.17-.04-.22-.05-.5-.1-.99-.25-1.48-.39-.55-.15-1.1-.27-1.65-.42-.27-.07-.54-.15-.81-.24-.09-.03-.18-.06-.26-.1-.12-.05-.12-.05.02,0l-.17-.08c-.09-.05-.18-.1-.27-.15-.04-.03-.38-.28-.19-.12.17.14-.02-.03-.05-.05-.11-.11-.21-.22-.32-.33.03.03.16.25.07.08-.05-.11-.12-.23-.19-.32.18.26.05.17.02.03-.03-.15-.07-.29-.1-.44-.16-.97-1.41-1.6-2.31-1.31-1.05.34-1.48,1.27-1.31,2.31Z"/>
    <path class="cls-4" d="M112.22,110.44c.15-.01.32-.02.45.06.28.18.2.6.08.91-1.11,2.84-2.44,5.6-3.95,8.25-.08.14-.18.3-.34.32-.14.02-.27-.07-.38-.16-1.53-1.17-3.06-2.33-4.58-3.5-1.38-1.06-3.5-2.67-3.6-4.08-.07-.92.85-.88,1.74-.97,0,0,7.1-.55,10.59-.84Z"/>
    <path class="cls-1" d="M112.22,112.32c.22,0,.21-.01-.05,0l-.83-.48-.12-.13-.26-.95c.05.43.08-.14,0,.09-.06.18-.14.35-.21.53-.12.29-.25.61-.36.89-.33.78-.68,1.54-1.04,2.31s-.71,1.44-1.08,2.15c-.19.36-.38.71-.57,1.06-.1.18-.19.35-.29.53l-.12.21c-.21.34-.14.29.21-.14l1.44-.19c.15.03-.33-.27-.43-.35-.23-.18-.46-.36-.7-.53-.5-.38-1-.76-1.49-1.14-.46-.36-.93-.71-1.39-1.07-.21-.16-.42-.32-.63-.48,0,0-.23-.18-.09-.07.16.13-.21-.16-.24-.19-.69-.55-1.36-1.13-1.95-1.8-.25-.29-.07-.1-.02-.03-.06-.09-.12-.18-.18-.27-.1-.17-.13-.4-.06-.1-.08-.35,0,.05-.01.1.04-.13.06-.16-.03,0-.15.27-.15.41-.4.65-.09.16-.22.25-.39.3-.16.06-.19.07-.09.04.39-.14-.3,0,.07-.02.2-.01.4-.03.6-.05.08,0,.16-.01.24-.02.37-.03.73-.06,1.1-.09,1.38-.11,2.76-.22,4.15-.32,1.74-.14,3.47-.27,5.21-.42,1.01-.08,1.88-.8,1.88-1.88,0-.95-.86-1.96-1.88-1.88-2.44.2-4.87.39-7.31.58-.88.07-1.77.14-2.65.21-.74.06-1.52.05-2.24.23-1.97.47-2.37,2.49-1.63,4.15.57,1.28,1.71,2.29,2.79,3.16,1.42,1.15,2.9,2.23,4.35,3.34.73.55,1.52,1.36,2.42,1.56,1.55.34,2.3-.87,2.93-2.02.97-1.76,1.86-3.56,2.65-5.41.43-.99,1.13-2.19,1.18-3.29.07-1.44-1.03-2.59-2.5-2.51-1.01.05-1.88.82-1.88,1.88,0,.97.86,1.93,1.88,1.88Z"/>
    <path class="cls-4" d="M163.35,107.66c1.62.13,3.38.09,4.62,1.15.99.85,1.49,2.13,1.94,3.36.41,1.11.82,2.21,1.23,3.32.11.31.23.64.14.95-.12.41-.54.65-.93.82-2.16.91-4.56.98-6.9,1.03-.88.02-1.79.03-2.6-.31-.85-.36-1.51-1.07-2.02-1.85-1.53-2.33-2.13-5.77-.9-8.02.76-1.11,3.89-.57,5.42-.45Z"/>
    <path class="cls-1" d="M163.35,109.53c.58.04,1.16.07,1.75.13.34.03-.22-.04.11.01.17.03.33.06.49.1.13.03.26.07.38.1l.19.06c-.11-.06-.11-.05,0,0,.77.37,1.29,1.29,1.61,2.14.48,1.29.9,2.64,1.46,3.9.31.72.13-.69.41-.51,0,0-.53.22-.68.27-.64.21-1.35.37-1.98.46-1.31.19-2.76.21-4.11.21-.49,0-1.04-.01-1.37-.15-.42-.18-.79-.56-1.03-.91-.71-.99-1.01-1.76-1.28-2.97-.03-.13-.05-.27-.08-.4-.06-.33.02.23-.02-.1-.03-.3-.05-.59-.05-.89,0-.26.01-.52.04-.77,0,.09-.07.3.01-.06.04-.18.08-.36.13-.54.03-.12.07-.23.11-.35l-.05.11c.11-.18.11-.21,0-.09l-.07.07c.11-.1.1-.1-.03,0-.14.1-.14.1,0,.02-.25.09-.3.12-.16.07.13-.01.7-.15.26-.1.27-.03.53-.04.8-.04,1.06,0,2.11.15,3.17.23s1.88-.92,1.88-1.88c0-1.08-.86-1.79-1.88-1.88-2.31-.19-5.96-.94-7.2,1.7-1.4,2.97-.73,6.7.96,9.42,1.08,1.74,2.59,2.94,4.66,3.19,1.73.21,3.6.07,5.33-.14s4.07-.53,5.35-1.88c1.6-1.68.11-4.16-.55-5.94-.71-1.91-1.42-3.85-3.14-5.08-1.57-1.12-3.56-1.14-5.41-1.28-1.01-.07-1.88.92-1.88,1.88,0,1.08.86,1.8,1.88,1.88Z"/>
    <path class="cls-4" d="M167.88,96.74c1.01.05,2.02.09,3.03.14,1.18.05,2.38.11,3.48.54s2.09,1.3,2.35,2.45c.39,1.74-.95,3.36-2.28,4.54-1.24,1.1-2.57,2.11-3.96,3.01-.55.36-1.18.71-1.83.62-.34-.05-.65-.22-.96-.39-1.4-.79-2.83-1.6-3.88-2.82-.31-.36-.58-.76-.64-1.23-.15-1.22,1.17-2.07,1.66-3.19.51-1.17.21-2.83,1.32-3.46.26-.15,1.71-.2,1.71-.2Z"/>
    <path class="cls-1" d="M167.88,98.62c1.36.06,2.74.09,4.1.2.56.04,1,.11,1.58.3.11.04.23.07.33.12-.23-.1.07.05.09.06.31.19.43.27.57.41.02.02.24.26.09.06.08.1.15.22.21.33.02.04.14.32.04.09,0,.02.08.34.04.11.05.4-.05.72-.25,1.03-.59.94-1.46,1.73-2.4,2.51s-2.01,1.61-3.11,2.22c.02,0-.3.17-.15.09-.02.01-.35.08-.14.05.06,0,.09.02.14.04-.12-.06-.25-.13-.37-.2-.54-.3-1.07-.6-1.59-.93-.48-.3-.89-.59-1.27-.94-.22-.2-.45-.42-.64-.65.05.07.13.22-.07-.11-.13-.21,0-.17-.04-.04-.02.07.01.35,0,.13s-.11.17,0-.04c.07-.13.32-.51.32-.5-.11.15.12-.16.15-.19.12-.15.24-.3.35-.46.19-.25.38-.51.52-.79.3-.56.46-1.15.57-1.78.04-.26.08-.52.13-.77.02-.11.05-.22.08-.33.08-.36.09-.08,0-.08l.07-.14-.11.13c.13-.13.15-.14.05-.06-.1.1-.23.16-.37.19.06-.03.16,0,.21-.04-.14.09-.37.04-.03.01.3-.02.6-.04.9-.06,1.01-.04,1.88-.83,1.88-1.88s-.86-1.91-1.88-1.88c-1.13.04-2.27.07-3.17.83-1.16.99-1.14,2.37-1.5,3.72-.02.06-.22.52-.05.2-.06.11-.12.22-.19.32-.22.35-.22.32-.54.73-.48.63-.9,1.27-1.04,2.06-.38,2.07,1.15,3.64,2.67,4.8.64.49,1.32.92,2.02,1.32.81.47,1.64.98,2.6,1.05,1.82.12,3.45-1.27,4.82-2.3,2.65-2,6.39-5.05,4.86-8.84-1.66-4.11-6.82-3.74-10.46-3.9-1.01-.05-1.88.89-1.88,1.88,0,1.05.86,1.83,1.88,1.88Z"/>
    <path class="cls-4" d="M174.82,106.37c.75-.25,1.57-.43,2.32-.17,1.44.48,1.81,2.31,1.95,3.83.1,1.11.2,2.25-.03,3.34s-.87,2.16-1.89,2.63c-1.7.79-3.66-.3-5.09-1.52-.35-.3-.7-.62-.88-1.05-.33-.81.08-1.72.59-2.42s1.17-1.35,1.38-2.19c.2-.82,1-2.17,1.64-2.44Z"/>
    <path class="cls-1" d="M175.32,108.17c.22-.07.44-.14.66-.19.11-.02.23-.05.34-.07-.37.04-.07.02,0,.02.34,0,.09-.01,0-.03,0,0,.3.05.32.08-.03-.04-.33-.19-.11-.04.36.24,0-.02,0-.02,0,0,.18.18.17.17.21.2-.13-.06-.07-.1.02-.01.22.39.25.43.13.24,0-.08-.04-.1.02.01.09.25.09.24.06.19.11.38.15.57.04.17.07.35.1.52.08.48-.03-.33.02.15s.1,1,.12,1.5c.01.25.02.5.01.75,0,.12-.01.25-.02.37-.01.37,0,.15,0,.05-.03.22-.08.44-.14.65-.03.09-.06.19-.09.28-.14.43.18-.3-.04.09-.1.17-.2.34-.3.5.04-.06.25-.27.02-.04-.07.07-.14.14-.2.2-.1.1-.23.1.04-.03-.08.04-.17.1-.25.15-.12.07-.25.04.03,0-.12.02-.25.06-.36.1-.25.07.32.01.06-.01-.07,0-.15,0-.22,0-.08,0-.21,0-.3-.02.41.11.14.01.05,0-.2-.06-.4-.11-.59-.18-.33-.12-.05-.03.01,0-.14-.07-.29-.14-.43-.22-.38-.21-.74-.45-1.08-.71.31.23-.16-.14-.23-.21-.08-.07-.15-.14-.23-.21-.04-.04-.28-.37-.15-.16.15.25-.08-.27.02.02.09.27.03-.28.02.04-.01.35.04-.29,0,.05-.03.26.02-.06.04-.12.02-.06.15-.35.04-.14s.05-.08.08-.13c.12-.2.25-.39.39-.58-.21.3-.06.07,0,.01.16-.21.33-.41.49-.62.14-.18.28-.37.41-.56.31-.48.48-1.02.65-1.56.01-.05.06-.21.08-.23-.11.08-.14.32,0,.02.09-.19.2-.37.31-.55.02-.04.11-.2.16-.23-.15.18-.18.22-.09.12.04-.05.08-.1.13-.14.02-.02.17-.15.17-.16,0,.1-.4.24-.05.08.89-.42,1.19-1.77.67-2.57-.59-.91-1.61-1.12-2.57-.67-1.06.5-1.77,1.73-2.21,2.76-.1.24-.2.49-.28.74-.03.12-.06.23-.1.34.15-.42-.04.02-.08.09-.05.09-.11.17-.17.26-.04.05-.35.46-.08.11-.24.31-.49.61-.72.93-.93,1.26-1.34,2.92-.64,4.38.55,1.14,1.78,2.03,2.84,2.67s2.42,1.16,3.72,1.09c1.54-.09,2.84-.86,3.74-2.1,1.55-2.12,1.31-5.1.87-7.55-.22-1.2-.72-2.46-1.66-3.27-1.37-1.17-3.13-1.18-4.78-.65-.93.3-1.63,1.32-1.31,2.31.3.94,1.31,1.63,2.31,1.31Z"/>
  </g>
</svg>