<svg width="40" height="42" viewBox="0 0 40 42" fill="none" xmlns="http://www.w3.org/2000/svg">
<g clip-path="url(#clip0_583_108)">
<path d="M20 41.9988C31.0457 41.9988 40 33.0445 40 21.9988C40 10.9531 31.0457 1.99878 20 1.99878C8.95431 1.99878 0 10.9531 0 21.9988C0 33.0445 8.95431 41.9988 20 41.9988Z" fill="#ECF3FF"/>
<path d="M14.6013 9.79993L7.60132 6.99993V7.99993L13.6013 13.3999L13.2013 18.9999L11.4013 26.5999L9.00132 29.9999L9.60132 34.7999L12.6013 35.1999L15.0013 34.7999L17.4013 35.1999L21.6013 32.5999L22.4013 28.3999L27.4013 23.5999L29.6013 25.1999L31.8013 28.3999V34.7999L34.8013 33.9999L37.8013 27.3999L38.6013 18.9999L27.8013 3.19993L26.0013 2.79993L14.6013 9.79993Z" fill="white"/>
<path d="M3.99844 21.3589C4.07844 20.6789 4.11844 19.9989 4.31844 19.3589C4.87844 16.7189 5.95844 14.1989 7.55844 12.1589C7.83844 11.7989 8.07844 11.4789 8.39844 11.1589L6.59844 9.47886C6.27844 9.95886 5.95844 10.4389 5.67844 10.9189C4.19844 13.4789 3.39844 16.3589 3.19844 19.1989C3.11844 19.9189 3.15844 20.6389 3.15844 21.3189C3.15844 22.0389 3.23844 22.7189 3.35844 23.4389C3.55844 24.8389 3.91844 26.1989 4.39844 27.4789C4.07844 26.1189 3.91844 24.7589 3.87844 23.3589C3.87844 22.7189 3.87844 22.0389 3.99844 21.3589Z" fill="#94A6C4"/>
<path d="M12.1984 8.40027C11.1984 7.92027 9.79844 7.28027 8.79844 6.80027C9.71844 5.92027 11.3984 5.00027 12.7984 4.40027C11.7984 5.20027 11.7984 6.88027 12.1984 8.40027Z" fill="#94A6C4"/>
<path d="M8.15844 15.1989C7.59844 16.5989 7.23844 18.0789 7.11844 19.5189C7.07844 19.8789 7.03844 20.2389 7.07844 20.5989C7.07844 20.9589 7.07844 21.3189 7.11844 21.6789L7.15844 22.2389C7.15844 22.3989 7.19844 22.5989 7.23844 22.7589L7.39844 23.8389L7.43844 22.7589C7.43844 22.5989 7.43844 22.3989 7.47844 22.2389L7.55844 21.7189C7.59844 21.3589 7.67844 20.9989 7.71844 20.6789C7.75844 20.3189 7.87844 19.9989 7.95844 19.6789C8.31844 18.3189 8.91844 17.0789 9.63844 15.9189C10.1184 15.1589 10.6784 14.4789 11.2784 13.8389L9.71844 12.3589C9.03844 13.2789 8.55844 14.1989 8.15844 15.1989Z" fill="#94A6C4"/>
<path d="M31.3206 8.35858C29.2006 7.59858 28.3606 7.83857 28.3606 7.83857C28.3606 7.83857 27.0406 11.3986 22.0006 11.6386C22.0406 11.6786 26.5606 14.3186 31.3206 8.35858Z" fill="#94A6C4"/>
<path d="M32.7606 15.4386C32.5606 19.8386 29.1606 21.4786 26.5206 21.1586C25.0806 20.9586 22.9606 21.6386 22.9606 21.6386L20.2806 26.2786L19.4006 26.5986L20.9206 23.7986C20.9206 23.7986 17.3206 25.1186 17.0406 25.2386C16.7606 25.3586 15.6406 26.9986 14.7206 28.7186C14.5206 27.5186 13.7606 26.6786 13.7606 26.6386C13.7606 26.8386 14.1606 30.4386 13.7206 31.4386C13.2806 32.4786 11.3206 33.1586 11.3206 33.1586L14.2006 34.2386L14.4006 34.3186L16.5606 32.2786L17.3606 29.2386L18.3606 28.5186C18.3606 28.5186 20.8406 28.2386 20.4806 30.4786C20.3206 31.5586 19.1206 31.4786 17.7606 32.3186C16.9606 32.7986 15.9206 33.5586 15.4006 34.0786L16.8406 35.1186C16.8406 35.1186 18.5606 34.8386 21.0006 32.9186C23.4806 30.9186 22.2406 28.7586 22.2406 28.7586L26.2806 23.9186L28.9206 24.1186C28.9206 24.1186 33.4806 25.2786 34.9606 29.5986C37.9206 21.3186 33.1606 15.8386 32.7606 15.4386Z" fill="#94A6C4"/>
<path d="M37.4 12C38.12 12.32 38.68 12.7986 39.2 13.2386C35.6 0.758647 23.92 2.15865 23.68 2.23865C23.96 1.79865 25 1.11865 25.96 0.758647C25.96 0.758647 21 -1.00135 16.48 2.11865C16.56 1.39865 17.44 0.318647 17.44 0.318647C11.2 3.00005 10.8 6.20005 12 8.11865C11 7.63865 10 7.19865 9 6.71865C5.92 5.23865 3.28 3.99865 3.12 3.95865C2.84 3.87865 2.72 3.99865 2.72 3.99865C2.72 3.99865 2.6 4.11865 2.84 4.35865C6.48 7.99865 8.8 10.2 12.68 13.7586C12.04 15.1986 11.96 15.9186 12.28 16.6786C12.72 17.7186 12.68 18.2386 12.52 18.9186C12.32 19.5986 10.72 25.6386 10.44 26.3186C10.16 27.0386 8.04 29.4386 8 30.2386C7.96 31.0386 8.6 34.5586 9.48 35.0786C10.16 35.4386 11.8 36.1986 13 36.3586C13.4 36.4386 13.8 36.3986 14 36.2386C14.8 35.7186 15 35.6386 15.52 35.6786L15.64 35.7186C15.84 35.7586 16.08 35.8386 16.4 35.8786C17.08 35.9586 17.96 35.9586 18.68 35.4786C19.72 34.6786 21.48 33.6786 22.08 33.1586C22.8 32.4386 23.28 31.4386 23.28 30.3186C23.28 29.3186 23.96 28.5186 24.72 27.7186C25.44 26.9986 27.24 25.2386 27.96 24.4786C29.8 25.1186 30.48 27.7586 30.48 29.1986C30.48 33.1987 27.24 39.0386 19.8 39.4786C19.52 39.4786 19.24 39.5186 18.92 39.5186C9.24 39.5186 1.32 30.9586 1.32 20.9186C1.32 12.9986 6.07871 7.6355 6.11871 7.5955C2.2787 11.2355 0 16.3186 0 21.9986C0 33.0386 8.96 42 20 42C31.04 42 40 33.0386 40 21.9986C40 18.3986 39.08 14.92 37.4 12ZM10.08 9.43865C9.52 8.95865 8.96 8.47865 8.4 7.99865C9.16 8.39865 9.92 8.79865 10.6 9.15865C12.68 10.2386 14.4 11.1986 14.72 11.4386C14.72 11.4386 14.76 11.4786 14.8 11.5186C15 11.7586 15.2 12.1586 14.84 12.6786C14.64 12.9586 14.4 12.8786 14.04 12.6386C13.72 12.4386 12 11.0786 10.08 9.43865ZM21.72 30.2386C21.72 30.9186 21.4 31.5186 21 31.9586C20.8 32.1586 20 32.6786 19.44 33.0386C18.88 33.4386 18.28 33.7986 17.8 34.1586C17.6 34.2786 17.28 34.3586 16.76 34.2786L15.52 34.1186C16.28 33.3586 18.36 31.7186 19.04 31.3986C19.84 30.9986 20.32 30.5586 19.96 29.6386C19.64 28.6786 18.4 28.7186 18.4 28.7186C18.4 28.7186 19.16 28.5186 19.76 28.5986C19 28.2786 17.96 28.3586 17.44 28.7186C16.88 29.1186 16.72 30.7586 16.36 31.7586C16 32.7986 15.2 33.2386 14 34.0786C13.32 34.5186 12.88 34.6386 12.56 34.5986C11.88 34.3986 11.08 34.0386 10.52 33.7586C10.2 33.1586 9.8 31.2786 9.76 30.5186C9.92 30.1186 10.56 29.3186 10.88 28.8386C11.52 27.9586 11.88 27.4386 12.04 26.9586C12.32 26.2786 13.48 21.9986 13.92 20.1986C14.36 20.9586 14.96 22.2386 14.68 22.9586C16.12 21.4386 15.48 19.6386 15.16 18.9186C14.88 18.1986 14.56 16.7986 15.2 15.4386C15.8 14.0786 17.88 10.3986 17.88 10.3986C17.88 10.3986 18.24 11.3586 19 11.2786C19.72 11.1986 26.64 3.43865 26.64 3.43865C26.64 3.43865 27.72 7.03865 25.72 9.23865C23.72 11.4386 22.04 11.6786 22.04 11.6786C22.04 11.6786 24.28 12.3986 26.6 11.1986C27.2 13.3586 27.72 15.5986 27.72 15.8786C27.56 16.1586 25.32 19.9186 25.12 20.1586C25.04 20.2386 24.4 20.3186 24 20.3186C23.28 20.4386 22.84 20.4786 22.64 20.5986C22.32 20.7986 20.48 24.2786 19.6 25.9586C18.8 26.0786 18 26.3586 17.36 27.1186C17.68 26.9586 18.6 26.9586 19.28 26.9586C19.88 26.9986 21.52 28.1986 21.72 30.0786C21.72 30.1986 21.72 30.1986 21.72 30.2386ZM17.04 31.9186C17.48 31.4386 17.56 30.5186 17.64 30.2386C17.72 29.9586 17.88 29.4386 18.24 29.3986C18.6 29.3586 19.36 29.5986 19.28 30.1986C19.2 30.7586 18.6 30.7986 18.12 31.0786C17.8 31.2786 17.12 31.8386 17.04 31.9186ZM34.44 32.4386C33.96 27.3186 30.44 24.9186 28.88 24.1186C30.68 23.9186 35.32 22.5186 32.76 15.4386C32.84 15.7586 33.56 19.2786 31.52 21.1186C29.44 22.9986 26.4 22.1986 26.04 22.1986C25.72 22.1586 24.2 23.6386 22.12 26.4786C21.92 26.3586 21.08 26.0386 20.04 26.0786C21.08 24.1186 22.64 21.3186 22.88 21.0786C22.96 20.9986 23.64 20.9186 24.04 20.8786C24.84 20.7986 25.24 20.7186 25.4 20.5586C25.48 20.4386 26.04 19.5586 26.6 18.5986C26.96 18.6386 27.92 18.7186 28.04 18.6786C28.12 18.5986 29.2 16.6786 29.24 16.4386C29.28 16.2786 28.52 13.2786 28.04 11.3586C37.92 16.0386 39.48 26.3586 34.44 32.4386Z" fill="#1C324F"/>
<path d="M24.92 8.63865C26.04 7.63865 25.88 5.91865 25.88 5.91865L22.52 9.63865C22.48 9.63865 23.52 9.83865 24.92 8.63865Z" fill="#1C324F"/>
<path d="M12.36 29.7986L12.92 28.1986C12.92 28.1986 11.2 30.3986 11.04 30.7186C10.88 31.0786 10.96 31.7586 11.52 31.7986C12.08 31.8386 12.84 31.1186 12.92 30.5586C13.04 29.7986 12.36 29.7986 12.36 29.7986Z" fill="#1C324F"/>
<path d="M17.64 20.1186C18.84 19.9986 21 19.0386 21.92 18.2786C22.84 17.4786 22.68 15.7186 21.24 15.1986C21.72 14.3986 22.52 12.7186 22.52 12.7186C22.52 12.7186 17.36 18.7586 16.96 18.8386C16.56 18.9186 16.4 17.3986 16.4 17.3986C15.2 20.3186 17.24 21.0386 17.64 20.1186Z" fill="#1C324F"/>
<path d="M18.0796 19.3587L20.7596 15.9587C20.7596 15.9587 21.9196 16.7587 21.1596 17.6787C20.1996 18.7587 18.0796 19.3587 18.0796 19.3587Z" fill="#FFD925"/>
<path d="M25.2024 4.19884L23.3624 6.19884C21.8824 6.63884 20.4424 7.43884 19.0824 8.75884C19.0824 7.99884 21.2824 4.67884 25.2024 4.19884Z" fill="#D82423"/>
<path d="M27.5224 5.91884C27.5624 5.39884 27.5224 4.79884 27.4424 4.23884C29.8424 4.55884 32.6824 5.95884 35.9224 9.11884C33.2424 7.63884 30.4024 6.27884 27.5224 5.91884Z" fill="#D82423"/>
<path d="M28.2424 8.51884C28.2424 8.51884 37.1624 12.4388 38.8024 23.4388C39.0424 9.11884 28.8824 8.39884 28.2424 8.51884Z" fill="#D82423"/>
<path d="M15.2424 2.19884C15.1224 2.51884 10.0824 7.91884 16.3624 10.0388C12.9224 6.95884 15.2024 2.23884 15.2424 2.19884Z" fill="#D82423"/>
<path d="M17.9224 9.19884C17.9224 9.19884 18.4424 3.07884 22.1224 1.43884C21.8424 1.51884 14.3624 3.79884 17.9224 9.19884Z" fill="#D82423"/>
</g>
<defs>
<clipPath id="clip0_583_108">
<rect width="40" height="41.736" fill="white" transform="translate(0 0.264038)"/>
</clipPath>
</defs>
</svg>
