<?xml version="1.0" encoding="UTF-8" standalone="no"?>
<svg
   xmlns:dc="http://purl.org/dc/elements/1.1/"
   xmlns:cc="http://creativecommons.org/ns#"
   xmlns:rdf="http://www.w3.org/1999/02/22-rdf-syntax-ns#"
   xmlns:svg="http://www.w3.org/2000/svg"
   xmlns="http://www.w3.org/2000/svg"
   xmlns:sodipodi="http://sodipodi.sourceforge.net/DTD/sodipodi-0.dtd"
   xmlns:inkscape="http://www.inkscape.org/namespaces/inkscape"
   id="Layer_1"
   data-name="Layer 1"
   viewBox="0 0 1024.0001 1024"
   version="1.1"
   sodipodi:docname="2019_Etherisc_Logo Bird.svg"
   width="1024"
   height="1024"
   inkscape:version="0.92.5 (2060ec1f9f, 2020-04-08)">
  <metadata
     id="metadata909">
    <rdf:RDF>
      <cc:Work
         rdf:about="">
        <dc:format>image/svg+xml</dc:format>
        <dc:type
           rdf:resource="http://purl.org/dc/dcmitype/StillImage" />
        <dc:title>old_logo_vr.2</dc:title>
      </cc:Work>
    </rdf:RDF>
  </metadata>
  <sodipodi:namedview
     pagecolor="#ffffff"
     bordercolor="#666666"
     borderopacity="1"
     objecttolerance="10"
     gridtolerance="10"
     guidetolerance="10"
     inkscape:pageopacity="0"
     inkscape:pageshadow="2"
     inkscape:window-width="3840"
     inkscape:window-height="2080"
     id="namedview907"
     showgrid="false"
     fit-margin-top="20"
     fit-margin-left="20"
     fit-margin-right="20"
     fit-margin-bottom="20"
     inkscape:zoom="0.69636198"
     inkscape:cx="-115.49432"
     inkscape:cy="343.85559"
     inkscape:window-x="0"
     inkscape:window-y="0"
     inkscape:window-maximized="1"
     inkscape:current-layer="Layer_1" />
  <defs
     id="defs884">
    <style
       id="style882">.cls-1{fill:#5081f4;}</style>
  </defs>
  <title
     id="title886">old_logo_vr.2</title>
  <path
     class="cls-1"
     d="m 947.1959,384.50619 v 0 l -2.86044,-2.58798 v 0 l -13.62115,-12.39529 v 0 L 895.1631,337.7856 v 0 l -30.23896,-27.24221 v 0 l -5.03984,-4.63124 -19.47824,3.40526 -186.88223,30.64758 -106.92605,-147.10842 a 20.295519,20.295519 0 0 0 -11.30556,-7.08299 l -380.1664,-62.11244 -48.62751,-7.90027 26.28882,34.3253 v 0 l 18.7972,24.65424 H 43.70479 l 49.717213,46.31199 v 0 l 298.167057,279.7785 -64.01943,304.84122 -21.52143,102.56701 3.81394,-6.1294 68.10576,-107.47109 v 0 L 468.54857,651.75327 743.15102,517.3125 a 45.222229,45.222229 0 0 0 23.15597,-20.0231 l 51.62417,-83.36151 H 980.29521 Z M 130.74397,208.79335 h 46.85676 l 98.75336,136.21147 z m 54.48461,-45.49471 323.22997,52.44147 -101.88623,247.49635 z m 189.87888,575.35754 39.09271,-180.34408 26.28882,75.46123 z M 468.13994,613.75024 434.08705,513.90713 H 675.18147 Z M 435.994,479.85429 536.51813,237.12531 712.36722,479.85429 Z m 309.74504,-12.94011 -69.33168,-95.3481 143.02212,-24.65423 z m 93.57733,-87.31159 18.38856,-29.8303 33.50803,29.8303 z"
     id="path904"
     inkscape:connector-curvature="0"
     style="fill:#5081f4;stroke-width:1" />
</svg>
