<svg fill="none" viewBox="0 0 24 25" xmlns="http://www.w3.org/2000/svg">
  <g clip-path="url(#a)">
    <circle cx="12" cy="12.5" r="12" fill="#F1EFED"/>
    <path fill="#483E5E" d="M16.955 6.474c0 .109-.205.264-.391.382-.186.118-.372.233-.579.11a2.42 2.42 0 0 0-.537-.254 2.698 2.698 0 0 0-.434-.083c-.146-.018-.174-.177-.21-.39l-.016-.084-.016-.086c-.059-.29-.164-.81.195-.766.398.048 1.004.368 1.444.65.44.283.544.413.544.521Z"/>
    <path fill="#483E5E" d="M12.254 7.544c.217-.574.329-.784.617-1.144.287-.36.51-.462.786-.554.264-.088.425-.062.47.106.045.168.1.528.1.634V6.6c0 .1 0 .187-.221.41a1.388 1.388 0 0 0-.406 1.02c0 .462.109.647.379.973.27.325.818.454 1.223.412.406-.042.709-.203.935-.52.226-.319.308-.686.328-.975.018-.24.12-.315.34-.478a8.19 8.19 0 0 0 .154-.115c.328-.254.534-.402.697-.389.164.014.245.036.678.201.427.163.673.332.798.418l.004.003c.123.085.06.151-.124.278-.07.048-.149.1-.232.154-.14.091-.29.19-.425.288-.084.062-.17.12-.254.177-.185.126-.354.24-.445.355-.23.288-.308.603-.185 1.017.077.257.18.416.337.657.096.147.21.323.352.57.644 1.13.422 2.923-.133 4.194-.556 1.27-1.604 2.223-2.672 2.774-1.068.55-1.971.784-2.875.826-.904.042-1.582-.064-1.89-.17-.308-.105-.602-.627.292-.839.894-.212 1.511-.373 2.415-1.05.904-.678 1.42-1.367 1.79-2.108.37-.741.406-1.516.242-1.918-.164-.403-.68-.795-1.4-1.07-.718-.276-1.25-.52-1.743-.836-.467-.297-.671-.734-.569-1.242.103-.508.356-1.33.637-2.073Z"/>
    <path fill="#483E5E" d="M14.495 8.575c.263.27.878.273 1.141-.027.264-.3.264-.827 0-1.067-.263-.24-.79-.361-1.141-.03-.352.33-.264.854 0 1.124ZM8.798 15.239c-.104.027-.183.175-.336.458l-.152.277c-.261.467-.506.808-.974 1.328-.468.52-.762.735-1.506 1.202l-.02.012c-.728.457-.942.591-.993.73-.05.139-.02.322.526.408.547.086 1.003.106 1.794-.45.213-.15.414-.3.61-.445.53-.392 1.022-.756 1.62-1.044.552-.267.849-.342 1.265-.448.2-.05.429-.109.727-.198.917-.276 1.753-.818 2.33-1.476a4.869 4.869 0 0 0 .982-1.698c.117-.377.134-.88-.179-1.13-.298-.24-.459-.313-1.117-.564l-.171-.065c-.571-.216-.806-.305-1.277-.688a5.936 5.936 0 0 1-.345-.303c-.158-.148-.213-.2-.417-.227-.305-.042-.537.424-.64.658-.078.175-.09.486.114.777l.054.077c.188.271.391.565.905.863.562.326.824.379 1.207.444.384.065.534.158.43.344-.103.185-.309.276-.659.276-.35 0-.845-.165-1.34-.462a2.797 2.797 0 0 1-.779-.68c-.176-.227-.282-.26-.446-.26-.164 0-.299.107-.495.404-.196.297-.34.619-.36.793-.021.175-.04.37.27.603.309.233.576.36.926.424.35.063.617.175.36.414-.256.239-.567.186-.815.122-.247-.063-.606-.261-.741-.35l-.036-.024c-.116-.078-.201-.135-.322-.102Z"/>
  </g>
  <defs>
    <clipPath id="a">
      <path fill="#fff" d="M0 0h24v24H0z" transform="translate(0 .5)"/>
    </clipPath>
  </defs>
</svg>
