<svg width="32" height="32" viewBox="0 0 32 32" fill="none" xmlns="http://www.w3.org/2000/svg">
<g clip-path="url(#clip0_475_580)">
<mask id="mask0_475_580" style="mask-type:luminance" maskUnits="userSpaceOnUse" x="0" y="0" width="32" height="32">
<path d="M32 0H0V32H32V0Z" fill="white"/>
</mask>
<g mask="url(#mask0_475_580)">
<path d="M32 0H0V32H32V0Z" fill="url(#paint0_linear_475_580)"/>
<path d="M13.479 20.6471L13.4668 11.2487C13.4668 11.0234 13.5558 10.8071 13.7151 10.6477L17.0732 7.29028C17.6076 6.75588 18.5209 7.13412 18.5215 7.88932L18.5318 24.1095C18.5318 24.8717 17.605 25.248 17.0745 24.7002L13.7177 21.2365C13.5647 21.0784 13.479 20.8672 13.4783 20.6471H13.479Z" fill="white"/>
<path d="M19.6737 19.0433L19.6699 16.0379L19.666 12.8884C19.666 12.7406 19.7243 12.5992 19.8286 12.4948L22.0276 10.2958C22.3777 9.94571 22.9755 10.1934 22.9761 10.6881L22.9831 21.3102C22.9831 21.8094 22.3764 22.0558 22.0289 21.6974L19.8311 19.4292C19.7307 19.3255 19.675 19.1873 19.6743 19.0433H19.6737Z" fill="white"/>
<path d="M12.327 19.0433L12.3309 16.0379L12.3347 12.8884C12.3347 12.7406 12.2765 12.5992 12.1721 12.4948L9.9731 10.2958C9.62302 9.94571 9.02526 10.1934 9.02462 10.6881L9.01758 21.3102C9.01758 21.8094 9.6243 22.0558 9.97182 21.6974L12.1696 19.4292C12.2701 19.3255 12.3257 19.1873 12.3264 19.0433H12.327Z" fill="white"/>
</g>
</g>
<defs>
<linearGradient id="paint0_linear_475_580" x1="16" y1="0.10688" x2="16" y2="32.0352" gradientUnits="userSpaceOnUse">
<stop offset="0.24" stop-color="#57FCFF"/>
<stop offset="0.99" stop-color="#5AA7FF"/>
</linearGradient>
<clipPath id="clip0_475_580">
<rect width="32" height="32" fill="white"/>
</clipPath>
</defs>
</svg>
