<svg width="80" height="80" viewBox="0 0 80 80" fill="none" xmlns="http://www.w3.org/2000/svg">
<circle cx="40" cy="40" r="40" fill="white"/>
<path d="M44.0391 17.2715V28.1917L53.5196 22.7239L44.0391 17.2715Z" fill="black"/>
<path opacity="0.9" d="M53.5195 22.7227V33.6429L63.0001 28.1904L53.5195 22.7227Z" fill="black"/>
<path opacity="0.8" d="M44.0542 28.1914V39.1116L53.5194 33.6439L44.0542 28.1914Z" fill="black"/>
<path opacity="0.8" d="M53.5195 33.6445V44.5648L63.0001 39.1123L53.5195 33.6445Z" fill="black"/>
<path opacity="0.8" d="M44.0542 39.1133V50.0335L53.5194 44.5657L44.0542 39.1133Z" fill="black"/>
<path d="M53.5195 44.5625V55.4827L63.0001 50.0303L53.5195 44.5625Z" fill="black"/>
<path opacity="0.5" d="M19.5332 27.8242V38.7444L29.0137 33.2767L19.5332 27.8242Z" fill="black"/>
<path opacity="0.2" d="M31.4951 31.8828V42.803L40.9603 37.3353L31.4951 31.8828Z" fill="black"/>
<path opacity="0.4" d="M24.4648 38.791V49.7112L33.9454 44.2435L24.4648 38.791Z" fill="black"/>
<path opacity="0.9" d="M30.7139 47.0312V57.9515L40.1791 52.4837L30.7139 47.0312Z" fill="black"/>
<path opacity="0.7" d="M43.9624 51.7324V62.6526L53.4429 57.1849L43.9624 51.7324Z" fill="black"/>
<path opacity="0.9" d="M33.0723 26.4922V37.4124L42.5375 31.96L33.0723 26.4922Z" fill="black"/>
<path opacity="0.8" d="M44.0385 17.2715V28.1917L34.5732 22.7239L44.0385 17.2715Z" fill="black"/>
<path opacity="0.7" d="M33.0728 21.8965V32.8167L23.5923 27.3643L33.0728 21.8965Z" fill="black"/>
<path opacity="0.6" d="M42.5528 27.3184V38.2386L33.0723 32.7708L42.5528 27.3184Z" fill="black"/>
<path d="M31.4491 31.8828V42.803L21.9839 37.3353L31.4491 31.8828Z" fill="black"/>
<path opacity="0.6" d="M44.0538 39.1133V50.0335L34.5732 44.5657L44.0538 39.1133Z" fill="black"/>
<path opacity="0.65" d="M24.4652 41.6543V52.5592L15 47.1068L24.4652 41.6543Z" fill="black"/>
<path d="M63.0001 28.1914V39.1116L53.5195 33.6439L63.0001 28.1914Z" fill="black"/>
<path opacity="0.95" d="M53.5194 33.6445V44.5648L44.0542 39.1123L53.5194 33.6445Z" fill="black"/>
<path opacity="0.9" d="M62.9999 39.1133V50.0335L53.5347 44.5657L62.9999 39.1133Z" fill="black"/>
<path opacity="0.7" d="M53.5196 44.5625V55.4827L44.0391 50.0303L53.5196 44.5625Z" fill="black"/>
<path opacity="0.4" d="M41.9405 49.1289V60.0491L32.46 54.5967L41.9405 49.1289Z" fill="black"/>
<path d="M53.5194 22.7227V33.6429L44.0542 28.1904L53.5194 22.7227Z" fill="black"/>
</svg>
