<?xml version="1.0" encoding="UTF-8"?>
<svg id="Artwork" xmlns="http://www.w3.org/2000/svg" xmlns:xlink="http://www.w3.org/1999/xlink" viewBox="0 0 160 160">
  <defs>
    <style>
      .cls-1 {
        fill: url(#linear-gradient-2);
      }

      .cls-2 {
        fill: url(#linear-gradient);
      }

      .cls-3 {
        fill: #fff;
      }
    </style>
    <linearGradient id="linear-gradient" x1="174.44" y1="-10427.81" x2="285.32" y2="-10538.68" gradientTransform="translate(309.88 -10403.25) rotate(-180)" gradientUnits="userSpaceOnUse">
      <stop offset="0" stop-color="#f2681d"/>
      <stop offset="1" stop-color="#f89863"/>
    </linearGradient>
    <linearGradient id="linear-gradient-2" x1="-1445.25" y1="183.65" x2="-1304.6" y2="183.65" gradientTransform="translate(922.36 -1022.08) rotate(-45)" xlink:href="#linear-gradient"/>
  </defs>
  <g id="Logomark">
    <g id="Logo_BG" data-name="Logo BG">
      <circle class="cls-2" cx="80" cy="80" r="78.4"/>
      <path id="bg" class="cls-1" d="M80,9.67c-38.84,0-70.33,31.48-70.33,70.33,0,35.42,26.19,64.73,60.28,69.6,1.32.2,2.66.35,4.02.46,1.33.12,2.67.19,4.02.23.67.02,1.34.03,2.01.03s1.34,0,2.01-.03c1.35-.03,2.69-.11,4.02-.23,1.35-.11,2.69-.26,4.02-.45,34.08-4.87,60.28-34.18,60.28-69.61,0-38.85-31.49-70.33-70.33-70.33Z"/>
    </g>
  </g>
  <path class="cls-3" d="M110.73,80.86l-30.73-50.89-30.73,50.89,30.73,18.1,30.73-18.1ZM49.27,87.49l30.73,43.29,30.73-43.29-30.73,18.19-30.73-18.19Z"/>
</svg>