<svg version="1.2" xmlns="http://www.w3.org/2000/svg" viewBox="0 0 4516 4515" width="256" height="256">
	<title>ucash_svg_icon_light-svg</title>
	<style>
		.s0 { fill: #000000 } 
		.s1 { fill: #cc9933 } 
	</style>
	<g id="Layer_x0020_1">
		<path fill-rule="evenodd" class="s0" d="m2258 0c138.7 0 274.3 12.5 406 36.5h-812c131.7-24 267.3-36.5 406-36.5zm577.9 74.8c42.8 11.3 85.1 23.9 126.8 37.6h-1409.4c41.8-13.7 84-26.3 126.8-37.6zm234 76q46.2 17.8 91.3 37.6h-1806.3q45.1-19.8 91.3-37.6c0 0 1623.7 0 1623.7 0zm174.2 75.9q37.2 18.1 73.6 37.6h-2119.3q36.4-19.5 73.7-37.6zm142.5 75.9q31.6 18.3 62.5 37.6h-2382.1q31-19.3 62.6-37.6zm121.9 76q27.5 18.4 54.5 37.6h-2609.9q27-19.2 54.5-37.6zm106.9 75.9q24.5 18.5 48.4 37.6h-2811.3q23.9-19.1 48.4-37.6zm95.1 75.9q22 18.6 43.6 37.6h-970.9l-20.7-20.7-20.7 20.7h-968.2l-19.7-19.6-19.6 19.6h-972q21.5-19 43.5-37.6zm85.7 76q19.9 18.5 39.3 37.6h-976.3l-37.7-37.6zm-1130.3 37.6h-816.3l-37.6-37.6h891.5zm-1007.5 0h-977.4q19.4-19.1 39.3-37.7h975.7zm2215.4 38.4q18.2 18.6 35.9 37.6h-974.5l-37.6-37.6zm-1283.9 37.6h-664.4l-37.6-37.6h739.7zm-1007.5 0h-975.6q17.7-19.1 35.8-37.7h977.4zm2362 38.4q16.6 18.6 32.7 37.6h-966.1l-37.6-37.6zm-1430.4 37.6h-512.6l-37.6-37.6h587.8zm-1007.5 0h-967.2q16.2-19 32.8-37.7h972zm2502.5 38.4c10.1 12.4 20.1 24.9 30 37.6h-951.9l-37.7-37.6zm-1570.9 37.6h-360.7l-37.6-37.6h435.9zm-1007.4 0h-953.1c9.9-12.7 19.9-25.2 30-37.7h960.7zm2637.5 38.4c9.3 12.4 18.5 24.9 27.5 37.6h-932.6l-37.7-37.6zm-1705.9 37.6h-208.9l-37.6-37.6h284.1c0 0-37.7 37.6-37.6 37.6zm-1007.5 0h-933.7c9-12.7 18.2-25.2 27.5-37.6h943.8zm2767.7 38.3c8.5 12.4 16.9 24.9 25.2 37.6h-908.6l-37.7-37.6zm-1836.1 37.6h-56.9l-37.7-37.6h132.2zm-1007.4 0h-909.7c8.2-12.7 16.6-25.2 25.2-37.6h922.1zm2893.3 38.3q11.7 18.7 23.1 37.6h-880.3l-37.6-37.6zm-2969.3 37.6h-881.3q11.3-18.9 23-37.6h896zm3014.7 38.3q10.8 18.7 21.1 37.6h-847.9l-37.6-37.6zm-3090.7 37.6h-848.9q10.3-18.9 21-37.6h865.5zm3132.3 38.3q9.8 18.7 19.3 37.6h-922.4l37.6-37.6zm-3095.2 37.6h-925.8q9.4-18.9 19.2-37.6h869zm3133.1 38.3q8.9 18.7 17.4 37.6h-1034.4l37.6-37.6zm-3057.1 37.6h-1037.9q8.6-18.9 17.5-37.6h982.8zm3091.5 38.3q8 18.8 15.8 37.7h-1143.1l37.6-37.7zm-3015.6 37.7h-1146.5q7.8-18.9 15.8-37.7h1093.1zm3046.7 38.4q7.3 18.7 14.2 37.6h-1248.5l37.6-37.6zm-2970.7 37.6h-1252q7-18.9 14.3-37.6h1200.1zm2998.6 38.3q6.6 18.7 12.7 37.6h-1350.8l37.6-37.6zm-2922.7 37.6h-1354.3q6.2-18.9 12.7-37.6h1303.9zm2947.7 38.3q5.8 18.7 11.2 37.6h-1450.2l37.6-37.6zm-2871.7 37.6h-1453.7q5.5-18.9 11.3-37.6h1404.8zm2893.7 38.3q5.1 18.7 9.8 37.6h-1546.7l37.6-37.6zm-2817.7 37.6h-1550.2q4.7-18.9 9.8-37.6h1502.7zm2836.9 38.3c2.9 12.5 5.8 25.1 8.5 37.6h-1527.5q-11.8-19-24.3-37.6zm-2877.5 37.6h-1527.3c2.7-12.5 5.6-25.1 8.5-37.6h1543q-12.5 18.7-24.2 37.6zm2893.9 38.4c2.5 12.5 4.9 25 7.2 37.6h-1498.6q-10.2-19-21-37.6zm-2937.7 37.6h-1498.5c2.3-12.6 4.7-25.1 7.1-37.6h1512.3q-10.8 18.6-20.9 37.6zm2951.4 38.3c2 12.5 4 25 5.8 37.6h-342.2l-37.6-37.6zm-473.4 37.6h-993.9q-8.7-18.9-17.9-37.6h1049.4zm-2515.4 0h-990.7l-37.6-37.6h1046.1q-6.7 13.6-13.1 27.3-2.4 5.1-4.7 10.3zm-1130.1 0h-343.3c1.8-12.6 3.8-25.1 5.8-37.6h375.1zm4130 38.3c1.6 12.5 3.1 25 4.5 37.6h-276l-37.6-37.6zm-560.4 37.6h-885.8q-7.3-18.9-15.2-37.6h938.7zm-2471.3 0h-883l-37.6-37.6h935.7q-7.8 18.6-15.1 37.6zm-1174.3 0h-277c1.3-12.6 2.9-25.1 4.5-37.6h310.2zm4214.3 38.3c1.1 12.5 2.3 25 3.2 37.6h-207.1l-37.7-37.6zm-644.7 37.6h-782.9q-6.1-18.9-12.7-37.6h833.3zm-2422 0h-780.4l-37.7-37.6h830.7q-6.5 18.6-12.6 37.6zm-1223.6 0h-208.2c0.9-12.6 2-25.1 3.2-37.6h242.6zm4296.1 38.3c0.8 12.5 1.5 25 2 37.6h-135.8l-37.6-37.6zm-726.5 37.6h-684.7q-0.9-3.6-1.9-7.2-4.1-15.3-8.5-30.4h732.7zm-2368.2 0h-682.3l-37.6-37.6h730.5q-4.3 14.9-8.3 30l-0.3-0.1q-1 3.9-2 7.7zm-1277.3 0h-136.9c0.5-12.6 1.3-25.1 2-37.6h172.5zm4375.3 38.3c0.4 12.5 0.7 25 0.8 37.6h-61.9l-37.6-37.6zm-805.7 37.6h-591q-3.9-18.8-8.3-37.6h636.9zm-2310.2 0h-588.5l-37.6-37.6h634.4q-4.5 18.8-8.3 37.6zm-1335.3 0h-63.1c0.2-12.6 0.5-25.1 0.8-37.6h99.9zm4452.1 38.3q-0.1 11.7-0.3 23.5l-23.4-23.5zm-882.6 37.6h-501.6q-2.8-18.8-6.1-37.6h545.3zm-2247.7 0h-499.1l-37.6-37.6h542.8q-3.3 18.8-6.1 37.6zm-1384.7-13.1q-0.2-12.2-0.3-24.5h24.8zm3556.5 89h-416.6q-1.7-18.8-4-37.6h458.3zm-2180.8 0h-414.2l-37.6-37.6h455.7q-2.2 18.8-3.9 37.6zm2104.8 75.9h-335.8q-0.7-18.8-1.9-37.6h375.3zm-2109.5 0h-333.5l-37.6-37.6h372.9q-1.1 18.8-1.8 37.6zm2033.6 75.9h-259.2q0.2-14.3 0.2-28.6 0-4.5 0-9h296.6zm-2033.9 0h-257.3l-37.6-37.6h294.5q0 18.8 0.4 37.6zm1958 76h-186.9q1.4-18.8 2.3-37.7h222.2zm-1953.9 0h-185.4l-37.6-37.6h220.4q1 18.8 2.6 37.6zm1878 76h-118.9q2.5-18.8 4.5-37.6h152zm-1869.6 0h-117.9l-37.6-37.7h150.8q2.1 18.8 4.7 37.7zm1793.7 75.9h-55.1q3.5-18.8 6.5-37.6h86.2zm-1781.8 0h-53.8l-37.6-37.6h85.4q2.8 16.7 6 33.5zm3052.3 38.3q-4.8 18.9-9.8 37.7h-43.6l37.6-37.7zm-4327.7 37.7h-42.5q-5-18.8-9.7-37.7h14.6zm1260-37.6h23.4l3.2 12.7v5l4 12.9zm1734.3 0h24.6l-31.9 32q3.8-16 7.3-32zm1313 76q-5.5 18.8-11.3 37.6h-97.5l37.6-37.6zm-4231.3 37.6h-96.5q-5.8-18.8-11.3-37.6h70.2zm4207.9 38.3q-6.2 18.9-12.7 37.6h-148.7l37.7-37.6zm-4132 37.6h-147.6q-6.5-18.7-12.7-37.6h122.7zm4105.6 38.3q-7 18.9-14.3 37.6h-196.6l37.6-37.6zm-4029.7 37.6h-195.6q-7.3-18.7-14.2-37.6h172.2zm4000.2 38.3q-7.8 18.9-15.8 37.6h-241.6l37.7-37.6zm-3924.3 37.6h-240.4q-8.1-18.7-15.8-37.6h218.6zm3891.5 38.3q-8.6 18.9-17.5 37.6h-283l37.6-37.6zm-3815.5 37.6h-282q-8.9-18.7-17.5-37.6h261.9zm3779.3 38.3q-9.4 19-19.2 37.7h-321l37.6-37.7zm-3703.5 37.7h-320q-9.8-18.7-19.2-37.7h301.6zm3663.7 38.4q-10.3 18.9-21 37.6h-355.5l37.7-37.6zm-3587.8 37.6h-354.4q-10.7-18.7-21.1-37.6h337.8zm3544.3 38.3q-11.3 18.9-23 37.6h-385.9l37.6-37.6zm-3468.3 37.6h-384.9q-11.7-18.7-23-37.6h370.3zm3420.8 38.3q-12.4 18.9-25.2 37.6h-413.2q17.1-16 33.8-32.7l4.9-4.9zm-3343.9 37.6h-412.1q-12.7-18.7-25.1-37.6h398.6l6 6q16.1 16.1 32.6 31.6zm3292 38.3q-13.6 19-27.5 37.7h-446.9q23-18.3 45.4-37.7zm-3204 37.7h-445.9q-13.9-18.7-27.4-37.7h427.9q22.3 19.4 45.4 37.7zm3147.3 38.3q-14.8 18.9-30 37.6h-493.2q27.9-18.1 54.9-37.6zm-3041.5 37.6h-492.6q-15.1-18.7-29.9-37.6h467.4q27.1 19.4 55.1 37.6zm2979.6 38.3q-16.2 19-32.7 37.6h-560.8q35.4-17.8 69.7-37.6zm-2847 37.6h-560.5q-16.6-18.6-32.7-37.6h523.2q34.5 19.9 70 37.6zm2779.4 38.3q-17.7 19.1-35.8 37.7h-673.1q50.9-17 99.9-37.7zm-1589.8 37.7h-124.4l69.1-19.8q27.3 10.4 55.3 19.8zm-1005.5 0h-673.8q-18.2-18.6-35.9-37.7h609q49.4 20.7 100.7 37.7zm2521.3 38.3q-19.5 19-39.4 37.6h-3078.1q-19.9-18.6-39.4-37.6h775.3q149.7 33 300.8 32.8 150-0.3 297-32.8h405.2q151.3 34.2 304.7 33.9 152-0.3 301.4-33.9zm-81.6 75.9q-21.5 19.1-43.5 37.6h-2906.7q-22.1-18.5-43.6-37.6zm-90.2 75.9q-24 19.2-48.5 37.7h-2716.3q-24.5-18.5-48.5-37.7c0 0 2813.3 0 2813.3 0zm-100.8 76q-27 19.2-54.6 37.6h-2502.5q-27.6-18.4-54.6-37.6zm-114.1 75.9q-30.9 19.3-62.6 37.6h-2258.3q-31.7-18.3-62.7-37.6zm-131.6 76q-36.5 19.4-73.7 37.6h-1972.9q-37.3-18.2-73.8-37.6zm-156.7 75.9c-30.1 13.2-60.5 25.7-91.3 37.6h-1624.4c-30.8-11.9-61.2-24.4-91.2-37.6 0 0 1806.9 0 1806.9 0zm-198.6 75.9c-41.7 13.8-84 26.3-126.8 37.6h-1156.1c-42.8-11.3-85.1-23.8-126.9-37.6 0 0 1409.8 0 1409.8 0zm-298.8 76c-131.7 23.9-267.4 36.5-406.1 36.5-138.6 0-274.3-12.6-406.1-36.5z"/>
		<path fill-rule="evenodd" class="s0" d="m2258 0c1246.9 0 2257.8 1010.8 2257.8 2257.8 0 14.2-0.3 28.3-0.6 42.4l-158.7-158.6c-60.3-1106.8-976.7-1985.6-2098.5-1985.6-1122.2 0-2038.9 879.4-2098.6 1986.7l-158.6 158.6c-0.3-14.5-0.6-29-0.6-43.5 0-1247 1010.9-2257.8 2257.8-2257.8zm2195 2787.7c-238.4 991.2-1130.6 1727.8-2195 1727.8-1063.9 0-1955.7-735.9-2194.7-1726.4l238.3 238.3c307.1 780.1 1067.3 1332.2 1956.4 1332.2 889.8 0 1650.4-552.9 1957-1333.9z"/>
		<path fill-rule="evenodd" class="s1" d="m2095.4 3706.2q-9.8 2.8-19.6 5.5c-213.3 57.3-426.8 57.7-640.7 1.1-214-56.6-399.7-163.7-557-321l-877.8-877.8 436.7-436.7 877.8 877.8c63.8 63.8 134.7 110.7 212.8 140.5q24.4 51.8 53.1 101.3 89.9 154.7 219.7 284.5h0.5q129.6 129.5 282.1 217.8 6.2 3.5 12.4 7z"/>
		<path fill-rule="evenodd" class="s1" d="m2631.6 1638.4c157.3 157.3 264.7 342.5 322 555.8 57.3 213.2 57.7 426 1.2 638.5q-22.5 84.2-55.5 162.7-62.7 16.4-133.3 16.1-103-0.4-191.1-37.3-86.5-36.2-161-110.7l-0.2 0.3-8.7-8.9h0.1l-1.6-1.7-0.9-1.2-0.1 0.1-2.8-2.9-2.6-3-0.1 0.1h-0.1l-0.2 0.1-0.1-0.1v-0.1l-2.5-2.9-1.5-1.5-2.5-2.7 0.2-0.3-2.5-2.8-0.1 0.1-1.3-1.7v0.1c-3.4-3.9-6.7-8-10-12l-0.1 0.1-6-7.4h0.1l-6.9-9.1c-1.6-1.6-3.3-4.3-4.8-6.1l-0.7-0.8-0.3-0.4 0.1-0.1-0.2-0.3-0.5-0.5-2-2.9-1.5-1.9 0.3-0.2-0.2-0.2-1-1-4.1-6.1-0.1 0.1-1.1-1.8-2-2.8-0.1 0.1-1.2-1.9 0.1-0.1-8.3-13h0.1l-0.2-0.5-0.5-0.4-0.3-0.5-0.2-0.2-0.2-0.4-0.1 0.1-0.2-0.3 0.2-0.1-5.7-9.7-0.4-0.7q47.9-111.8 48.5-242.8 0.6-135.5-49.5-250l2-4.7-31.8-54.5q-12.1-20.8-28-43-27.9-39.6-63.1-76.2l-3.1-3.2-1.2-1.1q-2.4-2.5-4.8-5l-88.6-88.7-0.1 0.1-377.7-377.7-411.7-411.8 434.4-434.4 877.9 877.9z"/>
		<path fill-rule="evenodd" class="s0" d="m2345.8 1175.8l416.5-416.4 436.7 436.7-418.4 418.4q-29.2-33-60.7-64.5z"/>
		<path fill-rule="evenodd" class="s0" d="m3637.9 3390.7c-157.3 157.4-342.6 264.8-555.8 322.1-213.2 57.3-426 57.7-638.5 1.2-212.5-56.7-397.4-163.6-554.8-320.9-158.8-158.9-266.8-344.9-324.2-558.2l-0.4-1.3-0.3-1.3-0.4-1.3-0.3-1.3-0.4-1.3-0.3-1.4-0.3-1.3-0.3-0.7-0.1-0.5-0.4-1.4-0.3-1.3-0.3-1.3-0.4-1.3-0.3-1.3-0.3-1.3-0.4-1.4-0.1-0.3-0.2-1-0.3-1.3-0.4-1.3-0.3-1.3-0.3-1.3-0.3-1.3-0.3-1.4-0.4-1.1v-0.2l-0.3-1.2-0.3-1.4-0.3-1.3-0.3-1.3-0.3-1.4-0.4-1.3-0.3-1.2-0.1-0.6-0.1-0.8-0.4-1.3-0.3-1.3-0.3-1.4-0.3-1.2-0.3-1.3-0.3-1.4-0.3-1.3v-0.1l-0.2-1.2-0.4-1.3-0.2-1.3-0.4-1.3-0.2-1.4-0.3-1.3-0.3-1.3-0.2-0.8-0.1-0.5-0.3-1.3-0.3-1.3-0.3-1.3-0.2-1.4-0.3-1.3-0.3-1.2-0.4-1.7-0.2-1-0.2-1.3-0.6-2.6-0.2-1.3-0.3-1.4-0.6-2.5v-0.1l-0.2-1.3-0.3-1.3-0.2-1.3c-37.6-186-32.3-369.5 18.5-556.7 38.2-144.4 99.4-276 183.6-394.7l361.6 361.7 0.3-0.3q48.7 48.9 80.7 103.6c-32.6 75.6-48.7 158-48.3 247.4 0.3 85.9 15.9 165.5 46.8 239l1.4 3.4 1.2 2.9 0.3 0.5 1.5 3.4 1.3 2.9 0.2 0.5 1.5 3.4 1.4 2.9 0.2 0.5 1.6 3.3 1.3 2.9 0.3 0.5 1.6 3.4 1.4 2.9 0.3 0.4 1.6 3.4 1.5 2.8 0.2 0.5 1.8 3.3 1.4 2.9 0.3 0.4 1.7 3.3 1.6 2.9 0.2 0.4 1.8 3.3 1.6 2.9 0.2 0.4 1.9 3.2 1.6 2.8 0.3 0.5 1.9 3.2 1.7 2.9 0.2 0.3 1.9 3.3 1.8 2.8 0.2 0.4 2 3.2 1.7 2.9 0.3 0.3 2 3.2 1.8 2.9 0.3 0.2 2 3.3 1.9 2.8 0.2 0.3 2.1 3.2 2 2.8 0.2 0.3 2.1 3.1 2 2.9 0.2 0.3 2.2 3 2 2.9 0.2 0.3 2.2 3.1 2.2 2.9 0.1 0.1 2.3 3.1 2.1 2.9 0.2 0.2 2.3 3.1 2.3 2.9 0.1 0.1 2.4 3.1 2.2 2.8 0.2 0.2 2.4 3.1 2.3 2.8 0.2 0.2 2.4 3 2.4 2.9 0.1 0.1 2.6 3 2.4 2.8 0.1 0.1 2.5 3 2.5 2.9 0.1 0.1 2.6 3 2.6 2.8v0.1l2.7 2.9 2.6 2.9 0.1 0.1 2.6 2.9 2.7 2.8v0.1l2.8 2.9 2.6 2.9h0.1l2.8 2.9 2.8 2.9 5.6 5.7c122.1 122 268.8 183.4 440 184.2 171.3 0.7 317.4-59.3 438-179.8l877.8-877.9 434.5 434.5-877.9 877.8z"/>
	</g>
</svg>