<?xml version="1.0" encoding="UTF-8"?>
<!DOCTYPE svg PUBLIC "-//W3C//DTD SVG 1.1//EN" "http://www.w3.org/Graphics/SVG/1.1/DTD/svg11.dtd">
<!-- Creator: CorelDRAW -->
<svg xmlns="http://www.w3.org/2000/svg" xml:space="preserve" width="180.621mm" height="180.622mm" version="1.1" style="shape-rendering:geometricPrecision; text-rendering:geometricPrecision; image-rendering:optimizeQuality; fill-rule:evenodd; clip-rule:evenodd"
viewBox="0 0 18062.02 18062.13"
 xmlns:xlink="http://www.w3.org/1999/xlink"
 xmlns:xodm="http://www.corel.com/coreldraw/odm/2003">
 <defs>
  <style type="text/css">
   <![CDATA[
    .fil0 {fill:black}
    .fil1 {fill:#CC9933}
   ]]>
  </style>
 </defs>
 <g id="Layer_x0020_1">
  <metadata id="CorelCorpID_0Corel-Layer"/>
  <path class="fil0" d="M9031.01 0c554.62,0 1097.39,50.11 1624.13,146l-3248.26 0c526.74,-95.89 1069.51,-146 1624.13,-146zm2311.5 299.27c171.15,45.3 340.32,95.51 507.31,150.47l-5637.61 0c166.99,-54.96 336.16,-105.17 507.31,-150.47l4623 0zm935.96 303.74c123.04,47.56 244.79,97.74 365.15,150.47l-7225.2 0c120.36,-52.73 242.11,-102.91 365.15,-150.47l6494.91 0zm696.55 303.74c99.3,48.4 197.56,98.56 294.76,150.47l-8477.52 0c97.2,-51.91 195.46,-102.07 294.76,-150.47l7888 0zm570.02 303.74c84.26,48.85 167.68,98.99 250.19,150.47l-9528.41 0c82.51,-51.48 165.93,-101.62 250.19,-150.47l9028.04 0zm487.6 303.74c73.53,49.1 146.29,99.26 218.26,150.47l-10439.75 0c71.97,-51.21 144.73,-101.37 218.26,-150.47l10003.23 0zm427.3 303.74c65.31,49.3 129.95,99.43 193.83,150.47l-11245.48 0c63.88,-51.04 128.52,-101.17 193.83,-150.47l10857.83 0zm380.51 303.74c58.65,49.44 116.71,99.56 174.05,150.47l-3883.31 0 -82.9 -82.9 -82.91 82.9 -3872.85 0 -78.62 -78.62 -78.62 78.62 -3887.73 0c57.34,-50.91 115.4,-101.03 174.05,-150.47l11618.84 0zm342.5 303.74c53.07,49.52 105.52,99.68 157.37,150.47l-3905.4 0 -150.46 -150.47 3898.49 0zm-4521.36 150.47l-3265.33 0 -150.46 -150.47 3566.28 0 -150.49 150.47zm-4030.04 0l-3909.81 0c51.85,-50.79 104.3,-100.95 157.37,-150.47l3902.91 0 -150.47 150.47zm8861.62 153.27c48.34,49.61 96.13,99.75 143.3,150.48l-3897.8 0 -150.48 -150.48 3904.98 0zm-5135.37 150.48l-2657.79 0 -150.48 -150.48 2958.77 0 -150.5 150.48zm-4029.98 0l-3902.22 0c47.17,-50.73 94.96,-100.87 143.3,-150.48l3909.4 0 -150.48 150.48zm9447.96 153.26c44.19,49.68 87.9,99.8 130.97,150.48l-3864.35 0 -150.47 -150.48 3883.85 0zm-5721.77 150.48l-2050.26 0 -150.48 -150.48 2351.24 0 -150.5 150.48zm-4029.93 0l-3868.76 0c43.07,-50.68 86.78,-100.8 130.97,-150.48l3888.27 0 -150.48 150.48zm10009.88 153.27c40.46,49.75 80.53,99.84 119.93,150.47l-3807.75 0 -150.47 -150.47 3838.29 0zm-6283.74 150.47l-1442.74 0 -150.47 -150.47 1743.7 0 -150.49 150.47zm-4029.87 0l-3812.17 0c39.4,-50.63 79.47,-100.72 119.93,-150.47l3842.7 0 -150.46 150.47zm10550.04 153.27c37.1,49.8 73.86,99.88 109.94,150.47l-3730.45 0 -150.47 -150.47 3770.98 0zm-6823.96 150.47l-835.22 0 -150.47 -150.47 1136.17 0 -150.49 150.47zm-4029.82 0l-3734.87 0c36.08,-50.59 72.84,-100.67 109.94,-150.47l3775.4 0 -150.47 150.47zm11070.65 153.27c34.06,49.81 67.73,99.91 100.77,150.47l-3634.43 0 -150.47 -150.47 3684.13 0zm-7344.62 150.47l-227.7 0 -150.47 -150.47 528.66 0 -150.49 150.47zm-4029.77 0l-3638.84 0c33.04,-50.56 66.71,-100.66 100.77,-150.47l3688.54 0 -150.47 150.47zm11573.24 153.27c31.24,49.83 62.05,99.95 92.28,150.47l-3521.05 0 -150.47 -150.47 3579.24 0zm-11876.97 150.47l-3525.47 0c30.23,-50.52 61.04,-100.64 92.28,-150.47l3583.65 0 -150.46 150.47zm12059.06 153.27c28.59,49.85 56.74,99.99 84.35,150.47l-3391.48 0 -150.47 -150.47 3457.6 0zm-12362.8 150.47l-3395.89 0c27.61,-50.48 55.76,-100.62 84.35,-150.47l3462.01 0 -150.47 150.47zm12529.17 153.27c26.1,49.87 51.76,100.02 76.9,150.47l-3689.48 0 150.47 -150.47 3462.11 0zm-12380.79 150.47l-3703.19 0c25.14,-50.45 50.8,-100.6 76.9,-150.47l3475.82 0 150.47 150.47zm12532.37 153.27c23.74,49.89 47.01,100.06 69.83,150.47l-4137.72 0 150.46 -150.47 3917.43 0zm-12228.63 150.47l-4151.44 0c22.82,-50.41 46.09,-100.58 69.83,-150.47l3931.14 0 150.47 150.47zm12366.11 153.27c21.5,49.93 42.56,100.08 63.17,150.47l-4572.28 0 150.47 -150.47 4358.64 0zm-12062.37 150.47l-4586 0c20.61,-50.39 41.67,-100.54 63.17,-150.47l4372.36 0 150.47 150.47zm12186.65 153.27c19.41,49.94 38.4,100.09 56.9,150.47l-4994.03 0 150.47 -150.47 4786.66 0zm-11882.92 150.47l-5007.74 0c18.5,-50.38 37.49,-100.53 56.9,-150.47l4800.38 0 150.46 150.47zm11994.65 153.27c17.4,49.96 34.39,100.09 50.87,150.47l-5403.46 0 150.47 -150.47 5202.12 0zm-11690.91 150.47l-5417.17 0c16.48,-50.38 33.47,-100.51 50.87,-150.47l5215.83 0 150.47 150.47zm11790.53 153.27c15.45,49.97 30.53,100.1 45.05,150.47l-5800.99 0 150.47 -150.47 5605.47 0zm-11486.79 150.47l-5814.71 0c14.52,-50.37 29.6,-100.5 45.05,-150.47l5619.19 0 150.47 150.47zm11574.71 153.27c13.57,49.98 26.78,100.11 39.41,150.48l-6187.02 0 150.48 -150.48 5997.13 0zm-11270.96 150.48l-6200.74 0c12.63,-50.37 25.84,-100.5 39.41,-150.48l6010.85 0 150.48 150.48zm11347.52 153.26c11.73,49.99 23.14,100.12 33.92,150.48l-6109.91 0c-31.55,-50.69 -63.93,-100.85 -97.1,-150.48l6173.09 0zm-11510.33 150.48l-6109 0c10.78,-50.36 22.19,-100.49 33.92,-150.48l6171.92 0c-33.16,49.71 -65.44,99.88 -96.84,150.48zm11575.81 153.26c9.93,50.01 19.58,100.13 28.56,150.48l-5994.17 0c-27.15,-50.57 -55.11,-100.74 -83.88,-150.48l6049.49 0zm-11750.88 150.48l-5994.05 0c8.98,-50.35 18.63,-100.47 28.56,-150.48l6048.93 0c-28.64,49.74 -56.45,99.9 -83.44,150.48zm11805.53 153.27c8.18,50.02 16.11,100.13 23.32,150.47l-1368.75 0 -150.47 -150.47 1495.9 0zm-1893.73 150.47l-3975.46 0c-23.2,-50.55 -47.17,-100.7 -71.89,-150.47l4197.82 0 -150.47 150.47zm-10061.73 0l-3962.77 0 -150.47 -150.47 4184.52 0c-17.83,36.18 -35.26,72.57 -52.28,109.16 -6.39,13.74 -12.72,27.51 -19,41.31zm-4520.39 0l-1373.14 0c7.21,-50.34 15.14,-100.45 23.32,-150.47l1500.29 0 -150.47 150.47zm16519.88 153.27c6.45,50.03 12.69,100.14 18.17,150.47l-1103.89 0 -150.47 -150.47 1236.19 0zm-2241.49 150.47l-3543.22 0c-19.61,-50.52 -39.94,-100.68 -60.97,-150.47l3754.66 0 -150.47 150.47zm-9885.09 0l-3531.95 0 -150.46 -150.47 3742.65 0c-20.78,49.73 -40.86,99.89 -60.24,150.47zm-4697.03 0l-1108.29 0c5.48,-50.33 11.72,-100.44 18.17,-150.47l1240.59 0 -150.47 150.47zm16857.2 153.27c4.75,50.05 9.33,100.14 13.1,150.47l-828.68 0 -150.47 -150.47 966.05 0zm-2578.82 150.47l-3131.6 0c-16.32,-50.5 -33.32,-100.67 -50.98,-150.47l3333.05 0 -150.47 150.47zm-9687.75 0l-3121.81 0 -150.47 -150.47 3322.53 0c-17.4,49.76 -34.15,99.92 -50.25,150.47zm-4894.37 0l-833.08 0c3.77,-50.33 8.35,-100.42 13.1,-150.47l970.45 0 -150.47 150.47zm17184.23 153.27c3.06,50.05 6.01,100.15 8.1,150.47l-543.24 0 -150.47 -150.47 685.61 0zm-2905.85 150.47l-2738.93 0c-2.52,-9.59 -5.06,-19.18 -7.64,-28.77 -10.96,-40.78 -22.35,-81.35 -34.15,-121.7l2931.18 0 -150.46 150.47zm-9473.09 0l-2729.01 0 -150.47 -150.47 2922.08 0c-11.46,39.77 -22.51,79.77 -33.18,120.01l-1.16 -0.32c-2.79,10.26 -5.53,20.52 -8.26,30.78zm-5109.02 0l-547.65 0c2.09,-50.32 5.04,-100.42 8.1,-150.47l690.02 0 -150.47 150.47zm17501.09 153.27c1.39,50.07 2.73,100.16 3.15,150.47l-247.68 0 -150.47 -150.47 395 0zm-3222.71 150.47l-2364.03 0c-10.31,-50.21 -21.32,-100.37 -33.05,-150.47l2547.55 0 -150.47 150.47zm-9240.95 0l-2353.68 0 -150.46 -150.47 2537.36 0c-11.8,50.11 -22.88,100.27 -33.22,150.47zm-5341.16 0l-252.09 0c0.42,-50.31 1.76,-100.4 3.15,-150.47l399.41 0 -150.47 150.47zm17808.63 153.27c-0.26,31.31 -0.68,62.57 -1.26,93.8l-93.8 -93.8 95.06 0zm-3530.25 150.47l-2006.63 0c-7.44,-50.21 -15.59,-100.37 -24.42,-150.47l2181.52 0 -150.47 150.47zm-8990.83 0l-1996.33 0 -150.47 -150.47 2171.13 0c-8.82,50.1 -16.93,100.26 -24.33,150.47zm-5538.94 -52.34c-0.62,-32.66 -1.08,-65.37 -1.35,-98.13l99.48 0 -98.13 98.13zm14226.04 356.08l-1666.46 0c-4.61,-50.21 -9.93,-100.37 -15.92,-150.47l1832.84 0 -150.46 150.47zm-8723.07 0l-1656.62 0 -150.47 -150.47 1822.72 0c-5.92,50.09 -11.12,100.25 -15.63,150.47zm8419.33 303.74l-1343.32 0c-1.81,-50.21 -4.3,-100.37 -7.49,-150.47l1501.28 0 -150.47 150.47zm-8438 0l-1334.21 0 -150.47 -150.47 1491.79 0c-3.06,50.08 -5.43,100.24 -7.11,150.47zm8134.26 303.74l-1036.98 0c0.73,-38.16 1.07,-76.35 1,-114.57 -0.02,-11.97 -0.1,-23.94 -0.2,-35.9l1186.65 0 -150.47 150.47zm-8135.63 0l-1029.11 0 -150.47 -150.47 1178.06 0c-0.21,50.16 0.29,100.31 1.52,150.47zm7831.9 303.74l-747.6 0c3.77,-50.12 6.86,-100.27 9.24,-150.47l888.83 0 -150.47 150.47zm-7815.7 0l-741.58 0 -150.47 -150.47 881.84 0c2.69,50.15 6.09,100.3 10.21,150.47zm7511.95 303.75l-475.33 0c6.62,-50.12 12.54,-100.28 17.75,-150.48l608.06 0 -150.48 150.48zm-7478.39 0l-471.39 0 -150.48 -150.48 603.09 0c5.55,50.13 11.81,100.29 18.78,150.48zm7174.66 303.74l-220.4 0c9.49,-50.12 18.28,-100.28 26.35,-150.48l344.52 0 -150.47 150.48zm-7127.14 0l-215.18 0 -150.48 -150.48 341.58 0c7.47,44.72 15.5,89.48 24.08,134.26l0 16.22zm12209.1 153.26c-12.63,50.33 -25.67,100.49 -39.15,150.48l-174.2 0 150.48 -150.48 62.87 0zm-17310.83 150.48l-169.97 0c-13.48,-49.99 -26.52,-100.15 -39.15,-150.48l58.64 0 150.48 150.48zm5039.81 -150.48l93.72 0 12.72 50.88 0 19.69 16.01 51.88 -122.45 -122.45zm6937.42 0l98.39 0 -127.89 127.89c10.35,-42.6 20.18,-85.23 29.5,-127.89zm5251.68 303.75c-14.52,50.34 -29.48,100.5 -44.86,150.47l-390.31 0 150.47 -150.47 284.7 0zm-16925.18 150.47l-386.08 0c-15.38,-49.97 -30.34,-100.13 -44.86,-150.47l280.47 0 150.47 150.47zm16831.61 153.27c-16.49,50.35 -33.39,100.51 -50.74,150.47l-594.59 0 150.47 -150.47 494.86 0zm-16527.88 150.47l-590.36 0c-17.35,-49.96 -34.25,-100.12 -50.74,-150.47l490.63 0 150.47 150.47zm16422.36 153.27c-18.52,50.36 -37.47,100.53 -56.86,150.47l-786.69 0 150.47 -150.47 693.08 0zm-16118.62 150.47l-782.46 0c-19.39,-49.94 -38.34,-100.11 -56.86,-150.47l688.85 0 150.47 150.47zm16000.62 153.27c-20.63,50.39 -41.71,100.55 -63.23,150.47l-966.05 0 150.47 -150.47 878.81 0zm-15696.89 150.47l-961.82 0c-21.52,-49.92 -42.6,-100.08 -63.23,-150.47l874.58 0 150.47 150.47zm15565.9 153.27c-22.84,50.41 -46.11,100.57 -69.85,150.47l-1132.17 0 150.47 -150.47 1051.55 0zm-15262.16 150.47l-1127.94 0c-23.74,-49.9 -47.01,-100.06 -69.85,-150.47l1047.32 0 150.47 150.47zm15117.56 153.27c-25.17,50.42 -50.75,100.6 -76.83,150.47l-1284.32 0 150.47 -150.47 1210.68 0zm-14813.84 150.47l-1280.09 0c-26.08,-49.87 -51.66,-100.05 -76.83,-150.47l1206.45 0 150.47 150.47zm14654.93 153.27c-27.62,50.44 -55.66,100.62 -84.22,150.47l-1421.76 0 150.47 -150.47 1355.51 0zm-14351.19 150.47l-1417.53 0c-28.56,-49.85 -56.6,-100.03 -84.22,-150.47l1351.28 0 150.47 150.47zm14177.16 153.27c-30.23,50.48 -60.91,100.65 -92.11,150.47l-1543.57 0 150.47 -150.47 1485.21 0zm-13873.43 150.47l-1539.34 0c-31.2,-49.82 -61.88,-99.99 -92.11,-150.47l1480.98 0 150.47 150.47zm13683.2 153.27c-33.04,50.51 -66.54,100.68 -100.58,150.47l-1652.9 0c45.61,-42.75 90.65,-86.36 135.12,-130.83l19.64 -19.64 1598.72 0zm-13375.36 150.47l-1648.48 0c-34.04,-49.79 -67.54,-99.96 -100.58,-150.47l1594.49 0 23.96 23.96c42.96,42.96 86.49,85.13 130.61,126.51zm13167.72 153.27c-36.08,50.55 -72.67,100.71 -109.78,150.47l-1787.82 0c61.43,-48.77 121.95,-98.92 181.56,-150.47l1716.04 0zm-12815.62 150.47l-1783.75 0c-37.11,-49.76 -73.7,-99.92 -109.78,-150.47l1711.68 0c59.64,51.51 120.25,101.67 181.85,150.47zm12589 153.27c-39.42,50.59 -79.36,100.76 -119.83,150.47l-1972.91 0c74.3,-48.37 147.44,-98.52 219.4,-150.47l1873.34 0zm-12165.99 150.47l-1970.09 0c-40.47,-49.71 -80.41,-99.88 -119.83,-150.47l1869.84 0c72.1,51.89 145.45,102.05 220.08,150.47zm11918.57 153.27c-43.11,50.64 -86.76,100.81 -130.96,150.48l-2243.02 0c94.38,-47.43 187.35,-97.59 278.91,-150.48l2095.07 0zm-11388.31 150.48l-2241.8 0c-44.2,-49.67 -87.85,-99.84 -130.96,-150.48l2093.02 0c91.87,52.94 185.12,103.1 279.74,150.48zm11117.85 153.26c-47.22,50.71 -95.01,100.88 -143.38,150.48l-2692.46 0c135.85,-45.25 269.16,-95.41 399.94,-150.48l2435.9 0zm-6359.45 150.48l-497.45 0 276.25 -79.11c72.94,27.84 146.68,54.21 221.2,79.11zm-4021.92 0l-2695.41 0c-48.37,-49.6 -96.16,-99.77 -143.38,-150.48l2436.05 0c131.75,55.2 266,105.36 402.74,150.48zm10085 153.27c-51.9,50.79 -104.43,100.95 -157.56,150.47l-12312.3 0c-53.13,-49.52 -105.66,-99.68 -157.56,-150.47l3101.21 0c399.12,88.16 800.24,131.93 1203.32,131.25 399.94,-0.67 795.97,-44.43 1188.06,-131.25l1620.44 0c403.55,91.25 809.87,136.5 1218.93,135.74 405.38,-0.75 807.2,-46.01 1205.44,-135.74l3089.99 0zm-326.13 303.74c-57.38,50.89 -115.4,101.06 -174.09,150.47l-11626.98 0c-58.69,-49.41 -116.71,-99.58 -174.09,-150.47l11975.16 0zm-361.02 303.74c-63.92,51.02 -128.56,101.19 -193.9,150.47l-10865.33 0c-65.34,-49.28 -129.98,-99.45 -193.9,-150.47l11253.12 0zm-403.17 303.74c-72.05,51.2 -144.89,101.37 -218.5,150.47l-10009.79 0c-73.61,-49.1 -146.45,-99.27 -218.5,-150.47l10446.79 0zm-456.16 303.74c-82.64,51.47 -166.18,101.63 -250.58,150.47l-9033.31 0c-84.4,-48.84 -167.94,-99 -250.58,-150.47l9534.47 0zm-526.44 303.74c-97.31,51.89 -195.63,102.11 -295.03,150.47l-7891.54 0c-99.4,-48.36 -197.72,-98.58 -295.03,-150.47l8481.6 0zm-626.96 303.74c-120.32,52.71 -241.95,103.01 -364.99,150.47l-6497.71 0c-123.04,-47.46 -244.67,-97.76 -364.99,-150.47l7227.68 0zm-794.18 303.74c-167.05,54.97 -336.23,105.24 -507.47,150.47l-4624.4 0c-171.24,-45.23 -340.42,-95.5 -507.47,-150.47l5639.33 0zm-1195.29 303.74c-526.92,95.86 -1069.78,145.99 -1624.37,145.99 -554.59,0 -1097.45,-50.13 -1624.37,-145.99l3248.74 0z"/>
  <path class="fil0" d="M9031.01 0c4987.69,0 9031.01,4043.35 9031.01,9031.06 0,56.79 -1.1,113.32 -2.15,169.87l-634.69 -634.69c-241.27,-4426.93 -3907.03,-7942.39 -8394.17,-7942.39 -4488.74,0 -8155.54,3517.94 -8394.47,7947.1l-634.34 634.34c-1.1,-57.99 -2.2,-115.98 -2.2,-174.23 0,-4987.72 4043.32,-9031.06 9031.01,-9031.06zm8780.18 11150.79c-953.69,3964.91 -4522.62,6911.34 -8780.18,6911.34 -4255.55,0 -7823,-2943.68 -8778.82,-6905.74l953.26 953.27c1228.47,3120.24 4269.11,5328.61 7825.56,5328.61 3559.03,0 6601.42,-2211.61 7828.16,-5335.44l952.02 -952.04z"/>
  <path class="fil1" d="M8380.69 14824.98c-26.11,7.48 -52.32,14.76 -78.63,21.86 -852.92,229.27 -1707.17,230.6 -2562.76,4.32 -855.92,-226.28 -1598.52,-654.57 -2227.84,-1283.88l-3511.37 -3511.42 1746.71 -1746.74 3511.38 3511.42c255.25,255.02 538.96,442.47 851.1,561.9 65.07,138.02 135.95,273.08 212.67,405.18 239.53,412.47 532.39,791.89 878.67,1138.16l1.96 0c345.5,345.32 721.69,635.62 1128.55,870.92 16.47,9.52 33,18.95 49.56,28.29z"/>
  <path class="fil1" d="M10525.25 6553.41c629.31,629.32 1058.92,1370.27 1288.19,2223.21 229.26,852.94 230.92,1704.21 4.65,2554.15 -59.97,224.62 -133.92,441.58 -221.9,650.88 -167.24,43.82 -344.94,65.35 -533.05,64.53 -274.66,-1.2 -529.53,-50.97 -764.47,-149.31 -230.63,-96.52 -445.32,-244.14 -643.98,-442.81l-0.96 0.96 -34.55 -35.34 0.08 -0.08 -6.32 -6.72 -3.44 -5 -0.65 0.65 -11.19 -11.86 -10.09 -12.05 -0.65 0.65 -0.22 -0.23 -0.78 0.73 -0.68 -0.74 0.26 -0.23 -10.3 -11.63 -5.86 -5.86 -10.06 -11.01 1.05 -0.95 -10.3 -11.3 -0.21 0.19 -5.11 -6.47 -0.23 0.23c-13.53,-15.76 -26.68,-32.12 -39.96,-48.14l-0.49 0.41 -23.66 -29.39 0.11 -0.09 -27.56 -36.37c-6.43,-6.52 -13.23,-17.06 -18.94,-24.59l-3.18 -3.23 -1.17 -1.57 0.52 -0.35 -0.67 -0.99 -1.95 -1.95 -7.97 -11.63 -6.31 -7.57 1.24 -0.82 -0.66 -0.99 -3.91 -3.91 -16.61 -24.26 -0.33 0.23 -4.25 -7.09 -7.97 -11.29 -0.43 0.3 -4.96 -7.67 0.49 -0.31 -33.17 -51.8 0.45 -0.27 -1 -1.66 -1.93 -1.93 -1.2 -1.88 -0.63 -0.62 -1.09 -1.73 -0.32 0.2 -0.61 -0.99 0.76 -0.45 -22.92 -38.88 -1.44 -2.87c127.69,-298.12 192.32,-621.73 193.75,-970.96 1.57,-361.46 -64.47,-694.8 -198.01,-999.92l8.23 -19.06 -127.22 -217.77c-32.46,-55.58 -69.85,-112.91 -112.12,-172 -74.49,-105.67 -158.66,-207.27 -252.52,-304.81l-12.32 -12.75 -4.6 -4.72c-6.46,-6.6 -12.95,-13.18 -19.48,-19.72l-354.14 -354.85 -0.35 0.35 -1510.79 -1510.8 -1647.08 -1647.09 1737.75 -1737.77 3511.37 3511.42z"/>
  <path class="fil0" d="M9382.26 4703.37l1665.97 -1665.7 1746.71 1746.74 -1673.58 1673.6c-77.72,-88.06 -158.58,-174.1 -242.6,-258.12l-1496.5 -1496.52z"/>
  <path class="fil0" d="M14550.64 13562.95c-629.31,629.32 -1370.26,1058.93 -2223.19,1288.2 -852.92,229.27 -1704.18,230.93 -2554.12,4.65 -849.94,-226.61 -1589.55,-654.24 -2219.2,-1283.55 -635.29,-635.3 -1067.23,-1379.58 -1296.83,-2232.52l-1.32 -5.31 -1.33 -5.32 -1.66 -4.98 -1.33 -5.32 -1.33 -5.31 -1.33 -5.32 -1.33 -5.32 -1 -2.99 -0.66 -1.99 -1.33 -5.32 -1.33 -5.31 -1.33 -5.32 -1.33 -5.32 -1.33 -4.98 -1.33 -5.32 -1.33 -5.31 -0.33 -1.33 -0.99 -3.99 -1.33 -5.32 -1.33 -5.31 -1.33 -4.99 -1.33 -5.31 -1 -5.32 -1.33 -5.32 -1.33 -4.31 0 -1 -1.33 -4.99 -1.32 -5.31 -1.33 -5.32 -1 -5.31 -1.33 -5.32 -1.33 -5.32 -1.33 -4.98 -0.33 -2.33 -0.66 -2.99 -1.33 -5.31 -1.33 -5.32 -1 -5.32 -1.33 -4.98 -1.33 -5.32 -0.99 -5.31 -1.33 -5.32 0 -0.33 -1 -4.99 -1.33 -5.31 -1 -4.99 -1.32 -5.31 -1 -5.32 -1.33 -5.32 -1 -5.31 -0.99 -3.32 -0.34 -1.67 -0.99 -5.31 -1.33 -5.32 -1 -5.31 -1 -5.32 -1.33 -5.32 -0.99 -4.98 -1.66 -6.65 -0.67 -3.98 -0.99 -5.32 -2.33 -10.3 -1 -5.32 -0.99 -5.31 -2.33 -9.97 0 -0.67 -1 -4.98 -0.99 -5.32 -1 -5.31c-150.18,-743.96 -129.25,-1477.93 74.1,-2226.54 152.74,-577.8 397.62,-1104.14 734.4,-1578.87l1446.6 1446.61 0.98 -0.98c130,130.25 237.64,268.4 322.92,414.39 -130.41,302.2 -194.78,632.06 -193.34,989.45 1.33,343.57 63.8,662.22 187.07,955.95l5.65 13.62 4.98 11.63 1 1.99 5.98 13.63 5.32 11.63 0.66 1.99 6.31 13.62 5.32 11.63 1 2 6.31 13.29 5.32 11.63 0.99 1.99 6.65 13.29 5.65 11.63 0.99 1.66 6.65 13.62 5.65 11.3 1 2 6.97 13.29 5.98 11.29 1 1.66 6.98 13.3 6.31 11.62 0.67 1.67 7.31 12.95 6.31 11.63 1 1.67 7.31 12.95 6.64 11.3 1 1.66 7.64 12.96 6.64 11.63 1 1.33 7.64 12.96 6.98 11.3 1 1.66 7.97 12.62 6.98 11.63 1 1.33 7.97 12.63 7.31 11.63 1 0.99 8.3 12.96 7.31 11.3 1 1.33 8.31 12.63 7.97 11.29 0.67 1 8.64 12.63 7.97 11.63 0.66 0.99 8.98 12.3 7.97 11.63 0.67 0.99 8.97 12.3 8.64 11.63 0.66 0.66 8.97 12.29 8.64 11.63 0.66 0.67 9.31 12.29 8.97 11.63 0.66 0.67 9.31 12.29 8.97 11.3 0.66 0.66 9.64 12.3 9.3 11.29 0.67 0.67 9.63 11.96 9.64 11.63 0.33 0.66 10.3 11.97 9.64 11.29 0.33 0.33 10.3 11.97 9.97 11.63 0.33 0.33 10.3 11.96 10.3 11.3 0.33 0.33 10.63 11.63 10.3 11.63 0.34 0.33 10.63 11.63 10.63 11.3 0.33 0.33 10.97 11.63 10.63 11.3 0.33 0.33 10.97 11.3 11.3 11.63 22.59 22.92c488.1,488.11 1074.87,733.66 1760.01,736.65 685.13,2.99 1269.25,-236.91 1751.7,-719.04l3511.37 -3511.41 1737.75 1737.76 -3511.38 3511.42z"/>
 </g>
</svg>
