<svg width="466" height="466" viewBox="0 0 466 466" fill="none" xmlns="http://www.w3.org/2000/svg">
<g filter="url(#filter0_d_2361_3052)">
<circle cx="233" cy="227" r="222" fill="url(#paint0_linear_2361_3052)"/>
<circle cx="233" cy="227" r="221.5" stroke="url(#paint1_linear_2361_3052)" stroke-opacity="0.7"/>
<circle cx="233" cy="227" r="208" fill="url(#paint2_linear_2361_3052)"/>
<g filter="url(#filter1_f_2361_3052)">
<circle cx="233" cy="227" r="189" fill="url(#paint3_linear_2361_3052)" fill-opacity="0.7"/>
</g>
<g filter="url(#filter2_d_2361_3052)">
<path d="M233 8C353.95 8 452 106.05 452 227C452 347.95 353.95 446 233 446C112.05 446 14 347.95 14 227C14 106.05 112.05 8 233 8ZM233 19C118.125 19 25 112.125 25 227C25 341.875 118.125 435 233 435C347.875 435 441 341.875 441 227C441 112.125 347.875 19 233 19Z" fill="url(#paint4_linear_2361_3052)"/>
</g>
<g filter="url(#filter3_dd_2361_3052)">
<circle cx="233" cy="227" r="178" fill="url(#paint5_linear_2361_3052)"/>
<circle cx="233" cy="227" r="177.25" stroke="#231309" stroke-width="1.5"/>
</g>
<g filter="url(#filter4_d_2361_3052)">
<circle cx="233" cy="227" r="206.5" stroke="url(#paint6_linear_2361_3052)" stroke-width="3" shape-rendering="crispEdges"/>
</g>
<g filter="url(#filter5_d_2361_3052)">
<circle cx="233" cy="227" r="174.5" fill="url(#paint7_linear_2361_3052)"/>
<circle cx="233" cy="227" r="174" stroke="url(#paint8_linear_2361_3052)"/>
</g>
<path d="M233 52.5C329.374 52.5 407.5 130.626 407.5 227C407.5 255.425 400.702 282.261 388.646 305.975C400.077 282.756 406.5 256.629 406.5 229C406.5 132.626 328.374 54.5 232 54.5C164.051 54.5 105.175 93.3375 76.3545 150.024C104.797 92.2532 164.255 52.5 233 52.5Z" fill="url(#paint9_linear_2361_3052)"/>
<path d="M233 8C353.95 8 452 106.05 452 227C452 262.959 443.332 296.894 427.974 326.83C442.082 297.885 450 265.367 450 231C450 110.05 351.95 12 231 12C146.009 12 72.327 60.4147 36.0264 131.169C71.5709 58.2458 146.417 8 233 8Z" fill="url(#paint10_linear_2361_3052)"/>
<g style="mix-blend-mode:color-dodge" opacity="0.1">
<mask id="mask0_2361_3052" style="mask-type:alpha" maskUnits="userSpaceOnUse" x="11" y="5" width="444" height="444">
<circle cx="233" cy="227" r="222" fill="url(#paint11_linear_2361_3052)"/>
</mask>
<g mask="url(#mask0_2361_3052)">
<g filter="url(#filter6_f_2361_3052)">
<circle cx="271.5" cy="160.5" r="112.5" fill="#FFF0BE"/>
</g>
<g filter="url(#filter7_f_2361_3052)">
<circle cx="303" cy="129" r="144" fill="#FFF0BE" fill-opacity="0.8"/>
</g>
</g>
</g>
<g filter="url(#filter8_d_2361_3052)">
<path d="M151 176.537C151 173.15 153.752 170.391 157.136 170.537C229.299 173.661 287.246 231.608 290.369 303.771C290.516 307.155 287.757 309.907 284.37 309.907H264.952C261.566 309.907 258.838 307.156 258.649 303.775C255.584 249.11 211.797 205.323 157.132 202.258C153.751 202.068 151 199.341 151 195.955V176.537Z" fill="url(#paint12_linear_2361_3052)"/>
<path d="M151 222.526C151 219.14 153.754 216.373 157.133 216.592C203.892 219.619 241.286 257.014 244.314 303.773C244.533 307.152 241.766 309.906 238.38 309.906H221.006C217.619 309.906 214.905 307.152 214.584 303.781C211.693 273.393 187.513 249.212 157.125 246.321C153.754 246 151 243.286 151 239.899V222.526Z" fill="url(#paint13_linear_2361_3052)"/>
<path d="M151 130.036C151 126.649 153.759 123.894 157.144 124.004C254.986 127.179 333.727 205.92 336.902 303.762C337.012 307.147 334.257 309.906 330.87 309.906H308.387C305 309.906 302.268 307.152 302.133 303.768C298.993 225.114 235.792 161.914 157.138 158.774C153.754 158.639 151 155.907 151 152.52V130.036Z" fill="url(#paint14_linear_2361_3052)"/>
</g>
<g filter="url(#filter9_diii_2361_3052)">
<path d="M151 176.537C151 173.15 153.752 170.391 157.136 170.537C229.299 173.661 287.246 231.608 290.369 303.771C290.516 307.155 287.757 309.907 284.37 309.907H264.952C261.566 309.907 258.838 307.156 258.649 303.775C255.584 249.11 211.797 205.323 157.132 202.258C153.751 202.068 151 199.341 151 195.955V176.537Z" fill="url(#paint15_linear_2361_3052)"/>
<path d="M151 222.526C151 219.14 153.754 216.373 157.133 216.592C203.892 219.619 241.286 257.014 244.314 303.773C244.533 307.152 241.766 309.906 238.38 309.906H221.006C217.619 309.906 214.905 307.152 214.584 303.781C211.693 273.393 187.513 249.212 157.125 246.321C153.754 246 151 243.286 151 239.899V222.526Z" fill="url(#paint16_linear_2361_3052)"/>
<path d="M151 130.036C151 126.649 153.759 123.894 157.144 124.004C254.986 127.179 333.727 205.92 336.902 303.762C337.012 307.147 334.257 309.906 330.87 309.906H308.387C305 309.906 302.268 307.152 302.133 303.768C298.993 225.114 235.792 161.914 157.138 158.774C153.754 158.639 151 155.907 151 152.52V130.036Z" fill="url(#paint17_linear_2361_3052)"/>
<path d="M157.104 171.279C228.882 174.385 286.521 232.024 289.628 303.803C289.755 306.744 287.355 309.164 284.37 309.164H264.952C261.986 309.164 259.559 306.749 259.39 303.734C256.304 248.692 212.216 204.603 157.174 201.517C154.159 201.348 151.742 198.921 151.742 195.954V176.536C151.742 173.552 154.163 171.151 157.104 171.279ZM157.085 217.332C203.472 220.336 240.57 257.434 243.573 303.821C243.762 306.741 241.369 309.163 238.38 309.163H221.006C218.046 309.163 215.612 306.746 215.323 303.71C212.398 272.969 187.937 248.506 157.195 245.581C154.16 245.293 151.742 242.859 151.742 239.899V222.526C151.742 219.537 154.165 217.143 157.085 217.332ZM157.12 124.745C254.571 127.908 332.997 206.335 336.16 303.786C336.256 306.738 333.851 309.163 330.87 309.163H308.387C305.419 309.163 302.994 306.744 302.874 303.738C299.719 224.698 236.208 161.187 157.168 158.033C154.162 157.913 151.742 155.488 151.742 152.52V130.036C151.742 127.055 154.168 124.65 157.12 124.745Z" stroke="url(#paint18_linear_2361_3052)" stroke-width="1.48454"/>
</g>
<circle cx="233" cy="227" r="222" fill="#BC8428" fill-opacity="0.2" style="mix-blend-mode:hard-light"/>
</g>
<defs>
<filter id="filter0_d_2361_3052" x="0" y="0" width="466" height="466" filterUnits="userSpaceOnUse" color-interpolation-filters="sRGB">
<feFlood flood-opacity="0" result="BackgroundImageFix"/>
<feColorMatrix in="SourceAlpha" type="matrix" values="0 0 0 0 0 0 0 0 0 0 0 0 0 0 0 0 0 0 127 0" result="hardAlpha"/>
<feOffset dy="6"/>
<feGaussianBlur stdDeviation="5.5"/>
<feComposite in2="hardAlpha" operator="out"/>
<feColorMatrix type="matrix" values="0 0 0 0 0 0 0 0 0 0 0 0 0 0 0 0 0 0 0.15 0"/>
<feBlend mode="normal" in2="BackgroundImageFix" result="effect1_dropShadow_2361_3052"/>
<feBlend mode="normal" in="SourceGraphic" in2="effect1_dropShadow_2361_3052" result="shape"/>
</filter>
<filter id="filter1_f_2361_3052" x="20" y="14" width="426" height="426" filterUnits="userSpaceOnUse" color-interpolation-filters="sRGB">
<feFlood flood-opacity="0" result="BackgroundImageFix"/>
<feBlend mode="normal" in="SourceGraphic" in2="BackgroundImageFix" result="shape"/>
<feGaussianBlur stdDeviation="12" result="effect1_foregroundBlur_2361_3052"/>
</filter>
<filter id="filter2_d_2361_3052" x="11" y="6" width="444" height="444" filterUnits="userSpaceOnUse" color-interpolation-filters="sRGB">
<feFlood flood-opacity="0" result="BackgroundImageFix"/>
<feColorMatrix in="SourceAlpha" type="matrix" values="0 0 0 0 0 0 0 0 0 0 0 0 0 0 0 0 0 0 127 0" result="hardAlpha"/>
<feOffset dy="1"/>
<feGaussianBlur stdDeviation="1.5"/>
<feComposite in2="hardAlpha" operator="out"/>
<feColorMatrix type="matrix" values="0 0 0 0 0 0 0 0 0 0 0 0 0 0 0 0 0 0 0.25 0"/>
<feBlend mode="normal" in2="BackgroundImageFix" result="effect1_dropShadow_2361_3052"/>
<feBlend mode="normal" in="SourceGraphic" in2="effect1_dropShadow_2361_3052" result="shape"/>
</filter>
<filter id="filter3_dd_2361_3052" x="54.5" y="47" width="357" height="360" filterUnits="userSpaceOnUse" color-interpolation-filters="sRGB">
<feFlood flood-opacity="0" result="BackgroundImageFix"/>
<feColorMatrix in="SourceAlpha" type="matrix" values="0 0 0 0 0 0 0 0 0 0 0 0 0 0 0 0 0 0 127 0" result="hardAlpha"/>
<feOffset dy="1.5"/>
<feGaussianBlur stdDeviation="0.25"/>
<feComposite in2="hardAlpha" operator="out"/>
<feColorMatrix type="matrix" values="0 0 0 0 0.992157 0 0 0 0 0.956863 0 0 0 0 0.592157 0 0 0 1 0"/>
<feBlend mode="normal" in2="BackgroundImageFix" result="effect1_dropShadow_2361_3052"/>
<feColorMatrix in="SourceAlpha" type="matrix" values="0 0 0 0 0 0 0 0 0 0 0 0 0 0 0 0 0 0 127 0" result="hardAlpha"/>
<feOffset dy="-2"/>
<feComposite in2="hardAlpha" operator="out"/>
<feColorMatrix type="matrix" values="0 0 0 0 0.540686 0 0 0 0 0.347328 0 0 0 0 0 0 0 0 1 0"/>
<feBlend mode="normal" in2="effect1_dropShadow_2361_3052" result="effect2_dropShadow_2361_3052"/>
<feBlend mode="normal" in="SourceGraphic" in2="effect2_dropShadow_2361_3052" result="shape"/>
</filter>
<filter id="filter4_d_2361_3052" x="24" y="18" width="418" height="418" filterUnits="userSpaceOnUse" color-interpolation-filters="sRGB">
<feFlood flood-opacity="0" result="BackgroundImageFix"/>
<feColorMatrix in="SourceAlpha" type="matrix" values="0 0 0 0 0 0 0 0 0 0 0 0 0 0 0 0 0 0 127 0" result="hardAlpha"/>
<feOffset/>
<feGaussianBlur stdDeviation="0.5"/>
<feComposite in2="hardAlpha" operator="out"/>
<feColorMatrix type="matrix" values="0 0 0 0 1 0 0 0 0 1 0 0 0 0 1 0 0 0 0.85 0"/>
<feBlend mode="normal" in2="BackgroundImageFix" result="effect1_dropShadow_2361_3052"/>
<feBlend mode="normal" in="SourceGraphic" in2="effect1_dropShadow_2361_3052" result="shape"/>
</filter>
<filter id="filter5_d_2361_3052" x="54.5" y="50.5" width="357" height="357" filterUnits="userSpaceOnUse" color-interpolation-filters="sRGB">
<feFlood flood-opacity="0" result="BackgroundImageFix"/>
<feColorMatrix in="SourceAlpha" type="matrix" values="0 0 0 0 0 0 0 0 0 0 0 0 0 0 0 0 0 0 127 0" result="hardAlpha"/>
<feOffset dy="2"/>
<feGaussianBlur stdDeviation="2"/>
<feComposite in2="hardAlpha" operator="out"/>
<feColorMatrix type="matrix" values="0 0 0 0 0 0 0 0 0 0 0 0 0 0 0 0 0 0 0.14 0"/>
<feBlend mode="normal" in2="BackgroundImageFix" result="effect1_dropShadow_2361_3052"/>
<feBlend mode="normal" in="SourceGraphic" in2="effect1_dropShadow_2361_3052" result="shape"/>
</filter>
<filter id="filter6_f_2361_3052" x="85" y="-26" width="373" height="373" filterUnits="userSpaceOnUse" color-interpolation-filters="sRGB">
<feFlood flood-opacity="0" result="BackgroundImageFix"/>
<feBlend mode="normal" in="SourceGraphic" in2="BackgroundImageFix" result="shape"/>
<feGaussianBlur stdDeviation="37" result="effect1_foregroundBlur_2361_3052"/>
</filter>
<filter id="filter7_f_2361_3052" x="85" y="-89" width="436" height="436" filterUnits="userSpaceOnUse" color-interpolation-filters="sRGB">
<feFlood flood-opacity="0" result="BackgroundImageFix"/>
<feBlend mode="normal" in="SourceGraphic" in2="BackgroundImageFix" result="shape"/>
<feGaussianBlur stdDeviation="37" result="effect1_foregroundBlur_2361_3052"/>
</filter>
<filter id="filter8_d_2361_3052" x="151" y="123.5" width="185.906" height="186.407" filterUnits="userSpaceOnUse" color-interpolation-filters="sRGB">
<feFlood flood-opacity="0" result="BackgroundImageFix"/>
<feColorMatrix in="SourceAlpha" type="matrix" values="0 0 0 0 0 0 0 0 0 0 0 0 0 0 0 0 0 0 127 0" result="hardAlpha"/>
<feOffset dy="-0.5"/>
<feComposite in2="hardAlpha" operator="out"/>
<feColorMatrix type="matrix" values="0 0 0 0 0.380392 0 0 0 0 0.192157 0 0 0 0 0.0745098 0 0 0 1 0"/>
<feBlend mode="normal" in2="BackgroundImageFix" result="effect1_dropShadow_2361_3052"/>
<feBlend mode="normal" in="SourceGraphic" in2="effect1_dropShadow_2361_3052" result="shape"/>
</filter>
<filter id="filter9_diii_2361_3052" x="148" y="124" width="188.906" height="192.837" filterUnits="userSpaceOnUse" color-interpolation-filters="sRGB">
<feFlood flood-opacity="0" result="BackgroundImageFix"/>
<feColorMatrix in="SourceAlpha" type="matrix" values="0 0 0 0 0 0 0 0 0 0 0 0 0 0 0 0 0 0 127 0" result="hardAlpha"/>
<feOffset dx="-1.5" dy="2.5"/>
<feGaussianBlur stdDeviation="0.5"/>
<feComposite in2="hardAlpha" operator="out"/>
<feColorMatrix type="matrix" values="0 0 0 0 1 0 0 0 0 0.978666 0 0 0 0 0.487993 0 0 0 1 0"/>
<feBlend mode="normal" in2="BackgroundImageFix" result="effect1_dropShadow_2361_3052"/>
<feBlend mode="normal" in="SourceGraphic" in2="effect1_dropShadow_2361_3052" result="shape"/>
<feColorMatrix in="SourceAlpha" type="matrix" values="0 0 0 0 0 0 0 0 0 0 0 0 0 0 0 0 0 0 127 0" result="hardAlpha"/>
<feOffset dx="-3" dy="5.76"/>
<feGaussianBlur stdDeviation="5.4"/>
<feComposite in2="hardAlpha" operator="arithmetic" k2="-1" k3="1"/>
<feColorMatrix type="matrix" values="0 0 0 0 0.226767 0 0 0 0 0.159748 0 0 0 0 0.0394177 0 0 0 0.68 0"/>
<feBlend mode="normal" in2="shape" result="effect2_innerShadow_2361_3052"/>
<feColorMatrix in="SourceAlpha" type="matrix" values="0 0 0 0 0 0 0 0 0 0 0 0 0 0 0 0 0 0 127 0" result="hardAlpha"/>
<feOffset dy="6.93"/>
<feGaussianBlur stdDeviation="10.385"/>
<feComposite in2="hardAlpha" operator="arithmetic" k2="-1" k3="1"/>
<feColorMatrix type="matrix" values="0 0 0 0 0 0 0 0 0 0 0 0 0 0 0 0 0 0 0.3 0"/>
<feBlend mode="normal" in2="effect2_innerShadow_2361_3052" result="effect3_innerShadow_2361_3052"/>
<feColorMatrix in="SourceAlpha" type="matrix" values="0 0 0 0 0 0 0 0 0 0 0 0 0 0 0 0 0 0 127 0" result="hardAlpha"/>
<feOffset dy="4"/>
<feGaussianBlur stdDeviation="5.5"/>
<feComposite in2="hardAlpha" operator="arithmetic" k2="-1" k3="1"/>
<feColorMatrix type="matrix" values="0 0 0 0 0 0 0 0 0 0 0 0 0 0 0 0 0 0 0.42 0"/>
<feBlend mode="normal" in2="effect3_innerShadow_2361_3052" result="effect4_innerShadow_2361_3052"/>
</filter>
<linearGradient id="paint0_linear_2361_3052" x1="349.403" y1="41.8363" x2="100.881" y2="399.394" gradientUnits="userSpaceOnUse">
<stop stop-color="#936E22"/>
<stop offset="1" stop-color="#4F3912"/>
</linearGradient>
<linearGradient id="paint1_linear_2361_3052" x1="350.385" y1="44.292" x2="190.547" y2="431.928" gradientUnits="userSpaceOnUse">
<stop stop-color="#E7A733"/>
<stop offset="1" stop-color="#815D1D" stop-opacity="0.7"/>
</linearGradient>
<linearGradient id="paint2_linear_2361_3052" x1="328" y1="49" x2="189.5" y2="424" gradientUnits="userSpaceOnUse">
<stop stop-color="#BD8F2F"/>
<stop offset="1" stop-color="#885B00"/>
</linearGradient>
<linearGradient id="paint3_linear_2361_3052" x1="279.5" y1="52" x2="162.5" y2="412" gradientUnits="userSpaceOnUse">
<stop stop-color="#FFD265"/>
<stop offset="1" stop-color="#271B07" stop-opacity="0.58"/>
</linearGradient>
<linearGradient id="paint4_linear_2361_3052" x1="341.5" y1="47.5" x2="146" y2="415.5" gradientUnits="userSpaceOnUse">
<stop stop-color="#F5D768"/>
<stop offset="1" stop-color="#886219"/>
</linearGradient>
<linearGradient id="paint5_linear_2361_3052" x1="313.867" y1="49" x2="152.133" y2="405" gradientUnits="userSpaceOnUse">
<stop stop-color="#9D7020"/>
<stop offset="1" stop-color="#815811"/>
</linearGradient>
<linearGradient id="paint6_linear_2361_3052" x1="328.333" y1="42.451" x2="187.118" y2="417.667" gradientUnits="userSpaceOnUse">
<stop stop-color="#7C4D01"/>
<stop offset="0.490417" stop-color="#B07E23"/>
<stop offset="1" stop-color="#FCF491"/>
</linearGradient>
<linearGradient id="paint7_linear_2361_3052" x1="330" y1="17" x2="165" y2="389" gradientUnits="userSpaceOnUse">
<stop stop-color="#FFD962"/>
<stop offset="1" stop-color="#6F4B0B"/>
</linearGradient>
<linearGradient id="paint8_linear_2361_3052" x1="308.5" y1="-20" x2="153.5" y2="359" gradientUnits="userSpaceOnUse">
<stop stop-color="#D8B247"/>
<stop offset="1" stop-color="#401800"/>
</linearGradient>
<linearGradient id="paint9_linear_2361_3052" x1="271" y1="60.5" x2="125" y2="477" gradientUnits="userSpaceOnUse">
<stop stop-color="#FFFEC8"/>
<stop offset="1" stop-color="#6F4B0B" stop-opacity="0"/>
</linearGradient>
<linearGradient id="paint10_linear_2361_3052" x1="313" y1="22" x2="244.013" y2="326.83" gradientUnits="userSpaceOnUse">
<stop stop-color="#FEFFD8"/>
<stop offset="1" stop-color="#D9B64C"/>
</linearGradient>
<linearGradient id="paint11_linear_2361_3052" x1="349.403" y1="41.8363" x2="100.881" y2="399.394" gradientUnits="userSpaceOnUse">
<stop stop-color="#B58328"/>
<stop offset="1" stop-color="#4F3912"/>
</linearGradient>
<linearGradient id="paint12_linear_2361_3052" x1="227.183" y1="114.897" x2="243.953" y2="309.907" gradientUnits="userSpaceOnUse">
<stop stop-color="#8B5F1A"/>
<stop offset="0.863152" stop-color="#A2701A"/>
</linearGradient>
<linearGradient id="paint13_linear_2361_3052" x1="227.183" y1="114.897" x2="243.953" y2="309.907" gradientUnits="userSpaceOnUse">
<stop stop-color="#8B5F1A"/>
<stop offset="0.863152" stop-color="#A2701A"/>
</linearGradient>
<linearGradient id="paint14_linear_2361_3052" x1="227.183" y1="114.897" x2="243.953" y2="309.907" gradientUnits="userSpaceOnUse">
<stop stop-color="#8B5F1A"/>
<stop offset="0.863152" stop-color="#A2701A"/>
</linearGradient>
<linearGradient id="paint15_linear_2361_3052" x1="214" y1="57" x2="244" y2="379" gradientUnits="userSpaceOnUse">
<stop stop-color="#875B1B"/>
<stop offset="1" stop-color="#BA8D2B"/>
</linearGradient>
<linearGradient id="paint16_linear_2361_3052" x1="214" y1="57" x2="244" y2="379" gradientUnits="userSpaceOnUse">
<stop stop-color="#875B1B"/>
<stop offset="1" stop-color="#BA8D2B"/>
</linearGradient>
<linearGradient id="paint17_linear_2361_3052" x1="214" y1="57" x2="244" y2="379" gradientUnits="userSpaceOnUse">
<stop stop-color="#875B1B"/>
<stop offset="1" stop-color="#BA8D2B"/>
</linearGradient>
<linearGradient id="paint18_linear_2361_3052" x1="243.953" y1="170.477" x2="228.46" y2="337.018" gradientUnits="userSpaceOnUse">
<stop stop-color="#764700"/>
<stop offset="1" stop-color="#A87500"/>
</linearGradient>
</defs>
</svg>
