<svg width="1000" height="1000" viewBox="0 0 1000 1000" fill="none" xmlns="http://www.w3.org/2000/svg">
<g clip-path="url(#clip0_2_79)">
<path d="M980 500C980 765.097 765.097 980 500 980C234.903 980 20 765.097 20 500C20 234.903 234.903 20 500 20C765.097 20 980 234.903 980 500Z" fill="black" stroke="#FD6F3E" stroke-width="40"/>
<path d="M596.45 519.296C594.456 528.556 591.248 537.513 586.913 545.933C582.293 554.254 576.626 561.946 570.048 568.819C563.184 575.404 555.505 581.08 547.2 585.709C538.784 590.036 529.842 593.252 520.6 595.274C511.224 596.915 501.679 597.383 492.186 596.667C482.779 595.565 473.553 593.244 464.741 589.767C455.973 586.044 447.723 581.201 440.196 575.357C432.949 569.187 426.525 562.11 421.08 554.297C415.966 546.317 411.903 537.711 408.99 528.689C406.419 519.515 405.018 510.052 404.817 500.527H468.712C469.016 503.715 469.582 506.874 470.404 509.97C471.493 512.971 472.848 515.868 474.455 518.628C476.442 521.232 478.646 523.663 481.045 525.892C483.641 527.807 486.415 529.469 489.327 530.854C492.314 531.968 495.417 532.747 498.575 533.176C501.792 533.407 505.025 533.346 508.232 532.994C511.285 532.196 514.257 531.122 517.117 529.787C519.905 527.992 522.541 525.968 524.996 523.737C527.226 521.284 529.247 518.651 531.041 515.865C532.377 512.982 533.449 509.984 534.243 506.905C534.684 503.637 534.846 500.335 534.73 497.038C534.26 493.873 533.469 490.765 532.37 487.761C530.991 484.843 529.335 482.066 527.425 479.464C525.2 477.061 522.773 474.853 520.171 472.864C517.426 471.232 514.527 469.872 511.516 468.807C508.364 468.027 505.146 467.54 501.905 467.357H252.782V403.605H501.661C511.173 403.775 520.621 405.18 529.771 407.783C538.78 410.699 547.376 414.769 555.343 419.891C563.145 425.335 570.216 431.765 576.379 439.02C582.253 446.434 587.149 454.573 590.95 463.236C594.416 472.021 596.731 481.217 597.841 490.597C598.58 500.184 598.112 509.826 596.45 519.296Z" fill="url(#paint0_linear_2_79)"/>
<path d="M668.994 533.645C665.613 550.119 659.934 566.036 652.128 580.927C644.059 595.637 634.033 609.18 622.323 621.185C610.318 632.892 596.798 642.93 582.123 651.03C567.244 658.825 551.355 664.507 534.912 667.923C518.457 671.013 501.658 671.849 484.978 670.403C468.38 668.601 452.109 664.526 436.616 658.295C421.199 651.73 406.758 643.073 393.697 632.566C380.88 621.742 369.576 609.24 360.09 595.396C350.888 581.346 343.683 566.081 338.683 550.043C334.012 533.883 331.552 517.164 331.371 500.342H393.816C393.993 510.974 395.558 521.535 398.471 531.761C401.673 541.845 406.208 551.455 411.952 560.337C418.021 569.074 425.193 576.99 433.29 583.887C441.572 590.502 450.701 595.978 460.434 600.169C470.263 604.089 480.572 606.674 491.084 607.859C501.667 608.699 512.312 608.171 522.759 606.285C533.113 604.109 543.121 600.525 552.503 595.631C561.774 590.472 570.33 584.119 577.952 576.734C585.332 569.048 591.695 560.441 596.879 551.126C601.716 541.708 605.293 531.694 607.517 521.339C609.38 510.875 609.888 500.214 609.027 489.619C607.876 479.085 605.293 468.757 601.353 458.924C597.194 449.221 591.788 440.102 585.271 431.803C578.385 423.713 570.48 416.551 561.754 410.496C552.886 404.747 543.289 400.211 533.22 397.01C523.01 394.1 512.463 392.54 501.847 392.368H252.782V329.508H501.661C518.424 329.69 535.083 332.176 551.17 336.896C567.199 341.912 582.457 349.124 596.512 358.327C610.337 367.825 622.822 379.145 633.629 391.981C644.129 405.067 652.793 419.528 659.383 434.963C665.574 450.487 669.643 466.778 671.473 483.395C672.937 500.179 672.103 517.086 668.994 533.645Z" fill="url(#paint1_linear_2_79)"/>
<path d="M742.44 548.236C737.619 571.966 729.473 594.894 718.248 616.341C706.733 637.557 692.29 657.041 675.339 674.216C658.162 691.16 638.711 705.623 617.548 717.197C596.131 728.44 573.237 736.589 549.541 741.413C525.881 745.921 501.706 747.084 477.724 744.863C453.677 742.362 430.106 736.451 407.718 727.309C385.472 717.975 364.653 705.542 345.875 690.382C327.389 674.908 311.116 656.96 297.513 637.045C284.231 616.834 273.873 594.842 266.746 571.724C259.902 548.545 256.34 524.519 256.166 500.35H319.825C320.021 518.242 322.665 536.025 327.682 553.199C333.008 570.33 340.699 586.632 350.534 601.63C360.598 616.405 372.639 629.727 386.319 641.224C400.254 652.422 415.65 661.664 432.081 668.689C448.673 675.373 466.106 679.733 483.888 681.644C501.6 683.156 519.434 682.262 536.906 678.978C554.439 675.319 571.371 669.207 587.203 660.82C602.869 652.221 617.292 641.529 630.079 629.034C642.629 616.288 653.387 601.888 662.06 586.234C670.441 570.381 676.553 553.424 680.215 535.864C683.495 518.288 684.367 500.345 682.814 482.532C680.926 464.728 676.592 447.269 669.939 430.649C662.925 414.194 653.697 398.776 642.514 384.821C631.02 371.117 617.72 359.04 602.979 348.923C573.036 328.955 537.876 318.278 501.901 318.227H252.782V254.5H501.661C525.878 254.651 549.953 258.218 573.177 265.095C596.265 272.252 618.226 282.646 638.404 295.969C658.332 309.54 676.26 325.842 691.663 344.4C706.852 363.182 719.325 384.009 728.719 406.271C737.839 428.713 743.741 452.336 746.249 476.435C748.334 500.43 747.052 524.598 742.44 548.236Z" fill="url(#paint2_linear_2_79)"/>
</g>
<defs>
<linearGradient id="paint0_linear_2_79" x1="252.782" y1="408.294" x2="411.796" y2="689.251" gradientUnits="userSpaceOnUse">
<stop stop-color="#ED2A24"/>
<stop offset="1" stop-color="#F3AE1B"/>
</linearGradient>
<linearGradient id="paint1_linear_2_79" x1="252.782" y1="337.789" x2="574.3" y2="728.306" gradientUnits="userSpaceOnUse">
<stop stop-color="#ED2A24"/>
<stop offset="1" stop-color="#F3AE1B"/>
</linearGradient>
<linearGradient id="paint2_linear_2_79" x1="252.782" y1="266.414" x2="724.135" y2="735.533" gradientUnits="userSpaceOnUse">
<stop stop-color="#ED2A24"/>
<stop offset="1" stop-color="#F3AE1B"/>
</linearGradient>
<clipPath id="clip0_2_79">
<rect width="1000" height="1000" fill="white"/>
</clipPath>
</defs>
</svg>
