<svg xmlns="http://www.w3.org/2000/svg" fill="none" viewBox="0 0 240 240"><g clip-path="url(#a)"><circle cx="120" cy="120" r="114" fill="url(#b)" stroke="#fff" stroke-width="12"/><circle cx="120" cy="120" r="88" fill="#FFFEFE"/><path fill="#1C1C1C" fill-rule="evenodd" d="M144.903 128.071c21.927 3.242 37.227 10.576 37.227 19.104 0 11.533-27.98 20.882-62.494 20.882-34.514 0-62.493-9.349-62.493-20.882 0-8.528 15.299-15.862 37.226-19.104 7.532 1.531 16.133 2.399 25.267 2.399 8.905 0 17.304-.825 24.699-2.284l.568-.115ZM135.453 93.736c19.86 2.211 34.178 8.473 34.178 15.852 0 9.226-22.383 16.705-49.994 16.705-27.612 0-49.995-7.479-49.995-16.705 0-7.379 14.319-13.64 34.178-15.852 4.865.795 10.209 1.235 15.817 1.235 5.411 0 10.577-.41 15.304-1.153l.512-.082Z" clip-rule="evenodd"/><path fill="#1C1C1C" d="M119.636 91.63c20.709 0 37.496-5.61 37.496-12.53 0-6.92-16.787-12.529-37.496-12.529-20.708 0-37.496 5.61-37.496 12.53 0 6.92 16.788 12.529 37.496 12.529Z"/><g filter="url(#c)"><rect width="96" height="96" x="114" y="114" fill="url(#d)" rx="46.731"/><path fill="#F1F1F1" d="M188.833 158.675a72.371 72.371 0 0 0-2.118-.419 26.484 26.484 0 0 0-1.084-4.892c9.533 1.534 15.696 3.973 15.696 6.72 0 .031 0 .061-.002.092-.227 4.601-17.747 8.316-39.325 8.316-21.72 0-39.327-3.764-39.327-8.407 0-.028 0-.057.002-.085.126-2.745 6.404-5.174 16.028-6.689a26.516 26.516 0 0 0-1.093 4.886c-.85.152-1.665.312-2.443.478a54.973 54.973 0 0 0-2.797.671v.001c-.903.244-1.707.491-2.412.738 1.366.478 3.103.958 5.209 1.409.714.152 1.459.299 2.233.439v.002c6.508 1.18 15.097 1.919 24.6 1.919 9.658 0 18.373-.763 24.918-1.978v-.001c.661-.123 1.3-.25 1.915-.381 2.107-.451 3.844-.932 5.211-1.41-1.367-.478-3.104-.959-5.211-1.409ZM191.629 145.584l.001-.065c0-2.479-6.583-4.626-16.185-5.673a25.271 25.271 0 0 1 6.009 5.596l.37.077-.268.055.001.001c-4.892 1.006-11.719 1.658-19.377 1.658-7.678 0-14.519-.655-19.414-1.665l.001-.001a92.343 92.343 0 0 1-.232-.048l.321-.067a25.265 25.265 0 0 1 6.008-5.6c-9.574 1.048-16.135 3.192-16.135 5.667v.001c0 3.096 14.258 5.557 23.868 6.237 2.151.153 5.518.163 5.518.163 1.188.052 3.353-.009 5.495-.156 9.662-.667 23.877-3.101 24.019-6.18ZM132.729 177.65c0-1.619 2.81-3.097 7.436-4.219a25.917 25.917 0 0 0 2.6 4.171l-.23.048c.105.023.211.045.318.066a.468.468 0 0 1 .02.027h.106c4.879.986 11.633 1.622 19.201 1.622 7.567 0 14.321-.636 19.2-1.622h.064l.013-.016.367-.077-.266-.055a25.93 25.93 0 0 0 2.599-4.173c4.648 1.123 7.473 2.605 7.473 4.228l-.003.093c-.227 3.466-13.324 6.26-29.447 6.26-16.124 0-29.221-2.794-29.448-6.26a1.444 1.444 0 0 1-.003-.093Z"/></g></g><defs><linearGradient id="b" x1="120" x2="-245.56" y1="-256.44" y2="-9.981" gradientUnits="userSpaceOnUse"><stop offset=".208" stop-color="#6425D7"/><stop offset="1" stop-color="#C668E8"/></linearGradient><linearGradient id="d" x1="205.2" x2="149.44" y1="141.733" y2="138.908" gradientUnits="userSpaceOnUse"><stop stop-color="#7532DA"/><stop offset="1" stop-color="#8940DB"/></linearGradient><clipPath id="a"><path fill="#fff" d="M0 0h240v240H0z"/></clipPath><filter id="c" width="100" height="100" x="114" y="114" color-interpolation-filters="sRGB" filterUnits="userSpaceOnUse"><feFlood flood-opacity="0" result="BackgroundImageFix"/><feBlend in="SourceGraphic" in2="BackgroundImageFix" result="shape"/><feColorMatrix in="SourceAlpha" result="hardAlpha" values="0 0 0 0 0 0 0 0 0 0 0 0 0 0 0 0 0 0 127 0"/><feOffset dx="4" dy="4"/><feGaussianBlur stdDeviation="2"/><feComposite in2="hardAlpha" k2="-1" k3="1" operator="arithmetic"/><feColorMatrix values="0 0 0 0 0 0 0 0 0 0 0 0 0 0 0 0 0 0 0.16 0"/><feBlend in2="shape" result="effect1_innerShadow_438_379"/></filter></defs></svg>