<svg width="200" height="200" viewBox="0 0 200 200" fill="none" xmlns="http://www.w3.org/2000/svg">
<rect x="32.3047" y="56.9219" width="12.3077" height="12.3077" fill="#D9E2F4"/>
<rect x="32.3047" y="69.2305" width="12.3077" height="12.3077" fill="#7D8084"/>
<rect x="32.3047" y="81.5391" width="12.3077" height="12.3077" fill="#7D8084"/>
<rect x="32.3047" y="93.8477" width="12.3077" height="12.3077" fill="#D9E2F4"/>
<rect x="32.3047" y="106.152" width="12.3077" height="12.3077" fill="#7D8084"/>
<rect x="32.3047" y="118.461" width="12.3077" height="12.3077" fill="#7D8084"/>
<rect x="20" y="69.2305" width="12.3077" height="12.3077" fill="#D9E2F4"/>
<rect x="20" y="81.5391" width="12.3077" height="12.3077" fill="#D9E2F4"/>
<rect x="20" y="93.8477" width="12.3077" height="12.3077" fill="#D9E2F4"/>
<rect x="20" y="106.152" width="12.3077" height="12.3077" fill="#D9E2F4"/>
<rect x="20" y="118.461" width="12.3077" height="12.3077" fill="#D9E2F4"/>
<rect x="32.3047" y="130.77" width="12.3077" height="12.3077" fill="#D9E2F4"/>
<rect x="44.6172" y="44.6172" width="12.3077" height="12.3077" fill="#D9E2F4"/>
<rect x="44.6172" y="56.9219" width="12.3077" height="12.3077" fill="#7D8084"/>
<rect x="44.6172" y="69.2305" width="12.3077" height="12.3077" fill="#7D8084"/>
<rect x="44.6172" y="81.5391" width="12.3077" height="12.3077" fill="#D9E2F4"/>
<rect x="44.6172" y="93.8477" width="12.3077" height="12.3077" fill="#7D8084"/>
<rect x="44.6172" y="106.152" width="12.3077" height="12.3077" fill="#D9E2F4"/>
<rect x="44.6172" y="118.461" width="12.3077" height="12.3077" fill="#7D8084"/>
<rect x="44.6172" y="130.77" width="12.3077" height="12.3077" fill="#7D8084"/>
<rect x="44.6172" y="143.078" width="12.3077" height="12.3077" fill="#D9E2F4"/>
<rect x="56.9219" y="32.3086" width="12.3077" height="12.3077" fill="#D9E2F4"/>
<rect x="56.9219" y="44.6172" width="12.3077" height="12.3077" fill="#7D8084"/>
<rect x="56.9219" y="56.9219" width="12.3077" height="12.3077" fill="#7D8084"/>
<rect x="56.9219" y="69.2305" width="12.3077" height="12.3077" fill="#D9E2F4"/>
<rect x="56.9219" y="81.5391" width="12.3077" height="12.3077" fill="#7D8084"/>
<rect x="56.9219" y="93.8477" width="12.3077" height="12.3077" fill="#7D8084"/>
<rect x="56.9219" y="106.152" width="12.3077" height="12.3077" fill="#7D8084"/>
<rect x="56.9219" y="118.461" width="12.3077" height="12.3077" fill="#D9E2F4"/>
<rect x="56.9219" y="130.77" width="12.3077" height="12.3077" fill="#7D8084"/>
<rect x="56.9219" y="143.078" width="12.3077" height="12.3077" fill="#7D8084"/>
<rect x="56.9219" y="155.383" width="12.3077" height="12.3077" fill="#D9E2F4"/>
<rect x="69.2344" y="32.3086" width="12.3077" height="12.3077" fill="#7D8084"/>
<rect x="69.2344" y="20" width="12.3077" height="12.3077" fill="#D9E2F4"/>
<rect x="69.2344" y="44.6172" width="12.3077" height="12.3077" fill="#7D8084"/>
<rect x="69.2344" y="56.9219" width="12.3077" height="12.3077" fill="#D9E2F4"/>
<rect x="69.2344" y="69.2305" width="12.3077" height="12.3077" fill="#7D8084"/>
<rect x="69.2344" y="81.5391" width="12.3077" height="12.3077" fill="#7D8084"/>
<rect x="69.2344" y="93.8477" width="12.3077" height="12.3077" fill="#D9E2F4"/>
<rect x="69.2344" y="106.152" width="12.3077" height="12.3077" fill="#7D8084"/>
<rect x="69.2344" y="118.461" width="12.3077" height="12.3077" fill="#7D8084"/>
<rect x="69.2344" y="130.77" width="12.3077" height="12.3077" fill="#D9E2F4"/>
<rect x="69.2344" y="143.078" width="12.3077" height="12.3077" fill="#7D8084"/>
<rect x="81.5391" y="32.3086" width="12.3077" height="12.3077" fill="#7D8084"/>
<rect x="69.2344" y="155.383" width="12.3077" height="12.3077" fill="#7D8084"/>
<rect x="69.2344" y="167.691" width="12.3077" height="12.3077" fill="#D9E2F4"/>
<rect x="81.5391" y="20" width="12.3077" height="12.3077" fill="#D9E2F4"/>
<rect x="81.5391" y="44.6172" width="12.3077" height="12.3077" fill="#D9E2F4"/>
<rect x="81.5391" y="56.9219" width="12.3077" height="12.3077" fill="#7D8084"/>
<rect x="81.5391" y="69.2305" width="12.3077" height="12.3077" fill="#7D8084"/>
<rect x="81.5391" y="81.5391" width="12.3077" height="12.3077" fill="#D9E2F4"/>
<rect x="81.5391" y="93.8477" width="12.3077" height="12.3077" fill="#7D8084"/>
<rect x="81.5391" y="106.152" width="12.3077" height="12.3077" fill="#D9E2F4"/>
<rect x="81.5391" y="118.461" width="12.3077" height="12.3077" fill="#7D8084"/>
<rect x="81.5391" y="130.77" width="12.3077" height="12.3077" fill="#7D8084"/>
<rect x="93.8438" y="32.3086" width="12.3077" height="12.3077" fill="#D9E2F4"/>
<rect x="81.5391" y="155.383" width="12.3077" height="12.3077" fill="#7D8084"/>
<rect x="81.5391" y="143.078" width="12.3077" height="12.3077" fill="#D9E2F4"/>
<rect x="81.5391" y="167.691" width="12.3077" height="12.3077" fill="#D9E2F4"/>
<rect x="93.8438" y="20" width="12.3077" height="12.3077" fill="#D9E2F4"/>
<rect x="93.8438" y="44.6172" width="12.3077" height="12.3077" fill="#7D8084"/>
<rect x="93.8438" y="56.9219" width="12.3077" height="12.3077" fill="#7D8084"/>
<rect x="93.8438" y="69.2305" width="12.3077" height="12.3077" fill="#D9E2F4"/>
<rect x="93.8438" y="81.5391" width="12.3077" height="12.3077" fill="#7D8084"/>
<rect x="93.8438" y="93.8477" width="12.3077" height="12.3077" fill="#7D8084"/>
<rect x="93.8438" y="106.152" width="12.3077" height="12.3077" fill="#7D8084"/>
<rect x="93.8438" y="118.461" width="12.3077" height="12.3077" fill="#D9E2F4"/>
<rect x="93.8438" y="155.383" width="12.3077" height="12.3077" fill="#D9E2F4"/>
<rect x="93.8438" y="130.77" width="12.3077" height="12.3077" fill="#7D8084"/>
<rect x="93.8438" y="143.078" width="12.3077" height="12.3077" fill="#7D8084"/>
<rect x="93.8438" y="167.691" width="12.3077" height="12.3077" fill="#D9E2F4"/>
<rect x="106.156" y="32.3086" width="12.3077" height="12.3077" fill="#7D8084"/>
<rect x="106.156" y="20" width="12.3077" height="12.3077" fill="#D9E2F4"/>
<rect x="106.156" y="44.6172" width="12.3077" height="12.3077" fill="#D9E2F4"/>
<rect x="106.156" y="56.9219" width="12.3077" height="12.3077" fill="#7D8084"/>
<rect x="106.156" y="69.2305" width="12.3077" height="12.3077" fill="#7D8084"/>
<rect x="106.156" y="81.5391" width="12.3077" height="12.3077" fill="#D9E2F4"/>
<rect x="106.156" y="93.8477" width="12.3077" height="12.3077" fill="#7D8084"/>
<rect x="118.461" y="32.3086" width="12.3077" height="12.3077" fill="#7D8084"/>
<rect x="106.156" y="155.383" width="12.3077" height="12.3077" fill="#7D8084"/>
<rect x="106.156" y="106.152" width="12.3077" height="12.3077" fill="#D9E2F4"/>
<rect x="106.156" y="118.461" width="12.3077" height="12.3077" fill="#7D8084"/>
<rect x="106.156" y="130.77" width="12.3077" height="12.3077" fill="#7D8084"/>
<rect x="106.156" y="143.078" width="12.3077" height="12.3077" fill="#D9E2F4"/>
<rect x="106.156" y="167.691" width="12.3077" height="12.3077" fill="#D9E2F4"/>
<rect x="118.461" y="20" width="12.3077" height="12.3077" fill="#D9E2F4"/>
<rect x="118.461" y="44.6172" width="12.3077" height="12.3077" fill="#7D8084"/>
<rect x="118.461" y="56.9219" width="12.3077" height="12.3077" fill="#D9E2F4"/>
<rect x="118.461" y="69.2305" width="12.3077" height="12.3077" fill="#7D8084"/>
<rect x="118.461" y="81.5391" width="12.3077" height="12.3077" fill="#7D8084"/>
<rect x="118.461" y="155.383" width="12.3077" height="12.3077" fill="#7D8084"/>
<rect x="118.461" y="93.8477" width="12.3077" height="12.3077" fill="#D9E2F4"/>
<rect x="118.461" y="106.152" width="12.3077" height="12.3077" fill="#7D8084"/>
<rect x="118.461" y="118.461" width="12.3077" height="12.3077" fill="#7D8084"/>
<rect x="118.461" y="130.77" width="12.3077" height="12.3077" fill="#D9E2F4"/>
<rect x="118.461" y="143.078" width="12.3077" height="12.3077" fill="#7D8084"/>
<rect x="118.461" y="167.691" width="12.3077" height="12.3077" fill="#D9E2F4"/>
<rect x="130.766" y="32.3086" width="12.3077" height="12.3077" fill="#D9E2F4"/>
<rect x="130.766" y="44.6172" width="12.3077" height="12.3077" fill="#7D8084"/>
<rect x="130.766" y="56.9219" width="12.3077" height="12.3077" fill="#7D8084"/>
<rect x="130.766" y="69.2305" width="12.3077" height="12.3077" fill="#D9E2F4"/>
<rect x="130.766" y="81.5391" width="12.3077" height="12.3077" fill="#7D8084"/>
<rect x="130.766" y="93.8477" width="12.3077" height="12.3077" fill="#7D8084"/>
<rect x="130.766" y="106.152" width="12.3077" height="12.3077" fill="#7D8084"/>
<rect x="130.766" y="118.461" width="12.3077" height="12.3077" fill="#D9E2F4"/>
<rect x="130.766" y="130.77" width="12.3077" height="12.3077" fill="#7D8084"/>
<rect x="130.766" y="143.078" width="12.3077" height="12.3077" fill="#7D8084"/>
<rect x="130.766" y="155.383" width="12.3077" height="12.3077" fill="#D9E2F4"/>
<rect x="143.078" y="44.6172" width="12.3077" height="12.3077" fill="#D9E2F4"/>
<rect x="143.078" y="56.9219" width="12.3077" height="12.3077" fill="#7D8084"/>
<rect x="143.078" y="69.2305" width="12.3077" height="12.3077" fill="#7D8084"/>
<rect x="143.078" y="81.5391" width="12.3077" height="12.3077" fill="#D9E2F4"/>
<rect x="143.078" y="93.8477" width="12.3077" height="12.3077" fill="#7D8084"/>
<rect x="143.078" y="106.152" width="12.3077" height="12.3077" fill="#D9E2F4"/>
<rect x="143.078" y="118.461" width="12.3077" height="12.3077" fill="#7D8084"/>
<rect x="143.078" y="130.77" width="12.3077" height="12.3077" fill="#7D8084"/>
<rect x="143.078" y="143.078" width="12.3077" height="12.3077" fill="#D9E2F4"/>
<rect x="155.383" y="56.9219" width="12.3077" height="12.3077" fill="#D9E2F4"/>
<rect x="155.383" y="69.2305" width="12.3077" height="12.3077" fill="#7D8084"/>
<rect x="155.383" y="81.5391" width="12.3077" height="12.3077" fill="#7D8084"/>
<rect x="155.383" y="93.8477" width="12.3077" height="12.3077" fill="#D9E2F4"/>
<rect x="155.383" y="106.152" width="12.3077" height="12.3077" fill="#7D8084"/>
<rect x="155.383" y="118.461" width="12.3077" height="12.3077" fill="#7D8084"/>
<rect x="167.695" y="69.2305" width="12.3077" height="12.3077" fill="#D9E2F4"/>
<rect x="167.695" y="81.5391" width="12.3077" height="12.3077" fill="#D9E2F4"/>
<rect x="167.695" y="93.8477" width="12.3077" height="12.3077" fill="#D9E2F4"/>
<rect x="167.695" y="106.152" width="12.3077" height="12.3077" fill="#D9E2F4"/>
<rect x="167.695" y="118.461" width="12.3077" height="12.3077" fill="#D9E2F4"/>
<rect x="155.383" y="130.77" width="12.3077" height="12.3077" fill="#D9E2F4"/>
</svg>
