<svg xmlns="http://www.w3.org/2000/svg" width="1037" height="1037" fill="none"><circle cx="518.5" cy="518.5" r="518.5" fill="#FF0421"/><path fill="#FAFAF9" d="M761.806 365.281H576.288L532.635 674.89h88.817L632 599.904h101.004c91.242 0 136.711-36.584 147.018-114.893 10.612-80.727-27.583-119.73-118.223-119.73h.007Zm28.192 114.292c-3.636 33.261-22.734 47.77-60.929 47.77h-86.856l12.592-89.495h90.937c34.559 0 47.595 11.794 44.256 41.725ZM357.424 358.028c-120.945 0-184.3 50.796-199.157 159.644-15.157 111.266 36.983 164.48 160.961 164.48 123.979 0 184.001-50.796 198.853-159.644 15.163-111.266-36.672-164.48-160.657-164.48Zm70.329 159.644c-8.188 61.381-39.103 88.893-103.669 88.893-60.625 0-83.359-24.189-75.483-84.057 8.187-61.678 39.712-88.894 103.669-88.894 63.957 0 83.359 24.493 75.483 84.058Z"/></svg>
