<svg xmlns="http://www.w3.org/2000/svg" width="256" height="256" viewBox="0 0 256 256"><defs><linearGradient id="a" x1="0%" x2="100%" y1="0%" y2="100%"><stop offset="0%" style="stop-color:#0a0a1a"/><stop offset="100%" style="stop-color:#1a1a2e"/></linearGradient><linearGradient id="c" x1="0%" x2="100%" y1="0%" y2="100%"><stop offset="0%" style="stop-color:#ff0080"/><stop offset="50%" style="stop-color:#00d4ff"/><stop offset="100%" style="stop-color:#00ff9d"/></linearGradient><linearGradient id="b" x1="0%" x2="100%" y1="0%" y2="0%"><stop offset="0%" style="stop-color:#ff0080"/><stop offset="100%" style="stop-color:#00d4ff"/></linearGradient><filter id="d"><feGaussianBlur result="coloredBlur" stdDeviation="3"/><feMerge><feMergeNode in="coloredBlur"/><feMergeNode in="SourceGraphic"/></feMerge></filter></defs><circle cx="128" cy="128" r="124" fill="url(#a)" stroke="url(#b)" stroke-width="4"/><circle cx="128" cy="128" r="100" fill="none" stroke="url(#c)" stroke-width="2" opacity=".5"/><g filter="url(#d)"><path fill="none" stroke="url(#c)" stroke-linecap="round" stroke-width="12" d="M90 80q0-20 38-20t38 25-38 30-38 30q0 30 38 30t38-20"/><circle cx="80" cy="90" r="4" fill="#ff0080"/><circle cx="176" cy="165" r="4" fill="#00ff9d"/><path stroke="#ff0080" stroke-width="2" d="M60 90h20"/><path stroke="#00ff9d" stroke-width="2" d="M176 165h20"/><circle cx="128" cy="115" r="6" fill="#00d4ff"/><path stroke="#00d4ff" stroke-dasharray="3,3" stroke-width="2" d="M128 115V90M128 115v25"/></g><text x="128" y="220" fill="url(#c)" font-family="Arial Black, sans-serif" font-size="28" font-weight="bold" text-anchor="middle">CYMST</text></svg>