<?xml version="1.0" encoding="UTF-8"?>
<svg xmlns="http://www.w3.org/2000/svg" xmlns:xlink="http://www.w3.org/1999/xlink" width="512px" height="512px" viewBox="0 0 512 512" version="1.1">
<g id="surface1">
<path style=" stroke:none;fill-rule:nonzero;fill:rgb(0%,72.941178%,99.607843%);fill-opacity:1;" d="M 0 0 C 168.960938 0 337.921875 0 512 0 C 512 168.960938 512 337.921875 512 512 C 343.039062 512 174.078125 512 0 512 C 0 343.039062 0 174.078125 0 0 Z M 0 0 "/>
<path style=" stroke:none;fill-rule:nonzero;fill:rgb(0%,0%,0%);fill-opacity:1;" d="M 186.785156 144.117188 C 290.917969 144.117188 290.917969 144.117188 300.164062 145.867188 C 300.441406 145.917969 300.71875 145.972656 301.007812 146.027344 C 301.808594 146.179688 302.605469 146.332031 303.40625 146.488281 C 303.703125 146.542969 303.703125 146.542969 304.007812 146.601562 C 316.414062 148.957031 328.632812 154.878906 338.015625 163.320312 C 338.21875 163.5 338.21875 163.5 338.429688 163.6875 C 339.96875 165.066406 341.429688 166.46875 342.753906 168.058594 C 342.96875 168.300781 343.179688 168.539062 343.394531 168.78125 C 345.183594 170.796875 346.738281 172.914062 348.207031 175.171875 C 348.371094 175.417969 348.53125 175.664062 348.699219 175.921875 C 353.894531 184.089844 356.992188 193.4375 358.238281 203.007812 C 358.269531 203.238281 358.296875 203.46875 358.328125 203.707031 C 359.007812 208.976562 359.054688 214.195312 358.875 219.496094 C 358.867188 219.664062 358.863281 219.828125 358.859375 220 C 358.417969 234.308594 354.015625 249.078125 344.890625 260.265625 C 344.707031 260.496094 344.523438 260.726562 344.335938 260.964844 C 341.320312 264.675781 337.867188 268.136719 333.984375 270.933594 C 333.722656 271.128906 333.464844 271.324219 333.203125 271.523438 C 330.976562 273.1875 328.589844 274.558594 326.164062 275.910156 C 326.011719 275.996094 325.859375 276.082031 325.703125 276.171875 C 320.132812 279.332031 314.09375 281.4375 307.910156 283.023438 C 307.683594 283.082031 307.457031 283.140625 307.222656 283.199219 C 304.167969 283.976562 301.128906 284.636719 298.007812 285.074219 C 297.429688 285.164062 296.851562 285.277344 296.273438 285.386719 C 294.617188 285.695312 292.949219 285.84375 291.273438 286 C 290.96875 286.03125 290.660156 286.058594 290.34375 286.089844 C 289.566406 286.164062 288.785156 286.234375 288.007812 286.300781 C 287.597656 286.335938 287.1875 286.371094 286.777344 286.40625 C 283.433594 286.65625 280.078125 286.621094 276.722656 286.625 C 276.179688 286.625 275.632812 286.625 275.089844 286.628906 C 273.371094 286.632812 271.65625 286.632812 269.941406 286.632812 C 267.980469 286.636719 266.015625 286.640625 264.054688 286.648438 C 262.523438 286.652344 260.996094 286.652344 259.464844 286.65625 C 258.558594 286.65625 257.652344 286.65625 256.742188 286.660156 C 248.382812 286.699219 240.9375 286.128906 234.570312 280.113281 C 230.339844 275.75 229.53125 270.050781 229.59375 264.21875 C 229.6875 259.214844 231.660156 254.824219 235.152344 251.234375 C 239.574219 247.0625 245.347656 245.539062 251.28125 245.53125 C 251.53125 245.53125 251.785156 245.53125 252.042969 245.53125 C 252.585938 245.527344 253.132812 245.523438 253.675781 245.523438 C 254.542969 245.519531 255.410156 245.515625 256.28125 245.511719 C 258.75 245.496094 261.21875 245.484375 263.6875 245.476562 C 275.722656 245.695312 275.722656 245.695312 287.527344 243.675781 C 287.710938 243.621094 287.898438 243.5625 288.085938 243.507812 C 295.019531 241.394531 301.21875 237.546875 304.828125 231.109375 C 308.660156 223.890625 309.632812 214.601562 307.675781 206.695312 C 307.605469 206.394531 307.535156 206.09375 307.464844 205.78125 C 306.339844 201.167969 304.144531 197.253906 300.800781 193.894531 C 300.648438 193.738281 300.5 193.582031 300.34375 193.421875 C 293.695312 187.007812 283.292969 185.34375 274.441406 185.3125 C 274.03125 185.3125 273.625 185.308594 273.214844 185.308594 C 272.109375 185.300781 271.007812 185.296875 269.902344 185.292969 C 268.746094 185.285156 267.589844 185.28125 266.433594 185.273438 C 264.246094 185.261719 262.058594 185.25 259.871094 185.242188 C 257.382812 185.230469 254.890625 185.214844 252.402344 185.203125 C 247.277344 185.175781 242.15625 185.148438 237.035156 185.125 C 237.039062 185.304688 237.039062 185.484375 237.039062 185.667969 C 237.050781 190.03125 237.058594 194.394531 237.0625 198.757812 C 237.0625 200.867188 237.066406 202.976562 237.074219 205.085938 C 237.078125 206.925781 237.082031 208.765625 237.082031 210.609375 C 237.082031 211.582031 237.082031 212.554688 237.085938 213.527344 C 237.089844 214.445312 237.089844 215.367188 237.089844 216.285156 C 237.089844 216.617188 237.089844 216.953125 237.09375 217.289062 C 237.105469 219.574219 236.90625 221.742188 236.5625 224 C 236.503906 224.464844 236.445312 224.929688 236.386719 225.394531 C 235.28125 231.667969 231.488281 237.125 226.371094 240.828125 C 223.691406 242.695312 220.84375 244.261719 217.972656 245.804688 C 209.882812 250.039062 209.882812 250.039062 203.851562 256.710938 C 203.742188 256.894531 203.632812 257.074219 203.523438 257.261719 C 201.144531 261.601562 200.976562 267.421875 202.335938 272.136719 C 203.054688 274.171875 204.152344 275.910156 205.511719 277.570312 C 205.613281 277.699219 205.71875 277.832031 205.828125 277.964844 C 209.125 281.96875 214.242188 284.285156 218.695312 286.730469 C 222.816406 288.996094 226.550781 291.351562 229.925781 294.636719 C 230.078125 294.769531 230.230469 294.90625 230.386719 295.042969 C 234.414062 298.710938 236.394531 304.527344 236.800781 309.808594 C 236.878906 311.625 236.859375 313.445312 236.855469 315.265625 C 236.855469 315.804688 236.855469 316.34375 236.855469 316.882812 C 236.855469 318.339844 236.851562 319.792969 236.847656 321.25 C 236.84375 322.773438 236.84375 324.296875 236.84375 325.820312 C 236.84375 328.378906 236.839844 330.933594 236.835938 333.488281 C 236.832031 336.117188 236.828125 338.746094 236.824219 341.378906 C 236.824219 341.542969 236.824219 341.707031 236.824219 341.875 C 236.824219 343.304688 236.824219 344.730469 236.824219 346.160156 C 236.816406 352.296875 236.808594 358.429688 236.800781 364.5625 C 220.296875 364.5625 203.789062 364.5625 186.785156 364.5625 C 186.785156 291.816406 186.785156 219.070312 186.785156 144.117188 Z M 186.785156 144.117188 "/>
</g>
</svg>
