<?xml version="1.0" encoding="UTF-8"?>
<svg version="1.1" xmlns="http://www.w3.org/2000/svg" width="2160" height="2160">
<path d="M0 0 C712.8 0 1425.6 0 2160 0 C2160 712.8 2160 1425.6 2160 2160 C1447.2 2160 734.4 2160 0 2160 C0 1447.2 0 734.4 0 0 Z " fill="#00BAFE" transform="translate(0,0)"/>
<path d="M0 0 C439.30611349 0 439.30611349 0 478.3125 7.375 C479.4869165 7.59704102 480.66133301 7.81908203 481.87133789 8.04785156 C485.24884734 8.69206949 488.6244738 9.34548621 492 10 C493.25151855 10.23541504 493.25151855 10.23541504 494.52832031 10.47558594 C546.87902168 20.40456259 598.42434756 45.39580712 638 81 C638.8647998 81.772229 638.8647998 81.772229 639.74707031 82.56005859 C646.24651198 88.37999679 652.408098 94.2897176 658 101 C658.89730322 102.01517952 659.79729159 103.02798885 660.69921875 104.0390625 C668.23722876 112.54956052 674.79816306 121.47823912 681 131 C681.68578125 132.04414062 682.3715625 133.08828125 683.078125 134.1640625 C704.98579267 168.62856407 718.05996864 208.06256816 723.3125 248.4375 C723.44140625 249.4134613 723.5703125 250.38942261 723.703125 251.3949585 C726.57183147 273.62071008 726.76759772 295.63399089 726 318 C725.97852905 318.70237793 725.95705811 319.40475586 725.93493652 320.12841797 C724.08258655 380.48755724 705.50205478 442.79206659 667 490 C666.23171875 490.97195313 665.4634375 491.94390625 664.671875 492.9453125 C651.94489704 508.59389232 637.37379594 523.19425583 621 535 C619.89979678 535.82777507 618.80085344 536.65722712 617.703125 537.48828125 C608.29977012 544.5121619 598.23944016 550.29215138 588 556 C587.35981934 556.36335449 586.71963867 556.72670898 586.06005859 557.10107422 C562.56619794 570.42680729 537.0848746 579.30627566 511 586 C510.0404541 586.24637207 509.0809082 586.49274414 508.09228516 586.74658203 C495.2065025 590.02022353 482.39432243 592.81519037 469.22680664 594.65649414 C466.77351443 595.03493753 464.34675913 595.50656604 461.91015625 595.98046875 C454.92129711 597.27044015 447.88446157 597.90698223 440.8125 598.5625 C439.51763672 598.68818359 438.22277344 598.81386719 436.88867188 598.94335938 C433.60313828 599.25510151 430.31689763 599.54846439 427.02845573 599.82754707 C425.29959678 599.97452922 423.57111865 600.12597967 421.84272766 600.27836609 C407.72867182 601.33887662 393.57353517 601.18285553 379.42826033 601.20018864 C377.12842675 601.20315077 374.82859781 601.2072608 372.52876663 601.21169281 C365.28967232 601.22531317 358.050589 601.23500733 350.81148279 601.2388947 C342.53481723 601.24336755 334.25831745 601.26090273 325.98170221 601.2898953 C319.52843196 601.31169478 313.07520774 601.32160853 306.62190115 601.32293582 C302.7928146 601.32397054 298.96388496 601.32958711 295.1348381 601.34775543 C259.87051883 601.50529238 228.45589046 599.10385749 201.59765625 573.73046875 C183.74443541 555.32791804 180.32787944 531.27961814 180.59042358 506.66583252 C180.98683725 485.56254195 189.32224598 467.04066682 204.046875 451.89453125 C222.69733146 434.29911886 247.05805479 427.86891814 272.09228516 427.84228516 C273.1542511 427.83720444 274.21621704 427.83212372 275.31036377 427.82688904 C277.60408346 427.81624305 279.89781317 427.80760059 282.19154739 427.80076981 C285.85572688 427.78884556 289.51979548 427.76935175 293.18392944 427.74765015 C303.59898004 427.68654415 314.01402141 427.63246318 324.42919922 427.59863281 C375.20410351 428.53477216 375.20410351 428.53477216 425 420 C425.78165527 419.76829102 426.56331055 419.53658203 427.36865234 419.29785156 C456.60979781 410.37565638 482.7681604 394.15063503 498 367 C514.16533579 336.53485969 518.26782263 297.35516425 510 264 C509.70996094 262.72640625 509.41992188 261.4528125 509.12109375 260.140625 C504.37423391 240.67651353 495.11678338 224.16738117 481 210 C480.36320312 209.34 479.72640625 208.68 479.0703125 208 C451.03500022 180.94646908 407.13636141 173.9269739 369.80029297 173.79467773 C368.07469964 173.78508354 366.34910859 173.77507259 364.6235199 173.76467896 C359.96518437 173.73779064 355.30683888 173.71669471 350.64846945 173.69667697 C345.77043973 173.67471753 340.89244015 173.64737784 336.01443481 173.62062073 C326.78892491 173.57082786 317.56339815 173.52583963 308.33785546 173.48259836 C297.82994382 173.43311098 287.32206245 173.37823572 276.81418014 173.32291877 C255.20948166 173.20930468 233.60475425 173.10242133 212 173 C212.00184359 173.75407922 212.00368717 174.50815844 212.00558662 175.28508854 C212.04988703 193.69150866 212.08291535 212.09791804 212.10362434 230.50438023 C212.11390699 239.40585312 212.12790927 248.30729028 212.15087891 257.20874023 C212.1709055 264.97341451 212.18373828 272.73806287 212.18817699 280.50276226 C212.19076878 284.60849304 212.19679672 288.71414976 212.21146011 292.81985664 C212.22519106 296.69645482 212.22919185 300.57294952 212.22621536 304.4495697 C212.22675868 305.86071272 212.23064268 307.27185975 212.23841095 308.68298149 C212.28886188 318.33347434 211.4436913 327.48300827 210 337 C209.74957038 338.95827844 209.49949058 340.9166017 209.25 342.875 C204.60030572 369.35341167 188.58595524 392.37287336 167 408 C155.69531979 415.86551741 143.68287119 422.47396602 131.5703125 428.9921875 C97.44707073 446.84957439 97.44707073 446.84957439 72 475 C71.54109375 475.76570313 71.0821875 476.53140625 70.609375 477.3203125 C60.57760994 495.63130535 59.87385172 520.18422463 65.59716797 540.07543945 C68.64451972 548.656016 73.26597844 555.99058027 79 563 C79.43924805 563.5480127 79.87849609 564.09602539 80.33105469 564.66064453 C94.23802325 581.55561933 115.83405766 591.32756853 134.62890625 601.640625 C151.99892481 611.19576957 167.76145779 621.13966907 182 635 C182.639375 635.56589844 183.27875 636.13179687 183.9375 636.71484375 C200.93677363 652.17946073 209.29243561 676.73140146 211 699 C211.34081306 706.66829307 211.25395295 714.34766806 211.22705078 722.02148438 C211.22648551 724.29967748 211.22680548 726.57787095 211.22793579 728.85606384 C211.22850579 734.99338292 211.21680904 741.13062261 211.20278788 747.26792336 C211.19022125 753.69940404 211.18910536 760.13088686 211.18673706 766.56237793 C211.18124221 777.34189376 211.16877969 788.1213773 211.15087891 798.90087891 C211.132474 809.99560404 211.11836315 821.09032127 211.10986328 832.18505859 C211.10932729 832.87781383 211.10879129 833.57056907 211.10823905 834.2843169 C211.10361232 840.31186207 211.09930722 846.33940746 211.09503365 852.3669529 C211.07627055 878.24466241 211.03641328 904.12229536 211 930 C141.37 930 71.74 930 0 930 C0 623.1 0 316.2 0 0 Z " fill="#000000" transform="translate(788,608)"/>
</svg>
