<?xml version="1.0" encoding="UTF-8"?>
<svg version="1.1" xmlns="http://www.w3.org/2000/svg" width="96" height="96">
<path d="M0 0 C1.31653564 0.01135986 1.31653564 0.01135986 2.65966797 0.02294922 C9.45144448 0.1952272 15.06562583 1.23369297 21.125 4.4375 C21.98222656 4.87320312 22.83945313 5.30890625 23.72265625 5.7578125 C36.08766834 12.58374678 43.23004062 22.68856753 47.52075195 36.01293945 C48.54203578 40.11086661 48.61362209 44.10669413 48.5625 48.3125 C48.55492676 49.19019043 48.54735352 50.06788086 48.53955078 50.97216797 C48.3672728 57.76394448 47.32880703 63.37812583 44.125 69.4375 C43.47144531 70.72333984 43.47144531 70.72333984 42.8046875 72.03515625 C35.97875322 84.40016834 25.87393247 91.54254062 12.54956055 95.83325195 C8.45163339 96.85453578 4.45580587 96.92612209 0.25 96.875 C-0.62769043 96.86742676 -1.50538086 96.85985352 -2.40966797 96.85205078 C-9.20144448 96.6797728 -14.81562583 95.64130703 -20.875 92.4375 C-22.16083984 91.78394531 -22.16083984 91.78394531 -23.47265625 91.1171875 C-35.83766834 84.29125322 -42.98004062 74.18643247 -47.27075195 60.86206055 C-48.29203578 56.76413339 -48.36362209 52.76830587 -48.3125 48.5625 C-48.30492676 47.68480957 -48.29735352 46.80711914 -48.28955078 45.90283203 C-48.1172728 39.11105552 -47.07880703 33.49687417 -43.875 27.4375 C-43.43929687 26.58027344 -43.00359375 25.72304688 -42.5546875 24.83984375 C-35.72875322 12.47483166 -25.62393247 5.33245938 -12.29956055 1.04174805 C-8.20163339 0.02046422 -4.20580587 -0.05112209 0 0 Z " fill="#878787" transform="translate(47.875,-0.4375)"/>
<path d="M0 0 C1.32 0.66 2.64 1.32 4 2 C4 8.6 4 15.2 4 22 C8.992944 17.72033371 13.63841107 13.39064709 18.04296875 8.50390625 C20.50546017 6.61157252 21.96824418 6.70153699 25 7 C24.83571788 12.72796978 20.81728141 15.62846155 16.9375 19.3125 C14.648125 21.519375 12.35875 23.72625 10 26 C16.6 26.33 23.2 26.66 30 27 C30.66 28.32 31.32 29.64 32 31 C28.43167653 34.56832347 22.95260776 33.36939302 18.125 33.375 C17.02285156 33.39949219 15.92070313 33.42398438 14.78515625 33.44921875 C13.19380859 33.45501953 13.19380859 33.45501953 11.5703125 33.4609375 C10.59852051 33.46915527 9.62672852 33.47737305 8.62548828 33.48583984 C5.3128544 32.87284548 4.1271582 31.53837945 2 29 C-0.46800047 30.15173355 -2.04783565 31.04783565 -4 33 C-6.43017578 33.22705078 -6.43017578 33.22705078 -9.4453125 33.1953125 C-10.52167969 33.18886719 -11.59804688 33.18242188 -12.70703125 33.17578125 C-14.39892578 33.15064453 -14.39892578 33.15064453 -16.125 33.125 C-17.26066406 33.11597656 -18.39632813 33.10695312 -19.56640625 33.09765625 C-22.37781299 33.07403098 -25.18880298 33.04109013 -28 33 C-28.66 31.68 -29.32 30.36 -30 29 C-27.56085508 26.56085508 -26.78553569 26.71337477 -23.4296875 26.5859375 C-22.53378906 26.54726563 -21.63789063 26.50859375 -20.71484375 26.46875 C-19.77769531 26.4378125 -18.84054688 26.406875 -17.875 26.375 C-16.45767578 26.31699219 -16.45767578 26.31699219 -15.01171875 26.2578125 C-12.67467625 26.16338654 -10.33764499 26.07781606 -8 26 C-8.45439453 25.56655273 -8.90878906 25.13310547 -9.37695312 24.68652344 C-11.42837851 22.71820708 -13.46418936 20.73445686 -15.5 18.75 C-16.21542969 18.06808594 -16.93085938 17.38617188 -17.66796875 16.68359375 C-18.34472656 16.01972656 -19.02148438 15.35585938 -19.71875 14.671875 C-20.34716797 14.0644043 -20.97558594 13.45693359 -21.62304688 12.83105469 C-23 11 -23 11 -23 7 C-20.05753815 6.73351289 -18.5096363 6.63912759 -16.05541992 8.37695312 C-15.45318604 9.00537109 -14.85095215 9.63378906 -14.23046875 10.28125 C-13.56982422 10.95800781 -12.90917969 11.63476562 -12.22851562 12.33203125 C-11.55498047 13.04746094 -10.88144531 13.76289062 -10.1875 14.5 C-9.49462891 15.21542969 -8.80175781 15.93085937 -8.08789062 16.66796875 C-6.38014301 18.43460421 -4.68513312 20.21182487 -3 22 C-2.98018066 21.40461426 -2.96036133 20.80922852 -2.93994141 20.19580078 C-2.84483874 17.50507847 -2.73510158 14.81514852 -2.625 12.125 C-2.5940625 11.18785156 -2.563125 10.25070313 -2.53125 9.28515625 C-2.49257813 8.38925781 -2.45390625 7.49335937 -2.4140625 6.5703125 C-2.3826416 5.74289551 -2.3512207 4.91547852 -2.31884766 4.06298828 C-2 2 -2 2 0 0 Z " fill="#000000" transform="translate(47,29)"/>
</svg>
