<!-- Generator: Adobe Illustrator 22.1.0, SVG Export Plug-In . SVG Version: 6.00 Build 0) --><svg xmlns="http://www.w3.org/2000/svg" xmlns:xlink="http://www.w3.org/1999/xlink" id="Слой_1" x="0px" y="0px" viewBox="0 0 841.9 595.3" style="enable-background:new 0 0 841.9 595.3;" xml:space="preserve" height="181" width="256"> <style type="text/css"> .st0{fill:#1A1A1A;} </style> <g> <path id="Многоугольник_1_копия_19" class="st0" d="M438,217l-8-4.5v-9l8-4.5l8,4.5v9L438,217z M459,229l-8-4.5 v-9l8-4.5l8,4.5v9L459,229z M417,229l-8-4.5v-9l8-4.5l8,4.5v9L417,229z M438,241l-8-4.5v-9l8-4.5l8,4.5v9L438,241z M459,253l-8-4.5 v-9l8-4.5l8,4.5v9L459,253z M480,241l-8-4.5v-9l8-4.5l8,4.5v9L480,241z M480,265l-8-4.5v-9l8-4.5l8,4.5v9L480,265z M501,253l-8-4.5 v-9l8-4.5l8,4.5v9L501,253z M501,277l-8-4.5v-9l8-4.5l8,4.5v9L501,277z M522,266l-8-4.5v-9l8-4.5l8,4.5v9L522,266z M522,290l-8-4.5 v-9l8-4.5l8,4.5v9L522,290z M522,314l-8-4.5v-9l8-4.5l8,4.5v9L522,314z M522,338l-8-4.5v-9l8-4.5l8,4.5v9L522,338z M522,362l-8-4.5 v-9l8-4.5l8,4.5v9L522,362z M501,302l-8-4.5v-9l8-4.5l8,4.5v9L501,302z M501,326l-8-4.5v-9l8-4.5l8,4.5v9L501,326z M501,350l-8-4.5 v-9l8-4.5l8,4.5v9L501,350z M501,374l-8-4.5v-9l8-4.5l8,4.5v9L501,374z M480,362l-8-4.5v-9l8-4.5l8,4.5v9L480,362z M480,386l-8-4.5 v-9l8-4.5l8,4.5v9L480,386z M459,374l-8-4.5v-9l8-4.5l8,4.5v9L459,374z M459,398l-8-4.5v-9l8-4.5l8,4.5v9L459,398z M438,386l-8-4.5 v-9l8-4.5l8,4.5v9L438,386z M417,253l-8-4.5v-9l8-4.5l8,4.5v9L417,253z M396,242l-8-4.5v-9l8-4.5l8,4.5v9L396,242z M396,266l-8-4.5 v-9l8-4.5l8,4.5v9L396,266z M375,253l-8-4.5v-9l8-4.5l8,4.5v9L375,253z M375,277l-8-4.5v-9l8-4.5l8,4.5v9L375,277z M354,266l-8-4.5 v-9l8-4.5l8,4.5v9L354,266z M354,290l-8-4.5v-9l8-4.5l8,4.5v9L354,290z M333,301l-8-4.5v-9l8-4.5l8,4.5v9L333,301z M312,312l-8-4.5 v-9l8-4.5l8,4.5v9L312,312z M355,314l-8-4.5v-9l8-4.5l8,4.5v9L355,314z M376,303l-8-4.5v-9l8-4.5l8,4.5v9L376,303z M334,325l-8-4.5 v-9l8-4.5l8,4.5v9L334,325z M313,336l-8-4.5v-9l8-4.5l8,4.5v9L313,336z M291,301l-8-4.5v-9l8-4.5l8,4.5v9L291,301z M291,325l-8-4.5 v-9l8-4.5l8,4.5v9L291,325z M270,312l-8-4.5v-9l8-4.5l8,4.5v9L270,312z M270,336l-8-4.5v-9l8-4.5l8,4.5v9L270,336z M249,325l-8-4.5 v-9l8-4.5l8,4.5v9L249,325z M249,349l-8-4.5v-9l8-4.5l8,4.5v9L249,349z M228,336l-8-4.5v-9l8-4.5l8,4.5v9L228,336z M249,405l8,4.5 v9l-8,4.5l-8-4.5v-9L249,405z M228,393l8,4.5v9l-8,4.5l-8-4.5v-9L228,393z M270,393l8,4.5v9l-8,4.5l-8-4.5v-9L270,393z M249,381 l8,4.5v9l-8,4.5l-8-4.5v-9L249,381z M228,369l8,4.5v9l-8,4.5l-8-4.5v-9L228,369z M207,381l8,4.5v9l-8,4.5l-8-4.5v-9L207,381z M207,357l8,4.5v9l-8,4.5l-8-4.5v-9L207,357z M186,369l8,4.5v9l-8,4.5l-8-4.5v-9L186,369z M186,345l8,4.5v9l-8,4.5l-8-4.5v-9 L186,345z M165,356l8,4.5v9l-8,4.5l-8-4.5v-9L165,356z M165,332l8,4.5v9l-8,4.5l-8-4.5v-9L165,332z M165,308l8,4.5v9l-8,4.5l-8-4.5 v-9L165,308z M165,284l8,4.5v9l-8,4.5l-8-4.5v-9L165,284z M165,260l8,4.5v9l-8,4.5l-8-4.5v-9L165,260z M186,320l8,4.5v9l-8,4.5 l-8-4.5v-9L186,320z M186,296l8,4.5v9l-8,4.5l-8-4.5v-9L186,296z M186,272l8,4.5v9l-8,4.5l-8-4.5v-9L186,272z M186,248l8,4.5v9 l-8,4.5l-8-4.5v-9L186,248z M207,260l8,4.5v9l-8,4.5l-8-4.5v-9L207,260z M207,236l8,4.5v9l-8,4.5l-8-4.5v-9L207,236z M228,248 l8,4.5v9l-8,4.5l-8-4.5v-9L228,248z M228,224l8,4.5v9l-8,4.5l-8-4.5v-9L228,224z M249,236l8,4.5v9l-8,4.5l-8-4.5v-9L249,236z M270,369l8,4.5v9l-8,4.5l-8-4.5v-9L270,369z M291,380l8,4.5v9l-8,4.5l-8-4.5v-9L291,380z M291,356l8,4.5v9l-8,4.5l-8-4.5v-9 L291,356z M312,369l8,4.5v9l-8,4.5l-8-4.5v-9L312,369z M312,345l8,4.5v9l-8,4.5l-8-4.5v-9L312,345z M333,356l8,4.5v9l-8,4.5l-8-4.5 v-9L333,356z M333,332l8,4.5v9l-8,4.5l-8-4.5v-9L333,332z M354,321l8,4.5v9l-8,4.5l-8-4.5v-9L354,321z M375,310l8,4.5v9l-8,4.5 l-8-4.5v-9L375,310z M396,321l8,4.5v9l-8,4.5l-8-4.5v-9L396,321z M396,297l8,4.5v9l-8,4.5l-8-4.5v-9L396,297z M417,310l8,4.5v9 l-8,4.5l-8-4.5v-9L417,310z M417,286l8,4.5v9l-8,4.5l-8-4.5v-9L417,286z M438,297l8,4.5v9l-8,4.5l-8-4.5v-9L438,297z M438,273 l8,4.5v9l-8,4.5l-8-4.5v-9L438,273z M459,286l8,4.5v9l-8,4.5l-8-4.5v-9L459,286z"></path> <path id="GG_DAPP" class="st0" d="M587.6,255.4h-3.2v-3.2h-18.9v3.2h-3.2v3.2h-3.2v31.6h3.2v3.2h3.2v3.2h12.6v0h6.3v-3.2h3.2v-3.2 h3.2v-18.9H575v6.3h9.5v9.5h-3.2v3.2h-3.2v0h-9.5V287h-3.2v-25.3h3.2v-3.2h12.6v3.2h3.2v3.2h6.3v-6.3h-3.2L587.6,255.4L587.6,255.4 z M624.6,255.4h-3.2v-3.2h-18.9v3.2h-3.2v3.2h-3.2v31.6h3.2v3.2h3.2v3.2h12.6v0h6.3v-3.2h3.2v-3.2h3.2v-18.9h-15.8v6.3h9.5v9.5 h-3.2v3.2h-3.2v0h-9.5V287h-3.2v-25.3h3.2v-3.2h12.6v3.2h3.2v3.2h6.3v-6.3h-3.2L624.6,255.4L624.6,255.4z M581.3,318.1v3.2h3.2 v25.3h-3.2v3.2h-3.2v0h-12.6v-31.6L581.3,318.1L581.3,318.1z M578.1,356L578.1,356l6.3,0v-3.2h3.2v-3.2h3.2v-31.6h-3.2v-3.2h-3.2 v-3.2h-25.2V356L578.1,356L578.1,356z M602.4,327.6h3.2v-3.2h3.2v-3.2h6.3v3.2h3.2v3.2h3.2v9.5h-18.9L602.4,327.6L602.4,327.6z M602.4,343.4h18.9V356h6.3v-31.6h-3.2v-3.2h-3.2v-3.2h-3.2V315h-3.2v-3.2h-6.3v3.2h-3.2v3.2h-3.2v3.2h-3.2v3.2h-3.2V356h6.3 L602.4,343.4L602.4,343.4z M655.2,318.1v3.2h3.2v6.3h-3.2v3.2h-15.8v-12.6H655.2z M658.4,337.1v-3.2h3.2v-3.2h3.2v-12.6h-3.2V315 h-3.2v-3.2h-25.3V356h6.3v-18.9H658.4z M692.2,318.1v3.2h3.2v6.3h-3.2v3.2h-15.8v-12.6H692.2z M695.3,337.1v-3.2h3.2v-3.2h3.2 v-12.6h-3.2V315h-3.2v-3.2h-25.3V356h6.3v-18.9H695.3z"></path> </g> </svg>