<svg width="647" height="631" viewBox="0 0 647 631" fill="none" xmlns="http://www.w3.org/2000/svg">
<path fill-rule="evenodd" clip-rule="evenodd" d="M149.397 87.8808C115.423 87.8808 87.8808 115.423 87.8808 149.397L87.8808 415.676L7.82086e-05 415.676L2.81088e-05 149.397C1.25847e-05 66.8875 66.8874 -1.25847e-05 149.397 -2.81088e-05L530.8 -3.31823e-05L582.21 87.8807L149.397 87.8808Z" fill="#4BA5F2"/>
<path fill-rule="evenodd" clip-rule="evenodd" d="M497.321 543.119C531.296 543.119 558.838 515.577 558.838 481.603L558.838 215.324L646.719 215.324L646.719 481.603C646.719 564.113 579.831 631 497.321 631L115.919 631L64.5087 543.119L497.321 543.119Z" fill="#E7692C"/>
<path fill-rule="evenodd" clip-rule="evenodd" d="M195.299 195.243L647.006 195.243L589.444 107.362L153.995 107.362C128.271 107.362 107.418 128.216 107.418 153.939L107.418 415.824L195.299 415.824L195.299 195.243Z" fill="#EFBC41"/>
<path fill-rule="evenodd" clip-rule="evenodd" d="M451.759 435.757L0.0518558 435.757L57.6138 523.638L493.063 523.638C518.787 523.638 539.64 502.784 539.64 477.061L539.64 215.176L451.759 215.176L451.759 435.757Z" fill="#EB88EF"/>
</svg>
