<?xml version="1.0" encoding="UTF-8"?>
<svg width="256px" height="256px" viewBox="0 0 256 256" version="1.1" xmlns="http://www.w3.org/2000/svg" xmlns:xlink="http://www.w3.org/1999/xlink">
    <title>LoopFi</title>
    <defs>
        <linearGradient x1="76.0565339%" y1="6.7121491%" x2="14.7135664%" y2="128.989507%" id="linearGradient-1">
            <stop stop-color="#A7A469" offset="0%"></stop>
            <stop stop-color="#727043" offset="100%"></stop>
        </linearGradient>
    </defs>
    <g id="页面-1" stroke="none" stroke-width="1" fill="none" fill-rule="evenodd">
        <g id="DF---Token---3" transform="translate(-3548.000000, -681.000000)" fill-rule="nonzero">
            <g id="LPF" transform="translate(3548.000000, 681.000000)">
                <circle id="椭圆形" fill="url(#linearGradient-1)" cx="128" cy="128" r="128"></circle>
                <path d="M82.8644367,70 L82.8644367,155.458226 L151.393779,155.458226 L151.393779,135.95612 L140.144586,135.95612 C144.369132,127.852995 152.867004,122.304647 162.633216,122.304647 C176.623973,122.304647 188,133.674374 188,147.657383 C188,161.630642 176.623973,173.01012 162.633216,173.01012 C156.757879,173.01012 151.253286,171.01798 146.859955,167.523203 L122.388813,167.523203 C130.019337,182.938642 145.443317,192.512226 162.633216,192.512226 C163.647887,192.512226 164.643046,192.483948 165.638204,192.414715 C154.867078,198.518874 142.408084,202 129.149061,202 C88.2012177,202 55,168.817168 55,127.892 C55,104.470946 65.8784478,83.5734654 82.8644367,70 Z M128.79273,54 C169.772719,54 203,87.1133263 203,127.952771 L202.990236,128.731221 C195.823376,113.493058 180.28867,102.915866 162.303171,102.915866 C141.593484,102.915866 124.105955,116.957162 118.940739,136 L102,136 L102,58.9723507 C110.309261,55.7612435 119.341067,54 128.79273,54 Z" id="替换内容区域---logo" fill="#FFFFFF"></path>
            </g>
        </g>
    </g>
</svg>
