<?xml version="1.0" encoding="UTF-8"?>
<svg width="90px" height="76px" viewBox="0 0 90 76" version="1.1" xmlns="http://www.w3.org/2000/svg" xmlns:xlink="http://www.w3.org/1999/xlink">
    <title>saddle</title>
    <g id="LoopFi---官网" stroke="none" stroke-width="1" fill="none" fill-rule="evenodd">
        <g id="编组-25" transform="translate(8.000000, 0.000000)" fill="#C1B494">
            <path d="M6.83083843,64.0461006 C6.83083843,63.5658941 6.65692862,63.185027 6.3091747,62.9034994 C5.97797735,62.6220375 5.35703982,62.2742835 4.44623071,61.8603033 L2.75719653,61.065456 C1.15094526,60.3037218 0.347753925,59.1279416 0.347753925,57.538247 C0.347753925,56.3459759 0.803191335,55.3937754 1.71393475,54.6817766 C2.62467817,53.9697122 3.86668463,53.61368 5.43982273,53.61368 C6.89706476,53.61368 8.35430679,53.8371938 9.81154882,54.2842873 L8.42053312,57.8860009 L8.37086337,57.8860009 L6.43341476,54.4333622 C6.28433982,54.1849478 6.09393913,54.0607734 5.86208128,54.0607734 L5.51432735,54.0607734 C4.93478128,54.0607734 4.454509,54.2097826 4.07364191,54.5078668 C3.69277482,54.805951 3.50237412,55.2364878 3.50237412,55.799543 C3.50237412,56.3128628 3.67621824,56.726843 4.02397216,57.0414838 C4.38828267,57.3561246 4.97617273,57.6956002 5.78757666,58.0599107 L7.37727135,58.7553528 C8.27145818,59.1362199 8.95040945,59.583379 9.41412515,60.0966988 C9.89433173,60.6100185 10.1344022,61.3055264 10.1344022,62.1832223 C10.1344022,63.4913894 9.62936072,64.5098163 8.61921211,65.2384374 C7.6091292,65.9505018 6.25950495,66.306534 4.57047077,66.306534 C2.98071039,66.306534 1.45724203,66.0498413 0,65.5364558 L1.36618083,61.6863935 L1.41585057,61.6863935 L3.40303463,65.5364558 C3.50237412,65.7517571 3.67621824,65.8593749 3.92463267,65.8593749 L4.49590045,65.8593749 C5.20796488,65.8593749 5.77102008,65.6938091 6.18500033,65.3626117 C6.61553717,65.0314144 6.83083843,64.5925992 6.83083843,64.0461006 Z M22.4046034,58.6311785 C22.4046034,58.730518 22.3963251,58.9044278 22.3797686,59.1527765 C22.3797686,59.3846344 22.3797686,59.5088087 22.3797686,59.5253653 L22.2307593,63.0525743 C22.1810896,64.0129875 22.4046034,64.4932598 22.9013666,64.4932598 C23.2160074,64.4932598 23.4478652,64.3441848 23.5968745,64.0461006 L23.6465442,64.0461006 C23.6465442,64.377298 23.5803179,64.6753822 23.4478652,64.9403532 C23.0007718,65.8510966 22.1893679,66.306534 21.0135877,66.306534 C20.2684101,66.306534 19.6391943,66.099511 19.1258089,65.6855308 C18.6124891,65.2549939 18.3392398,64.6588256 18.3061267,63.8970914 C18.0577779,64.6257124 17.6271754,65.2136025 17.0145161,65.6606959 C16.4183478,66.0912327 15.7228399,66.306534 14.9279926,66.306534 C13.9675794,66.306534 13.1644538,66.0001715 12.5186157,65.3874466 C11.8727776,64.7581651 11.5498585,63.8970914 11.5498585,62.8041599 C11.5498585,61.645002 11.9638388,60.7342586 12.791865,60.0718639 C13.6363821,59.3929127 14.6133518,59.053437 15.7228399,59.053437 C16.8488846,59.053437 17.7265806,59.2770166 18.3557964,59.72411 L18.4055318,57.0663187 L18.4055318,56.9421443 C18.4055318,55.0377432 17.8010852,54.0856083 16.5922576,54.0856083 C16.3438432,54.0856083 16.1865556,54.1021649 16.1202636,54.135278 C16.0705939,54.1683912 16.0043675,54.2511741 15.9215846,54.3836925 L13.9096314,58.1095804 L13.8598959,58.1095804 L12.2950361,54.5575366 C14.0503623,53.9283207 15.7228399,53.61368 17.3126003,53.61368 C19.0678608,53.61368 20.3512588,53.9945471 21.1626627,54.7562813 C21.9906232,55.534572 22.4046034,56.8261825 22.4046034,58.6311785 Z M17.4367747,59.8234495 C16.8074932,59.8234495 16.31073,60.0635856 15.9464195,60.5437922 C15.5986656,61.0239988 15.4248215,61.6367237 15.4248215,62.3819013 C15.4248215,63.044296 15.5572741,63.5658941 15.8222451,63.9467611 C16.103707,64.3110717 16.4597392,64.4932598 16.8902761,64.4932598 C17.4533313,64.4932598 17.9252596,64.2034539 18.3061267,63.6238421 L18.3061267,63.5990072 L18.3557964,59.9725244 C18.0577779,59.8731192 17.7514155,59.8234495 17.4367747,59.8234495 Z M37.2259638,48 L37.2259638,64.2448453 C37.2259638,64.5098163 37.3008626,64.7084953 37.4493462,64.8410137 L38.6917469,66.0581196 L38.6917469,66.1077893 L33.1772881,66.1077893 L33.1772881,63.772917 C32.4486671,65.4619512 31.2315612,66.306534 29.5259048,66.306534 C28.0686627,66.306534 26.88467,65.7517571 25.9738609,64.642269 C25.0796741,63.5327809 24.6325806,61.9844777 24.6325806,59.9973593 C24.6325806,58.0930239 25.1293438,56.5529989 26.1229358,55.3772188 C27.1330844,54.2015044 28.4164167,53.61368 29.9729982,53.61368 C31.5130231,53.61368 32.5811198,54.276009 33.1772881,55.6007983 L33.1772881,50.4590795 C33.1772881,50.1941282 33.0944395,49.9871315 32.9288737,49.838096 L31.7366027,48.6954947 L31.7366027,48.6458184 L37.2259638,48 Z M31.4385185,64.44359 C32.1174698,64.44359 32.6970158,64.1289492 33.1772881,63.4996677 L33.1772881,55.8243779 C32.7798645,55.3109925 32.2416441,55.0543654 31.5626929,55.0543654 C30.8009587,55.0543654 30.1717429,55.4435108 29.674914,56.2218016 C29.1781508,56.9835358 28.9297364,58.2006416 28.9297364,59.8731192 C28.9297364,61.4628796 29.153316,62.6220375 29.6004094,63.3506585 C30.0640594,64.0792795 30.6767843,64.44359 31.4385185,64.44359 Z M52.1012644,48 L52.1012644,64.2448453 C52.1012644,64.5098163 52.1761632,64.7084953 52.3253038,64.8410137 L53.5670475,66.0581196 L53.5670475,66.1077893 L48.0527858,66.1077893 L48.0527858,63.772917 C47.3241648,65.4619512 46.1067304,66.306534 44.4011397,66.306534 C42.9438977,66.306534 41.7599706,65.7517571 40.8493586,64.642269 C39.9551718,63.5327809 39.5077499,61.9844777 39.5077499,59.9973593 C39.5077499,58.0930239 40.0044473,56.5529989 40.9984993,55.3772188 C42.0083194,54.2015044 43.2921115,53.61368 44.8485616,53.61368 C46.3885865,53.61368 47.4562233,54.276009 48.0527858,55.6007983 L48.0527858,50.4590795 C48.0527858,50.1941282 47.9700029,49.9871315 47.8044371,49.838096 L46.611969,48.6954947 L46.611969,48.6458184 L52.1012644,48 Z M46.3136877,64.44359 C46.9930332,64.44359 47.5725136,64.1289492 48.0527858,63.4996677 L48.0527858,55.8243779 C47.6552965,55.3109925 47.1172076,55.0543654 46.4378621,55.0543654 C45.6763907,55.0543654 45.0469778,55.4435108 44.5502803,56.2218016 C44.0535829,56.9835358 43.8052341,58.2006416 43.8052341,59.8731192 C43.8052341,61.4628796 44.0286166,62.6220375 44.4760385,63.3506585 C44.9392286,64.0792795 45.5522163,64.44359 46.3136877,64.44359 Z M59.7192632,48 L59.7192632,64.3193499 C59.7192632,64.5677644 59.8020461,64.7664434 59.9676119,64.9155183 L61.1843893,66.0581196 L61.1843893,66.1077893 L54.2299678,66.1077893 L54.2299678,66.0581196 L55.4467452,64.9155183 C55.5958858,64.7664434 55.6701276,64.5677644 55.6701276,64.3193499 L55.6701276,50.4590795 C55.6701276,50.1941282 55.5958858,49.9871315 55.4467452,49.838096 L54.2299678,48.6954947 L54.2299678,48.6458184 L59.7192632,48 Z M73.6300772,59.4011909 L66.1783012,59.4011909 L66.1783012,59.4508607 C66.1783012,60.974329 66.5094329,62.1169303 67.1716961,62.8786645 C67.8339594,63.6238421 68.6867548,63.9964309 69.7300823,63.9964309 C71.4856056,63.9964309 72.7444314,63.2346967 73.5059028,61.7112284 L73.5558354,61.7112284 C72.9264224,64.7747217 71.0966573,66.306534 68.065883,66.306534 C66.3602922,66.306534 64.9194754,65.776592 63.7440894,64.7167736 C62.5680465,63.6569553 61.980682,62.1003737 61.980682,60.047029 C61.980682,57.8777226 62.5680465,56.263193 63.7440894,55.2033747 C64.9194754,54.1435563 66.4102248,53.61368 68.2150236,53.61368 C68.9107943,53.61368 69.5645165,53.7047412 70.1775042,53.8868636 C70.7898349,54.0690517 71.3614312,54.3505793 71.8916361,54.7314464 C72.4376091,55.1123135 72.8686058,55.6587464 73.1826553,56.3708108 C73.4973617,57.0663187 73.6550435,57.8942792 73.6550435,58.854758 C73.6550435,59.0203239 73.6465024,59.202512 73.6300772,59.4011909 Z M68.1657481,54.0856083 C67.51991,54.0856083 67.0310966,54.4664754 66.699965,55.2282095 C66.3688333,55.9733871 66.1947264,57.2153279 66.1783012,58.9540975 L69.8299474,58.9540975 C69.8463726,58.7387963 69.8542567,58.4904475 69.8542567,58.2089199 C69.8542567,56.668895 69.705773,55.6007983 69.4074917,55.00463 C69.1256356,54.3919707 68.7117211,54.0856083 68.1657481,54.0856083 Z" id="形状结合"></path>
            <path d="M37,0 C49.1502645,0 59,9.8497355 59,22 C59,34.1502645 49.1502645,44 37,44 C24.8497355,44 15,34.1502645 15,22 C15,9.8497355 24.8497355,0 37,0 Z M41.04118,8.494453 C33.7924,4.750966 29.90137,8.131442 29.90137,8.131442 C29.4023,8.47176 29.9127,8.687294 29.9127,8.687294 L32.29497,9.889748 L33.41807,10.479634 C33.41807,10.479634 32.7034,11.39853 31.25129,10.695168 C30.77488,10.490986 29.82195,10.434259 29.08462,11.09218 C28.2792,11.5346 28.63087,12.81643 28.04105,13.63329 C27.46245,14.45004 26.30536,14.31386 26.18062,15.49361 C26.07854,16.69613 27.03136,16.92295 27.05413,17.81912 C27.07679,18.71529 26.74778,19.2258 26.65703,19.46406 C26.62304,19.56614 26.60038,19.69088 26.60038,19.81573 C26.61171,19.98579 26.69113,20.15596 26.80454,20.29214 C26.89529,20.39422 26.97471,20.46231 27.06546,20.51896 C27.45112,20.77988 27.78013,21.12022 27.99562,21.52865 C28.02961,21.59663 28.06371,21.66472 28.10903,21.73281 C28.14313,21.78957 28.17712,21.85755 28.22255,21.93697 C28.47203,22.37939 28.57422,22.90123 28.48347,23.41174 C28.4607,23.54781 28.47203,23.70665 28.51746,23.85416 C28.60821,24.12641 28.84647,24.33057 29.13005,24.40999 C29.5497,24.51207 29.9127,24.76166 30.16229,25.11333 C30.18495,25.13599 30.19639,25.16998 30.21905,25.19264 C30.55939,25.66916 30.4913,26.41782 30.62737,26.96232 C30.76355,27.50682 31.2173,27.67699 31.87521,28.05132 C32.53323,28.42576 32.6693,29.01558 32.39705,29.29916 C32.1248,29.58274 30.51396,28.89084 29.86738,29.66216 C29.39097,30.10458 29.59513,30.38816 29.35687,31.22768 C29.11872,32.07842 28.39261,31.4545 28.00695,32.04443 C27.62129,32.63425 27.56453,33.26961 27.75736,34.52878 C27.9503,35.78795 29.17537,37.52353 29.1735263,37.5168965 L29.1498921,37.4212334 C29.0435058,36.9557925 28.6961275,34.98671 29.9468,33.26961 C31.16054,31.84027 32.09081,31.64733 33.46339,31.62467 C34.8473,31.59068 36.88923,32.83852 37.30899,35.28877 C37.52448,36.91094 36.63964,37.85254 36.57166,37.94329 C36.41282,38.12479 35.10822,39.56546 33.37264,38.6012 C32.89623,38.27219 32.47647,37.93196 32.19289,37.27394 C31.98873,36.67268 31.93197,35.86726 32.27231,35.32276 C32.55589,34.86901 33.00964,34.73294 33.14582,34.72161 C33.34998,34.69884 33.7924,34.71028 34.07598,34.92577 C34.35956,35.14126 34.6658,35.45894 34.60915,36.00344 C34.55239,36.54794 33.98523,36.70678 33.76963,36.66135 L33.715174,36.6511264 L33.7383307,36.6567029 C33.7457273,36.6583405 33.752635,36.6599338 33.7583,36.66135 C33.40663,36.63869 33.2479,36.36644 33.17981,36.17361 C33.16848,36.12818 33.10039,36.13962 33.08906,36.18494 C32.98698,36.9336 33.55414,37.41012 33.89448,37.48954 C34.26881,37.56885 34.82464,37.55752 35.27839,37.09244 C35.67549,36.69545 35.89098,36.35511 35.89098,35.4816 C35.89098,34.76693 35.59607,34.26786 35.10822,33.83677 C34.47297,33.24684 33.63356,33.02002 33.05496,33.06534 C32.51046,33.11077 31.55764,33.33759 30.93372,34.32451 C30.35512,35.23201 30.10564,36.47985 30.59338,37.8752 L30.61604,37.92052 C31.72781,40.51828 34.32557,41.1763 36.11791,41.1763 C36.48091,41.1763 36.80981,41.15353 37.08206,41.10821 C37.13882,41.09688 38.42065,40.90405 39.66849,40.13262 C41.21124,39.11171 42.13018,37.63694 42.13018,35.35686 C42.13018,32.32801 40.80292,30.30885 38.08042,27.15515 C37.55858,26.50857 35.43723,23.88815 35.05157,23.37764 C33.15715,20.92739 31.0358,18.04605 32.09081,15.85661 C32.1248,15.78863 32.15879,15.73187 32.19289,15.66378 C33.76963,12.77111 38.21649,13.48578 37.2409,13.66728 C35.55064,13.95086 34.54106,14.69952 34.23482,15.02853 C33.92847,15.35754 33.7583,15.64112 33.55414,16.17429 C33.20247,17.0478 33.48605,18.39772 34.23482,19.57747 C34.9510674,20.5931924 35.7425376,21.6638212 36.5477466,22.7307737 L36.9879445,23.3120311 C39.7063425,26.8898605 42.4537032,30.3055852 42.89017,31.32976 C43.65027,33.07667 43.76368,34.46069 43.75235,35.31143 C43.74102,36.16228 43.53675,37.52353 43.53675,37.52353 C43.53675,37.52353 44.65985,36.62736 45.19302,35.53836 C45.72619,34.44936 45.81694,33.92752 45.6581,33.51909 C45.48793,33.11077 45.06817,33.09944 44.89811,32.43009 C44.72794,31.76085 45.20435,31.17092 44.70517,30.10458 C44.48968,29.6395 43.34392,28.95882 42.7541,28.21016 C42.16417,27.4615 41.0865,26.12291 40.28108,25.04524 C38.82908,23.11672 38.35267,22.45881 37.51315,21.36981 C38.42065,21.64206 39.55508,22.01639 42.16417,20.80265 C44.0434833,21.7642944 45.4629831,21.9368695 46.2733019,21.9500366 L46.4881162,21.9500049 C46.6201028,21.9478173 46.7294715,21.9420219 46.81519,21.93697 C47.39368,21.90298 47.93818,21.64206 48.35794,21.31305 C48.63019,21.09756 48.83435,20.66647 48.9592,20.38289 C49.00452,20.28081 48.90244,20.19006 48.80036,20.22405 C46.76976,21.06346 44.89811,20.38289 42.59526,19.10106 L42.18683,18.87413 L41.77851,19.08962 C39.36225,20.38289 36.82114,19.37331 36.59432,19.28256 C36.50357,19.23713 35.81156,18.87413 35.50532,18.26154 C35.19897,17.64895 35.13099,17.00237 35.35781,16.45787 C35.53931,16.01545 35.9704,15.72054 36.67374,15.57303 C37.25223,15.50494 38.001,15.72054 38.60215,15.9588 C38.73833,16.01545 38.86307,15.87938 38.80642,15.75453 C38.73833,15.57303 38.6929,15.3802 38.6929,15.17604 C38.6929,14.8357 38.80642,14.52946 38.98792,14.27987 L39.79334,14.6542 C39.65716,14.79027 39.57774,14.99454 39.6004,15.22136 C39.6345,15.51638 39.88409,15.76586 40.179,15.79996 C40.57599,15.85661 40.905,15.5617 40.93899,15.18737 L41.69909,15.53904 C41.56291,16.09487 41.13193,16.52596 40.57599,16.66203 C40.46258,16.6848 40.45125,16.8322 40.56466,16.8663 C40.9206428,17.0344862 41.5126612,17.31194 42.1356036,17.603306 L42.511439,17.7790322 C43.5775217,18.2773306 44.61442,18.76072 44.61442,18.76072 C44.61442,18.76072 44.6395771,18.7747685 44.6864999,18.7991604 L44.8083614,18.8606378 C45.304604,19.1042148 46.667724,19.697722 47.89286,19.54337 C49.36752,19.46406 50.02554,18.29564 49.15203,18.40905 C48.27852,18.52246 46.21393,17.62629 46.21393,17.62629 L44.83002,16.97971 L45.40851,16.08354 C45.40851,16.08354 47.38235,17.20653 49.12937,17.5923 C50.28646,17.84189 51.06911,17.18387 51.46621,16.70746 C51.59095,16.58261 51.47754,16.37845 51.30737,16.40111 C50.97836,16.44654 50.47929,16.44654 49.80994,16.27637 C47.18952,15.53904 45.57868,11.21703 41.04118,8.494453 Z M29.44762,14.23444 C31.72781,11.27368 36.09514,12.28337 35.15365,12.46487 C34.41632,12.55562 33.29322,12.89585 32.65797,13.2022 C32.41971,13.31561 32.21555,13.42902 32.04538,13.5311 C31.48955,13.8941 30.99037,14.43871 30.59338,15.18737 C29.0393,18.20489 31.88654,21.90298 34.17806,24.87507 C34.56372,25.37414 34.91539,25.83933 35.23307,26.27031 C35.72081,26.93966 36.25398,27.59757 36.77582,28.22149 C38.11441,29.86643 39.58907,31.61334 40.22432,33.55319 C40.39449,34.23376 40.41726,34.86901 40.33784,35.37952 C40.06559,36.9677 38.68157,37.5122 38.68157,37.5122 C38.88584,36.85418 38.99925,36.00344 38.8744,35.02785 L38.8744,35.00519 C38.45475,32.725 36.60565,30.70584 36.60565,30.70584 C36.16323,30.11591 35.68682,29.50343 35.30116,29.00425 C32.2746028,25.1130111 31.3688591,23.9053496 30.6833876,22.7760321 L30.579412,22.6025577 L30.4773742,22.4282114 L30.4266014,22.3400525 L30.3221976,22.1562037 C30.2521001,22.031728 30.1806465,21.9029306 30.10564,21.7668 L30.0942,21.74414 C30.07154,21.69882 30.03755,21.64206 30.00345,21.5853 C29.47039,20.68913 28.04105,18.29564 28.66497,15.78863 C28.81237,15.21003 29.07329,14.68819 29.44762,14.23444 Z M40.74649,3.104662 C39.07889,2.560151 38.33023,3.62648 38.33023,3.62648 L36.76471,6.099456 C36.76471,6.099456 39.39657,6.485149 42.08508,7.993887 C44.6175476,9.41034362 46.8556125,12.3493965 47.090166,12.6629933 L47.11043,12.69026 C47.11043,12.69026 48.42625,9.423227 48.25608,8.674523 C48.09735,7.948512 48.08602,7.721637 46.89483,6.836808 C46.41842,7.052342 45.56757,7.358637 44.87567,7.222501 C43.85465,7.02966 43.33292,6.678001 42.84507,6.246933 C42.35733,5.815854 42.09641,5.180604 42.05098,4.806252 C42.03965,4.715502 42.14173,4.647434 42.22115,4.704161 C42.64091,5.010445 42.98125,5.566297 44.17233,5.963331 C44.85301,6.190206 45.40884,6.122149 45.74918,6.008706 C44.24042,4.96507 42.05098,3.53573 40.74649,3.104662 Z" id="形状结合"></path>
        </g>
    </g>
</svg>