<svg width="1094" height="1094" viewBox="0 0 1094 1094" fill="none" xmlns="http://www.w3.org/2000/svg">
<path fill-rule="evenodd" clip-rule="evenodd" d="M768.157 754.261C780.218 751.033 784.778 747.802 790.574 738.303C792.379 735.342 794.305 731.773 796.237 727.719C800.502 718.768 804.795 707.463 807.877 695.156C809.856 687.256 811.339 678.945 812.545 670.403C814.066 659.613 815.145 648.454 816.221 637.295C818.337 636.696 817.069 635.353 813.403 632.106C807.608 626.979 795.827 617.097 790.794 607.316C785.758 597.531 787.466 587.838 797.822 565.801C808.175 543.765 827.174 509.38 836.959 486.104C846.742 462.835 847.312 450.676 843.988 438.326C840.663 425.977 833.442 413.444 814.446 394.916C795.445 376.395 764.67 351.879 726.675 326.236L725.131 325.201L724.138 327.807C712.976 357.205 711.267 360.53 705.379 362.144C702.954 362.806 699.822 363.186 696.308 363.179C699.173 360.552 701.782 355.064 707.335 342.256C715.663 323.045 730.616 287.37 739.683 254.295C747.617 225.355 751.046 198.402 750.991 174.907C882.852 246.863 972.312 386.779 972.312 547.577C972.312 740.722 843.247 903.726 666.657 955.043C666.095 929.822 665.534 904.601 662.259 880.544C660.085 864.575 656.717 849.118 652.873 834.453C650.927 827.023 648.858 819.794 646.758 812.801C641.1 793.943 635.231 776.821 629.347 759.861C653.673 763.199 685.259 763.563 710.783 762.145C736.524 760.722 756.093 757.491 768.157 754.261Z" fill="#020617"/>
<path fill-rule="evenodd" clip-rule="evenodd" d="M668.718 142.966C648.384 135.794 609.503 124.91 560.473 123.692C511.448 122.48 452.272 130.934 396.442 152.596C340.612 174.259 288.128 209.131 258.935 230.963C229.734 252.801 223.831 261.607 221.724 266.764C219.611 271.914 221.294 273.414 234.989 285.214C248.692 297.014 274.398 319.114 293.482 328.702C312.567 338.283 325.036 335.345 333.278 331.189C341.521 327.032 345.543 321.65 357.738 305.144C369.925 288.645 390.299 261.023 401.782 237.176C413.265 213.336 415.857 193.266 421.176 184.368C426.495 175.464 434.54 177.739 471.025 194.069C507.503 210.406 572.424 240.811 607.274 257.838C642.127 274.866 646.909 278.522 653.618 270.019C660.327 261.516 668.966 240.853 675.784 220.001C682.609 199.148 687.612 178.105 689.224 165.855C690.834 153.604 689.048 150.145 668.718 142.966Z" fill="#020617"/>
<path fill-rule="evenodd" clip-rule="evenodd" d="M210.742 391.965C208.847 402.243 205.867 421.926 215.257 442.962C224.648 463.998 246.409 486.379 258.125 498.221C269.854 510.063 271.538 511.367 269.108 519.898C266.684 528.429 260.14 544.195 263.859 557.538C267.572 570.888 281.542 581.807 287.974 588.063C294.398 594.312 293.299 595.897 289.833 600.476C286.374 605.048 280.555 612.62 287.974 621.205C295.392 629.792 316.033 639.387 335.892 647.313C355.752 655.235 374.815 661.488 386.692 667.112C398.57 672.74 403.262 677.737 412.469 695.701C421.67 713.668 435.386 744.602 440.557 773.648C445.735 802.691 442.36 829.852 439.303 844.102C436.238 858.351 433.484 859.688 419.528 855.814C405.579 851.939 380.422 842.852 364.515 839.803C348.608 836.751 341.951 839.737 337.696 841.273C333.455 842.805 331.616 842.888 324.113 839.641C316.611 836.393 303.451 829.816 294.187 826.352C284.923 822.887 279.555 822.533 274.849 824.25C270.136 825.967 266.078 829.754 265.078 835.491C264.078 841.234 266.142 848.925 259.161 846.14C252.179 843.353 236.166 830.092 218.413 810.765C200.654 791.439 181.161 766.05 165.197 724.808C149.22 683.569 136.778 626.476 130.79 579.271C124.802 532.078 125.274 494.769 133.538 457.77C141.794 420.771 157.842 384.074 166.627 364.342C175.412 344.61 176.941 341.841 181.816 345.962C186.698 350.083 194.919 361.108 200.879 367.921C206.846 374.726 210.544 377.326 211.989 379.066C213.44 380.806 212.63 381.679 210.742 391.965Z" fill="#020617"/>
<path fill-rule="evenodd" clip-rule="evenodd" d="M332.563 400.425C345.574 405.082 367.047 405.836 399.439 410.682C431.824 415.522 475.142 424.455 517.89 440.89C560.63 457.326 602.81 481.264 631.116 502.73C659.425 524.195 673.864 543.195 685.169 561.624C696.471 580.053 704.641 597.905 714.803 610.544C724.969 623.179 737.127 630.584 744.821 634.291C752.512 637.994 755.743 637.994 767.334 637.994C778.922 637.994 798.87 637.994 808.937 637.808C812.635 637.736 814.999 637.639 816.227 637.296C815.145 648.455 814.069 659.613 812.547 670.403C811.342 678.945 809.859 687.259 807.88 695.156C804.795 707.463 800.505 718.768 796.24 727.72C794.307 731.773 792.384 735.342 790.576 738.303C784.781 747.802 780.221 751.033 768.159 754.261C756.095 757.492 736.527 760.722 710.786 762.145C690.9 763.249 667.331 763.273 646.387 761.65C640.214 761.171 634.267 760.549 628.714 759.771C604.3 756.352 587.392 749.894 563.547 738.4C539.707 726.907 508.929 710.377 476.255 696.794C451.901 686.67 426.498 678.183 401.679 670.227C393.204 667.511 384.793 664.855 376.515 662.216C344.024 651.864 313.626 641.795 298.339 632.106C284.503 623.341 283.024 614.89 288.216 604.287C288.765 603.167 289.385 602.019 290.076 600.849C297.289 588.599 311.921 573.403 322.841 555.826C325.37 551.768 327.688 547.591 329.815 543.301C336.881 529.035 341.693 513.656 344.024 498.172C346.568 481.37 346.187 464.427 343.221 448.929C342.63 445.857 341.946 442.835 341.15 439.89C336.374 422.081 327.969 406.78 319.558 391.478C322.235 395.219 326.476 398.248 332.563 400.425ZM454.233 541.645C458.692 555.319 468.393 569.916 482.581 581.089C489.168 586.267 496.72 590.712 504.582 594.347C513.649 598.546 523.117 601.667 531.965 603.618C548.478 607.26 562.821 606.816 575.195 604.661C587.571 602.505 597.964 598.637 603.958 595.693C609.943 592.762 611.518 590.754 610.315 584.59C610.098 583.477 609.79 582.23 609.371 580.849C607.47 574.586 603.292 565.618 594.965 554.326C584.805 540.546 568.47 523.314 550.352 511.923C549.979 511.691 549.598 511.451 549.218 511.219C535.84 503.018 521.553 497.953 508.443 495.178C504.103 494.262 499.89 493.593 495.882 493.142C479.439 491.31 466.442 493.198 459.594 495.368C452.74 497.552 452.035 500.024 451.295 507.633C450.556 515.234 449.774 527.978 454.233 541.645Z" fill="white"/>
<path fill-rule="evenodd" clip-rule="evenodd" d="M469.822 694.542C500.114 707.135 528.646 722.457 550.752 733.112C572.852 743.768 588.53 749.756 611.161 752.923C616.31 753.644 621.822 754.222 627.543 754.665C634.032 773.339 640.521 792.016 646.759 812.801C652.998 833.589 658.986 856.484 662.261 880.544C665.535 904.601 666.097 929.821 666.658 955.042C629.016 965.981 589.215 971.845 548.047 971.845C495.268 971.845 444.742 962.208 398.127 944.599C406.764 934.659 415.401 924.722 422.622 911.298C429.843 897.875 435.655 880.968 438.564 860.274C438.712 859.197 438.86 858.108 438.994 857.013C441.466 837.034 441.368 813.855 439.529 791.232C437.592 767.368 433.717 744.12 426.926 724.003C420.128 703.887 410.406 686.9 400.691 669.916C423.693 677.288 447.25 685.156 469.822 694.542Z" fill="white"/>
<path fill-rule="evenodd" clip-rule="evenodd" d="M615.103 259.157C582.752 241.221 520.643 206.934 483.778 190.146C446.913 173.358 435.296 174.063 428.85 176.578C422.404 179.086 421.136 183.404 417.684 195.451C414.225 207.497 408.589 227.279 394.161 251.189C379.727 275.099 356.507 303.144 342.22 322.616C327.933 342.088 322.579 352.986 319.705 361.412C316.824 369.837 316.422 375.783 319.106 383.004C321.783 390.239 327.553 398.742 352.273 405.019C376.993 411.296 420.678 415.347 467.878 428.027C515.078 440.715 565.797 462.018 606.657 491.346C647.514 520.666 678.513 558.011 697.097 583.632C715.675 609.254 721.839 623.173 735.576 631.184C749.314 639.198 770.624 641.314 785.16 641.38C799.698 641.449 807.458 639.47 811.484 637.998C815.51 636.528 815.793 635.565 809.272 630.036C802.747 624.508 789.417 614.417 791.379 589.649C793.343 564.872 810.603 525.428 822.211 500.497C833.816 475.565 839.762 465.167 843.904 453.452C848.04 441.743 850.368 428.718 833.744 408.471C817.12 388.224 781.541 360.75 759.617 344.37C737.69 327.991 729.412 322.708 723.688 323.764C717.964 324.821 714.794 332.218 710.391 342.081C705.988 351.944 700.349 364.272 688.965 366.554C677.578 368.837 660.445 361.067 647.676 352.881C634.908 344.688 626.506 336.079 625.028 329.605C623.554 323.13 629.005 318.784 634.762 310.922C640.522 303.06 646.586 291.668 648.32 285.173C650.054 278.685 647.453 277.093 615.103 259.157Z" fill="white"/>
<path fill-rule="evenodd" clip-rule="evenodd" d="M507.173 969.9C469.138 966.265 432.562 957.607 398.127 944.599C406.764 934.659 415.401 924.722 422.622 911.298C429.843 897.875 435.655 880.968 438.564 860.274C438.712 859.197 438.86 858.108 438.994 857.013C441.466 837.034 441.368 813.855 439.529 791.232C437.592 767.368 433.717 744.12 426.926 724.003C420.128 703.887 410.406 686.9 400.691 669.916C415.57 674.682 430.674 679.664 445.602 685.12C460.593 718.101 475.613 754.536 486.342 784.501C505.891 839.101 511.175 872.209 511.175 913.424C511.175 931.591 510.146 951.331 507.173 969.9Z" fill="white"/>
<path fill-rule="evenodd" clip-rule="evenodd" d="M328.448 562.759C319.085 577.82 306.545 590.839 300.36 601.343C299.768 602.35 299.233 603.323 298.768 604.288C289.208 594.46 279.648 584.633 272.836 573.854C266.017 563.083 261.945 551.36 262.466 541.004C262.994 530.648 268.102 521.659 273.216 512.663C276.901 515.46 280.536 518.116 284.065 520.617C302.924 534.002 318.669 543.012 334.414 552.022C332.597 555.693 330.603 559.279 328.448 562.759Z" fill="white"/>
<path fill-rule="evenodd" clip-rule="evenodd" d="M334.414 552.022C318.669 543.012 302.924 534.002 284.065 520.617C280.536 518.116 276.901 515.46 273.216 512.663C257.239 500.539 240.514 485.85 228.735 470.041C214.244 450.584 207.242 429.414 205.1 413.972C202.958 398.53 205.671 388.801 208.39 379.079C218.133 389.132 229.088 398.692 240.782 407.843C262.113 424.532 285.883 439.84 303.812 450.154C321.734 460.474 333.822 465.807 345.911 471.147C348.454 484.427 348.771 498.939 346.602 513.346C344.594 526.618 340.473 539.793 334.414 552.022Z" fill="white"/>
<path fill-rule="evenodd" clip-rule="evenodd" d="M334.414 552.022C318.669 543.012 302.924 534.002 284.065 520.617C280.536 518.116 276.901 515.46 273.216 512.663C257.239 500.539 240.514 485.85 228.735 470.041C216.964 454.233 210.137 437.304 206.84 423.229C211.842 430.922 221.711 443.729 235.195 455.769C250.341 469.28 270.039 481.82 289.588 487.069C309.13 492.317 328.517 490.274 347.158 484.096L347.637 483.934C348.405 493.5 348.095 503.448 346.602 513.346C344.594 526.618 340.473 539.793 334.414 552.022Z" fill="white"/>
<path fill-rule="evenodd" clip-rule="evenodd" d="M303.812 450.154C285.883 439.84 262.113 424.532 240.782 407.843C229.088 398.692 218.133 389.132 208.39 379.079C201.43 371.9 195.09 364.475 189.546 356.775C188.7 355.599 187.869 354.408 187.052 353.218C173.54 333.359 165.403 311.703 161.493 290.209C157.584 268.716 157.915 247.391 159.944 235.422C161.979 223.46 165.727 220.853 174.273 227.609C182.825 234.365 196.175 250.484 215.795 268.476C222.692 274.802 230.363 281.361 238.521 287.765C253.555 299.572 265.763 308.596 286.715 319.206C307.659 329.822 313.295 330.583 338.233 336.472C330.639 346.018 326.102 351.471 317.233 363.891C308.363 376.311 323.291 401.587 322.615 408.815C321.924 416.05 323.016 418.269 325.63 421.912C332.837 435.022 340.044 448.132 344.137 463.398C344.813 465.927 345.404 468.513 345.911 471.147C333.822 465.807 321.734 460.474 303.812 450.154Z" fill="white"/>
<path fill-rule="evenodd" clip-rule="evenodd" d="M303.812 450.154C285.883 439.84 262.113 424.532 240.782 407.843C229.088 398.692 218.133 389.132 208.39 379.079C201.43 371.9 195.09 364.475 189.546 356.775C188.7 355.599 187.869 354.408 187.052 353.218C173.54 333.359 165.403 311.703 161.493 290.209C159.239 277.81 158.394 265.476 158.471 254.951C159.084 255.578 159.718 256.36 160.373 257.332C166.072 265.8 173.202 287.758 189.954 309.16C206.707 330.569 233.082 351.408 260.233 361.158C287.376 370.915 302.149 369.597 312.829 369.548C323.516 369.499 318.958 369.555 321.593 369.654L320.388 371.338C308.588 387.865 323.291 401.587 322.615 408.815C321.924 416.05 323.016 418.269 325.63 421.912C332.837 435.022 340.044 448.132 344.137 463.398C344.58 465.047 344.982 466.724 345.348 468.422C344.312 468.795 343.249 469.147 342.15 469.478C331.258 464.653 319.881 459.404 303.812 450.154Z" fill="white"/>
<path fill-rule="evenodd" clip-rule="evenodd" d="M421.727 854.811C408.962 848.696 382.114 841.231 366.827 838.707C351.533 836.186 347.813 838.605 345.531 841.016C343.248 843.43 342.41 845.829 335.288 842.722C328.165 839.616 314.759 830.999 303.53 826.657C292.3 822.314 283.248 822.245 276.689 824.106C270.138 825.966 266.08 829.753 266.826 838.619C267.573 847.485 273.125 861.435 284.861 874.685C296.598 887.938 314.513 900.495 334.421 912.028C354.33 923.564 376.232 934.081 387.525 938.944C398.818 943.807 399.508 943.011 405.045 934.093C410.582 925.174 420.973 908.128 426.25 896.169C431.526 884.212 431.689 877.341 432.428 871.518C433.168 865.698 434.492 860.931 421.727 854.811Z" fill="white"/>
<path fill-rule="evenodd" clip-rule="evenodd" d="M482.581 581.089C468.393 569.916 458.692 555.319 454.233 541.645C449.774 527.978 450.556 515.234 451.295 507.633C452.035 500.024 452.74 497.552 459.594 495.368C466.442 493.198 479.439 491.31 495.882 493.142C499.89 493.593 504.103 494.262 508.443 495.178C501.137 505.16 495.803 516.826 493.154 529.732C488.392 552.853 493.085 575.728 504.582 594.347C496.72 590.712 489.168 586.267 482.581 581.089Z" fill="white"/>
<path fill-rule="evenodd" clip-rule="evenodd" d="M545.687 553.685C545.687 577.13 561.404 596.911 582.872 603.062C580.42 603.66 577.854 604.196 575.195 604.661C562.821 606.816 548.478 607.26 531.965 603.618C523.117 601.667 513.649 598.546 504.582 594.347C493.085 575.728 488.392 552.853 493.154 529.732C495.803 516.826 501.137 505.16 508.443 495.178C521.919 498.038 536.65 503.307 550.352 511.923C553.536 513.924 556.663 516.108 559.706 518.418C551.02 527.619 545.687 540.025 545.687 553.685Z" fill="white"/>
<path fill-rule="evenodd" clip-rule="evenodd" d="M537.34 530.634C529.358 530.634 522.884 537.101 522.884 545.083C522.884 553.065 529.358 559.539 537.34 559.539C545.322 559.539 551.789 553.065 551.789 545.083C551.789 537.101 545.322 530.634 537.34 530.634Z" fill="white"/>
<path fill-rule="evenodd" clip-rule="evenodd" d="M582.872 603.062C561.404 596.911 545.687 577.13 545.687 553.685C545.687 540.025 551.02 527.619 559.706 518.418C574.016 529.267 586.588 542.969 594.965 554.326C605.122 568.105 609.11 578.426 610.315 584.59C611.518 590.754 609.943 592.762 603.958 595.693C599.253 598.003 591.832 600.885 582.872 603.062Z" fill="#020617"/>
<path fill-rule="evenodd" clip-rule="evenodd" d="M469.822 694.542C500.114 707.135 528.646 722.457 550.752 733.112C572.852 743.768 588.53 749.756 611.161 752.923C616.31 753.644 621.822 754.222 627.543 754.665C634.032 773.339 640.521 792.016 646.759 812.801C648.859 819.794 650.929 827.023 652.875 834.453C631.564 834.34 601.778 831.707 575.109 822.722C542.172 811.626 513.993 790.844 480.002 774.641C465.476 767.712 449.879 761.625 434.894 755.362C432.851 744.36 430.237 733.808 426.926 724.003C420.128 703.887 410.406 686.9 400.691 669.916C423.693 677.288 447.25 685.156 469.822 694.542Z" fill="white"/>
<path fill-rule="evenodd" clip-rule="evenodd" d="M665.984 364.208C656.463 361.623 647.459 356.536 640.541 351.288C633.628 346.047 628.793 340.65 626.426 337.445C624.054 334.232 624.153 333.211 631.765 319.333C635.463 312.584 640.937 302.806 646.872 291.506C653.149 279.558 659.944 265.905 665.701 252.365C675.052 230.357 681.659 208.638 686.629 187.088C687.606 182.84 688.522 178.599 689.384 174.365C694.609 148.645 697.801 123.142 699.672 105.206C701.55 87.2704 702.1 76.9005 703.515 70.9336C704.929 64.9666 707.199 63.4027 713.168 68.5665C719.136 73.7304 728.804 85.629 736.416 102.029C744.022 118.437 749.572 139.36 750.756 165.052C751.468 180.579 750.591 197.845 747.781 216.373C745.94 228.511 743.276 241.199 739.685 254.295C730.617 287.371 715.664 323.045 707.334 342.256C701.946 354.683 699.329 360.221 696.563 362.94C695.055 364.419 693.5 365.067 691.425 365.532C685.553 366.864 675.506 366.786 665.984 364.208Z" fill="white"/>
<path fill-rule="evenodd" clip-rule="evenodd" d="M655.383 360.277C649.888 357.713 644.817 354.528 640.541 351.288C633.628 346.047 628.793 340.65 626.426 337.445C624.054 334.232 624.153 333.211 631.765 319.333C635.463 312.584 640.937 302.806 646.872 291.506C653.149 279.558 659.944 265.905 665.701 252.365C675.052 230.357 681.659 208.638 686.629 187.088C687.606 182.84 688.522 178.599 689.384 174.365C694.609 148.645 697.801 123.142 699.672 105.206C701.55 87.2704 702.1 76.9005 703.515 70.9336C704.376 67.2985 705.556 65.298 707.694 65.453C711.646 80.4724 715.366 98.3098 716.849 117.324C719.458 150.843 715.105 187.99 706.689 222.157C698.274 256.331 685.797 287.526 673.172 318.142C667.109 332.845 661.014 347.413 655.383 360.277Z" fill="white"/>
<path d="M741.544 825.999C741.544 836.613 741.544 847.224 741.544 857.838M753.371 841.918C745.488 841.918 737.603 841.918 729.719 841.918M880.912 668.113C880.912 685.01 880.912 701.906 880.912 718.799M899.735 693.458C887.186 693.458 874.635 693.458 862.086 693.458M346.228 730.969C346.228 739.42 346.228 747.868 346.228 756.321M355.647 743.643C349.37 743.643 343.093 743.643 336.816 743.643M233.447 693.915C233.447 704.529 233.447 715.145 233.447 725.756M245.268 709.837C237.385 709.837 229.495 709.837 221.619 709.837M191.144 533.24C191.144 540.482 191.144 547.724 191.144 554.959M199.21 544.103C193.835 544.103 188.452 544.103 183.077 544.103M907.43 475.5C907.43 483.947 907.43 492.401 907.43 500.855M916.844 488.174C910.567 488.174 904.29 488.174 898.012 488.174M811.15 284.305C811.15 295.887 811.15 307.476 811.15 319.057M824.054 301.678C815.451 301.678 806.846 301.678 798.244 301.678M618.903 174.336C618.903 188.511 618.903 202.685 618.903 216.859M634.699 195.597C624.171 195.597 613.642 195.597 603.111 195.597M860.745 571.662C860.745 580.109 860.745 588.563 860.745 597.016M870.161 584.336C863.882 584.336 857.605 584.336 851.328 584.336M319.006 250.039C319.006 257.281 319.006 264.523 319.006 271.765M327.072 260.902C321.697 260.902 316.315 260.902 310.94 260.902" stroke="white" stroke-width="14.9771" stroke-miterlimit="22.9256" stroke-linecap="round"/>
<path d="M594.962 554.328C605.122 568.108 609.107 578.428 610.309 584.593C611.515 590.757 609.937 592.764 603.952 595.695C597.961 598.64 587.568 602.507 575.193 604.663C562.818 606.819 548.475 607.263 531.962 603.62M594.962 554.328C584.802 540.548 568.467 523.317 550.349 511.926M594.962 554.328C605.12 568.108 609.108 578.428 610.313 584.592C611.516 590.756 609.941 592.764 603.956 595.695C599.251 598.005 591.831 600.887 582.872 603.063C561.403 596.913 545.686 577.132 545.686 553.687C545.686 540.027 551.019 527.621 559.705 518.42C574.015 529.269 586.585 542.972 594.962 554.328ZM550.349 511.926C536.647 503.31 521.916 498.04 508.44 495.18C501.134 505.156 495.808 516.829 493.145 529.735C488.39 552.856 493.082 575.73 504.572 594.35C513.639 598.541 523.114 601.669 531.962 603.62M550.349 511.926C532.23 500.534 512.328 494.983 495.879 493.144C479.429 491.313 466.439 493.2 459.591 495.377C452.737 497.554 452.032 500.027 451.292 507.635C450.553 515.237 449.771 527.981 454.23 541.647C458.689 555.321 468.39 569.925 482.578 581.091C496.766 592.25 515.449 599.978 531.962 603.62M644.854 275.502C630.272 267.133 615.643 259.046 601.383 251.48C559.304 229.162 520.353 211.303 493.949 199.496C467.539 187.696 453.674 181.955 442.586 180.003C431.497 178.059 423.192 179.912 419.867 187.717C416.541 195.53 418.197 209.31 414.562 222.843C410.927 236.376 401.994 249.676 387.087 268.866C372.173 288.056 351.271 313.129 337.499 332.41C323.726 351.692 317.076 365.183 316.033 376.201C314.991 387.226 319.549 395.771 332.56 400.428C345.572 405.084 367.045 405.838 399.437 410.685C431.829 415.525 475.14 424.457 517.888 440.893C560.628 457.328 602.808 481.266 631.114 502.732C659.423 524.197 673.862 543.197 685.167 561.626C696.469 580.056 704.639 597.907 714.801 610.547C724.967 623.181 737.125 630.586 744.819 634.293C752.51 637.997 755.741 637.997 767.332 637.997C778.92 637.997 798.865 637.997 808.935 637.81C819.004 637.62 819.197 637.237 813.404 632.108C807.608 626.982 795.828 617.099 790.794 607.319C785.759 597.534 787.467 587.84 797.823 565.804C808.175 543.768 827.174 509.382 836.959 486.106C846.743 462.837 847.312 450.678 843.988 438.328C840.664 425.979 833.443 413.446 814.446 394.918C795.445 376.398 764.671 351.882 726.675 326.239C726.161 325.894 725.644 325.549 725.132 325.203M816.225 637.298C814.29 657.29 812.358 677.28 807.878 695.159C803.398 713.041 796.367 728.809 790.575 738.305C784.779 747.805 780.219 751.035 768.157 754.263C756.093 757.494 736.525 760.725 710.784 762.148C685.04 763.576 653.124 763.196 628.712 759.773C604.298 756.355 587.39 749.896 563.545 738.402C539.706 726.91 508.927 710.379 476.253 696.796C443.579 683.213 408.997 672.574 376.513 662.219C344.023 651.867 313.624 641.798 298.337 632.108C283.043 622.422 282.853 613.109 290.074 600.852C297.288 588.601 311.919 573.405 322.839 555.829C333.765 538.259 340.986 518.308 344.023 498.174C347.066 478.033 345.925 457.709 341.148 439.892C336.372 422.083 327.968 406.782 319.556 391.481M400.69 669.919C410.405 686.903 420.126 703.89 426.925 724.007C433.716 744.123 437.59 767.371 439.528 791.235C441.465 815.099 441.465 839.583 438.563 860.277C435.653 880.971 429.841 897.878 422.62 911.302C415.399 924.725 406.762 934.663 398.126 944.602M627.542 754.669C634.03 773.342 640.519 792.019 646.758 812.804C652.996 833.592 658.985 856.488 662.259 880.547C665.533 904.604 666.095 929.825 666.656 955.046M438.992 857.016C420.091 851.969 401.197 846.916 386.643 842.544C372.081 838.171 361.866 834.472 355.265 833.768C348.657 833.063 345.663 835.353 344.078 841.032C342.493 846.713 342.317 855.783 343.684 863.928C345.043 872.074 347.953 879.295 350.855 886.516M341.577 848.231C320.281 838.713 298.978 829.197 285.423 824.877C271.869 820.556 266.057 821.437 263.507 824.874C260.95 828.308 261.654 834.293 263.803 842.359C265.938 850.427 269.523 860.574 273.102 870.72M334.301 336.975C318.598 333.382 302.888 329.789 282.092 318.06C261.296 306.33 235.406 286.471 215.793 268.479C196.174 250.486 182.824 234.368 174.271 227.612C165.726 220.856 161.978 223.462 159.942 235.424C157.913 247.394 157.582 268.718 161.492 290.212C165.402 311.705 173.539 333.361 187.051 353.22C200.569 373.087 219.457 391.157 240.781 407.846C262.113 424.535 285.882 439.843 303.811 450.157C321.733 460.477 333.822 465.81 345.91 471.15M208.389 379.082C205.67 388.804 202.957 398.533 205.099 413.975C207.241 429.417 214.243 450.586 228.734 470.044C243.219 489.495 265.205 507.248 282.909 519.964C300.619 532.679 314.054 540.365 327.495 548.051M273.215 512.665C268.1 521.661 262.993 530.65 262.465 541.006C261.943 551.362 266.015 563.084 271.736 572.722C277.456 582.366 284.825 589.925 292.194 597.484M796.237 727.722C777.01 726.833 757.785 725.946 736.772 730.061C715.758 734.18 692.962 743.3 668.514 747.57C644.07 751.844 617.974 751.269 595.174 746.434C572.369 741.602 552.857 732.507 539.31 719.59C525.756 706.673 518.169 689.936 510.582 673.196M747.301 688.667C744.829 684.867 742.361 681.067 740.509 677.03C738.657 672.993 737.421 668.716 736.185 664.442M795.241 686.025C799.418 683.219 803.598 680.409 806.485 677.805C809.366 675.202 810.957 672.803 812.545 670.406M750.991 174.909C882.852 246.864 972.312 386.781 972.312 547.578C972.312 781.897 782.359 971.848 548.046 971.848C313.729 971.848 123.774 781.897 123.774 547.578C123.774 471.798 143.654 400.645 178.469 339.067M222.985 274.91C300.809 182.229 417.548 123.313 548.046 123.313C599.311 123.313 648.453 132.401 693.945 149.069M691.424 365.535C685.551 366.866 675.505 366.789 665.983 364.21C656.462 361.625 647.458 356.538 640.542 351.29C633.626 346.049 628.792 340.652 626.425 337.44C624.053 334.235 624.152 333.213 631.764 319.335C639.376 305.457 654.502 278.708 665.7 252.367C676.894 226.02 684.154 200.088 689.382 174.367C694.608 148.647 697.8 123.145 699.671 105.209C701.546 87.2726 702.099 76.9027 703.514 70.9357C704.927 64.9688 707.198 63.4049 713.167 68.5687C719.138 73.7325 728.803 85.6312 736.415 102.031C744.021 118.439 749.571 139.362 750.755 165.054C751.938 190.746 748.751 221.215 739.684 254.297C730.613 287.373 715.663 323.048 707.333 342.259C699.003 361.47 697.299 364.21 691.424 365.535Z" stroke="#020617" stroke-width="19.9695" stroke-miterlimit="22.9256" stroke-linecap="round"/>
</svg>
