<svg width="200" height="200" viewBox="0 0 200 200" fill="none" xmlns="http://www.w3.org/2000/svg">
<circle cx="100" cy="100" r="100" fill="white"/>
<circle cx="99.5" cy="100.5" r="91.5" fill="#232323"/>
<path d="M181.2 100.1C181.2 144.89 144.89 181.2 100.1 181.2C55.3097 181.2 19 144.89 19 100.1C19 55.3097 55.3097 19 100.1 19C144.89 19 181.2 55.3097 181.2 100.1Z" stroke="white" stroke-opacity="0.7" stroke-width="7" stroke-linecap="square"/>
<path d="M100 100L166 155L155 166L100 100Z" fill="#232323"/>
<path d="M100 100L166 155L155 166L100 100Z" fill="#232323"/>
<path d="M100 100L45 166L34 155L100 100Z" fill="#232323"/>
<path d="M100 100L45 166L34 155L100 100Z" fill="#232323"/>
<path d="M100 100L155.097 34.0812L166.081 45.0974L100 100Z" fill="#232323"/>
<path d="M100 100L155.097 34.0812L166.081 45.0974L100 100Z" fill="#232323"/>
<path d="M100 100L34 45L45 34L100 100Z" fill="#232323"/>
<path d="M100 100L34 45L45 34L100 100Z" fill="#232323"/>
<path d="M160.97 105.598C159.181 105.618 157.227 106.101 155.261 107.251L105.432 138.195L105.928 138.495C107.33 139.312 109.175 139.883 111.216 139.842C113.006 139.829 114.966 139.352 116.933 138.196L126.725 132.112L166.741 107.232L166.231 106.919C164.822 106.136 163.012 105.584 160.97 105.598Z" fill="white"/>
<path d="M128.101 89.5873L144.713 99.9042L128.101 110.235C129.306 107.022 130.014 103.538 130.014 99.9042C130.014 96.2634 129.306 92.8063 128.101 89.5873ZM73.1556 89.5873C71.9579 92.8063 71.2434 96.2768 71.2434 99.9042C71.2434 103.538 71.9307 107.009 73.1556 110.221L56.5508 99.9042L73.1556 89.5873ZM100.635 76.664C113.497 76.664 123.84 87.0352 123.84 99.9044C123.84 112.78 113.476 123.131 100.635 123.131C87.759 123.131 77.4012 112.76 77.4012 99.9044C77.4012 87.0492 87.7792 76.664 100.635 76.664ZM100.635 65.3672L97.756 67.1433L86.3777 74.214C85.561 74.67 84.7852 75.1531 84.0162 75.6908L45.0703 99.9032L84.0162 124.104C84.7988 124.634 85.6018 125.131 86.432 125.601L100.648 134.414L114.626 125.723C114.66 125.696 114.701 125.662 114.735 125.648C115.606 125.172 116.45 124.634 117.267 124.063L156.207 99.9042L117.255 75.7039C116.479 75.1731 115.683 74.6559 114.846 74.2L100.635 65.3672Z" fill="white"/>
<path d="M88.5387 60.0029C86.749 60.0165 84.7958 60.4997 82.8223 61.6498L73.0295 67.7473L33 92.62C35.5928 94.3486 39.9754 95.2401 44.4942 92.62L94.3233 61.662L93.8265 61.3625C92.4246 60.5323 90.6007 59.9689 88.5387 60.0029Z" fill="white"/>
</svg>