<svg width="201" height="201" viewBox="0 0 201 201" fill="none" xmlns="http://www.w3.org/2000/svg">
<circle cx="100.77" cy="100.804" r="100" fill="#00E2ED"/>
<path d="M170.687 106.87C168.695 106.893 166.522 107.441 164.333 108.746L108.883 143.857L109.436 144.196C110.996 145.123 113.048 145.771 115.32 145.725C117.312 145.71 119.493 145.169 121.681 143.857L132.579 136.954L177.108 108.724L176.54 108.369C174.973 107.481 172.959 106.855 170.687 106.87Z" fill="#232323"/>
<path d="M134.109 88.6977L152.594 100.403L134.109 112.125C135.449 108.48 136.237 104.527 136.237 100.403C136.237 96.2726 135.449 92.35 134.109 88.6977ZM72.9645 88.6977C71.6316 92.35 70.8366 96.2878 70.8366 100.403C70.8366 104.527 71.6015 108.465 72.9645 112.109L54.4865 100.403L72.9645 88.6977ZM103.543 74.0345C117.856 74.0345 129.367 85.802 129.367 100.404C129.367 115.013 117.833 126.757 103.543 126.757C89.2153 126.757 77.6891 114.99 77.6891 100.404C77.6891 85.8178 89.2378 74.0345 103.543 74.0345ZM103.543 61.2168L100.34 63.232L87.6782 71.2547C86.7694 71.772 85.9061 72.3202 85.0503 72.9302L41.7109 100.402L85.0503 127.861C85.9212 128.463 86.8147 129.027 87.7386 129.559L103.559 139.559L119.114 129.698C119.151 129.668 119.197 129.629 119.235 129.613C120.204 129.073 121.143 128.463 122.052 127.814L165.385 100.403L122.038 72.9452C121.175 72.3429 120.289 71.7561 119.357 71.2387L103.543 61.2168Z" fill="#232323"/>
<path d="M90.0832 55.1302C88.0916 55.1456 85.9182 55.6939 83.722 56.9988L72.8245 63.9173L28.2793 92.1386C31.1646 94.0999 36.0416 95.1114 41.0702 92.1386L96.5205 57.0127L95.9676 56.6729C94.4076 55.7309 92.3779 55.0916 90.0832 55.1302Z" fill="#232323"/>
</svg>