<svg version="1.1" id="Layer_1" xmlns="http://www.w3.org/2000/svg" xmlns:xlink="http://www.w3.org/1999/xlink" x="0px" y="0px"
	 width="100%" viewBox="0 0 640 640" enable-background="new 0 0 640 640" xml:space="preserve">
<path fill="#FFFFFF" opacity="1.000000" stroke="none" 
	d="
M377.000000,641.000000 
	C251.333374,641.000000 126.166756,641.000000 1.000101,641.000000 
	C1.000067,427.666779 1.000067,214.333572 1.000034,1.000273 
	C214.333130,1.000182 427.666260,1.000182 640.999512,1.000091 
	C640.999695,214.333069 640.999695,427.666138 640.999878,640.999634 
	C553.166687,641.000000 465.333344,641.000000 377.000000,641.000000 
M85.470123,207.058990 
	C85.364235,207.362732 85.258339,207.666473 84.999466,208.406113 
	C84.999466,208.406113 84.954857,208.865921 84.379593,209.148621 
	C83.973572,210.096313 83.567558,211.044022 82.860008,212.607697 
	C77.866638,219.047195 72.873260,225.486694 67.209595,232.354370 
	C64.238899,241.147858 65.876213,249.030609 72.165932,256.672272 
	C77.762291,261.151825 83.358650,265.631409 89.216866,270.727997 
	C95.107773,276.500916 100.998672,282.273804 107.171463,288.678589 
	C108.797844,290.885162 110.489555,293.046936 112.038902,295.306335 
	C117.682068,303.535736 123.277649,311.797760 128.994324,320.772339 
	C139.849899,338.905243 149.591248,357.878357 167.222260,371.731659 
	C179.888885,388.334442 189.663620,406.612030 199.180725,425.145355 
	C211.300095,448.746185 218.553375,473.830078 225.216141,499.319855 
	C229.916885,517.303528 236.740921,534.706909 245.998718,551.779541 
	C251.033768,560.658020 255.659470,569.801941 261.202209,578.351318 
	C269.025574,590.418335 281.669708,593.984131 295.733215,596.210876 
	C301.995178,597.140808 308.281708,598.973328 314.513733,598.803711 
	C325.804688,598.496460 337.180542,597.694275 348.306763,595.824219 
	C363.721558,593.233337 376.944275,586.757385 384.244293,571.516785 
	C389.927094,559.652527 397.123932,548.445312 402.026825,536.292114 
	C408.799805,519.503540 415.488098,502.439423 419.626434,484.883667 
	C426.501678,455.717590 439.192383,429.258087 453.317383,403.276276 
	C458.188477,394.316315 463.828705,385.774445 469.739105,376.773590 
	C473.064301,373.113190 476.296692,369.362152 479.749695,365.826538 
	C481.805939,363.721130 484.780273,362.336823 486.363068,359.972961 
	C496.489594,344.849243 506.724976,329.775635 516.195679,314.241150 
	C528.954895,293.312683 544.218384,274.928772 564.447021,260.714203 
	C573.922668,254.055695 579.392822,240.364487 571.814758,228.371887 
	C567.254333,223.239594 562.693909,218.107285 558.010010,212.239334 
	C551.026733,197.937759 544.126648,183.594193 536.958435,169.385895 
	C536.025085,167.535873 533.711609,166.382217 531.803284,164.334534 
	C531.239441,163.536942 530.675598,162.739334 530.032471,161.210617 
	C529.231262,159.843475 528.714783,158.148499 527.581177,157.164047 
	C521.626099,151.992645 515.697327,146.761230 509.424438,141.991028 
	C489.356964,126.730659 469.477936,111.185638 448.853180,96.709244 
	C437.152191,88.496361 424.156799,82.120613 411.670990,75.046959 
	C410.717773,74.506950 409.179413,74.999878 408.156006,75.651466 
	C412.518585,81.354309 417.473389,86.705612 421.113403,92.837387 
	C427.549866,103.679794 433.921509,115.008942 431.825562,128.255890 
	C430.343567,137.622467 427.250824,146.734192 424.260376,156.275497 
	C423.460358,158.169403 422.660339,160.063309 421.244293,162.223526 
	C419.144592,164.777527 417.044891,167.331528 414.307861,170.175064 
	C409.209717,173.103592 404.369324,176.681458 398.960846,178.828049 
	C387.005402,183.573105 374.950104,187.838882 363.466217,193.900238 
	C350.200653,200.901993 336.075470,206.280273 322.278076,212.258545 
	C321.256897,212.701004 319.706543,212.675323 318.676636,212.231110 
	C304.570435,206.146561 289.911224,201.013245 276.608124,193.488785 
	C262.665039,185.602341 247.165298,181.989365 232.749207,174.286102 
	C229.868561,172.177750 226.987900,170.069382 223.807312,167.341263 
	C221.816330,164.557053 219.825363,161.772858 217.737717,158.286362 
	C215.198303,151.845642 212.658890,145.404922 210.014755,138.099503 
	C209.620819,132.732651 209.226883,127.365799 208.975327,121.161583 
	C209.559814,118.326744 209.907776,115.417831 210.768448,112.669479 
	C215.244110,98.377678 223.225220,86.131645 233.629532,74.643082 
	C229.764221,75.763474 225.455582,76.141350 222.112976,78.137184 
	C209.866791,85.449219 197.941986,93.299500 185.272018,101.234909 
	C184.442490,101.738777 183.562454,102.175568 182.790833,102.756386 
	C166.613113,114.933716 150.271973,126.903648 134.350708,139.408051 
	C125.843987,146.089157 118.065804,153.697861 109.330650,161.194031 
	C107.207466,164.758072 105.084290,168.322098 102.320396,172.190125 
	C100.598770,175.457458 98.877136,178.724777 97.001282,182.417191 
	C97.001282,182.417191 96.955696,182.867096 96.322426,183.215622 
	C94.598473,187.141251 92.874527,191.066879 90.997879,195.412003 
	C90.997879,195.412003 90.956436,195.856476 90.469040,196.058075 
	C90.362686,196.362305 90.256332,196.666550 89.997169,197.403137 
	C89.997169,197.403137 89.953300,197.859619 89.322662,198.208115 
	C88.265549,200.802872 87.208427,203.397629 85.998596,206.412888 
	C85.998596,206.412888 85.957069,206.858307 85.470123,207.058990 
z"/>
<path fill="#F93535" opacity="1.000000" stroke="none" 
	d="
M571.830078,229.055481 
	C579.392822,240.364487 573.922668,254.055695 564.447021,260.714203 
	C544.218384,274.928772 528.954895,293.312683 516.195679,314.241150 
	C506.724976,329.775635 496.489594,344.849243 486.363068,359.972961 
	C484.780273,362.336823 481.805939,363.721130 479.749695,365.826538 
	C476.296692,369.362152 473.064301,373.113190 469.075562,376.924957 
	C459.921112,385.424255 451.332977,393.676605 442.987793,402.167755 
	C439.710297,405.502594 436.976440,409.371735 434.033020,412.637329 
	C442.725464,396.671478 451.378296,381.064972 460.034821,365.460510 
	C465.889679,354.906464 471.758881,344.360352 477.598328,333.797791 
	C478.566589,332.046295 479.809753,330.169067 476.940979,328.594147 
	C483.644409,315.390045 488.348114,301.933929 488.963013,287.385956 
	C489.329071,278.724457 489.266693,270.019592 488.830902,261.362701 
	C488.671143,258.189636 486.574158,255.468811 482.499390,255.999557 
	C479.095795,256.442871 475.703918,257.058899 472.285919,257.292023 
	C464.246643,257.840363 460.294708,262.158905 459.998444,270.071930 
	C459.992218,270.238312 460.024139,270.417908 459.972961,270.569244 
	C456.948456,279.514374 454.667023,289.078827 445.408661,293.955139 
	C438.885315,297.390869 431.971313,300.084778 424.982788,303.221649 
	C424.982788,305.362244 425.275208,307.897064 424.934235,310.343628 
	C423.043274,323.911896 421.037079,337.464508 418.995850,351.011292 
	C416.688416,366.324371 414.606506,381.680054 411.878174,396.919067 
	C407.900543,419.136353 400.498199,440.223755 389.499023,459.987579 
	C388.748962,461.335297 387.728760,462.532684 386.834167,463.799957 
	C386.413116,463.690674 385.992065,463.581390 385.571014,463.472076 
	C394.201172,413.456268 390.873688,363.427521 386.927795,312.612122 
	C370.923096,311.391724 355.253418,309.484650 339.552429,309.177551 
	C319.314301,308.781738 299.050995,309.660370 278.799072,310.021271 
	C277.833282,310.038483 276.879517,310.416290 275.908844,310.525482 
	C268.940430,311.309631 261.969055,312.067719 255.040894,312.500763 
	C256.345154,310.655273 257.498688,309.034698 258.885040,307.646667 
	C292.833649,273.657440 326.853882,239.739441 360.679260,205.628174 
	C363.156647,203.129837 364.256989,199.265991 366.311096,195.889771 
	C369.346191,194.183380 371.935425,192.298981 374.814697,191.127380 
	C382.758575,187.894913 391.044006,185.424881 398.770752,181.760162 
	C404.866547,178.869003 410.333832,174.652618 416.418579,170.985016 
	C419.179840,167.961685 421.602814,164.978149 424.322052,161.845566 
	C425.973785,159.841507 428.583618,158.043076 424.877136,155.959686 
	C427.250824,146.734192 430.343567,137.622467 431.825562,128.255890 
	C433.921509,115.008942 427.549866,103.679794 421.113403,92.837387 
	C417.473389,86.705612 412.518585,81.354309 408.391846,75.360420 
	C417.480408,80.298332 426.534637,85.217079 435.149292,90.812622 
	C464.541626,109.904030 492.489197,130.953659 519.215027,153.632080 
	C522.693176,156.583496 526.472107,159.180557 530.111694,161.941742 
	C530.675598,162.739334 531.239441,163.536942 531.916077,164.998291 
	C537.794189,177.331329 543.489014,189.036301 549.364319,200.649918 
	C551.336304,204.547836 553.768433,208.213043 555.993591,212.353592 
	C560.394836,218.530136 564.770264,224.355423 569.281921,230.073273 
	C569.442871,230.277206 570.950256,229.418762 571.830078,229.055481 
M436.715759,230.040985 
	C437.872833,229.034698 439.029907,228.028412 440.904022,227.004852 
	C443.100677,224.633682 445.297302,222.262497 447.493958,219.891312 
	C446.710175,219.255615 445.926392,218.619904 445.266174,217.264618 
	C452.807373,201.113434 451.392181,184.379196 448.077057,167.062500 
	C447.219757,167.602310 446.812622,168.514984 446.262085,169.330902 
	C436.184021,184.266815 422.625122,195.760101 409.237579,207.540680 
	C400.621735,215.122330 397.175842,216.243546 402.010803,228.856354 
	C405.911316,231.681625 409.508820,235.138351 413.781250,237.188538 
	C420.702545,240.509796 432.783264,236.315170 436.715759,230.040985 
M484.297485,318.428802 
	C484.010651,318.702942 483.721069,318.974548 483.452087,319.265198 
	C483.445129,319.272736 483.663330,319.488708 483.776520,319.607452 
	C484.063293,319.332977 484.350098,319.058502 484.297485,318.428802 
M571.517639,233.408554 
	C571.517639,233.408554 571.584106,233.520798 571.517639,233.408554 
z"/>
<path fill="#F63232" opacity="1.000000" stroke="none" 
	d="
M433.994995,412.997559 
	C436.976440,409.371735 439.710297,405.502594 442.987793,402.167755 
	C451.332977,393.676605 459.921112,385.424255 468.764771,377.058960 
	C463.828705,385.774445 458.188477,394.316315 453.317383,403.276276 
	C439.192383,429.258087 426.501678,455.717590 419.626434,484.883667 
	C415.488098,502.439423 408.799805,519.503540 402.026825,536.292114 
	C397.123932,548.445312 389.927094,559.652527 384.244293,571.516785 
	C376.944275,586.757385 363.721558,593.233337 348.306763,595.824219 
	C337.180542,597.694275 325.804688,598.496460 314.513733,598.803711 
	C308.281708,598.973328 301.995178,597.140808 295.408752,595.689087 
	C296.226410,593.774658 297.265503,592.279907 298.527618,591.006226 
	C306.003448,583.461975 313.593719,576.029663 320.985046,568.404175 
	C322.364227,566.981384 323.014801,564.852356 324.441833,563.028748 
	C330.557465,562.057373 336.258331,561.226013 341.881561,560.029724 
	C342.748230,559.845337 343.258179,557.984070 343.965576,556.471802 
	C345.642181,543.762207 347.253632,531.474670 348.939850,519.197449 
	C350.579132,507.262115 352.632324,495.422089 357.049713,484.183350 
	C358.464996,494.848328 359.071411,505.371338 360.097870,515.853210 
	C361.213715,527.247375 362.719940,538.603333 363.803223,550.181946 
	C365.162964,550.606445 367.192871,551.534119 368.294800,550.885437 
	C370.176575,549.777588 371.476379,547.681152 373.324585,545.850769 
	C381.575043,535.779236 386.836578,524.394531 392.604218,512.553955 
	C390.769897,512.784851 389.959290,512.886902 389.203369,512.629883 
	C390.822876,509.132690 392.387756,505.994537 393.971558,503.206970 
	C394.311615,504.206818 394.632782,504.856049 394.953949,505.505249 
	C395.524323,504.813019 396.094727,504.120758 396.665131,503.428528 
	C395.825958,502.948792 394.986786,502.469055 394.091125,501.618256 
	C402.276733,481.029633 410.493164,460.801575 418.772705,440.599335 
	C422.435394,431.662292 426.225769,422.777588 429.973907,414.215759 
	C430.186340,416.566803 430.627838,417.801880 432.310059,415.326477 
	C432.848358,414.534302 433.432037,413.772980 433.994995,412.997559 
M415.702484,454.571716 
	C415.989319,454.297516 416.278931,454.025879 416.547882,453.735138 
	C416.554871,453.727539 416.336578,453.511566 416.223358,453.392761 
	C415.936554,453.667236 415.649780,453.941681 415.702484,454.571716 
M411.569153,467.296631 
	C411.295990,467.010162 411.022827,466.723694 410.749664,466.437195 
	C410.631165,466.550842 410.403168,466.756805 410.409943,466.764832 
	C410.664673,467.067047 410.941040,467.350952 411.569153,467.296631 
M408.389099,472.203979 
	C408.784576,472.207672 409.180298,472.215179 409.574463,472.194366 
	C409.585022,472.193817 409.590149,471.743652 409.579834,471.742859 
	C409.186188,471.713287 408.790405,471.711884 408.389099,472.203979 
M406.796204,476.388275 
	C406.791656,476.784821 406.787140,477.181366 406.782593,477.577942 
	C406.947021,477.579010 407.254272,477.591339 407.255219,477.579559 
	C407.286224,477.184998 407.288025,476.788177 406.796204,476.388275 
M404.203217,484.611572 
	C404.207855,484.214966 404.212494,483.818359 404.217133,483.421753 
	C404.052673,483.420776 403.745392,483.408508 403.744476,483.420471 
	C403.713287,483.815094 403.711487,484.212006 404.203217,484.611572 
M398.796844,495.388733 
	C398.792175,495.785278 398.787476,496.181793 398.782806,496.578369 
	C398.947205,496.579315 399.254395,496.591553 399.255341,496.579559 
	C399.286591,496.185028 399.288422,495.788147 398.796844,495.388733 
M427.797363,422.388702 
	C427.792755,422.785339 427.788147,423.181976 427.783539,423.578613 
	C427.948029,423.579712 428.255341,423.592041 428.256287,423.580261 
	C428.287384,423.185486 428.289215,422.788422 427.797363,422.388702 
M422.702759,436.571320 
	C422.989471,436.297302 423.278870,436.025787 423.547699,435.735229 
	C423.554657,435.727722 423.336334,435.511719 423.223053,435.392944 
	C422.936401,435.667267 422.649780,435.941589 422.702759,436.571320 
z"/>
<path fill="#EA2D2D" opacity="1.000000" stroke="none" 
	d="
M83.161530,211.991714 
	C83.567558,211.044022 83.973572,210.096313 84.717819,209.334503 
	C86.125160,209.149628 87.194275,208.778870 88.263390,208.408112 
	C87.559364,207.602875 86.855339,206.797623 86.151314,205.992386 
	C87.208427,203.397629 88.265549,200.802872 89.656021,198.386261 
	C90.198593,199.253540 90.407814,199.942688 90.617035,200.631836 
	C91.079575,200.595474 91.542122,200.559113 92.004662,200.522751 
	C90.817314,198.659409 96.901993,196.956604 91.150574,194.992508 
	C92.874527,191.066879 94.598473,187.141251 96.655823,183.391632 
	C97.312302,184.214569 97.635368,184.861496 97.958450,185.508423 
	C98.528114,184.815994 99.097778,184.123550 99.667427,183.431122 
	C98.830116,182.951447 97.992813,182.471786 97.155502,181.992126 
	C98.877136,178.724777 100.598770,175.457458 102.687363,172.354248 
	C103.719772,172.608459 104.826385,172.986420 104.983917,172.745041 
	C107.067276,169.552597 109.017189,166.273056 111.297798,162.865051 
	C126.655182,150.324677 141.586533,137.773514 156.820435,125.600998 
	C167.002838,117.464828 177.615524,109.867142 188.380493,101.979950 
	C195.606628,97.412964 202.363663,92.689034 209.402603,88.431137 
	C217.163223,83.736671 225.182663,79.470024 233.089355,75.017029 
	C223.225220,86.131645 215.244110,98.377678 210.768448,112.669479 
	C209.907776,115.417831 209.559814,118.326744 208.563324,121.622543 
	C206.029251,123.627312 203.657196,124.920532 201.821838,126.751709 
	C159.970520,168.507553 118.180557,210.324890 76.362434,252.114029 
	C74.961258,253.514221 73.386330,254.740540 71.892403,256.047913 
	C65.876213,249.030609 64.238899,241.147858 67.853149,232.266449 
	C69.119270,232.305222 70.121933,232.742172 70.308823,232.513245 
	C75.084602,226.662735 79.816467,220.774048 84.384705,214.761871 
	C84.680267,214.372864 83.601173,212.939346 83.161530,211.991714 
M101.570168,179.296982 
	C101.296669,179.010254 101.023170,178.723526 100.749672,178.436798 
	C100.630997,178.550537 100.402733,178.756699 100.409454,178.764679 
	C100.664551,179.067139 100.941238,179.351410 101.570168,179.296982 
z"/>
<path fill="#F13131" opacity="1.000000" stroke="none" 
	d="
M128.891174,320.047485 
	C123.277649,311.797760 117.682068,303.535736 112.038902,295.306335 
	C110.489555,293.046936 108.797844,290.885162 107.339691,288.220154 
	C133.088440,262.256104 158.704056,236.785309 184.164612,211.160507 
	C185.735153,209.579834 186.685913,206.828232 186.850342,204.544067 
	C187.062881,201.591583 188.188324,200.711014 190.906113,201.404999 
	C192.937119,207.868134 194.894669,213.924759 196.513672,219.996613 
	C195.691818,220.712921 194.665466,221.883606 194.805618,222.045654 
	C197.451828,225.106018 200.235947,228.047134 203.148926,231.316879 
	C208.397339,235.976944 214.313187,238.072784 221.069885,238.431610 
	C223.209167,239.200516 225.271362,239.613922 227.316910,240.023972 
	C226.369446,243.650284 199.736252,271.570953 185.622635,282.924500 
	C183.195221,275.777710 181.158051,268.795593 178.930878,261.874634 
	C178.601639,260.851501 177.496902,259.548889 176.542007,259.342590 
	C170.670609,258.073944 164.741409,257.070801 158.826935,256.004272 
	C154.812195,255.280319 152.901596,257.850586 152.138855,261.043579 
	C151.348190,264.353363 151.038696,267.854126 151.065643,271.267029 
	C151.117615,277.845673 151.554794,284.421326 151.465149,291.005676 
	C150.305542,292.202850 149.202194,293.293793 148.786499,294.603088 
	C147.970367,297.173706 148.376251,300.628326 146.793823,302.370209 
	C141.162979,308.568512 134.909134,314.200867 128.891174,320.047485 
z"/>
<path fill="#EC2F2E" opacity="1.000000" stroke="none" 
	d="
M72.029167,256.360107 
	C73.386330,254.740540 74.961258,253.514221 76.362434,252.114029 
	C118.180557,210.324890 159.970520,168.507553 201.821838,126.751709 
	C203.657196,124.920532 206.029251,123.627312 208.492126,122.041229 
	C209.226883,127.365799 209.620819,132.732651 209.700745,138.546509 
	C208.782257,139.193497 207.660843,139.372345 207.651672,139.596680 
	C207.534348,142.465302 207.685806,145.345795 207.544800,148.212265 
	C207.421097,150.727386 207.913284,153.983551 206.561890,155.591995 
	C202.769531,160.105774 198.165421,163.937531 193.582550,167.921234 
	C192.800079,168.535858 192.316544,169.267532 191.478104,170.004669 
	C189.396027,171.192902 187.433960,172.140015 185.976349,173.593155 
	C156.014908,203.462265 126.115784,233.393890 96.186211,263.295013 
	C93.843864,265.635132 91.368530,267.842102 88.955002,270.110962 
	C83.358650,265.631409 77.762291,261.151825 72.029167,256.360107 
z"/>
<path fill="#F93535" opacity="1.000000" stroke="none" 
	d="
M245.889740,551.046753 
	C236.740921,534.706909 229.916885,517.303528 225.216141,499.319855 
	C218.553375,473.830078 211.300095,448.746185 199.180725,425.145355 
	C189.663620,406.612030 179.888885,388.334442 167.230316,371.110352 
	C170.073914,366.265167 175.923584,364.155853 176.307343,358.153809 
	C188.100647,378.383850 199.588425,398.457611 211.393539,419.085907 
	C211.681778,417.658875 211.862793,416.762726 212.364502,416.049927 
	C216.598709,426.117889 220.565186,435.981964 224.411926,445.892487 
	C228.944870,457.570923 233.374161,469.289642 237.506851,481.001099 
	C236.774368,481.999969 236.383408,482.988647 235.992432,483.977295 
	C236.513000,484.162231 237.033554,484.347198 237.554108,484.532135 
	C237.718185,483.642181 237.882248,482.752228 238.363892,482.043121 
	C240.403702,486.479614 242.125946,490.735260 243.506638,495.001404 
	C242.773987,496.000549 242.382904,496.989197 241.991821,497.977875 
	C242.512375,498.162872 243.032944,498.347870 243.553497,498.532867 
	C243.717743,497.642700 243.881973,496.752563 244.356903,496.034973 
	C245.394318,498.135345 246.121033,500.063202 246.502625,502.001648 
	C243.958664,503.957825 243.958664,503.957825 247.462036,507.796936 
	C247.689270,506.653778 247.867279,505.758301 248.358765,505.038635 
	C249.730225,507.806610 250.788208,510.398804 251.500900,513.001343 
	C250.776749,514.018066 249.802780,515.292297 250.115631,515.987122 
	C252.136795,520.476379 254.246414,524.950378 256.706482,529.210205 
	C258.870239,532.956970 261.529266,536.417786 264.013794,540.353394 
	C267.067810,543.788513 270.077545,546.875061 273.480103,550.007446 
	C274.753876,550.342834 275.634888,550.632385 276.740723,550.995911 
	C279.080811,528.711487 281.389832,506.722992 283.698822,484.734497 
	C290.172363,502.799896 293.383179,521.725708 294.758972,541.113403 
	C291.025421,542.897217 290.246216,541.524597 289.891418,538.146240 
	C289.290771,532.427002 288.051636,526.770752 286.953705,521.112732 
	C286.801758,520.329712 285.924103,519.687439 285.321625,518.900635 
	C284.613098,522.937866 283.805176,526.317200 283.464478,529.742981 
	C282.800354,536.421265 282.634674,543.155090 281.803070,549.808472 
	C281.254425,554.198425 277.679199,556.422485 273.844513,554.186890 
	C269.717407,551.780823 265.959351,548.289246 262.937195,544.546936 
	C258.450470,538.991150 258.814453,538.748657 253.521835,543.953186 
	C251.046356,546.387390 248.437927,548.686462 245.889740,551.046753 
M234.611359,476.796539 
	C234.215164,476.792053 233.818985,476.787567 233.422791,476.783081 
	C233.421600,476.947601 233.409195,477.255035 233.420853,477.255951 
	C233.815002,477.286896 234.211456,477.288666 234.611359,476.796539 
M230.571503,467.297882 
	C230.297348,467.010437 230.023178,466.723022 229.749023,466.435608 
	C229.630463,466.549347 229.402390,466.755463 229.409149,466.763458 
	C229.664948,467.066620 229.942307,467.351624 230.571503,467.297882 
M232.204910,472.612366 
	C232.208694,472.215607 232.216278,471.818665 232.195572,471.423218 
	C232.195007,471.412659 231.744110,471.407440 231.743347,471.417816 
	C231.713654,471.812653 231.712143,472.209625 232.204910,472.612366 
M238.388931,489.203156 
	C238.785339,489.207642 239.181747,489.212128 239.578156,489.216614 
	C239.579361,489.052002 239.591766,488.744385 239.580170,488.743469 
	C239.185715,488.712585 238.789001,488.710754 238.388931,489.203156 
M222.428741,448.702148 
	C222.702911,448.989594 222.977081,449.277039 223.251251,449.564514 
	C223.369858,449.450714 223.598038,449.244476 223.591278,449.236450 
	C223.335510,448.933228 223.058121,448.648254 222.428741,448.702148 
M225.610321,453.797272 
	C225.214493,453.792694 224.818649,453.788116 224.422821,453.783569 
	C224.421692,453.947937 224.409317,454.255127 224.421036,454.256042 
	C224.814865,454.287048 225.210983,454.288849 225.610321,453.797272 
M213.296585,422.429291 
	C213.010010,422.703094 212.720749,422.974365 212.452026,423.264709 
	C212.445175,423.272125 212.663986,423.488403 212.777557,423.607269 
	C213.064087,423.333160 213.350616,423.059021 213.296585,422.429291 
M215.429047,430.702057 
	C215.703125,430.989410 215.977203,431.276794 216.251282,431.564178 
	C216.369812,431.450439 216.597855,431.244385 216.591080,431.236359 
	C216.335434,430.933197 216.058167,430.648285 215.429047,430.702057 
M218.571167,436.297943 
	C218.297043,436.010498 218.022934,435.723053 217.748810,435.435608 
	C217.630264,435.549316 217.402222,435.755371 217.409027,435.763428 
	C217.664734,436.066589 217.942062,436.351562 218.571167,436.297943 
z"/>
<path fill="#EE2F2F" opacity="1.000000" stroke="none" 
	d="
M89.085938,270.419495 
	C91.368530,267.842102 93.843864,265.635132 96.186211,263.295013 
	C126.115784,233.393890 156.014908,203.462265 185.976349,173.593155 
	C187.433960,172.140015 189.396027,171.192902 191.549622,170.427261 
	C191.316986,178.322525 190.533173,185.792908 190.067978,193.283096 
	C189.909836,195.829239 190.554733,198.425278 190.832672,200.998505 
	C188.188324,200.711014 187.062881,201.591583 186.850342,204.544067 
	C186.685913,206.828232 185.735153,209.579834 184.164612,211.160507 
	C158.704056,236.785309 133.088440,262.256104 107.198746,287.904236 
	C100.998672,282.273804 95.107773,276.500916 89.085938,270.419495 
z"/>
<path fill="#F83333" opacity="1.000000" stroke="none" 
	d="
M245.944229,551.413147 
	C248.437927,548.686462 251.046356,546.387390 253.521835,543.953186 
	C258.814453,538.748657 258.450470,538.991150 262.937195,544.546936 
	C265.959351,548.289246 269.717407,551.780823 273.844513,554.186890 
	C277.679199,556.422485 281.254425,554.198425 281.803070,549.808472 
	C282.634674,543.155090 282.800354,536.421265 283.464478,529.742981 
	C283.805176,526.317200 284.613098,522.937866 285.321625,518.900635 
	C285.924103,519.687439 286.801758,520.329712 286.953705,521.112732 
	C288.051636,526.770752 289.290771,532.427002 289.891418,538.146240 
	C290.246216,541.524597 291.025421,542.897217 295.113037,541.352173 
	C296.243835,546.621094 296.657349,551.800476 296.776215,557.108826 
	C294.370331,559.818481 296.613251,559.825745 298.201965,560.018311 
	C306.798004,561.060608 315.401001,562.044922 324.001617,563.049194 
	C323.014801,564.852356 322.364227,566.981384 320.985046,568.404175 
	C313.593719,576.029663 306.003448,583.461975 298.527618,591.006226 
	C297.265503,592.279907 296.226410,593.774658 295.043274,595.500488 
	C281.669708,593.984131 269.025574,590.418335 261.202209,578.351318 
	C255.659470,569.801941 251.033768,560.658020 245.944229,551.413147 
z"/>
<path fill="#F43333" opacity="1.000000" stroke="none" 
	d="
M176.001831,357.997559 
	C175.923584,364.155853 170.073914,366.265167 167.094635,370.797821 
	C149.591248,357.878357 139.849899,338.905243 128.942749,320.409912 
	C134.909134,314.200867 141.162979,308.568512 146.793823,302.370209 
	C148.376251,300.628326 147.970367,297.173706 148.786499,294.603088 
	C149.202194,293.293793 150.305542,292.202850 151.538818,291.413788 
	C154.377289,305.971954 158.943283,319.381622 165.491486,331.999512 
	C161.303162,332.737091 163.983704,334.806946 164.556992,335.950897 
	C168.266388,343.352692 172.165146,350.659576 176.001831,357.997559 
M156.430206,318.702942 
	C156.703857,318.989960 156.977493,319.276978 157.251144,319.563995 
	C157.369431,319.450439 157.597061,319.244751 157.590240,319.236664 
	C157.335007,318.933929 157.058182,318.649445 156.430206,318.702942 
z"/>
<path fill="#EE2F2F" opacity="1.000000" stroke="none" 
	d="
M193.881485,168.038284 
	C198.165421,163.937531 202.769531,160.105774 206.561890,155.591995 
	C207.913284,153.983551 207.421097,150.727386 207.544800,148.212265 
	C207.685806,145.345795 207.534348,142.465302 207.651672,139.596680 
	C207.660843,139.372345 208.782257,139.193497 209.753113,138.978851 
	C212.658890,145.404922 215.198303,151.845642 217.446991,158.647598 
	C216.663300,159.694351 215.610245,160.801743 215.761246,161.002197 
	C218.076279,164.075623 220.548264,167.030823 223.113312,170.283844 
	C223.836273,171.352921 224.429657,172.151703 225.050385,173.311646 
	C225.288620,175.704727 226.455627,178.554382 225.541031,179.623718 
	C222.019623,183.741028 217.832184,187.288681 213.587646,190.918335 
	C206.815308,183.204712 200.348389,175.621490 193.881485,168.038284 
z"/>
<path fill="#FD5E5E" opacity="1.000000" stroke="none" 
	d="
M416.080261,171.024811 
	C410.333832,174.652618 404.866547,178.869003 398.770752,181.760162 
	C391.044006,185.424881 382.758575,187.894913 374.814697,191.127380 
	C371.935425,192.298981 369.346191,194.183380 365.985046,196.012482 
	C351.881104,202.230240 338.276062,207.886490 325.025482,214.277603 
	C320.116791,216.645203 316.614075,214.877899 312.551605,213.052414 
	C299.733124,207.292374 286.860779,201.652191 273.787659,195.703659 
	C264.521118,191.619324 255.398712,187.967484 246.461502,183.907944 
	C241.444962,181.629272 236.734634,178.676392 232.137329,175.905060 
	C232.607834,175.487854 232.827347,175.192825 233.046860,174.897797 
	C247.165298,181.989365 262.665039,185.602341 276.608124,193.488785 
	C289.911224,201.013245 304.570435,206.146561 318.676636,212.231110 
	C319.706543,212.675323 321.256897,212.701004 322.278076,212.258545 
	C336.075470,206.280273 350.200653,200.901993 363.466217,193.900238 
	C374.950104,187.838882 387.005402,183.573105 398.960846,178.828049 
	C404.369324,176.681458 409.209717,173.103592 414.751343,170.277618 
	C415.489960,170.595032 415.785095,170.809921 416.080261,171.024811 
z"/>
<path fill="#FD5858" opacity="1.000000" stroke="none" 
	d="
M530.072083,161.576172 
	C526.472107,159.180557 522.693176,156.583496 519.215027,153.632080 
	C492.489197,130.953659 464.541626,109.904030 435.149292,90.812622 
	C426.534637,85.217079 417.480408,80.298332 408.270325,75.041023 
	C409.179413,74.999878 410.717773,74.506950 411.670990,75.046959 
	C424.156799,82.120613 437.152191,88.496361 448.853180,96.709244 
	C469.477936,111.185638 489.356964,126.730659 509.424438,141.991028 
	C515.697327,146.761230 521.626099,151.992645 527.581177,157.164047 
	C528.714783,158.148499 529.231262,159.843475 530.072083,161.576172 
z"/>
<path fill="#F74949" opacity="1.000000" stroke="none" 
	d="
M188.035660,102.028473 
	C177.615524,109.867142 167.002838,117.464828 156.820435,125.600998 
	C141.586533,137.773514 126.655182,150.324677 111.184425,162.590332 
	C110.502075,161.939896 110.230446,161.413925 109.958817,160.887939 
	C118.065804,153.697861 125.843987,146.089157 134.350708,139.408051 
	C150.271973,126.903648 166.613113,114.933716 182.790833,102.756386 
	C183.562454,102.175568 184.442490,101.738777 185.860901,101.206146 
	C186.978424,101.461082 187.507034,101.744781 188.035660,102.028473 
z"/>
<path fill="#F93F3F" opacity="1.000000" stroke="none" 
	d="
M555.990234,211.984619 
	C553.768433,208.213043 551.336304,204.547836 549.364319,200.649918 
	C543.489014,189.036301 537.794189,177.331329 532.033081,165.284027 
	C533.711609,166.382217 536.025085,167.535873 536.958435,169.385895 
	C544.126648,183.594193 551.026733,197.937759 557.790039,212.516739 
	C557.043396,212.524307 556.516846,212.254456 555.990234,211.984619 
z"/>
<path fill="#FA5050" opacity="1.000000" stroke="none" 
	d="
M188.380493,101.979958 
	C187.507034,101.744781 186.978424,101.461082 186.172989,101.062256 
	C197.941986,93.299500 209.866791,85.449219 222.112976,78.137184 
	C225.455582,76.141350 229.764221,75.763474 233.359436,74.830055 
	C225.182663,79.470024 217.163223,83.736671 209.402603,88.431137 
	C202.363663,92.689034 195.606628,97.412964 188.380493,101.979958 
z"/>
<path fill="#F93F3F" opacity="1.000000" stroke="none" 
	d="
M83.010773,212.299713 
	C83.601173,212.939346 84.680267,214.372864 84.384705,214.761871 
	C79.816467,220.774048 75.084602,226.662735 70.308823,232.513245 
	C70.121933,232.742172 69.119270,232.305222 68.188301,232.052368 
	C72.873260,225.486694 77.866638,219.047195 83.010773,212.299713 
z"/>
<path fill="#F74949" opacity="1.000000" stroke="none" 
	d="
M555.993591,212.353577 
	C556.516846,212.254456 557.043396,212.524307 557.851746,212.884567 
	C562.693909,218.107285 567.254333,223.239594 571.822388,228.713684 
	C570.950256,229.418762 569.442871,230.277206 569.281921,230.073273 
	C564.770264,224.355423 560.394836,218.530136 555.993591,212.353577 
z"/>
<path fill="#EE3737" opacity="1.000000" stroke="none" 
	d="
M109.644730,161.040985 
	C110.230446,161.413925 110.502075,161.939896 110.887085,162.740601 
	C109.017189,166.273056 107.067276,169.552597 104.983917,172.745041 
	C104.826385,172.986420 103.719772,172.608459 103.007721,172.202255 
	C105.084290,168.322098 107.207466,164.758072 109.644730,161.040985 
z"/>
<path fill="#F93F3F" opacity="1.000000" stroke="none" 
	d="
M222.983719,170.013550 
	C220.548264,167.030823 218.076279,164.075623 215.761246,161.002197 
	C215.610245,160.801743 216.663300,159.694351 217.495331,158.998749 
	C219.825363,161.772858 221.816330,164.557053 223.692352,167.814713 
	C223.379517,168.863297 223.181625,169.438416 222.983719,170.013550 
z"/>
<path fill="#FA5050" opacity="1.000000" stroke="none" 
	d="
M416.418579,170.985016 
	C415.785095,170.809921 415.489960,170.595032 415.070007,170.132843 
	C417.044891,167.331528 419.144592,164.777527 421.912872,162.104645 
	C423.062897,161.988708 423.544342,161.991653 424.025757,161.994598 
	C421.602814,164.978149 419.179840,167.961685 416.418579,170.985016 
z"/>
<path fill="#FA5050" opacity="1.000000" stroke="none" 
	d="
M223.113312,170.283844 
	C223.181625,169.438416 223.379517,168.863297 223.842331,168.124603 
	C226.987900,170.069382 229.868561,172.177750 232.898041,174.591949 
	C232.827347,175.192825 232.607834,175.487854 231.785187,175.901093 
	C229.129059,174.996368 227.076050,173.973419 225.023041,172.950470 
	C224.429657,172.151703 223.836273,171.352921 223.113312,170.283844 
z"/>
<path fill="#F93F3F" opacity="1.000000" stroke="none" 
	d="
M424.322083,161.845566 
	C423.544342,161.991653 423.062897,161.988708 422.220886,161.971497 
	C422.660339,160.063309 423.460358,158.169403 424.568787,156.117584 
	C428.583618,158.043076 425.973785,159.841507 424.322083,161.845566 
z"/>
<path fill="#EE3737" opacity="1.000000" stroke="none" 
	d="
M91.074226,195.202255 
	C96.901993,196.956604 90.817314,198.659409 92.004662,200.522751 
	C91.542122,200.559113 91.079575,200.595474 90.617035,200.631836 
	C90.407814,199.942688 90.198593,199.253540 89.971336,198.212006 
	C89.953300,197.859619 89.997169,197.403137 90.272339,197.054840 
	C90.772026,196.465622 90.908340,196.182266 90.956436,195.856476 
	C90.956436,195.856476 90.997879,195.412003 91.074226,195.202255 
z"/>
<path fill="#EE3737" opacity="1.000000" stroke="none" 
	d="
M86.074951,206.202637 
	C86.855339,206.797623 87.559364,207.602875 88.263390,208.408112 
	C87.194275,208.778870 86.125160,209.149628 85.005455,209.193146 
	C84.954857,208.865921 84.999466,208.406113 85.274017,208.056061 
	C85.772369,207.465683 85.908531,207.183121 85.957069,206.858307 
	C85.957069,206.858307 85.998596,206.412888 86.074951,206.202637 
z"/>
<path fill="#EE3737" opacity="1.000000" stroke="none" 
	d="
M97.078392,182.204651 
	C97.992813,182.471786 98.830116,182.951447 99.667427,183.431122 
	C99.097778,184.123550 98.528114,184.815994 97.958450,185.508423 
	C97.635368,184.861496 97.312302,184.214569 96.972458,183.217377 
	C96.955696,182.867096 97.001282,182.417191 97.078392,182.204651 
z"/>
<path fill="#EA2D2D" opacity="1.000000" stroke="none" 
	d="
M85.713593,206.958649 
	C85.908531,207.183121 85.772369,207.465683 85.350510,207.838104 
	C85.258339,207.666473 85.364235,207.362732 85.713593,206.958649 
z"/>
<path fill="#EA2D2D" opacity="1.000000" stroke="none" 
	d="
M90.712738,195.957275 
	C90.908340,196.182266 90.772026,196.465622 90.348740,196.838654 
	C90.256332,196.666550 90.362686,196.362305 90.712738,195.957275 
z"/>
<path fill="#FFFFFF" opacity="1.000000" stroke="none" 
	d="
M165.836182,331.988739 
	C158.943283,319.381622 154.377289,305.971954 151.905914,291.406311 
	C151.554794,284.421326 151.117615,277.845673 151.065643,271.267029 
	C151.038696,267.854126 151.348190,264.353363 152.138855,261.043579 
	C152.901596,257.850586 154.812195,255.280319 158.826935,256.004272 
	C164.741409,257.070801 170.670609,258.073944 176.542007,259.342590 
	C177.496902,259.548889 178.601639,260.851501 178.930878,261.874634 
	C181.158051,268.795593 183.195221,275.777710 185.648529,283.278564 
	C192.363998,295.814972 204.651474,298.521698 215.667877,302.454163 
	C216.473572,311.565063 217.064590,320.255768 218.073685,328.897675 
	C218.667831,333.986084 219.925476,338.997040 220.933273,344.469360 
	C227.871429,385.672241 230.427582,427.685699 255.029007,464.951477 
	C254.593048,459.386780 254.350021,455.308960 253.941193,451.247833 
	C252.660660,438.527802 250.463776,425.832001 250.196396,413.093750 
	C249.781937,393.348602 250.666626,373.576202 251.001251,353.815338 
	C251.009705,353.315704 251.007355,352.814789 251.043518,352.316864 
	C251.970978,339.544006 252.902863,326.771454 253.946960,313.733459 
	C254.372818,313.256714 254.685715,313.045380 254.998611,312.834045 
	C261.969055,312.067719 268.940430,311.309631 275.908844,310.525482 
	C276.879517,310.416290 277.833282,310.038483 278.799072,310.021271 
	C299.050995,309.660370 319.314301,308.781738 339.552429,309.177551 
	C355.253418,309.484650 370.923096,311.391724 386.927795,312.612122 
	C390.873688,363.427521 394.201172,413.456268 385.571014,463.472076 
	C385.992065,463.581390 386.413116,463.690674 386.834167,463.799957 
	C387.728760,462.532684 388.748962,461.335297 389.499023,459.987579 
	C400.498199,440.223755 407.900543,419.136353 411.878174,396.919067 
	C414.606506,381.680054 416.688416,366.324371 418.995850,351.011292 
	C421.037079,337.464508 423.043274,323.911896 424.934235,310.343628 
	C425.275208,307.897064 424.982788,305.362244 424.982788,303.221649 
	C431.971313,300.084778 438.885315,297.390869 445.408661,293.955139 
	C454.667023,289.078827 456.948456,279.514374 459.972961,270.569244 
	C460.024139,270.417908 459.992218,270.238312 459.998444,270.071930 
	C460.294708,262.158905 464.246643,257.840363 472.285919,257.292023 
	C475.703918,257.058899 479.095795,256.442871 482.499390,255.999557 
	C486.574158,255.468811 488.671143,258.189636 488.830902,261.362701 
	C489.266693,270.019592 489.329071,278.724457 488.963013,287.385956 
	C488.348114,301.933929 483.644409,315.390045 476.627838,328.756958 
	C473.480743,334.613647 470.862122,340.027802 467.909637,345.253326 
	C460.242889,358.822571 452.335449,372.256256 444.710388,385.848602 
	C440.276154,393.752991 436.200928,401.858765 431.723907,409.971008 
	C431.376709,410.366608 431.269806,410.665161 431.084137,411.183807 
	C431.005371,411.403870 430.962708,411.869415 430.722198,411.967712 
	C430.374359,412.365479 430.267059,412.664948 430.081207,413.184326 
	C430.002655,413.404236 429.958191,413.869141 429.958191,413.869141 
	C426.225769,422.777588 422.435394,431.662292 418.772705,440.599335 
	C410.493164,460.801575 402.276733,481.029633 394.014252,501.828705 
	C393.993896,502.410217 393.952667,502.856384 393.952637,502.856384 
	C392.387756,505.994537 390.822876,509.132690 389.126587,512.839600 
	C388.995178,513.408386 388.957428,513.853516 388.716278,513.956421 
	C388.366608,514.361816 388.258057,514.664307 388.072815,515.182556 
	C387.996063,515.398315 387.957916,515.854797 387.716827,515.957336 
	C387.367371,516.362122 387.259003,516.664429 387.073792,517.182861 
	C386.996918,517.399048 386.958435,517.856384 386.717438,517.958496 
	C386.368225,518.362549 386.260040,518.664551 386.074829,519.183105 
	C385.997833,519.399780 385.959045,519.857971 385.718140,519.959717 
	C385.369324,520.362976 385.261383,520.664551 385.076355,521.183716 
	C384.999298,521.401367 384.960236,521.861389 384.719604,521.962158 
	C384.371460,522.363770 384.263916,522.664612 384.078949,523.184143 
	C384.001495,523.402832 383.961517,523.865051 383.721039,523.964722 
	C383.373230,524.364624 383.265930,524.664734 383.080750,525.184082 
	C383.002899,525.403259 382.962006,525.866699 382.721558,525.965942 
	C382.374023,526.364990 382.266907,526.664795 382.081848,527.184570 
	C382.003937,527.404480 381.962952,527.869446 381.722778,527.967957 
	C381.375977,528.365662 381.269348,528.664856 381.009644,529.286377 
	C377.552490,534.705872 374.248413,539.802979 370.636597,545.032104 
	C368.237854,546.768127 366.146881,548.372009 364.055969,549.975952 
	C362.719940,538.603333 361.213715,527.247375 360.097870,515.853210 
	C359.071411,505.371338 358.464996,494.848328 357.049713,484.183350 
	C352.632324,495.422089 350.579132,507.262115 348.939850,519.197449 
	C347.253632,531.474670 345.642181,543.762207 343.574158,556.532104 
	C327.786560,561.601257 312.427063,561.251648 297.070862,556.979919 
	C296.657349,551.800476 296.243835,546.621094 295.476227,541.202820 
	C293.383179,521.725708 290.172363,502.799896 283.698822,484.734497 
	C281.389832,506.722992 279.080811,528.711487 276.740723,550.995911 
	C275.634888,550.632385 274.753876,550.342834 273.425964,549.654480 
	C271.263702,546.826965 269.548401,544.398315 267.849884,541.710693 
	C267.589478,541.258484 267.312256,541.065308 266.973297,540.645996 
	C266.730896,540.130249 266.470093,539.977478 266.065552,539.602356 
	C263.945679,535.818604 261.889343,532.394043 259.852234,528.710022 
	C259.592468,528.258728 259.313477,528.066956 259.012360,527.642822 
	C258.990234,527.410461 258.835571,526.970093 258.854431,526.710083 
	C258.594055,526.257385 258.314789,526.064697 258.013672,525.640625 
	C257.991821,525.409119 257.837616,524.970459 257.856262,524.710022 
	C257.595428,524.256042 257.315948,524.062500 257.015015,523.638428 
	C256.993591,523.407959 256.840149,522.971069 256.858582,522.710083 
	C256.597198,522.254578 256.317383,522.060059 256.016479,521.635986 
	C255.995361,521.406311 255.842133,520.971313 255.860260,520.709961 
	C255.598328,520.253662 255.318283,520.058716 255.017120,519.634644 
	C254.996002,519.405518 254.842804,518.971497 254.860779,518.709961 
	C254.598679,518.253296 254.318588,518.058167 254.017563,517.634155 
	C253.996613,517.405273 253.843826,516.971619 253.861755,516.709900 
	C253.599487,516.252563 253.319290,516.056885 253.018372,515.632935 
	C252.997665,515.404541 252.845200,514.971924 252.862991,514.709900 
	C252.600403,514.251770 252.320023,514.055664 252.019104,513.636230 
	C251.998581,513.412903 251.846176,512.990967 251.846176,512.990967 
	C250.788208,510.398804 249.730225,507.806610 248.336227,504.809998 
	C248.000198,504.405579 247.847427,503.972290 247.864868,503.709869 
	C247.601685,503.250702 247.321060,503.053925 247.020111,502.634399 
	C246.999802,502.411682 246.847748,501.991028 246.847748,501.991028 
	C246.121033,500.063202 245.394318,498.135345 244.334259,495.810974 
	C244.000931,495.414429 243.848206,494.990906 243.848206,494.990906 
	C242.125946,490.735260 240.403702,486.479614 238.341248,481.819153 
	C238.001053,481.414368 237.848373,480.990875 237.848373,480.990875 
	C233.374161,469.289642 228.944870,457.570923 224.411926,445.892487 
	C220.565186,435.981964 216.598709,426.117889 212.341110,415.820038 
	C211.997009,415.406799 211.842270,414.971344 211.859924,414.710205 
	C211.597458,414.254944 211.317337,414.060852 211.015259,413.636597 
	C210.993317,413.406403 210.838470,412.970642 210.856659,412.710236 
	C210.595123,412.256958 210.315414,412.064087 210.013260,411.639709 
	C209.990799,411.408234 209.834976,410.969971 209.853485,410.710327 
	C209.592697,410.259186 209.313400,410.067688 209.015137,409.512726 
	C207.318085,406.012787 205.705994,402.838867 203.951218,399.745911 
	C192.262573,379.143707 180.543411,358.558838 168.852386,337.708893 
	C168.591782,337.257446 168.312927,337.065430 168.012939,336.640930 
	C167.991791,336.408447 167.835236,335.968567 167.853271,335.708954 
	C167.592316,335.257111 167.313339,335.064880 167.013168,334.640320 
	C166.991974,334.408020 166.835312,333.968567 166.853271,333.708954 
	C166.592270,333.257050 166.313324,333.064758 166.013428,332.645142 
	C165.992462,332.417786 165.836182,331.988739 165.836182,331.988739 
z"/>
<path fill="#F63434" opacity="1.000000" stroke="none" 
	d="
M255.040894,312.500763 
	C254.685715,313.045380 254.372818,313.256714 253.613831,313.775513 
	C251.772491,315.227966 250.274918,316.269775 248.998749,317.534912 
	C241.204224,325.262054 233.496719,333.077362 225.663956,340.765198 
	C224.306351,342.097656 222.489471,342.962189 220.884705,344.042816 
	C219.925476,338.997040 218.667831,333.986084 218.073685,328.897675 
	C217.064590,320.255768 216.473572,311.565063 215.667877,302.454163 
	C204.651474,298.521698 192.363998,295.814972 185.977325,283.463074 
	C199.736252,271.570953 226.369446,243.650284 227.316910,240.023972 
	C225.271362,239.613922 223.209167,239.200516 221.489563,238.408783 
	C227.901978,237.714600 233.316315,236.249130 236.147629,229.659897 
	C237.930557,227.237427 239.548141,225.118073 241.522125,223.008499 
	C243.214706,224.240387 244.550858,225.462494 245.958359,226.749847 
	C246.372574,226.561462 246.908356,226.466675 247.225693,226.151749 
	C255.669373,217.772125 264.155243,209.432571 272.436401,200.894623 
	C273.511658,199.786041 273.511383,197.634232 274.009277,195.965637 
	C286.860779,201.652191 299.733124,207.292374 312.551605,213.052414 
	C316.614075,214.877899 320.116791,216.645203 325.025482,214.277603 
	C338.276062,207.886490 351.881104,202.230240 365.671509,196.159698 
	C364.256989,199.265991 363.156647,203.129837 360.679260,205.628174 
	C326.853882,239.739441 292.833649,273.657440 258.885040,307.646667 
	C257.498688,309.034698 256.345154,310.655273 255.040894,312.500763 
z"/>
<path fill="#FFFFFF" opacity="1.000000" stroke="none" 
	d="
M401.960480,228.147858 
	C397.175842,216.243546 400.621735,215.122330 409.237579,207.540680 
	C422.625122,195.760101 436.184021,184.266815 446.262085,169.330902 
	C446.812622,168.514984 447.219757,167.602310 448.077057,167.062500 
	C451.392181,184.379196 452.807373,201.113434 445.126770,217.834564 
	C444.987366,218.404495 444.961487,218.851776 444.725891,218.958130 
	C444.379364,219.362320 444.268402,219.660156 444.007141,220.274551 
	C442.633545,222.734787 441.410248,224.878448 440.186951,227.022125 
	C439.029907,228.028412 437.872833,229.034698 436.014709,230.047897 
	C421.858643,236.834320 416.748688,238.549026 405.538391,229.133835 
	C404.677216,228.410538 403.168304,228.458435 401.960480,228.147858 
z"/>
<path fill="#F93F3F" opacity="1.000000" stroke="none" 
	d="
M429.973907,414.215759 
	C429.958191,413.869141 430.002655,413.404236 430.277039,413.054138 
	C430.770721,412.466370 430.907837,412.188171 430.962708,411.869415 
	C430.962708,411.869415 431.005371,411.403870 431.278870,411.053925 
	C431.770813,410.467560 431.908081,410.190887 431.964203,409.873962 
	C436.200928,401.858765 440.276154,393.752991 444.710388,385.848602 
	C452.335449,372.256256 460.242889,358.822571 467.909637,345.253326 
	C470.862122,340.027802 473.480743,334.613647 476.564575,329.122681 
	C479.809753,330.169067 478.566589,332.046295 477.598328,333.797791 
	C471.758881,344.360352 465.889679,354.906464 460.034821,365.460510 
	C451.378296,381.064972 442.725464,396.671478 434.033020,412.637329 
	C433.432037,413.772980 432.848358,414.534302 432.310059,415.326477 
	C430.627838,417.801880 430.186340,416.566803 429.973907,414.215759 
z"/>
<path fill="#FD5E5E" opacity="1.000000" stroke="none" 
	d="
M401.985657,228.502106 
	C403.168304,228.458435 404.677216,228.410538 405.538391,229.133835 
	C416.748688,238.549026 421.858643,236.834320 435.680786,230.120865 
	C432.783264,236.315170 420.702545,240.509796 413.781250,237.188538 
	C409.508820,235.138351 405.911316,231.681625 401.985657,228.502106 
z"/>
<path fill="#F74949" opacity="1.000000" stroke="none" 
	d="
M444.961487,218.851776 
	C444.961487,218.851776 444.987366,218.404495 445.064972,218.194336 
	C445.926392,218.619904 446.710175,219.255615 447.493958,219.891327 
	C445.297302,222.262497 443.100677,224.633682 440.545471,227.013489 
	C441.410248,224.878448 442.633545,222.734787 444.204865,220.144073 
	C444.767273,219.453094 444.903473,219.171341 444.961487,218.851776 
z"/>
<path fill="#F93F3F" opacity="1.000000" stroke="none" 
	d="
M484.467194,318.606445 
	C484.350098,319.058502 484.063293,319.332977 483.776520,319.607452 
	C483.663330,319.488708 483.445129,319.272736 483.452087,319.265198 
	C483.721069,318.974548 484.010651,318.702942 484.467194,318.606445 
z"/>
<path fill="#F74949" opacity="1.000000" stroke="none" 
	d="
M571.550903,233.464676 
	C571.584106,233.520798 571.517639,233.408554 571.550903,233.464676 
z"/>
<path fill="#FD5E5E" opacity="1.000000" stroke="none" 
	d="
M296.776215,557.108826 
	C312.427063,561.251648 327.786560,561.601257 343.541687,556.958618 
	C343.258179,557.984070 342.748230,559.845337 341.881561,560.029724 
	C336.258331,561.226013 330.557465,562.057373 324.441833,563.028809 
	C315.401001,562.044922 306.798004,561.060608 298.201965,560.018311 
	C296.613251,559.825745 294.370331,559.818481 296.776215,557.108826 
z"/>
<path fill="#F93F3F" opacity="1.000000" stroke="none" 
	d="
M383.961517,523.865051 
	C383.961517,523.865051 384.001495,523.402832 384.276093,523.053223 
	C384.771118,522.463684 384.907623,522.182983 384.960236,521.861389 
	C384.960236,521.861389 384.999298,521.401367 385.274506,521.052612 
	C385.771027,520.463013 385.907471,520.181030 385.959045,519.857971 
	C385.959045,519.857971 385.997833,519.399780 386.273438,519.052002 
	C386.770966,518.462830 386.907440,518.180237 386.958435,517.856384 
	C386.958435,517.856384 386.996918,517.399048 387.272766,517.051636 
	C387.770874,516.462402 387.907288,516.179260 387.957916,515.854797 
	C387.957916,515.854797 387.996063,515.398315 388.272156,515.051270 
	C388.770752,514.462097 388.907135,514.178528 388.957428,513.853516 
	C388.957428,513.853516 388.995178,513.408386 389.071930,513.198608 
	C389.959290,512.886902 390.769897,512.784851 392.604218,512.553955 
	C386.836578,524.394531 381.575043,535.779236 373.011230,545.825317 
	C371.910736,545.599365 371.427551,545.249756 370.944336,544.900085 
	C374.248413,539.802979 377.552490,534.705872 381.204773,529.155945 
	C381.771423,528.465454 381.908081,528.187561 381.962952,527.869446 
	C381.962952,527.869446 382.003937,527.404480 382.277893,527.053955 
	C382.771210,526.465088 382.907928,526.186157 382.962006,525.866699 
	C382.962006,525.866699 383.002899,525.403259 383.277130,525.053345 
	C383.771088,524.464661 383.907806,524.185181 383.961517,523.865051 
z"/>
<path fill="#FA5050" opacity="1.000000" stroke="none" 
	d="
M370.636597,545.032104 
	C371.427551,545.249756 371.910736,545.599365 372.707306,545.974487 
	C371.476379,547.681152 370.176575,549.777588 368.294800,550.885437 
	C367.192871,551.534119 365.162964,550.606445 363.803223,550.181946 
	C366.146881,548.372009 368.237854,546.768127 370.636597,545.032104 
z"/>
<path fill="#F93F3F" opacity="1.000000" stroke="none" 
	d="
M393.971558,503.207001 
	C393.952667,502.856384 393.993896,502.410217 394.070740,502.199768 
	C394.986786,502.469055 395.825958,502.948792 396.665131,503.428528 
	C396.094727,504.120758 395.524323,504.813019 394.953949,505.505249 
	C394.632782,504.856049 394.311615,504.206818 393.971558,503.207001 
z"/>
<path fill="#F93F3F" opacity="1.000000" stroke="none" 
	d="
M415.532715,454.393921 
	C415.649780,453.941681 415.936554,453.667236 416.223358,453.392761 
	C416.336578,453.511566 416.554871,453.727539 416.547882,453.735138 
	C416.278931,454.025879 415.989319,454.297516 415.532715,454.393921 
z"/>
<path fill="#F93F3F" opacity="1.000000" stroke="none" 
	d="
M411.391846,467.466980 
	C410.941040,467.350952 410.664673,467.067047 410.409943,466.764832 
	C410.403168,466.756805 410.631165,466.550842 410.749664,466.437195 
	C411.022827,466.723694 411.295990,467.010162 411.391846,467.466980 
z"/>
<path fill="#F93F3F" opacity="1.000000" stroke="none" 
	d="
M408.392029,471.955322 
	C408.790405,471.711884 409.186188,471.713287 409.579834,471.742859 
	C409.590149,471.743652 409.585022,472.193817 409.574463,472.194366 
	C409.180298,472.215179 408.784576,472.207672 408.392029,471.955322 
z"/>
<path fill="#F93F3F" opacity="1.000000" stroke="none" 
	d="
M407.045166,476.389954 
	C407.288025,476.788177 407.286224,477.184998 407.255219,477.579559 
	C407.254272,477.591339 406.947021,477.579010 406.782593,477.577942 
	C406.787140,477.181366 406.791656,476.784821 407.045166,476.389954 
z"/>
<path fill="#F93F3F" opacity="1.000000" stroke="none" 
	d="
M403.954285,484.610107 
	C403.711487,484.212006 403.713287,483.815094 403.744476,483.420471 
	C403.745392,483.408508 404.052673,483.420776 404.217133,483.421753 
	C404.212494,483.818359 404.207855,484.214966 403.954285,484.610107 
z"/>
<path fill="#F93F3F" opacity="1.000000" stroke="none" 
	d="
M399.045715,495.390198 
	C399.288422,495.788147 399.286591,496.185028 399.255341,496.579559 
	C399.254395,496.591553 398.947205,496.579315 398.782776,496.578369 
	C398.787476,496.181793 398.792175,495.785278 399.045715,495.390198 
z"/>
<path fill="#F93F3F" opacity="1.000000" stroke="none" 
	d="
M428.046356,422.390198 
	C428.289215,422.788422 428.287384,423.185486 428.256287,423.580261 
	C428.255341,423.592041 427.948029,423.579712 427.783539,423.578613 
	C427.788147,423.181976 427.792755,422.785339 428.046356,422.390198 
z"/>
<path fill="#F93F3F" opacity="1.000000" stroke="none" 
	d="
M422.532959,436.393616 
	C422.649780,435.941589 422.936401,435.667267 423.223053,435.392944 
	C423.336334,435.511719 423.554657,435.727722 423.547699,435.735229 
	C423.278870,436.025787 422.989471,436.297302 422.532959,436.393616 
z"/>
<path fill="#EE3737" opacity="1.000000" stroke="none" 
	d="
M101.392601,179.467545 
	C100.941238,179.351410 100.664551,179.067139 100.409454,178.764679 
	C100.402733,178.756699 100.630997,178.550537 100.749672,178.436798 
	C101.023170,178.723526 101.296669,179.010254 101.392601,179.467545 
z"/>
<path fill="#FFFFFF" opacity="1.000000" stroke="none" 
	d="
M241.165710,222.998734 
	C239.548141,225.118073 237.930557,227.237427 235.782196,229.680298 
	C233.853287,230.809296 232.515244,231.753235 231.044434,232.390991 
	C228.094894,233.669937 224.928345,236.037735 222.109283,235.713531 
	C215.197388,234.918640 208.453934,232.798492 202.913147,227.583221 
	C200.797318,224.849579 198.824783,222.415482 196.852234,219.981400 
	C194.894669,213.924759 192.937119,207.868134 190.906113,201.404999 
	C190.554733,198.425278 189.909836,195.829239 190.067978,193.283096 
	C190.533173,185.792908 191.316986,178.322525 191.904541,170.421783 
	C192.316544,169.267532 192.800079,168.535858 193.582550,167.921234 
	C200.348389,175.621490 206.815308,183.204712 213.722061,191.227509 
	C220.147598,196.988525 226.285538,202.150787 232.069336,207.683258 
	C236.459213,211.882385 242.253311,215.460739 241.165710,222.998734 
z"/>
<path fill="#FD5858" opacity="1.000000" stroke="none" 
	d="
M203.056427,227.882767 
	C208.453934,232.798492 215.197388,234.918640 222.109283,235.713531 
	C224.928345,236.037735 228.094894,233.669937 231.044434,232.390991 
	C232.515244,231.753235 233.853287,230.809296 235.616821,229.983429 
	C233.316315,236.249130 227.901978,237.714600 221.412506,238.053253 
	C214.313187,238.072784 208.397339,235.976944 203.055786,231.053558 
	C202.888824,229.618576 202.972626,228.750671 203.056427,227.882767 
z"/>
<path fill="#F74949" opacity="1.000000" stroke="none" 
	d="
M202.913147,227.583221 
	C202.972626,228.750671 202.888824,229.618576 202.898163,230.749786 
	C200.235947,228.047134 197.451828,225.106018 194.805618,222.045654 
	C194.665466,221.883606 195.691818,220.712921 196.513672,219.996613 
	C198.824783,222.415482 200.797318,224.849579 202.913147,227.583221 
z"/>
<path fill="#F93F3F" opacity="1.000000" stroke="none" 
	d="
M168.834167,337.968323 
	C180.543411,358.558838 192.262573,379.143707 203.951218,399.745911 
	C205.705994,402.838867 207.318085,406.012787 209.087250,409.735992 
	C209.317276,410.619598 209.536163,410.835327 209.834976,410.969971 
	C209.834976,410.969971 209.990799,411.408234 210.084854,411.864319 
	C210.317841,412.619232 210.537689,412.835968 210.838470,412.970642 
	C210.838470,412.970642 210.993317,413.406403 211.086456,413.862488 
	C211.318542,414.619324 211.539444,414.836914 211.842270,414.971344 
	C211.842270,414.971344 211.997009,415.406799 212.020401,415.636688 
	C211.862793,416.762726 211.681778,417.658875 211.393539,419.085907 
	C199.588425,398.457611 188.100647,378.383850 176.307343,358.153809 
	C172.165146,350.659576 168.266388,343.352692 164.556992,335.950897 
	C163.983704,334.806946 161.303162,332.737091 165.491486,331.999512 
	C165.836182,331.988739 165.992462,332.417786 166.085968,332.868591 
	C166.316940,333.617737 166.535553,333.834137 166.835312,333.968567 
	C166.835312,333.968567 166.991974,334.408020 167.085693,334.863800 
	C167.316879,335.617859 167.535492,335.834198 167.835236,335.968567 
	C167.835236,335.968567 167.991791,336.408447 168.085526,336.864075 
	C168.316666,337.617615 168.534973,337.833801 168.834167,337.968323 
z"/>
<path fill="#F93F3F" opacity="1.000000" stroke="none" 
	d="
M259.833008,528.969543 
	C261.889343,532.394043 263.945679,535.818604 265.705933,539.614075 
	C264.929749,539.991638 264.449677,539.998291 263.969574,540.004883 
	C261.529266,536.417786 258.870239,532.956970 256.706482,529.210205 
	C254.246414,524.950378 252.136795,520.476379 250.115631,515.987122 
	C249.802780,515.292297 250.776749,514.018066 251.500900,513.001343 
	C251.846176,512.990967 251.998581,513.412903 252.089340,513.863770 
	C252.318542,514.617981 252.540253,514.837097 252.845200,514.971924 
	C252.845200,514.971924 252.997665,515.404541 253.088776,515.859985 
	C253.318375,516.617920 253.539688,516.836670 253.843826,516.971619 
	C253.843826,516.971619 253.996613,517.405273 254.088150,517.860840 
	C254.318268,518.618164 254.539307,518.836548 254.842804,518.971497 
	C254.842804,518.971497 254.996002,519.405518 255.087799,519.861084 
	C255.318130,520.618225 255.538971,520.836426 255.842133,520.971313 
	C255.842133,520.971313 255.995361,521.406311 256.087280,521.861816 
	C256.317596,522.618042 256.537903,522.835938 256.840149,522.971069 
	C256.840149,522.971069 256.993591,523.407959 257.086182,523.863403 
	C257.317108,524.618164 257.536713,524.835388 257.837616,524.970459 
	C257.837616,524.970459 257.991821,525.409119 258.085175,525.864685 
	C258.316986,526.618347 258.535980,526.834961 258.835571,526.970093 
	C258.835571,526.970093 258.990234,527.410461 259.084137,527.866028 
	C259.316528,528.618286 259.534851,528.834290 259.833008,528.969543 
z"/>
<path fill="#F74949" opacity="1.000000" stroke="none" 
	d="
M264.013794,540.353455 
	C264.449677,539.998291 264.929749,539.991638 265.769470,539.973328 
	C266.470093,539.977478 266.730896,540.130249 267.043762,540.870239 
	C267.315125,541.617737 267.534149,541.834106 267.833069,541.969604 
	C269.548401,544.398315 271.263702,546.826965 273.033173,549.608643 
	C270.077545,546.875061 267.067810,543.788513 264.013794,540.353455 
z"/>
<path fill="#F93F3F" opacity="1.000000" stroke="none" 
	d="
M247.847427,503.972290 
	C247.847427,503.972290 248.000198,504.405579 248.022736,504.634216 
	C247.867279,505.758301 247.689270,506.653778 247.462036,507.796936 
	C243.958664,503.957825 243.958664,503.957825 246.502625,502.001648 
	C246.847748,501.991028 246.999802,502.411682 247.090149,502.862671 
	C247.319046,503.618042 247.541351,503.837585 247.847427,503.972290 
z"/>
<path fill="#F93F3F" opacity="1.000000" stroke="none" 
	d="
M243.506638,495.001404 
	C243.848206,494.990906 244.000931,495.414429 244.023575,495.638428 
	C243.881973,496.752563 243.717743,497.642700 243.553497,498.532867 
	C243.032944,498.347870 242.512375,498.162872 241.991821,497.977875 
	C242.382904,496.989197 242.773987,496.000549 243.506638,495.001404 
z"/>
<path fill="#F93F3F" opacity="1.000000" stroke="none" 
	d="
M237.506851,481.001099 
	C237.848373,480.990875 238.001053,481.414368 238.023682,481.638306 
	C237.882248,482.752228 237.718185,483.642181 237.554108,484.532135 
	C237.033554,484.347198 236.513000,484.162231 235.992432,483.977295 
	C236.383408,482.988647 236.774368,481.999969 237.506851,481.001099 
z"/>
<path fill="#F93F3F" opacity="1.000000" stroke="none" 
	d="
M234.609467,477.045593 
	C234.211456,477.288666 233.815002,477.286896 233.420853,477.255951 
	C233.409195,477.255035 233.421600,476.947601 233.422791,476.783081 
	C233.818985,476.787567 234.215164,476.792053 234.609467,477.045593 
z"/>
<path fill="#F93F3F" opacity="1.000000" stroke="none" 
	d="
M230.394135,467.468445 
	C229.942307,467.351624 229.664948,467.066620 229.409149,466.763458 
	C229.402390,466.755463 229.630463,466.549347 229.749023,466.435608 
	C230.023178,466.723022 230.297348,467.010437 230.394135,467.468445 
z"/>
<path fill="#F93F3F" opacity="1.000000" stroke="none" 
	d="
M231.955887,472.609314 
	C231.712143,472.209625 231.713654,471.812653 231.743347,471.417816 
	C231.744110,471.407440 232.195007,471.412659 232.195572,471.423218 
	C232.216278,471.818665 232.208694,472.215607 231.955887,472.609314 
z"/>
<path fill="#F93F3F" opacity="1.000000" stroke="none" 
	d="
M238.390778,488.953979 
	C238.789001,488.710754 239.185715,488.712585 239.580170,488.743469 
	C239.591766,488.744385 239.579361,489.052002 239.578156,489.216614 
	C239.181747,489.212128 238.785339,489.207642 238.390778,488.953979 
z"/>
<path fill="#F93F3F" opacity="1.000000" stroke="none" 
	d="
M222.606186,448.531494 
	C223.058121,448.648254 223.335510,448.933228 223.591278,449.236450 
	C223.598038,449.244476 223.369858,449.450714 223.251251,449.564514 
	C222.977081,449.277039 222.702911,448.989594 222.606186,448.531494 
z"/>
<path fill="#F93F3F" opacity="1.000000" stroke="none" 
	d="
M225.608551,454.046082 
	C225.210983,454.288849 224.814865,454.287048 224.421036,454.256042 
	C224.409317,454.255127 224.421692,453.947937 224.422821,453.783569 
	C224.818649,453.788116 225.214493,453.792694 225.608551,454.046082 
z"/>
<path fill="#F93F3F" opacity="1.000000" stroke="none" 
	d="
M213.466858,422.607117 
	C213.350616,423.059021 213.064087,423.333160 212.777557,423.607269 
	C212.663986,423.488403 212.445175,423.272125 212.452026,423.264709 
	C212.720749,422.974365 213.010010,422.703094 213.466858,422.607117 
z"/>
<path fill="#F93F3F" opacity="1.000000" stroke="none" 
	d="
M215.606415,430.531494 
	C216.058167,430.648285 216.335434,430.933197 216.591080,431.236359 
	C216.597855,431.244385 216.369812,431.450439 216.251282,431.564178 
	C215.977203,431.276794 215.703125,430.989410 215.606415,430.531494 
z"/>
<path fill="#F93F3F" opacity="1.000000" stroke="none" 
	d="
M218.393829,436.468445 
	C217.942062,436.351562 217.664734,436.066589 217.409027,435.763428 
	C217.402222,435.755371 217.630264,435.549316 217.748810,435.435608 
	C218.022934,435.723053 218.297043,436.010498 218.393829,436.468445 
z"/>
<path fill="#F93F3F" opacity="1.000000" stroke="none" 
	d="
M156.607239,318.532715 
	C157.058182,318.649445 157.335007,318.933929 157.590240,319.236664 
	C157.597061,319.244751 157.369431,319.450439 157.251144,319.563995 
	C156.977493,319.276978 156.703857,318.989960 156.607239,318.532715 
z"/>
<path fill="#F23231" opacity="1.000000" stroke="none" 
	d="
M241.522125,223.008499 
	C242.253311,215.460739 236.459213,211.882385 232.069336,207.683258 
	C226.285538,202.150787 220.147598,196.988525 214.027496,191.357910 
	C217.832184,187.288681 222.019623,183.741028 225.541031,179.623718 
	C226.455627,178.554382 225.288620,175.704727 225.050385,173.311646 
	C227.076050,173.973419 229.129059,174.996368 231.534210,176.023285 
	C236.734634,178.676392 241.444962,181.629272 246.461502,183.907944 
	C255.398712,187.967484 264.521118,191.619324 273.787659,195.703659 
	C273.511383,197.634232 273.511658,199.786041 272.436401,200.894623 
	C264.155243,209.432571 255.669373,217.772125 247.225693,226.151749 
	C246.908356,226.466675 246.372574,226.561462 245.958359,226.749847 
	C244.550858,225.462494 243.214706,224.240387 241.522125,223.008499 
z"/>
<path fill="#F93535" opacity="1.000000" stroke="none" 
	d="
M220.933289,344.469360 
	C222.489471,342.962189 224.306351,342.097656 225.663956,340.765198 
	C233.496719,333.077362 241.204224,325.262054 248.998749,317.534912 
	C250.274918,316.269775 251.772491,315.227966 253.500870,314.040894 
	C252.902863,326.771454 251.970978,339.544006 251.043518,352.316864 
	C251.007355,352.814789 251.009705,353.315704 251.001251,353.815338 
	C250.666626,373.576202 249.781937,393.348602 250.196396,413.093750 
	C250.463776,425.832001 252.660660,438.527802 253.941193,451.247833 
	C254.350021,455.308960 254.593048,459.386780 255.029007,464.951477 
	C230.427582,427.685699 227.871429,385.672241 220.933289,344.469360 
z"/>
<path fill="#F63232" opacity="1.000000" stroke="none" 
	d="
M385.718140,519.959717 
	C385.907471,520.181030 385.771027,520.463013 385.351562,520.835022 
	C385.261383,520.664551 385.369324,520.362976 385.718140,519.959717 
z"/>
<path fill="#F93535" opacity="1.000000" stroke="none" 
	d="
M256.858582,522.710083 
	C256.537903,522.835938 256.317596,522.618042 256.108398,522.091431 
	C256.317383,522.060059 256.597198,522.254578 256.858582,522.710083 
z"/>
<path fill="#F63232" opacity="1.000000" stroke="none" 
	d="
M384.719604,521.962158 
	C384.907623,522.182983 384.771118,522.463684 384.353546,522.834473 
	C384.263916,522.664612 384.371460,522.363770 384.719604,521.962158 
z"/>
<path fill="#F93535" opacity="1.000000" stroke="none" 
	d="
M257.856262,524.710022 
	C257.536713,524.835388 257.317108,524.618164 257.107635,524.093872 
	C257.315948,524.062500 257.595428,524.256042 257.856262,524.710022 
z"/>
<path fill="#F63232" opacity="1.000000" stroke="none" 
	d="
M383.721039,523.964722 
	C383.907806,524.185181 383.771088,524.464661 383.354980,524.834229 
	C383.265930,524.664734 383.373230,524.364624 383.721039,523.964722 
z"/>
<path fill="#F93535" opacity="1.000000" stroke="none" 
	d="
M255.860260,520.709961 
	C255.538971,520.836426 255.318130,520.618225 255.108917,520.090210 
	C255.318283,520.058716 255.598328,520.253662 255.860260,520.709961 
z"/>
<path fill="#F93535" opacity="1.000000" stroke="none" 
	d="
M258.854431,526.710083 
	C258.535980,526.834961 258.316986,526.618347 258.106995,526.096191 
	C258.314789,526.064697 258.594055,526.257385 258.854431,526.710083 
z"/>
<path fill="#F63232" opacity="1.000000" stroke="none" 
	d="
M382.721558,525.965942 
	C382.907928,526.186157 382.771210,526.465088 382.355835,526.834045 
	C382.266907,526.664795 382.374023,526.364990 382.721558,525.965942 
z"/>
<path fill="#F93535" opacity="1.000000" stroke="none" 
	d="
M259.852234,528.710022 
	C259.534851,528.834290 259.316528,528.618286 259.106262,528.098389 
	C259.313477,528.066956 259.592468,528.258728 259.852234,528.710022 
z"/>
<path fill="#F63232" opacity="1.000000" stroke="none" 
	d="
M381.722778,527.967957 
	C381.908081,528.187561 381.771423,528.465454 381.357849,528.833618 
	C381.269348,528.664856 381.375977,528.365662 381.722778,527.967957 
z"/>
<path fill="#F93F3F" opacity="1.000000" stroke="none" 
	d="
M267.849884,541.710693 
	C267.534149,541.834106 267.315125,541.617737 267.105530,541.096313 
	C267.312256,541.065308 267.589478,541.258484 267.849884,541.710693 
z"/>
<path fill="#F63232" opacity="1.000000" stroke="none" 
	d="
M386.717438,517.958496 
	C386.907440,518.180237 386.770966,518.462830 386.350433,518.835327 
	C386.260040,518.664551 386.368225,518.362549 386.717438,517.958496 
z"/>
<path fill="#F93535" opacity="1.000000" stroke="none" 
	d="
M254.860779,518.709961 
	C254.539307,518.836548 254.318268,518.618164 254.109100,518.089722 
	C254.318588,518.058167 254.598679,518.253296 254.860779,518.709961 
z"/>
<path fill="#F63232" opacity="1.000000" stroke="none" 
	d="
M387.716827,515.957336 
	C387.907288,516.179260 387.770874,516.462402 387.349640,516.835449 
	C387.259003,516.664429 387.367371,516.362122 387.716827,515.957336 
z"/>
<path fill="#F93535" opacity="1.000000" stroke="none" 
	d="
M253.861755,516.709900 
	C253.539688,516.836670 253.318375,516.617920 253.109482,516.088379 
	C253.319290,516.056885 253.599487,516.252563 253.861755,516.709900 
z"/>
<path fill="#F63232" opacity="1.000000" stroke="none" 
	d="
M388.716278,513.956421 
	C388.907135,514.178528 388.770752,514.462097 388.348877,514.835510 
	C388.258057,514.664307 388.366608,514.361816 388.716278,513.956421 
z"/>
<path fill="#F93535" opacity="1.000000" stroke="none" 
	d="
M252.862991,514.709900 
	C252.540253,514.837097 252.318542,514.617981 252.109863,514.087158 
	C252.320023,514.055664 252.600403,514.251770 252.862991,514.709900 
z"/>
<path fill="#F93535" opacity="1.000000" stroke="none" 
	d="
M247.864868,503.709869 
	C247.541351,503.837585 247.319046,503.618042 247.110474,503.085419 
	C247.321060,503.053925 247.601685,503.250702 247.864868,503.709869 
z"/>
<path fill="#F43333" opacity="1.000000" stroke="none" 
	d="
M166.853271,333.708954 
	C166.535553,333.834137 166.316940,333.617737 166.106918,333.095917 
	C166.313324,333.064758 166.592270,333.257050 166.853271,333.708954 
z"/>
<path fill="#F43333" opacity="1.000000" stroke="none" 
	d="
M167.853271,335.708954 
	C167.535492,335.834198 167.316879,335.617859 167.106873,335.096130 
	C167.313339,335.064880 167.592316,335.257111 167.853271,335.708954 
z"/>
<path fill="#F43333" opacity="1.000000" stroke="none" 
	d="
M168.852386,337.708893 
	C168.534973,337.833801 168.316666,337.617615 168.106659,337.096558 
	C168.312927,337.065430 168.591782,337.257446 168.852386,337.708893 
z"/>
<path fill="#F93535" opacity="1.000000" stroke="none" 
	d="
M209.853485,410.710327 
	C209.536163,410.835327 209.317276,410.619598 209.106201,410.099487 
	C209.313400,410.067688 209.592697,410.259186 209.853485,410.710327 
z"/>
<path fill="#F63232" opacity="1.000000" stroke="none" 
	d="
M431.723907,409.971008 
	C431.908081,410.190887 431.770813,410.467560 431.357666,410.833862 
	C431.269806,410.665161 431.376709,410.366608 431.723907,409.971008 
z"/>
<path fill="#F93535" opacity="1.000000" stroke="none" 
	d="
M210.856659,412.710236 
	C210.537689,412.835968 210.317841,412.619232 210.107315,412.095825 
	C210.315414,412.064087 210.595123,412.256958 210.856659,412.710236 
z"/>
<path fill="#F63232" opacity="1.000000" stroke="none" 
	d="
M430.722198,411.967712 
	C430.907837,412.188171 430.770721,412.466370 430.355591,412.834229 
	C430.267059,412.664948 430.374359,412.365479 430.722198,411.967712 
z"/>
<path fill="#F93535" opacity="1.000000" stroke="none" 
	d="
M211.859924,414.710205 
	C211.539444,414.836914 211.318542,414.619324 211.108398,414.092651 
	C211.317337,414.060852 211.597458,414.254944 211.859924,414.710205 
z"/>
<path fill="#F93535" opacity="1.000000" stroke="none" 
	d="
M444.725891,218.958130 
	C444.903473,219.171341 444.767273,219.453094 444.355164,219.827499 
	C444.268402,219.660156 444.379364,219.362320 444.725891,218.958130 
z"/>
</svg>