<?xml version="1.0" encoding="utf-8"?>
<!-- Generator: Adobe Illustrator 25.4.1, SVG Export Plug-In . SVG Version: 6.00 Build 0)  -->
<svg version="1.1" id="Layer_1" xmlns="http://www.w3.org/2000/svg" width="256px" height="256px" xmlns:xlink="http://www.w3.org/1999/xlink" x="0px" y="0px"
	 viewBox="0 0 250 142.4" style="enable-background:new 0 0 250 142.4;background: #000000;" xml:space="preserve">
<style type="text/css">
	.st0{display:none;}
	.st1{display:inline;}
	.st2{display:inline;fill:#FFFFFF;}
	.st3{clip-path:url(#SVGID_00000003080850799520341910000013791066475883534976_);}
	.st4{clip-path:url(#SVGID_00000083784918403975908560000009818676422017921926_);}
	.st5{clip-path:url(#SVGID_00000120541743751389201680000007699246375368183974_);}
	.st6{clip-path:url(#SVGID_00000075154820282900917760000013468708655686876597_);}
	.st7{clip-path:url(#SVGID_00000165925826546249422250000001445651949752730530_);fill:#FFFFFF;}
	.st8{clip-path:url(#SVGID_00000042004301607192079080000005432319835505208972_);fill:#FFFFFF;}
	.st9{clip-path:url(#SVGID_00000174576455114863864780000012937250844183977375_);fill:#FFFFFF;}
	.st10{clip-path:url(#SVGID_00000165941677597505160250000013219994993220736400_);fill:#FFFFFF;}
	.st11{display:inline;fill:#FFFFFF;}
	.st12{display:inline;opacity:0.3;enable-background:new    ;}
	.st13{clip-path:url(#SVGID_00000072965230702666868430000003413626209773958335_);}
	.st14{fill:#FFFFFF;}
</style>
<g id="black-background" class="st0">
	<rect x="-751.7" y="-1508.9" class="st1" width="1413.8" height="533.5"/>
	<rect x="-350" y="-424.9" class="st1" width="950" height="959.8"/>
</g>
<g id="white-background" class="st0">
	<rect x="-751.7" y="-1508.9" class="st2" width="1413.8" height="533.5"/>
	<g class="st1">
		<g>
			<g>
				<path d="M847.6-642c-3.5-13.3-7.9-26.4-10.4-39.9c-5.8-30.8-12-61.5-12.7-93c-0.7-26.8,3.7-52.7,13.2-77.8
					c0.4-1.2,1.4-2.2,2.3-3.2c17.1-18.9,34.4-37.6,51.4-56.6c4.1-4.6,8.1-8.9,9.5-15.8c1.1-5.3,7.2-8.9,13.5-9.5
					c5-0.5,10-0.7,15-0.9c2.7-0.1,3.9-1,5-3.6c4.8-11.7,10.1-23.2,15.1-34.8c4.1-9.5,12.1-15,20.7-19.5c13.4-7,27.3-13.1,40.7-20.1
					c7.4-3.8,14.2-8.7,21.3-13c5.5-3.3,11-6.6,16.6-9.7c8.7-4.9,16.8-2.7,24.9,1.9c10.9,6.1,22,11.6,33,17.6
					c5.2,2.8,10.1,6.4,15.4,9.1c4.2,2.2,8.8,3.4,13,5.5c3.9,1.9,7.7,4,11.2,6.6c7.9,5.9,15.5,12.1,23.2,18.1
					c2.5,1.9,5.1,3.6,8.2,5.8c2.3-5.6,10.7-5.7,9.6-13.6c0.2-0.2,0.4-0.7,0.8-0.9c8.3-4.4,10.2-3.5,12.9,5.5
					c0.9,2.9,2.4,5.7,3.9,9.2c0.1-0.6,0.2-0.3,0,0c-2.7,3.4-7.9,7-7.5,10c0.7,5.6,4.4,10.9,7.2,16.1c4.8,8.7,10.9,16.8,14.5,26
					c4.7,12,7.6,24.7,11,37.2c2.1,7.7,3.8,15.5,5.7,23.3c0.3,1.5,0.6,3,0.7,4.4c0.5,7.3-0.7,8.6-7.9,8.9c-5,0.2-10,0.3-15,0.9
					c-3.8,0.5-5.9-0.7-7.3-4.2c-2.2-5.4-5.3-10.5-6.7-16.1c-1.2-4.9-0.2-10.2-0.7-15.3c-0.8-9.3-1.6-18.6-3.3-27.8
					c-0.8-4.3-3.1-8.4-5.4-12.2c-4.3-6.9-9-13.6-13.8-20.2c-2.7-3.7-5.8-7-2.3-12.5c-6.9,9.3-12.3,0.5-18.7-0.7
					c0.3,1.1,0.4,1.8,0.7,2.5c7.6,18.6,16.1,37,22.6,56c4,11.7,5.2,24.4,7.3,36.7c1.1,6.4,1.9,12.9,7.1,17.8
					c-6.1,3.8-11.6,8.3-19.5,6.4c-2.3-0.6-5.1-0.3-7.4,0.5c-6.4,2-12-1.4-17.7-2.8c-1.6-0.4-3.6-3.8-3.7-5.8
					c-0.5-9.6-5.3-15.4-13.6-20.2c-13.2-7.6-26.2-15-41.9-16c-8.1-0.5-15.5,0.5-22.3,5.3c-7.1,5-14.8,7.6-23.8,7.5
					c-9.4-0.1-17.7,2.5-23.4,11.5c-3.4,5.4-8.4,9.7-13.1,14.2c-7.3,7-14.9,13.7-21.4,21c-0.6,2.2-1,4.6-1.8,6.7
					c-3.9,9.9-8.5,19.5-11.8,29.6c-4.3,12.8-7.5,25.9-11.4,38.8c-0.9,2.9-0.5,4.8,1.5,7.1c12.5,15,28,26.5,44.1,37.3
					c-19.2-6.9-33.6-20.6-48.2-35.7c-3.8,15.1-11,28.2-10.4,43.3c0.4,13.2-1.9,25.9-6.3,38.2c-1.4,4-0.6,6.7,2.2,9.8
					c31.8,36.6,70.2,64.7,112.8,87.3c1.4,0.8,2.9,1.6,4.3,2.3c-0.2,0.4-0.4,0.8-0.5,1.2c-10.1-4.5-20.3-8.7-30.2-13.4
					c-21.2-10.2-41.1-22.6-59.8-37.1C955.3-618,943.7-632,932-645.9c-0.8-0.9-1.4-2.9-1-3.9c6.6-17.4,5.1-35.8,6.7-53.8
					c1.1-13,6.2-24.8,11-36.6c1.6-4,1.3-6.4-1.6-9.6c-9.5-10.7-18.6-21.7-27.7-32.8c-1.3-1.5-1.9-4.2-1.7-6.2
					c3.7-36.1,7.5-72.2,11.5-108.3c0.6-5.2-0.5-11.2,4.7-15.2c-0.1-0.5-0.2-1-0.3-1.5c-4.5,0-9,0.1-13.5,0c-2.9-0.1-5.7-0.4-9.1-0.7
					c0.3,6.7-6,9.3-11.4,12.3c-13.6,7.7-22.9,19.6-32.6,31.3c-1.6,1.9-3.1,4-5,5.5c-20.9,16.5-25.1,40.5-27.4,64.5
					c-5,52.8,2.4,104.7,14.2,156c0.2,0.9,0.3,1.8,0.4,2.8C848.6-642.2,848.1-642.1,847.6-642z M1111.4-885.4
					c0.3-0.6,0.6-1.2,0.9-1.9c-2.7-1.7-5.1-4-8.1-5c-7.8-2.8-14.1-7.5-18.4-14.5c-2.1-3.4-4.9-4.2-8.5-3.5c-3.6,0.6-7.3,1-10.8,1.9
					c-9.9,2.6-19.8,2.2-29.8,1.3c-5.1-0.5-10.3-0.4-15.3,0.4c-13.8,2.3-26.7,0.9-38.7-6.9c-3.7-2.4-8.1-4-12.5-4.8
					c-2.5-0.5-6,0.4-8,2c-5.9,4.6-11.3,9.8-16.7,15.1c-1.6,1.6-2.9,4-3.3,6.3c-2.4,14.5-4.5,29-6.7,43.4
					c-3.1,20.6-6.4,41.1-9.4,61.7c-0.3,2.1,0,4.7,1.1,6.4c3.3,5,7,9.7,10.7,14.4c4.7,6,9.5,11.8,15,18.8c2.3-8.5,4.7-15.4,5.9-22.6
					c2.6-15,6-29.7,13.3-43.1c2.9-5.3,3-8.7-1.6-13.1c-5.3-5-4.9-6.7,0.3-11.9c1.1-1.1,3.3-1.1,4.9-1.7c1-0.3,2.2-0.5,2.8-1.3
					c7.9-9.5,16.3-18.2,27.9-23.7c10.9-5.2,20.9-12.1,31.4-17.9c4.9-2.7,10.1-5.9,15.5-6.5c11.8-1.4,23.7-1.7,35.5,2
					C1096.3-887.9,1103.9-886.9,1111.4-885.4z M1123.9-979.6c-3.6-2.3-6.5-3.9-9.1-5.9c-7.9-5.8-15.8-11.4-23.4-17.7
					c-5.7-4.7-10.8-9.4-17.6-13.1c-10.4-5.7-19.4-3.7-28.3,0.7c-24.3,12-48,25.3-72.4,37c-17.2,8.2-23.6,24.8-34.1,38.6
					c8.9-0.1,17.5-0.8,26-1.6c1-0.1,2.1-1,2.9-1.7c13.6-12.7,26.9-25.6,37.4-41.2c0.6-0.9,2-2.1,2.5-1.9c4.5,1.7,5.8-2,7.8-4.4
					c1.4-1.7,2.5-3.7,3.9-5.8c0.8,2.1,1.4,3.6,2.1,5.3c2.3-1.6,4.2-3,6.3-4.5c1,1.5,1.8,2.5,2.4,3.7c3.2,5.8,7.9,8.9,14.6,10
					c10.8,1.7,21.5,4.1,32.3,6.1c0.4,0.1,0.9-0.3,1.3-0.4c-0.3-1.5-0.6-2.8-1.2-5.5c10.2,1.6,19.5,2.9,28.8,4.8
					C1112.1-975.9,1117.5-976.7,1123.9-979.6z M990.8-940.9c28.9,2.7,56.2,5.3,83.6,7.9c-1.2-4.8-1.6-10-6.4-12.9
					c-0.1-0.1,0-0.6-0.1-2c6.2,3.2,12,5.9,17.5,9.1c3.7,2.2,5.6,0.5,7.1-2.5c1.3-2.7,2.1-5.5,3.4-9.2c-4.4-1.6-9-4.3-13.7-4.7
					c-14.9-1.2-29.9-1.4-44.8-2.3c-2.3-0.1-4.7-1.2-6.7-2.4c-4.5-2.7-8.7-5.8-13.3-9c-0.4,1-1.3,2-1.1,2.7c0.8,4.2-1.8,6.3-4.6,8.5
					C1005-952.5,998.5-947.1,990.8-940.9z M1108.2-948.5c2.5,10.8,5.6,21.2,15,28.4c5.2,3.9,11.1,7,14.4,13.1
					c1.5,2.7,3.7,5.1,5.7,7.6c6.8,8.7,13.5,17.4,20.3,26.1c0.4-0.3,0.9-0.5,1.3-0.8c-0.5-1.5-0.8-3.1-1.5-4.5
					c-3.3-7.1-6.8-14.1-10.1-21.1c-7.2-15.1-15.7-29.1-27.8-41C1120.6-945.6,1116-949.6,1108.2-948.5z"/>
				<path d="M1327.6-842c1.8-6.3,4.4-11.8,4.9-17.5c2.7-33.6,13.9-64.6,27.6-94.9c0.3-0.6,0.5-1.2,0.9-2.2
					c-6.5,0.3-12.2,11.2-19.5,0.5c4.3,5.8,1.2,9.5-1.7,13.5c-3.3,4.6-6.1,9.5-9.5,14c-8.5,11.1-10.2,24-10.6,37.2
					c-0.3,8,0.7,16.1-0.8,23.8c-1.4,7-5.2,13.5-8.2,20.2c-0.3,0.7-2.3,1-3.6,1c-6.8,0-13.7,0-20.5-0.5c-1.3-0.1-3.5-2.3-3.5-3.5
					c0-5.3-0.1-10.7,1.1-15.8c3.8-17,7.4-34.1,12.3-50.9c3.1-10.8,8.1-21,15.2-30.2c3.2-4.1,4.9-9.4,6.9-14.4
					c0.5-1.3-0.2-3.6-1.2-4.7c-2.2-2.5-4.9-4.4-6.9-6.1c2.2-5.8,3.7-10.6,6-15.1c0.8-1.6,4-3.7,5.1-3.3c2.6,1,7.3,0.5,6.5,5.7
					c-0.1,0.9,0.6,2,1.1,2.8c0.5,0.6,1.3,1,2,1.5c8.5,6.2,8.3,6,16.9-0.9c9.8-8,19-17.3,30.1-22.8c19.2-9.6,36.5-22.4,56-31.3
					c6.4-2.9,11.7-8.1,19.3-8.7c8-0.7,15.3,2.3,21,6.5c16.3,11.9,34.1,20.6,52.8,28c4.9,2,9.7,4.4,14.5,6.7
					c13.2,6.1,23.2,15.2,28.7,29.1c3.5,9,7.7,17.7,12,26.3c0.7,1.5,3,2.8,4.7,3c4.1,0.5,8.3,0.2,12.5,0.4c10,0.4,15.6,4.9,18.1,14.4
					c0.3,1.2,0.9,2.6,1.7,3.5c17.3,18.4,33.9,37.7,52.4,54.9c11.2,10.4,14.4,23.7,18.4,36.7c7.5,24.7,7.8,50.4,5.5,75.8
					c-2.9,31.5-6.3,63-14.6,93.7c-1.3,4.8-2.8,9.6-4.3,14.4c-0.2,0.6-0.6,1.2-1.4,1.7c0.2-1.1,0.3-2.3,0.6-3.4
					c5.4-20.9,7.9-42.2,9.3-63.7c1.2-20.3,3.2-40.6,3.3-60.8c0.1-27.3-4.5-54.1-15.5-79.4c-0.5-1.2-1.2-2.3-2.1-3.2
					c-9.9-10.1-20-20-29.6-30.4c-7.2-7.9-15.3-14.3-24.5-19.5c-7.6-4.3-7.6-4.4-10.5-11.3c-7.8,0.6-15.2,1.1-21.5,1.6
					c1.4,6.5,3.1,12.4,4,18.4c4.8,34.5,9.3,69,14,103.5c0.6,4,0,7.3-2.7,10.6c-8.9,10.8-17.5,21.9-26.4,32.6c-2,2.4-2.4,4.1-1.1,7
					c4,9.7,8.5,19.3,11.2,29.4c2.2,8.3,2.2,17.1,3,25.7c1.1,12.1,1.8,24.2,6.3,35.8c0.7,1.7-0.9,4.9-2.3,6.8
					c-20.6,28.6-47.4,50.4-77.8,67.7c-13.4,7.6-27.6,14.1-41.4,21c-1.4,0.7-3,1.1-4.7,1.3c11-6.8,22.1-13.4,32.9-20.5
					c30.5-20.1,57.7-43.9,81.1-72.1c3-3.6,4-6.4,2.1-11c-4.6-11.8-6.6-24.3-7.4-37c-0.4-7.5-2.4-15-4.4-22.3
					c-1.8-6.7-4.5-13.2-7.1-20.8c-14.2,15-28.1,29.5-47.5,37.3c9-7.2,18.1-13.8,26.5-21.2c6.3-5.6,11.8-12.2,17.3-18.7
					c1.1-1.3,1.5-4.1,0.9-5.8c-6.6-19.7-13.4-39.4-20.4-59c-1.2-3.4-3.5-6.4-5-9.7c-0.9-1.9-1.3-4-1.9-6.1c0.4-0.3,0.8-0.6,1.2-0.9
					c-9.8-8.2-19.7-16.3-29.4-24.7c-2.7-2.4-5.2-5.3-7-8.4c-5.4-9.1-14-11.7-23.4-11.2c-9,0.4-16.9-1.8-24-6.6
					c-8.6-5.9-17.6-5.8-27.3-4.3c-13.8,2.1-25,9.5-36.6,16.4c-8.3,4.9-13.4,10.9-13.3,20.9c0,4-3.1,5.5-6.9,7.2
					c-9.7,4.4-19.6,0.5-29.4,1.9C1334.7-836.5,1330.5-840.6,1327.6-842z M1568.3-757.6c0.6,0,1.2,0.1,1.7,0.1
					c8.1-11.1,16.3-22.3,24.3-33.5c0.8-1.1,0.7-3.2,0.5-4.7c-5.4-30-11.6-59.8-16-90c-2.1-14.2-7.4-24.6-19.1-32.8
					c-9.4-6.6-12-7.6-22.2-1.9c-1.3,0.7-2.6,1.5-3.8,2.3c-11.3,7.8-23.8,9.5-37.1,7.4c-3.7-0.6-7.7-1.1-11.3-0.5
					c-14,2.4-27.8,2.1-41.6-1.1c-1.9-0.4-4-0.8-5.9-0.4c-1.8,0.3-4.2,1.2-5,2.5c-4.9,8.2-12,13.6-20.7,17.1c-2.3,1-4.2,3-6.3,4.6
					c0.3,0.5,0.6,1.1,0.9,1.6c9.2-2.2,18.3-4.6,27.5-6.4c6.3-1.2,12.8-2.5,19.1-2.2c6.1,0.4,12.4-0.9,18.4,2.6
					c8.2,4.7,17.2,7.9,25.5,12.4c12.9,7,26.5,13,36.8,24.1c3.2,3.5,5.2,9.7,12,8c0.3-0.1,0.8,0.5,1.2,0.8c5.6,4.4,6.1,7.7,1.8,13.2
					c-0.8,1-1.6,2.1-2.6,3.1c-2.1,2-1.9,3.8-0.6,6.5c5,10.1,10.9,19.8,12.9,31.1c0.7,4.1,1.5,8.2,2.6,12.2
					C1563.6-773.4,1566-765.5,1568.3-757.6z M1577.2-945.5c0.2-0.4,0.4-0.9,0.7-1.3c-5-6.6-10-13.2-14.9-19.9
					c-5.6-7.6-12.4-13.3-21.3-17.4c-24.4-11.1-48.2-23.4-72.5-34.6c-5.8-2.7-13.4-5.1-19.1-3.6c-7.2,1.9-15.2,4.7-20.7,11.1
					c-8.8,10.1-18.2,19.5-30.3,25.6c-2.4,1.2-4.5,3.1-6.7,4.6c0.1,0.6,0.2,1.2,0.2,1.8c4.8,0.4,9.7,1.5,14.4,1.1
					c6.6-0.7,13-2.7,19.6-3.9c3.7-0.7,7.4-0.9,11.6-1.4c-0.3,2.3-0.6,3.7-0.8,5.2c8-2,15.4-4.7,23.1-5.7
					c11.2-1.4,22.2-2.4,26.3-15.8c2.7,1.9,4.7,3.2,6.8,4.7c0.7-1.9,1.3-3.6,1.9-5.5c0.6,0.8,1,1.3,1.4,1.8c2.9,3.8,4.2,9.9,11.3,8.2
					c0.4-0.1,1.3,0.9,1.7,1.5c10.8,15.4,24.7,27.8,38.5,40.2c0.9,0.9,2.3,1.7,3.5,1.8C1560.3-946.4,1568.8-946,1577.2-945.5z
					 M1525.8-945.6c-8.5-6.5-15.9-12-23.1-17.8c-1.3-1-1.9-3-2.7-4.7c-0.6-1.4-1-2.9-1.4-4.4c-1.3,0.8-2.7,1.5-4,2.3
					c-4.5,3.1-8.6,8.2-13.4,8.9c-14.3,2.1-28.8,3.1-43.2,3.3c-6.2,0.1-10.7,3.5-16,5.2c-0.5,0.2-1,0.7-1.3,1c1.2,2.6,2.4,5,3.3,7.5
					c1.7,4.5,4,5.1,8.2,2.6c5.2-3.1,10.7-5.8,16-8.6c-2.2,5.3-4,9.9-6.1,14.8C1469.9-938.8,1497.1-942.1,1525.8-945.6z
					 M1408.7-950.8c-4.5,1.2-9,1-11.2,3.2c-6.7,6.6-13.3,13.6-18.4,21.5c-6.7,10.4-12.2,21.7-17.8,32.8c-3.1,6.1-5.3,12.6-7.9,19
					c1.9-0.3,2.7-1.1,3.4-2c9-12.1,18-24.2,27-36.3c1.1-1.5,2.1-4,3.3-4.2c5.8-0.8,8.1-5.8,11.5-9.2
					C1405.1-932.6,1406.1-941.4,1408.7-950.8z"/>
				<path d="M1317-818.2c8.1-2.7,16.2-5.3,25.3-8.3c-0.8,2.2-1.2,3.3-1.8,4.9c4.2-0.5,8-1.2,11.9-1.5c1.7-0.1,4,0,5.1,1
					c4.7,4.4,9.3,9.1,13.5,14c1.1,1.3,1.4,4.1,1,6c-1.7,7.2-3.4,14.5-5.9,21.5c-1.4,3.7-4.4,6.9-7,10.9c-0.4-0.8-0.3-0.4-0.1-0.3
					c8.6,2.6,7.3,9.4,6.1,15.6c-1.6,8.3-2.5,17-6,24.6c-3.6,7.8-3.7,16-6.4,23.8c-0.1,0.4-0.5,0.7-0.8,1.1c-0.5,0-1.1,0-1.6-0.1
					c-0.4-13.2-0.7-26.4-1.2-39.7c-0.2-4.7,0-9.5-1.3-13.8c-0.6-2-4.4-3.1-6.7-4.6c-1,1.6-2.9,3.2-3,4.9c-0.5,7.3-0.8,14.6-0.4,21.8
					c0.1,2.3,2.9,4.5,5.4,8c-11.1-0.5-21.4-1-31.7-1.5c-0.3-0.3-0.6-0.7-1-1c8.7-2.7,6.9-11.4,10.8-16.8c0.3-0.5,0.2-1.3,0.3-1.9
					c0.5-9.9,0.9-19.9,1.4-29.8c0.5-9.7,0.8-19.3,1.5-29c0.3-4.2-0.5-6.8-5.1-7.2c-0.7-0.1-1.4-0.6-2.2-1
					C1317.2-817.2,1317.1-817.7,1317-818.2z M1344.6-779.1c12.7-10.3,14.4-20.8,4-26.5c-0.6,3.2-1.1,6.2-1.7,9.3
					c-1.5-2.2-1.7-4.5-2.6-6.6c-0.6-1.5-2-2.6-3-3.9c-0.8,1.5-2.1,3-2.2,4.5c-0.5,5.4-0.7,10.9-0.8,16.4c-0.1,3.3,0,6.6,0,9.9
					c0.4,0,0.8,0.1,1.2,0.1c1-2.1,2.1-4.2,3.5-7C1343.7-781.2,1344.1-780.3,1344.6-779.1z"/>
				<path d="M1318.8-829.2c-1.2,1.4-1.7,2.7-2.6,3.1c-6,3.1-6.6,8.5-6.9,14.3c-0.9,17.3-1.6,34.5-3.1,51.7c-0.5,5.9-3,11.7-4.6,17.9
					c-0.8-0.5-1.7-1.2-2.8-2c-1.1,3.9-2.2,7.5-3.2,11c-0.6,0-1.2,0-1.9,0c-1-9-2-18.1-3-27.4c-0.7,0.6-1.8,1.4-3.1,2.5
					c-0.4-1-0.8-2.1-1.8-4.4c-2.3,4.1-4.1,7.1-6.3,11c-0.2-3.5-0.4-6.3-0.6-10.2c-3.4,8.3-1.9,17.2-8.6,24.5
					c-0.2-4-0.4-6.8-0.6-11.3c-4.4,5.8-8.1,10.6-12.3,16.2c-0.2-3.1-0.4-5.7-0.4-8.2c0.1-3.4,1-7.2-5.3-7
					c11.9-5.7,11.7-16.6,14.5-26.2c1.9-6.6,4.6-13.1,6.7-19.7c0.9-2.8,1.3-5.7,2.2-8.5c1.6-5,3.1-10.2,5.3-14.9
					c2-4.4,1.7-6.5-2.8-8.6c-1.6-0.8-3.2-1.7-4.8-2.5c0.1-0.5,0.2-1,0.3-1.5C1288.2-829.2,1303-829.2,1318.8-829.2z M1296.5-813.9
					c-0.6-0.1-1.2-0.2-1.9-0.3c-3.7,12.7-7.3,25.4-11,38.1c8.3,1.5,10.1,0.1,10.4-8.1c0.1-3.1,0.6-6.3,0.9-9.4
					C1295.5-800.3,1296-807.1,1296.5-813.9z"/>
				<path d="M1248.9-833.2c-1.7,10.4-3.3,20-4.9,29.6c-0.4,0.2-0.7,0.3-1.1,0.5c-1.4-2.9-2.9-5.9-4.3-8.7c-0.6,0.8-1.3,1.8-2.3,3.1
					c-1.5-3.5-2.9-6.6-4.5-10.2c-0.8,1.6-1.4,2.7-2.1,4c-1.3-1.1-2.6-2.1-4.9-4c-1.5,10.4-0.2,19.6,0.8,29.1
					c7.7-0.1,5.5-8.7,11-11.6c0.8,11.4,1.5,22.1,2.2,32.8c-0.5,0.1-1,0.3-1.5,0.4c-1.2-2-2.2-4.2-3.7-6c-1.4-1.6-3.3-2.8-5.1-4.3
					c-4.1,7.5-2,20.7,3.7,27.2c5.1-1.2,7.8-4.3,8.4-9.6c0.3-3,1.5-6,2.6-10.1c4.6,7,5.9,25.2,3.7,37.1c-4.5-2.1-9.3-4.3-13.9-6.6
					c-5.6-2.9-5.6-2.9-8.1,2.9c-0.3,0.6-0.7,1.1-1.2,1.9c-4.6-8.4-11.7-3.9-19-3.7c0.9-1.9,1.2-3.7,2.2-4.5
					c3.8-2.9,3.6-6.8,3.5-10.8c-0.7-18.1-1.5-36.2-2.1-54.2c-0.2-6.7-2.6-12.2-9.3-15.6C1215.1-830.6,1231.8-830.9,1248.9-833.2z"/>
				<path d="M1167.3-718.9c-0.8-3.6-1.5-7.2-2.5-10.8c-6.3-22.2-9.7-45-11.5-68c-0.5-6.9-0.7-13.7-8.6-16.8
					c-0.3-0.1-0.3-0.9-0.8-2.2c16.4-3,32.5-6,49.1-9c-0.9,8.8-1.7,17-2.6,26.1c-1.4-1.6-3-2.8-3.7-4.3c-2.2-5.1-6.2-6.3-11.3-3.6
					c-4.6,2.4-6.9,5.8-6.1,11.1c0.7,4.8,1.1,9.7,1.6,14.6c7.5-1,5.6-8.8,10.9-12.2c0.9,11.3,1.7,22,2.5,32.6c-0.5,0.1-1,0.2-1.5,0.3
					c-1.5-2.3-2.7-4.8-4.5-6.9c-1.1-1.2-3-1.6-4.5-2.4c-0.6,1.4-1.7,2.8-1.7,4.2c0.1,5.4,0.6,10.8,1,16.3
					C1173.9-739.2,1171.9-728.9,1167.3-718.9z"/>
			</g>
		</g>
	</g>
	<g class="st1">
		<g>
			<g>
				<g>
					<g>
						<g>
							<defs>
								<path id="SVGID_1_" d="M12.1,35c12.3-8.9,45-18.7,93.7-18.7v-226h-420.7l-5.5,489.7l258.9,58.9l6.7-280.4L12.1,35z"/>
							</defs>
							<clipPath id="SVGID_00000093857927360858737190000010115945954157978034_">
								<use xlink:href="#SVGID_1_"  style="overflow:visible;"/>
							</clipPath>
							<g style="clip-path:url(#SVGID_00000093857927360858737190000010115945954157978034_);">
								<g>
									<g>
										<path d="M-284.9,235c-3.5-13.3-7.9-26.4-10.4-39.9c-5.8-30.8-12-61.5-12.7-93c-0.7-26.8,3.7-52.7,13.2-77.8
											c0.4-1.2,1.4-2.2,2.3-3.2c17.1-18.9,34.4-37.6,51.4-56.6c4.1-4.6,8.1-8.9,9.5-15.8c1.1-5.3,7.2-8.9,13.5-9.5
											c5-0.5,10-0.7,15-0.9c2.7-0.1,3.9-1,5-3.6c4.8-11.7,10.1-23.2,15.1-34.8c4.1-9.5,12.1-15,20.7-19.5
											c13.4-7,27.3-13.1,40.7-20.1c7.4-3.8,14.2-8.7,21.3-13c5.5-3.3,11-6.6,16.6-9.7c8.7-4.9,16.8-2.7,24.9,1.9
											c10.9,6.1,22,11.6,33,17.6c5.2,2.8,10.1,6.4,15.4,9.1c4.2,2.2,8.8,3.4,13,5.5c3.9,1.9,7.7,4,11.2,6.6
											c7.9,5.9,15.5,12.1,23.2,18.1c2.5,1.9,5.1,3.6,8.2,5.8c2.3-5.6,10.7-5.7,9.6-13.6c0.2-0.2,0.4-0.7,0.8-0.9
											c8.3-4.4,10.2-3.5,12.9,5.5c0.9,2.9,2.4,5.7,3.9,9.2c0.1-0.6,0.2-0.3,0,0c-2.7,3.4-7.9,7-7.5,10
											c0.7,5.6,4.4,10.9,7.2,16.1c4.8,8.7,10.9,16.8,14.5,26c4.7,12,7.6,24.7,11,37.2c2.1,7.7,3.8,15.5,5.7,23.3
											c0.3,1.5,0.6,3,0.7,4.4c0.5,7.3-0.7,8.6-7.9,8.9c-5,0.2-10,0.3-15,0.9c-3.8,0.5-5.9-0.7-7.3-4.2
											c-2.2-5.4-5.3-10.5-6.7-16.1C65.9,4,66.9-1.3,66.4-6.4c-0.8-9.3-1.6-18.6-3.3-27.8c-0.8-4.3-3.1-8.4-5.4-12.2
											c-4.3-6.9-9-13.6-13.8-20.2c-2.7-3.7-5.8-7-2.3-12.5c-6.9,9.3-12.3,0.5-18.7-0.7c0.3,1.1,0.4,1.8,0.7,2.5
											c7.6,18.6,16.1,37,22.6,56c4,11.7,5.2,24.4,7.3,36.7c1.1,6.4,1.9,12.9,7.1,17.8C54.5,37,49,41.5,41.1,39.6
											c-2.3-0.6-5.1-0.3-7.4,0.5c-6.4,2-12-1.4-17.7-2.8c-1.6-0.4-3.6-3.8-3.7-5.8C11.8,21.9,7,16.1-1.3,11.3
											c-13.2-7.6-26.2-15-41.9-16c-8.1-0.5-15.5,0.5-22.3,5.3c-7.1,5-14.8,7.6-23.8,7.5c-9.4-0.1-17.7,2.5-23.4,11.5
											c-3.4,5.4-8.4,9.7-13.1,14.2c-7.3,7-14.9,13.7-21.4,21c-0.6,2.2-1,4.6-1.8,6.7c-3.9,9.9-8.5,19.5-11.8,29.6
											c-4.3,12.8-7.5,25.9-11.4,38.8c-0.9,2.9-0.5,4.8,1.5,7.1c12.5,15,28,26.5,44.1,37.3c-19.2-6.9-33.6-20.6-48.2-35.7
											c-3.8,15.1-11,28.2-10.4,43.3c0.4,13.2-1.9,25.9-6.3,38.2c-1.4,4-0.6,6.7,2.2,9.8c31.8,36.6,70.2,64.7,112.8,87.3
											c1.4,0.8,2.9,1.6,4.3,2.3c-0.2,0.4-0.4,0.8-0.5,1.2c-10.1-4.5-20.3-8.7-30.2-13.4c-21.2-10.2-41.1-22.6-59.8-37.1
											c-14.5-11.2-26.1-25.2-37.8-39.1c-0.8-0.9-1.4-2.9-1-3.9c6.6-17.4,5.1-35.8,6.7-53.8c1.1-13,6.2-24.8,11-36.6
											c1.6-4,1.3-6.4-1.6-9.6c-9.5-10.7-18.6-21.7-27.7-32.8c-1.3-1.5-1.9-4.2-1.7-6.2c3.7-36.1,7.5-72.2,11.5-108.3
											c0.6-5.2-0.5-11.2,4.7-15.2c-0.1-0.5-0.2-1-0.3-1.5c-4.5,0-9,0.1-13.5,0c-2.9-0.1-5.7-0.4-9.1-0.7
											c0.3,6.7-6,9.3-11.4,12.3c-13.6,7.7-22.9,19.6-32.6,31.3c-1.6,1.9-3.1,4-5,5.5c-20.9,16.5-25.1,40.5-27.4,64.5
											c-5,52.8,2.4,104.7,14.2,156c0.2,0.9,0.3,1.8,0.4,2.8C-284,234.7-284.4,234.8-284.9,235z M-21.2-8.5
											c0.3-0.6,0.6-1.2,0.9-1.9c-2.7-1.7-5.1-4-8.1-5c-7.8-2.8-14.1-7.5-18.4-14.5c-2.1-3.4-4.9-4.2-8.5-3.5
											c-3.6,0.6-7.3,1-10.8,1.9c-9.9,2.6-19.8,2.2-29.8,1.3c-5.1-0.5-10.3-0.4-15.3,0.4c-13.8,2.3-26.7,0.9-38.7-6.9
											c-3.7-2.4-8.1-4-12.5-4.8c-2.5-0.5-6,0.4-8,2c-5.9,4.6-11.3,9.8-16.7,15.1c-1.6,1.6-2.9,4-3.3,6.3
											c-2.4,14.5-4.5,29-6.7,43.4c-3.1,20.6-6.4,41.1-9.4,61.7c-0.3,2.1,0,4.7,1.1,6.4c3.3,5,7,9.7,10.7,14.4
											c4.7,6,9.5,11.8,15,18.8c2.3-8.5,4.7-15.4,5.9-22.6c2.6-15,6-29.7,13.3-43.1c2.9-5.3,3-8.7-1.6-13.1
											c-5.3-5-4.9-6.7,0.3-11.9c1.1-1.1,3.3-1.1,4.9-1.7c1-0.3,2.2-0.5,2.8-1.3c7.9-9.5,16.3-18.2,27.9-23.7
											C-115.3,4-105.3-2.9-94.8-8.7c4.9-2.7,10.1-5.9,15.5-6.5c11.8-1.4,23.7-1.7,35.5,2C-36.2-11-28.6-10-21.2-8.5z
											 M-8.6-102.7c-3.6-2.3-6.5-3.9-9.1-5.9c-7.9-5.8-15.8-11.4-23.4-17.7c-5.7-4.7-10.8-9.4-17.6-13.1
											c-10.4-5.7-19.4-3.7-28.3,0.7c-24.3,12-48,25.3-72.4,37c-17.2,8.2-23.6,24.8-34.1,38.6c8.9-0.1,17.5-0.8,26-1.6
											c1-0.1,2.1-1,2.9-1.7c13.6-12.7,26.9-25.6,37.4-41.2c0.6-0.9,2-2.1,2.5-1.9c4.5,1.7,5.8-2,7.8-4.4
											c1.4-1.7,2.5-3.7,3.9-5.8c0.8,2.1,1.4,3.6,2.1,5.3c2.3-1.6,4.2-3,6.3-4.5c1,1.5,1.8,2.5,2.4,3.7c3.2,5.8,7.9,8.9,14.6,10
											c10.8,1.7,21.5,4.1,32.3,6.1c0.4,0.1,0.9-0.3,1.3-0.4c-0.3-1.5-0.6-2.8-1.2-5.5c10.2,1.6,19.5,2.9,28.8,4.8
											C-20.5-99-15-99.8-8.6-102.7z M-141.8-64c28.9,2.7,56.2,5.3,83.6,7.9c-1.2-4.8-1.6-10-6.4-12.9c-0.1-0.1,0-0.6-0.1-2
											c6.2,3.2,12,5.9,17.5,9.1c3.7,2.2,5.6,0.5,7.1-2.5c1.3-2.7,2.1-5.5,3.4-9.2c-4.4-1.6-9-4.3-13.7-4.7
											c-14.9-1.2-29.9-1.4-44.8-2.3c-2.3-0.1-4.7-1.2-6.7-2.4c-4.5-2.7-8.7-5.8-13.3-9c-0.4,1-1.3,2-1.1,2.7
											c0.8,4.2-1.8,6.3-4.6,8.5C-127.5-75.6-134-70.2-141.8-64z M-24.3-71.6c2.5,10.8,5.6,21.2,15,28.4
											c5.2,3.9,11.1,7,14.4,13.1c1.5,2.7,3.7,5.1,5.7,7.6c6.8,8.7,13.5,17.4,20.3,26.1c0.4-0.3,0.9-0.5,1.3-0.8
											c-0.5-1.5-0.8-3.1-1.5-4.5c-3.3-7.1-6.8-14.1-10.1-21.1C13.6-37.9,5.1-51.9-7-63.8C-11.9-68.7-16.5-72.7-24.3-71.6z"/>
									</g>
								</g>
							</g>
						</g>
					</g>
				</g>
			</g>
		</g>
	</g>
	<g class="st1">
		<g>
			<g>
				<g>
					<g>
						<g>
							<defs>
								<path id="SVGID_00000173120953407927633810000011988364837346471600_" d="M241.6,35c-12.3-8.9-45-18.7-93.7-18.7v-226h420.7
									l5.5,489.7l-258.9,58.9l-6.7-280.4L241.6,35z"/>
							</defs>
							<clipPath id="SVGID_00000044148878279216455180000004679843491852833956_">
								<use xlink:href="#SVGID_00000173120953407927633810000011988364837346471600_"  style="overflow:visible;"/>
							</clipPath>
							<g style="clip-path:url(#SVGID_00000044148878279216455180000004679843491852833956_);">
								<g>
									<g>
										<path d="M537.2,234.6c0.1-0.9,0.2-1.9,0.4-2.8c11.9-51.4,19.2-103.2,14.2-156c-2.3-24-6.5-48-27.4-64.5
											c-1.9-1.5-3.4-3.6-5-5.5c-9.7-11.6-19.1-23.6-32.6-31.3c-5.4-3.1-11.7-5.6-11.4-12.3c-3.4,0.3-6.2,0.6-9.1,0.7
											c-4.5,0.1-9,0-13.5,0c-0.1,0.5-0.2,1-0.3,1.5c5.2,4,4.1,9.9,4.7,15.2c4,36.1,7.8,72.2,11.5,108.3c0.2,2-0.5,4.7-1.7,6.2
											c-9,11.1-18.2,22.1-27.7,32.8c-2.9,3.2-3.2,5.6-1.6,9.6c4.8,11.8,9.9,23.6,11,36.6c1.5,18,0.1,36.4,6.7,53.8
											c0.4,1.1-0.2,3-1,3.9c-11.7,13.9-23.3,27.8-37.8,39.1c-18.7,14.5-38.5,26.9-59.8,37.1c-9.9,4.8-20.2,9-30.2,13.4
											c-0.2-0.4-0.4-0.8-0.5-1.2c1.4-0.8,2.9-1.6,4.3-2.3c42.6-22.6,81-50.7,112.8-87.3c2.7-3.1,3.6-5.8,2.2-9.8
											c-4.4-12.3-6.8-25-6.3-38.2c0.5-15.1-6.6-28.2-10.4-43.3c-14.6,15.1-29,28.8-48.2,35.7c16.1-10.7,31.6-22.2,44.1-37.3
											c2-2.4,2.4-4.3,1.5-7.1c-3.9-12.9-7.1-26-11.4-38.8c-3.4-10.1-7.9-19.7-11.8-29.6c-0.9-2.1-1.2-4.5-1.8-6.7
											c-6.4-7.3-14-14-21.4-21c-4.6-4.5-9.7-8.8-13.1-14.2c-5.6-9-14-11.6-23.4-11.5c-9,0.1-16.7-2.5-23.8-7.5
											c-6.8-4.8-14.1-5.9-22.3-5.3c-15.7,1.1-28.7,8.4-41.9,16c-8.3,4.8-13.1,10.6-13.6,20.2c-0.1,2.1-2,5.4-3.7,5.8
											c-5.8,1.4-11.3,4.8-17.7,2.8c-2.3-0.7-5.1-1-7.4-0.5c-7.9,1.9-13.4-2.6-19.5-6.4c5.3-4.9,6-11.3,7.1-17.8
											c2.1-12.3,3.3-25,7.3-36.7c6.5-19,15-37.4,22.6-56c0.3-0.7,0.4-1.4,0.7-2.5c-6.4,1.2-11.8,10-18.7,0.7
											c3.5,5.6,0.4,8.9-2.3,12.5c-4.8,6.6-9.5,13.3-13.8,20.2c-2.3,3.8-4.6,7.9-5.4,12.2c-1.6,9.2-2.4,18.5-3.3,27.8
											C187-1.6,188,3.8,186.8,8.6c-1.4,5.6-4.5,10.7-6.7,16.1c-1.4,3.4-3.6,4.7-7.3,4.2c-4.9-0.6-10-0.7-15-0.9
											c-7.2-0.3-8.4-1.5-7.9-8.9c0.1-1.5,0.3-3,0.7-4.4c1.8-7.8,3.6-15.6,5.7-23.3c3.4-12.5,6.3-25.2,11-37.2
											c3.6-9.2,9.8-17.3,14.5-26c2.8-5.2,6.5-10.5,7.2-16.1c0.4-3-4.8-6.6-7.5-10c-0.2-0.2-0.2-0.6,0,0c1.5-3.6,3-6.3,3.9-9.2
											c2.7-9,4.6-9.8,12.9-5.5c0.4,0.2,0.6,0.7,0.8,0.9c-1.2,7.9,7.3,8,9.6,13.6c3.1-2.2,5.7-3.9,8.2-5.8
											c7.8-6,15.4-12.2,23.2-18.1c3.5-2.6,7.3-4.7,11.2-6.6c4.2-2.1,8.8-3.3,13-5.5c5.3-2.8,10.1-6.3,15.4-9.1
											c10.9-5.9,22.1-11.4,33-17.6c8.2-4.6,16.2-6.8,24.9-1.9c5.6,3.1,11.1,6.4,16.6,9.7c7.1,4.3,13.9,9.2,21.3,13
											c13.4,7,27.3,13.1,40.7,20.1c8.6,4.5,16.6,10.1,20.7,19.5c5,11.6,10.3,23.1,15.1,34.8c1.1,2.6,2.3,3.6,5,3.6
											c5,0.1,10,0.4,15,0.9c6.3,0.6,12.4,4.2,13.5,9.5c1.4,6.9,5.5,11.3,9.5,15.8c17,19,34.2,37.7,51.4,56.6
											c0.9,1,1.8,2,2.3,3.2c9.6,25,13.9,50.9,13.2,77.8c-0.8,31.5-7,62.2-12.7,93c-2.5,13.5-6.9,26.6-10.4,39.9
											C538.2,234.8,537.7,234.7,537.2,234.6z M297.2-13.2c11.7-3.7,23.7-3.4,35.5-2c5.4,0.6,10.6,3.8,15.5,6.5
											C358.8-2.9,368.8,4,379.6,9.2c11.6,5.5,19.9,14.2,27.9,23.7c0.6,0.7,1.8,0.9,2.8,1.3c1.7,0.6,3.8,0.6,4.9,1.7
											c5.2,5.3,5.6,6.9,0.3,11.9c-4.6,4.4-4.5,7.8-1.6,13.1c7.3,13.4,10.7,28.1,13.3,43.1c1.2,7.2,3.7,14.1,5.9,22.6
											c5.6-7,10.4-12.8,15-18.8c3.7-4.7,7.4-9.4,10.7-14.4c1.1-1.7,1.4-4.4,1.1-6.4c-3-20.6-6.2-41.2-9.4-61.7
											c-2.2-14.5-4.3-29-6.7-43.4c-0.4-2.2-1.7-4.7-3.3-6.3c-5.3-5.3-10.8-10.4-16.7-15.1c-2-1.6-5.5-2.5-8-2
											c-4.3,0.9-8.8,2.5-12.5,4.8c-12,7.8-24.9,9.2-38.7,6.9c-5-0.8-10.2-0.8-15.3-0.4c-10,0.9-19.9,1.3-29.8-1.3
											c-3.5-0.9-7.2-1.3-10.8-1.9c-3.6-0.6-6.5,0.2-8.5,3.5c-4.3,7.1-10.6,11.7-18.4,14.5c-2.9,1-5.4,3.3-8.1,5
											c0.3,0.6,0.6,1.2,0.9,1.9C282.3-10,290-11,297.2-13.2z M280.2-100.2c9.2-1.9,18.6-3.1,28.8-4.8c-0.6,2.7-0.8,4-1.2,5.5
											c0.4,0.1,0.9,0.5,1.3,0.4c10.8-2,21.5-4.4,32.3-6.1c6.7-1.1,11.4-4.2,14.6-10c0.6-1.1,1.4-2.2,2.4-3.7
											c2.1,1.5,4,2.9,6.3,4.5c0.7-1.8,1.3-3.3,2.1-5.3c1.4,2.1,2.5,4.1,3.9,5.8c2,2.4,3.3,6.1,7.8,4.4c0.5-0.2,2,1,2.5,1.9
											c10.5,15.5,23.8,28.5,37.4,41.2c0.8,0.8,1.9,1.6,2.9,1.7c8.5,0.8,17.1,1.5,26,1.6c-10.5-13.8-17-30.4-34.1-38.6
											c-24.5-11.7-48.1-25-72.4-37c-8.9-4.4-17.9-6.4-28.3-0.7c-6.8,3.7-12,8.4-17.6,13.1c-7.5,6.2-15.5,11.9-23.4,17.7
											c-2.6,2-5.5,3.6-9.1,5.9C268.7-99.8,274.2-99,280.2-100.2z M374.6-80.7c-2.9-2.2-5.4-4.3-4.6-8.5c0.1-0.8-0.7-1.7-1.1-2.7
											c-4.6,3.1-8.8,6.2-13.3,9c-2,1.2-4.4,2.3-6.7,2.4c-14.9,0.8-29.9,1.1-44.8,2.3c-4.8,0.4-9.3,3.1-13.7,4.7
											c1.3,3.6,2.1,6.5,3.4,9.2c1.4,3,3.4,4.6,7.1,2.5c5.5-3.2,11.3-5.9,17.5-9.1c-0.1,1.5,0,1.9-0.1,2c-4.8,3-5.1,8.1-6.4,12.9
											c27.4-2.6,54.8-5.2,83.6-7.9C387.8-70.2,381.2-75.6,374.6-80.7z M260.8-63.9c-12,11.9-20.6,25.9-27.8,41
											c-3.3,7-6.8,14-10.1,21.1c-0.7,1.4-1,3-1.5,4.5c0.4,0.3,0.9,0.5,1.3,0.8c6.8-8.7,13.6-17.4,20.3-26.1
											c1.9-2.5,4.2-4.8,5.7-7.6c3.3-6.1,9.2-9.1,14.4-13.1c9.4-7.1,12.5-17.5,15-28.4C270.2-72.7,265.6-68.7,260.8-63.9z"/>
									</g>
								</g>
							</g>
						</g>
					</g>
				</g>
			</g>
		</g>
	</g>
	<g class="st1">
		<path d="M183.7,43.1c8.1-2.7,16.2-5.3,25.3-8.3c-0.8,2.2-1.2,3.3-1.8,4.9c4.2-0.5,8-1.2,11.9-1.5c1.7-0.1,4,0,5.1,1
			c4.7,4.4,9.3,9.1,13.5,14c1.1,1.3,1.4,4.1,1,6c-1.7,7.2-3.4,14.5-5.9,21.5c-1.4,3.7-4.4,6.9-7,10.9c-0.4-0.8-0.3-0.4-0.1-0.3
			c8.6,2.6,7.3,9.4,6.1,15.6c-1.6,8.3-2.5,17-6,24.6c-3.6,7.8-3.7,16-6.4,23.8c-0.1,0.4-0.5,0.7-0.8,1.1c-0.5,0-1.1,0-1.6-0.1
			c-0.4-13.2-0.7-26.4-1.2-39.7c-0.2-4.7,0-9.5-1.3-13.8c-0.6-2-4.4-3.1-6.7-4.6c-1,1.6-2.9,3.2-3,4.9c-0.5,7.3-0.8,14.6-0.4,21.8
			c0.1,2.3,2.9,4.5,5.4,8c-11.1-0.5-21.4-1-31.7-1.5c-0.3-0.3-0.6-0.7-1-1c8.7-2.7,6.9-11.4,10.8-16.8c0.3-0.5,0.2-1.3,0.3-1.9
			c0.5-9.9,0.9-19.9,1.4-29.8c0.5-9.7,0.8-19.3,1.5-29c0.3-4.2-0.5-6.8-5.1-7.2c-0.7-0.1-1.4-0.6-2.2-1
			C183.8,44.2,183.8,43.7,183.7,43.1z M211.3,82.3c12.7-10.3,14.4-20.8,4-26.5c-0.6,3.2-1.1,6.2-1.7,9.3c-1.5-2.2-1.7-4.5-2.6-6.6
			c-0.6-1.5-2-2.6-3-3.9c-0.8,1.5-2.1,3-2.2,4.5c-0.5,5.4-0.7,10.9-0.8,16.4c-0.1,3.3,0,6.6,0,9.9c0.4,0,0.8,0.1,1.2,0.1
			c1-2.1,2.1-4.2,3.5-7C210.4,80.2,210.8,81.1,211.3,82.3z"/>
		<path d="M185.5,32.2c-1.2,1.4-1.7,2.7-2.6,3.1c-6,3.1-6.6,8.5-6.9,14.3c-0.9,17.3-1.6,34.5-3.1,51.7c-0.5,5.9-3,11.7-4.6,17.9
			c-0.8-0.5-1.7-1.2-2.8-2c-1.1,3.9-2.2,7.5-3.2,11c-0.6,0-1.2,0-1.9,0c-1-9-2-18.1-3-27.4c-0.7,0.6-1.8,1.4-3.1,2.5
			c-0.4-1-0.8-2.1-1.8-4.4c-2.3,4.1-4.1,7.1-6.3,11c-0.2-3.5-0.4-6.3-0.6-10.2c-3.4,8.3-1.9,17.2-8.6,24.5c-0.2-4-0.4-6.8-0.6-11.3
			c-4.4,5.8-8.1,10.6-12.3,16.2c-0.2-3.1-0.4-5.7-0.4-8.2c0.1-3.4,1-7.2-5.3-7c11.9-5.7,11.7-16.6,14.5-26.2
			c1.9-6.6,4.6-13.1,6.7-19.7c0.9-2.8,1.3-5.7,2.2-8.5c1.6-5,3.1-10.2,5.3-14.9c2-4.4,1.7-6.5-2.8-8.6c-1.6-0.8-3.2-1.7-4.8-2.5
			c0.1-0.5,0.2-1,0.3-1.5C154.8,32.2,169.7,32.2,185.5,32.2z M163.2,47.5c-0.6-0.1-1.2-0.2-1.9-0.3c-3.7,12.7-7.3,25.4-11,38.1
			c8.3,1.5,10.1,0.1,10.4-8.1c0.1-3.1,0.6-6.3,0.9-9.4C162.2,61.1,162.7,54.3,163.2,47.5z"/>
		<path d="M115.6,28.2c-1.7,10.4-3.3,20-4.9,29.6c-0.4,0.2-0.7,0.3-1.1,0.5c-1.4-2.9-2.9-5.9-4.3-8.7c-0.6,0.8-1.3,1.8-2.3,3.1
			c-1.5-3.5-2.9-6.6-4.5-10.2c-0.8,1.6-1.4,2.7-2.1,4c-1.3-1.1-2.6-2.1-4.9-4c-1.5,10.4-0.2,19.6,0.8,29.1c7.7-0.1,5.5-8.7,11-11.6
			c0.8,11.4,1.5,22.1,2.2,32.8c-0.5,0.1-1,0.3-1.5,0.4c-1.2-2-2.2-4.2-3.7-6c-1.4-1.6-3.3-2.8-5.1-4.3c-4.1,7.5-2,20.7,3.7,27.2
			c5.1-1.2,7.8-4.3,8.4-9.6c0.3-3,1.5-6,2.6-10.1c4.6,7,5.9,25.2,3.7,37.1c-4.5-2.1-9.3-4.3-13.9-6.6c-5.6-2.9-5.6-2.9-8.1,2.9
			c-0.3,0.6-0.7,1.1-1.2,1.9c-4.6-8.4-11.7-3.9-19-3.7c0.9-1.9,1.2-3.7,2.2-4.5c3.8-2.9,3.6-6.8,3.5-10.8
			c-0.7-18.1-1.5-36.2-2.1-54.2c-0.2-6.7-2.6-12.2-9.3-15.6C81.8,30.8,98.4,30.5,115.6,28.2z"/>
		<path d="M34,142.5c-0.8-3.6-1.5-7.2-2.5-10.8c-6.3-22.2-9.7-45-11.5-68c-0.5-6.9-0.7-13.7-8.6-16.8c-0.3-0.1-0.3-0.9-0.8-2.2
			c16.4-3,32.5-6,49.1-9c-0.9,8.8-1.7,17-2.6,26.1c-1.4-1.6-3-2.8-3.7-4.3c-2.2-5.1-6.2-6.3-11.3-3.6c-4.6,2.4-6.9,5.8-6.1,11.1
			c0.7,4.8,1.1,9.7,1.6,14.6c7.5-1,5.6-8.8,10.9-12.2c0.9,11.3,1.7,22,2.5,32.6c-0.5,0.1-1,0.2-1.5,0.3C48,98,46.8,95.5,45,93.4
			c-1.1-1.2-3-1.6-4.5-2.4c-0.6,1.4-1.7,2.8-1.7,4.2c0.1,5.4,0.6,10.8,1,16.3C40.6,122.2,38.6,132.5,34,142.5z"/>
	</g>
</g>
<g id="black-spider-legs" class="st0">
	<g class="st1">
		<g>
			<g>
				<g>
					<g>
						<g>
							<g>
								<g>
									<defs>
										<path id="SVGID_00000072970331322571547510000004287804031917044148_" d="M-480.5-1390c-10.8,10.1-25,14.8-38.7,19.3
											c-15.3,5-30.6,10-46,15c-10.4,3.4-20.8,6.8-31.6,8.2c-16.3,2.2-32.9-0.3-49.4,0.1c-31.8,0.8-63.3,12.8-88.5,33.6
											c-18.7,15.5-34.8,40.6-27.5,64.5c7.5,24.6,36.9,34.6,60.5,28.9c23.7-5.7,43.4-22.5,63.5-37c20.2-14.4,43.7-27.2,67.7-23.2
											c6.1,12.7-7.7,27.1-5.8,41.2c1.5,10.9,12,17.9,22.2,20s20.7,0.8,30.8,3c27.4,6,44.3,34.8,57.9,60.9
											c8.5,16.4,17.1,32.8,25.6,49.2c11.2,21.6,22.8,44.6,21.7,69.2c-0.7,16.8-7.2,34.9,0.4,49.6c5.8,11.2,18.3,16.7,30.3,17.9
											c28.4,3,57.1-14.2,71.9-40.3c14.8-26.1,16.3-59.5,6.4-88.1c-1.8-5.3-4.1-10.9-3.4-16.5c0.5-4,2.5-7.7,4.5-11.2
											c19.9-35.5,39.7-71.1,59.6-106.6c18.7,34.7,20.9,76.3,30.1,115.1c9.2,38.8,30.2,79.7,66.5,89.4c16.4,4.4,38.6-3,39.7-21
											c1-16.8-16.5-27.1-25.3-41.1c-6.3-10-8.2-22.4-10-34.4c-6.2-42.8-12.5-85.7-18.7-128.5c-1-7-2-14.3-0.2-21.1
											c2.1-7.7,5.8-5.4,12.6-8.9c18.3-9.5,40.9-13.6,60.1-12c7,0.6,33.1,7.3,39.9,6.5c11.6-31.1-15.7-98.7-16.6-129.3
											c-0.7-23.1-3.1-10-11-31.5s-14.2-39.2-35.5-43.1c-22.9-4.2-44.9,9.7-67,17.6c-26.4,9.4-54.7,10.4-82.6,11.4
											c-41.2,1.4-82.4,2.7-123.7,4.1c-20.9,0.7-53.6-0.3-70.8,15C-474.7-1430.6-463.5-1405.8-480.5-1390z"/>
									</defs>
									<clipPath id="SVGID_00000108299018330590890470000008504239797166745250_">
										<use xlink:href="#SVGID_00000072970331322571547510000004287804031917044148_"  style="overflow:visible;"/>
									</clipPath>
									<path style="clip-path:url(#SVGID_00000108299018330590890470000008504239797166745250_);" d="M-170.9-1301
										c0,0,3.8-7.1,9-16.9c15.7,15.6,20.2,30.8,26.3,37.7c1.2,1.4,19.4,1.4,21,2.1c0.1-0.3,0.2-0.5,0.4-0.8
										c2.9-5,7-8.7,11.7-11.8c0.1-0.1,0.1-0.1,0.2-0.2c2.7-2.3,1.6-0.1,4.8-1.2c-1.6-11.1-7-20.5-8.8-27.6
										c-4-15.7-11.6-42.2-20.2-63.4c5.7-14.3,8.2-28.3,8.2-28.3s17.9,37.3,20.3,53.9c1.6,11.2,9.4,22.9,6.6,61.8
										c5.1-0.7,32.7-3.2,37.8-3.3c0-30.7-13.6-66-14.5-70.2c-1.2-5.7-28.7-57.7-28.7-57.7s3.6-35.1-12-35.2
										c-15.5-0.1-25.1,17.2-25.1,17.2s-5.6,11.3-12.7,26.2c-10.2-15.2-19.3-30.1-29.1-28.1c-12,2.4-23.9,8.5-23.9,8.5
										s-21.5,1.2-35.9,4c-14.3,2.8-9.6,7.6-32.3,7c-22.7-0.7-104,4-111.2,0.5s-7.2-3.5-7.2-3.5l-7.2-3.9l-4.8,7l-6-5.9
										c0,0,1.2,11-7.2,15.8s-8.4,16.6-8.4,16.6s-11.1,17.1-24.8,38c-3.1,0.6-5.3,1.2-6.3,1.6c-7.6,3.6-22.7,10.9-22.7,10.9
										s-10.8,1.3-32.3,6.8c-21.5,5.6-210.4,77-210.4,77s235.1-71.3,258.3-76l0,0c-14,21.2-28.1,41.9-34.3,49.9
										c-14.8,18.9-41.1,56.6-41.1,56.6s51.7-61.6,90.8-108.8c30.6-3.5,85.5-6.4,129.1-11.6c20.7-2.5,38.4-3.3,53.3-3
										c-15.9,14.7-53,50.3-76,82.1c-29.9,41.2-38.3,43.6-38.3,68.3c0,24.7-9.6,181.3-4.8,198.9c0,0,8.4-169.5,14.3-181.3
										c6-11.8,8.4-25.9,8.4-25.9s6,2.4,9.6-5.9c3.6-8.2,33.5-53.4,43-60.3c9.6-6.8,26.3-16.2,26.3-16.2s15.5-26.8,25.1-29.9
										c6.8-2.2,23.1-17.1,32.1-25.7c29.6,6.3,38.5,17.3,38.5,17.3c-4.8,12.8-7.5,20.2-10.7,25.6c-4.8,7.9-7.2,14.9-7.2,14.9
										s12,26,9.6,66s-4.8,65.9-1.2,75.3s40.6,91.8,40.6,91.8s-26.3-88.3-25.1-100C-174.5-1176.2-171.9-1293.4-170.9-1301z
										 M-144.3-1350c5,11.1,9.9,23,15.3,34.9l-19.9-26.6C-147.4-1344.5-145.9-1347.3-144.3-1350z M-223.5-1400.9
										c0,0-6,2.3-16.7,4.2c-10.8,1.9-31.1,13.3-31.1,13.3s-26.3,2.5-62.2,6.7c-23.9,2.8-64.7,7.1-91.4,10.8
										c10.9-13.2,19.4-23.6,23.3-28.6l7.9-6.4c0,0,77.2,1.3,115.3-2.4c25.9-2.5,44.2-4.9,58.1-5.9
										C-222.3-1405.1-223.5-1400.9-223.5-1400.9z M-194.8-1396.7c-3.5-3.7-6.4-8.6-9.2-12.8c10,0.6,17.3,3.1,24.7,8.6
										c6.2,4.7,11.5,10.5,16.4,17.1c-2.4,5.3-4.7,10.4-6.7,15.1C-176-1375.9-189.5-1391.1-194.8-1396.7z"/>
								</g>
							</g>
						</g>
					</g>
				</g>
			</g>
		</g>
	</g>
	<g class="st1">
		<g>
			<g>
				<g>
					<g>
						<g>
							<g>
								<g>
									<defs>
										<path id="SVGID_00000124162248238196932310000012339533212709170064_" d="M395.4-1390c10.8,10.1,25,14.8,38.7,19.3
											c15.3,5,30.6,10,46,15c10.4,3.4,20.8,6.8,31.6,8.2c16.3,2.2,32.9-0.3,49.4,0.1c31.8,0.8,63.3,12.8,88.5,33.6
											c18.7,15.5,34.8,40.6,27.5,64.5c-7.5,24.6-36.9,34.6-60.5,28.9c-23.7-5.7-43.4-22.5-63.5-37
											c-20.2-14.4-43.7-27.2-67.7-23.2c-6.1,12.7,7.7,27.1,5.8,41.2c-1.5,10.9-12,17.9-22.2,20s-20.7,0.8-30.8,3
											c-27.4,6-44.3,34.8-57.9,60.9c-8.5,16.4-17.1,32.8-25.6,49.2c-11.2,21.6-22.8,44.6-21.7,69.2c0.7,16.8,7.2,34.9-0.4,49.6
											c-5.8,11.2-18.3,16.7-30.3,17.9c-28.4,3-57.1-14.2-71.9-40.3c-14.8-26.1-16.3-59.5-6.4-88.1c1.8-5.3,4.1-10.9,3.4-16.5
											c-0.5-4-2.5-7.7-4.5-11.2c-19.9-35.5-39.7-71.1-59.6-106.6c-18.7,34.7-20.9,76.3-30.1,115.1
											c-9.2,38.8-30.2,79.7-66.5,89.4c-16.4,4.4-38.6-3-39.7-21c-1-16.8,16.5-27.1,25.3-41.1c6.3-10,8.2-22.4,10-34.4
											c6.2-42.8,12.5-85.7,18.7-128.5c1-7,2-14.3,0.2-21.1c-2.1-7.7-4.8-6.4-11.6-9.9c-18.3-9.5-27.2-11.9-51.7-13.9
											c-7-0.6-42.5,10.2-49.4,9.5c-11.6-31.1,15.7-98.7,16.6-129.3c0.7-23.1,3.1-10,11-31.5s14.2-39.2,35.5-43.1
											c22.9-4.2,44.9,9.7,67,17.6c26.4,9.4,54.7,10.4,82.6,11.4c41.2,1.4,82.4,2.7,123.7,4.1c20.9,0.7,53.6-0.3,70.8,15
											C389.6-1430.6,378.5-1405.8,395.4-1390z"/>
									</defs>
									<clipPath id="SVGID_00000155848505530022289410000006081987030518405015_">
										<use xlink:href="#SVGID_00000124162248238196932310000012339533212709170064_"  style="overflow:visible;"/>
									</clipPath>
									<path style="clip-path:url(#SVGID_00000155848505530022289410000006081987030518405015_);" d="M90.7-1164.4
										c1.2,11.8-25.1,100-25.1,100s37.1-82.4,40.6-91.8c3.6-9.4,1.2-35.3-1.2-75.3c-2.4-40,9.6-66,9.6-66s-2.4-7-7.2-14.9
										c-3.3-5.4-6-12.9-10.7-25.6c0,0,8.9-11,38.5-17.3c9,8.6,25.3,23.5,32.1,25.7c9.6,3.1,25.1,29.9,25.1,29.9
										s16.7,9.3,26.3,16.2c9.6,6.8,39.4,52,43,60.3c3.6,8.2,9.6,5.9,9.6,5.9s2.4,14.1,8.4,25.9s14.3,181.3,14.3,181.3
										c4.8-17.7-4.8-174.2-4.8-198.9s-8.4-27.1-38.3-68.3c-23-31.7-60.1-67.3-76-82.1c15-0.3,32.6,0.5,53.3,3
										c43.7,5.2,98.5,8,129.1,11.6c39.1,47.1,90.8,108.8,90.8,108.8s-26.3-37.7-41.1-56.6c-6.3-8-20.3-28.7-34.3-49.9l0,0
										c23.1,4.8,258.3,76,258.3,76s-188.9-71.4-210.4-77s-32.3-6.8-32.3-6.8s-15.1-7.3-22.7-10.9c-1-0.5-3.2-1-6.3-1.6
										c-13.7-20.9-24.8-38-24.8-38s0-11.8-8.4-16.6c-8.4-4.8-7.2-15.8-7.2-15.8l-6,5.9l-4.8-7l-7.2,3.9c0,0,0,0-7.2,3.5
										s-88.5-1.2-111.2-0.5s-17.9-4.2-32.3-7c-14.3-2.8-35.9-4-35.9-4s-12-6.2-23.9-8.5c-9.9-1.9-18.9,12.9-29.1,28.1
										c-7.1-14.9-12.7-26.2-12.7-26.2s-9.6-17.3-25.1-17.2c-15.5,0.1-12,35.2-12,35.2s-27.5,52-28.7,57.7
										c-0.9,4.2-14.5,47.1-11.9,69.9c5.2,0.1,32.1,1.2,37.2,1.9c-2.9-38.9,3-48.9,4.6-60.1c2.4-16.6,20.3-53.9,20.3-53.9
										s2.6,13.9,8.2,28.3c-8.6,21.2-16.2,47.7-20.2,63.4c-1.8,7.1-5.2,16.5-6.8,27.6c3.1,1.1,42.2,5.5,43.2,3.9
										c9.2-15.5,4-14.7,19.1-29.8c5.3,9.8,9,16.9,9,16.9C86.8-1293.4,89.5-1176.2,90.7-1164.4z M63.9-1341.7L44-1315.1
										c5.4-12,10.2-23.8,15.3-34.9C60.8-1347.3,62.4-1344.5,63.9-1341.7z M135.3-1409.3c13.9,1,32.2,3.4,58.1,5.9
										c38.1,3.7,115.3,2.4,115.3,2.4l7.9,6.4c3.9,5,12.4,15.4,23.3,28.6c-26.7-3.6-67.5-7.9-91.4-10.8
										c-35.9-4.2-62.2-6.7-62.2-6.7s-20.3-11.4-31.1-13.3s-16.7-4.2-16.7-4.2S137.3-1405.1,135.3-1409.3z M84.6-1368.7
										c-2-4.7-4.3-9.8-6.7-15.1c4.8-6.7,10.2-12.5,16.4-17.1c7.4-5.5,14.7-8,24.7-8.6c-2.8,4.2-5.7,9.2-9.2,12.8
										C104.4-1391.1,91-1375.9,84.6-1368.7z"/>
								</g>
							</g>
						</g>
					</g>
				</g>
			</g>
		</g>
	</g>
</g>
<g id="black-fear" class="st0">
	<path class="st1" d="M-12.7-1265c1.1-2.5,2-5,2.7-7.5l0.6-0.1c0.3,1.9,0.4,3.9,0.4,5.9s-0.1,4-0.3,5.9c-0.2,2.1-0.5,4.3-0.8,6.4
		c-0.3,2.2-0.6,4.4-0.9,6.6c-0.1,1.1-0.2,2.3-0.2,3.5s-0.1,2.3-0.2,3.5c-0.1,1.4-0.8,2.3-1.9,2.7c-1.1,0.5-2.4,0.7-3.9,0.6
		c-1.5,0-2.7,0-3.8,0c1.1-3.3,2.3-6.6,3.7-9.8c1.4-3.2,2.3-6.6,2.6-10.1C-14.5-1259.9-13.8-1262.5-12.7-1265z M-43.8-1205.5
		c-0.1,2.1,0.2,4.2,0.8,6.3c0.6-0.8,1.1-1.6,1.5-2.6c0.3-1,0.8-1.8,1.2-2.6c1.2-1.8,2.5-3.5,4-5s2.9-3.1,4.3-4.7l0.5,0.2
		c-0.4,0.9-0.7,2.1-0.8,3.6c-0.1,1.1-0.1,2.1-0.1,3.1c0.1,1,0.2,2,0.3,3.1c1.2-0.7,2.2-2,3-3.9s1.4-4,1.9-6.3s0.9-4.6,1.3-6.7
		c0.4-2.2,0.8-3.9,1.4-5.2l0.5,0.2c-0.1,1.4-0.1,2.9-0.1,4.5c0,1.5,0,3.1,0.1,4.6l0.4,0.8c1-0.9,1.5-2,1.4-3.3
		c0-1.3,0.3-2.5,1.1-3.5l0.6,0.1c0.3,0,0.7-0.4,1.3-1.2c0.5-0.9,0.9-1.4,1.1-1.7l0.5,0.2l0.4,4.1l0.5,0.2c0.2-0.4,0.6-1,1.3-1.9
		s1.2-1.3,1.7-1.3l0.6,0.1l-1.1,10.6h0.4l1.4-1.5c0,1.2-0.1,2.9,0,5c0,2.1,0.2,4.2,0.4,6.2s0.7,3.5,1.4,4.5l0.8-0.7
		c0.6-1.8,1.1-3.6,1.6-5.4s1-3.7,1.5-5.5l1.8,3.9l0.6-0.1c0.4-1.6,0.7-3.3,1-4.9c0.2-1.6,0.5-3.3,0.6-4.9c0.1-0.8,0.5-1.5,1.1-2.1
		c0.7-0.5,1-1.2,1.1-2c0.2-2,0.4-4.1,0.6-6.1s0.4-4.1,0.6-6.1c0.1-1.1,0.1-2.1,0-3.1s-0.2-2-0.1-3c0-0.4,0.1-0.8,0.3-1.2
		c0.2-0.4,0.3-0.8,0.3-1.2c0.6-5.4,0.9-10.8,0.9-16.2c0.1-5.5,0.4-10.9,1-16.4c0.2-1.7,0.8-2.9,1.8-3.8s2.1-1.7,3.4-2.5
		c1.2-0.8,2.1-1.9,2.8-3.3c-0.6-0.2-1.1-0.3-1.3-0.4c-1.6-0.2-3.2-0.2-4.8,0c-1.6,0.1-3.2,0.2-4.8,0.3c-3.3,0.1-6.7,0.1-10,0
		s-6.7-0.3-10-0.5c-1.1,0-2.5-0.1-4.1-0.2s-2.9,0-3.8,0.2c-0.5,0.2-0.9,0.5-1.3,1c0,0.8,0.4,1.3,1.3,1.7c0.9,0.4,1.8,0.7,2.9,1.1
		s2,1,2.8,1.8s1.1,2.1,0.9,3.8c-0.1,0.8-0.6,1.5-1.4,1.9c-1.3,2.3-2.4,5-3.4,8s-1.6,5.8-1.8,8.5c0,0.4,0,0.8,0,1.1c0,0.4,0,0.7,0,1
		c0,0.5-0.2,0.8-0.5,1.1c-1.3,1.4-2.4,3.4-3.5,5.9c-1,2.6-1.9,5.2-2.6,7.9c-0.7,2.7-1.1,5-1.3,6.9c0,0.4,0,0.7,0,1
		c0.1,0.3,0.1,0.6,0,0.9s-0.1,0.6-0.3,0.8c-0.2,0.2-0.3,0.5-0.4,0.8c-1.1,2-1.8,3.7-2.1,5.2s-0.7,2.9-1.1,4.1
		c-0.4,1.2-1.2,2.4-2.4,3.4c-1.2,1.1-3.1,2.1-5.8,3.2l-0.1,0.6l4.2,1.6C-43.8-1209.7-43.8-1207.6-43.8-1205.5z"/>
	<path class="st1" d="M-89.2-1206.2c1.4-0.2,2.9-0.4,4.3-0.8c1.4-0.3,2.9-0.6,4.4-0.7c1.8-0.1,3.4,0.3,4.7,1.2
		c1.3,0.9,2.2,2.2,2.8,3.9c0.2-0.5,0.5-1.2,0.9-2.2s0.8-2,1.2-2.9c0.5-0.9,1-1.4,1.6-1.4c0.9-0.1,2.1,0.4,3.6,1.4s2.8,1.6,3.8,2
		l0.7-0.4c1.1,0,2.2,0.4,3.2,1.2c1,0.8,2,1.8,2.9,2.9s1.7,1.9,2.5,2.6c0.1-1,0.1-2.5,0.2-4.5c0-2,0.1-3.9,0.2-5.8
		c0.1-1.9,0.4-3.2,0.9-4v-0.5c-0.1-0.9-0.2-1.8-0.4-2.7c-0.2-0.9-0.3-1.7-0.5-2.7c-0.2-1.2-0.3-2.7-0.4-4.4s-0.3-3.5-0.6-5.2
		s-0.8-3-1.6-3.9c-1.5,1.3-2.4,2.7-2.7,4.2s-0.5,3.1-0.6,4.7s-0.7,3-1.6,4.4c-0.7,1-1.7,1.7-2.8,2.2s-2.2,1-3.2,1.6
		c-0.2-0.7-0.7-1.5-1.6-2.6c-0.8-1-1.5-1.9-2.1-2.4c0-0.3,0-0.6,0.1-0.8c0.1-0.2,0.1-0.5,0.1-0.8c-0.1-0.8-0.2-1.5-0.5-2.2
		s-0.5-1.4-0.5-2.2c-0.1-0.7,0.1-1.4,0.4-2.2c0-0.9-0.1-1.8-0.2-2.7c-0.1-0.9-0.3-1.8-0.3-2.8c-0.1-0.8,0-1.7,0.1-2.6
		s0.4-1.8,0.8-2.6c1.7,0,3.1,0.6,4.1,1.6s1.9,2.3,2.6,3.7c0.7,1.4,1.4,2.7,2.1,3.8c0.9-1.5,1.3-3.3,1.2-5.2
		c-0.1-0.8-0.2-1.7-0.4-2.5s-0.4-1.6-0.4-2.5c-0.2-2.6-0.3-5.2-0.3-7.9c0-2.7-0.1-5.3-0.3-7.9c0-0.6-0.1-1.2-0.2-1.8
		c-0.1-0.6-0.3-1.2-0.7-1.7c-1.2,0.7-2,1.6-2.4,2.7c-0.4,1.1-0.8,2.2-1.2,3.3c-0.4,1.1-0.9,2.1-1.7,2.9c-0.8,0.8-2.1,1.3-3.8,1.4
		c-0.2-1.1-0.3-2.3-0.4-3.5s-0.2-2.4-0.3-3.6c-0.2-3-0.4-6.1-0.5-9.1s0.1-6,0.5-9l0.7-0.2c1-0.1,1.7,0.4,2.3,1.3
		c0.5,0.9,1,1.7,1.4,2.2c0.4-0.7,0.7-1.4,0.9-2.2c0.3-0.7,0.5-1.5,0.8-2.3l0.6,0.1c0.3,1.4,0.8,2.8,1.4,4c0.7,1.2,1.1,2.6,1.2,4
		c0,0.6,0.3,0.9,0.9,0.8c0.6,0,1.1-0.7,1.4-1.9c0.3-1.2,0.5-2,0.5-2.5h0.6c-0.1,0.3-0.1,0.6-0.1,0.9s0,0.6,0.1,0.9
		c0.1,1.6,0.6,3.1,1.3,4.5c0.8,1.4,1.6,2.8,2.5,4.1c0.2-0.7,0.3-1.4,0.4-2.1s0.2-1.4,0.3-2.1c0.7-3.8,1.3-7.6,1.9-11.4
		s1.3-7.6,2.1-11.4c-2.9,0.3-6.3,0.6-10.2,1s-8,0.9-12.2,1.4s-8.2,1.1-11.9,1.8c-3.7,0.7-6.8,1.6-9.3,2.6c0.1,1,0.5,1.7,1.4,2.1
		c0.8,0.4,1.8,1,2.8,1.6s1.8,1.6,2.3,3c0.5,1.1,0.8,2.3,1,3.6c0.2,1.3,0.3,2.5,0.4,3.7l1.6,21.3c0.1,1.1,0.1,2.1-0.1,3.3
		c-0.1,1.1-0.2,2.2-0.3,3.2c-0.3,3.2-0.4,6.3-0.2,9.5c0.2,3.2,0.4,6.3,0.6,9.5c0.2,2.9,0.2,4.9,0,6.1s-0.6,1.9-1.1,2.4
		c-0.5,0.4-1.1,1-1.8,1.7c-0.7,0.7-1.4,2-2.2,4L-89.2-1206.2z"/>
	<path class="st1" d="M-140.7-1271.8c1,0.5,2,1.1,3,1.6s1.7,1.2,1.9,2c0.8,3.3,1.4,6.7,1.7,10.2s0.6,7,0.9,10.3
		c0.3,3,0.6,6.1,0.8,9.2s0.5,6.2,0.8,9.3c0.1,1,0.4,1.9,0.8,2.8c0.4,0.9,0.7,1.8,0.9,2.8c0.3,2,0.6,3.9,0.8,5.9s0.5,4,0.9,5.9
		c0.1,0.6,0.3,1.2,0.6,1.7s0.5,1.1,0.6,1.7c0.5,2,0.9,4,1.3,6s0.9,3.9,1.4,5.9c0.4,1.5,0.7,3,0.9,4.4c0.2,1.5,0.6,2.9,1.2,4.3
		c0.9-1.7,1.5-3.6,1.9-5.6s0.9-4,1.3-5.8s1.1-3.4,1.9-4.6c0.4-0.6,0.6-1.2,0.5-1.8c-0.1-0.8-0.4-1.5-0.9-2.1s-0.8-1.2-0.9-1.9
		c-0.1-1,0.1-1.9,0.6-2.8s0.7-1.8,0.6-2.8c0-0.4-0.1-0.6-0.2-0.7c-0.4-0.3-0.6-0.7-0.7-1.2s-0.2-1-0.3-1.5c-0.1-0.8,0-1.5,0.1-2.1
		c0.2-0.7,0.3-1.3,0.3-2c0.2-2,0.1-3.9-0.3-5.6s-0.2-3.6,0.7-5.6c0.8-0.1,1.6-0.1,2.4,0s1.4,0.4,1.9,1.1c0.9,1.1,1.8,2.4,2.5,3.7
		c0.7,1.4,1.5,2.7,2.2,3.9l0.6-0.4c0.1-0.6,0.2-1.4,0.4-2.2c0.2-0.9,0.2-1.6,0.2-2.3c-0.1-0.8-0.2-1.5-0.4-2.1
		c-0.2-0.7-0.3-1.3-0.3-2c-0.1-1.1-0.2-2.1-0.2-3.1s-0.1-2-0.1-3.1c-0.2-4.3-0.6-8.5-1-12.7c0-0.2-0.2-0.5-0.6-1
		c-1,0.7-1.7,1.6-2.1,2.8c-0.4,1.1-0.9,2.3-1.3,3.4c-0.4,1.2-1,2.1-1.7,2.9c-0.8,0.8-2,1.3-3.7,1.5c-0.5-2.2-0.9-4.6-1.1-7
		c-0.3-2.3-0.4-4.7-0.4-7.1s0.3-4.7,0.8-7l2.6,0.7c0.2-0.8,0.7-1.5,1.5-2.1c0.7-0.6,1.5-1,2.3-1.1c0.3,0,0.6,0,1,0.1
		c0.3,0.1,0.7,0.1,1,0.1c0.5-0.1,0.9-0.2,1.3-0.5s0.9-0.4,1.3-0.5c0.4,0,0.8,0.1,1.1,0.3c0.4,0.3,0.6,0.5,0.8,0.7
		c0.3,0.1,0.6,0.3,0.9,0.4c0.3,0.2,0.5,0.3,0.5,0.6c0,0.3,0,0.6-0.1,0.9s-0.1,0.7-0.1,1c0.1,1.1,0.5,2,1,2.5s1.1,1,1.7,1.4
		s1,1.1,1.3,1.9c-0.4-4-0.3-8,0.3-12c0.5-4,1.2-7.9,2-11.7l-2.4,0.3c-2.9,0.3-5.7,0.8-8.5,1.4s-5.6,1.2-8.4,1.6
		c-3.7,0.6-7.5,1.2-11.4,1.8c-3.9,0.6-7.7,1.3-11.4,2.3c-0.2,0-0.4,0.1-0.8,0.3c-0.3,0.2-0.5,0.3-0.5,0.5
		C-142.2-1273-141.7-1272.3-140.7-1271.8z"/>
	<path class="st1" d="M28.5-1261.8c0.1-0.8,0.4-1.6,0.7-2.2c0.4-0.7,0.9-1,1.6-0.9c0.8,0,1.4,0.8,1.9,2.2c0.5,1.4,0.8,2.9,1.1,4.5
		c0.2,1.6,0.4,2.7,0.5,3.3l0.7,0.3c0.5-0.8,0.8-1.7,0.8-2.7s0.1-1.9,0.1-2.8c0-0.8,0.2-1.5,0.5-2.2s0.8-1.2,1.4-1.6
		c0.4,0.6,1,1.4,1.8,2.3s1.6,1.8,2.3,2.7c0.7,0.9,1,1.7,0.9,2.4c0,0.8-0.2,1.5-0.4,2.3c-0.2,0.7-0.4,1.5-0.6,2.3
		c-0.6,2.6-1.1,4.4-1.8,5.6c-0.6,1.1-1.5,2.1-2.6,3s-2.6,2.1-4.4,3.7c-0.5-0.3-0.8-0.9-0.8-1.6c0-0.8,0-1.4-0.1-1.9
		c-0.9,0.5-1.5,1.2-1.8,2.1s-0.6,1.9-0.9,2.8s-1,1.6-2,2.1c-0.1-3.9,0-7.8,0.1-11.6c0.2-3.9,0.4-7.7,0.6-11.6
		C28.3-1260.3,28.3-1261,28.5-1261.8z M2.9-1197.7c0.4,0.1,0.9,0.2,1.4,0.3s1,0.1,1.5,0.1c1.3,0.1,2.6,0.1,4,0s2.7-0.1,4.1,0
		c1.8,0.1,3.5,0.3,5.2,0.6c1.7,0.3,3.5,0.5,5.3,0.7c1,0.1,2.2,0,3.5-0.1c1.3-0.2,2.4-0.4,3.4-0.7c-0.2-0.6-0.7-1.2-1.5-1.9
		c-0.8-0.6-1.6-1.2-2.2-1.8s-1-1.1-1-1.4c0.1-2,0.3-4,0.5-6s0.4-4,0.5-6c0-0.5-0.1-0.9-0.4-1.5c-0.3-0.5-0.4-1.1-0.4-1.8l0.3-4.7
		c0.1-1.2,0.3-2.3,0.7-3.4c0.4-1,1.4-1.5,3.1-1.4c0.6,0,1.5,0.4,2.8,1.1s2.1,1.4,2.4,1.9c0.1,0.2,0.2,0.9,0.3,2.1
		c0.1,1.3,0.2,2.7,0.3,4.4c0.1,1.7,0.2,3.2,0.2,4.6s0,2.2,0,2.5c0,0.5-0.1,1.1-0.3,1.6s-0.2,1.1-0.3,1.7c0,0.3,0,0.6,0.1,1
		s0.1,0.8,0.2,1.2c0.1,1.3,0.1,2.6,0,4s-0.1,2.7-0.1,4c0,1.7,0,3.5,0.2,5.2c0.1,1.7,0.2,3.4,0.1,5.1c-0.1,1,0.2,1.9,0.7,2.6
		c0.5,0.8,0.8,1.6,0.8,2.6c0,1.1,0,2.1-0.1,3.2s-0.1,2.1-0.1,3.2l1.2-0.7c0.8-3.3,1.6-6.6,2.2-9.9c0.6-3.3,1.3-6.6,1.8-9.9l1.4,1.1
		c0.9-3,1.6-6,2.2-9.1s1.4-6.2,2.6-9.2c0.2-0.5,0.3-1.1,0.3-1.8c0-0.6,0.1-1.3,0.1-1.9c0-0.7,0.2-1.3,0.5-2c0.3-0.6,0.4-1.3,0.5-2
		c0-0.6,0-1.2-0.1-1.7s-0.1-1-0.1-1.5c0-0.7,0.2-1.3,0.6-2c0.4-0.6,0.6-1.3,0.6-2c0-0.5-0.5-1.2-1.6-2s-2.2-1.5-3.5-2.3
		c-1.2-0.7-2.1-1.2-2.6-1.6c0.3-0.3,1.1-0.8,2.2-1.6c1.1-0.8,2.2-1.5,3.2-2.3s1.5-1.3,1.4-1.5v-0.5v-0.5c0-0.8,0.3-1.6,0.7-2.2
		c0.4-0.7,0.7-1.4,0.9-2.2c0.1-0.5,0.2-1,0.3-1.5s0.2-1,0.4-1.5c0.3-0.7,0.6-1.5,0.9-2.2s0.5-1.5,0.6-2.4c0-0.4,0-0.7-0.1-1.1
		c-0.1-0.3-0.1-0.7-0.1-1.1c0-0.2,0.2-0.8,0.7-1.8s0.9-2.1,1.4-3.5s0.8-2.8,0.8-4.2l0.1-0.9c-0.5-0.9-1.1-1.6-1.9-2.2
		c-0.7-0.6-1.4-1.3-2-2.1c-0.4-0.6-0.8-1.2-1.1-1.7s-0.9-0.8-1.8-1c-0.6-0.2-1.1-0.3-1.5-0.4s-0.6-0.4-0.6-1c0-0.4-0.2-0.7-0.6-0.9
		c-1.1-0.4-1.6-1-1.5-2c-0.3-0.3-0.8-1-1.5-2s-1.3-1.5-1.7-1.5c-2.6-0.1-5.1,0-7.6,0.4s-5,0.8-7.6,1.2l3.3-3.9l-0.2-0.4
		c-1,0.2-2.6,0.6-4.8,1.1c-2.2,0.6-4.7,1.3-7.3,2.1c-2.6,0.8-4.9,1.6-6.9,2.4s-3.3,1.5-3.8,2.1c0.3,0.2,0.6,0.5,0.9,0.6
		c1.4,0.5,2.6,0.9,3.6,1s1.7,0.4,2.1,0.9c0.5,0.5,0.6,1.5,0.5,3.1c-0.1,1.1-0.1,2.1-0.1,3.3c0,1.1,0,2.2-0.1,3.1
		c-0.1,2-0.3,4.1-0.7,6.1c-0.3,2-0.5,4.1-0.7,6.1c-0.1,1.1,0.5,1.9,1.5,2.5c-0.7,0.6-1.2,1.4-1.4,2.4c-0.3,0.9-0.4,1.9-0.5,2.8
		c0,0.8-0.1,1.7,0,2.6c0,0.9,0,1.7,0,2.6c-0.1,1.7-0.3,3.3-0.7,4.9s-0.6,3.3-0.7,4.9c-0.1,2.3-0.1,4.5,0.1,6.8
		c0.2,2.3,0.2,4.5,0.1,6.8c0,0.2-0.3,0.6-0.7,1c-0.5,0.4-0.8,0.8-1,1.2c-0.8,2-1.2,3.6-1.4,4.7c-0.1,1.1-0.3,2-0.5,2.7
		s-0.8,1.4-1.7,2.2c-0.9,0.8-2.5,1.9-4.8,3.3L2.9-1197.7z"/>
</g>
<g id="red-logo-white-text" class="st0">
	<g class="st1">
		<g>
			<g>
				<g>
					<g>
						<g>
							<g>
								<g>
									<defs>
										<path id="SVGID_00000064331381616437725020000018115666346435775669_" d="M-480.5-1390c-10.8,10.1-25,14.8-38.7,19.3
											c-15.3,5-30.6,10-46,15c-10.4,3.4-20.8,6.8-31.6,8.2c-16.3,2.2-32.9-0.3-49.4,0.1c-31.8,0.8-63.3,12.8-88.5,33.6
											c-18.7,15.5-34.8,40.6-27.5,64.5c7.5,24.6,36.9,34.6,60.5,28.9c23.7-5.7,43.4-22.5,63.5-37c20.2-14.4,43.7-27.2,67.7-23.2
											c6.1,12.7-7.7,27.1-5.8,41.2c1.5,10.9,12,17.9,22.2,20s20.7,0.8,30.8,3c27.4,6,44.3,34.8,57.9,60.9
											c8.5,16.4,17.1,32.8,25.6,49.2c11.2,21.6,22.8,44.6,21.7,69.2c-0.7,16.8-7.2,34.9,0.4,49.6c5.8,11.2,18.3,16.7,30.3,17.9
											c28.4,3,57.1-14.2,71.9-40.3c14.8-26.1,16.3-59.5,6.4-88.1c-1.8-5.3-4.1-10.9-3.4-16.5c0.5-4,2.5-7.7,4.5-11.2
											c19.9-35.5,39.7-71.1,59.6-106.6c18.7,34.7,20.9,76.3,30.1,115.1c9.2,38.8,30.2,79.7,66.5,89.4c16.4,4.4,38.6-3,39.7-21
											c1-16.8-16.5-27.1-25.3-41.1c-6.3-10-8.2-22.4-10-34.4c-6.2-42.8-12.5-85.7-18.7-128.5c-1-7-2-14.3-0.2-21.1
											c2.1-7.7,5.8-5.4,12.6-8.9c18.3-9.5,40.9-13.6,60.1-12c7,0.6,33.1,7.3,39.9,6.5c11.6-31.1-15.7-98.7-16.6-129.3
											c-0.7-23.1-3.1-10-11-31.5s-14.2-39.2-35.5-43.1c-22.9-4.2-44.9,9.7-67,17.6c-26.4,9.4-54.7,10.4-82.6,11.4
											c-41.2,1.4-82.4,2.7-123.7,4.1c-20.9,0.7-53.6-0.3-70.8,15C-474.7-1430.6-463.5-1405.8-480.5-1390z"/>
									</defs>
									<clipPath id="SVGID_00000030476594380836162090000015844452473470010250_">
										<use xlink:href="#SVGID_00000064331381616437725020000018115666346435775669_"  style="overflow:visible;"/>
									</clipPath>
									<path style="clip-path:url(#SVGID_00000030476594380836162090000015844452473470010250_);fill:#FFFFFF;" d="M-170.9-1301
										c0,0,3.8-7.1,9-16.9c15.7,15.6,20.2,30.8,26.3,37.7c1.2,1.4,19.4,1.4,21,2.1c0.1-0.3,0.2-0.5,0.4-0.8
										c2.9-5,7-8.7,11.7-11.8c0.1-0.1,0.1-0.1,0.2-0.2c2.7-2.3,1.6-0.1,4.8-1.2c-1.6-11.1-7-20.5-8.8-27.6
										c-4-15.7-11.6-42.2-20.2-63.4c5.7-14.3,8.2-28.3,8.2-28.3s17.9,37.3,20.3,53.9c1.6,11.2,9.4,22.9,6.6,61.8
										c5.1-0.7,32.7-3.2,37.8-3.3c0-30.7-13.6-66-14.5-70.2c-1.2-5.7-28.7-57.7-28.7-57.7s3.6-35.1-12-35.2
										c-15.5-0.1-25.1,17.2-25.1,17.2s-5.6,11.3-12.7,26.2c-10.2-15.2-19.3-30.1-29.1-28.1c-12,2.4-23.9,8.5-23.9,8.5
										s-21.5,1.2-35.9,4c-14.3,2.8-9.6,7.6-32.3,7c-22.7-0.7-104,4-111.2,0.5s-7.2-3.5-7.2-3.5l-7.2-3.9l-4.8,7l-6-5.9
										c0,0,1.2,11-7.2,15.8s-8.4,16.6-8.4,16.6s-11.1,17.1-24.8,38c-3.1,0.6-5.3,1.2-6.3,1.6c-7.6,3.6-22.7,10.9-22.7,10.9
										s-10.8,1.3-32.3,6.8c-21.5,5.6-210.4,77-210.4,77s235.1-71.3,258.3-76l0,0c-14,21.2-28.1,41.9-34.3,49.9
										c-14.8,18.9-41.1,56.6-41.1,56.6s51.7-61.6,90.8-108.8c30.6-3.5,85.5-6.4,129.1-11.6c20.7-2.5,38.4-3.3,53.3-3
										c-15.9,14.7-53,50.3-76,82.1c-29.9,41.2-38.3,43.6-38.3,68.3c0,24.7-9.6,181.3-4.8,198.9c0,0,8.4-169.5,14.3-181.3
										c6-11.8,8.4-25.9,8.4-25.9s6,2.4,9.6-5.9c3.6-8.2,33.5-53.4,43-60.3c9.6-6.8,26.3-16.2,26.3-16.2s15.5-26.8,25.1-29.9
										c6.8-2.2,23.1-17.1,32.1-25.7c29.6,6.3,38.5,17.3,38.5,17.3c-4.8,12.8-7.5,20.2-10.7,25.6c-4.8,7.9-7.2,14.9-7.2,14.9
										s12,26,9.6,66s-4.8,65.9-1.2,75.3s40.6,91.8,40.6,91.8s-26.3-88.3-25.1-100C-174.5-1176.2-171.9-1293.4-170.9-1301z
										 M-144.3-1350c5,11.1,9.9,23,15.3,34.9l-19.9-26.6C-147.4-1344.5-145.9-1347.3-144.3-1350z M-223.5-1400.9
										c0,0-6,2.3-16.7,4.2c-10.8,1.9-31.1,13.3-31.1,13.3s-26.3,2.5-62.2,6.7c-23.9,2.8-64.7,7.1-91.4,10.8
										c10.9-13.2,19.4-23.6,23.3-28.6l7.9-6.4c0,0,77.2,1.3,115.3-2.4c25.9-2.5,44.2-4.9,58.1-5.9
										C-222.3-1405.1-223.5-1400.9-223.5-1400.9z M-194.8-1396.7c-3.5-3.7-6.4-8.6-9.2-12.8c10,0.6,17.3,3.1,24.7,8.6
										c6.2,4.7,11.5,10.5,16.4,17.1c-2.4,5.3-4.7,10.4-6.7,15.1C-176-1375.9-189.5-1391.1-194.8-1396.7z"/>
								</g>
							</g>
						</g>
					</g>
				</g>
			</g>
		</g>
	</g>
	<g class="st1">
		<g>
			<g>
				<g>
					<g>
						<g>
							<g>
								<g>
									<defs>
										<path id="SVGID_00000142882471031428931220000012375370217573052074_" d="M395.4-1390c10.8,10.1,25,14.8,38.7,19.3
											c15.3,5,30.6,10,46,15c10.4,3.4,20.8,6.8,31.6,8.2c16.3,2.2,32.9-0.3,49.4,0.1c31.8,0.8,63.3,12.8,88.5,33.6
											c18.7,15.5,34.8,40.6,27.5,64.5c-7.5,24.6-36.9,34.6-60.5,28.9c-23.7-5.7-43.4-22.5-63.5-37
											c-20.2-14.4-43.7-27.2-67.7-23.2c-6.1,12.7,7.7,27.1,5.8,41.2c-1.5,10.9-12,17.9-22.2,20s-20.7,0.8-30.8,3
											c-27.4,6-44.3,34.8-57.9,60.9c-8.5,16.4-17.1,32.8-25.6,49.2c-11.2,21.6-22.8,44.6-21.7,69.2c0.7,16.8,7.2,34.9-0.4,49.6
											c-5.8,11.2-18.3,16.7-30.3,17.9c-28.4,3-57.1-14.2-71.9-40.3c-14.8-26.1-16.3-59.5-6.4-88.1c1.8-5.3,4.1-10.9,3.4-16.5
											c-0.5-4-2.5-7.7-4.5-11.2c-19.9-35.5-39.7-71.1-59.6-106.6c-18.7,34.7-20.9,76.3-30.1,115.1
											c-9.2,38.8-30.2,79.7-66.5,89.4c-16.4,4.4-38.6-3-39.7-21c-1-16.8,16.5-27.1,25.3-41.1c6.3-10,8.2-22.4,10-34.4
											c6.2-42.8,12.5-85.7,18.7-128.5c1-7,2-14.3,0.2-21.1c-2.1-7.7-4.8-6.4-11.6-9.9c-18.3-9.5-27.2-11.9-51.7-13.9
											c-7-0.6-42.5,10.2-49.4,9.5c-11.6-31.1,15.7-98.7,16.6-129.3c0.7-23.1,3.1-10,11-31.5s14.2-39.2,35.5-43.1
											c22.9-4.2,44.9,9.7,67,17.6c26.4,9.4,54.7,10.4,82.6,11.4c41.2,1.4,82.4,2.7,123.7,4.1c20.9,0.7,53.6-0.3,70.8,15
											C389.6-1430.6,378.5-1405.8,395.4-1390z"/>
									</defs>
									<clipPath id="SVGID_00000111168935173276504810000000641115031043567779_">
										<use xlink:href="#SVGID_00000142882471031428931220000012375370217573052074_"  style="overflow:visible;"/>
									</clipPath>
									<path style="clip-path:url(#SVGID_00000111168935173276504810000000641115031043567779_);fill:#FFFFFF;" d="M90.7-1164.4
										c1.2,11.8-25.1,100-25.1,100s37.1-82.4,40.6-91.8c3.6-9.4,1.2-35.3-1.2-75.3c-2.4-40,9.6-66,9.6-66s-2.4-7-7.2-14.9
										c-3.3-5.4-6-12.9-10.7-25.6c0,0,8.9-11,38.5-17.3c9,8.6,25.3,23.5,32.1,25.7c9.6,3.1,25.1,29.9,25.1,29.9
										s16.7,9.3,26.3,16.2c9.6,6.8,39.4,52,43,60.3c3.6,8.2,9.6,5.9,9.6,5.9s2.4,14.1,8.4,25.9s14.3,181.3,14.3,181.3
										c4.8-17.7-4.8-174.2-4.8-198.9s-8.4-27.1-38.3-68.3c-23-31.7-60.1-67.3-76-82.1c15-0.3,32.6,0.5,53.3,3
										c43.7,5.2,98.5,8,129.1,11.6c39.1,47.1,90.8,108.8,90.8,108.8s-26.3-37.7-41.1-56.6c-6.3-8-20.3-28.7-34.3-49.9l0,0
										c23.1,4.8,258.3,76,258.3,76s-188.9-71.4-210.4-77s-32.3-6.8-32.3-6.8s-15.1-7.3-22.7-10.9c-1-0.5-3.2-1-6.3-1.6
										c-13.7-20.9-24.8-38-24.8-38s0-11.8-8.4-16.6c-8.4-4.8-7.2-15.8-7.2-15.8l-6,5.9l-4.8-7l-7.2,3.9c0,0,0,0-7.2,3.5
										s-88.5-1.2-111.2-0.5s-17.9-4.2-32.3-7c-14.3-2.8-35.9-4-35.9-4s-12-6.2-23.9-8.5c-9.9-1.9-18.9,12.9-29.1,28.1
										c-7.1-14.9-12.7-26.2-12.7-26.2s-9.6-17.3-25.1-17.2c-15.5,0.1-12,35.2-12,35.2s-27.5,52-28.7,57.7
										c-0.9,4.2-14.5,47.1-11.9,69.9c5.2,0.1,32.1,1.2,37.2,1.9c-2.9-38.9,3-48.9,4.6-60.1c2.4-16.6,20.3-53.9,20.3-53.9
										s2.6,13.9,8.2,28.3c-8.6,21.2-16.2,47.7-20.2,63.4c-1.8,7.1-5.2,16.5-6.8,27.6c3.1,1.1,42.2,5.5,43.2,3.9
										c9.2-15.5,4-14.7,19.1-29.8c5.3,9.8,9,16.9,9,16.9C86.8-1293.4,89.5-1176.2,90.7-1164.4z M63.9-1341.7L44-1315.1
										c5.4-12,10.2-23.8,15.3-34.9C60.8-1347.3,62.4-1344.5,63.9-1341.7z M135.3-1409.3c13.9,1,32.2,3.4,58.1,5.9
										c38.1,3.7,115.3,2.4,115.3,2.4l7.9,6.4c3.9,5,12.4,15.4,23.3,28.6c-26.7-3.6-67.5-7.9-91.4-10.8
										c-35.9-4.2-62.2-6.7-62.2-6.7s-20.3-11.4-31.1-13.3s-16.7-4.2-16.7-4.2S137.3-1405.1,135.3-1409.3z M84.6-1368.7
										c-2-4.7-4.3-9.8-6.7-15.1c4.8-6.7,10.2-12.5,16.4-17.1c7.4-5.5,14.7-8,24.7-8.6c-2.8,4.2-5.7,9.2-9.2,12.8
										C104.4-1391.1,91-1375.9,84.6-1368.7z"/>
								</g>
							</g>
						</g>
					</g>
				</g>
			</g>
		</g>
	</g>
	<path class="st2" d="M-12.7-1259c1.1-2.5,2-5,2.7-7.5l0.6-0.1c0.3,1.9,0.4,3.9,0.4,5.9s-0.1,4-0.3,5.9c-0.2,2.1-0.5,4.3-0.8,6.4
		c-0.3,2.2-0.6,4.4-0.9,6.6c-0.1,1.1-0.2,2.3-0.2,3.5s-0.1,2.3-0.2,3.5c-0.1,1.4-0.8,2.3-1.9,2.7c-1.1,0.5-2.4,0.7-3.9,0.6
		c-1.5,0-2.7,0-3.8,0c1.1-3.3,2.3-6.6,3.7-9.8c1.4-3.2,2.3-6.6,2.6-10.1C-14.5-1253.9-13.8-1256.5-12.7-1259z M-43.8-1199.5
		c-0.1,2.1,0.2,4.2,0.8,6.3c0.6-0.8,1.1-1.6,1.5-2.6c0.3-1,0.8-1.8,1.2-2.6c1.2-1.8,2.5-3.5,4-5s2.9-3.1,4.3-4.7l0.5,0.2
		c-0.4,0.9-0.7,2.1-0.8,3.6c-0.1,1.1-0.1,2.1-0.1,3.1c0.1,1,0.2,2,0.3,3.1c1.2-0.7,2.2-2,3-3.9s1.4-4,1.9-6.3s0.9-4.6,1.3-6.7
		c0.4-2.2,0.8-3.9,1.4-5.2l0.5,0.2c-0.1,1.4-0.1,2.9-0.1,4.5c0,1.5,0,3.1,0.1,4.6l0.4,0.8c1-0.9,1.5-2,1.4-3.3
		c0-1.3,0.3-2.5,1.1-3.5l0.6,0.1c0.3,0,0.7-0.4,1.3-1.2c0.5-0.9,0.9-1.4,1.1-1.7l0.5,0.2l0.4,4.1l0.5,0.2c0.2-0.4,0.6-1,1.3-1.9
		s1.2-1.3,1.7-1.3l0.6,0.1l-1.1,10.6h0.4l1.4-1.5c0,1.2-0.1,2.9,0,5c0,2.1,0.2,4.2,0.4,6.2s0.7,3.5,1.4,4.5l0.8-0.7
		c0.6-1.8,1.1-3.6,1.6-5.4s1-3.7,1.5-5.5l1.8,3.9l0.6-0.1c0.4-1.6,0.7-3.3,1-4.9c0.2-1.6,0.5-3.3,0.6-4.9c0.1-0.8,0.5-1.5,1.1-2.1
		c0.7-0.5,1-1.2,1.1-2c0.2-2,0.4-4.1,0.6-6.1s0.4-4.1,0.6-6.1c0.1-1.1,0.1-2.1,0-3.1s-0.2-2-0.1-3c0-0.4,0.1-0.8,0.3-1.2
		c0.2-0.4,0.3-0.8,0.3-1.2c0.6-5.4,0.9-10.8,0.9-16.2c0.1-5.5,0.4-10.9,1-16.4c0.2-1.7,0.8-2.9,1.8-3.8s2.1-1.7,3.4-2.5
		c1.2-0.8,2.1-1.9,2.8-3.3c-0.6-0.2-1.1-0.3-1.3-0.4c-1.6-0.2-3.2-0.2-4.8,0c-1.6,0.1-3.2,0.2-4.8,0.3c-3.3,0.1-6.7,0.1-10,0
		s-6.7-0.3-10-0.5c-1.1,0-2.5-0.1-4.1-0.2s-2.9,0-3.8,0.2c-0.5,0.2-0.9,0.5-1.3,1c0,0.8,0.4,1.3,1.3,1.7c0.9,0.4,1.8,0.7,2.9,1.1
		s2,1,2.8,1.8s1.1,2.1,0.9,3.8c-0.1,0.8-0.6,1.5-1.4,1.9c-1.3,2.3-2.4,5-3.4,8s-1.6,5.8-1.8,8.5c0,0.4,0,0.8,0,1.1c0,0.4,0,0.7,0,1
		c0,0.5-0.2,0.8-0.5,1.1c-1.3,1.4-2.4,3.4-3.5,5.9c-1,2.6-1.9,5.2-2.6,7.9c-0.7,2.7-1.1,5-1.3,6.9c0,0.4,0,0.7,0,1
		c0.1,0.3,0.1,0.6,0,0.9s-0.1,0.6-0.3,0.8c-0.2,0.2-0.3,0.5-0.4,0.8c-1.1,2-1.8,3.7-2.1,5.2s-0.7,2.9-1.1,4.1s-1.2,2.4-2.4,3.4
		c-1.2,1.1-3.1,2.1-5.8,3.2l-0.1,0.6l4.2,1.6C-43.8-1203.7-43.8-1201.6-43.8-1199.5z"/>
	<path class="st2" d="M-89.2-1200.2c1.4-0.2,2.9-0.4,4.3-0.8c1.4-0.3,2.9-0.6,4.4-0.7c1.8-0.1,3.4,0.3,4.7,1.2
		c1.3,0.9,2.2,2.2,2.8,3.9c0.2-0.5,0.5-1.2,0.9-2.2s0.8-2,1.2-2.9c0.5-0.9,1-1.4,1.6-1.4c0.9-0.1,2.1,0.4,3.6,1.4s2.8,1.6,3.8,2
		l0.7-0.4c1.1,0,2.2,0.4,3.2,1.2c1,0.8,2,1.8,2.9,2.9s1.7,1.9,2.5,2.6c0.1-1,0.1-2.5,0.2-4.5c0-2,0.1-3.9,0.2-5.8
		c0.1-1.9,0.4-3.2,0.9-4v-0.5c-0.1-0.9-0.2-1.8-0.4-2.7c-0.2-0.9-0.3-1.7-0.5-2.7c-0.2-1.2-0.3-2.7-0.4-4.4
		c-0.1-1.7-0.3-3.5-0.6-5.2s-0.8-3-1.6-3.9c-1.5,1.3-2.4,2.7-2.7,4.2s-0.5,3.1-0.6,4.7s-0.7,3-1.6,4.4c-0.7,1-1.7,1.7-2.8,2.2
		s-2.2,1-3.2,1.6c-0.2-0.7-0.7-1.5-1.6-2.6c-0.8-1-1.5-1.9-2.1-2.4c0-0.3,0-0.6,0.1-0.8c0.1-0.2,0.1-0.5,0.1-0.8
		c-0.1-0.8-0.2-1.5-0.5-2.2s-0.5-1.4-0.5-2.2c-0.1-0.7,0.1-1.4,0.4-2.2c0-0.9-0.1-1.8-0.2-2.7c-0.1-0.9-0.3-1.8-0.3-2.8
		c-0.1-0.8,0-1.7,0.1-2.6s0.4-1.8,0.8-2.6c1.7,0,3.1,0.6,4.1,1.6s1.9,2.3,2.6,3.7c0.7,1.4,1.4,2.7,2.1,3.8c0.9-1.5,1.3-3.3,1.2-5.2
		c-0.1-0.8-0.2-1.7-0.4-2.5s-0.4-1.6-0.4-2.5c-0.2-2.6-0.3-5.2-0.3-7.9c0-2.7-0.1-5.3-0.3-7.9c0-0.6-0.1-1.2-0.2-1.8
		c-0.1-0.6-0.3-1.2-0.7-1.7c-1.2,0.7-2,1.6-2.4,2.7c-0.4,1.1-0.8,2.2-1.2,3.3c-0.4,1.1-0.9,2.1-1.7,2.9c-0.8,0.8-2.1,1.3-3.8,1.4
		c-0.2-1.1-0.3-2.3-0.4-3.5s-0.2-2.4-0.3-3.6c-0.2-3-0.4-6.1-0.5-9.1s0.1-6,0.5-9l0.7-0.2c1-0.1,1.7,0.4,2.3,1.3
		c0.5,0.9,1,1.7,1.4,2.2c0.4-0.7,0.7-1.4,0.9-2.2c0.3-0.7,0.5-1.5,0.8-2.3l0.6,0.1c0.3,1.4,0.8,2.8,1.4,4c0.7,1.2,1.1,2.6,1.2,4
		c0,0.6,0.3,0.9,0.9,0.8c0.6,0,1.1-0.7,1.4-1.9c0.3-1.2,0.5-2,0.5-2.5h0.6c-0.1,0.3-0.1,0.6-0.1,0.9s0,0.6,0.1,0.9
		c0.1,1.6,0.6,3.1,1.3,4.5c0.8,1.4,1.6,2.8,2.5,4.1c0.2-0.7,0.3-1.4,0.4-2.1s0.2-1.4,0.3-2.1c0.7-3.8,1.3-7.6,1.9-11.4
		s1.3-7.6,2.1-11.4c-2.9,0.3-6.3,0.6-10.2,1s-8,0.9-12.2,1.4s-8.2,1.1-11.9,1.8c-3.7,0.7-6.8,1.6-9.3,2.6c0.1,1,0.5,1.7,1.4,2.1
		c0.8,0.4,1.8,1,2.8,1.6s1.8,1.6,2.3,3c0.5,1.1,0.8,2.3,1,3.6c0.2,1.3,0.3,2.5,0.4,3.7l1.6,21.3c0.1,1.1,0.1,2.1-0.1,3.3
		c-0.1,1.1-0.2,2.2-0.3,3.2c-0.3,3.2-0.4,6.3-0.2,9.5c0.2,3.2,0.4,6.3,0.6,9.5c0.2,2.9,0.2,4.9,0,6.1s-0.6,1.9-1.1,2.4
		c-0.5,0.4-1.1,1-1.8,1.7c-0.7,0.7-1.4,2-2.2,4L-89.2-1200.2z"/>
	<path class="st2" d="M-140.7-1265.8c1,0.5,2,1.1,3,1.6s1.7,1.2,1.9,2c0.8,3.3,1.4,6.7,1.7,10.2s0.6,7,0.9,10.3
		c0.3,3,0.6,6.1,0.8,9.2s0.5,6.2,0.8,9.3c0.1,1,0.4,1.9,0.8,2.8c0.4,0.9,0.7,1.8,0.9,2.8c0.3,2,0.6,3.9,0.8,5.9s0.5,4,0.9,5.9
		c0.1,0.6,0.3,1.2,0.6,1.7s0.5,1.1,0.6,1.7c0.5,2,0.9,4,1.3,6s0.9,3.9,1.4,5.9c0.4,1.5,0.7,3,0.9,4.4c0.2,1.5,0.6,2.9,1.2,4.3
		c0.9-1.7,1.5-3.6,1.9-5.6s0.9-4,1.3-5.8s1.1-3.4,1.9-4.6c0.4-0.6,0.6-1.2,0.5-1.8c-0.1-0.8-0.4-1.5-0.9-2.1s-0.8-1.2-0.9-1.9
		c-0.1-1,0.1-1.9,0.6-2.8s0.7-1.8,0.6-2.8c0-0.4-0.1-0.6-0.2-0.7c-0.4-0.3-0.6-0.7-0.7-1.2s-0.2-1-0.3-1.5c-0.1-0.8,0-1.5,0.1-2.1
		c0.2-0.7,0.3-1.3,0.3-2c0.2-2,0.1-3.9-0.3-5.6s-0.2-3.6,0.7-5.6c0.8-0.1,1.6-0.1,2.4,0s1.4,0.4,1.9,1.1c0.9,1.1,1.8,2.4,2.5,3.7
		c0.7,1.4,1.5,2.7,2.2,3.9l0.6-0.4c0.1-0.6,0.2-1.4,0.4-2.2c0.2-0.9,0.2-1.6,0.2-2.3c-0.1-0.8-0.2-1.5-0.4-2.1
		c-0.2-0.7-0.3-1.3-0.3-2c-0.1-1.1-0.2-2.1-0.2-3.1s-0.1-2-0.1-3.1c-0.2-4.3-0.6-8.5-1-12.7c0-0.2-0.2-0.5-0.6-1
		c-1,0.7-1.7,1.6-2.1,2.8c-0.4,1.1-0.9,2.3-1.3,3.4c-0.4,1.2-1,2.1-1.7,2.9c-0.8,0.8-2,1.3-3.7,1.5c-0.5-2.2-0.9-4.6-1.1-7
		c-0.3-2.3-0.4-4.7-0.4-7.1s0.3-4.7,0.8-7l2.6,0.7c0.2-0.8,0.7-1.5,1.5-2.1c0.7-0.6,1.5-1,2.3-1.1c0.3,0,0.6,0,1,0.1
		c0.3,0.1,0.7,0.1,1,0.1c0.5-0.1,0.9-0.2,1.3-0.5s0.9-0.4,1.3-0.5c0.4,0,0.8,0.1,1.1,0.3c0.4,0.3,0.6,0.5,0.8,0.7
		c0.3,0.1,0.6,0.3,0.9,0.4c0.3,0.2,0.5,0.3,0.5,0.6c0,0.3,0,0.6-0.1,0.9s-0.1,0.7-0.1,1c0.1,1.1,0.5,2,1,2.5s1.1,1,1.7,1.4
		s1,1.1,1.3,1.9c-0.4-4-0.3-8,0.3-12c0.5-4,1.2-7.9,2-11.7l-2.4,0.3c-2.9,0.3-5.7,0.8-8.5,1.4s-5.6,1.2-8.4,1.6
		c-3.7,0.6-7.5,1.2-11.4,1.8c-3.9,0.6-7.7,1.3-11.4,2.3c-0.2,0-0.4,0.1-0.8,0.3c-0.3,0.2-0.5,0.3-0.5,0.5
		C-142.2-1267-141.7-1266.3-140.7-1265.8z"/>
	<path class="st2" d="M28.5-1255.8c0.1-0.8,0.4-1.6,0.7-2.2c0.4-0.7,0.9-1,1.6-0.9c0.8,0,1.4,0.8,1.9,2.2c0.5,1.4,0.8,2.9,1.1,4.5
		c0.2,1.6,0.4,2.7,0.5,3.3l0.7,0.3c0.5-0.8,0.8-1.7,0.8-2.7s0.1-1.9,0.1-2.8c0-0.8,0.2-1.5,0.5-2.2s0.8-1.2,1.4-1.6
		c0.4,0.6,1,1.4,1.8,2.3s1.6,1.8,2.3,2.7c0.7,0.9,1,1.7,0.9,2.4c0,0.8-0.2,1.5-0.4,2.3c-0.2,0.7-0.4,1.5-0.6,2.3
		c-0.6,2.6-1.1,4.4-1.8,5.6c-0.6,1.1-1.5,2.1-2.6,3s-2.6,2.1-4.4,3.7c-0.5-0.3-0.8-0.9-0.8-1.6c0-0.8,0-1.4-0.1-1.9
		c-0.9,0.5-1.5,1.2-1.8,2.1s-0.6,1.9-0.9,2.8s-1,1.6-2,2.1c-0.1-3.9,0-7.8,0.1-11.6c0.2-3.9,0.4-7.7,0.6-11.6
		C28.3-1254.3,28.3-1255,28.5-1255.8z M2.9-1191.7c0.4,0.1,0.9,0.2,1.4,0.3s1,0.1,1.5,0.1c1.3,0.1,2.6,0.1,4,0s2.7-0.1,4.1,0
		c1.8,0.1,3.5,0.3,5.2,0.6c1.7,0.3,3.5,0.5,5.3,0.7c1,0.1,2.2,0,3.5-0.1c1.3-0.2,2.4-0.4,3.4-0.7c-0.2-0.6-0.7-1.2-1.5-1.9
		c-0.8-0.6-1.6-1.2-2.2-1.8s-1-1.1-1-1.4c0.1-2,0.3-4,0.5-6s0.4-4,0.5-6c0-0.5-0.1-0.9-0.4-1.5c-0.3-0.5-0.4-1.1-0.4-1.8l0.3-4.7
		c0.1-1.2,0.3-2.3,0.7-3.4c0.4-1,1.4-1.5,3.1-1.4c0.6,0,1.5,0.4,2.8,1.1s2.1,1.4,2.4,1.9c0.1,0.2,0.2,0.9,0.3,2.1
		c0.1,1.3,0.2,2.7,0.3,4.4c0.1,1.7,0.2,3.2,0.2,4.6s0,2.2,0,2.5c0,0.5-0.1,1.1-0.3,1.6s-0.2,1.1-0.3,1.7c0,0.3,0,0.6,0.1,1
		s0.1,0.8,0.2,1.2c0.1,1.3,0.1,2.6,0,4s-0.1,2.7-0.1,4c0,1.7,0,3.5,0.2,5.2c0.1,1.7,0.2,3.4,0.1,5.1c-0.1,1,0.2,1.9,0.7,2.6
		c0.5,0.8,0.8,1.6,0.8,2.6c0,1.1,0,2.1-0.1,3.2s-0.1,2.1-0.1,3.2l1.2-0.7c0.8-3.3,1.6-6.6,2.2-9.9s1.3-6.6,1.8-9.9l1.4,1.1
		c0.9-3,1.6-6,2.2-9.1s1.4-6.2,2.6-9.2c0.2-0.5,0.3-1.1,0.3-1.8c0-0.6,0.1-1.3,0.1-1.9c0-0.7,0.2-1.3,0.5-2c0.3-0.6,0.4-1.3,0.5-2
		c0-0.6,0-1.2-0.1-1.7s-0.1-1-0.1-1.5c0-0.7,0.2-1.3,0.6-2c0.4-0.6,0.6-1.3,0.6-2c0-0.5-0.5-1.2-1.6-2s-2.2-1.5-3.5-2.3
		c-1.2-0.7-2.1-1.2-2.6-1.6c0.3-0.3,1.1-0.8,2.2-1.6c1.1-0.8,2.2-1.5,3.2-2.3s1.5-1.3,1.4-1.5v-0.5v-0.5c0-0.8,0.3-1.6,0.7-2.2
		c0.4-0.7,0.7-1.4,0.9-2.2c0.1-0.5,0.2-1,0.3-1.5s0.2-1,0.4-1.5c0.3-0.7,0.6-1.5,0.9-2.2s0.5-1.5,0.6-2.4c0-0.4,0-0.7-0.1-1.1
		c-0.1-0.3-0.1-0.7-0.1-1.1c0-0.2,0.2-0.8,0.7-1.8s0.9-2.1,1.4-3.5s0.8-2.8,0.8-4.2l0.1-0.9c-0.5-0.9-1.1-1.6-1.9-2.2
		c-0.7-0.6-1.4-1.3-2-2.1c-0.4-0.6-0.8-1.2-1.1-1.7s-0.9-0.8-1.8-1c-0.6-0.2-1.1-0.3-1.5-0.4s-0.6-0.4-0.6-1c0-0.4-0.2-0.7-0.6-0.9
		c-1.1-0.4-1.6-1-1.5-2c-0.3-0.3-0.8-1-1.5-2s-1.3-1.5-1.7-1.5c-2.6-0.1-5.1,0-7.6,0.4s-5,0.8-7.6,1.2l3.3-3.9l-0.2-0.4
		c-1,0.2-2.6,0.6-4.8,1.1c-2.2,0.6-4.7,1.3-7.3,2.1c-2.6,0.8-4.9,1.6-6.9,2.4s-3.3,1.5-3.8,2.1c0.3,0.2,0.6,0.5,0.9,0.6
		c1.4,0.5,2.6,0.9,3.6,1s1.7,0.4,2.1,0.9c0.5,0.5,0.6,1.5,0.5,3.1c-0.1,1.1-0.1,2.1-0.1,3.3c0,1.1,0,2.2-0.1,3.1
		c-0.1,2-0.3,4.1-0.7,6.1c-0.3,2-0.5,4.1-0.7,6.1c-0.1,1.1,0.5,1.9,1.5,2.5c-0.7,0.6-1.2,1.4-1.4,2.4c-0.3,0.9-0.4,1.9-0.5,2.8
		c0,0.8-0.1,1.7,0,2.6c0,0.9,0,1.7,0,2.6c-0.1,1.7-0.3,3.3-0.7,4.9s-0.6,3.3-0.7,4.9c-0.1,2.3-0.1,4.5,0.1,6.8
		c0.2,2.3,0.2,4.5,0.1,6.8c0,0.2-0.3,0.6-0.7,1c-0.5,0.4-0.8,0.8-1,1.2c-0.8,2-1.2,3.6-1.4,4.7c-0.1,1.1-0.3,2-0.5,2.7
		s-0.8,1.4-1.7,2.2c-0.9,0.8-2.5,1.9-4.8,3.3L2.9-1191.7z"/>
</g>
<g id="white-logo-red-text" class="st0">
	<g class="st1">
		<g>
			<g>
				<g>
					<g>
						<g>
							<g>
								<g>
									<defs>
										<path id="SVGID_00000000944861457684426980000012993551741210713217_" d="M-480.5-1390c-10.8,10.1-25,14.8-38.7,19.3
											c-15.3,5-30.6,10-46,15c-10.4,3.4-20.8,6.8-31.6,8.2c-16.3,2.2-32.9-0.3-49.4,0.1c-31.8,0.8-63.3,12.8-88.5,33.6
											c-18.7,15.5-34.8,40.6-27.5,64.5c7.5,24.6,36.9,34.6,60.5,28.9c23.7-5.7,43.4-22.5,63.5-37c20.2-14.4,43.7-27.2,67.7-23.2
											c6.1,12.7-7.7,27.1-5.8,41.2c1.5,10.9,12,17.9,22.2,20s20.7,0.8,30.8,3c27.4,6,44.3,34.8,57.9,60.9
											c8.5,16.4,17.1,32.8,25.6,49.2c11.2,21.6,22.8,44.6,21.7,69.2c-0.7,16.8-7.2,34.9,0.4,49.6c5.8,11.2,18.3,16.7,30.3,17.9
											c28.4,3,57.1-14.2,71.9-40.3c14.8-26.1,16.3-59.5,6.4-88.1c-1.8-5.3-4.1-10.9-3.4-16.5c0.5-4,2.5-7.7,4.5-11.2
											c19.9-35.5,39.7-71.1,59.6-106.6c18.7,34.7,20.9,76.3,30.1,115.1c9.2,38.8,30.2,79.7,66.5,89.4c16.4,4.4,38.6-3,39.7-21
											c1-16.8-16.5-27.1-25.3-41.1c-6.3-10-8.2-22.4-10-34.4c-6.2-42.8-12.5-85.7-18.7-128.5c-1-7-2-14.3-0.2-21.1
											c2.1-7.7,5.8-5.4,12.6-8.9c18.3-9.5,40.9-13.6,60.1-12c7,0.6,33.1,7.3,39.9,6.5c11.6-31.1-15.7-98.7-16.6-129.3
											c-0.7-23.1-3.1-10-11-31.5s-14.2-39.2-35.5-43.1c-22.9-4.2-44.9,9.7-67,17.6c-26.4,9.4-54.7,10.4-82.6,11.4
											c-41.2,1.4-82.4,2.7-123.7,4.1c-20.9,0.7-53.6-0.3-70.8,15C-474.7-1430.6-463.5-1405.8-480.5-1390z"/>
									</defs>
									<clipPath id="SVGID_00000111907002291394823400000009829169453394799792_">
										<use xlink:href="#SVGID_00000000944861457684426980000012993551741210713217_"  style="overflow:visible;"/>
									</clipPath>
									<path style="clip-path:url(#SVGID_00000111907002291394823400000009829169453394799792_);fill:#FFFFFF;" d="M-170.9-1301
										c0,0,3.8-7.1,9-16.9c15.7,15.6,20.2,30.8,26.3,37.7c1.2,1.4,19.4,1.4,21,2.1c0.1-0.3,0.2-0.5,0.4-0.8
										c2.9-5,7-8.7,11.7-11.8c0.1-0.1,0.1-0.1,0.2-0.2c2.7-2.3,1.6-0.1,4.8-1.2c-1.6-11.1-7-20.5-8.8-27.6
										c-4-15.7-11.6-42.2-20.2-63.4c5.7-14.3,8.2-28.3,8.2-28.3s17.9,37.3,20.3,53.9c1.6,11.2,9.4,22.9,6.6,61.8
										c5.1-0.7,32.7-3.2,37.8-3.3c0-30.7-13.6-66-14.5-70.2c-1.2-5.7-28.7-57.7-28.7-57.7s3.6-35.1-12-35.2
										c-15.5-0.1-25.1,17.2-25.1,17.2s-5.6,11.3-12.7,26.2c-10.2-15.2-19.3-30.1-29.1-28.1c-12,2.4-23.9,8.5-23.9,8.5
										s-21.5,1.2-35.9,4c-14.3,2.8-9.6,7.6-32.3,7c-22.7-0.7-104,4-111.2,0.5s-7.2-3.5-7.2-3.5l-7.2-3.9l-4.8,7l-6-5.9
										c0,0,1.2,11-7.2,15.8s-8.4,16.6-8.4,16.6s-11.1,17.1-24.8,38c-3.1,0.6-5.3,1.2-6.3,1.6c-7.6,3.6-22.7,10.9-22.7,10.9
										s-10.8,1.3-32.3,6.8c-21.5,5.6-210.4,77-210.4,77s235.1-71.3,258.3-76l0,0c-14,21.2-28.1,41.9-34.3,49.9
										c-14.8,18.9-41.1,56.6-41.1,56.6s51.7-61.6,90.8-108.8c30.6-3.5,85.5-6.4,129.1-11.6c20.7-2.5,38.4-3.3,53.3-3
										c-15.9,14.7-53,50.3-76,82.1c-29.9,41.2-38.3,43.6-38.3,68.3c0,24.7-9.6,181.3-4.8,198.9c0,0,8.4-169.5,14.3-181.3
										c6-11.8,8.4-25.9,8.4-25.9s6,2.4,9.6-5.9c3.6-8.2,33.5-53.4,43-60.3c9.6-6.8,26.3-16.2,26.3-16.2s15.5-26.8,25.1-29.9
										c6.8-2.2,23.1-17.1,32.1-25.7c29.6,6.3,38.5,17.3,38.5,17.3c-4.8,12.8-7.5,20.2-10.7,25.6c-4.8,7.9-7.2,14.9-7.2,14.9
										s12,26,9.6,66s-4.8,65.9-1.2,75.3s40.6,91.8,40.6,91.8s-26.3-88.3-25.1-100C-174.5-1176.2-171.9-1293.4-170.9-1301z
										 M-144.3-1350c5,11.1,9.9,23,15.3,34.9l-19.9-26.6C-147.4-1344.5-145.9-1347.3-144.3-1350z M-223.5-1400.9
										c0,0-6,2.3-16.7,4.2c-10.8,1.9-31.1,13.3-31.1,13.3s-26.3,2.5-62.2,6.7c-23.9,2.8-64.7,7.1-91.4,10.8
										c10.9-13.2,19.4-23.6,23.3-28.6l7.9-6.4c0,0,77.2,1.3,115.3-2.4c25.9-2.5,44.2-4.9,58.1-5.9
										C-222.3-1405.1-223.5-1400.9-223.5-1400.9z M-194.8-1396.7c-3.5-3.7-6.4-8.6-9.2-12.8c10,0.6,17.3,3.1,24.7,8.6
										c6.2,4.7,11.5,10.5,16.4,17.1c-2.4,5.3-4.7,10.4-6.7,15.1C-176-1375.9-189.5-1391.1-194.8-1396.7z"/>
								</g>
							</g>
						</g>
					</g>
				</g>
			</g>
		</g>
	</g>
	<g class="st1">
		<g>
			<g>
				<g>
					<g>
						<g>
							<g>
								<g>
									<defs>
										<path id="SVGID_00000067197128022634613790000006820291542969972610_" d="M395.4-1390c10.8,10.1,25,14.8,38.7,19.3
											c15.3,5,30.6,10,46,15c10.4,3.4,20.8,6.8,31.6,8.2c16.3,2.2,32.9-0.3,49.4,0.1c31.8,0.8,63.3,12.8,88.5,33.6
											c18.7,15.5,34.8,40.6,27.5,64.5c-7.5,24.6-36.9,34.6-60.5,28.9c-23.7-5.7-43.4-22.5-63.5-37
											c-20.2-14.4-43.7-27.2-67.7-23.2c-6.1,12.7,7.7,27.1,5.8,41.2c-1.5,10.9-12,17.9-22.2,20s-20.7,0.8-30.8,3
											c-27.4,6-44.3,34.8-57.9,60.9c-8.5,16.4-17.1,32.8-25.6,49.2c-11.2,21.6-22.8,44.6-21.7,69.2c0.7,16.8,7.2,34.9-0.4,49.6
											c-5.8,11.2-18.3,16.7-30.3,17.9c-28.4,3-57.1-14.2-71.9-40.3c-14.8-26.1-16.3-59.5-6.4-88.1c1.8-5.3,4.1-10.9,3.4-16.5
											c-0.5-4-2.5-7.7-4.5-11.2c-19.9-35.5-39.7-71.1-59.6-106.6c-18.7,34.7-20.9,76.3-30.1,115.1
											c-9.2,38.8-30.2,79.7-66.5,89.4c-16.4,4.4-38.6-3-39.7-21c-1-16.8,16.5-27.1,25.3-41.1c6.3-10,8.2-22.4,10-34.4
											c6.2-42.8,12.5-85.7,18.7-128.5c1-7,2-14.3,0.2-21.1c-2.1-7.7-4.8-6.4-11.6-9.9c-18.3-9.5-27.2-11.9-51.7-13.9
											c-7-0.6-42.5,10.2-49.4,9.5c-11.6-31.1,15.7-98.7,16.6-129.3c0.7-23.1,3.1-10,11-31.5s14.2-39.2,35.5-43.1
											c22.9-4.2,44.9,9.7,67,17.6c26.4,9.4,54.7,10.4,82.6,11.4c41.2,1.4,82.4,2.7,123.7,4.1c20.9,0.7,53.6-0.3,70.8,15
											C389.6-1430.6,378.5-1405.8,395.4-1390z"/>
									</defs>
									<clipPath id="SVGID_00000021111437401797995370000017929868131355245754_">
										<use xlink:href="#SVGID_00000067197128022634613790000006820291542969972610_"  style="overflow:visible;"/>
									</clipPath>
									<path style="clip-path:url(#SVGID_00000021111437401797995370000017929868131355245754_);fill:#FFFFFF;" d="M90.7-1164.4
										c1.2,11.8-25.1,100-25.1,100s37.1-82.4,40.6-91.8c3.6-9.4,1.2-35.3-1.2-75.3c-2.4-40,9.6-66,9.6-66s-2.4-7-7.2-14.9
										c-3.3-5.4-6-12.9-10.7-25.6c0,0,8.9-11,38.5-17.3c9,8.6,25.3,23.5,32.1,25.7c9.6,3.1,25.1,29.9,25.1,29.9
										s16.7,9.3,26.3,16.2c9.6,6.8,39.4,52,43,60.3c3.6,8.2,9.6,5.9,9.6,5.9s2.4,14.1,8.4,25.9s14.3,181.3,14.3,181.3
										c4.8-17.7-4.8-174.2-4.8-198.9s-8.4-27.1-38.3-68.3c-23-31.7-60.1-67.3-76-82.1c15-0.3,32.6,0.5,53.3,3
										c43.7,5.2,98.5,8,129.1,11.6c39.1,47.1,90.8,108.8,90.8,108.8s-26.3-37.7-41.1-56.6c-6.3-8-20.3-28.7-34.3-49.9l0,0
										c23.1,4.8,258.3,76,258.3,76s-188.9-71.4-210.4-77s-32.3-6.8-32.3-6.8s-15.1-7.3-22.7-10.9c-1-0.5-3.2-1-6.3-1.6
										c-13.7-20.9-24.8-38-24.8-38s0-11.8-8.4-16.6c-8.4-4.8-7.2-15.8-7.2-15.8l-6,5.9l-4.8-7l-7.2,3.9c0,0,0,0-7.2,3.5
										s-88.5-1.2-111.2-0.5s-17.9-4.2-32.3-7c-14.3-2.8-35.9-4-35.9-4s-12-6.2-23.9-8.5c-9.9-1.9-18.9,12.9-29.1,28.1
										c-7.1-14.9-12.7-26.2-12.7-26.2s-9.6-17.3-25.1-17.2c-15.5,0.1-12,35.2-12,35.2s-27.5,52-28.7,57.7
										c-0.9,4.2-14.5,47.1-11.9,69.9c5.2,0.1,32.1,1.2,37.2,1.9c-2.9-38.9,3-48.9,4.6-60.1c2.4-16.6,20.3-53.9,20.3-53.9
										s2.6,13.9,8.2,28.3c-8.6,21.2-16.2,47.7-20.2,63.4c-1.8,7.1-5.2,16.5-6.8,27.6c3.1,1.1,42.2,5.5,43.2,3.9
										c9.2-15.5,4-14.7,19.1-29.8c5.3,9.8,9,16.9,9,16.9C86.8-1293.4,89.5-1176.2,90.7-1164.4z M63.9-1341.7L44-1315.1
										c5.4-12,10.2-23.8,15.3-34.9C60.8-1347.3,62.4-1344.5,63.9-1341.7z M135.3-1409.3c13.9,1,32.2,3.4,58.1,5.9
										c38.1,3.7,115.3,2.4,115.3,2.4l7.9,6.4c3.9,5,12.4,15.4,23.3,28.6c-26.7-3.6-67.5-7.9-91.4-10.8
										c-35.9-4.2-62.2-6.7-62.2-6.7s-20.3-11.4-31.1-13.3s-16.7-4.2-16.7-4.2S137.3-1405.1,135.3-1409.3z M84.6-1368.7
										c-2-4.7-4.3-9.8-6.7-15.1c4.8-6.7,10.2-12.5,16.4-17.1c7.4-5.5,14.7-8,24.7-8.6c-2.8,4.2-5.7,9.2-9.2,12.8
										C104.4-1391.1,91-1375.9,84.6-1368.7z"/>
								</g>
							</g>
						</g>
					</g>
				</g>
			</g>
		</g>
	</g>
	<path class="st11" d="M-12.7-1259c1.1-2.5,2-5,2.7-7.5l0.6-0.1c0.3,1.9,0.4,3.9,0.4,5.9s-0.1,4-0.3,5.9c-0.2,2.1-0.5,4.3-0.8,6.4
		c-0.3,2.2-0.6,4.4-0.9,6.6c-0.1,1.1-0.2,2.3-0.2,3.5s-0.1,2.3-0.2,3.5c-0.1,1.4-0.8,2.3-1.9,2.7c-1.1,0.5-2.4,0.7-3.9,0.6
		c-1.5,0-2.7,0-3.8,0c1.1-3.3,2.3-6.6,3.7-9.8c1.4-3.2,2.3-6.6,2.6-10.1C-14.5-1253.9-13.8-1256.5-12.7-1259z M-43.8-1199.5
		c-0.1,2.1,0.2,4.2,0.8,6.3c0.6-0.8,1.1-1.6,1.5-2.6c0.3-1,0.8-1.8,1.2-2.6c1.2-1.8,2.5-3.5,4-5s2.9-3.1,4.3-4.7l0.5,0.2
		c-0.4,0.9-0.7,2.1-0.8,3.6c-0.1,1.1-0.1,2.1-0.1,3.1c0.1,1,0.2,2,0.3,3.1c1.2-0.7,2.2-2,3-3.9s1.4-4,1.9-6.3s0.9-4.6,1.3-6.7
		c0.4-2.2,0.8-3.9,1.4-5.2l0.5,0.2c-0.1,1.4-0.1,2.9-0.1,4.5c0,1.5,0,3.1,0.1,4.6l0.4,0.8c1-0.9,1.5-2,1.4-3.3
		c0-1.3,0.3-2.5,1.1-3.5l0.6,0.1c0.3,0,0.7-0.4,1.3-1.2c0.5-0.9,0.9-1.4,1.1-1.7l0.5,0.2l0.4,4.1l0.5,0.2c0.2-0.4,0.6-1,1.3-1.9
		s1.2-1.3,1.7-1.3l0.6,0.1l-1.1,10.6h0.4l1.4-1.5c0,1.2-0.1,2.9,0,5c0,2.1,0.2,4.2,0.4,6.2s0.7,3.5,1.4,4.5l0.8-0.7
		c0.6-1.8,1.1-3.6,1.6-5.4s1-3.7,1.5-5.5l1.8,3.9l0.6-0.1c0.4-1.6,0.7-3.3,1-4.9c0.2-1.6,0.5-3.3,0.6-4.9c0.1-0.8,0.5-1.5,1.1-2.1
		c0.7-0.5,1-1.2,1.1-2c0.2-2,0.4-4.1,0.6-6.1s0.4-4.1,0.6-6.1c0.1-1.1,0.1-2.1,0-3.1s-0.2-2-0.1-3c0-0.4,0.1-0.8,0.3-1.2
		c0.2-0.4,0.3-0.8,0.3-1.2c0.6-5.4,0.9-10.8,0.9-16.2c0.1-5.5,0.4-10.9,1-16.4c0.2-1.7,0.8-2.9,1.8-3.8s2.1-1.7,3.4-2.5
		c1.2-0.8,2.1-1.9,2.8-3.3c-0.6-0.2-1.1-0.3-1.3-0.4c-1.6-0.2-3.2-0.2-4.8,0c-1.6,0.1-3.2,0.2-4.8,0.3c-3.3,0.1-6.7,0.1-10,0
		s-6.7-0.3-10-0.5c-1.1,0-2.5-0.1-4.1-0.2s-2.9,0-3.8,0.2c-0.5,0.2-0.9,0.5-1.3,1c0,0.8,0.4,1.3,1.3,1.7c0.9,0.4,1.8,0.7,2.9,1.1
		s2,1,2.8,1.8s1.1,2.1,0.9,3.8c-0.1,0.8-0.6,1.5-1.4,1.9c-1.3,2.3-2.4,5-3.4,8s-1.6,5.8-1.8,8.5c0,0.4,0,0.8,0,1.1c0,0.4,0,0.7,0,1
		c0,0.5-0.2,0.8-0.5,1.1c-1.3,1.4-2.4,3.4-3.5,5.9c-1,2.6-1.9,5.2-2.6,7.9c-0.7,2.7-1.1,5-1.3,6.9c0,0.4,0,0.7,0,1
		c0.1,0.3,0.1,0.6,0,0.9s-0.1,0.6-0.3,0.8c-0.2,0.2-0.3,0.5-0.4,0.8c-1.1,2-1.8,3.7-2.1,5.2s-0.7,2.9-1.1,4.1s-1.2,2.4-2.4,3.4
		c-1.2,1.1-3.1,2.1-5.8,3.2l-0.1,0.6l4.2,1.6C-43.8-1203.7-43.8-1201.6-43.8-1199.5z"/>
	<path class="st11" d="M-89.2-1200.2c1.4-0.2,2.9-0.4,4.3-0.8c1.4-0.3,2.9-0.6,4.4-0.7c1.8-0.1,3.4,0.3,4.7,1.2
		c1.3,0.9,2.2,2.2,2.8,3.9c0.2-0.5,0.5-1.2,0.9-2.2s0.8-2,1.2-2.9c0.5-0.9,1-1.4,1.6-1.4c0.9-0.1,2.1,0.4,3.6,1.4s2.8,1.6,3.8,2
		l0.7-0.4c1.1,0,2.2,0.4,3.2,1.2c1,0.8,2,1.8,2.9,2.9s1.7,1.9,2.5,2.6c0.1-1,0.1-2.5,0.2-4.5c0-2,0.1-3.9,0.2-5.8
		c0.1-1.9,0.4-3.2,0.9-4v-0.5c-0.1-0.9-0.2-1.8-0.4-2.7c-0.2-0.9-0.3-1.7-0.5-2.7c-0.2-1.2-0.3-2.7-0.4-4.4
		c-0.1-1.7-0.3-3.5-0.6-5.2s-0.8-3-1.6-3.9c-1.5,1.3-2.4,2.7-2.7,4.2s-0.5,3.1-0.6,4.7s-0.7,3-1.6,4.4c-0.7,1-1.7,1.7-2.8,2.2
		s-2.2,1-3.2,1.6c-0.2-0.7-0.7-1.5-1.6-2.6c-0.8-1-1.5-1.9-2.1-2.4c0-0.3,0-0.6,0.1-0.8c0.1-0.2,0.1-0.5,0.1-0.8
		c-0.1-0.8-0.2-1.5-0.5-2.2s-0.5-1.4-0.5-2.2c-0.1-0.7,0.1-1.4,0.4-2.2c0-0.9-0.1-1.8-0.2-2.7c-0.1-0.9-0.3-1.8-0.3-2.8
		c-0.1-0.8,0-1.7,0.1-2.6s0.4-1.8,0.8-2.6c1.7,0,3.1,0.6,4.1,1.6s1.9,2.3,2.6,3.7c0.7,1.4,1.4,2.7,2.1,3.8c0.9-1.5,1.3-3.3,1.2-5.2
		c-0.1-0.8-0.2-1.7-0.4-2.5s-0.4-1.6-0.4-2.5c-0.2-2.6-0.3-5.2-0.3-7.9c0-2.7-0.1-5.3-0.3-7.9c0-0.6-0.1-1.2-0.2-1.8
		c-0.1-0.6-0.3-1.2-0.7-1.7c-1.2,0.7-2,1.6-2.4,2.7c-0.4,1.1-0.8,2.2-1.2,3.3c-0.4,1.1-0.9,2.1-1.7,2.9c-0.8,0.8-2.1,1.3-3.8,1.4
		c-0.2-1.1-0.3-2.3-0.4-3.5s-0.2-2.4-0.3-3.6c-0.2-3-0.4-6.1-0.5-9.1s0.1-6,0.5-9l0.7-0.2c1-0.1,1.7,0.4,2.3,1.3
		c0.5,0.9,1,1.7,1.4,2.2c0.4-0.7,0.7-1.4,0.9-2.2c0.3-0.7,0.5-1.5,0.8-2.3l0.6,0.1c0.3,1.4,0.8,2.8,1.4,4c0.7,1.2,1.1,2.6,1.2,4
		c0,0.6,0.3,0.9,0.9,0.8c0.6,0,1.1-0.7,1.4-1.9c0.3-1.2,0.5-2,0.5-2.5h0.6c-0.1,0.3-0.1,0.6-0.1,0.9s0,0.6,0.1,0.9
		c0.1,1.6,0.6,3.1,1.3,4.5c0.8,1.4,1.6,2.8,2.5,4.1c0.2-0.7,0.3-1.4,0.4-2.1s0.2-1.4,0.3-2.1c0.7-3.8,1.3-7.6,1.9-11.4
		s1.3-7.6,2.1-11.4c-2.9,0.3-6.3,0.6-10.2,1s-8,0.9-12.2,1.4s-8.2,1.1-11.9,1.8c-3.7,0.7-6.8,1.6-9.3,2.6c0.1,1,0.5,1.7,1.4,2.1
		c0.8,0.4,1.8,1,2.8,1.6s1.8,1.6,2.3,3c0.5,1.1,0.8,2.3,1,3.6c0.2,1.3,0.3,2.5,0.4,3.7l1.6,21.3c0.1,1.1,0.1,2.1-0.1,3.3
		c-0.1,1.1-0.2,2.2-0.3,3.2c-0.3,3.2-0.4,6.3-0.2,9.5c0.2,3.2,0.4,6.3,0.6,9.5c0.2,2.9,0.2,4.9,0,6.1s-0.6,1.9-1.1,2.4
		c-0.5,0.4-1.1,1-1.8,1.7c-0.7,0.7-1.4,2-2.2,4L-89.2-1200.2z"/>
	<path class="st11" d="M-140.7-1265.8c1,0.5,2,1.1,3,1.6s1.7,1.2,1.9,2c0.8,3.3,1.4,6.7,1.7,10.2s0.6,7,0.9,10.3
		c0.3,3,0.6,6.1,0.8,9.2s0.5,6.2,0.8,9.3c0.1,1,0.4,1.9,0.8,2.8c0.4,0.9,0.7,1.8,0.9,2.8c0.3,2,0.6,3.9,0.8,5.9s0.5,4,0.9,5.9
		c0.1,0.6,0.3,1.2,0.6,1.7s0.5,1.1,0.6,1.7c0.5,2,0.9,4,1.3,6s0.9,3.9,1.4,5.9c0.4,1.5,0.7,3,0.9,4.4c0.2,1.5,0.6,2.9,1.2,4.3
		c0.9-1.7,1.5-3.6,1.9-5.6s0.9-4,1.3-5.8s1.1-3.4,1.9-4.6c0.4-0.6,0.6-1.2,0.5-1.8c-0.1-0.8-0.4-1.5-0.9-2.1s-0.8-1.2-0.9-1.9
		c-0.1-1,0.1-1.9,0.6-2.8s0.7-1.8,0.6-2.8c0-0.4-0.1-0.6-0.2-0.7c-0.4-0.3-0.6-0.7-0.7-1.2s-0.2-1-0.3-1.5c-0.1-0.8,0-1.5,0.1-2.1
		c0.2-0.7,0.3-1.3,0.3-2c0.2-2,0.1-3.9-0.3-5.6s-0.2-3.6,0.7-5.6c0.8-0.1,1.6-0.1,2.4,0s1.4,0.4,1.9,1.1c0.9,1.1,1.8,2.4,2.5,3.7
		c0.7,1.4,1.5,2.7,2.2,3.9l0.6-0.4c0.1-0.6,0.2-1.4,0.4-2.2c0.2-0.9,0.2-1.6,0.2-2.3c-0.1-0.8-0.2-1.5-0.4-2.1
		c-0.2-0.7-0.3-1.3-0.3-2c-0.1-1.1-0.2-2.1-0.2-3.1s-0.1-2-0.1-3.1c-0.2-4.3-0.6-8.5-1-12.7c0-0.2-0.2-0.5-0.6-1
		c-1,0.7-1.7,1.6-2.1,2.8c-0.4,1.1-0.9,2.3-1.3,3.4c-0.4,1.2-1,2.1-1.7,2.9c-0.8,0.8-2,1.3-3.7,1.5c-0.5-2.2-0.9-4.6-1.1-7
		c-0.3-2.3-0.4-4.7-0.4-7.1s0.3-4.7,0.8-7l2.6,0.7c0.2-0.8,0.7-1.5,1.5-2.1c0.7-0.6,1.5-1,2.3-1.1c0.3,0,0.6,0,1,0.1
		c0.3,0.1,0.7,0.1,1,0.1c0.5-0.1,0.9-0.2,1.3-0.5s0.9-0.4,1.3-0.5c0.4,0,0.8,0.1,1.1,0.3c0.4,0.3,0.6,0.5,0.8,0.7
		c0.3,0.1,0.6,0.3,0.9,0.4c0.3,0.2,0.5,0.3,0.5,0.6c0,0.3,0,0.6-0.1,0.9s-0.1,0.7-0.1,1c0.1,1.1,0.5,2,1,2.5s1.1,1,1.7,1.4
		s1,1.1,1.3,1.9c-0.4-4-0.3-8,0.3-12c0.5-4,1.2-7.9,2-11.7l-2.4,0.3c-2.9,0.3-5.7,0.8-8.5,1.4s-5.6,1.2-8.4,1.6
		c-3.7,0.6-7.5,1.2-11.4,1.8c-3.9,0.6-7.7,1.3-11.4,2.3c-0.2,0-0.4,0.1-0.8,0.3c-0.3,0.2-0.5,0.3-0.5,0.5
		C-142.2-1267-141.7-1266.3-140.7-1265.8z"/>
	<path class="st11" d="M28.5-1255.8c0.1-0.8,0.4-1.6,0.7-2.2c0.4-0.7,0.9-1,1.6-0.9c0.8,0,1.4,0.8,1.9,2.2c0.5,1.4,0.8,2.9,1.1,4.5
		c0.2,1.6,0.4,2.7,0.5,3.3l0.7,0.3c0.5-0.8,0.8-1.7,0.8-2.7s0.1-1.9,0.1-2.8c0-0.8,0.2-1.5,0.5-2.2s0.8-1.2,1.4-1.6
		c0.4,0.6,1,1.4,1.8,2.3s1.6,1.8,2.3,2.7c0.7,0.9,1,1.7,0.9,2.4c0,0.8-0.2,1.5-0.4,2.3c-0.2,0.7-0.4,1.5-0.6,2.3
		c-0.6,2.6-1.1,4.4-1.8,5.6c-0.6,1.1-1.5,2.1-2.6,3s-2.6,2.1-4.4,3.7c-0.5-0.3-0.8-0.9-0.8-1.6c0-0.8,0-1.4-0.1-1.9
		c-0.9,0.5-1.5,1.2-1.8,2.1s-0.6,1.9-0.9,2.8s-1,1.6-2,2.1c-0.1-3.9,0-7.8,0.1-11.6c0.2-3.9,0.4-7.7,0.6-11.6
		C28.3-1254.3,28.3-1255,28.5-1255.8z M2.9-1191.7c0.4,0.1,0.9,0.2,1.4,0.3s1,0.1,1.5,0.1c1.3,0.1,2.6,0.1,4,0s2.7-0.1,4.1,0
		c1.8,0.1,3.5,0.3,5.2,0.6c1.7,0.3,3.5,0.5,5.3,0.7c1,0.1,2.2,0,3.5-0.1c1.3-0.2,2.4-0.4,3.4-0.7c-0.2-0.6-0.7-1.2-1.5-1.9
		c-0.8-0.6-1.6-1.2-2.2-1.8s-1-1.1-1-1.4c0.1-2,0.3-4,0.5-6s0.4-4,0.5-6c0-0.5-0.1-0.9-0.4-1.5c-0.3-0.5-0.4-1.1-0.4-1.8l0.3-4.7
		c0.1-1.2,0.3-2.3,0.7-3.4c0.4-1,1.4-1.5,3.1-1.4c0.6,0,1.5,0.4,2.8,1.1s2.1,1.4,2.4,1.9c0.1,0.2,0.2,0.9,0.3,2.1
		c0.1,1.3,0.2,2.7,0.3,4.4c0.1,1.7,0.2,3.2,0.2,4.6s0,2.2,0,2.5c0,0.5-0.1,1.1-0.3,1.6s-0.2,1.1-0.3,1.7c0,0.3,0,0.6,0.1,1
		s0.1,0.8,0.2,1.2c0.1,1.3,0.1,2.6,0,4s-0.1,2.7-0.1,4c0,1.7,0,3.5,0.2,5.2c0.1,1.7,0.2,3.4,0.1,5.1c-0.1,1,0.2,1.9,0.7,2.6
		c0.5,0.8,0.8,1.6,0.8,2.6c0,1.1,0,2.1-0.1,3.2s-0.1,2.1-0.1,3.2l1.2-0.7c0.8-3.3,1.6-6.6,2.2-9.9s1.3-6.6,1.8-9.9l1.4,1.1
		c0.9-3,1.6-6,2.2-9.1s1.4-6.2,2.6-9.2c0.2-0.5,0.3-1.1,0.3-1.8c0-0.6,0.1-1.3,0.1-1.9c0-0.7,0.2-1.3,0.5-2c0.3-0.6,0.4-1.3,0.5-2
		c0-0.6,0-1.2-0.1-1.7s-0.1-1-0.1-1.5c0-0.7,0.2-1.3,0.6-2c0.4-0.6,0.6-1.3,0.6-2c0-0.5-0.5-1.2-1.6-2s-2.2-1.5-3.5-2.3
		c-1.2-0.7-2.1-1.2-2.6-1.6c0.3-0.3,1.1-0.8,2.2-1.6c1.1-0.8,2.2-1.5,3.2-2.3s1.5-1.3,1.4-1.5v-0.5v-0.5c0-0.8,0.3-1.6,0.7-2.2
		c0.4-0.7,0.7-1.4,0.9-2.2c0.1-0.5,0.2-1,0.3-1.5s0.2-1,0.4-1.5c0.3-0.7,0.6-1.5,0.9-2.2s0.5-1.5,0.6-2.4c0-0.4,0-0.7-0.1-1.1
		c-0.1-0.3-0.1-0.7-0.1-1.1c0-0.2,0.2-0.8,0.7-1.8s0.9-2.1,1.4-3.5s0.8-2.8,0.8-4.2l0.1-0.9c-0.5-0.9-1.1-1.6-1.9-2.2
		c-0.7-0.6-1.4-1.3-2-2.1c-0.4-0.6-0.8-1.2-1.1-1.7s-0.9-0.8-1.8-1c-0.6-0.2-1.1-0.3-1.5-0.4s-0.6-0.4-0.6-1c0-0.4-0.2-0.7-0.6-0.9
		c-1.1-0.4-1.6-1-1.5-2c-0.3-0.3-0.8-1-1.5-2s-1.3-1.5-1.7-1.5c-2.6-0.1-5.1,0-7.6,0.4s-5,0.8-7.6,1.2l3.3-3.9l-0.2-0.4
		c-1,0.2-2.6,0.6-4.8,1.1c-2.2,0.6-4.7,1.3-7.3,2.1c-2.6,0.8-4.9,1.6-6.9,2.4s-3.3,1.5-3.8,2.1c0.3,0.2,0.6,0.5,0.9,0.6
		c1.4,0.5,2.6,0.9,3.6,1s1.7,0.4,2.1,0.9c0.5,0.5,0.6,1.5,0.5,3.1c-0.1,1.1-0.1,2.1-0.1,3.3c0,1.1,0,2.2-0.1,3.1
		c-0.1,2-0.3,4.1-0.7,6.1c-0.3,2-0.5,4.1-0.7,6.1c-0.1,1.1,0.5,1.9,1.5,2.5c-0.7,0.6-1.2,1.4-1.4,2.4c-0.3,0.9-0.4,1.9-0.5,2.8
		c0,0.8-0.1,1.7,0,2.6c0,0.9,0,1.7,0,2.6c-0.1,1.7-0.3,3.3-0.7,4.9s-0.6,3.3-0.7,4.9c-0.1,2.3-0.1,4.5,0.1,6.8
		c0.2,2.3,0.2,4.5,0.1,6.8c0,0.2-0.3,0.6-0.7,1c-0.5,0.4-0.8,0.8-1,1.2c-0.8,2-1.2,3.6-1.4,4.7c-0.1,1.1-0.3,2-0.5,2.7
		s-0.8,1.4-1.7,2.2c-0.9,0.8-2.5,1.9-4.8,3.3L2.9-1191.7z"/>
</g>
<g id="mask" class="st0">
	<rect x="-751.7" y="-1508.9" class="st12" width="1413.8" height="533.5"/>
	<rect x="-320.5" y="-181.8" class="st1" width="905.6" height="533.5"/>
	<rect id="square-mask" x="-350" y="-424.9" class="st12" width="950" height="950"/>
	<rect id="rect-mask" x="-350" y="-199.4" class="st12" width="950" height="541.2"/>
</g>
<g>
	<g>
		<g>
			<g>
				<g>
					<defs>
						<rect id="SVGID_00000140005547780942913640000000463105679307447734_" width="250" height="142.4"/>
					</defs>
					<clipPath id="SVGID_00000162348788714572766890000009170481695801325210_">
						<use xlink:href="#SVGID_00000140005547780942913640000000463105679307447734_"  style="overflow:visible;"/>
					</clipPath>
					<g id="white-logo" style="clip-path:url(#SVGID_00000162348788714572766890000009170481695801325210_);">
						<g>
							<g>
								<g>
									<g>
										<g>
											<g>
												<g>
													<path class="st14" d="M13.1,108.3c-0.7-3.6-1.5-7.1-1.9-10.7C10.3,89.5,9.4,81.3,9.8,73c0.4-7.1,2.1-13.8,5.1-20.1
														c0.1-0.3,0.4-0.6,0.7-0.8c4.9-4.6,9.8-9.1,14.7-13.8c1.2-1.1,2.3-2.2,2.8-3.9c0.4-1.4,2.1-2.2,3.7-2.2
														c1.3,0,2.6,0,3.9,0.1c0.7,0,1.1-0.2,1.4-0.8c1.5-3,3.1-5.9,4.7-8.8c1.3-2.4,3.5-3.7,5.8-4.7c3.7-1.6,7.4-2.9,11.1-4.4
														c2-0.8,3.9-2,5.8-3c1.5-0.8,3-1.5,4.6-2.2c2.4-1.1,4.4-0.4,6.5,1c2.7,1.8,5.6,3.5,8.3,5.3c1.3,0.8,2.5,1.9,3.8,2.7
														c1.1,0.7,2.2,1.1,3.3,1.7c1,0.6,1.9,1.2,2.8,1.9c1.9,1.7,3.8,3.5,5.7,5.2c0.6,0.6,1.3,1.1,2,1.7
														c0.7-1.4,2.9-1.3,2.8-3.4c0.1-0.1,0.1-0.2,0.2-0.2c2.3-1,2.7-0.7,3.3,1.7c0.2,0.8,0.5,1.5,0.8,2.5c0.1-0.2,0.1-0.1,0,0
														c-0.8,0.8-2.2,1.7-2.2,2.5c0.1,1.5,0.9,2.9,1.6,4.4c1.1,2.4,2.5,4.7,3.3,7.1c1,3.2,1.5,6.7,2.1,10
														c0.4,2.1,0.7,4.2,1,6.2c0.1,0.4,0.1,0.8,0.1,1.2c0,1.9-0.3,2.2-2.3,2.2c-1.3-0.1-2.6-0.1-3.9-0.1
														c-1,0.1-1.6-0.3-1.8-1.3c-0.5-1.4-1.2-2.9-1.4-4.4c-0.2-1.3,0.2-2.7,0.1-4c0-2.4,0-4.9-0.3-7.4
														c-0.1-1.1-0.6-2.3-1.2-3.3c-1-1.9-2.1-3.8-3.2-5.6c-0.6-1-1.4-1.9-0.3-3.3c-2,2.3-3.2-0.1-4.9-0.6
														c0.1,0.3,0.1,0.5,0.1,0.7c1.6,5.1,3.4,10.1,4.8,15.2c0.8,3.2,0.8,6.5,1.2,9.8c0.2,1.7,17.2,3.2,18.5,4.6
														c-1.7,0.9-17.4,0.7-22.2,1.5c-0.6-0.2-1.3-0.2-1.9,0c-1.7,0.4-14.1,3.3-15.6,2.9c-0.4-0.1,10.1-5,10.1-5.6
														c0.1-2.5-1.1-4.2-3.1-5.6c-3.3-2.3-6.6-4.5-10.7-5.1c-2.1-0.3-4.1-0.2-5.9,0.9c-2,1.2-4.1,1.7-6.4,1.5
														c-2.4-0.2-4.7,0.3-6.4,2.5c-1,1.3-2.4,2.4-3.7,3.4c-2.1,1.7-4.2,3.3-6.1,5.1c-0.2,0.6-0.3,1.2-0.6,1.7
														c-1.2,2.5-2.6,4.9-3.7,7.5c-1.4,3.3-2.5,6.6-3.8,9.9c-0.3,0.7-0.2,1.2,0.2,1.9c3,4.2,6.8,7.6,10.8,10.7
														c-4.9-2.1-8.4-6-11.9-10.3c-1.3,3.9-3.5,7.2-3.6,11.1c-0.2,3.5-1.1,6.7-2.5,9.9c-0.4,1-0.3,1.7,0.4,2.6
														c7.6,10.3,17.1,18.4,27.8,25.3c0.4,0.2,0.7,0.5,1.1,0.7c-0.1,0.1-0.1,0.2-0.2,0.3c-2.6-1.4-5.2-2.7-7.7-4.2
														c-5.4-3.1-10.3-6.8-14.9-11c-3.6-3.3-6.3-7.2-9.1-11.1c-0.2-0.3-0.3-0.8-0.2-1.1c2.1-4.4,2.1-9.3,2.9-14
														c0.6-3.4,2.2-6.4,3.7-9.4c0.5-1,0.5-1.6-0.2-2.6c-2.3-3-4.4-6.1-6.6-9.2c-0.3-0.4-0.4-1.1-0.3-1.7
														c1.7-9.4,3.5-18.8,5.3-28.2c0.3-1.4,0.1-2.9,1.6-3.9c0-0.1-0.1-0.3-0.1-0.4c-1.2-0.1-2.4-0.2-3.6-0.3
														c-0.7-0.1-1.5-0.2-2.4-0.4c-0.1,1.8-1.8,2.3-3.2,3c-3.7,1.7-6.4,4.7-9.2,7.5c-0.4,0.5-0.9,1-1.4,1.3
														c-5.8,3.9-7.4,10.1-8.6,16.3c-2.4,13.7-1.6,27.5,0.5,41.2c0,0.2,0,0.5,0.1,0.7C13.4,108.3,13.2,108.3,13.1,108.3z
														 M87.4,50c0.1-0.2,0.2-0.3,0.3-0.5c-0.7-0.5-1.3-1.2-2-1.5c-2-0.9-3.5-2.3-4.5-4.2c-0.5-0.9-1.2-1.2-2.2-1.1
														c-0.9,0.1-1.9,0.1-2.9,0.3c-2.6,0.5-5.2,0.2-7.8-0.3c-1.3-0.2-2.7-0.3-4-0.2c-3.7,0.3-7-0.3-10-2.6
														c-0.9-0.7-2.1-1.2-3.2-1.5c-0.6-0.2-1.6,0-2.1,0.4c-1.6,1.1-3.2,2.3-4.7,3.6c-0.4,0.4-0.8,1-1,1.6
														c-0.9,3.7-1.8,7.5-2.7,11.3c-1.3,5.3-2.5,10.7-3.8,16c-0.1,0.5-0.1,1.2,0.2,1.7c0.8,1.4,1.6,2.7,2.5,4
														c1.1,1.7,2.2,3.3,3.6,5.2c0.8-2.2,1.6-3.9,2-5.8c1-3.9,2.2-7.7,4.4-11c0.9-1.3,1-2.2-0.2-3.5c-1.3-1.4-1.2-1.8,0.3-3.1
														c0.3-0.3,0.9-0.2,1.3-0.3c0.3-0.1,0.6-0.1,0.8-0.3c2.3-2.3,4.7-4.4,7.8-5.6c2.9-1.1,5.7-2.7,8.6-4
														c1.3-0.6,2.8-1.3,4.2-1.4c3.1-0.1,6.3,0.1,9.3,1.3C83.5,49,85.5,49.4,87.4,50z M92.7,25.5c-0.9-0.7-1.6-1.2-2.3-1.7
														c-1.9-1.7-3.9-3.3-5.8-5.1c-1.4-1.3-2.6-2.7-4.3-3.8c-2.6-1.7-5-1.4-7.4-0.4c-6.6,2.6-13.1,5.6-19.8,8.2
														c-4.7,1.8-6.7,6-9.8,9.4c2.3,0.2,4.6,0.2,6.9,0.1c0.3,0,0.6-0.2,0.8-0.4c3.8-3.1,7.6-6.2,10.7-10
														c0.2-0.2,0.6-0.5,0.7-0.4c1.2,0.6,1.6-0.4,2.1-1c0.4-0.4,0.7-0.9,1.1-1.4c0.2,0.6,0.3,1,0.4,1.4
														c0.6-0.4,1.2-0.7,1.7-1.1c0.2,0.4,0.4,0.7,0.6,1c0.7,1.6,1.9,2.5,3.6,2.9c2.8,0.7,5.6,1.5,8.3,2.3
														c0.1,0,0.2-0.1,0.3-0.1c-0.1-0.4-0.1-0.8-0.2-1.5c2.6,0.7,5.1,1.2,7.4,1.8C89.5,26.3,90.9,26.2,92.7,25.5z M56.9,32.9
														c7.5,1.3,14.6,2.6,21.8,3.8c-0.2-1.3-0.2-2.7-1.4-3.5c0,0,0-0.2,0-0.5c1.6,1,3,1.8,4.4,2.8c0.9,0.6,1.5,0.3,1.9-0.5
														c0.4-0.7,0.7-1.4,1.1-2.3c-1.1-0.5-2.3-1.3-3.5-1.5c-3.9-0.6-7.8-1-11.7-1.5c-0.6-0.1-1.2-0.4-1.7-0.8
														c-1.1-0.8-2.2-1.7-3.3-2.6c-0.1,0.3-0.4,0.5-0.3,0.7c0.1,1.1-0.6,1.6-1.4,2.1C60.9,30.2,59.1,31.4,56.9,32.9z
														 M87.9,33.4c0.4,2.9,1,5.7,3.3,7.8c1.3,1.1,2.8,2.1,3.5,3.7c0.3,0.8,0.9,1.4,1.3,2.1c1.6,2.4,3.2,4.8,4.8,7.3
														c0.1-0.1,0.2-0.1,0.3-0.2c-0.1-0.4-0.2-0.8-0.3-1.2c-0.7-1.9-1.5-3.8-2.2-5.7c-1.6-4.1-3.5-8-6.4-11.3
														C91.1,34.4,89.9,33.3,87.9,33.4z"/>
												</g>
											</g>
										</g>
									</g>
								</g>
							</g>
						</g>
						<g>
							<path class="st14" d="M145.4,72.9c2.8-0.9,5.6-1.8,8.8-2.9c-0.3,0.8-0.4,1.1-0.6,1.7c1.4-0.2,2.8-0.4,4.1-0.5
								c0.6-0.1,1.4,0,1.8,0.3c1.6,1.5,3.2,3.1,4.7,4.8c0.4,0.5,0.5,1.4,0.3,2.1c-0.6,2.5-1.2,5-2,7.4c-0.5,1.3-1.5,2.4-2.4,3.8
								c-0.1-0.3-0.1-0.1,0-0.1c3,0.9,2.5,3.2,2.1,5.4c-0.6,2.9-0.9,5.9-2.1,8.5c-1.2,2.7-1.3,5.6-2.2,8.2c-0.1,0.1-0.2,0.3-0.3,0.4
								c-0.2,0-0.4,0-0.6,0c-0.1-4.6-0.2-9.2-0.4-13.7c-0.1-1.6,0-3.3-0.4-4.8c-0.2-0.7-1.5-1.1-2.3-1.6c-0.4,0.6-1,1.1-1,1.7
								c-0.2,2.5-0.3,5.1-0.1,7.6c0.1,0.8,1,1.6,1.8,2.8c-3.8-0.2-7.4-0.3-11-0.5c-0.1-0.1-0.2-0.2-0.3-0.4c3-0.9,2.4-3.9,3.8-5.8
								c0.1-0.2,0.1-0.4,0.1-0.7c0.2-3.4,0.3-6.9,0.5-10.3c0.2-3.3,0.3-6.7,0.5-10c0.1-1.4-0.2-2.3-1.8-2.5c-0.3,0-0.5-0.2-0.7-0.3
								C145.4,73.3,145.4,73.1,145.4,72.9z M154.9,86.5c4.4-3.6,5-7.2,1.4-9.2c-0.2,1.1-0.4,2.2-0.6,3.2c-0.5-0.8-0.6-1.6-0.9-2.3
								c-0.2-0.5-0.7-0.9-1-1.3c-0.3,0.5-0.7,1-0.8,1.6c-0.2,1.9-0.2,3.8-0.3,5.7c0,1.1,0,2.3,0,3.4c0.1,0,0.3,0,0.4,0
								c0.4-0.7,0.7-1.4,1.2-2.4C154.6,85.7,154.8,86.1,154.9,86.5z"/>
							<path class="st14" d="M146,69.2c-0.4,0.5-0.6,0.9-0.9,1.1c-2.1,1.1-2.3,2.9-2.4,4.9c-0.3,6-0.6,11.9-1.1,17.9
								c-0.2,2.1-1,4.1-1.6,6.2c-0.3-0.2-0.6-0.4-1-0.7c-0.4,1.3-0.7,2.6-1.1,3.8c-0.2,0-0.4,0-0.6,0c-0.3-3.1-0.7-6.3-1.1-9.5
								c-0.3,0.2-0.6,0.5-1.1,0.9c-0.1-0.3-0.3-0.7-0.6-1.5c-0.8,1.4-1.4,2.5-2.2,3.8c-0.1-1.2-0.1-2.2-0.2-3.5
								c-1.2,2.9-0.7,5.9-3,8.5c-0.1-1.4-0.1-2.4-0.2-3.9c-1.5,2-2.8,3.7-4.2,5.6c-0.1-1.1-0.2-1.9-0.1-2.8c0-1.2,0.3-2.5-1.8-2.4
								c4.1-1.9,4.1-5.8,5-9.1c0.7-2.3,1.6-4.5,2.3-6.8c0.3-1,0.4-2,0.8-2.9c0.6-1.7,1.1-3.5,1.8-5.2c0.7-1.5,0.6-2.3-0.9-3
								c-0.6-0.3-1.1-0.6-1.7-0.9c0.1-0.2,0.1-0.3,0.1-0.5C135.4,69.2,140.6,69.2,146,69.2z M138.3,74.4c-0.2,0-0.4-0.1-0.6-0.1
								c-1.3,4.4-2.5,8.8-3.8,13.2c2.9,0.5,3.5,0.1,3.6-2.8c0.1-1.1,0.2-2.2,0.3-3.2C137.9,79.2,138.1,76.8,138.3,74.4z"/>
							<path class="st14" d="M121.8,67.8c-0.6,3.6-1.1,6.9-1.7,10.2c-0.1,0.1-0.2,0.1-0.4,0.2c-0.5-1-1-2-1.5-3
								c-0.2,0.3-0.5,0.6-0.8,1.1c-0.5-1.2-1-2.3-1.6-3.5c-0.3,0.6-0.5,0.9-0.7,1.4c-0.4-0.4-0.9-0.7-1.7-1.4
								c-0.5,3.6-0.1,6.8,0.3,10.1c2.7-0.1,1.9-3,3.8-4c0.3,3.9,0.5,7.7,0.8,11.3c-0.2,0.1-0.3,0.1-0.5,0.1
								c-0.4-0.7-0.8-1.4-1.3-2.1c-0.5-0.6-1.1-1-1.8-1.5c-1.4,2.6-0.7,7.2,1.3,9.4c1.8-0.4,2.7-1.5,2.9-3.3
								c0.1-1.1,0.5-2.1,0.9-3.5c1.6,2.4,2,8.7,1.3,12.8c-1.6-0.7-3.2-1.5-4.8-2.3c-1.9-1-1.9-1-2.8,1c-0.1,0.2-0.2,0.4-0.4,0.7
								c-1.6-2.9-4.1-1.3-6.6-1.3c0.3-0.7,0.4-1.3,0.8-1.6c1.3-1,1.3-2.3,1.2-3.8c-0.3-6.3-0.5-12.5-0.7-18.8
								c-0.1-2.3-0.9-4.2-3.2-5.4C110.1,68.7,115.9,68.6,121.8,67.8z"/>
							<path class="st14" d="M93.6,107.3c-0.3-1.2-0.5-2.5-0.9-3.7c-2.2-7.7-3.3-15.6-4-23.5c-0.2-2.4-0.2-4.8-3-5.8
								c-0.1,0-0.1-0.3-0.3-0.7c5.7-1,11.2-2.1,17-3.1c-0.3,3.1-0.6,5.9-0.9,9c-0.5-0.6-1.1-0.9-1.3-1.5c-0.7-1.7-2.2-2.2-3.9-1.3
								c-1.6,0.8-2.4,2-2.1,3.8c0.2,1.7,0.4,3.4,0.6,5.1c2.6-0.4,1.9-3.1,3.8-4.2c0.3,3.9,0.6,7.6,0.9,11.3c-0.2,0-0.3,0.1-0.5,0.1
								c-0.5-0.8-0.9-1.7-1.6-2.4c-0.4-0.4-1-0.6-1.6-0.8c-0.2,0.5-0.6,1-0.6,1.5c0.1,1.9,0.2,3.8,0.3,5.6
								C95.9,100.3,95.2,103.8,93.6,107.3z"/>
						</g>
						<g>
							<g>
								<g>
									<g>
										<g>
											<g>
												<g>
													<path class="st14" d="M237.8,108.3c0-0.2,0-0.5,0.1-0.7c2-13.7,2.9-27.5,0.5-41.2c-1.1-6.3-2.7-12.4-8.6-16.3
														c-0.5-0.4-1-0.9-1.4-1.3c-2.8-2.8-5.5-5.8-9.2-7.5c-1.5-0.7-3.2-1.2-3.2-3c-0.9,0.1-1.6,0.3-2.4,0.4
														c-1.2,0.1-2.4,0.2-3.6,0.3c0,0.1-0.1,0.3-0.1,0.4c1.4,0.9,1.3,2.5,1.6,3.9c1.8,9.4,3.6,18.8,5.3,28.2
														c0.1,0.5,0,1.2-0.3,1.7c-2.1,3.1-4.3,6.2-6.6,9.2c-0.7,0.9-0.7,1.5-0.2,2.6c1.5,3,3.1,6,3.7,9.4
														c0.8,4.7,0.8,9.6,2.9,14c0.1,0.3,0,0.8-0.2,1.1c-2.8,3.9-5.5,7.8-9.1,11.1c-4.6,4.2-9.6,7.8-14.9,11
														c-2.5,1.5-5.1,2.8-7.7,4.2c-0.1-0.1-0.1-0.2-0.2-0.3c0.4-0.2,0.7-0.5,1.1-0.7c10.7-6.8,20.2-15,27.8-25.3
														c0.7-0.9,0.8-1.6,0.4-2.6c-1.4-3.1-2.3-6.4-2.5-9.9c-0.2-4-2.3-7.3-3.6-11.1c-3.5,4.3-7,8.2-11.9,10.4
														c4-3.2,7.8-6.5,10.8-10.7c0.5-0.7,0.5-1.2,0.2-1.9c-1.3-3.3-2.4-6.7-3.8-9.9c-1.1-2.6-2.5-5-3.7-7.5
														c-0.3-0.6-0.4-1.2-0.6-1.7c-1.8-1.8-4-3.4-6.1-5.1c-1.3-1.1-2.7-2.1-3.7-3.4c-1.7-2.2-3.9-2.8-6.4-2.5
														c-2.4,0.2-4.4-0.3-6.4-1.5c-1.9-1.1-3.8-1.2-5.9-0.9c-4.1,0.6-7.4,2.8-10.7,5.1c-2.1,1.4-3.2,3.1-3.1,5.6
														c0,0.6,10.6,5.4,10.1,5.6c-1.5,0.5-13.8-2.5-15.6-2.9c-0.6-0.1-1.4-0.2-1.9,0c-4.8-0.8-20.6-0.6-22.2-1.5
														c1.3-1.4,18.3-2.9,18.5-4.6c0.3-3.3,0.3-6.6,1.2-9.8c1.3-5.1,3.2-10.1,4.8-15.2c0.1-0.2,0.1-0.4,0.1-0.7
														c-1.7,0.4-2.9,2.9-4.9,0.6c1,1.4,0.3,2.3-0.3,3.3c-1.1,1.8-2.2,3.7-3.2,5.6c-0.5,1-1.1,2.2-1.2,3.3
														c-0.2,2.4-0.2,4.9-0.3,7.4c0,1.3,0.3,2.7,0.1,4c-0.2,1.5-1,2.9-1.4,4.4c-0.3,0.9-0.8,1.3-1.8,1.3
														c-1.3-0.1-2.6,0-3.9,0.1c-1.9,0.1-2.2-0.2-2.3-2.2c0-0.4,0-0.8,0.1-1.2c0.3-2.1,0.6-4.2,1-6.2c0.6-3.3,1.1-6.7,2.1-10
														c0.7-2.5,2.2-4.7,3.3-7.1c0.6-1.4,1.5-2.9,1.6-4.4c0-0.8-1.4-1.6-2.2-2.5c-0.1-0.1-0.1-0.2,0,0c0.3-1,0.7-1.7,0.8-2.5
														c0.5-2.4,1-2.7,3.3-1.7c0.1,0.1,0.2,0.2,0.2,0.2c-0.2,2.1,2.1,1.9,2.8,3.4c0.8-0.6,1.4-1.1,2-1.7
														c1.9-1.7,3.8-3.5,5.7-5.2c0.8-0.7,1.8-1.4,2.8-1.9c1.1-0.6,2.3-1.1,3.3-1.7c1.3-0.8,2.5-1.9,3.8-2.7
														c2.7-1.8,5.6-3.5,8.3-5.3c2.1-1.4,4.1-2.1,6.5-1c1.5,0.7,3.1,1.4,4.6,2.2c1.9,1,3.8,2.1,5.8,3
														c3.7,1.6,7.4,2.8,11.1,4.4c2.3,1,4.6,2.3,5.8,4.7c1.6,2.9,3.2,5.8,4.7,8.8c0.3,0.7,0.7,0.9,1.4,0.8
														c1.3-0.1,2.6-0.1,3.9-0.1c1.7,0,3.3,0.8,3.7,2.2c0.5,1.8,1.7,2.8,2.8,3.9c4.8,4.6,9.8,9.2,14.7,13.8
														c0.2,0.2,0.5,0.5,0.7,0.8c3,6.4,4.7,13.1,5.1,20.1c0.4,8.3-0.5,16.5-1.4,24.7c-0.4,3.6-1.2,7.1-1.9,10.7
														C238,108.3,237.9,108.3,237.8,108.3z M169.6,48.3c3-1.2,6.1-1.4,9.3-1.3c1.4,0.1,2.9,0.8,4.2,1.4
														c2.9,1.3,5.7,2.9,8.6,4c3.2,1.2,5.5,3.3,7.8,5.6c0.2,0.2,0.5,0.2,0.8,0.3c0.4,0.1,1,0.1,1.3,0.3
														c1.5,1.3,1.6,1.7,0.3,3.1c-1.1,1.3-1,2.1-0.2,3.5c2.2,3.4,3.4,7.2,4.4,11c0.5,1.8,1.3,3.6,2,5.8
														c1.3-1.9,2.4-3.6,3.6-5.2c0.9-1.3,1.8-2.6,2.5-4c0.3-0.5,0.3-1.2,0.2-1.7c-1.2-5.3-2.5-10.7-3.8-16
														c-0.9-3.8-1.7-7.5-2.7-11.3c-0.1-0.6-0.6-1.2-1-1.6c-1.5-1.3-3.1-2.5-4.7-3.6c-0.6-0.4-1.5-0.6-2.1-0.4
														c-1.1,0.3-2.3,0.8-3.2,1.5c-3,2.3-6.3,2.9-10,2.6c-1.3-0.1-2.7,0-4,0.2c-2.6,0.4-5.2,0.8-7.8,0.3
														c-0.9-0.2-1.9-0.2-2.9-0.3c-0.9-0.1-1.7,0.2-2.2,1.1c-1,1.9-2.5,3.3-4.5,4.2c-0.7,0.3-1.3,1-2,1.5
														c0.1,0.2,0.2,0.3,0.3,0.5C165.8,49.4,167.8,49,169.6,48.3z M163.3,25.8c2.4-0.7,4.8-1.2,7.4-1.8
														c-0.1,0.7-0.1,1.1-0.2,1.5c0.1,0,0.2,0.1,0.3,0.1c2.8-0.8,5.5-1.6,8.3-2.3c1.7-0.4,2.9-1.3,3.6-2.9
														c0.1-0.3,0.3-0.6,0.6-1c0.6,0.3,1.1,0.7,1.7,1.1c0.2-0.5,0.3-0.9,0.4-1.4c0.4,0.5,0.7,1,1.1,1.4c0.6,0.6,1,1.6,2.1,1
														c0.1-0.1,0.5,0.2,0.7,0.4c3.1,3.9,6.8,7,10.7,10c0.2,0.2,0.5,0.4,0.8,0.4c2.3,0,4.5,0,6.9-0.1
														c-3.1-3.4-5.1-7.6-9.8-9.4c-6.7-2.6-13.2-5.6-19.8-8.2c-2.4-1-4.8-1.3-7.4,0.4c-1.7,1.1-2.9,2.4-4.3,3.8
														c-1.8,1.8-3.8,3.4-5.8,5.1c-0.7,0.6-1.4,1.1-2.3,1.7C160.3,26.2,161.8,26.3,163.3,25.8z M188.5,28.9
														c-0.8-0.5-1.5-1-1.4-2.1c0-0.2-0.2-0.4-0.3-0.7c-1.1,0.9-2.2,1.8-3.3,2.6c-0.5,0.4-1.1,0.7-1.7,0.8
														c-3.9,0.5-7.8,0.9-11.7,1.5c-1.2,0.2-2.4,1-3.5,1.5c0.4,0.9,0.7,1.7,1.1,2.3c0.4,0.8,1,1.1,1.9,0.5
														c1.4-0.9,2.8-1.8,4.4-2.8c0,0.4,0.1,0.5,0,0.5c-1.2,0.9-1.2,2.2-1.4,3.5c7.1-1.2,14.3-2.5,21.8-3.8
														C192.2,31.4,190.4,30.2,188.5,28.9z M159,35.7c-2.9,3.4-4.9,7.2-6.4,11.3c-0.7,1.9-1.5,3.8-2.2,5.7
														c-0.2,0.4-0.2,0.8-0.3,1.2c0.1,0.1,0.2,0.1,0.3,0.2c1.6-2.4,3.2-4.8,4.8-7.3c0.4-0.7,1-1.4,1.3-2.1
														c0.7-1.7,2.2-2.6,3.5-3.7c2.3-2.1,2.9-4.9,3.3-7.8C161.3,33.3,160.2,34.4,159,35.7z"/>
												</g>
											</g>
										</g>
									</g>
								</g>
							</g>
						</g>
					</g>
				</g>
			</g>
		</g>
	</g>
</g>
</svg>
