<svg xmlns="http://www.w3.org/2000/svg" viewBox="0 0 196.83 196.83">
  <defs>
    <style>
      .cls-1 {
        fill: #f271b5;
      }

      .cls-2 {
        fill: #fcfdfd;
      }
    </style>
  </defs>
  <title>BLACK ROUND</title>
  <g id="Layer_2" data-name="Layer 2">
    <g id="Layer_1-2" data-name="Layer 1">
      <g id="PAGE1">
        <g id="ROUND_BLACK" data-name="ROUND BLACK">
          <circle cx="98.41" cy="98.41" r="98.41"/>
          <path class="cls-1" d="M166.59,98.41V88.52c0-.53,0-.53-.51-.54h-5a5.77,5.77,0,0,1-.59,0,1.26,1.26,0,0,1-1.25-1.32v-.42c0-.9,0-1.8,0-2.7-.07-1.16.41-1.91,1.82-1.77h18.5a1.29,1.29,0,0,1,1.3,1.19,3.24,3.24,0,0,1,0,.42v3.29A1.31,1.31,0,0,1,179.59,88c-.2,0-.39,0-.59,0h-5.15a.25.25,0,0,0-.27.26c0,.23,0,.45,0,.67q0,9.51,0,19c0,1-.1.92.88.92h5.07a1.33,1.33,0,0,1,1.35,1.34v3.29c0,1.14-.47,1.6-1.58,1.6H161.22c-.25,0-.51,0-.76,0a1.23,1.23,0,0,1-1.19-1.2c0-1.27,0-2.53,0-3.8a1.25,1.25,0,0,1,1.1-1.21,4.48,4.48,0,0,1,.67,0h4.65c.23,0,.45,0,.67,0a.21.21,0,0,0,.21-.2h0c0-.25,0-.51,0-.76Q166.59,103.14,166.59,98.41Z"/>
          <path class="cls-1" d="M130,100.24V86.73a1.29,1.29,0,0,1,1.34-1.33c.45,0,.9,0,1.35,0h.68a.29.29,0,0,0,.31-.31v-.76c0-.45,0-.9,0-1.35A1.24,1.24,0,0,1,135,81.74c.2,0,.39,0,.59,0h14.79A1.22,1.22,0,0,1,151.64,83c0,.48,0,1,0,1.43s-.18.86.12,1.13.7.07,1.06.08,1,0,1.44,0a1.23,1.23,0,0,1,1.29,1.27c0,.23,0,.45,0,.68v26.19a1.25,1.25,0,0,1-1.29,1.27c-.93,0-1.86,0-2.79,0-.28,0-.56,0-.85,0a1.29,1.29,0,0,1-1.29-1.21,6.15,6.15,0,0,1,0-.68v-9c0-.32-.06-.36-.42-.38H136.6a.26.26,0,0,0-.27.25s0,0,0,0c0,.23,0,.45,0,.68v9a1.27,1.27,0,0,1-1.35,1.31c-.45,0-.9,0-1.35,0-.7,0-1.41,0-2.11,0a1.3,1.3,0,0,1-1.45-1.47c0-2.48,0-5,0-7.43Q130,103.2,130,100.24ZM143,96.9h6.07a.27.27,0,0,0,.28-.25h0c0-.18,0-.34,0-.51V88.7c0-.77,0-.74-.74-.74H136.89c-.19,0-.32.08-.33.29v.51q0,3.67,0,7.34c0,.18,0,.34,0,.51a.27.27,0,0,0,.26.27H143Z"/>
          <path class="cls-2" d="M93.22,111.52v2.2a1.25,1.25,0,0,1-.34.93,1.15,1.15,0,0,1-.81.4H76.45a1.21,1.21,0,0,1-1.18-1.2c0-.59,0-1.18,0-1.77a2.24,2.24,0,0,0-.05-.83,1.1,1.1,0,0,0-.58-.07c-.59,0-1.18,0-1.77,0a1.33,1.33,0,0,1-1.51-1.49,2.7,2.7,0,0,0,0-.34V87.22c0-.23,0-.45,0-.68a1.22,1.22,0,0,1,1.17-1.12c.22,0,.45,0,.68,0h1.65a.79.79,0,0,0,.15-.6V83.13a1.36,1.36,0,0,1,.5-1.12,1.07,1.07,0,0,1,.69-.28H91.72a1.19,1.19,0,0,1,1.16,1,3.74,3.74,0,0,1,0,.67v2.09c.19.18.39.12.58.12h1.86c1,0,1.48.49,1.49,1.52,0,1.69,0,3.38,0,5.07a1.35,1.35,0,0,1-.77,1.38,1.49,1.49,0,0,1-.66.12c-1.07,0-2.14,0-3.21,0a1.26,1.26,0,0,1-1.36-1.38c0-1,0-2.08,0-3.13V88.3c0-.28-.06-.32-.35-.33H77.84a.2.2,0,0,0-.22.18v0c0,.2,0,.39,0,.59V108c0,.9-.08.81.81.81H90c.31,0,.37-.05.37-.33v-4.56c0-.2-.09-.31-.3-.31H84.83a4.23,4.23,0,0,1-.76-.05,1.25,1.25,0,0,1-1-1.17c0-.11,0-.23,0-.34V98.86a2.94,2.94,0,0,1,0-.42,1.24,1.24,0,0,1,1-1,4,4,0,0,1,.76,0H95.1a5.11,5.11,0,0,1,.59,0,1.3,1.3,0,0,1,1.18,1.14,4.08,4.08,0,0,1,0,.59v10.82a1.34,1.34,0,0,1-1.45,1.49c-.45,0-.9,0-1.35,0A1.92,1.92,0,0,0,93.22,111.52Z"/>
          <path class="cls-2" d="M107,85.43c.85,0,1.61,0,2.37,0a1.19,1.19,0,0,1,1.16.82,2.1,2.1,0,0,1,.08.67c0,.76,0,1.52,0,2.29,0,.33.06.39.39.4.65,0,1.3,0,1.94,0a3.08,3.08,0,0,1,.59,0,1.23,1.23,0,0,1,1,1.12c0,.39,0,.79,0,1.18a4.06,4.06,0,0,0,.1,1.49,6.08,6.08,0,0,0,1.42.06c.34,0,.68,0,1,0a1.27,1.27,0,0,1,1.34,1.33c0,.65,0,1.3,0,1.94,0,.35,0,.4.37.39,1.45,0,1.2.25,1.2-1.18,0-4.11,0-8.22,0-12.34,0-.23,0-.45,0-.68a1.24,1.24,0,0,1,1.27-1.21c.85,0,1.69,0,2.54,0,.37,0,.73,0,1.1,0A1.29,1.29,0,0,1,126.26,83c0,.18,0,.34,0,.51v29.83c0,.18,0,.34,0,.51a1.25,1.25,0,0,1-1.26,1.22q-1.86,0-3.72,0a1.22,1.22,0,0,1-1.25-1.31c0-.56,0-1.13,0-1.69v-7.6c0-.2,0-.39,0-.59a.22.22,0,0,0-.22-.21c-.45,0-.9,0-1.35,0a8.1,8.1,0,0,1-.93,0,1.2,1.2,0,0,1-1.11-1.1,4.52,4.52,0,0,1,0-.67V99.73a.23.23,0,0,0-.2-.26h-2a3.82,3.82,0,0,1-.67,0,1.27,1.27,0,0,1-1.07-1.23c0-.7,0-1.41,0-2.11,0-.49,0-.5-.53-.5H110a1.58,1.58,0,0,1-.74-.14,1.23,1.23,0,0,1-.75-1.13c0-.59,0-1.18,0-1.77,0-.14,0-.28,0-.42a.2.2,0,0,0-.2-.21h-1.11a.2.2,0,0,0-.2.2v0c0,.25,0,.51,0,.76v20.19c0,.25,0,.51,0,.76a1.24,1.24,0,0,1-1.26,1.22q-1.9,0-3.8,0a1.2,1.2,0,0,1-1.2-1.18c0-.2,0-.39,0-.59V83.56a6.16,6.16,0,0,1,0-.68A1.21,1.21,0,0,1,102,81.76q1.94,0,3.89,0A1.25,1.25,0,0,1,107,83c0,.33,0,.68,0,1S107,84.88,107,85.43Z"/>
          <path class="cls-2" d="M41.32,98.31V83.69c0-.23,0-.45,0-.68a1.26,1.26,0,0,1,1.31-1.27q1.82,0,3.63,0a1.24,1.24,0,0,1,1.32,1.32c0,.62,0,1.23,0,1.86,0,.47,0,.49.47.5h1.77a1.27,1.27,0,0,1,1.41,1.41c0,.73,0,1.46,0,2.2a.25.25,0,0,0,.22.27H56c.74,0,.72,0,.71-.76V87a3.54,3.54,0,0,1,0-.51,1.25,1.25,0,0,1,1.2-1.1c.73,0,1.46,0,2.2,0,.49,0,.51,0,.51-.53s0-1,0-1.52a3,3,0,0,1,.07-.67,1.19,1.19,0,0,1,1.14-.95c1.27,0,2.54,0,3.8,0a1.22,1.22,0,0,1,1.2,1.18c0,.22,0,.45,0,.68v29.66c0,.18,0,.34,0,.51a1.29,1.29,0,0,1-1.26,1.31c-.51,0-1,0-1.52,0-.7,0-1.41,0-2.11,0a1.31,1.31,0,0,1-1.33-1.29s0,0,0,0V92.62c0-.44,0-.45-.5-.46H59.6c-.28,0-.35.08-.36.35s0,.79,0,1.18c0,.23,0,.45,0,.68a1.23,1.23,0,0,1-1.1,1.2,3.92,3.92,0,0,1-.59,0c-2.23,0-4.45,0-6.67,0-1.1,0-1.83-.53-1.75-1.73,0-.39,0-.79,0-1.18,0-.9.07-.78-.84-.79h-.42a.24.24,0,0,0-.26.23h0c0,.25,0,.51,0,.76V113.1c0,.25,0,.51,0,.76a1.22,1.22,0,0,1-1.18,1.2c-.59,0-1.18,0-1.77,0s-1.35,0-2,0a1.32,1.32,0,0,1-1.28-1.3v-.68Q41.32,105.7,41.32,98.31Z"/>
          <path class="cls-2" d="M23.34,98.31V88.93c0-.25,0-.51,0-.76a.16.16,0,0,0-.15-.17,5.62,5.62,0,0,0-.59,0H17.84a5.6,5.6,0,0,1-.68,0A1.26,1.26,0,0,1,16,86.67c0-1.21,0-2.42,0-3.63a1.27,1.27,0,0,1,1.36-1.29H35.68c.23,0,.45,0,.68,0a1.27,1.27,0,0,1,1.23,1.17,2.29,2.29,0,0,1,0,.25c0,1.13,0,2.25,0,3.38A1.28,1.28,0,0,1,36.18,88c-1.58,0-3.15,0-4.73,0-.35,0-.8-.15-1.06.09s-.1.69-.1,1.06v19.27c0,.46,0,.47.48.47h5a5.57,5.57,0,0,1,.67,0,1.28,1.28,0,0,1,1.15,1.24v3.46c0,1-.47,1.47-1.5,1.5H18c-.25,0-.51,0-.76,0A1.31,1.31,0,0,1,16,113.77V113c0-.93,0-1.86,0-2.79a1.28,1.28,0,0,1,1.32-1.35c.25,0,.51,0,.76,0h4.4a6.62,6.62,0,0,0,.67,0,.21.21,0,0,0,.21-.22c0-.23,0-.45,0-.67Z"/>
        </g>
      </g>
    </g>
  </g>
</svg>
