<svg width="1000" height="1000" viewBox="0 0 1000 1000" fill="none" xmlns="http://www.w3.org/2000/svg">
<path d="M1000 500C1000 776.142 776.142 1000 500 1000C223.858 1000 0 776.142 0 500C0 223.858 223.858 0 500 0C776.142 0 1000 223.858 1000 500Z" fill="#014F59"/>
<path d="M295.571 637.216C310.463 708.667 372.858 765.593 453.039 781.953V860.855H546.994V782.146C639.657 763.638 708.806 691.012 708.806 604.236C708.806 557.374 700.547 528.748 674.876 500.184C644.781 461.671 598.06 437.901 547.469 428.884V483.837L420.631 395.48L453.513 372.648L547.469 307.416V363.266C547.473 363.257 548.41 362.784 704.937 362.784C690.047 291.333 627.65 234.408 547.469 218.045V139.146H453.513V217.855C360.851 236.361 291.703 308.989 291.703 395.765C291.703 442.627 299.963 471.253 325.631 499.817C355.729 538.328 402.449 562.099 453.039 571.117V516.163L579.877 604.52L546.994 627.351L453.039 692.584V636.735C453.035 636.743 452.099 637.216 295.571 637.216Z" fill="#00FF9C"/>
<circle cx="502.424" cy="501.58" r="430.958" stroke="#00FF9C" stroke-width="62.1339"/>
</svg>
