<svg width="256" height="256" viewBox="0 0 256 256" fill="none" xmlns="http://www.w3.org/2000/svg">
<circle cx="128" cy="128" r="128" fill="#9013FE"/>
<path fill-rule="evenodd" clip-rule="evenodd" d="M94.9791 58L175.429 61.5967L208 133.981L162.048 200.135L81.1611 194.954L48 116.526L94.9791 58ZM153.96 99.724L95.6547 125.203L145.502 163.752L153.96 99.724ZM147.209 86.9566L100.614 66.8898L90.8262 109.081L147.209 86.9566ZM135.399 173.451L84.7591 137.284L85.984 186.293L135.399 173.451ZM199.911 133.821L165.403 98.797L156.295 166.147L199.911 133.821ZM147.272 181.329L104.564 192.494L154.788 195.711L147.272 181.329ZM193.168 149.712L155.783 177.567L163.211 192.088L193.168 149.712ZM175.484 71.7101L168.223 86.6197L195.251 114.099L175.484 71.7101ZM166.437 64.5754L118.977 62.6485L158.126 79.776L166.437 64.5754ZM88.0483 71.4702L54.8052 113.456L77.0309 118.165L88.0483 71.4702ZM75.6908 126.401L53.3579 121.671L76.6605 176.581L75.6908 126.401Z" fill="white"/>
</svg>
