<svg xmlns="http://www.w3.org/2000/svg" width="256" height="256" viewBox="0 0 256 256" version="1.1"><path d="M 104 14.073 C 63.220 22.836, 29.665 53.110, 17.075 92.500 C 12.736 106.075, 11.684 114.727, 12.252 132.167 C 12.862 150.871, 15.498 162.086, 22.957 177.699 C 42.774 219.185, 82.090 244, 128 244 C 159.966 244, 186.705 233.019, 209.575 210.500 C 224.520 195.784, 235.490 177.006, 240.667 157.277 C 243.817 145.274, 244.917 123.710, 243.036 110.812 C 238.586 80.285, 220.377 50.755, 194.862 32.685 C 185.524 26.072, 168.916 18.390, 157.337 15.327 C 143.416 11.645, 118.072 11.050, 104 14.073 M 108.016 20.534 C 72.215 27.011, 40.863 52.383, 26.940 86.145 C 20.628 101.451, 19.536 107.676, 19.595 128 C 19.655 148.496, 20.683 154.124, 27.351 170.479 C 37.456 195.266, 60.734 218.544, 85.521 228.649 C 98.897 234.103, 108.091 236.103, 122.605 236.718 C 143.653 237.609, 159.315 234.376, 177 225.491 C 206.702 210.567, 226.818 184.461, 235.167 150 C 236.032 146.433, 236.470 138.525, 236.416 127.500 C 236.341 112.521, 236.022 109.346, 233.734 100.794 C 222.609 59.210, 188.683 27.747, 147.119 20.468 C 136.881 18.675, 118.119 18.707, 108.016 20.534 M 83.500 59.892 C 73.849 62.496, 66.414 68.419, 62.311 76.776 C 59.930 81.624, 59.504 83.725, 59.525 90.500 C 59.552 99.330, 61.384 104.397, 67.010 111.205 C 70.817 115.812, 80.804 120.834, 87.808 121.664 C 92.313 122.197, 93.318 122.714, 94.575 125.145 C 95.878 127.665, 95.877 128.338, 94.562 130.880 C 93.278 133.363, 92.299 133.857, 87.468 134.461 C 79.327 135.478, 70.394 140.438, 65.760 146.515 C 50.465 166.569, 63.414 195.178, 88.500 196.757 C 105.466 197.824, 119.596 185.795, 121.622 168.559 C 122.197 163.665, 122.672 162.704, 125.143 161.426 C 127.666 160.122, 128.337 160.123, 130.880 161.438 C 133.354 162.717, 133.858 163.706, 134.450 168.443 C 135.365 175.766, 140.171 185.135, 145.239 189.473 C 164.400 205.873, 194.746 193.494, 196.755 168.457 C 198.118 151.485, 185.773 136.615, 168.532 134.461 C 163.701 133.857, 162.722 133.363, 161.438 130.880 C 160.123 128.338, 160.122 127.665, 161.425 125.145 C 162.672 122.733, 163.696 122.196, 168.028 121.683 C 179.153 120.366, 189.087 113.596, 193.710 104.182 C 197.371 96.726, 197.653 85.077, 194.348 77.878 C 191.306 71.254, 185.687 65.484, 179.161 62.284 C 174.389 59.945, 172.244 59.513, 165.500 59.530 C 158.334 59.549, 156.844 59.904, 151.204 62.939 C 141.659 68.076, 135.914 76.589, 134.431 87.794 C 133.839 92.270, 133.288 93.317, 130.865 94.570 C 128.332 95.879, 127.666 95.879, 125.120 94.562 C 122.646 93.283, 122.142 92.294, 121.550 87.557 C 120.139 76.264, 113.283 66.704, 103.194 61.961 C 98.384 59.700, 88.183 58.628, 83.500 59.892 M 82.481 73.339 C 68.789 79.551, 68.506 100.116, 82.018 107.009 C 88.496 110.314, 97.944 109.073, 103.320 104.212 C 108.894 99.171, 110.581 89.020, 107.009 82.018 C 103.818 75.763, 98.881 72.635, 91.630 72.275 C 87.937 72.091, 84.300 72.514, 82.481 73.339 M 157.500 73.665 C 147.832 78.773, 144.410 89.019, 149.121 98.750 C 154.676 110.226, 170.809 112.388, 179.683 102.847 C 184.185 98.007, 185.627 88.018, 182.647 82.312 C 180.701 78.586, 176.172 74.381, 172.685 73.064 C 168.615 71.526, 160.976 71.828, 157.500 73.665 M 115.531 108.956 C 114.050 111.092, 111.092 114.050, 108.956 115.531 L 105.072 118.222 107.036 122.071 C 109.498 126.896, 109.502 129.096, 107.056 133.890 L 105.112 137.701 108.875 140.531 C 110.945 142.088, 113.912 145.055, 115.469 147.125 L 118.299 150.888 122.110 148.944 C 126.843 146.529, 129.074 146.506, 133.790 148.822 L 137.500 150.645 144.091 143.949 L 150.682 137.253 148.883 133.877 C 146.583 129.561, 146.562 126.828, 148.792 122.210 L 150.583 118.500 143.876 111.931 L 137.169 105.361 133.834 107.139 C 129.485 109.457, 126.770 109.434, 122.071 107.036 L 118.222 105.072 115.531 108.956 M 82.384 148.857 C 76.413 151.650, 72.754 156.923, 72.206 163.526 C 71.623 170.564, 72.371 173.214, 76.163 177.533 C 80.430 182.393, 84.488 184.286, 90.640 184.286 C 104.156 184.286, 112.810 170.402, 107.200 157.719 C 103.213 148.705, 91.586 144.553, 82.384 148.857 M 157.168 149.146 C 143.687 155.819, 143.869 175.662, 157.477 182.738 C 161.305 184.729, 169.703 184.726, 173.523 182.732 C 176.864 180.988, 181.169 176.641, 182.914 173.247 C 184.259 170.634, 184.579 163.442, 183.507 159.926 C 180.300 149.400, 167.356 144.103, 157.168 149.146" stroke="none" fill="#5f18ec" fill-rule="evenodd"/><path d="M -0 128.004 L -0 256.008 128.250 255.754 L 256.500 255.500 256.754 127.750 L 257.008 0 128.504 0 L 0 0 -0 128.004 M 0.485 128.500 C 0.485 198.900, 0.604 227.553, 0.750 192.172 C 0.896 156.792, 0.896 99.192, 0.750 64.172 C 0.604 29.153, 0.485 58.100, 0.485 128.500 M 104 14.073 C 63.220 22.836, 29.665 53.110, 17.075 92.500 C 12.736 106.075, 11.684 114.727, 12.252 132.167 C 12.862 150.871, 15.498 162.086, 22.957 177.699 C 42.774 219.185, 82.090 244, 128 244 C 159.966 244, 186.705 233.019, 209.575 210.500 C 224.520 195.784, 235.490 177.006, 240.667 157.277 C 243.817 145.274, 244.917 123.710, 243.036 110.812 C 238.586 80.285, 220.377 50.755, 194.862 32.685 C 185.524 26.072, 168.916 18.390, 157.337 15.327 C 143.416 11.645, 118.072 11.050, 104 14.073 M 108.016 20.534 C 72.215 27.011, 40.863 52.383, 26.940 86.145 C 20.628 101.451, 19.536 107.676, 19.595 128 C 19.655 148.496, 20.683 154.124, 27.351 170.479 C 37.456 195.266, 60.734 218.544, 85.521 228.649 C 98.897 234.103, 108.091 236.103, 122.605 236.718 C 143.653 237.609, 159.315 234.376, 177 225.491 C 206.702 210.567, 226.818 184.461, 235.167 150 C 236.032 146.433, 236.470 138.525, 236.416 127.500 C 236.341 112.521, 236.022 109.346, 233.734 100.794 C 222.609 59.210, 188.683 27.747, 147.119 20.468 C 136.881 18.675, 118.119 18.707, 108.016 20.534 M 83.500 59.892 C 73.849 62.496, 66.414 68.419, 62.311 76.776 C 59.930 81.624, 59.504 83.725, 59.525 90.500 C 59.552 99.330, 61.384 104.397, 67.010 111.205 C 70.817 115.812, 80.804 120.834, 87.808 121.664 C 92.313 122.197, 93.318 122.714, 94.575 125.145 C 95.878 127.665, 95.877 128.338, 94.562 130.880 C 93.278 133.363, 92.299 133.857, 87.468 134.461 C 79.327 135.478, 70.394 140.438, 65.760 146.515 C 50.465 166.569, 63.414 195.178, 88.500 196.757 C 105.466 197.824, 119.596 185.795, 121.622 168.559 C 122.197 163.665, 122.672 162.704, 125.143 161.426 C 127.666 160.122, 128.337 160.123, 130.880 161.438 C 133.354 162.717, 133.858 163.706, 134.450 168.443 C 135.365 175.766, 140.171 185.135, 145.239 189.473 C 164.400 205.873, 194.746 193.494, 196.755 168.457 C 198.118 151.485, 185.773 136.615, 168.532 134.461 C 163.701 133.857, 162.722 133.363, 161.438 130.880 C 160.123 128.338, 160.122 127.665, 161.425 125.145 C 162.672 122.733, 163.696 122.196, 168.028 121.683 C 179.153 120.366, 189.087 113.596, 193.710 104.182 C 197.371 96.726, 197.653 85.077, 194.348 77.878 C 191.306 71.254, 185.687 65.484, 179.161 62.284 C 174.389 59.945, 172.244 59.513, 165.500 59.530 C 158.334 59.549, 156.844 59.904, 151.204 62.939 C 141.659 68.076, 135.914 76.589, 134.431 87.794 C 133.839 92.270, 133.288 93.317, 130.865 94.570 C 128.332 95.879, 127.666 95.879, 125.120 94.562 C 122.646 93.283, 122.142 92.294, 121.550 87.557 C 120.139 76.264, 113.283 66.704, 103.194 61.961 C 98.384 59.700, 88.183 58.628, 83.500 59.892 M 82.481 73.339 C 68.789 79.551, 68.506 100.116, 82.018 107.009 C 88.496 110.314, 97.944 109.073, 103.320 104.212 C 108.894 99.171, 110.581 89.020, 107.009 82.018 C 103.818 75.763, 98.881 72.635, 91.630 72.275 C 87.937 72.091, 84.300 72.514, 82.481 73.339 M 157.500 73.665 C 147.832 78.773, 144.410 89.019, 149.121 98.750 C 154.676 110.226, 170.809 112.388, 179.683 102.847 C 184.185 98.007, 185.627 88.018, 182.647 82.312 C 180.701 78.586, 176.172 74.381, 172.685 73.064 C 168.615 71.526, 160.976 71.828, 157.500 73.665 M 115.531 108.956 C 114.050 111.092, 111.092 114.050, 108.956 115.531 L 105.072 118.222 107.036 122.071 C 109.498 126.896, 109.502 129.096, 107.056 133.890 L 105.112 137.701 108.875 140.531 C 110.945 142.088, 113.912 145.055, 115.469 147.125 L 118.299 150.888 122.110 148.944 C 126.843 146.529, 129.074 146.506, 133.790 148.822 L 137.500 150.645 144.091 143.949 L 150.682 137.253 148.883 133.877 C 146.583 129.561, 146.562 126.828, 148.792 122.210 L 150.583 118.500 143.876 111.931 L 137.169 105.361 133.834 107.139 C 129.485 109.457, 126.770 109.434, 122.071 107.036 L 118.222 105.072 115.531 108.956 M 82.384 148.857 C 76.413 151.650, 72.754 156.923, 72.206 163.526 C 71.623 170.564, 72.371 173.214, 76.163 177.533 C 80.430 182.393, 84.488 184.286, 90.640 184.286 C 104.156 184.286, 112.810 170.402, 107.200 157.719 C 103.213 148.705, 91.586 144.553, 82.384 148.857 M 157.168 149.146 C 143.687 155.819, 143.869 175.662, 157.477 182.738 C 161.305 184.729, 169.703 184.726, 173.523 182.732 C 176.864 180.988, 181.169 176.641, 182.914 173.247 C 184.259 170.634, 184.579 163.442, 183.507 159.926 C 180.300 149.400, 167.356 144.103, 157.168 149.146" stroke="none" fill="#fbfafb" fill-rule="evenodd"/></svg>
