<svg width="400" height="400" viewBox="0 0 400 400" fill="none" xmlns="http://www.w3.org/2000/svg">
<path fill-rule="evenodd" clip-rule="evenodd" d="M319.79 233.285L271.022 301.027C263.921 310.905 250.071 315.256 232.434 313.846C207.93 311.728 175.378 298.792 144.247 276.566C134.095 269.406 124.505 261.492 115.558 252.891C99.0623 236.974 86.9378 220.414 80.445 205.648C73.3435 189.42 73.1087 175.073 80.2101 165.195L129.094 97.453C136.198 87.5749 149.929 83.2242 167.685 84.6343C192.189 86.634 224.623 99.6886 255.87 121.798C287.003 144.026 309.85 170.486 319.556 192.832C320.394 194.749 321.136 196.638 321.783 198.5C326.609 212.387 326.053 224.574 319.79 233.285Z" fill="url(#paint0_linear_304_2)"/>
<path fill-rule="evenodd" clip-rule="evenodd" d="M311.979 196.124C302.627 174.837 280.727 149.786 250.899 128.618C221.188 107.449 190.295 94.8659 166.975 92.9841C152.77 91.8073 141.524 94.3967 135.844 102.275L135.605 102.744C130.278 110.625 131.463 121.798 137.026 134.499C146.378 155.903 168.276 180.951 197.99 202.12C227.698 223.289 258.594 235.874 281.911 237.756C295.879 238.812 306.89 236.344 312.688 228.934L313.045 228.347C318.727 220.584 317.542 209.06 311.979 196.124ZM268.299 196.595C265.696 200.238 260.37 201.3 253.859 200.71C242.139 199.769 226.751 193.419 211.836 182.836C196.921 172.25 185.913 159.782 181.297 149.081C178.693 143.085 177.983 137.793 180.587 134.145C183.193 130.499 188.519 129.441 195.146 129.912C206.745 130.971 222.254 137.204 237.05 147.789C251.965 158.372 262.973 170.955 267.59 181.659C270.312 187.655 271.022 192.947 268.299 196.595V196.595Z" fill="white"/>
<defs>
<linearGradient id="paint0_linear_304_2" x1="159.873" y1="81.5982" x2="239.204" y2="317.218" gradientUnits="userSpaceOnUse">
<stop stop-color="#27B0E6"/>
<stop offset="0.044" stop-color="#49A1DB"/>
<stop offset="0.11841" stop-color="#7D8ACA"/>
<stop offset="0.21562" stop-color="#A279BD"/>
<stop offset="0.29605" stop-color="#BA6FB6"/>
<stop offset="0.37529" stop-color="#C26BB3"/>
<stop offset="0.46788" stop-color="#D563AD"/>
<stop offset="0.57967" stop-color="#E65BA7"/>
<stop offset="0.70861" stop-color="#F156A3"/>
<stop offset="0.82293" stop-color="#F853A1"/>
<stop offset="1" stop-color="#FA52A0"/>
</linearGradient>
</defs>
</svg>
