<?xml version="1.0" encoding="UTF-8"?><svg id="Layer_2" xmlns="http://www.w3.org/2000/svg" xmlns:xlink="http://www.w3.org/1999/xlink" viewBox="0 0 256 256"><defs><linearGradient id="linear-gradient" x1="68.3" y1="128" x2="187.7" y2="128" gradientUnits="userSpaceOnUse"><stop offset="0" stop-color="#ac84f7"/><stop offset="1" stop-color="#7045bf"/></linearGradient></defs><g id="Layer_1-2"><g><rect width="256" height="256" style="fill:#17101f;"/><g><path d="m74.34,47.48l16.35-1.78,12.28-11.26h13.92l18.09-6.47,8.91,6.47s11.73-.25,13.92,0,10,7.71,10,7.71c0,0,7.82,3.91,9.24,5.33s4.62,21.32,4.62,21.32v140.95l-55.92,18.28-51.4-22.08V47.48Z" style="fill:#fff; opacity:.15;"/><rect x="128.22" y="34.36" width="13.5" height="187.27" transform="translate(44.27 -34.4) rotate(17.34)" style="fill:#fff; opacity:.35;"/><rect x="145.28" y="38.4" width="4.73" height="182.93" transform="translate(45.41 -38.09) rotate(17.34)" style="fill:#fff; opacity:.35;"/><path d="m187.7,41.61v172.79c0,1.62-1.31,2.94-2.94,2.94h-14.1c-1.38,0-2.57.96-2.87,2.31-.76,3.49-2.89,7.35-7.74,9.77-4.65,2.33-8.03.91-10.74-.22-1.56-.65-2.91-1.22-4.57-1.22-9.12,0-14.14,8.88-14.19,8.97h0c-1.12,2.03-4.04,2.02-5.15,0h0c-.04-.08-5.06-8.97-14.18-8.97-1.66,0-3.01.56-4.57,1.22-2.71,1.14-6.09,2.55-10.74.22-4.84-2.42-6.98-6.28-7.74-9.77-.29-1.35-1.49-2.31-2.86-2.31h-14.1c-1.62,0-2.94-1.31-2.94-2.94V41.61c0-1.62,1.31-2.94,2.94-2.94h14.1c1.38,0,2.57-.96,2.86-2.31.76-3.49,2.89-7.35,7.74-9.77,4.65-2.33,8.03-.91,10.74.22,1.56.65,2.91,1.22,4.57,1.22,9.12,0,14.14-8.88,14.19-8.97h0c1.12-2.03,4.04-2.02,5.15,0h0c.04.08,5.06,8.97,14.18,8.97,1.66,0,3.01-.56,4.57-1.22,2.71-1.13,6.09-2.55,10.74-.22,4.84,2.42,6.98,6.28,7.73,9.76.29,1.35,1.49,2.31,2.87,2.31h14.1c1.62,0,2.94,1.31,2.94,2.94Zm-10.66,162.42V51.97s-18.65,0-18.65,0l.72-3.25c.11-.55.99-5.68-4.29-8.31-2.04-1.02-3.21-.53-5.33.35-1.62.68-3.64,1.52-6.23,1.52-7.46,0-12.54-4.41-15.26-7.64-2.72,3.23-7.8,7.64-15.27,7.64-2.58,0-4.6-.84-6.22-1.52-2.12-.89-3.29-1.38-5.33-.35-5.28,2.64-4.41,7.76-4.29,8.34l.72,3.25-3.33-.02h-15.32s0,152.06,0,152.06h18.64s-.72,3.25-.72,3.25c-.11.55-.98,5.68,4.29,8.31,2.04,1.02,3.21.53,5.33-.35,1.62-.68,3.64-1.52,6.22-1.52,7.46,0,12.55,4.41,15.27,7.64,2.72-3.23,7.8-7.64,15.26-7.64,2.58,0,4.6.84,6.23,1.52,2.12.89,3.29,1.37,5.33.35,5.28-2.64,4.4-7.76,4.28-8.34l-.72-3.25,3.33.02h15.32Z" style="fill:url(#linear-gradient);"/></g></g></g></svg>