<?xml version="1.0" encoding="UTF-8"?>
<!DOCTYPE svg PUBLIC "-//W3C//DTD SVG 1.1//EN" "http://www.w3.org/Graphics/SVG/1.1/DTD/svg11.dtd">
<svg xmlns="http://www.w3.org/2000/svg" version="1.1" width="256px" height="256px" style="shape-rendering:geometricPrecision; text-rendering:geometricPrecision; image-rendering:optimizeQuality; fill-rule:evenodd; clip-rule:evenodd" xmlns:xlink="http://www.w3.org/1999/xlink">
<g><path style="opacity:1" fill="#fefefe" d="M -0.5,-0.5 C 84.8333,-0.5 170.167,-0.5 255.5,-0.5C 255.5,84.8333 255.5,170.167 255.5,255.5C 170.167,255.5 84.8333,255.5 -0.5,255.5C -0.5,170.167 -0.5,84.8333 -0.5,-0.5 Z"/></g>
<g><path style="opacity:1" fill="#fdb70c" d="M 120.5,13.5 C 171.963,13.1314 209.13,35.7981 232,81.5C 250.593,132.96 239.76,177.127 199.5,214C 160.091,242.429 118.424,246.096 74.5,225C 40.9485,205.42 21.7818,176.253 17,137.5C 14.2884,89.7538 33.1217,53.2538 73.5,28C 88.387,20.202 104.054,15.3686 120.5,13.5 Z"/></g>
<g><path style="opacity:1" fill="#fefefc" d="M 113.5,24.5 C 158.827,20.6317 193.661,37.6317 218,75.5C 238.24,116.237 234.907,154.904 208,191.5C 179.339,222.942 144.172,234.109 102.5,225C 54.5035,208.991 29.1702,175.658 26.5,125C 29.5778,79.1354 52.2445,47.4687 94.5,30C 100.911,27.9853 107.244,26.152 113.5,24.5 Z"/></g>
<g><path style="opacity:1" fill="#feb705" d="M 116.5,45.5 C 159.817,42.3883 189.651,60.7216 206,100.5C 216.985,146.02 201.818,179.52 160.5,201C 119.947,214.592 86.7805,204.425 61,170.5C 47.0519,146.626 44.7186,121.626 54,95.5C 66.417,68.2436 87.2504,51.577 116.5,45.5 Z"/></g>
<g><path style="opacity:1" fill="#fefefd" d="M 134.5,191.5 C 134.5,186.167 134.5,180.833 134.5,175.5C 129.5,175.5 124.5,175.5 119.5,175.5C 119.5,180.833 119.5,186.167 119.5,191.5C 115.5,191.5 111.5,191.5 107.5,191.5C 107.5,186.167 107.5,180.833 107.5,175.5C 98.8333,175.5 90.1667,175.5 81.5,175.5C 81.5,167.833 81.5,160.167 81.5,152.5C 84.1667,152.5 86.8333,152.5 89.5,152.5C 89.5,135.167 89.5,117.833 89.5,100.5C 86.8333,100.5 84.1667,100.5 81.5,100.5C 81.5,92.8333 81.5,85.1667 81.5,77.5C 90.1667,77.5 98.8333,77.5 107.5,77.5C 107.5,71.8333 107.5,66.1667 107.5,60.5C 111.5,60.5 115.5,60.5 119.5,60.5C 119.5,66.1667 119.5,71.8333 119.5,77.5C 124.167,77.5 128.833,77.5 133.5,77.5C 133.5,71.8333 133.5,66.1667 133.5,60.5C 137.833,60.5 142.167,60.5 146.5,60.5C 146.5,66.5 146.5,72.5 146.5,78.5C 176.134,81.4672 191.801,97.8005 193.5,127.5C 191.995,157.338 176.329,173.338 146.5,175.5C 146.5,180.833 146.5,186.167 146.5,191.5C 142.5,191.5 138.5,191.5 134.5,191.5 Z"/></g>
<g><path style="opacity:1" fill="#fdb707" d="M 127.5,100.5 C 145.271,99.939 153.604,108.606 152.5,126.5C 154.262,145.07 145.928,153.736 127.5,152.5C 127.5,135.167 127.5,117.833 127.5,100.5 Z"/></g>
<g><path style="opacity:1" fill="#f9d46b" d="M 134.5,191.5 C 133.513,186.695 133.179,181.695 133.5,176.5C 129.167,176.5 124.833,176.5 120.5,176.5C 120.821,181.695 120.487,186.695 119.5,191.5C 119.5,186.167 119.5,180.833 119.5,175.5C 124.5,175.5 129.5,175.5 134.5,175.5C 134.5,180.833 134.5,186.167 134.5,191.5 Z"/></g>
</svg>
