<svg width="256" height="256" viewBox="0 0 256 256" fill="none" xmlns="http://www.w3.org/2000/svg">
<path d="M128 256C198.692 256 256 198.692 256 128C256 57.3076 198.692 0 128 0C57.3076 0 0 57.3076 0 128C0 198.692 57.3076 256 128 256Z" fill="#1C68F3"/>
<path fill-rule="evenodd" clip-rule="evenodd" d="M204.8 98.1333V140.8H76.8V140.8L71.2929 140.801C77.1216 166.689 100.254 186.027 127.903 186.027C150.761 186.027 170.533 172.81 179.991 153.601L204.8 153.6V189.44C204.8 197.923 197.923 204.8 189.44 204.8H66.56C58.0769 204.8 51.2 197.923 51.2 189.44V98.1333H204.8ZM165.259 153.601C157.113 165.51 143.421 173.325 127.903 173.325C112.385 173.325 98.6924 165.51 90.5466 153.601H165.259ZM95.1467 108.373C83.1096 108.373 73.1515 117.274 71.4953 128.853L84.5883 128.854C86.0279 124.397 90.2108 121.173 95.1467 121.173C100.083 121.173 104.265 124.397 105.705 128.854L118.798 128.853C117.142 117.274 107.184 108.373 95.1467 108.373V108.373ZM160.853 108.373C148.816 108.373 138.858 117.274 137.202 128.853L150.295 128.854C151.735 124.397 155.918 121.173 160.853 121.173C165.789 121.173 169.972 124.397 171.412 128.854L184.505 128.853C182.849 117.274 172.89 108.373 160.853 108.373ZM189.44 51.2C197.923 51.2 204.8 58.0769 204.8 66.56V85.3333H51.2V66.56C51.2 58.0769 58.0769 51.2 66.56 51.2H189.44Z" fill="white"/>
</svg>
