<svg width="876" height="876" viewBox="0 0 876 876" fill="none" xmlns="http://www.w3.org/2000/svg">
<circle cx="438" cy="438" r="400" fill="#8237E2"/>
<path fill-rule="evenodd" clip-rule="evenodd" d="M312.74 230.763C320.097 221.655 330.17 215.474 341.2 212.886C347.682 210.583 354.662 209.329 361.935 209.329H610.07C644.273 209.329 672 237.056 672 271.259V329.254C672 332.463 671.756 335.615 671.286 338.692L671.53 338.618V341.711C671.53 374.231 645.167 400.594 612.647 400.594H602.256C596.733 400.594 592.256 405.071 592.256 410.594V561.882C592.256 575.927 587.236 589.509 578.101 600.178L540.602 643.976C539.859 644.906 539.098 645.825 538.32 646.728C526.616 660.308 512.268 667.201 497.232 667.201H367.846C352.811 667.201 338.462 660.308 326.759 646.728C314.66 632.69 312.74 615.124 312.74 601.391V577.233C312.74 550.944 291.429 529.634 265.141 529.634C252.517 529.634 240.41 524.619 231.483 515.692L219.166 503.375C209.455 493.664 204 480.493 204 466.76V390.696C204 378.855 208.058 367.371 215.498 358.16C222.939 348.948 312.74 230.763 312.74 230.763ZM341.222 271.259C341.222 259.82 350.496 250.547 361.935 250.547H610.07C621.509 250.547 630.782 259.82 630.782 271.259V329.254C630.782 340.693 621.509 349.966 610.07 349.966H556.217C544.778 349.966 535.505 359.24 535.505 370.679V519.808C535.505 531.247 526.232 540.521 514.792 540.521H457.212C445.773 540.521 436.5 531.247 436.5 519.808V370.679C436.5 359.24 427.226 349.966 415.787 349.966H361.935C350.496 349.966 341.222 340.693 341.222 329.254V271.259Z" fill="white"/>
</svg>
