<?xml version="1.0" encoding="UTF-8"?>
<svg xmlns="http://www.w3.org/2000/svg" xmlns:xlink="http://www.w3.org/1999/xlink" width="256px" height="256px" viewBox="0 0 256 256" version="1.1">
<g id="surface1">
<path style=" stroke:none;fill-rule:evenodd;fill:rgb(98.431373%,75.294118%,18.431373%);fill-opacity:1;" d="M 121.6875 1.9375 C 121.601562 2.160156 117.945312 5.953125 113.566406 10.375 C 98.847656 25.21875 95.582031 28.574219 95.414062 29.007812 C 95.324219 29.246094 95.085938 29.441406 94.886719 29.441406 C 94.6875 29.441406 94.464844 29.671875 94.390625 29.953125 C 94.316406 30.234375 94.085938 30.464844 93.878906 30.464844 C 93.667969 30.464844 93.4375 30.695312 93.367188 30.976562 C 93.292969 31.257812 93.046875 31.488281 92.824219 31.488281 C 92.601562 31.488281 92.414062 31.613281 92.414062 31.769531 C 92.414062 32.109375 85.121094 39.425781 84.78125 39.425781 C 84.648438 39.425781 84.480469 39.65625 84.40625 39.9375 C 84.332031 40.21875 84.101562 40.449219 83.894531 40.449219 C 83.6875 40.449219 83.457031 40.679688 83.382812 40.960938 C 83.308594 41.242188 83.078125 41.472656 82.871094 41.472656 C 82.660156 41.472656 82.429688 41.703125 82.359375 41.984375 C 82.285156 42.265625 82.039062 42.496094 81.816406 42.496094 C 81.589844 42.496094 81.40625 42.625 81.40625 42.78125 C 81.40625 42.9375 80.082031 44.382812 78.464844 45.988281 C 76.84375 47.597656 75.519531 49.011719 75.519531 49.128906 C 75.519531 49.25 75.289062 49.410156 75.007812 49.480469 C 74.726562 49.554688 74.496094 49.785156 74.496094 49.996094 C 74.496094 50.203125 74.265625 50.433594 73.984375 50.507812 C 73.703125 50.578125 73.472656 50.824219 73.472656 51.046875 C 73.472656 51.285156 73.257812 51.457031 72.960938 51.457031 C 72.628906 51.457031 72.449219 51.625 72.449219 51.9375 C 72.449219 52.203125 72.21875 52.480469 71.9375 52.554688 C 71.65625 52.628906 71.425781 52.859375 71.425781 53.066406 C 71.425781 53.273438 71.195312 53.503906 70.910156 53.578125 C 70.628906 53.652344 70.398438 53.894531 70.398438 54.121094 C 70.398438 54.34375 70.226562 54.527344 70.015625 54.527344 C 69.804688 54.527344 69.632812 54.753906 69.632812 55.039062 C 69.632812 55.382812 69.460938 55.550781 69.121094 55.550781 C 68.777344 55.550781 68.609375 55.722656 68.609375 56.0625 C 68.609375 56.40625 68.4375 56.574219 68.097656 56.574219 C 67.753906 56.574219 67.585938 56.746094 67.585938 57.089844 C 67.585938 57.429688 67.414062 57.601562 67.070312 57.601562 C 66.730469 57.601562 66.558594 57.769531 66.558594 58.113281 C 66.558594 58.453125 66.390625 58.625 66.046875 58.625 C 65.765625 58.625 65.535156 58.785156 65.535156 58.976562 C 65.535156 59.171875 65.304688 59.394531 65.023438 59.464844 C 64.742188 59.539062 64.511719 59.769531 64.511719 59.976562 C 64.511719 60.1875 64.28125 60.417969 64 60.492188 C 63.71875 60.5625 63.488281 60.792969 63.488281 61.003906 C 63.488281 61.210938 63.257812 61.441406 62.976562 61.515625 C 62.695312 61.585938 62.464844 61.816406 62.464844 62.027344 C 62.464844 62.234375 62.234375 62.464844 61.953125 62.539062 C 61.671875 62.613281 61.441406 62.84375 61.441406 63.050781 C 61.441406 63.257812 61.210938 63.488281 60.929688 63.5625 C 60.644531 63.636719 60.414062 63.867188 60.414062 64.074219 C 60.414062 64.28125 60.1875 64.511719 59.902344 64.585938 C 59.621094 64.660156 59.390625 64.902344 59.390625 65.128906 C 59.390625 65.351562 59.21875 65.535156 59.007812 65.535156 C 58.792969 65.535156 58.625 65.765625 58.625 66.046875 C 58.625 66.390625 58.453125 66.558594 58.113281 66.558594 C 57.769531 66.558594 57.601562 66.730469 57.601562 67.070312 C 57.601562 67.414062 57.429688 67.585938 57.089844 67.585938 C 56.746094 67.585938 56.574219 67.753906 56.574219 68.097656 C 56.574219 68.4375 56.40625 68.609375 56.0625 68.609375 C 55.722656 68.609375 55.550781 68.777344 55.550781 69.121094 C 55.550781 69.460938 55.382812 69.632812 55.039062 69.632812 C 54.757812 69.632812 54.527344 69.792969 54.527344 69.984375 C 54.527344 70.179688 54.296875 70.402344 54.015625 70.472656 C 53.734375 70.546875 53.503906 70.777344 53.503906 70.984375 C 53.503906 71.195312 53.273438 71.425781 52.992188 71.5 C 52.710938 71.570312 52.480469 71.800781 52.480469 72.011719 C 52.480469 72.21875 52.25 72.449219 51.96875 72.523438 C 51.6875 72.597656 51.457031 72.828125 51.457031 73.035156 C 51.457031 73.242188 51.226562 73.472656 50.945312 73.546875 C 50.664062 73.621094 50.433594 73.851562 50.433594 74.058594 C 50.433594 74.265625 50.203125 74.496094 49.921875 74.570312 C 49.636719 74.644531 49.40625 74.886719 49.40625 75.113281 C 49.40625 75.335938 49.242188 75.519531 49.042969 75.519531 C 48.839844 75.519531 48.601562 75.75 48.511719 76.03125 C 48.421875 76.3125 48.183594 76.542969 47.984375 76.542969 C 47.78125 76.542969 47.617188 76.773438 47.617188 77.054688 C 47.617188 77.398438 47.445312 77.566406 47.105469 77.566406 C 46.761719 77.566406 46.59375 77.738281 46.59375 78.078125 C 46.59375 78.421875 46.421875 78.59375 46.078125 78.59375 C 45.738281 78.59375 45.566406 78.761719 45.566406 79.105469 C 45.566406 79.445312 45.398438 79.617188 45.054688 79.617188 C 44.773438 79.617188 44.542969 79.78125 44.542969 79.984375 C 44.542969 80.183594 44.3125 80.421875 44.03125 80.511719 C 43.75 80.601562 43.519531 80.828125 43.519531 81.011719 C 43.519531 81.195312 43.289062 81.410156 43.007812 81.480469 C 42.726562 81.554688 42.496094 81.785156 42.496094 81.996094 C 42.496094 82.203125 42.265625 82.433594 41.984375 82.507812 C 41.703125 82.578125 41.472656 82.808594 41.472656 83.019531 C 41.472656 83.226562 41.242188 83.457031 40.960938 83.53125 C 40.679688 83.605469 40.449219 83.835938 40.449219 84.042969 C 40.449219 84.25 40.21875 84.480469 39.9375 84.554688 C 39.65625 84.628906 39.425781 84.859375 39.425781 85.066406 C 39.425781 85.273438 39.195312 85.503906 38.910156 85.578125 C 38.628906 85.652344 38.398438 85.894531 38.398438 86.121094 C 38.398438 86.34375 38.226562 86.527344 38.015625 86.527344 C 37.804688 86.527344 37.632812 86.753906 37.632812 87.039062 C 37.632812 87.382812 37.460938 87.550781 37.121094 87.550781 C 36.777344 87.550781 36.609375 87.722656 36.609375 88.0625 C 36.609375 88.40625 36.4375 88.574219 36.097656 88.574219 C 35.753906 88.574219 35.585938 88.746094 35.585938 89.089844 C 35.585938 89.429688 35.414062 89.601562 35.070312 89.601562 C 34.730469 89.601562 34.558594 89.769531 34.558594 90.113281 C 34.558594 90.453125 34.390625 90.625 34.046875 90.625 C 33.765625 90.625 33.535156 90.785156 33.535156 90.976562 C 33.535156 91.171875 33.304688 91.394531 33.023438 91.464844 C 32.742188 91.539062 32.511719 91.769531 32.511719 91.976562 C 32.511719 92.1875 32.28125 92.417969 32 92.492188 C 31.71875 92.5625 31.488281 92.792969 31.488281 93.003906 C 31.488281 93.210938 31.257812 93.441406 30.976562 93.515625 C 30.695312 93.585938 30.464844 93.816406 30.464844 94.027344 C 30.464844 94.234375 30.234375 94.464844 29.953125 94.539062 C 29.671875 94.613281 29.441406 94.84375 29.441406 95.050781 C 29.441406 95.257812 29.210938 95.488281 28.929688 95.5625 C 28.644531 95.636719 28.414062 95.878906 28.414062 96.105469 C 28.414062 96.328125 28.25 96.511719 28.050781 96.511719 C 27.847656 96.511719 27.609375 96.742188 27.519531 97.023438 C 27.429688 97.304688 27.191406 97.535156 26.992188 97.535156 C 26.789062 97.535156 26.625 97.765625 26.625 98.046875 C 26.625 98.390625 26.453125 98.558594 26.113281 98.558594 C 25.769531 98.558594 25.601562 98.730469 25.601562 99.070312 C 25.601562 99.414062 25.429688 99.585938 25.089844 99.585938 C 24.746094 99.585938 24.574219 99.753906 24.574219 100.097656 C 24.574219 100.4375 24.40625 100.609375 24.0625 100.609375 C 23.722656 100.609375 23.550781 100.777344 23.550781 101.121094 C 23.550781 101.460938 23.382812 101.632812 23.039062 101.632812 C 22.757812 101.632812 22.527344 101.792969 22.527344 101.984375 C 22.527344 102.179688 22.296875 102.402344 22.015625 102.472656 C 21.734375 102.546875 21.503906 102.777344 21.503906 102.984375 C 21.503906 103.195312 21.273438 103.425781 20.992188 103.5 C 20.710938 103.570312 20.480469 103.800781 20.480469 104.011719 C 20.480469 104.21875 20.25 104.449219 19.96875 104.523438 C 19.6875 104.597656 19.457031 104.828125 19.457031 105.035156 C 19.457031 105.242188 19.226562 105.472656 18.945312 105.546875 C 18.664062 105.621094 18.433594 105.851562 18.433594 106.058594 C 18.433594 106.265625 18.203125 106.496094 17.921875 106.570312 C 17.636719 106.644531 17.40625 106.886719 17.40625 107.113281 C 17.40625 107.335938 17.25 107.519531 17.054688 107.519531 C 16.859375 107.519531 16.640625 107.75 16.566406 108.03125 C 16.492188 108.3125 16.25 108.542969 16.023438 108.542969 C 15.785156 108.542969 15.617188 108.757812 15.617188 109.054688 C 15.617188 109.398438 15.445312 109.566406 15.105469 109.566406 C 14.761719 109.566406 14.59375 109.738281 14.59375 110.078125 C 14.59375 110.421875 14.421875 110.59375 14.078125 110.59375 C 13.738281 110.59375 13.566406 110.761719 13.566406 111.105469 C 13.566406 111.433594 13.398438 111.617188 13.085938 111.617188 C 12.820312 111.617188 12.542969 111.84375 12.46875 112.128906 C 12.394531 112.410156 12.152344 112.640625 11.925781 112.640625 C 11.703125 112.640625 11.519531 112.800781 11.519531 112.992188 C 11.519531 113.1875 11.289062 113.410156 11.007812 113.480469 C 10.726562 113.554688 10.496094 113.785156 10.496094 113.996094 C 10.496094 114.203125 10.265625 114.433594 9.984375 114.507812 C 9.703125 114.578125 9.472656 114.808594 9.472656 115.019531 C 9.472656 115.226562 9.242188 115.457031 8.960938 115.53125 C 8.679688 115.605469 8.449219 115.835938 8.449219 116.042969 C 8.449219 116.25 8.21875 116.480469 7.9375 116.554688 C 7.65625 116.628906 7.425781 116.859375 7.425781 117.066406 C 7.425781 117.273438 7.195312 117.503906 6.910156 117.578125 C 6.628906 117.652344 6.398438 117.894531 6.398438 118.121094 C 6.398438 118.34375 6.226562 118.527344 6.015625 118.527344 C 5.804688 118.527344 5.632812 118.753906 5.632812 119.039062 C 5.632812 119.382812 5.460938 119.550781 5.121094 119.550781 C 4.777344 119.550781 4.609375 119.722656 4.609375 120.0625 C 4.609375 120.40625 4.4375 120.574219 4.097656 120.574219 C 3.753906 120.574219 3.585938 120.746094 3.585938 121.089844 C 3.585938 121.429688 3.414062 121.601562 3.070312 121.601562 C 2.730469 121.601562 2.558594 121.769531 2.558594 122.113281 C 2.558594 122.464844 2.390625 122.625 2.015625 122.625 C 1.515625 122.625 1.480469 122.730469 1.601562 123.808594 C 1.753906 125.164062 2.050781 125.429688 3.390625 125.4375 C 4.007812 125.4375 4.535156 125.625 4.863281 125.953125 C 5.21875 126.308594 5.71875 126.464844 6.496094 126.464844 C 7.40625 126.464844 7.644531 126.5625 7.753906 126.976562 C 7.867188 127.402344 8.105469 127.488281 9.164062 127.488281 C 10.222656 127.488281 10.457031 127.574219 10.570312 128 C 10.679688 128.417969 10.917969 128.511719 11.878906 128.511719 C 12.773438 128.511719 13.128906 128.632812 13.371094 129.023438 C 13.589844 129.371094 13.96875 129.535156 14.5625 129.535156 C 15.070312 129.535156 15.558594 129.710938 15.738281 129.953125 C 15.921875 130.207031 16.558594 130.421875 17.363281 130.496094 C 18.1875 130.578125 18.6875 130.746094 18.6875 130.945312 C 18.6875 131.320312 19.488281 131.574219 20.671875 131.582031 C 21.230469 131.582031 21.503906 131.707031 21.503906 131.960938 C 21.503906 132.21875 21.910156 132.386719 22.800781 132.507812 C 23.515625 132.601562 24.253906 132.835938 24.445312 133.027344 C 24.640625 133.21875 25.179688 133.375 25.648438 133.375 C 26.222656 133.375 26.605469 133.542969 26.820312 133.886719 C 27.066406 134.277344 27.417969 134.398438 28.3125 134.398438 C 29.273438 134.398438 29.511719 134.492188 29.621094 134.910156 C 29.734375 135.34375 29.972656 135.425781 31.105469 135.425781 C 32.238281 135.425781 32.472656 135.507812 32.585938 135.9375 C 32.695312 136.355469 32.9375 136.449219 33.894531 136.449219 C 34.761719 136.449219 35.144531 136.570312 35.367188 136.925781 C 35.691406 137.445312 36.609375 137.378906 36.609375 136.832031 C 36.609375 136.042969 40.796875 136.984375 43.902344 138.472656 C 44.1875 138.609375 44.703125 138.792969 45.054688 138.882812 C 45.40625 138.976562 46.675781 139.429688 47.871094 139.890625 C 52.097656 141.53125 57.996094 143.65625 58.996094 143.90625 C 59.554688 144.042969 60.132812 144.246094 60.277344 144.355469 C 60.425781 144.464844 62.097656 145.101562 64 145.773438 C 67.328125 146.949219 68.027344 147.207031 71.679688 148.566406 C 72.59375 148.90625 73.921875 149.386719 74.625 149.632812 C 76.492188 150.289062 79.152344 151.289062 79.742188 151.554688 C 80.027344 151.679688 80.660156 151.898438 81.152344 152.039062 C 81.644531 152.179688 82.855469 152.59375 83.839844 152.964844 C 84.824219 153.335938 86.609375 153.980469 87.808594 154.402344 C 89.003906 154.820312 90.214844 155.269531 90.496094 155.398438 C 90.777344 155.527344 91.46875 155.796875 92.03125 155.996094 C 92.59375 156.191406 94.378906 156.839844 96 157.429688 C 97.621094 158.023438 99.40625 158.667969 99.96875 158.859375 C 100.53125 159.054688 101.796875 159.511719 102.785156 159.878906 C 105.195312 160.773438 107.179688 161.492188 108.414062 161.921875 C 108.980469 162.113281 110.246094 162.574219 111.230469 162.945312 C 112.21875 163.3125 113.425781 163.734375 113.921875 163.878906 C 114.414062 164.027344 114.929688 164.234375 115.070312 164.339844 C 115.210938 164.449219 116.421875 164.898438 117.761719 165.34375 C 119.097656 165.792969 120.421875 166.265625 120.703125 166.398438 C 121.359375 166.710938 123.167969 167.355469 124.800781 167.859375 C 125.503906 168.078125 126.195312 168.34375 126.335938 168.453125 C 126.476562 168.5625 126.996094 168.773438 127.488281 168.917969 C 127.980469 169.066406 129.191406 169.488281 130.175781 169.855469 C 131.160156 170.226562 132.429688 170.683594 132.992188 170.878906 C 134.09375 171.257812 135.777344 171.871094 138.625 172.929688 C 139.609375 173.296875 140.875 173.753906 141.441406 173.945312 C 142.003906 174.136719 143.269531 174.589844 144.257812 174.957031 C 145.242188 175.320312 147.085938 175.980469 148.351562 176.421875 C 149.621094 176.863281 150.769531 177.308594 150.910156 177.417969 C 151.054688 177.523438 151.570312 177.734375 152.0625 177.882812 C 153.230469 178.230469 156.167969 179.269531 157.953125 179.960938 C 158.726562 180.257812 160.453125 180.890625 161.792969 181.367188 C 163.128906 181.839844 165.03125 182.53125 166.015625 182.90625 C 167 183.28125 168.269531 183.742188 168.832031 183.9375 C 169.394531 184.132812 170.664062 184.589844 171.648438 184.957031 C 172.632812 185.320312 173.902344 185.777344 174.464844 185.972656 C 175.027344 186.167969 176.292969 186.628906 177.28125 187 C 178.265625 187.371094 179.417969 187.78125 179.839844 187.914062 C 180.261719 188.042969 180.839844 188.265625 181.121094 188.398438 C 181.402344 188.535156 182.714844 189.015625 184.039062 189.464844 C 185.359375 189.910156 186.742188 190.433594 187.109375 190.625 C 187.476562 190.816406 187.90625 190.972656 188.066406 190.976562 C 188.226562 190.976562 188.863281 191.203125 189.476562 191.480469 C 190.089844 191.761719 190.808594 191.992188 191.074219 191.996094 C 191.371094 192 175.070312 175.515625 148.253906 148.699219 C 124.4375 124.886719 104.890625 105.160156 104.820312 104.859375 C 104.699219 104.375 104.960938 102.6875 106.117188 96.511719 C 106.3125 95.457031 106.707031 93.265625 106.988281 91.648438 C 107.269531 90.027344 107.605469 88.347656 107.734375 87.914062 C 107.863281 87.480469 108.058594 86.386719 108.160156 85.480469 C 108.265625 84.578125 108.457031 83.558594 108.589844 83.210938 C 108.71875 82.867188 108.996094 81.484375 109.203125 80.140625 C 109.410156 78.796875 109.800781 76.542969 110.070312 75.136719 C 111.398438 68.167969 111.65625 66.765625 112.011719 64.511719 C 112.226562 63.175781 112.503906 61.734375 112.628906 61.3125 C 112.753906 60.890625 112.984375 59.738281 113.140625 58.753906 C 113.296875 57.765625 113.585938 56.210938 113.785156 55.296875 C 113.980469 54.378906 114.390625 52.191406 114.691406 50.433594 C 114.992188 48.671875 115.402344 46.484375 115.601562 45.566406 C 115.800781 44.652344 116.074219 43.210938 116.210938 42.367188 C 116.347656 41.523438 116.636719 39.910156 116.851562 38.785156 C 117.707031 34.339844 117.867188 33.488281 119 27.265625 C 119.28125 25.714844 119.574219 24.273438 119.652344 24.0625 C 119.730469 23.851562 119.972656 22.585938 120.1875 21.246094 C 120.402344 19.910156 120.800781 17.664062 121.074219 16.257812 C 121.984375 11.511719 122.609375 8.078125 123.039062 5.441406 C 123.402344 3.207031 123.535156 2.816406 123.941406 2.816406 C 124.277344 2.816406 124.414062 2.628906 124.414062 2.175781 C 124.414062 1.386719 121.980469 1.171875 121.6875 1.9375 "/>
<path style=" stroke:none;fill-rule:evenodd;fill:rgb(98.039216%,98.039216%,97.647059%);fill-opacity:1;" d="M 124.003906 2.734375 C 123.53125 2.828125 123.40625 3.171875 123.035156 5.453125 C 122.609375 8.078125 121.984375 11.519531 121.074219 16.257812 C 120.800781 17.664062 120.402344 19.910156 120.1875 21.246094 C 119.972656 22.585938 119.730469 23.851562 119.652344 24.0625 C 119.574219 24.273438 119.28125 25.714844 119 27.265625 C 117.867188 33.488281 117.707031 34.339844 116.851562 38.785156 C 116.636719 39.910156 116.347656 41.523438 116.210938 42.367188 C 116.074219 43.210938 115.800781 44.652344 115.601562 45.566406 C 115.402344 46.484375 114.992188 48.671875 114.691406 50.433594 C 114.390625 52.191406 113.980469 54.378906 113.785156 55.296875 C 113.585938 56.210938 113.296875 57.765625 113.140625 58.753906 C 112.984375 59.738281 112.753906 60.890625 112.628906 61.3125 C 112.503906 61.734375 112.226562 63.175781 112.011719 64.511719 C 111.65625 66.765625 111.398438 68.167969 110.070312 75.136719 C 109.800781 76.542969 109.410156 78.796875 109.203125 80.140625 C 108.996094 81.484375 108.71875 82.867188 108.589844 83.210938 C 108.457031 83.558594 108.265625 84.578125 108.160156 85.480469 C 108.058594 86.386719 107.863281 87.480469 107.734375 87.914062 C 107.605469 88.347656 107.269531 90.027344 106.988281 91.648438 C 106.707031 93.265625 106.3125 95.457031 106.117188 96.511719 C 104.960938 102.6875 104.699219 104.375 104.820312 104.859375 C 105.003906 105.613281 191.515625 192.074219 191.800781 191.789062 C 191.929688 191.660156 191.6875 190.613281 191.214844 189.285156 C 190.296875 186.703125 188.683594 182.199219 188.0625 180.480469 C 187.832031 179.847656 187.53125 179.097656 187.394531 178.816406 C 187.261719 178.535156 186.808594 177.265625 186.394531 176 C 185.976562 174.734375 185.285156 172.832031 184.851562 171.777344 C 184.417969 170.71875 184.066406 169.683594 184.0625 169.472656 C 184.0625 169.261719 183.90625 168.792969 183.71875 168.433594 C 183.53125 168.074219 183.199219 167.269531 182.976562 166.640625 C 182.28125 164.671875 180.585938 159.988281 179.457031 156.929688 C 178.859375 155.308594 178.21875 153.523438 178.027344 152.960938 C 177.839844 152.398438 177.382812 151.128906 177.011719 150.144531 C 176.644531 149.160156 176.183594 147.890625 175.996094 147.328125 C 175.804688 146.765625 175.0625 144.757812 174.351562 142.871094 C 173.640625 140.980469 173.054688 139.3125 173.054688 139.160156 C 173.054688 139.003906 172.902344 138.59375 172.722656 138.238281 C 172.539062 137.886719 172.011719 136.503906 171.546875 135.167969 C 171.082031 133.832031 170.601562 132.503906 170.476562 132.222656 C 170.355469 131.941406 170.09375 131.25 169.894531 130.6875 C 169.582031 129.796875 168.933594 128.011719 166.925781 122.496094 C 166.667969 121.792969 166.046875 120.0625 165.542969 118.65625 C 165.039062 117.246094 164.324219 115.289062 163.960938 114.304688 C 163.59375 113.320312 162.835938 111.246094 162.273438 109.695312 C 161.710938 108.148438 160.789062 105.613281 160.226562 104.0625 C 159.664062 102.515625 159.082031 100.84375 158.933594 100.351562 C 158.789062 99.859375 158.582031 99.339844 158.480469 99.199219 C 158.378906 99.058594 157.914062 97.792969 157.449219 96.382812 C 156.980469 94.976562 156.515625 93.707031 156.40625 93.566406 C 156.300781 93.425781 156.09375 92.910156 155.945312 92.414062 C 155.796875 91.921875 155.375 90.714844 155.007812 89.726562 C 154.640625 88.742188 154.179688 87.476562 153.984375 86.910156 C 153.792969 86.347656 153.332031 85.082031 152.960938 84.097656 C 152.59375 83.109375 152.132812 81.84375 151.941406 81.28125 C 151.75 80.71875 151.292969 79.449219 150.921875 78.464844 C 150.550781 77.476562 150.140625 76.328125 150.007812 75.902344 C 149.875 75.480469 149.660156 74.90625 149.527344 74.625 C 149.394531 74.34375 149.113281 73.59375 148.898438 72.960938 C 148.175781 70.816406 147.699219 69.507812 147.460938 68.992188 C 147.328125 68.710938 146.917969 67.558594 146.542969 66.433594 C 146.167969 65.304688 145.71875 64.039062 145.546875 63.617188 C 144.988281 62.269531 144.175781 60.101562 143.339844 57.726562 C 142.011719 53.953125 141.667969 53.003906 140.539062 49.921875 C 139.945312 48.300781 139.023438 45.765625 138.492188 44.289062 C 137.960938 42.808594 137.234375 40.804688 136.878906 39.835938 C 136.304688 38.28125 136.246094 37.808594 136.375 35.839844 C 136.507812 33.792969 136.472656 33.5625 135.972656 33.058594 C 135.617188 32.703125 135.425781 32.191406 135.425781 31.59375 C 135.425781 30.886719 135.304688 30.640625 134.910156 30.539062 C 134.480469 30.425781 134.398438 30.1875 134.398438 29.027344 C 134.398438 27.820312 134.335938 27.648438 133.886719 27.648438 C 133.4375 27.648438 133.375 27.476562 133.375 26.230469 C 133.375 25.210938 133.269531 24.773438 132.992188 24.667969 C 132.78125 24.585938 132.605469 24.21875 132.605469 23.84375 C 132.605469 23.472656 132.375 22.792969 132.09375 22.328125 C 131.8125 21.867188 131.585938 21.214844 131.585938 20.878906 C 131.585938 20 131.328125 19.457031 130.917969 19.457031 C 130.671875 19.457031 130.558594 19.140625 130.558594 18.453125 C 130.558594 17.203125 130.351562 16.640625 129.890625 16.640625 C 129.640625 16.640625 129.535156 16.300781 129.535156 15.488281 C 129.535156 14.675781 129.382812 14.183594 129.023438 13.824219 C 128.714844 13.515625 128.511719 12.972656 128.511719 12.457031 C 128.511719 11.925781 128.316406 11.421875 128 11.136719 C 127.652344 10.820312 127.488281 10.347656 127.488281 9.664062 C 127.488281 8.871094 127.378906 8.628906 126.976562 8.523438 C 126.542969 8.410156 126.464844 8.171875 126.464844 7.011719 C 126.464844 5.8125 126.398438 5.632812 125.964844 5.632812 C 125.535156 5.632812 125.453125 5.421875 125.390625 4.164062 C 125.308594 2.628906 125.179688 2.496094 124.003906 2.734375 "/>
<path style=" stroke:none;fill-rule:evenodd;fill:rgb(7.843137%,32.941176%,58.039216%);fill-opacity:1;" d="M 136.617188 35.90625 C 136.726562 36.082031 136.785156 36.472656 136.746094 36.773438 C 136.65625 37.453125 137.417969 40.140625 137.890625 40.824219 C 138.082031 41.101562 138.242188 41.5625 138.25 41.847656 C 138.253906 42.132812 138.480469 42.828125 138.753906 43.390625 C 139.023438 43.957031 139.25 44.652344 139.253906 44.941406 C 139.261719 45.230469 139.375 45.578125 139.515625 45.714844 C 139.753906 45.957031 140.488281 47.878906 141.164062 50.046875 C 141.339844 50.609375 141.675781 51.5 141.910156 52.023438 C 142.144531 52.546875 142.335938 53.1875 142.335938 53.445312 C 142.335938 53.703125 142.441406 54.023438 142.570312 54.15625 C 142.808594 54.402344 143.667969 56.691406 144.152344 58.367188 C 144.292969 58.859375 144.566406 59.609375 144.757812 60.03125 C 144.949219 60.453125 145.414062 61.664062 145.792969 62.71875 C 146.171875 63.777344 146.644531 65.019531 146.84375 65.480469 C 147.039062 65.941406 147.203125 66.460938 147.207031 66.632812 C 147.214844 66.804688 147.441406 67.40625 147.710938 67.96875 C 147.984375 68.53125 148.214844 69.164062 148.222656 69.375 C 148.234375 69.585938 148.464844 70.222656 148.734375 70.785156 C 149.007812 71.347656 149.234375 72.011719 149.238281 72.257812 C 149.246094 72.503906 149.476562 73.136719 149.761719 73.660156 C 150.042969 74.1875 150.273438 74.832031 150.273438 75.09375 C 150.273438 75.355469 150.445312 75.875 150.652344 76.25 C 151.042969 76.945312 151.640625 78.546875 152.097656 80.128906 C 152.242188 80.621094 152.582031 81.492188 152.851562 82.066406 C 153.121094 82.636719 153.34375 83.335938 153.34375 83.613281 C 153.34375 83.894531 153.457031 84.234375 153.59375 84.371094 C 153.84375 84.621094 154.675781 86.855469 155.15625 88.574219 C 155.296875 89.070312 155.566406 89.761719 155.761719 90.113281 C 155.953125 90.464844 156.195312 91.183594 156.292969 91.714844 C 156.394531 92.246094 156.574219 92.738281 156.695312 92.8125 C 156.816406 92.886719 157.039062 93.433594 157.1875 94.027344 C 157.339844 94.621094 157.617188 95.449219 157.804688 95.871094 C 157.992188 96.292969 158.285156 97.042969 158.460938 97.535156 C 158.632812 98.027344 158.9375 98.894531 159.132812 99.457031 C 159.332031 100.019531 159.589844 100.65625 159.714844 100.871094 C 159.835938 101.089844 160.023438 101.664062 160.128906 102.152344 C 160.238281 102.640625 160.539062 103.441406 160.800781 103.933594 C 161.066406 104.421875 161.28125 105.027344 161.28125 105.277344 C 161.28125 105.527344 161.511719 106.160156 161.792969 106.683594 C 162.074219 107.210938 162.304688 107.8125 162.304688 108.023438 C 162.304688 108.429688 163.171875 110.796875 163.714844 111.871094 C 163.890625 112.222656 164.113281 112.875 164.210938 113.320312 C 164.304688 113.761719 164.605469 114.566406 164.878906 115.101562 L 165.375 116.074219 L 165.375 115.320312 C 165.375 114.902344 165.144531 114.214844 164.863281 113.792969 C 164.585938 113.371094 164.355469 112.722656 164.355469 112.355469 C 164.351562 111.988281 164.121094 111.390625 163.839844 111.035156 C 163.558594 110.675781 163.328125 110.039062 163.328125 109.621094 C 163.328125 109.207031 163.167969 108.730469 162.972656 108.566406 C 162.777344 108.40625 162.539062 107.765625 162.449219 107.148438 C 162.355469 106.53125 162.121094 105.894531 161.925781 105.734375 C 161.734375 105.574219 161.496094 104.960938 161.398438 104.371094 C 161.304688 103.777344 161.078125 103.125 160.898438 102.910156 C 160.714844 102.699219 160.488281 102.125 160.386719 101.632812 C 160.289062 101.140625 160.0625 100.503906 159.886719 100.222656 C 159.710938 99.941406 159.480469 99.25 159.378906 98.6875 C 159.273438 98.125 159.042969 97.492188 158.863281 97.28125 C 158.679688 97.070312 158.460938 96.5 158.367188 96.015625 C 158.277344 95.535156 158.046875 94.957031 157.855469 94.738281 C 157.664062 94.515625 157.441406 93.828125 157.363281 93.203125 C 157.28125 92.5625 157.046875 91.976562 156.820312 91.847656 C 156.578125 91.714844 156.414062 91.28125 156.414062 90.773438 C 156.414062 90.308594 156.1875 89.632812 155.902344 89.273438 C 155.621094 88.914062 155.390625 88.296875 155.390625 87.894531 C 155.390625 87.496094 155.160156 86.824219 154.878906 86.398438 C 154.601562 85.976562 154.371094 85.34375 154.367188 84.992188 C 154.367188 84.640625 154.136719 84.007812 153.855469 83.585938 C 153.578125 83.160156 153.347656 82.527344 153.34375 82.175781 C 153.34375 81.824219 153.113281 81.191406 152.832031 80.769531 C 152.550781 80.34375 152.324219 79.707031 152.320312 79.351562 C 152.320312 78.996094 152.15625 78.472656 151.957031 78.1875 C 151.757812 77.902344 151.515625 77.246094 151.417969 76.730469 C 151.320312 76.214844 151.085938 75.664062 150.898438 75.507812 C 150.707031 75.351562 150.476562 74.71875 150.382812 74.097656 C 150.292969 73.480469 150.066406 72.851562 149.878906 72.699219 C 149.695312 72.542969 149.464844 71.933594 149.367188 71.34375 C 149.273438 70.753906 149.046875 70.097656 148.871094 69.886719 C 148.695312 69.675781 148.480469 69.058594 148.398438 68.511719 C 148.3125 67.964844 148.070312 67.324219 147.851562 67.085938 C 147.632812 66.84375 147.457031 66.425781 147.453125 66.15625 C 147.453125 65.886719 147.265625 65.320312 147.039062 64.894531 C 146.808594 64.472656 146.523438 63.621094 146.402344 63.003906 C 146.277344 62.386719 146.019531 61.753906 145.824219 61.597656 C 145.628906 61.441406 145.40625 60.800781 145.328125 60.179688 C 145.25 59.535156 145.015625 58.953125 144.785156 58.824219 C 144.550781 58.691406 144.382812 58.257812 144.382812 57.777344 C 144.382812 57.328125 144.152344 56.613281 143.871094 56.191406 C 143.59375 55.769531 143.363281 55.097656 143.363281 54.695312 C 143.359375 54.296875 143.128906 53.675781 142.847656 53.316406 C 142.566406 52.960938 142.335938 52.34375 142.335938 51.953125 C 142.335938 51.558594 142.148438 51.050781 141.917969 50.820312 C 141.691406 50.589844 141.441406 49.882812 141.371094 49.242188 C 141.300781 48.605469 141.09375 48.027344 140.917969 47.960938 C 140.742188 47.894531 140.519531 47.328125 140.425781 46.707031 C 140.335938 46.082031 140.101562 45.417969 139.90625 45.222656 C 139.714844 45.03125 139.476562 44.425781 139.378906 43.875 C 139.28125 43.328125 139.054688 42.707031 138.882812 42.496094 C 138.707031 42.285156 138.496094 41.652344 138.410156 41.089844 C 138.324219 40.527344 138.085938 39.945312 137.882812 39.796875 C 137.65625 39.628906 137.441406 38.816406 137.332031 37.699219 C 137.210938 36.480469 137.03125 35.824219 136.789062 35.730469 C 136.542969 35.636719 136.488281 35.695312 136.617188 35.90625 M 163.355469 37.054688 C 163.546875 37.371094 163.871094 37.632812 164.074219 37.632812 C 164.273438 37.632812 164.390625 37.601562 164.332031 37.566406 C 164.273438 37.527344 163.949219 37.269531 163.613281 36.988281 L 163 36.480469 L 163.355469 37.054688 M 165.375 116.847656 C 165.375 117.050781 165.488281 117.285156 165.625 117.371094 C 165.761719 117.457031 165.996094 118.011719 166.144531 118.601562 C 166.292969 119.195312 166.570312 119.96875 166.761719 120.320312 C 166.953125 120.671875 167.191406 121.34375 167.289062 121.808594 C 167.390625 122.277344 167.632812 122.96875 167.832031 123.34375 C 168.027344 123.722656 168.1875 124.191406 168.191406 124.386719 C 168.191406 124.582031 168.40625 125.21875 168.667969 125.796875 C 168.929688 126.375 169.285156 127.25 169.460938 127.742188 C 169.78125 128.648438 169.917969 129.039062 170.824219 131.585938 C 171.101562 132.359375 171.542969 133.464844 171.808594 134.042969 C 172.070312 134.621094 172.289062 135.285156 172.289062 135.515625 C 172.289062 135.75 172.519531 136.367188 172.800781 136.894531 C 173.082031 137.417969 173.3125 138.019531 173.3125 138.230469 C 173.3125 138.613281 174.078125 140.753906 174.738281 142.207031 C 174.929688 142.628906 175.164062 143.320312 175.257812 143.742188 C 175.351562 144.167969 175.519531 144.628906 175.632812 144.769531 C 175.742188 144.914062 175.980469 145.605469 176.15625 146.308594 C 176.332031 147.007812 176.628906 147.734375 176.8125 147.921875 C 177 148.109375 177.152344 148.511719 177.152344 148.820312 C 177.152344 149.132812 177.367188 149.785156 177.628906 150.277344 C 177.890625 150.765625 178.191406 151.550781 178.292969 152.015625 C 178.394531 152.484375 178.640625 153.175781 178.839844 153.554688 C 179.035156 153.929688 179.203125 154.414062 179.207031 154.625 C 179.210938 154.835938 179.441406 155.46875 179.710938 156.03125 C 179.984375 156.59375 180.210938 157.230469 180.214844 157.445312 C 180.21875 157.65625 180.453125 158.261719 180.734375 158.785156 C 181.019531 159.3125 181.25 159.945312 181.25 160.191406 C 181.25 160.4375 181.417969 160.960938 181.625 161.355469 C 181.832031 161.75 182.113281 162.441406 182.25 162.894531 C 182.386719 163.34375 182.800781 164.519531 183.171875 165.503906 C 183.542969 166.488281 183.957031 167.699219 184.089844 168.191406 C 184.226562 168.683594 184.492188 169.375 184.6875 169.726562 C 184.878906 170.078125 185.15625 170.769531 185.304688 171.265625 C 185.449219 171.757812 185.875 172.964844 186.246094 173.953125 C 186.617188 174.9375 187.046875 176.203125 187.199219 176.769531 C 187.347656 177.332031 187.628906 178.019531 187.816406 178.296875 C 188.003906 178.574219 188.160156 178.976562 188.160156 179.191406 C 188.164062 179.40625 188.347656 179.929688 188.570312 180.351562 C 188.792969 180.773438 189.128906 181.636719 189.3125 182.273438 C 189.824219 184.023438 190.429688 185.652344 190.851562 186.40625 C 191.058594 186.78125 191.234375 187.300781 191.234375 187.558594 C 191.234375 187.820312 191.398438 188.34375 191.59375 188.722656 C 192.140625 189.769531 192.816406 192.269531 192.664062 192.671875 C 192.507812 193.074219 191.085938 193.152344 190.847656 192.769531 C 190.761719 192.628906 190.566406 192.511719 190.417969 192.511719 C 190.246094 192.511719 190.261719 192.652344 190.464844 192.894531 C 190.84375 193.355469 192.539062 193.40625 192.972656 192.972656 C 193.398438 192.546875 193.359375 191.347656 192.902344 190.890625 C 192.695312 190.683594 192.449219 190.035156 192.355469 189.449219 C 192.261719 188.863281 192.046875 188.246094 191.878906 188.078125 C 191.710938 187.910156 191.503906 187.324219 191.414062 186.78125 C 191.324219 186.238281 191.09375 185.605469 190.894531 185.375 C 190.695312 185.148438 190.460938 184.5 190.375 183.9375 C 190.289062 183.375 190.0625 182.796875 189.871094 182.65625 C 189.679688 182.515625 189.453125 181.886719 189.371094 181.257812 C 189.285156 180.628906 189.054688 179.996094 188.859375 179.847656 C 188.660156 179.703125 188.429688 179.070312 188.347656 178.441406 C 188.261719 177.8125 188.011719 177.167969 187.792969 177.003906 C 187.574219 176.84375 187.390625 176.40625 187.390625 176.035156 C 187.390625 175.664062 187.160156 174.929688 186.878906 174.402344 C 186.597656 173.878906 186.367188 173.144531 186.367188 172.769531 C 186.367188 172.398438 186.199219 171.953125 185.992188 171.78125 C 185.78125 171.609375 185.539062 171.046875 185.449219 170.535156 C 185.355469 170.019531 185.066406 169.242188 184.800781 168.800781 C 184.535156 168.363281 184.320312 167.726562 184.320312 167.386719 C 184.320312 167.046875 184.15625 166.535156 183.957031 166.253906 C 183.757812 165.964844 183.511719 165.277344 183.414062 164.722656 C 183.3125 164.167969 183.082031 163.539062 182.902344 163.328125 C 182.71875 163.117188 182.492188 162.507812 182.390625 161.972656 C 182.292969 161.4375 182.050781 160.839844 181.855469 160.644531 C 181.660156 160.449219 181.425781 159.75 181.335938 159.097656 C 181.246094 158.441406 181.015625 157.847656 180.828125 157.773438 C 180.636719 157.699219 180.480469 157.382812 180.480469 157.066406 C 180.480469 156.328125 179.976562 154.878906 179.722656 154.878906 C 179.613281 154.878906 179.460938 154.410156 179.382812 153.835938 C 179.304688 153.261719 179.0625 152.589844 178.835938 152.34375 C 178.613281 152.097656 178.433594 151.546875 178.433594 151.117188 C 178.433594 150.691406 178.21875 150.066406 177.960938 149.730469 C 177.699219 149.394531 177.414062 148.660156 177.324219 148.097656 C 177.238281 147.535156 177.007812 146.957031 176.816406 146.816406 C 176.625 146.675781 176.398438 146.0625 176.320312 145.453125 C 176.238281 144.84375 175.988281 144.144531 175.765625 143.894531 C 175.542969 143.648438 175.359375 143.128906 175.359375 142.742188 C 175.359375 142.351562 175.128906 141.738281 174.847656 141.382812 C 174.566406 141.023438 174.335938 140.382812 174.335938 139.953125 C 174.335938 139.527344 174.15625 138.980469 173.941406 138.738281 C 173.722656 138.5 173.476562 137.855469 173.394531 137.3125 C 173.3125 136.765625 173.09375 136.148438 172.914062 135.9375 C 172.734375 135.726562 172.503906 135.089844 172.40625 134.527344 C 172.304688 133.964844 172.074219 133.332031 171.894531 133.121094 C 171.710938 132.910156 171.476562 132.277344 171.375 131.71875 C 171.269531 131.160156 171.042969 130.558594 170.871094 130.386719 C 170.699219 130.214844 170.480469 129.558594 170.386719 128.929688 C 170.292969 128.304688 170.066406 127.730469 169.878906 127.660156 C 169.695312 127.589844 169.480469 127.054688 169.402344 126.464844 C 169.324219 125.878906 169.09375 125.207031 168.886719 124.972656 C 168.683594 124.738281 168.449219 124.097656 168.367188 123.550781 C 168.28125 123.007812 168.035156 122.363281 167.820312 122.125 C 167.601562 121.882812 167.425781 121.335938 167.425781 120.910156 C 167.425781 120.484375 167.195312 119.839844 166.910156 119.480469 C 166.628906 119.125 166.398438 118.484375 166.398438 118.058594 C 166.398438 117.632812 166.21875 117.101562 165.996094 116.882812 C 165.5 116.382812 165.375 116.378906 165.375 116.847656 M 50.304688 141.824219 C 50.726562 142.105469 51.1875 142.332031 51.328125 142.332031 C 51.46875 142.332031 51.238281 142.105469 50.816406 141.824219 C 50.394531 141.542969 49.933594 141.316406 49.792969 141.316406 C 49.652344 141.316406 49.882812 141.542969 50.304688 141.824219 M 72.0625 149.761719 C 72.488281 150.039062 72.945312 150.269531 73.089844 150.269531 C 73.230469 150.269531 73 150.039062 72.574219 149.761719 C 72.152344 149.480469 71.691406 149.25 71.550781 149.25 C 71.410156 149.25 71.640625 149.480469 72.0625 149.761719 M 74.820312 150.785156 C 76.046875 151.441406 76.386719 151.441406 75.390625 150.785156 C 74.96875 150.503906 74.453125 150.273438 74.242188 150.273438 C 74.035156 150.273438 74.292969 150.503906 74.820312 150.785156 M 80.511719 152.832031 C 80.933594 153.113281 81.394531 153.339844 81.535156 153.339844 C 81.675781 153.339844 81.414062 153.113281 80.953125 152.832031 C 79.867188 152.167969 79.511719 152.167969 80.511719 152.832031 M 105.328125 161.929688 C 105.601562 162.136719 105.941406 162.304688 106.082031 162.304688 C 106.222656 162.304688 106.113281 162.136719 105.839844 161.929688 C 105.566406 161.722656 105.230469 161.550781 105.089844 161.550781 C 104.945312 161.550781 105.054688 161.722656 105.328125 161.929688 M 110.480469 163.703125 C 110.753906 163.910156 111.089844 164.078125 111.230469 164.078125 C 111.371094 164.078125 111.265625 163.910156 110.992188 163.703125 C 110.71875 163.496094 110.378906 163.328125 110.238281 163.328125 C 110.097656 163.328125 110.207031 163.496094 110.480469 163.703125 M 113.535156 164.863281 C 113.957031 165.144531 114.417969 165.371094 114.558594 165.375 C 114.699219 165.375 114.4375 165.144531 113.976562 164.863281 C 112.890625 164.199219 112.535156 164.199219 113.535156 164.863281 M 116.222656 165.761719 C 116.398438 165.972656 116.65625 166.144531 116.796875 166.144531 C 116.941406 166.144531 116.914062 165.972656 116.734375 165.761719 C 116.5625 165.546875 116.300781 165.375 116.160156 165.375 C 116.019531 165.375 116.046875 165.546875 116.222656 165.761719 M 141.019531 174.828125 C 141.351562 175.121094 141.8125 175.359375 142.042969 175.359375 C 142.421875 175.355469 142.203125 175.207031 140.738281 174.460938 C 140.5625 174.371094 140.6875 174.535156 141.019531 174.828125 M 160.367188 181.894531 C 160.640625 182.101562 160.980469 182.273438 161.121094 182.273438 C 161.261719 182.273438 161.15625 182.101562 160.878906 181.894531 C 160.605469 181.691406 160.269531 181.519531 160.128906 181.519531 C 159.988281 181.519531 160.09375 181.691406 160.367188 181.894531 M 171.226562 185.835938 C 171.5625 186.128906 172.023438 186.367188 172.253906 186.367188 C 172.632812 186.363281 172.410156 186.214844 170.945312 185.46875 C 170.769531 185.378906 170.894531 185.542969 171.226562 185.835938 M 179.792969 188.992188 C 180.0625 189.238281 180.46875 189.433594 180.699219 189.425781 C 180.964844 189.414062 180.890625 189.316406 180.492188 189.15625 C 180.148438 189.019531 179.742188 188.824219 179.585938 188.726562 C 179.429688 188.625 179.523438 188.746094 179.792969 188.992188 "/>
<path style=" stroke:none;fill-rule:evenodd;fill:rgb(21.176471%,36.470588%,48.627451%);fill-opacity:1;" d="M 136.324219 36.847656 C 136.183594 37.683594 136.375 38.476562 137.4375 41.394531 C 138.144531 43.335938 138.886719 45.390625 139.085938 45.953125 C 139.289062 46.515625 139.941406 48.300781 140.535156 49.921875 C 141.664062 52.988281 141.992188 53.902344 143.339844 57.726562 C 144.175781 60.101562 144.988281 62.269531 145.546875 63.617188 C 145.71875 64.039062 146.167969 65.304688 146.542969 66.433594 C 146.917969 67.558594 147.328125 68.710938 147.460938 68.992188 C 147.699219 69.507812 148.175781 70.816406 148.898438 72.960938 C 149.113281 73.59375 149.394531 74.34375 149.527344 74.625 C 149.660156 74.90625 149.875 75.480469 150.007812 75.902344 C 150.140625 76.328125 150.550781 77.476562 150.921875 78.464844 C 151.292969 79.449219 151.75 80.71875 151.941406 81.28125 C 152.132812 81.84375 152.59375 83.109375 152.960938 84.097656 C 153.332031 85.082031 153.792969 86.347656 153.984375 86.910156 C 154.179688 87.476562 154.640625 88.742188 155.007812 89.726562 C 155.375 90.714844 155.796875 91.921875 155.945312 92.414062 C 156.09375 92.910156 156.300781 93.425781 156.40625 93.566406 C 156.515625 93.707031 156.980469 94.976562 157.449219 96.382812 C 157.914062 97.792969 158.378906 99.058594 158.480469 99.199219 C 158.582031 99.339844 158.789062 99.859375 158.933594 100.351562 C 159.082031 100.84375 159.664062 102.515625 160.226562 104.0625 C 160.789062 105.613281 161.710938 108.148438 162.273438 109.695312 C 162.835938 111.246094 163.59375 113.320312 163.960938 114.304688 C 164.324219 115.289062 165.039062 117.246094 165.542969 118.65625 C 166.046875 120.0625 166.667969 121.792969 166.925781 122.496094 C 168.933594 128.011719 169.582031 129.796875 169.894531 130.6875 C 170.09375 131.25 170.355469 131.941406 170.476562 132.222656 C 170.601562 132.503906 171.082031 133.832031 171.546875 135.167969 C 172.011719 136.503906 172.539062 137.886719 172.722656 138.238281 C 172.902344 138.59375 173.054688 139.003906 173.054688 139.160156 C 173.054688 139.3125 173.640625 140.980469 174.351562 142.871094 C 175.0625 144.757812 175.804688 146.765625 175.996094 147.328125 C 176.183594 147.890625 176.644531 149.160156 177.011719 150.144531 C 177.382812 151.128906 177.839844 152.398438 178.027344 152.960938 C 178.21875 153.523438 178.859375 155.308594 179.457031 156.929688 C 180.585938 159.988281 182.28125 164.671875 182.976562 166.640625 C 183.199219 167.269531 183.53125 168.074219 183.71875 168.433594 C 183.90625 168.792969 184.0625 169.261719 184.0625 169.472656 C 184.066406 169.683594 184.417969 170.71875 184.851562 171.777344 C 185.285156 172.832031 185.976562 174.734375 186.394531 176 C 186.808594 177.265625 187.261719 178.535156 187.394531 178.816406 C 187.652344 179.34375 187.8125 179.773438 189.441406 184.320312 C 191.972656 191.375 192.027344 191.5625 191.757812 191.835938 C 191.421875 192.167969 189.054688 191.5 186.496094 190.351562 C 186.074219 190.164062 184.804688 189.703125 183.679688 189.328125 C 182.554688 188.953125 181.402344 188.535156 181.121094 188.402344 C 180.839844 188.265625 180.261719 188.042969 179.839844 187.914062 C 179.417969 187.78125 178.265625 187.371094 177.28125 187 C 176.292969 186.628906 175.027344 186.167969 174.464844 185.972656 C 173.902344 185.777344 172.632812 185.320312 171.648438 184.957031 C 170.664062 184.589844 169.394531 184.132812 168.832031 183.9375 C 168.269531 183.742188 167 183.28125 166.015625 182.90625 C 165.03125 182.53125 163.128906 181.839844 161.792969 181.367188 C 160.453125 180.890625 158.726562 180.257812 157.953125 179.960938 C 156.167969 179.269531 153.230469 178.230469 152.0625 177.882812 C 151.570312 177.734375 151.054688 177.523438 150.910156 177.417969 C 150.769531 177.308594 149.621094 176.863281 148.351562 176.421875 C 147.085938 175.980469 145.242188 175.320312 144.257812 174.957031 C 143.269531 174.589844 142.003906 174.132812 141.441406 173.941406 C 140.015625 173.449219 137.921875 172.6875 135.808594 171.894531 C 134.824219 171.523438 133.554688 171.066406 132.992188 170.875 C 132.429688 170.683594 131.160156 170.226562 130.175781 169.855469 C 129.191406 169.488281 127.980469 169.066406 127.488281 168.917969 C 126.996094 168.773438 126.476562 168.5625 126.335938 168.453125 C 126.195312 168.34375 125.503906 168.078125 124.800781 167.859375 C 123.167969 167.355469 121.359375 166.710938 120.703125 166.398438 C 120.421875 166.265625 119.097656 165.792969 117.761719 165.34375 C 116.421875 164.898438 115.210938 164.449219 115.070312 164.339844 C 114.929688 164.234375 114.414062 164.027344 113.921875 163.878906 C 113.425781 163.734375 112.21875 163.3125 111.230469 162.945312 C 110.246094 162.574219 108.980469 162.113281 108.414062 161.921875 C 107.179688 161.492188 105.195312 160.773438 102.785156 159.878906 C 101.796875 159.511719 100.53125 159.054688 99.96875 158.859375 C 99.40625 158.667969 97.621094 158.023438 96 157.429688 C 94.378906 156.839844 92.59375 156.191406 92.03125 155.996094 C 91.46875 155.796875 90.777344 155.527344 90.496094 155.398438 C 90.214844 155.269531 89.003906 154.820312 87.808594 154.402344 C 86.609375 153.980469 84.824219 153.335938 83.839844 152.964844 C 82.855469 152.59375 81.644531 152.179688 81.152344 152.039062 C 80.660156 151.898438 80.027344 151.679688 79.742188 151.554688 C 79.152344 151.289062 76.492188 150.289062 74.625 149.632812 C 73.921875 149.386719 72.59375 148.90625 71.679688 148.566406 C 68.027344 147.207031 67.328125 146.949219 64 145.773438 C 62.097656 145.101562 60.425781 144.464844 60.277344 144.355469 C 60.132812 144.246094 59.554688 144.042969 58.996094 143.90625 C 57.996094 143.65625 52.097656 141.53125 47.871094 139.890625 C 46.675781 139.429688 45.40625 138.976562 45.054688 138.882812 C 44.703125 138.792969 44.1875 138.609375 43.902344 138.472656 C 40.773438 136.972656 36.609375 136.042969 36.609375 136.84375 C 36.609375 137.027344 36.40625 137.234375 36.160156 137.304688 C 35.914062 137.371094 36.3125 137.367188 37.046875 137.292969 C 38.074219 137.183594 38.601562 137.269531 39.359375 137.664062 C 39.898438 137.945312 40.738281 138.261719 41.226562 138.367188 C 41.714844 138.476562 42.339844 138.71875 42.617188 138.914062 C 42.894531 139.105469 43.359375 139.265625 43.644531 139.265625 C 43.933594 139.265625 44.570312 139.476562 45.058594 139.738281 C 45.550781 140 46.382812 140.292969 46.910156 140.390625 C 47.441406 140.488281 47.871094 140.671875 47.871094 140.800781 C 47.871094 140.929688 48.304688 141.097656 48.832031 141.179688 C 49.359375 141.261719 50.21875 141.554688 50.738281 141.832031 C 51.257812 142.109375 51.964844 142.335938 52.308594 142.335938 C 52.648438 142.335938 53.070312 142.503906 53.242188 142.714844 C 53.414062 142.921875 53.976562 143.164062 54.488281 143.25 C 55.003906 143.339844 55.890625 143.628906 56.464844 143.898438 C 57.039062 144.164062 57.742188 144.382812 58.035156 144.382812 C 58.324219 144.382812 58.699219 144.550781 58.871094 144.753906 C 59.039062 144.960938 59.683594 145.203125 60.300781 145.296875 C 60.917969 145.386719 61.554688 145.621094 61.714844 145.8125 C 61.871094 146.003906 62.421875 146.234375 62.9375 146.324219 C 63.453125 146.414062 64.105469 146.632812 64.386719 146.8125 C 64.671875 146.988281 65.304688 147.21875 65.792969 147.328125 C 66.28125 147.433594 66.914062 147.667969 67.195312 147.847656 C 67.480469 148.027344 68.113281 148.257812 68.609375 148.359375 C 69.101562 148.460938 69.730469 148.703125 70.007812 148.898438 C 70.285156 149.089844 70.804688 149.25 71.160156 149.25 C 71.515625 149.25 72.152344 149.480469 72.574219 149.761719 C 73 150.039062 73.636719 150.269531 73.992188 150.269531 C 74.347656 150.269531 74.90625 150.460938 75.234375 150.6875 C 75.558594 150.917969 76.191406 151.199219 76.632812 151.3125 C 77.953125 151.648438 79.9375 152.371094 80.929688 152.871094 C 81.441406 153.132812 82.078125 153.34375 82.34375 153.34375 C 82.613281 153.34375 83.070312 153.511719 83.367188 153.71875 C 83.660156 153.925781 84.347656 154.207031 84.894531 154.339844 C 86.152344 154.65625 88.144531 155.355469 89.488281 155.953125 C 90.0625 156.207031 90.765625 156.414062 91.058594 156.414062 C 91.347656 156.414062 91.722656 156.582031 91.894531 156.789062 C 92.0625 156.992188 92.707031 157.234375 93.324219 157.328125 C 93.941406 157.421875 94.582031 157.65625 94.742188 157.851562 C 94.90625 158.046875 95.289062 158.207031 95.59375 158.207031 C 95.898438 158.207031 96.585938 158.433594 97.121094 158.707031 C 97.660156 158.980469 98.441406 159.277344 98.859375 159.367188 C 99.277344 159.460938 99.925781 159.699219 100.304688 159.894531 C 100.683594 160.089844 101.164062 160.257812 101.375 160.261719 C 101.585938 160.269531 102.222656 160.496094 102.785156 160.769531 C 103.347656 161.039062 103.984375 161.265625 104.195312 161.269531 C 104.410156 161.277344 105.015625 161.511719 105.539062 161.792969 C 106.0625 162.074219 106.695312 162.308594 106.945312 162.3125 C 107.191406 162.316406 107.851562 162.542969 108.414062 162.816406 C 108.980469 163.089844 109.671875 163.316406 109.953125 163.320312 C 110.234375 163.328125 110.808594 163.558594 111.230469 163.839844 C 111.65625 164.121094 112.257812 164.347656 112.570312 164.351562 C 112.882812 164.351562 113.515625 164.582031 113.976562 164.863281 C 114.4375 165.144531 115.175781 165.375 115.617188 165.375 C 116.058594 165.375 116.558594 165.546875 116.730469 165.753906 C 116.902344 165.960938 117.4375 166.203125 117.917969 166.292969 C 118.398438 166.382812 119.214844 166.675781 119.738281 166.941406 C 120.257812 167.207031 120.941406 167.425781 121.253906 167.425781 C 121.570312 167.425781 121.894531 167.535156 121.980469 167.671875 C 122.066406 167.808594 122.617188 168.042969 123.210938 168.191406 C 123.804688 168.339844 124.574219 168.617188 124.929688 168.808594 C 125.28125 169 125.972656 169.242188 126.464844 169.34375 C 126.957031 169.445312 127.519531 169.660156 127.714844 169.816406 C 127.910156 169.976562 128.546875 170.238281 129.125 170.398438 C 130.722656 170.84375 131.871094 171.269531 132.914062 171.804688 C 133.433594 172.070312 134.070312 172.289062 134.328125 172.289062 C 134.582031 172.289062 135.222656 172.519531 135.746094 172.800781 C 136.273438 173.082031 136.933594 173.3125 137.214844 173.3125 C 137.5 173.3125 138.160156 173.542969 138.683594 173.824219 C 139.210938 174.105469 139.84375 174.335938 140.09375 174.335938 C 140.34375 174.335938 140.976562 174.566406 141.5 174.847656 C 142.027344 175.128906 142.6875 175.363281 142.972656 175.367188 C 143.253906 175.371094 143.699219 175.539062 143.960938 175.734375 C 144.21875 175.929688 144.902344 176.171875 145.480469 176.269531 C 146.058594 176.367188 146.683594 176.601562 146.875 176.789062 C 147.0625 176.976562 147.644531 177.207031 148.167969 177.300781 C 148.691406 177.394531 149.292969 177.621094 149.503906 177.804688 C 149.714844 177.984375 150.347656 178.21875 150.910156 178.320312 C 151.476562 178.425781 152.167969 178.652344 152.449219 178.828125 C 152.730469 179.003906 153.359375 179.234375 153.851562 179.335938 C 154.34375 179.4375 154.976562 179.671875 155.261719 179.855469 C 155.542969 180.039062 156.203125 180.265625 156.726562 180.359375 C 157.25 180.457031 157.8125 180.695312 157.972656 180.890625 C 158.136719 181.085938 158.574219 181.246094 158.945312 181.246094 C 159.320312 181.246094 160.054688 181.476562 160.578125 181.761719 C 161.105469 182.042969 161.734375 182.273438 161.984375 182.273438 C 162.230469 182.273438 162.808594 182.503906 163.269531 182.785156 C 163.730469 183.066406 164.335938 183.296875 164.613281 183.296875 C 164.894531 183.296875 165.550781 183.527344 166.078125 183.808594 C 166.601562 184.089844 167.234375 184.320312 167.484375 184.320312 C 167.734375 184.320312 168.367188 184.550781 168.894531 184.832031 C 169.417969 185.113281 170.050781 185.34375 170.300781 185.34375 C 170.550781 185.34375 171.183594 185.574219 171.710938 185.855469 C 172.234375 186.136719 172.898438 186.367188 173.1875 186.367188 C 173.472656 186.367188 173.953125 186.535156 174.246094 186.742188 C 174.542969 186.949219 175.257812 187.195312 175.839844 187.289062 C 176.421875 187.382812 176.894531 187.554688 176.894531 187.671875 C 176.894531 187.789062 177.386719 188.019531 177.984375 188.183594 C 178.582031 188.351562 179.539062 188.703125 180.113281 188.964844 C 180.683594 189.226562 181.398438 189.441406 181.699219 189.441406 C 181.996094 189.441406 182.3125 189.550781 182.394531 189.6875 C 182.480469 189.824219 183.035156 190.058594 183.625 190.207031 C 184.21875 190.355469 184.992188 190.636719 185.34375 190.832031 C 185.695312 191.027344 186.414062 191.265625 186.945312 191.363281 C 187.472656 191.464844 187.902344 191.640625 187.902344 191.753906 C 187.902344 191.871094 188.535156 192.09375 189.308594 192.253906 C 190.078125 192.414062 190.777344 192.652344 190.859375 192.785156 C 191.089844 193.15625 192.511719 193.066406 192.664062 192.671875 C 192.816406 192.269531 192.140625 189.769531 191.59375 188.722656 C 191.398438 188.34375 191.234375 187.820312 191.234375 187.558594 C 191.234375 187.300781 191.058594 186.78125 190.851562 186.40625 C 190.429688 185.652344 189.824219 184.023438 189.3125 182.273438 C 189.128906 181.636719 188.792969 180.773438 188.570312 180.351562 C 188.347656 179.929688 188.164062 179.40625 188.160156 179.191406 C 188.160156 178.976562 188.003906 178.574219 187.816406 178.296875 C 187.628906 178.019531 187.347656 177.332031 187.199219 176.769531 C 187.046875 176.203125 186.617188 174.9375 186.246094 173.953125 C 185.875 172.964844 185.449219 171.757812 185.304688 171.265625 C 185.15625 170.769531 184.878906 170.078125 184.6875 169.726562 C 184.492188 169.375 184.226562 168.683594 184.089844 168.191406 C 183.957031 167.699219 183.542969 166.488281 183.171875 165.503906 C 182.800781 164.519531 182.386719 163.34375 182.25 162.894531 C 182.113281 162.441406 181.832031 161.75 181.625 161.355469 C 181.417969 160.960938 181.25 160.4375 181.25 160.191406 C 181.25 159.945312 181.019531 159.3125 180.734375 158.785156 C 180.453125 158.261719 180.21875 157.65625 180.214844 157.445312 C 180.210938 157.230469 179.984375 156.59375 179.710938 156.03125 C 179.441406 155.46875 179.210938 154.835938 179.207031 154.625 C 179.203125 154.414062 179.035156 153.929688 178.839844 153.554688 C 178.640625 153.175781 178.394531 152.484375 178.292969 152.015625 C 178.191406 151.550781 177.890625 150.765625 177.628906 150.277344 C 177.367188 149.785156 177.152344 149.132812 177.152344 148.820312 C 177.152344 148.511719 177 148.109375 176.8125 147.921875 C 176.628906 147.734375 176.332031 147.007812 176.15625 146.308594 C 175.980469 145.605469 175.742188 144.914062 175.632812 144.769531 C 175.519531 144.628906 175.351562 144.167969 175.257812 143.742188 C 175.164062 143.320312 174.929688 142.628906 174.738281 142.207031 C 174.078125 140.753906 173.3125 138.613281 173.3125 138.230469 C 173.3125 138.019531 173.082031 137.417969 172.800781 136.894531 C 172.519531 136.367188 172.289062 135.75 172.289062 135.515625 C 172.289062 135.285156 172.070312 134.621094 171.808594 134.042969 C 171.542969 133.464844 171.101562 132.359375 170.824219 131.585938 C 170.550781 130.808594 170.179688 129.773438 170 129.28125 C 169.824219 128.789062 169.558594 128.039062 169.414062 127.617188 C 169.265625 127.195312 168.929688 126.375 168.667969 125.796875 C 168.40625 125.21875 168.191406 124.582031 168.191406 124.386719 C 168.1875 124.191406 168.027344 123.722656 167.832031 123.34375 C 167.632812 122.96875 167.390625 122.277344 167.289062 121.808594 C 167.191406 121.34375 166.953125 120.671875 166.761719 120.320312 C 166.570312 119.96875 166.292969 119.195312 166.144531 118.601562 C 165.996094 118.011719 165.761719 117.457031 165.625 117.371094 C 165.488281 117.285156 165.375 116.960938 165.375 116.648438 C 165.375 116.332031 165.152344 115.636719 164.878906 115.101562 C 164.605469 114.566406 164.304688 113.761719 164.210938 113.320312 C 164.113281 112.875 163.890625 112.222656 163.714844 111.871094 C 163.171875 110.796875 162.304688 108.429688 162.304688 108.023438 C 162.304688 107.8125 162.074219 107.210938 161.792969 106.683594 C 161.511719 106.160156 161.28125 105.527344 161.28125 105.277344 C 161.28125 105.027344 161.066406 104.421875 160.800781 103.933594 C 160.539062 103.441406 160.238281 102.640625 160.128906 102.152344 C 160.023438 101.664062 159.835938 101.089844 159.714844 100.871094 C 159.589844 100.65625 159.332031 100.019531 159.132812 99.457031 C 158.9375 98.894531 158.632812 98.027344 158.460938 97.535156 C 158.285156 97.042969 157.992188 96.292969 157.804688 95.871094 C 157.617188 95.449219 157.339844 94.621094 157.1875 94.027344 C 157.039062 93.433594 156.816406 92.886719 156.695312 92.8125 C 156.574219 92.738281 156.394531 92.246094 156.292969 91.714844 C 156.195312 91.183594 155.953125 90.464844 155.761719 90.113281 C 155.566406 89.761719 155.296875 89.070312 155.15625 88.574219 C 154.675781 86.855469 153.84375 84.621094 153.59375 84.371094 C 153.457031 84.234375 153.34375 83.894531 153.34375 83.613281 C 153.34375 83.335938 153.121094 82.636719 152.851562 82.066406 C 152.582031 81.492188 152.242188 80.621094 152.097656 80.128906 C 151.640625 78.546875 151.042969 76.945312 150.652344 76.25 C 150.445312 75.875 150.273438 75.355469 150.273438 75.09375 C 150.273438 74.832031 150.042969 74.1875 149.761719 73.660156 C 149.476562 73.136719 149.246094 72.503906 149.238281 72.257812 C 149.234375 72.011719 149.007812 71.347656 148.734375 70.785156 C 148.464844 70.222656 148.234375 69.585938 148.222656 69.375 C 148.214844 69.164062 147.984375 68.53125 147.710938 67.96875 C 147.441406 67.40625 147.214844 66.804688 147.207031 66.632812 C 147.203125 66.460938 147.039062 65.941406 146.84375 65.480469 C 146.644531 65.019531 146.171875 63.777344 145.792969 62.71875 C 145.414062 61.664062 144.949219 60.453125 144.757812 60.03125 C 144.566406 59.609375 144.292969 58.859375 144.152344 58.367188 C 143.667969 56.691406 142.808594 54.402344 142.570312 54.15625 C 142.441406 54.023438 142.335938 53.703125 142.335938 53.445312 C 142.335938 53.1875 142.144531 52.546875 141.910156 52.023438 C 141.675781 51.5 141.339844 50.609375 141.164062 50.046875 C 140.488281 47.878906 139.753906 45.957031 139.515625 45.714844 C 139.375 45.578125 139.261719 45.230469 139.253906 44.941406 C 139.25 44.652344 139.023438 43.957031 138.753906 43.390625 C 138.480469 42.828125 138.253906 42.132812 138.25 41.847656 C 138.242188 41.5625 138.082031 41.101562 137.886719 40.824219 C 137.375 40.09375 136.617188 37.222656 136.777344 36.617188 C 136.851562 36.332031 136.816406 36.039062 136.703125 35.96875 C 136.585938 35.894531 136.417969 36.292969 136.324219 36.847656 "/>
<path style=" stroke:none;fill-rule:evenodd;fill:rgb(1.568627%,23.529412%,51.764706%);fill-opacity:1;" d="M 136.863281 35.777344 C 137.019531 35.882812 137.234375 36.769531 137.335938 37.75 C 137.449219 38.804688 137.671875 39.644531 137.886719 39.800781 C 138.089844 39.945312 138.324219 40.527344 138.410156 41.089844 C 138.496094 41.652344 138.707031 42.285156 138.882812 42.496094 C 139.054688 42.707031 139.28125 43.328125 139.378906 43.875 C 139.476562 44.425781 139.714844 45.03125 139.90625 45.222656 C 140.101562 45.417969 140.335938 46.082031 140.425781 46.707031 C 140.519531 47.328125 140.742188 47.894531 140.917969 47.960938 C 141.09375 48.027344 141.300781 48.605469 141.371094 49.242188 C 141.441406 49.882812 141.691406 50.589844 141.917969 50.820312 C 142.148438 51.050781 142.335938 51.558594 142.335938 51.953125 C 142.335938 52.34375 142.566406 52.960938 142.847656 53.316406 C 143.128906 53.675781 143.359375 54.296875 143.363281 54.695312 C 143.363281 55.097656 143.59375 55.769531 143.871094 56.191406 C 144.152344 56.613281 144.382812 57.328125 144.382812 57.777344 C 144.382812 58.257812 144.550781 58.691406 144.785156 58.824219 C 145.015625 58.953125 145.25 59.535156 145.328125 60.179688 C 145.40625 60.800781 145.628906 61.441406 145.824219 61.597656 C 146.019531 61.753906 146.277344 62.386719 146.402344 63.003906 C 146.523438 63.621094 146.808594 64.472656 147.039062 64.894531 C 147.265625 65.320312 147.453125 65.886719 147.453125 66.15625 C 147.457031 66.425781 147.632812 66.84375 147.851562 67.085938 C 148.070312 67.324219 148.3125 67.964844 148.398438 68.511719 C 148.480469 69.058594 148.695312 69.675781 148.871094 69.886719 C 149.046875 70.097656 149.273438 70.753906 149.367188 71.34375 C 149.464844 71.933594 149.695312 72.542969 149.878906 72.699219 C 150.066406 72.851562 150.292969 73.480469 150.382812 74.097656 C 150.476562 74.71875 150.707031 75.351562 150.898438 75.507812 C 151.085938 75.664062 151.320312 76.214844 151.417969 76.730469 C 151.515625 77.246094 151.757812 77.902344 151.957031 78.1875 C 152.15625 78.472656 152.320312 78.996094 152.320312 79.351562 C 152.324219 79.707031 152.550781 80.34375 152.832031 80.769531 C 153.113281 81.191406 153.34375 81.824219 153.34375 82.175781 C 153.347656 82.527344 153.578125 83.160156 153.855469 83.585938 C 154.136719 84.007812 154.367188 84.640625 154.367188 84.992188 C 154.371094 85.34375 154.601562 85.976562 154.878906 86.398438 C 155.160156 86.824219 155.390625 87.496094 155.390625 87.894531 C 155.390625 88.296875 155.621094 88.914062 155.902344 89.273438 C 156.1875 89.632812 156.414062 90.308594 156.414062 90.773438 C 156.414062 91.28125 156.578125 91.714844 156.820312 91.847656 C 157.046875 91.976562 157.28125 92.5625 157.363281 93.203125 C 157.441406 93.828125 157.664062 94.515625 157.855469 94.738281 C 158.046875 94.957031 158.277344 95.535156 158.367188 96.015625 C 158.460938 96.5 158.679688 97.070312 158.863281 97.28125 C 159.042969 97.492188 159.273438 98.125 159.378906 98.6875 C 159.480469 99.25 159.710938 99.941406 159.886719 100.222656 C 160.0625 100.503906 160.289062 101.140625 160.386719 101.632812 C 160.488281 102.125 160.714844 102.699219 160.898438 102.910156 C 161.078125 103.125 161.304688 103.777344 161.398438 104.371094 C 161.496094 104.960938 161.734375 105.574219 161.925781 105.734375 C 162.121094 105.894531 162.355469 106.53125 162.449219 107.148438 C 162.539062 107.765625 162.777344 108.40625 162.972656 108.566406 C 163.167969 108.730469 163.328125 109.207031 163.328125 109.621094 C 163.328125 110.039062 163.558594 110.675781 163.839844 111.035156 C 164.121094 111.390625 164.351562 111.988281 164.355469 112.355469 C 164.355469 112.722656 164.585938 113.371094 164.863281 113.792969 C 165.144531 114.214844 165.375 114.964844 165.375 115.464844 C 165.375 116.046875 165.554688 116.519531 165.886719 116.804688 C 166.195312 117.066406 166.398438 117.558594 166.398438 118.039062 C 166.398438 118.472656 166.628906 119.125 166.910156 119.480469 C 167.195312 119.839844 167.425781 120.484375 167.425781 120.910156 C 167.425781 121.335938 167.601562 121.882812 167.820312 122.125 C 168.035156 122.363281 168.28125 123.007812 168.367188 123.550781 C 168.449219 124.097656 168.683594 124.738281 168.886719 124.972656 C 169.09375 125.207031 169.324219 125.878906 169.402344 126.464844 C 169.480469 127.054688 169.695312 127.589844 169.878906 127.660156 C 170.066406 127.730469 170.292969 128.304688 170.386719 128.929688 C 170.480469 129.558594 170.699219 130.214844 170.871094 130.386719 C 171.042969 130.558594 171.269531 131.160156 171.375 131.71875 C 171.476562 132.277344 171.710938 132.910156 171.894531 133.121094 C 172.074219 133.332031 172.304688 133.964844 172.40625 134.527344 C 172.503906 135.089844 172.734375 135.726562 172.914062 135.9375 C 173.09375 136.148438 173.3125 136.765625 173.394531 137.3125 C 173.476562 137.855469 173.722656 138.5 173.941406 138.738281 C 174.15625 138.980469 174.335938 139.527344 174.335938 139.953125 C 174.335938 140.382812 174.566406 141.023438 174.847656 141.382812 C 175.128906 141.738281 175.359375 142.351562 175.359375 142.742188 C 175.359375 143.128906 175.542969 143.648438 175.765625 143.894531 C 175.988281 144.144531 176.238281 144.84375 176.320312 145.453125 C 176.398438 146.0625 176.625 146.675781 176.816406 146.816406 C 177.007812 146.957031 177.238281 147.535156 177.324219 148.097656 C 177.414062 148.660156 177.699219 149.394531 177.960938 149.730469 C 178.21875 150.066406 178.433594 150.691406 178.433594 151.117188 C 178.433594 151.546875 178.613281 152.097656 178.835938 152.34375 C 179.0625 152.589844 179.304688 153.261719 179.382812 153.835938 C 179.460938 154.410156 179.613281 154.878906 179.722656 154.878906 C 179.976562 154.878906 180.480469 156.328125 180.480469 157.066406 C 180.480469 157.382812 180.636719 157.699219 180.828125 157.773438 C 181.015625 157.847656 181.246094 158.441406 181.335938 159.097656 C 181.425781 159.75 181.660156 160.449219 181.855469 160.644531 C 182.050781 160.839844 182.292969 161.4375 182.390625 161.972656 C 182.492188 162.507812 182.71875 163.117188 182.902344 163.328125 C 183.082031 163.539062 183.3125 164.167969 183.414062 164.722656 C 183.511719 165.277344 183.757812 165.964844 183.957031 166.253906 C 184.15625 166.535156 184.320312 167.046875 184.320312 167.386719 C 184.320312 167.726562 184.535156 168.363281 184.800781 168.800781 C 185.066406 169.242188 185.355469 170.019531 185.449219 170.535156 C 185.539062 171.046875 185.78125 171.609375 185.992188 171.78125 C 186.199219 171.953125 186.367188 172.398438 186.367188 172.769531 C 186.367188 173.144531 186.597656 173.878906 186.878906 174.402344 C 187.160156 174.929688 187.390625 175.664062 187.390625 176.035156 C 187.390625 176.40625 187.574219 176.84375 187.792969 177.003906 C 188.011719 177.167969 188.261719 177.8125 188.347656 178.441406 C 188.429688 179.070312 188.660156 179.703125 188.859375 179.847656 C 189.054688 179.996094 189.285156 180.628906 189.371094 181.257812 C 189.453125 181.886719 189.679688 182.515625 189.871094 182.65625 C 190.0625 182.796875 190.289062 183.375 190.375 183.9375 C 190.460938 184.5 190.695312 185.148438 190.894531 185.375 C 191.09375 185.605469 191.324219 186.238281 191.414062 186.78125 C 191.503906 187.324219 191.710938 187.910156 191.878906 188.078125 C 192.046875 188.246094 192.261719 188.863281 192.355469 189.449219 C 192.449219 190.035156 192.695312 190.683594 192.902344 190.890625 C 193.359375 191.347656 193.398438 192.546875 192.972656 192.972656 C 192.542969 193.402344 190.847656 193.355469 190.46875 192.902344 C 190.296875 192.695312 189.734375 192.449219 189.222656 192.359375 C 188.707031 192.265625 188 192.042969 187.648438 191.863281 C 187.296875 191.683594 186.519531 191.40625 185.921875 191.246094 C 185.320312 191.085938 184.832031 190.859375 184.832031 190.738281 C 184.832031 190.621094 184.316406 190.445312 183.683594 190.351562 C 183.050781 190.253906 182.367188 190.011719 182.164062 189.808594 C 181.960938 189.605469 181.457031 189.441406 181.046875 189.441406 C 180.632812 189.441406 180.019531 189.226562 179.683594 188.96875 C 179.347656 188.707031 178.625 188.425781 178.078125 188.339844 C 177.535156 188.253906 176.902344 188.019531 176.671875 187.820312 C 176.445312 187.625 175.808594 187.394531 175.265625 187.308594 C 174.71875 187.226562 174.074219 186.980469 173.835938 186.761719 C 173.597656 186.546875 173.050781 186.367188 172.621094 186.367188 C 172.195312 186.367188 171.550781 186.136719 171.195312 185.855469 C 170.835938 185.574219 170.273438 185.34375 169.945312 185.34375 C 169.613281 185.339844 169 185.113281 168.574219 184.832031 C 168.152344 184.550781 167.515625 184.324219 167.160156 184.320312 C 166.804688 184.320312 166.285156 184.160156 166.007812 183.96875 C 165.730469 183.773438 165.101562 183.53125 164.609375 183.421875 C 164.113281 183.316406 163.3125 183.011719 162.820312 182.75 C 162.328125 182.488281 161.722656 182.273438 161.472656 182.273438 C 161.226562 182.273438 160.59375 182.042969 160.066406 181.761719 C 159.542969 181.476562 158.789062 181.246094 158.394531 181.246094 C 158 181.246094 157.617188 181.085938 157.542969 180.890625 C 157.46875 180.695312 156.894531 180.457031 156.273438 180.363281 C 155.652344 180.269531 154.992188 180.046875 154.8125 179.863281 C 154.632812 179.683594 154.023438 179.449219 153.464844 179.347656 C 152.90625 179.242188 152.273438 179.007812 152.0625 178.828125 C 151.851562 178.648438 151.234375 178.433594 150.6875 178.347656 C 150.144531 178.265625 149.507812 178.035156 149.28125 177.835938 C 149.050781 177.640625 148.417969 177.410156 147.871094 177.324219 C 147.328125 177.242188 146.683594 176.996094 146.445312 176.777344 C 146.203125 176.5625 145.726562 176.382812 145.382812 176.382812 C 145.042969 176.382812 144.332031 176.152344 143.804688 175.871094 C 143.28125 175.589844 142.578125 175.359375 142.242188 175.359375 C 141.910156 175.359375 141.34375 175.128906 140.984375 174.847656 C 140.628906 174.566406 140.066406 174.335938 139.734375 174.335938 C 139.40625 174.332031 138.789062 174.105469 138.367188 173.824219 C 137.945312 173.542969 137.238281 173.316406 136.800781 173.3125 C 136.359375 173.3125 135.859375 173.140625 135.6875 172.933594 C 135.511719 172.726562 134.953125 172.480469 134.4375 172.386719 C 133.925781 172.289062 133.101562 172 132.613281 171.738281 C 132.121094 171.476562 131.480469 171.265625 131.1875 171.265625 C 130.898438 171.265625 130.433594 171.09375 130.160156 170.886719 C 129.886719 170.679688 129.429688 170.507812 129.140625 170.503906 C 128.855469 170.5 128.195312 170.277344 127.671875 170.011719 C 127.152344 169.746094 126.332031 169.457031 125.851562 169.367188 C 125.371094 169.277344 124.851562 169.046875 124.691406 168.855469 C 124.535156 168.667969 123.921875 168.433594 123.328125 168.339844 C 122.738281 168.246094 122.078125 168.015625 121.863281 167.832031 C 121.648438 167.644531 121.027344 167.425781 120.480469 167.339844 C 119.933594 167.257812 119.300781 167.027344 119.070312 166.828125 C 118.84375 166.632812 118.210938 166.402344 117.664062 166.316406 C 117.117188 166.234375 116.476562 165.988281 116.234375 165.769531 C 115.996094 165.554688 115.464844 165.375 115.050781 165.375 C 114.640625 165.375 113.957031 165.144531 113.535156 164.863281 C 113.113281 164.585938 112.535156 164.355469 112.253906 164.355469 C 111.96875 164.351562 111.335938 164.136719 110.84375 163.878906 C 110.351562 163.617188 109.519531 163.324219 108.992188 163.226562 C 108.464844 163.128906 108.03125 162.949219 108.03125 162.828125 C 108.03125 162.703125 107.542969 162.523438 106.945312 162.425781 C 106.34375 162.328125 105.496094 162.03125 105.058594 161.765625 C 104.617188 161.5 103.96875 161.28125 103.617188 161.28125 C 103.265625 161.28125 102.832031 161.109375 102.660156 160.902344 C 102.488281 160.695312 101.929688 160.453125 101.414062 160.363281 C 100.902344 160.273438 100.226562 160.039062 99.914062 159.84375 C 99.601562 159.648438 99.136719 159.488281 98.878906 159.488281 C 98.621094 159.488281 97.972656 159.265625 97.4375 158.992188 C 96.902344 158.71875 96.097656 158.414062 95.65625 158.320312 C 95.210938 158.226562 94.558594 157.996094 94.207031 157.808594 C 93.855469 157.621094 93.148438 157.402344 92.632812 157.320312 C 92.117188 157.238281 91.636719 157.015625 91.566406 156.828125 C 91.496094 156.640625 90.957031 156.425781 90.371094 156.347656 C 89.785156 156.265625 89.101562 156.019531 88.855469 155.796875 C 88.609375 155.574219 88.128906 155.390625 87.785156 155.390625 C 87.441406 155.390625 86.730469 155.160156 86.207031 154.878906 C 85.679688 154.597656 84.988281 154.367188 84.671875 154.367188 C 84.355469 154.367188 83.75 154.136719 83.328125 153.855469 C 82.90625 153.578125 82.273438 153.347656 81.921875 153.34375 C 81.566406 153.34375 80.933594 153.113281 80.511719 152.832031 C 80.089844 152.550781 79.511719 152.320312 79.230469 152.3125 C 78.949219 152.308594 78.257812 152.078125 77.695312 151.808594 C 77.132812 151.535156 76.46875 151.308594 76.222656 151.304688 C 75.976562 151.300781 75.34375 151.066406 74.820312 150.785156 C 74.292969 150.503906 73.632812 150.269531 73.347656 150.269531 C 73.0625 150.269531 72.488281 150.039062 72.0625 149.761719 C 71.640625 149.480469 70.992188 149.25 70.625 149.25 C 70.253906 149.25 69.816406 149.089844 69.65625 148.890625 C 69.492188 148.695312 68.855469 148.460938 68.238281 148.367188 C 67.621094 148.273438 66.976562 148.03125 66.804688 147.828125 C 66.636719 147.621094 66.261719 147.457031 65.96875 147.457031 C 65.679688 147.457031 64.972656 147.238281 64.402344 146.96875 C 63.828125 146.703125 62.929688 146.410156 62.40625 146.320312 C 61.882812 146.230469 61.363281 146.003906 61.253906 145.820312 C 61.144531 145.632812 60.546875 145.417969 59.925781 145.335938 C 59.289062 145.253906 58.695312 145.011719 58.566406 144.785156 C 58.445312 144.566406 58.03125 144.382812 57.648438 144.382812 C 57.265625 144.382812 56.523438 144.152344 55.996094 143.871094 C 55.472656 143.589844 54.78125 143.359375 54.464844 143.359375 C 54.148438 143.359375 53.542969 143.128906 53.121094 142.847656 C 52.699219 142.566406 52.0625 142.339844 51.710938 142.335938 C 51.359375 142.335938 50.726562 142.105469 50.304688 141.824219 C 49.882812 141.542969 49.226562 141.316406 48.851562 141.3125 C 48.472656 141.3125 47.996094 141.140625 47.789062 140.933594 C 47.582031 140.726562 46.929688 140.480469 46.34375 140.386719 C 45.757812 140.292969 45.132812 140.074219 44.960938 139.898438 C 44.785156 139.726562 44.246094 139.5 43.761719 139.398438 C 43.277344 139.296875 42.648438 139.070312 42.367188 138.894531 C 42.085938 138.71875 41.394531 138.488281 40.832031 138.386719 C 40.269531 138.28125 39.617188 138.027344 39.382812 137.816406 C 38.910156 137.390625 36.1875 137.28125 35.796875 137.667969 C 35.304688 138.160156 35.65625 153.480469 36.160156 153.394531 C 36.546875 153.332031 36.925781 160.285156 36.636719 162.113281 C 36.621094 162.21875 36.816406 162.304688 37.074219 162.304688 C 37.484375 162.304688 37.542969 162.582031 37.601562 164.800781 C 37.648438 166.597656 37.78125 167.476562 38.085938 167.9375 C 38.324219 168.300781 38.535156 169.234375 38.574219 170.113281 C 38.675781 172.207031 38.695312 172.289062 39.082031 172.289062 C 39.273438 172.289062 39.441406 172.597656 39.464844 172.992188 C 39.558594 174.71875 39.59375 175.007812 39.777344 175.550781 C 39.882812 175.867188 40.0625 176.128906 40.175781 176.128906 C 40.292969 176.128906 40.4375 176.777344 40.503906 177.574219 C 40.578125 178.457031 40.777344 179.132812 41.011719 179.304688 C 41.34375 179.546875 41.539062 180.230469 41.769531 181.953125 C 41.792969 182.128906 41.964844 182.273438 42.15625 182.273438 C 42.359375 182.273438 42.496094 182.566406 42.496094 183.019531 C 42.496094 184.023438 42.730469 184.574219 43.164062 184.574219 C 43.421875 184.574219 43.519531 184.9375 43.519531 185.878906 C 43.519531 186.96875 43.605469 187.207031 44.03125 187.316406 C 44.433594 187.421875 44.542969 187.667969 44.542969 188.445312 C 44.542969 189.269531 44.632812 189.441406 45.054688 189.441406 C 45.484375 189.441406 45.566406 189.609375 45.566406 190.464844 C 45.566406 191.316406 45.652344 191.488281 46.078125 191.488281 C 46.507812 191.488281 46.59375 191.660156 46.59375 192.511719 C 46.59375 193.363281 46.675781 193.535156 47.105469 193.535156 C 47.53125 193.535156 47.617188 193.707031 47.617188 194.574219 C 47.617188 195.167969 47.722656 195.550781 47.859375 195.464844 C 48.152344 195.28125 48.640625 196.125 48.640625 196.816406 C 48.640625 197.109375 48.863281 197.375 49.175781 197.457031 C 49.566406 197.558594 49.667969 197.730469 49.554688 198.089844 C 49.351562 198.730469 49.621094 199.425781 50.074219 199.425781 C 50.269531 199.425781 50.445312 199.597656 50.464844 199.808594 C 50.480469 200.019531 50.523438 200.308594 50.558594 200.449219 C 50.59375 200.589844 50.640625 200.875 50.65625 201.089844 C 50.675781 201.300781 50.859375 201.472656 51.070312 201.472656 C 51.285156 201.472656 51.457031 201.699219 51.457031 201.984375 C 51.457031 202.324219 51.625 202.496094 51.96875 202.496094 C 52.386719 202.496094 52.480469 202.667969 52.480469 203.414062 C 52.480469 204.105469 52.601562 204.367188 52.96875 204.464844 C 53.394531 204.574219 53.710938 205.101562 53.863281 205.953125 C 53.890625 206.09375 54.050781 206.179688 54.21875 206.144531 C 54.390625 206.109375 54.527344 206.304688 54.527344 206.582031 C 54.527344 206.859375 54.757812 207.210938 55.039062 207.359375 C 55.320312 207.511719 55.550781 207.804688 55.550781 208.007812 C 55.550781 208.214844 55.78125 208.382812 56.0625 208.382812 C 56.492188 208.382812 56.574219 208.554688 56.574219 209.40625 C 56.574219 210.261719 56.660156 210.433594 57.089844 210.433594 C 57.429688 210.433594 57.601562 210.601562 57.601562 210.945312 C 57.601562 211.285156 57.769531 211.457031 58.113281 211.457031 C 58.453125 211.457031 58.625 211.625 58.625 211.96875 C 58.625 212.253906 58.792969 212.480469 59.007812 212.480469 C 59.21875 212.480469 59.398438 212.566406 59.410156 212.671875 C 59.527344 213.839844 60.652344 215.519531 61.214844 215.359375 C 61.339844 215.324219 61.441406 215.539062 61.441406 215.832031 C 61.441406 216.144531 61.644531 216.421875 61.929688 216.496094 C 62.195312 216.566406 62.476562 216.855469 62.550781 217.136719 C 62.625 217.421875 62.808594 217.574219 62.960938 217.480469 C 63.113281 217.386719 63.34375 217.605469 63.480469 217.96875 C 63.621094 218.328125 63.90625 218.625 64.121094 218.625 C 64.335938 218.625 64.511719 218.796875 64.511719 219.007812 C 64.511719 219.222656 64.738281 219.390625 65.023438 219.390625 C 65.359375 219.390625 65.535156 219.5625 65.535156 219.886719 C 65.535156 220.160156 65.652344 220.457031 65.796875 220.546875 C 65.9375 220.636719 65.976562 220.84375 65.882812 221.011719 C 65.789062 221.175781 65.792969 221.234375 65.898438 221.144531 C 66.152344 220.917969 68.085938 222.785156 67.902344 223.078125 C 67.824219 223.207031 67.875 223.242188 68.011719 223.15625 C 68.316406 222.96875 69.144531 223.882812 68.90625 224.148438 C 68.8125 224.253906 68.875 224.257812 69.042969 224.160156 C 69.226562 224.058594 69.527344 224.25 69.777344 224.628906 C 70.007812 224.984375 70.300781 225.210938 70.429688 225.132812 C 70.554688 225.058594 70.65625 225.101562 70.65625 225.234375 C 70.65625 225.367188 70.898438 225.539062 71.195312 225.617188 C 71.511719 225.699219 71.660156 225.875 71.550781 226.046875 C 71.445312 226.21875 71.59375 226.394531 71.910156 226.480469 C 72.207031 226.554688 72.449219 226.78125 72.449219 226.980469 C 72.449219 227.179688 72.632812 227.414062 72.859375 227.5 C 73.382812 227.703125 74.496094 228.8125 74.496094 229.132812 C 74.496094 229.265625 74.726562 229.375 75.007812 229.375 C 75.289062 229.375 75.519531 229.546875 75.519531 229.757812 C 75.519531 229.964844 75.921875 230.304688 76.414062 230.511719 C 76.910156 230.71875 77.3125 231.007812 77.3125 231.15625 C 77.3125 231.304688 77.601562 231.425781 77.953125 231.425781 C 78.421875 231.425781 78.59375 231.558594 78.59375 231.9375 C 78.59375 232.277344 78.761719 232.449219 79.105469 232.449219 C 79.445312 232.449219 79.617188 232.617188 79.617188 232.960938 C 79.617188 233.292969 79.785156 233.472656 80.101562 233.472656 C 80.367188 233.472656 80.648438 233.640625 80.726562 233.847656 C 80.808594 234.050781 81.25 234.324219 81.714844 234.449219 C 82.179688 234.574219 82.53125 234.8125 82.492188 234.976562 C 82.457031 235.144531 82.628906 235.351562 82.878906 235.441406 C 83.125 235.527344 83.535156 235.8125 83.785156 236.074219 C 84.039062 236.332031 84.527344 236.542969 84.875 236.542969 C 85.269531 236.542969 85.503906 236.691406 85.503906 236.9375 C 85.503906 237.152344 85.707031 237.402344 85.953125 237.496094 C 86.199219 237.589844 86.515625 237.8125 86.65625 237.996094 C 86.871094 238.273438 87.503906 238.484375 88.382812 238.574219 C 88.488281 238.582031 88.574219 238.761719 88.574219 238.972656 C 88.574219 239.21875 88.9375 239.410156 89.601562 239.515625 C 90.21875 239.617188 90.625 239.820312 90.625 240.03125 C 90.625 240.226562 90.855469 240.382812 91.136719 240.382812 C 91.417969 240.382812 91.648438 240.542969 91.648438 240.742188 C 91.648438 241.148438 92.191406 241.40625 93.046875 241.40625 C 93.421875 241.40625 93.683594 241.59375 93.769531 241.921875 C 93.867188 242.289062 94.121094 242.433594 94.679688 242.433594 C 95.230469 242.433594 95.5 242.582031 95.617188 242.945312 C 95.742188 243.347656 96.003906 243.457031 96.828125 243.457031 C 97.40625 243.457031 97.800781 243.53125 97.707031 243.625 C 97.410156 243.921875 98.089844 244.480469 98.753906 244.480469 C 99.109375 244.480469 99.535156 244.667969 99.703125 244.898438 C 99.890625 245.152344 100.523438 245.363281 101.335938 245.441406 C 102.375 245.542969 102.648438 245.660156 102.597656 245.984375 C 102.546875 246.289062 102.765625 246.421875 103.425781 246.484375 C 103.917969 246.53125 104.527344 246.789062 104.777344 247.0625 C 105.097656 247.402344 105.582031 247.550781 106.378906 247.550781 C 107.183594 247.550781 107.519531 247.65625 107.519531 247.910156 C 107.519531 248.328125 108.066406 248.574219 108.992188 248.574219 C 109.359375 248.574219 109.839844 248.742188 110.0625 248.941406 C 110.484375 249.328125 111.429688 249.542969 112.832031 249.578125 C 113.355469 249.59375 113.664062 249.730469 113.664062 249.953125 C 113.664062 250.332031 114.738281 250.625 116.128906 250.625 C 116.683594 250.625 116.96875 250.738281 116.929688 250.945312 C 116.882812 251.167969 117.335938 251.285156 118.398438 251.328125 C 120.300781 251.410156 121.152344 251.59375 120.972656 251.886719 C 120.742188 252.253906 121.542969 252.414062 123.613281 252.414062 C 125.265625 252.414062 125.652344 252.5 126.019531 252.929688 C 126.417969 253.394531 126.777344 253.441406 130.015625 253.441406 C 133.355469 253.441406 133.582031 253.472656 133.707031 253.953125 C 133.902344 254.699219 156.214844 254.761719 156.652344 254.015625 C 156.859375 253.660156 156.914062 253.648438 156.929688 253.953125 C 156.941406 254.257812 156.996094 254.242188 157.203125 253.886719 C 157.433594 253.496094 157.894531 253.441406 160.804688 253.441406 C 163.929688 253.441406 164.152344 253.40625 164.277344 252.929688 C 164.398438 252.460938 164.628906 252.414062 166.835938 252.414062 C 169.046875 252.414062 169.277344 252.371094 169.398438 251.902344 C 169.515625 251.449219 169.746094 251.390625 171.394531 251.390625 C 172.726562 251.390625 173.296875 251.292969 173.390625 251.046875 C 173.476562 250.820312 174.140625 250.648438 175.257812 250.558594 C 176.332031 250.472656 177.097656 250.277344 177.265625 250.050781 C 177.414062 249.847656 178.113281 249.605469 178.816406 249.511719 C 179.519531 249.417969 180.222656 249.167969 180.378906 248.957031 C 180.535156 248.75 180.898438 248.574219 181.179688 248.574219 C 182.234375 248.574219 183.296875 248.246094 183.296875 247.917969 C 183.296875 247.703125 183.695312 247.550781 184.382812 247.503906 C 185.144531 247.449219 185.472656 247.308594 185.472656 247.039062 C 185.472656 246.785156 185.773438 246.632812 186.367188 246.585938 C 187.859375 246.472656 188.414062 246.28125 188.414062 245.882812 C 188.414062 245.617188 188.695312 245.503906 189.335938 245.503906 C 190.039062 245.503906 190.289062 245.382812 190.390625 244.992188 C 190.492188 244.605469 190.738281 244.480469 191.414062 244.480469 C 192.089844 244.480469 192.335938 244.355469 192.4375 243.96875 C 192.539062 243.582031 192.789062 243.457031 193.460938 243.457031 C 194.136719 243.457031 194.382812 243.332031 194.484375 242.945312 C 194.585938 242.5625 194.835938 242.433594 195.46875 242.433594 C 196.09375 242.433594 196.359375 242.296875 196.480469 241.921875 C 196.601562 241.539062 196.867188 241.40625 197.519531 241.40625 C 198.230469 241.40625 198.398438 241.308594 198.398438 240.894531 C 198.398438 240.484375 198.570312 240.382812 199.28125 240.382812 C 199.769531 240.382812 200.257812 240.238281 200.371094 240.0625 C 200.617188 239.683594 201.835938 238.929688 202.816406 238.554688 C 203.203125 238.40625 203.519531 238.136719 203.519531 237.957031 C 203.519531 237.773438 203.921875 237.550781 204.414062 237.457031 C 204.953125 237.355469 205.3125 237.140625 205.3125 236.917969 C 205.3125 236.710938 205.535156 236.542969 205.808594 236.542969 C 206.078125 236.542969 206.371094 236.324219 206.457031 236.058594 C 206.550781 235.757812 206.945312 235.511719 207.496094 235.40625 C 208.027344 235.308594 208.382812 235.089844 208.382812 234.867188 C 208.382812 234.664062 208.613281 234.496094 208.894531 234.496094 C 209.238281 234.496094 209.40625 234.324219 209.40625 233.984375 C 209.40625 233.644531 209.578125 233.472656 209.921875 233.472656 C 210.261719 233.472656 210.433594 233.300781 210.433594 232.960938 C 210.433594 232.542969 210.601562 232.449219 211.351562 232.449219 C 212.054688 232.449219 212.304688 232.328125 212.40625 231.9375 C 212.480469 231.652344 212.753906 231.425781 213.023438 231.425781 C 213.332031 231.425781 213.503906 231.242188 213.503906 230.910156 C 213.503906 230.570312 213.675781 230.398438 214.015625 230.398438 C 214.355469 230.398438 214.527344 230.230469 214.527344 229.886719 C 214.527344 229.546875 214.699219 229.375 215.039062 229.375 C 215.320312 229.375 215.550781 229.210938 215.550781 229.011719 C 215.550781 228.8125 215.898438 228.574219 216.320312 228.480469 C 216.746094 228.386719 217.210938 228.089844 217.355469 227.820312 C 217.5 227.546875 217.785156 227.328125 217.992188 227.328125 C 218.199219 227.328125 218.367188 227.167969 218.367188 226.972656 C 218.367188 226.777344 218.597656 226.558594 218.878906 226.484375 C 219.160156 226.414062 219.390625 226.183594 219.390625 225.972656 C 219.390625 225.765625 219.621094 225.535156 219.902344 225.460938 C 220.1875 225.386719 220.414062 225.144531 220.414062 224.917969 C 220.414062 224.683594 220.628906 224.511719 220.929688 224.511719 C 221.269531 224.511719 221.441406 224.339844 221.441406 224 C 221.441406 223.660156 221.609375 223.488281 221.953125 223.488281 C 222.292969 223.488281 222.464844 223.316406 222.464844 222.976562 C 222.464844 222.636719 222.636719 222.464844 222.976562 222.464844 C 223.316406 222.464844 223.488281 222.292969 223.488281 221.953125 C 223.488281 221.609375 223.660156 221.441406 224 221.441406 C 224.339844 221.441406 224.511719 221.269531 224.511719 220.929688 C 224.511719 220.628906 224.683594 220.414062 224.917969 220.414062 C 225.144531 220.414062 225.386719 220.1875 225.460938 219.902344 C 225.535156 219.621094 225.765625 219.390625 225.972656 219.390625 C 226.183594 219.390625 226.414062 219.160156 226.484375 218.878906 C 226.558594 218.597656 226.777344 218.367188 226.972656 218.367188 C 227.167969 218.367188 227.328125 218.199219 227.328125 217.992188 C 227.328125 217.785156 227.558594 217.496094 227.839844 217.34375 C 228.121094 217.195312 228.351562 216.925781 228.351562 216.753906 C 228.351562 216.578125 228.582031 216.238281 228.863281 215.996094 C 229.144531 215.753906 229.375 215.324219 229.375 215.042969 C 229.375 214.699219 229.546875 214.527344 229.886719 214.527344 C 230.230469 214.527344 230.398438 214.355469 230.398438 214.015625 C 230.398438 213.675781 230.570312 213.503906 230.910156 213.503906 C 231.242188 213.503906 231.425781 213.332031 231.425781 213.023438 C 231.425781 212.753906 231.652344 212.480469 231.9375 212.40625 C 232.328125 212.304688 232.449219 212.054688 232.449219 211.351562 C 232.449219 210.601562 232.542969 210.433594 232.960938 210.433594 C 233.300781 210.433594 233.472656 210.261719 233.472656 209.921875 C 233.472656 209.578125 233.644531 209.40625 233.984375 209.40625 C 234.324219 209.40625 234.496094 209.238281 234.496094 208.894531 C 234.496094 208.613281 234.65625 208.382812 234.851562 208.382812 C 235.238281 208.382812 235.519531 207.847656 235.519531 207.113281 C 235.519531 206.859375 235.75 206.589844 236.03125 206.519531 C 236.339844 206.4375 236.542969 206.167969 236.542969 205.847656 C 236.542969 205.550781 236.710938 205.3125 236.917969 205.3125 C 237.140625 205.3125 237.355469 204.953125 237.457031 204.414062 C 237.554688 203.902344 237.777344 203.519531 237.980469 203.519531 C 238.300781 203.519531 238.445312 203.210938 238.367188 202.695312 C 238.351562 202.59375 238.554688 202.398438 238.816406 202.257812 C 239.078125 202.117188 239.363281 201.652344 239.449219 201.226562 C 239.539062 200.765625 239.765625 200.449219 239.992188 200.449219 C 240.277344 200.449219 240.382812 200.171875 240.382812 199.425781 C 240.382812 198.570312 240.46875 198.398438 240.894531 198.398438 C 241.308594 198.398438 241.40625 198.230469 241.40625 197.535156 C 241.40625 196.882812 241.535156 196.632812 241.921875 196.535156 C 242.308594 196.433594 242.433594 196.183594 242.433594 195.507812 C 242.433594 194.835938 242.554688 194.585938 242.945312 194.484375 C 243.335938 194.382812 243.457031 194.136719 243.457031 193.433594 C 243.457031 192.683594 243.550781 192.511719 243.96875 192.511719 C 244.394531 192.511719 244.480469 192.339844 244.480469 191.488281 C 244.480469 190.636719 244.566406 190.464844 244.992188 190.464844 C 245.417969 190.464844 245.503906 190.292969 245.503906 189.46875 C 245.503906 188.691406 245.613281 188.445312 246.015625 188.339844 C 246.410156 188.238281 246.527344 187.992188 246.527344 187.28125 C 246.527344 186.667969 246.667969 186.300781 246.933594 186.195312 C 247.253906 186.074219 247.269531 185.996094 247.003906 185.835938 C 246.746094 185.671875 246.769531 185.589844 247.109375 185.457031 C 247.386719 185.351562 247.550781 185.011719 247.550781 184.546875 C 247.550781 184.140625 247.78125 183.578125 248.0625 183.296875 C 248.425781 182.9375 248.574219 182.441406 248.574219 181.632812 C 248.574219 180.824219 248.679688 180.480469 248.929688 180.480469 C 249.292969 180.480469 249.601562 179.414062 249.601562 178.144531 C 249.601562 177.691406 249.734375 177.40625 249.953125 177.40625 C 250.316406 177.40625 250.625 176.34375 250.625 175.089844 C 250.625 174.695312 250.796875 174.199219 251.007812 173.988281 C 251.265625 173.730469 251.394531 173.078125 251.394531 171.988281 C 251.398438 170.605469 251.878906 168.71875 251.902344 169.984375 C 251.910156 170.324219 251.9375 170.324219 252.160156 169.984375 C 252.296875 169.773438 252.410156 168.675781 252.414062 167.550781 C 252.414062 165.777344 252.484375 165.457031 252.929688 165.179688 C 253.394531 164.886719 253.441406 164.582031 253.441406 161.71875 C 253.441406 158.871094 253.488281 158.542969 253.953125 158.207031 C 254.753906 157.628906 254.753906 132.640625 253.953125 131.839844 C 253.5 131.390625 253.441406 130.988281 253.441406 128.496094 C 253.441406 125.765625 253.171875 124.492188 252.660156 124.808594 C 252.511719 124.898438 252.414062 124.085938 252.414062 122.765625 C 252.414062 120.917969 252.335938 120.496094 251.902344 120.0625 C 251.503906 119.664062 251.390625 119.210938 251.390625 117.988281 C 251.390625 116.703125 251.324219 116.453125 251.007812 116.574219 C 250.699219 116.691406 250.625 116.476562 250.625 115.480469 C 250.625 113.738281 250.363281 112.640625 249.953125 112.640625 C 249.738281 112.640625 249.585938 112.335938 249.566406 111.871094 C 249.550781 111.449219 249.507812 110.988281 249.472656 110.847656 C 249.4375 110.707031 249.394531 110.363281 249.375 110.078125 C 249.359375 109.796875 249.171875 109.566406 248.960938 109.566406 C 248.691406 109.566406 248.574219 109.300781 248.574219 108.6875 C 248.574219 107.578125 248.144531 106.414062 247.808594 106.625 C 247.652344 106.71875 247.550781 106.363281 247.550781 105.71875 C 247.550781 104.871094 247.449219 104.628906 247.039062 104.523438 C 246.613281 104.410156 246.527344 104.171875 246.527344 103.113281 C 246.527344 102.054688 246.441406 101.816406 246.015625 101.707031 C 245.613281 101.601562 245.503906 101.355469 245.503906 100.578125 C 245.503906 99.753906 245.417969 99.585938 244.992188 99.585938 C 244.566406 99.585938 244.480469 99.414062 244.480469 98.558594 C 244.480469 97.707031 244.394531 97.535156 243.96875 97.535156 C 243.542969 97.535156 243.457031 97.363281 243.457031 96.511719 C 243.457031 95.660156 243.371094 95.488281 242.945312 95.488281 C 242.527344 95.488281 242.433594 95.316406 242.433594 94.566406 C 242.433594 93.863281 242.3125 93.617188 241.921875 93.515625 C 241.535156 93.414062 241.40625 93.164062 241.40625 92.515625 C 241.40625 91.820312 241.308594 91.648438 240.894531 91.648438 C 240.5 91.648438 240.382812 91.476562 240.382812 90.894531 C 240.382812 90.480469 240.261719 90.066406 240.113281 89.972656 C 239.960938 89.882812 239.734375 89.53125 239.605469 89.191406 C 239.476562 88.851562 239.195312 88.574219 238.980469 88.574219 C 238.722656 88.574219 238.59375 88.328125 238.59375 87.824219 C 238.59375 87.378906 238.398438 86.933594 238.113281 86.734375 C 237.851562 86.550781 237.554688 86.027344 237.457031 85.574219 C 237.355469 85.121094 237.140625 84.773438 236.980469 84.804688 C 236.816406 84.835938 236.640625 84.589844 236.59375 84.257812 C 236.542969 83.925781 236.300781 83.601562 236.058594 83.539062 C 235.816406 83.472656 235.507812 83.054688 235.375 82.605469 C 235.238281 82.160156 234.988281 81.820312 234.8125 81.855469 C 234.628906 81.894531 234.496094 81.652344 234.496094 81.28125 C 234.496094 80.8125 234.359375 80.640625 233.984375 80.640625 C 233.644531 80.640625 233.472656 80.46875 233.472656 80.128906 C 233.472656 79.785156 233.300781 79.617188 232.960938 79.617188 C 232.589844 79.617188 232.449219 79.445312 232.449219 78.996094 C 232.449219 78.113281 232.191406 77.566406 231.78125 77.566406 C 231.585938 77.566406 231.425781 77.335938 231.425781 77.054688 C 231.425781 76.714844 231.253906 76.542969 230.910156 76.542969 C 230.570312 76.542969 230.398438 76.375 230.398438 76.03125 C 230.398438 75.691406 230.230469 75.519531 229.886719 75.519531 C 229.546875 75.519531 229.375 75.347656 229.375 75.007812 C 229.375 74.722656 229.207031 74.496094 228.992188 74.496094 C 228.78125 74.496094 228.609375 74.363281 228.609375 74.199219 C 228.609375 74.039062 228.320312 73.527344 227.96875 73.066406 C 227.617188 72.605469 227.328125 72.097656 227.328125 71.9375 C 227.328125 71.777344 227.214844 71.722656 227.074219 71.808594 C 226.933594 71.894531 226.683594 71.671875 226.519531 71.3125 C 226.355469 70.949219 226.066406 70.65625 225.878906 70.65625 C 225.691406 70.65625 225.535156 70.472656 225.535156 70.25 C 225.535156 70.023438 225.304688 69.78125 225.023438 69.707031 C 224.742188 69.632812 224.511719 69.355469 224.511719 69.089844 C 224.511719 68.777344 224.332031 68.609375 224 68.609375 C 223.660156 68.609375 223.488281 68.4375 223.488281 68.097656 C 223.488281 67.753906 223.316406 67.585938 222.976562 67.585938 C 222.636719 67.585938 222.464844 67.414062 222.464844 67.070312 C 222.464844 66.730469 222.292969 66.558594 221.953125 66.558594 C 221.609375 66.558594 221.441406 66.390625 221.441406 66.046875 C 221.441406 65.707031 221.269531 65.535156 220.929688 65.535156 C 220.628906 65.535156 220.414062 65.363281 220.414062 65.128906 C 220.414062 64.902344 220.1875 64.660156 219.902344 64.585938 C 219.621094 64.511719 219.390625 64.289062 219.390625 64.089844 C 219.390625 63.890625 219.195312 63.652344 218.957031 63.558594 C 218.511719 63.390625 218.050781 63.039062 216.925781 62.015625 C 216.578125 61.699219 216.140625 61.441406 215.953125 61.441406 C 215.765625 61.441406 215.550781 61.207031 215.476562 60.925781 C 215.386719 60.585938 215.207031 60.464844 214.9375 60.570312 C 214.640625 60.683594 214.527344 60.574219 214.527344 60.1875 C 214.527344 59.878906 214.363281 59.648438 214.144531 59.648438 C 213.9375 59.648438 213.621094 59.417969 213.445312 59.136719 C 213.269531 58.855469 212.984375 58.625 212.8125 58.625 C 212.640625 58.625 212.375 58.394531 212.222656 58.113281 C 212.042969 57.777344 211.6875 57.601562 211.191406 57.601562 C 210.601562 57.601562 210.433594 57.484375 210.433594 57.089844 C 210.433594 56.746094 210.261719 56.574219 209.921875 56.574219 C 209.597656 56.574219 209.40625 56.40625 209.40625 56.117188 C 209.40625 55.835938 209.199219 55.644531 208.871094 55.621094 C 208.574219 55.597656 208.199219 55.40625 208.039062 55.195312 C 207.875 54.980469 207.425781 54.6875 207.039062 54.546875 C 206.652344 54.402344 206.335938 54.109375 206.335938 53.894531 C 206.335938 53.679688 206.113281 53.503906 205.839844 53.503906 C 205.566406 53.503906 205.269531 53.386719 205.179688 53.242188 C 205.09375 53.101562 204.910156 53.050781 204.777344 53.132812 C 204.640625 53.21875 204.5625 53.136719 204.601562 52.953125 C 204.640625 52.769531 204.414062 52.582031 204.097656 52.53125 C 203.777344 52.484375 203.519531 52.28125 203.519531 52.078125 C 203.519531 51.875 203.40625 51.699219 203.265625 51.679688 C 203.125 51.664062 202.894531 51.621094 202.753906 51.585938 C 202.609375 51.546875 202.277344 51.507812 202.015625 51.488281 C 201.75 51.472656 201.46875 51.214844 201.390625 50.917969 C 201.3125 50.621094 201.136719 50.453125 200.996094 50.539062 C 200.855469 50.625 200.566406 50.453125 200.355469 50.152344 C 200.121094 49.8125 199.675781 49.59375 199.1875 49.574219 C 198.617188 49.550781 198.398438 49.417969 198.398438 49.089844 C 198.398438 48.792969 198.1875 48.628906 197.761719 48.601562 C 197.40625 48.582031 196.976562 48.550781 196.800781 48.539062 C 196.625 48.523438 196.398438 48.308594 196.296875 48.0625 C 196.171875 47.761719 195.832031 47.617188 195.238281 47.617188 C 194.558594 47.617188 194.371094 47.515625 194.394531 47.167969 C 194.421875 46.828125 194.203125 46.699219 193.472656 46.640625 C 192.882812 46.59375 192.511719 46.429688 192.511719 46.21875 C 192.511719 45.824219 191.957031 45.566406 191.113281 45.566406 C 190.757812 45.566406 190.476562 45.382812 190.402344 45.097656 C 190.3125 44.761719 190.015625 44.621094 189.355469 44.59375 C 188.804688 44.574219 188.222656 44.347656 187.914062 44.039062 C 187.566406 43.695312 187.054688 43.519531 186.398438 43.519531 C 185.613281 43.519531 185.375 43.410156 185.269531 43 C 185.191406 42.714844 185.035156 42.5 184.917969 42.519531 C 183.992188 42.679688 182.527344 42.449219 182.527344 42.140625 C 182.527344 41.722656 181.980469 41.472656 181.074219 41.472656 C 180.722656 41.472656 180.140625 41.242188 179.78125 40.960938 C 179.316406 40.59375 178.742188 40.449219 177.757812 40.449219 C 176.707031 40.449219 176.382812 40.359375 176.382812 40.0625 C 176.382812 39.632812 176.445312 39.652344 174.765625 39.550781 C 173.984375 39.503906 173.421875 39.324219 173.226562 39.054688 C 172.996094 38.738281 172.453125 38.617188 171.132812 38.578125 C 169.828125 38.542969 169.230469 38.410156 168.898438 38.078125 C 168.535156 37.71875 167.992188 37.632812 166.078125 37.632812 C 163.984375 37.632812 163.667969 37.570312 163.386719 37.121094 C 163.09375 36.652344 162.789062 36.609375 159.742188 36.609375 C 156.785156 36.609375 156.359375 36.554688 155.917969 36.109375 C 155.4375 35.628906 154.992188 35.609375 145.996094 35.597656 C 140.816406 35.589844 136.703125 35.671875 136.863281 35.777344 "/>
</g>
</svg>
