<svg width="750" height="750" viewBox="0 0 750 750" fill="none" xmlns="http://www.w3.org/2000/svg">
<path d="M375 750C582.107 750 750 582.107 750 375C750 167.893 582.107 0 375 0C167.893 0 0 167.893 0 375C0 582.107 167.893 750 375 750Z" fill="url(#paint0_linear_1_253)"/>
<path opacity="0.25" d="M607.578 246.646C588.938 227.621 564.473 215.696 538.263 212.861C512.054 210.027 485.684 216.454 463.554 231.07C487.527 258.853 500.243 294.911 499.12 331.92C497.997 368.929 483.12 404.114 457.51 430.329L387.739 501.568L411.152 525.473L420.733 515.69L444.688 540.15L435.108 549.933L454.274 569.501L607.582 412.971C629.181 390.913 641.315 360.999 641.314 329.807C641.314 298.616 629.179 268.703 607.578 246.646Z" fill="black"/>
<path opacity="0.25" d="M438.121 244.235C427.426 233.315 414.729 224.652 400.755 218.742C386.78 212.832 371.803 209.79 356.677 209.79C341.551 209.79 326.574 212.832 312.599 218.742C298.625 224.652 285.928 233.315 275.232 244.235L121.924 400.767L141.09 420.33L150.67 410.548L174.627 435.009L165.046 444.79L189.002 469.25L198.583 459.467L227.329 488.819L217.749 498.601L241.706 523.061L251.287 513.278L275.243 537.734L265.662 547.517L284.828 567.085L438.136 410.553C459.732 388.494 471.862 358.58 471.86 327.391C471.857 296.201 459.721 266.29 438.121 244.235Z" fill="black"/>
<path d="M594.331 233.124C575.692 214.098 551.227 202.173 525.017 199.339C498.808 196.504 472.438 202.931 450.309 217.547C474.281 245.33 486.997 281.389 485.874 318.398C484.751 355.407 469.873 390.592 444.263 416.807L374.492 488.045L397.905 511.95L407.486 502.169L431.442 526.627L421.861 536.409L441.027 555.978L594.336 399.447C615.935 377.39 628.069 347.475 628.068 316.284C628.067 285.093 615.932 255.18 594.331 233.124Z" fill="#D7D7D7"/>
<path d="M594.331 233.124C575.692 214.098 551.227 202.173 525.017 199.339C498.808 196.504 472.438 202.931 450.309 217.547C474.281 245.33 486.997 281.389 485.874 318.398C484.751 355.407 469.873 390.592 444.263 416.807L374.492 488.044L384.663 498.43L394.243 488.647L431.442 526.627L421.861 536.409L427.78 542.453L581.09 385.922C626.071 339.99 639.312 279.05 594.331 233.124Z" fill="white"/>
<path d="M424.894 230.71C414.199 219.789 401.502 211.127 387.527 205.217C373.553 199.307 358.576 196.265 343.45 196.265C328.324 196.265 313.347 199.307 299.372 205.217C285.398 211.127 272.7 219.789 262.005 230.71L108.696 387.241L127.857 406.81L137.438 397.027L161.394 421.489L151.813 431.271L175.77 455.73L185.35 445.949L214.097 475.3L204.516 485.081L228.473 509.541L238.053 499.758L262.01 524.218L252.429 534.001L271.595 553.569L424.903 397.038C446.501 374.979 458.633 345.063 458.631 313.872C458.63 282.681 446.494 252.767 424.894 230.71Z" fill="#D7D7D7"/>
<path d="M424.894 230.71C414.199 219.789 401.502 211.127 387.527 205.217C373.553 199.307 358.576 196.265 343.45 196.265C328.324 196.265 313.347 199.307 299.372 205.217C285.398 211.127 272.701 219.789 262.005 230.71L108.696 387.241L114.615 393.284L124.196 383.502L161.394 421.483L151.813 431.266L162.522 442.2L172.103 432.418L214.092 475.289L204.512 485.071L215.221 496.006L224.801 486.223L262 524.205L252.419 533.987L258.338 540.029L411.647 383.498C456.633 337.575 469.876 276.636 424.894 230.71Z" fill="white"/>
<defs>
<linearGradient id="paint0_linear_1_253" x1="267.426" y1="36.6624" x2="490.021" y2="736.76" gradientUnits="userSpaceOnUse">
<stop offset="0.15709" stop-color="#FF1DFF"/>
<stop offset="1" stop-color="#672EEB"/>
</linearGradient>
</defs>
</svg>
