<svg width="218" height="219" viewBox="0 0 218 219" fill="none" xmlns="http://www.w3.org/2000/svg">
<path d="M109 218.1C169.089 218.1 217.8 169.389 217.8 109.3C217.8 49.2114 169.089 0.5 109 0.5C48.9114 0.5 0.199997 49.2114 0.199997 109.3C0.199997 169.389 48.9114 218.1 109 218.1Z" fill="white"/>
<path d="M159.7 75.8C146.4 75.8 134.6 81 125.7 96.6C125.2 97.5 125.9 98.7 126.9 98.7H151.1C152.1 98.7 152.8 99.5 152.8 100.4V118.1C152.8 119.1 152 119.8 151.1 119.8H118.4C117.1 119.8 115.9 120.6 115.3 121.8C101 154.7 75.4 161.8 60.8 163C53.2 163.6 45.4 162.9 38 161.1C37.1 160.9 36.5 161.9 37 162.6C54.5 185.6 77.4 199.2 113.3 199.2C155.6 199.2 194.2 160.2 194.2 118.7C194.1 90 177.7 75.8 159.7 75.8Z" fill="#187F49"/>
<path d="M180.7 55.5C163.2 32.7 140.4 19.3 104.7 19.3C62.4 19.3 23.8 58.3 23.8 99.8C23.8 128.7 40.2 142.6 58.3 142.6C71.6 142.6 83.4 137.5 92.2 122.1C92.7 121.2 92 120 91 120H66.7C65.7 120 65 119.2 65 118.3V100.6C65 99.6 65.8 98.9 66.7 98.9H99.5C100.8 98.9 102 98.1 102.6 96.9C116.9 64 142.5 56.9 157.1 55.7C164.5 55.1 172.2 55.8 179.5 57.5C180.6 57.5 181.3 56.3 180.7 55.5Z" fill="#A6C15B"/>
</svg>
