<svg version="1.1" viewBox="0 0 200 200" xml:space="preserve" xmlns="http://www.w3.org/2000/svg"><path d="m96.359 0.067597c55.178-2.0107 101.54 41.081 103.57 96.259 2.0286 55.178-41.048 101.56-96.225 103.6-55.203 2.0474-101.61-41.053-103.64-96.256-2.0294-55.203 41.086-101.59 96.29-103.61z" fill="#c2a865" style="stroke-width:.26048"/><path d="m94.221 4.6331c52.656-3.1888 97.923 36.921 101.1 89.578 3.1732 52.657-36.95 97.912-89.608 101.07-52.636 3.1563-97.869-36.947-101.04-89.582-3.1719-52.635 36.918-97.88 89.552-101.07z" fill="#fff" style="stroke-width:.26048"/><path d="m94.991 10.153c49.607-2.7504 92.046 35.244 94.778 84.852 2.7319 49.608-35.278 92.033-84.887 94.747-49.583 2.7124-91.981-35.274-94.712-84.856-2.7309-49.582 35.24-91.994 84.821-94.743z" fill="#c2a865" style="stroke-width:.26048"/><path d="m94.179 14.088c47.453-3.1878 88.501 32.704 91.674 80.158 3.1727 47.453-32.732 88.49-80.187 91.648-47.433 3.1563-88.448-32.729-91.619-80.161-3.1714-47.432 32.701-88.458 80.132-91.644z" fill="#fff" style="stroke-width:.26048"/><path d="m97.776 20.074c43.943-1.1281 80.482 33.576 81.617 77.519 1.1347 43.943-33.565 80.487-77.508 81.628-43.951 1.1412-80.505-33.567-81.639-77.518-1.1349-43.952 33.578-80.5 77.53-81.629z" fill="#c2a865" style="stroke-width:.26048"/><path d="m97.245 23.29c42.096-1.3272 77.302 31.712 78.649 73.808 1.3464 42.095-31.677 77.317-73.771 78.683-42.122 1.3668-77.372-31.682-78.719-73.805-1.3475-42.123 31.718-77.357 73.841-78.685z" fill="#fbdf7f" style="stroke-width:.26048"/><path d="m97.404 50.228c9.9671-0.26204 20.634 2.3501 28.566 8.5732 5.6749 4.4113 9.7019 10.603 11.434 17.579 0.52878 2.187 0.77285 4.6256 1.0474 6.8767l-17.4-0.0018c-8e-3 -0.12998-0.0177-0.25996-0.0286-0.38994-1.5984-19.892-31.385-22.791-42.077-8.8395-6.9205 9.0304-7.9812 20.752-7.044 31.689 1.4087 16.441 12.072 28.976 29.404 27.175 6.9533-0.7132 11.753-3.2998 16.126-8.736-2.733-0.056-5.5837-0.0154-8.3253-0.0151l-0.0208-12.933c4.1247 0.0836 8.4107 0.0274 12.54 0.0211-4e-3 -0.96613 0.0174-1.6215 0.10159-2.5827-7.6746 0.26803-16.167-0.013-23.938 0.0784l0.02214-8.6303c-0.0036-1.5348-0.09221-3.492 0.02032-4.9666 0.24199-0.21412 0.31909-0.13858 0.73612-0.15733l39.808-0.0044c-0.1206 1.7033-0.0565 4.007-0.0529 5.7572 0.0281 3.5162 0.0172 7.0325-0.0328 10.548 3.4493-0.1081 7.3396-0.0271 10.824-0.0326l-0.0109 13.173-10.791-0.0154c0.2274 6.9671-0.11227 14.33 0.0763 21.391l-12.701-3e-3c-0.2472-2.8002-0.96535-5.4993-1.1391-8.4136-9.8256 9.6873-23.772 12.129-36.954 9.5667-36.946-7.1816-43.781-59.205-20.918-83.956 8.2041-8.8811 18.984-12.296 30.727-12.75z" fill="#fff" style="stroke-width:.26048"/><path d="m95.653 53.345c8.4284-0.66918 18.787 1.492 25.781 6.188 7.8528 5.2724 11.575 11.58 13.5 20.583-3.6916 0.04454-7.4631 0.0049-11.161 0.0052-2.9291-16.585-23.535-20.998-37.093-15.546-17.71 7.1231-20.828 32.238-16.627 48.54 2.3251 9.0223 7.9215 17.541 16.938 20.864 7.1158 2.6223 15.935 2.8528 22.959-0.24381 5.3672-2.3378 9.5685-6.7363 11.658-12.205l-9.6472 0.0122c-5e-3 -2.5587-0.0289-5.1174-0.0716-7.6756 4.2641 0.069 8.6826-7.9e-4 12.968 0.012-0.0776-2.6499-0.0854-5.3013-0.0237-7.9517l-19.808-2e-3 -4.1148-2e-3c-0.0234-2.652-0.0141-5.3042 0.0287-7.9562l34.504-0.0021 5e-3 15.868 10.797-0.0774c0.15265 2.4777 0.094 5.2664 0.0922 7.7712l-10.904 0.0237c0.0784 6.9817 0.0125 14.088 0.0237 21.082l-7.1359 0.0141c-0.11175-1.3381-0.6671-3.4886-0.94738-4.8715-0.55561-2.8111-1.0813-5.628-1.577-8.45-0.901 1.9132-2.0349 3.7077-3.3761 5.343-5.0599 6.2026-12.614 9.0682-20.311 9.9361-25.233 2.8549-43.184-14.712-44.981-39.314-1.9604-26.845 9.5878-49.28 38.524-51.946z" fill="#5e5d5d" style="stroke-width:.26048"/><path d="m117.26 154.65c-0.43075 0.0182-0.89695 0.13451-1.3223 0.30859-0.42534 0.17406-0.81 0.40518-1.0801 0.65039-0.92481 0.83965-1.4744 1.5807-1.6934 3.1934-0.14964 1.0778 0.15498 2.1685 0.83984 3.0137 1.7063 2.088 4.4385 1.6374 6.3789 0.15821-0.71527 5.7576-3.9358 1.8987-4.166 4.8301-0.0102 0.99851 0.80362 0.90755 1.7441 0.88086 6.0716-0.17369 5.9146-9.3348 2.1973-12.154-0.91189-0.6919-1.8894-0.92378-2.8984-0.88086zm-33.693 0.27734c-0.21377 0.00423-0.41364 0.02736-0.5918 0.06641-1.2201 0.26752-2.0675 0.63443-3.0605 1.9238-0.66655 0.86009-0.94637 1.9592-0.77344 3.0332 0.43974 2.6604 3.0358 3.6288 5.4551 3.3125-3.4878 4.6364-4.358-0.31401-6.0176 2.1133-0.50614 0.86078 0.24535 1.1876 1.0742 1.6328 5.3515 2.8733 9.7763-5.149 7.957-9.4453-0.44615-1.0542-1.1778-1.7417-2.0742-2.207-0.38264-0.19864-0.84526-0.32779-1.3008-0.38867-0.22776-0.03045-0.4542-0.04524-0.66797-0.04102zm9.8398 1.7656c-0.45904 0.0222-0.89992 0.1109-1.2363 0.25195-1.1519 0.483-1.9177 0.99807-2.6621 2.4453-0.50065 0.96613-0.57652 2.0978-0.21289 3.123 0.91195 2.5376 3.6382 3.0224 5.9609 2.2754-2.5952 5.1891-4.344 0.47745-5.5391 3.1641-0.34274 0.93791 0.45602 1.1235 1.3516 1.4121 5.7817 1.8619 8.6887-6.8265 6.125-10.725-0.6288-0.95649-1.4719-1.5026-2.4375-1.7988-0.41217-0.12644-0.89057-0.17064-1.3496-0.14843zm10.254 0.26757c-0.22966-0.00172-0.46211 0.01739-0.68945 0.05079-0.45469 0.0668-0.88599 0.1979-1.207 0.37109-1.0994 0.59303-1.8104 1.1785-2.4102 2.6914-0.40405 1.0103-0.37008 2.144 0.091797 3.1289 1.1551 2.4366 3.9155 2.6536 6.1543 1.6836-2.0768 5.4174-4.2758 0.89912-5.2031 3.6894-0.24965 0.96686 0.56301 1.0735 1.4824 1.2734 5.9357 1.2893 7.9824-7.6419 5.0508-11.271-0.71907-0.89062-1.6137-1.3502-2.6035-1.5508-0.21126-0.0428-0.43635-0.06468-0.66601-0.06641zm13.867 0.10743c0.28091-0.01055 0.56365 0.03567 0.83398 0.14257 0.69196 0.27347 1.1837 0.89756 1.2852 1.6348 0.10123 0.73731-0.20237 1.4718-0.79492 1.9219-0.8966 0.68094-2.1742 0.51837-2.8691-0.36718-0.695-0.88554-0.55028-2.166 0.32421-2.875 0.21677-0.17567 0.46337-0.30157 0.72266-0.37696 0.16205-0.04711 0.3295-0.07375 0.49805-0.08007zm-33.84 0.2832c0.13639 0.00552 0.27115 0.02474 0.40234 0.05664 0.4373 0.10628 0.83513 0.35498 1.125 0.71875 0.46384 0.58177 0.578 1.3688 0.29883 2.0586-0.27943 0.68977-0.90848 1.1744-1.6465 1.2695-1.1166 0.14394-2.1411-0.63401-2.3027-1.748-0.16162-1.114 0.59949-2.1508 1.7109-2.3301 0.13773-0.0222 0.27572-0.03092 0.41211-0.02539zm9.8145 1.7676c0.067739-0.00282 0.13378-0.00191 0.20117 0.00195 0.4493 0.0257 0.88565 0.19833 1.2363 0.50391 0.56108 0.48866 0.81631 1.2419 0.66602 1.9707-0.15056 0.72883-0.68185 1.3202-1.3906 1.5469-1.0724 0.3428-2.2223-0.238-2.582-1.3047-0.35973-1.0667 0.20273-2.2249 1.2637-2.6016 0.19722-0.06998 0.40225-0.10875 0.60547-0.11719zm10 0.27734c0.44967-0.0182 0.90049 0.11093 1.2793 0.38086 0.60605 0.43162 0.93398 1.1565 0.85547 1.8965-0.0788 0.74003-0.55107 1.3811-1.2344 1.6758-1.0339 0.44573-2.2333-0.02042-2.6953-1.0469-0.46203-1.0265-0.01525-2.2346 1.0039-2.7129 0.25261-0.11848 0.52122-0.18245 0.79102-0.19336zm8.4258 5.9648a1.7191 1.737 0 0 0-1.7188 1.7363 1.7191 1.737 0 0 0 1.7188 1.7383 1.7191 1.737 0 0 0 1.7188-1.7383 1.7191 1.737 0 0 0-1.7188-1.7363z" style="fill:#c2a865;stroke-width:.26048"/></svg>
