<svg width="290" height="290" viewBox="0 0 290 290" fill="none" xmlns="http://www.w3.org/2000/svg">
<circle cx="145" cy="145" r="128" transform="rotate(-8 145 145)" fill="#5326EC"/>
<path d="M250.025 147.649C249.808 150.572 249.724 153.514 249.353 156.415C245.417 187.221 230.879 211.876 205.458 229.891C186.469 243.352 165.073 249.601 141.799 248.738C114.885 247.746 91.7191 237.713 72.3342 219.12C72.1558 218.949 72.1629 218.266 72.3384 218.084C96.7059 193.951 121.096 169.842 145.508 145.758C146.086 145.236 146.831 144.935 147.61 144.91C181.755 144.958 215.899 145.035 250.042 145.143L250.025 147.649Z" fill="#FCFCFF"/>
<path d="M148.503 40.8139C151.373 41.0384 154.249 41.1725 157.108 41.4876C173.851 43.3388 189.255 48.8833 203.321 58.1211C203.417 58.1929 203.508 58.2699 203.595 58.3518L194.644 67.1837C192.696 69.106 190.76 71.0413 188.789 72.9392C188.664 73.0188 188.522 73.0669 188.375 73.0793C188.228 73.0917 188.08 73.068 187.944 73.0103C173.778 64.8425 158.51 61.063 142.139 61.6715C105.513 63.0443 73.4839 88.7761 64.5612 124.153C59.0381 146.072 61.9783 166.917 73.0918 186.613C73.1979 186.8 73.202 187.213 73.073 187.332C68.195 192.19 63.3001 197.037 58.3885 201.87C58.3406 201.918 58.2813 201.956 58.1697 202.045C57.7119 201.334 57.2512 200.646 56.8179 199.943C44.8254 180.49 39.5817 159.368 41.3972 136.588C45.1811 89.2335 80.7547 50.5233 127.917 42.407C132.685 41.5873 137.559 41.3888 142.383 40.9027L143.368 40.8004L148.503 40.8139Z" fill="#FCFCFF"/>
<path d="M201.178 103.711C201.204 99.3853 202.735 95.2003 205.51 91.8682C208.285 88.536 212.134 86.2626 216.4 85.4349C220.667 84.6072 225.087 85.2764 228.91 87.3285C232.733 89.3806 235.721 92.6888 237.366 96.6901C239.011 100.691 239.212 105.138 237.934 109.274C236.656 113.41 233.978 116.979 230.356 119.374C226.734 121.769 222.391 122.841 218.068 122.409C213.745 121.977 209.708 120.067 206.644 117.003C204.899 115.255 203.518 113.182 202.58 110.901C201.642 108.62 201.166 106.176 201.178 103.711Z" fill="#FCFCFF"/>
</svg>
