<svg width="256" height="256" viewBox="0 0 256 256" fill="none" xmlns="http://www.w3.org/2000/svg">
<g clip-path="url(#clip0_184_54)">
<path d="M128.006 -0.000976153C153.321 0.00155389 178.066 7.51081 199.112 21.5772C220.159 35.6437 236.562 55.6355 246.248 79.0248C255.934 102.414 258.466 128.15 253.526 152.979C248.586 177.808 236.395 200.614 218.494 218.514C200.593 236.414 177.787 248.604 152.959 253.542C128.131 258.48 102.397 255.944 79.0096 246.256C55.6226 236.567 35.6335 220.161 21.5699 199.112C7.50637 178.062 1.26419e-07 153.315 0 128C0.000335925 111.189 3.31164 94.5438 9.74484 79.0134C16.178 63.4829 25.6071 49.3718 37.4937 37.4858C49.3803 25.5997 63.4916 16.1715 79.0218 9.7395C94.5521 3.3075 111.197 -0.00232014 128.006 -0.000976153Z" fill="white"/>
<path d="M52.9188 125.774C58.3297 120.631 65.5826 117.868 72.8739 116.295C79.9175 114.898 87.0696 114.119 94.2488 113.966C103.203 113.595 112.247 113.595 120.996 115.553C129.746 117.51 138.227 121.578 144.162 128.281C145.874 130.113 147.224 132.253 148.14 134.588C148.891 136.707 149.183 138.961 148.997 141.201C148.956 142.001 148.796 142.79 148.524 143.542C148.067 144.582 147.37 145.499 146.49 146.216C142.742 149.465 137.331 150.118 132.445 149.312C127.558 148.506 122.992 146.433 118.336 144.745C108.632 141.426 98.6019 139.153 88.4158 137.965C90.8116 136.282 92.8146 134.1 94.2872 131.569C94.3957 131.402 94.4677 131.215 94.4986 131.019C94.5295 130.822 94.5184 130.622 94.4662 130.43C94.3526 130.19 94.1699 129.99 93.9418 129.854C92.7497 129.123 91.3616 128.777 89.9657 128.861C88.5699 128.946 87.2339 129.458 86.1389 130.328C83.9766 132.129 82.5256 134.641 82.0455 137.415C81.9588 138.07 81.7413 138.7 81.4059 139.27C80.997 139.767 80.4627 140.147 79.8581 140.37C75.0613 142.481 69.3817 141.598 64.7 139.244C60.0182 136.89 56.1424 133.244 52.3432 129.65C51.7271 129.157 51.2362 128.526 50.9106 127.808C50.7523 127.446 50.7167 127.043 50.809 126.66C50.9014 126.276 51.1168 125.934 51.4222 125.684C51.5733 125.981 51.8245 126.214 52.1313 126.343C52.438 126.472 52.7805 126.487 53.0979 126.388C53.7278 126.164 54.294 125.791 54.7481 125.3C56.1168 124.034 57.4983 122.767 58.867 121.501" fill="#8045FF"/>
<path d="M201.98 55.0321C193.067 46.0259 182.585 38.7213 171.05 33.4769C172.474 30.2045 173.301 26.7041 173.493 23.1406L173.468 23.1918C171.834 26.3088 170.001 29.317 167.98 32.1976C165.753 35.4255 163.357 38.534 160.804 41.5105L166.727 41.5745C160.057 52.2615 149.842 60.2629 137.868 64.1786C137.817 69.0397 130.398 77.6362 130.398 77.6362C138.92 75.1527 146.956 71.2379 154.165 66.0591C205.268 68.4001 217.74 98.3343 221.232 103.989C221.731 104.794 221.334 105.549 221.232 105.421C218.146 99.9123 213.978 95.0839 208.98 91.2259C203.981 87.3679 198.254 84.5599 192.144 82.9706L197.554 89.6355C184.052 83.1366 169.462 79.1981 154.523 78.02C175.821 82.1894 195.135 93.3067 209.438 109.63C219.179 122.235 225.652 137.054 228.28 152.766C228.395 153.623 228.472 154.288 228.51 154.749C230.787 146.196 231.964 137.388 232.015 128.537C232.127 114.907 229.531 101.391 224.377 88.7728C219.224 76.1545 211.615 64.6857 201.993 55.0321M146.528 25.8654L145.045 25.6096L143.765 25.4049H143.586L141.309 25.0851H141.156L139.902 24.9316C139.084 24.842 138.265 24.7653 137.434 24.6885H137.139L136.206 24.6117C135.233 24.535 134.248 24.471 133.263 24.4199C132.406 24.4199 131.549 24.3431 130.692 24.3303H126.612C125.294 24.3303 123.964 24.3815 122.659 24.4582L121.354 24.535C94.9457 26.0737 70.1325 37.6815 52.0254 56.9677C33.9182 76.2539 23.8958 101.75 24.0225 128.205C23.9755 130.21 24.0824 132.215 24.3423 134.204C24.4727 135.089 24.6738 135.961 24.9435 136.814L25.033 137.095C26.786 142.376 29.1515 147.434 32.0812 152.165C33.8481 155.261 35.8136 158.239 37.9654 161.081C38.865 162.309 39.83 163.487 40.8563 164.612L41.1633 164.97L41.5471 165.392L42.6088 166.556L42.839 166.799C48.1502 172.136 54.3263 176.534 61.1056 179.809C71.518 184.859 82.8241 187.807 94.3767 188.482C98.3899 188.753 102.418 188.723 106.427 188.393H107.028C111.356 188.061 115.623 187.162 119.717 185.719C123.165 184.649 126.393 182.968 129.247 180.756C132.853 178.093 135.948 174.799 138.38 171.033C141.976 165.591 143.971 159.248 144.136 152.728C143.108 143.573 138.828 135.092 132.073 128.828C125.319 122.564 116.54 118.933 107.335 118.597C106.644 118.533 105.928 118.482 105.199 118.444H101.169L99.9795 118.495L98.969 118.572L98.0863 118.661C97.4979 118.713 96.8967 118.789 96.3211 118.879C94.8117 119.084 93.2767 119.365 91.7289 119.71C77.4917 122.972 82.4421 134.383 82.6084 134.767C79.2457 134.462 75.9261 133.792 72.7076 132.771H72.5541L71.9273 132.541C68.4891 131.358 65.3257 129.491 62.6278 127.053L62.3719 126.81C60.6112 125.071 59.1079 123.09 57.9076 120.926C55.94 122.162 54.0398 123.503 52.2153 124.942C50.8292 117.641 50.5446 110.172 51.3711 102.786C53.098 94.4198 66.4269 84.3522 66.4269 84.3522C66.4269 84.3522 64.764 92.9359 72.4006 93.0254C76.0718 93.0638 80.0373 90.3135 83.2096 87.5503C86.625 84.5697 89.1066 81.5891 89.2857 82.1391C89.631 83.1881 96.5897 83.2648 96.5897 83.2648C96.5897 83.2648 93.4557 83.2649 90.7311 77.6362C88.0065 72.0076 96.4746 63.7693 110.469 58.7546C119.906 54.9044 128.413 49.0868 135.425 41.6896C138.905 42.0862 139.838 51.8212 139.838 51.8212C149.056 46.1943 157.374 39.2125 164.514 31.1103C158.683 28.8157 152.654 27.06 146.503 25.8654V25.891M110.315 70.0503C103.19 72.8263 104.086 77.7258 104.086 77.7258C108.107 78.1992 112.176 77.3935 115.713 75.4231C119.914 72.5364 122.997 68.2966 124.45 63.4111C119.872 65.8708 115.157 68.0661 110.328 69.9864V70.0503M64.5721 97.2853C62.4359 96.5689 59.6473 99.0762 58.3426 102.901C57.7631 104.514 57.5661 106.239 57.7669 107.941C57.8791 107.179 58.0632 106.43 58.317 105.703C59.6345 101.878 62.4103 99.3577 64.5465 100.087C65.1548 100.376 65.6714 100.828 66.0393 101.392C66.4072 101.957 66.6121 102.612 66.6316 103.285C67.0793 100.343 66.299 97.8482 64.5977 97.2725M110.341 70.0503C103.216 72.8263 104.111 77.7258 104.111 77.7258C108.133 78.1992 112.201 77.3935 115.739 75.4231C119.939 72.5364 123.023 68.2966 124.476 63.4111C119.902 65.8707 115.191 68.0661 110.366 69.9864L110.341 70.0503ZM64.5977 97.2853C62.4615 96.5689 59.6729 99.0762 58.3681 102.901C57.7887 104.514 57.5917 106.239 57.7925 107.941C57.9047 107.179 58.0888 106.43 58.3426 105.703C59.6601 101.878 62.4359 99.3577 64.5721 100.087C65.1804 100.376 65.6969 100.828 66.0648 101.392C66.4327 101.957 66.6377 102.612 66.6572 103.285C67.1049 100.343 66.3246 97.8482 64.6233 97.2725M110.366 70.0503C103.241 72.8263 104.137 77.7258 104.137 77.7258C108.158 78.1992 112.227 77.3935 115.764 75.4231C119.965 72.5364 123.049 68.2966 124.501 63.4111C119.928 65.8707 115.217 68.0661 110.392 69.9864L110.366 70.0503ZM64.6233 97.2853C62.4871 96.5689 59.6985 99.0762 58.3937 102.901C57.8143 104.514 57.6172 106.239 57.8181 107.941C57.9302 107.179 58.1144 106.43 58.3681 105.703C59.6857 101.878 62.4615 99.3577 64.5977 100.087C65.206 100.376 65.7225 100.828 66.0904 101.392C66.4583 101.957 66.6633 102.612 66.6827 103.285C67.1432 100.343 66.3629 97.8482 64.6617 97.2725H64.6361" fill="#8045FF"/>
<path d="M65.199 128.793C67.297 130.378 69.6099 131.657 72.0681 132.592L72.5542 132.758H72.7077C74.6933 133.388 76.7189 133.884 78.7709 134.242C79.8954 134.382 81.0276 134.45 82.1607 134.447H82.4933V134.421C79.1697 134.114 75.8889 133.449 72.7077 132.438H72.5542L71.9274 132.208C69.5387 131.387 67.2779 130.233 65.2118 128.78M185.479 124.315L185.786 124.712C189.876 130.121 193.287 136.011 195.943 142.25C197.017 145.295 197.938 148.39 198.719 151.512C197.938 148.352 197.017 145.231 195.93 142.161C193.731 135.703 190.279 129.743 185.773 124.622L185.492 124.315M103.088 118.162H99.8133L98.6748 118.252C98.0398 118.276 97.4072 118.345 96.7816 118.456H96.6409C95.0548 118.674 93.443 118.955 91.7929 119.326C89.5323 119.778 87.3897 120.693 85.4994 122.013C87.3799 120.709 89.5094 119.807 91.7545 119.365C93.4558 118.981 95.0548 118.687 96.6665 118.482H96.8072C97.434 118.392 98.0736 118.328 98.7004 118.277L99.8388 118.188H104.61C104.111 118.175 103.6 118.162 103.088 118.162ZM130.833 104.922C132.483 106.804 133.932 108.853 135.157 111.037C130.122 109.487 124.953 108.416 119.717 107.839C116.289 107.404 112.874 107.131 109.471 107.02C108.371 106.982 107.271 106.969 106.184 106.969C105.096 106.969 104.022 106.982 102.96 107.02L101.374 107.084C85.9335 107.645 70.9161 112.279 57.8438 120.516C58.0612 120.874 58.2787 121.232 58.4961 121.578C58.3042 121.258 58.1124 120.925 57.9205 120.593C70.9748 112.368 85.9684 107.735 101.387 107.161L102.96 107.097C104.022 107.058 105.109 107.045 106.184 107.045C107.258 107.045 108.371 107.058 109.471 107.097C112.899 107.199 116.34 107.48 119.781 107.915C124.994 108.505 130.141 109.576 135.157 111.113H135.208C133.97 108.896 132.494 106.82 130.808 104.922M126.753 100.521C128.377 102.133 129.81 103.783 130.667 104.781L130.705 104.832C129.823 103.809 128.39 102.146 126.74 100.534M123.823 95.7754C122.685 95.7754 121.559 95.801 120.421 95.8522L119.269 95.9161H119.359C119.552 95.9146 119.745 95.9318 119.935 95.9673L120.433 95.9417C121.559 95.8905 122.698 95.8649 123.823 95.8649C124.949 95.8649 126.1 95.8905 127.239 95.9417C147.107 96.5055 166.019 104.599 180.145 118.584C166.029 104.557 147.104 96.4295 127.213 95.8522C126.075 95.801 124.936 95.7754 123.798 95.7754" fill="#745EA4"/>
<path d="M82.4681 134.434V134.459H82.596L82.4681 134.434ZM72.0685 132.604C74.2224 133.429 76.4691 133.988 78.7585 134.268C76.7071 133.906 74.6817 133.41 72.6952 132.784H72.5418L72.0557 132.617" fill="#4E27A4"/>
<path d="M133.968 130.52C139.435 136.371 142.945 143.779 144.009 151.717C144.06 152.036 144.099 152.369 144.137 152.689V152.561C144.227 144.988 140.479 136.929 133.968 130.52Z" fill="#745EA4"/>
<path d="M144.009 151.717C144.047 151.973 144.073 152.228 144.111 152.484C144.022 155.511 143.536 158.513 142.666 161.413C141.695 164.786 140.183 167.979 138.188 170.867L138.419 170.79C141.96 165.401 143.935 159.135 144.124 152.689C144.085 152.356 144.047 152.037 143.996 151.717" fill="#4E27A4"/>
<path d="M87.8916 223.226C97.6694 227.434 108.106 229.906 118.732 230.531C122.773 230.955 126.834 231.168 130.897 231.17C133.916 231.17 136.922 231.055 139.941 230.812L141.566 230.671C138.035 230.978 134.496 231.132 130.948 231.132C116.238 231.132 101.652 228.448 87.9044 223.213M191.044 203.718C190.698 204.204 190.34 204.677 189.982 205.151C180.697 217.312 167.397 225.784 152.451 229.059C149.829 229.61 147.181 230.057 144.52 230.377C147.181 230.045 149.816 229.61 152.451 229.059C167.399 225.788 180.699 217.315 189.982 205.151C190.34 204.677 190.698 204.191 191.044 203.718Z" fill="#745EA4"/>
<path d="M189.969 205.164C180.684 217.325 167.385 225.798 152.439 229.073C149.816 229.623 147.168 230.071 144.508 230.39L143.446 230.518L142.384 230.621H142.077C123.549 232.334 104.875 229.752 87.5079 223.073C81.432 220.734 75.6288 217.74 70.2008 214.144C64.4096 210.243 59.0193 205.778 54.1088 200.814C37.2346 182.353 26.7995 158.919 24.3682 134.025C24.5048 134.909 24.7057 135.781 24.9694 136.635C26.7222 142.025 29.1187 147.183 32.1071 151.999C33.8696 155.094 35.8309 158.073 37.9785 160.915C38.8781 162.143 39.8431 163.321 40.8694 164.446L41.1764 164.791L41.5602 165.213C41.9184 165.61 42.2765 165.993 42.6219 166.377L42.8521 166.62C48.1604 171.957 54.3372 176.352 61.1187 179.617C71.5259 184.672 82.8277 187.623 94.3771 188.303C98.3903 188.574 102.418 188.544 106.427 188.214H107.028C111.357 187.883 115.623 186.984 119.717 185.54C123.166 184.47 126.394 182.789 129.247 180.577C132.854 177.914 135.948 174.62 138.38 170.855C141.977 165.413 143.971 159.07 144.137 152.549C144.329 136.341 126.957 117.932 102.615 118.163H99.8007L98.6623 118.252C98.0273 118.277 97.3947 118.345 96.7691 118.457H96.6284C95.0422 118.674 93.4305 118.956 91.7804 119.327C83.4658 121.233 81.6877 125.928 81.6877 129.574C81.6889 131.234 82.0193 132.877 82.6599 134.409H82.5831C79.2205 134.104 75.9008 133.435 72.6824 132.413H72.5289L71.9021 132.183C68.464 131.008 65.3034 129.14 62.6153 126.695L62.3595 126.452C61.4294 125.551 60.5738 124.575 59.8011 123.536C59.1079 122.587 58.4755 121.596 57.908 120.568C70.9622 112.343 85.9559 107.71 101.374 107.136L102.947 107.072C105.079 106.995 107.254 106.995 109.471 107.072C112.899 107.174 116.34 107.456 119.781 107.89C124.994 108.48 130.141 109.551 135.157 111.089H135.208C133.953 108.847 132.456 106.749 130.744 104.833C128.608 102.364 123.069 95.8912 119.385 95.9552L120.447 95.8912C122.698 95.7889 124.975 95.7889 127.264 95.8912C138.349 96.2029 149.24 98.8649 159.219 103.701C169.197 108.537 178.035 115.437 185.147 123.945L185.428 124.239L185.774 124.674C189.863 130.083 193.274 135.973 195.93 142.212C198.547 149.623 200.273 157.318 201.073 165.136C202.662 179.397 198.68 193.72 189.957 205.113" fill="#522F9E"/>
<path d="M123.862 95.8525C122.723 95.8525 121.598 95.8781 120.472 95.9293L119.973 95.9549C122.058 96.3003 124.604 98.3726 126.778 100.522C128.416 102.134 129.861 103.809 130.744 104.82L130.833 104.922C132.517 106.823 133.992 108.899 135.234 111.114H135.182C130.167 109.577 125.02 108.507 119.807 107.916C116.353 107.481 112.925 107.199 109.497 107.097C108.397 107.059 107.297 107.046 106.209 107.046C105.122 107.046 104.048 107.059 102.986 107.097L101.412 107.161C85.9932 107.729 70.998 112.363 57.9463 120.593C58.1254 120.926 58.3172 121.245 58.5219 121.578C60.3239 124.355 62.5965 126.797 65.2376 128.793C67.3066 130.241 69.5667 131.395 71.9532 132.221L72.58 132.452H72.7335C75.9103 133.462 79.1869 134.127 82.5063 134.434H82.6598C82.4679 133.999 79.3468 126.593 85.5252 122.051C87.4155 120.732 89.5581 119.817 91.8187 119.365C93.456 118.994 95.0678 118.7 96.6667 118.495H96.8074C97.4328 118.382 98.0655 118.314 98.7006 118.29L99.8391 118.201H103.114C103.625 118.201 104.124 118.201 104.636 118.226H105.915C111.191 118.252 116.406 119.357 121.239 121.474C126.072 123.59 130.421 126.673 134.018 130.533C140.529 136.942 144.277 145.001 144.188 152.574V152.702C143.999 159.148 142.024 165.414 138.483 170.803C143.451 169.234 148.027 166.62 151.901 163.136C155.775 159.652 158.859 155.379 160.945 150.604L161.303 149.811L161.393 150.668C161.559 152.51 161.648 154.391 161.648 156.233C161.353 165.296 159.168 174.198 155.234 182.368C151.3 190.538 145.703 197.797 138.803 203.68C125.689 215.702 108.597 222.458 90.8081 222.651C89.9127 222.651 89.0045 222.625 88.0963 222.625C87.6486 222.625 87.2009 222.625 86.7532 222.651L87.559 223.073C87.687 223.124 87.8021 223.175 87.93 223.239C101.677 228.473 116.264 231.156 130.974 231.158C134.505 231.158 138.044 231.004 141.591 230.697L142.064 230.659H142.41L143.471 230.544L144.533 230.416C147.194 230.083 149.829 229.648 152.464 229.098C167.411 225.826 180.712 217.353 189.995 205.189C190.353 204.716 190.711 204.23 191.057 203.756C199.061 192.566 202.634 178.807 201.085 165.136C200.616 160.563 199.829 156.028 198.732 151.563C197.964 148.429 197.03 145.346 195.956 142.302C193.305 136.06 189.893 130.169 185.799 124.763L185.492 124.367L185.364 124.239L185.083 123.945C183.535 122.09 181.898 120.312 180.196 118.623C166.074 104.633 147.16 96.5384 127.29 95.9805C126.152 95.9293 125 95.9037 123.875 95.9037" fill="#402087"/>
<path d="M173.75 21.5157C171.102 28.6027 164.348 37.6213 160.945 41.3951C160.919 41.4207 166.522 41.523 166.509 41.5486C161.406 49.224 152.694 57.6926 137.856 64.1783C138.278 64.6644 134.185 73.9901 130.386 77.6359C130.386 77.6359 155.585 71.7642 166.394 50.644C170.953 41.5873 173.464 31.6385 173.75 21.5029V21.5157Z" fill="#391A7D"/>
<path d="M221.232 105.434C212.721 97.3209 201.482 92.6847 189.726 92.4372C189.726 92.4372 167.417 77.3422 154.523 78.0202C154.523 78.0202 184.034 79.8751 197.555 89.6357L192.144 82.9709C192.144 82.9709 210.423 85.0304 221.232 105.422V105.434Z" fill="#391A7D"/>
<path d="M117.376 66.9931C117.376 66.9931 118.297 74.5406 104.086 77.7131C104.086 77.7131 115.381 78.4167 120.191 71.3425C125 64.2683 124.45 63.3984 124.45 63.3984L117.376 66.9931Z" fill="#391A7D"/>
</g>
<defs>
<clipPath id="clip0_184_54">
<rect width="256" height="256" fill="white"/>
</clipPath>
</defs>
</svg>
