<?xml version="1.0" encoding="UTF-8"?>
<svg xmlns="http://www.w3.org/2000/svg" viewBox="0 0 256 256" width="256" height="256">
  <defs>
    <radialGradient id="bg" cx="50%" cy="35%" r="65%">
      <stop offset="0%" stop-color="#1e4a3d"/>
      <stop offset="50%" stop-color="#132b25"/>
      <stop offset="100%" stop-color="#080f0d"/>
    </radialGradient>
    <radialGradient id="glow" cx="50%" cy="35%" r="40%">
      <stop offset="0%" stop-color="#7a9944" stop-opacity="0.5"/>
      <stop offset="60%" stop-color="#3a5a2a" stop-opacity="0.2"/>
      <stop offset="100%" stop-color="#132b25" stop-opacity="0"/>
    </radialGradient>
  </defs>
  
  <rect width="256" height="256" fill="url(#bg)"/>
  <ellipse cx="128" cy="85" rx="65" ry="75" fill="url(#glow)"/>
  
  <g transform="translate(0,256) scale(0.1,-0.1)" fill="#1a3228">
    <path d="M1270 2227 c-14 -7 -31 -17 -38 -24 -7 -7 -22 -14 -33 -14 -10 -1
-25 -2 -31 -3 -7 0 -21 -16 -30 -35 -9 -19 -22 -39 -27 -44 -6 -6 -11 -18 -11
-27 0 -18 -46 -44 -61 -35 -5 4 -9 -3 -9 -15 0 -12 -5 -31 -11 -42 -8 -14 -8
-23 0 -31 17 -17 13 -27 -9 -27 -11 0 -20 -4 -20 -10 0 -5 -7 -7 -15 -4 -9 4
-15 0 -15 -9 0 -9 -9 -19 -21 -22 -11 -4 -24 -18 -29 -31 -5 -13 -14 -24 -19
-24 -6 0 -8 -6 -6 -13 3 -7 -4 -30 -15 -52 -11 -21 -20 -46 -20 -55 0 -9 -5
-21 -12 -28 -7 -7 -11 -33 -9 -60 2 -37 -2 -52 -18 -66 -11 -10 -24 -15 -29
-12 -15 9 -23 -23 -12 -43 5 -10 11 -35 13 -55 3 -21 9 -42 16 -49 12 -12 15
-47 4 -47 -5 0 -9 -15 -9 -32 -2 -47 -11 -94 -24 -117 -6 -12 -6 -22 0 -26 5
-3 7 -12 4 -19 -9 -23 23 -73 57 -90 40 -20 45 -16 24 24 -9 17 -14 38 -11 46
3 8 1 25 -4 39 -5 13 -10 55 -11 92 -1 38 -5 87 -9 109 -4 27 -3 52 6 70 l12
29 1 -37 c1 -24 10 -47 25 -64 l24 -28 6 29 c3 17 13 84 20 150 8 66 20 134
27 150 l12 30 7 -33 c13 -55 30 -63 30 -14 0 29 5 45 15 48 8 4 15 14 15 24 0
10 6 25 14 32 7 8 16 35 20 60 4 26 14 52 23 60 15 12 15 11 4 -10 -7 -13 -10
-26 -7 -29 8 -8 66 90 66 114 0 15 5 21 14 17 8 -3 18 7 25 28 7 18 17 40 22
48 5 8 12 23 15 33 4 9 10 17 15 17 5 0 9 6 9 14 0 7 10 25 21 40 l22 27 18
-28 c10 -15 21 -40 25 -55 3 -16 9 -26 13 -24 4 3 16 -17 26 -45 11 -27 25
-49 32 -49 7 0 16 -12 19 -27 4 -16 17 -41 29 -58 13 -16 35 -57 51 -90 28
-58 29 -59 34 -30 5 30 5 30 21 -15 23 -64 50 -175 61 -248 9 -52 13 -61 24
-51 21 17 32 70 23 104 -8 27 -7 28 6 11 21 -27 28 -91 22 -198 -5 -102 -11
-154 -22 -186 -10 -33 52 32 70 72 13 30 13 30 14 6 1 -14 -6 -53 -15 -85 -9
-33 -16 -71 -15 -84 0 -14 -7 -43 -18 -65 -10 -23 -24 -59 -31 -81 -7 -22 -19
-51 -27 -63 -19 -31 -15 -33 29 -15 32 13 36 18 28 33 -14 26 -12 33 6 26 10
-4 13 -2 8 6 -4 6 1 17 11 24 10 7 15 20 12 28 -4 9 -2 18 2 20 4 3 9 35 9 72
1 36 5 71 10 78 5 6 10 18 10 26 8 105 9 159 1 154 -5 -3 -9 0 -9 5 0 6 5 11
10 11 18 0 10 18 -10 23 -19 5 -20 11 -14 89 3 45 7 88 9 95 2 6 0 13 -5 15
-4 2 -10 23 -11 48 -2 25 -10 50 -17 56 -8 5 -15 22 -15 37 -1 15 -6 27 -11
27 -5 0 -6 16 -3 35 5 32 4 34 -13 25 -26 -14 -27 -14 -28 21 0 17 -3 33 -6
36 -2 3 -1 16 5 30 7 18 6 22 -4 16 -22 -14 -47 -13 -47 2 0 8 -11 17 -25 21
-23 6 -25 10 -19 40 5 28 4 33 -9 28 -9 -3 -25 3 -36 13 -11 10 -31 27 -45 38
-17 13 -25 28 -23 45 1 17 -3 25 -13 25 -8 0 -24 8 -35 18 -11 10 -32 25 -47
33 -16 8 -28 18 -28 22 0 5 -6 15 -12 24 -11 13 -18 14 -38 5z"/>
  </g>
</svg>
