<?xml version="1.0" encoding="UTF-8"?>
<svg id="logo" xmlns="http://www.w3.org/2000/svg" version="1.1" viewBox="0 0 256 256">
  <defs>
    <style>
      .cls-1 {
        fill: #000;
      }

      .cls-1, .cls-2 {
        stroke-width: 0px;
      }

      .cls-2 {
        fill: #fff;
      }
    </style>
  </defs>
  <circle id="circle" class="cls-1" cx="128" cy="128" r="128"/>
  <path id="body" class="cls-2" d="M184.497,130.439c-4.795,13.081-14.321,20.485-18.447,23.193-.492-5.184-3.515-9.634-7.818-12.096-2.289-1.314-4.943-2.068-7.774-2.068-.32,0-.64.01-.955.03-3.909.236-7.439,1.905-10.058,4.5-2.87,2.836-4.652,6.779-4.652,11.136,0,4.992,2.334,9.442,5.977,12.303.113.094.231.182.35.271-.113.182-.261.414-.428.694-1.708,2.806-5.991,10.457-7.985,19.535-2.073,9.438-3.264,20.199-3.929,28.298-.606,7.326-.778,12.465-.778,12.465,0,0-.172-5.14-.778-12.465-.665-8.098-1.856-18.86-3.929-28.298-1.994-9.078-6.277-16.729-7.985-19.535-.167-.281-.315-.512-.428-.694.118-.089.236-.177.35-.271,3.643-2.86,5.977-7.311,5.977-12.303,0-4.357-1.782-8.3-4.652-11.136-2.619-2.594-6.149-4.263-10.058-4.5-.315-.02-.635-.03-.955-.03-2.831,0-5.484.753-7.774,2.068-4.303,2.462-7.326,6.912-7.818,12.096-4.126-2.708-13.652-10.112-18.447-23.193-2.102-5.253-1.974-10.752-.556-16.335,4.441.172,8.778.773,12.962,1.758-3.668-2.338-7.577-4.332-11.678-5.937,2.944-8.241,8.177-16.566,12.736-24.428,2.59,1.644,5.061,3.461,7.399,5.435-1.625-3.047-3.476-5.957-5.529-8.704.098-.177.197-.359.295-.537,8.581-15.498,14.7-31.493,14.7-31.493,0,0,9.502,18.028,8.743,36.697-.34,8.295-4.618,11.274-7.198,15.818-.384.665-.724,1.369-1.014,2.127-3.313,8.699-.286,14.971,4.761,18.85,2.393,1.58,4.834,2.137,7.153,1.753,1.846-.3,3.614-1.201,5.214-2.663,5.056-4.603,11.958-4.603,17.014,0,1.6,1.462,3.367,2.363,5.214,2.663,2.319.384,4.761-.172,7.153-1.753,5.046-3.879,8.074-10.151,4.761-18.85-.29-.758-.63-1.462-1.014-2.127-2.58-4.544-6.858-7.522-7.198-15.818-.758-18.668,8.743-36.697,8.743-36.697,0,0,6.119,15.995,14.7,31.493.098.177.197.359.295.537-2.053,2.747-3.904,5.657-5.529,8.704,2.338-1.974,4.81-3.791,7.399-5.435,4.559,7.862,9.792,16.187,12.736,24.428-4.101,1.605-8.01,3.599-11.678,5.937,4.185-.985,8.522-1.585,12.962-1.758,1.418,5.583,1.546,11.082-.556,16.335Z"/>
  <path id="laurel" class="cls-2" d="M167.387,189.411c-.704,0-1.386-.379-1.74-1.043-.512-.96-.148-2.152.812-2.664,26.787-14.278,43.427-41.986,43.427-72.31,0-45.152-36.734-81.886-81.886-81.886S46.114,68.241,46.114,113.393c0,30.325,16.64,58.032,43.427,72.31.96.512,1.323,1.704.812,2.664-.512.959-1.705,1.323-2.664.812-28.074-14.964-45.513-44.004-45.513-75.786,0-47.324,38.5-85.824,85.824-85.824s85.824,38.5,85.824,85.824c0,31.782-17.439,60.822-45.513,75.786-.295.157-.613.232-.925.232Z"/>
</svg>