<?xml version="1.0" encoding="UTF-8"?><svg id="Layer_1" xmlns="http://www.w3.org/2000/svg" xmlns:xlink="http://www.w3.org/1999/xlink" viewBox="0 0 200 200.01"><defs><style>.cls-1{fill:url(#linear-gradient);}.cls-2{fill:url(#linear-gradient-3);}.cls-3{fill:url(#linear-gradient-4);}.cls-4{fill:url(#linear-gradient-2);}.cls-5{fill:url(#linear-gradient-6);}.cls-6{fill:url(#linear-gradient-5);}</style><linearGradient id="linear-gradient" x1="-103.12" y1="1521.81" x2="93.18" y2="1521.81" gradientTransform="translate(-1278.34 -556.32) rotate(120) scale(1 -1)" gradientUnits="userSpaceOnUse"><stop offset="0" stop-color="#030c2a"/><stop offset=".59" stop-color="#0b65e7"/></linearGradient><linearGradient id="linear-gradient-2" x1="342.16" y1="1553.84" x2="542.19" y2="1553.84" gradientTransform="translate(-619.78 -1342.01) rotate(138.08) scale(1 -1)" gradientUnits="userSpaceOnUse"><stop offset="0" stop-color="#030c2a"/><stop offset="1" stop-color="#0b65e7"/></linearGradient><linearGradient id="linear-gradient-3" x1="121.83" y1="107.98" x2="183.31" y2="90.88" gradientTransform="translate(0 202.01) scale(1 -1)" gradientUnits="userSpaceOnUse"><stop offset="0" stop-color="#000987"/><stop offset=".11" stop-color="#2248be"/><stop offset=".3" stop-color="#2774d0"/><stop offset="1" stop-color="#2c90e1"/></linearGradient><linearGradient id="linear-gradient-4" x1="31.2" y1="102.1" x2="168.73" y2="102.1" gradientTransform="translate(0 202.01) scale(1 -1)" gradientUnits="userSpaceOnUse"><stop offset="0" stop-color="#d9403e"/><stop offset=".2" stop-color="#e4af0f"/><stop offset=".28" stop-color="#e3ad0c"/><stop offset=".75" stop-color="#d96c3f"/><stop offset=".89" stop-color="#d33e3c"/><stop offset="1" stop-color="#cf3e3a"/></linearGradient><linearGradient id="linear-gradient-5" x1="57.14" y1="105.53" x2="104.14" y2="101.13" gradientTransform="translate(0 202.01) scale(1 -1)" gradientUnits="userSpaceOnUse"><stop offset="0" stop-color="#2143bc"/><stop offset=".47" stop-color="#2c7ff7"/><stop offset="1" stop-color="#2143bc"/></linearGradient><linearGradient id="linear-gradient-6" x1="8.86" y1="105.36" x2="48.23" y2="101.74" gradientTransform="translate(0 202.01) scale(1 -1)" gradientUnits="userSpaceOnUse"><stop offset=".56" stop-color="#2c90e2"/><stop offset=".88" stop-color="#2143bc"/><stop offset="1" stop-color="#000987"/></linearGradient></defs><circle class="cls-1" cx="100" cy="99.94" r="98.13"/><path class="cls-4" d="m99.81,200.01c-19.19,0-37.94-5.56-54.38-16.25-22.38-14.56-37.75-37-43.25-63.13-5.5-26.13-.5-52.82,14.06-75.19C30.81,23.06,53.25,7.68,79.37,2.18c26.13-5.5,52.82-.5,75.19,14.06,22.38,14.56,37.75,37,43.25,63.13,5.5,26.13.5,52.82-14.06,75.19-14.56,22.38-37,37.75-63.13,43.25-6.94,1.44-13.94,2.19-20.88,2.19h.06ZM80.19,6.12c-25.06,5.31-46.63,20.06-60.57,41.5C5.62,69.12.8,94.75,6.12,119.81c5.31,25.06,20.06,46.63,41.5,60.57,21.5,14,47.13,18.81,72.19,13.5,25.06-5.31,46.63-20.06,60.57-41.5,13.94-21.44,18.75-47.13,13.5-72.19-5.31-25.06-20.06-46.63-41.5-60.57C130.88,5.62,105.25.8,80.19,6.12h0Z"/><path class="cls-2" d="m171.51,97.71l-2.77-.39c-8.63-1.08-17.34-1.85-25.97-2.39-5.24-.39-10.48-.62-15.64-.85-.39.62-.85,1.31-1.23,1.93-2,3.08-4.01,6.09-6.01,9.17,7.63-.23,15.26-.54,22.88-1,9.79-.62,37.14-3.93,40.99-4.62-4.08-.77-8.17-1.39-12.25-1.85Z"/><path class="cls-3" d="m149.63,51.64c-3.31,4.85-6.09,9.71-9.32,14.56-1.93-2.54-5.24-6.86-5.86-7.7-16.87,23.04-33.52,46.31-49.39,70.11-16.87-18.65-53.7-52.78-53.7-52.78,0,0,35.29,49.39,54.86,72.35l1.93-2.77c16.33-23.11,31.82-46.92,47.15-70.81,2.08,2.23,5.55,6.01,6.24,6.7.31-.62,6.16-9.32,8.48-13.71l18.88,25.97s-12.4-26.97-19.26-41.91Z"/><path class="cls-6" d="m102.16,93.7c-13.64,0-27.35.39-40.99,1.31-1.31.08-2.62.15-3.93.31,3.08,3,6.32,6.09,9.48,9.25,9.79.54,19.57.85,29.36.92.46-.62.85-1.31,1.31-1.93l6.93-9.86c-.69,0-1.46,0-2.16,0Z"/><path class="cls-5" d="m41.61,96.71c-7.17.77-18.26,1.62-25.43,2.93,8.71,1.54,21.34,2.62,30.05,3.39-1.62-2.16-3.16-4.31-4.62-6.32Z"/></svg>