<svg clip-rule="evenodd" fill-rule="evenodd" stroke-linejoin="round" stroke-miterlimit="2" viewBox="0 0 82 82" xmlns="http://www.w3.org/2000/svg"><g fill-rule="nonzero" transform="matrix(.973212 0 0 .973212 6.08606 1.09831)"><path d="m23.951 61.605c-3.76 2.172-7.25 4.131-10.676 6.199-.994.599-1.721.613-2.718.003-3.092-1.89-6.232-3.705-9.405-5.458-.91-.503-1.166-1.096-1.151-2.073.055-3.676.081-7.354.023-11.027-.018-1.035.387-1.558 1.23-2.032 3.527-1.986 7.023-4.03 10.777-6.196-2.478-1.443-4.746-2.766-7.017-4.083-1.338-.776-2.725-1.48-3.996-2.352-.459-.314-.91-1.015-.921-1.547-.076-3.917-.07-7.834 0-11.751.008-.5.401-1.195.825-1.451 3.403-2.032 6.84-4.006 10.309-5.926.384-.212 1.111-.133 1.524.093 3.126 1.736 6.214 3.542 9.317 5.325.535.308 1.073.61 1.783 1.012.04-.6.093-1.004.093-1.405.005-3.725.029-7.45-.015-11.172-.009-.863.192-1.41.995-1.855 3.379-1.878 6.705-3.85 10.093-5.714.439-.241 1.236-.267 1.664-.032 3.419 1.902 6.81 3.862 10.157 5.892.451.273.846 1.035.855 1.576.07 4.152.038 8.31.038 12.712.66-.352 1.16-.599 1.643-.875 3.181-1.835 6.348-3.701 9.558-5.481.428-.238 1.207-.256 1.629-.023 3.463 1.925 6.897 3.905 10.294 5.949.421.253.794.968.8 1.471.046 3.868-.027 7.738 0 11.608.005.855-.317 1.285-1.033 1.687-3.036 1.701-6.04 3.46-9.052 5.202-.57.328-1.131.671-1.914 1.137 3.342 1.933 6.398 3.861 9.608 5.495 1.879.957 2.623 2.071 2.46 4.231-.241 3.216-.116 6.461-.078 9.695.011.927-.233 1.462-1.097 1.936-3.259 1.791-6.481 3.661-9.674 5.571-.817.489-1.425.48-2.225.006-3.158-1.878-6.348-3.696-9.529-5.533-.367-.213-.745-.407-1.3-.707-.035.608-.085 1.059-.087 1.509-.006 3.725-.027 7.45.017 11.172.012.84-.265 1.3-.992 1.707-3.373 1.89-6.697 3.867-10.087 5.725-.463.253-1.318.224-1.789-.038-3.297-1.826-6.525-3.777-9.817-5.612-.829-.462-1.154-.965-1.14-1.922.053-4.106.021-8.214.021-12.648zm46.725-1.001c0-3.771-.035-7.24.023-10.706.017-.989-.271-1.553-1.16-2.059-7.308-4.158-14.587-8.374-21.871-12.576-.39-.224-.759-.48-1.303-.826 8.052-4.652 15.898-9.185 23.886-13.8-3.42-1.971-6.627-3.844-9.87-5.655-.328-.184-.948-.16-1.285.029-3.783 2.146-7.534 4.344-11.3 6.522-4.045 2.34-8.093 4.67-12.449 7.185v-27.653c-3.275 1.899-6.267 3.675-9.311 5.359-.841.465-1.114.983-1.108 1.931.052 8.365.049 16.731.064 25.1v1.785c-8.105-4.67-15.945-9.189-23.982-13.821 0 3.792.037 7.31-.024 10.826-.017.965.326 1.451 1.146 1.913 5.089 2.879 10.146 5.816 15.212 8.738 2.628 1.515 5.251 3.042 8.029 4.649-8.015 4.636-15.878 9.18-23.918 13.83 3.213 1.861 6.173 3.501 9.046 5.277 1.047.649 1.794.611 2.847-.008 7.29-4.286 14.627-8.497 21.952-12.725.265-.151.562-.244 1.079-.465v27.464c3.336-1.911 6.499-3.678 9.599-5.545.402-.242.701-.995.704-1.512.044-8.465.035-16.926.035-25.391v-1.675c8.055 4.641 15.854 9.137 23.959 13.809z" fill="#0c5ff3"/><path d="m23.951 61.605h1v-1.733l-1.501.867zm-10.676 6.199.516.857.001-.001zm-2.718.003.522-.853h-.001zm-9.405-5.458-.484.875zm-1.151-2.073-1-.015zm.023-11.027 1-.015v-.001zm1.23-2.032.49.872.001-.001zm10.777-6.196.5.866 1.494-.863-1.491-.868zm-7.017-4.083-.502.865zm-3.996-2.352.566-.825-.001-.001zm-.921-1.547-1 .019v.003zm0-11.751.999.018zm.825-1.451-.512-.858-.004.002zm10.309-5.926-.484-.875zm1.524.093.485-.874-.004-.002zm9.317 5.325.499-.867h-.001zm1.783 1.012-.493.87 1.383.782.107-1.585zm.093-1.405-1-.002v.002zm-.015-11.172-1 .01v.002zm.995-1.855.484.875.002-.001zm10.093-5.714-.482-.876zm1.664-.032.485-.873-.003-.002zm10.157 5.892.519-.855zm.855 1.576-1 .016zm.038 12.712h-1v1.667l1.47-.784zm1.643-.875.496.868.003-.002zm9.558-5.481.485.875.002-.002zm1.629-.023.485-.874-.002-.002zm10.294 5.949-.516.857h.001zm.8 1.471-1 .012zm0 11.608-1 .007zm-1.033 1.687.489.872zm-9.052 5.202.499.866.001-.001zm-1.914 1.137-.511-.86-1.465.871 1.475.854zm9.608 5.495.454-.891zm2.46 4.231-.997-.075zm-.078 9.695-1 .011v.001zm-1.097 1.936-.481-.877v.001zm-9.674 5.571.513.859zm-2.225.006-.511.86h.001zm-9.529-5.533-.502.865.002.001zm-1.3-.707.475-.88-1.383-.746-.09 1.569zm-.087 1.509-1-.006v.005zm.017 11.172-1 .012v.002zm-.992 1.707-.488-.873zm-10.087 5.725.48.877zm-1.789-.038.486-.874-.001-.001zm-9.817-5.612-.487.874zm-1.14-1.922 1 .016v-.003zm46.746-13.649-.5.867 1.5.864v-1.731zm.023-10.706-1-.018v.001zm-1.16-2.059-.495.869v.001zm-21.871-12.576.499-.866-.001-.001zm-1.303-.826-.5-.866-1.427.825 1.39.885zm23.886-13.8.5.866 1.501-.867-1.502-.865zm-9.87-5.655.488-.874h-.001zm-1.285.029-.489-.873-.004.003zm-11.3 6.522-.501-.866zm-12.449 7.185h-1v1.732l1.5-.866zm0-27.653h1v-1.736l-1.502.871zm-9.311 5.359-.484-.875h-.001zm-1.108 1.931-1 .006zm.064 25.1h1v-.002zm0 1.785-.5.866 1.5.864v-1.73zm-23.982-13.821.499-.866-1.499-.864v1.73zm-.024 10.826 1 .018v-.001zm1.146 1.913.492-.87-.001-.001zm15.212 8.738-.5.866zm8.029 4.649.5.866 1.496-.865-1.495-.866zm-23.918 13.83-.501-.866-1.496.865 1.495.866zm9.046 5.277.527-.85h-.001zm2.847-.008-.507-.862zm21.952-12.725-.496-.868-.004.002zm1.079-.465h1v-1.514l-1.392.594zm0 27.464h-1v1.725l1.497-.857zm9.599-5.545-.515-.857h-.001zm.704-1.512 1 .005zm.035-27.066.499-.866-1.499-.864v1.73zm-23.267 13.944c-3.746 2.164-7.255 4.135-10.691 6.209l1.033 1.712c3.415-2.061 6.885-4.009 10.659-6.19zm-10.691 6.208c-.413.249-.664.311-.847.312-.18.001-.427-.056-.833-.305l-1.045 1.706c.591.361 1.206.602 1.888.599.679-.003 1.288-.249 1.869-.598zm-1.681.007c-3.105-1.899-6.259-3.721-9.442-5.48l-.968 1.75c3.162 1.747 6.29 3.554 9.367 5.436zm-9.442-5.48c-.343-.189-.464-.34-.522-.451-.065-.123-.12-.324-.114-.732l-1.999-.03c-.009.569.057 1.152.344 1.696.294.556.756.953 1.323 1.267zm-.636-1.183c.056-3.68.082-7.37.024-11.057l-2 .031c.058 3.658.032 7.325-.023 10.996zm.024-11.058c-.007-.381.064-.561.135-.672.079-.123.232-.274.585-.472l-.98-1.744c-.491.276-.961.624-1.29 1.139-.339.529-.461 1.127-.45 1.782zm.721-1.145c3.533-1.989 7.038-4.039 10.786-6.201l-1-1.733c-3.761 2.171-7.246 4.209-10.768 6.192zm10.789-7.932c-2.477-1.441-4.746-2.765-7.018-4.083l-1.004 1.73c2.27 1.317 4.537 2.639 7.016 4.082zm-7.018-4.083c-1.405-.815-2.701-1.467-3.932-2.312l-1.132 1.649c1.312.9 2.789 1.655 4.06 2.393zm-3.933-2.313c-.088-.06-.224-.198-.34-.387-.054-.089-.094-.173-.119-.244-.012-.034-.019-.062-.023-.083-.005-.02-.005-.03-.005-.029l-1.999.044c.011.508.217.991.439 1.354.228.373.546.742.918.996zm-.487-.741c-.075-3.903-.069-7.807 0-11.713l-1.999-.035c-.07 3.927-.076 7.856 0 11.787zm0-11.713s0-.002.001-.008.002-.014.004-.024c.003-.021.01-.049.021-.082.022-.069.056-.147.101-.227.045-.079.095-.148.141-.2.048-.054.076-.072.075-.071l-1.033-1.713c-.409.247-.72.64-.922.997-.203.357-.379.822-.387 1.293zm.339-.61c3.393-2.027 6.82-3.996 10.28-5.91l-.968-1.75c-3.479 1.925-6.925 3.905-10.337 5.943zm10.28-5.909c-.038.02-.044.014.004.007.043-.007.108-.01.187-.004.173.014.313.061.368.091l.962-1.753c-.358-.197-.788-.302-1.178-.332-.37-.028-.875-.001-1.311.24zm.554.092c3.118 1.731 6.193 3.529 9.305 5.317l.996-1.734c-3.094-1.778-6.195-3.591-9.33-5.332zm9.304 5.316c.539.311 1.083.616 1.789 1.016l.985-1.741c-.713-.403-1.245-.702-1.776-1.008zm3.279.213c.036-.518.096-1.028.096-1.472h-2c0 .359-.045.657-.091 1.337zm.096-1.47c.005-3.719.029-7.455-.015-11.185l-2 .023c.044 3.713.02 7.427.015 11.158zm-.015-11.184c-.004-.365.041-.534.088-.629.037-.073.117-.189.391-.341l-.969-1.749c-.529.293-.95.673-1.212 1.199-.252.506-.303 1.043-.298 1.54zm.481-.971c3.454-1.92 6.661-3.825 10.089-5.711l-.964-1.753c-3.347 1.842-6.793 3.88-10.097 5.716zm10.089-5.711c.009-.005.05-.024.126-.042.073-.016.16-.027.252-.03.091-.002.174.005.238.018.069.013.092.026.083.021l.965-1.751c-.426-.235-.928-.297-1.333-.287-.411.01-.892.097-1.295.318zm.696-.035c3.41 1.897 6.789 3.85 10.124 5.873l1.038-1.71c-3.359-2.037-6.761-4.003-10.191-5.91zm10.124 5.873c-.002-.002.028.017.08.078.049.058.102.135.15.226.107.2.143.368.144.433l2-.033c-.008-.476-.174-.959-.38-1.343-.202-.379-.521-.807-.956-1.071zm.374.737c.07 4.142.038 8.284.038 12.696h2c0-4.392.032-8.566-.038-12.729zm1.508 13.579c.623-.332 1.171-.605 1.669-.89l-.993-1.736c-.467.268-.92.489-1.617.861zm1.672-.892c3.193-1.841 6.344-3.698 9.544-5.472l-.97-1.75c-3.22 1.785-6.403 3.661-9.573 5.49zm9.546-5.474c0 .001.002-.001.007-.003s.013-.005.022-.009c.02-.007.046-.015.08-.022.068-.016.15-.026.238-.027.087-.002.167.006.229.018.067.013.09.027.083.022l.966-1.751c-.418-.23-.911-.296-1.312-.289-.405.007-.884.09-1.287.315zm.656-.022c3.454 1.92 6.878 3.894 10.264 5.932l1.031-1.714c-3.407-2.05-6.851-4.036-10.324-5.966zm10.265 5.932c-.011-.006.011.005.056.058.042.05.09.118.133.199.044.082.077.164.099.237.023.076.026.121.027.132l1.999-.023c-.005-.461-.166-.925-.362-1.29-.192-.359-.499-.773-.923-1.028zm.315.626c.046 3.897-.027 7.665 0 11.603l1.999-.014c-.025-3.803.047-7.775 0-11.613zm0 11.603c.002.297-.053.412-.088.467-.044.069-.144.178-.434.341l.978 1.744c.426-.239.845-.546 1.14-1.006.303-.474.407-1.002.403-1.56zm-.522.807c-3.043 1.706-6.058 3.471-9.064 5.209l1.001 1.731c3.019-1.745 6.013-3.498 9.041-5.195zm-9.063 5.208c-.577.333-1.157.687-1.925 1.144l1.022 1.719c.797-.473 1.34-.806 1.902-1.13zm-1.915 2.869c3.297 1.908 6.414 3.871 9.656 5.521l.907-1.782c-3.179-1.618-6.175-3.51-9.561-5.47zm9.655 5.521c.858.437 1.328.847 1.592 1.287.259.432.397 1.022.325 1.978l1.994.15c.091-1.204-.061-2.251-.604-3.156-.536-.895-1.378-1.521-2.399-2.041zm1.917 3.265c-.246 3.273-.119 6.585-.081 9.781l2-.023c-.039-3.271-.162-6.449.075-9.608zm-.081 9.782c.005.384-.048.554-.099.649-.046.085-.15.218-.479.398l.962 1.754c.536-.294.986-.666 1.275-1.198.283-.523.347-1.085.341-1.628zm-.578 1.048c-3.273 1.798-6.506 3.674-9.707 5.589l1.027 1.717c3.186-1.906 6.397-3.77 9.643-5.553zm-9.707 5.589c-.315.188-.492.222-.604.222-.113 0-.287-.035-.597-.218l-1.02 1.72c.49.291 1.02.498 1.615.498.596.001 1.131-.205 1.633-.505zm-1.2.005c-3.165-1.883-6.366-3.706-9.54-5.54l-1 1.732c3.188 1.841 6.367 3.653 9.518 5.527zm-9.539-5.54c-.384-.222-.793-.433-1.326-.721l-.95 1.76c.577.312.925.49 1.273.692zm-2.799.102c-.031.537-.086 1.079-.089 1.56l2 .013c.002-.421.046-.78.085-1.459zm-.089 1.565c-.006 3.719-.027 7.454.017 11.185l2-.024c-.043-3.713-.023-7.428-.017-11.158zm.017 11.187c.004.31-.046.436-.082.497-.036.062-.123.169-.398.323l.977 1.745c.452-.253.867-.579 1.147-1.058.282-.481.363-1.005.356-1.535zm-.48.82c-3.418 1.915-6.681 3.858-10.08 5.721l.961 1.754c3.383-1.853 6.767-3.864 10.096-5.73zm-10.079 5.721c.002-.001-.006.003-.027.01s-.05.015-.087.022c-.075.014-.169.022-.272.02-.226-.006-.385-.058-.437-.087l-.971 1.749c.419.232.923.326 1.358.337.429.011.954-.055 1.396-.297zm-.824-.036c-1.639-.907-3.262-1.847-4.894-2.792-1.629-.945-3.266-1.896-4.921-2.818l-.974 1.747c1.637.912 3.26 1.854 4.892 2.801 1.63.945 3.269 1.894 4.928 2.812zm-9.815-5.61c-.335-.187-.459-.323-.517-.42-.055-.09-.116-.25-.11-.613l-2-.031c-.009.593.086 1.163.398 1.679.308.509.761.856 1.255 1.132zm-.627-1.036c.053-4.114.021-8.238.021-12.661h-2c0 4.444.032 8.538-.021 12.636zm46.746-13.662c0-3.785-.035-7.234.023-10.689l-2-.034c-.058 3.477-.023 6.965-.023 10.723zm.023-10.688c.01-.589-.067-1.173-.365-1.712-.3-.543-.76-.926-1.301-1.234l-.989 1.739c.349.198.477.349.54.462.064.117.122.309.115.709zm-1.666-2.946c-7.304-4.156-14.579-8.37-21.866-12.573l-.999 1.732c7.282 4.201 14.565 8.419 21.876 12.579zm-21.867-12.574c-.365-.21-.677-.429-1.264-.802l-1.074 1.687c.5.318.927.611 1.342.849zm-1.301.907c8.052-4.652 15.898-9.185 23.886-13.8l-1-1.732c-7.988 4.615-15.834 9.148-23.886 13.8zm23.885-15.532c-3.413-1.968-6.631-3.847-9.881-5.663l-.975 1.746c3.234 1.808 6.431 3.674 9.858 5.649zm-9.882-5.663c-.38-.212-.818-.26-1.153-.251-.342.009-.755.083-1.108.281l.978 1.745c-.017.009-.008.001.036-.009.04-.009.092-.016.149-.018.056-.001.103.003.134.009.036.006.027.01-.009-.01zm-2.265.033c-3.788 2.148-7.549 4.352-11.308 6.526l1.001 1.731c3.773-2.181 7.515-4.374 11.294-6.518zm-11.308 6.526c-4.045 2.341-8.09 4.668-12.448 7.185l1 1.732c4.354-2.514 8.404-4.845 12.45-7.186zm-10.948 8.051v-27.653h-2v27.653zm-1.502-28.518c-3.286 1.905-6.261 3.672-9.293 5.349l.967 1.75c3.057-1.69 6.067-3.477 9.329-5.369zm-9.294 5.349c-.515.285-.963.645-1.258 1.168-.292.518-.369 1.081-.365 1.644l2-.012c-.003-.385.054-.555.107-.649.05-.089.159-.221.485-.401zm-1.623 2.812c.052 8.363.049 16.724.064 25.095l2-.003c-.015-8.366-.012-16.736-.064-25.105zm.064 25.094v1.785h2v-1.785zm1.499.918c-8.105-4.67-15.944-9.188-23.982-13.82l-.999 1.733c8.038 4.632 15.878 9.15 23.982 13.82zm-25.481-12.954c0 3.806.037 7.305-.023 10.809l1.999.034c.061-3.527.024-7.065.024-10.843zm-.023 10.808c-.011.605.089 1.176.409 1.69.312.503.766.842 1.245 1.112l.982-1.742c-.341-.192-.468-.327-.528-.424-.053-.086-.115-.24-.109-.6zm1.653 2.802c5.084 2.876 10.135 5.809 15.204 8.733l.999-1.732c-5.062-2.921-10.125-5.861-15.219-8.742zm15.204 8.733c2.628 1.515 5.248 3.039 8.027 4.649l1.003-1.731c-2.775-1.606-5.401-3.135-8.031-4.65zm8.028 2.918c-8.015 4.635-15.877 9.179-23.918 13.829l1.001 1.731c8.04-4.649 15.904-9.194 23.918-13.829zm-23.919 15.56c3.236 1.874 6.165 3.496 9.022 5.263l1.052-1.701c-2.889-1.787-5.88-3.444-9.071-5.292zm9.022 5.263c.619.383 1.256.629 1.96.62.695-.009 1.321-.265 1.92-.617l-1.014-1.724c-.453.267-.728.339-.931.342-.194.002-.455-.057-.882-.322zm3.88.003c7.286-4.284 14.617-8.491 21.945-12.721l-1-1.732c-7.322 4.226-14.664 8.44-21.959 12.729zm21.941-12.718c.072-.041.16-.082.325-.149.153-.062.382-.15.651-.265l-.785-1.84c-.249.106-.428.175-.618.252-.179.073-.371.155-.565.265zm-.417-1.334v27.464h2v-27.464zm1.497 28.332c3.323-1.904 6.506-3.682 9.618-5.557l-1.032-1.713c-3.087 1.859-6.232 3.617-9.58 5.534zm9.618-5.556c.46-.277.742-.747.9-1.105.169-.382.286-.835.288-1.259l-2-.011c0 .095-.035.276-.117.46-.038.087-.077.151-.108.192-.034.045-.037.035.006.009zm1.188-2.364c.044-8.468.035-16.933.035-25.396h-2c0 8.466.009 16.924-.035 25.386zm.035-25.396v-1.675h-2v1.675zm-1.499-.808c8.055 4.641 15.854 9.136 23.958 13.809l.999-1.733c-8.104-4.673-15.904-9.168-23.959-13.809z" fill="#0c5ff3"/><path d="m70.676 60.605c-8.104-4.673-15.903-9.169-23.958-13.812v1.675c-.003 8.464.008 16.926-.035 25.39-.003.518-.3 1.271-.704 1.512-3.103 1.867-6.264 3.635-9.599 5.545v-27.463c-.515.221-.814.314-1.079.465-7.325 4.228-14.662 8.438-21.952 12.724-1.053.619-1.8.657-2.847.009-2.876-1.774-5.834-3.417-9.047-5.278 8.044-4.649 15.904-9.194 23.921-13.832-2.777-1.608-5.4-3.134-8.029-4.649-5.065-2.923-10.122-5.86-15.211-8.738-.82-.463-1.164-.948-1.146-1.914.058-3.512.02-7.028.02-10.819 8.038 4.632 15.878 9.147 23.982 13.82v-1.785c-.014-8.366-.011-16.734-.064-25.1-.006-.948.265-1.465 1.108-1.931 3.045-1.683 6.034-3.46 9.311-5.356v27.653c4.357-2.512 8.404-4.844 12.449-7.185 3.766-2.178 7.517-4.379 11.301-6.522.334-.189.956-.212 1.285-.029 3.242 1.811 6.45 3.684 9.87 5.655-7.986 4.615-15.834 9.148-23.886 13.801.543.346.916.601 1.302.825 7.285 4.202 14.561 8.415 21.871 12.576.887.506 1.175 1.068 1.16 2.059-.058 3.463-.023 6.932-.023 10.704z" fill="#1ed1cf"/></g></svg>