<svg height="480" viewBox="0 0 480 480" width="480" xmlns="http://www.w3.org/2000/svg"><g fill="none" fill-rule="evenodd"><circle cx="240" cy="240" fill="#fc6f6f" r="240"/><path d="m186.536551 330.698949c0 5.10734-1.757821 9.431103-5.273516 12.971419-3.515694 3.540315-7.809388 5.310447-12.88121 5.310447-4.956554 0-9.192614-1.770132-12.708309-5.310447-3.515695-3.540316-5.273516-7.864079-5.273516-12.971419v-242.017083c0-5.1073405 1.757821-9.4311037 5.273516-12.9714192 3.515695-3.5403156 7.751755-5.3104468 12.708309-5.3104468 4.956553 0 9.192613 1.7701312 12.708308 5.3104468 3.515695 3.5403155 5.331149 7.8640787 5.446418 12.9714192v83.574244c15.330735-11.955819 33.370013-17.93364 54.118376-17.93364 12.103211 0 23.60109 2.379521 34.493981 7.138634 10.89289 4.759113 20.488864 11.230248 28.788209 19.4136 8.299345 8.183353 14.869561 17.81751 19.710846 28.90276s7.261891 22.895798 7.261891 35.431997v85.489488c-.115269 5.10734-1.930723 9.431103-5.446418 12.971419-3.515695 3.540315-7.751756 5.310447-12.708309 5.310447s-9.192614-1.770132-12.708309-5.310447c-3.515694-3.540316-5.273515-7.864079-5.273515-12.971419v-85.489488c0-7.428859-1.440837-14.451346-4.322554-21.067674-2.881717-6.616327-6.771977-12.391018-11.670896-17.324244-4.898919-4.933227-10.63345-8.85073-17.203765-11.752628s-13.543965-4.352826-20.921161-4.352826c-7.492464 0-14.494932 1.421909-21.007612 4.265769-6.512681 2.84386-12.247212 6.761364-17.203765 11.752628-4.956554 4.991265-8.846813 10.794974-11.670896 17.411301-2.824083 6.616328-4.236103 13.638815-4.236103 21.067674zm-17.634044 78.901051c10.104245 0 18.295354-8.248472 18.295354-18.423478s-8.191109-18.423478-18.295354-18.423478-18.295354 8.248472-18.295354 18.423478 8.191109 18.423478 18.295354 18.423478zm144.002139 0c10.104245 0 18.295354-8.248472 18.295354-18.423478s-8.191109-18.423478-18.295354-18.423478-18.295354 8.248472-18.295354 18.423478 8.191109 18.423478 18.295354 18.423478z" fill="#fff" fill-rule="nonzero"/></g></svg>