<svg width="160" height="160" viewBox="0 0 160 160" fill="none" xmlns="http://www.w3.org/2000/svg">
<g clip-path="url(#clip0_77_52)">
<rect width="160" height="160" rx="80" fill="#021540"/>
<path fill-rule="evenodd" clip-rule="evenodd" d="M28.0273 50.0002L28.0278 50.001C22.9221 58.8263 20 69.0725 20 80.0012C20 99.631 29.4276 117.059 44.0024 128.006C58.5772 117.059 68.0048 99.631 68.0048 80.0011C68.0048 79.599 68.0009 79.1979 67.993 78.7977C71.8742 79.5862 75.8915 80.0002 80.0055 80.0002C102.216 80.0002 121.609 67.9341 131.984 50C121.609 32.066 102.216 20 80.0057 20C57.7949 20 38.4026 32.0661 28.0273 50.0002ZM29.0009 80.0012C29.0009 72.2472 30.7294 64.8975 33.8261 58.3156C40.4223 66.2553 49.0277 72.4666 58.8623 76.1696C58.9562 77.4345 59.0039 78.7122 59.0039 80.0011C59.0039 94.1122 53.2793 106.884 44.0024 116.127C34.7256 106.884 29.0009 94.1122 29.0009 80.0012ZM80.0055 71.0002C75.5335 71.0002 71.1953 70.4249 67.0611 69.3439C64.9006 57.293 59.1416 46.4901 50.9357 38.0868C59.1863 32.3547 69.2059 29 80.0057 29C96.9501 29 111.974 37.2581 121.259 50C111.974 62.742 96.95 71.0002 80.0055 71.0002ZM38.7529 50.0006C43.4835 56.4928 49.7042 61.8209 56.9098 65.4858C54.4587 57.2122 49.9641 49.815 44.0024 43.8756C42.0963 45.7745 40.3402 47.8226 38.7529 50.0006ZM80.0056 131C79.2679 131 78.5342 130.984 77.8049 130.953C82.074 107.104 102.929 88.9998 128.01 88.9998C128.748 88.9998 129.482 89.0154 130.211 89.0463C125.942 112.896 105.087 131 80.0056 131ZM128.01 79.9998C132.116 79.9998 136.126 80.4121 140 81.1976C139.362 113.782 112.746 140 80.0056 140C75.8997 140 71.8902 139.588 68.0161 138.802C68.6542 106.218 95.2702 79.9998 128.01 79.9998Z" fill="white"/>
</g>
<defs>
<clipPath id="clip0_77_52">
<rect width="160" height="160" fill="white"/>
</clipPath>
</defs>
</svg>
