<svg width="200" height="200" viewBox="0 0 200 200" fill="none" xmlns="http://www.w3.org/2000/svg">
<circle cx="100" cy="100" r="100" fill="url(#paint0_linear_18418_7300)"/>
<path fill-rule="evenodd" clip-rule="evenodd" d="M132.324 59.998H98.3449C96.8755 59.998 95.6686 61.2219 95.6686 62.7119V93.2803C95.6686 96.8987 92.415 99.9847 88.6365 99.9847H62.7123C61.6104 99.9847 60.6657 100.623 60.2198 101.661C59.7999 102.698 60.0097 103.842 60.7969 104.641L94.8815 139.2C95.4063 139.732 96.036 139.998 96.7706 139.998H128.625C129.727 139.998 130.671 139.36 131.117 138.322C131.537 137.284 131.327 136.14 130.54 135.342L97.0855 101.448L96.4556 100.81L95.6424 100.011H95.8785C116.502 99.8783 133.505 83.5166 135.001 62.9513C135.053 62.1798 134.817 61.4613 134.292 60.9026C133.768 60.2908 133.112 59.998 132.324 59.998Z" fill="white"/>
<defs>
<linearGradient id="paint0_linear_18418_7300" x1="21.352" y1="21.8906" x2="187.568" y2="188.107" gradientUnits="userSpaceOnUse">
<stop/>
<stop offset="1" stop-color="#2D2D2D"/>
</linearGradient>
</defs>
</svg>
