<svg id="Layer_1" data-name="Layer 1" xmlns="http://www.w3.org/2000/svg" viewBox="0 0 623.04 551.66"><path d="M407.43,92.6c0-15.72-14-30.31-29.74-30.31-16.84,0-30.87,14.59-30.87,30.31,0,16.27,14,30.86,30.87,30.86C393.4,123.46,407.43,108.87,407.43,92.6Zm83.06,332.79L408.55,244.12c39.29-7.29,174.54-62.29,194.74-181.83C606.1,46.58,596,37,580.28,37h-87C463,37,455.69,0,416.41,0H223.92c-62.86,53.31-98.77,137.49-98.77,203.72,0,30.86,7.85,58.36,24.69,75.76l-10.1,35.35c-32-6.17-58.93-9-80.25-9C37.6,305.85,0,308.66,0,331.67c0,38.16,111.12,120.66,277.79,174,98.21,31.43,191.37,46,256.47,46,50,0,83.06-9,88.11-24.13C629.67,504.52,576.35,465.8,490.49,425.39ZM152.65,409.11,181.83,298a99.52,99.52,0,0,0,23,2.8c62.29,0,92-57.24,92-122.9,0-51.07-18.51-106.63-53.31-143.67H402.94c31.43,0,37,33.68,66.22,33.68h49.39c-5.61,17.39,5.05,42.09,28.62,45.45-37,65.1-146.47,102.14-190.25,105L481,503.4C399.57,505.64,227.85,455.69,152.65,409.11Z"/></svg>