<?xml version="1.0" encoding="UTF-8"?><svg id="Layer_1" xmlns="http://www.w3.org/2000/svg" width="217.33" height="217.3" viewBox="0 0 217.33 217.3"><defs><style>.cls-1{fill:#38a6fa;}</style></defs><path class="cls-1" d="M188.2,180.46c-.15,4.28-3.69,7.71-8.03,7.71H62.98s-.09,0-.19-.02h-.08c-.15,0-.29,0-.43,0-4.42,0-8.01-3.59-8.01-8.02v-2.82c.02-.29,.37-5.56,3.93-12.08,5.76-10.55,16.47-18.48,31.82-23.57l47.15-15.63c1.05-.35,10.52-3.63,19.95-11.73,12.94-11.1,19.88-25.91,20.12-42.87l3.34,2.2c7.49,4.93,7.63,13.79,7.63,14.16v92.66h0Zm-40.1-109.93c0,8.56-3.06,15.48-9.37,21.15-5,4.5-10.2,6.51-10.84,6.74l-47.04,15.6c-28.13,9.33-41.75,25.41-48.22,37.26-1.21,2.22-2.3,4.52-3.24,6.85-.09,.22-.17,.44-.26,.66V87.8c0-8.55,6.68-13.5,7.56-14.11l.07-.02,.08-.08L101.12,31.3c7.4-4.87,15.03-.05,15.11,0l31.88,20.98v18.25h-.01Zm69.23,108.42V87.8c0-4.15-1-25.5-20.75-38.5l-19.22-12.64V8.15c0-4.5-3.65-8.15-8.15-8.15h-12.62c-4.5,0-8.15,3.65-8.15,8.15v9.48l-16.2-10.67c-11.73-7.72-30.85-10.71-47.13,0L20.75,49.3l-.07,.05c-3.62,2.4-20.68,14.96-20.68,38.45v91.15c0,8.72,2.02,16.17,6,22.15,3.19,4.79,7.64,8.63,13.22,11.42,9.44,4.72,18.74,4.78,19.12,4.78H178.99c.39,0,9.68-.05,19.13-4.78,5.58-2.79,10.02-6.63,13.22-11.42,3.97-5.97,5.99-13.42,5.99-22.15"/></svg>