<?xml version="1.0" encoding="UTF-8"?>
<svg xmlns="http://www.w3.org/2000/svg" xmlns:xlink="http://www.w3.org/1999/xlink" width="256px" height="256px" viewBox="0 0 256 256" version="1.1">
<g id="surface1">
<path style=" stroke:none;fill-rule:nonzero;fill:rgb(90.980393%,1.176471%,1.176471%);fill-opacity:1;" d="M 0 0 C 84.480469 0 168.960938 0 256 0 C 256 84.480469 256 168.960938 256 256 C 171.519531 256 87.039062 256 0 256 C 0 171.519531 0 87.039062 0 0 Z M 0 0 "/>
<path style=" stroke:none;fill-rule:nonzero;fill:rgb(99.607843%,99.607843%,99.607843%);fill-opacity:1;" d="M 102.875 63.949219 C 103.359375 63.945312 103.839844 63.945312 104.324219 63.941406 C 105.902344 63.9375 107.476562 63.933594 109.054688 63.929688 C 109.601562 63.929688 110.148438 63.925781 110.695312 63.925781 C 113.269531 63.921875 115.84375 63.917969 118.417969 63.914062 C 121.371094 63.910156 124.320312 63.902344 127.269531 63.890625 C 129.566406 63.882812 131.859375 63.878906 134.152344 63.878906 C 135.515625 63.875 136.878906 63.875 138.242188 63.867188 C 157.335938 63.765625 173.53125 69.15625 187.304688 82.714844 C 189.265625 84.675781 190.992188 86.683594 192.585938 88.953125 C 192.703125 89.117188 192.820312 89.28125 192.941406 89.453125 C 202.054688 102.320312 206.15625 118.640625 203.707031 134.332031 C 200.695312 150.519531 192.0625 164.664062 178.496094 174.089844 C 168.371094 180.828125 156.273438 184.730469 144.105469 184.695312 C 143.761719 184.695312 143.417969 184.695312 143.0625 184.695312 C 142.113281 184.695312 141.167969 184.695312 140.222656 184.695312 C 139.195312 184.691406 138.171875 184.695312 137.148438 184.695312 C 135.375 184.695312 133.605469 184.691406 131.832031 184.691406 C 129.269531 184.6875 126.710938 184.6875 124.148438 184.6875 C 119.992188 184.6875 115.835938 184.683594 111.679688 184.683594 C 107.640625 184.679688 103.605469 184.679688 99.570312 184.675781 C 99.320312 184.675781 99.070312 184.675781 98.816406 184.675781 C 97.566406 184.675781 96.316406 184.675781 95.066406 184.675781 C 84.710938 184.671875 74.355469 184.667969 64 184.660156 C 64 174.101562 64 163.539062 64 152.660156 C 66.425781 152.65625 68.851562 152.648438 71.351562 152.644531 C 79.121094 152.625 86.890625 152.601562 94.660156 152.578125 C 95.867188 152.574219 97.074219 152.570312 98.285156 152.566406 C 98.644531 152.566406 98.644531 152.566406 99.011719 152.566406 C 102.902344 152.554688 106.789062 152.542969 110.675781 152.535156 C 114.667969 152.527344 118.664062 152.515625 122.65625 152.5 C 125.117188 152.492188 127.578125 152.488281 130.039062 152.480469 C 131.730469 152.480469 133.421875 152.472656 135.109375 152.46875 C 136.085938 152.464844 137.058594 152.460938 138.03125 152.460938 C 139.089844 152.457031 140.152344 152.453125 141.210938 152.449219 C 141.511719 152.449219 141.816406 152.449219 142.128906 152.449219 C 145.398438 152.425781 148.523438 151.917969 151.613281 150.863281 C 152.011719 150.726562 152.011719 150.726562 152.417969 150.589844 C 159.332031 148.140625 164.761719 143.132812 167.925781 136.515625 C 170.976562 129.773438 171.261719 121.839844 168.734375 114.863281 C 167.46875 111.835938 165.953125 109.0625 163.816406 106.570312 C 163.625 106.335938 163.433594 106.097656 163.234375 105.859375 C 158.566406 100.371094 151.824219 97.179688 144.734375 96.292969 C 143.269531 96.210938 141.804688 96.199219 140.339844 96.199219 C 139.910156 96.195312 139.480469 96.191406 139.050781 96.191406 C 137.894531 96.183594 136.738281 96.179688 135.582031 96.175781 C 134.855469 96.175781 134.132812 96.171875 133.410156 96.167969 C 131.136719 96.160156 128.867188 96.15625 126.59375 96.152344 C 123.984375 96.152344 121.371094 96.140625 118.757812 96.125 C 116.730469 96.109375 114.703125 96.105469 112.675781 96.105469 C 111.46875 96.101562 110.261719 96.101562 109.054688 96.089844 C 107.921875 96.078125 106.785156 96.078125 105.652344 96.082031 C 105.234375 96.085938 104.820312 96.082031 104.40625 96.074219 C 101.769531 96.039062 99.796875 96.273438 97.761719 98.054688 C 96.167969 99.617188 96.117188 101.34375 96.09375 103.492188 C 96.09375 103.898438 96.097656 104.304688 96.101562 104.710938 C 96.097656 105.148438 96.09375 105.582031 96.089844 106.015625 C 96.082031 107.1875 96.082031 108.359375 96.085938 109.535156 C 96.085938 110.761719 96.078125 111.988281 96.074219 113.21875 C 96.0625 115.539062 96.058594 117.863281 96.058594 120.1875 C 96.054688 123.328125 96.042969 126.46875 96.03125 129.609375 C 96.011719 134.550781 96.007812 139.496094 96 144.441406 C 85.441406 144.441406 74.878906 144.441406 64 144.441406 C 63.964844 133.019531 63.964844 133.019531 63.957031 128.210938 C 63.953125 124.898438 63.945312 121.585938 63.933594 118.273438 C 63.925781 115.859375 63.917969 113.445312 63.917969 111.03125 C 63.914062 109.753906 63.914062 108.480469 63.90625 107.203125 C 63.84375 94.476562 66.082031 84.039062 75.15625 74.570312 C 82.6875 67 92.382812 63.964844 102.875 63.949219 Z M 102.875 63.949219 "/>
</g>
</svg>
