<svg width="745" height="200" viewBox="0 0 745 200" fill="none" xmlns="http://www.w3.org/2000/svg">
<g clip-path="url(#clip0_2_72)">
<path fill-rule="evenodd" clip-rule="evenodd" d="M605.015 192.6C617.245 197.589 630.355 200.102 643.575 199.995C656.795 200.124 669.915 197.626 682.155 192.648C694.4 187.668 705.52 180.307 714.87 170.997C724.225 161.688 731.615 150.614 736.62 138.425C741.62 126.236 744.135 113.176 744.005 100.009C744.135 86.8405 741.625 73.7785 736.625 61.5875C731.62 49.3965 724.23 38.3211 714.88 29.009C705.525 19.6971 694.405 12.3356 682.16 7.35545C669.915 2.37524 656.8 -0.123746 643.575 0.00471254C630.355 -0.101994 617.25 2.41125 605.015 7.39805C592.785 12.3849 581.67 19.7455 572.325 29.0513C562.98 38.357 555.585 49.4218 550.575 61.601C545.565 73.78 543.035 86.8305 543.14 99.9915C543.035 113.154 545.56 126.206 550.565 138.387C555.575 150.568 562.97 161.635 572.32 170.943C581.665 180.25 592.78 187.613 605.015 192.6ZM718.545 99.9915C718.545 142.489 686.255 176.014 643.575 176.014C601.16 176.014 568.87 142.507 568.87 99.9915C568.87 57.4755 601.16 23.9688 643.575 23.9688C686.255 23.9688 718.545 57.4935 718.545 99.9915Z" fill="black"/>
<path d="M492.289 195.71H518.395V42.5964C518.38 32.019 514.15 21.8788 506.64 14.3995C499.131 6.92015 488.947 2.712 478.324 2.69788C470.721 2.718 463.28 4.88267 456.862 8.9412C450.444 12.9997 445.313 18.7859 442.063 25.6293L380.091 156.969C378.956 159.353 377.168 161.37 374.931 162.785C372.693 164.199 370.1 164.953 367.451 164.962C365.616 164.962 363.8 164.603 362.105 163.904C360.412 163.206 358.872 162.181 357.575 160.891C356.28 159.598 355.25 158.066 354.548 156.38C353.847 154.692 353.487 152.885 353.487 151.057V55.54C353.472 41.5296 347.876 28.0972 337.927 18.1905C327.978 8.2838 314.488 2.71202 300.418 2.69788C286.351 2.71672 272.867 8.2905 262.921 18.1968C252.976 28.103 247.381 41.5327 247.368 55.54V195.691H273.474V55.54C273.483 48.4252 276.324 41.6043 281.375 36.5718C286.425 31.5394 293.273 28.7057 300.418 28.6915C307.566 28.701 314.419 31.5326 319.473 36.5656C324.528 41.5985 327.372 48.4222 327.381 55.54V151.057C327.39 161.637 331.616 171.78 339.127 179.26C346.641 186.74 356.825 190.947 367.451 190.957C375.053 190.939 382.495 188.775 388.913 184.717C395.331 180.656 400.462 174.869 403.711 168.025L465.683 36.6855C466.819 34.302 468.609 32.2867 470.845 30.8723C473.082 29.4578 475.674 28.7019 478.324 28.6915C482.025 28.6962 485.575 30.1626 488.193 32.7692C490.81 35.3759 492.283 38.91 492.289 42.5964V195.71Z" fill="black"/>
<path d="M186.928 2.78589H212.229V195.727H186.928V2.78589Z" fill="black"/>
<path fill-rule="evenodd" clip-rule="evenodd" d="M159.829 99.2475C159.829 44.0732 116.165 2.78589 56.678 2.78589H0L2.37475e-05 195.559H26.3895L56.678 195.727C116.165 195.727 159.829 154.421 159.829 99.2475ZM26.3895 26.4296L56.678 26.4295C103.345 26.4295 134.171 57.4085 134.171 99.2475C134.171 141.086 103.345 172.083 56.678 172.083H26.3895V26.4296Z" fill="black"/>
</g>
<defs>
<clipPath id="clip0_2_72">
<rect width="744.5" height="200" fill="white"/>
</clipPath>
</defs>
</svg>
