<?xml version="1.0" encoding="UTF-8"?>
<!-- Generated by Pixelmator Pro 3.2.3 -->
<svg width="250" height="250" viewBox="0 0 250 250" xmlns="http://www.w3.org/2000/svg" xmlns:xlink="http://www.w3.org/1999/xlink">
    <path id="Rounded-Rectangle" fill="#191919" fill-rule="evenodd" stroke="none" d="M -3 253 L 253 253 L 253 -3 L -3 -3 Z"/>
    <path id="Path-copy" fill="#ffffff" stroke="none" d="M 196.509369 189.011993 L 213.688477 189.011993 L 213.688477 88.255295 C 213.678604 81.294815 210.89505 74.62204 205.953079 69.700272 C 201.011749 64.778473 194.31015 62.009293 187.319656 62 C 182.316483 62.013245 177.419922 63.437698 173.196548 66.108444 C 168.97316 68.779129 165.596695 72.586746 163.458023 77.090057 L 122.677208 163.518387 C 121.930313 165.087189 120.753723 166.41449 119.281662 167.345627 C 117.808929 168.276123 116.102608 168.772949 114.359428 168.77887 C 113.151901 168.77887 111.957535 168.542633 110.842133 168.082642 C 109.727394 167.622665 108.713989 166.948151 107.860504 166.099274 C 107.008324 165.248413 106.330528 164.240265 105.868576 163.130798 C 105.40728 162.02002 105.170387 160.830902 105.170387 159.627991 L 105.170387 96.772873 C 105.160507 87.553284 101.47805 78.714127 94.930763 72.195007 C 88.383797 65.675842 79.507004 62.009308 70.247871 62 C 60.991383 62.012405 52.117874 65.680252 45.572884 72.199081 C 39.028889 78.717896 35.347408 87.555344 35.338528 96.772873 L 35.338528 189.000153 L 52.517311 189.000153 L 52.517311 96.772873 C 52.523235 92.090958 54.393089 87.602509 57.716583 84.290863 C 61.039745 80.979218 65.546089 79.114487 70.247871 79.105148 C 74.95163 79.111404 79.461594 80.974747 82.787064 84.286728 C 86.113518 87.598633 87.985344 92.088989 87.991264 96.772873 L 87.991264 159.627991 C 87.997192 166.590179 90.777786 173.264801 95.720749 178.187698 C 100.665024 183.109924 107.366959 185.877686 114.359428 185.884277 C 119.361938 185.872437 124.259163 184.448395 128.482544 181.778015 C 132.705917 179.105682 136.082382 175.298187 138.220398 170.793823 L 179.001221 84.365616 C 179.748779 82.79715 180.926682 81.471039 182.398087 80.540237 C 183.870148 79.609482 185.575821 79.111984 187.319656 79.105148 C 189.755112 79.108246 192.091202 80.073212 193.81398 81.788559 C 195.536102 83.503845 196.505417 85.829453 196.509369 88.255295 L 196.509369 189.011993 Z"/>
</svg>
