<svg xmlns="http://www.w3.org/2000/svg" xmlns:xlink="http://www.w3.org/1999/xlink" xml:space="preserve" width="60" height="60"><defs><path id="a" d="M0 0h60v60H0z"/></defs><clipPath id="b"><use xlink:href="#a" overflow="visible"/></clipPath><g clip-path="url(#b)"><circle cx="30" cy="30" r="30" fill="#FFF"/><path d="m39.32 13.475-.756 3.769h-5.437l-.754-3.769h-4.549l-.754 3.769h-4.781l-.755-3.769h-5.409l.979 9.951h25.785l.986-9.976zM17.398 25.346l.132 1.919.504 5.466.021.247.001-.004.914 9.914 11.01 9.662.02-.111.02.111 11.012-9.662 1.439-15.624.127-1.824.033-.095H17.398zm3.418 3.924h6.766v16.98l-5.75-5.238-1.016-11.742zm11.807 16.794V29.27h6.562l-1.018 11.742-5.544 5.052z"/></g><script/></svg>