<?xml version="1.0" standalone="no"?>
<!DOCTYPE svg PUBLIC "-//W3C//DTD SVG 20010904//EN"
 "http://www.w3.org/TR/2001/REC-SVG-20010904/DTD/svg10.dtd">
<svg version="1.0" xmlns="http://www.w3.org/2000/svg"
 width="256.000000pt" height="256.000000pt" viewBox="0 0 256.000000 256.000000"
 preserveAspectRatio="xMidYMid meet">

<g transform="translate(0.000000,256.000000) scale(0.100000,-0.100000)"
fill="#000000" stroke="none">
<path d="M1129 2250 l-125 -69 -155 -20 c-85 -12 -170 -23 -190 -26 l-36 -6
14 -70 15 -70 -39 -47 c-21 -26 -84 -103 -141 -172 l-104 -125 86 -3 c59 -2
86 -7 86 -15 0 -7 -40 -170 -89 -364 -49 -194 -87 -354 -85 -356 3 -2 48 6
102 19 53 13 104 24 113 24 12 0 48 -72 129 -252 62 -139 116 -257 121 -263 6
-6 37 4 84 28 42 20 79 37 83 37 5 0 67 -63 137 -141 l129 -140 80 88 c45 48
104 113 133 143 l52 55 80 -40 c51 -24 84 -35 90 -30 6 6 59 123 120 260 61
138 116 251 124 253 7 2 59 -8 115 -21 56 -13 103 -22 106 -20 2 2 -36 162
-85 356 -49 194 -89 357 -89 364 0 8 27 13 86 15 l86 3 -141 172 -141 171 14
68 c8 38 13 70 11 72 -2 2 -88 15 -192 28 l-188 25 -128 69 c-71 39 -132 70
-135 69 -4 0 -64 -31 -133 -69z m511 -576 c61 -75 109 -141 107 -147 -3 -7
-52 -79 -110 -162 l-105 -150 18 -35 18 -35 -57 -98 c-63 -110 -48 -104 -174
-66 l-77 23 -83 -27 c-46 -15 -88 -27 -94 -27 -5 0 -36 44 -67 98 -57 95 -58
97 -42 125 9 16 16 33 16 39 0 5 -46 75 -102 156 -56 80 -102 154 -102 163 -1
10 46 76 104 148 l105 130 267 1 266 0 112 -136z"/>
<path d="M928 1543 c17 -22 37 -45 44 -50 14 -12 148 -44 148 -36 0 3 -12 27
-27 53 -29 52 -29 52 -143 66 l-54 7 32 -40z"/>
<path d="M1550 1575 c-8 -2 -32 -6 -52 -10 -31 -5 -41 -13 -62 -52 -14 -25
-26 -49 -26 -53 0 -4 30 -1 68 7 58 13 72 20 104 56 21 23 38 45 38 50 0 7
-40 8 -70 2z"/>
<path d="M1146 1202 c5 -5 33 -26 62 -47 l53 -38 64 44 c35 24 63 45 61 47 -2
2 -31 -2 -63 -7 -41 -8 -76 -8 -112 -1 -66 12 -78 13 -65 2z"/>
</g>
</svg>
