
<svg xmlns="http://www.w3.org/2000/svg" viewBox="0 0 264 264"><g filter="url(#a)"><g clip-path="url(#b)"><rect width="256" height="256" x="4" fill="url(#c)" rx="128"/><path fill="#F1F1F1" d="M200.867 120.538a186.844 186.844 0 0 0-5.516-1.091 68.986 68.986 0 0 0-2.82-12.738c24.82 3.995 40.869 10.346 40.869 17.499 0 .079-.002.159-.006.239-.592 11.98-46.209 21.653-102.394 21.653-56.554 0-102.4-9.8-102.4-21.889 0-.075.002-.149.005-.223.329-7.146 16.677-13.473 41.736-17.417a68.912 68.912 0 0 0-2.846 12.723 193.47 193.47 0 0 0-6.362 1.244 142.121 142.121 0 0 0-7.284 1.747v.004a90.87 90.87 0 0 0-6.28 1.92c3.558 1.244 8.08 2.496 13.564 3.668a188.7 188.7 0 0 0 5.814 1.145v.004c16.946 3.074 39.31 4.997 64.053 4.997 25.148 0 47.838-1.986 64.881-5.149v-.004c1.721-.319 3.384-.65 4.986-.993 5.486-1.173 10.009-2.425 13.568-3.669-3.559-1.245-8.082-2.497-13.568-3.67Zm7.28-34.085c.002-.057.004-.114.004-.171 0-6.454-17.142-12.045-42.142-14.77a65.783 65.783 0 0 1 15.645 14.57c.324.066.645.133.963.2l-.698.145.002.003c-12.738 2.619-30.512 4.317-50.454 4.317-19.991 0-37.803-1.707-50.547-4.336l.002-.003-.603-.126c.275-.058.553-.116.833-.173a65.764 65.764 0 0 1 15.644-14.582c-24.93 2.73-42.011 8.312-42.011 14.755v.003c0 8.062 37.125 14.47 62.148 16.242 5.599.396 14.366.424 14.366.424 3.095.134 8.731-.024 14.307-.408 25.159-1.735 62.171-8.073 62.541-16.09ZM54.785 169.946c0-4.216 7.317-8.065 19.362-10.986a67.475 67.475 0 0 0 6.77 10.861l-.599.125c.273.058.549.115.827.172l.054.07h.275c12.704 2.566 30.29 4.223 49.993 4.223 19.704 0 37.29-1.657 49.994-4.223h.167l.034-.044c.321-.065.64-.131.955-.198l-.692-.144a67.574 67.574 0 0 0 6.766-10.865c12.103 2.924 19.46 6.781 19.46 11.009 0 .081-.003.162-.008.242-.592 9.024-34.694 16.3-76.676 16.3-41.98 0-76.083-7.276-76.675-16.3a3.6 3.6 0 0 1-.007-.242Z"/></g></g><defs><linearGradient id="c" x1="238.349" x2="37.9" y1="16.213" y2="231.401" gradientUnits="userSpaceOnUse"><stop stop-color="#5D24C6"/><stop offset="1" stop-color="#9C4ED6"/></linearGradient><clipPath id="b"><rect width="256" height="256" x="4" fill="#fff" rx="128"/></clipPath><filter id="a" width="264" height="264" x="0" y="0" color-interpolation-filters="sRGB" filterUnits="userSpaceOnUse"><feFlood flood-opacity="0" result="BackgroundImageFix"/><feColorMatrix in="SourceAlpha" result="hardAlpha" values="0 0 0 0 0 0 0 0 0 0 0 0 0 0 0 0 0 0 127 0"/><feOffset dy="4"/><feGaussianBlur stdDeviation="2"/><feComposite in2="hardAlpha" operator="out"/><feColorMatrix values="0 0 0 0 0 0 0 0 0 0 0 0 0 0 0 0 0 0 0.25 0"/><feBlend in2="BackgroundImageFix" result="effect1_dropShadow_10_1251"/><feBlend in="SourceGraphic" in2="effect1_dropShadow_10_1251" result="shape"/></filter></defs></svg>