<?xml version="1.0" encoding="UTF-8"?><svg id="Layer_1" xmlns="http://www.w3.org/2000/svg" xmlns:xlink="http://www.w3.org/1999/xlink" viewBox="0 0 128 128"><defs><style>.cls-1{fill:url(#linear-gradient);}.cls-2{fill:#2c65c5;}.cls-3{fill:url(#linear-gradient-3);}.cls-4{fill:url(#linear-gradient-4);}.cls-5{fill:url(#linear-gradient-2);}.cls-6{fill:url(#linear-gradient-6);}.cls-7{fill:url(#linear-gradient-7);}.cls-8{fill:url(#linear-gradient-5);}</style><linearGradient id="linear-gradient" x1="33.55" y1="46.8" x2="84.98" y2="46.8" gradientUnits="userSpaceOnUse"><stop offset="0" stop-color="#2c65c5"/><stop offset=".1" stop-color="#3673cb"/><stop offset=".52" stop-color="#60ade6"/><stop offset=".83" stop-color="#7bd2f6"/><stop offset="1" stop-color="#85e0fd"/></linearGradient><linearGradient id="linear-gradient-2" y1="81.39" y2="81.39" xlink:href="#linear-gradient"/><linearGradient id="linear-gradient-3" x1="33.55" y1="64.1" x2="84.98" y2="64.1" xlink:href="#linear-gradient"/><linearGradient id="linear-gradient-4" x1="33.55" y1="64.1" x2="84.98" y2="64.1" xlink:href="#linear-gradient"/><linearGradient id="linear-gradient-5" x1="33.55" y1="46.8" x2="84.98" y2="46.8" xlink:href="#linear-gradient"/><linearGradient id="linear-gradient-6" x1="33.55" y1="81.39" x2="84.98" y2="81.39" xlink:href="#linear-gradient"/><linearGradient id="linear-gradient-7" x1="33.55" y1="64.1" x2="84.98" y2="64.1" xlink:href="#linear-gradient"/></defs><path d="m64,1.36C29.4,1.36,1.36,29.4,1.36,64s28.05,62.64,62.64,62.64,62.64-28.05,62.64-62.64S98.6,1.36,64,1.36Z"/><path class="cls-2" d="m64,0C28.65,0,0,28.65,0,64s28.65,64,64,64,64-28.65,64-64S99.35,0,64,0Zm0,123.7c-32.97,0-59.7-26.73-59.7-59.7S31.03,4.3,64,4.3s59.7,26.73,59.7,59.7-26.73,59.7-59.7,59.7Z"/><path class="cls-2" d="m64,7.7c-31.09,0-56.3,25.2-56.3,56.3s25.2,56.3,56.3,56.3,56.3-25.2,56.3-56.3S95.09,7.7,64,7.7Zm0,109.09c-29.16,0-52.79-23.63-52.79-52.79S34.84,11.21,64,11.21s52.79,23.63,52.79,52.79-23.63,52.79-52.79,52.79Z"/><circle class="cls-1" cx="82.15" cy="46.8" r="4.07"/><circle class="cls-5" cx="82.15" cy="81.39" r="4.07"/><path class="cls-3" d="m50.3,35.28c0-2.31-1.93-4.17-4.26-4.06-2.02.09-3.7,1.72-3.86,3.74-.15,1.97,1.11,3.68,2.88,4.21.36.11.61.45.61.83v2.09c0,.39-.25.72-.62.83-1.67.51-2.88,2.05-2.88,3.88s1.21,3.38,2.88,3.88c.37.11.62.45.62.83v2.09c0,.39-.25.72-.62.83-1.67.51-2.88,2.05-2.88,3.88s1.21,3.38,2.88,3.88c.37.11.62.45.62.83v2.09c0,.39-.25.72-.62.83-1.67.51-2.88,2.05-2.88,3.88s1.21,3.38,2.88,3.88c.37.11.62.45.62.83v2.09c0,.39-.25.72-.62.83-1.67.51-2.88,2.05-2.88,3.88s1.21,3.38,2.88,3.88c.37.11.62.45.62.83v2.09c0,.38-.25.72-.61.83-1.77.53-3.03,2.23-2.88,4.21.15,2.02,1.84,3.65,3.86,3.74,2.33.11,4.26-1.75,4.26-4.06,0-1.83-1.21-3.38-2.88-3.88-.37-.11-.62-.45-.62-.83v-2.09c0-.39.25-.72.62-.83,1.67-.51,2.88-2.05,2.88-3.88s-1.21-3.38-2.88-3.88c-.37-.11-.62-.45-.62-.83v-2.09c0-.39.25-.72.62-.83,1.67-.51,2.88-2.05,2.88-3.88s-1.21-3.38-2.88-3.88c-.37-.11-.62-.45-.62-.83v-2.09c0-.39.25-.72.62-.83,1.67-.51,2.88-2.05,2.88-3.88s-1.21-3.38-2.88-3.88c-.37-.11-.62-.45-.62-.83v-2.09c0-.39.25-.72.62-.83,1.67-.51,2.88-2.05,2.88-3.88s-1.21-3.38-2.88-3.88c-.37-.11-.62-.45-.62-.83v-2.09c0-.39.25-.72.62-.83,1.67-.51,2.88-2.05,2.88-3.88Z"/><path class="cls-4" d="m68.26,35.28c0-2.31-1.93-4.17-4.26-4.06-2.02.09-3.7,1.72-3.86,3.74-.15,1.97,1.11,3.68,2.88,4.21.36.11.61.45.61.83v2.09c0,.39-.25.72-.62.83-1.67.51-2.88,2.05-2.88,3.88s1.21,3.38,2.88,3.88c.37.11.62.45.62.83v2.09c0,.39-.25.72-.62.83-1.67.51-2.88,2.05-2.88,3.88s1.21,3.38,2.88,3.88c.37.11.62.45.62.83v2.09c0,.39-.25.72-.62.83-1.67.51-2.88,2.05-2.88,3.88s1.21,3.38,2.88,3.88c.37.11.62.45.62.83v2.09c0,.39-.25.72-.62.83-1.67.51-2.88,2.05-2.88,3.88s1.21,3.38,2.88,3.88c.37.11.62.45.62.83v2.09c0,.38-.25.72-.61.83-2.5.75-3.99,3.85-1.89,6.75.06.08.12.15.2.2,3.32,2.42,6.93.1,6.93-3.06,0-1.83-1.21-3.38-2.88-3.88-.37-.11-.62-.45-.62-.83v-2.09c0-.39.25-.72.62-.83,1.67-.51,2.88-2.05,2.88-3.88s-1.21-3.38-2.88-3.88c-.37-.11-.62-.45-.62-.83v-2.09c0-.39.25-.72.62-.83,1.67-.51,2.88-2.05,2.88-3.88s-1.21-3.38-2.88-3.88c-.37-.11-.62-.45-.62-.83v-2.09c0-.39.25-.72.62-.83,1.67-.51,2.88-2.05,2.88-3.88s-1.21-3.38-2.88-3.88c-.37-.11-.62-.45-.62-.83v-2.09c0-.39.25-.72.62-.83,1.67-.51,2.88-2.05,2.88-3.88s-1.21-3.38-2.88-3.88c-.37-.11-.62-.45-.62-.83v-2.09c0-.39.25-.72.62-.83,1.67-.51,2.88-2.05,2.88-3.88Z"/><path class="cls-8" d="m73.73,47.85v-2.09c0-.38.25-.72.61-.83,1.77-.53,3.03-2.23,2.88-4.21s-1.84-3.65-3.86-3.74c-2.33-.11-4.26,1.75-4.26,4.06,0,1.83,1.21,3.38,2.88,3.88.37.11.62.45.62.83v2.09c0,.38-.25.72-.61.83-2.5.75-3.99,3.85-1.89,6.75.06.08.12.15.2.2,3.32,2.42,6.93.1,6.93-3.06,0-1.83-1.21-3.38-2.88-3.88-.37-.11-.62-.45-.62-.83Z"/><path class="cls-6" d="m77.23,75.63c0-2.31-1.93-4.17-4.26-4.06-2.02.09-3.7,1.72-3.86,3.74-.15,1.97,1.11,3.68,2.88,4.21.36.11.61.45.61.83v2.09c0,.38-.25.72-.61.83-1.77.53-3.03,2.23-2.88,4.21s1.84,3.65,3.86,3.74c2.33.11,4.26-1.75,4.26-4.06,0-1.83-1.21-3.38-2.88-3.88-.37-.11-.62-.45-.62-.83v-2.09c0-.39.25-.72.62-.83,1.67-.51,2.88-2.05,2.88-3.88Z"/><path class="cls-7" d="m59.28,29.51c0-2.31-1.93-4.17-4.26-4.06-2.02.09-3.7,1.72-3.86,3.74-.15,1.97,1.11,3.68,2.88,4.21.36.11.61.45.61.83v2.09c0,.39-.25.72-.62.83-1.67.51-2.88,2.05-2.88,3.88s1.21,3.38,2.88,3.88c.37.11.62.45.62.83v2.09c0,.39-.25.72-.62.83-1.67.51-2.88,2.05-2.88,3.88s1.21,3.38,2.88,3.88c.37.11.62.45.62.83v2.09c0,.39-.25.72-.62.83-1.67.51-2.88,2.05-2.88,3.88s1.21,3.38,2.88,3.88c.37.11.62.45.62.83v2.09c0,.39-.25.72-.62.83-1.67.51-2.88,2.05-2.88,3.88s1.21,3.38,2.88,3.88c.37.11.62.45.62.83v2.09c0,.39-.25.72-.62.83-1.67.51-2.88,2.05-2.88,3.88s1.21,3.38,2.88,3.88c.37.11.62.45.62.83v2.09c0,.38-.25.72-.61.83-1.77.53-3.03,2.23-2.88,4.21.15,2.02,1.84,3.65,3.86,3.74,2.33.11,4.26-1.75,4.26-4.06,0-1.83-1.21-3.38-2.88-3.88-.37-.11-.62-.45-.62-.83v-2.09c0-.39.25-.72.62-.83,1.67-.51,2.88-2.05,2.88-3.88s-1.21-3.38-2.88-3.88c-.37-.11-.62-.45-.62-.83v-2.09c0-.39.25-.72.62-.83,1.67-.51,2.88-2.05,2.88-3.88s-1.21-3.38-2.88-3.88c-.37-.11-.62-.45-.62-.83v-2.09c0-.39.25-.72.62-.83,1.67-.51,2.88-2.05,2.88-3.88s-1.21-3.38-2.88-3.88c-.37-.11-.62-.45-.62-.83v-2.09c0-.39.25-.72.62-.83,1.67-.51,2.88-2.05,2.88-3.88s-1.21-3.38-2.88-3.88c-.37-.11-.62-.45-.62-.83v-2.09c0-.39.25-.72.62-.83,1.67-.51,2.88-2.05,2.88-3.88s-1.21-3.38-2.88-3.88c-.37-.11-.62-.45-.62-.83v-2.09c0-.39.25-.72.62-.83,1.67-.51,2.88-2.05,2.88-3.88Z"/></svg>