<?xml version="1.0" encoding="utf-8"?>
<!-- Generator: Adobe Illustrator 28.3.0, SVG Export Plug-In . SVG Version: 6.00 Build 0)  -->
<svg version="1.1" id="Layer_1" xmlns="http://www.w3.org/2000/svg" xmlns:xlink="http://www.w3.org/1999/xlink" x="0px" y="0px"
	 viewBox="0 0 595.28 608.19" style="enable-background:new 0 0 595.28 608.19;" xml:space="preserve">
<style type="text/css">
	.st0{fill:#FFFFFF;}
</style>
<g>
	<path class="st0" d="M582.65,303.36c0,157.97-128.06,286.03-286.03,286.03S10.6,461.33,10.6,303.36S138.66,17.33,296.62,17.33
		S582.65,145.39,582.65,303.36"/>
	<path d="M48.83,303.36c0-30.5,24.72-55.23,55.22-55.23c30.5,0,55.24-24.72,55.24-55.22s24.73-55.24,55.24-55.24
		c30.5,0,55.22,24.73,55.22,55.24s-24.72,55.22-55.22,55.22c-30.5,0-55.24,24.73-55.24,55.24s24.74,55.22,55.24,55.22
		c30.5,0,55.22,24.74,55.22,55.24s-24.72,55.22-55.22,55.22c-30.5,0-55.24-24.72-55.24-55.22s-24.74-55.24-55.24-55.24
		C73.55,358.59,48.83,333.87,48.83,303.36"/>
	<path d="M543.94,303.35c0,30.5-24.72,55.23-55.22,55.23c-30.5,0-55.24,24.72-55.24,55.22s-24.74,55.24-55.24,55.24
		s-55.22-24.73-55.22-55.24s24.72-55.22,55.22-55.22s55.24-24.73,55.24-55.23s-24.74-55.22-55.24-55.22s-55.22-24.74-55.22-55.24
		s24.72-55.22,55.22-55.22s55.24,24.72,55.24,55.22s24.73,55.24,55.24,55.24C519.22,248.13,543.94,272.85,543.94,303.35"/>
	<path d="M350.6,303.36c0,29.65-24.04,53.69-53.69,53.69c-29.65,0-53.69-24.03-53.69-53.69c0-29.65,24.03-53.69,53.69-53.69
		C326.56,249.67,350.6,273.71,350.6,303.36"/>
</g>
</svg>
