<svg width="764" height="954" viewBox="0 0 764 954" fill="none" xmlns="http://www.w3.org/2000/svg">
<path d="M381.562 367.77V147.296L254.266 73.8047V294.279L381.562 367.77Z" fill="#6B4644"/>
<path d="M381.359 367.77V147.296L508.656 73.8047V294.279L381.359 367.77Z" fill="#523E3D"/>
<path d="M508.858 73.8034L381.562 147.295L254.266 73.8034L381.562 0.312012L508.858 73.8034Z" fill="#836866"/>
<path d="M127.984 806.425V585.95L0.6875 512.459V732.933L127.984 806.425Z" fill="#C89992"/>
<path d="M127.742 806.425V585.95L255.038 512.459V732.933L127.742 806.425Z" fill="#543D3D"/>
<path d="M255.28 512.456L127.984 585.948L0.6875 512.456L127.984 438.891L255.28 512.456Z" fill="#473232"/>
<path d="M127.749 514.752V294.278L0.453125 220.787V441.261L127.749 514.752Z" fill="#CD9991"/>
<path d="M127.547 514.752V294.278L254.917 220.787V441.261L127.547 514.752Z" fill="#523E3F"/>
<path d="M255.046 220.785L127.749 294.277L0.453125 220.785L127.749 147.294L255.046 220.785Z" fill="#836764"/>
<path d="M762.436 220.785L635.14 294.277L507.844 220.785L635.14 147.294L762.436 220.785Z" fill="#856A67"/>
<path d="M381.562 953.407V732.932L254.266 659.441V879.915L381.562 953.407Z" fill="#D29B91"/>
<path d="M381.359 953.407V732.932L508.656 659.441V879.915L381.359 953.407Z" fill="#715655"/>
<path d="M508.858 659.44L381.562 732.931L254.266 659.44L381.562 585.948L508.858 659.44Z" fill="#483435"/>
<path d="M635.937 813.528V593.053L508.641 519.488V740.036L635.937 813.528Z" fill="#6B4644"/>
<path d="M635.789 813.528V593.053L763.085 519.488V740.036L635.789 813.528Z" fill="#6E5453"/>
<path d="M763.233 519.49L635.937 593.055L508.641 519.49L635.937 445.999L763.233 519.49Z" fill="#3C2F30"/>
<path d="M635.14 514.752V294.278L507.844 220.787V441.261L635.14 514.752Z" fill="#825854"/>
<path d="M634.938 514.752V294.278L762.234 220.787V441.261L634.938 514.752Z" fill="#705755"/>
<path d="M509.046 367.476L381.75 440.968L254.453 367.476L381.75 293.985L509.046 367.476Z" fill="#7C6362"/>
<path d="M381.75 661.352V440.803L254.453 367.312V587.86L381.75 661.352Z" fill="#ECAA9D"/>
<path d="M381.75 661.366V440.818L509.046 367.327V587.875L381.75 661.366Z" fill="#745857"/>
</svg>
