<svg xmlns="http://www.w3.org/2000/svg" width="1920" height="1920" viewBox="0 0 1920 1920" version="1.1"><path d="M 0 1840 L 0 1920 80 1920 L 160 1920 160 1840 L 160 1760 80 1760 L 0 1760 0 1840 M 1760 1840 L 1760 1920 1840 1920 L 1920 1920 1920 1840 L 1920 1760 1840 1760 L 1760 1760 1760 1840" stroke="none" fill="#51ad62" fill-rule="evenodd"/><path d="M 1760 1360 L 1760 1440 1680 1440 L 1600 1440 1600 1520 L 1600 1600 1680 1600 L 1760 1600 1760 1680.006 L 1760 1760.012 1840.250 1759.756 L 1920.500 1759.500 1920.815 1679 L 1921.129 1598.500 1920.442 1439.250 L 1919.754 1280 1839.877 1280 L 1760 1280 1760 1360 M 1 1600 L 1 1760 80.500 1760 L 160 1760 160 1680 L 160 1600 240 1600 L 320 1600 320 1520 L 320 1440 160.500 1440 L 1 1440 1 1600" stroke="none" fill="#1ca672" fill-rule="evenodd"/><path d="M 1440 1360 L 1440 1440 1600 1440 L 1760 1440 1760 1360 L 1760 1280 1600 1280 L 1440 1280 1440 1360" stroke="none" fill="#1e8e60" fill-rule="evenodd"/><path d="M 640 1600 L 640 1760 720 1760 L 800 1760 800 1840 L 800 1920 880 1920 L 960 1920 960 1760 L 960 1600 1040 1600 L 1120 1600 1120 1520 L 1120 1440 880 1440 L 640 1440 640 1600" stroke="none" fill="#36885b" fill-rule="evenodd"/><path d="M 480 1520 L 480 1600 400 1600 L 320 1600 320 1680 L 320 1760 480 1760 L 640 1760 640 1840 L 640 1920 720 1920 L 800 1920 800 1840 L 800 1760 720 1760 L 640 1760 640 1600 L 640 1440 560 1440 L 480 1440 480 1520 M 1120 1520 L 1120 1600 1200 1600 L 1280 1600 1280 1760 L 1280 1920 1440 1920 L 1600 1920 1600 1760 L 1600 1600 1520 1600 L 1440 1600 1440 1520 L 1440 1440 1280 1440 L 1120 1440 1120 1520" stroke="none" fill="#1b5b3b" fill-rule="evenodd"/><path d="M 1120 1200 L 1120 1280 1040 1280 L 960 1280 960 1360 L 960 1440 1120 1440 L 1280 1440 1280 1360 L 1280 1280 1360 1280 L 1440 1280 1440 1200 L 1440 1120 1280 1120 L 1120 1120 1120 1200 M 1120 1760 L 1120 1920 1200 1920 L 1280 1920 1280 1760 L 1280 1600 1200 1600 L 1120 1600 1120 1760 M 480 1840 L 480 1920 560 1920 L 640 1920 640 1840 L 640 1760 560 1760 L 480 1760 480 1840" stroke="none" fill="#eaaf7e" fill-rule="evenodd"/><path d="M 480 1040 L 480 1120 560 1120 L 640 1120 640 1040 L 640 960 560 960 L 480 960 480 1040 M 800 1040 L 800 1120 880 1120 L 960 1120 960 1040 L 960 960 880 960 L 800 960 800 1040" stroke="none" fill="#4e1717" fill-rule="evenodd"/><path d="M 480 880 L 480 960 560 960 L 640 960 640 1040 L 640 1120 560 1120 L 480 1120 480 1200 L 480 1280 560 1280 L 640 1280 640 1360 L 640 1440 800 1440 L 960 1440 960 1360 L 960 1280 1040 1280 L 1120 1280 1120 1200 L 1120 1120 1200 1120 L 1280 1120 1280 1040 L 1280 960 1200 960 L 1120 960 1120 880 L 1120 800 800 800 L 480 800 480 880 M 800 1040 L 800 1120 880 1120 L 960 1120 960 1040 L 960 960 880 960 L 800 960 800 1040 M 960 1760 L 960 1920 1040 1920 L 1120 1920 1120 1760 L 1120 1600 1040 1600 L 960 1600 960 1760 M 320 1840 L 320 1920 400 1920 L 480 1920 480 1840 L 480 1760 400 1760 L 320 1760 320 1840" stroke="none" fill="#ffcea4" fill-rule="evenodd"/><path d="M 640 560 L 640 640 560 640 L 480 640 480 720 L 480 800 800 800 L 1120 800 1120 880 L 1120 960 1200 960 L 1280 960 1280 1040 L 1280 1120 1360 1120 L 1440 1120 1440 880 L 1440 640 1360 640 L 1280 640 1280 560 L 1280 480 960 480 L 640 480 640 560" stroke="none" fill="#a36e00" fill-rule="evenodd"/><path d="M 0 720 L 0 1440 240 1440 L 480 1440 480 1360 L 480 1280 400 1280 L 320 1280 320 960 L 320 640 400 640 L 480 640 480 560 L 480 480 560 480 L 640 480 640 400 L 640 320 960 320 L 1280 320 1280 400 L 1280 480 1360 480 L 1440 480 1440 560 L 1440 640 1520 640 L 1600 640 1600 960 L 1600 1280 1759.994 1280 L 1919.988 1280 1920.250 1359.750 L 1920.512 1439.500 1920.756 719.750 L 1921 0 960.500 0 L 0 0 0 720 M 0.497 720.500 L 0.497 1440.500 0.750 1080.168 L 1.003 719.835 0.750 360.168 L 0.497 0.500 0.497 720.500" stroke="none" fill="#6cb184" fill-rule="evenodd"/><path d="M 640 400 L 640 480 560 480 L 480 480 480 560 L 480 640 400 640 L 320 640 320 960 L 320 1280 400 1280 L 480 1280 480 1360 L 480 1440 400 1440 L 320 1440 320 1520 L 320 1600 240 1600 L 160 1600 160 1760 L 160 1920 240 1920 L 320 1920 320 1760 L 320 1600 400 1600 L 480 1600 480 1520 L 480 1440 560 1440 L 640 1440 640 1360 L 640 1280 560 1280 L 480 1280 480 960 L 480 640 560 640 L 640 640 640 560 L 640 480 960 480 L 1280 480 1280 560 L 1280 640 1360 640 L 1440 640 1440 960 L 1440 1280 1360 1280 L 1280 1280 1280 1360 L 1280 1440 1360 1440 L 1440 1440 1440 1520 L 1440 1600 1520 1600 L 1600 1600 1600 1760 L 1600 1920 1680 1920 L 1760 1920 1760 1760 L 1760 1600 1680 1600 L 1600 1600 1600 1520 L 1600 1440 1520 1440 L 1440 1440 1440 1360 L 1440 1280 1520 1280 L 1600 1280 1600 960 L 1600 640 1520 640 L 1440 640 1440 560 L 1440 480 1360 480 L 1280 480 1280 400 L 1280 320 960 320 L 640 320 640 400" stroke="none" fill="#22222a" fill-rule="evenodd"/></svg>