
<svg width="200" height="200" viewBox="0 0 200 200" fill="none" xmlns="http://www.w3.org/2000/svg">
<rect width="200" height="200" fill="#1B1B1B"/>
<path d="M133 112.85C146.631 105.377 161.268 99.9073 176.46 96.61L165.21 62C160.39 64.1067 155.43 65.9933 150.33 67.66C140.601 70.8223 130.597 73.0688 120.45 74.37C117.552 59.0907 116.872 43.4734 118.43 28L82 28C82.51 33.23 82.78 38.54 82.78 43.9C82.8061 54.1278 81.8754 64.3356 80 74.39C64.5645 72.4367 49.4921 68.2636 35.25 62L24 96.61C29.14 97.7367 34.26 99.1267 39.36 100.78C49.0943 103.933 58.5094 107.998 67.48 112.92C60.8475 126.978 52.222 140.005 41.87 151.6L71.31 173C73.9767 168.46 76.8833 164.02 80.03 159.68C86.0403 151.398 92.8132 143.698 100.26 136.68C111.583 147.335 121.309 159.568 129.14 173L158.59 151.61C155.1 147.67 151.76 143.54 148.59 139.2C142.58 130.924 137.361 122.102 133 112.85Z" fill="url(#paint0_linear_423_2516)"/>
<defs>
<linearGradient id="paint0_linear_423_2516" x1="100.23" y1="28" x2="100.23" y2="173" gradientUnits="userSpaceOnUse">
<stop stop-color="white"/>
<stop offset="1" stop-color="white"/>
</linearGradient>
</defs>
</svg>

