<svg xmlns="http://www.w3.org/2000/svg" fill="none" viewBox="0 0 40 40"><path fill="#0B0F14" d="M40 20c0 11.046-8.954 20-20 20S0 31.046 0 20 8.954 0 20 0s20 8.954 20 20Z"/><path fill="url(#a)" fill-rule="evenodd" d="M20 38c9.941 0 18-8.059 18-18S29.941 2 20 2 2 10.059 2 20s8.059 18 18 18Zm0 2c11.046 0 20-8.954 20-20S31.046 0 20 0 0 8.954 0 20s8.954 20 20 20Z" clip-rule="evenodd"/><path fill="#9488F0" fill-rule="evenodd" d="M20.164 10c-1.198 0-2.134.451-2.753 1.184-.6.71-.85 1.62-.85 2.489 0 .918.377 1.95.96 2.756.57.79 1.482 1.546 2.643 1.546 1.16 0 2.071-.752 2.643-1.542.584-.805.961-1.838.961-2.76 0-.867-.24-1.778-.837-2.49-.62-.738-1.558-1.183-2.767-1.183Zm-1.96 3.673c0-.6.174-1.131.483-1.497.29-.343.745-.6 1.477-.6.753 0 1.205.258 1.487.594.303.361.474.892.474 1.503 0 .554-.244 1.278-.666 1.861-.435.6-.914.866-1.295.866-.379 0-.858-.267-1.294-.869-.423-.585-.667-1.31-.667-1.858Z" clip-rule="evenodd"/><path fill="#9488F0" d="M14.683 21.535c-1.664-.178-3.04 1.1-3.04 2.407 0 1.3 1.069 2.481 3.08 2.481.723 0 1.461-.304 2.273-.87.945-.66 1.729-1.436 2.514-2.213.787-.779 1.575-1.558 2.527-2.223.944-.66 2.023-1.172 3.24-1.172C28.051 19.945 30 21.698 30 24c0 2.296-2.279 4.248-4.864 3.973-1.038-.11-2.256-.446-3.235-1.36l1.146-1.13c.623.583 1.438.837 2.269.924 1.665.178 3.041-1.1 3.041-2.407 0-1.3-1.069-2.481-3.08-2.481-.723 0-1.462.304-2.273.87-.945.66-1.729 1.436-2.514 2.213-.787.778-1.575 1.558-2.527 2.223-.944.66-2.023 1.172-3.24 1.172-2.774 0-4.723-1.753-4.723-4.056 0-2.296 2.279-4.248 4.864-3.973 1.038.11 2.256.446 3.235 1.36l-1.146 1.13c-.623-.583-1.438-.837-2.269-.924Z"/><defs><linearGradient id="a" x1="0" x2="47.059" y1="0" y2="11.765" gradientUnits="userSpaceOnUse"><stop stop-color="#6046FF"/><stop offset="1" stop-color="#22D49F"/></linearGradient></defs></svg>