<?xml version="1.0" encoding="UTF-8"?>
<!DOCTYPE svg PUBLIC "-//W3C//DTD SVG 1.1//EN" "http://www.w3.org/Graphics/SVG/1.1/DTD/svg11.dtd">
<svg version="1.1" xmlns="http://www.w3.org/2000/svg" xmlns:xlink="http://www.w3.org/1999/xlink" x="0" y="0" width="512" height="512" viewBox="0, 0, 512, 512">
  <defs>
    <linearGradient id="Gradient_1" gradientUnits="userSpaceOnUse" x1="259" y1="18" x2="259" y2="500">
      <stop offset="1" stop-color="#554ADD"/>
      <stop offset="1" stop-color="#000000"/>
    </linearGradient>
  </defs>
  <g id="Layer_1">
    <path d="M98,18 L420,18 C464.183,18 500,53.817 500,98 L500,420 C500,464.183 464.183,500 420,500 L98,500 C53.817,500 18,464.183 18,420 L18,98 C18,53.817 53.817,18 98,18 z" fill="url(#Gradient_1)"/>
    <path d="M389.12,110.976 C391.266,110.623 394.633,110.204 396.557,110.146 C398.482,110.087 405.897,110.717 413.039,111.509 C424.723,112.894 426.665,113.283 432.765,115.497 C440.226,118.168 447.007,121.853 449.834,124.814 C452.144,127.214 453.79,131.709 453.466,134.859 C453.11,138.323 449.723,143.26 445.584,146.211 C438.115,151.685 424.476,157.485 409.139,161.773 C406.332,162.518 403.196,163.436 401.079,164.054 C400.321,164.277 399.694,164.46 399.261,164.583 C396.486,165.447 389.312,167.45 370.105,172.681 C365.776,173.872 360.213,175.997 356.915,177.311 L314.285,189.636 C314.163,189.666 314.051,189.698 313.954,189.732 L313.789,189.779 L313.793,189.793 C313.74,189.816 313.69,189.84 313.647,189.866 C313.014,190.22 308.796,207.545 303.279,230.21 C292.869,272.978 261.277,412.015 256.951,414.652 C250.335,418.685 244.061,422.5 242.976,423.09 C241.893,423.68 231.74,429.771 220.351,436.691 C201.058,448.341 199.5,449.2 197.032,448.948 C194.755,448.715 194.035,448.26 191.978,445.886 C190.665,444.352 189.297,442.112 188.914,440.864 C188.293,438.827 188.333,438.449 189.983,436.073 C190.961,434.645 194.598,431.006 198.111,427.928 C212.793,415.107 264.72,203.353 264.614,203.152 C264.437,203.006 249.404,206.816 243.864,208.479 C242.276,208.99 239.239,209.822 236.903,210.461 L236.618,210.539 C234.555,211.112 231.357,212.001 227.262,213.139 C213.722,216.903 190.376,223.391 165.87,230.174 C161.92,231.298 155.802,232.963 152.389,233.825 C148.969,234.748 144.821,235.916 143.168,236.448 C142.769,236.561 142.135,236.744 141.33,236.978 C138.82,237.707 134.64,238.92 130.656,240.006 C115.248,244.353 110.725,243.572 103.4,235.25 C100.479,231.961 99.645,231.367 97.557,231.153 C80.877,232.951 79.051,225.474 93.062,217.074 C94.736,215.718 95.201,214.938 94.912,214.017 C94.73,213.298 94.678,211.32 94.846,209.683 L95.094,206.653 L73.23,179.98 C58.859,162.474 51.404,152.93 51.488,152.111 C51.656,150.473 53.471,149.003 55.052,149.165 C55.748,149.236 57.462,149.984 58.851,150.763 C59.014,150.853 59.212,150.964 59.439,151.091 C61.142,152.047 64.5,153.93 67.439,155.522 C70.769,157.326 75.547,159.977 78.023,161.377 C87.452,166.667 95.976,171.419 99.793,173.463 C101.688,174.522 103.722,175.661 105.775,176.809 C110.073,179.213 114.451,181.663 117.808,183.514 L122.162,185.932 L144.548,179.626 C156.859,176.173 167.06,173.332 167.25,173.351 C167.411,173.368 168.444,173.057 169.725,172.671 C169.948,172.604 170.177,172.535 170.41,172.465 C172.684,171.662 180.736,169.393 223.014,157.485 C230.094,155.49 238.132,153.226 247.263,150.653 C263.393,146.127 278.211,141.912 280.256,141.294 C282.309,140.612 284.214,140.106 284.468,140.133 C284.72,140.159 285.835,139.891 286.963,139.497 C288.154,139.108 300.799,135.499 315.086,131.485 C329.366,127.533 342.404,123.836 344.057,123.306 C352.247,120.768 385.726,111.648 389.12,110.976 z" fill="#000000"/>
    <path d="M389.12,110.976 C391.266,110.623 394.633,110.204 396.557,110.146 C398.482,110.087 405.897,110.717 413.039,111.509 C424.723,112.894 426.665,113.283 432.765,115.497 C440.226,118.168 447.007,121.853 449.834,124.814 C452.144,127.214 453.79,131.709 453.466,134.859 C453.11,138.323 449.723,143.26 445.584,146.211 C438.115,151.685 424.476,157.485 409.139,161.773 C406.332,162.518 403.196,163.436 401.079,164.054 C400.321,164.277 399.694,164.46 399.261,164.583 C396.486,165.447 389.312,167.45 370.105,172.681 C365.776,173.872 360.213,175.997 356.915,177.311 L314.285,189.636 C314.163,189.666 314.051,189.698 313.954,189.732 L313.789,189.779 L313.793,189.793 C313.74,189.816 313.69,189.84 313.647,189.866 C313.014,190.22 308.796,207.545 303.279,230.21 C292.869,272.978 261.277,412.015 256.951,414.652 C250.335,418.685 244.061,422.5 242.976,423.09 C241.893,423.68 231.74,429.771 220.351,436.691 C201.058,448.341 199.5,449.2 197.032,448.948 C194.755,448.715 194.035,448.26 191.978,445.886 C190.665,444.352 189.297,442.112 188.914,440.864 C188.293,438.827 188.333,438.449 189.983,436.073 C190.961,434.645 194.598,431.006 198.111,427.928 C212.793,415.107 264.72,203.353 264.614,203.152 C264.437,203.006 249.404,206.816 243.864,208.479 C242.276,208.99 239.239,209.822 236.903,210.461 L236.618,210.539 C234.555,211.112 231.357,212.001 227.262,213.139 C213.722,216.903 190.376,223.391 165.87,230.174 C161.92,231.298 155.802,232.963 152.389,233.825 C148.969,234.748 144.821,235.916 143.168,236.448 C142.769,236.561 142.135,236.744 141.33,236.978 C138.82,237.707 134.64,238.92 130.656,240.006 C115.248,244.353 110.725,243.572 103.4,235.25 C100.479,231.961 99.645,231.367 97.557,231.153 C80.877,232.951 79.051,225.474 93.062,217.074 C94.736,215.718 95.201,214.938 94.912,214.017 C94.73,213.298 94.678,211.32 94.846,209.683 L95.094,206.653 L73.23,179.98 C58.859,162.474 51.404,152.93 51.488,152.111 C51.656,150.473 53.471,149.003 55.052,149.165 C55.748,149.236 57.462,149.984 58.851,150.763 C59.014,150.853 59.212,150.964 59.439,151.091 C61.142,152.047 64.5,153.93 67.439,155.522 C70.769,157.326 75.547,159.977 78.023,161.377 C87.452,166.667 95.976,171.419 99.793,173.463 C101.688,174.522 103.722,175.661 105.775,176.809 C110.073,179.213 114.451,181.663 117.808,183.514 L122.162,185.932 L144.548,179.626 C156.859,176.173 167.06,173.332 167.25,173.351 C167.411,173.368 168.444,173.057 169.725,172.671 C169.948,172.604 170.177,172.535 170.41,172.465 C172.684,171.662 180.736,169.393 223.014,157.485 C230.094,155.49 238.132,153.226 247.263,150.653 C263.393,146.127 278.211,141.912 280.256,141.294 C282.309,140.612 284.214,140.106 284.468,140.133 C284.72,140.159 285.835,139.891 286.963,139.497 C288.154,139.108 300.799,135.499 315.086,131.485 C329.366,127.533 342.404,123.836 344.057,123.306 C352.247,120.768 385.726,111.648 389.12,110.976 z" fill="#FFFFFF"/>
    <path d="M192.782,119.933 C174.359,111.827 179.408,104.278 185.216,99.482 L286.11,134.355 L240.098,147.078 C233.684,141.805 210.776,127.852 192.782,119.933 z" fill="#000000"/>
    <path d="M192.782,119.933 C174.359,111.827 179.408,104.278 185.216,99.482 L286.11,134.355 L240.098,147.078 C233.684,141.805 210.776,127.852 192.782,119.933 z" fill="#FFFFFF"/>
  </g>
</svg>
