<svg xmlns="http://www.w3.org/2000/svg" viewBox="0 0 200 200" width="200" height="200"><circle cx="100" cy="100" r="100" fill="#005bac"/><path d="m164.341,95.336v-.043c0-.277-.238-.359-.488-.359h-63.802c-3.446,0-6.175,2.741-6.175,6.139,0,3.306,2.729,6.051,6.175,6.051h37.971c-4.575,11.945-19.846,20.773-37.971,20.773-21.768,0-39.393-12.591-39.393-28.08s17.625-28.073,39.393-28.073c11.824,0,22.468,3.771,29.69,9.729l.039.043c.08.025.185.025.311.025h26.067c.263,0,.437-.21.437-.437,0-.131,0-.263-.092-.316v-.039c-11.187-11.817-32.279-19.839-56.452-19.839-35.825,0-64.798,17.424-64.798,38.907s28.973,38.96,64.798,38.96,64.745-17.47,64.745-38.96c0-1.562-.144-3.039-.455-4.481Z" fill="#fff"/></svg>