<svg width="256" height="256" viewBox="0 0 256 256" fill="none" xmlns="http://www.w3.org/2000/svg">
<path d="M253.44 128C253.44 58.7215 197.279 2.56006 128 2.56006C58.7215 2.56006 2.56006 58.7215 2.56006 128C2.56006 197.279 58.7215 253.44 128 253.44C197.279 253.44 253.44 197.279 253.44 128Z" fill="white"/>
<path d="M192.406 147.842C192.911 148.244 193.242 148.589 193.739 148.999C194.04 149.247 194.042 149.247 194.337 148.977C194.542 148.787 194.742 148.589 194.953 148.404C195.801 147.647 196.943 147.685 197.734 148.508C198.049 148.838 198.346 149.186 198.622 149.551C199.306 150.448 199.238 151.621 198.466 152.437C198.249 152.665 198.019 152.881 197.786 153.09C197.59 153.264 197.583 153.433 197.722 153.651C198.007 154.1 198.284 154.553 198.551 155.013C198.892 155.595 199.194 156.202 199.481 156.813C199.754 157.396 199.754 157.392 200.32 157.204C200.595 157.105 200.874 157.022 201.158 156.956C202.08 156.769 202.954 157.239 203.348 158.144C203.587 158.702 203.765 159.287 203.881 159.887C204.05 160.742 203.554 161.692 202.761 162.113C202.454 162.274 202.116 162.345 201.795 162.466C201.406 162.613 201.372 162.642 201.436 163.042C201.642 164.302 201.786 165.568 201.795 166.848C201.798 167.128 201.898 167.287 202.175 167.311C202.413 167.331 202.65 167.378 202.886 167.404C203.831 167.507 204.474 168.003 204.753 168.979C204.777 169.063 204.839 170.824 204.756 171.301C204.575 172.355 203.796 173.106 202.772 173.148C202.55 173.159 202.328 173.144 202.111 173.104C201.707 173.026 201.439 173.205 201.342 173.616C201.101 174.626 200.777 175.606 200.43 176.58C200.328 176.861 200.387 177.108 200.61 177.305C200.725 177.409 201.173 177.917 201.246 178.085C201.412 178.474 200.693 177.87 200.527 177.769C200.148 177.539 195.494 174.833 193.761 173.862C193.885 172.897 194.332 171.663 194.513 170.712C195.431 165.865 194.481 161.444 191.822 157.408C189.61 154.051 186.582 151.903 182.862 150.838C179.588 149.9 176.343 150.091 173.16 151.316C170.527 152.328 167.643 153.988 166.061 156.604C165.88 156.817 165.794 156.792 165.508 156.658C164.517 156.138 160.637 153.477 159.059 152.51C158.361 151.771 157.898 150.562 158.423 149.669C158.798 149.033 159.301 148.516 159.842 148.052C160.601 147.4 161.701 147.419 162.507 148.031C163.508 148.791 163.506 148.787 164.478 147.971C164.985 147.545 165.526 147.167 166.059 146.777C166.555 146.415 166.591 146.269 166.359 145.701C165.726 144.152 166.131 142.975 167.56 142.209C167.938 141.998 168.333 141.821 168.74 141.683C169.83 141.333 170.835 141.743 171.428 142.766C172.046 143.834 172.043 143.832 173.207 143.55C173.822 143.4 174.445 143.294 175.067 143.176C175.688 143.056 175.782 142.952 175.818 142.306C175.832 141.982 175.878 141.661 175.956 141.348C176.12 140.723 176.417 140.174 177.033 139.927C178.206 139.456 179.391 139.366 180.543 139.985C181.221 140.35 181.538 140.978 181.547 141.792C181.56 143.01 181.568 143.021 182.698 143.213C183.442 143.34 184.169 143.53 184.899 143.711C185.454 143.849 185.597 143.794 185.814 143.232C186.359 141.808 187.719 141.081 189.322 141.911C189.777 142.146 190.254 142.318 190.651 142.697C191.452 143.462 191.508 144.591 191.179 145.415C191.132 145.531 191.076 145.641 191.03 145.758C190.811 146.33 190.787 146.665 190.787 146.665C190.787 146.665 191.91 147.448 192.406 147.842Z" fill="#5F5F5F"/>
<path d="M193.506 173.394C193.971 173.864 200.197 177.45 200.734 177.789C200.893 177.811 201.016 177.922 201.161 177.984C201.272 178.088 201.37 178.196 201.471 178.312C201.964 179.039 201.955 179.806 201.67 180.609C201.488 181.035 201.272 181.444 201.02 181.827C200.434 182.757 199.352 183.049 198.401 182.544C198.112 182.391 197.832 182.221 197.557 182.036C197.357 181.906 197.22 181.941 197.08 182.136C196.318 183.197 195.47 184.187 194.548 185.096C194.363 185.279 194.341 185.438 194.497 185.651C194.677 185.889 194.844 186.14 195.006 186.393C195.663 187.419 195.486 188.603 194.557 189.364C194.234 189.627 193.904 189.885 193.561 190.12C192.638 190.751 191.556 190.573 190.853 189.68C190.659 189.43 190.477 189.169 190.307 188.898C190.158 188.662 190.008 188.608 189.757 188.759C188.702 189.391 187.588 189.89 186.45 190.332C186.037 190.493 186.041 190.5 186.121 190.956C186.15 191.113 186.173 191.275 186.201 191.433C186.467 192.768 186.164 193.491 185.055 194.176C184.769 194.343 184.44 194.317 184.133 194.402C183.597 194.537 183.056 194.526 182.51 194.498C182.332 194.405 182.154 194.305 181.98 194.204C181.455 193.744 181.221 193.137 181.085 192.442C180.901 191.499 181.013 191.653 180.189 191.693C179.098 191.747 178.004 191.742 176.913 191.678C176.489 191.653 176.489 191.652 176.391 192.065C176.346 192.258 176.295 192.448 176.267 192.643C176.09 193.878 175.147 194.804 173.642 194.502C173.274 194.428 172.91 194.328 172.551 194.216C171.522 193.898 170.927 192.854 171.134 191.744C171.184 191.462 171.247 191.181 171.299 190.899C171.37 190.515 171.365 190.495 170.999 190.351C170.296 190.072 169.595 189.787 168.919 189.444C168.52 189.241 168.124 189.029 167.729 188.814C167.319 188.592 167.323 188.589 167.035 188.994C166.881 189.21 166.738 189.433 166.579 189.642C165.877 190.568 164.771 190.761 163.836 190.114C163.481 189.867 163.133 189.603 162.798 189.324C161.946 188.611 161.762 187.441 162.349 186.475C162.522 186.187 162.716 185.912 162.912 185.641C163.048 185.452 163.057 185.301 162.882 185.128C161.947 184.206 161.09 183.202 160.319 182.124C160.172 181.919 160.028 181.92 159.839 182.045C159.608 182.198 159.368 182.337 159.128 182.477C158.051 183.094 156.93 182.79 156.298 181.68C156.072 181.282 155.795 180.918 155.64 180.472C155.255 179.367 155.579 178.344 156.542 177.728C156.746 177.597 156.956 177.476 157.157 177.346C157.512 177.117 157.522 177.11 157.365 176.709C157.039 175.879 156.76 175.029 156.526 174.165C156.423 173.787 156.326 173.402 156.241 173.017C156.18 172.736 156.04 172.627 155.766 172.688C155.547 172.731 155.327 172.761 155.106 172.78C153.803 172.925 152.839 172.103 152.702 170.735C152.665 170.357 152.625 169.984 152.6 169.607C152.566 169.063 152.73 168.524 153.061 168.105C153.392 167.684 153.863 167.414 154.378 167.349C154.665 167.312 154.954 167.288 155.24 167.241C155.614 167.176 155.627 167.168 155.632 166.757C155.648 165.859 155.715 164.962 155.827 164.071C155.874 163.68 155.998 163.298 155.971 162.897C155.943 162.623 155.832 162.453 155.623 162.367C155.48 162.323 155.446 162.304 155.233 162.248C154.811 162.14 154.429 161.948 154.124 161.623" fill="#414141"/>
<path d="M155.989 163.143C156.038 162.867 155.925 162.454 155.657 162.374C155.427 162.307 155.06 162.162 154.831 162.089C153.922 161.801 153.351 161.045 153.252 160.029C153.136 159.598 153.497 158.2 153.661 157.747C154.029 156.748 154.928 156.167 155.942 156.328C156.161 156.362 156.376 156.421 156.583 156.502C156.966 156.659 157.261 156.536 157.43 156.153C157.847 155.209 158.471 154.274 158.873 153.324C159.262 152.405 158.986 152.481 159.123 152.513C159.455 152.815 164.302 155.298 165.83 156.596C164.836 157.731 162.623 162.866 162.532 164.584" fill="#414141"/>
<path d="M165.888 156.514C168.982 152.99 171.197 151.477 174.252 150.563C176.11 150.002 178.051 149.798 179.979 149.961C183.222 150.236 186.151 151.429 188.731 153.538C191.004 155.398 192.661 157.755 193.792 160.535C194.482 162.235 194.848 164.012 195.018 165.854C195.262 168.492 194.727 171.438 193.867 173.896C193.693 174.059 190.528 171.776 190.189 171.331C190.113 171.092 190.208 170.871 190.266 170.649C190.578 169.449 190.779 168.228 190.743 166.98C190.572 160.982 186.693 156.034 181.328 154.825C177.368 153.933 173.17 154.834 169.325 158.948C169.229 159.005 169.199 158.882 168.547 158.408C167.451 157.706 166.912 157.266 166.163 156.788C165.733 156.524 165.755 156.667 165.888 156.514Z" fill="#414141"/>
<path d="M193.93 173.723C193.826 173.897 193.734 174.075 193.651 174.261C192.708 176.657 191.196 178.624 189.354 180.29C186.945 182.471 184.15 183.831 180.977 184.268C180.199 184.376 179.421 184.494 178.635 184.467C176.363 184.391 174.167 183.951 172.07 182.989C170.739 182.374 169.493 181.573 168.367 180.607C166.613 179.113 165.188 177.317 164.143 175.189C163.181 173.229 162.628 171.155 162.393 168.97C162.189 167.089 162.349 165.244 162.723 163.402C163.15 161.302 163.948 159.367 165.061 157.574C165.22 157.318 165.68 156.739 165.83 156.594C166.64 157.036 168.848 158.572 169.202 158.906C169.426 159.213 169.013 159.617 168.885 159.815C168.206 160.86 167.647 161.964 167.288 163.176C166.035 167.4 166.609 171.331 169.134 174.865C171.24 177.814 174.103 179.43 177.605 179.8C182.595 180.329 187.715 177.344 189.822 172.078C189.938 171.787 189.909 171.328 190.383 171.305C190.687 171.674 193.572 173.516 193.93 173.723Z" fill="#5F5F5F"/>
<path d="M190.384 171.305C189.987 172.379 189.543 173.425 188.92 174.381C186.948 177.404 184.255 179.281 180.827 179.928C177.355 180.582 174.176 179.766 171.35 177.566C168.865 175.629 167.278 173.024 166.667 169.835C165.943 166.064 166.703 162.594 168.822 159.46C168.901 159.342 168.976 159.224 169.055 159.107C169.136 159.005 170.188 157.78 170.701 157.328C172.973 155.323 175.571 154.296 178.542 154.237C184.108 154.125 189.128 158.094 190.576 163.861C191.156 166.169 191.14 168.483 190.51 170.785C190.463 170.956 190.425 171.132 190.384 171.305Z" fill="#ED5050"/>
<path d="M181.993 167.189C182.087 169.162 180.367 170.69 178.736 170.669C176.873 170.646 175.345 169.108 175.363 167.155C175.378 165.247 176.794 163.669 178.759 163.664C180.396 163.659 182.084 165.202 181.993 167.189Z" fill="#414141"/>
<path d="M182.182 160.626C182.562 160.586 182.878 160.728 183.14 161.024C183.372 161.286 183.621 161.533 183.848 161.801C184.375 162.421 184.054 163.557 183.372 163.78C183.075 163.879 182.802 163.884 182.539 163.703C181.978 163.315 181.5 162.824 181.074 162.285C180.624 161.713 180.853 160.979 181.524 160.73C181.735 160.649 181.958 160.613 182.182 160.626Z" fill="#ED5050"/>
<path d="M92.8405 194.299C91.918 193.787 91.3706 192.993 91.2058 191.901C91.1495 191.529 91.0522 191.165 90.9796 190.795C90.9284 190.535 90.8046 190.448 90.5477 190.47C88.9149 190.615 87.2737 190.633 85.6385 190.524C85.417 190.51 85.1949 190.497 84.9753 190.47C84.7653 190.445 84.6564 190.536 84.6131 190.749C84.5354 191.135 84.4307 191.517 84.3702 191.907C84.1831 193.11 83.5575 193.937 82.493 194.402C81.8116 194.597 81.1306 194.529 80.4501 194.396C79.8194 194.273 79.172 194.215 78.6004 193.866C78.3807 193.696 78.1452 193.549 77.9548 193.338C77.2757 192.582 76.9946 191.699 77.17 190.669C77.2361 190.28 77.3236 189.897 77.3981 189.509C77.5238 188.846 77.5229 188.843 76.9369 188.625C75.6024 188.125 74.301 187.533 73.0405 186.853C72.7371 186.691 72.4294 186.53 72.1394 186.345C71.9179 186.201 71.7708 186.231 71.627 186.452C71.4059 186.792 71.1606 187.116 70.9413 187.459C70.0067 188.921 68.1728 189.349 66.7313 188.178C66.3538 187.871 65.9549 187.592 65.576 187.287C64.2383 186.21 63.9944 184.494 64.9691 183.039C65.2242 182.658 65.4853 182.28 65.752 181.906C65.8786 181.73 65.8763 181.586 65.7161 181.441C65.6379 181.371 65.5681 181.292 65.4941 181.218C64.2453 179.966 63.0919 178.614 62.0442 177.173C61.7472 176.763 61.7444 176.765 61.3078 177.03C61.0118 177.209 60.7176 177.389 60.4221 177.569C58.8665 178.506 57.3212 178.094 56.36 176.489C56.2283 176.285 56.1785 176.209 56.0407 175.963C55.8708 175.615 55.666 175.29 55.512 174.932C54.8566 173.402 55.3132 171.836 56.6859 170.972C57.0075 170.769 57.3347 170.574 57.6596 170.373C58.0925 170.104 58.0971 170.101 57.9109 169.631C57.3128 168.121 56.8194 166.568 56.4345 164.983C56.3707 164.722 56.3009 164.463 56.2497 164.199C56.1985 163.935 56.0528 163.849 55.8085 163.882C55.3519 163.943 54.8943 164.013 54.4349 164.041C53.2559 164.113 52.346 163.619 51.7302 162.553C51.4742 162.114 51.3778 161.623 51.3345 161.115C51.3029 160.737 51.2321 160.398 51.2079 159.991C51.1083 158.46 51.941 156.535 53.7712 156.398C54.1622 156.368 54.5513 156.306 54.9418 156.26C55.3928 156.207 55.4086 156.203 55.4189 155.751C55.4482 154.421 55.5511 153.094 55.7266 151.777C55.7982 151.243 55.8802 150.711 55.9695 150.18C56.0552 149.674 56.0556 149.663 55.5762 149.497C55.2173 149.374 54.8585 149.258 54.5052 149.132C52.9706 148.586 52.1779 147.046 52.6085 145.408C52.7677 144.803 52.9627 144.206 53.1726 143.618C53.7102 142.1 55.1824 141.335 56.6584 141.794C57.1006 141.931 57.5432 142.069 57.9728 142.242C58.2475 142.35 58.3699 142.259 58.4853 142.004C58.7576 141.404 59.0536 140.816 59.3403 140.224C59.4427 140.02 59.5368 139.857 59.6299 139.669C59.9375 139.075 60.2638 138.49 60.6553 137.948C61.0071 137.625 120.266 174.337 120.1 174.76C119.985 174.977 119.894 175.185 119.785 175.394C119.576 175.785 119.378 176.183 119.156 176.566C118.311 178.015 116.771 178.455 115.335 177.665C114.958 177.458 114.595 177.218 114.225 176.996C113.839 176.765 113.835 176.763 113.573 177.119C112.988 177.916 112.376 178.688 111.737 179.437C111.166 180.105 110.561 180.738 109.946 181.361C109.663 181.648 109.664 181.656 109.882 181.981C110.127 182.349 110.387 182.706 110.63 183.074C111.575 184.505 111.321 186.228 110.009 187.281C109.589 187.618 109.162 187.946 108.728 188.265C107.365 189.259 105.745 188.988 104.737 187.595C104.481 187.238 104.237 186.867 103.981 186.508C103.749 186.184 103.741 186.179 103.401 186.374C102.009 187.177 100.565 187.873 99.0781 188.457C98.87 188.539 98.6601 188.615 98.4534 188.698C98.0783 188.848 98.0713 188.854 98.1458 189.292C98.2119 189.681 98.2672 190.076 98.3734 190.453C98.769 191.865 97.9428 193.57 96.108 194.169C95.3149 194.43 93.5969 194.618 92.8405 194.299Z" fill="#414141"/>
<path d="M119.984 174.864C118.739 174.104 107.662 166.914 106.886 166.463C106.465 166.238 106.602 166.211 106.858 165.707C107.763 163.668 108.373 161.496 108.666 159.267C108.877 157.642 108.866 156.01 108.739 154.374C108.62 152.833 108.345 151.309 107.919 149.829C107.376 147.943 106.591 146.179 105.621 144.492C104.538 142.61 103.16 141.004 101.637 139.523C100.466 138.384 99.1423 137.459 97.7446 136.656C95.6449 135.44 93.3604 134.621 90.9931 134.232C89.5065 133.989 88.0059 133.87 86.5052 133.973C83.3122 134.194 80.2891 135.079 77.4773 136.707C75.2589 138.026 73.2738 139.736 71.6088 141.767C71.1843 142.285 70.5802 143.316 70.1641 143.839C69.9253 144.139 65.9503 141.422 60.5426 138.052C60.7423 137.682 60.9346 137.379 61.1477 137.057C61.2804 136.855 61.2697 136.702 61.0965 136.542C60.7647 136.232 60.4342 135.921 60.1084 135.603C59.0732 134.591 58.8312 133.248 59.4795 131.93C59.6276 131.628 59.8952 130.919 60.3034 130.403C60.5008 130.154 60.7181 129.926 60.9313 129.694C61.9753 128.556 64.0042 128.537 65.0934 129.585C66.412 130.852 66.2389 130.558 67.349 129.66C68.298 128.895 69.2583 128.149 70.2623 127.462C70.8022 127.094 70.8371 126.915 70.5639 126.297C70.2595 125.608 69.9853 124.915 70.044 124.128C70.117 123.156 70.4917 122.324 71.2458 121.784C72.3224 121.014 73.4655 120.38 74.8391 120.419C75.9734 120.453 76.7679 121.047 77.3446 122.02C77.5494 122.37 77.7091 122.752 77.8748 123.127C78.0288 123.478 78.2779 123.592 78.6269 123.496C80.0978 123.09 81.5877 122.783 83.0869 122.528C83.632 122.435 83.7418 122.266 83.7628 121.696C83.7725 121.498 83.7725 121.3 83.7628 121.102C83.6464 119.289 84.979 117.768 86.5546 117.663C87.4231 117.604 88.293 117.535 89.1551 117.717C90.423 117.987 91.6708 119.21 91.5452 120.89C91.528 121.122 91.5405 121.357 91.5452 121.591C91.5563 122.282 91.6797 122.451 92.3271 122.549C93.73 122.756 95.1194 123.054 96.4874 123.443C97.2112 123.652 97.3233 123.576 97.6249 122.863C97.8609 122.305 98.0978 121.745 98.5154 121.297C99.3592 120.394 100.409 120.248 101.504 120.503C102.37 120.705 103.184 121.119 103.93 121.631C105.145 122.466 105.588 123.966 105.094 125.425C104.991 125.728 104.867 126.026 104.738 126.32C104.482 126.896 104.525 127.106 105.035 127.446C106.105 128.153 107.136 128.923 108.122 129.756C109.202 130.674 109.009 130.813 110.201 129.677C111.245 128.682 112.856 128.563 113.809 129.245C114.773 129.935 115.612 130.804 116.17 131.892C116.665 132.861 116.599 134.641 115.611 135.537C115.315 135.807 115.053 136.116 114.777 136.412C114.539 136.669 114.507 136.949 114.695 137.241C115.578 138.611 116.368 140.044 117.059 141.529C117.229 141.894 117.52 141.986 117.879 141.867C118.301 141.724 118.733 141.609 119.169 141.526C120.338 141.311 121.624 141.851 122.224 142.931C122.806 143.978 123.164 145.126 123.201 146.354C123.24 147.704 122.601 148.638 121.509 149.26C121.146 149.462 120.763 149.621 120.368 149.736C119.95 149.862 119.77 150.129 119.855 150.579C120.15 152.188 120.248 153.819 120.345 155.451C120.37 155.884 120.568 156.123 120.981 156.135C121.289 156.145 121.591 156.205 121.895 156.247C123.462 156.463 124.534 157.748 124.539 159.418C124.543 159.742 124.527 160.064 124.497 160.387C124.445 160.894 124.272 161.622 124.137 162.096C123.745 163.479 122.42 164.236 121.054 164.145C120.612 164.116 120.172 164.041 119.729 163.995C119.324 163.953 119.303 163.959 119.202 164.383C118.899 165.657 118.568 166.922 118.133 168.154C117.932 168.727 117.724 169.297 117.495 169.859C117.393 170.108 117.436 170.261 117.655 170.391C118.086 170.648 118.521 170.899 118.936 171.183C120.046 171.94 120.504 173.315 120.1 174.628C120.067 174.71 120.029 174.789 119.984 174.864Z" fill="#666059"/>
<path d="M74.8009 146.48C75.3133 145.832 75.7997 145.159 76.3611 144.552C79.009 141.685 82.2086 140.002 85.9862 139.555C89.3272 139.158 92.497 139.77 95.4247 141.506C99.9317 144.178 102.62 148.25 103.468 153.618C103.961 156.735 103.587 159.78 102.412 162.702C102.346 162.867 102.299 163.04 102.243 163.21C102.371 163.491 102.246 163.733 102.135 163.977C101.564 165.22 100.815 166.334 99.9466 167.353C97.4508 170.286 94.3956 172.229 90.6882 172.902C85.767 173.794 81.3265 172.594 77.4665 169.243C74.3359 166.523 72.4494 163.002 71.8415 158.781C71.3691 155.495 71.7624 152.294 73.0545 149.236C73.3677 148.495 73.748 147.794 74.1311 147.092C74.2875 146.799 74.4913 146.581 74.8009 146.48Z" fill="#ED5050"/>
<path d="M77.6611 156.161C77.5764 150.106 82.4935 145.491 87.7089 145.463C92.8242 145.436 97.9289 149.727 97.9377 156.215C97.9466 162.238 93.306 166.815 87.89 166.874C81.9894 166.938 77.5527 161.809 77.6611 156.161Z" fill="#45423D"/>
<path d="M97.7618 146.286C97.8465 147.181 96.7825 147.882 96.0429 147.366C95.5411 147.014 95.0673 146.657 94.6698 146.19C94.0973 145.518 94.2276 144.821 94.9863 144.382C95.5481 144.057 96.0717 144.034 96.5907 144.5C96.9556 144.827 97.3094 145.157 97.5714 145.584C97.7041 145.791 97.7711 146.037 97.7618 146.286Z" fill="#ED5050"/>
<path d="M79.6988 156.233C79.5732 151.859 82.9384 147.592 87.8224 147.611C92.3848 147.63 95.9465 151.485 95.9004 156.306C95.8562 161.059 92.1153 164.786 87.6697 164.728C83.0599 164.668 79.5741 160.581 79.6988 156.233Z" fill="#ED5050"/>
<path d="M87.7745 159.662C85.9573 159.662 84.4423 158.069 84.4558 156.152C84.4674 154.261 85.8577 152.679 87.7959 152.658C89.5632 152.639 91.1067 154.178 91.0969 156.181C91.088 158.133 89.6321 159.663 87.7745 159.662Z" fill="#414141"/>
<path d="M91.6126 150.372C91.8039 150.372 91.9905 150.393 92.153 150.506C92.8591 150.999 93.237 151.686 93.2119 152.588C93.1984 153.052 92.5672 153.539 92.1371 153.436C91.4092 153.262 90.8162 152.882 90.4112 152.199C90.0608 151.608 90.1301 151.114 90.6551 150.696C90.9391 150.472 91.2635 150.38 91.6126 150.372Z" fill="#ED5050"/>
<path d="M74.8023 146.478C74.2731 147.361 73.7611 148.25 73.3519 149.205C72.6644 150.814 72.2185 152.527 72.0286 154.282C71.7773 156.492 71.9509 158.735 72.5392 160.875C73.128 163.015 74.1195 165.007 75.4548 166.735C77.4847 169.36 80.0428 171.169 83.1078 172.178C84.884 172.762 86.7133 173.031 88.5658 172.902C93.4125 172.565 97.3652 170.391 100.386 166.367C101.019 165.518 101.566 164.602 102.017 163.632C102.085 163.488 102.169 163.352 102.245 163.211C102.666 163.419 105.944 165.65 106.503 166.062C106.725 166.224 106.624 166.44 106.519 166.638C105.943 167.722 105.335 168.783 104.602 169.759C103.001 171.893 101.134 173.712 98.9245 175.139C96.7806 176.525 94.4249 177.509 91.9627 178.049C90.0576 178.471 88.1278 178.535 86.204 178.408C83.645 178.242 81.1925 177.559 78.8578 176.418C77.2585 175.645 75.7597 174.661 74.3978 173.487C71.7191 171.162 69.6413 168.352 68.2971 164.961C67.4383 162.782 66.9007 160.479 66.7043 158.129C66.3966 154.626 66.924 151.254 68.0946 147.977C68.5238 146.776 69.0898 145.65 69.6948 144.543C69.754 144.435 69.821 144.327 69.8894 144.226C70.2571 143.676 70.3269 143.658 70.8734 143.986C71.7908 144.538 73.5563 145.692 74.4546 146.269C74.5747 146.331 74.691 146.401 74.8023 146.478Z" fill="#666059"/>
<path d="M103.297 159.727C103.761 157.554 103.804 155.304 103.425 153.112C103.046 150.921 102.251 148.832 101.089 146.971C99.1474 144.333 96.7079 142.11 94.0004 140.738C92.3103 139.971 90.4997 139.544 88.6607 139.478C83.8065 139.296 79.6448 140.99 76.2544 144.673C75.7215 145.262 75.2207 145.883 74.7552 146.533C74.3563 146.282 70.6844 144.308 70.1677 143.838C69.9629 143.652 71.5641 141.741 72.3865 140.848C74.185 138.895 76.2177 137.283 78.5533 136.101C80.7391 134.914 83.2381 134.235 85.759 133.953C87.6921 133.733 89.6446 133.787 91.5637 134.115C94.0939 134.553 96.4263 135.59 98.6382 136.976C100.155 137.917 101.552 139.056 102.794 140.369C105.235 142.97 107.031 145.986 108.043 149.505C108.688 151.763 109 154.114 108.969 156.472C108.936 159.99 108.098 163.222 106.88 165.826C106.639 166.342 106.858 166.329 106.158 165.826C105.298 165.178 103.153 163.825 102.248 163.213C102.191 163.167 102.931 161.46 103.297 159.727Z" fill="#45423D"/>
<path d="M80.7559 68.0284C80.3826 66.7777 80.0964 65.5019 79.7817 64.2345C79.6989 63.9007 79.792 63.8109 80.1299 63.7243C98.8239 58.9353 121.556 62.5947 133.232 66.3206C135.083 67.0202 136.884 67.8329 138.55 68.9449C139.272 69.4275 139.958 69.9595 140.498 70.6731C140.648 70.8686 140.783 71.0762 140.902 71.294C141.184 71.8242 141.247 72.358 140.982 72.9375C140.367 74.2822 139.698 75.5962 138.975 76.8804C138.508 77.7164 138.028 78.5439 137.554 79.3766C137.331 79.7802 137.081 80.1665 136.805 80.5328C136.564 80.7697 136.292 80.6557 136.032 80.5943C134.888 80.3243 133.734 80.113 132.598 79.8183C132.514 79.7965 132.428 79.8332 132.344 79.8365C131.153 79.4302 129.897 79.3841 128.687 79.0806C128.529 79.0406 128.391 79.1416 128.24 79.1146C126.254 78.7078 124.241 78.5025 122.241 78.213C121.539 78.1111 120.812 78.1651 120.132 77.9002C119.871 77.6102 119.823 77.2313 119.735 76.8655C119.231 74.7086 118.577 72.6154 117.378 70.7564C117.195 70.4739 116.997 70.2044 116.789 69.9419C116.165 69.1529 115.42 68.6833 114.408 68.5436C111.77 68.1778 109.128 67.8622 106.478 67.6253C102.07 67.2297 97.6556 67.1622 93.2385 67.2278C91.0587 67.2599 88.8809 67.4126 86.7053 67.6104C84.9036 67.7724 83.1065 67.9646 81.3145 68.2146C81.0924 68.2374 80.9007 68.2234 80.7559 68.0284Z" fill="#ED5050"/>
<path d="M142.744 105.687C141.503 105.678 140.261 105.651 139.02 105.669C138.624 105.675 138.536 105.432 138.449 105.133C138.113 105.025 138.123 104.701 138.071 104.43C137.67 102.352 137.292 100.267 136.855 98.1959C135.781 93.1034 134.574 88.0472 133.106 83.0631C132.853 82.2043 132.581 81.3521 132.334 80.491C132.259 80.2294 132.115 79.9436 132.358 79.6811C132.448 79.5731 132.568 79.5731 132.686 79.595C134.068 79.8649 135.447 80.1349 136.805 80.525C137.696 83.1673 138.445 85.8549 139.137 88.5615C140.077 92.239 140.883 95.951 141.635 99.6761C141.915 101.067 142.741 105.653 142.744 105.687Z" fill="#45423D"/>
<path d="M80.7587 68.0288C82.3915 67.7351 84.0397 67.5643 85.6869 67.4088C86.8748 67.2967 88.0686 67.2245 89.2593 67.1389C92.5682 66.8968 95.8799 66.9015 99.1902 66.9606C101.595 67.0034 103.998 67.1375 106.399 67.3386C107.998 67.4726 109.594 67.6267 111.187 67.818C112.525 67.9804 113.853 68.2141 115.191 68.3975C115.624 68.4566 115.95 68.68 116.259 68.9779C117.325 70.0038 118.077 71.2591 118.668 72.6285C119.372 74.2566 119.855 75.9588 120.175 77.7135C120.101 77.9598 119.91 77.963 119.718 77.9505C118.867 77.8965 118.015 77.8336 117.167 77.7503C116.42 77.6772 115.67 77.6423 114.923 77.5981C113.733 77.5288 112.542 77.3928 111.346 77.4622C110.884 77.4897 110.43 77.3672 109.969 77.3598C109.346 77.35 109.152 77.492 108.936 78.1008C107.661 81.6904 106.612 85.3544 105.69 89.0604C104.265 94.785 103.178 100.585 102.264 106.421C102.019 107.982 101.819 109.549 101.601 111.113C101.556 111.432 101.524 111.757 101.331 112.032C101.181 112.19 100.99 112.201 100.806 112.151C99.9494 111.917 99.0981 111.657 98.243 111.417C98.176 111.401 98.1141 111.369 98.062 111.321C98.0098 111.274 97.9698 111.215 97.9447 111.147C97.8069 110.757 97.8935 110.36 97.9488 109.975C98.8202 103.662 99.887 97.3878 101.29 91.1805C102.283 86.7908 103.414 82.4454 104.862 78.1958C105.082 77.553 104.959 77.3663 104.318 77.3589C101.778 77.3291 99.2428 77.4217 96.7042 77.5497C95.4284 77.6144 94.1535 77.6698 92.881 77.782C92.7963 77.782 92.7106 77.7852 92.625 77.7857C91.2966 77.795 91.2659 77.8257 90.8469 79.1281C88.4094 86.6987 86.7053 94.4597 85.389 102.324C84.9953 104.675 84.6499 107.035 84.2994 109.394C84.2677 109.61 84.2449 109.823 84.116 110.004C83.9931 110.213 83.7897 110.241 83.5858 110.274C82.5269 110.436 81.4615 110.549 80.4073 110.746C80.1699 110.791 79.8785 110.844 79.8306 110.442C80.0074 109.198 80.1843 107.955 80.3616 106.712C80.8211 103.478 81.3414 100.255 81.9223 97.0443C82.6843 92.8371 83.5556 88.6629 84.6322 84.539C85.1447 82.5827 85.6743 80.631 86.319 78.7171C86.5443 78.0463 86.5434 78.0463 86.056 77.5827C84.8798 76.461 83.7078 75.3351 82.5256 74.2203C82.3082 74.0192 82.1564 73.7521 82.0903 73.4556C81.6901 71.8209 81.2702 70.1913 80.8569 68.5599C80.7857 68.3933 80.7512 68.2118 80.7587 68.0288Z" fill="#45423D"/>
<path d="M80.7601 68.0259C80.8224 68.1962 80.8932 68.3647 80.8569 68.5551C80.7549 68.3941 80.6251 68.2363 80.7601 68.0259Z" fill="#A9A9A9"/>
<path d="M107.898 114.968C105.934 113.856 103.874 112.98 101.768 112.221C101.576 112.152 101.375 112.101 101.229 111.935C101.445 110.353 101.646 108.767 101.882 107.187C102.428 103.529 103.067 99.8905 103.797 96.2693C104.91 90.7811 106.241 85.3558 107.99 80.051C108.27 79.202 108.56 78.3567 108.852 77.5124C108.999 77.0856 109.005 77.0837 109.44 77.0967C111.862 77.1689 114.285 77.2666 116.704 77.4267C117.862 77.5026 119.015 77.6153 120.172 77.7111C122.082 77.9048 123.985 78.1524 125.885 78.4363C126.693 78.5569 127.5 78.6686 128.302 78.8254C128.763 79.0195 129.049 79.391 129.328 79.8178C130.386 81.4418 131.228 83.1951 131.93 85.0025C132.664 86.8927 133.336 88.8206 133.788 90.8183C133.967 91.605 134.221 92.3711 134.404 93.1549C135.004 95.7335 135.669 98.2959 136.154 100.904C136.402 102.242 136.667 103.579 136.994 104.901C137.082 105.253 137.226 105.651 136.795 105.904C136.749 105.958 136.712 106.025 136.655 106.057C135.894 106.481 135.381 107.171 134.881 107.875C134.046 109.05 133.22 110.231 132.39 111.41C132.157 111.518 131.963 111.428 131.773 111.284C130.774 110.53 129.766 109.789 128.748 109.061C128.23 108.69 128.191 108.505 128.538 107.957C129.031 107.18 129.56 106.429 130.068 105.662C130.264 105.368 130.473 105.081 130.632 104.762C130.919 104.184 130.814 103.608 130.372 103.263C129.93 102.918 129.379 102.988 128.956 103.488C128.421 104.121 128 104.845 127.543 105.541C126.093 107.742 124.641 109.941 123.185 112.139C123.049 112.345 122.909 112.551 122.817 112.787C122.603 113.322 122.752 113.872 123.183 114.169C123.629 114.476 124.142 114.415 124.52 113.959C125.048 113.322 125.467 112.596 125.927 111.907C126.219 111.465 126.512 111.022 126.815 110.587C127.025 110.285 127.258 110.24 127.562 110.445C128.668 111.194 129.724 112.019 130.803 112.809C130.983 112.941 131.161 113.097 131.155 113.369C130.817 113.948 130.48 114.529 130.141 115.106C129.97 115.396 129.787 115.678 129.619 115.97C128.917 117.178 128.895 118.428 129.5 119.668C131.129 123.007 132.822 126.31 134.732 129.484C134.97 129.879 135.225 130.26 135.464 130.653C136.138 131.758 137.143 132.201 138.327 132.239C139.468 132.274 140.606 132.142 141.743 132.038C141.717 137.037 140.359 141.611 137.816 145.82C137.46 146.409 137.075 146.66 136.381 146.639C134.54 146.581 132.697 146.629 130.856 146.634C130.484 146.579 130.497 146.233 130.445 145.972C130.227 144.9 129.94 143.849 129.637 142.8C128.472 138.756 126.783 134.899 124.618 131.341C123.918 130.191 123.137 129.104 122.404 127.981C121.723 127.044 120.988 126.152 120.23 125.287C118.879 123.746 117.478 122.257 115.943 120.912C113.725 118.979 111.348 117.256 108.842 115.763C108.495 115.543 108.079 115.406 107.898 114.968Z" fill="#B9E1E1"/>
<path d="M136.688 106.03C136.83 105.706 136.818 105.259 136.744 104.954C136.096 102.294 131.524 83.7502 128.938 79.6691C128.625 79.1748 128.551 79.0436 128.304 78.8267C129.519 78.9263 130.709 79.1962 131.913 79.3736C132.006 79.3847 132.094 79.4183 132.172 79.4727C132.249 79.5262 132.312 79.5989 132.359 79.684C133.974 84.851 135.359 90.0851 136.515 95.3866C137.224 98.6173 137.951 102.089 138.529 105.349L138.537 105.37C138.654 105.597 138.684 105.534 138.007 105.624C137.588 105.68 137.023 105.877 136.688 106.03Z" fill="#DCF9FB"/>
<path d="M98.061 111.082C97.0095 110.866 95.959 110.63 94.9052 110.44C93.6475 110.215 92.3796 110.061 91.1066 109.976C89.902 109.893 88.7077 109.868 87.5007 109.865C86.8226 109.865 86.1356 109.935 85.4532 109.882C85.1739 109.656 85.2242 109.35 85.2647 109.042C85.8433 104.645 86.5163 100.267 87.3937 95.919C88.009 92.8567 88.7016 89.8159 89.5539 86.8198C90.3679 83.9573 91.3165 81.145 92.7864 78.5673C93.0075 78.1796 93.0424 77.8589 92.8083 77.4954C92.9703 77.4269 93.1425 77.4274 93.3124 77.419C97.1808 77.2347 101.049 77.0341 104.923 77.0713C105.09 77.0713 105.263 77.0299 105.426 77.1174C105.491 77.311 105.383 77.4693 105.327 77.6308C103.618 82.5455 102.328 87.592 101.216 92.6896C100.273 97.0147 99.4908 101.372 98.8159 105.752C98.5441 107.526 98.3133 109.306 98.061 111.082Z" fill="#B9E1E1"/>
<path d="M93.1454 77.43C93.838 77.3444 93.7724 77.3844 93.3572 78.1319C92.2359 80.1497 91.2915 82.2242 90.5705 84.4133C90.1521 85.6816 89.7466 86.9621 89.4334 88.2709C89.0913 89.699 88.6877 91.1102 88.3708 92.5457C88.0491 93.9984 87.7778 95.4618 87.4808 96.92C87.1759 98.4132 86.8655 99.905 86.6337 101.413C86.2748 103.753 85.9285 106.095 85.5943 108.438C85.5264 108.915 85.4403 109.395 85.4542 109.883C85.2815 109.965 84.0984 110.094 84.0081 109.883C84.0858 108.735 84.2906 107.603 84.4591 106.468C84.8761 103.664 85.3453 100.87 85.8657 98.0841C87.0801 91.6464 88.5765 85.2841 90.5821 79.0666C90.7087 78.6761 90.8586 78.2925 90.9708 77.8969C91.0364 77.6656 91.1672 77.5795 91.3767 77.5729C91.857 77.5478 93.0602 77.4263 93.1454 77.43Z" fill="#DCF9FB"/>
<path d="M157.102 156.62C155.908 156.523 154.579 155.535 153.629 158.089C152.685 160.62 154.073 161.596 153.864 161.511C153.761 161.497 153.657 161.493 153.553 161.501C152.772 161.511 151.964 161.374 151.184 161.373C150.908 161.239 150.973 161.002 151.019 160.77C151.411 158.78 152.013 156.842 152.813 154.992C153.871 152.565 155.166 150.294 156.789 148.231C159.046 145.365 161.688 142.991 164.762 141.148C167.96 139.228 171.394 138.041 175.032 137.523C176.789 137.274 178.562 137.181 180.339 137.312C181.012 137.362 181.539 137.072 181.901 136.487C182.049 136.248 182.212 136.068 182.465 135.973C182.758 135.97 183.024 136.1 183.303 136.166C183.918 136.312 183.982 136.288 184.252 135.702C184.687 134.755 185.14 133.816 185.703 132.941C185.841 132.848 185.956 132.72 186.039 132.571C186.769 131.394 187.702 130.421 188.799 129.622C188.83 129.607 188.865 129.6 188.898 129.605C189.295 129.605 189.399 129.924 189.494 130.236C189.914 131.606 190.386 132.951 190.97 134.255C191.938 136.415 193.132 138.414 194.665 140.177C194.893 140.44 195.182 140.675 195.048 141.103C194.25 142.58 193.451 144.056 192.653 145.531C192.535 145.748 192.406 145.959 192.282 146.172C192.06 146.544 191.809 146.896 191.533 147.225C191.461 147.169 191.385 147.121 191.305 147.08C191.259 147.057 191.172 146.975 191.127 146.949C190.291 146.471 190.41 146.439 190.827 145.545C191.087 144.982 191.224 144.411 191.058 143.776C190.993 143.513 190.877 143.268 190.718 143.056C190.558 142.843 190.359 142.668 190.132 142.54C189.598 142.234 189.042 141.945 188.431 141.812C187.574 141.624 186.679 142.042 186.266 142.858C186.13 143.129 186.034 143.419 185.908 143.693C185.726 144.095 185.621 144.151 185.225 144.032C184.174 143.716 183.112 143.458 182.023 143.33C181.921 143.317 181.824 143.276 181.722 143.266C181.432 143.23 181.309 143.05 181.312 142.755C181.312 142.467 181.294 142.178 181.312 141.891C181.379 140.802 180.721 140.067 179.766 139.868C179.078 139.724 178.367 139.734 177.683 139.897C176.807 140.104 176.289 140.667 176.167 141.625C176.117 141.979 176.088 142.338 176.08 142.696C176.075 143.164 176.045 143.203 175.597 143.295C175.044 143.41 174.488 143.496 173.934 143.606C173.365 143.721 172.801 143.864 172.243 144.035C171.88 144.147 171.796 144.102 171.644 143.745C171.505 143.417 171.374 143.086 171.195 142.779C170.722 141.968 169.866 141.595 168.99 141.832C168.361 142.005 167.762 142.283 167.218 142.657C166.423 143.197 166.133 144.217 166.47 145.179C166.57 145.464 166.716 145.731 166.834 146.011C166.981 146.363 166.968 146.447 166.676 146.636C165.64 147.303 164.682 148.083 163.729 148.87C163.451 149.101 163.374 149.103 163.114 148.851C162.882 148.612 162.635 148.388 162.378 148.183C161.645 147.625 160.644 147.618 159.955 148.231C159.476 148.658 159.022 149.123 158.68 149.694C158.161 150.558 158.281 151.585 158.987 152.287C159.272 152.571 159.302 152.592 159.766 152.927C159.053 153.678 157.659 155.708 157.251 156.507" fill="#414141"/>
<path d="M147.559 161.272C144.691 161.268 141.823 161.265 138.955 161.262C134.395 161.262 129.838 161.262 125.279 161.262C124.227 161.262 124.209 161.227 124.356 160.141C124.458 159.348 124.477 158.558 124.054 157.838C123.6 157.061 122.957 156.563 122.094 156.424C121.673 156.352 121.249 156.306 120.823 156.288C120.31 156.272 120.217 156.138 120.198 155.594C120.136 153.833 120 152.083 119.679 150.348C119.551 149.661 119.586 149.604 120.24 149.414C120.768 149.26 121.283 149.07 121.754 148.771C122.926 148.028 123.27 146.758 122.989 145.454C122.86 144.859 122.665 144.279 122.476 143.702C121.984 142.203 120.682 141.424 119.205 141.716C118.699 141.816 118.214 141.985 117.727 142.148C117.326 142.283 117.276 142.269 117.09 141.859C116.314 140.136 115.399 138.487 114.355 136.928C114.158 136.638 114.169 136.547 114.468 136.311C114.878 135.983 115.21 135.567 115.591 135.208C116.505 134.344 116.489 132.525 115.941 131.657C115.426 130.839 114.772 130.144 114.061 129.534C113.166 128.762 111.598 128.735 110.603 129.677C110.261 130.001 109.872 130.271 109.569 130.641C109.388 130.863 109.22 130.868 109.005 130.677C108.498 130.223 107.986 129.776 107.46 129.347C106.636 128.676 105.769 128.073 104.889 127.483C104.126 126.972 104.162 127.086 104.549 126.241C104.711 125.904 104.853 125.557 104.975 125.201C105.419 123.818 105.016 122.303 103.602 121.547C102.992 121.222 102.38 120.888 101.722 120.7C100.799 120.435 99.8982 120.484 99.0874 121.119C98.7583 121.379 98.4944 121.721 98.318 122.113C98.0997 122.58 97.9079 123.061 97.6989 123.533C97.5407 123.89 97.5058 123.912 97.1483 123.793C95.7775 123.34 94.3761 123.03 92.9583 122.792C92.6218 122.739 92.2838 122.684 91.9464 122.634C91.4577 122.559 91.42 122.519 91.4111 121.979C91.4046 121.53 91.406 121.08 91.4111 120.629C91.4227 119.38 90.7963 118.576 89.782 118.055C89.4907 117.9 89.1713 117.811 88.8455 117.794C88.0794 117.767 87.3119 117.715 86.5471 117.848C85.0889 118.105 84.1831 119.178 84.1379 120.731C84.1268 121.127 84.1379 121.522 84.1333 121.919C84.1258 122.526 84.1026 122.544 83.5482 122.637C81.8451 122.921 80.1471 123.231 78.4924 123.759C78.0977 123.884 78.0507 123.857 77.8701 123.447C77.6984 123.055 77.5308 122.662 77.3576 122.27C76.6758 120.714 75.0946 120.211 73.6377 120.771C73.0918 120.979 72.5593 121.223 72.0426 121.503C71.1955 121.964 70.6365 122.677 70.4536 123.692C70.3595 124.226 70.407 124.775 70.5909 125.282C70.7501 125.739 70.9609 126.17 71.1597 126.608C71.3281 126.98 71.3091 127.064 70.987 127.271C69.6269 128.14 68.3562 129.14 67.1163 130.187C66.9571 130.322 66.8086 130.473 66.655 130.612C66.3897 130.846 66.3082 130.846 66.0397 130.602C65.7427 130.331 65.4369 130.071 65.159 129.78C64.1117 128.683 62.1508 128.689 61.1342 129.855C60.8345 130.198 60.5487 130.557 60.241 130.893C59.8691 131.297 59.8445 131.283 59.4628 130.912C59.1388 130.597 58.375 129.89 58.3206 129.848C57.8118 129.249 57.8328 129.245 58.348 128.633C62.7284 123.424 68.2813 119.458 74.4965 117.101C77.629 115.913 80.8532 115.139 84.1659 114.838C86.1892 114.661 88.2223 114.64 90.2484 114.777C92.9927 114.951 95.7119 115.425 98.3622 116.193C100.537 116.82 102.652 117.656 104.681 118.691C106.067 119.38 107.412 120.158 108.707 121.021C110.522 122.232 112.239 123.596 113.843 125.102C115.378 126.553 116.818 128.112 118.156 129.766C118.337 130.003 118.507 130.251 118.664 130.507C119.915 131.995 120.92 133.667 121.858 135.376C123.744 138.803 125.154 142.494 126.047 146.34C126.359 147.685 126.566 149.051 126.797 150.413C126.997 151.601 127.824 152.007 128.84 151.432C130.113 150.712 130.921 148.997 130.736 147.479C130.695 147.15 130.48 146.777 130.816 146.467C131.082 146.31 131.375 146.323 131.665 146.321C133.202 146.317 134.738 146.301 136.273 146.329C136.907 146.341 137.332 146.091 137.672 145.538C138.941 143.464 139.91 141.202 140.542 138.826C141.042 136.972 141.4 135.09 141.521 133.161C141.537 132.964 141.534 132.765 141.513 132.567C141.486 132.333 141.541 132.14 141.747 132.017C142.08 132.011 142.81 131.967 142.843 131.964C144.118 131.884 144.118 131.885 144.12 133.235C144.12 134.262 144.115 135.287 144.123 136.311C144.131 137.249 144.369 137.538 145.239 137.768C147.323 138.327 149.432 138.509 151.58 138.391C152.574 138.336 153.544 138.149 154.53 138.066C154.733 138.042 154.933 137.988 155.122 137.905C155.72 137.663 155.897 137.419 155.905 136.733C155.921 135.457 155.901 134.18 155.916 132.903C155.919 132.625 155.865 132.319 156.1 132.094C156.487 131.779 156.857 132.019 157.202 132.172C158.057 132.55 158.7 133.221 159.29 133.948C160.384 135.293 161.195 136.829 161.965 138.393C162.032 138.518 162.061 138.663 162.046 138.807C162.02 139.157 161.779 139.331 161.534 139.499C159.519 140.87 157.712 142.497 156.048 144.314C154.141 146.397 152.56 148.724 151.22 151.24C149.663 154.162 148.606 157.276 147.981 160.559C147.927 160.835 147.98 161.225 147.559 161.272Z" fill="#45423D"/>
<path d="M147.558 161.272C147.686 160.659 147.811 160.044 147.947 159.436C149.062 154.432 151.203 149.967 154.294 146C156.347 143.35 158.782 141.055 161.51 139.199C161.666 139.091 161.839 139.006 161.937 138.821C162.059 138.605 171.364 132.298 181.769 134.324C182.387 134.798 182.461 135.709 182.124 136.535C181.795 137.342 181.182 137.594 180.201 137.57C179.296 137.546 178.392 137.495 177.49 137.547C175.973 137.628 174.466 137.829 172.979 138.151C168.905 139.051 165.195 140.795 161.866 143.426C157.977 146.5 155.041 150.388 153.027 155.046C152.209 156.947 151.594 158.939 151.192 160.983C151.167 161.105 150.833 163.081 150.73 163.954C150.637 164.763 150.269 165.329 149.526 165.596C148.436 165.988 147.271 165.15 147.248 163.936C147.234 163.325 147.36 162.724 147.447 162.122C147.482 161.882 147.519 161.311 147.558 161.272Z" fill="#A19D98"/>
<path d="M138.679 157.065C136.819 157.065 134.959 157.07 133.099 157.061C132.228 157.057 131.597 156.609 131.237 155.788C130.877 154.965 130.988 154.167 131.51 153.453C131.925 152.889 132.518 152.672 133.175 152.65C133.619 152.636 134.063 152.645 134.509 152.645C137.649 152.647 140.789 152.649 143.929 152.651C144.524 152.651 145.078 152.759 145.55 153.185C146.202 153.773 146.466 154.728 146.195 155.578C146.063 156.009 145.805 156.385 145.458 156.653C145.11 156.919 144.692 157.066 144.262 157.068C142.402 157.078 140.54 157.065 138.679 157.065Z" fill="#FC4F4F"/>
<path d="M79.8301 110.436C79.9465 110.534 80.0796 110.536 80.2164 110.508C81.3805 110.268 82.5572 110.13 83.7353 110.001C83.8381 109.989 83.7869 109.991 84.0774 109.962C88.2143 109.638 93.7291 109.876 98.0657 111.083C99.0217 111.362 99.9848 111.569 100.942 111.845C101.04 111.851 105.725 113.656 107.545 114.687C107.708 114.809 107.787 114.875 107.904 114.968C107.978 115.853 107.717 116.517 107.227 117.12C106.545 117.961 105.643 118.564 104.634 118.946C103.336 118.351 102.045 117.743 100.705 117.256C98.3333 116.393 95.8902 115.767 93.4079 115.386C91.2445 115.062 89.0601 114.923 86.8757 114.971C84.298 115.016 81.732 115.341 79.2176 115.94C71.4138 117.787 64.3375 122.117 58.9489 128.344C58.7767 128.543 58.6007 128.739 58.428 128.938C58.0692 129.353 57.9123 129.622 57.6479 129.951C57.2086 130.5 56.7808 131.06 56.353 131.619C55.3533 132.924 53.5962 132.993 52.5019 131.626C51.7609 130.699 51.8865 129.304 52.4898 128.424C53.147 127.483 53.8498 126.577 54.595 125.712C55.357 124.814 56.0989 123.897 56.9339 123.072C58.1046 121.917 59.2701 120.754 60.5426 119.724C64.8895 116.207 69.6534 113.525 74.9042 111.831C76.2917 111.382 77.7007 111.011 79.1259 110.72C79.3772 110.671 79.6407 110.652 79.8301 110.436Z" fill="#ED5050"/>
<path d="M122.549 127.823C123.821 129.408 124.856 131.164 125.855 132.944C127.031 135.035 128.008 137.23 128.837 139.5C129.596 141.583 130.253 143.7 130.689 145.887C130.741 146.133 130.803 146.372 130.86 146.62C130.974 147.291 131.105 147.956 130.965 148.647C130.681 150.065 130.009 151.176 128.729 151.794C127.655 152.313 126.724 151.771 126.548 150.54C126.087 147.299 125.334 144.135 124.185 141.083C122.826 137.472 121.045 134.116 118.78 131.043C118.676 130.903 118.581 130.753 118.482 130.608C118.727 129.751 119.235 129.058 119.723 128.345C119.998 127.945 120.421 128.01 120.776 127.893C121.348 127.703 121.949 127.549 122.549 127.823Z" fill="#ED5050"/>
<path d="M122.255 127.75C119.45 127.511 118.569 130.426 118.479 130.608C117.268 129.054 115.99 127.566 114.599 126.185C111.773 123.371 108.565 121.015 105.081 119.193C104.928 119.114 104.779 119.031 104.629 118.946C104.759 118.784 105.913 118.546 106.875 117.164C107.689 115.995 107.881 115.201 107.897 114.969C108.816 115.332 109.617 115.922 110.45 116.447C111.89 117.346 113.273 118.34 114.593 119.424C115.785 120.411 116.943 121.439 118.044 122.544C118.799 123.3 119.507 124.101 120.221 124.894C121.051 125.816 121.889 126.744 122.545 127.824" fill="#ED5050"/>
<path d="M195.004 141.092C194.702 140.562 194.244 140.174 193.876 139.7C191.894 137.154 190.474 134.287 189.473 131.178C189.358 130.821 189.254 130.46 189.138 130.103C189.09 129.951 189.054 129.778 188.849 129.783C186.323 127.505 183.274 126.234 180.288 124.842C175.777 122.743 171.066 121.299 166.301 120.027C162.564 119.03 158.778 118.29 154.98 117.606C154.635 117.543 154.265 117.513 154.026 117.173C153.963 116.927 153.963 116.676 153.963 116.424C153.958 113.449 153.959 110.473 153.968 107.497C153.968 107.173 153.874 106.8 154.206 106.561C154.954 106.755 155.727 106.755 156.488 106.866C157.922 107.075 159.366 107.231 160.8 107.46C162.656 107.753 164.518 108.013 166.359 108.402C167.63 108.672 168.908 108.899 170.177 109.184C171.664 109.519 173.151 109.857 174.618 110.25C177.066 110.906 179.513 111.57 181.898 112.455C182.848 112.806 183.789 113.186 184.751 113.498C185.73 113.816 186.498 114.45 187.229 115.164C188.819 116.716 190.404 118.273 191.938 119.887C192.963 120.967 193.993 122.04 194.97 123.169C195.394 123.659 195.863 124.106 196.304 124.582C197.065 125.406 197.774 126.282 198.555 127.088C199.181 127.737 199.552 128.553 199.598 129.487C199.663 130.8 199.622 132.102 199.306 133.394C198.723 135.769 197.65 137.866 196.193 139.76C195.828 140.232 195.45 140.697 195.004 141.092Z" fill="#ED5050"/>
<path d="M131.157 113.358L127.627 110.778C127.569 110.742 127.513 110.7 127.461 110.653C127.248 110.437 127.119 110.536 126.985 110.761C126.785 111.095 126.56 111.413 126.344 111.737C125.834 112.5 125.334 113.273 124.81 114.026C124.42 114.585 123.926 114.757 123.38 114.577C122.564 114.307 122.196 113.381 122.601 112.579C122.727 112.326 122.895 112.096 123.052 111.86C124.847 109.15 126.644 106.439 128.441 103.729C128.553 103.549 128.678 103.378 128.813 103.216C129.282 102.684 129.993 102.601 130.531 103C130.791 103.192 130.976 103.48 131.05 103.807C131.123 104.135 131.078 104.479 130.924 104.774C130.765 105.09 130.56 105.381 130.365 105.675C129.808 106.515 129.245 107.349 128.685 108.186C128.461 108.52 128.456 108.527 128.776 108.762C129.978 109.645 131.184 110.526 132.39 111.405L131.157 113.358Z" fill="#45423E"/>
<path d="M145.709 105.893C145.874 106.016 145.863 106.203 145.863 106.379C145.867 109.533 145.867 112.686 145.863 115.839C145.867 115.947 145.85 116.054 145.811 116.154C145.6 116.424 145.298 116.413 145.013 116.414C143.957 116.42 142.902 116.36 141.847 116.339C138.9 116.272 135.952 116.312 133 116.318C132.796 116.318 132.59 116.33 132.4 116.426C132.288 116.48 132.185 116.558 132.202 116.706C132.217 116.855 132.336 116.901 132.455 116.934C132.537 116.956 132.622 116.967 132.708 116.964C134.155 116.932 135.601 116.995 137.051 116.899C138.443 116.807 139.842 116.835 141.24 116.923C142.446 117 143.656 117.031 144.864 117.077C145.172 117.089 145.479 117.067 145.753 117.259C145.889 117.982 146.104 118.697 145.957 119.449C145.954 119.518 145.936 119.585 145.903 119.645C145.678 119.928 145.327 119.934 145.034 120.062C144.48 120.305 144.204 120.702 144.221 121.347C144.301 124.291 144.081 127.234 144.119 130.178C144.123 130.519 144.13 130.859 144.166 131.2C144.243 131.936 144.051 132.178 143.346 132.253C143.16 132.272 142.971 132.278 142.782 132.283C142.454 132.288 142.127 132.29 141.8 132.262C140.841 132.421 139.871 132.431 138.905 132.501C137.114 132.628 135.8 131.86 134.866 130.233C133.571 127.975 132.264 125.725 131.08 123.398C130.548 122.355 130.055 121.292 129.494 120.263C128.594 118.609 128.586 116.993 129.636 115.41C130.095 114.72 130.43 113.944 130.978 113.318C131.281 112.566 131.773 111.94 132.215 111.279C133.229 109.703 134.3 108.17 135.453 106.704C135.805 106.256 136.294 105.98 136.745 105.658C137.344 105.488 139.515 105.442 140.065 105.424C140.69 105.401 141.317 105.415 141.942 105.424C142.24 105.426 145.134 105.591 145.709 105.893Z" fill="#ED5050"/>
<path d="M182.488 136.215C182.294 136.101 182.174 135.944 182.187 135.696C182.226 134.939 181.762 134.567 181.194 134.289C180.438 133.998 174.673 133.427 168.942 135.525C166.926 136.212 164.982 137.07 163.154 138.205C162.817 138.414 162.444 138.557 162.129 138.808C162.084 138.843 162 138.82 161.934 138.824C161.484 138.148 161.187 137.382 160.782 136.678C160.155 135.589 159.491 134.532 158.643 133.615C157.978 132.893 157.223 132.341 156.269 132.138C156.007 132.16 155.967 131.957 155.936 131.761C155.907 131.529 155.897 131.294 155.906 131.062C155.906 129.428 155.878 127.794 155.912 126.16C155.944 124.615 155.776 123.077 155.797 121.533C155.805 120.945 155.54 120.547 155.028 120.318C154.823 120.227 154.625 120.123 154.434 120.005C154.287 119.914 154.129 119.821 154.193 119.59L154.213 118.422C154.382 118.174 154.613 118.209 154.86 118.248C157.696 118.698 160.513 119.253 163.311 119.914C166.675 120.716 170.019 121.596 173.293 122.742C175.918 123.66 178.516 124.658 181.031 125.88C182.223 126.46 183.44 126.993 184.529 127.777C184.94 128.072 185.269 128.466 185.581 128.874C186.324 129.846 186.135 130.975 186.066 132.081C186.045 132.427 185.889 132.748 185.862 133.096C185.219 134.124 184.671 135.214 184.225 136.352C184.133 136.588 184.011 136.676 183.755 136.585C183.342 136.438 182.912 136.337 182.488 136.215Z" fill="#ED5050"/>
<path d="M185.869 133.097C185.726 132.809 185.749 132.496 185.802 132.199C185.914 131.574 185.875 130.946 185.875 130.318C185.875 129.703 185.551 129.226 185.198 128.788C184.754 128.239 184.209 127.791 183.598 127.47C180.735 125.938 177.771 124.662 174.738 123.554C172.546 122.752 170.335 122.021 168.088 121.415C165.248 120.65 162.397 119.943 159.512 119.363C157.854 119.03 156.184 118.781 154.525 118.456C154.425 118.437 154.321 118.433 154.22 118.421C154.22 118.026 154.22 117.631 154.22 117.237C155.239 117.339 156.242 117.552 157.248 117.743C158.556 117.99 159.862 118.254 161.166 118.532C162.533 118.828 163.903 119.114 165.256 119.493C166.292 119.783 167.341 120.029 168.381 120.314C170.923 121.012 173.435 121.814 175.916 122.719C177.932 123.455 179.881 124.366 181.841 125.248C183.705 126.09 185.514 127.065 187.253 128.164C187.764 128.485 188.233 128.88 188.714 129.251C188.885 129.381 189.039 129.539 188.854 129.784C188.204 130.391 187.533 130.972 186.956 131.664C186.572 132.125 186.233 132.619 185.869 133.097Z" fill="#ED5050"/>
<path d="M145.707 116.159L145.71 117.343C142.297 117.048 135.934 117.048 132.723 117.238C132.478 117.226 132.235 117.199 131.993 117.159C131.814 117.116 131.538 116.873 131.542 116.72C131.551 116.441 131.704 116.305 131.902 116.202C132.15 116.071 132.48 116.047 132.758 116.047C135.831 116.047 138.905 115.998 141.976 116.076C143.219 116.107 144.464 116.127 145.707 116.159Z" fill="#ED5050"/>
<path d="M198.382 130.523C198.399 131.685 198.178 132.754 197.862 133.804C197.304 135.662 196.397 137.319 195.241 138.833C195.006 139.14 194.994 139.142 194.75 138.838C193.625 137.446 192.727 135.903 191.955 134.271C191.377 133.045 190.903 131.774 190.478 130.483C190.347 130.082 190.362 130.011 190.743 129.805C192.073 129.086 193.467 128.575 194.954 128.352C195.632 128.249 196.315 128.251 196.993 128.163C197.061 128.157 197.129 128.156 197.198 128.159C197.842 128.172 197.943 128.258 198.185 128.877C198.4 129.427 198.396 129.999 198.382 130.523Z" fill="#FEFEFE"/>
<path d="M154.147 106.827C154.147 110.26 154.185 117.79 154.265 119.902C154.075 120.157 153.827 120.064 153.605 119.997C151.201 119.258 148.782 119.368 146.355 119.835C146.15 119.874 145.951 119.928 145.778 119.751L145.765 119.768C145.653 119.606 145.765 102.829 145.751 101.755C145.745 101.294 145.818 100.876 146.036 100.471C146.303 99.9728 146.536 99.4552 146.785 98.9451C146.819 98.9083 146.865 98.885 146.915 98.8804C149.713 100.139 152.024 101.6 154.131 103.87C154.1 104.691 154.131 105.789 154.147 106.827Z" fill="#414141"/>
<path d="M146.924 98.6839H146.883L146.842 98.676C147.044 98.1677 147.055 97.6352 147.053 97.0944C147.047 95.4783 147.072 93.8618 147.058 92.2462C147.052 91.6574 147.22 91.1798 147.57 90.719C149.292 88.4458 151.165 86.3023 153.171 84.3041C154.447 83.0339 155.801 81.854 157.288 80.8579C157.571 80.9291 157.45 81.1232 157.386 81.2722C156.474 83.3914 156.603 85.6139 156.89 87.8197C157.015 88.7916 157.271 89.7932 158.039 90.5073C158.093 90.5524 158.13 90.6176 158.142 90.6897C158.153 90.7614 158.139 90.8354 158.101 90.8968C156.368 91.7454 155.008 93.0631 153.859 94.6447C153.689 94.8783 153.564 95.125 153.606 95.4327C153.53 97.3583 153.546 99.282 153.61 102.45C153.607 102.484 153.603 102.518 153.597 102.552C153.341 102.735 153.174 102.528 153.015 102.387C152.331 101.773 151.666 101.136 150.928 100.589C150.122 99.99 149.295 99.4309 148.401 98.986C147.93 98.7528 147.451 98.595 146.924 98.6839Z" fill="#A19D98"/>
<path d="M158.403 80.6216C158.749 80.8036 158.926 81.1075 159.013 81.498C159.237 82.4909 159.384 83.5009 159.454 84.5184C159.574 86.2587 159.335 87.9427 158.921 89.6132C158.836 89.9609 158.737 90.304 158.518 90.5912C158.3 90.6303 158.233 90.4636 158.145 90.3044C157.126 88.4617 156.941 86.4509 157.068 84.3797C157.084 84.0957 157.129 83.8118 157.146 83.5256C157.203 82.4252 157.653 81.3882 158.403 80.6216Z" fill="#A19D98"/>
<path d="M155.264 120.111C155.795 120.357 156.056 120.718 156.077 121.387C156.185 124.763 156.156 128.138 156.164 131.513C156.164 131.728 156.186 132.629 156.183 132.879C156.176 134.28 156.153 135.68 156.171 137.08C156.178 137.573 155.985 137.854 155.58 138.031C152.204 139.004 147.821 138.956 144.747 137.923C144.054 137.702 143.87 137.43 143.865 136.676C143.857 135.689 143.865 134.701 143.865 133.713C143.865 133.301 143.872 132.888 143.865 132.474C143.857 132.061 143.967 125.66 143.967 125.463C143.967 123.955 143.978 122.446 143.963 120.937C143.958 120.463 144.124 120.178 144.545 119.98C149.426 118.355 151.989 118.828 155.264 120.111Z" fill="#A19D98"/>
<path d="M144.877 128.999V121.718C144.877 121.593 144.874 121.467 144.877 121.34C144.889 120.84 144.93 120.773 145.386 120.598C147.102 119.904 152.121 119.248 154.8 121.11C155.223 121.344 155.291 121.583 155.308 122.15C155.378 123.425 155.258 132.898 155.262 136.546C155.262 136.619 155.262 136.69 155.262 136.762C155.249 137.283 155.216 137.308 154.714 137.417C151.59 138.101 148.483 138.011 145.389 137.201C144.93 137.081 144.906 137.069 144.906 136.547C144.902 134.874 144.902 133.203 144.906 131.531C144.906 130.686 144.906 129.841 144.906 128.996L144.877 128.999Z" fill="#45423D"/>
<path d="M146.81 98.786C146.87 98.3243 147.137 98.2764 147.653 98.4034C148.272 98.598 148.865 98.8768 149.417 99.2338C150.643 100.005 151.818 100.854 152.849 101.907C153.079 102.142 153.346 102.339 153.596 102.552C153.632 102.707 153.711 102.847 153.824 102.953C154.15 103.261 154.193 103.617 154.128 104.068C153.587 103.987 153.283 103.646 152.94 103.247C152.009 102.168 150.921 101.293 149.767 100.497C149.057 100.006 147.969 99.4707 147.18 99.1393C146.91 99.0257 146.778 99.0327 146.81 98.786Z" fill="#DCF9FB"/>
<path d="M158.407 80.6207C158.59 80.7255 158.706 80.7739 158.238 81.2109C157.644 81.7718 157.251 83.1849 157.291 85.5029C157.329 87.0398 157.349 88.4078 158.522 90.5908C158.423 90.7527 158.293 90.8719 158.102 90.8961C156.115 88.8393 156.308 82.5091 157.289 80.8572C157.696 80.4141 157.933 80.3638 158.407 80.6207Z" fill="#DCF9FB"/>
</svg>
