<svg width="144" height="120" viewBox="0 0 144 120" fill="none" xmlns="http://www.w3.org/2000/svg">
<g clip-path="url(#clip0_4771_1632)">
<path d="M99.6301 22.1H69.0801L80.1401 33.16H95.0501L111.57 49.67V49.68L94.8901 66.36H69.6101L47.3701 44.12H25.6001V49.65V55.18H42.7601L65.0001 77.42H99.4701L121.69 55.21L121.68 44.15L99.6301 22.1Z" fill="#9786FF"/>
<path d="M22.16 77.4H52.71L41.65 66.34H26.74L10.12 49.72V49.71L26.67 33.16H51.95L74.32 55.27L95.96 55.4V49.87V44.21H78.93L56.69 21.97L22.09 22.1L0 44.19V55.25L22.16 77.4Z" fill="#9786FF"/>
<path d="M33.0701 88.5H89.5601L112.46 111.41L104.65 119.23L84.9801 99.56H44.1301L33.0701 88.5Z" fill="#9786FF"/>
<path d="M112.41 95.81L104.58 87.99L132.65 59.93V39.45L104.26 11.06H54.1899L65.2499 0H108.84L143.71 34.87V64.51L115.68 92.53L114.7 93.51L112.41 95.81Z" fill="#9786FF"/>
</g>
<defs>
<clipPath id="clip0_4771_1632">
<rect width="143.71" height="119.23" fill="white"/>
</clipPath>
</defs>
</svg>
