<svg version="1.1" id="Layer_1" xmlns="http://www.w3.org/2000/svg" xmlns:xlink="http://www.w3.org/1999/xlink" x="0px" y="0px"
	 width="100%" viewBox="0 0 256 256" enable-background="new 0 0 256 256" xml:space="preserve">
<path fill="#042068" opacity="1.000000" stroke="none" 
	d="
M112.000000,1.000000 
	C122.354225,1.000000 132.708450,1.000000 143.664551,1.375397 
	C150.845856,3.191327 157.425278,4.631862 164.186340,6.372545 
	C168.677811,8.001455 172.987656,9.330216 177.183014,10.775877 
	C177.068512,10.892776 177.265427,10.631379 177.336212,10.983268 
	C182.314316,13.526471 187.221619,15.717786 192.344025,17.912441 
	C192.862030,17.977911 193.084412,18.146345 193.288040,18.795139 
	C194.369751,19.558790 195.389740,19.948389 196.481628,20.360939 
	C196.553543,20.383888 196.657379,20.493507 196.612488,20.853012 
	C197.517929,21.577713 198.468231,21.942907 199.496155,22.331631 
	C199.573761,22.355156 199.683029,22.475025 199.671768,22.791004 
	C200.214172,23.278481 200.767822,23.449980 201.167786,23.800991 
	C201.014099,23.980501 201.308945,23.611078 201.385529,23.916014 
	C202.014053,24.451336 202.566010,24.681723 203.076904,24.945965 
	C203.035843,24.979818 203.077621,24.881926 203.108902,25.251606 
	C204.238205,26.176846 205.336243,26.732407 206.524750,27.318735 
	C206.615234,27.349503 206.720047,27.509329 206.642975,27.853973 
	C208.418823,29.450787 210.271759,30.702955 212.347137,32.011387 
	C212.863434,32.224407 213.032471,32.467827 213.096909,33.156998 
	C215.197495,35.215572 217.277847,36.915058 219.246887,38.739700 
	C219.135544,38.864853 219.389038,38.645821 219.324615,39.004520 
	C221.226395,41.204300 223.192627,43.045380 225.102768,44.917007 
	C225.046692,44.947548 225.121902,44.844337 225.097107,45.230270 
	C226.167664,46.623764 227.263031,47.631321 228.200714,48.785545 
	C228.043015,48.932220 228.375885,48.659004 228.315796,49.017097 
	C229.007355,50.006557 229.759033,50.637928 230.625824,51.338493 
	C230.740936,51.407688 230.776581,51.673935 230.714966,51.898373 
	C230.781845,52.483074 231.031158,52.613781 231.417587,52.543591 
	C231.433899,52.572243 231.491272,52.604767 231.412537,52.942799 
	C231.923004,53.832108 232.512192,54.383381 233.055771,54.952850 
	C233.010162,54.971050 233.075043,54.897327 233.088654,55.212746 
	C233.525467,55.923637 233.948654,56.319111 234.272339,56.791893 
	C234.172836,56.869205 234.330566,56.672638 234.354248,56.942436 
	C234.637024,57.449196 234.896133,57.686153 235.110657,57.927402 
	C235.066055,57.931690 235.111374,57.854382 235.114349,58.173939 
	C235.539658,58.896774 235.961990,59.300053 236.263763,59.798523 
	C236.143188,59.893711 236.350235,59.666710 236.363235,59.936398 
	C236.626816,60.450974 236.877396,60.695866 237.084564,60.943516 
	C237.041138,60.946278 237.092697,60.876183 237.065063,61.244514 
	C237.823822,62.632248 238.610214,63.651649 239.196045,64.822952 
	C239.129944,64.875595 239.264404,64.776321 239.304108,65.057655 
	C241.626373,69.833084 244.043365,74.227898 246.263367,78.730850 
	C246.066345,78.838982 246.475281,78.652618 246.357666,79.053558 
	C248.161789,85.630196 250.083527,91.805901 252.002304,98.389236 
	C252.620285,101.194740 253.241211,103.592606 253.948853,106.193604 
	C254.035583,106.396721 254.052719,106.838104 254.035309,107.301758 
	C254.015427,109.423080 253.740005,111.136253 254.063675,112.727585 
	C254.901550,116.847054 256.003479,120.912804 257.000000,125.000000 
	C257.000000,128.692902 257.000000,132.385818 256.636261,136.642059 
	C255.849915,138.028503 255.219421,138.808105 255.036514,139.681427 
	C252.989029,149.457870 251.128220,159.274948 248.960464,169.024017 
	C247.973328,173.463440 246.416153,177.776108 245.090134,182.110077 
	C245.062744,182.073853 245.153549,182.075348 244.830566,182.211243 
	C243.375153,184.945892 242.242706,187.544647 241.090698,190.106750 
	C241.071136,190.070099 241.153900,190.063004 240.890686,190.216370 
	C240.434509,190.923706 240.241562,191.477692 239.992569,192.375366 
	C233.329208,201.152649 226.721893,209.586227 219.760574,218.056458 
	C217.993576,219.803284 216.580582,221.513443 215.157532,223.174667 
	C215.147476,223.125748 215.246002,223.142090 214.981781,223.233902 
	C214.504257,223.621796 214.290970,223.917877 214.011780,224.436966 
	C213.743500,224.932159 213.472870,225.060989 212.768158,225.039673 
	C211.628235,225.734070 210.854172,226.435257 210.065964,227.094269 
	C210.051819,227.052078 210.135010,227.083618 209.759521,227.103424 
	C208.455902,228.243881 207.527771,229.364532 206.550446,230.535828 
	C206.501266,230.586502 206.366150,230.627502 206.107651,230.566879 
	C205.581741,230.717422 205.314331,230.928604 205.045868,231.090607 
	C205.044815,231.041443 205.142700,231.050797 204.897827,231.183212 
	C204.468933,231.629974 204.284912,231.944321 204.010529,232.476044 
	C203.684265,232.935013 203.398071,233.042038 202.703308,233.014099 
	C201.578125,233.703751 200.811218,234.393784 200.036835,235.044983 
	C200.029373,235.006149 200.090378,235.056519 199.716614,235.042694 
	C198.393753,235.856842 197.444687,236.684799 196.461487,237.497726 
	C196.427383,237.482681 196.411026,237.555420 196.139038,237.522339 
	C195.617722,237.735138 195.368362,237.980988 195.121704,238.179031 
	C195.124405,238.131210 195.212387,238.169067 194.865021,238.169861 
	C194.057541,238.619095 193.597427,239.067551 193.000183,239.693787 
	C192.596664,240.047256 192.308487,240.097244 191.701416,240.053406 
	C190.948425,240.427383 190.492554,240.769516 190.041550,241.073502 
	C190.046417,241.035355 190.113327,241.073318 189.751526,241.061951 
	C188.769150,241.562561 188.148590,242.074554 187.489807,242.589371 
	C187.451553,242.592178 187.389145,242.636719 187.067490,242.514938 
	C186.342789,242.789841 185.939758,243.186523 185.501862,243.579895 
	C185.466980,243.576569 185.414261,243.622711 185.148499,243.564148 
	C184.613174,243.725098 184.343613,243.944611 184.080063,244.123459 
	C184.086090,244.082794 184.161407,244.115738 183.844116,244.117096 
	C183.034271,244.459824 182.541733,244.801193 182.058075,245.103058 
	C182.066940,245.063553 182.140762,245.096802 181.762024,245.071686 
	C180.253235,245.678329 179.123199,246.310104 177.893692,247.070862 
	C177.794235,247.199844 177.478302,247.120514 177.056671,247.092377 
	C174.883331,247.890900 173.131638,248.717575 171.273636,249.542816 
	C171.167343,249.541382 171.374756,249.494675 170.958435,249.357941 
	C160.728119,250.970383 150.915710,252.728607 141.099136,254.463287 
	C138.074844,254.997711 135.039185,255.467926 131.578644,255.987137 
	C129.428574,255.992310 127.708580,255.977890 125.679382,255.700226 
	C117.547394,254.349274 109.731010,253.209778 101.893478,252.241348 
	C100.945335,252.124207 99.883072,252.930679 98.551758,253.237366 
	C97.821342,253.013138 97.412865,252.860611 96.880363,252.367096 
	C95.383453,251.834320 94.010574,251.642548 92.725945,251.431946 
	C92.814194,251.413101 92.670441,251.522217 92.581604,251.147614 
	C90.533195,250.364059 88.573639,249.955124 86.575119,249.452637 
	C86.536171,249.359100 86.560310,249.560303 86.525772,249.204376 
	C82.533470,247.455383 78.575706,246.062317 74.559517,244.654892 
	C74.501091,244.640533 74.395699,244.582458 74.401367,244.221588 
	C73.142181,243.468994 71.877327,243.077271 70.552132,242.668686 
	C70.491783,242.651825 70.385109,242.586075 70.372765,242.253128 
	C69.776482,241.827667 69.192551,241.735168 68.575356,241.618958 
	C68.542099,241.595261 68.462036,241.579163 68.441650,241.235443 
	C67.594902,240.611710 66.768539,240.331696 65.964287,240.023636 
	C65.986404,239.995590 65.954094,240.056137 65.887680,239.694305 
	C64.771675,238.929337 63.722080,238.526169 62.340359,238.067291 
	C29.476757,217.425522 9.701997,188.233688 2.782831,150.335144 
	C2.449456,148.509140 1.605947,146.776245 0.999998,145.000000 
	C1.000000,134.312439 1.000000,123.624878 1.382395,112.377975 
	C2.031180,110.863747 2.399473,109.924561 2.549382,108.951721 
	C11.140260,53.200352 55.899929,10.508856 108.743683,2.598351 
	C109.883339,2.427749 110.916931,1.548611 112.000000,1.000000 
M207.772491,78.229980 
	C207.772491,78.229980 207.736450,78.334961 207.569839,77.832855 
	C207.248337,77.755669 206.926849,77.678482 206.525238,77.552200 
	C206.525238,77.552200 206.443634,77.505638 206.475769,76.759392 
	C205.217331,76.218910 203.958908,75.678421 202.023895,75.018280 
	C196.592789,71.676018 191.236252,68.204735 185.716690,65.015564 
	C168.797806,55.239933 151.922653,45.377361 134.765457,36.035362 
	C131.514175,34.265053 127.171829,33.197380 123.110985,35.822624 
	C118.005157,39.123428 112.667633,42.065811 106.727264,45.142002 
	C106.261047,45.576942 105.794830,46.011883 105.044014,46.027702 
	C105.144852,46.163223 105.245682,46.298744 104.600914,46.229465 
	C103.780212,46.889778 102.959511,47.550091 102.112602,48.098530 
	C102.112602,48.098530 102.203293,48.169083 101.441666,48.080116 
	C99.987587,49.098579 98.533508,50.117043 97.064186,51.041668 
	C97.064186,51.041668 97.139275,51.099979 96.376884,51.046406 
	C93.912415,52.639378 91.447952,54.232353 88.325531,56.159531 
	C85.601250,57.465454 82.876961,58.771374 79.391701,60.042015 
	C75.984024,62.440365 72.576347,64.838707 69.121246,67.109383 
	C69.121246,67.109383 69.226898,67.195320 68.576721,67.143402 
	C68.060349,67.476646 67.543983,67.809883 67.036743,68.052307 
	C67.036743,68.052307 67.125580,68.073280 66.478722,68.125694 
	C66.138535,68.589073 65.798347,69.052452 65.362892,69.401199 
	C65.362892,69.401199 65.386963,69.548294 64.642952,69.315048 
	C62.591602,70.712669 60.540257,72.110291 58.423336,73.513275 
	C58.423336,73.513275 58.384022,73.566025 57.681187,73.282562 
	C56.794994,73.837189 55.908806,74.391823 54.363159,75.192726 
	C51.291142,78.148605 48.219124,81.104492 44.548313,84.541634 
	C44.034222,86.950958 43.083370,89.358444 43.073212,91.769890 
	C42.964745,117.516113 42.976559,143.263092 43.087170,169.009293 
	C43.092880,170.337387 44.293888,171.660324 45.250946,173.652679 
	C45.944263,178.401108 49.450790,180.833389 53.110390,183.088928 
	C57.305653,185.674667 61.482872,188.305161 65.805931,190.663223 
	C69.375031,192.610031 73.145157,194.188293 77.482780,195.414429 
	C77.656319,194.451157 77.980537,193.488022 77.981483,192.524582 
	C78.009117,164.289520 78.014877,136.054428 77.971313,107.819420 
	C77.969353,106.551430 77.473503,105.284210 77.156654,103.318962 
	C79.248169,100.824844 80.880531,97.586418 83.509995,95.964371 
	C95.439774,88.605186 107.697006,81.779472 119.741737,74.602928 
	C126.119957,70.802643 132.135315,70.927414 138.506866,74.739014 
	C149.874878,81.539589 161.547623,87.836929 172.818817,94.789131 
	C175.861252,96.665733 177.917526,100.141151 179.840454,103.340881 
	C179.934280,116.527626 180.182114,129.715897 180.051254,142.900406 
	C179.993378,148.732635 179.168488,154.557251 178.628204,160.610245 
	C178.628204,160.610245 178.417068,160.710480 177.816330,160.614136 
	C177.501480,161.209564 177.186630,161.804993 176.715668,162.742249 
	C176.715668,162.742249 176.360687,162.865601 175.863480,162.704712 
	C175.564758,163.085052 175.266037,163.465393 174.293823,164.149185 
	C162.856339,170.983566 151.383331,177.760040 140.025360,184.724121 
	C138.571487,185.615524 137.716507,187.483688 135.833450,189.283859 
	C135.233673,190.607864 134.137466,191.923248 134.114273,193.257278 
	C133.958084,202.245132 133.966629,211.238068 134.125351,220.225739 
	C134.141037,221.113647 135.526550,221.977371 136.837509,222.522888 
	C141.475861,219.847458 146.107483,217.160294 150.753723,214.498627 
	C169.895508,203.533005 189.056747,192.601044 208.153748,181.558014 
	C209.472565,180.795395 210.324860,179.226013 212.030853,177.812088 
	C212.688553,175.878235 213.346252,173.944397 214.550507,171.381607 
	C214.698349,170.574387 214.974640,169.767273 214.975388,168.959915 
	C214.999298,143.208649 215.010162,117.457329 214.956100,91.706161 
	C214.953506,90.467415 214.343094,89.229935 213.932373,87.398888 
	C213.591995,86.935745 213.251617,86.472595 212.701950,85.815292 
	C212.701950,85.815292 212.802414,85.548088 212.897644,84.691887 
	C212.138733,83.508461 211.379822,82.325027 210.150940,80.915443 
	C209.734390,80.372200 209.317841,79.828957 208.671387,78.758179 
	C208.336823,78.594276 208.002243,78.430382 207.772491,78.229980 
M148.094315,126.096306 
	C148.094315,126.096306 148.201584,126.134758 147.540024,126.141563 
	C147.072357,126.536324 146.604706,126.931084 146.139481,127.180145 
	C146.139481,127.180145 146.278183,127.224846 145.647919,127.163582 
	C145.108658,127.682137 144.569412,128.200699 143.442917,129.156586 
	C141.040421,132.510925 136.897797,135.702637 136.566208,139.250534 
	C135.623413,149.338165 136.235428,159.571121 136.235428,170.042862 
	C142.832077,166.527298 148.946365,163.268799 155.653610,159.904922 
	C156.060806,159.515717 156.468018,159.126511 156.872391,158.852325 
	C156.872391,158.852325 156.764069,158.813614 157.542358,158.903381 
	C158.967010,157.845367 160.391678,156.787369 161.834549,155.825012 
	C161.834549,155.825012 161.741013,155.797928 162.394455,155.815094 
	C162.691696,155.362961 162.988922,154.910843 163.367523,154.357712 
	C163.367523,154.357712 163.462784,154.269714 164.083694,154.370819 
	C164.353043,153.856293 164.622391,153.341782 164.913803,152.908813 
	C164.913803,152.908813 164.829605,152.901886 165.568863,152.847000 
	C166.715240,150.442459 168.699020,148.089264 168.850220,145.623688 
	C169.295212,138.367874 169.116318,131.064682 168.918213,123.787216 
	C168.883789,122.522011 167.566711,121.291718 166.393372,119.896187 
	C166.126740,119.686455 165.989609,119.412025 165.837082,118.357086 
	C163.516907,116.128464 161.601288,116.324997 160.149887,119.179337 
	C160.149887,119.179337 160.268829,119.222252 159.525955,119.119438 
	C158.693085,119.769913 157.860214,120.420387 157.023544,121.002480 
	C157.023544,121.002480 157.081512,121.038940 156.363129,121.044037 
	C155.763306,121.560249 155.163498,122.076462 154.490326,122.589638 
	C154.490326,122.589638 154.439957,122.643074 153.894119,122.531082 
	C153.641891,122.779282 153.389679,123.027481 153.135132,123.159119 
	C153.135132,123.159119 153.245895,123.195534 152.480240,123.101486 
	C151.457626,123.905823 150.435028,124.710152 149.220612,125.366409 
	C149.220612,125.366409 149.447342,125.451958 148.872375,125.435593 
	C148.608215,125.693504 148.344055,125.951424 148.094315,126.096306 
M92.161682,108.135513 
	C92.161682,108.135513 92.361595,108.151962 91.742935,108.423264 
	C91.564621,109.044144 91.386299,109.665016 91.162628,110.135742 
	C91.162628,110.135742 91.319366,110.129593 90.541626,110.378166 
	C90.024323,111.858452 89.060585,113.337303 89.055817,114.819237 
	C88.966217,142.704941 88.955521,170.591187 89.087303,198.476547 
	C89.094292,199.954163 90.506668,201.425125 91.149673,202.858292 
	C91.149673,202.858292 91.221382,202.759369 91.156090,203.408646 
	C91.495285,203.919006 91.834488,204.429382 92.080849,204.944931 
	C92.080849,204.944931 92.093857,204.852859 92.132561,205.586426 
	C93.817139,206.676025 95.501709,207.765625 97.095024,208.910446 
	C97.095024,208.910446 97.124413,208.807922 97.178581,209.537460 
	C98.844772,210.312988 100.510971,211.088516 102.093185,211.921951 
	C102.093185,211.921951 102.111778,211.821655 102.166077,212.538483 
	C104.495422,213.654785 106.824768,214.771103 109.077095,215.943848 
	C109.077095,215.943848 109.089310,215.849136 109.163666,216.576126 
	C110.845192,217.324997 112.526726,218.073868 114.124649,218.874054 
	C114.124649,218.874054 114.131126,218.776169 114.307228,219.289352 
	C114.585419,219.509827 114.863609,219.730316 115.775436,220.186096 
	C117.768463,221.084518 119.761490,221.982941 122.559929,222.748962 
	C123.037933,221.133560 123.927704,219.519424 123.932709,217.902557 
	C124.019524,189.858154 124.011368,161.813385 123.963402,133.768814 
	C123.960678,132.179260 123.436714,130.590591 123.188705,128.313919 
	C125.989044,125.689896 128.466278,122.550880 131.656982,120.549057 
	C138.302353,116.379784 145.325241,112.812233 152.854553,108.980171 
	C153.359726,108.469719 153.864899,107.959259 154.472031,107.370476 
	C154.472031,107.370476 154.593002,107.326950 155.314148,107.617783 
	C156.805786,106.531616 158.297424,105.445457 159.826370,103.935623 
	C159.991745,103.680779 160.032532,103.407356 159.856415,102.396286 
	C158.180344,101.639267 156.504272,100.882240 154.910721,100.076569 
	C154.910721,100.076569 154.895538,100.171143 154.845642,99.452805 
	C152.511185,98.340111 150.176727,97.227417 147.920944,96.059311 
	C147.920944,96.059311 147.906952,96.154526 147.840195,95.423447 
	C146.148422,94.682495 144.456665,93.941551 142.867401,93.128990 
	C142.867401,93.128990 142.827484,93.247490 142.820343,92.518929 
	C140.473572,91.408310 138.126816,90.297699 135.866592,89.150101 
	C135.866592,89.150101 135.866959,89.244217 135.608719,88.785774 
	C135.280319,88.755295 134.951904,88.724815 134.499649,88.660782 
	C134.499649,88.660782 134.391571,88.591599 134.316696,87.849831 
	C133.389130,87.617355 132.461563,87.384880 130.948883,86.759567 
	C129.202469,87.001740 127.194839,86.768753 125.751465,87.562195 
	C115.370369,93.268791 105.103745,99.183640 94.197563,105.171028 
	C93.826065,105.830070 93.454567,106.489120 93.060204,107.053947 
	C93.060204,107.053947 93.156822,107.045998 92.674263,107.337669 
	C92.511116,107.670029 92.347969,108.002396 92.161682,108.135513 
z"/>
<path fill="#FCFDFD" opacity="1.000000" stroke="none" 
	d="
M220.114563,218.019791 
	C226.721893,209.586227 233.329208,201.152649 240.237274,192.208801 
	C240.743301,191.153366 240.948608,190.608185 241.153900,190.063004 
	C241.153900,190.063004 241.071136,190.070099 241.365631,189.904358 
	C242.824585,187.184204 243.989075,184.629776 245.153564,182.075348 
	C245.153549,182.075348 245.062744,182.073853 245.360504,181.882599 
	C248.861725,170.892746 252.049316,160.089386 255.287323,149.301193 
	C255.729248,147.828751 256.422882,146.431870 257.000000,145.000000 
	C257.000000,182.260941 257.000000,219.521866 257.000000,257.000000 
	C219.312714,257.000000 181.625015,257.000000 143.609253,256.619629 
	C152.645691,253.991058 162.010223,251.742859 171.374756,249.494659 
	C171.374756,249.494675 171.167343,249.541382 171.633881,249.479919 
	C173.893051,248.652466 175.685669,247.886490 177.478302,247.120514 
	C177.478302,247.120514 177.794235,247.199844 178.228149,247.062775 
	C179.821609,246.316055 180.981186,245.706421 182.140762,245.096802 
	C182.140762,245.096802 182.066940,245.063553 182.366333,245.084686 
	C183.164291,244.775787 183.662842,244.445770 184.161407,244.115738 
	C184.161407,244.115738 184.086090,244.082794 184.332916,244.121323 
	C184.857925,243.980804 185.136093,243.801758 185.414261,243.622711 
	C185.414261,243.622711 185.466980,243.576569 185.764084,243.534363 
	C186.503845,243.207016 186.946503,242.921875 187.389145,242.636719 
	C187.389145,242.636719 187.451553,242.592178 187.787323,242.510132 
	C188.786499,241.976501 189.449905,241.524918 190.113327,241.073318 
	C190.113327,241.073318 190.046417,241.035355 190.337646,241.051590 
	C191.085403,240.719070 191.541962,240.370300 191.998505,240.021545 
	C192.308487,240.097244 192.596664,240.047256 193.305084,239.598633 
	C194.235535,238.940140 194.723953,238.554596 195.212372,238.169067 
	C195.212387,238.169067 195.124405,238.131210 195.376953,238.156921 
	C195.890015,237.973557 196.150513,237.764481 196.411011,237.555420 
	C196.411026,237.555420 196.427383,237.482681 196.759949,237.393692 
	C198.091797,236.555298 199.091080,235.805908 200.090378,235.056519 
	C200.090378,235.056519 200.029373,235.006149 200.348450,234.995361 
	C201.465530,234.327866 202.263550,233.671173 203.061569,233.014496 
	C203.398071,233.042038 203.684265,232.935013 204.280670,232.381195 
	C204.808350,231.729584 204.975525,231.390198 205.142700,231.050797 
	C205.142700,231.050797 205.044815,231.041443 205.282440,231.039673 
	C205.865158,231.031082 206.147186,230.894287 206.366150,230.627502 
	C206.366150,230.627502 206.501266,230.586502 206.837067,230.404877 
	C208.160248,229.176697 209.147629,228.130157 210.135010,227.083618 
	C210.135010,227.083618 210.051819,227.052078 210.385300,227.034058 
	C211.523849,226.359497 212.328934,225.702988 213.134003,225.046478 
	C213.472870,225.060989 213.743500,224.932159 214.281891,224.352173 
	C214.827255,223.743591 215.036621,223.442841 215.246002,223.142090 
	C215.246002,223.142090 215.147476,223.125748 215.471481,223.058014 
	C217.235168,221.333450 218.674866,219.676620 220.114563,218.019791 
z"/>
<path fill="#FCFDFD" opacity="1.000000" stroke="none" 
	d="
M0.999998,145.468658 
	C1.605947,146.776245 2.449456,148.509140 2.782831,150.335144 
	C9.701997,188.233688 29.476757,217.425522 62.526630,238.336487 
	C64.014717,239.126312 64.984406,239.591232 65.954094,240.056137 
	C65.954094,240.056137 65.986404,239.995590 66.135086,240.272644 
	C67.009865,240.892838 67.735947,241.236008 68.462036,241.579163 
	C68.462036,241.579163 68.542099,241.595261 68.756630,241.800751 
	C69.442474,242.199524 69.913795,242.392792 70.385109,242.586075 
	C70.385109,242.586075 70.491783,242.651825 70.780502,242.870926 
	C72.178047,243.587494 73.286873,244.084976 74.395699,244.582458 
	C74.395699,244.582458 74.501091,244.640533 74.829575,244.855347 
	C78.958801,246.566864 82.759560,248.063583 86.560310,249.560303 
	C86.560310,249.560303 86.536171,249.359100 86.863220,249.654297 
	C89.016998,250.473724 90.843719,250.997971 92.670441,251.522217 
	C92.670441,251.522217 92.814194,251.413101 92.984840,251.637573 
	C94.438454,252.144073 95.721428,252.426086 97.004395,252.708099 
	C97.412865,252.860611 97.821342,253.013138 98.808121,253.537628 
	C103.924278,254.939728 108.462143,255.969864 113.000000,257.000000 
	C75.739716,257.000000 38.479424,257.000000 1.000000,257.000000 
	C1.000000,219.979401 1.000000,182.958359 0.999998,145.468658 
z"/>
<path fill="#FCFDFE" opacity="1.000000" stroke="none" 
	d="
M111.531342,1.000000 
	C110.916931,1.548611 109.883339,2.427749 108.743683,2.598351 
	C55.899929,10.508856 11.140260,53.200352 2.549382,108.951721 
	C2.399473,109.924561 2.031180,110.863747 1.382395,111.909317 
	C1.000000,75.073051 1.000000,38.146103 1.000000,1.000000 
	C37.687271,1.000000 74.374977,1.000000 111.531342,1.000000 
z"/>
<path fill="#FCFDFD" opacity="1.000000" stroke="none" 
	d="
M254.052734,106.838104 
	C254.052719,106.838104 254.035583,106.396721 254.061371,105.784302 
	C253.695602,102.783966 253.304016,100.396034 252.946442,97.615234 
	C250.812057,91.032448 248.643661,84.842537 246.475281,78.652618 
	C246.475281,78.652618 246.066345,78.838982 246.183777,78.371429 
	C244.000427,73.494934 241.699646,69.085991 239.398865,64.677048 
	C239.264404,64.776321 239.129944,64.875595 239.127945,64.505692 
	C238.537842,62.983074 237.815262,61.929630 237.092682,60.876186 
	C237.092697,60.876183 237.041138,60.946278 237.062805,60.673977 
	C236.839722,60.156689 236.594971,59.911701 236.350235,59.666714 
	C236.350235,59.666710 236.143188,59.893711 236.191345,59.513359 
	C235.863480,58.706799 235.487427,58.280586 235.111374,57.854378 
	C235.111374,57.854382 235.066055,57.931690 235.077774,57.658195 
	C234.836517,57.147346 234.583542,56.909992 234.330566,56.672638 
	C234.330566,56.672638 234.172836,56.869205 234.196930,56.509232 
	C233.839020,55.731949 233.457031,55.314640 233.075043,54.897331 
	C233.075043,54.897327 233.010162,54.971050 233.004074,54.664551 
	C232.495743,53.773624 231.993515,53.189194 231.491272,52.604767 
	C231.491272,52.604767 231.433899,52.572243 231.387726,52.357544 
	C231.225693,51.899242 231.037369,51.742935 230.776581,51.673935 
	C230.776581,51.673935 230.740936,51.407688 230.515289,51.073792 
	C229.651718,50.046261 229.013809,49.352631 228.375885,48.659004 
	C228.375885,48.659004 228.043015,48.932220 228.098938,48.484810 
	C227.143860,46.973045 226.132874,45.908691 225.121902,44.844337 
	C225.121902,44.844337 225.046692,44.947548 224.999252,44.600464 
	C223.097565,42.384193 221.243301,40.515003 219.389038,38.645817 
	C219.389038,38.645821 219.135544,38.864853 219.106384,38.443756 
	C217.077057,36.281075 215.076874,34.539494 213.076691,32.797913 
	C213.032471,32.467827 212.863434,32.224407 212.207489,31.712879 
	C210.136948,30.075182 208.428497,28.792255 206.720047,27.509327 
	C206.720047,27.509329 206.615234,27.349503 206.346481,27.078735 
	C205.077698,26.165953 204.077667,25.523937 203.077621,24.881924 
	C203.077621,24.881926 203.035843,24.979818 202.948425,24.682854 
	C202.343643,24.127619 201.826294,23.869347 201.308945,23.611076 
	C201.308945,23.611078 201.014099,23.980501 201.047241,23.569298 
	C200.614609,22.930405 200.148819,22.702717 199.683029,22.475025 
	C199.683029,22.475025 199.573761,22.355156 199.321167,22.113222 
	C198.264847,21.412027 197.461121,20.952766 196.657379,20.493507 
	C196.657379,20.493507 196.553543,20.383888 196.267899,20.133310 
	C195.063599,19.395519 194.144958,18.908306 193.226303,18.421089 
	C193.084412,18.146345 192.862030,17.977911 192.143921,17.637419 
	C186.907623,15.116495 182.086533,12.873939 177.265427,10.631380 
	C177.265427,10.631379 177.068512,10.892776 176.930817,10.529810 
	C172.530334,8.802027 168.267517,7.437211 164.004715,6.072395 
	C157.425278,4.631862 150.845856,3.191327 144.133209,1.375397 
	C181.593613,1.000000 219.187241,1.000000 257.000000,1.000000 
	C257.000000,38.353943 257.000000,75.708313 256.628235,113.418282 
	C255.521896,111.461952 254.787308,109.150024 254.052734,106.838104 
z"/>
<path fill="#1A2C5D" opacity="1.000000" stroke="none" 
	d="
M257.000000,144.555832 
	C256.422882,146.431870 255.729248,147.828751 255.287323,149.301193 
	C252.049316,160.089386 248.861725,170.892746 245.387894,181.918808 
	C246.416153,177.776108 247.973328,173.463440 248.960464,169.024017 
	C251.128220,159.274948 252.989029,149.457870 255.036514,139.681427 
	C255.219421,138.808105 255.849915,138.028503 256.636261,137.102692 
	C257.000000,139.370560 257.000000,141.741104 257.000000,144.555832 
z"/>
<path fill="#0B2157" opacity="1.000000" stroke="none" 
	d="
M170.958435,249.357941 
	C162.010223,251.742859 152.645691,253.991058 143.140594,256.619629 
	C142.250000,257.000000 141.500000,257.000000 140.224609,256.702240 
	C138.827545,256.324982 137.955841,256.245483 136.709366,256.109436 
	C135.580292,256.075531 134.826004,256.098206 133.728943,256.082153 
	C132.927017,256.018158 132.467865,255.992844 132.008728,255.967529 
	C135.039185,255.467926 138.074844,254.997711 141.099136,254.463287 
	C150.915710,252.728607 160.728119,250.970383 170.958435,249.357941 
z"/>
<path fill="#0B2157" opacity="1.000000" stroke="none" 
	d="
M113.416664,257.000000 
	C108.462143,255.969864 103.924278,254.939728 99.130066,253.609344 
	C99.883072,252.930679 100.945335,252.124207 101.893478,252.241348 
	C109.731010,253.209778 117.547394,254.349274 125.287292,255.713470 
	C124.422279,256.046722 123.640160,256.103516 122.480919,256.132690 
	C120.735855,256.403351 119.367928,256.701660 118.000000,257.000000 
	C116.611107,257.000000 115.222221,257.000000 113.416664,257.000000 
z"/>
<path fill="#041A52" opacity="1.000000" stroke="none" 
	d="
M254.035324,107.301758 
	C254.787308,109.150024 255.521896,111.461952 256.628235,113.886940 
	C257.000000,114.000000 257.000000,114.500000 256.671875,114.838203 
	C256.562531,116.117607 256.781250,117.058800 257.000000,118.000000 
	C257.000000,120.041664 257.000000,122.083336 257.000000,124.562500 
	C256.003479,120.912804 254.901550,116.847054 254.063675,112.727585 
	C253.740005,111.136253 254.015427,109.423080 254.035324,107.301758 
z"/>
<path fill="#274380" opacity="1.000000" stroke="none" 
	d="
M122.858047,256.160309 
	C123.640160,256.103516 124.422279,256.046722 125.596481,255.976715 
	C127.708580,255.977890 129.428574,255.992310 131.578644,255.987137 
	C132.467865,255.992844 132.927017,256.018158 133.704071,256.300842 
	C134.021973,256.558258 134.000000,257.000000 134.000000,257.000000 
	C130.638474,257.000000 127.276939,257.000000 123.430756,256.788635 
	C122.946106,256.577240 122.858047,256.160309 122.858047,256.160309 
z"/>
<path fill="#576FA2" opacity="1.000000" stroke="none" 
	d="
M122.480919,256.132690 
	C122.858047,256.160309 122.946106,256.577240 122.973053,256.788635 
	C121.611107,257.000000 120.222221,257.000000 118.416664,257.000000 
	C119.367928,256.701660 120.735855,256.403351 122.480919,256.132690 
z"/>
<path fill="#657CAD" opacity="1.000000" stroke="none" 
	d="
M137.084152,256.165985 
	C137.955841,256.245483 138.827545,256.324982 139.849609,256.702240 
	C139.250000,257.000000 138.500000,257.000000 137.387909,256.790680 
	C137.025818,256.581360 137.084152,256.165985 137.084152,256.165985 
z"/>
<path fill="#415A92" opacity="1.000000" stroke="none" 
	d="
M136.709366,256.109436 
	C137.084152,256.165985 137.025818,256.581360 137.012909,256.790680 
	C136.250000,257.000000 135.500000,257.000000 134.375000,257.000000 
	C134.000000,257.000000 134.021973,256.558258 134.046844,256.339569 
	C134.826004,256.098206 135.580292,256.075531 136.709366,256.109436 
z"/>
<path fill="#A0B6DB" opacity="1.000000" stroke="none" 
	d="
M257.000000,117.625000 
	C256.781250,117.058800 256.562531,116.117607 256.671875,115.088203 
	C257.000000,115.750000 257.000000,116.500000 257.000000,117.625000 
z"/>
<path fill="#FBFCFD" opacity="1.000000" stroke="none" 
	d="
M208.901306,79.285713 
	C209.317841,79.828957 209.734390,80.372200 210.471741,81.378387 
	C211.462494,83.076920 212.132446,84.312508 212.802414,85.548088 
	C212.802414,85.548088 212.701950,85.815292 212.786880,86.375542 
	C212.979324,91.283951 213.086838,95.632111 213.118073,100.439369 
	C213.094498,104.934608 213.147171,108.970741 213.100677,113.465691 
	C212.991760,131.300064 213.077255,148.676575 212.900681,166.050446 
	C212.860062,170.048935 211.920166,174.038284 211.394119,178.031830 
	C210.324860,179.226013 209.472565,180.795395 208.153748,181.558014 
	C189.056747,192.601044 169.895508,203.533005 150.753723,214.498627 
	C146.107483,217.160294 141.475861,219.847458 136.461395,222.239349 
	C136.251541,210.937012 136.417816,199.918182 136.584091,188.899368 
	C137.716507,187.483688 138.571487,185.615524 140.025360,184.724121 
	C151.383331,177.760040 162.856339,170.983566 174.861526,163.999908 
	C175.739716,163.522278 176.050201,163.193939 176.360687,162.865601 
	C176.360687,162.865601 176.715668,162.742249 177.015930,162.481201 
	C177.683151,161.716949 178.050110,161.213715 178.417068,160.710480 
	C178.417068,160.710480 178.628204,160.610245 178.915527,160.271957 
	C180.057205,156.617493 181.577057,153.315643 181.648895,149.982605 
	C181.935303,136.693222 181.837128,123.393517 181.712585,110.099213 
	C181.690002,107.689896 180.875412,105.288010 180.426468,102.882690 
	C177.917526,100.141151 175.861252,96.665733 172.818817,94.789131 
	C161.547623,87.836929 149.874878,81.539589 138.506866,74.739014 
	C132.135315,70.927414 126.119957,70.802643 119.741737,74.602928 
	C107.697006,81.779472 95.439774,88.605186 83.509995,95.964371 
	C80.880531,97.586418 79.248169,100.824844 77.039673,104.118034 
	C76.890526,135.254700 76.858368,165.592285 76.826202,195.929871 
	C73.145157,194.188293 69.375031,192.610031 65.805931,190.663223 
	C61.482872,188.305161 57.305653,185.674667 53.110390,183.088928 
	C49.450790,180.833389 45.944263,178.401108 45.154007,172.855408 
	C45.087082,142.725555 45.117096,113.392967 45.147110,84.060379 
	C48.219124,81.104492 51.291142,78.148605 54.993221,75.191544 
	C56.543530,74.648918 57.463776,74.107475 58.384022,73.566025 
	C58.384022,73.566025 58.423336,73.513275 58.774017,73.403915 
	C61.212116,72.045799 63.299541,70.797043 65.386963,69.548294 
	C65.386963,69.548294 65.362892,69.401199 65.688187,69.367859 
	C66.384178,68.914108 66.754883,68.493698 67.125580,68.073280 
	C67.125580,68.073280 67.036743,68.052307 67.345612,68.046692 
	C68.178612,67.759155 68.702759,67.477234 69.226898,67.195320 
	C69.226898,67.195320 69.121246,67.109383 69.492462,67.105942 
	C73.293343,64.760765 76.723007,62.419029 80.152679,60.077293 
	C82.876961,58.771374 85.601250,57.465454 88.993629,55.948334 
	C92.154243,54.191422 94.646759,52.645699 97.139275,51.099976 
	C97.139275,51.099979 97.064186,51.041668 97.405807,51.038433 
	C99.232719,50.079826 100.718010,49.124454 102.203293,48.169083 
	C102.203293,48.169083 102.112602,48.098530 102.436340,48.110165 
	C103.622231,47.559288 104.484375,46.996777 105.346519,46.434265 
	C105.245682,46.298744 105.144852,46.163223 105.491150,46.144768 
	C106.435555,45.895504 106.932823,45.529179 107.430092,45.162857 
	C112.667633,42.065811 118.005157,39.123428 123.110985,35.822624 
	C127.171829,33.197380 131.514175,34.265053 134.765457,36.035362 
	C151.922653,45.377361 168.797806,55.239933 185.716690,65.015564 
	C191.236252,68.204735 196.592789,71.676018 202.527527,75.356712 
	C204.168640,76.298645 205.306137,76.902138 206.443634,77.505638 
	C206.443634,77.505638 206.525238,77.552200 206.701355,77.769402 
	C207.120438,78.209679 207.406769,78.325798 207.736450,78.334961 
	C207.736450,78.334961 207.772491,78.229980 207.838562,78.505569 
	C208.236862,78.949348 208.569077,79.117531 208.901306,79.285713 
z"/>
<path fill="#FAFBFC" opacity="1.000000" stroke="none" 
	d="
M94.800812,105.032425 
	C105.103745,99.183640 115.370369,93.268791 125.751465,87.562195 
	C127.194839,86.768753 129.202469,87.001740 131.448029,87.210068 
	C132.761978,87.970901 133.576782,88.281250 134.391571,88.591599 
	C134.391571,88.591599 134.499649,88.660782 134.731522,88.841736 
	C135.239532,89.198685 135.540726,89.272530 135.866959,89.244217 
	C135.866959,89.244217 135.866592,89.150101 136.027557,89.443909 
	C138.401505,90.907631 140.614487,92.077560 142.827484,93.247490 
	C142.827484,93.247490 142.867401,93.128990 143.007538,93.439049 
	C144.734085,94.550911 146.320526,95.352715 147.906952,96.154526 
	C147.906952,96.154526 147.920944,96.059311 148.083374,96.359238 
	C150.462387,97.829819 152.678955,99.000481 154.895538,100.171143 
	C154.895538,100.171143 154.910721,100.076569 155.057739,100.376892 
	C156.786087,101.489922 158.367386,102.302635 159.948700,103.115349 
	C160.032532,103.407356 159.991745,103.680779 159.482941,104.256332 
	C157.623993,105.493675 156.108490,106.410309 154.593002,107.326950 
	C154.593002,107.326950 154.472031,107.370476 154.153809,107.507629 
	C153.288055,108.095657 152.740524,108.546539 152.193008,108.997429 
	C145.325241,112.812233 138.302353,116.379784 131.656982,120.549057 
	C128.466278,122.550880 125.989044,125.689896 123.010147,128.912689 
	C122.783020,130.098938 122.734444,130.686401 122.432648,131.664612 
	C122.193237,161.685867 122.207062,191.316360 122.138466,221.268433 
	C121.955544,222.020462 121.855034,222.450897 121.754524,222.881348 
	C119.761490,221.982941 117.768463,221.084518 115.382935,219.796143 
	C114.704002,219.196182 114.417564,218.986176 114.131134,218.776169 
	C114.131126,218.776169 114.124649,218.874054 113.969154,218.579819 
	C112.238876,217.473434 110.664093,216.661285 109.089310,215.849136 
	C109.089310,215.849136 109.077095,215.943848 108.913254,215.644348 
	C106.536865,214.170471 104.324318,212.996063 102.111778,211.821655 
	C102.111778,211.821655 102.093185,211.921951 101.945251,211.620468 
	C100.239693,210.481964 98.682053,209.644943 97.124413,208.807922 
	C97.124413,208.807922 97.095024,208.910446 96.975464,208.598724 
	C95.268562,207.142288 93.681213,205.997574 92.093857,204.852859 
	C92.093857,204.852859 92.080849,204.944931 92.064392,204.633545 
	C91.772415,203.801224 91.496902,203.280289 91.221390,202.759369 
	C91.221382,202.759369 91.149673,202.858292 91.126984,202.467285 
	C90.803741,199.790649 90.244751,197.505325 90.242294,195.219391 
	C90.215370,170.144287 90.238930,145.068893 90.355522,119.994087 
	C90.370819,116.704498 90.983414,113.417686 91.319366,110.129593 
	C91.319366,110.129593 91.162628,110.135742 91.431847,110.018394 
	C91.921242,109.318016 92.141418,108.734985 92.361588,108.151962 
	C92.361595,108.151962 92.161682,108.135513 92.430000,108.105835 
	C92.851158,107.732773 93.003990,107.389381 93.156822,107.045998 
	C93.156822,107.045998 93.060204,107.053947 93.336754,106.977188 
	C94.009140,106.277756 94.404976,105.655090 94.800812,105.032425 
z"/>
<path fill="#F9FAFC" opacity="1.000000" stroke="none" 
	d="
M155.060654,160.010300 
	C148.946365,163.268799 142.832077,166.527298 136.235428,170.042862 
	C136.235428,159.571121 135.623413,149.338165 136.566208,139.250534 
	C136.897797,135.702637 141.040421,132.510925 144.008942,128.879242 
	C145.142700,128.142883 145.710449,127.683861 146.278183,127.224846 
	C146.278183,127.224846 146.139481,127.180145 146.442490,127.189308 
	C147.230865,126.843903 147.716232,126.489334 148.201584,126.134766 
	C148.201584,126.134758 148.094315,126.096306 148.359985,126.118851 
	C148.899567,125.911591 149.173447,125.681770 149.447342,125.451958 
	C149.447342,125.451958 149.220612,125.366409 149.623108,125.329338 
	C151.099030,124.593353 152.172455,123.894440 153.245895,123.195526 
	C153.245895,123.195534 153.135132,123.159119 153.383179,123.180305 
	C153.967117,123.111397 154.236694,122.925255 154.439957,122.643074 
	C154.439957,122.643074 154.490326,122.589638 154.809738,122.480423 
	C155.779938,121.927116 156.430725,121.483032 157.081512,121.038940 
	C157.081512,121.038940 157.023544,121.002480 157.341095,120.988281 
	C158.528702,120.390144 159.398773,119.806198 160.268829,119.222252 
	C160.268829,119.222252 160.149887,119.179337 160.568726,119.166412 
	C162.652374,119.126617 164.317154,119.099754 165.981949,119.072891 
	C165.989609,119.412025 166.126740,119.686455 166.706436,120.381195 
	C167.270462,126.616898 167.985382,132.396286 167.632126,138.109619 
	C167.324844,143.079132 165.810532,147.974014 164.829590,152.901886 
	C164.829605,152.901886 164.913803,152.908813 164.660919,152.967453 
	C164.092941,153.440628 163.777863,153.855179 163.462784,154.269714 
	C163.462784,154.269714 163.367523,154.357712 163.102844,154.546753 
	C162.472443,155.089844 162.106720,155.443893 161.741013,155.797928 
	C161.741013,155.797928 161.834549,155.825012 161.486115,155.835342 
	C159.679810,156.834991 158.221939,157.824295 156.764069,158.813599 
	C156.764069,158.813614 156.872391,158.852325 156.577087,158.849640 
	C155.874725,159.234741 155.467682,159.622513 155.060654,160.010300 
z"/>
<path fill="#101D57" opacity="1.000000" stroke="none" 
	d="
M44.847710,84.301010 
	C45.117096,113.392967 45.087082,142.725555 44.997734,172.521912 
	C44.293888,171.660324 43.092880,170.337387 43.087170,169.009293 
	C42.976559,143.263092 42.964745,117.516113 43.073212,91.769890 
	C43.083370,89.358444 44.034222,86.950958 44.847710,84.301010 
z"/>
<path fill="#333C6C" opacity="1.000000" stroke="none" 
	d="
M180.133453,103.111786 
	C180.875412,105.288010 181.690002,107.689896 181.712585,110.099213 
	C181.837128,123.393517 181.935303,136.693222 181.648895,149.982605 
	C181.577057,153.315643 180.057205,156.617493 178.947311,160.159500 
	C179.168488,154.557251 179.993378,148.732635 180.051254,142.900406 
	C180.182114,129.715897 179.934280,116.527626 180.133453,103.111786 
z"/>
<path fill="#051245" opacity="1.000000" stroke="none" 
	d="
M90.930496,110.253876 
	C90.983414,113.417686 90.370819,116.704498 90.355522,119.994087 
	C90.238930,145.068893 90.215370,170.144287 90.242294,195.219391 
	C90.244751,197.505325 90.803741,199.790649 91.184540,202.487732 
	C90.506668,201.425125 89.094292,199.954163 89.087303,198.476547 
	C88.955521,170.591187 88.966217,142.704941 89.055817,114.819237 
	C89.060585,113.337303 90.024323,111.858452 90.930496,110.253876 
z"/>
<path fill="#041554" opacity="1.000000" stroke="none" 
	d="
M213.199860,113.006882 
	C213.147171,108.970741 213.094498,104.934608 213.356415,100.110825 
	C213.785934,95.546082 213.900833,91.768974 214.015747,87.991867 
	C214.343094,89.229935 214.953506,90.467415 214.956100,91.706161 
	C215.010162,117.457329 214.999298,143.208649 214.975388,168.959915 
	C214.974640,169.767273 214.698349,170.574387 214.277435,171.226196 
	C214.006241,153.477295 214.031052,135.883713 213.974609,118.290390 
	C213.968964,116.528412 213.469925,114.768013 213.199860,113.006882 
z"/>
<path fill="#001453" opacity="1.000000" stroke="none" 
	d="
M122.157227,222.815155 
	C121.855034,222.450897 121.955544,222.020462 122.368149,220.932388 
	C122.784859,210.005463 122.988235,199.736008 122.972786,189.466888 
	C122.943611,170.069122 122.788589,150.671524 122.685867,131.273865 
	C122.734444,130.686401 122.783020,130.098938 122.993469,129.256500 
	C123.436714,130.590591 123.960678,132.179260 123.963402,133.768814 
	C124.011368,161.813385 124.019524,189.858154 123.932709,217.902557 
	C123.927704,219.519424 123.037933,221.133560 122.157227,222.815155 
z"/>
<path fill="#000B42" opacity="1.000000" stroke="none" 
	d="
M77.154495,195.672150 
	C76.858368,165.592285 76.890526,135.254700 77.065193,104.466873 
	C77.473503,105.284210 77.969353,106.551430 77.971313,107.819420 
	C78.014877,136.054428 78.009117,164.289520 77.981483,192.524582 
	C77.980537,193.488022 77.656319,194.451157 77.154495,195.672150 
z"/>
<path fill="#1D2959" opacity="1.000000" stroke="none" 
	d="
M213.100677,113.465691 
	C213.469925,114.768013 213.968964,116.528412 213.974609,118.290390 
	C214.031052,135.883713 214.006241,153.477295 214.004150,171.540680 
	C213.346252,173.944397 212.688553,175.878235 211.712494,177.921967 
	C211.920166,174.038284 212.860062,170.048935 212.900681,166.050446 
	C213.077255,148.676575 212.991760,131.300064 213.100677,113.465691 
z"/>
<path fill="#0D1F52" opacity="1.000000" stroke="none" 
	d="
M136.208771,189.091614 
	C136.417816,199.918182 136.251541,210.937012 136.180771,222.404068 
	C135.526550,221.977371 134.141037,221.113647 134.125351,220.225739 
	C133.966629,211.238068 133.958084,202.245132 134.114273,193.257278 
	C134.137466,191.923248 135.233673,190.607864 136.208771,189.091614 
z"/>
<path fill="#0D194A" opacity="1.000000" stroke="none" 
	d="
M165.199219,152.874451 
	C165.810532,147.974014 167.324844,143.079132 167.632126,138.109619 
	C167.985382,132.396286 167.270462,126.616898 166.930786,120.455750 
	C167.566711,121.291718 168.883789,122.522011 168.918213,123.787216 
	C169.116318,131.064682 169.295212,138.367874 168.850220,145.623688 
	C168.699020,148.089264 166.715240,150.442459 165.199219,152.874451 
z"/>
<path fill="#1E2F61" opacity="1.000000" stroke="none" 
	d="
M246.357666,79.053558 
	C248.643661,84.842537 250.812057,91.032448 252.719635,97.609344 
	C252.458817,97.996323 252.005264,97.981606 252.005264,97.981606 
	C250.083527,91.805901 248.161789,85.630196 246.357666,79.053558 
z"/>
<path fill="#1E2F61" opacity="1.000000" stroke="none" 
	d="
M177.336212,10.983269 
	C182.086533,12.873939 186.907623,15.116495 191.928833,17.634075 
	C187.221619,15.717786 182.314316,13.526471 177.336212,10.983269 
z"/>
<path fill="#1E2F61" opacity="1.000000" stroke="none" 
	d="
M239.304108,65.057655 
	C241.699646,69.085991 244.000427,73.494934 246.380798,78.263306 
	C244.043365,74.227898 241.626373,69.833084 239.304108,65.057655 
z"/>
<path fill="#142252" opacity="1.000000" stroke="none" 
	d="
M79.772186,60.059654 
	C76.723007,62.419029 73.293343,64.760765 69.516174,67.169785 
	C72.576347,64.838707 75.984024,62.440365 79.772186,60.059654 
z"/>
<path fill="#1E2F61" opacity="1.000000" stroke="none" 
	d="
M164.186340,6.372545 
	C168.267517,7.437211 172.530334,8.802027 177.045319,10.412910 
	C172.987656,9.330216 168.677811,8.001455 164.186340,6.372545 
z"/>
<path fill="#0B2157" opacity="1.000000" stroke="none" 
	d="
M86.525772,249.204376 
	C82.759560,248.063583 78.958801,246.566864 74.888000,244.869690 
	C78.575706,246.062317 82.533470,247.455383 86.525772,249.204376 
z"/>
<path fill="#1E2F61" opacity="1.000000" stroke="none" 
	d="
M213.096909,33.156998 
	C215.076874,34.539494 217.077057,36.281075 219.217712,38.318600 
	C217.277847,36.915058 215.197495,35.215572 213.096909,33.156998 
z"/>
<path fill="#1E2F61" opacity="1.000000" stroke="none" 
	d="
M219.324615,39.004517 
	C221.243301,40.515003 223.097565,42.384193 225.055328,44.569923 
	C223.192627,43.045380 221.226395,41.204300 219.324615,39.004517 
z"/>
<path fill="#1E2956" opacity="1.000000" stroke="none" 
	d="
M96.758080,51.073189 
	C94.646759,52.645699 92.154243,54.191422 89.322601,55.781235 
	C91.447952,54.232353 93.912415,52.639378 96.758080,51.073189 
z"/>
<path fill="#1A2C5D" opacity="1.000000" stroke="none" 
	d="
M244.830566,182.211243 
	C243.989075,184.629776 242.824585,187.184204 241.385193,189.941010 
	C242.242706,187.544647 243.375153,184.945892 244.830566,182.211243 
z"/>
<path fill="#1D2959" opacity="1.000000" stroke="none" 
	d="
M213.974060,87.695374 
	C213.900833,91.768974 213.785934,95.546082 213.432678,99.651733 
	C213.086838,95.632111 212.979324,91.283951 212.891510,86.472618 
	C213.251617,86.472595 213.591995,86.935745 213.974060,87.695374 
z"/>
<path fill="#152153" opacity="1.000000" stroke="none" 
	d="
M154.870590,99.811974 
	C152.678955,99.000481 150.462387,97.829819 148.044037,96.386940 
	C150.176727,97.227417 152.511185,98.340111 154.870590,99.811974 
z"/>
<path fill="#152153" opacity="1.000000" stroke="none" 
	d="
M142.823914,92.883209 
	C140.614487,92.077560 138.401505,90.907631 135.984283,89.462395 
	C138.126816,90.297699 140.473572,91.408310 142.823914,92.883209 
z"/>
<path fill="#192557" opacity="1.000000" stroke="none" 
	d="
M102.138931,212.180069 
	C104.324318,212.996063 106.536865,214.170471 108.951767,215.616150 
	C106.824768,214.771103 104.495422,213.654785 102.138931,212.180069 
z"/>
<path fill="#142559" opacity="1.000000" stroke="none" 
	d="
M219.760574,218.056458 
	C218.674866,219.676620 217.235168,221.333450 215.481537,223.106934 
	C216.580582,221.513443 217.993576,219.803284 219.760574,218.056458 
z"/>
<path fill="#142252" opacity="1.000000" stroke="none" 
	d="
M65.014954,69.431671 
	C63.299541,70.797043 61.212116,72.045799 58.806801,73.401230 
	C60.540257,72.110291 62.591602,70.712669 65.014954,69.431671 
z"/>
<path fill="#1E2F61" opacity="1.000000" stroke="none" 
	d="
M206.642975,27.853971 
	C208.428497,28.792255 210.136948,30.075182 211.985046,31.656616 
	C210.271759,30.702955 208.418823,29.450787 206.642975,27.853971 
z"/>
<path fill="#192557" opacity="1.000000" stroke="none" 
	d="
M92.113213,205.219635 
	C93.681213,205.997574 95.268562,207.142288 97.021095,208.571106 
	C95.501709,207.765625 93.817139,206.676025 92.113213,205.219635 
z"/>
<path fill="#0D194A" opacity="1.000000" stroke="none" 
	d="
M165.909515,118.714989 
	C164.317154,119.099754 162.652374,119.126617 160.568863,119.229630 
	C161.601288,116.324997 163.516907,116.128464 165.909515,118.714989 
z"/>
<path fill="#041A52" opacity="1.000000" stroke="none" 
	d="
M252.002304,98.389236 
	C252.005264,97.981606 252.458817,97.996323 252.685638,98.002213 
	C253.304016,100.396034 253.695602,102.783966 253.974655,105.581184 
	C253.241211,103.592606 252.620285,101.194740 252.002304,98.389236 
z"/>
<path fill="#152153" opacity="1.000000" stroke="none" 
	d="
M154.953583,107.472366 
	C156.108490,106.410309 157.623993,105.493675 159.464279,104.468170 
	C158.297424,105.445457 156.805786,106.531616 154.953583,107.472366 
z"/>
<path fill="#192557" opacity="1.000000" stroke="none" 
	d="
M97.151497,209.172699 
	C98.682053,209.644943 100.239693,210.481964 101.987244,211.591522 
	C100.510971,211.088516 98.844772,210.312988 97.151497,209.172699 
z"/>
<path fill="#192557" opacity="1.000000" stroke="none" 
	d="
M109.126488,216.212631 
	C110.664093,216.661285 112.238876,217.473434 114.010956,218.554169 
	C112.526726,218.073868 110.845192,217.324997 109.126488,216.212631 
z"/>
<path fill="#152153" opacity="1.000000" stroke="none" 
	d="
M159.902557,102.755814 
	C158.367386,102.302635 156.786087,101.489922 155.016479,100.401215 
	C156.504272,100.882240 158.180344,101.639267 159.902557,102.755814 
z"/>
<path fill="#0D194A" opacity="1.000000" stroke="none" 
	d="
M157.153214,158.858490 
	C158.221939,157.824295 159.679810,156.834991 161.477020,155.787521 
	C160.391678,156.787369 158.967010,157.845367 157.153214,158.858490 
z"/>
<path fill="#152153" opacity="1.000000" stroke="none" 
	d="
M147.873566,95.788986 
	C146.320526,95.352715 144.734085,94.550911 142.956268,93.474854 
	C144.456665,93.941551 146.148422,94.682495 147.873566,95.788986 
z"/>
<path fill="#0B2157" opacity="1.000000" stroke="none" 
	d="
M92.581604,251.147614 
	C90.843719,250.997971 89.016998,250.473724 86.902176,249.747833 
	C88.573639,249.955124 90.533195,250.364059 92.581604,251.147614 
z"/>
<path fill="#1E2956" opacity="1.000000" stroke="none" 
	d="
M101.822479,48.124599 
	C100.718010,49.124454 99.232719,50.079826 97.413429,51.085354 
	C98.533508,50.117043 99.987587,49.098579 101.822479,48.124599 
z"/>
<path fill="#1E2F61" opacity="1.000000" stroke="none" 
	d="
M225.097107,45.230274 
	C226.132874,45.908691 227.143860,46.973045 228.256622,48.338135 
	C227.263031,47.631321 226.167664,46.623764 225.097107,45.230274 
z"/>
<path fill="#0B2157" opacity="1.000000" stroke="none" 
	d="
M177.056671,247.092377 
	C175.685669,247.886490 173.893051,248.652466 171.740173,249.481339 
	C173.131638,248.717575 174.883331,247.890900 177.056671,247.092377 
z"/>
<path fill="#142559" opacity="1.000000" stroke="none" 
	d="
M209.759521,227.103424 
	C209.147629,228.130157 208.160248,229.176697 206.886246,230.354202 
	C207.527771,229.364532 208.455902,228.243881 209.759521,227.103424 
z"/>
<path fill="#1E2F61" opacity="1.000000" stroke="none" 
	d="
M203.108902,25.251602 
	C204.077667,25.523937 205.077698,26.165953 206.256012,27.047968 
	C205.336243,26.732407 204.238205,26.176846 203.108902,25.251602 
z"/>
<path fill="#0D194A" opacity="1.000000" stroke="none" 
	d="
M152.863068,123.148506 
	C152.172455,123.894440 151.099030,124.593353 149.719025,125.403381 
	C150.435028,124.710152 151.457626,123.905823 152.863068,123.148506 
z"/>
<path fill="#0B2157" opacity="1.000000" stroke="none" 
	d="
M96.880363,252.367096 
	C95.721428,252.426086 94.438454,252.144073 92.896591,251.656418 
	C94.010574,251.642548 95.383453,251.834320 96.880363,252.367096 
z"/>
<path fill="#1E2F61" opacity="1.000000" stroke="none" 
	d="
M237.065048,61.244518 
	C237.815262,61.929630 238.537842,62.983074 239.328522,64.353783 
	C238.610214,63.651649 237.823822,62.632248 237.065048,61.244518 
z"/>
<path fill="#0B2157" opacity="1.000000" stroke="none" 
	d="
M181.762024,245.071686 
	C180.981186,245.706421 179.821609,246.316055 178.327606,246.933777 
	C179.123199,246.310104 180.253235,245.678329 181.762024,245.071686 
z"/>
<path fill="#1D2959" opacity="1.000000" stroke="none" 
	d="
M206.459702,77.132515 
	C205.306137,76.902138 204.168640,76.298645 202.865814,75.416534 
	C203.958908,75.678421 205.217331,76.218910 206.459702,77.132515 
z"/>
<path fill="#142559" opacity="1.000000" stroke="none" 
	d="
M199.716614,235.042694 
	C199.091080,235.805908 198.091797,236.555298 196.794067,237.408737 
	C197.444687,236.684799 198.393753,235.856842 199.716614,235.042694 
z"/>
<path fill="#1D2959" opacity="1.000000" stroke="none" 
	d="
M212.850037,85.119987 
	C212.132446,84.312508 211.462494,83.076920 210.706726,81.491470 
	C211.379822,82.325027 212.138733,83.508461 212.850037,85.119987 
z"/>
<path fill="#1E2F61" opacity="1.000000" stroke="none" 
	d="
M228.315796,49.017094 
	C229.013809,49.352631 229.651718,50.046261 230.400177,51.004597 
	C229.759033,50.637928 229.007355,50.006557 228.315796,49.017094 
z"/>
<path fill="#1E2956" opacity="1.000000" stroke="none" 
	d="
M104.973717,46.331863 
	C104.484375,46.996777 103.622231,47.559288 102.449448,48.166100 
	C102.959511,47.550091 103.780212,46.889778 104.973717,46.331863 
z"/>
<path fill="#1E2F61" opacity="1.000000" stroke="none" 
	d="
M193.288040,18.795141 
	C194.144958,18.908306 195.063599,19.395519 196.195984,20.110359 
	C195.389740,19.948389 194.369751,19.558790 193.288040,18.795141 
z"/>
<path fill="#1E2F61" opacity="1.000000" stroke="none" 
	d="
M196.612488,20.853012 
	C197.461121,20.952766 198.264847,21.412027 199.243561,22.089695 
	C198.468231,21.942907 197.517929,21.577713 196.612488,20.853012 
z"/>
<path fill="#0D194A" opacity="1.000000" stroke="none" 
	d="
M159.897400,119.170845 
	C159.398773,119.806198 158.528702,120.390144 157.342987,121.022476 
	C157.860214,120.420387 158.693085,119.769913 159.897400,119.170845 
z"/>
<path fill="#142559" opacity="1.000000" stroke="none" 
	d="
M212.768158,225.039673 
	C212.328934,225.702988 211.523849,226.359497 210.399445,227.076233 
	C210.854172,226.435257 211.628235,225.734070 212.768158,225.039673 
z"/>
<path fill="#142252" opacity="1.000000" stroke="none" 
	d="
M58.032604,73.424294 
	C57.463776,74.107475 56.543530,74.648918 55.322948,75.068405 
	C55.908806,74.391823 56.794994,73.837189 58.032604,73.424294 
z"/>
<path fill="#142559" opacity="1.000000" stroke="none" 
	d="
M202.703308,233.014099 
	C202.263550,233.671173 201.465530,234.327866 200.355927,235.034180 
	C200.811218,234.393784 201.578125,233.703751 202.703308,233.014099 
z"/>
<path fill="#0B2157" opacity="1.000000" stroke="none" 
	d="
M74.401367,244.221588 
	C73.286873,244.084976 72.178047,243.587494 70.840851,242.887787 
	C71.877327,243.077271 73.142181,243.468994 74.401367,244.221588 
z"/>
<path fill="#0B2157" opacity="1.000000" stroke="none" 
	d="
M65.887680,239.694305 
	C64.984406,239.591232 64.014717,239.126312 62.858761,238.392212 
	C63.722080,238.526169 64.771675,238.929337 65.887680,239.694305 
z"/>
<path fill="#1E2F61" opacity="1.000000" stroke="none" 
	d="
M231.412537,52.942795 
	C231.993515,53.189194 232.495743,53.773624 233.049683,54.646355 
	C232.512192,54.383381 231.923004,53.832108 231.412537,52.942795 
z"/>
<path fill="#0B2157" opacity="1.000000" stroke="none" 
	d="
M68.441650,241.235443 
	C67.735947,241.236008 67.009865,240.892838 66.112976,240.300690 
	C66.768539,240.331696 67.594902,240.611710 68.441650,241.235443 
z"/>
<path fill="#333C6C" opacity="1.000000" stroke="none" 
	d="
M178.116699,160.662308 
	C178.050110,161.213715 177.683151,161.716949 177.093994,162.310303 
	C177.186630,161.804993 177.501480,161.209564 178.116699,160.662308 
z"/>
<path fill="#0B2157" opacity="1.000000" stroke="none" 
	d="
M189.751526,241.061951 
	C189.449905,241.524918 188.786499,241.976501 187.825562,242.507324 
	C188.148590,242.074554 188.769150,241.562561 189.751526,241.061951 
z"/>
<path fill="#051245" opacity="1.000000" stroke="none" 
	d="
M94.499191,105.101730 
	C94.404976,105.655090 94.009140,106.277756 93.348190,107.024292 
	C93.454567,106.489120 93.826065,105.830070 94.499191,105.101730 
z"/>
<path fill="#152153" opacity="1.000000" stroke="none" 
	d="
M152.523773,108.988800 
	C152.740524,108.546539 153.288055,108.095657 154.102814,107.546791 
	C153.864899,107.959259 153.359726,108.469719 152.523773,108.988800 
z"/>
<path fill="#0D194A" opacity="1.000000" stroke="none" 
	d="
M145.963043,127.194214 
	C145.710449,127.683861 145.142700,128.142883 144.302551,128.660583 
	C144.569412,128.200699 145.108658,127.682137 145.963043,127.194214 
z"/>
<path fill="#152153" opacity="1.000000" stroke="none" 
	d="
M134.354126,88.220718 
	C133.576782,88.281250 132.761978,87.970901 131.740601,87.406479 
	C132.461563,87.384880 133.389130,87.617355 134.354126,88.220718 
z"/>
<path fill="#0D194A" opacity="1.000000" stroke="none" 
	d="
M156.722321,121.041489 
	C156.430725,121.483032 155.779938,121.927116 154.846420,122.481934 
	C155.163498,122.076462 155.763306,121.560249 156.722321,121.041489 
z"/>
<path fill="#0B2157" opacity="1.000000" stroke="none" 
	d="
M183.844116,244.117096 
	C183.662842,244.445770 183.164291,244.775787 182.357452,245.124176 
	C182.541733,244.801193 183.034271,244.459824 183.844116,244.117096 
z"/>
<path fill="#142559" opacity="1.000000" stroke="none" 
	d="
M194.865021,238.169846 
	C194.723953,238.554596 194.235535,238.940140 193.442200,239.420837 
	C193.597427,239.067551 194.057541,238.619095 194.865021,238.169846 
z"/>
<path fill="#0B2157" opacity="1.000000" stroke="none" 
	d="
M191.701416,240.053406 
	C191.541962,240.370300 191.085403,240.719070 190.332764,241.089737 
	C190.492554,240.769516 190.948425,240.427383 191.701416,240.053406 
z"/>
<path fill="#0B2157" opacity="1.000000" stroke="none" 
	d="
M70.372765,242.253128 
	C69.913795,242.392792 69.442474,242.199524 68.789886,241.824448 
	C69.192551,241.735168 69.776482,241.827667 70.372765,242.253128 
z"/>
<path fill="#0B2157" opacity="1.000000" stroke="none" 
	d="
M187.067490,242.514954 
	C186.946503,242.921875 186.503845,243.207016 185.798950,243.537689 
	C185.939758,243.186523 186.342789,242.789841 187.067490,242.514954 
z"/>
<path fill="#1E2F61" opacity="1.000000" stroke="none" 
	d="
M199.671768,22.791004 
	C200.148819,22.702717 200.614609,22.930405 201.200943,23.389786 
	C200.767822,23.449980 200.214172,23.278481 199.671768,22.791004 
z"/>
<path fill="#142252" opacity="1.000000" stroke="none" 
	d="
M66.802155,68.099487 
	C66.754883,68.493698 66.384178,68.914108 65.735817,69.425179 
	C65.798347,69.052452 66.138535,68.589073 66.802155,68.099487 
z"/>
<path fill="#142252" opacity="1.000000" stroke="none" 
	d="
M68.901810,67.169357 
	C68.702759,67.477234 68.178612,67.759155 67.341049,68.092102 
	C67.543983,67.809883 68.060349,67.476646 68.901810,67.169357 
z"/>
<path fill="#1E2F61" opacity="1.000000" stroke="none" 
	d="
M235.114349,58.173935 
	C235.487427,58.280586 235.863480,58.706799 236.311920,59.418167 
	C235.961990,59.300053 235.539658,58.896774 235.114349,58.173935 
z"/>
<path fill="#1E2F61" opacity="1.000000" stroke="none" 
	d="
M233.088654,55.212746 
	C233.457031,55.314640 233.839020,55.731949 234.296432,56.431919 
	C233.948654,56.319111 233.525467,55.923637 233.088654,55.212746 
z"/>
<path fill="#1E2956" opacity="1.000000" stroke="none" 
	d="
M107.078674,45.152428 
	C106.932823,45.529179 106.435555,45.895504 105.633453,46.354324 
	C105.794830,46.011883 106.261047,45.576942 107.078674,45.152428 
z"/>
<path fill="#1E2F61" opacity="1.000000" stroke="none" 
	d="
M201.385529,23.916012 
	C201.826294,23.869347 202.343643,24.127619 202.989471,24.649000 
	C202.566010,24.681723 202.014053,24.451336 201.385529,23.916012 
z"/>
<path fill="#0D194A" opacity="1.000000" stroke="none" 
	d="
M155.357132,159.957611 
	C155.467682,159.622513 155.874725,159.234741 156.578491,158.792145 
	C156.468018,159.126511 156.060806,159.515717 155.357132,159.957611 
z"/>
<path fill="#333C6C" opacity="1.000000" stroke="none" 
	d="
M176.112091,162.785156 
	C176.050201,163.193939 175.739716,163.522278 175.198273,163.848175 
	C175.266037,163.465393 175.564758,163.085052 176.112091,162.785156 
z"/>
<path fill="#051245" opacity="1.000000" stroke="none" 
	d="
M92.052261,108.287613 
	C92.141418,108.734985 91.921242,109.318016 91.454529,110.093475 
	C91.386299,109.665016 91.564621,109.044144 92.052261,108.287613 
z"/>
<path fill="#0D194A" opacity="1.000000" stroke="none" 
	d="
M162.067734,155.806519 
	C162.106720,155.443893 162.472443,155.089844 163.062164,154.597260 
	C162.988922,154.910843 162.691696,155.362961 162.067734,155.806519 
z"/>
<path fill="#0D194A" opacity="1.000000" stroke="none" 
	d="
M163.773239,154.320267 
	C163.777863,153.855179 164.092941,153.440628 164.649872,152.926682 
	C164.622391,153.341782 164.353043,153.856293 163.773239,154.320267 
z"/>
<path fill="#1A2C5D" opacity="1.000000" stroke="none" 
	d="
M240.890686,190.216370 
	C240.948608,190.608185 240.743301,191.153366 240.293304,191.865112 
	C240.241562,191.477692 240.434509,190.923706 240.890686,190.216370 
z"/>
<path fill="#192557" opacity="1.000000" stroke="none" 
	d="
M91.188736,203.084015 
	C91.496902,203.280289 91.772415,203.801224 92.110809,204.630951 
	C91.834488,204.429382 91.495285,203.919006 91.188736,203.084015 
z"/>
<path fill="#0D194A" opacity="1.000000" stroke="none" 
	d="
M147.870804,126.138168 
	C147.716232,126.489334 147.230865,126.843903 146.441284,127.262161 
	C146.604706,126.931084 147.072357,126.536324 147.870804,126.138168 
z"/>
<path fill="#0D194A" opacity="1.000000" stroke="none" 
	d="
M154.167038,122.587082 
	C154.236694,122.925255 153.967117,123.111397 153.384338,123.238586 
	C153.389679,123.027481 153.641891,122.779282 154.167038,122.587082 
z"/>
<path fill="#1E2F61" opacity="1.000000" stroke="none" 
	d="
M230.714966,51.898373 
	C231.037369,51.742935 231.225693,51.899242 231.371429,52.328896 
	C231.031158,52.613781 230.781845,52.483074 230.714966,51.898373 
z"/>
<path fill="#1E2F61" opacity="1.000000" stroke="none" 
	d="
M234.354248,56.942436 
	C234.583542,56.909992 234.836517,57.147346 235.122375,57.653908 
	C234.896133,57.686153 234.637024,57.449196 234.354248,56.942436 
z"/>
<path fill="#1E2F61" opacity="1.000000" stroke="none" 
	d="
M236.363235,59.936401 
	C236.594971,59.911701 236.839722,60.156689 237.106232,60.671215 
	C236.877396,60.695866 236.626816,60.450974 236.363235,59.936401 
z"/>
<path fill="#0D194A" opacity="1.000000" stroke="none" 
	d="
M149.159851,125.443771 
	C149.173447,125.681770 148.899567,125.911591 148.352783,126.175369 
	C148.344055,125.951424 148.608215,125.693504 149.159851,125.443771 
z"/>
<path fill="#142559" opacity="1.000000" stroke="none" 
	d="
M196.139038,237.522339 
	C196.150513,237.764481 195.890015,237.973557 195.374268,238.204742 
	C195.368362,237.980988 195.617722,237.735138 196.139038,237.522339 
z"/>
<path fill="#1D2959" opacity="1.000000" stroke="none" 
	d="
M207.653137,78.083908 
	C207.406769,78.325798 207.120438,78.209679 206.741425,77.793945 
	C206.926849,77.678482 207.248337,77.755669 207.653137,78.083908 
z"/>
<path fill="#0B2157" opacity="1.000000" stroke="none" 
	d="
M185.148499,243.564148 
	C185.136093,243.801758 184.857925,243.980804 184.326904,244.161987 
	C184.343613,243.944611 184.613174,243.725098 185.148499,243.564148 
z"/>
<path fill="#192557" opacity="1.000000" stroke="none" 
	d="
M114.219177,219.032761 
	C114.417564,218.986176 114.704002,219.196182 115.066116,219.678497 
	C114.863609,219.730316 114.585419,219.509827 114.219177,219.032761 
z"/>
<path fill="#1D2959" opacity="1.000000" stroke="none" 
	d="
M208.786346,79.021942 
	C208.569077,79.117531 208.236862,78.949348 207.786163,78.523827 
	C208.002243,78.430382 208.336823,78.594276 208.786346,79.021942 
z"/>
<path fill="#142559" opacity="1.000000" stroke="none" 
	d="
M214.981781,223.233902 
	C215.036621,223.442841 214.827255,223.743591 214.347778,224.129150 
	C214.290970,223.917877 214.504257,223.621796 214.981781,223.233902 
z"/>
<path fill="#142559" opacity="1.000000" stroke="none" 
	d="
M206.107651,230.566879 
	C206.147186,230.894287 205.865158,231.031082 205.283478,231.088852 
	C205.314331,230.928604 205.581741,230.717422 206.107651,230.566879 
z"/>
<path fill="#142559" opacity="1.000000" stroke="none" 
	d="
M204.897827,231.183212 
	C204.975525,231.390198 204.808350,231.729584 204.371033,232.163818 
	C204.284912,231.944321 204.468933,231.629974 204.897827,231.183212 
z"/>
<path fill="#152153" opacity="1.000000" stroke="none" 
	d="
M135.737839,89.014999 
	C135.540726,89.272530 135.239532,89.198685 134.793457,88.858505 
	C134.951904,88.724815 135.280319,88.755295 135.737839,89.014999 
z"/>
<path fill="#051245" opacity="1.000000" stroke="none" 
	d="
M92.915543,107.191833 
	C93.003990,107.389381 92.851158,107.732773 92.441566,108.205460 
	C92.347969,108.002396 92.511116,107.670029 92.915543,107.191833 
z"/>
<path fill="#042068" opacity="1.000000" stroke="none" 
	d="
M122.432640,131.664612 
	C122.788589,150.671524 122.943611,170.069122 122.972786,189.466888 
	C122.988235,199.736008 122.784859,210.005463 122.450577,220.610809 
	C122.207062,191.316360 122.193237,161.685867 122.432640,131.664612 
z"/>
</svg>