<?xml version="1.0" encoding="UTF-8" standalone="no"?>
<svg
   id="Layer_1"
   data-name="Layer 1"
   viewBox="0 0 1807.8217 1807.8217"
   version="1.1"
   sodipodi:docname="X.svg"
   width="1807.8217"
   height="1807.8217"
   inkscape:version="1.2.1 (0b8a7e5fb6, 2022-09-14, custom)"
   xmlns:inkscape="http://www.inkscape.org/namespaces/inkscape"
   xmlns:sodipodi="http://sodipodi.sourceforge.net/DTD/sodipodi-0.dtd"
   xmlns="http://www.w3.org/2000/svg"
   xmlns:svg="http://www.w3.org/2000/svg">
  <sodipodi:namedview
     id="namedview1237"
     pagecolor="#ffffff"
     bordercolor="#666666"
     borderopacity="1.0"
     inkscape:pageshadow="2"
     inkscape:pageopacity="0.0"
     inkscape:pagecheckerboard="0"
     showgrid="false"
     inkscape:zoom="0.24612722"
     inkscape:cx="-698.82559"
     inkscape:cy="469.26951"
     inkscape:window-width="3784"
     inkscape:window-height="2096"
     inkscape:window-x="56"
     inkscape:window-y="27"
     inkscape:window-maximized="1"
     inkscape:current-layer="Layer_1"
     inkscape:showpageshadow="2"
     inkscape:deskcolor="#d1d1d1" />
  <defs
     id="defs1226">
    <style
       id="style1198">.cls-1{fill:url(#radial-gradient);}.cls-2{fill:url(#radial-gradient-2);}.cls-3{fill:url(#radial-gradient-3);}.cls-4{fill:url(#radial-gradient-4);}</style>
    <radialGradient
       id="radial-gradient"
       cx="399.70001"
       cy="984.98999"
       fx="-207.13538"
       fy="667.88092"
       r="815.27002"
       gradientUnits="userSpaceOnUse"
       gradientTransform="matrix(0.93445157,0,0,0.96194272,-170.36488,-210.06517)">
      <stop
         offset="0.33"
         stop-color="#00b7b0"
         id="stop1200" />
      <stop
         offset="0.96"
         stop-color="#0084c3"
         id="stop1202" />
    </radialGradient>
    <radialGradient
       id="radial-gradient-2"
       cx="569.32001"
       cy="1978"
       r="1152.54"
       gradientUnits="userSpaceOnUse"
       gradientTransform="matrix(0.93445157,0,0,0.96194272,-170.36488,-210.06517)">
      <stop
         offset="0.24"
         stop-color="#00b8ae"
         id="stop1205" />
      <stop
         offset="0.53"
         stop-color="#00aab7"
         id="stop1207" />
      <stop
         offset="1"
         stop-color="#008acb"
         id="stop1209" />
    </radialGradient>
    <radialGradient
       id="radial-gradient-3"
       cx="1220.1"
       cy="1254.9399"
       r="940.12"
       gradientUnits="userSpaceOnUse"
       gradientTransform="matrix(0.93445157,0,0,0.96194272,-170.36488,-210.06517)">
      <stop
         offset="0.13"
         stop-color="#58c4c1"
         id="stop1212" />
      <stop
         offset="0.71"
         stop-color="#1b9abf"
         id="stop1214" />
      <stop
         offset="0.95"
         stop-color="#0088be"
         id="stop1216" />
    </radialGradient>
    <radialGradient
       id="radial-gradient-4"
       cx="1370.1899"
       cy="884.13"
       fx="1160.2882"
       fy="671.25757"
       r="876.09003"
       gradientUnits="userSpaceOnUse"
       gradientTransform="matrix(0.93445157,0,0,0.96194272,-170.36488,-210.06517)">
      <stop
         offset="0.13"
         stop-color="#6bc6c4"
         id="stop1219" />
      <stop
         offset="0.61"
         stop-color="#2ea0bd"
         id="stop1221" />
      <stop
         offset="0.96"
         stop-color="#0084b8"
         id="stop1223" />
    </radialGradient>
  </defs>
  <path
     class="cls-1"
     d="m 4.377567,134.24301 c 4.1022515,3.0109 6.849523,4.80972 9.344515,6.926 93.136788,77.21516 186.096038,154.65154 275.541738,236.35896 30.24821,27.63661 58.5621,57.52417 87.61419,86.57484 q 196.44976,196.23632 389.05894,396.42616 18.07229,18.78687 36.03246,37.6986 c 2.34547,2.47226 4.48535,5.14646 7.31675,8.40739 -2.50434,2.78962 -4.41997,5.18493 -6.60658,7.3011 -46.12453,44.45143 -91.76315,89.50874 -138.57918,133.25794 q -88.87568,83.0254 -179.36798,164.223 c -36.28476,32.706 -73.76562,64.0654 -113.21816,92.7601 -5.98984,4.348 -12.20395,8.3593 -18.31524,12.5052 -2.93418,1.5006 -3.37337,1.8182 -1.82219,-1.7026 1.43906,-2.5492 2.73795,-5.1849 4.32651,-7.6186 22.0811,-33.8508 46.94685,-65.4986 72.15836,-96.8676 79.03591,-98.3299 161.97784,-193.1197 244.4245,-288.35201 13.51218,-15.62192 13.82988,-12.57266 -0.93446,-27.49234 C 543.61221,765.84503 418.5452,634.38591 297.7393,498.74238 200.1078,389.11936 105.29833,276.88952 18.926974,157.48356 14.469642,151.32713 10.180512,145.0264 5.844657,138.74492 c -0.4485421,-0.68298 -0.53265,-1.62568 -1.46709,-4.50191 z"
     id="path1228"
     style="fill:url(#radial-gradient);stroke-width:0.948098" />
  <path
     class="cls-2"
     d="m 189.16538,1792.2957 c 1.82217,-2.7415 3.49484,-5.6177 5.49457,-8.2054 22.47356,-29.1084 44.52662,-58.5726 67.60757,-87.1713 71.01833,-88.0561 145.55019,-173.0149 220.66142,-257.4062 q 155.28715,-174.4772 317.65747,-341.9898 53.01143,-54.9175 106.05093,-109.81554 c 3.23317,-3.34768 6.85886,-6.30073 10.96111,-10.03309 2.99958,2.69347 5.66277,4.80976 7.98021,7.1953 114.66654,120.08903 225.50194,243.74673 328.09534,375.02323 19.5019,24.9527 37.8452,50.8771 56.6652,76.3879 1.8687,2.4817 3.2425,5.2809 5.2141,8.542 -4.4759,1.4332 -6.6999,-1.1544 -8.9987,-2.8859 -24.7817,-18.854 -49.9932,-37.1694 -74.1674,-56.8124 -67.7291,-55.0327 -132.9351,-113.1821 -198.1038,-171.3797 q -50.0866,-44.7592 -100.12648,-89.5954 c -7.55972,-6.7335 -8.21383,-6.7335 -15.38107,0.1828 -56.38482,54.8308 -112.3491,110.0752 -169.2292,164.3192 q -129.15989,123.1191 -259.46917,245.1222 c -53.04882,49.5111 -107.13487,97.8873 -161.29568,146.1384 -41.66721,37.1213 -84.04459,73.4154 -128.48711,107.045 -3.13041,2.3663 -6.35427,4.5884 -9.54074,6.8874 z"
     id="path1230"
     style="fill:url(#radial-gradient-2);stroke-width:0.948098" />
  <path
     class="cls-3"
     d="m 1471.0834,493.4613 c -5.9056,8.91721 -9.8863,16.35302 -16.2873,24.84698 -27.0337,36.00553 -53.7123,72.31887 -81.6899,107.54521 -71.9528,90.60538 -146.2322,179.16185 -221.68,266.67935 -0.6261,0.7119 -1.2427,1.44288 -1.8689,2.17401 -5.2609,6.47393 -5.317,7.32045 0.5888,13.46717 17.4649,18.27694 35.0606,36.44801 52.4975,54.76336 138.2428,145.14772 274.1495,292.55582 405.6829,444.18682 57.2445,65.9989 113.6572,132.748 166.2015,202.8256 8.1763,10.8989 16.0164,22.1248 23.9593,33.1583 a 11.428344,11.764559 0 0 1 2.4202,6.7335 c -2.9247,-2.0586 -5.9244,-4.0209 -8.7745,-6.1949 -45.3489,-34.505 -88.7729,-71.4338 -131.6828,-109.1227 -109.9009,-96.6369 -216.2043,-197.3523 -321.4515,-299.2894 q -139.8406,-135.432 -275.6632,-275.11562 c -14.7644,-15.16985 -29.3792,-30.50332 -44.0313,-45.80773 -2.1492,-2.24133 -4.0649,-4.72306 -6.7188,-7.83015 2.3081,-2.68381 4.1211,-5.15607 6.2795,-7.26275 49.853,-48.83776 99.0518,-98.41639 149.8208,-146.21529 q 86.4834,-81.43806 175.4151,-160.11535 c 37.266,-32.99464 76.541,-63.58441 114.9377,-95.23235 3.5882,-2.94353 4.9712,-3.84776 8.7277,-6.60853 3.5977,-2.49144 4.5508,-1.7796 4.5508,-1.7796 0,0 0.6822,0.46174 -1.2336,4.19407 z"
     id="path1232"
     style="fill:url(#radial-gradient-3);stroke-width:0.948098" />
  <path
     class="cls-4"
     d="M 1630.8187,37.308062 C 1603.841,74.487135 1493.6785,206.79275 1420.567,290.70301 1259.29,475.9347 1092.8079,655.95267 916.72005,827.5632 c -3.62566,-3.34748 -6.43836,-5.77165 -9.07353,-8.37842 -48.38591,-48.16445 -93.67876,-99.35905 -138.41097,-151.02505 -71.6444,-82.82328 -141.46662,-167.25299 -208.3827,-254.23186 -11.50311,-15.08325 -22.71653,-30.47433 -34.02338,-45.79808 -2.37351,-3.22251 -4.41062,-6.7336 -6.59723,-10.06193 l 1.42971,-1.67378 c 2.9809,1.92389 6.12065,3.60729 8.90532,5.77167 41.40556,32.35014 83.34375,64.01728 124.02042,97.31012 q 115.56362,94.56859 224.47397,197.19825 c 8.98008,8.41701 17.75459,17.0841 26.54778,25.68388 9.45663,9.21541 9.34451,9.18657 18.44606,0.0961 49.52593,-49.63624 98.7435,-99.61878 148.7085,-148.78368 122.6842,-120.73344 248.1157,-238.37903 378.0046,-350.86863 57.6369,-49.90559 116.8625,-97.868041 175.3871,-146.686638 9.4475,-7.137616 7.9054,-3.299463 4.663,1.192807 z"
     id="path1234"
     style="fill:url(#radial-gradient-4);stroke-width:0.948098" />
</svg>
