<svg id="Layer_1" data-name="Layer 1" xmlns="http://www.w3.org/2000/svg" xmlns:xlink="http://www.w3.org/1999/xlink" viewBox="0 0 1922.6 1831.37"><defs><style>.cls-1{fill:url(#radial-gradient);}.cls-2{fill:url(#radial-gradient-2);}.cls-3{fill:url(#radial-gradient-3);}.cls-4{fill:url(#radial-gradient-4);}</style><radialGradient id="radial-gradient" cx="399.7" cy="984.99" fx="-207.13536999442545" fy="667.8809333446825" r="815.27" gradientUnits="userSpaceOnUse"><stop offset="0.33" stop-color="#00b7b0"/><stop offset="0.96" stop-color="#0084c3"/></radialGradient><radialGradient id="radial-gradient-2" cx="569.32" cy="1978" r="1152.54" gradientUnits="userSpaceOnUse"><stop offset="0.24" stop-color="#00b8ae"/><stop offset="0.53" stop-color="#00aab7"/><stop offset="1" stop-color="#008acb"/></radialGradient><radialGradient id="radial-gradient-3" cx="1220.1" cy="1254.94" r="940.12" gradientUnits="userSpaceOnUse"><stop offset="0.13" stop-color="#58c4c1"/><stop offset="0.71" stop-color="#1b9abf"/><stop offset="0.95" stop-color="#0088be"/></radialGradient><radialGradient id="radial-gradient-4" cx="1370.19" cy="884.13" fx="1160.2881992174164" fy="671.2575697353972" r="876.09" gradientUnits="userSpaceOnUse"><stop offset="0.13" stop-color="#6bc6c4"/><stop offset="0.61" stop-color="#2ea0bd"/><stop offset="0.96" stop-color="#0084b8"/></radialGradient></defs><path class="cls-1" d="M187,357.93c4.39,3.13,7.33,5,10,7.2C296.67,445.4,396.15,525.9,491.87,610.84c32.37,28.73,62.67,59.8,93.76,90q210.23,204,416.35,412.11,19.34,19.53,38.56,39.19c2.51,2.57,4.8,5.35,7.83,8.74-2.68,2.9-4.73,5.39-7.07,7.59C991.94,1214.68,943.1,1261.52,893,1307q-95.11,86.31-191.95,170.72c-38.83,34-78.94,66.6-121.16,96.43-6.41,4.52-13.06,8.69-19.6,13-3.14,1.56-3.61,1.89-1.95-1.77,1.54-2.65,2.93-5.39,4.63-7.92,23.63-35.19,50.24-68.09,77.22-100.7C724.77,1374.54,813.53,1276,901.76,1177c14.46-16.24,14.8-13.07-1-28.58C764.06,1014.52,630.22,877.86,500.94,736.85,396.46,622.89,295,506.22,202.57,382.09c-4.77-6.4-9.36-12.95-14-19.48C188.09,361.9,188,360.92,187,357.93Z" transform="translate(-186.98 -251.82)"/><path class="cls-2" d="M384.75,2081.58c1.95-2.85,3.74-5.84,5.88-8.53,24.05-30.26,47.65-60.89,72.35-90.62,76-91.54,155.76-179.86,236.14-267.59q166.18-181.38,339.94-355.52,56.73-57.09,113.49-114.16c3.46-3.48,7.34-6.55,11.73-10.43,3.21,2.8,6.06,5,8.54,7.48,122.71,124.84,241.32,253.39,351.11,389.86,20.87,25.94,40.5,52.89,60.64,79.41,2,2.58,3.47,5.49,5.58,8.88-4.79,1.49-7.17-1.2-9.63-3-26.52-19.6-53.5-38.64-79.37-59.06-72.48-57.21-142.26-117.66-212-178.16Q1235.55,1433.61,1182,1387c-8.09-7-8.79-7-16.46.19-60.34,57-120.23,114.43-181.1,170.82Q846.22,1686,706.77,1812.83C650,1864.3,592.12,1914.59,534.16,1964.75c-44.59,38.59-89.94,76.32-137.5,111.28-3.35,2.46-6.8,4.77-10.21,7.16Z" transform="translate(-186.98 -251.82)"/><path class="cls-3" d="M1756.59,731.36c-6.32,9.27-10.58,17-17.43,25.83-28.93,37.43-57.48,75.18-87.42,111.8-77,94.19-156.49,186.25-237.23,277.23-.67.74-1.33,1.5-2,2.26-5.63,6.73-5.69,7.61.63,14,18.69,19,37.52,37.89,56.18,56.93,147.94,150.89,293.38,304.13,434.14,461.76,61.26,68.61,121.63,138,177.86,210.85,8.75,11.33,17.14,23,25.64,34.47a12.23,12.23,0,0,1,2.59,7c-3.13-2.14-6.34-4.18-9.39-6.44-48.53-35.87-95-74.26-140.92-113.44-117.61-100.46-231.37-205.16-344-311.13q-149.65-140.79-295-286c-15.8-15.77-31.44-31.71-47.12-47.62-2.3-2.33-4.35-4.91-7.19-8.14,2.47-2.79,4.41-5.36,6.72-7.55,53.35-50.77,106-102.31,160.33-152q92.55-84.66,187.72-166.45c39.88-34.3,81.91-66.1,123-99,3.84-3.06,5.32-4,9.34-6.87,3.85-2.59,4.87-1.85,4.87-1.85S1758.64,727.48,1756.59,731.36Z" transform="translate(-186.98 -251.82)"/><path class="cls-4" d="M1927.53,257.16c-28.87,38.65-146.76,176.19-225,263.42-172.59,192.56-350.75,379.7-539.19,558.1-3.88-3.48-6.89-6-9.71-8.71-51.78-50.07-100.25-103.29-148.12-157-76.67-86.1-151.39-173.87-223-264.29C770.2,633,758.2,617,746.1,601.07c-2.54-3.35-4.72-7-7.06-10.46l1.53-1.74c3.19,2,6.55,3.75,9.53,6,44.31,33.63,89.19,66.55,132.72,101.16q123.67,98.31,240.22,205c9.61,8.75,19,17.76,28.41,26.7,10.12,9.58,10,9.55,19.74.1,53-51.6,105.67-103.56,159.14-154.67,131.29-125.51,265.52-247.81,404.52-364.75,61.68-51.88,125.06-101.74,187.69-152.49C1932.65,248.5,1931,252.49,1927.53,257.16Z" transform="translate(-186.98 -251.82)"/></svg>