<svg width="25" height="25" viewBox="0 0 25 25" fill="none" xmlns="http://www.w3.org/2000/svg">
<path fill-rule="evenodd" clip-rule="evenodd" d="M6.79892 5.84445H18.2011C18.8494 5.84445 19.224 6.58002 18.8428 7.10437L13.4164 14.5658C13.0349 15.0901 13.4095 15.8257 14.0579 15.8257H18.8401C19.0939 15.8257 19.3323 15.7042 19.4816 15.4988L24.8483 8.11971C25.0506 7.84138 25.0506 7.46471 24.8483 7.18638L20.1433 0.717341C19.994 0.511869 19.7555 0.390381 19.5017 0.390381H5.49826C5.24433 0.390381 5.00602 0.511869 4.85672 0.717341L0.151681 7.18638C-0.0505604 7.46471 -0.0505604 7.84156 0.151681 8.11971L11.8582 24.2165C12.1749 24.652 12.8249 24.652 13.1416 24.2165L15.5325 20.929C15.7349 20.6506 15.7349 20.2738 15.5325 19.9954L6.15738 7.10437C5.77605 6.58002 6.15056 5.84445 6.79892 5.84445Z" fill="#5294FF"/>
</svg>