<svg width="256" height="256" viewBox="0 0 588 588" fill="none" xmlns="http://www.w3.org/2000/svg">
<circle cx="294" cy="294" r="294" fill="#000000"/>
<g transform="translate(294,294) scale(0.8) translate(-289.2,-286.1)">
<path d="M69.5792 161.332C71.2273 161.332 72.8644 161.179 74.4361 160.844C78.8281 159.904 82.2053 157.624 84.2009 154.249L84.3413 153.98C87.3565 147.267 84.6404 134.223 79.4432 125.559C80.8358 124.021 82.3361 122.628 84.0774 121.484C87.1204 119.661 89.9333 119.215 92.676 120.121C96.7773 121.472 100.662 125.936 103.372 132.449C105.908 137.913 108.614 143.908 111.231 149.708C112.735 153.038 114.226 156.344 115.669 159.513L116.539 161.452C119.224 167.412 121.343 172.12 121.615 176.541C122.011 180.952 119.453 185.228 115.48 186.727C111.272 188.43 106.142 187.946 99.0393 187.273L98.6348 187.234C95.1753 186.9 91.4772 186.533 87.6858 186.155C84.5351 185.844 81.3225 185.524 78.1778 185.218C75.5247 184.902 73.1235 184.684 71.0057 184.491C64.9499 183.94 60.5737 183.544 55.6974 181.468C52.9765 180.325 50.9071 178.158 49.8693 175.368C48.7953 172.482 48.9684 169.235 50.3973 166.345L50.4663 166.185C51.6155 163.612 53.3579 160.964 55.5339 157.915C59.2877 159.866 64.4753 161.332 69.5792 161.332ZM32.109 209.475L32.4372 209.545C45.2255 211.57 66.0276 213.537 84.3801 215.274C95.4199 216.319 105.848 217.304 113.064 218.17C117.561 218.55 120.228 219.023 124.207 220.833C129.747 223.156 138.442 226.848 147.357 230.633C155.064 233.906 162.935 237.248 169.069 239.833L200.197 253.016L201.034 253.391C204.622 254.996 208.936 256.924 213.034 256.924C216.417 256.924 219.652 255.61 222.211 251.71C224.484 248.565 226.983 242.092 218.208 234.028L203.971 219.398C188.848 203.857 168.324 182.768 156.395 170.498C153.133 167.316 151.98 164.849 149.873 159.99C148.432 156.757 147.001 153.57 145.45 150.114C143.942 146.757 142.321 143.148 140.465 138.995L123.709 101.605C121.851 96.8305 114.798 80.8974 101.985 76.2778C96.1053 74.1575 90.0544 74.7933 84.0325 78.1426C75.9837 82.4341 70.5382 89.2309 66.2977 95.2793L20.0109 158.717C17.0757 162.717 14.3027 166.495 12.1776 171.203C8.03385 180.004 7.55917 188.193 10.8068 194.887C14.2591 202.003 21.6238 207.048 32.109 209.475Z" fill="white"/>
<path d="M190.173 129.127C191.575 136.148 197.973 141.346 205.501 141.346C205.803 141.346 206.108 141.336 206.413 141.321L206.527 141.311C211.011 140.839 214.925 138.782 217.549 135.522C219.991 132.487 221.094 128.635 220.664 124.8C220.525 122.296 219.751 119.976 218.515 117.96C222.575 118.932 226.383 120.843 229.647 123.646C235.004 128.246 238.245 134.665 238.775 141.725C239.32 148.815 237.062 155.698 232.417 161.104C227.818 166.461 221.399 169.702 214.34 170.232C207.256 170.776 200.368 168.52 194.962 163.876C189.605 159.276 186.363 152.857 185.834 145.797C185.376 139.84 186.92 134.039 190.173 129.127ZM211.129 192.129L233.016 231.997L233.082 232.11C234.998 235.175 238.095 236.868 241.527 236.868C242.693 236.868 243.898 236.672 245.108 236.269C249.512 234.617 252.03 230.16 250.987 225.999L242.022 181.952C257.637 169.807 264.137 149.451 258.58 129.612C253.008 111.179 237.394 97.9036 218.817 95.793C203.85 93.9888 189.162 98.8602 178.518 109.136C168.025 119.268 162.706 133.353 163.925 147.776C165.959 172.201 186.563 191.433 211.129 192.129Z" fill="white"/>
<path d="M295.003 42.934L301.577 48.193C303.726 50.0348 307.045 50.4271 308.37 50.5094C308.63 50.5252 308.892 50.5337 309.157 50.5337C310.224 50.5337 311.335 50.3993 312.53 50.1256L320.108 48.3928L320.254 48.3553C321.411 48.0126 322.575 47.4483 323.619 46.7229C325.661 45.3062 327.151 43.1992 327.812 40.792L329.343 35.2097C332.536 39.7373 334.162 45.2832 333.831 51.1972C333.228 61.9888 326.499 70.8829 316.197 74.4321C308.033 77.4545 298.932 75.9566 291.857 70.4228C284.829 64.924 281.209 56.5095 282.178 47.8709L282.206 47.59C282.793 40.069 286.982 33.1899 293.518 28.8282L291.99 34.4008C291.257 37.0672 292.297 41.0959 295.003 42.934ZM265.206 73.5735C266.9 75.7301 268.819 77.6749 270.674 79.5566C273.371 82.292 275.919 84.8737 277.701 87.9857C280.641 92.8002 280.228 98.1415 279.434 104.167C278.734 110.125 278.01 116.126 277.28 122.086C276.086 132.004 274.967 142.059 273.884 151.781C272.263 166.347 270.587 181.407 268.634 196.217C268.122 200.064 267.565 203.962 267.009 207.865C266.684 210.138 266.36 212.413 266.046 214.658C265.407 219.048 264.843 224.052 265.517 227.925C266.366 232.576 268.685 233.737 270.481 233.893C270.617 233.906 270.753 233.91 270.889 233.91C275.915 233.91 279.162 225.826 279.778 224.158C282.063 217.911 283.846 211.378 285.572 205.061C286.381 202.101 287.216 199.04 288.092 196.059C289.343 191.666 290.619 187.287 291.895 182.908C294.046 175.529 296.269 167.899 298.33 160.324C303.065 142.956 308.381 124.477 314.108 105.472C315.504 101.215 318.272 97.7758 322.034 95.5793C324.189 94.4047 326.433 93.3694 328.603 92.3692C336.107 88.912 343.866 85.335 348.551 75.7071C352.453 67.7103 354.311 58.6298 355.606 50.8558C357.592 40.0799 354.379 29.3513 346.815 21.4417C337.224 11.2386 324.099 -2.73154 306.116 0.465241C295.418 2.30824 286.175 5.26526 278.63 9.26245C267.138 15.4223 263.103 27.3424 260.689 38.1086C257.833 49.485 256.125 62.5834 265.07 73.4004L265.206 73.5735Z" fill="white"/>
<path d="M442.108 517.655C439.835 510.72 434.248 506.007 425.349 503.618C420.688 502.033 414.279 503.424 408.179 507.349C403.348 510.455 397.996 515.868 397.474 521.647C396.596 528.495 397.586 534.122 400.395 538.515C393.364 537.618 386.697 534.99 381.125 530.724C372.209 524.102 367.233 514.202 367.474 503.564C367.716 492.808 373.22 483.021 382.581 476.702C390.206 471.528 398.301 469.387 405.998 469.387C415.882 469.387 425.109 472.919 431.837 478.1C443.837 487.338 448.114 501.083 443.296 514.813L443.22 515.023C442.892 515.921 442.511 516.794 442.108 517.655ZM453.058 455.584C442.639 445.018 430.839 443.195 419.428 441.436C413.273 440.485 406.907 439.503 400.684 437.146C390.358 433.165 377.15 417.398 370.055 408.928L369.693 408.496C359.974 396.849 341.822 375.511 324.93 356.185C295.28 322.259 293.126 321.418 291.716 320.87C287.444 319.181 284.836 320.59 283.66 321.581C282.118 322.881 280.503 325.502 281.588 330.677C282.684 335.446 290.83 351.767 300.563 371.019C301.865 373.594 303.033 375.907 303.978 377.79C309.278 388.39 317.705 403.397 325.855 417.909C333.574 431.652 340.863 444.634 345.131 453.184L345.247 453.4C351.036 463.445 348.388 468.921 343.582 478.861C342.732 480.621 341.837 482.469 340.984 484.358C328.86 509.569 335.058 525.17 351.673 546.866C358.47 555.459 369.35 567.218 385.294 570.131C391.359 571.246 397.893 571.788 404.481 571.787C417.763 571.787 431.252 569.586 441.5 565.469C461.242 557.444 476.029 528.797 479.111 511.212C483.224 488.145 460.373 462.959 453.271 455.79L453.058 455.584Z" fill="white"/>
<path d="M531.205 191.069L530.984 191.17C529.153 192.114 526.29 194.635 526.168 197.481L525.079 204.124C524.533 207.037 526.115 210.152 527.817 211.812L533.244 216.302L533.351 216.385C534.821 217.459 536.642 218.016 538.445 218.016C539.529 218.016 540.607 217.815 541.597 217.406L543.697 216.589C541.273 223.817 535.456 230.191 525.417 232.42C518.52 234.118 511.148 232.26 505.196 227.328C499.15 222.315 495.777 214.998 496.175 207.694L496.182 207.423C496.36 194.107 507.393 183.387 520.781 183.387C520.88 183.387 520.979 183.387 521.077 183.388C527.51 183.635 532.595 185.81 536.407 189.047L531.205 191.069ZM424.941 220.305C407.789 225.858 390.307 231.866 373.4 237.675C358.934 242.646 343.974 247.787 329.305 252.612C327.864 253.128 326.342 253.604 324.732 254.106C319.973 255.594 315.051 257.133 311.206 259.989L311.101 260.072C307.91 262.741 307.884 264.986 308.426 266.399C309.735 269.816 315.006 270.225 317.411 270.225C317.681 270.225 317.914 270.22 318.103 270.212C321.328 270.171 324.893 269.538 328.05 268.976C332.69 268.127 337.351 267.283 342.019 266.437C350.273 264.943 358.552 263.442 366.778 261.907C378.457 259.776 390.348 257.727 401.849 255.747C415.876 253.331 430.383 250.832 444.601 248.166C448.016 247.546 451.426 246.934 454.835 246.321C458.802 245.609 462.766 244.899 466.803 244.159C474.273 242.542 480.525 242.276 486.713 246.21C488.515 247.417 490.223 248.62 491.875 249.785C502.042 256.947 510.821 263.135 526.282 259.087C532.264 257.463 538.121 255.083 543.785 252.782L544.235 252.597C551.396 249.666 556.462 246.484 559.723 242.873C566.357 236.31 568.623 226.179 569.751 219.127C569.988 217.662 570.254 216.165 570.526 214.648C572.128 205.643 573.944 195.438 570.418 186.874C567.377 179.007 561.366 174.074 555.001 168.85C553.821 167.881 552.629 166.903 551.441 165.892C541.793 157.681 532.767 154.006 523.878 154.681C517.428 155.048 511.253 157.427 504.717 159.944L502.739 160.702C493.36 164.251 483.989 168.756 478.943 177.61C476.466 181.436 475.355 185.863 474.278 190.145C472.995 195.253 471.783 200.077 468.407 203.592C465.826 206.354 461.329 207.885 456.979 209.365C455.997 209.7 455.018 210.034 454.067 210.377C445.798 213.312 436.881 216.353 425.162 220.232L424.941 220.305Z" fill="white"/>
<path d="M109.804 289.336L114.18 285.357C117.969 282.111 118.452 276.195 115.191 272.391L111.188 267.988C109.626 266.18 107.428 265.068 104.996 264.855C109.768 259.663 116.316 256.349 121.817 256.349C122.258 256.349 122.693 256.37 123.118 256.414C131.594 257.547 139.888 266.979 142.318 275.079C143.728 279.758 142.438 285.013 138.76 289.524L138.612 289.71C133.135 296.595 121.55 304.463 111.996 297.865C109.333 296.175 106.905 293.948 104.865 291.438C106.678 291.247 108.384 290.556 109.804 289.336ZM194.629 268.513C189.861 267.355 184.973 266.627 180.247 265.923C176.32 265.337 172.259 264.732 168.374 263.888C161.936 262.527 156.01 258.779 150.254 252.422C143.326 244.804 136.287 237.829 126.475 236.173C113.753 233.539 102.633 241.032 93.4775 248.666C80.7291 258.757 75.274 269.65 77.255 280.991C78.7336 290.765 85.999 299.355 93.2765 307.273C100.939 316.052 110.121 320.57 119.344 320.57C125.241 320.57 131.155 318.722 136.697 314.961C139.469 313.134 142.104 311.115 144.651 309.163C150.127 304.969 155.299 301.008 161.601 298.922C168.253 296.681 175.477 295.462 182.463 294.281C186.4 293.617 190.471 292.929 194.337 292.081C196.611 291.674 208.065 289.312 210.148 282.726C210.762 280.782 210.766 277.728 207.287 274.223L207.044 274.002C203.805 271.117 198.497 269.423 194.629 268.513Z" fill="white"/>
<path d="M147.751 491.953C151.255 486.163 151.662 479.828 148.86 474.563L148.716 474.296C145.414 468.462 138.93 464.137 131.797 463.008C125.613 462.025 119.9 463.593 115.702 467.415C114.177 468.681 112.751 470.177 111.522 471.833C110.887 468.614 110.443 465.014 110.192 460.978C109.305 450.342 116.804 441.344 128.482 439.085C134.853 437.692 141.223 436.6 147.054 436.6C154.815 436.6 161.624 438.536 166.21 444.279C170.674 449.644 171.839 456.931 172.98 464.067C175.598 477.675 169.654 487.782 157.044 491.11L156.851 491.163C153.298 492.043 150.009 492.713 146.943 493.195C147.224 492.791 147.494 492.376 147.751 491.953ZM198.461 414.351C200.392 410.257 202.247 406.325 204.188 402.079C208.814 391.737 213.818 381.289 218.656 371.186C222.97 362.176 227.431 352.863 231.624 343.624L231.858 343.101C234.14 337.99 237.268 330.99 235.757 325.916L235.694 325.734C234.476 322.649 232.427 321.711 230.923 321.468C225.35 320.581 218.849 327.962 217.608 329.447C207.811 341.084 198.293 353.198 189.087 364.912C180.326 376.062 171.268 387.59 161.959 398.715C154.844 407.653 150.926 412.577 138.274 413.956L138.132 413.975C135.579 414.422 132.967 414.811 130.201 415.221C121.934 416.448 113.385 417.716 106.369 420.653C93.4538 425.842 84.1407 437.348 82.6489 449.912C81.6342 457.013 82.9577 463.941 84.2388 470.639C84.5452 472.246 84.854 473.854 85.1373 475.511C85.3347 476.541 85.526 477.577 85.7185 478.612C87.3254 487.289 88.988 496.263 94.2421 503.494C100.923 513.43 112.631 519.785 125.545 520.489C126.51 520.548 127.491 520.575 128.486 520.575C135.051 520.575 142.229 519.383 149.199 518.226C151.926 517.773 154.501 517.344 156.962 516.998C179.547 514.392 194.34 503.884 198.61 487.431C200.919 478.958 199.564 471.131 198.128 462.845L197.231 457.656C196.617 454.106 195.983 450.436 195.344 447.299C194.954 445.339 194.516 443.596 194.091 441.913C193.384 439.103 192.771 436.677 192.606 434.013C192.027 428.426 194.389 422.72 197.047 417.349L198.461 414.351Z" fill="white"/>
<path d="M376.475 139.94V144.171C376.475 153.256 383.867 160.647 392.952 160.647H397.183C401.714 160.647 405.821 158.808 408.804 155.839C410.118 163.091 409.562 170.526 408.789 175.752C406.759 189.309 397.937 197.726 383.934 199.456C375.115 200.607 353.714 201.629 345.561 186.315C340.084 175.176 339.739 159.463 344.694 147.238C347.86 139.715 355.273 134.296 364.578 132.73L364.749 132.696C368.337 132.096 373.303 131.546 378.657 131.779C377.277 134.188 376.475 136.969 376.475 139.94ZM324.857 135.838C320.26 145.871 320.115 158.189 319.973 170.103C319.93 173.792 319.888 177.274 319.717 180.65C319.052 193.757 311.847 205.389 304.881 216.64C303.216 219.327 301.495 222.106 299.895 224.854C292.893 236.89 291.241 243.76 294.542 247.133C295.733 248.349 297.413 248.899 299.521 248.898C306.588 248.898 318.443 242.722 332.617 234.876C336.618 232.661 340.074 230.749 342.561 229.583C351.882 224.558 361.297 221.868 370.591 221.584C372.276 221.492 374.004 221.423 375.76 221.35C384.494 220.993 394.394 220.587 402.936 217.459C415.018 212.958 423.227 204.385 427.333 191.983C431.238 180.187 430.986 166.758 430.333 156.425C429.41 132.935 416.479 116.552 395.732 112.599C384.356 110.468 371.56 110.235 358.696 111.928L358.51 111.955C343.181 113.833 330.598 122.77 324.857 135.838Z" fill="white"/>
<path d="M553.819 440.518C552.001 439.627 549.951 439.131 547.822 439.129C540.947 438.771 535.044 444.024 534.636 450.769C534.464 453.613 535.403 456.357 537.272 458.529C535.06 459.108 532.719 459.397 530.302 459.34L530.247 459.339C523.874 459.316 517.794 456.786 513.565 452.399C509.735 448.424 507.722 443.288 507.899 437.934C508.266 426.608 518.496 417.623 530.854 417.623C531.084 417.623 531.317 417.627 531.548 417.633C538.04 417.81 544.202 420.498 548.456 425.014C552.164 428.949 554.114 433.928 553.95 439.038C553.933 439.538 553.873 440.028 553.819 440.518ZM579.242 436.095L579.219 435.84C577.668 417.782 565.841 403.011 548.411 397.313C534.989 392.536 518.614 393.904 505.451 400.854C493.995 397.704 424.384 362.715 373.227 337C340.615 320.608 314.794 307.63 308.361 304.978C305.861 303.522 302.793 304.155 300.987 306.527C299.054 309.067 299.407 312.385 301.844 314.592L302.14 314.82C319.066 325.729 345.465 342.725 372.3 360C413.206 386.336 455.508 413.567 466.216 420.511C482.833 430.782 482.945 432.865 483.243 438.432C483.445 442.22 483.723 447.409 487.648 456.386C492.838 467.217 502.454 475.938 514.067 480.326C519.249 482.175 524.85 483.081 530.531 483.081C539.886 483.08 549.447 480.619 557.648 475.853C571.803 467.327 580.282 451.742 579.242 436.095Z" fill="white"/>
<path d="M544.008 315.606C541.585 316.138 539.01 317.139 536.64 318.072C535.81 318.398 535.014 318.711 534.272 318.984C529.011 320.932 526.203 323.391 525.686 326.5C525.163 329.64 527.081 332.941 531.62 336.645C532.284 337.146 533.126 337.909 534.016 338.717C535.528 340.087 537.352 341.737 539.306 342.967C537.257 351.981 534.909 354.273 533.555 354.776C529.569 356.249 520.245 348.318 511.999 341.291C510.599 339.992 508.869 338.563 507.039 337.052C501.644 332.595 492.693 325.204 493.149 320.265C494.461 317.15 497.678 315.507 503.116 312.94L503.783 312.625C507.132 311.191 510.896 309.811 514.877 308.352C515.966 307.954 517.059 307.553 518.149 307.149C519.497 306.708 521.026 306.143 522.644 305.546C528.461 303.403 538.194 299.817 542.204 301.748C542.744 302.008 543.35 302.439 543.757 303.668L543.777 303.725C544.636 306.884 544.53 311.087 544.008 315.606ZM546.907 273.468L546.636 273.483C540.208 273.961 534.164 276.225 528.322 278.416C527.152 278.856 525.986 279.293 524.825 279.712C518.969 281.827 513.125 284.081 507.475 286.26C497.648 290.05 488.366 293.63 479.165 296.485C475.516 297.296 472.651 296.998 468.707 296.59C467.295 296.443 465.791 296.288 464.225 296.175L384.367 288.535C363.471 286.535 342.135 284.492 323.5 282.72C319.146 282.333 314.637 282.11 311.535 283.923L311.326 284.055C307.56 286.576 307.682 289.735 307.91 290.977C308.984 296.837 317.976 298.984 318.256 299.049C334.321 303.203 361.564 310.05 390.405 317.299C416.645 323.895 443.778 330.715 463.868 335.853L463.997 335.884C469.183 337.032 472.917 339.632 477.664 343.774C482.838 348.152 490.108 354.38 497.06 360.336C501.648 364.265 506.098 368.078 509.791 371.224C510.939 372.159 512.07 373.122 513.2 374.081C519.018 379.031 525.035 384.15 533.377 385.713C534.543 385.908 535.728 386.001 536.918 386.001C544.636 386.001 552.57 382.031 557.11 375.622C561.251 369.763 562.634 362.935 563.754 357.398C564.624 352.816 565.506 347.714 566.36 342.78L567.147 338.239L567.172 338.078C567.681 334.274 568.513 329.93 569.393 325.331C571.871 312.393 574.434 299.015 571.498 290.334C568.094 279.887 557.476 272.636 546.907 273.468Z" fill="white"/>
<path d="M51.471 386.9L51.23 386.773C47.4047 384.919 38.3448 383.456 31.0648 384.495L26.1025 376.249L25.9754 376.062C25.2258 375.062 25.4595 374.085 25.7865 373.44C26.3253 372.381 27.7433 371.157 29.9677 371.157C29.998 371.157 30.0259 371.158 30.0561 371.158L79.7032 372.072C81.6612 372.112 82.9496 373.26 83.5018 374.323C83.8299 374.952 84.244 376.206 83.3468 377.545L57.7071 416.205C56.8958 417.414 55.364 418.113 53.6603 418.078C52.1115 418.027 50.8013 417.333 50.1377 416.189L45.5739 408.605C45.7991 408.396 46.0231 408.184 46.2423 407.969C50.7032 403.432 59.3999 391.243 51.471 386.9ZM215.418 315.213C219.894 312.457 220.607 308.663 219.329 306.126C218.013 303.517 214.191 301.674 208.944 303.781L81.5486 352.175L81.4154 352.225L21.4866 351.013C13.6314 350.639 6.38661 354.366 2.60011 360.697C-0.869124 366.494 -0.866703 373.43 2.60738 379.254L35.28 433.82C38.8291 439.77 45.3462 443.473 52.7133 443.73C52.9858 443.738 53.257 443.743 53.5283 443.743C60.7501 443.743 67.3483 440.41 71.3249 434.683L102.159 388.02L215.418 315.213Z" fill="white"/>
<path d="M260.075 251.284C243.58 251.284 230.161 264.703 230.161 281.196C230.161 297.691 243.58 311.11 260.075 311.11C276.569 311.11 289.988 297.691 289.988 281.196C289.988 264.703 276.569 251.284 260.075 251.284Z" fill="white"/>
<path d="M270.704 434.358L265.614 426.291C264.416 424.379 262.752 423.327 260.926 423.327C259.099 423.327 257.433 424.381 256.241 426.288L251.32 434.087C250.96 434.082 250.597 434.07 250.241 434.067C244.412 434.023 241.003 433.827 239.66 430.416C239.342 427.571 240.428 425.984 242.359 423.16C242.959 422.283 243.607 421.334 244.235 420.316L252.938 407.252C253.253 406.792 253.553 406.339 253.848 405.891C254.931 404.252 255.865 402.836 257.165 401.683C258.978 400.202 260.594 399.621 262.095 399.892C265.857 400.585 269.281 406.541 272.031 411.327C273.214 413.384 274.332 415.329 275.451 416.858C276.027 417.82 276.69 418.842 277.375 419.899C279.802 423.643 283.127 428.772 282.018 431.394C281.344 432.986 278.835 433.789 276.961 434.165L276.858 434.179C275.062 434.31 272.954 434.356 270.704 434.358ZM296.896 415.501C294.812 411.976 292.422 408.042 290.011 404.076C286.436 398.196 282.742 392.12 280.026 387.32C278.01 379.523 275.279 367.693 272.866 357.243C271.308 350.505 269.84 344.139 268.686 339.397C268.448 338.55 268.296 337.817 268.159 337.162C267.731 335.12 267.328 333.191 265.025 331.264C263.038 329.693 260.152 329.216 257.498 330.02C255.086 330.75 253.307 332.385 252.619 334.506L252.578 334.644C251.215 340.024 248.992 350.57 246.841 360.766C245.382 367.688 244.003 374.227 242.896 379.185C242.431 380.921 242.166 382.417 241.932 383.737C241.477 386.3 241.148 388.153 239.596 390.406L218.043 423.402C213.6 429.458 211.879 436.152 213.439 441.308C214.264 444.03 216.452 447.717 222.162 449.8C225.662 451.128 229.452 451.774 233.71 451.774H233.827L277.034 452.329C278.512 452.316 280.066 452.349 281.651 452.386C282.986 452.418 284.372 452.45 285.779 452.45C293.519 452.45 301.907 451.474 306.133 443.96L306.272 443.664C309.391 435.481 304.955 428.512 300.664 421.772C299.384 419.762 298.062 417.683 296.896 415.501Z" fill="white"/>
</g>
</svg>
