<?xml version="1.0" encoding="utf-8"?>
<!-- Generator: Adobe Illustrator 21.0.2, SVG Export Plug-In . SVG Version: 6.00 Build 0)  -->
<svg version="1.1" id="Laag_1" xmlns="http://www.w3.org/2000/svg" xmlns:xlink="http://www.w3.org/1999/xlink" x="0px" y="0px"
	 viewBox="0 0 283.5 283.5" style="enable-background:new 0 0 283.5 283.5;" xml:space="preserve">
<style type="text/css">
	.st0{fill:#626261;}
	.st1{fill:none;stroke:#1E1E1C;stroke-width:0.9781;stroke-miterlimit:10;}
	.st2{fill:none;stroke:#FFFFFF;stroke-width:0.9781;stroke-miterlimit:10;stroke-dasharray:9.7811,9.7811;}
	.st3{fill:#020203;}
	.st4{fill:none;stroke:#FFFFFF;stroke-width:0.5961;stroke-miterlimit:10;stroke-dasharray:5.9613,5.9613;}
	.st5{fill:#FFE505;}
	.st6{fill:#FFFFFF;}
</style>
<path class="st5" d="M254.1,228.2c18.4-23.9,29.4-53.9,29.4-86.4C283.5,63.5,220,0,141.7,0S0,63.5,0,141.7s63.5,141.7,141.7,141.7
	c31.2,0,60.1-10.1,83.5-27.2l58.2,26.1L254.1,228.2z"/>
<g>
	<path class="st3" d="M102.9,124.9H84.2V176h-21v-51.1H44.5v-15.7h58.4V124.9z"/>
	<path class="st3" d="M167.8,109.2V176h-21v-28.1H130V176h-21v-66.8h21v24h16.8v-24H167.8z"/>
	<path class="st3" d="M218.2,176l-12.4-28.1L193.3,176h-20.8l16.6-34.1l-15.2-32.7h20.7l11.2,26.4l11.1-26.4h20.7l-15.2,32.7
		L239,176H218.2z"/>
</g>
</svg>
