<svg width="400" height="400" viewBox="0 0 400 400" fill="none" xmlns="http://www.w3.org/2000/svg">
<rect width="400" height="400" rx="200" fill="white"/>
<rect x="1" y="1" width="398" height="398" rx="199" stroke="url(#paint0_linear_60_302)" stroke-opacity="0.5" stroke-width="2" style="mix-blend-mode:overlay"/>
<path d="M251.469 272.595C241.585 272.595 232.674 271.118 224.737 268.165C216.949 265.212 210.809 261.133 206.316 255.93C201.824 250.586 199.577 244.469 199.577 237.579C199.577 236.594 199.727 234.836 200.026 232.305H237.092C236.792 236.664 238.14 240.18 241.135 242.852C244.28 245.383 248.698 246.649 254.389 246.649C259.181 246.649 263.15 245.805 266.295 244.118C269.44 242.43 271.012 240.039 271.012 236.946C271.012 233.993 269.29 231.672 265.846 229.985C262.551 228.157 257.01 225.977 249.222 223.446C241.135 220.914 234.321 218.453 228.78 216.063C223.389 213.531 218.746 209.945 214.853 205.305C210.959 200.664 209.012 194.828 209.012 187.797C209.012 180.906 211.183 174.719 215.527 169.234C219.87 163.609 225.935 159.25 233.722 156.156C241.66 153.062 250.795 151.515 261.128 151.515C271.462 151.515 280.447 153.132 288.085 156.367C295.723 159.461 301.638 163.82 305.831 169.445C310.025 175.07 312.121 181.398 312.121 188.43L311.897 191.594H277.078C277.377 187.375 276.029 184 273.034 181.469C270.039 178.937 265.771 177.672 260.23 177.672C255.887 177.672 252.292 178.515 249.447 180.203C246.751 181.89 245.403 184.211 245.403 187.164C245.403 190.258 247.201 192.859 250.795 194.969C254.539 196.937 260.305 199.188 268.092 201.719C276.179 204.25 282.843 206.781 288.085 209.313C293.476 211.703 298.044 215.149 301.788 219.649C305.682 224.008 307.628 229.493 307.628 236.102C307.628 243.696 305.157 250.235 300.215 255.719C295.423 261.204 288.759 265.423 280.223 268.376C271.836 271.188 262.251 272.595 251.469 272.595Z" fill="black"/>
<path d="M200.266 78.7878L124.926 321.212H87.8788L162.994 78.7878H200.266Z" fill="black"/>
<defs>
<linearGradient id="paint0_linear_60_302" x1="200" y1="0" x2="200" y2="400" gradientUnits="userSpaceOnUse">
<stop stop-color="white"/>
<stop offset="1" stop-color="white" stop-opacity="0"/>
</linearGradient>
</defs>
</svg>
