<?xml version="1.0" encoding="UTF-8"?><svg xmlns="http://www.w3.org/2000/svg" viewBox="0 0 270 630"><defs><style>.d{fill:#def141;}</style></defs><g id="a"/><g id="b"><g id="c"><path class="d" d="M48.95,566.64c-2.51,5.61-3.95,11.82-3.95,18.36,0,24.85,20.15,45,45,45,18.91,0,35.07-11.68,41.73-28.2l134.33-313.43c2.51-5.61,3.94-11.82,3.94-18.36,0-24.85-20.15-45-45-45-18.91,0-35.07,11.68-41.73,28.2L48.95,566.64ZM3.95,341.64c-2.51,5.61-3.95,11.82-3.95,18.36,0,24.85,20.15,45,45,45,18.91,0,35.07-11.68,41.73-28.2L221.06,63.36c2.51-5.61,3.94-11.82,3.94-18.36,0-24.85-20.15-45-45-45-18.91,0-35.07,11.68-41.73,28.2L3.95,341.64Z"/></g></g></svg>