<svg width="480" height="480" viewBox="0 0 480 480" fill="none" xmlns="http://www.w3.org/2000/svg">
<mask id="mask0-500239" mask-type="alpha" maskUnits="userSpaceOnUse" x="0" y="0" width="480" height="480">
<circle cx="240" cy="240" r="240" fill="url(#paint0_linear-765896)"/>
</mask>
<g mask="url(#mask0-500239)">
<circle cx="240" cy="240" r="240" fill="#31D8A4"/>
<circle cx="240" cy="240" r="208" fill="white"/>
</g>
<circle cx="240" cy="240" r="184" fill="#0E052F"/>
<path d="M240 424C341.62 424 424 341.62 424 240C424 138.38 341.62 56 240 56C138.38 56 56 138.38 56 240C56 341.62 138.38 424 240 424Z" fill="#2A5ADA"/>
<g clip-path="url(#clip0-744373)">
<path d="M240 115.064L262.716 128.126L324.617 163.904L347.333 176.966V300.768L324.617 313.83L262.148 349.608L239.432 362.67L216.716 349.608L155.383 313.83L132.667 300.768V176.966L155.383 163.904L217.284 128.126L240 115.064V115.064ZM301.901 274.645V203.089L240 167.311L178.099 203.089V274.645L240 310.423L301.901 274.645Z" fill="white"/>
</g>
<defs>
<linearGradient id="paint0_linear-765896" x1="240" y1="0" x2="240" y2="701.818" gradientUnits="userSpaceOnUse">
<stop stop-color="#08021E"/>
<stop offset="1" stop-color="#1F0777"/>
</linearGradient>
<clipPath id="clip0-744373">
<rect width="214.667" height="247.605" fill="white" transform="matrix(-1 0 0 1 347.333 115.064)"/>
</clipPath>
</defs>
</svg>