<svg id="Layer_1" data-name="Layer 1" xmlns="http://www.w3.org/2000/svg" viewBox="0 0 137.5 137.5"><defs><style>.cls-1{fill:#2b2b2b;}.cls-2{fill:none;stroke:#fff;stroke-miterlimit:10;stroke-width:5px;}.cls-3{fill:#fff;}</style></defs><circle class="cls-1" cx="68.75" cy="68.75" r="68.75"/><polygon class="cls-2" points="68.42 96.25 45.35 96.25 56.89 76.27 68.42 56.28 79.96 76.27 91.5 96.25 68.42 96.25"/><polygon class="cls-2" points="68.24 42.22 91.32 42.22 79.78 62.2 68.24 82.19 56.7 62.2 45.17 42.22 68.24 42.22"/><polygon class="cls-3" points="57.36 69.53 68.64 51.24 79.89 69.72 68.61 87.77 57.36 69.53"/><path class="cls-1" d="M249.75,237.2l8.33,13.68-8.33,13.32-8.33-13.5,8.33-13.5m0-9.57-4.29,6.94-8.32,13.5-1.62,2.63,1.62,2.62,8.32,13.5,4.23,6.86,4.27-6.83,8.33-13.32,1.63-2.62-1.6-2.63L254,234.6l-4.24-7Z" transform="translate(-181.12 -181.17)"/><polygon class="cls-1" points="68.66 75.05 65.27 69.55 68.66 64.06 72.05 69.63 68.66 75.05"/></svg>