<svg id="Layer_1" data-name="Layer 1" xmlns="http://www.w3.org/2000/svg" viewBox="0 0 200 70.46"><defs><style>.cls-1,.cls-6{fill:#190232;}.cls-2{fill:#2b2063;}.cls-3,.cls-7{fill:#3c17b8;}.cls-4{fill:#aa5eff;}.cls-5{fill:#ef9bc8;}.cls-5,.cls-6,.cls-7{fill-rule:evenodd;}</style></defs><title>RAI.finance Logo_VF</title><path class="cls-1" d="M48.88.74l9.87,3.8L67.09,23.8,61.34,54.23,36.06,70.45l-12.83-5L0,43.62,5.49,12.73,25.71,0,48.88.74ZM30.39,22.24,25.9,32l7.42,5,8-2.91L41,24.61,30.39,22.24Z"/><polygon class="cls-2" points="5.49 12.73 12.91 17.2 20.9 12.75 32.48 2.82 25.71 0.01 5.49 12.73 5.49 12.73"/><path class="cls-3" d="M59.23,5.15l18.7,23.67L71.82,61.11,36.06,70.45,8.21,45.58l4.7-28.38L33.81,4.05l1-.27,24,.76.48.61Zm15,24.62L57,7.93,35.16,7.24l-19.1,12-4.13,25L37,66.65l31.82-8.31,5.4-28.57Zm-33.88-.05-3.29,7.11,5.5,3.72,6-2.17-.2-6.88-8-1.78Zm-7,7,5.09-11,13.27,3,.35,12-10,3.64-9.34-6.31.62-1.32Z"/><path class="cls-4" d="M57.87,6.24,76.08,29.3,70.33,59.72,36.54,68.55,10.07,44.91l4.42-26.68L34.71,5.51l23.16.73ZM39.39,27.74l-4.5,9.72,7.42,5,8-2.91L50,30.11,39.39,27.74Z"/><polygon class="cls-5" points="34.85 37.46 42.37 44.27 50.44 39.49 50.28 39.47 50.28 39.56 42.31 42.47 34.91 37.47 34.85 37.46 34.85 37.46"/><polygon class="cls-5" points="28.18 9.62 37.86 7.48 56.09 9.36 74.24 29.85 73.71 41.86 76.08 29.3 57.87 6.24 34.71 5.5 28.18 9.62 28.18 9.62"/><path class="cls-6" d="M20,21.18a5.64,5.64,0,0,0,2.55,1.68c2,.7,4.12-.05,4.37-.87.15-.51,1.18-2.63-1.19-3.44-1.58-.54-5.78.35-6,1.17s0,1,.3,1.46Z"/><path class="cls-5" d="M20,21.72a5.62,5.62,0,0,0,2.56,1.68c2.05.7,4.11,0,4.36-.87.16-.52,1.18-2.63-1.18-3.44-1.58-.54-5.79.34-6,1.16s0,1,.3,1.47Z"/><path class="cls-7" d="M19.89,21.46a5.68,5.68,0,0,0,2.56,1.68c2.05.7,4.11-.05,4.36-.87.16-.51,1.18-2.63-1.18-3.44-1.58-.54-5.79.35-6,1.17s0,1,.3,1.46Z"/><path class="cls-6" d="M61.49,35.72a6,6,0,0,0,2.68,1.76c2.16.74,4.33,0,4.59-.91C68.93,36,70,33.81,67.51,33c-1.65-.57-6.07.37-6.34,1.23s0,1,.32,1.54Z"/><path class="cls-5" d="M61.55,36.29a6,6,0,0,0,2.69,1.76c2.16.73,4.33,0,4.59-.92.16-.53,1.24-2.76-1.25-3.61-1.65-.57-6.08.36-6.34,1.23s0,1,.31,1.54Z"/><path class="cls-7" d="M61.42,36a5.87,5.87,0,0,0,2.69,1.77c2.15.73,4.32-.05,4.58-.92.17-.54,1.24-2.76-1.24-3.61-1.66-.57-6.08.36-6.35,1.22s0,1,.32,1.54Z"/><path class="cls-6" d="M44.78,63.77a9.75,9.75,0,0,1-4.54,1c-3.34,0-6-1.81-6-2.94,0-.71-.49-3.78,3.36-3.79,2.57,0,8.33,2.9,8.31,4s-.42,1.22-1.13,1.7Z"/><path class="cls-5" d="M44.43,64.41a9.63,9.63,0,0,1-4.54,1c-3.34,0-6-1.81-6-2.94,0-.7-.49-3.78,3.36-3.78,2.57,0,8.33,2.89,8.31,4s-.42,1.22-1.13,1.7Z"/><path class="cls-7" d="M44.75,64.15a9.82,9.82,0,0,1-4.55,1c-3.34,0-6-1.81-6-2.94,0-.71-.49-3.78,3.36-3.79,2.58,0,8.33,2.89,8.32,4s-.43,1.22-1.13,1.71Z"/><path class="cls-6" d="M42.77,53a6.07,6.07,0,0,1-2.22,1.1c-1.63.46-2.93,0-2.92-.6a2,2,0,0,1,1.64-2.29c1.25-.35,4.06.26,4,.81s-.21.65-.55,1Z"/><path class="cls-5" d="M42.6,53.4a6.15,6.15,0,0,1-2.22,1.1c-1.63.46-2.93,0-2.93-.6a2,2,0,0,1,1.65-2.29c1.25-.36,4.06.26,4,.81s-.21.65-.55,1Z"/><path class="cls-7" d="M42.75,53.23a6.23,6.23,0,0,1-2.22,1.1c-1.62.46-2.93-.06-2.92-.61a2,2,0,0,1,1.64-2.29c1.25-.35,4.06.27,4,.82s-.2.65-.55,1Z"/><path class="cls-6" d="M51.49,57.3a4.6,4.6,0,0,1-2,.72c-1.35.18-2.23-.56-2.1-1.11a2.16,2.16,0,0,1,1.79-2c1-.13,3,1,2.91,1.52a1.27,1.27,0,0,1-.65.89Z"/><path class="cls-5" d="M51.28,57.63a4.6,4.6,0,0,1-2,.72c-1.35.18-2.23-.56-2.1-1.11a2.14,2.14,0,0,1,1.78-2c1-.13,3.05,1,2.92,1.53a1.3,1.3,0,0,1-.65.88Z"/><path class="cls-7" d="M51.44,57.48a4.61,4.61,0,0,1-1.95.73c-1.36.17-2.24-.57-2.1-1.12a2.13,2.13,0,0,1,1.78-2c1-.14,3,1,2.91,1.52s-.31.61-.64.88Z"/><path class="cls-3" d="M72.87,46.24c-1.55,1.58-2,2.93-4.37,4.12a7.61,7.61,0,0,1-5.13.67l-3.2,1.15s.39-.14,6.3.32c1.31.09,4-.1,5.07.23.41.13-.31,1.8-.06,1.7.85-.35.79-1.89,1-2.52a8.54,8.54,0,0,0,.39-3.12l0-2.55Z"/><path class="cls-5" d="M70.44,55.63A16.07,16.07,0,0,0,71,53.17l-11.06-.4L70.16,53.9l.28,1.73Z"/><path class="cls-3" d="M14.12,19.22c-.58,1.08-.34,3.8,2.76,5.77,3.34,2.13,8.65,2.29,9.78,2.18l4.49,1.95s-.54-.24-10.42.26c-2.2.09-6.39-.31-8.38.18-.74.18-.59,2.86-.93,2.68-1.17-.59-.14-3-.14-4a61.8,61.8,0,0,1,1.24-8.16l1.6-.83Z"/><path class="cls-5" d="M12.39,34.19s.41-3.89.64-3.92,18.21-.2,18.21-.2L13.87,31.46l-1.48,2.73Z"/><path class="cls-1" d="M128.37,30.49l.1-.08V26.58l-.06-.47a5.32,5.32,0,0,1-1-1.34,20.93,20.93,0,0,1-1.18-2.37,19.09,19.09,0,0,1-.9-2.52,7.9,7.9,0,0,1-.35-1.94c0-.1,0-.28,0-.53s0-.42,0-.51.23.3.38.76.3,1,.47,1.58.34,1.15.51,1.7a5.72,5.72,0,0,0,.44,1.13l1.42,2.27L126.7,12l-.17-1.46-.71-5.91H120.3l-.17,2.49.27-.14.34-.19.79-.06c0,.19-.17.4-.52.64a10.16,10.16,0,0,1-.94.58L120,9.65h.94l.07.87.78,10.31.11,1.52h-2.94v4.46h3.25V31.5h3.43l.26-.1a.62.62,0,0,1,.21-.06l.18.06.28.1h2v-.95l-.27.13A.65.65,0,0,1,128.37,30.49Zm-1.94-7.06c.17,0,.25.11.25.34s-.08.38-.25.38-.31-.12-.31-.38S126.22,23.43,126.43,23.43Zm-3.24,4.16c.18,0,.28.1.28.31s-.1.35-.28.35-.29-.12-.29-.35S123,27.59,123.19,27.59Zm.37,1.39v.31c0,.06-.1.18-.19.36a1.81,1.81,0,0,1-.18.34,1.17,1.17,0,0,0,0-.16,1,1,0,0,1,0-.19,1.5,1.5,0,0,1,0-.37C123.2,29.16,123.33,29.06,123.56,29Zm1-.38c-.19,0-.28-.12-.28-.35h-.09c-.17,0-.26-.12-.26-.35s.09-.31.26-.31a.28.28,0,0,1,.31.31h.06a.29.29,0,0,1,.32.29v.06c0,.22-.09.34-.29.34Zm1.75-.81a.29.29,0,0,1,.11-.15l.13-.09.06,0a.09.09,0,0,1,.13.06.28.28,0,0,1,0,.3.24.24,0,0,1-.3,0s-.06,0-.07,0S126.35,27.82,126.35,27.79Zm.43.46c.13,0,.19.1.19.19s-.06.14-.19.17-.19,0-.19-.17S126.65,28.23,126.78,28.25ZM125,21.69c.21,0,.32.13.32.38a.29.29,0,0,1-.32.32c-.19,0-.28-.11-.28-.32S124.79,21.69,125,21.69ZM122.32,5.75l.33-.3.33-.3.22-.21h.08l.11,0,.1,0h.06l-.2.22c-.1.11-.21.22-.32.32l-.33.3a1,1,0,0,1-.25.17l-.16.06-.08,0a.2.2,0,0,0-.11,0ZM125,31.34c-.19,0-.28-.1-.28-.32s.09-.34.28-.34.32.11.32.34A.28.28,0,0,1,125,31.34Zm.55-1.5-.31.32a.71.71,0,0,1-.24.17L126.06,29a.34.34,0,0,0,0,.09.51.51,0,0,1,0,.09.24.24,0,0,1,0,.08v.05s-.11.12-.21.22S125.65,29.73,125.53,29.84Zm1.25,1.5c-.19,0-.29-.1-.29-.32s.1-.34.29-.34H126a.55.55,0,0,1,.05-.18.51.51,0,0,0,0-.17l.15-.34a.89.89,0,0,1,.22-.35,1.35,1.35,0,0,0,0,.63.49.49,0,0,0,.39.41c.19,0,.28.11.28.34S127,31.34,126.78,31.34Zm.69-1.35s-.07,0-.09-.07a1.2,1.2,0,0,1,0-.28c0-.26,0-.37.12-.35a.35.35,0,0,1,.19.35C127.66,29.85,127.6,30,127.47,30Zm0-2.4c-.16,0-.25-.12-.25-.35s.09-.34.25-.34.29.11.29.34S127.66,27.59,127.47,27.59Zm-13.53,1.1.14.08A.22.22,0,0,0,113.94,28.69Zm0,0,.14.08A.22.22,0,0,0,113.94,28.69Zm0,0,.14.08A.22.22,0,0,0,113.94,28.69Zm0,0,.14.08A.22.22,0,0,0,113.94,28.69Zm0,0,.14.08A.22.22,0,0,0,113.94,28.69Zm0,0,.14.08A.22.22,0,0,0,113.94,28.69Zm0,0,.14.08A.22.22,0,0,0,113.94,28.69Zm0,0,.14.08A.22.22,0,0,0,113.94,28.69Zm0,0,.14.08A.22.22,0,0,0,113.94,28.69Zm0,0,.14.08A.22.22,0,0,0,113.94,28.69Zm0,0,.14.08A.22.22,0,0,0,113.94,28.69Zm0,0,.14.08A.22.22,0,0,0,113.94,28.69Zm0,0,.14.08A.22.22,0,0,0,113.94,28.69Zm0,0,.14.08A.22.22,0,0,0,113.94,28.69Zm0,0,.14.08A.22.22,0,0,0,113.94,28.69Zm0,0,.14.08A.22.22,0,0,0,113.94,28.69Zm0,0,.14.08A.22.22,0,0,0,113.94,28.69Zm0,0,.14.08A.22.22,0,0,0,113.94,28.69Zm0,0,.14.08A.22.22,0,0,0,113.94,28.69Zm0,0,.14.08A.22.22,0,0,0,113.94,28.69Zm0,0,.14.08A.22.22,0,0,0,113.94,28.69Zm0,0,.14.08A.22.22,0,0,0,113.94,28.69Zm0,0,.14.08A.22.22,0,0,0,113.94,28.69Zm0,0,.14.08A.22.22,0,0,0,113.94,28.69Zm0,0,.14.08A.22.22,0,0,0,113.94,28.69Zm0,0,.14.08A.22.22,0,0,0,113.94,28.69Zm0,0,.14.08A.22.22,0,0,0,113.94,28.69Zm0,0,.14.08A.22.22,0,0,0,113.94,28.69Zm0,0,.14.08A.22.22,0,0,0,113.94,28.69Zm0,0,.14.08A.22.22,0,0,0,113.94,28.69Zm0,0,.14.08A.22.22,0,0,0,113.94,28.69Zm0,0,.14.08A.22.22,0,0,0,113.94,28.69Zm3.94-20.22a5.25,5.25,0,0,1,.74-.52c.29-.18.59-.35.88-.51l.24-2.86h-5L114.29,8a8.32,8.32,0,0,1,.78.3,10.53,10.53,0,0,1,1,.48c.29.16.54.3.76.4a4.59,4.59,0,0,1-.7.57,1.33,1.33,0,0,1-.72.16h-.21l-.14,0,.35-.7a2,2,0,0,1-.43-.17l-.66-.3-.06,0-.2,1.69-.18,1.45-1.2,9.9a1.53,1.53,0,0,1,.6.29,2.71,2.71,0,0,1,.67.87c.17.34.33.69.48,1.07a2.94,2.94,0,0,0,.6,1,7.44,7.44,0,0,0,1,1.05,9.33,9.33,0,0,1,1,1,4.32,4.32,0,0,1,.74,1.08,3.18,3.18,0,0,1,.29,1.4h-.79a.83.83,0,0,0,.09.35,1.49,1.49,0,0,1,.13.37.24.24,0,0,1-.11.26,1,1,0,0,1-.62,0,5,5,0,0,0,.38-1.35v-.16a2.17,2.17,0,0,0-.38-1.05,12.68,12.68,0,0,0-1-1.41c-.39-.5-.8-1-1.24-1.56s-.86-1-1.25-1.48l-.78-.92-.5,4.12V31.5h6.24V30.39h-.44a2.45,2.45,0,0,0,.21-.48,4.54,4.54,0,0,0,.17-.53c0-.13,0-.32.06-.57V22l.73-8.72.23-2.82.19-2.28a8.34,8.34,0,0,1-.83.36,3.34,3.34,0,0,1-.72.24.86.86,0,0,1-.22,0h-.13s0-.1.13-.17A.54.54,0,0,1,117.88,8.47ZM116.74,31a.32.32,0,0,1,.13-.16.69.69,0,0,1,.17-.11s.09,0,.11.06a.23.23,0,0,1,0,.29.31.31,0,0,1-.35,0S116.72,31,116.74,31Zm-.35-1.28c.21,0,.32.13.32.38a.28.28,0,0,1-.32.31c-.18,0-.28-.1-.28-.31S116.21,29.7,116.39,29.7ZM116.21,31s-.06.09-.18.13-.17,0-.17-.13,0-.23.16-.19S116.21,30.88,116.21,31Zm-.86-4.7c.19,0,.29.12.29.35s-.1.35-.29.35-.31-.12-.31-.35S115.14,26.26,115.35,26.26Zm0,1c.19,0,.29.12.29.35s-.1.35-.29.35-.31-.12-.31-.35S115.14,27.3,115.35,27.3Zm-1.1-1.73c.19,0,.28.13.28.38s-.09.31-.28.31-.28-.1-.28-.31S114.06,25.57,114.25,25.57ZM113.54,28h.87a3.57,3.57,0,0,1,.71.1,2.22,2.22,0,0,1,.63.22.42.42,0,0,1,.27.39v.47a5.77,5.77,0,0,1-.78-.06,4.78,4.78,0,0,1-.83-.2l-.33-.13a.38.38,0,0,1,.08.27c0,.23-.09.34-.26.34s-.31-.11-.31-.34.11-.35.31-.35h0a1.48,1.48,0,0,1-.27-.16,1.3,1.3,0,0,1-.49-.53Zm1.34,1.4c0,.21-.08.32-.25.32a.29.29,0,0,1-.32-.32c0-.23.11-.34.32-.34S114.88,29.15,114.88,29.38Zm-1,1.71c0,.23-.09.34-.28.34s-.29-.11-.29-.34.1-.32.29-.32S113.84,30.88,113.84,31.09Zm.24-2.32a.22.22,0,0,0-.14-.08Zm-.14-.08.14.08A.22.22,0,0,0,113.94,28.69Zm0,0,.14.08A.22.22,0,0,0,113.94,28.69Zm0,0,.14.08A.22.22,0,0,0,113.94,28.69Zm0,0,.14.08A.22.22,0,0,0,113.94,28.69Zm0,0,.14.08A.22.22,0,0,0,113.94,28.69Zm0,0,.14.08A.22.22,0,0,0,113.94,28.69Zm0,0,.14.08A.22.22,0,0,0,113.94,28.69Zm0,0,.14.08A.22.22,0,0,0,113.94,28.69Zm0,0,.14.08A.22.22,0,0,0,113.94,28.69Zm0,0,.14.08A.22.22,0,0,0,113.94,28.69Zm0,0,.14.08A.22.22,0,0,0,113.94,28.69Zm0,0,.14.08A.22.22,0,0,0,113.94,28.69Zm0,0,.14.08A.22.22,0,0,0,113.94,28.69Zm0,0,.14.08A.22.22,0,0,0,113.94,28.69Zm0,0,.14.08A.22.22,0,0,0,113.94,28.69Zm0,0,.14.08A.22.22,0,0,0,113.94,28.69Zm0,0,.14.08A.22.22,0,0,0,113.94,28.69Zm0,0,.14.08A.22.22,0,0,0,113.94,28.69Zm0,0,.14.08A.22.22,0,0,0,113.94,28.69Zm0,0,.14.08A.22.22,0,0,0,113.94,28.69Zm0,0,.14.08A.22.22,0,0,0,113.94,28.69Zm0,0,.14.08A.22.22,0,0,0,113.94,28.69Zm0,0,.14.08A.22.22,0,0,0,113.94,28.69Zm0,0,.14.08A.22.22,0,0,0,113.94,28.69Zm0,0,.14.08A.22.22,0,0,0,113.94,28.69Zm0,0,.14.08A.22.22,0,0,0,113.94,28.69Zm0,0,.14.08A.22.22,0,0,0,113.94,28.69Zm0,0,.14.08A.22.22,0,0,0,113.94,28.69Zm0,0,.14.08A.22.22,0,0,0,113.94,28.69Zm0,0,.14.08A.22.22,0,0,0,113.94,28.69Z"/><path class="cls-1" d="M136.41,23.62l.47.32.47.65v-20h-6.61v.13h.08c.05,0,.12,0,.22.15s.21.23.32.36a4,4,0,0,1,.28.43.69.69,0,0,1,.13.31s0,0-.13,0l-.28-.2L131,5.5a.4.4,0,0,0-.22-.11l-.08,0v9.47a.5.5,0,0,1,0,.18.7.7,0,0,1,0,.16V31.5h3.13c.69,0,1.34,0,1.93-.08s1-.11,1.55-.21V25.52a2.83,2.83,0,0,0-.2-.28l-.6-.75a3.24,3.24,0,0,0-.48-.52v-.35Zm-2.07-17h.44a.69.69,0,0,1-.44.69Zm.07,10.14a.28.28,0,0,1,.31.31c0,.23-.11.34-.31.34s-.29-.11-.29-.34S134.22,16.72,134.41,16.72Zm-1.18.5a.53.53,0,0,0-.13-.13.69.69,0,0,1-.15-.2c-.06-.1-.12-.24-.21-.43a2.06,2.06,0,0,1-.17-.48c-.07-.26-.12-.45-.14-.55l.08,0h.11c.08,0,.26.21.55.63s.58.89.89,1.44.59,1.07.83,1.59a3.14,3.14,0,0,1,.36,1.05h-.47l-.17-.31-.41-.74c-.15-.29-.32-.58-.48-.9s-.31-.57-.41-.79A.53.53,0,0,0,133.23,17.22Zm2.54,12.05a1.6,1.6,0,0,1-.23.35l-.08,0h-.11c-.11,0-.24-.11-.4-.33s-.32-.46-.5-.74-.34-.53-.48-.78a1.66,1.66,0,0,0-.35-.47l.14,0H134a.79.79,0,0,1,.4.22,5.1,5.1,0,0,1,.57.5l.55.55a5.66,5.66,0,0,0,.42.39A1.07,1.07,0,0,1,135.77,29.27Zm.17-22q-.31,0-.48-.42a2,2,0,0,0-.4-.65h.15l.17,0a2.12,2.12,0,0,1,.56.06,1.79,1.79,0,0,1,.54.32,1.32,1.32,0,0,1-.13.36.82.82,0,0,1-.22.33h-.06Z"/><path class="cls-1" d="M144.45,28a19,19,0,0,0-1.72,1,6.05,6.05,0,0,0-1.21,1h1.38v.37l-2.47,1.06v0h5.95a.9.9,0,0,0,.33-.34,1.6,1.6,0,0,0,.17-.46,2.43,2.43,0,0,1,.12-.43c0-.07,0-.16,0-.28V26.83l-.78.31A19.7,19.7,0,0,0,144.45,28Zm-.7,3.09h0l0,0h0a.18.18,0,0,1-.08-.12c0-.09,0-.14.16-.14s.21,0,.19.13A.2.2,0,0,1,143.75,31.09Zm1.56-2a.27.27,0,0,1,.19-.05.25.25,0,0,1,.29.29c0,.2-.1.31-.29.31l-.12,0a.28.28,0,0,1-.17-.29A.27.27,0,0,1,145.31,29.05Zm-.52.75a.31.31,0,0,1,.33-.2.32.32,0,0,1,.24.09h0a.4.4,0,0,1,.08.26.29.29,0,0,1-.32.32.29.29,0,0,1,.25.1.35.35,0,0,1,.06.18.17.17,0,0,1,0,.07.29.29,0,0,1-.32.32c-.23,0-.35-.11-.35-.31h0a.37.37,0,0,1,.09-.27.38.38,0,0,1,.26-.08c-.24,0-.35-.11-.35-.32a.77.77,0,0,1,0-.15ZM141.43,26a2,2,0,0,0-.94.22l-.06,0v3.51a11,11,0,0,0,1.76-.73q.93-.48,1.83-1c.59-.37,1.16-.74,1.7-1.1l1.32-.88h-5.61Z"/><path class="cls-1" d="M99.75,41.09h2.85l.81-4H98l-2,1.3L93.68,40v2a.78.78,0,0,1,.28.37,1,1,0,0,1,0,.68l-.23,0v.55H92.52l-.38,4.31h7l.36-.2a1.05,1.05,0,0,1,.64-.2c.14,0,.32.14.54.4h1.49l.36-4-.86-.22-.44-.07H99.75Zm-1.94-1.6c0,.22-.12.33-.37.33a.29.29,0,0,1-.33-.33q0-.36.33-.36A.32.32,0,0,1,97.81,39.49Zm1.91,24.25h0V49a4.84,4.84,0,0,0-1.2-.33,8.87,8.87,0,0,0-1.15-.09c-.46,0-.69,0-.69-.08h-3v17.4h6.07v-2l-.43.21a.76.76,0,0,1,.16-.2A.63.63,0,0,1,99.72,63.74Zm-2.43-.11a1.67,1.67,0,0,1,.34,0c.26,0,.39,0,.36.15s-.12.18-.36.18-.4-.06-.45-.18S97.2,63.65,97.29,63.63Zm-3.42-6.85h.81a6.3,6.3,0,0,1,1.44.17,1.42,1.42,0,0,1,.95.61l-.44,0-.4,0h-.66a3.81,3.81,0,0,1-1.11-.19C94.07,57.29,93.87,57.08,93.87,56.78Zm2.8,5.56c0,.25-.11.37-.33.37s-.33-.12-.33-.37.11-.37.33-.37S96.67,62.1,96.67,62.34ZM95.12,60.8c0-.25.1-.37.3-.37s.33.12.33.37a.29.29,0,0,1-.33.33Q95.12,61.13,95.12,60.8Zm2.87,4a1.29,1.29,0,0,1-.46.13,6.06,6.06,0,0,1-.79,0,5.78,5.78,0,0,1-.75,0,1.36,1.36,0,0,1-.46-.13c-.1,0,0-.09.27-.11a9.18,9.18,0,0,1,.94,0,9.41,9.41,0,0,1,1,0C98,64.72,98.09,64.76,98,64.81Zm1-1.44c0-.19.12-.29.37-.29a.25.25,0,0,1,.29.29c0,.25-.09.37-.29.37A.32.32,0,0,1,99,63.37Zm.56-14.83.24,0v0Z"/><path class="cls-1" d="M110.48,59.33l.23.14V43.59h-5.34l.21.23.28.35a.6.6,0,0,1,.12.23q0,.09-.12,0a1.64,1.64,0,0,1-.28-.16,2.61,2.61,0,0,0-.3-.2.71.71,0,0,0-.22-.1c-.18,0-.27-.09-.27-.3v-.08h-.15v8.22h.06c.2,0,.3.09.3.25a.27.27,0,0,1-.3.3h-.06V65.94h5l.22,0,.82-.08V60.16l-.09-.1a3.2,3.2,0,0,0-.47-.43v-.3Zm-2-14.35h.42a.6.6,0,0,1-.42.58Zm0,8.53c.21,0,.31.1.31.3s-.1.28-.31.28-.27-.09-.27-.28S108.35,53.51,108.53,53.51Zm-1.24.35a1.68,1.68,0,0,1-.37-.56,1.34,1.34,0,0,1-.17-.4c-.07-.22-.11-.38-.13-.46h.07l.11,0c.08,0,.26.18.53.54s.57.76.87,1.22.58.9.81,1.33a2.58,2.58,0,0,1,.35.9h-.46l-.17-.25-.39-.63c-.16-.24-.31-.5-.47-.76s-.3-.49-.4-.67A.47.47,0,0,0,107.29,53.86Zm2.57,10.25a1,1,0,0,1-.23.31h-.18c-.1,0-.23-.08-.38-.27s-.32-.39-.49-.62-.33-.46-.47-.67a1.61,1.61,0,0,0-.34-.41l.14,0h.2a.81.81,0,0,1,.38.18L109,63l.55.46a4.41,4.41,0,0,0,.41.32A1.06,1.06,0,0,1,109.86,64.11ZM110,45.59a.54.54,0,0,1-.48-.37,1.55,1.55,0,0,0-.37-.54l.13,0,.17,0a1.71,1.71,0,0,1,.55.07,2,2,0,0,1,.52.27.82.82,0,0,1-.13.29.85.85,0,0,1-.21.29h-.06A.25.25,0,0,1,110,45.59Zm-2.32-8.5-3.07.07,0,3.77s0,.1.12.18a.54.54,0,0,0,.18.15h.51c.25,0,.53,0,.84,0l.86,0h3.53V37.09Z"/><path class="cls-1" d="M113.79,43.63v4.62h8.54V43.63Zm6,8.5a2.58,2.58,0,0,0,.09.7v-1.3A2,2,0,0,0,119.78,52.13Zm-.36-1.62a5.52,5.52,0,0,1,.33-.8.78.78,0,0,1,.12-.19v-.63h-6.08V63.5l.39-.11h.7a1.93,1.93,0,0,1-.49.17l-.55.14h0v2.24h4.41v-.08q0-.27.3-.27c.16,0,.25.09.25.27a.19.19,0,0,1,0,.08h1.13V54.24a2.42,2.42,0,0,0-.41,0,1.29,1.29,0,0,0-.54.24,1.63,1.63,0,0,1-.52-.29,5.7,5.7,0,0,1-.6-.53.49.49,0,0,0,.14,0h.41l.15,0,.3.17a1,1,0,0,0,.31.13.6.6,0,0,0,.18-.12.83.83,0,0,0,.19-.18v-.15a1.57,1.57,0,0,0-.2-.76,1.69,1.69,0,0,1-.2-.8,3.64,3.64,0,0,1,.09-.59A6.4,6.4,0,0,1,119.42,50.51Zm-.29,15.35c-.12,0-.17,0-.17-.15s.05-.16.15-.12.18.08.18.12S119.24,65.84,119.13,65.86Zm.35-10.72c.18,0,.27.1.27.31s-.09.3-.27.3-.28-.1-.28-.3S119.29,55.14,119.48,55.14ZM118.83,65a.14.14,0,0,1,.13.15c0,.06,0,.12-.16.15s-.15,0-.15-.15S118.71,65,118.83,65Zm-.66-2.92s.09.09.15.28.12.42.18.66.12.48.17.7a3.57,3.57,0,0,1,.08.4c0,.2-.09.3-.25.3a.27.27,0,0,1-.3-.3s0-.13,0-.26,0-.29,0-.46l0-.53c0-.19,0-.35,0-.49S118.12,62.09,118.17,62.09Zm-3.81,3.25c-.18,0-.28-.1-.28-.3s.1-.3.28-.3a.3.3,0,1,1,0,.6Zm.52-1.09c-.17,0-.25-.1-.25-.31s.08-.24.25-.24.3.08.3.24S115.08,64.25,114.88,64.25Zm.9.3a.17.17,0,0,0-.14.19c0,.2-.08.3-.25.3s-.27-.1-.27-.3.09-.16.26-.19l.41,0C115.87,64.52,115.87,64.53,115.78,64.55Zm1,.67a9.39,9.39,0,0,1-.78-1.08,5,5,0,0,1-.53-1.11c-.11-.34,0-.54.17-.58a4.66,4.66,0,0,0,.26.59l.56,1.22.56,1.21,0,.06ZM126.4,45,126.33,47l-.6-2.54-1.3-.87h-1.72V60.9l.2.36c0,.13,0,.27,0,.4,0,.77,0,1.5-.08,2.18,0,.4-.07.83-.13,1.3v.8H124l0-.08c0-.1,0-.15.13-.15s.23.05.19.15a.56.56,0,0,1-.05.08h4.58V46.55Zm-1.59,19.79c-.21,0-.31-.1-.31-.28a1,1,0,0,0-.08-.33c0-.14-.08-.28-.13-.42l0-.1c-.07-.19-.11-.34-.15-.47s0-.2,0-.2.1.07.21.2.2.28.32.47a5.54,5.54,0,0,1,.29.52.94.94,0,0,1,.12.33c0,.16-.06.25-.19.27Zm-.31-4.85c0-.2.1-.3.31-.3s.24.1.24.3-.08.28-.24.28S124.5,60.07,124.5,59.89Zm1.21-.3-.31-.13-.31-.14-.59-.3a1.49,1.49,0,0,0-.31-.13h-.67a4.48,4.48,0,0,1,.48-.17l.5-.14h.37l.5.46.69.64S125.9,59.67,125.71,59.59Zm1.75,2.83c0,.16,0,.34-.08.53s-.07.39-.11.57a2.11,2.11,0,0,0-.06.36c0,.19-.09.28-.27.28s-.31-.09-.31-.28a1.38,1.38,0,0,1,.11-.36q.11-.27.24-.57l.26-.53c.08-.16.14-.24.19-.24S127.48,62.26,127.46,62.42Z"/><path class="cls-1" d="M137.86,52.72l-6.07,1.76v4l6.14-1.84,2.47-.74v10h1.74l.11-.07,1.82-1.23.09-.06L146,63.35l.49-.33V50.21Zm3.84,11c0-.17.08-.26.23-.26a.23.23,0,0,1,.26.26c0,.15-.09.23-.26.23A.21.21,0,0,1,141.7,63.69Zm-.82,1.56c.16,0,.21,0,.16.13s-.07.1-.16.1-.09,0-.12-.11S140.78,65.25,140.88,65.25Zm1.86-9.17a1.52,1.52,0,0,1-.39-.37,1.66,1.66,0,0,1-.25-.45,1.13,1.13,0,0,1-.09-.4v-.14c.12.11.25.21.4.33a4.4,4.4,0,0,1,.39.35,3.6,3.6,0,0,1,.31.4.87.87,0,0,1,.13.44A.79.79,0,0,1,142.74,56.08Zm.37.82a.23.23,0,0,1-.26.26c-.15,0-.23-.09-.23-.26s.08-.25.23-.25S143.11,56.73,143.11,56.9Zm.36-.25c-.16,0-.23-.07-.23-.21s.07-.25.23-.25.23.08.23.25S143.62,56.65,143.47,56.65Zm-.06,8.24c-.1,0-.15,0-.15-.13s.05-.12.15-.1.16,0,.16.1S143.52,64.86,143.41,64.89Zm2-1.71c-.14,0-.21-.08-.21-.23s.07-.23.21-.23.2.07.2.23S145.57,63.18,145.44,63.18Zm.34-1.16a1,1,0,0,1-.7.26.79.79,0,0,1,.29-.61,1.09,1.09,0,0,1,.74-.26A.75.75,0,0,1,145.78,62Zm-6.41,3.51.36,0a1.32,1.32,0,0,1,.29,0V61.48h-2.46v-4l-5.77,1.73V63l.06,0,1.38.93.08-.12a4,4,0,0,0,.25-.37,1,1,0,0,0,.14-.25s0,0,0,.14a1.93,1.93,0,0,1-.08.33,3.16,3.16,0,0,0-.12.37.14.14,0,0,1,0,.07l.94.62,1.72,1.16H140v-.25a.65.65,0,0,1-.29,0,.79.79,0,0,1-.44-.13S139.27,65.55,139.37,65.53Zm-1.26-.87a1.67,1.67,0,0,0,0-.19,1.67,1.67,0,0,1,0-.19c0-.12,0-.24,0-.36s.12-.2.31-.23v.23s-.06.17-.12.37A1.07,1.07,0,0,1,138.11,64.66Zm.31-1.71c.17,0,.26.07.26.23s-.09.25-.26.25-.23-.08-.23-.25A.2.2,0,0,1,138.42,63Zm.44,1.2a.35.35,0,0,1,0-.18s.07-.07.1,0a.21.21,0,0,1,.15.23c0,.15,0,.24-.15.26s-.07,0-.1-.07A.41.41,0,0,1,138.86,64.15Zm-1.57-1.72c.17,0,.26.07.26.23s-.09.23-.26.23-.2-.08-.2-.23S137.16,62.43,137.29,62.43ZM137,63.89a.2.2,0,0,1,.23.23.23.23,0,1,1-.46,0A.2.2,0,0,1,137,63.89Zm-.31-.26v.26h-.28Zm-.59-.74c.1,0,.16.07.16.13s-.06.09-.16.12-.15,0-.15-.12S136,62.85,136.11,62.89Zm-.93-2.38c0-.29,0-.6.09-.94s.07-.63.11-.89.08-.4.12-.4.08.13.1.4,0,.56,0,.91V61c0,.18-.08.26-.24.26s-.25-.08-.25-.26S135.15,60.8,135.18,60.51Zm-.32,3.28a2.58,2.58,0,0,1,.5.06l.37.06a.4.4,0,0,0,.22-.07c.07-.05.11,0,.11,0s-.08.23-.25.23a1.13,1.13,0,0,1-.22,0,1.63,1.63,0,0,1-.36,0l-.35-.07q-.15,0-.15-.12S134.77,63.79,134.86,63.79ZM139,65.38c-.08,0-.07-.1,0-.19s.19-.11.24,0,.05.15,0,.2S139.13,65.41,139,65.38Zm3.13-21.79h-5.81l-2.75,1.83-.45.31a1.15,1.15,0,0,0,.08.15.84.84,0,0,1,.09.42,1,1,0,0,1-.08.37.72.72,0,0,0-.08.24s0,0-.11-.08a.39.39,0,0,0-.19-.13.44.44,0,0,1,0-.39c0-.15.08-.28.1-.39v-.06l-1,.66v4h5.62l-.22-.81.22,0V48.06h2.84v3.25l5-1.46.77-.23h0l.18,0,.1,0v-3Z"/><path class="cls-1" d="M163.51,45.85l-1.56.43h-.13l-.2,0-.21,0h-.15a1,1,0,0,1,.57-.51,5.41,5.41,0,0,1,1-.31l.11,0-2.7-1.81h-1.72v2.65h.73v.27h-.73V57.87h1v1.78a.5.5,0,0,1-.36.55,3.13,3.13,0,0,1-.65.12v5.61h.67l3.76-.3h.36l1.29.28v-.47a.23.23,0,0,1-.26.19.27.27,0,1,1,0-.54.23.23,0,0,1,.26.19V64h-.05q-.3,0-.3-.27c0-.19.1-.27.3-.27h.05V46.55Zm-4.36,19.52c0,.08-.08.12-.18.12s-.1,0-.13-.14,0-.13.13-.13S159.21,65.27,159.15,65.37Zm.73-19.09q.18.06.18.12t-.18.15q-.18.06-.18-.15T159.88,46.28Zm.66,19.09q0,.12-.15.12a.19.19,0,0,1-.18-.14c0-.08,0-.13.18-.13S160.58,65.27,160.54,65.37Zm1.2-5.5s-.1-.06-.18-.18a3.92,3.92,0,0,1-.24-.42l-.24-.5a1.93,1.93,0,0,1-.15-.41l.63-2a1.76,1.76,0,0,1,.06.42v1.36c0,.17,0,.26,0,.26s.12.07.23.2.22.28.34.45l.33.48a1.16,1.16,0,0,1,.15.26s-.16.06-.48.06h-.31Zm1.89,5.23c0,.08-.08.12-.17.12a.19.19,0,0,1-.19-.13c0-.1,0-.14.19-.14S163.67,65,163.63,65.1Zm-.14-1.38c-.19,0-.28-.09-.28-.27a.91.91,0,0,0-.22-.38l-.47-.62-.42-.58c-.12-.17-.16-.26-.12-.26a1.28,1.28,0,0,1,.36.26,8.09,8.09,0,0,1,.62.58l.57.62c.17.19.25.32.25.38S163.69,63.72,163.49,63.72ZM149.56,48.89V60.83q.06-.12.27-.12a.22.22,0,0,1,.25.24c0,.2-.09.3-.25.3a.26.26,0,0,1-.27-.15v4.84h5.17s.07,0,.14-.12a1.48,1.48,0,0,1,.19-.18,3,3,0,0,0,.55-1.22l0-.16V56.4a10.63,10.63,0,0,0-.27-1l-2,1.71h-1.41v-.42a3.33,3.33,0,0,0,1.46-.35,4.38,4.38,0,0,0,1.23-.88,4.48,4.48,0,0,0,.84-1.2,3.69,3.69,0,0,0,.17-.42V48.89Zm1.09,7.4c-.53,0-.79-.23-.79-.69C150.38,55.6,150.65,55.83,150.65,56.29Zm-.73,1.08h.67v.36A.68.68,0,0,1,149.92,57.37Zm.64,4.18q0-.3.27-.3a.27.27,0,0,1,.3.3q0,.27-.3.27A.24.24,0,0,1,150.56,61.55Zm1.74,2.68q-.27,0-.27-.3a.27.27,0,1,1,.54,0Q152.57,64.23,152.3,64.23Zm1.71,0c.19,0,.27.1.27.3a.23.23,0,0,1-.27.27q-.3,0-.3-.27A.27.27,0,0,1,154,64.23Zm-1-2c.2,0,.3.09.3.28s-.1.27-.3.27a.24.24,0,0,1-.27-.27C152.72,62.33,152.81,62.24,153,62.24Zm-.16,1,.54.24c.15.06.24,0,.28,0v.33a6.49,6.49,0,0,1-.93-.08,4.83,4.83,0,0,1-1-.25.28.28,0,0,1,.12.23c0,.19-.08.28-.24.28s-.27-.09-.27-.28a.24.24,0,0,1,.27-.26h.06a1.29,1.29,0,0,1-.75-.6l.33,0h.36a1.23,1.23,0,0,1,.54.15Zm-.89-5.3c0,.1-.1.16-.18.16s-.11,0-.14-.13,0-.12.14-.12S152,57.85,151.94,57.91Zm1.71-2.25q-.21,0-.21-.3t.21-.3q.27,0,.27.3T153.65,55.66Zm1.41-1.14c-.17,0-.26-.1-.26-.3s.09-.27.26-.27.24.08.24.27S155.23,54.52,155.06,54.52Zm-5.5-10.89v4.62h8.28V43.63Zm5.87,2.92h-2.77a3.55,3.55,0,0,1,1-.27c.29,0,.64,0,1.07,0h.51l.51,0Z"/><path class="cls-1" d="M178,43.59h-6l-4.35,2.93v1.92h8.93v3h5.73v-5Zm-5.26,1.22a2.47,2.47,0,0,1,.49-.39,5.83,5.83,0,0,1,.6-.32,4.75,4.75,0,0,1,.52-.2v.3l-1.75,1.18a.16.16,0,0,0,0-.08.16.16,0,0,1,0-.08A.59.59,0,0,1,172.76,44.81Zm2.81,20.4h-2.49l.37.31c-.08.16-.18.25-.29.26h-.41a3.78,3.78,0,0,1-1.2-.17l.47.32h3.33l.5-.42Zm.3-4.12h-2.12v-12h-6.08V58.3a.91.91,0,0,0,.09.17,2.58,2.58,0,0,0,.31.36l.35.31.26.2s0,.09-.12.16a.3.3,0,0,1-.18.11,1.09,1.09,0,0,1-.4-.11,1.34,1.34,0,0,1-.31-.14V63l1.07.72.19.13.42.28.71.47.72.48c.28-.08.58-.15.9-.22l1.08-.18a6.23,6.23,0,0,1,.69-.08l.19,0,.32.09.32.09.22.05h.34a1.44,1.44,0,0,0-.37-.29c-.17-.09-.34-.18-.51-.25l-.51-.2-.37-.12a.25.25,0,0,0,0-.08l0,0a.58.58,0,0,1,0-.1v-.06a.86.86,0,0,1,.17-.17,1.23,1.23,0,0,1,.2-.13l.06,0,.09,0a1.65,1.65,0,0,1,.36.11l.63.25a6.21,6.21,0,0,1,.63.29,1.07,1.07,0,0,1,.35.25,1,1,0,0,0,.31-.77v-.86C175.88,62.22,175.88,61.69,175.87,61.09Zm-7.86,0c-.2,0-.31-.1-.31-.28a.28.28,0,0,1,.31-.31c.18,0,.28.11.28.31A.25.25,0,0,1,168,61.09Zm.61-3.81s-.08-.19-.13-.56-.11-.78-.16-1.24-.1-.89-.14-1.28-.06-.62-.06-.68,0-.22,0-.35.06-.2.17-.2.3.09.3.27,0,.2,0,.47,0,.57,0,.92,0,.71,0,1.08,0,.69,0,1S168.66,57.28,168.62,57.28Zm1.5,3.74a.25.25,0,0,0,0,.07,4.7,4.7,0,0,1-.78-.36.66.66,0,0,1-.36-.63,1.05,1.05,0,0,1,.7.23,3.84,3.84,0,0,1,.44.48l0,.06a.39.39,0,0,1,0,.09A.13.13,0,0,1,170.12,61Zm.69,2.71a.27.27,0,0,1-.31-.31c0-.2.1-.3.31-.3s.27.1.27.3S171,63.73,170.81,63.73Zm1-.21a.52.52,0,0,1-.31.21.69.69,0,0,0,.11-.64,1.12,1.12,0,0,0-.34-.45,5.93,5.93,0,0,1-.44-.43.86.86,0,0,1-.22-.59.3.3,0,0,1-.18.05c-.19,0-.28-.1-.28-.31s.09-.27.28-.27a.25.25,0,0,1,.28.27.3.3,0,0,1-.09.25,1.19,1.19,0,0,1,.87.23,1.22,1.22,0,0,1,.2.78.9.9,0,0,0,.06.34,1.71,1.71,0,0,1,.09.3A.39.39,0,0,1,171.82,63.52Zm3.38.24a.27.27,0,0,1-.3-.3c0-.21.1-.31.3-.31s.28.1.28.31S175.39,63.76,175.2,63.76ZM176.6,57v4.53l.08.24a1.78,1.78,0,0,1,.06.51v3.62l.33.06h.8a.33.33,0,0,1,0-.15.25.25,0,0,1,.28-.27.24.24,0,0,1,.27.18L180.88,64h-1.44a.52.52,0,0,1,.23-.48,1.15,1.15,0,0,1,.57-.14,1,1,0,0,1,.53.14A.48.48,0,0,1,181,64l1.43-.95V57Zm1.81,8.09c-.07.11-.28.16-.63.14a1.12,1.12,0,0,1-.26-.59,3.35,3.35,0,0,1-.1-.58,1,1,0,0,1,.29-.32,1,1,0,0,1,.41-.26.54.54,0,0,0-.08.38.67.67,0,0,0,.16.25l.21.23a.44.44,0,0,1,.11.33A.69.69,0,0,1,178.41,65.07ZM177.6,63c0-.11.06-.15.18-.13s.16.08.16.13-.06.13-.17.15S177.6,63.12,177.6,63Z"/><path class="cls-1" d="M198.82,45.76l-2.53.69h-.14l-.19,0-.21,0h-.15a1,1,0,0,1,.57-.51,5.43,5.43,0,0,1,1-.3c.36-.09.73-.16,1.12-.23h0l-2.65-1.78,0,0h-1.44v2.84h0c.12,0,.19.08.19.12s-.07.11-.19.15h0V52.6h-8.91v2.6h14.67V46.51Zm-7.57,8.63a.24.24,0,0,1,.27-.27q.24,0,.24.27t-.24.3Q191.25,54.69,191.25,54.39ZM189.58,43.6l-4.32,2.91V52h6.05V48.05h2.47V43.6ZM188,46.45c.3,0,.65,0,1.07,0h.51l.52,0-.36.27H187A3.5,3.5,0,0,1,188,46.45Zm5.53.27h-1.39v-.27h1.39Z"/><path class="cls-1" d="M196,58.08v.28q0,.27,0,.27s.12.06.23.19.22.29.34.45l.33.49A1.24,1.24,0,0,1,197,60s-.16.06-.48.06h-.32l-.16,0s-.1-.06-.18-.18a3.92,3.92,0,0,1-.24-.42c-.08-.16-.16-.32-.24-.5a1.71,1.71,0,0,1-.15-.4l.15-.46h-1.25v3.4h-2.86V56l-1.51,1.28h-1.41v-.42a3.29,3.29,0,0,0,1.46-.34,4.66,4.66,0,0,0,1-.64h-4.1a.59.59,0,0,1,.38.62c-.5,0-.76-.2-.78-.62h-1.06V63l4.32,2.92h6l2.95-2a.28.28,0,0,1,0-.09q0-.27.3-.27a.36.36,0,0,1,.19,0l1-.64V58.08Zm-6.52,4.34q.3,0,.3.27t-.3.27a.27.27,0,1,1,0-.54ZM188.21,58q.27,0,.18.09t-.18.15a.14.14,0,0,1-.13-.12C188,58,188.09,58,188.21,58ZM187,57.55v.36a.66.66,0,0,1-.66-.36Zm-.76,3.88a.27.27,0,0,1-.3-.31c0-.15.1-.24.3-.24a.22.22,0,0,1,.24.24C186.52,61.32,186.44,61.43,186.28,61.43Zm.73.3q0-.3.27-.3a.27.27,0,0,1,.3.3q0,.27-.3.27A.24.24,0,0,1,187,61.73Zm1.74,2.67q-.27,0-.27-.3a.27.27,0,0,1,.54,0Q189,64.4,188.75,64.4Zm1.35-.48a6.38,6.38,0,0,1-.93-.07,4.24,4.24,0,0,1-1-.26.29.29,0,0,1,.12.24q0,.27-.24.27a.27.27,0,1,1,0-.54h.06a1.25,1.25,0,0,1-.75-.6l.33,0h.36a1.38,1.38,0,0,1,.54.15l.65.3.54.24c.15.06.24.05.28,0Zm.37,1.06c-.2,0-.31-.1-.31-.27a.28.28,0,0,1,.31-.31c.17,0,.27.1.27.31A.25.25,0,0,1,190.47,65Zm1.67.84q-.3,0-.3-.27a.26.26,0,0,1,.21-.27h.09a.23.23,0,0,1,.27.27A.24.24,0,0,1,192.14,65.82Zm5.68-1.93c-.18,0-.26-.09-.26-.27s-.08-.18-.23-.37l-.47-.62-.42-.59c-.12-.17-.16-.25-.12-.25a1.13,1.13,0,0,1,.36.25,8.32,8.32,0,0,1,.62.59c.21.22.4.42.57.62s.26.31.26.37S198,63.89,197.82,63.89Z"/><path class="cls-1" d="M107.12,30.72l.68-.24a2.64,2.64,0,0,1,.38-.11h1.09l.23,0,.44-.07.34-.06V25.93L109,21.62l-1.27-4.19,2.07-1.62v-.54h-8.83v5.08h1.49l.42,2.09.12.6.46,2.27V29l.18-.05.31-.09a.34.34,0,0,0,.1,0l.07-.07a.15.15,0,0,1-.07.07l-.27.23a3.64,3.64,0,0,0-.32.29V31.5h6.85v-.42l-.14,0a7.71,7.71,0,0,1-1.27.09l-.42.05a4.92,4.92,0,0,1-.67,0,4.59,4.59,0,0,1-.59-.06l-.69-.11-.36,0a1.57,1.57,0,0,1,.32-.14C106.66,30.87,106.88,30.8,107.12,30.72Zm3.08-1.25a.34.34,0,0,1-.08.26.29.29,0,0,1-.23.09h0c-.19,0-.28-.11-.28-.34s.1-.34.28-.34S110.2,29.25,110.2,29.47Zm-.62-1.36c.17,0,.25.11.25.34s-.08.37-.25.37-.31-.12-.31-.37S109.37,28.11,109.58,28.11Zm-.71,1a1.05,1.05,0,0,1-.61.44c-.27.08-.57.15-.86.22s-.33.08-.5.12l.62-.39A3.45,3.45,0,0,1,108.87,29.13Zm-3.69-.34a.28.28,0,0,1,.31.31c0,.23-.1.34-.31.34s-.31-.11-.31-.34A.28.28,0,0,1,105.18,28.79Zm-.9.84c-.08,0-.14-.06-.17-.19s0-.18.17-.18.21.06.19.18S104.36,29.63,104.28,29.63Zm.71.16h-.18l.37-.21.53-.29.52-.3.38-.2h.06l.12,0,.06,0h.06l-.38.26a4.32,4.32,0,0,1-.5.33,5.52,5.52,0,0,1-.54.28A1.16,1.16,0,0,1,105,29.79Z"/><path class="cls-1" d="M93.7,10.68V31.5h6.62V10.68ZM98.08,27.6c0-.11.08-.16.12-.14s.19.23.19.5-.06.43-.19.49-.08,0-.12-.11A1.31,1.31,0,0,1,98,28,1,1,0,0,1,98.08,27.6ZM96.47,15.22q.24,0,.24.3c0,.23-.08.34-.24.34s-.31-.11-.31-.34S96.26,15.22,96.47,15.22ZM94.34,21.1,95,19.86c.26-.47.55-1,.87-1.51s.62-1,.9-1.49.52-.84.73-1.15a2.69,2.69,0,0,1,.37-.49v.3a4.08,4.08,0,0,1-.37,1.68,11.34,11.34,0,0,1-.9,1.63c-.35.52-.72,1-1.1,1.51s-.72.95-1,1.38h-.4A3.17,3.17,0,0,1,94.34,21.1Zm2.59-1.05c-.14,0-.22-.11-.22-.34s.08-.37.22-.37.31.12.31.37S97.14,20.05,96.93,20.05Zm.37,9.26a1.77,1.77,0,0,0,.19-.18l-.37.69a.31.31,0,0,0,0-.08.25.25,0,0,1,0-.08.54.54,0,0,1,0-.11l0-.08Zm.19.85a.23.23,0,0,0,0,.09.23.23,0,0,1,0,.09.33.33,0,0,1,0,.1l0,.06a.5.5,0,0,1-.15.2.85.85,0,0,1-.22.14h-.06l-.13,0-.06,0h-.06Zm-1.39,0,.37.34h-.75ZM96,20.36a.28.28,0,0,1,.31-.31c.19,0,.28.1.28.31s-.09.34-.28.34S96,20.59,96,20.36Zm.19,8.77a.28.28,0,0,1,.31-.31c.16,0,.24.11.24.31s-.08.34-.24.34S96.16,29.36,96.16,29.13Z"/><path class="cls-1" d="M104.47,29.44c0,.13-.11.19-.19.19s-.14-.06-.17-.19,0-.18.17-.18S104.49,29.32,104.47,29.44Z"/><path class="cls-1" d="M108.89,7.14l-2.5-1.67v.9l-.34.34a5.52,5.52,0,0,1-.47-1.5c0-.11,0-.21,0-.31L105,4.58H93.7V10h9.69v4.59h6.38V7.73Zm.29,2.37c0,.23-.1.34-.28.34a.29.29,0,0,1-.19-.07.38.38,0,0,1-.09-.27c0-.21.09-.31.28-.31a.24.24,0,0,1,.26.19A.43.43,0,0,1,109.18,9.51Z"/><path class="cls-1" d="M104.09,28.79a.15.15,0,0,1-.07.07Z"/><path class="cls-1" d="M127.76,27.24c0,.23-.1.35-.29.35s-.25-.12-.25-.35.09-.34.25-.34S127.76,27,127.76,27.24Z"/><path class="cls-1" d="M127.66,29.64c0,.21-.06.32-.19.35s-.07,0-.09-.07a1.2,1.2,0,0,1,0-.28c0-.26,0-.37.12-.35A.35.35,0,0,1,127.66,29.64Z"/><path class="cls-1" d="M128.47,30.41v.14l-.27.13a.65.65,0,0,1,.17-.19Z"/></svg>