<svg width="256" height="256" viewBox="0 0 256 256" fill="none" xmlns="http://www.w3.org/2000/svg">
<rect width="256" height="256" fill="#121314"/>
<path d="M96.7037 74.6525C93.5 74.6525 90.4074 75.9304 88.1481 78.1898L77.0741 89.2649C74.7963 91.5429 73.537 94.6173 73.537 97.8213V160.438C73.537 163.642 74.8148 166.735 77.0741 168.995L88.1481 180.07C90.4259 182.348 93.5 183.607 96.7037 183.607H159.315C162.519 183.607 165.611 182.329 167.87 180.07L178.944 168.995C181.222 166.717 182.481 163.642 182.481 160.438V97.8213C182.481 94.6173 181.204 91.5244 178.944 89.2649L167.87 78.1898C165.593 75.9118 162.519 74.6525 159.315 74.6525H96.7037ZM164.315 161.438C164.315 163.661 162.5 165.476 160.278 165.476H95.7037C93.4815 165.476 91.6667 163.661 91.6667 161.438V96.8582C91.6667 94.6358 93.4815 92.8208 95.7037 92.8208H160.278C162.5 92.8208 164.315 94.6358 164.315 96.8582V161.438Z" fill="#F5F5EF"/>
<path d="M58.2593 209.85H60.2778C62.5 209.85 64.3148 208.035 64.3148 205.813V195.719C64.3148 193.497 62.5 191.682 60.2778 191.682H50.1852C47.963 191.682 46.1481 193.497 46.1481 195.719V197.738C46.1481 204.424 51.5741 209.85 58.2593 209.85Z" fill="#F5F5EF"/>
<path d="M164.315 205.813C164.315 208.035 162.5 209.85 160.278 209.85H95.7037C93.4815 209.85 91.6667 208.035 91.6667 205.813V195.719C91.6667 193.497 89.8519 191.682 87.6296 191.682H77.537C75.3148 191.682 73.5 193.497 73.5 195.719V204.831C73.5 208.035 74.7778 211.128 77.037 213.388L88.1111 224.463C90.3889 226.741 93.463 228 96.6667 228H159.278C162.481 228 165.574 226.722 167.833 224.463L178.907 213.388C181.185 211.11 182.444 208.035 182.444 204.831V195.719C182.444 193.497 180.63 191.682 178.407 191.682H168.315C166.093 191.682 164.278 193.497 164.278 195.719V205.813H164.315Z" fill="#F5F5EF"/>
<path d="M195.722 209.85H197.741C204.426 209.85 209.852 204.424 209.852 197.738V195.719C209.852 193.497 208.037 191.682 205.815 191.682H195.722C193.5 191.682 191.685 193.497 191.685 195.719V205.813C191.685 208.035 193.5 209.85 195.722 209.85Z" fill="#F5F5EF"/>
<path d="M197.741 46.1683H195.722C193.5 46.1683 191.685 47.9833 191.685 50.2058V60.2993C191.685 62.5217 193.5 64.3367 195.722 64.3367H205.815C208.037 64.3367 209.852 62.5217 209.852 60.2993V58.2806C209.852 51.5948 204.426 46.1683 197.741 46.1683Z" fill="#F5F5EF"/>
<path d="M50.2037 64.3182H60.2963C62.5185 64.3182 64.3333 62.5032 64.3333 60.2808V50.1872C64.3333 47.9648 62.5185 46.1498 60.2963 46.1498H58.2778C51.5926 46.1498 46.1667 51.5763 46.1667 58.2621V60.2808C46.1667 62.5032 47.9815 64.3182 50.2037 64.3182Z" fill="#F5F5EF"/>
<path d="M96.7037 28C93.5 28 90.4074 29.2779 88.1481 31.5374L77.0741 42.6125C74.7963 44.8905 73.537 47.9648 73.537 51.1688V60.2808C73.537 62.5032 75.3519 64.3182 77.5741 64.3182H87.6667C89.8889 64.3182 91.7037 62.5032 91.7037 60.2808V50.1872C91.7037 47.9648 93.5185 46.1498 95.7407 46.1498H160.315C162.537 46.1498 164.352 47.9648 164.352 50.1872V60.2808C164.352 62.5032 166.167 64.3182 168.389 64.3182H178.481C180.704 64.3182 182.519 62.5032 182.519 60.2808V51.1688C182.519 47.9648 181.241 44.8719 178.981 42.6125L167.907 31.5374C165.63 29.2594 162.556 28 159.352 28H96.7037Z" fill="#F5F5EF"/>
<path d="M31.537 88.1352C29.2593 90.4132 28 93.4875 28 96.6915V159.308C28 162.512 29.2778 165.605 31.537 167.865L42.6111 178.94C44.8889 181.218 47.963 182.477 51.1667 182.477H60.2778C62.5 182.477 64.3148 180.662 64.3148 178.44V168.346C64.3148 166.124 62.5 164.309 60.2778 164.309H50.1852C47.963 164.309 46.1481 162.494 46.1481 160.272V95.6914C46.1481 93.469 47.963 91.654 50.1852 91.654H60.2778C62.5 91.654 64.3148 89.8391 64.3148 87.6166V77.5231C64.3148 75.3007 62.5 73.4857 60.2778 73.4857H51.1667C47.963 73.4857 44.8704 74.7636 42.6111 77.0231L31.537 88.0982V88.1352Z" fill="#F5F5EF"/>
<path d="M204.833 73.5227H195.722C193.5 73.5227 191.685 75.3377 191.685 77.5601V87.6537C191.685 89.8761 193.5 91.6911 195.722 91.6911H205.815C208.037 91.6911 209.852 93.5061 209.852 95.7285V160.309C209.852 162.531 208.037 164.346 205.815 164.346H195.722C193.5 164.346 191.685 166.161 191.685 168.383V178.477C191.685 180.699 193.5 182.514 195.722 182.514H204.833C208.037 182.514 211.13 181.236 213.389 178.977L224.463 167.902C226.741 165.624 228 162.549 228 159.345V96.7286C228 93.5246 226.722 90.4317 224.463 88.1722L213.389 77.0971C211.111 74.8192 208.037 73.5598 204.833 73.5598V73.5227Z" fill="#F5F5EF"/>
</svg>
