<svg width="1183" height="1183" viewBox="0 0 1183 1183" fill="none" xmlns="http://www.w3.org/2000/svg">
<mask id="mask0_47_20" style="mask-type:alpha" maskUnits="userSpaceOnUse" x="0" y="0" width="1183" height="1183">
<circle cx="591.5" cy="591.5" r="591.5" fill="#1A212B"/>
</mask>
<g mask="url(#mask0_47_20)">
<circle cx="591.5" cy="591.5" r="591.5" fill="#1A212B"/>
<g opacity="0.09">
<g filter="url(#filter0_f_47_20)">
<path fill-rule="evenodd" clip-rule="evenodd" d="M877.619 362.605C658.39 283.081 288.571 350.225 151.724 476.94C81.9148 541.58 54.5755 615.405 58.5785 692.533L452.445 1117.9L1057.59 557.558C1057.54 557.305 1057.49 557.053 1057.43 556.8L877.619 362.605Z" fill="#3DFFFF"/>
</g>
</g>
<path fill-rule="evenodd" clip-rule="evenodd" d="M279 598.969C286.917 611.534 301.935 623.92 342.858 623.861H740.966C756.393 623.861 773.798 635.418 779.91 649.76L845.922 806.042C851.976 820.384 844.35 832 828.924 832H420.92C396.645 830.459 374.118 824.058 363.698 799.404L279 598.969ZM621.342 275.678L688.11 433.916C694.164 448.318 690.381 469.06 679.612 480.321L582.806 583.501H362.708C327.839 583.916 307.174 570.463 336.804 537.689L590.955 270.048C601.666 258.788 615.288 261.277 621.342 275.678Z" fill="#60DDBF"/>
<circle opacity="0.94" cx="591.5" cy="591.497" r="531.5" stroke="url(#paint0_linear_47_20)" stroke-width="120"/>
</g>
<defs>
<filter id="filter0_f_47_20" x="-341.802" y="-71.7202" width="1799.39" height="1589.62" filterUnits="userSpaceOnUse" color-interpolation-filters="sRGB">
<feFlood flood-opacity="0" result="BackgroundImageFix"/>
<feBlend mode="normal" in="SourceGraphic" in2="BackgroundImageFix" result="shape"/>
<feGaussianBlur stdDeviation="200" result="effect1_foregroundBlur_47_20"/>
</filter>
<linearGradient id="paint0_linear_47_20" x1="-4.88185e-07" y1="591.497" x2="1183" y2="591.497" gradientUnits="userSpaceOnUse">
<stop offset="0.0520833" stop-color="#60DDBF"/>
<stop offset="1" stop-color="#56E4C2"/>
</linearGradient>
</defs>
</svg>
