<svg version="1.1" xmlns="http://www.w3.org/2000/svg" viewBox="0 0 100 100">
  <path
    d="M0 0 C8.64822802 6.87119486 15.44311132 18.01837448 17 29 C18.40895106 46.55709566 15.56638733 59.95954698 4.4140625 73.99609375 C-3.81286908 83.00558711 -15.56118495 88.6401856 -27.6484375 89.3125 C-44.13318085 89.87527929 -57.29779856 86.1831071 -69.75 74.8125 C-80.88341536 62.87619411 -83.80272194 49.59143924 -83.34375 33.85546875 C-82.66010765 21.18611097 -76.33281061 9.26446012 -67.0703125 0.625 C-46.64754218 -15.40494803 -20.73790664 -15.44661826 0 0 Z "
    fill="#448B97" transform="translate(83,11)" />
  <path
    d="M0 0 C7.0228125 -0.0928125 7.0228125 -0.0928125 14.1875 -0.1875 C15.65598389 -0.21481201 17.12446777 -0.24212402 18.63745117 -0.27026367 C19.80252197 -0.27775635 20.96759277 -0.28524902 22.16796875 -0.29296875 C23.35672607 -0.3086792 24.5454834 -0.32438965 25.77026367 -0.34057617 C29.31590796 0.03331254 31.17058165 0.87122417 34 3 C34.495 3.99 34.495 3.99 35 5 C35.33 3.35 35.66 1.7 36 0 C39.35386761 -0.1171893 42.70720149 -0.18757584 46.0625 -0.25 C47.00544922 -0.28351562 47.94839844 -0.31703125 48.91992188 -0.3515625 C55.1818178 -0.43883631 58.9610859 0.17229898 64 4 C66.68274981 7.71638273 66.25439786 11.8764761 66.1953125 16.265625 C66.1924826 17.05902283 66.18965271 17.85242065 66.18673706 18.66986084 C66.17556779 21.19672917 66.15046944 23.72323932 66.125 26.25 C66.11496598 27.9661407 66.10584087 29.68228698 66.09765625 31.3984375 C66.07563914 35.59909574 66.04113187 39.7994872 66 44 C63.36 44 60.72 44 58 44 C57.97494385 42.97527588 57.9498877 41.95055176 57.92407227 40.89477539 C57.83015516 37.10590324 57.72989683 33.31722119 57.62768555 29.52856445 C57.58427703 27.88635697 57.54260642 26.24410261 57.50268555 24.60180664 C57.4451256 22.24611255 57.38139108 19.89065572 57.31640625 17.53515625 C57.29969376 16.79660904 57.28298126 16.05806183 57.26576233 15.2971344 C57.46451987 11.85699373 57.46451987 11.85699373 56 9 C54.58672053 8.84379445 53.1664541 8.74943827 51.74609375 8.68359375 C50.9770874 8.64548584 50.20808105 8.60737793 49.41577148 8.56811523 C48.43294189 8.52501221 47.4501123 8.48190918 46.4375 8.4375 C43.323125 8.293125 40.20875 8.14875 37 8 C37 19.88 37 31.76 37 44 C34.36 44 31.72 44 29 44 C28.97494385 42.97527588 28.9498877 41.95055176 28.92407227 40.89477539 C28.83015516 37.10590324 28.72989683 33.31722119 28.62768555 29.52856445 C28.58427703 27.88635697 28.54260642 26.24410261 28.50268555 24.60180664 C28.4451256 22.24611255 28.38139108 19.89065572 28.31640625 17.53515625 C28.29969376 16.79660904 28.28298126 16.05806183 28.26576233 15.2971344 C28.46451987 11.85699373 28.46451987 11.85699373 27 9 C25.58672053 8.84379445 24.1664541 8.74943827 22.74609375 8.68359375 C21.9770874 8.64548584 21.20808105 8.60737793 20.41577148 8.56811523 C19.43294189 8.52501221 18.4501123 8.48190918 17.4375 8.4375 C14.323125 8.293125 11.20875 8.14875 8 8 C8 19.88 8 31.76 8 44 C5.36 44 2.72 44 0 44 C0 29.48 0 14.96 0 0 Z "
    fill="#FCFDFD" transform="translate(17,28)" />
</svg>