<svg xmlns="http://www.w3.org/2000/svg" xmlns:xlink="http://www.w3.org/1999/xlink" width="256" zoomAndPan="magnify" viewBox="0 0 192 191.999996" height="256" preserveAspectRatio="xMidYMid meet" version="1.0"><defs><g/></defs><path stroke-linecap="butt" transform="matrix(6.218172, 0, 0, 6.218172, -65.669569, -40.799789)" fill="none" stroke-linejoin="miter" d="M 39.429801 30.625174 L 39.429801 32.000302 L 12.546649 32.000302 L 12.546649 30.625174 L 19.87522 30.625174 C 18.125057 29.620055 16.742391 28.244927 15.726593 26.49979 C 14.716449 24.750256 14.210749 22.797185 14.210749 20.640578 C 14.210749 17.354468 15.340879 14.606725 17.601767 12.398606 C 19.862028 10.189858 22.656257 9.086112 25.984456 9.086112 C 29.312655 9.086112 32.106884 10.189858 34.367145 12.398606 C 36.633059 14.606725 37.765702 17.354468 37.765702 20.640578 C 37.765702 22.775826 37.258117 24.728897 36.242319 26.49979 C 35.231546 28.265658 33.851393 29.640786 32.101859 30.625174 Z M 31.601812 14.913915 C 30.075288 13.335879 28.203255 12.546861 25.984456 12.546861 C 23.765657 12.546861 21.892995 13.335879 20.3671 14.913915 C 18.84623 16.491951 18.086109 18.406073 18.086109 20.656283 C 18.086109 22.906492 18.84623 24.820614 20.3671 26.39865 C 21.892995 27.976686 23.765657 28.765705 25.984456 28.765705 C 28.203255 28.765705 30.075288 27.976686 31.601812 26.39865 C 33.127708 24.820614 33.890341 22.906492 33.890341 20.656283 C 33.890341 18.406073 33.127708 16.491951 31.601812 14.913915 Z M 31.601812 14.913915 " stroke="#001b53" stroke-width="0.800015" stroke-opacity="1" stroke-miterlimit="4"/><g fill="#2d55a6" fill-opacity="1"><g transform="translate(12.349059, 158.181718)"><g><path d="M 167.140625 -8.5625 L 167.140625 0 L 0 0 L 0 -8.5625 L 45.5625 -8.5625 C 34.6875 -14.789062 26.097656 -23.34375 19.796875 -34.21875 C 13.492188 -45.101562 10.34375 -57.242188 10.34375 -70.640625 C 10.34375 -91.066406 17.375 -108.144531 31.4375 -121.875 C 45.5 -135.601562 62.875 -142.46875 83.5625 -142.46875 C 104.257812 -142.46875 121.640625 -135.601562 135.703125 -121.875 C 149.765625 -108.144531 156.796875 -91.066406 156.796875 -70.640625 C 156.796875 -57.367188 153.644531 -45.226562 147.34375 -34.21875 C 141.039062 -23.207031 132.453125 -14.65625 121.578125 -8.5625 Z M 118.484375 -106.25 C 109.003906 -116.070312 97.363281 -120.984375 83.5625 -120.984375 C 69.769531 -120.984375 58.128906 -116.070312 48.640625 -106.25 C 39.160156 -96.4375 34.421875 -84.53125 34.421875 -70.53125 C 34.421875 -56.539062 39.160156 -44.632812 48.640625 -34.8125 C 58.128906 -25 69.769531 -20.09375 83.5625 -20.09375 C 97.363281 -20.09375 109.003906 -25 118.484375 -34.8125 C 127.972656 -44.632812 132.71875 -56.539062 132.71875 -70.53125 C 132.71875 -84.53125 127.972656 -96.4375 118.484375 -106.25 Z M 118.484375 -106.25 "/></g></g></g></svg>