<?xml version="1.0" encoding="utf-8" ?>
<svg xmlns="http://www.w3.org/2000/svg" xmlns:xlink="http://www.w3.org/1999/xlink" width="1024" height="1024">
	<path d="M856.501 426.952C856.948 427.322 857.138 427.665 857.225 428.269C857.979 433.557 854.764 445.668 853.689 451.291C847.564 483.331 837.69 532.045 818.235 558.606C814.459 563.763 809.166 569.391 802.496 570.201C797.715 570.781 794.362 568.794 790.794 565.954C789.719 564.579 788.869 563.129 788.108 561.562C779.785 544.443 785.894 515.244 791.816 497.983C800.784 471.847 815.742 449.059 839.97 434.866C845.304 431.741 850.985 429.658 856.501 426.952ZM839.882 449.91Q838.755 450.863 837.652 451.843Q836.549 452.824 835.47 453.831Q834.391 454.838 833.337 455.871Q832.282 456.904 831.254 457.962Q830.226 459.021 829.223 460.104Q828.221 461.188 827.246 462.295Q826.27 463.403 825.322 464.534Q824.374 465.665 823.454 466.819Q822.534 467.973 821.642 469.149Q820.75 470.325 819.888 471.523Q819.025 472.72 818.192 473.939Q817.359 475.157 816.555 476.395Q815.752 477.633 814.98 478.891Q814.207 480.148 813.466 481.424Q812.724 482.7 812.014 483.994Q811.304 485.288 810.625 486.599Q809.947 487.91 809.301 489.237Q808.655 490.564 808.041 491.906Q807.428 493.248 806.848 494.605Q806.267 495.962 805.72 497.333Q805.173 498.704 804.66 500.088Q804.146 501.471 803.667 502.867Q803.187 504.263 802.742 505.67Q802.297 507.077 801.886 508.495Q801.476 509.913 801.1 511.34Q800.724 512.767 800.383 514.203Q800.042 515.639 799.737 517.083Q799.431 518.527 799.161 519.978Q798.891 521.429 798.656 522.886Q798.421 524.343 798.223 525.805Q798.024 527.268 797.86 528.735Q797.697 530.202 797.57 531.672C796.864 539.896 797.697 547.02 799.948 554.925L801.045 555.689C805.777 554.459 809.431 548.289 811.808 544.279C824.109 523.529 833.621 489.22 838.35 465.641C839.29 460.951 841.084 455.141 840.372 450.424L839.882 449.91Z"/>
	<path d="M850.096 99.7799C859.022 98.8082 869.759 100.112 878.537 101.774C905.168 106.817 928.06 121.226 943.214 143.789C963.417 173.87 966.878 213.937 959.915 248.845C950.004 298.528 919.168 335.982 879.137 365.348C861.953 377.954 843.587 389.137 825.861 400.978C843.289 395.711 860.806 392.052 879.147 393.576C893.676 394.783 908.484 399.237 918.154 410.761C940.891 437.856 922.292 480.85 915.355 510.685C911.846 525.775 909.875 540.241 908.449 555.635C914.997 544.648 919.897 533.504 925.104 521.877C929.364 512.366 934.572 501.056 945.14 497.295C950.459 495.401 956.537 496.103 961.534 498.61C973.407 504.564 980.242 518.846 984.133 530.852C994.4 562.539 990.589 599.196 975.384 628.637C961.057 656.379 937.796 676.292 910.001 689.832C873.15 707.784 825.151 716.965 785.066 726.366C738.175 737.362 691.055 748.93 645.982 766.108C571.531 794.482 502.751 840.436 456.953 906.629C454.226 910.571 451.564 914.606 449.15 918.747C446.204 923.799 439.139 939.903 433.3 941.126C431.991 941.4 430.974 941.239 429.846 940.502C428.445 939.585 427.542 938.266 427.17 936.636C425.036 927.29 448.621 895.293 455.221 886.707C531.204 787.851 646.639 743.63 764.298 716.634Q799.404 708.885 834.341 700.402C856.211 694.981 878.253 689.184 898.886 679.979C923.038 669.204 944.464 653.526 958.937 631.035C974.816 606.36 980.826 574.385 974.569 545.69C972.028 534.038 967.261 517.988 956.319 511.305C954.432 510.153 952.08 509.25 949.866 509.945C941.719 512.5 935.445 532.021 932.206 539.38C930.369 543.554 928.195 547.703 926.096 551.754C922.783 558.151 916.37 570.122 908.845 572.241C906.591 572.876 904.289 572.492 902.276 571.326C885.328 561.51 905.581 495.182 909.581 479.551C912.199 469.323 915.133 458.846 916.284 448.326C916.9 442.699 916.767 437.159 915.141 431.703C912.688 423.478 907.697 417.071 900.084 413.004C881.875 403.276 856.254 405.623 837.238 411.427C797.295 423.617 760.117 448.915 739.366 485.721Q734.417 494.4 730.637 503.649C728.472 509.059 726.761 514.828 723.987 519.95C720.321 526.72 714.767 532.212 710.506 538.591C696.879 558.992 664.355 613.676 641.235 619.906C637.361 620.95 633.377 620.61 629.908 618.528C624.302 615.164 620.495 607.627 619.024 601.445C611.453 569.636 639.34 508.96 656.021 481.871C657.017 483.666 658.034 485.462 659.125 487.201C663.01 493.392 669.112 498.448 676.364 499.994C684.268 501.679 692.588 498.345 699.128 494.065C709.114 487.529 716.458 478.658 718.946 466.888Q719.13 468.129 719.249 469.377C720.374 481.018 717.078 491.42 709.588 500.458C703.439 507.878 694.491 513.203 684.798 514.041C674.605 514.922 665.787 512.007 658.023 505.442C645.953 527.155 626.134 573.829 632.303 598.395C633.038 601.321 633.873 605.023 636.622 606.671C638.62 606.542 640.202 605.87 641.91 604.831C661.317 593.033 682.539 555.63 695.707 536.594C700.955 529.006 707.506 522.037 712.004 513.98C716.196 506.472 718.321 497.892 721.592 489.968C725.999 479.29 733.364 468.854 740.303 459.629C760.947 432.185 789.832 409.094 818.028 389.878C835.61 377.896 854.032 366.983 871.197 354.411C907.273 327.988 935.259 293.518 945.993 249.404C953.659 217.899 951.03 182.797 933.893 154.727C921.167 133.882 901.932 121.073 878.329 115.435C849.25 108.489 817.888 116.068 792.837 131.555C755.185 154.83 730.983 194.097 721.101 236.63C713.975 267.298 717.37 296.997 734.172 323.944C733.104 319.384 732.248 314.819 731.818 310.15C728.599 275.211 741.366 236.636 763.99 209.873C784.646 185.439 811.964 172.376 843.517 169.754C864.373 168.021 888.14 172.031 904.506 185.969Q905.674 186.972 906.79 188.032Q907.907 189.092 908.969 190.205Q910.032 191.319 911.039 192.484Q912.046 193.648 912.994 194.861Q913.942 196.074 914.829 197.333Q915.715 198.591 916.539 199.891Q917.363 201.192 918.122 202.531Q918.88 203.871 919.572 205.246Q920.263 206.621 920.886 208.029Q921.509 209.437 922.061 210.874Q922.614 212.311 923.095 213.773Q923.576 215.235 923.984 216.72Q924.392 218.204 924.727 219.707Q925.062 221.209 925.321 222.727Q925.581 224.244 925.766 225.772Q925.951 227.3 926.06 228.836C929.351 275.149 896.698 313.062 861.789 338.922C850.906 346.985 839.114 353.905 827.853 361.434C808.124 374.625 788.392 387.9 769.886 402.785Q764.772 406.88 759.898 411.26Q755.025 415.64 750.409 420.289Q745.793 424.939 741.449 429.844Q737.104 434.748 733.046 439.892C728.381 445.728 724.295 452.102 719.438 457.763Q718.783 452.934 717.7 448.182C715.083 437.008 709.691 424.953 699.557 418.703C692.641 414.437 684.637 413.325 676.773 415.331C657.717 420.193 646.444 439.492 637.252 455.282C636.156 452.136 635.07 448.974 633.627 445.966C630.186 438.79 624.271 432.577 616.593 430.012C602.016 425.145 576.487 436.806 563.222 443.153C570.972 452.421 576.178 463.495 577.656 475.498C580.761 500.716 570.825 550.188 557.208 571.592C551.682 580.278 543.948 587.471 537.361 595.346C526.879 607.878 516.919 620.87 506.896 633.77C509.695 627.217 511.503 619.866 513.41 613.003Q519.491 590.661 524.483 568.051Q537.814 510.565 549.025 452.629C544.314 449.357 538.641 445.432 532.702 445.151C525.596 444.816 507.14 451.785 499.316 453.696C491.305 455.653 482.974 456.922 474.796 457.973C477.018 463.601 479.107 469.376 479.405 475.472C480.728 502.508 470.575 537.228 464.171 563.896Q457.052 593.068 450.791 622.437C444.579 625.147 438.083 627.258 431.838 629.925Q426.992 632.012 422.299 634.425Q417.606 636.837 413.089 639.564Q408.572 642.291 404.251 645.319Q399.93 648.347 395.825 651.663C353.727 685.457 333.012 736.955 304.193 781.053C290.176 802.503 272.642 823.243 253.118 839.884C236.985 853.635 218.424 865.217 198.215 871.834C165.824 882.44 128.559 878.006 98.3504 862.669C108.859 874.647 113.58 883.539 128.13 892.489C148.765 905.18 173.74 907.98 197.109 902.41C251.477 889.451 293.831 830.761 321.492 785.706C333.77 765.709 344.64 744.889 356.878 724.867C378.226 689.941 403.656 657.416 445.507 647.341C443.75 657.031 430.789 700.532 433.104 706.569C435.887 707.704 446.171 701.643 449.6 700.19C466.14 693.178 484.781 691.292 502.542 689.943C507.97 653.67 530.758 624.728 556.14 599.741C553.345 614.132 554.949 632.098 560.5 645.685C564.485 655.439 571.093 663.501 581.022 667.511C594.101 672.792 608.165 669.098 620.616 663.887C659.752 645.573 691.725 594.359 714.678 559.142C712.803 574.963 710.467 590.229 714.241 606.014C716.915 617.202 722.321 626.963 732.379 633.039C740.496 637.942 749.393 638.491 758.455 636.199C791.964 627.724 812.076 593.38 828.48 565.845C828.337 575.355 828.437 584.674 831.807 593.7C835.777 604.331 842.51 612.107 852.877 616.838C863.564 621.715 874.921 622.251 885.926 618.042C919.915 605.039 938.407 563.367 952.18 532.343C957.608 545.38 959.633 558.974 959.153 573.044C958.072 604.717 938.798 631.111 911.978 646.695C882.356 663.907 845.994 669.301 812.854 676.062L725.134 693.595C665.185 705.875 605.658 721.121 550.08 747.276C507.739 767.201 468.462 793.384 436.788 828.049C432.668 832.558 428.394 837.078 424.844 842.059C420.653 847.938 416.961 856.002 411.625 860.735C410.085 862.101 408.371 862.857 406.287 862.631C404.804 862.47 403.193 861.62 402.377 860.321C401.286 858.582 401.234 856.811 401.609 854.838C404.187 841.296 433.462 811.564 444.317 801.599Q451.652 794.878 459.314 788.533Q466.977 782.189 474.948 776.236Q482.919 770.284 491.179 764.739Q499.439 759.194 507.966 754.07C529.253 741.522 552.045 731.444 575.015 722.425C649.723 693.093 724.372 679.281 802.669 664.002C834.612 657.769 881.629 650.818 908.79 632.801C931.702 617.602 940.882 602.635 946.176 576.223C934.219 593.519 923.801 611.003 905.822 623.008C892.208 632.097 876.386 636.537 860.152 633.239C842.143 629.582 830.54 618.01 820.791 603.227C818.636 606.438 815.83 609.447 813.35 612.42C800.331 628.032 784.652 642.724 764.717 648.591C751.872 652.371 737.351 650.988 725.626 644.434C710.69 636.086 704.575 620.51 700.196 604.808C695.205 611.127 690.661 617.802 685.643 624.113C665.622 649.292 639.879 676.115 607.072 682.586C593.586 685.246 578.906 683.358 567.413 675.457C553.474 665.875 546.173 649.269 543.15 633.139C535.858 643.005 528.348 653.749 523.409 665.007C521.589 669.153 520.129 673.541 518.932 677.907C517.152 684.396 516.421 696.269 511.421 700.896C507.411 704.605 493.767 704.279 488.193 704.778Q481.599 705.312 475.102 706.564Q468.606 707.817 462.285 709.772C453.015 712.6 439.58 722.068 430.218 720.277C426.421 719.551 423.155 716.999 421.18 713.718C415.869 704.895 420.318 693.313 422.826 684.283Q424.98 676.388 427.022 668.464C392.944 684.013 364.646 738.562 346.29 770.319C338.516 783.769 330.481 797.273 321.926 810.238C303.724 837.824 282.696 864.247 257.368 885.643C232.552 906.606 199.058 921.669 166.058 918.734C136.914 916.142 109.081 902.395 92.7457 877.488C87.6779 869.761 84.4785 860.776 79.2467 853.196C73.9936 845.585 66.5579 839.394 60.6307 832.265C37.892 804.912 31.5445 762.921 34.8974 728.305C38.9778 686.179 62.4601 640.955 95.3472 614.146C100.354 610.064 107.51 604.672 114.36 605.619C119.056 606.267 121.924 610.642 124.607 614.094C144.279 599.675 166.19 588.202 191.218 588.438C199.104 588.512 208.485 590.13 214.098 596.179C216.935 599.237 218.159 603.022 218.02 607.159C217.53 621.695 199.801 621.385 189.928 625.937C181.442 629.85 173.255 635.425 166.414 641.781C146.393 660.386 131.932 691.104 130.973 718.495C129.952 747.65 135.925 776.269 156.295 798.155Q160.468 797.099 164.59 795.859C179.324 791.289 192.212 780.848 202.406 769.554C248.031 719.009 262.144 640.018 277.532 575.695Q287.17 534.707 299.119 494.332C306.47 469.241 315.301 443.931 326.228 420.166C331.641 408.396 337.892 397.008 343.891 385.531C339.756 388.641 334.992 391.155 330.522 393.756C307.104 407.384 280.52 419.558 253.758 424.656C224.134 430.299 190.774 427.033 165.426 409.611Q164.4 408.914 163.392 408.192Q162.384 407.469 161.395 406.722Q160.405 405.975 159.435 405.203Q158.464 404.431 157.513 403.636Q156.562 402.84 155.631 402.021Q154.7 401.202 153.789 400.36Q152.879 399.518 151.99 398.653Q151.101 397.789 150.234 396.902Q149.367 396.016 148.522 395.108Q147.678 394.2 146.856 393.271Q146.034 392.343 145.236 391.394Q144.437 390.445 143.663 389.476Q142.888 388.508 142.138 387.521Q141.388 386.533 140.663 385.527Q139.938 384.521 139.238 383.498Q138.538 382.474 137.864 381.433Q137.19 380.392 136.542 379.335Q135.894 378.278 135.272 377.205Q134.651 376.131 134.057 375.043Q133.462 373.955 132.895 372.852Q132.328 371.749 131.789 370.633Q131.249 369.516 130.738 368.386Q130.227 367.257 129.744 366.115Q129.261 364.973 128.806 363.819Q128.352 362.665 127.926 361.5Q127.501 360.335 127.105 359.16Q126.708 357.985 126.342 356.801Q125.975 355.616 125.638 354.423Q125.301 353.229 124.993 352.028Q124.686 350.827 124.409 349.618Q124.132 348.409 123.885 347.194Q123.638 345.979 123.421 344.758C118.448 317.034 125.344 290.515 136.594 265.351C139.412 259.048 142.135 252.522 146.16 246.869C147.874 244.461 150.11 241.894 153.217 241.531C154.891 241.336 157.192 242.029 158.352 243.291C162.445 247.744 157 259.648 156.096 265.007C154.189 276.318 156.412 289.138 163.089 298.606C177.88 319.58 207.793 314.373 227.864 305.552C236.047 301.956 246.433 292.981 255.522 293.502C267.59 294.194 271.763 312.979 289.658 316.008C326.931 322.316 408.637 269.991 437.896 247.852C451.246 237.751 467.115 224.48 477.629 211.425C487.181 199.564 482.266 181.366 493.396 173.829C496.861 171.482 501.293 170.302 505.425 171.234C511.091 172.511 515.16 177.51 518.085 182.223C532.123 204.836 534.698 234.589 526.335 259.643C516.202 289.997 491.317 310.458 471.502 334.24Q462.922 344.616 455.341 355.743Q447.76 366.87 441.245 378.652C402.602 447.771 388.572 525.48 372.467 602.002C369.728 615.016 367.072 628.084 363.998 641.022C361.31 652.337 358.204 663.53 355.604 674.873C359.417 668.643 364.875 662.618 369.902 657.308C389.782 636.31 412.613 622.464 439.215 611.548L454.125 550.282C459.138 529.254 468.115 499.222 466.522 477.97C466.013 471.179 462.879 465.868 460.489 459.681C459.297 456.593 456.903 451.273 458.731 448.076C459.597 446.559 461.2 445.949 462.776 445.436C471.026 442.75 480.758 443.435 489.352 441.796C506.265 438.57 529.484 426.306 546.141 434.818C564.174 427.197 583.564 417.304 603.158 414.973C620.302 412.934 626.245 419.084 638.945 429.024C644.054 421.911 649.625 415.299 656.843 410.235C667.178 402.984 679.872 399.758 692.366 402.091C707.479 404.912 716.34 414.685 724.581 426.883C748.659 401.991 767.645 386.265 796.076 366.436C828.483 343.835 865.388 325.211 890.104 293.505C904.045 275.621 915.953 251.702 912.903 228.41C911.169 215.167 904.709 203.7 893.999 195.633C877.971 183.559 857.337 180.824 837.873 183.773C809.869 188.015 785.717 203.426 769.192 226.212C753.282 248.151 743.752 277.011 744.938 304.247C745.227 310.884 746.724 317.326 747.675 323.876C748.2 327.492 747.96 330.841 745.585 333.788C743.348 336.562 739.921 338.045 736.432 338.388C732.415 338.783 728.757 337.242 725.757 334.639C712.231 322.908 705.887 292.584 704.836 275.59C702.071 230.846 721.646 182.16 751.016 148.84C776.564 119.856 811.433 102.269 850.096 99.7799ZM501.217 183.231C501.109 183.418 501 183.603 500.894 183.79C497.915 189.087 497.159 195.125 495.373 200.858C493.037 208.353 488.597 215.481 484.072 221.827C456.187 260.935 370.608 311.599 324.422 324.878C307.988 329.603 289.76 332.574 274.075 323.867C266.282 319.541 260.497 313.308 254.859 306.528C233.115 320.171 207.575 330.648 181.577 324.818C168.864 321.967 157.423 314.942 150.441 303.742C146.709 297.755 144.565 290.921 143.159 284.049C134.535 311.677 130.173 339.591 144.291 366.302C155.566 387.635 175.195 402.92 198.201 409.801C236.538 421.268 280.667 406.039 314.543 387.603Q336.748 375.316 357.484 360.687C373.168 349.6 388.215 337.825 404.321 327.318C367.236 369.026 345.966 402.417 326.06 454.662C313.332 488.066 303.987 522.694 295.48 557.377Q288.052 588.866 280.252 620.266C266.78 675.785 251.193 734.265 212.563 778.178C200.713 791.649 186.3 803.622 168.897 808.961C151.709 814.561 132.303 815.855 115.757 807.467C98.6091 798.774 87.4485 782.547 81.7505 764.572C69.1956 724.967 76.5432 679.188 95.5534 642.848C99.6037 635.105 104.224 627.683 108.408 620.019C103.179 624.81 97.7082 629.525 92.9114 634.751C67.1221 662.849 48.6808 699.893 47.0234 738.372C45.6594 770.039 52.6352 805.016 74.7505 828.904C95.4689 851.284 125.414 862.661 155.506 863.754C191.62 865.065 224.061 848.454 249.89 824.31C265.623 809.603 279.144 793.245 291.567 775.699C303.423 758.954 314.639 741.076 323.209 722.403C345.073 674.76 354.852 623.037 365.184 571.984C376.674 515.211 388.941 457.589 413.237 404.697C423.35 382.68 434.928 360.838 449.286 341.262C457.81 329.639 467.413 318.858 477.057 308.166C497.006 286.048 516.906 264.347 518.016 232.786C518.526 218.281 514.648 196.304 504.38 185.317C503.482 184.356 502.389 183.788 501.217 183.231ZM185.391 602.214C157.683 605.379 132.572 620.543 115.317 642.247C92.8628 670.491 85.7455 705.737 89.9544 741.026C92.2096 759.934 98.7106 778.328 114.098 790.471Q115.902 791.894 117.837 793.134Q119.772 794.373 121.819 795.418Q123.866 796.462 126.006 797.302Q128.145 798.141 130.356 798.767C133.511 799.521 136.625 799.722 139.812 800.21C120.241 767.536 112.96 732.525 122.203 695.077C129.529 665.398 147.46 635.158 174.169 619.13Q179.276 616.072 184.779 613.803C188.741 612.148 202.298 608.584 204.755 605.804C204.106 604.458 203.103 604.013 201.701 603.558C196.751 601.95 190.539 601.819 185.391 602.214ZM560.252 462.348C555.891 489.313 549.473 516.125 543.343 542.731C541.348 551.392 538.819 566.586 535.993 574.227L536.739 574.618C537.785 574.002 538.559 573.448 539.4 572.572C543.403 567.947 547.556 563.294 550.338 557.8C559.328 540.046 566.751 498.538 565.253 478.798C564.865 473.675 563.982 466.129 560.252 462.348Z"/>
</svg>
