<svg width="256" height="257" viewBox="0 0 256 257" fill="none" xmlns="http://www.w3.org/2000/svg">
<path fill-rule="evenodd" clip-rule="evenodd" d="M146.554 161.566C155.068 156.45 161.281 148.031 163.828 138.157C166.376 128.284 165.049 117.763 160.14 108.905C155.211 100.056 147.106 93.6016 137.603 90.9572C128.101 88.3128 117.977 89.6949 109.454 94.8003C105.225 97.3174 101.518 100.682 98.5492 104.7C95.5805 108.718 93.4086 113.308 92.1597 118.205C90.8853 123.094 90.5569 128.197 91.1934 133.219C91.83 138.241 93.4189 143.082 95.868 147.461C100.802 156.305 108.907 162.755 118.408 165.399C127.908 168.043 138.029 166.664 146.554 161.566V161.566ZM100.516 78.716C126.765 62.9774 160.465 72.3549 175.614 99.6316C182.884 112.753 184.848 128.337 181.075 142.963C177.303 157.588 168.102 170.06 155.492 177.642C142.865 185.209 127.864 187.259 113.784 183.341C99.7045 179.422 87.6956 169.857 80.3944 156.743C76.7656 150.256 74.412 143.084 73.47 135.643C72.528 128.203 73.0163 120.642 74.9068 113.4C76.7562 106.145 79.972 99.3439 84.3679 93.3904C88.7638 87.4368 94.2524 82.449 100.516 78.716V78.716ZM64.2806 166.406C77.4178 190.053 72.3458 219.481 53.6794 237.156C48.7273 233.519 44.0314 229.518 39.6277 225.186C46.6153 219.452 51.3863 211.297 53.07 202.21C54.7536 193.123 53.2376 183.71 48.7987 175.688C46.3718 171.295 43.1306 167.445 39.2629 164.363C35.3952 161.28 30.9776 159.025 26.266 157.729C18.5477 155.56 10.3596 156.066 2.94339 159.172C1.5395 153.05 0.555894 146.831 0 140.564C10.0131 137.221 20.7417 136.954 30.8973 139.795C37.8783 141.718 44.4232 145.061 50.1534 149.63C55.8836 154.199 60.6852 159.904 64.2806 166.415V166.406ZM186.248 46.6166C188.955 36.0585 194.539 26.5383 202.329 19.2016C207.279 22.8381 211.975 26.8353 216.381 31.1632C210.084 36.2821 205.563 43.3938 203.501 51.422C202.228 56.3097 201.9 61.4114 202.537 66.4318C203.173 71.4521 204.762 76.2913 207.21 80.6693C209.635 85.0636 212.876 88.9139 216.744 91.9968C220.612 95.0797 225.03 97.334 229.742 98.629C237.558 100.816 245.665 100.254 253.057 97.1684C254.47 103.322 255.451 109.519 256 115.724C250.65 117.547 245.059 118.495 239.429 118.533C234.597 118.53 229.786 117.868 225.119 116.563C218.138 114.642 211.593 111.301 205.863 106.733C200.133 102.166 195.331 96.4616 191.736 89.9516C188.107 83.4657 185.753 76.2952 184.811 68.8562C183.869 61.4172 184.358 53.8578 186.248 46.6166V46.6166ZM128.004 204.624C154.278 204.624 176.279 223.889 181.684 249.524C176.113 252.194 170.426 254.398 164.68 256.179C163.388 247.022 158.973 238.654 152.241 232.598C145.509 226.542 136.907 223.203 128.004 223.189C119.106 223.204 110.51 226.541 103.78 232.591C97.0496 238.641 92.6338 247.003 91.3365 256.153C85.5256 254.359 79.8437 252.141 74.333 249.515C79.7376 223.881 101.73 204.624 128.004 204.624V204.624ZM128.004 51.7331C101.73 51.7331 79.7293 32.4597 74.3247 6.83374C79.8956 4.16311 85.5828 1.9592 91.3282 0.17878C92.6221 9.33358 97.0375 17.7004 103.77 23.7543C110.502 29.8082 119.102 33.1461 128.004 33.1597C146.629 33.1597 162.061 18.8127 164.672 0.204708C170.487 1.99349 176.172 4.21169 181.684 6.84239C176.279 32.4683 154.278 51.7245 128.004 51.7245V51.7331ZM225.119 139.803C235.262 136.959 245.98 137.22 255.983 140.555C255.417 146.825 254.427 153.046 253.023 159.172C245.618 156.084 237.448 155.578 229.742 157.729C225.03 159.024 220.613 161.279 216.745 164.362C212.877 167.445 209.636 171.294 207.21 175.688C204.762 180.067 203.175 184.906 202.538 189.926C201.902 194.946 202.229 200.048 203.501 204.936C205.558 212.959 210.074 220.068 216.364 225.186C212.007 229.464 207.326 233.474 202.312 237.147C194.527 229.816 188.945 220.301 186.24 209.75C182.44 195.014 184.386 179.621 191.728 166.406C199.07 153.191 210.935 143.744 225.111 139.795L225.119 139.803ZM30.889 116.563C26.2198 117.868 21.4061 118.53 16.5711 118.533C10.9495 118.496 5.36767 117.551 0.024944 115.733C0.590341 109.484 1.57979 103.287 2.98496 97.1943C10.3601 100.254 18.4502 100.807 26.266 98.629C30.978 97.3335 35.3959 95.0791 39.2637 91.9962C43.1316 88.9133 46.3725 85.0633 48.7987 80.6693C51.2469 76.293 52.8354 71.4552 53.4719 66.4363C54.1085 61.4173 53.7805 56.3169 52.5071 51.4306C50.4485 43.4057 45.93 36.2967 39.636 31.1805C44.0419 26.8503 48.7376 22.8502 53.6877 19.2102C61.474 26.5448 67.0553 36.0621 69.76 46.6166C71.6479 53.8581 72.135 61.417 71.193 68.8556C70.251 76.2942 67.8987 83.4646 64.2723 89.9516C60.6764 96.461 55.8745 102.164 50.1443 106.732C44.4142 111.3 37.8695 114.641 30.889 116.563Z" fill="#141417"/>
</svg>
