<svg xmlns="http://www.w3.org/2000/svg" xmlns:xlink="http://www.w3.org/1999/xlink" width="1080" zoomAndPan="magnify" viewBox="0 0 810 809.999993" height="1080" preserveAspectRatio="xMidYMid meet" version="1.0"><defs><clipPath id="b98407f7d7"><path d="M 311 437 L 573 437 L 573 724.726562 L 311 724.726562 Z M 311 437 " clip-rule="nonzero"/></clipPath></defs><rect x="-81" width="972" fill="#ffffff" y="-80.999999" height="971.999992" fill-opacity="1"/><rect x="-81" width="972" fill="#ffffff" y="-80.999999" height="971.999992" fill-opacity="1"/><rect x="-81" width="972" fill="#00f6ff" y="-80.999999" height="971.999992" fill-opacity="1"/><g clip-path="url(#b98407f7d7)"><path fill="#000000" d="M 311.324219 527.238281 L 392.1875 724.285156 L 572.132812 540.796875 L 435.683594 540.796875 L 399.25 437.539062 Z M 311.324219 527.238281 " fill-opacity="1" fill-rule="nonzero"/></g><path fill="#000000" d="M 529.933594 304.378906 L 426.761719 409.496094 L 460.59375 505.324219 L 732 505.324219 L 661.175781 304.378906 Z M 529.933594 304.378906 " fill-opacity="1" fill-rule="nonzero"/><path fill="#000000" d="M 81 304.378906 L 151.824219 505.324219 L 283.066406 505.324219 L 386.050781 400.394531 L 352.21875 304.378906 Z M 81 304.378906 " fill-opacity="1" fill-rule="nonzero"/><path fill="#000000" d="M 420.8125 85.414062 L 240.867188 268.90625 L 377.316406 268.90625 L 413.75 372.164062 L 501.675781 282.648438 Z M 420.8125 85.414062 " fill-opacity="1" fill-rule="nonzero"/></svg>