<?xml version="1.0" encoding="utf-8"?>
<!-- Generator: Adobe Illustrator 24.0.0, SVG Export Plug-In . SVG Version: 6.00 Build 0)  -->
<svg version="1.1" id="Camada_1" xmlns="http://www.w3.org/2000/svg" xmlns:xlink="http://www.w3.org/1999/xlink" x="0px" y="0px"
	 viewBox="0 0 49.9 50" style="enable-background:new 0 0 49.9 50;" xml:space="preserve">
<style type="text/css">
	.st0{fill:#FFFFFF;}
</style>
<circle cx="25" cy="25" r="24"/>
<g>
	<g>
		<g>
			<path class="st0" d="M24.9,50C11.2,50,0,38.9,0,25.1S11.2,0.2,24.9,0.2s24.9,11.1,24.9,24.9S38.6,50,24.9,50z M24.9,2.3
				C12.3,2.3,2.1,12.5,2.1,25.1s10.3,22.8,22.8,22.8s22.8-10.3,22.8-22.8S37.5,2.3,24.9,2.3z"/>
		</g>
	</g>
	<path class="st0" d="M44.5,31l-4.7-12.7c-0.1-0.4-0.5-0.8-0.9-0.8h-7.5L26.9,5.7C26.8,5.4,26.5,5,26.2,5c-0.3-0.1-0.8,0.1-0.9,0.3
		L14.1,17.7H6.3c-0.3,0-0.6,0.2-0.8,0.4c-0.2,0.3-0.2,0.6-0.1,0.9l4.7,12.7c0.1,0.4,0.5,0.8,0.9,0.8h7.3l4.5,11.9
		c0.1,0.3,0.4,0.6,0.8,0.6c0.1,0,0.1,0,0.2,0c0.3,0,0.5-0.1,0.8-0.3l6.8-7.3l0,0l0,0l4.5-5h7.8c0.3,0,0.6-0.2,0.8-0.4
		C44.6,31.7,44.8,31.3,44.5,31z M25.6,7.9l4,10.4L25.4,23l-1.7-4.7c-0.1-0.4-0.5-0.8-0.9-0.8H17L25.6,7.9z M7.7,19.6h14.2l1.9,5
		l-5.2,5.7h-7L7.7,19.6z M29.8,35.9L29.8,35.9L24.2,42l-4-10.5l4.3-4.7l1.8,4.8c0.1,0.4,0.5,0.8,0.9,0.8h5.7L29.8,35.9z M28,30.4
		l-1.9-5.3l5-5.5h7.2l4,10.6H28V30.4z"/>
</g>
</svg>
