<svg width="1025" height="1024" viewBox="0 0 1025 1024" fill="none" xmlns="http://www.w3.org/2000/svg">
<rect x="0.90918" width="1024" height="1024" rx="512" fill="url(#paint0_linear_964_725)"/>
<g filter="url(#filter0_d_964_725)">
<path fill-rule="evenodd" clip-rule="evenodd" d="M268.193 436.672C268.193 436.672 195.019 318.44 276.717 277.162C328.548 254.413 381.047 270.733 408.349 284.827C411.422 286.225 414.124 287.49 416.548 288.625C434.842 297.191 437.236 298.312 462.758 292.935C525.886 278.541 591.171 286.026 638.115 305.655C697.052 249.063 829.312 246.406 759.712 390.374C759.712 390.374 772.784 405.11 781 417.122C783.193 422.027 780.195 426.485 776.937 431.326C773.201 436.879 769.126 442.937 772.151 450.757C776.669 462.431 783.779 473.859 791.948 486.987C802.241 503.53 814.214 522.773 824.796 548.612C843.776 594.958 817.06 666.647 791.403 708.253C747.458 776.355 674.684 749.23 614.984 719.879C606.546 715.731 596.334 719.522 592.786 728.229L561.003 806.241C555.962 818.613 542.94 825.85 530.095 822.179C439.599 796.312 285.786 705.057 206.417 509.783C200.573 495.405 208.26 479.17 222.006 471.966C237.276 463.963 256.003 451.988 268.193 436.672ZM783.3 387.109C787.639 392.369 793.137 399.294 797.576 405.784L798.595 407.275L799.333 408.923C803.46 418.154 801.778 426.692 799.323 432.537C797.563 436.73 794.785 440.807 793.408 442.829C793.219 443.106 793.056 443.345 792.926 443.54C792.376 444.365 791.974 445.01 791.682 445.501C795.499 454.639 801.266 463.923 809.082 476.505C810.107 478.155 811.167 479.862 812.262 481.632C821.954 497.294 833.256 516.278 843.381 541.002C855.302 570.112 852.208 604.733 844.275 635.261C836.199 666.341 822.244 696.5 808.497 718.794L808.389 718.969L808.277 719.141C795.517 738.915 780.002 752.72 762.263 761.09C744.621 769.414 726.016 771.784 707.855 770.654C673.771 768.534 638.973 753.866 609.799 739.697L579.601 813.818C571.144 834.575 548.385 848.293 524.576 841.488C429.023 814.176 269.83 719.134 187.813 517.345C177.342 491.583 191.614 465.221 212.684 454.178C223.264 448.634 234.508 441.592 243.528 433.523C242.389 431.301 241.17 428.845 239.904 426.185C233.954 413.687 226.739 396.195 222.259 376.949C217.826 357.905 215.695 335.559 221.551 314.192C227.645 291.956 242.055 272.175 267.661 259.238L268.147 258.992L268.646 258.773C328.111 232.674 387.125 251.388 417.109 266.749C420.526 268.307 423.132 269.531 425.365 270.579C427.822 271.732 429.828 272.674 431.968 273.617C435.572 275.206 437.224 275.708 438.369 275.928C440.491 276.338 443.614 276.44 458.46 273.317C520.508 259.206 584.599 264.831 634.081 282.562C649.517 270.332 667.67 261.107 685.925 255.558C707.998 248.848 732.295 246.908 753.292 253.696C775.535 260.886 793.118 277.784 798.111 304.791C802.269 327.285 797.314 354.755 783.3 387.109Z" fill="white"/>
<path d="M659.589 313.619C672.154 302.293 712.483 281.841 743.161 292.641C704.164 294.471 694.392 332.489 659.589 313.619Z" fill="white"/>
<path d="M270.047 515.771C263.919 494.93 248.474 473.739 222.547 494.87C275.511 633.326 369.336 707.137 369.336 707.137C319.379 654.707 286.835 565.587 270.047 515.771Z" fill="white"/>
<path d="M489.284 610.913C515.133 633.597 563.719 635.113 636.862 632.192C603.606 650.723 549.4 650.113 549.4 650.113C573.884 666.689 624.157 685.992 675.949 688.746C727.74 691.501 765.757 677.727 765.678 630.937C765.678 582.126 680.81 527.902 489.284 610.913Z" fill="white"/>
<path d="M812.562 580.953C802.22 588.186 790.518 606.577 786.936 629.142C771.384 720.982 819.95 630.127 812.562 580.953Z" fill="white"/>
<path d="M623.932 698.11C664.141 719.471 744.287 755.714 776.108 694.935L773.723 692.458C772.511 691.199 770.632 690.872 769.046 691.606C734.928 707.403 683.4 712.865 623.932 698.11Z" fill="white"/>
<path d="M655.042 458.289C664.466 484.3 676.205 514.327 686.534 533.708C692.291 544.512 703.415 550.689 715.577 552.096C768.375 558.201 784.927 553.299 795.33 548.556C800.027 546.415 802.578 541.113 799.705 536.824C799.705 536.824 758.742 468.619 738.49 442.03C727.385 425.781 714.207 408.984 749.663 409.62C651.396 307.941 561.413 291.638 456.816 314.583C436.476 318.58 425.373 315.648 404.324 305.079C381.851 293.71 349.876 280.831 308.575 288.114C337.962 307.309 362.315 337.491 379.338 363.823C400.701 396.87 436.924 421.143 476.167 418.225L578.719 410.598C610.719 408.218 644.111 428.12 655.042 458.289Z" fill="white"/>
<path d="M516.305 435.498L438.545 440.173C288.704 451.317 363.716 618.999 546.375 568.899C645.369 541.746 661.24 523.762 640.263 475.44C637.054 469.664 630.661 466.382 624.058 466.637C575.14 468.525 547.419 456.708 536.703 445.734C531.234 440.133 524.12 435.029 516.305 435.498Z" fill="white"/>
</g>
<defs>
<filter id="filter0_d_964_725" x="132.641" y="204.438" width="770.31" height="700.796" filterUnits="userSpaceOnUse" color-interpolation-filters="sRGB">
<feFlood flood-opacity="0" result="BackgroundImageFix"/>
<feColorMatrix in="SourceAlpha" type="matrix" values="0 0 0 0 0 0 0 0 0 0 0 0 0 0 0 0 0 0 127 0" result="hardAlpha"/>
<feOffset dy="10.331"/>
<feGaussianBlur stdDeviation="25.8276"/>
<feComposite in2="hardAlpha" operator="out"/>
<feColorMatrix type="matrix" values="0 0 0 0 0 0 0 0 0 0 0 0 0 0 0 0 0 0 0.2 0"/>
<feBlend mode="normal" in2="BackgroundImageFix" result="effect1_dropShadow_964_725"/>
<feBlend mode="normal" in="SourceGraphic" in2="effect1_dropShadow_964_725" result="shape"/>
</filter>
<linearGradient id="paint0_linear_964_725" x1="512.909" y1="0" x2="512.908" y2="1024" gradientUnits="userSpaceOnUse">
<stop stop-color="#FF9E00"/>
<stop offset="1" stop-color="#FE5200"/>
</linearGradient>
</defs>
</svg>
