<?xml version="1.0" encoding="utf-8"?>
<!-- Generator: Adobe Illustrator 28.3.0, SVG Export Plug-In . SVG Version: 6.00 Build 0)  -->
<svg version="1.0" id="Presearch-Logo" xmlns="http://www.w3.org/2000/svg" xmlns:xlink="http://www.w3.org/1999/xlink" x="0px"
	 y="0px" viewBox="0 0 256 256" style="enable-background:new 0 0 256 256;" xml:space="preserve">
<style type="text/css">
	.st0{fill:#2D8EFF;}
	.st1{fill:#FFFFFF;}
</style>
<rect id="clear-space" class="st0" width="256" height="256"/>
<g id="Logo">
	<path class="st1" d="M63,46.5v115.1c0,4.1,3.3,7.5,7.5,7.5l0,0h115.1c4.1,0,7.5-3.3,7.5-7.5l0,0V46.5c0-4.1-3.3-7.5-7.5-7.5l0,0
		H70.5C66.3,39,63,42.3,63,46.5L63,46.5z M170.2,153.7H85.6c-4.1,0-7.5-3.3-7.5-7.5V61.6c0-4.1,3.3-7.5,7.5-7.5l0,0h84.6
		c4.1,0,7.5,3.3,7.5,7.5l0,0v84.6C177.7,150.4,174.4,153.7,170.2,153.7z"/>
	<rect x="118.5" y="129.2" class="st1" width="49.8" height="15.3"/>
	<path class="st1" d="M108.9,119.6h12.7c3.6,0,7.2-0.8,10.5-2.3c3.1-1.5,5.9-3.7,8.1-6.3c2.3-2.7,4-5.8,5.2-9.1
		c1.2-3.4,1.9-6.9,1.9-10.5c0-3.5-0.7-7-2-10.2c-1.3-3.3-3.2-6.3-5.5-8.9s-5.1-4.8-8.3-6.4c-3.2-1.7-6.8-2.5-10.5-2.5H87.6v80.8
		h21.3L108.9,119.6z M108.9,83.1h10.8c1.5,0.1,2.9,0.8,3.9,1.9c1.2,1.2,2,3.4,2,6.9s-0.8,5.5-1.9,6.6c-0.9,1.1-2.2,1.8-3.6,1.9
		h-11.3L108.9,83.1L108.9,83.1z"/>
</g>
<g id="Presearch">
	<path class="st1" d="M227.6,208.2c-0.2-1.1-0.6-2.1-1.1-3c-0.6-0.9-1.3-1.6-2.2-2c-1.1-0.5-2.3-0.8-3.5-0.7c-1.8,0-3.6,0.5-5.1,1.4
		c-1.6,1-2.9,2.3-3.7,3.9v-14.1h-3.8v32.1h3.9v-13.9c0.3-0.9,0.7-1.7,1.2-2.4s1.1-1.3,1.8-1.9c0.7-0.5,1.4-1,2.2-1.3
		c0.7-0.3,1.5-0.5,2.3-0.5c1.4-0.1,2.8,0.6,3.6,1.8c0.8,1.1,1.2,2.9,1.2,5.3v12.8h3.7v-13.6C228,210.8,227.9,209.5,227.6,208.2z"/>
	<path class="st1" d="M111.1,215c-0.9-0.6-1.8-1-2.8-1.3c-1.2-0.3-2.4-0.7-4-1.1c-0.9-0.2-1.8-0.5-2.5-0.7c-0.6-0.2-1.2-0.4-1.7-0.7
		c-0.4-0.2-0.7-0.5-0.9-1c-0.6-1.5-0.1-3.3,1.2-4.2c1.1-0.6,2.3-0.9,3.6-0.9c1.3,0,2.5,0.2,3.7,0.6c1.2,0.4,2.3,1.1,3.3,1.9l1.8-2.3
		c-1.1-1-2.4-1.7-3.8-2.2c-1.5-0.6-3.2-0.8-4.8-0.8c-1.2,0-2.3,0.2-3.5,0.5c-1,0.3-1.9,0.7-2.8,1.4c-1.7,1.2-2.6,3.2-2.6,5.3
		c0,0.8,0.1,1.6,0.4,2.3s0.8,1.2,1.4,1.6c0.8,0.5,1.6,0.9,2.4,1.2c1,0.3,2.2,0.7,3.6,1c1.1,0.3,2,0.5,2.8,0.7c0.7,0.2,1.4,0.5,2,0.8
		c0.5,0.3,0.9,0.6,1.2,1c0.3,0.4,0.4,0.9,0.4,1.4c0.1,1.1-0.5,2.2-1.5,2.8c-1.2,0.7-2.6,1.1-4,1c-1.5,0-2.9-0.3-4.3-0.7
		c-1.5-0.6-2.8-1.3-4.1-2.3l-1.7,2.6c1.4,1.1,2.9,2,4.6,2.5c1.8,0.6,3.6,0.9,5.5,0.9c2.8,0,5-0.6,6.6-1.9c1.6-1.3,2.5-3.2,2.4-5.2
		c0-0.8-0.2-1.7-0.5-2.4C112.4,216.1,111.8,215.4,111.1,215z"/>
	<path class="st1" d="M179.2,202.5c-1.5,0.1-2.9,0.7-4.1,1.6c-1.3,1-2.4,2.4-3.1,3.9v-5.4h-3.6v23h3.9v-14.1c0.5-1.6,1.6-3,3-3.9
		c1.5-1,3.3-1.5,5.2-1.5v-3.6c-0.2,0-0.3-0.1-0.5-0.1L179.2,202.5z"/>
	<path class="st1" d="M162.1,221v-9.4c0-2.9-0.8-5.2-2.5-6.9c-1.7-1.6-4-2.4-7.1-2.4c-3.2,0.1-6.3,1.1-9,3l1.3,2.5
		c2.6-1.8,4.9-2.7,7.3-2.7c3-0.3,5.8,1.9,6.1,4.9c0.1,0.4,0.1,0.8,0,1.2v1.8c-1-0.4-2-0.7-3.1-0.8c-1.1-0.2-2.3-0.3-3.4-0.3
		c-1.3,0-2.6,0.2-3.9,0.5c-1.1,0.3-2.1,0.8-3.1,1.4c-0.8,0.6-1.5,1.3-2,2.2s-0.7,1.9-0.7,2.8c0,1,0.2,2,0.6,2.8
		c0.4,0.9,0.9,1.6,1.6,2.2c0.7,0.7,1.5,1.2,2.5,1.5c0.9,0.3,1.9,0.5,3,0.5c1.7,0,3.4-0.3,5-1.1c1.5-0.7,2.9-1.7,3.9-3.1l0.1,1.6
		c0.1,0.6,0.4,1.2,0.8,1.6c0.5,0.5,1.2,0.7,1.8,0.7c0.2,0.2,0.5,0.2,0.8,0.1l1-0.1v-3.3C162.5,222.4,162.1,221.9,162.1,221z
		 M158.2,218.7c0,0.6-0.3,1.3-0.8,1.7c-0.7,0.9-1.6,1.6-2.7,2c-1.2,0.6-2.5,0.8-3.9,0.7c-0.7,0-1.3-0.1-2-0.3
		c-0.6-0.2-1.1-0.5-1.6-0.9s-0.8-0.9-1.1-1.4c-0.3-0.6-0.4-1.2-0.3-1.8c0-1.3,0.7-2.5,1.8-3.2c1.4-0.9,3.1-1.3,4.7-1.2
		c2,0,4,0.4,5.8,1.1L158.2,218.7z"/>
	<path class="st1" d="M199.1,220.6c-0.4,0.4-0.9,0.8-1.4,1.1c-0.6,0.4-1.2,0.6-1.8,0.7c-0.7,0.2-1.3,0.3-2,0.3c-1,0-2-0.2-3-0.7
		c-0.9-0.4-1.8-1.1-2.4-1.8c-0.7-0.8-1.3-1.8-1.6-2.8v0.2c-0.8-2.2-0.8-4.6,0-6.8c0.3-1,0.9-1.9,1.6-2.7c0.7-0.8,1.5-1.4,2.4-1.8
		c0.9-0.4,1.9-0.6,3-0.6c1.2,0,2.5,0.3,3.6,0.9c1,0.6,1.9,1.5,2.4,2.5l3.8-1.2c-0.8-1.7-2.1-3.1-3.7-4.1c-1.8-1-3.8-1.6-5.9-1.5
		c-1.6,0-3.2,0.3-4.7,0.9c-1.4,0.6-2.6,1.5-3.7,2.6c-1,1.1-1.8,2.4-2.4,3.7c-1.2,2.9-1.2,6.2,0,9.2c1.7,4.5,6,7.4,10.8,7.4
		c2.1,0,4.3-0.5,6.1-1.6c0.8-0.5,1.6-1.1,2.2-1.8c0.6-0.7,1.1-1.5,1.5-2.3l-3.8-1.1C199.8,219.7,199.5,220.2,199.1,220.6z"/>
	<path class="st1" d="M136.5,205.9c-2.2-2.3-5.2-3.6-8.3-3.6c-1.6,0-3.2,0.3-4.7,0.9c-1.4,0.6-2.7,1.5-3.7,2.6
		c-2.2,2.3-3.3,5.3-3.3,8.4c0,1.6,0.3,3.1,0.9,4.6c0.5,1.4,1.3,2.7,2.4,3.8s2.3,2,3.7,2.6c1.5,0.6,3.1,0.9,4.7,1
		c1.1,0,2.2-0.1,3.3-0.4c1-0.3,2-0.7,2.9-1.2s1.6-1.1,2.3-1.8c0.6-0.7,1.2-1.5,1.6-2.3l-3.3-0.9c-0.2,0.6-0.6,1.1-1,1.6
		c-0.5,0.5-1,0.9-1.6,1.2s-1.2,0.6-1.9,0.7c-0.7,0.2-1.3,0.3-2,0.3c-1,0-1.9-0.2-2.8-0.5c-0.9-0.4-1.7-0.9-2.4-1.6
		c-0.7-0.7-1.3-1.5-1.7-2.4c-0.5-1-0.7-2-0.8-3.1h19.1V214c0-1.5-0.3-3-0.8-4.4C138.3,208.3,137.5,207,136.5,205.9z M120.4,212.7
		c0.1-1,0.3-2,0.7-3c0.4-0.9,1-1.7,1.7-2.4s1.5-1.2,2.4-1.6c2.8-1.1,6-0.6,8.2,1.5c0.7,0.7,1.3,1.5,1.7,2.4c0.5,1,0.7,2,0.9,3
		L120.4,212.7z"/>
	<path class="st1" d="M47.8,197.7c-0.8-0.9-1.8-1.7-3-2.3s-2.5-0.9-3.8-0.9H28v31.3h3.9v-11.2h9.4c1.3,0,2.6-0.3,3.7-0.8
		c1.1-0.5,2.1-1.3,2.9-2.2c0.8-0.9,1.4-2.1,1.8-3.3c0.5-1.2,0.7-2.5,0.7-3.7c0-1.3-0.2-2.5-0.7-3.7
		C49.3,199.7,48.6,198.6,47.8,197.7z M46,207c-0.3,0.8-0.6,1.5-1.1,2.1c-0.4,0.6-1,1.1-1.7,1.4c-0.7,0.4-1.5,0.5-2.2,0.5h-9.1v-13
		h8.8c0.7,0,1.5,0.1,2.2,0.5c2.3,1.1,3.7,3.4,3.6,6C46.4,205.4,46.3,206.2,46,207L46,207z"/>
	<path class="st1" d="M65.7,202.6c-1.5,0.1-2.9,0.7-4.1,1.6c-1.3,1-2.4,2.4-3.1,3.9v-5.4h-3.6v23h3.9v-14.2c0.6-1.6,1.7-3,3.1-3.9
		c1.6-1,3.3-1.5,5.2-1.5v-3.6c-0.2,0-0.3-0.1-0.5-0.1L65.7,202.6z"/>
	<path class="st1" d="M91.9,214.9V214c0-1.5-0.3-3-0.8-4.4s-1.3-2.6-2.3-3.7c-2.2-2.3-5.2-3.6-8.3-3.6c-1.6,0-3.2,0.3-4.7,0.9
		c-2.8,1.2-5,3.5-6.1,6.4c-0.6,1.5-0.9,3-0.9,4.6s0.3,3.1,0.9,4.6c0.5,1.4,1.3,2.7,2.4,3.8s2.3,2,3.7,2.6c1.5,0.6,3.1,0.9,4.7,1
		c1.1,0,2.2-0.1,3.3-0.4c1-0.3,2-0.7,2.9-1.2s1.6-1.1,2.3-1.8c0.6-0.7,1.2-1.5,1.6-2.3l-3.3-0.9c-0.2,0.6-0.6,1.1-1,1.6
		c-0.5,0.5-1,0.9-1.6,1.2s-1.2,0.6-1.9,0.7c-0.7,0.2-1.4,0.3-2,0.3c-1,0-1.9-0.2-2.8-0.5c-0.9-0.4-1.7-0.9-2.4-1.6
		c-0.7-0.7-1.3-1.5-1.7-2.4c-0.5-1-0.7-2-0.8-3.1h19.1C91.9,215.5,91.8,215.2,91.9,214.9z M72.7,212.7c0.1-1,0.3-2,0.7-3
		c0.4-0.9,1-1.7,1.7-2.4s1.5-1.2,2.4-1.6c2.8-1.1,6-0.6,8.2,1.5c0.7,0.7,1.3,1.5,1.7,2.4c0.4,1,0.7,2,0.9,3L72.7,212.7z"/>
</g>
</svg>
