<svg width="256" height="256" viewBox="0 0 256 256" fill="none" xmlns="http://www.w3.org/2000/svg">
<circle cx="128" cy="128" r="124" fill="url(#paint0_radial_203_1599)"/>
<g filter="url(#filter0_d_203_1599)">
<path d="M176.738 139.998C168.63 138.402 148.943 138.943 129.235 140.669C109.589 142.39 90.0453 145.286 82.3374 148.268C67.405 154.064 70.8816 160.367 73.2825 169.32C77.9065 186.618 86.9286 200.102 99.426 207.048C110.746 213.349 125.258 214.135 135.575 213.231C145.892 212.327 160.047 209.03 170.103 200.856C181.2 191.781 187.814 176.989 189.306 159.156C190.056 149.927 192.449 143.11 176.738 139.998ZM159.811 179.256C157.867 181.233 154.695 181.262 152.72 179.316L145.098 171.88L133.55 187.914L119.397 174.131L113.18 182.779C111.572 185.04 108.443 185.563 106.186 183.953C103.928 182.343 103.406 179.21 105.014 176.95L118.056 158.79L132.209 172.573L143.757 156.539L159.751 172.155C161.726 174.101 161.755 177.278 159.811 179.256Z" fill="white"/>
<path d="M121.522 52.3941C141.915 50.6699 154.019 55.9676 158.278 58.3996C170.125 65.0288 179.276 78.564 184.083 96.5314C184.277 97.3248 185.165 100.364 185.725 102.496C186.013 103.655 185.503 104.947 184.429 105.477C183.535 105.93 182.281 106.538 180.656 107.179C172.167 110.478 147.619 113.813 127.108 115.61C98.6269 118.105 79.3746 117.922 72.9108 116.618C71.1995 116.269 69.9261 115.944 68.8997 115.598C67.7445 115.2 66.9622 114.085 67.1066 112.888C67.2881 110.69 67.5739 107.548 67.6889 106.728C69.1781 88.1465 75.8428 73.2258 86.3602 64.6374C97.694 55.4164 114.726 52.9894 121.522 52.3941ZM120.425 39.8364C107.883 40.935 90.6774 44.9357 78.4146 54.9237C64.9301 65.8914 56.9186 83.922 55.0819 105.65C54.1342 116.891 51.2428 125.123 70.3761 128.933C80.1953 130.877 104.229 130.206 128.138 128.111C152.047 126.017 175.832 122.5 185.164 118.877C203.346 111.799 199.071 104.195 196.188 93.2893C190.612 72.2103 179.6 55.9084 164.351 47.3954C150.604 39.6859 132.966 38.7377 120.425 39.8364Z" fill="white"/>
<path d="M138.919 101.174C135.151 101.504 130.895 99.8195 126.286 96.2338C126.017 96.008 125.749 95.7822 125.485 95.6183C122.61 99.0492 118.223 102.987 113.281 103.42C105.311 104.118 97.763 99.6675 94.5651 92.2806C93.4732 89.7582 94.6455 86.7881 97.1646 85.6948C99.6837 84.6014 102.65 85.7753 103.742 88.2976C105.218 91.659 108.636 93.7283 112.343 93.4035C114.32 93.2304 118.366 88.9489 120.545 85.3919L124.085 79.5964L128.577 84.6884C131.748 88.2129 136.252 91.3091 138.044 91.1521C141.689 90.8328 144.758 88.1953 145.629 84.6282C146.267 81.9543 148.985 80.2826 151.655 80.9213C154.325 81.5601 155.995 84.2812 155.357 86.9551C153.551 94.7804 146.951 100.47 138.919 101.174Z" fill="white"/>
</g>
<circle cx="128" cy="128" r="107.531" stroke="url(#paint1_radial_203_1599)" stroke-opacity="0.15" stroke-width="32.9375"/>
<circle cx="128" cy="128" r="107.531" stroke="url(#paint2_radial_203_1599)" stroke-opacity="0.6" stroke-width="32.9375"/>
<defs>
<filter id="filter0_d_203_1599" x="22.3511" y="7.45847" width="208.442" height="238.083" filterUnits="userSpaceOnUse" color-interpolation-filters="sRGB">
<feFlood flood-opacity="0" result="BackgroundImageFix"/>
<feColorMatrix in="SourceAlpha" type="matrix" values="0 0 0 0 0 0 0 0 0 0 0 0 0 0 0 0 0 0 127 0" result="hardAlpha"/>
<feOffset/>
<feGaussianBlur stdDeviation="16"/>
<feComposite in2="hardAlpha" operator="out"/>
<feColorMatrix type="matrix" values="0 0 0 0 0.23385 0 0 0 0 0.0152546 0 0 0 0 0.270283 0 0 0 0.6 0"/>
<feBlend mode="normal" in2="BackgroundImageFix" result="effect1_dropShadow_203_1599"/>
<feBlend mode="normal" in="SourceGraphic" in2="effect1_dropShadow_203_1599" result="shape"/>
</filter>
<radialGradient id="paint0_radial_203_1599" cx="0" cy="0" r="1" gradientUnits="userSpaceOnUse" gradientTransform="translate(26 43.5) rotate(51.2869) scale(251.83 333.908)">
<stop stop-color="#939EFF"/>
<stop offset="0.502367" stop-color="#6B00AD"/>
<stop offset="1" stop-color="#300056"/>
</radialGradient>
<radialGradient id="paint1_radial_203_1599" cx="0" cy="0" r="1" gradientUnits="userSpaceOnUse" gradientTransform="translate(131.391 131.391) rotate(91.6103) scale(120.657)">
<stop offset="0.852926" stop-color="white" stop-opacity="0"/>
<stop offset="1" stop-color="white"/>
</radialGradient>
<radialGradient id="paint2_radial_203_1599" cx="0" cy="0" r="1" gradientUnits="userSpaceOnUse" gradientTransform="translate(125 124.5) rotate(88.6521) scale(127.535)">
<stop offset="0.88242" stop-color="#170125" stop-opacity="0"/>
<stop offset="0.951061" stop-color="#010B25" stop-opacity="0.4178"/>
<stop offset="1" stop-color="#170125"/>
</radialGradient>
</defs>
</svg>
