<?xml version="1.0" encoding="UTF-8"?>
<svg id="_Слой_2" data-name="Слой 2" xmlns="http://www.w3.org/2000/svg" xmlns:xlink="http://www.w3.org/1999/xlink" viewBox="0 0 200 200">
  <defs>
    <style>
      .cls-1 {
        fill: url(#_Безымянный_градиент_12-2);
      }

      .cls-1, .cls-2, .cls-3, .cls-4 {
        stroke-width: 0px;
      }

      .cls-2 {
        fill: url(#_Безымянный_градиент_11);
      }

      .cls-3 {
        fill: url(#_Безымянный_градиент_12);
      }

      .cls-4 {
        fill: #fff;
      }
    </style>
    <linearGradient id="_Безымянный_градиент_12" data-name="Безымянный градиент 12" x1="147.98483" y1="19.56043" x2="75.92644" y2="140.35581" gradientUnits="userSpaceOnUse">
      <stop offset="0" stop-color="#fac20d"/>
      <stop offset="1" stop-color="#fda803"/>
    </linearGradient>
    <linearGradient id="_Безымянный_градиент_12-2" data-name="Безымянный градиент 12" x1="176.28887" y1="847.17224" x2="104.15796" y2="726.2553" gradientTransform="translate(0 883.45036) scale(1 -1)" xlink:href="#_Безымянный_градиент_12"/>
    <linearGradient id="_Безымянный_градиент_11" data-name="Безымянный градиент 11" x1="82.79566" y1="884.83862" x2="16.29758" y2="773.70065" gradientTransform="translate(0 883.45036) scale(1 -1)" gradientUnits="userSpaceOnUse">
      <stop offset="0" stop-color="#fd7b03"/>
      <stop offset="1" stop-color="#fda803"/>
    </linearGradient>
  </defs>
  <g id="_Слой_1-2" data-name="Слой 1">
    <g>
      <circle class="cls-3" cx="100" cy="100" r="100"/>
      <g>
        <path class="cls-1" d="M119.54173,1.71062c45.87816,9.12328,80.45827,49.61368,80.45827,98.18305,0,55.28685-44.80882,100.10634-100.08367,100.10634-31.24677,0-59.1488-14.32272-77.50252-36.76213L119.54173,1.71062Z"/>
        <path class="cls-2" d="M22.41554,163.24788C8.40123,146.02248,0,124.04574,0,100.10633,0,44.81921,44.80895,0,100.08366,0,106.71702,0,113.28904.51162,119.56173,1.74321L22.41554,163.24788Z"/>
      </g>
      <path class="cls-4" d="M99.32496,164.99899c-2.11128,0-4.2219-.55584-6.10297-1.66888l-50.45379-29.82957c-2.77516-1.64086-4.73798-4.26661-5.52651-7.39284-.78853-3.12555-.30715-6.36855,1.35632-9.12978l50.45211-83.73348c2.19136-3.63523,6.03158-5.80517,10.27483-5.80517h.00334c4.24325.00093,8.08281,2.17161,10.27149,5.80697l8.4765,14.06474c2.13398,3.54334.99292,8.14687-2.54969,10.28257-3.53994,2.13438-8.14353.99506-10.28017-2.54889l-5.92148-9.82782-46.34572,76.91785,46.34572,27.40067,52.84753-31.24556c3.56062-2.10528,8.15353-.92419,10.25748,2.63645,2.10528,3.56195.92553,8.15553-2.63577,10.26081l-54.36426,32.14239c-1.88307,1.11303-3.99436,1.66955-6.10498,1.66955Z"/>
      <path class="cls-4" d="M105.62211,128.22833c-1.78231,0-3.55061-.63459-4.95191-1.8704-2.43225-2.14265-3.2103-5.60718-1.92712-8.58394l11.24173-26.10347-14.20447,8.29634c-3.5693,2.08593-8.15688.88148-10.24414-2.69182-2.08526-3.57263-.88081-8.16021,2.69116-10.24614l33.86798-19.77962c2.79191-1.63184,6.31717-1.28539,8.74008.85946,2.42158,2.14399,3.19429,5.60118,1.91377,8.5726l-11.17166,25.94065,17.82114-10.51839c3.55863-2.10261,8.15287-.91952,10.25682,2.64444,2.10061,3.5633.91752,8.15621-2.6451,10.25815l-37.58409,22.18251c-1.18043.69731-2.49564,1.03963-3.80419,1.03963Z"/>
    </g>
  </g>
</svg>