<svg width="30" height="30" viewBox="0 0 30 30" fill="none" xmlns="http://www.w3.org/2000/svg">
<path d="M17.9312 0.256714C24.8129 1.6252 29.9999 7.69875 29.9999 14.9841C29.9999 23.2771 23.2786 30 14.9874 30C10.3004 30 6.11511 27.8516 3.36206 24.4857L17.9312 0.256714Z" fill="url(#paint0_linear_1382_591)"/>
<path d="M3.36232 24.4871C1.26018 21.9033 0 18.6068 0 15.0159C0 6.72286 6.72132 0 15.0125 0C16.0075 0 16.9933 0.076742 17.9342 0.26148L3.36232 24.4871Z" fill="url(#paint1_linear_1382_591)"/>
<path d="M14.9057 24.6997C14.5893 24.6997 14.273 24.6164 13.9911 24.4496L6.43003 19.9793C6.01414 19.7334 5.71999 19.3399 5.60182 18.8714C5.48365 18.403 5.55579 17.917 5.80508 17.5032L13.3659 4.95482C13.6943 4.41003 14.2698 4.08484 14.9057 4.08484H14.9062C15.5421 4.08499 16.1175 4.41028 16.4455 4.95508L17.7158 7.06284C18.0356 7.59385 17.8646 8.28374 17.3337 8.60381C16.8032 8.92366 16.1133 8.75292 15.7931 8.22182L14.9057 6.74901L7.96027 18.276L14.9057 22.3823L22.8255 17.6999C23.3591 17.3843 24.0474 17.5613 24.3627 18.095C24.6782 18.6287 24.5014 19.3171 23.9677 19.6326L15.8206 24.4495C15.5384 24.6163 15.222 24.6997 14.9057 24.6997Z" fill="white"/>
<path d="M15.8494 19.1892C15.5823 19.1892 15.3173 19.0941 15.1073 18.9089C14.7428 18.5878 14.6262 18.0686 14.8185 17.6225L16.5032 13.7106L14.3745 14.9539C13.8396 15.2665 13.1521 15.086 12.8393 14.5505C12.5268 14.0151 12.7073 13.3276 13.2426 13.0151L18.3181 10.0508C18.7365 9.80627 19.2648 9.8582 19.6279 10.1796C19.9908 10.5009 20.1066 11.0191 19.9147 11.4643L18.2405 15.3518L20.9112 13.7755C21.4445 13.4604 22.133 13.6378 22.4483 14.1718C22.7631 14.7058 22.5858 15.3941 22.0519 15.7092L16.4195 19.0334C16.2426 19.1379 16.0455 19.1892 15.8494 19.1892Z" fill="white"/>
<defs>
<linearGradient id="paint0_linear_1382_591" x1="21.1522" y1="2.28554" x2="10.3326" y2="20.423" gradientUnits="userSpaceOnUse">
<stop stop-color="#FCC408"/>
<stop offset="1" stop-color="#FFAA04"/>
</linearGradient>
<linearGradient id="paint1_linear_1382_591" x1="14.8243" y1="1.23076" x2="4.84962" y2="17.9014" gradientUnits="userSpaceOnUse">
<stop stop-color="#FF7C02"/>
<stop offset="1" stop-color="#FFAA03"/>
</linearGradient>
</defs>
</svg>
