<?xml version="1.0" encoding="UTF-8"?>
<svg version="1.1" xmlns="http://www.w3.org/2000/svg" width="250" height="250">
<path d="M0 0 C0 5.61 0 11.22 0 17 C-2.701875 17.556875 -5.40375 18.11375 -8.1875 18.6875 C-31.52225698 23.75798162 -52.66596812 35.55777345 -66.078125 55.82104492 C-70.73240397 63.19236438 -74.45980246 70.62560892 -77 79 C-77.31710938 80.01449219 -77.63421875 81.02898437 -77.9609375 82.07421875 C-83.85639449 104.49318134 -80.48236488 129.68303788 -68.92578125 149.70703125 C-56.49560223 170.20374947 -38.11199072 183.75696508 -15.12890625 190.2578125 C-10.11552361 191.44700439 -5.0990616 192.26278628 0 193 C0 198.61 0 204.22 0 210 C-27.17109686 208.65821744 -51.86824166 196.23049247 -70.59765625 176.7421875 C-90.43887522 154.09416194 -99.41481985 126.76988449 -98.1953125 96.79541016 C-96.28157335 69.4050185 -82.94875908 44.96588546 -63.25 26.3125 C-47.48441917 12.78141094 -30.1918297 5.32682065 -10 1 C-9.12859375 0.80148438 -8.2571875 0.60296875 -7.359375 0.3984375 C-5 0 -5 0 0 0 Z " fill="#F2EFEC" transform="translate(118,20)"/>
<path d="M0 0 C29.4382389 1.86909453 53.80876169 15.42571947 73.6875 36.8125 C93.14908576 60.15693255 99.75265128 88.06042772 98 118 C94.77546102 145.62255535 79.57214932 170.66161545 58.421875 188.31738281 C42.32259974 201.03215134 20.56222708 210 0 210 C0 204.39 0 198.78 0 193 C1.258125 192.79246094 2.51625 192.58492187 3.8125 192.37109375 C29.00737265 187.94560262 50.80164987 176.56378948 65.90234375 155.3515625 C74.44215585 141.70694653 80.26485378 126.20517974 81 110 C81.03996094 109.33613281 81.07992187 108.67226562 81.12109375 107.98828125 C81.81437991 85.92546884 74.16282795 64.77699479 60 48 C59.53078125 47.39800781 59.0615625 46.79601562 58.578125 46.17578125 C44.04401278 28.00814098 21.9928775 20.97966355 0 17 C0 11.39 0 5.78 0 0 Z " fill="#F2EFEC" transform="translate(132,20)"/>
<path d="M0 0 C10.15989289 10.61306796 19.1875 25.60144709 19.1875 40.6875 C10.2775 40.6875 1.3675 40.6875 -7.8125 40.6875 C-8.616875 38.58375 -9.42125 36.48 -10.25 34.3125 C-14.87371287 23.11179679 -22.92682267 14.79854197 -33.95703125 9.6953125 C-45.83196339 5.20209493 -58.2803572 6.11264017 -69.8984375 10.98046875 C-83.10407342 17.72800601 -88.36764762 27.07536905 -93.8125 40.6875 C-102.7225 40.6875 -111.6325 40.6875 -120.8125 40.6875 C-117.56657314 21.21193884 -109.43587938 4.70230568 -93.1875 -7.2421875 C-62.89328273 -27.29489382 -26.5010471 -25.27681394 0 0 Z " fill="#F2EFEC" transform="translate(175.8125,74.3125)"/>
<path d="M0 0 C13.86 0.495 13.86 0.495 28 1 C29.010625 3.145 30.02125 5.29 31.0625 7.5 C36.78229237 19.10010276 44.25713439 26.40593932 56.625 30.875 C68.84170543 34.08284561 81.38561524 32.56373362 92.4921875 26.6796875 C102.31547787 20.62695303 108.3778078 11.86657659 112 1 C121.24 0.67 130.48 0.34 140 0 C136.58720815 18.77035515 128.51466065 34.84633113 112.84375 46.30859375 C95.88842884 57.95971016 76.30356044 63.09173643 55.859375 59.34765625 C36.01173742 54.51031362 19.80450722 43.3745207 9 26 C4.82060921 18.24745972 0 9.00704746 0 0 Z " fill="#F2EFEC" transform="translate(55,135)"/>
</svg>
