<svg width="256" height="256" viewBox="0 0 256 256" fill="none" xmlns="http://www.w3.org/2000/svg">
<path d="M244.527 128C244.527 192.356 192.356 244.527 128 244.527C63.6439 244.527 11.473 192.356 11.473 128C11.473 63.6439 63.6439 11.473 128 11.473C192.356 11.473 244.527 63.6439 244.527 128Z" fill="white" stroke="#0052FF" stroke-width="22.946"/>
<path d="M127.975 31.999V100.017L183.952 125.705L127.975 31.999Z" fill="#0052FF"/>
<path d="M127.983 31.999L71.998 125.705L127.983 100.017V31.999Z" fill="#6697FF"/>
<path d="M127.975 169.782V215.999L183.99 136.41L127.975 169.782Z" fill="#0052FF"/>
<path d="M127.983 215.999V169.775L71.998 136.41L127.983 215.999Z" fill="#6697FF"/>
<path d="M127.975 159.084L183.952 125.704L127.975 100.03V159.084Z" fill="#6697FF"/>
<path d="M71.998 125.704L127.983 159.084V100.03L71.998 125.704Z" fill="#CCDCFF"/>
</svg>
