<svg version="1.1" id="Layer_1" xmlns="http://www.w3.org/2000/svg" xmlns:xlink="http://www.w3.org/1999/xlink" x="0px" y="0px"
	 width="100%" viewBox="0 0 3523 3408" enable-background="new 0 0 3523 3408" xml:space="preserve">
<path fill="#FFFFFF" opacity="1.000000" stroke="none" 
	d="
M2.000000,1226.000000 
	C2.000000,817.333374 2.000000,409.666779 2.000000,2.000109 
	C1176.666504,2.000073 2351.333008,2.000073 3525.999512,2.000036 
	C3525.999756,1137.999634 3525.999756,2273.999268 3526.000000,3409.999268 
	C2351.333740,3409.999512 1176.667603,3409.999512 2.000697,3409.999756 
	C2.000000,2682.333252 2.000000,1954.666626 2.000000,1226.000000 
M3201.603760,1391.790039 
	C3201.091309,1389.861328 3200.457520,1387.955566 3200.084961,1386.000244 
	C3197.051514,1370.078247 3194.575928,1354.030273 3190.957520,1338.243652 
	C3184.295898,1309.176392 3177.511963,1280.115479 3169.766357,1251.324463 
	C3162.446289,1224.115112 3154.258057,1197.116211 3145.624268,1170.291138 
	C3139.836426,1152.308228 3132.495361,1134.829956 3126.042236,1117.055786 
	C3111.964355,1078.277832 3095.426514,1040.508179 3077.437012,1003.457153 
	C3062.642578,972.987305 3045.970215,943.419312 3029.811523,913.624512 
	C3008.891846,875.052002 2985.049316,838.277832 2960.087402,802.228088 
	C2937.416016,769.486084 2913.703613,737.505188 2888.017090,707.056580 
	C2867.697510,682.969727 2847.923096,658.302368 2826.094727,635.638000 
	C2794.926025,603.275330 2762.140869,572.467041 2729.944824,541.098755 
	C2724.961426,536.243591 2719.525635,531.836792 2714.148926,527.404297 
	C2700.079346,515.805542 2686.028320,504.179932 2671.780518,492.802643 
	C2655.713135,479.972412 2639.675781,467.083252 2623.182373,454.815094 
	C2609.086914,444.330414 2594.478271,434.519196 2579.892334,424.713989 
	C2559.788818,411.199707 2539.827148,397.426544 2519.189209,384.767731 
	C2496.825928,371.050598 2473.951660,358.128540 2450.937744,345.521210 
	C2428.553711,333.259033 2405.885498,321.482086 2383.011475,310.159882 
	C2366.340332,301.907898 2349.277344,294.395721 2332.127197,287.175903 
	C2309.783691,277.769806 2287.339600,268.554962 2264.643066,260.047516 
	C2243.512207,252.126984 2222.035156,245.117462 2200.631592,237.941650 
	C2184.591064,232.563858 2168.618408,226.822128 2152.274902,222.543518 
	C2119.898926,214.067810 2087.384766,206.058380 2054.738770,198.695145 
	C2032.811279,193.749466 2010.624878,189.839691 1988.431885,186.215729 
	C1968.201416,182.912216 1947.808716,180.597916 1927.482544,177.885986 
	C1912.734131,175.918243 1898.018311,173.575562 1883.213989,172.189240 
	C1864.083496,170.397781 1844.897949,168.929291 1825.702515,168.159500 
	C1798.134277,167.053955 1770.537231,166.273651 1742.949585,166.174896 
	C1722.699219,166.102386 1702.441162,167.262512 1682.192505,168.031204 
	C1667.601440,168.585098 1653.020142,169.393555 1638.435425,170.108566 
	C1637.444092,170.157166 1636.463989,170.404922 1635.473389,170.508530 
	C1624.289673,171.678192 1613.111450,172.905869 1601.918457,173.978851 
	C1592.684448,174.864044 1583.393799,175.257004 1574.197876,176.419205 
	C1561.738281,177.993896 1549.340820,180.066284 1536.924561,181.977020 
	C1518.290771,184.844589 1499.512207,187.020355 1481.067871,190.815628 
	C1449.943604,197.220016 1418.897217,204.120316 1388.072144,211.828079 
	C1359.780518,218.902374 1331.619019,226.656845 1303.768921,235.299744 
	C1263.453247,247.811188 1223.806274,262.312408 1185.141113,279.337830 
	C1155.336670,292.461670 1125.187012,304.914764 1096.022339,319.346436 
	C1066.843872,333.784943 1038.428467,349.841064 1010.180054,366.061218 
	C985.417786,380.279633 960.973389,395.132629 937.087952,410.773285 
	C915.444031,424.946075 894.621765,440.391876 873.670593,455.597931 
	C859.447144,465.921112 845.385315,476.499512 831.692688,487.512726 
	C817.478210,498.945648 803.721497,510.953979 789.900146,522.867859 
	C774.822571,535.864563 759.218628,548.346985 745.037903,562.269470 
	C701.368042,605.144226 657.380676,647.757446 619.130188,695.769104 
	C601.773010,717.555725 583.476746,738.631958 566.879333,760.975952 
	C548.893066,785.189819 531.997314,810.245300 515.335571,835.403687 
	C493.314270,868.654846 472.831665,902.843323 453.833984,937.957703 
	C431.801727,978.681152 411.208588,1020.115417 393.094727,1062.667358 
	C379.849976,1093.781128 369.165466,1125.978516 357.072052,1157.590454 
	C342.571136,1195.495728 331.888275,1234.560669 321.862274,1273.791260 
	C314.730530,1301.696899 308.520020,1329.849854 302.463623,1358.013916 
	C299.057465,1373.853638 296.606049,1389.909912 294.075592,1405.923950 
	C291.392548,1422.903809 288.925323,1439.923584 286.738098,1456.973999 
	C284.885803,1471.413208 283.350342,1485.901733 282.080811,1500.404175 
	C281.040070,1512.293091 280.701752,1524.241577 279.863831,1536.150635 
	C278.678528,1552.996216 276.140350,1569.838623 276.270050,1586.666382 
	C276.582916,1627.249023 273.845184,1667.875244 277.859955,1708.427979 
	C279.165680,1721.616821 279.124176,1734.933350 280.013763,1748.170288 
	C281.213257,1766.017822 282.646362,1783.850708 284.126007,1801.677734 
	C284.700653,1808.601074 285.498993,1815.517212 286.507477,1822.390747 
	C288.186615,1833.835205 290.158813,1845.236328 291.932526,1856.667358 
	C294.823456,1875.298828 296.906677,1894.092163 300.677917,1912.541992 
	C306.972443,1943.336182 313.908173,1974.015747 321.343231,2004.556274 
	C331.545868,2046.465210 344.368958,2087.629639 359.146820,2128.146484 
	C368.591064,2154.039795 378.364563,2179.831055 388.778229,2205.346924 
	C397.176727,2225.925293 406.671204,2246.059570 415.826935,2266.324463 
	C433.776978,2306.054199 454.442871,2344.375732 476.761017,2381.786865 
	C490.024567,2404.020020 503.686981,2426.042236 517.952271,2447.642822 
	C532.207031,2469.227295 547.211670,2490.329590 562.292664,2511.352539 
	C584.150757,2541.822998 607.236938,2571.346191 632.217224,2599.347900 
	C648.569153,2617.677490 664.343567,2636.573486 681.478821,2654.140869 
	C704.248718,2677.484619 728.031433,2699.844482 751.503906,2722.497314 
	C760.828857,2731.496826 770.436523,2740.206299 780.015259,2748.938477 
	C785.901489,2754.304443 791.786194,2759.701660 798.002808,2764.670410 
	C816.127686,2779.157227 834.200562,2793.725098 852.702026,2807.721436 
	C874.644714,2824.321777 896.713989,2840.788574 919.289185,2856.507812 
	C938.090454,2869.599854 957.391113,2882.045410 977.029297,2893.847412 
	C1004.647583,2910.444824 1032.504395,2926.692139 1060.785400,2942.125000 
	C1083.227783,2954.371826 1106.280762,2965.549316 1129.397095,2976.495361 
	C1148.606934,2985.591797 1168.147217,2994.044678 1187.829468,3002.075439 
	C1207.505493,3010.104004 1227.329468,3017.879395 1247.462769,3024.653809 
	C1283.961792,3036.934326 1320.490112,3049.251709 1357.477905,3059.917480 
	C1387.366821,3068.536621 1417.848877,3075.207520 1448.257568,3081.877441 
	C1470.213867,3086.693848 1492.448608,3090.283691 1514.621826,3094.051514 
	C1528.963501,3096.488037 1543.395630,3098.435791 1557.828247,3100.281738 
	C1574.225098,3102.378662 1590.652832,3104.262207 1607.096069,3105.957764 
	C1616.981079,3106.977295 1626.923462,3107.432373 1636.836182,3108.193359 
	C1653.011108,3109.434814 1669.166504,3111.016357 1685.360107,3111.910156 
	C1705.590332,3113.027100 1725.943604,3110.301270 1746.129883,3113.844971 
	C1749.336914,3114.408203 1752.775269,3113.841553 1756.088135,3113.570312 
	C1761.025391,3113.166016 1765.936523,3112.236572 1770.875244,3112.091797 
	C1798.456299,3111.284424 1826.042480,3110.648682 1853.626587,3109.943115 
	C1854.956055,3109.908936 1856.286133,3109.802246 1857.610474,3109.672852 
	C1870.120483,3108.452637 1882.628296,3107.208984 1895.138916,3105.994141 
	C1903.380859,3105.193604 1911.667725,3104.727295 1919.862183,3103.590088 
	C1941.801636,3100.545898 1963.742065,3097.467773 1985.606812,3093.937012 
	C2006.502930,3090.562744 2027.406738,3087.093262 2048.118408,3082.762207 
	C2068.853760,3078.426270 2089.443604,3073.309082 2109.936523,3067.923584 
	C2135.593750,3061.180664 2161.419678,3054.818115 2186.574463,3046.485352 
	C2225.931885,3033.447510 2265.073242,3019.635498 2303.756836,3004.725830 
	C2329.772461,2994.698730 2355.103760,2982.760498 2380.258789,2970.672852 
	C2406.355713,2958.132568 2432.065186,2944.743408 2457.577881,2931.043701 
	C2476.887451,2920.674561 2495.935791,2909.737549 2514.532715,2898.142822 
	C2537.350586,2883.915771 2559.676025,2868.888428 2582.024414,2853.923096 
	C2596.347656,2844.331787 2610.756592,2834.780762 2624.366211,2824.230469 
	C2648.997559,2805.136230 2673.356445,2785.663330 2697.272217,2765.682373 
	C2718.656250,2747.816895 2740.060547,2729.850342 2760.074951,2710.500244 
	C2790.203369,2681.371826 2820.400391,2652.236816 2847.262695,2619.900635 
	C2863.371826,2600.509277 2880.793945,2582.176514 2896.353271,2562.368408 
	C2918.473877,2534.208252 2940.251953,2505.702637 2960.636719,2476.277832 
	C2980.296143,2447.899658 2998.791504,2418.634277 3016.348389,2388.902344 
	C3035.084961,2357.172119 3052.906006,2324.837891 3069.653320,2292.015625 
	C3082.767090,2266.314941 3094.221191,2239.712402 3105.340088,2213.062988 
	C3117.611816,2183.650146 3129.376953,2153.981445 3140.054443,2123.958984 
	C3152.620117,2088.628906 3164.433105,2053.002930 3172.910156,2016.383423 
	C3179.182861,1989.285156 3186.068359,1962.324219 3192.008545,1935.155151 
	C3196.457275,1914.807007 3200.055420,1894.262939 3203.614990,1873.733643 
	C3206.100830,1859.396973 3208.149414,1844.970581 3209.900879,1830.524414 
	C3211.653320,1816.069580 3212.782715,1801.539429 3214.205566,1787.044189 
	C3216.113037,1767.617188 3218.260986,1748.210571 3219.879883,1728.759644 
	C3220.952393,1715.873901 3221.926270,1702.920776 3221.823242,1690.006714 
	C3221.449219,1643.087769 3220.696045,1596.171021 3219.851074,1549.257690 
	C3219.690430,1540.333252 3218.588135,1531.415039 3217.694580,1522.516602 
	C3215.876953,1504.417114 3214.026611,1486.319214 3211.956055,1468.247314 
	C3210.488525,1455.438354 3208.677246,1442.667725 3206.947266,1429.889771 
	C3205.305664,1417.761963 3203.570068,1405.647095 3201.603760,1391.790039 
z"/>
<path fill="#E4E5E5" opacity="1.000000" stroke="none" 
	d="
M3201.739746,1392.658203 
	C3203.570068,1405.647095 3205.305664,1417.761963 3206.947266,1429.889771 
	C3208.677246,1442.667725 3210.488525,1455.438354 3211.956055,1468.247314 
	C3214.026611,1486.319214 3215.876953,1504.417114 3217.694580,1522.516602 
	C3218.588135,1531.415039 3219.690430,1540.333252 3219.851074,1549.257690 
	C3220.696045,1596.171021 3221.449219,1643.087769 3221.823242,1690.006714 
	C3221.926270,1702.920776 3220.952393,1715.873901 3219.879883,1728.759644 
	C3218.260986,1748.210571 3216.113037,1767.617188 3214.205566,1787.044189 
	C3212.782715,1801.539429 3211.653320,1816.069580 3209.900879,1830.524414 
	C3208.149414,1844.970581 3206.100830,1859.396973 3203.614990,1873.733643 
	C3200.055420,1894.262939 3196.457275,1914.807007 3192.008545,1935.155151 
	C3186.068359,1962.324219 3179.182861,1989.285156 3172.910156,2016.383423 
	C3164.433105,2053.002930 3152.620117,2088.628906 3140.054443,2123.958984 
	C3129.376953,2153.981445 3117.611816,2183.650146 3105.340088,2213.062988 
	C3094.221191,2239.712402 3082.767090,2266.314941 3069.653320,2292.015625 
	C3052.906006,2324.837891 3035.084961,2357.172119 3016.348389,2388.902344 
	C2998.791504,2418.634277 2980.296143,2447.899658 2960.636719,2476.277832 
	C2940.251953,2505.702637 2918.473877,2534.208252 2896.353271,2562.368408 
	C2880.793945,2582.176514 2863.371826,2600.509277 2847.262695,2619.900635 
	C2820.400391,2652.236816 2790.203369,2681.371826 2760.074951,2710.500244 
	C2740.060547,2729.850342 2718.656250,2747.816895 2697.272217,2765.682373 
	C2673.356445,2785.663330 2648.997559,2805.136230 2624.366211,2824.230469 
	C2610.756592,2834.780762 2596.347656,2844.331787 2582.024414,2853.923096 
	C2559.676025,2868.888428 2537.350586,2883.915771 2514.532715,2898.142822 
	C2495.935791,2909.737549 2476.887451,2920.674561 2457.577881,2931.043701 
	C2432.065186,2944.743408 2406.355713,2958.132568 2380.258789,2970.672852 
	C2355.103760,2982.760498 2329.772461,2994.698730 2303.756836,3004.725830 
	C2265.073242,3019.635498 2225.931885,3033.447510 2186.574463,3046.485352 
	C2161.419678,3054.818115 2135.593750,3061.180664 2109.936523,3067.923584 
	C2089.443604,3073.309082 2068.853760,3078.426270 2048.118408,3082.762207 
	C2027.406738,3087.093262 2006.502930,3090.562744 1985.606812,3093.937012 
	C1963.742065,3097.467773 1941.801636,3100.545898 1919.862183,3103.590088 
	C1911.667725,3104.727295 1903.380859,3105.193604 1895.138916,3105.994141 
	C1882.628296,3107.208984 1870.120483,3108.452637 1857.610474,3109.672852 
	C1856.286133,3109.802246 1854.956055,3109.908936 1853.626587,3109.943115 
	C1826.042480,3110.648682 1798.456299,3111.284424 1770.875244,3112.091797 
	C1765.936523,3112.236572 1761.025391,3113.166016 1756.088135,3113.570312 
	C1752.775269,3113.841553 1749.336914,3114.408203 1746.129883,3113.844971 
	C1725.943604,3110.301270 1705.590332,3113.027100 1685.360107,3111.910156 
	C1669.166504,3111.016357 1653.011108,3109.434814 1636.836182,3108.193359 
	C1626.923462,3107.432373 1616.981079,3106.977295 1607.096069,3105.957764 
	C1590.652832,3104.262207 1574.225098,3102.378662 1557.828247,3100.281738 
	C1543.395630,3098.435791 1528.963501,3096.488037 1514.621826,3094.051514 
	C1492.448608,3090.283691 1470.213867,3086.693848 1448.257568,3081.877441 
	C1417.848877,3075.207520 1387.366821,3068.536621 1357.477905,3059.917480 
	C1320.490112,3049.251709 1283.961792,3036.934326 1247.462769,3024.653809 
	C1227.329468,3017.879395 1207.505493,3010.104004 1187.829468,3002.075439 
	C1168.147217,2994.044678 1148.606934,2985.591797 1129.397095,2976.495361 
	C1106.280762,2965.549316 1083.227783,2954.371826 1060.785400,2942.125000 
	C1032.504395,2926.692139 1004.647583,2910.444824 977.029297,2893.847412 
	C957.391113,2882.045410 938.090454,2869.599854 919.289185,2856.507812 
	C896.713989,2840.788574 874.644714,2824.321777 852.702026,2807.721436 
	C834.200562,2793.725098 816.127686,2779.157227 798.002808,2764.670410 
	C791.786194,2759.701660 785.901489,2754.304443 780.015259,2748.938477 
	C770.436523,2740.206299 760.828857,2731.496826 751.503906,2722.497314 
	C728.031433,2699.844482 704.248718,2677.484619 681.478821,2654.140869 
	C664.343567,2636.573486 648.569153,2617.677490 632.217224,2599.347900 
	C607.236938,2571.346191 584.150757,2541.822998 562.292664,2511.352539 
	C547.211670,2490.329590 532.207031,2469.227295 517.952271,2447.642822 
	C503.686981,2426.042236 490.024567,2404.020020 476.761017,2381.786865 
	C454.442871,2344.375732 433.776978,2306.054199 415.826935,2266.324463 
	C406.671204,2246.059570 397.176727,2225.925293 388.778229,2205.346924 
	C378.364563,2179.831055 368.591064,2154.039795 359.146820,2128.146484 
	C344.368958,2087.629639 331.545868,2046.465210 321.343231,2004.556274 
	C313.908173,1974.015747 306.972443,1943.336182 300.677917,1912.541992 
	C296.906677,1894.092163 294.823456,1875.298828 291.932526,1856.667358 
	C290.158813,1845.236328 288.186615,1833.835205 286.507477,1822.390747 
	C285.498993,1815.517212 284.700653,1808.601074 284.126007,1801.677734 
	C282.646362,1783.850708 281.213257,1766.017822 280.013763,1748.170288 
	C279.124176,1734.933350 279.165680,1721.616821 277.859955,1708.427979 
	C273.845184,1667.875244 276.582916,1627.249023 276.270050,1586.666382 
	C276.140350,1569.838623 278.678528,1552.996216 279.863831,1536.150635 
	C280.701752,1524.241577 281.040070,1512.293091 282.080811,1500.404175 
	C283.350342,1485.901733 284.885803,1471.413208 286.738098,1456.973999 
	C288.925323,1439.923584 291.392548,1422.903809 294.075592,1405.923950 
	C296.606049,1389.909912 299.057465,1373.853638 302.463623,1358.013916 
	C308.520020,1329.849854 314.730530,1301.696899 321.862274,1273.791260 
	C331.888275,1234.560669 342.571136,1195.495728 357.072052,1157.590454 
	C369.165466,1125.978516 379.849976,1093.781128 393.094727,1062.667358 
	C411.208588,1020.115417 431.801727,978.681152 453.833984,937.957703 
	C472.831665,902.843323 493.314270,868.654846 515.335571,835.403687 
	C531.997314,810.245300 548.893066,785.189819 566.879333,760.975952 
	C583.476746,738.631958 601.773010,717.555725 619.130188,695.769104 
	C657.380676,647.757446 701.368042,605.144226 745.037903,562.269470 
	C759.218628,548.346985 774.822571,535.864563 789.900146,522.867859 
	C803.721497,510.953979 817.478210,498.945648 831.692688,487.512726 
	C845.385315,476.499512 859.447144,465.921112 873.670593,455.597931 
	C894.621765,440.391876 915.444031,424.946075 937.087952,410.773285 
	C960.973389,395.132629 985.417786,380.279633 1010.180054,366.061218 
	C1038.428467,349.841064 1066.843872,333.784943 1096.022339,319.346436 
	C1125.187012,304.914764 1155.336670,292.461670 1185.141113,279.337830 
	C1223.806274,262.312408 1263.453247,247.811188 1303.768921,235.299744 
	C1331.619019,226.656845 1359.780518,218.902374 1388.072144,211.828079 
	C1418.897217,204.120316 1449.943604,197.220016 1481.067871,190.815628 
	C1499.512207,187.020355 1518.290771,184.844589 1536.924561,181.977020 
	C1549.340820,180.066284 1561.738281,177.993896 1574.197876,176.419205 
	C1583.393799,175.257004 1592.684448,174.864044 1601.918457,173.978851 
	C1613.111450,172.905869 1624.289673,171.678192 1635.473389,170.508530 
	C1636.463989,170.404922 1637.444092,170.157166 1638.435425,170.108566 
	C1653.020142,169.393555 1667.601440,168.585098 1682.192505,168.031204 
	C1702.441162,167.262512 1722.699219,166.102386 1742.949585,166.174896 
	C1770.537231,166.273651 1798.134277,167.053955 1825.702515,168.159500 
	C1844.897949,168.929291 1864.083496,170.397781 1883.213989,172.189240 
	C1898.018311,173.575562 1912.734131,175.918243 1927.482544,177.885986 
	C1947.808716,180.597916 1968.201416,182.912216 1988.431885,186.215729 
	C2010.624878,189.839691 2032.811279,193.749466 2054.738770,198.695145 
	C2087.384766,206.058380 2119.898926,214.067810 2152.274902,222.543518 
	C2168.618408,226.822128 2184.591064,232.563858 2200.631592,237.941650 
	C2222.035156,245.117462 2243.512207,252.126984 2264.643066,260.047516 
	C2287.339600,268.554962 2309.783691,277.769806 2332.127197,287.175903 
	C2349.277344,294.395721 2366.340332,301.907898 2383.011475,310.159882 
	C2405.885498,321.482086 2428.553711,333.259033 2450.937744,345.521210 
	C2473.951660,358.128540 2496.825928,371.050598 2519.189209,384.767731 
	C2539.827148,397.426544 2559.788818,411.199707 2579.892334,424.713989 
	C2594.478271,434.519196 2609.086914,444.330414 2623.182373,454.815094 
	C2639.675781,467.083252 2655.713135,479.972412 2671.780518,492.802643 
	C2686.028320,504.179932 2700.079346,515.805542 2714.148926,527.404297 
	C2719.525635,531.836792 2724.961426,536.243591 2729.944824,541.098755 
	C2762.140869,572.467041 2794.926025,603.275330 2826.094727,635.638000 
	C2847.923096,658.302368 2867.697510,682.969727 2888.017090,707.056580 
	C2913.703613,737.505188 2937.416016,769.486084 2960.087402,802.228088 
	C2985.049316,838.277832 3008.891846,875.052002 3029.811523,913.624512 
	C3045.970215,943.419312 3062.642578,972.987305 3077.437012,1003.457153 
	C3095.426514,1040.508179 3111.964355,1078.277832 3126.042236,1117.055786 
	C3132.495361,1134.829956 3139.836426,1152.308228 3145.624268,1170.291138 
	C3154.258057,1197.116211 3162.446289,1224.115112 3169.766357,1251.324463 
	C3177.511963,1280.115479 3184.295898,1309.176392 3190.957520,1338.243652 
	C3194.575928,1354.030273 3197.051514,1370.078247 3200.084961,1386.000244 
	C3200.457520,1387.955566 3201.091309,1389.861328 3201.739746,1392.658203 
M608.946533,2340.041504 
	C667.963562,2435.848877 737.691040,2523.084717 818.521423,2601.382080 
	C958.138611,2736.624756 1119.293335,2837.431641 1302.283936,2903.119141 
	C1428.255493,2948.339111 1558.255859,2973.617676 1691.890503,2979.466309 
	C1781.976562,2983.408447 1871.684692,2978.688721 1960.875244,2964.527832 
	C2034.701050,2952.806885 2107.129883,2935.517334 2177.890625,2911.557617 
	C2383.898926,2841.802734 2563.894531,2729.846191 2714.130859,2572.668213 
	C2966.005371,2309.154785 3092.333496,1994.188232 3092.956299,1629.327148 
	C3093.055908,1570.961304 3088.427246,1512.872070 3080.398438,1455.031982 
	C3070.950439,1386.967773 3056.606201,1319.994995 3036.597412,1254.268677 
	C2964.052002,1015.962891 2835.926270,812.352844 2650.873291,645.867065 
	C2418.902588,437.170990 2146.408936,322.327057 1834.705933,301.630310 
	C1762.741455,296.851929 1690.880127,298.500031 1619.090698,305.535645 
	C1560.006714,311.326050 1501.541138,320.802490 1443.853760,334.642975 
	C1211.734741,390.333588 1008.316895,499.817017 834.418945,663.191833 
	C672.366760,815.437744 555.143188,997.138123 482.763275,1207.491577 
	C441.099091,1328.577637 417.988647,1453.300293 412.502563,1581.166260 
	C409.801331,1644.125366 411.325928,1707.061890 417.559601,1769.871216 
	C422.894897,1823.628906 431.062927,1876.905762 442.761169,1929.610718 
	C475.077850,2075.209961 530.338684,2211.582031 608.946533,2340.041504 
z"/>
<path fill="#03343F" opacity="1.000000" stroke="none" 
	d="
M608.559937,2339.423340 
	C530.338684,2211.582031 475.077850,2075.209961 442.761169,1929.610718 
	C431.062927,1876.905762 422.894897,1823.628906 417.559601,1769.871216 
	C411.325928,1707.061890 409.801331,1644.125366 412.502563,1581.166260 
	C417.988647,1453.300293 441.099091,1328.577637 482.763275,1207.491577 
	C555.143188,997.138123 672.366760,815.437744 834.418945,663.191833 
	C1008.316895,499.817017 1211.734741,390.333588 1443.853760,334.642975 
	C1501.541138,320.802490 1560.006714,311.326050 1619.090698,305.535645 
	C1690.880127,298.500031 1762.741455,296.851929 1834.705933,301.630310 
	C2146.408936,322.327057 2418.902588,437.170990 2650.873291,645.867065 
	C2835.926270,812.352844 2964.052002,1015.962891 3036.597412,1254.268677 
	C3056.606201,1319.994995 3070.950439,1386.967773 3080.398438,1455.031982 
	C3088.427246,1512.872070 3093.055908,1570.961304 3092.956299,1629.327148 
	C3092.333496,1994.188232 2966.005371,2309.154785 2714.130859,2572.668213 
	C2563.894531,2729.846191 2383.898926,2841.802734 2177.890625,2911.557617 
	C2107.129883,2935.517334 2034.701050,2952.806885 1960.875244,2964.527832 
	C1871.684692,2978.688721 1781.976562,2983.408447 1691.890503,2979.466309 
	C1558.255859,2973.617676 1428.255493,2948.339111 1302.283936,2903.119141 
	C1119.293335,2837.431641 958.138611,2736.624756 818.521423,2601.382080 
	C737.691040,2523.084717 667.963562,2435.848877 608.559937,2339.423340 
M2549.081299,713.909668 
	C2466.852051,643.049988 2376.814697,584.128113 2278.899414,537.265991 
	C2136.942139,469.325409 1987.292725,430.776184 1830.355347,420.502686 
	C1766.072388,416.294525 1701.833496,417.492706 1637.650513,423.491943 
	C1584.516479,428.458466 1531.897095,436.565765 1479.940063,448.555481 
	C1297.534058,490.647705 1133.108276,570.114136 987.194153,687.439880 
	C722.454346,900.310303 553.561218,1215.498657 532.460510,1567.536011 
	C527.279236,1653.979370 531.453918,1740.065674 544.514160,1825.654785 
	C555.282288,1896.223022 571.939636,1965.425903 595.293213,2032.921143 
	C678.666870,2273.883545 822.437317,2471.044678 1027.195923,2622.771729 
	C1220.677734,2766.142090 1438.658447,2844.036621 1678.876831,2859.458984 
	C1758.572632,2864.575439 1838.040039,2861.128174 1917.212158,2850.418457 
	C1990.977783,2840.440186 2063.284424,2824.157471 2133.883057,2800.614746 
	C2364.467529,2723.720703 2556.303467,2590.549805 2707.715088,2400.614502 
	C2866.808838,2201.042725 2953.930176,1972.857056 2971.496338,1718.276611 
	C2976.415283,1646.988892 2974.299072,1575.776123 2966.444824,1504.698730 
	C2959.186768,1439.018799 2947.082031,1374.293823 2929.016357,1310.774170 
	C2861.844482,1074.596558 2735.138916,876.163635 2549.081299,713.909668 
z"/>
<path fill="#FEFEFE" opacity="1.000000" stroke="none" 
	d="
M2549.620605,714.368530 
	C2735.138916,876.163635 2861.844482,1074.596558 2929.016357,1310.774170 
	C2947.082031,1374.293823 2959.186768,1439.018799 2966.444824,1504.698730 
	C2974.299072,1575.776123 2976.415283,1646.988892 2971.496338,1718.276611 
	C2953.930176,1972.857056 2866.808838,2201.042725 2707.715088,2400.614502 
	C2556.303467,2590.549805 2364.467529,2723.720703 2133.883057,2800.614746 
	C2063.284424,2824.157471 1990.977783,2840.440186 1917.212158,2850.418457 
	C1838.040039,2861.128174 1758.572632,2864.575439 1678.876831,2859.458984 
	C1438.658447,2844.036621 1220.677734,2766.142090 1027.195923,2622.771729 
	C822.437317,2471.044678 678.666870,2273.883545 595.293213,2032.921143 
	C571.939636,1965.425903 555.282288,1896.223022 544.514160,1825.654785 
	C531.453918,1740.065674 527.279236,1653.979370 532.460510,1567.536011 
	C553.561218,1215.498657 722.454346,900.310303 987.194153,687.439880 
	C1133.108276,570.114136 1297.534058,490.647705 1479.940063,448.555481 
	C1531.897095,436.565765 1584.516479,428.458466 1637.650513,423.491943 
	C1701.833496,417.492706 1766.072388,416.294525 1830.355347,420.502686 
	C1987.292725,430.776184 2136.942139,469.325409 2278.899414,537.265991 
	C2376.814697,584.128113 2466.852051,643.049988 2549.620605,714.368530 
M2452.326172,955.692322 
	C2442.375000,931.734497 2433.702393,907.144470 2422.229248,883.939087 
	C2389.793213,818.333374 2345.027100,762.073975 2289.612549,714.254517 
	C2237.332520,669.139832 2178.720459,634.843079 2113.703857,611.696655 
	C2037.874268,584.700745 1959.947510,566.624390 1879.921875,557.519836 
	C1842.190063,553.227051 1804.400513,550.085388 1766.426392,550.117188 
	C1742.460327,550.137268 1718.442139,550.334717 1694.542725,551.905640 
	C1662.694336,553.999146 1630.716675,556.032593 1599.201416,560.788208 
	C1562.418457,566.338745 1525.809326,573.677429 1489.599243,582.245361 
	C1429.875854,596.376770 1371.599854,615.015930 1317.126587,644.107422 
	C1272.491333,667.944885 1231.776489,697.148438 1195.021729,731.905640 
	C1157.257568,767.617310 1125.211060,807.918823 1098.896729,852.697693 
	C1079.453857,885.783325 1063.228394,920.393677 1050.013306,957.488281 
	C1003.694946,957.530273 957.376648,957.590759 911.058289,957.585999 
	C906.344666,957.585510 902.387085,957.756042 898.872742,962.217285 
	C863.559631,1007.044434 831.521545,1054.053223 803.533142,1103.796875 
	C802.689270,1105.296753 802.588928,1107.214966 802.152405,1108.897827 
	C1435.867310,1108.897827 2068.864014,1108.897827 2702.903320,1108.897827 
	C2701.684814,1106.054565 2701.009521,1103.944580 2699.938965,1102.059082 
	C2672.253418,1053.302856 2640.776611,1007.115479 2606.147949,963.028076 
	C2602.507812,958.393799 2598.544189,957.545166 2593.314453,957.558044 
	C2550.327393,957.664246 2507.339844,957.630005 2464.352539,957.597107 
	C2460.364746,957.594055 2456.376953,957.305847 2452.326172,955.692322 
M1650.043091,2724.898682 
	C1660.329346,2725.788086 1670.603027,2726.869873 1680.903687,2727.536133 
	C1754.948608,2732.323975 1828.759766,2729.652588 1902.236572,2719.503662 
	C1974.642334,2709.502441 2045.379761,2692.359863 2114.291748,2667.902344 
	C2247.051514,2620.785156 2366.208984,2550.503662 2471.988525,2457.512207 
	C2474.222656,2455.548096 2477.655029,2454.241455 2477.887451,2450.715332 
	C1993.797241,2450.715332 1510.199219,2450.715332 1024.673584,2450.715332 
	C1030.045410,2455.473877 1033.952515,2459.000000 1037.928467,2462.447266 
	C1123.112549,2536.304932 1217.274292,2595.931641 1320.799927,2640.661133 
	C1425.507080,2685.900635 1534.603516,2714.098389 1650.043091,2724.898682 
M2572.249512,1982.296753 
	C2615.796875,1982.296753 2659.344482,1982.296753 2703.429199,1982.296753 
	C2703.429199,1753.641357 2703.429199,1526.217651 2703.429199,1298.171143 
	C2659.048828,1298.171143 2615.264160,1298.171143 2570.225342,1298.171143 
	C2570.225342,1311.561890 2570.225342,1324.459717 2570.225342,1337.357666 
	C2570.225342,1350.355469 2570.225342,1363.353149 2570.225342,1376.350952 
	C2570.225342,1389.348755 2570.225342,1402.346436 2570.225342,1415.344238 
	C2570.225342,1428.342041 2570.225342,1441.339844 2570.225342,1454.337646 
	C2570.225342,1467.335449 2570.225342,1480.333130 2570.225342,1493.330933 
	C2570.225342,1506.328735 2570.225342,1519.326416 2570.225342,1532.324219 
	C2570.225342,1545.655273 2570.225342,1558.986328 2570.225342,1572.317383 
	C2570.225342,1585.315186 2570.225342,1598.312866 2570.225342,1611.310669 
	C2570.225342,1624.308472 2570.225342,1637.306274 2570.225342,1650.304077 
	C2570.225342,1663.301880 2570.226318,1676.299561 2570.225342,1689.297363 
	C2570.224365,1702.295166 2570.307129,1715.293579 2570.194824,1728.290405 
	C2570.083984,1741.093506 2570.633057,1753.931763 2569.803955,1767.151001 
	C2564.126465,1766.674072 2562.828613,1762.854736 2560.796143,1760.085327 
	C2511.921875,1693.488037 2463.069092,1626.875122 2414.252686,1560.235474 
	C2352.053955,1475.327637 2289.839844,1390.431152 2227.826660,1305.387939 
	C2223.645508,1299.654175 2219.204102,1297.352539 2212.109131,1297.410400 
	C2174.118164,1297.720703 2136.123291,1297.544800 2098.129883,1297.582275 
	C2094.907471,1297.585449 2091.685547,1297.921875 2088.061035,1298.126343 
	C2088.061035,1526.368530 2088.061035,1753.771729 2088.061035,1981.704224 
	C2132.207520,1981.704224 2175.664062,1981.704224 2220.313721,1981.704224 
	C2220.313721,1976.901733 2220.313965,1972.658325 2220.313965,1968.415039 
	C2220.312256,1825.106201 2220.310547,1681.797485 2220.308594,1538.488647 
	C2220.308594,1531.156616 2220.215088,1523.822754 2220.358398,1516.493530 
	C2220.399658,1514.385864 2221.117676,1512.291382 2222.031494,1507.582520 
	C2226.212891,1512.872803 2229.120361,1516.302368 2231.759766,1519.927002 
	C2290.580322,1600.708496 2349.356201,1681.522339 2408.172119,1762.307251 
	C2459.930664,1833.398071 2511.713135,1904.472046 2563.567627,1975.492920 
	C2565.436768,1978.052856 2568.187744,1979.969116 2572.249512,1982.296753 
M902.791504,1743.798828 
	C869.892700,1783.581421 837.021545,1823.386841 804.048645,1863.107910 
	C801.060303,1866.707886 800.135864,1870.555542 800.149353,1875.074463 
	C800.248718,1908.400635 800.200684,1941.727051 800.274170,1975.053345 
	C800.279053,1977.263550 800.900208,1979.472534 801.210022,1981.519165 
	C818.836731,1983.593018 1356.132202,1982.676636 1363.086182,1980.635010 
	C1364.930542,1965.639526 1364.233276,1867.165771 1361.921509,1859.218506 
	C1235.150269,1859.218506 1108.062256,1859.218506 978.800720,1859.218506 
	C983.156067,1853.707275 986.109131,1849.838379 989.198547,1846.081421 
	C1024.315430,1803.378906 1059.478760,1760.714111 1094.578735,1717.997559 
	C1136.653687,1666.792358 1178.666626,1615.536011 1220.730835,1564.321777 
	C1260.896729,1515.418579 1301.063354,1466.515747 1341.332275,1417.697388 
	C1344.718384,1413.592285 1346.144775,1409.366333 1346.115723,1404.042358 
	C1345.937378,1371.383423 1346.043945,1338.723145 1345.991333,1306.063232 
	C1345.987305,1303.511230 1345.492188,1300.959961 1345.243652,1298.585449 
	C1330.609009,1296.402222 823.165649,1297.195435 816.412415,1299.307251 
	C814.520691,1316.522339 815.328003,1408.801147 817.637573,1416.292847 
	C830.386353,1416.292847 843.351013,1416.292725 856.315735,1416.292725 
	C869.646301,1416.292725 882.976807,1416.292725 896.307373,1416.292725 
	C909.304688,1416.292725 922.302002,1416.292725 935.299316,1416.292725 
	C948.296631,1416.292725 961.293884,1416.292725 974.291199,1416.292725 
	C987.621765,1416.292725 1000.952332,1416.292725 1014.282898,1416.292725 
	C1027.280151,1416.292725 1040.277466,1416.292725 1053.274780,1416.292725 
	C1066.272095,1416.292725 1079.269409,1416.292725 1092.266724,1416.292725 
	C1105.597290,1416.292725 1118.927734,1416.268433 1132.258301,1416.299805 
	C1145.015991,1416.329834 1157.783936,1416.162109 1172.559448,1416.443970 
	C1169.070312,1420.837769 1167.087524,1423.412598 1165.023560,1425.920776 
	C1154.019653,1439.293701 1142.996582,1452.650879 1131.978027,1466.011719 
	C1093.411621,1512.776367 1054.849854,1559.544678 1016.276062,1606.303223 
	C978.761414,1651.778076 941.233887,1697.242310 902.791504,1743.798828 
M1583.719971,1593.262085 
	C1606.652832,1631.937134 1629.488525,1670.670410 1652.613037,1709.230469 
	C1656.530762,1715.763306 1658.260132,1722.246948 1658.239746,1729.898315 
	C1658.026611,1809.882690 1658.108765,1889.867920 1658.109131,1969.852905 
	C1658.109253,1973.715820 1658.109253,1977.578857 1658.109253,1981.581055 
	C1703.355957,1981.581055 1747.140259,1981.581055 1791.874023,1981.581055 
	C1791.874023,1976.926270 1791.874023,1972.997803 1791.874023,1969.069214 
	C1791.875854,1888.417725 1791.902344,1807.766113 1791.828003,1727.114624 
	C1791.822632,1721.340454 1792.598633,1716.126221 1795.631958,1710.942505 
	C1836.510376,1641.082275 1877.204346,1571.114014 1917.973022,1501.189453 
	C1955.889893,1436.156250 1993.849731,1371.148071 2031.745239,1306.102295 
	C2033.116455,1303.748901 2034.005737,1301.114868 2035.587280,1297.560669 
	C2030.696167,1297.560669 2027.392090,1297.560791 2024.087891,1297.560669 
	C1982.095825,1297.560547 1940.100952,1297.806641 1898.113770,1297.355591 
	C1889.571655,1297.263916 1885.220093,1300.177612 1881.229248,1307.591553 
	C1836.547852,1390.597046 1791.503662,1473.407349 1746.535278,1556.258301 
	C1740.239014,1567.858887 1733.825928,1579.396118 1726.726685,1592.309326 
	C1719.122070,1578.424438 1712.314575,1565.897461 1705.418213,1553.419800 
	C1674.482178,1497.447632 1643.523193,1441.488403 1612.567749,1385.527100 
	C1597.574219,1358.421753 1582.495728,1331.362915 1567.644531,1304.179810 
	C1565.152100,1299.617920 1562.335205,1297.410034 1556.785767,1297.436157 
	C1509.795654,1297.656372 1462.804077,1297.555786 1415.812866,1297.612183 
	C1414.051270,1297.614258 1412.290527,1298.237061 1409.377075,1298.788818 
	C1467.662842,1397.235840 1525.319824,1494.620728 1583.719971,1593.262085 
M2054.810791,2364.620361 
	C2058.706055,2364.620361 2062.601074,2364.620361 2067.607178,2364.620361 
	C2067.607178,2312.167480 2067.607178,2260.820312 2067.607178,2209.472900 
	C2071.046631,2211.272217 2072.791992,2213.550293 2074.481445,2215.869141 
	C2089.188721,2236.056152 2103.886475,2256.249756 2118.585449,2276.442871 
	C2138.380615,2303.637451 2158.150635,2330.850342 2178.003174,2358.002930 
	C2180.066162,2360.824219 2181.422852,2364.628174 2186.021729,2364.614502 
	C2203.916260,2364.560547 2221.810791,2364.592529 2240.157471,2364.592529 
	C2240.157471,2278.212891 2240.157471,2192.771973 2240.157471,2106.939209 
	C2220.279053,2106.939209 2200.853760,2106.939209 2180.566650,2106.939209 
	C2180.566650,2117.817871 2180.566406,2128.080811 2180.566406,2138.343506 
	C2180.566406,2148.671143 2180.566406,2158.999023 2180.566406,2169.326660 
	C2180.566406,2179.654297 2180.566406,2189.982178 2180.566406,2200.309814 
	C2180.566406,2210.637451 2180.738525,2220.968994 2180.517090,2231.291992 
	C2180.302002,2241.318359 2181.470459,2251.435791 2179.558105,2262.837891 
	C2176.795410,2259.271729 2174.950439,2257.000977 2173.222900,2254.644043 
	C2139.753418,2208.980713 2106.035645,2163.495117 2073.072266,2117.468994 
	C2066.903809,2108.855957 2060.682129,2105.338623 2050.194824,2106.074707 
	C2036.350342,2107.046387 2022.386108,2106.313965 2008.654297,2106.313965 
	C2006.577637,2117.856934 2006.991699,2357.329102 2009.036133,2364.618652 
	C2023.568237,2364.618652 2038.208374,2364.618652 2054.810791,2364.620361 
M2385.000000,2173.851807 
	C2377.335205,2173.851807 2369.670410,2173.824951 2362.005615,2173.858643 
	C2354.155273,2173.893311 2346.304932,2173.987305 2338.672119,2174.053711 
	C2336.583984,2190.333740 2337.334229,2292.880371 2339.461914,2299.920654 
	C2340.686768,2300.075684 2341.991211,2300.384766 2343.295410,2300.385254 
	C2432.939697,2300.417725 2522.584229,2300.395264 2612.228516,2300.516113 
	C2617.110840,2300.522705 2620.004639,2298.690186 2622.896729,2294.830322 
	C2650.094238,2258.530518 2675.040283,2220.761230 2697.668945,2181.458252 
	C2698.751953,2179.577393 2699.336670,2177.409668 2700.765625,2173.851562 
	C2595.322754,2173.851562 2491.161377,2173.851562 2385.000000,2173.851807 
M947.000000,2173.851807 
	C899.551636,2173.851807 852.103210,2173.851807 803.287170,2173.851807 
	C805.111450,2177.843750 805.991760,2180.273193 807.263000,2182.477051 
	C829.581848,2221.167969 854.266663,2258.292480 880.868652,2294.172119 
	C884.478088,2299.040039 888.443176,2300.545410 894.266968,2300.535645 
	C981.542358,2300.389648 1068.817993,2300.446045 1156.093628,2300.418457 
	C1159.284180,2300.417480 1162.474731,2300.041748 1165.448486,2299.854492 
	C1167.523193,2284.609375 1166.792114,2181.389648 1164.715698,2174.603271 
	C1164.093750,2174.410156 1163.471924,2174.048584 1162.849731,2174.047852 
	C1091.566528,2173.965088 1020.283264,2173.909180 947.000000,2173.851807 
M1818.209717,2196.835693 
	C1812.237915,2176.674072 1802.164673,2158.811279 1787.420532,2143.829346 
	C1752.507202,2108.353027 1709.909912,2095.842285 1661.406250,2103.877930 
	C1573.760742,2118.397705 1524.795654,2211.874756 1562.130493,2292.479248 
	C1588.337036,2349.058105 1652.435059,2380.255127 1715.339600,2367.047119 
	C1794.156616,2350.498291 1839.625610,2276.260742 1818.209717,2196.835693 
M1507.559570,2320.415527 
	C1511.089478,2317.263916 1509.681152,2315.037354 1506.491333,2312.569824 
	C1496.216553,2304.622314 1486.103882,2296.464844 1475.919800,2288.399902 
	C1471.287720,2284.731934 1466.634399,2281.090820 1461.895630,2277.362793 
	C1457.960693,2281.852783 1454.840088,2285.742920 1451.382812,2289.306396 
	C1420.952759,2320.673584 1371.387085,2318.249023 1344.153687,2284.035645 
	C1331.302246,2267.890625 1326.564331,2249.313232 1327.742798,2228.884766 
	C1329.415527,2199.888672 1348.971924,2173.674561 1376.472290,2164.045166 
	C1404.024658,2154.397705 1434.158569,2162.333740 1453.817017,2184.385986 
	C1455.730469,2186.532471 1457.774536,2188.562256 1460.075073,2190.979248 
	C1476.577148,2178.825195 1492.544922,2167.064453 1509.314209,2154.713379 
	C1503.190918,2148.088623 1498.216675,2141.790527 1492.338135,2136.496582 
	C1455.406006,2103.236816 1411.990479,2094.320557 1364.841919,2106.244629 
	C1315.112793,2118.821533 1281.386841,2150.479492 1268.338013,2200.416260 
	C1255.097046,2251.088379 1267.537598,2296.323486 1305.678833,2332.918213 
	C1359.445679,2384.505127 1453.755737,2383.754150 1507.559570,2320.415527 
M1942.022827,2328.998047 
	C1942.022827,2304.363770 1942.022827,2279.729492 1942.022827,2255.095215 
	C1942.022827,2230.127930 1942.046631,2205.160889 1942.016235,2180.193604 
	C1941.986450,2155.730469 1942.156982,2131.262207 1941.895386,2106.819824 
	C1921.309204,2106.819824 1902.134888,2106.819824 1882.706787,2106.819824 
	C1882.706787,2192.960449 1882.706787,2278.582031 1882.706787,2364.149414 
	C1902.649048,2364.149414 1921.851807,2364.149414 1942.022827,2364.149414 
	C1942.022827,2352.796387 1942.022827,2341.896729 1942.022827,2328.998047 
z"/>
<path fill="#0D3C4E" opacity="1.000000" stroke="none" 
	d="
M2452.389160,957.150146 
	C2456.376953,957.305847 2460.364746,957.594055 2464.352539,957.597107 
	C2507.339844,957.630005 2550.327393,957.664246 2593.314453,957.558044 
	C2598.544189,957.545166 2602.507812,958.393799 2606.147949,963.028076 
	C2640.776611,1007.115479 2672.253418,1053.302856 2699.938965,1102.059082 
	C2701.009521,1103.944580 2701.684814,1106.054565 2702.903320,1108.897827 
	C2068.864014,1108.897827 1435.867310,1108.897827 802.152405,1108.897827 
	C802.588928,1107.214966 802.689270,1105.296753 803.533142,1103.796875 
	C831.521545,1054.053223 863.559631,1007.044434 898.872742,962.217285 
	C902.387085,957.756042 906.344666,957.585510 911.058289,957.585999 
	C957.376648,957.590759 1003.694946,957.530273 1051.837891,957.529297 
	C1086.390747,957.552063 1119.119019,957.533875 1152.813843,957.559509 
	C1235.709229,957.611450 1317.638062,957.627197 1399.566772,957.599915 
	C1402.875244,957.598816 1406.183594,957.191284 1410.426514,957.237793 
	C1414.357300,957.585815 1417.353516,957.742188 1420.349609,957.742310 
	C1695.971924,957.754211 1971.594238,957.754211 2247.216553,957.755005 
	C2250.439941,957.755005 2253.663574,957.754944 2256.963867,957.754944 
	C2256.963867,955.742920 2257.216064,954.698120 2256.918701,953.844666 
	C2255.824219,950.703064 2254.610352,947.598694 2253.330078,944.526733 
	C2235.892578,902.684570 2212.799805,864.273987 2182.778564,830.257629 
	C2150.362793,793.528625 2112.270020,764.413086 2066.597900,745.824280 
	C2040.342896,735.138489 2013.372192,726.685364 1985.965698,719.499756 
	C1982.461670,718.581055 1977.574707,719.546021 1976.624268,714.759949 
	C1995.593994,717.251648 2013.796021,719.206543 2031.848999,722.092957 
	C2075.922363,729.139465 2119.305176,739.250000 2161.347168,754.360046 
	C2177.215576,760.063354 2192.462891,767.495605 2208.360352,774.692505 
	C2213.140137,777.394653 2217.552490,779.544067 2222.327148,782.281372 
	C2227.376709,785.983643 2232.413818,788.682007 2236.691895,792.282654 
	C2258.366699,810.524841 2277.836182,830.945068 2295.356445,853.194763 
	C2318.509277,882.597473 2337.579102,914.447083 2351.374756,949.274414 
	C2354.040039,956.002563 2357.710449,958.174255 2364.707275,957.897705 
	C2377.980713,957.373169 2391.289551,957.807983 2404.582764,957.712036 
	C2420.518799,957.596985 2436.453857,957.343567 2452.389160,957.150146 
z"/>
<path fill="#02343E" opacity="1.000000" stroke="none" 
	d="
M1649.131592,2724.766602 
	C1534.603516,2714.098389 1425.507080,2685.900635 1320.799927,2640.661133 
	C1217.274292,2595.931641 1123.112549,2536.304932 1037.928467,2462.447266 
	C1033.952515,2459.000000 1030.045410,2455.473877 1024.673584,2450.715332 
	C1510.199219,2450.715332 1993.797241,2450.715332 2477.887451,2450.715332 
	C2477.655029,2454.241455 2474.222656,2455.548096 2471.988525,2457.512207 
	C2366.208984,2550.503662 2247.051514,2620.785156 2114.291748,2667.902344 
	C2045.379761,2692.359863 1974.642334,2709.502441 1902.236572,2719.503662 
	C1828.759766,2729.652588 1754.948608,2732.323975 1680.903687,2727.536133 
	C1670.603027,2726.869873 1660.329346,2725.788086 1649.131592,2724.766602 
z"/>
<path fill="#52A8DD" opacity="1.000000" stroke="none" 
	d="
M2571.388672,1982.241211 
	C2568.187744,1979.969116 2565.436768,1978.052856 2563.567627,1975.492920 
	C2511.713135,1904.472046 2459.930664,1833.398071 2408.172119,1762.307251 
	C2349.356201,1681.522339 2290.580322,1600.708496 2231.759766,1519.927002 
	C2229.120361,1516.302368 2226.212891,1512.872803 2222.031494,1507.582520 
	C2221.117676,1512.291382 2220.399658,1514.385864 2220.358398,1516.493530 
	C2220.215088,1523.822754 2220.308594,1531.156616 2220.308594,1538.488647 
	C2220.310547,1681.797485 2220.312256,1825.106201 2220.313965,1968.415039 
	C2220.313965,1972.658325 2220.313721,1976.901733 2220.313721,1981.704224 
	C2175.664062,1981.704224 2132.207520,1981.704224 2088.061035,1981.704224 
	C2088.061035,1753.771729 2088.061035,1526.368530 2088.061035,1298.126343 
	C2091.685547,1297.921875 2094.907471,1297.585449 2098.129883,1297.582275 
	C2136.123291,1297.544800 2174.118164,1297.720703 2212.109131,1297.410400 
	C2219.204102,1297.352539 2223.645508,1299.654175 2227.826660,1305.387939 
	C2289.839844,1390.431152 2352.053955,1475.327637 2414.252686,1560.235474 
	C2463.069092,1626.875122 2511.921875,1693.488037 2560.796143,1760.085327 
	C2562.828613,1762.854736 2564.126465,1766.674072 2569.803955,1767.151001 
	C2570.633057,1753.931763 2570.083984,1741.093506 2570.194824,1728.290405 
	C2570.307129,1715.293579 2570.224365,1702.295166 2570.225342,1689.297363 
	C2570.226318,1676.299561 2570.225342,1663.301880 2570.225342,1650.304077 
	C2570.225342,1637.306274 2570.225342,1624.308472 2570.225342,1611.310669 
	C2570.225342,1598.312866 2570.225342,1585.315186 2570.225342,1572.317383 
	C2570.225342,1558.986328 2570.225342,1545.655273 2570.225342,1532.324219 
	C2570.225342,1519.326416 2570.225342,1506.328735 2570.225342,1493.330933 
	C2570.225342,1480.333130 2570.225342,1467.335449 2570.225342,1454.337646 
	C2570.225342,1441.339844 2570.225342,1428.342041 2570.225342,1415.344238 
	C2570.225342,1402.346436 2570.225342,1389.348755 2570.225342,1376.350952 
	C2570.225342,1363.353149 2570.225342,1350.355469 2570.225342,1337.357666 
	C2570.225342,1324.459717 2570.225342,1311.561890 2570.225342,1298.171143 
	C2615.264160,1298.171143 2659.048828,1298.171143 2703.429199,1298.171143 
	C2703.429199,1526.217651 2703.429199,1753.641357 2703.429199,1982.296753 
	C2659.344482,1982.296753 2615.796875,1982.296753 2571.388672,1982.241211 
z"/>
<path fill="#52A8DD" opacity="1.000000" stroke="none" 
	d="
M903.251831,1743.255005 
	C941.233887,1697.242310 978.761414,1651.778076 1016.276062,1606.303223 
	C1054.849854,1559.544678 1093.411621,1512.776367 1131.978027,1466.011719 
	C1142.996582,1452.650879 1154.019653,1439.293701 1165.023560,1425.920776 
	C1167.087524,1423.412598 1169.070312,1420.837769 1172.559448,1416.443970 
	C1157.783936,1416.162109 1145.015991,1416.329834 1132.258301,1416.299805 
	C1118.927734,1416.268433 1105.597290,1416.292725 1092.266724,1416.292725 
	C1079.269409,1416.292725 1066.272095,1416.292725 1053.274780,1416.292725 
	C1040.277466,1416.292725 1027.280151,1416.292725 1014.282898,1416.292725 
	C1000.952332,1416.292725 987.621765,1416.292725 974.291199,1416.292725 
	C961.293884,1416.292725 948.296631,1416.292725 935.299316,1416.292725 
	C922.302002,1416.292725 909.304688,1416.292725 896.307373,1416.292725 
	C882.976807,1416.292725 869.646301,1416.292725 856.315735,1416.292725 
	C843.351013,1416.292725 830.386353,1416.292847 817.637573,1416.292847 
	C815.328003,1408.801147 814.520691,1316.522339 816.412415,1299.307251 
	C823.165649,1297.195435 1330.609009,1296.402222 1345.243652,1298.585449 
	C1345.492188,1300.959961 1345.987305,1303.511230 1345.991333,1306.063232 
	C1346.043945,1338.723145 1345.937378,1371.383423 1346.115723,1404.042358 
	C1346.144775,1409.366333 1344.718384,1413.592285 1341.332275,1417.697388 
	C1301.063354,1466.515747 1260.896729,1515.418579 1220.730835,1564.321777 
	C1178.666626,1615.536011 1136.653687,1666.792358 1094.578735,1717.997559 
	C1059.478760,1760.714111 1024.315430,1803.378906 989.198547,1846.081421 
	C986.109131,1849.838379 983.156067,1853.707275 978.800720,1859.218506 
	C1108.062256,1859.218506 1235.150269,1859.218506 1361.921509,1859.218506 
	C1364.233276,1867.165771 1364.930542,1965.639526 1363.086182,1980.635010 
	C1356.132202,1982.676636 818.836731,1983.593018 801.210022,1981.519165 
	C800.900208,1979.472534 800.279053,1977.263550 800.274170,1975.053345 
	C800.200684,1941.727051 800.248718,1908.400635 800.149353,1875.074463 
	C800.135864,1870.555542 801.060303,1866.707886 804.048645,1863.107910 
	C837.021545,1823.386841 869.892700,1783.581421 903.251831,1743.255005 
z"/>
<path fill="#52A8DC" opacity="1.000000" stroke="none" 
	d="
M2452.357666,956.421265 
	C2436.453857,957.343567 2420.518799,957.596985 2404.582764,957.712036 
	C2391.289551,957.807983 2377.980713,957.373169 2364.707275,957.897705 
	C2357.710449,958.174255 2354.040039,956.002563 2351.374756,949.274414 
	C2337.579102,914.447083 2318.509277,882.597473 2295.356445,853.194763 
	C2277.836182,830.945068 2258.366699,810.524841 2236.691895,792.282654 
	C2232.413818,788.682007 2227.376709,785.983643 2222.127686,781.664307 
	C2216.968994,777.078247 2212.371826,773.697205 2207.177979,769.997070 
	C2205.039062,768.414490 2203.565430,767.055176 2201.945312,765.901550 
	C2164.527344,739.258728 2124.059082,718.391357 2080.684082,703.454468 
	C2002.562134,676.551880 1921.935181,661.262146 1839.755371,654.532715 
	C1801.986450,651.439941 1764.099854,649.943970 1726.056152,651.313538 
	C1675.752441,653.124634 1625.831665,657.462036 1576.165649,665.640869 
	C1528.799805,673.440918 1482.181030,684.280090 1436.544800,699.028870 
	C1374.052490,719.225342 1317.365967,750.151428 1267.421021,793.056519 
	C1218.371704,835.192139 1180.369629,885.523132 1154.927734,945.104980 
	C1153.275391,948.974731 1152.845703,953.366699 1151.847168,957.515686 
	C1119.119019,957.533875 1086.390747,957.552063 1052.749756,957.357117 
	C1063.228394,920.393677 1079.453857,885.783325 1098.896729,852.697693 
	C1125.211060,807.918823 1157.257568,767.617310 1195.021729,731.905640 
	C1231.776489,697.148438 1272.491333,667.944885 1317.126587,644.107422 
	C1371.599854,615.015930 1429.875854,596.376770 1489.599243,582.245361 
	C1525.809326,573.677429 1562.418457,566.338745 1599.201416,560.788208 
	C1630.716675,556.032593 1662.694336,553.999146 1694.542725,551.905640 
	C1718.442139,550.334717 1742.460327,550.137268 1766.426392,550.117188 
	C1804.400513,550.085388 1842.190063,553.227051 1879.921875,557.519836 
	C1959.947510,566.624390 2037.874268,584.700745 2113.703857,611.696655 
	C2178.720459,634.843079 2237.332520,669.139832 2289.612549,714.254517 
	C2345.027100,762.073975 2389.793213,818.333374 2422.229248,883.939087 
	C2433.702393,907.144470 2442.375000,931.734497 2452.357666,956.421265 
z"/>
<path fill="#52A8DD" opacity="1.000000" stroke="none" 
	d="
M1583.348389,1592.633911 
	C1525.319824,1494.620728 1467.662842,1397.235840 1409.377075,1298.788818 
	C1412.290527,1298.237061 1414.051270,1297.614258 1415.812866,1297.612183 
	C1462.804077,1297.555786 1509.795654,1297.656372 1556.785767,1297.436157 
	C1562.335205,1297.410034 1565.152100,1299.617920 1567.644531,1304.179810 
	C1582.495728,1331.362915 1597.574219,1358.421753 1612.567749,1385.527100 
	C1643.523193,1441.488403 1674.482178,1497.447632 1705.418213,1553.419800 
	C1712.314575,1565.897461 1719.122070,1578.424438 1726.726685,1592.309326 
	C1733.825928,1579.396118 1740.239014,1567.858887 1746.535278,1556.258301 
	C1791.503662,1473.407349 1836.547852,1390.597046 1881.229248,1307.591553 
	C1885.220093,1300.177612 1889.571655,1297.263916 1898.113770,1297.355591 
	C1940.100952,1297.806641 1982.095825,1297.560547 2024.087891,1297.560669 
	C2027.392090,1297.560791 2030.696167,1297.560669 2035.587280,1297.560669 
	C2034.005737,1301.114868 2033.116455,1303.748901 2031.745239,1306.102295 
	C1993.849731,1371.148071 1955.889893,1436.156250 1917.973022,1501.189453 
	C1877.204346,1571.114014 1836.510376,1641.082275 1795.631958,1710.942505 
	C1792.598633,1716.126221 1791.822632,1721.340454 1791.828003,1727.114624 
	C1791.902344,1807.766113 1791.875854,1888.417725 1791.874023,1969.069214 
	C1791.874023,1972.997803 1791.874023,1976.926270 1791.874023,1981.581055 
	C1747.140259,1981.581055 1703.355957,1981.581055 1658.109253,1981.581055 
	C1658.109253,1977.578857 1658.109253,1973.715820 1658.109131,1969.852905 
	C1658.108765,1889.867920 1658.026611,1809.882690 1658.239746,1729.898315 
	C1658.260132,1722.246948 1656.530762,1715.763306 1652.613037,1709.230469 
	C1629.488525,1670.670410 1606.652832,1631.937134 1583.348389,1592.633911 
z"/>
<path fill="#04353F" opacity="1.000000" stroke="none" 
	d="
M2053.829590,2364.619629 
	C2038.208374,2364.618652 2023.568237,2364.618652 2009.036133,2364.618652 
	C2006.991699,2357.329102 2006.577637,2117.856934 2008.654297,2106.313965 
	C2022.386108,2106.313965 2036.350342,2107.046387 2050.194824,2106.074707 
	C2060.682129,2105.338623 2066.903809,2108.855957 2073.072266,2117.468994 
	C2106.035645,2163.495117 2139.753418,2208.980713 2173.222900,2254.644043 
	C2174.950439,2257.000977 2176.795410,2259.271729 2179.558105,2262.837891 
	C2181.470459,2251.435791 2180.302002,2241.318359 2180.517090,2231.291992 
	C2180.738525,2220.968994 2180.566406,2210.637451 2180.566406,2200.309814 
	C2180.566406,2189.982178 2180.566406,2179.654297 2180.566406,2169.326660 
	C2180.566406,2158.999023 2180.566406,2148.671143 2180.566406,2138.343506 
	C2180.566406,2128.080811 2180.566650,2117.817871 2180.566650,2106.939209 
	C2200.853760,2106.939209 2220.279053,2106.939209 2240.157471,2106.939209 
	C2240.157471,2192.771973 2240.157471,2278.212891 2240.157471,2364.592529 
	C2221.810791,2364.592529 2203.916260,2364.560547 2186.021729,2364.614502 
	C2181.422852,2364.628174 2180.066162,2360.824219 2178.003174,2358.002930 
	C2158.150635,2330.850342 2138.380615,2303.637451 2118.585449,2276.442871 
	C2103.886475,2256.249756 2089.188721,2236.056152 2074.481445,2215.869141 
	C2072.791992,2213.550293 2071.046631,2211.272217 2067.607178,2209.472900 
	C2067.607178,2260.820312 2067.607178,2312.167480 2067.607178,2364.620361 
	C2062.601074,2364.620361 2058.706055,2364.620361 2053.829590,2364.619629 
z"/>
<path fill="#52A8DC" opacity="1.000000" stroke="none" 
	d="
M2386.000000,2173.851562 
	C2491.161377,2173.851562 2595.322754,2173.851562 2700.765625,2173.851562 
	C2699.336670,2177.409668 2698.751953,2179.577393 2697.668945,2181.458252 
	C2675.040283,2220.761230 2650.094238,2258.530518 2622.896729,2294.830322 
	C2620.004639,2298.690186 2617.110840,2300.522705 2612.228516,2300.516113 
	C2522.584229,2300.395264 2432.939697,2300.417725 2343.295410,2300.385254 
	C2341.991211,2300.384766 2340.686768,2300.075684 2339.461914,2299.920654 
	C2337.334229,2292.880371 2336.583984,2190.333740 2338.672119,2174.053711 
	C2346.304932,2173.987305 2354.155273,2173.893311 2362.005615,2173.858643 
	C2369.670410,2173.824951 2377.335205,2173.851807 2386.000000,2173.851562 
z"/>
<path fill="#52A8DD" opacity="1.000000" stroke="none" 
	d="
M948.000000,2173.851562 
	C1020.283264,2173.909180 1091.566528,2173.965088 1162.849731,2174.047852 
	C1163.471924,2174.048584 1164.093750,2174.410156 1164.713745,2174.609619 
	C1166.792114,2181.389648 1167.523193,2284.609375 1165.448486,2299.854492 
	C1162.474731,2300.041748 1159.284180,2300.417480 1156.093628,2300.418457 
	C1068.817993,2300.446045 981.542358,2300.389648 894.266968,2300.535645 
	C888.443176,2300.545410 884.478088,2299.040039 880.868652,2294.172119 
	C854.266663,2258.292480 829.581848,2221.167969 807.263000,2182.477051 
	C805.991760,2180.273193 805.111450,2177.843750 803.287170,2173.851807 
	C852.103210,2173.851807 899.551636,2173.851807 948.000000,2173.851562 
z"/>
<path fill="#04353F" opacity="1.000000" stroke="none" 
	d="
M1818.422119,2197.616211 
	C1839.625610,2276.260742 1794.156616,2350.498291 1715.339600,2367.047119 
	C1652.435059,2380.255127 1588.337036,2349.058105 1562.130493,2292.479248 
	C1524.795654,2211.874756 1573.760742,2118.397705 1661.406250,2103.877930 
	C1709.909912,2095.842285 1752.507202,2108.353027 1787.420532,2143.829346 
	C1802.164673,2158.811279 1812.237915,2176.674072 1818.422119,2197.616211 
M1700.629028,2309.997559 
	C1741.677002,2302.285889 1768.743042,2260.021484 1757.461548,2215.438232 
	C1748.418091,2179.699951 1713.313354,2155.576416 1677.723877,2160.425293 
	C1636.383179,2166.057861 1607.862061,2204.892334 1614.479614,2247.331299 
	C1622.018433,2295.677490 1664.777222,2317.112793 1700.629028,2309.997559 
z"/>
<path fill="#053540" opacity="1.000000" stroke="none" 
	d="
M1507.086426,2320.956543 
	C1453.755737,2383.754150 1359.445679,2384.505127 1305.678833,2332.918213 
	C1267.537598,2296.323486 1255.097046,2251.088379 1268.338013,2200.416260 
	C1281.386841,2150.479492 1315.112793,2118.821533 1364.841919,2106.244629 
	C1411.990479,2094.320557 1455.406006,2103.236816 1492.338135,2136.496582 
	C1498.216675,2141.790527 1503.190918,2148.088623 1509.314209,2154.713379 
	C1492.544922,2167.064453 1476.577148,2178.825195 1460.075073,2190.979248 
	C1457.774536,2188.562256 1455.730469,2186.532471 1453.817017,2184.385986 
	C1434.158569,2162.333740 1404.024658,2154.397705 1376.472290,2164.045166 
	C1348.971924,2173.674561 1329.415527,2199.888672 1327.742798,2228.884766 
	C1326.564331,2249.313232 1331.302246,2267.890625 1344.153687,2284.035645 
	C1371.387085,2318.249023 1420.952759,2320.673584 1451.382812,2289.306396 
	C1454.840088,2285.742920 1457.960693,2281.852783 1461.895630,2277.362793 
	C1466.634399,2281.090820 1471.287720,2284.731934 1475.919800,2288.399902 
	C1486.103882,2296.464844 1496.216553,2304.622314 1506.491333,2312.569824 
	C1509.681152,2315.037354 1511.089478,2317.263916 1507.086426,2320.956543 
z"/>
<path fill="#04353F" opacity="1.000000" stroke="none" 
	d="
M1942.022827,2329.997559 
	C1942.022827,2341.896729 1942.022827,2352.796387 1942.022827,2364.149414 
	C1921.851807,2364.149414 1902.649048,2364.149414 1882.706787,2364.149414 
	C1882.706787,2278.582031 1882.706787,2192.960449 1882.706787,2106.819824 
	C1902.134888,2106.819824 1921.309204,2106.819824 1941.895386,2106.819824 
	C1942.156982,2131.262207 1941.986450,2155.730469 1942.016235,2180.193604 
	C1942.046631,2205.160889 1942.022827,2230.127930 1942.022827,2255.095215 
	C1942.022827,2279.729492 1942.022827,2304.363770 1942.022827,2329.997559 
z"/>
<path fill="#51A8DC" opacity="1.000000" stroke="none" 
	d="
M1975.788818,714.646851 
	C1977.574707,719.546021 1982.461670,718.581055 1985.965698,719.499756 
	C2013.372192,726.685364 2040.342896,735.138489 2066.597900,745.824280 
	C2112.270020,764.413086 2150.362793,793.528625 2182.778564,830.257629 
	C2212.799805,864.273987 2235.892578,902.684570 2253.330078,944.526733 
	C2254.610352,947.598694 2255.824219,950.703064 2256.918701,953.844666 
	C2257.216064,954.698120 2256.963867,955.742920 2256.963867,957.754944 
	C2253.663574,957.754944 2250.439941,957.755005 2247.216553,957.755005 
	C1971.594238,957.754211 1695.971924,957.754211 1420.349609,957.742310 
	C1417.353516,957.742188 1414.357300,957.585815 1410.448242,956.526917 
	C1411.532593,950.622070 1413.352539,945.612000 1415.553833,940.775452 
	C1448.562500,868.248047 1502.597778,815.846924 1571.772339,778.073669 
	C1610.949829,756.680542 1653.220581,743.897461 1696.414917,733.599670 
	C1742.794678,722.542419 1789.785034,715.467407 1837.298462,712.516174 
	C1870.488037,710.454590 1903.793823,709.915466 1937.055176,712.000549 
	C1949.970947,712.810242 1962.877808,713.760620 1975.788818,714.646851 
z"/>
<path fill="#FDFEFE" opacity="1.000000" stroke="none" 
	d="
M1976.624268,714.759888 
	C1962.877808,713.760620 1949.970947,712.810242 1937.055176,712.000549 
	C1903.793823,709.915466 1870.488037,710.454590 1837.298462,712.516174 
	C1789.785034,715.467407 1742.794678,722.542419 1696.414917,733.599670 
	C1653.220581,743.897461 1610.949829,756.680542 1571.772339,778.073669 
	C1502.597778,815.846924 1448.562500,868.248047 1415.553833,940.775452 
	C1413.352539,945.612000 1411.532593,950.622070 1409.513672,956.262268 
	C1406.183594,957.191284 1402.875244,957.598816 1399.566772,957.599915 
	C1317.638062,957.627197 1235.709229,957.611450 1152.813843,957.559509 
	C1152.845703,953.366699 1153.275391,948.974731 1154.927734,945.104980 
	C1180.369629,885.523132 1218.371704,835.192139 1267.421021,793.056519 
	C1317.365967,750.151428 1374.052490,719.225342 1436.544800,699.028870 
	C1482.181030,684.280090 1528.799805,673.440918 1576.165649,665.640869 
	C1625.831665,657.462036 1675.752441,653.124634 1726.056152,651.313538 
	C1764.099854,649.943970 1801.986450,651.439941 1839.755371,654.532715 
	C1921.935181,661.262146 2002.562134,676.551880 2080.684082,703.454468 
	C2124.059082,718.391357 2164.527344,739.258728 2201.945312,765.901550 
	C2203.565430,767.055176 2205.039062,768.414490 2207.254395,770.631104 
	C2207.949463,772.436096 2207.971191,773.287842 2207.993164,774.139648 
	C2192.462891,767.495605 2177.215576,760.063354 2161.347168,754.360046 
	C2119.305176,739.250000 2075.922363,729.139465 2031.848999,722.092957 
	C2013.796021,719.206543 1995.593994,717.251648 1976.624268,714.759888 
z"/>
<path fill="#B4D5DE" opacity="1.000000" stroke="none" 
	d="
M2208.360352,774.692444 
	C2207.971191,773.287842 2207.949463,772.436096 2207.851318,770.950195 
	C2212.371826,773.697205 2216.968994,777.078247 2221.765625,781.076416 
	C2217.552490,779.544067 2213.140137,777.394653 2208.360352,774.692444 
z"/>
<path fill="#FCFDFD" opacity="1.000000" stroke="none" 
	d="
M1699.791260,2310.103516 
	C1664.777222,2317.112793 1622.018433,2295.677490 1614.479614,2247.331299 
	C1607.862061,2204.892334 1636.383179,2166.057861 1677.723877,2160.425293 
	C1713.313354,2155.576416 1748.418091,2179.699951 1757.461548,2215.438232 
	C1768.743042,2260.021484 1741.677002,2302.285889 1699.791260,2310.103516 
z"/>
</svg>
