<?xml version="1.0" encoding="UTF-8"?>
<svg id="Layer_2" data-name="Layer 2" xmlns="http://www.w3.org/2000/svg" viewBox="0 0 400 400">
  <defs>
    <style>
      .cls-1, .cls-2 {
        stroke-width: 0px;
      }

      .cls-2 {
        fill: #fff;
      }
    </style>
  </defs>
  <g id="Layer_1-2" data-name="Layer 1">
    <g>
      <path class="cls-1" d="M0,0h400v400H0V0ZM237.97,259.9h-86.57v-120.09h140.47v-53.47H107.6v227.36h130.37v-53.79ZM249.19,221.27v92.41h43.59v-135.9c-.81-.16-1.44-.4-2.07-.4-32.83,0-65.67.06-98.5,0-3.18,0-3.93,1.28-3.9,4.18.12,12.17.05,24.34.1,36.51,0,.93.38,1.86.68,3.2h60.1Z"/>
      <path class="cls-2" d="M237.97,259.9v53.79H107.6V86.34h184.27v53.47h-140.47v120.09h86.57Z"/>
      <path class="cls-2" d="M249.19,221.27h-60.1c-.3-1.34-.68-2.27-.68-3.2-.05-12.17.02-24.34-.1-36.51-.03-2.9.72-4.19,3.9-4.18,32.83.06,65.67,0,98.5,0,.63,0,1.26.24,2.07.4v135.9h-43.59v-92.41Z"/>
    </g>
  </g>
</svg>