<?xml version="1.0" encoding="iso-8859-1"?>
<!-- Generator: Adobe Illustrator 28.0.0, SVG Export Plug-In . SVG Version: 6.00 Build 0)  -->
<svg version="1.1" xmlns="http://www.w3.org/2000/svg" xmlns:xlink="http://www.w3.org/1999/xlink" x="0px" y="0px"
	 viewBox="0 0 1792.426 1792.426" style="enable-background:new 0 0 1792.426 1792.426;" xml:space="preserve">
<g id="Calque_1" style="display:none;">
	<circle style="display:inline;fill:#FFFFFF;" cx="708.643" cy="1510.77" r="92.366"/>
	<path style="display:inline;fill:#FFFFFF;" d="M1537.964,1505.933c-15.023-2.601-27.108-8.476-36.226-17.624
		c-9.148-9.118-16-22.522-20.562-40.141c-4.587-17.624-6.852-42.101-6.852-73.43c0-70.495,0.977-141.293,2.937-212.46
		c1.955-71.137,2.937-148.484,2.937-232.042c0-57.43-8.812-106.383-26.437-146.862c-17.624-40.447-42.437-73.43-74.407-98.886
		c-32.003-25.457-69.849-44.059-113.574-55.808c-43.75-11.747-91.726-17.622-143.922-17.622c-62.66,0-125.659,11.75-188.963,35.246
		c-63.332,23.499-122.383,57.46-177.211,101.824l25.457,117.488h13.707c9.115-14.349,22.517-27.72,40.141-40.141
		c17.624-12.391,37.204-23.805,58.745-34.269c21.539-10.431,44.058-18.602,67.555-24.477c23.499-5.875,46.322-8.81,68.535-8.81
		c58.745,0,104.761,16.644,138.05,49.931c33.289,33.289,49.931,73.432,49.931,120.428c0,16.98-2.291,31.329-6.852,43.078
		c-4.587,11.75-14.687,22.519-30.351,32.309c-15.665,9.792-39.5,19.582-71.473,29.374c-32.003,9.79-75.387,21.234-130.216,34.266
		c-44.397,10.464-84.202,23.193-119.448,38.184c-35.246,15.023-65.598,33.627-91.054,55.808
		c-25.457,22.214-45.038,48.953-58.745,80.285c-13.707,31.331-20.559,68.535-20.559,111.614c0,4.574,0.125,9.141,0.346,13.703
		c6.48-0.881,13.093-1.347,19.816-1.347c80.461,0,145.688,65.226,145.688,145.688c0,25.77-6.7,49.971-18.439,70.973
		c1.762,0.692,3.529,1.38,5.324,2.043c35.249,13.033,77.653,19.584,127.281,19.584c60.031,0,109.964-12.421,149.8-37.204
		c39.805-24.782,74.713-58.071,104.759-99.866c15.669,44.392,38.492,78.327,68.537,101.821
		c30.016,23.499,69.177,35.249,117.488,35.249c30.011,0,58.071-3.92,84.197-11.75c26.101-7.835,58.071-19.579,95.952-35.249v-46.993
		C1570.27,1509.848,1552.957,1508.564,1537.964,1505.933z M1220.742,1152.485c-0.672,29.374-0.977,72.147-0.977,128.261
		c0,63.976-13.399,112.288-40.141,144.9c-26.772,32.647-61.683,48.953-104.761,48.953c-33.963,0-61.039-12.727-81.265-38.181
		c-20.254-25.459-30.351-62.324-30.351-110.636c0-49.595,8.14-87.443,24.477-113.571c16.309-26.101,37.206-46.66,62.663-61.683
		c25.454-14.993,53.512-27.414,84.2-37.206c30.657-9.79,59.725-22.517,87.139-38.184
		C1221.725,1097.351,1221.389,1123.114,1220.742,1152.485z"/>
</g>
<g id="Calque_2" style="display:none;">
	
		<circle style="display:inline;fill:#FCF9F9;stroke:#BC923E;stroke-width:5;stroke-miterlimit:10;" cx="896.213" cy="896.213" r="884.966"/>
	<circle style="display:inline;" cx="494.99" cy="1233.299" r="85.566"/>
	<path style="display:inline;" d="M1263.258,1228.818c-13.917-2.41-25.113-7.852-33.559-16.327
		c-8.475-8.447-14.822-20.864-19.048-37.186c-4.249-16.327-6.348-39.002-6.348-68.024c0-65.305,0.906-130.892,2.721-196.819
		c1.811-65.9,2.721-137.553,2.721-214.959c0-53.202-8.163-98.551-24.49-136.051c-16.327-37.469-39.313-68.024-68.93-91.607
		c-29.647-23.583-64.706-40.815-105.212-51.7c-40.529-10.882-84.973-16.325-133.327-16.325c-58.047,0-116.408,10.885-175.052,32.651
		c-58.67,21.769-113.374,53.23-164.165,94.328l23.583,108.839h12.698c8.444-13.292,20.859-25.679,37.186-37.186
		c16.327-11.479,34.465-22.053,54.421-31.746c19.953-9.663,40.815-17.232,62.582-22.675c21.769-5.442,42.911-8.161,63.49-8.161
		c54.421,0,97.049,15.419,127.887,46.255c30.838,30.838,46.255,68.026,46.255,111.562c0,15.73-2.122,29.022-6.348,39.907
		c-4.249,10.885-13.606,20.861-28.117,29.93c-14.511,9.071-36.592,18.14-66.211,27.211c-29.647,9.069-69.837,19.67-120.629,31.744
		c-41.128,9.693-78.003,21.486-110.655,35.373c-32.651,13.917-60.768,31.152-84.351,51.699
		c-23.583,20.578-41.723,45.349-54.421,74.374c-12.698,29.025-19.046,63.49-19.046,103.397c0,4.238,0.115,8.468,0.321,12.694
		c6.003-0.817,12.129-1.248,18.357-1.248c74.538,0,134.962,60.425,134.962,134.962c0,23.873-6.206,46.292-17.081,65.748
		c1.632,0.641,3.27,1.278,4.932,1.893c32.654,12.073,71.936,18.142,117.91,18.142c55.612,0,101.869-11.507,138.772-34.465
		c36.875-22.958,69.213-53.796,97.047-92.515c14.516,41.124,35.658,72.561,63.492,94.326
		c27.806,21.769,64.084,32.654,108.839,32.654c27.801,0,53.796-3.631,77.999-10.885c24.179-7.258,53.796-18.138,88.888-32.654
		v-43.534C1293.186,1232.445,1277.147,1231.256,1263.258,1228.818z M969.39,901.391c-0.622,27.211-0.906,66.835-0.906,118.818
		c0,59.266-12.412,104.021-37.186,134.233c-24.802,30.244-57.142,45.349-97.049,45.349c-31.463,0-56.545-11.79-75.282-35.37
		c-18.762-23.585-28.117-57.736-28.117-102.491c0-45.944,7.541-81.005,22.675-105.21c15.108-24.179,34.467-43.225,58.05-57.142
		c23.58-13.889,49.573-25.396,78.001-34.467c28.4-9.069,55.328-20.859,80.724-35.373C970.3,850.316,969.989,874.182,969.39,901.391z
		"/>
</g>
<g id="Calque_3">
	<circle style="fill:#AE8E50;" cx="895.437" cy="896.213" r="884.966"/>
	<circle style="fill:#FFFFFF;" cx="494.215" cy="1233.299" r="85.566"/>
	<path style="fill:#FFFFFF;" d="M1262.482,1228.818c-13.917-2.41-25.113-7.852-33.559-16.327
		c-8.475-8.447-14.822-20.864-19.048-37.186c-4.249-16.327-6.348-39.002-6.348-68.024c0-65.305,0.906-130.892,2.721-196.819
		c1.811-65.9,2.721-137.553,2.721-214.959c0-53.202-8.163-98.551-24.49-136.051c-16.327-37.469-39.313-68.024-68.93-91.607
		c-29.647-23.583-64.706-40.815-105.212-51.7c-40.529-10.882-84.973-16.325-133.327-16.325c-58.047,0-116.408,10.885-175.052,32.651
		c-58.67,21.769-113.374,53.23-164.165,94.328l23.583,108.839h12.698c8.444-13.292,20.859-25.679,37.186-37.186
		c16.327-11.479,34.465-22.053,54.421-31.746c19.954-9.663,40.815-17.232,62.582-22.675c21.769-5.442,42.911-8.161,63.49-8.161
		c54.421,0,97.049,15.419,127.887,46.255c30.838,30.838,46.255,68.026,46.255,111.562c0,15.73-2.122,29.022-6.348,39.907
		c-4.249,10.885-13.606,20.861-28.117,29.93c-14.511,9.071-36.592,18.14-66.211,27.211c-29.647,9.069-69.837,19.67-120.629,31.744
		c-41.128,9.693-78.003,21.486-110.655,35.373c-32.651,13.917-60.768,31.152-84.351,51.699
		c-23.583,20.578-41.723,45.349-54.421,74.374c-12.698,29.025-19.046,63.49-19.046,103.397c0,4.238,0.115,8.468,0.321,12.694
		c6.003-0.817,12.129-1.248,18.357-1.248c74.538,0,134.962,60.425,134.962,134.962c0,23.873-6.206,46.292-17.081,65.748
		c1.632,0.641,3.27,1.278,4.932,1.893c32.654,12.073,71.936,18.142,117.91,18.142c55.612,0,101.869-11.507,138.772-34.465
		c36.875-22.958,69.213-53.796,97.047-92.515c14.516,41.124,35.658,72.561,63.492,94.326
		c27.806,21.769,64.084,32.654,108.839,32.654c27.801,0,53.796-3.631,77.999-10.885c24.179-7.258,53.796-18.138,88.888-32.654
		v-43.534C1292.41,1232.445,1276.371,1231.256,1262.482,1228.818z M968.614,901.391c-0.622,27.211-0.906,66.835-0.906,118.818
		c0,59.266-12.412,104.021-37.186,134.233c-24.802,30.244-57.142,45.349-97.049,45.349c-31.463,0-56.545-11.79-75.282-35.37
		c-18.762-23.585-28.117-57.736-28.117-102.491c0-45.944,7.541-81.005,22.675-105.21c15.108-24.179,34.467-43.225,58.05-57.142
		c23.58-13.889,49.573-25.396,78.001-34.467c28.4-9.069,55.328-20.859,80.724-35.373
		C969.524,850.316,969.213,874.182,968.614,901.391z"/>
</g>
</svg>
