<svg width="120" height="120" viewBox="0 0 120 120" fill="none" xmlns="http://www.w3.org/2000/svg">
<path d="M8.0625 36.9089V83.0942C8.0625 87.3591 10.3382 91.3016 14.0324 93.434L54.0305 116.528C57.7246 118.66 62.276 118.66 65.9702 116.528L105.968 93.434C109.662 91.3016 111.938 87.3591 111.938 83.0942V36.9089C111.938 32.6441 109.662 28.7016 105.968 26.5691L65.9702 3.4753C62.276 1.34287 57.7246 1.34287 54.0305 3.4753L14.0324 26.5667C10.3382 28.7016 8.0625 32.6417 8.0625 36.9089Z" fill="url(#paint0_linear_3509_2404)"/>
<path d="M57.9328 25.0579L31.3172 39.9254C29.6886 40.8359 28.6875 42.5142 28.6875 44.3307V74.0658C28.6875 75.8823 29.6886 77.5606 31.3172 78.4711L53.5315 89.9955V60.0508H43.2017C40.2998 60.0508 37.9423 57.7744 37.9423 54.9625V46.1607L57.0839 46.1384V49.7359H64.2718V46.2143L82.8736 46.1607V54.9625C82.8736 57.77 80.5207 60.0508 77.6142 60.0508H67.5797V90L89.8078 78.4756C91.4364 77.565 92.4375 75.8868 92.4375 74.0702V44.3307C92.4375 42.5142 91.4364 40.8359 89.8078 39.9254L63.1922 25.0579C61.5636 24.1474 59.5614 24.1474 57.9328 25.0579Z" fill="white"/>
<defs>
<linearGradient id="paint0_linear_3509_2404" x1="85.9692" y1="104.98" x2="34.0314" y2="15.021" gradientUnits="userSpaceOnUse">
<stop stop-color="#6D71E5"/>
<stop offset="0.552528" stop-color="#F03A44"/>
</linearGradient>
</defs>
</svg>
