<svg width="520" height="528" viewBox="0 0 520 528" fill="none" xmlns="http://www.w3.org/2000/svg">
<path d="M458.036 78.3795L322.35 0L260 36.0044L197.65 0L61.9644 78.3795V149.906L0 185.621V342.283L61.9644 377.998V449.621L197.65 528L260 491.996L322.35 528L458.036 449.621V377.998L520 342.283V185.621L458.036 149.906V78.3795ZM383.351 126.16C386.82 126.16 389.615 128.959 389.615 132.338C389.615 135.813 386.82 138.516 383.351 138.516C379.881 138.516 377.087 135.716 377.087 132.338C377.087 128.959 379.881 126.16 383.351 126.16ZM136.746 126.16C140.215 126.16 143.01 128.959 143.01 132.338C143.01 135.813 140.215 138.516 136.746 138.516C133.277 138.516 130.482 135.716 130.482 132.338C130.578 128.959 133.277 126.16 136.746 126.16ZM136.746 401.743C133.277 401.743 130.482 398.944 130.482 395.566C130.482 392.091 133.277 389.388 136.746 389.388C140.215 389.388 143.01 392.187 143.01 395.566C143.01 398.944 140.215 401.743 136.746 401.743ZM250.749 476.841L197.746 507.536L145.708 477.42V411.01C151.105 407.921 154.863 402.129 154.863 395.469C154.863 385.527 146.768 377.419 136.842 377.419C126.916 377.419 118.821 385.527 118.821 395.469C118.821 402.129 122.483 407.921 127.976 411.01V467.092L79.8888 439.389V378.577L136.553 346.048L189.844 376.84V438.713C184.544 441.802 180.979 447.593 180.979 454.157C180.979 464.099 189.073 472.208 198.999 472.208C208.925 472.208 217.02 464.099 217.02 454.157C217.02 447.4 213.262 441.512 207.672 438.52V366.608L146.19 331.086V279.251C151.297 276.066 154.767 270.467 154.767 264C154.767 254.058 146.672 245.95 136.746 245.95C126.82 245.95 118.725 254.058 118.725 264C118.725 270.95 122.676 276.838 128.362 279.83V330.121L71.3121 362.843L17.828 331.955V277.224L56.8569 299.618C56.8569 305.893 60.0371 311.974 65.8191 315.256C74.3959 320.275 85.4781 317.283 90.3929 308.692C95.404 300.101 92.4166 289.097 83.8399 284.078C78.0578 280.699 71.2157 281.085 65.8191 284.174L17.9244 256.664V195.756L70.7339 165.253L117.665 192.184L83.3581 211.972C80.8525 210.621 78.0578 209.849 74.9741 209.849C65.0482 209.849 56.9533 217.957 56.9533 227.899C56.9533 237.841 65.0482 245.95 74.9741 245.95C84.8999 245.95 92.9948 237.841 92.9948 227.899C92.9948 227.61 92.8985 227.32 92.8985 227.03L207.191 161.199V89.5766C212.973 86.5843 216.924 80.5997 216.924 73.6497C216.924 63.7075 208.829 55.5993 198.903 55.5993C188.977 55.5993 180.882 63.7075 180.882 73.6497C180.882 80.117 184.255 85.7156 189.363 88.9009V150.967L135.493 182.049L79.7924 150.099V88.6113L127.88 60.9082V116.894C122.483 119.982 118.725 125.774 118.725 132.434C118.725 142.377 126.82 150.485 136.746 150.485C146.672 150.485 154.767 142.377 154.767 132.434C154.767 125.774 151.105 119.982 145.612 116.894V50.6764L197.65 20.5602L250.652 51.2556V187.551L189.652 223.362V304.541L251.038 340.063L250.749 476.841ZM130.578 264C130.578 260.525 133.373 257.822 136.842 257.822C140.311 257.822 143.106 260.622 143.106 264C143.106 267.475 140.311 270.178 136.842 270.178C133.277 270.178 130.578 267.475 130.578 264ZM192.735 454.157C192.735 450.682 195.53 447.98 198.999 447.98C202.469 447.98 205.263 450.779 205.263 454.157C205.263 457.536 202.469 460.335 198.999 460.335C195.53 460.335 192.735 457.632 192.735 454.157ZM69.3847 296.626C71.1193 293.634 74.8777 292.668 77.8651 294.309C80.8525 296.047 81.8162 299.811 80.1779 302.804C78.4433 305.796 74.685 306.761 71.6976 305.12C68.7102 303.383 67.6501 299.618 69.3847 296.626ZM81.238 227.996C81.238 231.471 78.4433 234.173 74.9741 234.173C71.5048 234.173 68.7102 231.374 68.7102 227.996C68.7102 224.521 71.5048 221.818 74.9741 221.818C78.4433 221.818 81.238 224.521 81.238 227.996ZM192.735 73.7463C192.735 70.2713 195.53 67.5686 198.999 67.5686C202.469 67.5686 205.263 70.3678 205.263 73.7463C205.263 77.2212 202.469 79.924 198.999 79.924C195.53 79.924 192.735 77.2212 192.735 73.7463ZM207.48 294.213V233.401L260 202.609L312.52 233.401V294.116L260 324.522L207.48 294.213ZM383.351 401.743C379.881 401.743 377.087 398.944 377.087 395.566C377.087 392.091 379.881 389.388 383.351 389.388C386.82 389.388 389.615 392.187 389.615 395.566C389.518 398.944 386.82 401.743 383.351 401.743ZM502.172 195.949V256.857L454.277 284.367C448.881 281.182 442.039 280.892 436.257 284.271C427.68 289.29 424.692 300.294 429.703 308.885C434.715 317.476 445.701 320.468 454.277 315.449C460.059 312.07 463.239 305.989 463.239 299.811L502.268 277.417V332.148L448.784 363.036L391.735 330.314V280.023C397.42 277.031 401.371 271.046 401.371 264.193C401.371 254.251 393.277 246.143 383.351 246.143C373.425 246.143 365.33 254.251 365.33 264.193C365.33 270.66 368.799 276.259 373.907 279.444V331.279L312.424 366.801V438.713C306.931 441.802 303.076 447.593 303.076 454.35C303.076 464.293 311.171 472.401 321.097 472.401C331.023 472.401 339.118 464.293 339.118 454.35C339.118 447.786 335.552 441.995 330.252 438.906V377.033L383.543 346.241L440.208 378.77V439.582L392.12 467.285V411.01C397.517 407.921 401.275 402.129 401.275 395.469C401.275 385.527 393.18 377.419 383.254 377.419C373.328 377.419 365.234 385.527 365.234 395.469C365.234 402.129 368.896 407.921 374.388 411.01V477.42L322.35 507.536L269.348 476.841L268.962 339.966L330.348 304.445V223.266L269.348 187.454V51.1591L322.35 20.4636L374.388 50.5799V116.797C368.992 119.886 365.234 125.678 365.234 132.338C365.234 142.28 373.328 150.388 383.254 150.388C393.18 150.388 401.275 142.28 401.275 132.338C401.275 125.678 397.613 119.886 392.12 116.797V60.8117L440.208 88.6113V150.195L384.507 182.146L330.638 151.064V88.9975C335.745 85.8121 339.118 80.2135 339.118 73.7463C339.118 63.804 331.023 55.6958 321.097 55.6958C311.171 55.6958 303.076 63.804 303.076 73.7463C303.076 80.6962 307.027 86.6808 312.809 89.6731V161.296L427.102 227.127C427.102 227.416 427.005 227.706 427.005 227.996C427.005 237.938 435.1 246.046 445.026 246.046C454.952 246.046 463.047 237.938 463.047 227.996C463.047 218.053 454.952 209.945 445.026 209.945C442.039 209.945 439.148 210.814 436.642 212.069L402.335 192.281L449.266 165.35L502.172 195.949ZM448.399 305.12C445.411 306.858 441.653 305.796 439.918 302.804C438.184 299.811 439.244 296.047 442.231 294.309C445.219 292.572 448.977 293.634 450.712 296.626C452.446 299.618 451.386 303.383 448.399 305.12ZM389.518 264C389.518 267.475 386.724 270.178 383.254 270.178C379.785 270.178 376.99 267.378 376.99 264C376.99 260.525 379.785 257.822 383.254 257.822C386.82 257.726 389.518 260.525 389.518 264ZM327.361 454.157C327.361 457.632 324.566 460.335 321.097 460.335C317.628 460.335 314.833 457.536 314.833 454.157C314.833 450.779 317.628 447.98 321.097 447.98C324.566 447.98 327.361 450.682 327.361 454.157ZM327.361 73.7463C327.361 77.2212 324.566 79.924 321.097 79.924C317.628 79.924 314.833 77.1247 314.833 73.7463C314.833 70.2713 317.628 67.5686 321.097 67.5686C324.566 67.5686 327.361 70.2713 327.361 73.7463ZM438.858 227.996C438.858 224.521 441.653 221.818 445.122 221.818C448.592 221.818 451.386 224.617 451.386 227.996C451.386 231.471 448.592 234.173 445.122 234.173C441.653 234.173 438.858 231.471 438.858 227.996Z" fill="white" fill-opacity="0.04"/>
<path d="M458.036 78.3795L322.35 0L260 36.0044L197.65 0L61.9644 78.3795V149.906L0 185.621V342.283L61.9644 377.998V449.621L197.65 528L260 491.996L322.35 528L458.036 449.621V377.998L520 342.283V185.621L458.036 149.906V78.3795ZM383.351 126.16C386.82 126.16 389.615 128.959 389.615 132.338C389.615 135.813 386.82 138.516 383.351 138.516C379.881 138.516 377.087 135.716 377.087 132.338C377.087 128.959 379.881 126.16 383.351 126.16ZM136.746 126.16C140.215 126.16 143.01 128.959 143.01 132.338C143.01 135.813 140.215 138.516 136.746 138.516C133.277 138.516 130.482 135.716 130.482 132.338C130.578 128.959 133.277 126.16 136.746 126.16ZM136.746 401.743C133.277 401.743 130.482 398.944 130.482 395.566C130.482 392.091 133.277 389.388 136.746 389.388C140.215 389.388 143.01 392.187 143.01 395.566C143.01 398.944 140.215 401.743 136.746 401.743ZM250.749 476.841L197.746 507.536L145.708 477.42V411.01C151.105 407.921 154.863 402.129 154.863 395.469C154.863 385.527 146.768 377.419 136.842 377.419C126.916 377.419 118.821 385.527 118.821 395.469C118.821 402.129 122.483 407.921 127.976 411.01V467.092L79.8888 439.389V378.577L136.553 346.048L189.844 376.84V438.713C184.544 441.802 180.979 447.593 180.979 454.157C180.979 464.099 189.073 472.208 198.999 472.208C208.925 472.208 217.02 464.099 217.02 454.157C217.02 447.4 213.262 441.512 207.672 438.52V366.608L146.19 331.086V279.251C151.297 276.066 154.767 270.467 154.767 264C154.767 254.058 146.672 245.95 136.746 245.95C126.82 245.95 118.725 254.058 118.725 264C118.725 270.95 122.676 276.838 128.362 279.83V330.121L71.3121 362.843L17.828 331.955V277.224L56.8569 299.618C56.8569 305.893 60.0371 311.974 65.8191 315.256C74.3959 320.275 85.4781 317.283 90.3929 308.692C95.404 300.101 92.4166 289.097 83.8399 284.078C78.0578 280.699 71.2157 281.085 65.8191 284.174L17.9244 256.664V195.756L70.7339 165.253L117.665 192.184L83.3581 211.972C80.8525 210.621 78.0578 209.849 74.9741 209.849C65.0482 209.849 56.9533 217.957 56.9533 227.899C56.9533 237.841 65.0482 245.95 74.9741 245.95C84.8999 245.95 92.9948 237.841 92.9948 227.899C92.9948 227.61 92.8985 227.32 92.8985 227.03L207.191 161.199V89.5766C212.973 86.5843 216.924 80.5997 216.924 73.6497C216.924 63.7075 208.829 55.5993 198.903 55.5993C188.977 55.5993 180.882 63.7075 180.882 73.6497C180.882 80.117 184.255 85.7156 189.363 88.9009V150.967L135.493 182.049L79.7924 150.099V88.6113L127.88 60.9082V116.894C122.483 119.982 118.725 125.774 118.725 132.434C118.725 142.377 126.82 150.485 136.746 150.485C146.672 150.485 154.767 142.377 154.767 132.434C154.767 125.774 151.105 119.982 145.612 116.894V50.6764L197.65 20.5602L250.652 51.2556V187.551L189.652 223.362V304.541L251.038 340.063L250.749 476.841ZM130.578 264C130.578 260.525 133.373 257.822 136.842 257.822C140.311 257.822 143.106 260.622 143.106 264C143.106 267.475 140.311 270.178 136.842 270.178C133.277 270.178 130.578 267.475 130.578 264ZM192.735 454.157C192.735 450.682 195.53 447.98 198.999 447.98C202.469 447.98 205.263 450.779 205.263 454.157C205.263 457.536 202.469 460.335 198.999 460.335C195.53 460.335 192.735 457.632 192.735 454.157ZM69.3847 296.626C71.1193 293.634 74.8777 292.668 77.8651 294.309C80.8525 296.047 81.8162 299.811 80.1779 302.804C78.4433 305.796 74.685 306.761 71.6976 305.12C68.7102 303.383 67.6501 299.618 69.3847 296.626ZM81.238 227.996C81.238 231.471 78.4433 234.173 74.9741 234.173C71.5048 234.173 68.7102 231.374 68.7102 227.996C68.7102 224.521 71.5048 221.818 74.9741 221.818C78.4433 221.818 81.238 224.521 81.238 227.996ZM192.735 73.7463C192.735 70.2713 195.53 67.5686 198.999 67.5686C202.469 67.5686 205.263 70.3678 205.263 73.7463C205.263 77.2212 202.469 79.924 198.999 79.924C195.53 79.924 192.735 77.2212 192.735 73.7463ZM207.48 294.213V233.401L260 202.609L312.52 233.401V294.116L260 324.522L207.48 294.213ZM383.351 401.743C379.881 401.743 377.087 398.944 377.087 395.566C377.087 392.091 379.881 389.388 383.351 389.388C386.82 389.388 389.615 392.187 389.615 395.566C389.518 398.944 386.82 401.743 383.351 401.743ZM502.172 195.949V256.857L454.277 284.367C448.881 281.182 442.039 280.892 436.257 284.271C427.68 289.29 424.692 300.294 429.703 308.885C434.715 317.476 445.701 320.468 454.277 315.449C460.059 312.07 463.239 305.989 463.239 299.811L502.268 277.417V332.148L448.784 363.036L391.735 330.314V280.023C397.42 277.031 401.371 271.046 401.371 264.193C401.371 254.251 393.277 246.143 383.351 246.143C373.425 246.143 365.33 254.251 365.33 264.193C365.33 270.66 368.799 276.259 373.907 279.444V331.279L312.424 366.801V438.713C306.931 441.802 303.076 447.593 303.076 454.35C303.076 464.293 311.171 472.401 321.097 472.401C331.023 472.401 339.118 464.293 339.118 454.35C339.118 447.786 335.552 441.995 330.252 438.906V377.033L383.543 346.241L440.208 378.77V439.582L392.12 467.285V411.01C397.517 407.921 401.275 402.129 401.275 395.469C401.275 385.527 393.18 377.419 383.254 377.419C373.328 377.419 365.234 385.527 365.234 395.469C365.234 402.129 368.896 407.921 374.388 411.01V477.42L322.35 507.536L269.348 476.841L268.962 339.966L330.348 304.445V223.266L269.348 187.454V51.1591L322.35 20.4636L374.388 50.5799V116.797C368.992 119.886 365.234 125.678 365.234 132.338C365.234 142.28 373.328 150.388 383.254 150.388C393.18 150.388 401.275 142.28 401.275 132.338C401.275 125.678 397.613 119.886 392.12 116.797V60.8117L440.208 88.6113V150.195L384.507 182.146L330.638 151.064V88.9975C335.745 85.8121 339.118 80.2135 339.118 73.7463C339.118 63.804 331.023 55.6958 321.097 55.6958C311.171 55.6958 303.076 63.804 303.076 73.7463C303.076 80.6962 307.027 86.6808 312.809 89.6731V161.296L427.102 227.127C427.102 227.416 427.005 227.706 427.005 227.996C427.005 237.938 435.1 246.046 445.026 246.046C454.952 246.046 463.047 237.938 463.047 227.996C463.047 218.053 454.952 209.945 445.026 209.945C442.039 209.945 439.148 210.814 436.642 212.069L402.335 192.281L449.266 165.35L502.172 195.949ZM448.399 305.12C445.411 306.858 441.653 305.796 439.918 302.804C438.184 299.811 439.244 296.047 442.231 294.309C445.219 292.572 448.977 293.634 450.712 296.626C452.446 299.618 451.386 303.383 448.399 305.12ZM389.518 264C389.518 267.475 386.724 270.178 383.254 270.178C379.785 270.178 376.99 267.378 376.99 264C376.99 260.525 379.785 257.822 383.254 257.822C386.82 257.726 389.518 260.525 389.518 264ZM327.361 454.157C327.361 457.632 324.566 460.335 321.097 460.335C317.628 460.335 314.833 457.536 314.833 454.157C314.833 450.779 317.628 447.98 321.097 447.98C324.566 447.98 327.361 450.682 327.361 454.157ZM327.361 73.7463C327.361 77.2212 324.566 79.924 321.097 79.924C317.628 79.924 314.833 77.1247 314.833 73.7463C314.833 70.2713 317.628 67.5686 321.097 67.5686C324.566 67.5686 327.361 70.2713 327.361 73.7463ZM438.858 227.996C438.858 224.521 441.653 221.818 445.122 221.818C448.592 221.818 451.386 224.617 451.386 227.996C451.386 231.471 448.592 234.173 445.122 234.173C441.653 234.173 438.858 231.471 438.858 227.996Z" fill="url(#paint0_linear_256852_9657)"/>
<defs>
<linearGradient id="paint0_linear_256852_9657" x1="125.324" y1="-114.4" x2="1066.39" y2="264.879" gradientUnits="userSpaceOnUse">
<stop stop-color="#FF2091"/>
<stop offset="1" stop-color="#0184FD"/>
</linearGradient>
</defs>
</svg>
