<?xml version="1.0" standalone="no"?>
<!DOCTYPE svg PUBLIC "-//W3C//DTD SVG 20010904//EN"
 "http://www.w3.org/TR/2001/REC-SVG-20010904/DTD/svg10.dtd">
<svg version="1.0" xmlns="http://www.w3.org/2000/svg"
 width="2000.000000pt" height="2000.000000pt" viewBox="0 0 2000.000000 2000.000000"
 preserveAspectRatio="xMidYMid meet">

<g transform="translate(0.000000,2000.000000) scale(0.100000,-0.100000)"
fill="#000000" stroke="none">
<path d="M7731 19518 c-6 -9 -22 -20 -36 -24 -14 -3 -25 -10 -25 -14 0 -4 -12
-13 -27 -19 -16 -7 -46 -23 -68 -36 -22 -14 -51 -30 -65 -37 -14 -7 -31 -18
-38 -25 -7 -7 -18 -13 -23 -13 -5 0 -32 -16 -59 -35 -27 -19 -56 -35 -63 -35
-7 0 -19 -6 -25 -12 -11 -11 -92 -59 -167 -98 -11 -6 -38 -22 -60 -35 -22 -14
-51 -30 -65 -37 -14 -7 -27 -16 -30 -20 -3 -4 -17 -12 -30 -18 -14 -6 -43 -22
-65 -35 -22 -14 -52 -30 -67 -36 -16 -6 -28 -15 -28 -19 0 -4 -12 -13 -27 -19
-42 -18 -86 -43 -101 -58 -7 -7 -18 -13 -24 -13 -5 0 -21 -9 -35 -20 -14 -11
-34 -20 -44 -20 -11 0 -19 -4 -19 -10 0 -5 -15 -17 -32 -25 -18 -8 -46 -24
-63 -35 -16 -11 -40 -24 -52 -29 -12 -6 -41 -22 -65 -37 -24 -16 -68 -41 -98
-57 -30 -16 -62 -36 -71 -43 -8 -8 -23 -14 -32 -14 -9 0 -17 -5 -17 -10 0 -6
-12 -15 -26 -20 -14 -6 -50 -26 -79 -45 -28 -19 -59 -35 -69 -35 -9 0 -16 -4
-16 -8 0 -5 -15 -16 -32 -25 -18 -9 -60 -33 -93 -52 -33 -20 -73 -43 -90 -51
-16 -8 -48 -26 -70 -39 -22 -14 -51 -30 -65 -37 -14 -7 -47 -28 -75 -45 -27
-18 -53 -33 -57 -33 -4 0 -26 -13 -50 -28 -24 -16 -68 -42 -98 -58 -30 -16
-57 -32 -60 -35 -5 -6 -30 -20 -95 -54 -16 -9 -43 -25 -60 -35 -16 -11 -43
-27 -60 -36 -16 -8 -48 -26 -70 -39 -22 -13 -53 -31 -70 -40 -16 -8 -43 -24
-60 -35 -16 -11 -41 -25 -55 -31 -14 -6 -32 -16 -40 -24 -8 -7 -37 -25 -65
-40 -27 -14 -63 -35 -80 -45 -34 -22 -85 -51 -130 -75 -16 -9 -43 -24 -60 -35
-16 -10 -57 -33 -90 -50 -33 -18 -67 -38 -76 -46 -8 -8 -20 -14 -25 -14 -5 0
-33 -16 -63 -35 -29 -19 -57 -35 -63 -35 -5 0 -21 -9 -35 -20 -14 -11 -31 -20
-38 -20 -7 0 -15 -6 -18 -14 -3 -7 -18 -17 -34 -21 -15 -3 -30 -10 -33 -13
-11 -15 -67 -50 -90 -57 -14 -4 -27 -11 -30 -14 -5 -7 -199 -120 -230 -135 -8
-4 -33 -18 -55 -31 -22 -14 -49 -29 -60 -35 -11 -6 -38 -22 -60 -35 -22 -14
-51 -30 -65 -37 -14 -7 -31 -18 -38 -25 -7 -7 -19 -13 -26 -13 -7 0 -23 -9
-36 -20 -13 -11 -29 -20 -35 -20 -7 0 -15 -7 -19 -15 -3 -8 -14 -15 -25 -15
-11 0 -26 -7 -34 -15 -8 -8 -41 -28 -73 -45 -33 -17 -72 -40 -89 -51 -16 -11
-42 -25 -57 -31 l-28 -12 0 -1287 c0 -1268 0 -1287 -20 -1312 -11 -13 -32 -28
-47 -32 -16 -3 -35 -13 -43 -20 -8 -7 -38 -26 -66 -41 -29 -16 -88 -50 -132
-76 -45 -27 -86 -48 -92 -48 -5 0 -10 -4 -10 -9 0 -5 -12 -14 -27 -20 -16 -7
-46 -23 -68 -36 -22 -14 -49 -29 -60 -35 -11 -6 -38 -22 -60 -35 -22 -14 -53
-32 -70 -41 -16 -8 -48 -26 -70 -39 -22 -14 -49 -29 -60 -35 -11 -6 -38 -22
-60 -35 -22 -14 -51 -29 -65 -35 -13 -6 -27 -15 -30 -19 -3 -4 -26 -17 -51
-30 -26 -12 -57 -31 -69 -41 -13 -11 -30 -20 -38 -20 -9 0 -24 -7 -34 -17 -19
-17 -40 -30 -93 -57 -16 -9 -43 -25 -60 -36 -16 -10 -43 -26 -60 -34 -16 -9
-37 -20 -45 -25 -29 -19 -194 -113 -215 -123 -11 -5 -38 -20 -60 -33 -22 -14
-49 -29 -60 -35 -11 -6 -38 -22 -60 -36 -22 -13 -52 -30 -67 -36 -16 -7 -28
-16 -28 -19 0 -4 -16 -13 -35 -19 -19 -6 -35 -15 -35 -20 0 -4 -11 -11 -25
-14 -14 -4 -25 -10 -25 -15 0 -5 -16 -15 -35 -21 -19 -6 -35 -15 -35 -19 0 -4
-31 -23 -70 -42 l-70 -34 0 -2818 0 -2819 23 -19 c12 -10 28 -18 35 -19 7 0
35 -16 62 -35 27 -19 56 -35 64 -35 8 0 17 -4 21 -9 3 -6 47 -33 98 -62 50
-29 94 -56 95 -61 2 -4 7 -8 12 -8 13 0 52 -18 85 -40 17 -11 41 -25 55 -32
14 -7 28 -18 33 -25 4 -6 21 -14 37 -18 17 -4 30 -10 30 -15 0 -4 12 -13 28
-19 15 -7 45 -23 67 -36 22 -14 49 -29 60 -35 11 -6 38 -22 60 -35 22 -13 54
-31 70 -39 60 -31 140 -78 156 -92 8 -8 20 -14 25 -14 5 0 32 -15 59 -32 28
-18 61 -39 75 -46 62 -32 85 -46 90 -51 3 -4 16 -12 30 -19 47 -23 135 -74
150 -87 8 -7 25 -16 37 -19 11 -4 27 -13 33 -21 7 -8 20 -15 30 -15 9 0 25 -9
35 -20 10 -11 24 -20 32 -20 7 0 36 -16 63 -35 27 -19 56 -35 64 -35 8 0 18
-5 22 -11 3 -6 21 -18 38 -25 17 -8 49 -26 71 -39 22 -13 50 -29 63 -34 12 -6
22 -15 22 -21 0 -5 8 -10 19 -10 10 0 29 -8 42 -17 38 -28 62 -42 96 -58 68
-31 63 75 63 -1345 l0 -1286 28 -12 c52 -22 146 -79 150 -91 2 -6 12 -11 21
-11 10 0 29 -8 42 -18 37 -26 61 -40 98 -57 19 -9 49 -26 65 -38 17 -13 46
-29 64 -36 17 -8 32 -16 32 -20 0 -4 12 -12 28 -19 15 -6 41 -21 57 -32 17
-10 44 -26 60 -34 17 -9 37 -20 45 -25 8 -6 49 -29 90 -52 41 -23 77 -45 80
-49 3 -3 35 -21 72 -39 38 -18 68 -36 68 -41 0 -4 12 -11 27 -15 15 -3 43 -19
62 -34 20 -16 46 -32 59 -35 12 -4 46 -23 75 -42 28 -19 55 -34 59 -34 4 0 26
-13 50 -29 24 -15 70 -43 103 -61 69 -38 94 -53 150 -86 22 -13 52 -29 67 -35
14 -6 29 -17 32 -25 3 -8 13 -14 22 -14 9 0 27 -9 41 -20 14 -11 31 -20 38
-20 7 0 15 -7 19 -15 3 -8 14 -15 25 -15 11 0 26 -7 35 -15 8 -8 25 -19 38
-25 13 -5 32 -16 43 -22 100 -62 124 -76 153 -87 17 -8 32 -16 32 -20 0 -4 12
-12 28 -19 15 -6 41 -21 57 -32 17 -11 44 -27 60 -36 45 -23 78 -42 95 -54 24
-17 63 -39 93 -51 15 -6 27 -15 27 -19 0 -5 16 -14 35 -20 19 -6 35 -15 35
-19 0 -3 12 -12 28 -19 37 -16 134 -71 152 -87 8 -7 26 -16 39 -20 14 -4 29
-11 35 -16 24 -20 87 -59 96 -59 5 0 29 -13 53 -30 24 -16 55 -34 68 -40 13
-6 38 -19 54 -30 17 -11 45 -27 63 -35 17 -8 32 -19 32 -23 0 -4 16 -14 35
-21 19 -7 35 -17 35 -22 0 -5 8 -9 18 -9 11 0 27 -9 37 -20 10 -11 24 -20 32
-20 7 0 36 -16 63 -35 27 -19 56 -35 64 -35 8 0 18 -5 22 -11 3 -6 21 -18 38
-25 17 -8 49 -26 71 -39 22 -13 50 -29 63 -34 12 -6 22 -15 22 -21 0 -5 8 -10
19 -10 10 0 29 -8 42 -18 13 -10 31 -22 39 -26 8 -4 33 -18 55 -31 22 -14 51
-30 65 -37 14 -7 27 -15 30 -19 5 -6 29 -20 95 -54 17 -9 44 -25 60 -35 17
-11 44 -27 60 -35 17 -9 48 -26 70 -39 22 -13 64 -36 94 -52 29 -16 56 -34 58
-41 3 -7 12 -13 20 -13 14 0 103 -48 113 -61 3 -3 16 -10 30 -14 23 -7 78 -42
90 -56 3 -4 16 -10 29 -14 14 -4 46 -22 71 -39 71 -48 83 -55 110 -66 14 -6
32 -14 40 -19 10 -5 31 0 60 15 65 33 81 42 125 69 22 13 54 30 71 38 17 8 35
20 38 26 4 6 16 11 27 11 10 0 19 4 19 10 0 5 15 16 33 25 34 16 58 30 96 58
13 9 32 17 42 17 11 0 19 4 19 10 0 5 15 17 33 25 17 8 50 26 72 40 22 13 50
28 62 34 11 5 24 15 28 20 3 6 12 11 20 11 8 0 36 15 62 32 50 34 67 44 161
93 31 16 61 35 65 42 4 7 13 13 20 13 7 0 36 16 66 35 29 19 64 38 77 41 13 3
24 10 24 14 0 4 12 13 28 19 15 7 45 23 67 36 22 14 49 29 60 35 11 6 38 22
60 35 22 14 54 32 70 40 17 9 48 27 70 40 22 14 48 27 58 31 9 3 17 10 17 14
0 5 12 12 28 18 15 5 52 26 82 46 30 20 60 36 67 36 7 0 13 4 13 9 0 5 12 14
28 20 15 7 45 23 67 36 22 14 54 32 70 40 17 9 44 25 60 35 17 11 44 27 60 35
35 18 59 32 97 57 15 10 34 18 42 18 13 0 115 -48 126 -60 3 -3 16 -11 30 -18
14 -7 39 -21 55 -32 17 -11 44 -27 60 -35 17 -9 48 -27 70 -40 22 -13 52 -29
68 -36 15 -6 27 -15 27 -20 0 -5 6 -9 13 -9 8 0 24 -9 37 -20 13 -11 29 -20
36 -20 7 0 19 -6 26 -13 7 -7 24 -18 38 -25 50 -24 135 -74 150 -87 8 -7 28
-17 43 -21 16 -3 31 -13 34 -20 3 -8 11 -14 18 -14 7 0 24 -9 38 -20 14 -11
30 -20 36 -20 5 0 30 -13 54 -30 24 -16 55 -34 68 -40 13 -6 42 -21 64 -35 22
-14 50 -30 63 -35 12 -5 22 -14 22 -19 0 -5 14 -12 31 -16 17 -4 33 -13 36
-21 3 -8 13 -14 23 -14 9 0 25 -9 35 -20 10 -11 24 -20 32 -20 7 0 36 -16 63
-35 27 -19 56 -35 64 -35 8 0 21 -6 28 -13 12 -13 29 -23 103 -61 17 -9 44
-25 60 -36 17 -11 44 -27 60 -35 17 -9 44 -25 60 -35 17 -11 47 -28 68 -37 20
-9 37 -19 37 -24 0 -4 12 -12 28 -18 15 -6 34 -15 42 -20 8 -6 37 -23 63 -38
27 -15 61 -36 75 -46 15 -9 43 -24 62 -33 19 -9 37 -19 40 -23 3 -4 20 -13 38
-20 17 -8 32 -21 33 -30 0 -13 2 -12 10 4 6 11 37 33 70 48 32 16 59 33 59 38
0 5 12 12 28 15 15 4 38 15 51 26 13 10 30 18 37 18 8 0 14 4 14 9 0 5 10 13
22 17 12 3 43 22 70 40 26 19 52 34 57 34 6 0 32 15 58 32 42 29 120 73 193
110 14 7 27 15 30 19 5 6 115 69 160 91 14 7 27 15 30 19 5 6 29 20 95 54 17
9 44 25 60 35 17 11 44 27 60 36 17 8 48 26 70 39 22 13 54 31 70 39 37 19 68
39 75 47 3 4 21 14 40 23 19 9 49 25 65 36 17 10 44 26 60 34 34 18 59 33 94
59 13 9 32 17 42 17 11 0 19 4 19 10 0 5 15 17 33 25 17 8 46 24 62 35 17 11
44 27 60 35 17 9 48 27 70 40 22 13 51 29 64 35 13 6 44 24 68 40 24 17 49 30
54 30 6 0 22 9 36 20 14 11 31 20 38 20 7 0 15 6 18 14 3 7 18 17 34 21 15 3
30 10 33 13 12 16 70 52 94 58 14 3 26 10 26 15 0 5 12 14 27 20 14 5 45 22
67 37 23 15 67 40 98 55 31 16 62 35 69 43 6 8 19 14 29 14 10 0 23 7 30 15 7
8 18 15 25 15 6 0 20 9 30 20 10 11 25 20 32 20 8 0 26 9 40 20 14 11 32 20
39 20 8 0 14 4 14 9 0 5 12 14 28 20 41 17 86 44 95 58 4 6 21 14 37 18 17 4
30 10 30 14 0 4 28 22 63 40 34 18 76 41 92 52 17 10 41 25 55 32 14 7 44 25
68 40 24 15 53 32 65 38 12 5 40 21 62 34 22 14 52 30 68 36 15 6 27 15 27 19
0 4 12 13 28 19 41 18 85 43 100 58 7 7 22 13 33 13 11 0 22 6 25 14 3 8 18
19 32 25 15 6 45 22 67 36 22 13 47 27 55 31 8 4 26 16 39 26 13 10 32 18 42
18 11 0 19 4 19 9 0 9 15 19 85 56 17 9 48 27 70 40 22 13 52 29 68 36 15 6
27 15 27 19 0 4 12 13 28 19 41 18 85 43 100 58 7 7 22 13 32 13 10 0 20 6 23
14 3 8 19 17 36 21 17 4 31 11 31 16 0 5 12 14 27 20 14 5 46 23 70 39 24 17
47 30 51 30 4 0 31 15 59 34 29 19 61 37 72 41 10 3 25 12 31 20 7 8 20 15 29
15 9 0 24 9 34 20 9 11 26 20 37 20 20 0 20 5 20 1289 0 1252 1 1289 19 1313
11 13 43 37 73 52 29 16 71 39 93 52 22 13 54 31 70 39 17 9 44 24 60 35 17
11 41 26 55 33 14 7 43 24 65 38 38 25 71 43 125 71 14 7 27 15 30 19 5 6 29
20 95 54 17 9 44 25 60 35 17 11 44 27 60 35 17 9 48 27 70 40 22 13 54 31 70
39 17 9 44 25 60 36 17 10 44 26 61 34 17 8 35 19 38 25 4 6 16 11 27 11 11 0
22 7 25 15 3 8 21 19 40 25 19 6 34 16 34 21 0 5 8 9 18 9 10 0 25 9 35 20 9
11 26 20 37 20 11 0 23 7 26 15 4 8 12 15 19 15 7 0 24 9 38 20 14 11 30 20
36 20 6 0 34 16 61 35 27 19 52 35 55 35 3 0 40 21 83 46 42 25 86 50 97 56
11 6 27 15 35 20 8 5 26 14 40 21 14 7 44 25 68 40 24 15 53 32 65 38 12 5 40
21 62 34 22 14 51 29 65 35 13 6 27 15 30 19 6 9 52 35 93 52 15 6 27 15 27
20 0 5 7 9 15 9 13 0 15 320 15 2818 l0 2817 -47 30 c-27 16 -60 33 -75 38
-16 4 -28 12 -28 16 0 5 -12 14 -27 20 -16 6 -46 22 -68 36 -22 13 -50 29 -62
36 -13 7 -23 16 -23 21 0 4 -8 8 -19 8 -10 0 -29 8 -42 18 -39 28 -62 41 -98
58 -19 8 -40 22 -48 30 -8 8 -21 14 -29 14 -8 0 -14 4 -14 9 0 5 -14 14 -31
20 -16 6 -50 24 -74 40 -24 16 -53 32 -64 36 -12 3 -21 10 -21 15 0 4 -12 13
-27 19 -16 6 -46 22 -68 35 -22 13 -64 36 -94 52 -29 16 -56 34 -58 41 -3 7
-13 13 -22 14 -9 0 -38 14 -66 30 -27 16 -61 35 -75 42 -30 14 -83 49 -90 58
-3 3 -16 10 -29 14 -14 4 -46 23 -73 41 -26 19 -54 34 -61 34 -8 0 -35 16 -60
35 -25 19 -52 35 -60 35 -8 0 -25 8 -38 18 -40 28 -63 42 -91 53 -16 6 -28 15
-28 19 0 4 -12 13 -27 19 -16 7 -46 23 -68 36 -22 13 -53 31 -70 40 -69 36
-85 47 -85 54 0 5 -12 12 -27 16 -16 3 -35 12 -43 20 -8 7 -25 16 -37 19 -13
4 -23 11 -23 16 0 5 -16 14 -35 20 -19 6 -35 16 -35 21 0 5 -6 9 -14 9 -8 0
-28 14 -45 31 l-31 31 0 1289 c0 1246 -1 1289 -18 1289 -11 0 -27 9 -37 20
-10 11 -24 20 -32 20 -7 0 -36 16 -63 35 -27 19 -56 35 -64 35 -8 0 -18 5 -22
11 -3 6 -21 18 -38 25 -17 8 -49 26 -71 39 -22 13 -50 29 -62 36 -13 7 -23 16
-23 21 0 4 -4 8 -9 8 -14 0 -52 18 -86 40 -16 11 -41 26 -55 33 -14 7 -43 24
-65 38 -38 24 -57 35 -130 73 -16 9 -43 25 -60 36 -16 11 -43 27 -60 35 -16 9
-48 27 -70 40 -22 13 -53 31 -70 39 -46 24 -69 40 -78 54 -4 6 -16 12 -25 12
-10 0 -40 15 -67 33 -28 17 -61 38 -75 45 -14 7 -38 21 -55 32 -16 11 -46 26
-65 35 -19 9 -37 19 -40 23 -3 4 -16 13 -30 20 -14 7 -38 21 -55 32 -16 11
-43 26 -60 35 -16 8 -48 26 -70 39 -22 13 -59 34 -81 45 -23 12 -52 31 -64 41
-13 11 -31 20 -41 20 -10 0 -21 5 -25 11 -3 6 -22 17 -40 25 -19 8 -34 18 -34
23 0 5 -12 12 -27 16 -15 3 -30 10 -33 13 -11 15 -67 50 -90 57 -14 4 -32 13
-40 20 -18 15 -318 188 -342 198 -10 3 -18 11 -18 16 0 5 -14 12 -31 16 -17 4
-33 13 -36 21 -3 8 -14 14 -24 14 -11 0 -27 9 -36 20 -10 11 -23 20 -30 20 -7
0 -36 16 -63 35 -27 19 -56 35 -64 35 -8 0 -21 7 -30 15 -8 8 -25 19 -38 25
-24 10 -29 14 -114 67 -29 18 -63 37 -75 43 -13 6 -37 19 -54 30 -16 11 -45
27 -62 35 -18 8 -33 20 -33 25 0 6 -4 10 -9 10 -14 0 -52 18 -86 40 -16 11
-43 27 -60 35 -16 9 -43 25 -60 35 -16 11 -46 27 -65 36 -19 9 -37 19 -40 23
-3 3 -16 12 -30 19 -14 7 -43 23 -65 37 -22 13 -50 29 -62 34 -13 6 -23 15
-23 21 0 5 -8 10 -19 10 -10 0 -29 8 -42 18 -34 24 -55 37 -123 72 -32 17 -65
37 -73 45 -8 8 -21 15 -28 15 -7 0 -20 6 -27 13 -7 7 -24 18 -38 25 -14 7 -38
21 -55 32 -16 11 -43 27 -60 35 -16 9 -48 26 -70 39 -22 13 -64 36 -94 52 -29
16 -56 34 -58 41 -3 7 -13 13 -24 13 -16 0 -72 31 -105 59 -6 5 -21 12 -35 16
-22 7 -78 42 -89 56 -3 4 -16 10 -28 14 -22 6 -73 37 -142 85 -14 9 -37 21
-50 25 -14 4 -30 12 -37 17 -7 5 -13 5 -17 0 -3 -6 -18 -13 -33 -17 -16 -3
-35 -13 -43 -20 -15 -13 -101 -63 -150 -87 -14 -7 -27 -15 -30 -19 -5 -6 -29
-20 -95 -54 -16 -9 -43 -25 -60 -35 -16 -11 -43 -27 -60 -36 -16 -8 -48 -26
-70 -39 -22 -13 -53 -31 -70 -40 -16 -8 -43 -24 -60 -35 -16 -11 -40 -24 -52
-29 -12 -6 -41 -23 -65 -38 -53 -34 -96 -58 -126 -72 -13 -6 -30 -18 -38 -26
-9 -8 -24 -15 -35 -15 -10 0 -19 -5 -19 -10 0 -6 -12 -15 -26 -20 -14 -6 -50
-26 -79 -45 -28 -19 -57 -35 -64 -35 -6 0 -17 -5 -24 -10 -27 -23 -89 -60 -99
-60 -6 0 -19 -6 -27 -14 -19 -16 -114 -71 -153 -88 -16 -7 -28 -15 -28 -19 0
-4 -15 -12 -32 -20 -18 -7 -49 -25 -68 -39 -19 -15 -46 -31 -60 -35 -14 -4
-27 -11 -30 -14 -5 -7 -199 -120 -230 -135 -8 -4 -33 -18 -55 -31 -22 -14 -49
-29 -60 -35 -11 -6 -38 -22 -60 -35 -22 -14 -54 -32 -72 -40 -17 -8 -34 -19
-38 -25 -14 -23 -62 -5 -180 65 -22 13 -49 29 -60 35 -11 6 -38 21 -60 35 -22
13 -53 31 -70 39 -16 9 -43 25 -60 36 -16 11 -42 25 -57 31 -16 6 -28 15 -28
19 0 5 -16 14 -35 20 -19 6 -35 15 -35 19 0 3 -12 12 -27 19 -39 17 -81 41
-128 71 -22 14 -51 31 -65 38 -29 15 -55 31 -89 56 -13 9 -30 17 -38 17 -12 0
-70 36 -83 51 -3 4 -16 10 -30 14 -14 4 -32 13 -40 20 -8 7 -37 25 -65 41 -27
15 -52 31 -55 34 -3 3 -16 11 -30 18 -28 13 -51 27 -92 54 -15 10 -32 18 -38
18 -5 0 -33 16 -60 35 -27 19 -56 35 -64 35 -8 0 -18 5 -22 11 -3 6 -21 18
-38 26 -17 8 -49 25 -71 38 -22 14 -50 30 -62 36 -13 7 -23 16 -23 21 0 4 -4
8 -9 8 -14 0 -52 18 -86 40 -16 11 -41 25 -55 32 -14 7 -47 28 -75 46 -27 17
-55 32 -62 32 -6 0 -18 6 -25 13 -7 7 -24 18 -38 25 -45 23 -69 38 -88 55 -10
10 -26 17 -34 17 -9 0 -21 7 -28 15 -7 8 -19 15 -27 15 -8 0 -24 10 -37 23
-22 22 -24 22 -35 5z m4544 -718 c3 -5 14 -10 24 -10 10 0 38 -15 62 -34 24
-18 55 -37 69 -41 13 -4 36 -16 50 -25 60 -41 119 -77 173 -104 31 -15 57 -32
57 -36 0 -5 13 -11 29 -15 16 -3 35 -13 42 -21 6 -8 18 -14 26 -14 7 0 16 -7
19 -15 4 -8 10 -15 14 -15 13 0 52 -18 85 -40 17 -11 46 -27 65 -36 19 -9 37
-19 40 -23 12 -15 71 -51 84 -51 8 0 21 -7 30 -15 8 -8 25 -20 38 -25 28 -13
68 -35 88 -50 21 -15 59 -36 98 -54 17 -8 32 -20 32 -25 0 -6 8 -11 19 -11 10
0 29 -8 42 -18 13 -10 32 -21 42 -25 9 -3 17 -11 17 -17 0 -5 8 -10 19 -10 10
0 29 -8 42 -19 13 -10 34 -21 47 -25 12 -4 22 -11 22 -16 0 -5 9 -12 20 -15
11 -4 44 -22 73 -41 28 -19 57 -34 64 -34 6 0 18 -6 25 -13 7 -7 20 -16 28
-20 8 -4 33 -18 55 -32 22 -14 54 -32 70 -41 79 -40 110 -61 142 -91 l23 -22
1 -1093 c0 -601 0 -1136 0 -1188 l-2 -95 -34 -30 c-97 -84 -188 -180 -201
-210 -8 -19 -19 -35 -24 -35 -6 0 -10 -7 -10 -16 0 -9 -9 -35 -19 -58 -31 -66
-47 -205 -33 -287 7 -38 12 -81 12 -95 0 -14 7 -38 15 -52 8 -15 19 -38 25
-52 6 -14 19 -38 30 -55 11 -16 25 -41 32 -54 16 -31 118 -133 149 -149 13 -7
47 -25 74 -41 28 -16 61 -30 75 -31 14 0 34 -7 44 -15 28 -22 312 -21 340 0
11 8 29 15 40 15 12 0 32 7 46 15 14 8 37 19 53 26 15 6 27 15 27 20 0 5 6 9
14 9 16 0 128 107 169 161 40 54 73 120 81 164 4 22 13 46 19 54 8 9 12 62 12
150 0 113 -3 140 -17 161 -10 13 -18 37 -18 53 0 16 -9 40 -20 54 -11 14 -20
32 -20 39 0 8 -5 14 -10 14 -6 0 -14 8 -17 18 -12 33 -76 103 -142 155 -36 28
-69 56 -73 62 -4 5 -7 462 -5 1015 l2 1005 26 3 c15 2 33 -3 41 -11 8 -8 24
-18 36 -21 12 -4 22 -11 22 -15 0 -4 16 -13 35 -20 19 -7 35 -17 35 -22 0 -5
6 -9 14 -9 7 0 25 -9 39 -20 14 -11 30 -20 36 -20 6 0 33 -16 61 -35 27 -19
60 -37 74 -41 14 -3 26 -10 26 -14 0 -4 12 -13 28 -20 31 -13 69 -34 130 -73
24 -15 53 -32 65 -38 12 -5 36 -18 52 -29 39 -26 92 -56 133 -75 17 -8 32 -20
32 -25 0 -6 9 -10 19 -10 11 0 26 -7 35 -15 8 -8 25 -20 38 -25 36 -17 66 -35
86 -53 10 -10 26 -17 35 -17 8 0 22 -6 29 -13 7 -7 24 -18 38 -25 14 -7 43
-23 65 -37 22 -13 50 -29 63 -34 12 -6 22 -15 22 -21 0 -5 8 -10 19 -10 10 0
29 -8 42 -17 39 -29 62 -42 98 -59 19 -8 40 -22 48 -30 8 -8 21 -14 29 -14 8
0 14 -4 14 -9 0 -5 16 -15 35 -21 19 -6 35 -15 35 -19 0 -3 12 -12 28 -19 54
-23 87 -49 93 -73 9 -30 11 -2175 3 -2207 -7 -23 -74 -74 -116 -87 -12 -4 -25
-10 -28 -14 -11 -13 -67 -49 -88 -55 -12 -4 -46 -23 -75 -42 -28 -19 -55 -34
-58 -34 -4 0 -31 -16 -60 -35 -30 -19 -62 -35 -71 -35 -10 0 -18 -5 -18 -11 0
-5 -15 -17 -32 -25 -18 -8 -46 -24 -63 -34 -16 -11 -43 -27 -60 -35 -16 -9
-48 -27 -70 -40 -22 -13 -50 -29 -62 -34 -12 -6 -41 -23 -65 -38 -24 -15 -65
-39 -93 -53 -27 -14 -69 -38 -93 -53 -24 -15 -54 -32 -67 -37 -14 -5 -25 -14
-25 -20 0 -5 -12 -13 -27 -16 -16 -4 -39 -15 -52 -26 -13 -10 -30 -18 -37 -18
-8 0 -14 -4 -14 -9 0 -5 -12 -14 -27 -20 -42 -18 -86 -43 -101 -58 -7 -7 -19
-13 -26 -13 -7 0 -23 -9 -36 -20 -13 -11 -31 -20 -42 -20 -10 0 -18 -4 -18
-10 0 -5 -15 -16 -32 -25 -35 -16 -59 -30 -97 -57 -13 -10 -32 -18 -42 -18
-11 0 -19 -4 -19 -10 0 -5 -15 -16 -34 -24 -18 -8 -37 -19 -40 -25 -4 -6 -13
-11 -21 -11 -7 0 -37 -16 -66 -35 -30 -19 -57 -35 -62 -35 -5 0 -20 -9 -34
-20 -14 -11 -37 -20 -52 -20 -29 0 -26 -1 -175 88 -57 34 -108 62 -112 62 -4
0 -15 6 -23 14 -9 8 -40 26 -68 41 -29 15 -53 31 -53 35 0 5 -14 11 -31 15
-17 4 -33 13 -36 21 -3 8 -14 14 -24 14 -11 0 -27 9 -36 20 -10 11 -23 20 -30
20 -7 0 -36 16 -63 35 -27 19 -56 35 -64 35 -8 0 -21 7 -30 15 -8 8 -25 19
-38 25 -13 5 -32 15 -43 22 -63 39 -101 64 -105 70 -3 3 -18 10 -33 13 -15 4
-30 11 -33 17 -3 5 -16 14 -27 19 -12 6 -40 21 -62 35 -22 13 -52 30 -67 36
-16 7 -28 16 -28 19 0 4 -16 13 -35 19 -19 6 -35 15 -35 20 0 4 -12 13 -27 19
-16 6 -41 20 -58 31 -16 11 -43 27 -60 35 -16 9 -48 26 -70 39 -22 13 -64 36
-94 52 -29 16 -56 34 -58 41 -3 7 -12 13 -20 13 -14 0 -103 48 -113 61 -3 3
-16 10 -30 14 -23 7 -79 42 -90 57 -3 3 -18 10 -33 13 -15 4 -36 20 -47 35
-20 28 -20 46 -20 1134 l0 1106 47 45 c25 25 55 47 65 51 10 3 18 9 18 13 0
10 90 125 101 129 5 2 9 11 9 20 0 10 9 32 20 50 11 18 20 44 20 58 0 14 7 39
17 57 12 23 16 60 17 132 1 102 -13 168 -55 261 -11 23 -19 44 -19 49 0 4 -8
17 -17 30 -10 12 -25 33 -33 45 -26 39 -132 141 -160 154 -8 3 -40 20 -70 36
-30 17 -60 30 -66 30 -6 0 -33 10 -59 21 -43 19 -62 21 -174 17 -93 -3 -134
-9 -158 -21 -18 -9 -39 -17 -47 -17 -8 0 -47 -19 -87 -42 -79 -46 -168 -127
-214 -198 -17 -25 -33 -46 -37 -48 -5 -2 -8 -11 -8 -20 0 -9 -9 -30 -20 -47
-11 -16 -20 -41 -20 -53 0 -13 -7 -48 -16 -78 -24 -82 -2 -300 34 -336 6 -6
12 -22 12 -33 0 -12 9 -32 20 -45 11 -13 20 -28 20 -33 0 -12 4 -17 93 -107
66 -67 84 -82 127 -103 l25 -13 5 -1291 c5 -1252 6 -1292 24 -1312 11 -12 25
-21 33 -21 7 0 16 -7 19 -15 4 -8 14 -15 23 -15 9 0 39 -15 67 -32 27 -18 76
-46 107 -63 31 -16 57 -33 57 -36 0 -4 12 -10 26 -13 14 -4 47 -22 74 -41 28
-19 54 -35 60 -35 6 0 32 -15 58 -33 26 -18 73 -46 105 -62 84 -44 95 -50 115
-68 10 -10 26 -17 35 -17 9 0 19 -5 22 -10 4 -6 21 -17 38 -25 18 -8 50 -26
72 -40 22 -13 50 -29 63 -34 12 -6 22 -15 22 -21 0 -5 8 -10 19 -10 10 0 29
-8 42 -17 39 -28 62 -42 97 -59 18 -8 52 -28 74 -44 23 -17 49 -30 59 -30 10
0 22 -6 26 -13 4 -7 19 -18 33 -25 53 -27 86 -46 125 -71 22 -13 65 -38 95
-54 30 -16 73 -41 95 -55 22 -14 65 -39 95 -55 30 -16 57 -32 60 -36 3 -3 31
-19 63 -34 31 -16 57 -32 57 -37 0 -5 14 -11 31 -15 17 -4 33 -13 36 -21 3 -8
14 -14 24 -14 11 0 27 -9 36 -20 10 -11 23 -20 30 -20 7 0 36 -16 63 -35 27
-19 56 -35 64 -35 8 0 21 -6 28 -13 7 -7 24 -18 38 -25 41 -21 93 -51 125 -72
17 -11 44 -26 60 -35 17 -8 44 -24 60 -35 17 -11 46 -27 65 -36 19 -9 54 -29
78 -45 24 -16 46 -29 50 -29 4 0 31 -15 59 -34 29 -19 62 -37 73 -41 11 -3 20
-10 20 -15 0 -4 11 -11 24 -14 14 -3 31 -12 38 -19 7 -7 24 -18 38 -25 44 -21
134 -74 150 -86 8 -7 40 -25 70 -40 30 -16 73 -39 95 -52 22 -13 50 -29 63
-35 12 -7 22 -16 22 -21 0 -4 4 -8 9 -8 14 0 52 -18 86 -40 17 -11 48 -29 70
-40 55 -27 79 -43 88 -57 4 -7 16 -13 25 -13 10 0 40 -15 67 -32 28 -18 61
-39 75 -46 14 -7 39 -21 55 -32 17 -11 44 -26 60 -35 17 -8 48 -26 70 -40 22
-13 47 -27 55 -31 45 -22 68 -59 73 -119 6 -74 29 -170 51 -210 9 -16 16 -37
16 -46 0 -9 7 -19 15 -23 8 -3 15 -12 15 -19 0 -8 9 -22 20 -32 11 -10 20 -23
20 -29 0 -26 188 -176 220 -176 10 0 23 -7 30 -15 6 -7 33 -17 58 -21 26 -4
64 -13 86 -20 50 -18 179 -18 214 0 15 7 44 16 65 19 41 6 124 43 145 64 7 7
18 13 24 13 19 0 148 112 148 129 0 4 16 29 35 54 19 25 35 52 35 60 0 8 9 26
20 40 11 14 20 39 20 55 0 16 7 46 15 65 20 49 20 214 0 253 -8 16 -15 43 -15
59 0 17 -6 39 -14 50 -7 11 -17 31 -21 44 -4 14 -23 46 -41 73 -19 26 -34 50
-34 53 0 21 -194 165 -222 165 -10 0 -21 6 -24 14 -3 8 -25 17 -50 21 -25 3
-60 13 -79 21 -45 18 -187 19 -223 0 -15 -7 -48 -16 -74 -20 -25 -4 -52 -14
-58 -21 -25 -31 -86 -18 -178 36 -47 28 -96 55 -109 60 -13 5 -23 13 -23 18 0
5 -13 12 -29 16 -16 3 -35 13 -42 21 -6 8 -18 14 -26 14 -7 0 -16 6 -19 14 -3
8 -19 18 -36 21 -16 4 -32 13 -35 21 -3 8 -14 14 -24 14 -11 0 -27 9 -36 20
-10 11 -25 20 -34 20 -9 0 -22 7 -29 15 -7 8 -18 15 -25 15 -6 0 -20 9 -30 20
-10 11 -26 20 -36 20 -10 0 -24 7 -33 15 -8 8 -25 20 -38 25 -13 6 -41 21 -63
35 -22 13 -50 29 -62 34 -13 6 -23 15 -23 21 0 5 -8 10 -19 10 -10 0 -29 8
-42 18 -37 27 -61 41 -104 62 -46 23 -73 40 -93 58 -7 6 -19 12 -26 12 -7 0
-22 8 -34 18 -11 9 -28 22 -38 28 -16 9 -17 15 -6 38 6 15 27 34 45 42 55 26
91 47 105 61 7 7 20 13 27 13 7 0 20 6 27 13 7 7 24 18 38 25 24 11 41 21 78
42 9 6 29 16 45 23 15 6 27 14 27 18 0 4 26 20 58 35 31 16 63 35 70 41 7 7
24 16 38 19 13 3 24 10 24 14 0 4 15 13 33 21 17 7 34 16 37 19 6 8 56 35 93
51 15 6 27 15 27 19 0 4 12 13 28 19 15 7 45 23 67 36 22 13 54 31 70 40 17 8
44 24 60 35 17 10 44 26 60 34 34 18 59 33 94 59 13 9 30 17 38 17 13 0 62 31
91 58 7 6 20 12 28 12 8 0 36 15 62 33 26 17 70 43 97 57 28 14 52 28 55 32 3
4 41 26 85 49 61 32 82 39 94 31 9 -6 40 -23 70 -39 29 -15 56 -33 58 -40 3
-7 13 -13 23 -13 9 0 29 -9 43 -20 14 -11 32 -20 41 -20 9 0 19 -7 22 -15 4
-8 12 -15 19 -15 7 0 36 -16 65 -35 29 -19 63 -38 77 -41 14 -4 27 -13 30 -20
3 -8 11 -14 18 -14 7 0 24 -9 38 -20 14 -11 30 -20 36 -20 6 0 33 -15 59 -32
26 -18 73 -46 105 -63 31 -16 57 -33 57 -37 0 -5 6 -8 13 -8 8 0 24 -9 37 -20
13 -11 31 -20 41 -20 10 0 21 -5 25 -11 3 -6 22 -17 40 -25 19 -8 34 -18 34
-23 0 -5 12 -12 27 -16 15 -3 43 -19 62 -34 20 -16 46 -32 59 -35 12 -4 46
-23 75 -42 28 -19 55 -34 59 -34 4 0 27 -13 51 -30 24 -16 55 -34 68 -40 13
-6 42 -21 64 -35 22 -13 50 -29 63 -34 12 -6 22 -15 22 -20 0 -5 14 -12 31
-16 17 -4 33 -13 36 -21 3 -8 14 -14 24 -14 11 0 27 -9 36 -20 10 -11 25 -20
35 -20 9 0 23 -6 30 -12 29 -27 78 -58 91 -58 8 0 26 -9 40 -20 14 -11 30 -20
36 -20 5 0 17 -10 25 -22 14 -20 16 -143 16 -1122 l0 -1100 -22 -23 c-12 -13
-27 -23 -33 -23 -7 0 -22 -9 -35 -20 -13 -11 -29 -20 -35 -20 -7 0 -18 -6 -24
-14 -7 -8 -26 -18 -42 -21 -16 -4 -29 -11 -29 -16 0 -5 -11 -14 -25 -19 -13
-5 -43 -22 -67 -37 -24 -15 -54 -33 -68 -40 -14 -7 -32 -17 -40 -22 -8 -5 -22
-12 -30 -16 -8 -3 -33 -17 -55 -30 -22 -14 -49 -29 -60 -35 -11 -6 -38 -22
-60 -35 -22 -14 -51 -30 -65 -37 -14 -7 -27 -16 -30 -19 -3 -4 -21 -14 -40
-23 -19 -9 -48 -25 -65 -36 -16 -11 -39 -24 -51 -29 -11 -5 -40 -22 -65 -38
-24 -16 -59 -35 -76 -43 -18 -7 -33 -16 -33 -21 0 -5 -5 -9 -11 -9 -6 0 -22
-9 -36 -20 -14 -11 -34 -20 -44 -20 -11 0 -19 -4 -19 -10 0 -5 -15 -17 -32
-25 -48 -23 -88 -45 -133 -74 -22 -13 -60 -36 -85 -49 -64 -35 -115 -63 -158
-89 -20 -13 -48 -29 -62 -35 -14 -7 -37 -21 -52 -32 -32 -21 -101 -16 -134 9
-11 8 -27 15 -37 15 -10 0 -43 9 -74 20 -69 24 -219 28 -261 6 -15 -7 -45 -17
-67 -21 -22 -3 -47 -12 -55 -20 -8 -7 -28 -15 -44 -19 -15 -4 -34 -12 -42 -19
-7 -7 -40 -32 -73 -57 -33 -25 -63 -52 -66 -60 -3 -8 -19 -30 -36 -48 -16 -17
-35 -46 -41 -62 -5 -17 -14 -30 -19 -30 -5 0 -9 -7 -9 -15 0 -9 -8 -30 -17
-48 -9 -18 -22 -76 -29 -130 -11 -81 -11 -116 0 -192 7 -52 17 -100 23 -107 6
-7 14 -27 17 -45 4 -17 14 -37 22 -44 8 -6 14 -17 14 -23 0 -29 127 -165 199
-213 77 -52 108 -63 266 -98 86 -19 109 -19 160 0 22 8 54 14 70 15 17 0 47 9
68 20 20 11 46 20 57 20 11 0 23 7 26 15 4 8 12 15 19 15 22 0 165 119 165
137 0 4 7 15 17 25 35 39 89 145 98 193 4 22 11 45 16 51 5 7 12 42 16 79 3
37 11 71 17 76 24 20 87 59 96 59 5 0 29 13 53 30 24 16 55 34 68 40 13 6 42
22 64 35 22 14 51 30 65 37 14 7 27 16 30 20 3 4 17 12 30 18 14 6 43 21 65
35 22 13 51 30 65 37 14 7 31 18 38 25 7 7 22 13 33 13 10 0 19 4 19 10 0 5
15 16 33 25 34 16 58 30 96 57 13 10 32 18 42 18 11 0 19 4 19 10 0 5 15 16
33 25 48 22 140 75 158 91 8 8 21 14 28 14 6 0 24 8 39 18 43 28 65 41 97 58
17 8 44 24 60 34 17 11 44 27 62 35 17 8 34 19 37 24 4 5 20 12 37 16 63 14
59 77 59 -981 0 -604 -4 -972 -10 -988 -5 -15 -22 -32 -37 -38 -16 -7 -30 -16
-33 -19 -3 -4 -21 -14 -40 -23 -39 -17 -67 -35 -88 -54 -7 -6 -20 -12 -27 -12
-7 0 -20 -6 -27 -13 -15 -15 -59 -40 -100 -58 -16 -6 -28 -15 -28 -19 0 -5
-10 -12 -22 -16 -13 -4 -34 -15 -47 -25 -13 -11 -32 -19 -42 -19 -11 0 -19 -5
-19 -11 0 -5 -15 -17 -32 -25 -18 -8 -46 -24 -63 -34 -16 -11 -43 -27 -60 -35
-16 -9 -48 -26 -70 -39 -22 -13 -59 -34 -81 -45 -23 -12 -52 -31 -64 -41 -13
-11 -29 -20 -37 -20 -7 0 -35 -15 -61 -33 -26 -18 -58 -38 -72 -45 -14 -7 -38
-21 -55 -32 -16 -11 -43 -26 -60 -35 -51 -25 -139 -76 -155 -89 -8 -7 -40 -25
-70 -40 -30 -16 -73 -39 -95 -52 -22 -13 -49 -28 -60 -34 -11 -6 -38 -22 -60
-35 -22 -14 -51 -30 -65 -37 -14 -7 -31 -18 -38 -25 -7 -7 -18 -13 -23 -13 -5
0 -32 -16 -59 -35 -27 -19 -56 -35 -63 -35 -8 0 -24 -9 -37 -20 -29 -25 -70
-26 -101 -2 -13 10 -32 21 -41 25 -10 3 -18 11 -18 17 0 5 -8 10 -19 10 -10 0
-30 9 -44 20 -14 11 -28 20 -32 20 -4 0 -18 9 -32 20 -14 11 -33 20 -43 20 -9
0 -25 9 -35 20 -10 11 -24 20 -32 20 -7 0 -13 4 -13 10 0 5 -12 13 -27 17 -16
3 -49 21 -75 40 -26 18 -52 33 -58 33 -6 0 -33 16 -60 35 -27 19 -56 35 -64
35 -7 0 -24 8 -37 18 -33 24 -60 40 -89 55 -14 6 -47 27 -75 45 -27 17 -55 32
-62 32 -6 0 -18 6 -25 13 -7 7 -24 18 -38 25 -14 7 -38 21 -55 32 -16 11 -43
27 -60 35 -16 9 -48 27 -70 40 -22 13 -51 29 -65 35 -13 6 -27 14 -30 18 -3 4
-16 13 -30 20 -72 36 -154 83 -159 89 -3 5 -28 19 -56 33 -27 14 -53 30 -58
37 -4 6 -21 14 -38 18 -17 4 -33 13 -36 21 -3 8 -13 14 -23 14 -9 0 -25 9 -35
20 -10 11 -24 20 -32 20 -7 0 -36 16 -63 35 -27 19 -56 35 -64 35 -8 0 -21 6
-28 13 -7 7 -24 18 -38 25 -14 7 -43 23 -65 37 -22 13 -48 27 -58 31 -47 17
-47 19 -47 956 0 868 0 880 20 908 11 16 29 32 40 35 41 13 150 120 180 175 7
14 19 31 27 38 7 7 13 19 13 26 0 8 7 19 15 26 8 7 15 24 15 39 0 15 8 37 17
51 21 29 30 210 15 285 -21 107 -89 252 -129 278 -7 4 -13 12 -13 17 0 24
-188 170 -219 170 -9 0 -26 6 -36 14 -28 19 -136 39 -220 40 -86 1 -214 -21
-236 -40 -8 -8 -21 -14 -28 -14 -17 0 -94 -43 -104 -57 -4 -7 -13 -13 -20 -13
-13 0 -127 -115 -127 -128 0 -4 -9 -15 -20 -25 -11 -9 -20 -25 -20 -36 0 -10
-7 -24 -15 -31 -8 -7 -15 -18 -15 -24 0 -6 -10 -29 -22 -51 -21 -37 -22 -53
-22 -210 0 -156 2 -173 22 -210 12 -22 22 -48 22 -57 0 -10 4 -18 9 -18 5 0
14 -13 19 -30 14 -40 135 -170 201 -217 21 -14 21 -16 21 -954 0 -926 0 -939
-20 -959 -11 -11 -27 -20 -35 -20 -8 0 -15 -5 -15 -10 0 -6 -12 -15 -26 -20
-14 -6 -50 -26 -79 -45 -28 -19 -57 -35 -64 -35 -6 0 -17 -5 -24 -10 -29 -25
-89 -60 -101 -60 -8 0 -19 -7 -26 -15 -7 -8 -18 -15 -25 -15 -6 0 -20 -9 -30
-20 -10 -11 -24 -20 -32 -20 -7 0 -35 -15 -61 -32 -26 -18 -70 -44 -97 -58
-28 -14 -53 -30 -58 -37 -4 -6 -21 -14 -37 -18 -17 -4 -30 -10 -30 -13 0 -4
-26 -20 -58 -37 -31 -16 -59 -33 -62 -36 -3 -4 -33 -22 -67 -40 -35 -19 -80
-44 -100 -56 -21 -13 -47 -27 -58 -33 -11 -6 -38 -22 -60 -35 -22 -14 -51 -30
-65 -37 -14 -7 -31 -18 -38 -25 -7 -7 -19 -13 -26 -13 -7 0 -23 -9 -36 -20
-13 -11 -29 -20 -37 -20 -7 0 -13 -4 -13 -9 0 -5 -16 -15 -35 -21 -19 -6 -35
-15 -35 -19 0 -4 -27 -21 -60 -37 -33 -16 -60 -32 -60 -36 0 -3 -12 -11 -27
-17 -16 -7 -46 -23 -68 -36 -22 -13 -53 -31 -70 -40 -16 -8 -43 -24 -60 -35
-16 -11 -43 -27 -60 -35 -16 -9 -48 -27 -70 -40 -22 -13 -52 -29 -67 -36 -16
-6 -28 -15 -28 -20 0 -5 -6 -9 -13 -9 -8 0 -24 -9 -37 -20 -13 -11 -29 -20
-36 -20 -18 0 -84 -46 -101 -70 -12 -17 -13 -226 -11 -1298 l3 -1278 -35 -32
c-19 -17 -39 -32 -44 -32 -15 0 -145 -140 -163 -174 -9 -17 -19 -33 -22 -36
-3 -3 -16 -27 -27 -55 -62 -146 -63 -349 -3 -481 11 -23 19 -44 19 -48 0 -3
16 -29 35 -56 19 -27 35 -52 35 -54 0 -5 70 -74 107 -106 21 -18 48 -35 88
-54 17 -8 33 -17 37 -21 4 -4 38 -18 75 -32 62 -22 80 -24 208 -20 108 2 147
7 170 20 17 9 37 17 46 17 9 0 22 6 28 14 7 8 25 18 41 21 16 3 34 13 41 21 6
8 15 14 20 14 33 0 191 189 205 245 3 13 12 29 20 36 8 6 14 25 14 41 0 16 7
45 15 65 21 49 21 230 0 269 -8 16 -15 43 -15 60 0 17 -6 37 -14 43 -8 7 -18
25 -21 41 -3 16 -13 34 -21 41 -8 6 -14 17 -14 23 -1 16 -86 106 -157 165
l-63 52 0 1112 0 1113 28 25 c15 14 38 31 52 37 14 7 39 21 55 32 17 11 44 26
60 35 17 8 44 24 60 35 17 10 44 26 60 34 34 18 59 33 94 59 13 9 32 17 42 17
11 0 19 5 19 11 0 5 15 17 33 25 17 8 46 24 62 34 17 11 44 27 60 35 17 9 48
27 70 40 22 13 51 29 64 35 13 6 44 24 68 40 24 17 49 30 54 30 6 0 22 9 36
20 14 11 32 20 39 20 8 0 14 5 14 10 0 6 12 15 27 21 14 5 45 23 69 38 23 16
52 32 65 36 12 4 27 11 33 16 22 18 87 59 94 59 4 0 31 16 61 35 29 19 57 35
61 35 5 0 29 13 53 30 24 16 55 34 68 40 13 6 42 22 64 36 22 13 52 30 68 36
15 7 27 15 27 19 0 4 26 19 58 35 31 16 59 32 62 36 3 4 17 12 30 18 14 6 43
22 65 35 68 42 63 41 105 16 8 -4 41 -21 72 -37 32 -16 58 -32 58 -36 0 -5 6
-8 13 -8 7 0 36 -16 66 -35 29 -19 64 -38 78 -41 13 -4 27 -13 30 -20 3 -8 13
-14 23 -14 9 0 25 -9 35 -20 10 -11 24 -20 32 -20 7 0 36 -16 63 -35 27 -19
56 -35 64 -35 8 0 21 -6 28 -13 7 -7 24 -18 38 -25 14 -7 43 -23 65 -37 22
-13 50 -29 63 -34 12 -6 22 -15 22 -21 0 -5 8 -10 19 -10 10 0 30 -9 44 -20
14 -11 28 -20 32 -20 4 0 18 -9 32 -20 14 -11 32 -20 40 -20 13 0 62 -31 91
-57 7 -7 20 -13 28 -13 8 0 37 -16 64 -35 27 -19 54 -35 59 -35 10 0 73 -39
98 -59 6 -6 23 -13 37 -17 15 -3 29 -10 32 -16 3 -5 16 -14 27 -19 12 -6 40
-21 62 -34 22 -14 49 -29 60 -35 11 -6 38 -22 60 -35 22 -13 54 -31 70 -40 17
-8 44 -24 60 -35 17 -11 44 -27 60 -35 17 -9 48 -26 70 -39 22 -13 60 -34 84
-47 25 -12 52 -30 61 -39 10 -10 28 -20 42 -23 13 -4 30 -18 36 -32 9 -19 12
-303 12 -1111 l0 -1085 -32 -30 c-18 -17 -45 -33 -60 -36 -16 -3 -28 -9 -28
-14 0 -5 -15 -16 -32 -24 -18 -8 -46 -24 -63 -35 -33 -22 -72 -40 -85 -40 -4
0 -10 -7 -14 -15 -3 -8 -10 -15 -17 -15 -6 0 -22 -9 -36 -20 -14 -11 -32 -20
-40 -20 -13 0 -62 -31 -91 -57 -7 -7 -20 -13 -28 -13 -8 0 -36 -15 -62 -34
-27 -18 -58 -36 -69 -40 -12 -4 -27 -13 -33 -21 -7 -8 -21 -15 -31 -15 -11 0
-19 -4 -19 -9 0 -5 -16 -15 -35 -22 -19 -7 -35 -16 -35 -20 0 -4 -26 -19 -57
-35 -32 -16 -62 -34 -66 -41 -4 -7 -15 -13 -23 -13 -9 0 -27 -9 -41 -20 -14
-11 -34 -20 -44 -20 -11 0 -19 -5 -19 -11 0 -5 -15 -17 -32 -25 -18 -8 -46
-23 -63 -34 -32 -21 -84 -51 -125 -72 -14 -7 -31 -18 -38 -25 -7 -7 -19 -13
-25 -13 -7 0 -36 -16 -66 -35 -29 -19 -57 -35 -62 -35 -5 0 -31 -15 -57 -33
-26 -18 -58 -38 -72 -45 -14 -7 -38 -21 -55 -32 -50 -33 -79 -42 -95 -32 -13
8 -15 134 -18 1020 l-2 1011 67 54 c77 62 153 140 153 156 0 7 7 14 15 17 8 4
15 14 15 23 0 9 9 30 20 46 11 17 20 39 20 50 0 11 8 34 17 50 25 44 25 290 0
325 -9 14 -17 36 -17 50 0 14 -9 39 -20 55 -11 17 -20 36 -20 43 0 6 -8 20
-17 31 -10 10 -28 31 -40 47 -28 37 -74 84 -99 104 -53 40 -84 60 -92 60 -5 0
-15 7 -22 15 -7 8 -20 15 -29 15 -9 0 -34 10 -56 21 -36 20 -56 22 -200 22
-146 0 -164 -2 -200 -21 -22 -12 -47 -22 -57 -22 -9 0 -20 -5 -23 -10 -4 -6
-21 -17 -38 -25 -18 -8 -40 -20 -51 -27 -24 -17 -136 -125 -136 -133 0 -3 -16
-28 -35 -55 -19 -27 -35 -56 -35 -63 0 -7 -9 -29 -20 -50 -11 -20 -20 -50 -20
-66 0 -17 -5 -54 -11 -83 -15 -68 4 -237 32 -290 10 -20 19 -46 19 -57 0 -12
4 -21 9 -21 8 0 47 -56 60 -84 7 -17 122 -126 132 -126 5 0 26 -17 44 -37 l35
-38 0 -1175 c-1 -903 -4 -1180 -13 -1197 -14 -25 -81 -73 -102 -73 -8 0 -18
-6 -22 -12 -4 -7 -33 -26 -63 -42 -30 -17 -61 -36 -68 -43 -7 -7 -22 -13 -32
-13 -10 0 -20 -6 -23 -14 -3 -8 -19 -17 -36 -21 -17 -4 -31 -10 -31 -15 0 -4
-26 -20 -57 -36 -32 -16 -62 -34 -66 -41 -4 -7 -15 -13 -23 -13 -8 0 -36 -15
-62 -33 -26 -18 -58 -38 -72 -45 -24 -11 -35 -18 -77 -42 -10 -6 -32 -17 -50
-25 -17 -8 -33 -18 -35 -22 -1 -5 -25 -19 -53 -33 -27 -14 -53 -30 -58 -37 -4
-6 -21 -14 -37 -18 -17 -4 -30 -10 -30 -15 0 -5 -16 -14 -35 -20 -19 -6 -35
-15 -35 -20 0 -4 -12 -13 -27 -19 -37 -16 -69 -34 -91 -54 -10 -10 -24 -17
-30 -17 -6 0 -31 -13 -55 -30 -24 -16 -55 -34 -68 -40 -13 -6 -42 -22 -64 -35
-22 -14 -51 -30 -65 -37 -14 -7 -27 -15 -30 -19 -3 -3 -30 -19 -60 -35 -30
-16 -60 -34 -67 -41 -7 -6 -23 -15 -35 -19 -12 -4 -28 -13 -36 -20 -7 -8 -22
-14 -33 -14 -10 0 -19 -5 -19 -11 0 -5 -15 -17 -32 -25 -43 -20 -72 -37 -92
-53 -16 -14 -43 -3 -141 55 -22 13 -50 29 -62 35 -13 7 -23 16 -23 20 0 4 -12
10 -26 13 -14 4 -47 22 -74 41 -28 19 -54 35 -60 35 -6 0 -32 15 -58 34 -27
18 -58 36 -69 40 -12 4 -27 13 -33 21 -7 8 -19 15 -26 15 -8 0 -37 16 -64 35
-27 19 -56 35 -64 35 -8 0 -18 5 -22 11 -3 6 -22 17 -40 25 -19 8 -34 19 -34
24 0 6 -8 10 -19 10 -10 0 -38 15 -62 34 -24 18 -55 37 -69 41 -14 4 -31 12
-39 18 -15 13 -45 31 -81 49 -14 7 -27 15 -30 19 -3 4 -32 21 -65 38 -32 18
-67 38 -75 46 -9 8 -24 15 -32 15 -9 0 -21 7 -28 15 -7 8 -19 15 -27 15 -7 0
-16 6 -19 14 -3 8 -19 18 -35 21 -16 4 -31 11 -35 16 -3 5 -20 16 -37 25 -61
28 -92 47 -128 75 -20 16 -43 29 -50 29 -8 0 -41 18 -74 40 -33 22 -65 40 -72
40 -7 0 -13 3 -13 8 0 4 -26 21 -58 37 -31 17 -69 41 -83 55 l-26 25 -6 2459
c-3 1403 -1 2469 4 2482 4 13 25 32 46 43 21 11 49 26 63 33 14 7 27 16 30 20
3 4 17 12 30 18 44 20 84 43 98 57 7 7 19 13 26 13 7 0 23 9 36 20 13 11 31
20 42 20 10 0 18 5 18 11 0 5 15 17 33 25 17 8 46 23 62 34 17 11 41 26 55 33
14 7 43 24 65 38 47 30 89 54 128 71 15 7 27 16 27 19 0 4 16 13 35 19 19 6
35 15 35 20 0 4 12 13 28 19 15 6 41 20 57 31 17 11 41 25 55 32 14 7 36 20
49 30 13 10 32 18 42 18 11 0 19 4 19 10 0 5 15 17 33 25 17 8 46 24 62 35 17
11 41 25 55 31 14 6 32 16 40 24 17 14 112 69 148 85 13 6 30 17 38 25 9 8 24
15 35 15 10 0 19 4 19 10 0 5 15 17 33 25 17 8 46 24 62 35 17 11 44 27 60 35
17 9 48 27 70 40 22 13 51 29 64 35 13 6 44 24 68 40 24 17 48 30 53 30 9 0
72 39 96 59 6 5 21 12 35 16 13 4 40 20 60 36 20 16 48 33 63 38 l26 11 0
1462 0 1463 -33 23 c-18 12 -38 22 -44 22 -7 0 -18 6 -25 13 -15 13 -47 33
-90 55 -16 7 -28 17 -28 22 0 5 -14 11 -31 15 -17 4 -33 13 -36 21 -3 8 -14
14 -24 14 -11 0 -27 9 -36 20 -10 11 -23 20 -30 20 -7 0 -36 16 -63 35 -27 19
-52 35 -56 35 -9 0 -148 83 -162 97 -7 7 -20 13 -27 13 -7 0 -20 6 -27 13 -7
7 -24 18 -38 25 -14 7 -43 23 -65 37 -22 13 -49 29 -60 35 -11 6 -38 21 -60
35 -22 13 -51 29 -64 35 -13 6 -41 24 -61 40 -21 17 -44 30 -53 30 -8 0 -25 8
-38 19 -13 10 -28 20 -34 22 -27 12 -85 52 -85 60 0 5 -6 9 -14 9 -19 0 -116
51 -116 60 0 4 -12 11 -27 15 -15 3 -43 19 -62 34 -20 15 -47 32 -61 39 -14 7
-43 23 -65 37 -22 13 -50 29 -62 34 -13 6 -23 15 -23 21 0 5 -8 10 -19 10 -10
0 -29 8 -42 18 -40 28 -63 42 -91 55 -16 6 -28 15 -28 18 0 4 -28 22 -62 39
-100 51 -173 94 -188 110 -3 3 -18 12 -35 20 l-30 16 -3 2464 -2 2464 23 22
c22 20 42 32 112 69 17 9 44 25 60 35 17 11 44 27 60 36 17 8 48 26 70 39 22
13 54 31 70 40 17 8 44 24 60 35 17 11 41 25 55 31 14 6 32 16 40 24 8 7 38
25 65 40 28 14 64 35 80 45 17 11 44 27 60 36 17 8 48 26 70 39 22 14 49 29
60 35 11 6 38 22 60 35 22 13 54 31 70 40 17 8 48 26 70 40 22 13 47 27 55 31
8 5 21 14 28 21 7 7 22 13 32 13 11 0 23 6 27 13 8 14 47 37 96 58 15 6 27 15
27 19 0 4 12 13 28 19 15 7 45 23 67 36 22 13 54 31 70 40 17 8 44 24 60 35
17 10 44 26 60 35 17 8 48 26 70 40 22 13 52 29 68 36 15 6 27 15 27 20 0 5 5
9 12 9 6 0 19 7 27 15 14 12 79 40 103 44 4 0 10 -3 13 -9z m-4453 -31 c15
-10 32 -19 38 -19 6 0 13 -7 16 -15 4 -8 14 -15 24 -15 9 0 29 -9 43 -20 14
-11 29 -20 35 -20 5 0 19 -9 32 -20 13 -11 28 -20 35 -20 6 0 34 -16 61 -35
27 -19 55 -35 62 -35 7 0 35 -16 62 -35 27 -19 53 -35 58 -35 4 0 30 -15 57
-32 28 -18 61 -39 75 -46 69 -34 145 -81 148 -91 2 -6 10 -11 19 -11 16 0 106
-50 111 -62 2 -4 10 -8 17 -8 7 0 36 -15 64 -34 28 -19 61 -38 73 -42 12 -3
43 -22 70 -40 26 -19 52 -34 58 -34 6 0 33 -16 60 -35 27 -19 52 -35 56 -35 9
0 148 -83 162 -97 7 -7 22 -13 33 -13 11 0 22 -6 25 -14 3 -8 18 -18 34 -21
16 -3 31 -13 34 -21 3 -8 12 -14 21 -14 8 0 38 -16 65 -35 27 -19 55 -35 62
-35 6 0 42 -21 80 -46 l68 -46 0 -2464 0 -2464 -27 -17 c-16 -10 -30 -20 -33
-24 -5 -6 -34 -22 -90 -51 -14 -7 -27 -15 -30 -19 -3 -4 -30 -20 -60 -36 -30
-16 -74 -41 -98 -57 -24 -15 -54 -31 -67 -36 -14 -5 -25 -14 -25 -19 0 -5 -13
-12 -29 -16 -16 -3 -32 -13 -35 -21 -3 -8 -12 -14 -19 -14 -8 0 -24 -9 -37
-20 -13 -11 -29 -20 -37 -20 -7 0 -35 -15 -61 -32 -73 -50 -84 -57 -117 -74
-16 -8 -48 -26 -70 -39 -22 -13 -51 -29 -65 -35 -13 -6 -27 -15 -30 -19 -5 -9
-85 -56 -145 -86 -16 -9 -43 -24 -60 -35 -16 -11 -41 -25 -55 -32 -14 -7 -45
-26 -70 -43 -25 -17 -56 -36 -70 -43 -14 -7 -38 -21 -55 -32 -16 -11 -43 -26
-60 -35 -16 -8 -48 -26 -70 -40 -22 -13 -48 -27 -57 -31 -10 -3 -18 -10 -18
-14 0 -5 -16 -14 -35 -20 -19 -6 -35 -15 -35 -20 0 -4 -12 -13 -27 -19 -41
-17 -87 -43 -93 -52 -3 -4 -17 -13 -30 -19 -14 -6 -41 -21 -62 -33 -20 -12
-58 -35 -85 -50 -26 -15 -55 -32 -63 -38 -8 -5 -27 -15 -42 -22 -16 -6 -28
-14 -28 -18 0 -4 -25 -19 -55 -34 l-55 -28 0 -1463 0 -1462 38 -23 c20 -13 44
-27 52 -32 8 -4 33 -19 55 -32 22 -14 52 -30 68 -36 15 -6 27 -15 27 -19 0 -5
16 -14 35 -20 19 -6 35 -16 35 -21 0 -5 7 -9 15 -9 8 0 23 -9 32 -20 10 -11
24 -20 33 -20 8 0 39 -16 69 -35 29 -19 56 -35 60 -35 3 0 29 -15 56 -32 28
-18 61 -39 75 -46 14 -7 43 -23 65 -37 22 -13 50 -29 63 -34 12 -6 22 -15 22
-21 0 -5 8 -10 19 -10 10 0 30 -9 44 -20 14 -11 30 -20 35 -20 6 0 17 -6 24
-13 7 -7 34 -23 59 -35 26 -13 57 -32 69 -42 13 -11 32 -20 42 -20 10 0 21 -7
24 -15 4 -8 12 -15 19 -15 7 0 24 -9 38 -20 14 -11 30 -20 36 -20 5 0 31 -14
56 -31 25 -17 71 -45 103 -61 31 -17 59 -33 62 -37 5 -6 29 -20 128 -72 34
-18 62 -37 62 -41 0 -4 6 -8 13 -8 7 0 36 -16 66 -35 29 -19 64 -38 78 -41 13
-4 27 -13 30 -20 3 -8 13 -14 23 -14 9 0 25 -9 35 -20 10 -11 24 -20 32 -20 7
0 36 -16 63 -35 27 -19 55 -35 62 -35 6 0 19 -6 27 -14 9 -8 40 -26 69 -41 29
-15 61 -39 73 -53 20 -26 20 -28 14 -2491 l-5 -2466 -27 -20 c-33 -24 -79 -50
-115 -65 -16 -7 -28 -16 -28 -21 0 -5 -6 -9 -13 -9 -8 0 -24 -9 -37 -20 -13
-11 -32 -20 -42 -20 -10 0 -21 -6 -24 -14 -3 -8 -18 -19 -32 -25 -15 -6 -40
-20 -57 -31 -16 -11 -43 -27 -60 -36 -16 -8 -48 -26 -70 -40 -22 -13 -53 -31
-70 -39 -16 -9 -43 -24 -60 -35 -45 -29 -97 -58 -127 -71 -16 -6 -28 -15 -28
-19 0 -5 -16 -14 -35 -20 -19 -6 -35 -16 -35 -21 0 -5 -5 -9 -11 -9 -6 0 -22
-9 -36 -20 -14 -11 -34 -20 -44 -20 -11 0 -19 -5 -19 -11 0 -5 -15 -17 -32
-25 -18 -8 -46 -24 -63 -34 -16 -11 -43 -27 -60 -35 -16 -9 -48 -27 -70 -40
-22 -13 -51 -29 -64 -35 -13 -6 -44 -24 -68 -40 -24 -17 -48 -30 -52 -30 -4 0
-18 -9 -31 -20 -13 -11 -31 -20 -41 -20 -10 0 -22 -6 -26 -13 -4 -7 -19 -18
-33 -25 -29 -14 -55 -30 -89 -54 -13 -10 -32 -18 -42 -18 -11 0 -19 -4 -19
-10 0 -5 -15 -17 -32 -25 -18 -8 -46 -24 -63 -35 -16 -11 -43 -27 -60 -35 -16
-8 -37 -19 -45 -25 -59 -36 -75 -37 -116 -11 -49 32 -90 55 -130 74 -17 8 -35
20 -38 26 -4 6 -14 11 -22 11 -8 0 -37 16 -64 35 -27 19 -54 35 -59 35 -10 0
-73 39 -98 60 -7 5 -18 10 -26 10 -8 0 -34 16 -59 34 -25 19 -57 38 -71 41
-15 4 -31 13 -38 21 -6 8 -15 14 -20 14 -5 0 -31 15 -57 33 -26 18 -72 45
-102 61 -30 15 -73 39 -95 52 -22 13 -50 28 -62 34 -13 5 -23 14 -23 20 0 5
-4 10 -9 10 -14 0 -52 18 -86 40 -16 11 -46 27 -65 36 -19 9 -51 29 -71 45
-20 16 -43 29 -52 29 -8 0 -25 8 -38 18 -40 28 -63 42 -91 53 -16 6 -28 15
-28 19 0 4 -12 13 -27 19 -16 7 -46 23 -68 36 -22 13 -53 31 -70 40 -69 36
-85 47 -85 55 0 5 -13 11 -29 15 -16 3 -35 13 -42 21 -6 8 -17 14 -24 14 -6 0
-21 8 -33 17 -11 10 -29 23 -39 29 -17 11 -18 59 -21 1205 -2 865 1 1201 9
1221 6 15 20 30 30 33 26 9 140 122 174 175 17 25 33 47 38 48 4 2 7 9 7 15 0
7 7 26 16 42 17 32 43 147 51 227 3 27 -2 75 -11 111 -9 35 -16 77 -16 94 0
17 -6 36 -14 42 -8 7 -17 23 -20 36 -13 52 -168 245 -196 245 -4 0 -17 9 -30
20 -13 11 -29 20 -35 20 -7 0 -18 6 -24 14 -7 8 -27 18 -44 21 -18 4 -43 14
-57 23 -37 24 -344 24 -380 0 -14 -9 -40 -19 -57 -23 -18 -4 -33 -10 -33 -15
0 -5 -10 -12 -22 -16 -38 -12 -80 -45 -156 -124 -91 -94 -102 -107 -102 -123
0 -7 -9 -29 -20 -50 -11 -20 -20 -47 -20 -60 0 -12 -8 -34 -17 -47 -25 -36
-25 -260 0 -307 9 -18 17 -40 17 -50 1 -20 34 -90 65 -138 33 -50 86 -104 158
-162 l67 -54 0 -1008 c0 -1091 2 -1053 -51 -1013 -13 10 -49 30 -79 46 -30 15
-73 38 -95 51 -22 13 -50 29 -62 34 -13 6 -23 15 -23 20 0 5 -13 12 -29 16
-16 3 -35 13 -42 21 -6 8 -17 14 -24 14 -6 0 -22 9 -35 20 -13 11 -29 20 -36
20 -7 0 -19 6 -26 12 -29 27 -78 58 -92 58 -8 0 -21 6 -28 13 -7 7 -24 18 -38
25 -50 24 -135 74 -150 87 -8 7 -28 17 -43 21 -16 3 -31 13 -34 20 -3 8 -11
14 -18 14 -6 0 -22 9 -35 20 -13 11 -28 20 -34 20 -6 0 -35 16 -65 35 -29 19
-55 35 -58 35 -6 0 -147 83 -153 90 -3 3 -20 12 -37 19 -18 8 -33 16 -33 20 0
4 -12 12 -27 19 -35 15 -133 70 -153 86 -8 7 -40 25 -70 40 -30 16 -73 39 -95
52 -22 13 -50 29 -62 35 -12 6 -24 21 -27 33 -7 28 -7 2164 0 2192 3 12 15 27
27 33 12 6 40 22 62 36 22 13 47 27 55 31 17 8 196 110 220 125 8 5 26 15 40
21 14 7 27 15 30 19 3 4 30 19 60 35 30 15 61 34 68 40 6 7 22 16 35 20 12 4
24 10 27 14 5 7 26 19 95 55 17 9 44 24 60 35 17 10 57 33 90 50 33 18 67 38
76 46 8 8 20 14 25 14 5 0 32 15 59 33 28 17 75 45 105 61 30 15 73 39 95 52
22 13 49 28 60 34 11 6 38 22 60 36 22 13 52 30 68 36 15 7 27 16 27 19 0 4
16 13 35 19 19 6 35 15 35 19 0 5 28 23 63 40 34 18 76 41 92 51 17 11 44 26
60 35 17 8 44 24 60 35 34 22 72 40 86 40 5 0 9 5 9 10 0 6 11 15 24 19 13 5
46 23 73 40 61 37 77 38 134 6 24 -13 58 -32 74 -41 17 -9 32 -20 35 -23 3 -3
28 -17 55 -31 28 -13 70 -38 95 -55 25 -17 71 -44 102 -60 80 -42 107 -57 156
-88 24 -15 53 -32 65 -38 12 -5 36 -18 52 -29 32 -21 85 -51 125 -72 14 -7 29
-18 33 -25 4 -7 16 -13 25 -13 10 0 41 -15 69 -34 29 -19 62 -37 73 -41 11 -3
20 -10 20 -15 0 -4 12 -13 28 -19 15 -6 45 -22 67 -35 22 -14 54 -32 70 -41
73 -39 85 -47 85 -56 0 -5 8 -9 19 -9 10 0 30 -9 44 -20 14 -11 29 -20 35 -20
5 0 19 -9 32 -20 13 -11 31 -20 40 -20 9 0 25 -9 35 -20 10 -11 24 -20 32 -20
7 0 13 -4 13 -9 0 -5 14 -14 31 -20 16 -6 50 -24 75 -41 25 -16 48 -30 52 -30
4 0 30 -15 57 -32 28 -18 61 -39 75 -46 78 -41 92 -50 101 -63 5 -8 9 -476 9
-1130 l0 -1117 -31 -23 c-17 -13 -44 -34 -59 -46 -15 -13 -33 -23 -39 -23 -6
0 -11 -5 -11 -11 0 -5 -24 -40 -54 -77 -29 -37 -57 -78 -61 -92 -4 -14 -14
-34 -21 -45 -8 -11 -14 -32 -14 -47 0 -15 -7 -45 -16 -67 -11 -29 -14 -62 -11
-133 8 -155 32 -233 106 -343 37 -54 154 -175 170 -175 5 0 16 -6 23 -13 15
-15 100 -57 115 -57 6 0 39 -9 74 -21 52 -17 84 -20 170 -17 60 2 112 8 120
15 8 6 32 14 54 18 22 4 47 13 55 20 8 8 27 17 43 20 15 4 27 11 27 15 0 4 13
13 29 20 16 6 32 18 35 26 3 8 10 14 15 14 12 0 91 78 91 89 0 4 9 16 20 26
11 10 20 24 20 30 0 7 6 18 14 24 8 7 17 24 21 39 4 15 12 33 18 41 7 8 17 37
24 65 6 28 16 71 23 96 12 47 5 186 -10 195 -4 3 -11 26 -15 52 -11 76 -72
178 -155 262 -72 73 -117 111 -130 111 -28 0 -30 76 -30 1318 0 697 -3 1277
-6 1289 -3 12 -18 27 -33 32 -14 6 -39 20 -56 31 -16 11 -43 27 -60 35 -16 9
-48 27 -70 40 -22 13 -53 31 -70 40 -73 39 -85 47 -85 56 0 5 -8 9 -18 9 -9 0
-41 16 -71 35 -29 19 -56 35 -60 35 -3 0 -29 15 -56 33 -28 17 -61 38 -75 45
-69 34 -145 81 -148 91 -2 6 -12 11 -21 11 -10 0 -29 8 -42 18 -13 10 -35 23
-49 30 -51 25 -133 74 -147 88 -8 7 -21 14 -29 14 -8 0 -37 16 -64 35 -27 19
-56 35 -63 35 -8 0 -34 15 -58 34 -24 18 -55 37 -69 41 -13 4 -36 16 -50 26
-47 33 -115 73 -169 101 -30 15 -57 31 -60 35 -3 4 -32 21 -63 36 -32 16 -58
32 -58 37 0 5 -13 11 -29 15 -16 3 -35 13 -42 21 -6 8 -17 14 -24 14 -6 0 -22
9 -35 20 -13 11 -27 20 -32 20 -4 0 -31 16 -58 35 -27 19 -56 35 -64 35 -8 0
-21 6 -29 14 -7 8 -37 26 -65 41 -102 53 -92 -51 -92 1000 l0 922 108 109 c87
88 114 123 144 184 50 105 67 232 49 367 -7 54 -20 108 -27 120 -8 12 -14 29
-14 36 0 8 -9 26 -20 40 -11 14 -20 31 -20 39 0 7 -14 26 -30 42 -17 16 -30
33 -30 37 0 7 -105 99 -161 142 -13 9 -31 17 -40 17 -9 0 -22 6 -28 14 -7 8
-31 17 -54 21 -23 4 -60 13 -83 22 -83 30 -273 4 -389 -54 -96 -47 -107 -55
-176 -125 -67 -69 -82 -89 -113 -155 -9 -17 -20 -34 -26 -38 -5 -3 -10 -18
-10 -33 0 -15 -8 -39 -17 -52 -15 -21 -18 -48 -18 -160 0 -114 3 -144 22 -195
54 -148 135 -257 244 -330 87 -57 79 41 79 -963 0 -818 -1 -895 -17 -918 -9
-14 -26 -30 -37 -35 -12 -5 -39 -20 -61 -34 -22 -13 -50 -29 -63 -35 -13 -5
-30 -17 -38 -25 -9 -8 -22 -15 -30 -15 -8 0 -37 -16 -64 -35 -27 -19 -52 -35
-55 -35 -3 0 -59 -31 -124 -69 -65 -38 -128 -72 -140 -76 -11 -3 -21 -10 -21
-15 0 -4 -12 -13 -27 -19 -16 -7 -46 -23 -68 -36 -22 -14 -53 -32 -70 -40 -16
-9 -43 -25 -60 -35 -16 -11 -43 -27 -60 -35 -16 -9 -48 -27 -70 -40 -22 -13
-51 -29 -64 -35 -13 -6 -44 -24 -68 -40 -24 -17 -50 -30 -58 -30 -8 0 -17 -5
-21 -11 -3 -6 -22 -17 -40 -25 -19 -8 -34 -18 -34 -23 0 -5 -14 -12 -30 -16
-17 -4 -30 -10 -30 -15 0 -4 -12 -13 -27 -19 -16 -7 -46 -23 -68 -36 -22 -14
-52 -30 -67 -36 -16 -6 -28 -15 -28 -19 0 -4 -12 -13 -27 -19 -42 -18 -86 -43
-101 -58 -7 -7 -19 -13 -26 -13 -8 0 -19 -6 -25 -14 -7 -8 -26 -18 -42 -21
-16 -4 -29 -11 -29 -16 0 -5 -12 -14 -27 -20 -14 -5 -46 -23 -70 -39 -24 -17
-46 -30 -49 -30 -3 0 -33 -16 -65 -35 -65 -38 -99 -44 -119 -20 -7 8 -19 15
-27 15 -7 0 -16 6 -19 14 -3 8 -19 18 -35 21 -16 4 -31 11 -35 16 -3 5 -20 16
-37 24 -62 29 -142 77 -150 91 -4 8 -16 14 -25 14 -10 0 -41 16 -71 35 -29 19
-56 35 -60 35 -4 0 -29 14 -57 32 -27 17 -71 43 -99 58 -27 14 -70 40 -95 56
-25 16 -56 34 -70 41 -14 7 -32 17 -40 22 -8 6 -49 29 -90 52 -41 24 -81 49
-88 56 -7 7 -22 13 -31 13 -10 0 -24 7 -31 15 -7 8 -19 15 -26 15 -8 0 -22 9
-31 20 -10 11 -23 20 -30 20 -7 0 -35 15 -61 33 -26 19 -59 37 -75 40 -15 4
-27 11 -27 16 0 5 -13 14 -30 21 -16 7 -30 16 -30 20 0 4 -11 11 -25 14 -13 3
-44 19 -67 35 -53 34 -142 86 -186 106 -17 8 -32 20 -32 25 0 6 -4 10 -9 10
-14 0 -52 18 -86 40 -16 11 -44 27 -62 35 -67 31 -63 -41 -63 1025 0 765 3
970 13 984 12 16 15 16 47 1 19 -9 53 -27 75 -40 22 -13 54 -31 70 -40 17 -8
44 -24 60 -35 17 -10 44 -26 60 -35 66 -34 90 -48 95 -54 3 -4 16 -12 30 -19
53 -27 87 -46 125 -71 38 -24 123 -71 190 -106 17 -9 44 -25 60 -35 17 -11 44
-27 60 -35 17 -9 48 -26 70 -39 22 -13 64 -36 94 -52 29 -16 56 -34 58 -41 3
-7 13 -13 23 -13 9 0 29 -9 43 -20 14 -11 29 -20 35 -20 5 0 19 -9 32 -20 13
-11 29 -20 37 -20 12 0 65 -32 83 -50 3 -3 19 -12 35 -20 28 -15 31 -21 38
-90 5 -41 12 -79 16 -85 5 -5 12 -26 16 -45 4 -19 16 -51 26 -70 11 -19 19
-39 19 -43 0 -5 8 -19 18 -32 9 -12 24 -33 32 -45 8 -13 25 -34 37 -48 13 -14
23 -29 23 -33 0 -5 5 -9 11 -9 6 0 29 -15 52 -34 127 -102 288 -143 472 -121
95 12 130 22 220 68 63 31 195 144 195 166 0 5 7 14 15 21 14 12 65 111 65
127 0 5 5 14 12 21 7 7 20 60 30 120 18 101 18 112 2 202 -9 52 -25 113 -35
136 -10 23 -19 44 -19 48 0 3 -16 29 -35 56 -19 27 -35 52 -35 54 0 11 -122
125 -139 131 -11 3 -25 12 -31 20 -7 8 -20 15 -30 15 -10 0 -23 7 -30 15 -7 8
-28 17 -48 21 -19 4 -47 13 -61 20 -38 20 -276 19 -315 -1 -16 -8 -46 -18 -67
-21 -21 -4 -44 -13 -50 -20 -16 -19 -93 -18 -109 1 -7 8 -18 15 -24 15 -6 0
-35 15 -63 34 -29 19 -60 37 -70 40 -10 3 -42 22 -71 41 -30 19 -58 35 -62 35
-5 0 -15 6 -22 13 -7 7 -24 18 -38 25 -14 7 -43 23 -65 37 -22 13 -47 27 -55
31 -8 4 -56 31 -107 61 -50 29 -96 53 -102 53 -5 0 -14 6 -18 13 -4 6 -34 25
-65 40 -32 16 -58 32 -58 37 0 5 -13 11 -30 15 -16 4 -33 11 -36 16 -3 6 -16
15 -27 20 -12 6 -40 21 -62 34 -22 14 -52 30 -67 36 -16 6 -28 15 -28 19 0 5
-16 14 -35 20 -19 6 -35 15 -35 19 0 3 -12 12 -27 19 -38 17 -80 40 -128 71
-22 13 -65 38 -95 54 -30 16 -62 36 -71 43 -8 8 -21 14 -28 14 -11 0 -70 38
-81 52 -3 3 -17 9 -31 13 -14 4 -40 19 -58 35 l-31 29 0 1085 c0 695 4 1094
10 1111 6 15 22 30 40 36 16 6 30 14 30 18 0 4 16 13 35 20 19 7 35 17 35 22
0 5 5 9 11 9 6 0 22 9 36 20 14 11 34 20 44 20 11 0 19 5 19 11 0 5 15 17 33
25 17 8 50 26 72 39 22 14 49 30 60 35 11 6 38 21 60 35 22 13 51 29 64 35 13
6 43 23 65 38 23 15 67 40 99 56 31 15 57 32 57 36 0 5 13 11 30 15 17 4 30
10 30 13 0 4 26 21 58 37 31 17 59 33 62 36 3 4 30 20 60 36 30 16 73 41 95
54 22 14 52 32 67 40 15 8 57 32 95 54 79 47 119 69 153 87 14 7 28 18 33 25
4 6 21 14 37 18 17 4 30 10 30 15 0 4 12 13 28 19 31 13 85 43 92 52 5 6 30
20 95 54 17 9 44 24 60 35 17 10 52 31 79 45 l48 25 44 -22 c24 -12 44 -25 44
-29 0 -4 11 -10 24 -13 13 -3 48 -22 77 -41 30 -19 59 -35 66 -35 6 0 18 -6
25 -12 29 -27 78 -58 91 -58 8 0 25 -8 38 -17 34 -25 60 -41 89 -56 14 -7 43
-24 65 -38 22 -14 55 -31 73 -38 17 -8 32 -16 32 -20 0 -4 12 -12 28 -19 15
-6 41 -21 57 -32 17 -10 44 -26 60 -35 58 -29 161 -88 203 -116 24 -16 47 -29
52 -29 5 0 15 -6 22 -12 7 -7 38 -26 68 -41 89 -46 115 -61 123 -74 4 -6 21
-14 37 -18 16 -4 33 -11 36 -16 3 -6 16 -15 27 -20 12 -6 40 -21 62 -34 22
-14 52 -30 68 -36 15 -6 27 -15 27 -19 0 -5 16 -14 35 -20 19 -6 35 -16 35
-21 0 -5 7 -9 15 -9 20 0 65 -44 65 -64 0 -14 -10 -21 -85 -61 -16 -9 -48 -27
-70 -40 -22 -13 -53 -31 -70 -40 -16 -8 -43 -24 -60 -35 -16 -11 -41 -25 -55
-31 -14 -6 -32 -16 -40 -24 -8 -7 -39 -26 -69 -42 -69 -36 -93 -50 -111 -63
-17 -12 -50 -31 -95 -54 -16 -9 -43 -25 -60 -35 -16 -11 -57 -34 -90 -51 -33
-18 -67 -38 -76 -46 -8 -8 -20 -14 -25 -14 -5 0 -33 -16 -63 -35 -29 -19 -57
-35 -62 -35 -6 0 -22 -8 -37 -18 -46 -31 -66 -42 -99 -57 -17 -8 -34 -19 -38
-25 -9 -15 -56 -12 -74 4 -51 45 -336 74 -400 42 -16 -9 -38 -16 -48 -16 -10
0 -35 -9 -56 -20 -20 -11 -43 -20 -50 -20 -8 0 -22 -9 -32 -20 -10 -11 -23
-20 -28 -20 -6 0 -17 -7 -26 -15 -84 -79 -136 -135 -147 -160 -8 -16 -20 -39
-26 -50 -7 -11 -19 -31 -28 -45 -16 -27 -34 -96 -52 -198 -12 -66 -7 -114 25
-232 21 -78 39 -115 99 -202 48 -71 68 -90 132 -133 30 -19 60 -42 66 -50 7
-8 19 -15 26 -15 8 0 31 -9 51 -20 21 -11 49 -20 63 -20 14 0 47 -7 74 -15 61
-19 151 -19 202 -1 22 7 60 16 86 20 26 4 50 11 53 16 3 5 30 21 61 35 58 27
71 37 138 97 22 21 44 38 49 38 4 0 7 6 7 14 0 7 15 33 34 57 18 24 37 55 41
69 4 14 14 34 21 45 8 11 14 30 14 43 0 12 7 39 15 59 8 19 17 65 19 100 4 74
19 95 96 135 25 13 63 36 85 49 39 25 72 44 125 71 14 7 27 16 30 20 3 4 17
12 30 18 14 6 43 22 65 35 22 13 54 31 70 40 17 8 44 24 60 35 17 11 44 27 60
35 17 9 48 27 70 40 22 13 49 29 60 35 11 6 38 21 60 35 22 13 47 27 55 30 8
4 22 11 30 16 8 5 26 15 40 21 14 7 46 27 72 45 26 18 52 33 58 33 6 0 33 16
60 35 27 19 56 35 64 35 8 0 21 6 28 13 29 26 78 57 92 57 8 0 21 6 28 13 12
12 134 85 168 101 8 4 33 18 55 31 22 14 51 30 65 37 14 7 27 16 30 20 3 4 17
12 30 18 14 6 43 22 65 35 22 14 52 30 68 36 15 6 27 15 27 19 0 4 12 13 28
19 41 18 85 43 100 58 7 7 19 13 26 13 7 0 23 9 36 20 13 11 31 20 42 20 10 0
18 4 18 10 0 5 15 17 33 25 17 8 46 24 62 35 34 22 72 40 86 40 5 0 9 4 9 9 0
5 9 13 20 16 11 3 26 12 32 19 7 6 38 24 68 40 30 16 62 34 71 42 8 8 21 14
27 14 6 0 30 13 54 29 42 28 149 89 198 113 14 7 27 15 30 18 5 6 204 122 230
134 8 4 33 18 55 31 22 14 49 29 60 35 11 6 38 22 60 35 22 14 51 30 65 37 14
7 27 16 30 19 3 4 21 14 40 23 39 17 67 35 88 54 7 6 20 12 28 12 8 0 36 15
62 33 26 18 58 38 72 45 14 7 39 21 55 32 17 11 44 27 60 36 49 25 85 46 193
109 57 33 125 72 152 86 27 14 59 34 70 44 20 18 20 27 20 1306 l0 1288 58 38
c71 47 165 140 199 198 59 99 86 202 86 330 1 144 -28 243 -101 355 -39 59
-146 167 -174 176 -10 3 -18 9 -18 14 0 5 -13 11 -29 15 -16 3 -35 13 -42 21
-6 8 -19 14 -28 14 -9 0 -29 8 -46 18 -25 14 -56 17 -190 17 -134 0 -165 -3
-190 -17 -16 -10 -35 -18 -42 -18 -18 0 -97 -44 -151 -84 -172 -126 -275 -356
-256 -566 4 -36 10 -69 14 -75 4 -5 11 -26 14 -45 15 -75 79 -182 158 -262 42
-43 80 -78 85 -78 4 0 16 -14 26 -31 16 -29 17 -101 17 -1129 l0 -1098 -26
-31 c-14 -17 -32 -31 -39 -31 -8 0 -36 -15 -62 -32 -50 -34 -67 -44 -161 -93
-31 -16 -61 -35 -65 -42 -4 -7 -13 -13 -20 -13 -7 0 -36 -16 -66 -35 -29 -19
-64 -38 -77 -41 -13 -3 -24 -10 -24 -14 0 -4 -12 -13 -27 -19 -16 -7 -46 -23
-68 -36 -22 -14 -49 -29 -60 -35 -11 -6 -38 -22 -60 -35 -22 -14 -53 -32 -70
-40 -16 -9 -48 -27 -70 -40 -22 -13 -47 -27 -55 -31 -8 -5 -21 -14 -28 -21 -7
-7 -19 -13 -26 -13 -7 0 -25 -9 -39 -20 -13 -11 -47 -31 -73 -45 -27 -14 -62
-35 -79 -45 -34 -22 -85 -51 -130 -75 -16 -9 -43 -25 -60 -35 -16 -11 -43 -27
-60 -35 -16 -9 -48 -27 -70 -40 -22 -13 -51 -29 -64 -35 -13 -6 -44 -24 -68
-40 -24 -17 -49 -30 -54 -30 -6 0 -22 -9 -36 -20 -14 -11 -31 -20 -38 -20 -7
0 -15 -6 -18 -14 -3 -7 -18 -17 -34 -21 -15 -3 -30 -10 -33 -13 -12 -16 -67
-49 -90 -55 -15 -4 -36 0 -50 8 -14 8 -36 19 -49 25 -13 6 -43 23 -65 38 -23
15 -66 40 -96 56 -30 15 -73 39 -95 52 -22 13 -49 28 -60 34 -11 6 -38 22 -60
35 -22 13 -53 31 -70 40 -16 8 -48 26 -70 40 -22 13 -50 29 -62 34 -13 6 -23
15 -23 21 0 5 -8 10 -18 10 -9 0 -41 16 -71 35 -29 19 -56 35 -61 35 -4 0 -31
15 -59 34 -28 19 -61 38 -73 42 -12 3 -43 22 -70 40 -26 19 -52 34 -58 34 -6
0 -33 16 -60 35 -27 19 -56 35 -64 35 -8 0 -21 6 -29 14 -7 8 -37 27 -66 43
-28 15 -68 38 -89 50 -20 13 -50 30 -67 38 -16 9 -43 25 -60 35 -16 11 -45 27
-62 35 -18 8 -33 20 -33 25 0 6 -8 10 -19 10 -10 0 -30 9 -44 20 -14 11 -30
20 -35 20 -6 0 -17 6 -24 13 -18 16 -66 44 -100 58 -16 6 -28 15 -28 19 0 5
-16 14 -35 20 -19 6 -35 15 -35 20 0 4 -11 11 -25 14 -58 15 -55 -47 -56 1152
0 604 2 1106 6 1115 3 9 16 21 28 27 12 6 54 30 92 52 39 22 84 47 100 55 17
9 44 24 60 35 32 21 84 51 125 72 14 7 31 18 38 25 7 7 20 13 27 13 7 0 20 6
27 13 15 15 59 40 101 58 15 6 27 15 27 19 0 4 12 13 28 19 15 6 45 22 67 36
22 13 49 29 60 35 11 6 38 22 60 35 22 14 51 30 65 37 14 7 27 16 30 20 3 4
17 12 30 18 14 6 43 22 65 35 22 14 52 30 68 36 15 6 27 15 27 19 0 4 12 13
28 19 36 15 86 42 92 50 3 4 32 20 65 36 33 17 64 35 68 42 4 7 13 13 18 13 8
0 166 87 219 121 8 5 29 16 47 24 17 8 34 19 38 25 10 16 42 12 49 -6 3 -9 6
-463 6 -1010 l0 -994 -27 -23 c-65 -53 -193 -182 -193 -194 0 -8 -6 -16 -14
-19 -8 -3 -18 -18 -21 -34 -3 -16 -13 -34 -21 -41 -8 -6 -14 -19 -14 -28 0 -9
-9 -44 -21 -76 -18 -51 -20 -77 -17 -175 3 -82 9 -124 21 -145 9 -16 17 -37
17 -45 0 -9 13 -40 30 -70 16 -30 33 -62 36 -70 4 -8 14 -22 23 -31 9 -8 27
-28 41 -45 93 -109 216 -175 365 -196 93 -13 259 -4 287 17 13 8 31 15 41 15
33 0 160 82 217 139 30 31 69 76 85 101 17 25 33 46 38 48 4 2 7 11 7 20 0 10
7 31 16 47 19 36 44 161 44 227 0 76 -21 200 -41 238 -11 19 -19 43 -19 52 0
10 -4 18 -9 18 -5 0 -14 14 -22 32 -12 30 -130 152 -204 211 l-35 29 0 1177
c0 1262 -1 1227 48 1245 9 4 35 18 57 31 22 14 52 31 68 37 15 7 27 16 27 19
0 4 16 13 35 19 19 6 35 15 35 20 0 5 10 12 22 16 12 3 28 13 36 20 7 8 22 14
32 14 11 0 23 6 27 13 4 8 22 21 38 30 17 9 44 23 60 31 17 9 44 25 60 36 17
11 44 27 60 35 17 9 48 27 70 40 22 13 49 29 60 35 11 6 38 21 60 34 22 13 68
38 103 56 34 17 62 36 62 41 0 5 5 9 11 9 6 0 22 9 36 20 14 11 34 20 44 20
11 0 19 5 19 11 0 5 15 17 33 25 17 8 46 24 62 34 17 11 44 27 60 35 17 9 48
27 70 40 22 13 51 29 64 35 13 6 43 24 67 39 23 16 51 32 62 35 11 4 26 13 32
21 7 8 21 15 32 15 10 0 21 6 24 14 3 8 17 17 32 21 15 4 29 10 32 13 11 14
66 49 89 57 14 4 29 11 35 16 26 21 86 58 103 62 29 8 76 -3 105 -24z m4435
-1664 c19 -8 44 -15 54 -15 10 0 40 -22 67 -50 39 -40 50 -60 61 -109 7 -34
10 -73 7 -88 -4 -16 -10 -40 -13 -55 -6 -31 -64 -95 -114 -126 -29 -17 -51
-22 -110 -22 -68 0 -78 3 -129 36 -84 55 -103 91 -104 195 -1 67 3 91 15 105
9 11 19 28 23 39 7 24 65 63 126 86 57 22 73 22 117 4z m-4377 -11 c111 -38
177 -166 146 -281 -8 -28 -19 -57 -25 -65 -78 -91 -109 -108 -201 -108 -85 0
-121 17 -187 89 -34 37 -42 54 -48 99 -12 96 1 149 52 203 68 73 166 97 263
63z m6684 -2124 c110 -49 166 -201 115 -308 -26 -53 -95 -122 -124 -122 -11 0
-29 -7 -39 -15 -25 -19 -83 -19 -120 0 -15 8 -33 15 -40 15 -17 0 -90 71 -114
111 -27 45 -32 168 -7 193 8 8 15 19 15 25 0 16 70 91 85 91 7 0 18 6 25 14
25 31 130 28 204 -4z m-8934 5 c7 -8 21 -15 30 -15 22 0 90 -64 90 -84 0 -7 7
-19 15 -26 18 -15 22 -169 4 -187 -5 -5 -18 -25 -27 -44 -33 -64 -208 -128
-254 -92 -7 6 -26 13 -42 17 -37 9 -116 92 -116 121 0 13 -7 28 -16 36 -18 15
-15 72 8 133 17 43 85 126 104 126 6 0 17 7 24 15 9 11 33 15 90 15 57 0 81
-4 90 -15z m4412 -2766 c13 -5 41 -21 63 -34 22 -14 50 -29 63 -35 12 -5 22
-14 22 -19 0 -5 13 -12 29 -16 16 -3 35 -13 42 -21 6 -8 15 -14 20 -14 4 0 30
-15 56 -32 52 -36 91 -58 139 -81 17 -8 35 -20 38 -26 4 -6 14 -11 22 -11 14
0 63 -30 92 -57 7 -7 19 -13 25 -13 7 0 35 -15 63 -33 28 -19 57 -37 65 -41 8
-4 32 -18 54 -31 22 -13 54 -31 70 -40 17 -8 48 -26 70 -40 22 -13 50 -29 63
-34 12 -6 22 -15 22 -21 0 -5 8 -10 18 -10 11 0 27 -9 37 -20 10 -11 24 -20
32 -20 7 0 36 -16 63 -35 27 -19 56 -35 63 -35 8 0 24 -9 37 -20 13 -11 27
-20 31 -20 4 0 14 -6 21 -12 7 -7 39 -26 71 -43 31 -16 57 -33 57 -37 0 -3 13
-9 29 -13 16 -3 32 -13 35 -21 3 -8 12 -14 20 -14 8 0 36 -14 61 -31 25 -17
71 -45 103 -61 31 -17 59 -33 62 -37 3 -4 17 -12 33 -18 15 -7 27 -17 27 -23
0 -5 5 -10 12 -10 6 0 20 -7 30 -17 17 -15 18 -63 18 -1102 l0 -1086 -25 -28
c-14 -15 -30 -27 -36 -27 -5 0 -32 -16 -59 -35 -27 -19 -55 -35 -62 -35 -6 0
-19 -6 -27 -14 -9 -7 -41 -26 -71 -42 -30 -16 -57 -32 -60 -36 -3 -4 -17 -12
-30 -18 -32 -15 -74 -38 -128 -73 -24 -15 -53 -32 -65 -38 -12 -5 -40 -21 -62
-34 -22 -14 -52 -30 -67 -36 -16 -6 -28 -15 -28 -19 0 -4 -12 -13 -27 -19 -37
-16 -69 -34 -91 -54 -10 -10 -25 -17 -32 -17 -7 0 -21 -6 -29 -14 -9 -8 -41
-27 -71 -44 -30 -16 -71 -39 -90 -51 -19 -11 -46 -26 -60 -33 -14 -7 -27 -15
-30 -19 -3 -4 -30 -19 -60 -35 -30 -15 -61 -34 -68 -41 -7 -7 -19 -13 -26 -13
-7 0 -23 -9 -36 -20 -13 -11 -31 -20 -42 -20 -10 0 -18 -5 -18 -11 0 -5 -15
-17 -32 -25 -18 -8 -46 -23 -63 -34 -16 -11 -41 -26 -55 -33 -14 -7 -44 -25
-68 -40 -24 -15 -53 -32 -65 -38 -12 -5 -40 -21 -62 -34 -22 -14 -52 -30 -67
-36 -16 -6 -28 -15 -28 -20 0 -4 -17 -13 -38 -20 -39 -11 -122 2 -122 20 0 5
-12 14 -27 20 -16 7 -46 23 -68 36 -22 14 -49 29 -60 35 -11 6 -38 22 -60 35
-22 13 -53 31 -70 40 -16 8 -48 26 -70 40 -22 13 -50 29 -62 34 -13 6 -23 15
-23 21 0 5 -8 10 -18 10 -9 0 -41 16 -71 35 -29 19 -56 35 -60 35 -3 0 -30 16
-60 35 -29 19 -55 35 -58 35 -6 0 -95 52 -142 82 -14 10 -39 24 -56 33 -16 8
-48 26 -70 39 -22 13 -59 34 -81 45 -23 12 -52 31 -64 41 -13 11 -31 20 -41
20 -10 0 -21 5 -25 11 -3 6 -22 17 -40 25 -19 8 -34 19 -34 24 0 6 -8 10 -19
10 -10 0 -39 16 -64 35 -25 19 -52 35 -60 35 -8 0 -25 9 -39 19 -13 11 -44 30
-69 43 -24 13 -63 36 -87 52 -24 15 -53 31 -65 37 -12 5 -40 21 -62 35 -22 13
-48 27 -57 31 -10 3 -27 20 -38 38 -20 32 -20 48 -20 1110 l0 1077 37 34 c20
19 42 34 49 34 7 0 19 7 28 15 8 8 25 20 38 25 13 6 41 22 63 35 22 13 54 31
70 40 17 8 44 24 60 35 17 11 41 25 55 32 14 7 27 15 30 19 6 7 294 175 368
214 32 17 59 33 60 38 2 4 18 14 35 22 18 8 46 24 62 35 17 11 41 26 55 33 14
7 43 24 65 38 39 25 67 41 130 74 17 9 44 24 60 35 17 11 41 26 55 33 14 7 43
24 65 38 38 24 68 41 125 71 14 7 30 16 35 21 35 27 88 57 100 57 8 0 15 4 15
8 0 5 15 16 33 25 17 10 50 28 72 42 22 13 49 29 60 35 11 6 31 17 45 25 30
17 60 19 92 4z m-6632 -694 c14 -8 32 -17 40 -21 22 -10 60 -46 60 -56 0 -5 6
-16 14 -23 33 -33 31 -193 -2 -234 -10 -11 -25 -32 -35 -46 -10 -14 -24 -25
-32 -25 -8 0 -18 -8 -24 -17 -8 -15 -25 -18 -109 -18 -77 0 -104 4 -118 16
-11 9 -27 19 -36 22 -9 3 -25 19 -35 34 -10 15 -23 34 -30 40 -15 16 -27 131
-18 173 13 60 75 135 135 162 29 13 164 8 190 -7z m13393 -5 c14 -11 30 -20
36 -20 32 0 107 -159 98 -208 -12 -66 -41 -119 -84 -159 -53 -49 -81 -57 -190
-52 -62 3 -82 8 -99 25 -11 11 -29 27 -40 35 -35 26 -61 73 -67 124 -8 63 5
148 26 169 8 9 24 27 34 40 37 46 90 66 179 66 66 0 86 -4 107 -20z m-11108
-1325 c26 -21 49 -45 53 -54 3 -9 10 -19 15 -22 15 -11 25 -88 19 -152 -5 -55
-9 -63 -57 -113 -65 -66 -85 -74 -183 -74 -85 0 -122 16 -176 73 -67 72 -70
223 -6 304 21 27 79 68 107 77 10 2 55 4 100 2 78 -2 83 -4 128 -41z m8908 2
c90 -73 116 -174 74 -282 -16 -41 -84 -111 -125 -126 -43 -16 -184 -11 -213 9
-34 22 -79 67 -101 101 -24 35 -26 192 -3 211 8 7 15 18 15 25 0 16 84 88 113
97 12 4 61 6 108 5 84 -2 87 -3 132 -40z m2159 -1248 c35 -12 68 -28 74 -35 6
-8 16 -14 22 -14 6 0 14 -9 17 -20 3 -11 10 -20 15 -20 5 0 14 -18 20 -40 6
-22 15 -40 20 -40 16 0 11 -113 -5 -134 -8 -11 -15 -26 -15 -34 0 -26 -51 -80
-101 -106 -40 -20 -65 -26 -118 -26 -58 0 -72 4 -116 33 -28 18 -64 54 -82 82
-30 45 -33 57 -33 123 0 61 4 81 25 117 39 66 125 121 207 134 5 0 36 -9 70
-20z m-13382 -6 c63 -23 103 -55 134 -107 22 -38 26 -56 26 -125 0 -80 0 -81
-42 -132 -24 -28 -63 -62 -88 -75 -123 -66 -282 8 -331 153 l-21 63 21 61 c12
33 27 67 34 76 29 36 73 73 87 73 8 0 26 7 40 14 35 19 86 19 140 -1z m2260
-3469 c50 -25 91 -61 117 -103 29 -47 33 -182 7 -221 -29 -43 -87 -100 -103
-100 -8 0 -22 -7 -32 -16 -26 -23 -135 -22 -181 3 -110 59 -183 212 -133 277
8 11 15 27 15 36 0 9 9 27 20 40 11 13 20 27 20 32 0 4 5 8 11 8 7 0 17 7 23
15 6 8 36 24 66 35 62 23 115 21 170 -6z m8885 12 c11 -7 31 -17 44 -21 14 -4
39 -23 57 -42 107 -113 101 -233 -16 -348 -14 -14 -29 -25 -34 -25 -5 0 -18
-8 -29 -17 -29 -27 -139 -24 -195 5 -44 24 -101 78 -102 98 0 6 -7 17 -15 24
-20 17 -21 172 -1 192 7 8 16 24 20 36 8 23 46 54 111 89 47 25 130 30 160 9z
m-6621 -2137 c21 -11 49 -32 62 -47 13 -15 30 -34 37 -42 22 -23 36 -124 25
-177 -28 -128 -159 -205 -296 -173 -91 22 -141 74 -168 177 -12 45 -12 61 1
108 7 30 19 60 25 67 37 44 60 68 65 68 4 0 18 9 32 20 37 29 162 28 217 -1z
m4432 -7 c50 -36 89 -88 98 -129 4 -18 12 -35 17 -38 14 -9 10 -44 -11 -105
-25 -73 -95 -146 -150 -155 -22 -4 -42 -11 -46 -16 -3 -5 -18 -9 -34 -9 -16 0
-31 4 -34 9 -4 5 -24 12 -45 16 -22 4 -42 13 -45 21 -3 8 -11 14 -18 14 -14 0
-58 40 -58 53 0 5 -8 16 -17 23 -26 18 -25 210 0 229 9 7 17 16 17 21 0 10 39
44 85 74 24 16 47 20 116 20 79 0 89 -2 125 -28z"/>
</g>
</svg>
