<svg width="256" height="256" viewBox="0 0 256 256" fill="none" xmlns="http://www.w3.org/2000/svg">
<rect width="256" height="256" rx="128" fill="#DAFF02"/>
<g clip-path="url(#clip0_4029_651)">
<path d="M180.571 76.6443V77.47C180.571 78.3789 179.834 79.1164 178.925 79.1164H172.334C165.51 79.1164 159.974 84.6474 159.974 91.4768V98.0674C159.974 98.9762 159.236 99.7137 158.327 99.7137H157.502C156.593 99.7137 155.855 98.9762 155.855 98.0674V91.4768C155.855 84.6526 150.319 79.1164 143.495 79.1164H136.904C135.995 79.1164 135.258 78.3789 135.258 77.47V76.6443C135.258 75.7354 135.995 74.9979 136.904 74.9979H143.495C150.319 74.9979 155.855 69.4617 155.855 62.6375V56.0469C155.855 55.1381 156.593 54.4006 157.502 54.4006H158.327C159.236 54.4006 159.974 55.1381 159.974 56.0469V62.6375C159.974 69.4617 165.505 74.9979 172.334 74.9979H178.925C179.834 74.9979 180.571 75.7354 180.571 76.6443ZM171.597 231.197C178.234 228.387 184.637 224.913 190.626 220.872C196.557 216.868 202.129 212.267 207.198 207.198C212.267 202.129 216.863 196.557 220.872 190.626C224.918 184.637 228.393 178.234 231.202 171.597C237.045 157.787 240.005 143.116 240.005 127.997C240.005 112.879 237.045 98.2128 231.202 84.3981C228.393 77.7609 224.918 71.3573 220.872 65.3692C216.868 59.4383 212.267 53.8657 207.198 48.7968C202.129 43.728 196.557 39.1318 190.626 35.1224C184.637 31.0767 178.234 27.6022 171.597 24.7978C157.787 18.9603 143.121 16 128.003 16C112.884 16 98.218 18.9603 84.4033 24.8029C77.7661 27.6126 71.3625 31.0871 65.3744 35.1276C59.4435 39.1318 53.8709 43.7332 48.802 48.802C43.7332 53.8709 39.137 59.4435 35.1276 65.3744C31.0819 71.3625 27.6074 77.7661 24.7978 84.4033C18.9603 98.2128 16 112.884 16 128.003C16 143.121 18.9603 157.787 24.8029 171.602C27.6126 178.239 31.0871 184.643 35.1328 190.631C39.137 196.562 43.7384 202.134 48.8072 207.203C53.8761 212.272 59.4487 216.868 65.3796 220.878C71.3677 224.923 77.7713 228.398 84.4085 231.202C98.218 237.045 112.89 240.005 128.008 240.005C143.126 240.005 157.792 237.045 171.607 231.202L171.597 231.197ZM230.652 128.003C230.652 184.606 184.601 230.657 127.997 230.657C71.3937 230.657 25.3483 184.601 25.3483 128.003C25.3483 71.404 71.3989 25.3483 128.003 25.3483C184.606 25.3483 230.657 71.3989 230.657 128.003H230.652ZM83.1257 161.189C83.1257 168.932 89.4046 175.211 97.1481 175.211H99.9526C100.986 175.211 101.822 176.047 101.822 177.081V179.885C101.822 187.629 108.101 193.908 115.845 193.908H157.912V170.537H106.496V77.0546H83.1257V161.189Z" fill="#101010"/>
</g>
<defs>
<clipPath id="clip0_4029_651">
<rect width="224" height="224" fill="white" transform="translate(16 16)"/>
</clipPath>
</defs>
</svg>
