<?xml version="1.0" encoding="UTF-8"?>
<svg version="1.1" xmlns="http://www.w3.org/2000/svg" width="256" height="256">
<path d="M0 0 C1.16787552 -0.01879211 1.16787552 -0.01879211 2.35934448 -0.03796387 C19.06317734 -0.25475383 34.89381572 -0.36179284 50.83984375 5.2734375 C51.51901855 5.50337402 52.19819336 5.73331055 52.89794922 5.97021484 C68.07986896 11.20625404 81.60632561 18.94624201 93.83984375 29.2734375 C94.35144043 29.69995605 94.86303711 30.12647461 95.39013672 30.56591797 C118.64369528 50.16144766 134.67437944 79.09441971 138.83984375 109.2734375 C138.9769897 112.00125306 139.07327396 114.70474471 139.11328125 117.43359375 C139.13207336 118.60146927 139.13207336 118.60146927 139.15124512 119.79293823 C139.36803508 136.49677109 139.47507409 152.32740947 133.83984375 168.2734375 C133.60990723 168.9526123 133.3799707 169.63178711 133.14306641 170.33154297 C127.90702721 185.51346271 120.16703924 199.03991936 109.83984375 211.2734375 C109.20006592 212.04083252 109.20006592 212.04083252 108.54736328 212.82373047 C88.95183359 236.07728903 60.01886154 252.10797319 29.83984375 256.2734375 C27.11202819 256.41058345 24.40853654 256.50686771 21.6796875 256.546875 C20.51181198 256.56566711 20.51181198 256.56566711 19.32034302 256.58483887 C2.61651016 256.80162883 -13.21412822 256.90866784 -29.16015625 251.2734375 C-29.83933105 251.04350098 -30.51850586 250.81356445 -31.21826172 250.57666016 C-46.40018146 245.34062096 -59.92663811 237.60063299 -72.16015625 227.2734375 C-72.92755127 226.63365967 -72.92755127 226.63365967 -73.71044922 225.98095703 C-96.96400778 206.38542734 -112.99469194 177.45245529 -117.16015625 147.2734375 C-117.2973022 144.54562194 -117.39358646 141.84213029 -117.43359375 139.11328125 C-117.44612183 138.33469757 -117.4586499 137.55611389 -117.47155762 136.75393677 C-117.68834758 120.05010391 -117.79538659 104.21946553 -112.16015625 88.2734375 C-111.93021973 87.5942627 -111.7002832 86.91508789 -111.46337891 86.21533203 C-106.22733971 71.03341229 -98.48735174 57.50695564 -88.16015625 45.2734375 C-87.7336377 44.76184082 -87.30711914 44.25024414 -86.86767578 43.72314453 C-65.97266353 18.92752029 -32.84697446 0.48156504 0 0 Z " fill="#378DFE" transform="translate(117.16015625,-0.2734375)"/>
<path d="M0 0 C0.6875 2.22265625 0.6875 2.22265625 1 5 C-2.22645359 11.10266715 -7.67024146 15.75794729 -13 20 C-12.30519531 19.67257813 -11.61039062 19.34515625 -10.89453125 19.0078125 C-7.63631172 17.87337169 -5.12550498 17.79943945 -1.6875 17.875 C-0.61886719 17.89304687 0.44976562 17.91109375 1.55078125 17.9296875 C2.35902344 17.95289062 3.16726562 17.97609375 4 18 C4.495 19.98 4.495 19.98 5 22 C-1.66843475 27.71580122 -6.45272078 28.29873986 -15 28 C-15 28.66 -15 29.32 -15 30 C-14.21238281 29.88140625 -13.42476563 29.7628125 -12.61328125 29.640625 C-2.4159433 28.43383944 6.75576447 29.72412991 15.3125 35.75 C16.199375 36.4925 17.08625 37.235 18 38 C18.33 37.67 18.66 37.34 19 37 C19 36.67 19 36.34 19 36 C29.03282995 34.88524112 37.75655368 40.91196742 45.47265625 46.74609375 C49.41830457 50.26485585 52.63675665 54.25738195 55 59 C55 60.32 55 61.64 55 63 C53.35 62.34 51.7 61.68 50 61 C50.36351562 61.46148437 50.72703125 61.92296875 51.1015625 62.3984375 C60.94812639 75.17372296 65.53695174 85.57606223 64 102 C62.98161054 105.11272952 61.80412702 107.23743051 60 110 C58.8275455 106.48263651 59.58627278 104.76974118 60.50390625 101.2890625 C62.41753284 92.45925792 60.34434242 84.25459767 57 76 C55.47422249 73.69498054 55.47422249 73.69498054 54 72 C54.33 72.99 54.66 73.98 55 75 C55.06937062 77.22818441 55.08457084 79.45834524 55.0625 81.6875 C55.05347656 82.86699219 55.04445312 84.04648438 55.03515625 85.26171875 C55.01775391 86.61716797 55.01775391 86.61716797 55 88 C54.01 86.68 53.02 85.36 52 84 C52.19335938 84.64066406 52.38671875 85.28132813 52.5859375 85.94140625 C53.12876918 87.74457485 53.66622914 89.54936651 54.19921875 91.35546875 C54.81162867 93.37791517 55.48613769 95.38165449 56.1875 97.375 C58.20333345 106.36871846 57.94297514 116.45937047 53.0625 124.5 C52.381875 125.325 51.70125 126.15 51 127 C50.01 127 49.02 127 48 127 C48.27714844 126.46890625 48.55429688 125.9378125 48.83984375 125.390625 C49.20207031 124.68421875 49.56429687 123.9778125 49.9375 123.25 C50.29714844 122.55390625 50.65679687 121.8578125 51.02734375 121.140625 C55.84547703 110.53686179 53.20687492 96.89859793 50.36328125 86.07421875 C48.80802901 82.56710266 47.15170286 81.11681535 44 79 C44.2165625 79.97839844 44.2165625 79.97839844 44.4375 80.9765625 C45.44627294 85.72620177 46.25715306 90.11409188 46 95 C45.278125 94.2575 44.55625 93.515 43.8125 92.75 C40.42213096 89.4349725 36.94216403 86.62810935 33 84 C32.47583008 81.93701172 32.47583008 81.93701172 32.26953125 79.4296875 C32.18896484 78.53378906 32.10839844 77.63789062 32.02539062 76.71484375 C31.95513672 75.77769531 31.88488281 74.84054688 31.8125 73.875 C31.73064453 72.93011719 31.64878906 71.98523438 31.56445312 71.01171875 C31.36384579 68.67523326 31.1762523 66.33842824 31 64 C29.66666667 67 29.66666667 67 31 70 C31.08021999 71.40824893 31.10765977 72.81997231 31.09765625 74.23046875 C31.09443359 75.03291016 31.09121094 75.83535156 31.08789062 76.66210938 C31.07951172 77.49548828 31.07113281 78.32886719 31.0625 79.1875 C31.05573242 80.4549707 31.05573242 80.4549707 31.04882812 81.74804688 C31.03705403 83.83206155 31.0191189 85.91603977 31 88 C31.93585938 88.28359375 32.87171875 88.5671875 33.8359375 88.859375 C39.72480377 90.98227494 42.88022053 95.76322732 46 101 C47.52094534 104.80236334 47.06722424 108.96654546 47 113 C45 112 45 112 44 109 C43.34 108.67 42.68 108.34 42 108 C42.33 108.639375 42.66 109.27875 43 109.9375 C44.3058649 113.93671126 44.55830623 117.8209137 44 122 C43.34 122.66 42.68 123.32 42 124 C41.67 123.67 41.34 123.34 41 123 C40.46052734 124.28003906 40.46052734 124.28003906 39.91015625 125.5859375 C35.23294511 133.94561548 25.76681868 142.564165 16.58203125 145.50390625 C12.36830962 146.31350178 8.16615467 146.64359589 3.8828125 146.82421875 C1.15229676 146.89165379 1.15229676 146.89165379 -0.80810547 147.49609375 C-21.72753586 152.30537247 -45.05413412 147.111086 -63 136 C-65.91071201 133.85839584 -68.50110427 131.60439001 -71 129 C-71.56074219 128.43925781 -72.12148437 127.87851563 -72.69921875 127.30078125 C-73.34310547 126.65689453 -73.34310547 126.65689453 -74 126 C-74 127.65 -74 129.3 -74 131 C-74.66 131 -75.32 131 -76 131 C-77.42258812 127.17679443 -78.24042276 124.08718695 -78 120 C-77.11248047 120.10441406 -77.11248047 120.10441406 -76.20703125 120.2109375 C-71.81405538 120.51192443 -69.7220542 120.57764336 -66.1875 117.75 C-57.65871946 104.92721537 -58.5919224 88.36952332 -61.48828125 73.8671875 C-62.42385899 68.62509541 -62.67457918 63.30949756 -63 58 C-63.09796875 59.258125 -63.1959375 60.51625 -63.296875 61.8125 C-64.23801988 72.89323119 -65.9251435 83.3126347 -69 94 C-69.66 94 -70.32 94 -71 94 C-71.18175781 92.90300781 -71.36351562 91.80601562 -71.55078125 90.67578125 C-71.80414941 89.22126033 -72.05808573 87.7668383 -72.3125 86.3125 C-72.43044922 85.59126953 -72.54839844 84.87003906 -72.66992188 84.12695312 C-73.43524034 79.82939559 -74.43732926 76.63942316 -77 73 C-77.81404297 74.66289062 -77.81404297 74.66289062 -78.64453125 76.359375 C-79.36697274 77.82302269 -80.08964092 79.2865585 -80.8125 80.75 C-81.16892578 81.47960937 -81.52535156 82.20921875 -81.89257812 82.9609375 C-83.67530517 86.55910218 -85.41088339 89.89632709 -88 93 C-88.36799953 83.53423442 -87.22914592 74.36126309 -86 65 C-93.39765205 68.50490699 -99.28104253 72.06922929 -105 78 C-102.44532682 68.29224193 -96.5081708 60.47664283 -89 54 C-88.01 53.505 -88.01 53.505 -87 53 C-97.52082162 52.20929107 -104.22968554 55.23378947 -112.37109375 61.73046875 C-114 63 -114 63 -116 64 C-115.08410508 57.39410787 -111.08152775 53.50183441 -106.02734375 49.3984375 C-95.96841867 42.36659081 -85.05032451 37.33463813 -73 35 C-72.19304687 34.81308594 -71.38609375 34.62617187 -70.5546875 34.43359375 C-67.55884762 33.92512551 -64.72448425 33.90412655 -61.6875 33.9375 C-60.08455078 33.95103516 -60.08455078 33.95103516 -58.44921875 33.96484375 C-57.64097656 33.97644531 -56.83273438 33.98804688 -56 34 C-58.97 33.505 -58.97 33.505 -62 33 C-62 32.34 -62 31.68 -62 31 C-51.71532408 25.19838794 -41.39645625 25.76448196 -30 26 C-30.55429688 25.32453125 -31.10859375 24.6490625 -31.6796875 23.953125 C-32.76636719 22.61507812 -32.76636719 22.61507812 -33.875 21.25 C-34.59429687 20.36828125 -35.31359375 19.4865625 -36.0546875 18.578125 C-39.59315346 13.88859179 -40.44168207 10.962708 -40 5 C-39.34 4.34 -38.68 3.68 -38 3 C-34.53735795 3.09358492 -33.08152776 3.93400134 -30.375 6.125 C-26.27903192 11.08327715 -24.52894172 15.56220351 -25 22 C-24.34 22 -23.68 22 -23 22 C-23.103125 21.175 -23.20625 20.35 -23.3125 19.5 C-22.63029565 11.85931126 -17.40515863 7.07813507 -11.76953125 2.34765625 C-7.86586252 -0.62533649 -4.78517401 -0.07718023 0 0 Z " fill="#64757F" transform="translate(154,44)"/>
<path d="M0 0 C2.0625 1.125 2.0625 1.125 3 3 C3.21659851 7.65686807 1.3732458 10.0105043 -1.5625 13.375 C-2.6970103 14.59397082 -3.83928808 15.80595171 -5 17 C-4.38511719 17.03738281 -3.77023438 17.07476562 -3.13671875 17.11328125 C-2.32847656 17.17902344 -1.52023438 17.24476562 -0.6875 17.3125 C0.11300781 17.37050781 0.91351563 17.42851563 1.73828125 17.48828125 C4.38775988 18.08773151 5.3652557 18.86103262 7 21 C6.87222063 24.83338123 4.4113092 27.19976996 2 30 C7.77635325 32.38462679 13.21862342 34.16389579 19.4375 34.9375 C35.62361731 37.16477118 46.22726116 45.97065956 55.9375 58.5 C57 61 57 61 56.8125 64.6875 C56.59106523 69.58674422 58.9014438 72.57203247 61.46484375 76.58984375 C66.77574011 84.9278159 67.33246377 94.31491884 66 104 C64.81164942 107.70589329 63.36717946 110.90114689 61 114 C60.01 114.495 60.01 114.495 59 115 C58.35801817 117.06601425 57.78576678 119.15392998 57.25 121.25 C55.51575212 127.15809073 54.25037767 129.82789682 49 133 C48.319375 133.33 47.63875 133.66 46.9375 134 C44.10272615 135.46310908 42.21166253 137.73013583 40 140 C37.75398616 141.12300692 36.42633136 141.09532106 33.9375 141.1875 C30.02029715 141.56920826 27.74687186 142.58021245 24.5625 144.875 C15.89937116 151.10349091 6.40894881 151.71639982 -4 152 C-5.03141113 152.03254883 -6.06282227 152.06509766 -7.12548828 152.09863281 C-31.17226416 152.76819569 -50.45106655 149.68589431 -70 135 C-70.99 134.01 -70.99 134.01 -72 133 C-72.33 133.66 -72.66 134.32 -73 135 C-74.8125 134.9375 -74.8125 134.9375 -77 134 C-78.830174 130.40743623 -80.07688737 126.90813106 -81 123 C-81.37511719 123.59167969 -81.75023437 124.18335938 -82.13671875 124.79296875 C-89.50346741 136.16782247 -89.50346741 136.16782247 -95 138 C-101.8287397 138.97377335 -106.530212 137.99231106 -112.08203125 133.85546875 C-115.0185383 131.01465235 -116.81046035 127.90135732 -118 124 C-118 123.01 -118 122.02 -118 121 C-119.11375 120.9071875 -119.11375 120.9071875 -120.25 120.8125 C-124.80826298 119.46574048 -126.46102141 115.80846788 -129 112 C-132.05228283 100.34224879 -129.97171941 88.2534742 -124.24609375 77.796875 C-123.02052721 75.76023415 -121.78012204 73.73243223 -120.5234375 71.71484375 C-119.14499909 69.25839581 -118.48008284 67.48647219 -118 64.75 C-116.6127186 59.54769476 -113.77322561 56.71876668 -110 53 C-109.50886719 52.48695312 -109.01773438 51.97390625 -108.51171875 51.4453125 C-99.15393861 42.49859763 -86.30951001 37.96014407 -74 35 C-67.26721376 33.35223916 -61.38123683 31.44783972 -55.2890625 28.0859375 C-50.5046292 25.81618928 -45.92042388 25.88859417 -40.6875 25.9375 C-39.43324219 25.94652344 -38.17898437 25.95554687 -36.88671875 25.96484375 C-35.93410156 25.97644531 -34.98148437 25.98804687 -34 26 C-34.74056641 25.07767578 -34.74056641 25.07767578 -35.49609375 24.13671875 C-36.13675781 23.32847656 -36.77742188 22.52023438 -37.4375 21.6875 C-38.07558594 20.88699219 -38.71367188 20.08648437 -39.37109375 19.26171875 C-42.252924 15.26032855 -42.33849108 11.82349786 -42 7 C-40.5 4.5625 -40.5 4.5625 -39 3 C-35.08886092 3 -32.99646789 3.09321422 -30.046875 5.77734375 C-28.2992904 7.80762585 -26.64073492 9.88306233 -25 12 C-24.01 12.99 -24.01 12.99 -23 14 C-22.67128906 13.49210937 -22.34257812 12.98421875 -22.00390625 12.4609375 C-16.53626973 4.54842286 -10.09455515 -1.56639649 0 0 Z M-19.484375 12 C-22.59060592 16.09894389 -23.23462148 18.83832745 -23 24 C-23.66 24 -24.32 24 -25 24 C-25.01417969 23.35933594 -25.02835937 22.71867187 -25.04296875 22.05859375 C-25.40711092 15.45482626 -26.63384607 11.9898902 -31 7 C-33.76988076 4.68456793 -33.76988076 4.68456793 -36.625 5.3125 C-38.93501965 5.7741514 -38.93501965 5.7741514 -40 7 C-40.8702858 12.96767407 -39.15516174 15.95969798 -35.703125 20.7890625 C-33.83229376 23.21771039 -31.92527567 25.61433232 -30 28 C-31.09957031 27.96519531 -32.19914062 27.93039063 -33.33203125 27.89453125 C-43.60630734 27.66877414 -52.70384535 28.10728703 -62 33 C-62 33.66 -62 34.32 -62 35 C-60.68 35.33 -59.36 35.66 -58 36 C-58.55945313 35.96519531 -59.11890625 35.93039063 -59.6953125 35.89453125 C-78.94540993 35.24460835 -96.90355089 43.38264317 -111.08984375 55.97265625 C-113.18100601 58.19211068 -114.6690056 60.2545495 -116 63 C-115.67 63.99 -115.34 64.98 -115 66 C-114.195625 65.278125 -113.39125 64.55625 -112.5625 63.8125 C-106.49940792 58.74548733 -99.82004896 54.83350586 -91.8125 54.9375 C-90.91144531 54.94652344 -90.01039062 54.95554688 -89.08203125 54.96484375 C-88.39496094 54.97644531 -87.70789063 54.98804688 -87 55 C-87.76183594 55.61875 -87.76183594 55.61875 -88.5390625 56.25 C-95.93189158 62.45222365 -101.17098994 69.11669667 -105 78 C-104.67 78.66 -104.34 79.32 -104 80 C-103.38125 79.13375 -102.7625 78.2675 -102.125 77.375 C-98.02743242 72.41788519 -92.05437032 69.01812344 -86 67 C-86.144375 68.09957031 -86.28875 69.19914062 -86.4375 70.33203125 C-87.48671225 78.59200616 -88.3244489 86.65445339 -88 95 C-84.89280655 91.27528861 -82.92713702 87.0786964 -80.8125 82.75 C-80.44447266 82.00492187 -80.07644531 81.25984375 -79.69726562 80.4921875 C-78.7945242 78.66325683 -77.8967638 76.83186904 -77 75 C-73.97673923 79.2935384 -73.14108879 83.2458833 -72.3125 88.3125 C-72.18294922 89.05306641 -72.05339844 89.79363281 -71.91992188 90.55664062 C-71.6041294 92.36952334 -71.30079417 94.18456851 -71 96 C-70.34 96 -69.68 96 -69 96 C-65.56521365 84.06161639 -63.96353699 72.37384346 -63 60 C-62.94465088 60.65073486 -62.88930176 61.30146973 -62.83227539 61.97192383 C-62.57946307 64.91912099 -62.32104674 67.8658006 -62.0625 70.8125 C-61.97548828 71.83666016 -61.88847656 72.86082031 -61.79882812 73.91601562 C-61.66831055 75.39038086 -61.66831055 75.39038086 -61.53515625 76.89453125 C-61.456604 77.80050049 -61.37805176 78.70646973 -61.29711914 79.63989258 C-61.05953902 82.14680749 -61.05953902 82.14680749 -60 85 C-59.15524072 97.22487353 -58.83793595 110.23323177 -66.875 120.36328125 C-69.41256212 122.31776384 -70.59556968 122.43555472 -73.75 122.25 C-74.54921875 122.21390625 -75.3484375 122.1778125 -76.171875 122.140625 C-76.77515625 122.09421875 -77.3784375 122.0478125 -78 122 C-77.855625 123.258125 -77.71125 124.51625 -77.5625 125.8125 C-77.48128906 126.52019531 -77.40007812 127.22789062 -77.31640625 127.95703125 C-77.02829265 130.19396393 -77.02829265 130.19396393 -76 133 C-75.34 133 -74.68 133 -74 133 C-74 131.35 -74 129.7 -74 128 C-72.33984375 129.70898438 -72.33984375 129.70898438 -70.6796875 131.41796875 C-52.19725631 148.82583998 -30.06868862 150.64484818 -5.77050781 150.17700195 C-3.35123988 150.02243998 -1.32346197 149.63749321 1 149 C3.0405324 148.87557729 5.08249293 148.77362982 7.125 148.6875 C17.01785728 147.93418052 23.39267399 145.36721343 30.11328125 138.01953125 C31.92554725 136.07969373 33.8030234 134.46580916 35.875 132.8125 C38.65283094 130.50291391 40.05331323 128.57637224 41 125 C41.66 125.33 42.32 125.66 43 126 C45.12551114 121.74897771 44.43325054 116.32682977 43 111.9375 C42.67 111.298125 42.34 110.65875 42 110 C44.51083114 111.25541557 44.87125446 112.50063488 46 115 C46.33 115 46.66 115 47 115 C47.39147198 107.692523 46.19537595 102.4498765 42.25 96.25 C39.37812076 93.37812076 36.63523407 91.81761704 33 90 C32.34 90 31.68 90 31 90 C31.01740234 88.15535156 31.01740234 88.15535156 31.03515625 86.2734375 C31.04454022 84.64062653 31.05363977 83.0078139 31.0625 81.375 C31.07087891 80.56675781 31.07925781 79.75851563 31.08789062 78.92578125 C31.1058955 74.49658082 30.89622662 70.36116576 30 66 C30.33 66 30.66 66 31 66 C31.01869141 66.57443848 31.03738281 67.14887695 31.05664062 67.74072266 C31.1648035 70.37215583 31.3318502 72.99674556 31.5 75.625 C31.52835938 76.52863281 31.55671875 77.43226562 31.5859375 78.36328125 C31.95445751 83.61137865 31.95445751 83.61137865 34.7734375 87.88623047 C36.79165001 89.38371828 38.86317246 90.68099654 41 92 C42.77289379 93.59029634 44.36620745 95.26409542 46 97 C45.85786703 95.10388566 45.71113093 93.20811606 45.5625 91.3125 C45.48128906 90.25675781 45.40007812 89.20101562 45.31640625 88.11328125 C45.03548319 85.34913703 44.59843148 82.71054259 44 80 C51.18549285 86.33943979 52.73572332 95.14195441 53.38671875 104.375 C53.76204316 113.84983282 52.27508944 121.44982112 48 130 C51.87103769 128.75573788 53.34601266 126.36367572 55.18359375 122.83984375 C56.37781185 120.14856755 56.7771486 117.95278108 57 115 C57.07476562 114.16984375 57.14953125 113.3396875 57.2265625 112.484375 C57.6273535 104.59512063 55.79702321 98.33888165 53.09375 91.0546875 C52 88 52 88 52 86 C52.99 87.32 53.98 88.64 55 90 C55 89.08476562 55 88.16953125 55 87.2265625 C55 83.15104167 55 79.07552083 55 75 C61.09412962 83.41570281 62.02908788 94.0866404 60.54296875 104.0703125 C60.07117336 106.72458584 59.56140695 109.36339234 59 112 C62.77433061 108.74035084 63.8678524 105.50167732 64.30078125 100.58203125 C64.33900049 88.28817705 62.35539913 79.96656583 55 70 C54.04094996 68.64634083 53.08255239 67.292219 52.125 65.9375 C51.42375 64.968125 50.7225 63.99875 50 63 C51.65 63.66 53.3 64.32 55 65 C53.97465263 56.28454732 47.21164218 50.73256483 40.8125 45.4375 C34.1790238 40.38237172 27.41670957 37.26811221 19 38 C19.33 38.66 19.66 39.32 20 40 C17.88609666 38.95274513 15.78715021 37.8870593 13.703125 36.78125 C3.45815683 31.43037491 -3.43863046 30.69582112 -15 32 C-15 31.34 -15 30.68 -15 30 C-14.3709375 30.04640625 -13.741875 30.0928125 -13.09375 30.140625 C-6.75214411 30.40804212 -2.30629334 29.56354013 3 26 C3.66 25.34 4.32 24.68 5 24 C4.6814823 21.89179203 4.6814823 21.89179203 4 20 C2.083412 19.97287847 0.1667127 19.95354903 -1.75 19.9375 C-2.81734375 19.92589844 -3.8846875 19.91429688 -4.984375 19.90234375 C-7.53368501 19.98489913 -9.57933591 20.25382442 -12 21 C-11.39671875 20.49210937 -10.7934375 19.98421875 -10.171875 19.4609375 C-3.67117914 13.97153355 -3.67117914 13.97153355 1 7 C0.87754191 4.20438833 0.87754191 4.20438833 0 2 C-9.3971152 1.35192309 -13.48458044 5.08131799 -19.484375 12 Z " fill="#353D43" transform="translate(154,42)"/>
<path d="M0 0 C0.99 0.33 1.98 0.66 3 1 C3 3.64 3 6.28 3 9 C3.33 8.01 3.66 7.02 4 6 C4.99 6 5.98 6 7 6 C6.67 8.31 6.34 10.62 6 13 C5.34773438 13.02578125 4.69546875 13.0515625 4.0234375 13.078125 C-1.85450858 13.45958463 -5.46060663 14.17735295 -10 18 C-10 18.33 -10 18.66 -10 19 C-9.34 19 -8.68 19 -8 19 C-6.64499081 20.31129922 -5.31328657 21.64691687 -4 23 C-0.46569344 25.35620437 0.83571287 25.48991613 5 25 C8.42460322 23.46746843 8.42460322 23.46746843 11 21 C11.75085106 18.41263295 11.75085106 18.41263295 11 16 C10.01 15.34 9.02 14.68 8 14 C8 13.34 8 12.68 8 12 C16.03891514 8.93755614 25.85161263 8.44710488 34 11.375 C39.98932242 14.47022819 42.94311372 20.82934116 45 27 C46.36048539 45.38598829 46.36048539 45.38598829 40 53 C39.41863281 53.71671875 38.83726562 54.4334375 38.23828125 55.171875 C31.6888431 62.45198069 24.76054206 64.95377451 15.125 65.6875 C13.52011719 65.75517578 13.52011719 65.75517578 11.8828125 65.82421875 C9.15430556 65.88927586 9.15430556 65.88927586 7.20947266 66.50048828 C2.04604914 67.66782138 -3.48184244 67.18481764 -8.75 67.1875 C-10.00039062 67.19974609 -11.25078125 67.21199219 -12.5390625 67.22460938 C-23.31012273 67.24168822 -30.81314155 66.38216724 -39 59 C-41.9270583 56.05845131 -44.50634239 53.27836596 -45 49 C-45.804375 49.020625 -46.60875 49.04125 -47.4375 49.0625 C-50 49 -50 49 -51 48 C-52.46725366 28.23399714 -52.46725366 28.23399714 -46 20 C-40.28563609 13.80401544 -34.22198632 11.31658261 -25.79760742 10.88793945 C-23.3226106 10.83026424 -20.85064543 10.81440434 -18.375 10.8125 C-17.529375 10.80025391 -16.68375 10.78800781 -15.8125 10.77539062 C-14.99523437 10.77345703 -14.17796875 10.77152344 -13.3359375 10.76953125 C-12.59907715 10.76542236 -11.8622168 10.76131348 -11.10302734 10.75708008 C-8.70809394 11.03371796 -7.08172244 11.81334178 -5 13 C-5.66 12.21625 -6.32 11.4325 -7 10.625 C-9 8 -9 8 -9 6 C-5.62537285 6.54723683 -3.91765 7.0549 -1 9 C-1.020625 7.700625 -1.04125 6.40125 -1.0625 5.0625 C-1.08399454 3.70834367 -1.07148199 2.35243917 -1 1 C-0.67 0.67 -0.34 0.34 0 0 Z " fill="#FBFBFB" transform="translate(146,125)"/>
<path d="M0 0 C2.0625 1.125 2.0625 1.125 3 3 C3.21659851 7.65686807 1.3732458 10.0105043 -1.5625 13.375 C-2.6970103 14.59397082 -3.83928808 15.80595171 -5 17 C-4.38511719 17.03738281 -3.77023438 17.07476562 -3.13671875 17.11328125 C-2.32847656 17.17902344 -1.52023438 17.24476562 -0.6875 17.3125 C0.11300781 17.37050781 0.91351563 17.42851563 1.73828125 17.48828125 C4.38775988 18.08773151 5.3652557 18.86103262 7 21 C6.87222063 24.83338123 4.4113092 27.19976996 2 30 C7.77635325 32.38462679 13.21862342 34.16389579 19.4375 34.9375 C35.62361731 37.16477118 46.22726116 45.97065956 55.9375 58.5 C57 61 57 61 56.8125 64.6875 C56.59106523 69.58674422 58.9014438 72.57203247 61.46484375 76.58984375 C66.77574011 84.9278159 67.33246377 94.31491884 66 104 C64.81164942 107.70589329 63.36717946 110.90114689 61 114 C60.01 114.495 60.01 114.495 59 115 C58.35801817 117.06601425 57.78576678 119.15392998 57.25 121.25 C55.51575212 127.15809073 54.25037767 129.82789682 49 133 C48.319375 133.33 47.63875 133.66 46.9375 134 C44.10272615 135.46310908 42.21166253 137.73013583 40 140 C37.75398616 141.12300692 36.42633136 141.09532106 33.9375 141.1875 C30.02029715 141.56920826 27.74687186 142.58021245 24.5625 144.875 C15.89937116 151.10349091 6.40894881 151.71639982 -4 152 C-5.03141113 152.03254883 -6.06282227 152.06509766 -7.12548828 152.09863281 C-31.17226416 152.76819569 -50.45106655 149.68589431 -70 135 C-70.99 134.01 -70.99 134.01 -72 133 C-72.33 133.66 -72.66 134.32 -73 135 C-74.8125 134.9375 -74.8125 134.9375 -77 134 C-78.830174 130.40743623 -80.07688737 126.90813106 -81 123 C-81.37511719 123.59167969 -81.75023437 124.18335938 -82.13671875 124.79296875 C-89.50346741 136.16782247 -89.50346741 136.16782247 -95 138 C-101.8287397 138.97377335 -106.530212 137.99231106 -112.08203125 133.85546875 C-115.0185383 131.01465235 -116.81046035 127.90135732 -118 124 C-118 123.01 -118 122.02 -118 121 C-119.11375 120.9071875 -119.11375 120.9071875 -120.25 120.8125 C-124.80826298 119.46574048 -126.46102141 115.80846788 -129 112 C-132.05228283 100.34224879 -129.97171941 88.2534742 -124.24609375 77.796875 C-123.02052721 75.76023415 -121.78012204 73.73243223 -120.5234375 71.71484375 C-119.14499909 69.25839581 -118.48008284 67.48647219 -118 64.75 C-116.6127186 59.54769476 -113.77322561 56.71876668 -110 53 C-109.50886719 52.48695312 -109.01773438 51.97390625 -108.51171875 51.4453125 C-99.15393861 42.49859763 -86.30951001 37.96014407 -74 35 C-67.26721376 33.35223916 -61.38123683 31.44783972 -55.2890625 28.0859375 C-50.5046292 25.81618928 -45.92042388 25.88859417 -40.6875 25.9375 C-39.43324219 25.94652344 -38.17898437 25.95554687 -36.88671875 25.96484375 C-35.93410156 25.97644531 -34.98148437 25.98804687 -34 26 C-34.74056641 25.07767578 -34.74056641 25.07767578 -35.49609375 24.13671875 C-36.13675781 23.32847656 -36.77742188 22.52023438 -37.4375 21.6875 C-38.07558594 20.88699219 -38.71367188 20.08648437 -39.37109375 19.26171875 C-42.252924 15.26032855 -42.33849108 11.82349786 -42 7 C-40.5 4.5625 -40.5 4.5625 -39 3 C-35.08886092 3 -32.99646789 3.09321422 -30.046875 5.77734375 C-28.2992904 7.80762585 -26.64073492 9.88306233 -25 12 C-24.01 12.99 -24.01 12.99 -23 14 C-22.67128906 13.49210937 -22.34257812 12.98421875 -22.00390625 12.4609375 C-16.53626973 4.54842286 -10.09455515 -1.56639649 0 0 Z M-19.484375 12 C-22.59060592 16.09894389 -23.23462148 18.83832745 -23 24 C-23.66 24 -24.32 24 -25 24 C-25.01417969 23.35933594 -25.02835937 22.71867187 -25.04296875 22.05859375 C-25.40711092 15.45482626 -26.63384607 11.9898902 -31 7 C-33.76988076 4.68456793 -33.76988076 4.68456793 -36.625 5.3125 C-38.93501965 5.7741514 -38.93501965 5.7741514 -40 7 C-40.8702858 12.96767407 -39.15516174 15.95969798 -35.703125 20.7890625 C-33.83229376 23.21771039 -31.92527567 25.61433232 -30 28 C-31.09957031 27.96519531 -32.19914062 27.93039063 -33.33203125 27.89453125 C-43.60630734 27.66877414 -52.70384535 28.10728703 -62 33 C-62 33.66 -62 34.32 -62 35 C-60.02 35.495 -60.02 35.495 -58 36 C-58.55945313 35.96519531 -59.11890625 35.93039063 -59.6953125 35.89453125 C-78.94540993 35.24460835 -96.90355089 43.38264317 -111.08984375 55.97265625 C-113.18100601 58.19211068 -114.6690056 60.2545495 -116 63 C-115.67 63.99 -115.34 64.98 -115 66 C-114.0925 65.21625 -113.185 64.4325 -112.25 63.625 C-109.96597375 61.65243188 -107.73806872 60.27379719 -105 59 C-105.65226562 59.56847656 -106.30453125 60.13695312 -106.9765625 60.72265625 C-119.30146073 71.61146752 -126.5746844 81.27919083 -128.32421875 98.12109375 C-128.59753618 105.51951382 -127.45016893 112.01492115 -122.48828125 117.74609375 C-121.06942981 119.21477372 -121.06942981 119.21477372 -119 119 C-119.02320313 118.26394531 -119.04640625 117.52789062 -119.0703125 116.76953125 C-119.08835937 115.79371094 -119.10640625 114.81789063 -119.125 113.8125 C-119.14820313 112.84957031 -119.17140625 111.88664062 -119.1953125 110.89453125 C-118.9913544 107.87187222 -118.26874632 105.73230015 -117 103 C-117.33 103.99 -117.66 104.98 -118 106 C-118.78107855 115.02746559 -117.94689171 123.78975801 -112.0625 131 C-109.31379535 134.0492297 -106.74381982 135.75252722 -102.6328125 136.3359375 C-96.89257619 136.42534928 -93.33309244 136.13613369 -89 132 C-84.11707814 125.0394888 -80.89354826 118.74354629 -80.375 110.1875 C-80.30023438 109.02605469 -80.22546875 107.86460937 -80.1484375 106.66796875 C-80.09945312 105.78753906 -80.05046875 104.90710938 -80 104 C-79.97421875 104.88042969 -79.9484375 105.76085937 -79.921875 106.66796875 C-79.83679688 108.41013672 -79.83679688 108.41013672 -79.75 110.1875 C-79.70359375 111.33605469 -79.6571875 112.48460937 -79.609375 113.66796875 C-78.91174 117.48260114 -77.62748409 119.20961189 -75 122 C-72.16461093 122.12944997 -72.16461093 122.12944997 -69 121 C-62.46395522 114.20977571 -60.84679458 104.09251156 -60.6875 95.0625 C-60.79948563 89.63414384 -61.53134138 84.56070464 -62.5546875 79.2421875 C-63.43028255 72.86724105 -63.14665902 66.42040604 -63 60 C-62.94465088 60.65073486 -62.88930176 61.30146973 -62.83227539 61.97192383 C-62.57946307 64.91912099 -62.32104674 67.8658006 -62.0625 70.8125 C-61.97548828 71.83666016 -61.88847656 72.86082031 -61.79882812 73.91601562 C-61.71181641 74.89892578 -61.62480469 75.88183594 -61.53515625 76.89453125 C-61.456604 77.80050049 -61.37805176 78.70646973 -61.29711914 79.63989258 C-61.05953902 82.14680749 -61.05953902 82.14680749 -60 85 C-59.15524072 97.22487353 -58.83793595 110.23323177 -66.875 120.36328125 C-69.41256212 122.31776384 -70.59556968 122.43555472 -73.75 122.25 C-74.54921875 122.21390625 -75.3484375 122.1778125 -76.171875 122.140625 C-76.77515625 122.09421875 -77.3784375 122.0478125 -78 122 C-77.855625 123.258125 -77.71125 124.51625 -77.5625 125.8125 C-77.48128906 126.52019531 -77.40007812 127.22789062 -77.31640625 127.95703125 C-77.02829265 130.19396393 -77.02829265 130.19396393 -76 133 C-75.34 133 -74.68 133 -74 133 C-74 131.35 -74 129.7 -74 128 C-72.33984375 129.70898438 -72.33984375 129.70898438 -70.6796875 131.41796875 C-52.19725631 148.82583998 -30.06868862 150.64484818 -5.77050781 150.17700195 C-3.35123988 150.02243998 -1.32346197 149.63749321 1 149 C3.0405324 148.87557729 5.08249293 148.77362982 7.125 148.6875 C17.01785728 147.93418052 23.39267399 145.36721343 30.11328125 138.01953125 C31.92554725 136.07969373 33.8030234 134.46580916 35.875 132.8125 C38.65283094 130.50291391 40.05331323 128.57637224 41 125 C41.66 125.33 42.32 125.66 43 126 C45.12551114 121.74897771 44.43325054 116.32682977 43 111.9375 C42.67 111.298125 42.34 110.65875 42 110 C44.51083114 111.25541557 44.87125446 112.50063488 46 115 C46.33 115 46.66 115 47 115 C47.39147198 107.692523 46.19537595 102.4498765 42.25 96.25 C39.37812076 93.37812076 36.63523407 91.81761704 33 90 C32.34 90 31.68 90 31 90 C31.01740234 88.15535156 31.01740234 88.15535156 31.03515625 86.2734375 C31.04454022 84.64062653 31.05363977 83.0078139 31.0625 81.375 C31.07087891 80.56675781 31.07925781 79.75851563 31.08789062 78.92578125 C31.1058955 74.49658082 30.89622662 70.36116576 30 66 C30.33 66 30.66 66 31 66 C31.01869141 66.57443848 31.03738281 67.14887695 31.05664062 67.74072266 C31.1648035 70.37215583 31.3318502 72.99674556 31.5 75.625 C31.52835938 76.52863281 31.55671875 77.43226562 31.5859375 78.36328125 C31.95445751 83.61137865 31.95445751 83.61137865 34.7734375 87.88623047 C36.79165001 89.38371828 38.86317246 90.68099654 41 92 C42.77289379 93.59029634 44.36620745 95.26409542 46 97 C45.85786703 95.10388566 45.71113093 93.20811606 45.5625 91.3125 C45.48128906 90.25675781 45.40007812 89.20101562 45.31640625 88.11328125 C45.03548319 85.34913703 44.59843148 82.71054259 44 80 C51.18549285 86.33943979 52.73572332 95.14195441 53.38671875 104.375 C53.76204316 113.84983282 52.27508944 121.44982112 48 130 C51.87103769 128.75573788 53.34601266 126.36367572 55.18359375 122.83984375 C56.37781185 120.14856755 56.7771486 117.95278108 57 115 C57.07476562 114.16984375 57.14953125 113.3396875 57.2265625 112.484375 C57.6273535 104.59512063 55.79702321 98.33888165 53.09375 91.0546875 C52 88 52 88 52 86 C52.99 87.32 53.98 88.64 55 90 C55 89.08476562 55 88.16953125 55 87.2265625 C55 83.15104167 55 79.07552083 55 75 C61.09412962 83.41570281 62.02908788 94.0866404 60.54296875 104.0703125 C60.07117336 106.72458584 59.56140695 109.36339234 59 112 C62.77433061 108.74035084 63.8678524 105.50167732 64.30078125 100.58203125 C64.33900049 88.28817705 62.35539913 79.96656583 55 70 C54.04094996 68.64634083 53.08255239 67.292219 52.125 65.9375 C51.42375 64.968125 50.7225 63.99875 50 63 C51.65 63.66 53.3 64.32 55 65 C53.97465263 56.28454732 47.21164218 50.73256483 40.8125 45.4375 C34.1790238 40.38237172 27.41670957 37.26811221 19 38 C19.33 38.66 19.66 39.32 20 40 C17.88609666 38.95274513 15.78715021 37.8870593 13.703125 36.78125 C3.45815683 31.43037491 -3.43863046 30.69582112 -15 32 C-15 31.34 -15 30.68 -15 30 C-14.3709375 30.04640625 -13.741875 30.0928125 -13.09375 30.140625 C-6.75214411 30.40804212 -2.30629334 29.56354013 3 26 C3.66 25.34 4.32 24.68 5 24 C4.6814823 21.89179203 4.6814823 21.89179203 4 20 C2.083412 19.97287847 0.1667127 19.95354903 -1.75 19.9375 C-2.81734375 19.92589844 -3.8846875 19.91429688 -4.984375 19.90234375 C-7.53368501 19.98489913 -9.57933591 20.25382442 -12 21 C-11.39671875 20.49210937 -10.7934375 19.98421875 -10.171875 19.4609375 C-3.67117914 13.97153355 -3.67117914 13.97153355 1 7 C0.87754191 4.20438833 0.87754191 4.20438833 0 2 C-9.3971152 1.35192309 -13.48458044 5.08131799 -19.484375 12 Z " fill="#101D2E" transform="translate(154,42)"/>
<path d="M0 0 C0.99 0.33 1.98 0.66 3 1 C3 3.64 3 6.28 3 9 C3.33 8.01 3.66 7.02 4 6 C4.99 6 5.98 6 7 6 C6.67 8.31 6.34 10.62 6 13 C5.34773438 13.02578125 4.69546875 13.0515625 4.0234375 13.078125 C-1.85450858 13.45958463 -5.46060663 14.17735295 -10 18 C-10 18.33 -10 18.66 -10 19 C-9.34 19 -8.68 19 -8 19 C-6.64499081 20.31129922 -5.31328657 21.64691687 -4 23 C-1.08235 24.9451 0.62537285 25.45276317 4 26 C3.06862408 27.29608947 2.1296434 28.58671632 1.1875 29.875 C0.66542969 30.59429687 0.14335937 31.31359375 -0.39453125 32.0546875 C-2 34 -2 34 -5 36 C-7.69921875 36.1953125 -7.69921875 36.1953125 -10.6875 36.125 C-11.68136719 36.10695312 -12.67523438 36.08890625 -13.69921875 36.0703125 C-14.83810547 36.03550781 -14.83810547 36.03550781 -16 36 C-16 35.34 -16 34.68 -16 34 C-15.34 33.67 -14.68 33.34 -14 33 C-14.99 32.67 -15.98 32.34 -17 32 C-17 32.66 -17 33.32 -17 34 C-17.99 34 -18.98 34 -20 34 C-20.33 38.62 -20.66 43.24 -21 48 C-21.66 47.01 -22.32 46.02 -23 45 C-23.31168996 50.92210915 -22.70937629 54.58124742 -20 60 C-19 62 -19 62 -18 64 C-24.49823593 64.61048146 -29.34317267 64.13648085 -34.9765625 60.70703125 C-37.92729158 58.21770962 -39.57244571 55.18485376 -41.51953125 51.890625 C-43.01788203 49.58433216 -43.01788203 49.58433216 -46.8125 49 C-47.864375 49 -48.91625 49 -50 49 C-52.36351156 46.63648844 -51.37171085 40.37852914 -51.38500977 37.07910156 C-51.24420609 29.3919822 -49.57545992 23.87680847 -44.28515625 18.140625 C-36.71662047 11.18485908 -28.22485821 10.82007681 -18.375 10.8125 C-17.529375 10.80025391 -16.68375 10.78800781 -15.8125 10.77539062 C-14.99523437 10.77345703 -14.17796875 10.77152344 -13.3359375 10.76953125 C-12.59907715 10.76542236 -11.8622168 10.76131348 -11.10302734 10.75708008 C-8.70809394 11.03371796 -7.08172244 11.81334178 -5 13 C-5.66 12.21625 -6.32 11.4325 -7 10.625 C-9 8 -9 8 -9 6 C-5.62537285 6.54723683 -3.91765 7.0549 -1 9 C-1.020625 7.700625 -1.04125 6.40125 -1.0625 5.0625 C-1.08399454 3.70834367 -1.07148199 2.35243917 -1 1 C-0.67 0.67 -0.34 0.34 0 0 Z " fill="#FCFCFC" transform="translate(146,125)"/>
<path d="M0 0 C0.721875 0.61875 1.44375 1.2375 2.1875 1.875 C4.78381938 3.83666353 6.94671666 4.95316 10 6 C10 6.66 10 7.32 10 8 C11.98 8 13.96 8 16 8 C16.45164525 15.11341265 15.32797915 19.71546794 12 26 C12.66 26.33 13.32 26.66 14 27 C12.64382219 31.06853343 10.39752774 32.46850875 7 35 C1.44619435 36.9579188 -4.95016269 36.18454693 -10.75 36.1875 C-12.00039062 36.19974609 -13.25078125 36.21199219 -14.5390625 36.22460938 C-26.41296094 36.24343691 -33.95729944 34.77567873 -42.6484375 26.4140625 C-44.0625 24.875 -44.0625 24.875 -46 22 C-45.62109375 19.8203125 -45.62109375 19.8203125 -45 18 C-44.5875 18.67546875 -44.175 19.3509375 -43.75 20.046875 C-39.97141255 25.88344311 -36.86897969 30.10889547 -30 32 C-26.66683559 32.54837469 -23.3740169 32.86172062 -20 33 C-20.34933594 32.54109375 -20.69867188 32.0821875 -21.05859375 31.609375 C-21.51363281 30.99578125 -21.96867187 30.3821875 -22.4375 29.75 C-22.88996094 29.14671875 -23.34242187 28.5434375 -23.80859375 27.921875 C-26.15422919 24.13809586 -26.11461936 20.62802661 -26.0625 16.25 C-26.05347656 15.26515625 -26.04445313 14.2803125 -26.03515625 13.265625 C-26.02355469 12.51796875 -26.01195313 11.7703125 -26 11 C-25.01 12.485 -25.01 12.485 -24 14 C-23.67 9.71 -23.34 5.42 -23 1 C-21.68 1.66 -20.36 2.32 -19 3 C-19 2.34 -19 1.68 -19 1 C-17.68 1.33 -16.36 1.66 -15 2 C-15.99 2.33 -16.98 2.66 -18 3 C-18 3.66 -18 4.32 -18 5 C-15.74926172 4.93981983 -13.49927675 4.85098794 -11.25 4.75 C-9.99703125 4.70359375 -8.7440625 4.6571875 -7.453125 4.609375 C-3.59481364 3.92849653 -2.39083795 3.01873478 0 0 Z " fill="#F7F9F6" transform="translate(148,156)"/>
<path d="M0 0 C2.0625 1.125 2.0625 1.125 3 3 C3.21659851 7.65686807 1.3732458 10.0105043 -1.5625 13.375 C-2.6970103 14.59397082 -3.83928808 15.80595171 -5 17 C-4.38511719 17.03738281 -3.77023438 17.07476562 -3.13671875 17.11328125 C-2.32847656 17.17902344 -1.52023438 17.24476562 -0.6875 17.3125 C0.11300781 17.37050781 0.91351563 17.42851563 1.73828125 17.48828125 C4.38775988 18.08773151 5.3652557 18.86103262 7 21 C6.87222063 24.83338123 4.4113092 27.19976996 2 30 C9.90726045 33.26431995 17.51622606 34.97493351 26 36 C23.8614515 38.1385485 22.86724686 38.42655063 20 39 C20.33 39.66 20.66 40.32 21 41 C17.94472254 40.3956594 15.96175356 39.42414401 13.4375 37.625 C4.55129031 31.96864881 -4.70839618 31.55823004 -15 32 C-15 31.34 -15 30.68 -15 30 C-14.3709375 29.97421875 -13.741875 29.9484375 -13.09375 29.921875 C-7.285373 29.53698255 -1.63996572 28.8161598 3 25 C3.75770918 22.93654853 3.75770918 22.93654853 4 21 C-5.20692462 20.60195155 -5.20692462 20.60195155 -14 23 C-10.48870552 18.81299249 -6.86604413 14.86604413 -3 11 C-0.23946433 7.85870079 0 7.41910686 0 3 C-6.11261902 2.57844007 -9.14727518 2.88573331 -14 7 C-19.1345426 12.29422933 -21.98820657 16.5801815 -23 24 C-23.66 24 -24.32 24 -25 24 C-25.15855469 23.19175781 -25.31710938 22.38351563 -25.48046875 21.55078125 C-27.20468193 13.09514628 -27.20468193 13.09514628 -33 7 C-35.62766389 6.03780298 -35.62766389 6.03780298 -38 6 C-39.32327972 7.12405802 -39.32327972 7.12405802 -39.4375 10 C-39.39422633 15.23611367 -36.14569385 19.05066173 -33 23 C-32.43925781 23.54140625 -31.87851563 24.0828125 -31.30078125 24.640625 C-30 26 -30 26 -30 28 C-31.09957031 28.03738281 -32.19914062 28.07476562 -33.33203125 28.11328125 C-41.95950208 28.47288135 -49.73950689 29.30030065 -58 32 C-59.33048639 32.34452118 -60.66297292 32.68180591 -62 33 C-62 33.66 -62 34.32 -62 35 C-60.02 35 -58.04 35 -56 35 C-55.67 35.66 -55.34 36.32 -55 37 C-55.77601562 36.96519531 -56.55203125 36.93039063 -57.3515625 36.89453125 C-77.0196245 36.40165619 -95.74984228 43.02826571 -110.37109375 56.3203125 C-112.34117113 58.35180716 -113.76603009 60.45493707 -115 63 C-114.67 63.33 -114.34 63.66 -114 64 C-113.278125 63.401875 -112.55625 62.80375 -111.8125 62.1875 C-109.26329352 60.20478385 -106.88788927 58.44394464 -104 57 C-102.515 57.495 -102.515 57.495 -101 58 C-101.556875 58.3403125 -102.11375 58.680625 -102.6875 59.03125 C-114.40299026 66.47216949 -122.06808485 75.3919647 -125.875 88.9375 C-127.78676714 97.77513011 -128.33113241 105.98826754 -124.15625 114.21875 C-122.74838015 116.38763058 -121.28289308 117.77702157 -119 119 C-119.33 118.34 -119.66 117.68 -120 117 C-120.68717543 110.63041237 -119.54104642 105.82323138 -117 100 C-116 103 -116 103 -117 106 C-117.74406191 114.5996386 -117.05858349 123.49418987 -111.5625 130.5 C-107.8634465 134.10883269 -105.22746157 135.28862499 -100.0625 135.3125 C-98.81146484 135.33763672 -98.81146484 135.33763672 -97.53515625 135.36328125 C-93.31763537 134.75892156 -90.8140661 133.08419638 -88.26953125 129.6953125 C-87.54830078 128.42300781 -87.54830078 128.42300781 -86.8125 127.125 C-86.32394531 126.28195313 -85.83539063 125.43890625 -85.33203125 124.5703125 C-82.20273882 118.5319711 -81.65024529 113.62916476 -81.34375 106.86328125 C-81 104 -81 104 -79 102 C-78.94392578 103.55460937 -78.94392578 103.55460937 -78.88671875 105.140625 C-78.82104212 106.51045184 -78.75459536 107.88024191 -78.6875 109.25 C-78.65366211 110.27287109 -78.65366211 110.27287109 -78.61914062 111.31640625 C-78.39833396 115.45151296 -77.90407 117.97914434 -75 121 C-72.15465796 121.29628737 -72.15465796 121.29628737 -69 120 C-61.68253344 109.78727567 -60.62852356 97.103766 -62.453125 84.9921875 C-62.81875841 83.07522376 -63.18595505 81.15855755 -63.5546875 79.2421875 C-64.43028255 72.86724105 -64.14665902 66.42040604 -64 60 C-63.34 59.67 -62.68 59.34 -62 59 C-61.94465088 59.68102783 -61.88930176 60.36205566 -61.83227539 61.0637207 C-61.57952368 64.14697597 -61.32107872 67.22972818 -61.0625 70.3125 C-60.97548828 71.38435547 -60.88847656 72.45621094 -60.79882812 73.56054688 C-60.71181641 74.58857422 -60.62480469 75.61660156 -60.53515625 76.67578125 C-60.41732788 78.0975769 -60.41732788 78.0975769 -60.29711914 79.5480957 C-60.06676896 82.13270257 -60.06676896 82.13270257 -59 85 C-58.13473994 97.52154914 -57.81088463 110.76288746 -66.4453125 120.859375 C-69 123 -69 123 -72.6875 123.375 C-76 123 -76 123 -78 122 C-78 124.31 -78 126.62 -78 129 C-80.1385485 126.8614515 -80.42655063 125.86724686 -81 123 C-81.37511719 123.59167969 -81.75023437 124.18335938 -82.13671875 124.79296875 C-89.50346741 136.16782247 -89.50346741 136.16782247 -95 138 C-101.8287397 138.97377335 -106.530212 137.99231106 -112.08203125 133.85546875 C-115.0185383 131.01465235 -116.81046035 127.90135732 -118 124 C-118 123.01 -118 122.02 -118 121 C-119.11375 120.9071875 -119.11375 120.9071875 -120.25 120.8125 C-124.80826298 119.46574048 -126.46102141 115.80846788 -129 112 C-132.05228283 100.34224879 -129.97171941 88.2534742 -124.24609375 77.796875 C-123.02052721 75.76023415 -121.78012204 73.73243223 -120.5234375 71.71484375 C-119.14499909 69.25839581 -118.48008284 67.48647219 -118 64.75 C-116.6127186 59.54769476 -113.77322561 56.71876668 -110 53 C-109.50886719 52.48695312 -109.01773438 51.97390625 -108.51171875 51.4453125 C-99.15393861 42.49859763 -86.30951001 37.96014407 -74 35 C-67.26721376 33.35223916 -61.38123683 31.44783972 -55.2890625 28.0859375 C-50.5046292 25.81618928 -45.92042388 25.88859417 -40.6875 25.9375 C-39.43324219 25.94652344 -38.17898437 25.95554687 -36.88671875 25.96484375 C-35.93410156 25.97644531 -34.98148437 25.98804687 -34 26 C-34.74056641 25.07767578 -34.74056641 25.07767578 -35.49609375 24.13671875 C-36.13675781 23.32847656 -36.77742188 22.52023438 -37.4375 21.6875 C-38.07558594 20.88699219 -38.71367188 20.08648437 -39.37109375 19.26171875 C-42.252924 15.26032855 -42.33849108 11.82349786 -42 7 C-40.5 4.5625 -40.5 4.5625 -39 3 C-35.08886092 3 -32.99646789 3.09321422 -30.046875 5.77734375 C-28.2992904 7.80762585 -26.64073492 9.88306233 -25 12 C-24.01 12.99 -24.01 12.99 -23 14 C-22.67128906 13.49210937 -22.34257812 12.98421875 -22.00390625 12.4609375 C-16.53626973 4.54842286 -10.09455515 -1.56639649 0 0 Z " fill="#101A26" transform="translate(154,42)"/>
<path d="M0 0 C2.5625 1.9375 2.5625 1.9375 4.5625 4.9375 C4.87504378 7.66033905 4.69583428 10.18192486 4.5625 12.9375 C2.72530542 14.77469458 -0.5395682 14.02658129 -3 14.0625 C-10.08412332 14.32299628 -15.61143941 16.29078689 -21.89282227 19.49853516 C-26.26972733 21.68387547 -29.55378573 22.46334547 -34.4375 21.9375 C-35.0975 21.2775 -35.7575 20.6175 -36.4375 19.9375 C-36.4375 18.6175 -36.4375 17.2975 -36.4375 15.9375 C-37.0975 15.9375 -37.7575 15.9375 -38.4375 15.9375 C-38.73845713 10.82122874 -38.29449442 8.16585174 -35.4375 3.9375 C-35.31890625 3.28523438 -35.2003125 2.63296875 -35.078125 1.9609375 C-34.22069827 -0.7472762 -33.04243954 -1.32824057 -30.625 -2.75 C-29.93792969 -3.16636719 -29.25085938 -3.58273438 -28.54296875 -4.01171875 C-18.57308904 -8.98741011 -8.82396269 -5.53367152 0 0 Z " fill="#FCFCFC" transform="translate(136.4375,93.0625)"/>
<path d="M0 0 C0.66 0.33 1.32 0.66 2 1 C2.31542969 2.88598633 2.31542969 2.88598633 2.421875 5.33203125 C2.47859375 6.21310547 2.5353125 7.09417969 2.59375 8.00195312 C2.69722236 9.86316228 2.78597057 11.72525329 2.859375 13.58789062 C3.04078094 16.18237357 3.26667784 18.50311929 4 21 C6.7789102 23.52161994 6.7789102 23.52161994 10 25 C11.87171753 26.89783452 13.36384039 28.88261698 15 31 C14.29416478 22.46348556 14.29416478 22.46348556 13 14 C19.13697741 17.89462028 21.18920199 21.70890124 22.91503906 28.76489258 C25.2897713 40.05851859 25.81258464 52.64765948 20 63 C19.01 63.495 19.01 63.495 18 64 C18 61.36 18 58.72 18 56 C17.7525 57.175625 17.505 58.35125 17.25 59.5625 C15.94299093 64.75371911 13.86272931 68.8613108 10.3125 72.9375 C6.65194891 74.61937483 2.96288202 74.22862781 -1 74 C-0.278125 73.29875 0.44375 72.5975 1.1875 71.875 C5.34805814 67.69080233 9.14281776 63.74038146 11 58 C11.66 58.33 12.32 58.66 13 59 C13.14975239 51.94348748 13.14975239 51.94348748 12 45 C12.99 45.33 13.98 45.66 15 46 C15.33 46.99 15.66 47.98 16 49 C16.433369 42.06609599 15.21275952 36.70448386 10.75 31.25 C8.03288636 28.82095479 8.03288636 28.82095479 4.3828125 27.4140625 C2.136883 26.14984432 1.18783645 25.55724815 0.35546875 23.08789062 C0.1187866 20.74390691 0.07933997 18.48029678 0.125 16.125 C0.10952765 14.54424145 0.09135336 12.96350674 0.0703125 11.3828125 C0.0693457 10.63418945 0.06837891 9.88556641 0.06738281 9.11425781 C-0.02038032 6.36053049 -0.53260675 3.71088085 -1 1 C-0.67 0.67 -0.34 0.34 0 0 Z " fill="#353D43" transform="translate(184,107)"/>
<path d="M0 0 C2.39211627 2.04033447 3.66755507 4.04335463 5.125 6.8125 C5.455 7.1425 5.785 7.4725 6.125 7.8125 C6.08700774 9.9605242 5.96973342 12.10740133 5.8125 14.25 C5.69455078 16.01150391 5.69455078 16.01150391 5.57421875 17.80859375 C5.125 20.8125 5.125 20.8125 3.125 22.8125 C-0.24354539 22.55827016 -3.09718036 22.16462105 -6.1875 20.765625 C-9.47157386 19.60092439 -12.09044826 19.68581168 -15.5625 19.8125 C-19.01171875 19.9375 -19.01171875 19.9375 -21.875 19.8125 C-23.875 17.8125 -23.875 17.8125 -24.4375 14.1875 C-24.33200466 9.36108801 -22.01562673 6.84933434 -18.73046875 3.51171875 C-13.09162634 -1.65227378 -7.20825339 -2.97732205 0 0 Z " fill="#F1F2F2" transform="translate(177.875,88.1875)"/>
<path d="M0 0 C1.67542976 0.28604898 3.34385343 0.61781233 5 1 C5 2.32 5 3.64 5 5 C7.475 5.495 7.475 5.495 10 6 C10 7.65 10 9.3 10 11 C10.66 10.67 11.32 10.34 12 10 C14.37402501 9.92883618 16.75000677 9.91590915 19.125 9.9375 C20.40632813 9.94652344 21.68765625 9.95554688 23.0078125 9.96484375 C24.48894531 9.98224609 24.48894531 9.98224609 26 10 C26 10.33 26 10.66 26 11 C20.39 11.66 14.78 12.32 9 13 C10.32 14.32 11.64 15.64 13 17 C13.5625 19.5 13.5625 19.5 13 22 C9.96353831 24.87664792 7.47721583 26.79387686 3.3125 27.375 C-1.02299508 26.88418924 -3.89004563 25.03634599 -7 22 C-7 21.34 -7 20.68 -7 20 C-8.32 20.33 -9.64 20.66 -11 21 C-8.58435029 17.72161825 -6.82290988 15.47455095 -3 14 C-0.421875 13.8046875 -0.421875 13.8046875 2.25 13.875 C3.14203125 13.89304688 4.0340625 13.91109375 4.953125 13.9296875 C5.96632813 13.96449219 5.96632813 13.96449219 7 14 C7.33 11.69 7.66 9.38 8 7 C7.01 7 6.02 7 5 7 C4.67 8.32 4.34 9.64 4 11 C2.93453047 7.8035914 2.92572162 5.34252724 3 2 C2.34 2 1.68 2 1 2 C0.67 4.64 0.34 7.28 0 10 C-0.5775 9.690625 -1.155 9.38125 -1.75 9.0625 C-3.84294184 8.07416636 -5.74535275 7.4831387 -8 7 C-7.34 7.78375 -6.68 8.5675 -6 9.375 C-4 12 -4 12 -4 14 C-4.85803223 13.75769653 -4.85803223 13.75769653 -5.73339844 13.51049805 C-9.54315649 12.65244073 -13.35968429 12.81549716 -17.25 12.8125 C-18.07113281 12.80025391 -18.89226562 12.78800781 -19.73828125 12.77539062 C-28.11055981 12.75548822 -34.99247489 14.28339656 -42 19 C-48.13967855 25.31022517 -49.44926341 31.99031108 -49.6875 40.4375 C-49.72166016 41.26443359 -49.75582031 42.09136719 -49.79101562 42.94335938 C-49.87268621 44.96178944 -49.93803724 46.98086884 -50 49 C-53.42876869 43.85684696 -52.63730473 37.43823224 -51.53515625 31.4921875 C-49.14625778 23.37841399 -44.4754534 17.43718544 -37.3203125 13.0078125 C-30.72693991 10.14402441 -24.57421094 9.72522029 -17.5 9.875 C-16.67757812 9.88402344 -15.85515625 9.89304688 -15.0078125 9.90234375 C-13.00507917 9.92563135 -11.00249846 9.96149041 -9 10 C-9 8.35 -9 6.7 -9 5 C-6.69 5.33 -4.38 5.66 -2 6 C-1.855625 5.195625 -1.71125 4.39125 -1.5625 3.5625 C-1 1 -1 1 0 0 Z " fill="#B5B9BB" transform="translate(145,124)"/>
<path d="M0 0 C0.721875 0.61875 1.44375 1.2375 2.1875 1.875 C4.78381938 3.83666353 6.94671666 4.95316 10 6 C9.07608131 11.59786029 8.25981422 16.24610426 5 21 C4.67 21.886875 4.34 22.77375 4 23.6875 C3 26 3 26 0 28 C-3.1875 28.125 -3.1875 28.125 -6 28 C-5.401875 27.731875 -4.80375 27.46375 -4.1875 27.1875 C-2.02775192 26.01506533 -0.64209744 24.80630718 1 23 C-0.794375 22.6596875 -0.794375 22.6596875 -2.625 22.3125 C-7.11508917 21.15222917 -9.81807794 19.47791481 -13 16 C-14.30494951 13.06509469 -15.22652718 10.11424584 -16 7 C-15.11248047 6.81824219 -15.11248047 6.81824219 -14.20703125 6.6328125 C-5.95543495 5.24701171 -5.95543495 5.24701171 0 0 Z " fill="#42383A" transform="translate(148,156)"/>
<path d="M0 0 C11.15910603 0.72776778 19.49795864 7.09836537 27 15 C30.62290454 19.25077843 33 22.23509603 33 27.9375 C32.91298828 28.91009766 32.91298828 28.91009766 32.82421875 29.90234375 C33.13953381 33.66510343 35.47494916 36.47093095 37.46484375 39.58984375 C42.78280397 47.93890598 43.31266556 57.30465691 42 67 C40.84579127 70.72353927 39.48635209 73.97435464 37 77 C36.01 77.33 35.02 77.66 34 78 C33.94392578 76.42412109 33.94392578 76.42412109 33.88671875 74.81640625 C33.58101027 67.86795903 33.22667858 61.79841152 30.62890625 55.28515625 C29.51849689 51.25043901 29.84177153 47.16710582 29.9921875 43.015625 C29.99954147 40.17699193 29.66226878 37.75096262 29 35 C35.18622709 40.5970626 37.44843457 48.46763164 38.2578125 56.5859375 C38.38991455 62.56827325 37.3831111 68.19587307 36 74 C40.4267523 66.43763148 39.90708697 57.5710258 38.53125 49.12109375 C36.25046434 40.44596258 30.80076609 33.65381993 25 27 C25.33 26.34 25.66 25.68 26 25 C27.65 25.99 29.3 26.98 31 28 C26.58117597 16.6040854 19.72056923 9.69089568 8.6171875 4.3828125 C5.7642846 3.18904462 2.90669924 2.0551369 0 1 C0 0.67 0 0.34 0 0 Z " fill="#0E1722" transform="translate(178,79)"/>
<path d="M0 0 C0.33 0 0.66 0 1 0 C1.05534912 0.68102783 1.11069824 1.36205566 1.16772461 2.0637207 C1.42047632 5.14697597 1.67892128 8.22972818 1.9375 11.3125 C2.06801758 12.9202832 2.06801758 12.9202832 2.20117188 14.56054688 C2.33168945 16.10258789 2.33168945 16.10258789 2.46484375 17.67578125 C2.543396 18.62364502 2.62194824 19.57150879 2.70288086 20.5480957 C2.93323104 23.13270257 2.93323104 23.13270257 4 26 C4.86526006 38.52154914 5.18911537 51.76288746 -3.4453125 61.859375 C-6 64 -6 64 -9.6875 64.375 C-13 64 -13 64 -15 63 C-15 65.31 -15 67.62 -15 70 C-17.1385485 67.8614515 -17.42655063 66.86724686 -18 64 C-18.37511719 64.59167969 -18.75023437 65.18335938 -19.13671875 65.79296875 C-26.50346741 77.16782247 -26.50346741 77.16782247 -32 79 C-38.8287397 79.97377335 -43.530212 78.99231106 -49.08203125 74.85546875 C-52.0185383 72.01465235 -53.81046035 68.90135732 -55 65 C-55 64.01 -55 63.02 -55 62 C-56.32 61.67 -57.64 61.34 -59 61 C-57.515 60.505 -57.515 60.505 -56 60 C-56.33 59.34 -56.66 58.68 -57 58 C-57.68717543 51.63041237 -56.54104642 46.82323138 -54 41 C-53 44 -53 44 -54 47 C-54.74406191 55.5996386 -54.05858349 64.49418987 -48.5625 71.5 C-44.8634465 75.10883269 -42.22746157 76.28862499 -37.0625 76.3125 C-35.81146484 76.33763672 -35.81146484 76.33763672 -34.53515625 76.36328125 C-30.31763537 75.75892156 -27.8140661 74.08419638 -25.26953125 70.6953125 C-24.54830078 69.42300781 -24.54830078 69.42300781 -23.8125 68.125 C-23.32394531 67.28195313 -22.83539063 66.43890625 -22.33203125 65.5703125 C-19.20273882 59.5319711 -18.65024529 54.62916476 -18.34375 47.86328125 C-18 45 -18 45 -16 43 C-15.94392578 44.55460937 -15.94392578 44.55460937 -15.88671875 46.140625 C-15.82104212 47.51045184 -15.75459536 48.88024191 -15.6875 50.25 C-15.65366211 51.27287109 -15.65366211 51.27287109 -15.61914062 52.31640625 C-15.39833396 56.45151296 -14.90407 58.97914434 -12 62 C-9.15465796 62.29628737 -9.15465796 62.29628737 -6 61 C1.31746656 50.78727567 2.37147644 38.103766 0.546875 25.9921875 C0.18104778 24.07420765 -0.18483803 22.15623897 -0.55078125 20.23828125 C-1.10480252 16.24451055 -1.1910741 12.33961409 -1.1875 8.3125 C-1.18814453 7.60432129 -1.18878906 6.89614258 -1.18945312 6.16650391 C-1.13515354 1.13515354 -1.13515354 1.13515354 0 0 Z " fill="#10161D" transform="translate(91,101)"/>
<path d="M0 0 C4.38989054 0.9577943 5.89277624 2.04858362 8.4375 5.75 C9.14756966 9.87166874 8.52505532 13.74743986 7.4375 17.75 C5.16963358 18.02561917 2.89791721 18.26971457 0.625 18.5 C-0.63957031 18.63921875 -1.90414062 18.7784375 -3.20703125 18.921875 C-6.5625 18.75 -6.5625 18.75 -8.4765625 16.97265625 C-10.12937891 13.58973344 -10.13086486 11.4759474 -9.5625 7.75 C-7.15926575 3.36963686 -4.94281983 1.04059365 0 0 Z " fill="#188DC4" transform="translate(119.5625,116.25)"/>
<path d="M0 0 C0.66 0.33 1.32 0.66 2 1 C2.31542969 2.88598633 2.31542969 2.88598633 2.421875 5.33203125 C2.47859375 6.21310547 2.5353125 7.09417969 2.59375 8.00195312 C2.69722236 9.86316228 2.78597057 11.72525329 2.859375 13.58789062 C3.04086464 16.18357063 3.2652446 18.50227882 4 21 C6.78934598 23.61119925 6.78934598 23.61119925 10 25 C13.80322472 28.15124334 15.25821077 31.4080102 17 36 C17.5878125 37.423125 17.5878125 37.423125 18.1875 38.875 C19.25105642 42.96560162 19.16802942 46.79926451 19 51 C17.515 51.495 17.515 51.495 16 52 C15.95101562 52.60328125 15.90203125 53.2065625 15.8515625 53.828125 C15.77679688 54.62734375 15.70203125 55.4265625 15.625 56.25 C15.55539063 57.03890625 15.48578125 57.8278125 15.4140625 58.640625 C14.98492887 61.085877 14.21399362 62.84836903 13 65 C12.01 65 11.02 65 10 65 C9.7525 65.598125 9.505 66.19625 9.25 66.8125 C7.80517427 69.34094503 6.51719455 70.55070617 4 72 C3.01 71.67 2.02 71.34 1 71 C1.70576172 70.47212891 1.70576172 70.47212891 2.42578125 69.93359375 C6.9710474 66.32937649 9.1318087 63.4946803 11 58 C11.66 58.33 12.32 58.66 13 59 C13.14975239 51.94348748 13.14975239 51.94348748 12 45 C12.99 45.33 13.98 45.66 15 46 C15.33 46.99 15.66 47.98 16 49 C16.433369 42.06609599 15.21275952 36.70448386 10.75 31.25 C8.03288636 28.82095479 8.03288636 28.82095479 4.3828125 27.4140625 C2.136883 26.14984432 1.18783645 25.55724815 0.35546875 23.08789062 C0.1187866 20.74390691 0.07933997 18.48029678 0.125 16.125 C0.10952765 14.54424145 0.09135336 12.96350674 0.0703125 11.3828125 C0.0693457 10.63418945 0.06837891 9.88556641 0.06738281 9.11425781 C-0.02038032 6.36053049 -0.53260675 3.71088085 -1 1 C-0.67 0.67 -0.34 0.34 0 0 Z " fill="#161A1C" transform="translate(184,107)"/>
<path d="M0 0 C1.32 0.66 2.64 1.32 4 2 C4 1.34 4 0.68 4 0 C5.32 0.33 6.64 0.66 8 1 C7.01 1.33 6.02 1.66 5 2 C5 2.66 5 3.32 5 4 C8.63 4 12.26 4 16 4 C13.53530619 6.46469381 12.4068526 6.38543894 9 6.6875 C8.113125 6.77386719 7.22625 6.86023438 6.3125 6.94921875 C4 7 4 7 2 6 C2.495 13.92 2.495 13.92 3 22 C2.01 21.67 1.02 21.34 0 21 C1.83025211 25.66714289 3.6497537 29.18765077 7 33 C5.35 33 3.7 33 2 33 C2 33.66 2 34.32 2 35 C-6.96203932 34.96258021 -12.44637636 32.2770878 -18.9296875 26.1875 C-21.99927434 22.90572974 -21.99927434 22.90572974 -23 21 C-22.6484375 18.7890625 -22.6484375 18.7890625 -22 17 C-21.5875 17.67546875 -21.175 18.3509375 -20.75 19.046875 C-16.97141255 24.88344311 -13.86897969 29.10889547 -7 31 C-3.66683559 31.54837469 -0.3740169 31.86172062 3 32 C2.65066406 31.54109375 2.30132812 31.0821875 1.94140625 30.609375 C1.48636719 29.99578125 1.03132813 29.3821875 0.5625 28.75 C0.11003906 28.14671875 -0.34242187 27.5434375 -0.80859375 26.921875 C-3.15422919 23.13809586 -3.11461936 19.62802661 -3.0625 15.25 C-3.05347656 14.26515625 -3.04445313 13.2803125 -3.03515625 12.265625 C-3.02355469 11.51796875 -3.01195313 10.7703125 -3 10 C-2.01 11.485 -2.01 11.485 -1 13 C-0.67 8.71 -0.34 4.42 0 0 Z " fill="#D6D6D5" transform="translate(125,157)"/>
<path d="M0 0 C6.875 0.875 6.875 0.875 8 2 C8.375 4.3125 8.375 4.3125 8 7 C4.96353831 9.87664792 2.47721583 11.79387686 -1.6875 12.375 C-6.02299508 11.88418924 -8.89004563 10.03634599 -12 7 C-12 6.34 -12 5.68 -12 5 C-13.32 5.33 -14.64 5.66 -16 6 C-14.3125 3.5 -14.3125 3.5 -12 1 C-9.25 0.6875 -9.25 0.6875 -7 1 C-7 1.66 -7 2.32 -7 3 C-4.69 3 -2.38 3 0 3 C0 2.01 0 1.02 0 0 Z " fill="#0E0E0E" transform="translate(150,139)"/>
<path d="M0 0 C0.66 0 1.32 0 2 0 C2.3403125 1.1446875 2.3403125 1.1446875 2.6875 2.3125 C4.33643345 5.68888754 5.52163182 6.60865273 9 8 C13.62294597 7.83779137 16.57086427 7.15480487 20 4 C19.84789062 4.5053125 19.69578125 5.010625 19.5390625 5.53125 C18.81526874 8.84601561 18.60814353 12.11608816 18.375 15.5 C18.23191406 17.46453125 18.23191406 17.46453125 18.0859375 19.46875 C17.82500485 22.80689665 17.82500485 22.80689665 18.62890625 25.140625 C19.20484686 28.02639058 17.92876448 29.71741219 16.5625 32.25 C16.08941406 33.14203125 15.61632812 34.0340625 15.12890625 34.953125 C14.75636719 35.62859375 14.38382813 36.3040625 14 37 C15.98 37 17.96 37 20 37 C20 37.33 20 37.66 20 38 C16.37 38 12.74 38 9 38 C10.61737724 34.76524552 11.47629223 33.29427979 14 31 C13.01 30.67 12.02 30.34 11 30 C11.27714844 29.45472656 11.55429688 28.90945312 11.83984375 28.34765625 C14.51288916 22.78277524 15.60894933 18.15904804 16 12 C14.02 12 12.04 12 10 12 C10 11.34 10 10.68 10 10 C9.278125 9.9175 8.55625 9.835 7.8125 9.75 C4.44686746 8.85249799 2.58387184 7.2885722 0 5 C-1.32 6.32 -2.64 7.64 -4 9 C-4.99 8.67 -5.98 8.34 -7 8 C-6.21625 7.4225 -5.4325 6.845 -4.625 6.25 C-2.19952756 4.17102363 -1.14305583 2.90959667 0 0 Z " fill="#CDCDCB" transform="translate(148,152)"/>
<path d="M0 0 C0.66 0.33 1.32 0.66 2 1 C1.28714844 1.58265625 0.57429688 2.1653125 -0.16015625 2.765625 C-10.83237748 11.90093146 -17.85096094 22.47724206 -19.27734375 36.78125 C-19.56982248 45.11104426 -17.28764001 52.41313843 -14 60 C-18.68606749 58.22252612 -20.0605663 55.05846503 -22.0625 50.671875 C-25.64085295 40.47356908 -22.02878611 28.68225936 -17.75 19.2421875 C-13.52945367 11.59244727 -7.26825223 4.84550149 0 0 Z " fill="#637079" transform="translate(49,101)"/>
<path d="M0 0 C0.66 0 1.32 0 2 0 C1.84144531 0.85078125 1.68289062 1.7015625 1.51953125 2.578125 C0.08010919 12.05882968 -0.10848127 21.58046606 5 30 C7.3701426 33.08337995 8.61869649 33.90855617 12.453125 34.828125 C13.70609375 34.96734375 14.9590625 35.1065625 16.25 35.25 C17.51328125 35.39953125 18.7765625 35.5490625 20.078125 35.703125 C21.04234375 35.80109375 22.0065625 35.8990625 23 36 C21.30802484 38.07776754 20.40295429 38.92301562 17.73046875 39.43359375 C10.58179083 39.44457482 7.01266657 37.92659038 1.8125 32.875 C-2.76325658 25.61690335 -3.95559661 17.45335459 -3 9 C-2.21756096 5.89722451 -1.22552321 2.95438631 0 0 Z " fill="#606D75" transform="translate(39,139)"/>
<path d="M0 0 C5.56136462 5.00363464 6.97477175 11.83427542 7.39453125 19.078125 C7.4450547 20.92672725 7.48007274 22.77581483 7.5 24.625 C7.51828857 25.50720215 7.53657715 26.3894043 7.55541992 27.29833984 C7.497622 33.55335948 6.22869486 38.60095241 3 44 C0.73213428 46.21116908 -1.15338814 47.60315069 -4 48.9375 C-6.84603938 50.44945842 -8.76391331 52.70506892 -11 55 C-13.52053595 56.26026798 -14.8542098 55.91874445 -17.625 55.5625 C-18.44226563 55.46066406 -19.25953125 55.35882813 -20.1015625 55.25390625 C-20.72804687 55.17011719 -21.35453125 55.08632812 -22 55 C-22 54.67 -22 54.34 -22 54 C-21.40832031 53.98582031 -20.81664062 53.97164062 -20.20703125 53.95703125 C-15.94970483 53.70006375 -13.59444202 53.45229284 -10.125 50.8125 C-6.37734411 45.8523672 -4.5431841 40.93532345 -3 35 C-2.67 35 -2.34 35 -2 35 C-2.33 38.3 -2.66 41.6 -3 45 C3.74617838 38.60888364 4.93272339 33.71516881 5.375 24.5625 C5.35827701 17.8900279 3.39508008 12.3206629 1.09375 6.15234375 C0 3 0 3 0 0 Z " fill="#101314" transform="translate(205,127)"/>
<path d="M0 0 C6.20278573 5.61204423 8.46764211 13.51510053 9.2578125 21.65625 C9.37509797 27.08489174 8.53953041 31.80408485 7 37 C6.67 37 6.34 37 6 37 C5.80664062 36.13117188 5.61328125 35.26234375 5.4140625 34.3671875 C5.15367187 33.21476562 4.89328125 32.06234375 4.625 30.875 C4.36976563 29.73804688 4.11453125 28.60109375 3.8515625 27.4296875 C3.07218312 24.03383611 3.07218312 24.03383611 1.90234375 20.98046875 C0.88867001 17.63227367 0.83454674 14.92555661 0.9375 11.4375 C1.04601621 7.43183643 0.93775523 3.90367876 0 0 Z " fill="#373F45" transform="translate(207,114)"/>
<path d="M0 0 C0.33 0.66 0.66 1.32 1 2 C2.33076989 2.34342449 3.66431979 2.67619874 5 3 C7 5 7 5 7.23046875 6.875 C7.20919922 7.926875 7.20919922 7.926875 7.1875 9 C7.18105469 9.70125 7.17460937 10.4025 7.16796875 11.125 C7 13 7 13 6 15 C2.86381793 14.925329 0.71444111 14.66646905 -1.62890625 12.48046875 C-2.64557493 11.27014889 -3.63928054 10.04005 -4.60546875 8.7890625 C-5.9641979 6.95650244 -5.9641979 6.95650244 -7.67578125 5.3984375 C-9 4 -9 4 -9 2 C-6.03 1.34 -3.06 0.68 0 0 Z " fill="#B84365" transform="translate(141,161)"/>
<path d="M0 0 C3.99970227 6.25553435 2.71863578 16.21579132 1.3828125 23.25 C-0.77934465 30.13828825 -4.34506373 33.72686541 -10 38 C-10.53496094 38.556875 -11.06992188 39.11375 -11.62109375 39.6875 C-13 41 -13 41 -15 41 C-15 42.65 -15 44.3 -15 46 C-15.66 46 -16.32 46 -17 46 C-18.42258812 42.17679443 -19.24042276 39.08718695 -19 35 C-18.40832031 35.06960937 -17.81664063 35.13921875 -17.20703125 35.2109375 C-12.81405538 35.51192443 -10.7220542 35.57764336 -7.1875 32.75 C-0.57598231 22.88991652 -0.27109379 11.44015774 0 0 Z " fill="#4A575F" transform="translate(95,129)"/>
<path d="M0 0 C1.32451172 0.01353516 1.32451172 0.01353516 2.67578125 0.02734375 C3.67158203 0.04474609 3.67158203 0.04474609 4.6875 0.0625 C4.6875 0.7225 4.6875 1.3825 4.6875 2.0625 C3.87297363 2.21283691 3.87297363 2.21283691 3.04199219 2.36621094 C-16.94554366 6.01131538 -16.94554366 6.01131538 -35.15625 14.6953125 C-37.15943121 15.96544551 -39.17367857 17.04169887 -41.3125 18.0625 C-37.77775948 10.17730961 -29.92750233 7.22052131 -22.3125 4.0625 C-18.34963215 2.8019997 -14.39263523 1.8529882 -10.3125 1.0625 C-9.07113281 0.78212891 -9.07113281 0.78212891 -7.8046875 0.49609375 C-5.15097898 0.03439838 -2.6910648 -0.03588086 0 0 Z " fill="#7F909A" transform="translate(91.3125,77.9375)"/>
<path d="M0 0 C1.67542976 0.28604898 3.34385343 0.61781233 5 1 C5 2.32 5 3.64 5 5 C6.65 5.33 8.3 5.66 10 6 C10 7.65 10 9.3 10 11 C10.66 10.67 11.32 10.34 12 10 C14.37402501 9.92883618 16.75000677 9.91590915 19.125 9.9375 C20.40632813 9.94652344 21.68765625 9.95554688 23.0078125 9.96484375 C23.99523437 9.97644531 24.98265625 9.98804688 26 10 C26 10.33 26 10.66 26 11 C20.39 11.66 14.78 12.32 9 13 C9 13.66 9 14.32 9 15 C7.68 15 6.36 15 5 15 C5 15.99 5 16.98 5 18 C2.69 18 0.38 18 -2 18 C-2 17.34 -2 16.68 -2 16 C-2.99 15.67 -3.98 15.34 -5 15 C-2.47524538 13.73762269 -0.68799534 13.90143596 2.125 13.9375 C3.03507813 13.94652344 3.94515625 13.95554688 4.8828125 13.96484375 C5.58148438 13.97644531 6.28015625 13.98804688 7 14 C7.33 11.69 7.66 9.38 8 7 C7.01 7 6.02 7 5 7 C4.67 8.32 4.34 9.64 4 11 C2.93453047 7.8035914 2.92572162 5.34252724 3 2 C2.34 2 1.68 2 1 2 C0.67 4.64 0.34 7.28 0 10 C-2.66666667 8.66666667 -5.33333333 7.33333333 -8 6 C-6.02 6 -4.04 6 -2 6 C-1.855625 5.195625 -1.71125 4.39125 -1.5625 3.5625 C-1 1 -1 1 0 0 Z " fill="#B4B6B8" transform="translate(145,124)"/>
<path d="M0 0 C2.875 -0.125 2.875 -0.125 6 0 C8 2 8 2 8.265625 4.49609375 C8.26046875 5.46675781 8.2553125 6.43742187 8.25 7.4375 C8.25515625 8.40558594 8.2603125 9.37367187 8.265625 10.37109375 C8 13 8 13 6 16 C2.5 16.3125 2.5 16.3125 -1 16 C-1.66 15.34 -2.32 14.68 -3 14 C-3 12.68 -3 11.36 -3 10 C-1.01739574 8.31267723 0.9832342 6.64633943 3 5 C3.94436349 2.83468832 3.94436349 2.83468832 4 1 C2.68 0.67 1.36 0.34 0 0 Z " fill="#123445" transform="translate(167,117)"/>
<path d="M0 0 C0.721875 0.61875 1.44375 1.2375 2.1875 1.875 C4.78381938 3.83666353 6.94671666 4.95316 10 6 C9.17827211 8.46518368 8.28808107 10.71663995 7.1875 13.0625 C6.87167969 13.75472656 6.55585938 14.44695312 6.23046875 15.16015625 C4.76114142 17.35715045 3.41939455 18.02108355 1 19 C1.061875 17.7625 1.12375 16.525 1.1875 15.25 C1.18244346 12.39811111 1.05222067 11.10444133 -0.25 8.5 C-2.12202338 6.56613908 -2.12202338 6.56613908 -6 7 C-6 6.34 -6 5.68 -6 5 C-5.38125 4.731875 -4.7625 4.46375 -4.125 4.1875 C-1.7004767 3.04443152 -1.7004767 3.04443152 0 0 Z " fill="#661927" transform="translate(148,156)"/>
<path d="M0 0 C2.5625 1.9375 2.5625 1.9375 4.5625 4.9375 C4.87504378 7.66033905 4.69583428 10.18192486 4.5625 12.9375 C3.5625 13.9375 3.5625 13.9375 0.18359375 14.03515625 C-1.21097077 14.02848369 -2.60551743 14.01652532 -4 14 C-4.71091797 13.99548828 -5.42183594 13.99097656 -6.15429688 13.98632812 C-7.91540013 13.97450864 -9.67646036 13.95657263 -11.4375 13.9375 C-11.1075 13.2775 -10.7775 12.6175 -10.4375 11.9375 C-6.1475 11.9375 -1.8575 11.9375 2.5625 11.9375 C2.39067069 7.5558526 2.05593863 5.4802825 -0.9375 2.1875 C-9.15801119 -3.72892492 -18.40966944 -3.87983296 -28.125 -2.5625 C-28.888125 -2.3975 -29.65125 -2.2325 -30.4375 -2.0625 C-20.90223404 -9.89503989 -9.42736391 -5.91207567 0 0 Z " fill="#C8CACC" transform="translate(136.4375,93.0625)"/>
<path d="M0 0 C5.49710998 2.16552818 7.44895366 6.95042887 10 12 C12.89882467 19.77412071 13.6959668 29.81624061 11.1015625 37.74609375 C10 39.9375 10 39.9375 8 43 C6.8275455 39.48263651 7.58627278 37.76974118 8.50390625 34.2890625 C10.6007606 24.61381329 8.10319493 14.79744169 3.48828125 6.17578125 C2.1825604 3.88888209 2.1825604 3.88888209 0 3 C0 2.01 0 1.02 0 0 Z " fill="#606E76" transform="translate(206,111)"/>
<path d="M0 0 C6.36360933 9.54541399 8.24906439 21.10605959 6.67578125 32.30859375 C5.71291025 36.9816099 3.99166417 40.3737404 1 44 C0.01 44 -0.98 44 -2 44 C-1.72285156 43.46890625 -1.44570312 42.9378125 -1.16015625 42.390625 C-0.79792969 41.68421875 -0.43570313 40.9778125 -0.0625 40.25 C0.29714844 39.55390625 0.65679687 38.8578125 1.02734375 38.140625 C5.26679821 28.81042 3.8598605 15.64690341 0.65625 6.19921875 C0 4 0 4 0 0 Z " fill="#5F6C74" transform="translate(204,127)"/>
<path d="M0 0 C1.32 0.66 2.64 1.32 4 2 C-6.0166392 7.77791954 -14.60524393 11.96602554 -26.25 12.625 C-27.03616699 12.67003662 -27.82233398 12.71507324 -28.63232422 12.76147461 C-36.47410684 13.13919316 -44.18881182 12.69172647 -52 12 C-52 11.67 -52 11.34 -52 11 C-51.07719238 10.96241577 -51.07719238 10.96241577 -50.13574219 10.92407227 C-47.34029844 10.80781513 -44.54516702 10.68522358 -41.75 10.5625 C-40.78191406 10.52318359 -39.81382812 10.48386719 -38.81640625 10.44335938 C-37.88183594 10.40146484 -36.94726562 10.35957031 -35.984375 10.31640625 C-35.12553711 10.27974854 -34.26669922 10.24309082 -33.38183594 10.20532227 C-31.14444034 10.01245124 -29.1654778 9.56923717 -27 9 C-24.9594676 8.87557729 -22.91750707 8.77362982 -20.875 8.6875 C-13.49028911 8.15586727 -7.08009066 6.64007771 -1.375 1.75 C-0.92125 1.1725 -0.4675 0.595 0 0 Z " fill="#2C3644" transform="translate(182,181)"/>
<path d="M0 0 C3.92205069 3.38722559 4.88406697 6.78453371 5.37109375 11.890625 C5.65761797 22.0033126 4.86463092 28.48233497 -2.0078125 36.27734375 C-7.20718884 41.73572961 -7.20718884 41.73572961 -11 43 C-9.72859341 39.18578022 -7.80537192 38.07466832 -4.69140625 35.6953125 C-1.60400611 32.6007821 -1.04158475 29.75601075 -0.8046875 25.44921875 C-0.82789063 24.20785156 -0.85109375 22.96648437 -0.875 21.6875 C-0.89304688 20.43324219 -0.91109375 19.17898437 -0.9296875 17.88671875 C-0.95289063 16.93410156 -0.97609375 15.98148438 -1 15 C1.22189824 17.22189824 1.92598892 19.08482708 3 22 C3.25395312 15.90512513 2.66242305 10.86737547 1 5 C0.65334443 3.33605325 0.31323028 1.67056149 0 0 Z " fill="#D0D0D0" transform="translate(186,144)"/>
<path d="M0 0 C1.0625 1.875 1.0625 1.875 2 4 C1.67 4.66 1.34 5.32 1 6 C1.66 6 2.32 6 3 6 C3 5.34 3 4.68 3 4 C3.99 4 4.98 4 6 4 C6 4.66 6 5.32 6 6 C6.99 6 7.98 6 9 6 C8.67 4.68 8.34 3.36 8 2 C9.65 1.34 11.3 0.68 13 0 C13.05399736 1.45792884 13.09279177 2.91642712 13.125 4.375 C13.14820312 5.18710938 13.17140625 5.99921875 13.1953125 6.8359375 C13 9 13 9 11 11 C8.8359375 11.4140625 8.8359375 11.4140625 6.375 11.625 C5.55773437 11.69976562 4.74046875 11.77453125 3.8984375 11.8515625 C3.27195312 11.90054688 2.64546875 11.94953125 2 12 C-0.48772258 8.7162062 -1.03180444 7.38801417 -0.6875 3.1875 C-0.460625 2.135625 -0.23375 1.08375 0 0 Z " fill="#0F3142" transform="translate(113,123)"/>
<path d="M0 0 C0.66 0.33 1.32 0.66 2 1 C2.31542969 2.88598633 2.31542969 2.88598633 2.421875 5.33203125 C2.47859375 6.21310547 2.5353125 7.09417969 2.59375 8.00195312 C2.69722236 9.86316228 2.78597057 11.72525329 2.859375 13.58789062 C3.04084135 16.18323747 3.26558118 18.50252854 4 21 C6.78734179 23.58345771 6.78734179 23.58345771 10 25 C11.36886951 26.29682374 12.7169291 27.61823134 14 29 C13.67 29.66 13.34 30.32 13 31 C9 29 5 27 1 25 C0.93941406 23.77023438 0.87882813 22.54046875 0.81640625 21.2734375 C0.73194995 19.64061573 0.64730453 18.00780373 0.5625 16.375 C0.52318359 15.56675781 0.48386719 14.75851563 0.44335938 13.92578125 C0.25594653 10.37935356 -0.00272121 6.98395734 -0.59765625 3.4765625 C-0.73042969 2.65929687 -0.86320313 1.84203125 -1 1 C-0.67 0.67 -0.34 0.34 0 0 Z " fill="#1B2022" transform="translate(184,107)"/>
<path d="M0 0 C7.88966471 -0.87662941 14.43362322 2.59657217 20.875 6.9375 C23.48756279 9.47322271 25.7333489 12.15049576 28 15 C27.67 15.66 27.34 16.32 27 17 C26.40574219 16.48050781 25.81148437 15.96101563 25.19921875 15.42578125 C19.14402962 10.33113534 13.2826654 7.00880073 6 4 C3.97966265 3.03459795 1.99196774 2.02290235 0 1 C0 0.67 0 0.34 0 0 Z " fill="#8597A1" transform="translate(173,80)"/>
<path d="M0 0 C0.33 0.66 0.66 1.32 1 2 C1.66 2.33 2.32 2.66 3 3 C1.01895841 9.61847986 -1.07821192 15.64535443 -5.6875 20.9375 C-9.34805109 22.61937483 -13.03711798 22.22862781 -17 22 C-16 20 -16 20 -12.625 18.625 C-9.00196315 17.00088003 -8.14788999 16.11444048 -6 13 C-5.01 13 -4.02 13 -3 13 C-2.01 8.71 -1.02 4.42 0 0 Z " fill="#2F353B" transform="translate(200,159)"/>
<path d="M0 0 C3.5625 0.375 3.5625 0.375 5.5 2.375 C5.850625 3.035 6.20125 3.695 6.5625 4.375 C5.9025 4.808125 5.2425 5.24125 4.5625 5.6875 C3.9025 6.244375 3.2425 6.80125 2.5625 7.375 C2.5625 8.365 2.5625 9.355 2.5625 10.375 C1.5725 10.375 0.5825 10.375 -0.4375 10.375 C-0.4375 9.715 -0.4375 9.055 -0.4375 8.375 C-1.4275 8.375 -2.4175 8.375 -3.4375 8.375 C-3.4375 9.035 -3.4375 9.695 -3.4375 10.375 C-4.0975 10.375 -4.7575 10.375 -5.4375 10.375 C-5.6328125 4.3203125 -5.6328125 4.3203125 -5.4375 2.375 C-3.4375 0.375 -3.4375 0.375 0 0 Z " fill="#557482" transform="translate(119.4375,118.625)"/>
<path d="M0 0 C0 0.66 0 1.32 0 2 C-1.05058594 2.03738281 -2.10117188 2.07476562 -3.18359375 2.11328125 C-10.20083401 2.42179569 -16.49632978 2.75359411 -23.09375 5.3671875 C-26.12603379 6.3738063 -28.83399204 6.20208561 -32 6 C-24.64645147 -2.44121165 -10.11375321 -0.30040851 0 0 Z " fill="#899AA5" transform="translate(125,70)"/>
<path d="M0 0 C0.66 0 1.32 0 2 0 C2.3403125 1.1446875 2.3403125 1.1446875 2.6875 2.3125 C4.33643345 5.68888754 5.52163182 6.60865273 9 8 C14.11130735 7.82065588 15.8072587 7.14455598 20 4 C19.34 8.95 18.68 13.9 18 19 C17.67 19 17.34 19 17 19 C17 16.03 17 13.06 17 10 C16.00419922 10.05220703 16.00419922 10.05220703 14.98828125 10.10546875 C6.15539444 10.37625798 6.15539444 10.37625798 2 7 C1.34 6.34 0.68 5.68 0 5 C-1.32 6.32 -2.64 7.64 -4 9 C-4.99 8.67 -5.98 8.34 -7 8 C-6.21625 7.4225 -5.4325 6.845 -4.625 6.25 C-2.19952756 4.17102363 -1.14305583 2.90959667 0 0 Z " fill="#C9C3C4" transform="translate(148,152)"/>
<path d="M0 0 C0 0.66 0 1.32 0 2 C-1.155 2.350625 -2.31 2.70125 -3.5 3.0625 C-11.36259949 6.03188598 -16.3697102 11.58815833 -20 19 C-20.33 19 -20.66 19 -21 19 C-20.87508623 13.00413906 -19.00605836 10.11327914 -14.89453125 5.80078125 C-9.98868988 1.13770316 -6.84773785 -0.54781903 0 0 Z " fill="#8496A0" transform="translate(153,44)"/>
<path d="M0 0 C2 3 2 3 2 6 C2.66 6 3.32 6 4 6 C4 4.35 4 2.7 4 1 C7 2 7 2 9.375 5.125 C13.69479263 10.44760163 19.95590649 13.04969323 26 16 C26 16.66 26 17.32 26 18 C21.64324228 16.706487 18.12199635 15.03309387 14.3125 12.5625 C13.38050781 11.96566406 12.44851562 11.36882812 11.48828125 10.75390625 C9.40874373 9.28810979 7.70936291 7.86943703 6 6 C5.67 6.66 5.34 7.32 5 8 C3.125 7.8125 3.125 7.8125 1 7 C-0.3125 4.5625 -0.3125 4.5625 -1 2 C-0.67 1.34 -0.34 0.68 0 0 Z " fill="#0D1723" transform="translate(76,169)"/>
<path d="M0 0 C2.3181362 1.89111111 3.66914015 3.33828031 5 6 C5.2430836 10.94269981 5.25495121 14.49009758 3 19 C1.69838976 15.09516929 2.07136979 11.67355527 2.2578125 7.59375 C2.21164406 4.98595252 2.21164406 4.98595252 0.72265625 3.16796875 C-2.0440339 1.29214028 -4.76481744 1.81687646 -8 2 C-11.26584133 8.00914805 -11.11477625 12.32477353 -10 19 C-10.66 19 -11.32 19 -12 19 C-13.54514668 14.36455997 -13.98570728 9.52266317 -12.17578125 4.890625 C-8.780898 -1.21764077 -6.67738402 -1.49665504 0 0 Z " fill="#172F3B" transform="translate(174,114)"/>
<path d="M0 0 C0.66 0.33 1.32 0.66 2 1 C1.28714844 1.58265625 0.57429688 2.1653125 -0.16015625 2.765625 C-9.19131365 10.49619849 -15.91606599 18.95949239 -18 31 C-19.47566525 28.65629637 -20.05389161 27.43841549 -19.7109375 24.6484375 C-16.99220046 14.52039512 -8.5343572 5.68957147 0 0 Z " fill="#5E6A73" transform="translate(49,101)"/>
<path d="M0 0 C0.33 0 0.66 0 1 0 C1.07347656 1.84464844 1.07347656 1.84464844 1.1484375 3.7265625 C1.22351029 5.35939566 1.29905615 6.99220712 1.375 8.625 C1.4059375 9.43324219 1.436875 10.24148437 1.46875 11.07421875 C1.6952946 15.71838314 2.2592668 19.62693856 4 24 C2.125 23.6875 2.125 23.6875 0 23 C-2.42957843 19.35563236 -2.26845889 17.52072452 -2.25 13.1875 C-2.25515625 11.98480469 -2.2603125 10.78210938 -2.265625 9.54296875 C-2.00271299 6.03618645 -1.26107598 3.26778815 0 0 Z " fill="#5D6A72" transform="translate(77,139)"/>
<path d="M0 0 C0.66 0.66 1.32 1.32 2 2 C1.68918936 8.37161819 -1.17068261 14.41372369 -4.8125 19.5625 C-7.94033718 21.61793586 -10.34304974 21.33860651 -14 21 C-14.66 20.67 -15.32 20.34 -16 20 C-16 22.31 -16 24.62 -16 27 C-16.33 27 -16.66 27 -17 27 C-17 23.04 -17 19.08 -17 15 C-15.68 16.32 -14.36 17.64 -13 19 C-9.9577587 19.64800683 -9.9577587 19.64800683 -7 18 C-3.18401299 12.57398012 -1.31039785 6.43286217 0 0 Z " fill="#0F1113" transform="translate(92,144)"/>
<path d="M0 0 C1.65 0 3.3 0 5 0 C3.68 0.33 2.36 0.66 1 1 C1.474375 1.763125 1.94875 2.52625 2.4375 3.3125 C4 6 4 6 5 9 C4.45182617 8.83701416 3.90365234 8.67402832 3.33886719 8.50610352 C0.68558577 7.93196444 -1.70742678 7.88726348 -4.421875 7.90234375 C-5.44667969 7.90556641 -6.47148437 7.90878906 -7.52734375 7.91210938 C-9.12255859 7.92467773 -9.12255859 7.92467773 -10.75 7.9375 C-11.82894531 7.94201172 -12.90789062 7.94652344 -14.01953125 7.95117188 C-16.67974383 7.96294273 -19.33984365 7.97938601 -22 8 C-19.14016127 5.54992077 -17.44380151 4.62620425 -13.671875 4.70703125 C-12.47304687 4.7215332 -12.47304687 4.7215332 -11.25 4.73632812 C-10.425 4.76146484 -9.6 4.78660156 -8.75 4.8125 C-7.48929688 4.83280273 -7.48929688 4.83280273 -6.203125 4.85351562 C-4.13514062 4.88876536 -2.06748729 4.9425698 0 5 C0 3.35 0 1.7 0 0 Z " fill="#BFC1C2" transform="translate(136,129)"/>
<path d="M0 0 C0.33 0 0.66 0 1 0 C0.80871953 11.87677843 0.80871953 11.87677843 -2.25 16.125 C-3.1575 16.74375 -4.065 17.3625 -5 18 C-5.7425 18.61875 -6.485 19.2375 -7.25 19.875 C-11.28502599 21.52569245 -14.7893114 20.76140992 -19 20 C-19 19.67 -19 19.34 -19 19 C-18.40832031 18.98582031 -17.81664062 18.97164062 -17.20703125 18.95703125 C-12.94970483 18.70006375 -10.59444202 18.45229284 -7.125 15.8125 C-3.37734411 10.8523672 -1.5431841 5.93532345 0 0 Z " fill="#090D12" transform="translate(202,162)"/>
<path d="M0 0 C0.66 0.33 1.32 0.66 2 1 C1.24203125 1.81404297 1.24203125 1.81404297 0.46875 2.64453125 C-0.1809375 3.35996094 -0.830625 4.07539062 -1.5 4.8125 C-2.1496875 5.52019531 -2.799375 6.22789063 -3.46875 6.95703125 C-5.29987759 8.97457093 -5.29987759 8.97457093 -5 12 C-4.278125 11.401875 -3.55625 10.80375 -2.8125 10.1875 C-0.26329352 8.20478385 2.11211073 6.44394464 5 5 C5.99 5.33 6.98 5.66 8 6 C7.40832031 6.37511719 6.81664062 6.75023438 6.20703125 7.13671875 C0.81545179 10.60702193 0.81545179 10.60702193 -3.9375 14.875 C-4.9584375 15.926875 -4.9584375 15.926875 -6 17 C-6.66 17 -7.32 17 -8 17 C-8.84256009 10.25951931 -8.84256009 10.25951931 -6.4765625 6.72265625 C-4.7149418 4.73454146 -2.91428197 2.84083231 -1 1 C-0.67 0.67 -0.34 0.34 0 0 Z " fill="#0B1117" transform="translate(45,94)"/>
<path d="M0 0 C1.8253125 0.680625 1.8253125 0.680625 3.6875 1.375 C9.65752708 3.38726152 15.77257489 4.18186842 22 5 C19.8614515 7.1385485 18.86724686 7.42655063 16 8 C16.33 8.66 16.66 9.32 17 10 C13.88960487 9.38619697 11.79170692 8.34990882 9.1875 6.5625 C5.50865604 4.17435739 2.26163363 2.97662437 -2 2 C-1.34 1.34 -0.68 0.68 0 0 Z " fill="#182432" transform="translate(158,73)"/>
<path d="M0 0 C2.12162911 2.00004578 3.66107546 3.9632595 5.1875 6.4375 C9.78675189 12.95882731 17.67861344 14.76290966 25 17 C20.65890503 18.31577436 17.16073527 17.65372237 13 16 C7.75852723 12.88214419 3.47741266 8.99878069 0 4 C0 2.68 0 1.36 0 0 Z " fill="#BABBBC" transform="translate(102,174)"/>
<path d="M0 0 C2.39667296 3.71436566 2.34431326 7.40861664 2.3125 11.6875 C2.31121094 12.39777344 2.30992188 13.10804688 2.30859375 13.83984375 C2.20726618 19.39259434 1.20099087 23.86435463 -1 29 C-1.33 29 -1.66 29 -2 29 C-2.12527514 21.4834916 -2.12527514 21.4834916 -1.51367188 19.12304688 C-1.00096434 17.00398569 -0.7988974 15.06492249 -0.68359375 12.890625 C-0.62075195 11.75947266 -0.62075195 11.75947266 -0.55664062 10.60546875 C-0.51732422 9.82816406 -0.47800781 9.05085937 -0.4375 8.25 C-0.39431641 7.45722656 -0.35113281 6.66445312 -0.30664062 5.84765625 C-0.20097009 3.89862185 -0.10002034 1.94933252 0 0 Z " fill="#515F68" transform="translate(95,129)"/>
<path d="M0 0 C3.625 -0.1875 3.625 -0.1875 7 0 C7.66 1.32 8.32 2.64 9 4 C7.68 3.67 6.36 3.34 5 3 C4.67 4.65 4.34 6.3 4 8 C2.35 8 0.7 8 -1 8 C-1.625 5.6875 -1.625 5.6875 -2 3 C-1.34 2.01 -0.68 1.02 0 0 Z " fill="#359FD1" transform="translate(166,115)"/>
<path d="M0 0 C2.28246897 3.42370346 4.31347515 6.96291629 6.3671875 10.52734375 C7.93536045 13.08251095 7.93536045 13.08251095 10.1953125 15.19140625 C12 17 12 17 12 19 C5.07 18.505 5.07 18.505 -2 18 C-2 17.67 -2 17.34 -2 17 C1.3 17 4.6 17 8 17 C7.50628906 16.443125 7.01257813 15.88625 6.50390625 15.3125 C2.15096908 10.12751246 0.12379922 6.80895731 0 0 Z " fill="#111A25" transform="translate(112,51)"/>
<path d="M0 0 C0.66 0 1.32 0 2 0 C2.09796875 0.6290625 2.1959375 1.258125 2.296875 1.90625 C3.35137979 7.94238089 5.02467136 12.64440845 8 18 C3.18224193 15.97201209 1.10273271 12.67647754 -1 8 C-1.375 4.0625 -1.375 4.0625 -1 1 C-0.67 0.67 -0.34 0.34 0 0 Z " fill="#8496A0" transform="translate(115,48)"/>
<path d="M0 0 C2.31 0 4.62 0 7 0 C7.06058594 0.89203125 7.12117187 1.7840625 7.18359375 2.703125 C7.26738281 3.87359375 7.35117188 5.0440625 7.4375 6.25 C7.51871094 7.41015625 7.59992188 8.5703125 7.68359375 9.765625 C7.93247787 12.30977376 8.28114942 14.55953248 9 17 C8.34 16.67 7.68 16.34 7 16 C6.67 16.66 6.34 17.32 6 18 C5.01 17.67 4.02 17.34 3 17 C3.309375 16.195625 3.61875 15.39125 3.9375 14.5625 C5.18565517 10.37750913 5.6337696 6.33693899 6 2 C4.02 2 2.04 2 0 2 C0 1.34 0 0.68 0 0 Z " fill="#DDDCD6" transform="translate(158,162)"/>
<path d="M0 0 C3.19981203 2.76347403 4.74469505 5.65378361 5.20703125 9.90258789 C5.30473923 12.08447831 5.3219873 14.25352259 5.3125 16.4375 C5.32861328 17.17548828 5.34472656 17.91347656 5.36132812 18.67382812 C5.36564302 23.52808286 4.55915264 26.73924719 2 31 C1.67 31 1.34 31 1 31 C1 29.35 1 27.7 1 26 C1.66 26 2.32 26 3 26 C3.20266095 18.61413428 3.15140491 12.08698087 1 5 C0.65334443 3.33605325 0.31323028 1.67056149 0 0 Z " fill="#B5B7B9" transform="translate(186,144)"/>
<path d="M0 0 C0.66 0.33 1.32 0.66 2 1 C1.67 1.66 1.34 2.32 1 3 C1.99 3.66 2.98 4.32 4 5 C0 7.66666667 -4 10.33333333 -8 13 C-7.48118887 8.8275894 -6.28848726 6.74583179 -3.4375 3.6875 C-2.79683594 2.99011719 -2.15617187 2.29273437 -1.49609375 1.57421875 C-1.00238281 1.05472656 -0.50867187 0.53523438 0 0 Z " fill="#57646B" transform="translate(46,95)"/>
<path d="M0 0 C1.32 0.66 2.64 1.32 4 2 C1.02553662 3.71576611 -1.97706335 5.37120308 -5 7 C-6.13115234 7.62261719 -6.13115234 7.62261719 -7.28515625 8.2578125 C-12.85730517 11.06845552 -16.91760091 11.32288585 -23 10 C-23 9.67 -23 9.34 -23 9 C-22.154375 8.91363281 -21.30875 8.82726562 -20.4375 8.73828125 C-12.05600837 7.70011922 -6.03458874 6.03458874 0 0 Z " fill="#272F3B" transform="translate(182,181)"/>
<path d="M0 0 C7.44455023 0.48551415 14.01649676 3.37167571 19.625 8.3125 C20.305625 9.1478125 20.305625 9.1478125 21 10 C20.01 10.495 20.01 10.495 19 11 C18.0925 10.278125 17.185 9.55625 16.25 8.8125 C11.29122812 5.23400483 5.6719322 3.18867663 0 1 C0 0.67 0 0.34 0 0 Z " fill="#151D25" transform="translate(178,79)"/>
<path d="M0 0 C0.33 0 0.66 0 1 0 C1 4.62 1 9.24 1 14 C-0.32 14 -1.64 14 -3 14 C-3.34615998 8.34605369 -2.43425238 4.96993194 0 0 Z " fill="#BEC0C2" transform="translate(101,160)"/>
<path d="M0 0 C6.3819078 9.5728617 6.36645587 17.99408911 5 29 C4.67 29 4.34 29 4 29 C3.96261719 28.11699219 3.92523438 27.23398438 3.88671875 26.32421875 C3.50376526 19.3334403 2.74338945 12.98636488 0.62109375 6.3046875 C0 4 0 4 0 0 Z " fill="#556068" transform="translate(204,127)"/>
<path d="M0 0 C2 3 2 3 1.75 5.3046875 C-0.02817922 11.39865589 -1.68717551 14.45811701 -7 18 C-7.66 16.68 -8.32 15.36 -9 14 C-8.4225 13.979375 -7.845 13.95875 -7.25 13.9375 C-3.69943011 12.45809588 -2.43768931 9.38441694 -1 6 C-0.21546654 2.72687532 -0.21546654 2.72687532 0 0 Z " fill="#141E29" transform="translate(210,157)"/>
<path d="M0 0 C3.35066172 1.385988 4.83371851 2.7756177 6.6875 5.875 C7.10386719 6.55304688 7.52023438 7.23109375 7.94921875 7.9296875 C10.32100014 12.60271402 10.08563649 16.86181083 10 22 C9.67 22 9.34 22 9 22 C8.85304687 21.24976563 8.70609375 20.49953125 8.5546875 19.7265625 C6.90281668 12.1887152 4.34992103 6.36299128 0 0 Z " fill="#0B0D0F" transform="translate(193,135)"/>
<path d="M0 0 C0.66 0.33 1.32 0.66 2 1 C2 1.99 2 2.98 2 4 C3.32 4.33 4.64 4.66 6 5 C5.34 5 4.68 5 4 5 C3.67 5.99 3.34 6.98 3 8 C2.34 8 1.68 8 1 8 C1.66 9.98 2.32 11.96 3 14 C2.01 13.67 1.02 13.34 0 13 C-0.19658808 11.58456585 -0.38187546 10.16755969 -0.5625 8.75 C-0.66691406 7.96109375 -0.77132812 7.1721875 -0.87890625 6.359375 C-1.00027349 3.99467126 -0.69633257 2.2488963 0 0 Z " fill="#276C8D" transform="translate(163,119)"/>
<path d="M0 0 C0.33 0 0.66 0 1 0 C1 1.65 1 3.3 1 5 C2.32 4.67 3.64 4.34 5 4 C5 6.31 5 8.62 5 11 C7.64 11 10.28 11 13 11 C11 13 11 13 7.5 13.25 C4 13 4 13 2 11 C2 9.68 2 8.36 2 7 C1.34 7 0.68 7 0 7 C0 4.69 0 2.38 0 0 Z " fill="#C8CACB" transform="translate(98,102)"/>
<path d="M0 0 C0 0.33 0 0.66 0 1 C-1.00160156 1.06058594 -2.00320312 1.12117188 -3.03515625 1.18359375 C-4.37761331 1.26808405 -5.72006072 1.35272768 -7.0625 1.4375 C-8.37347656 1.51871094 -9.68445313 1.59992188 -11.03515625 1.68359375 C-14.99894848 1.94062517 -14.99894848 1.94062517 -18.87109375 2.66015625 C-19.90363281 2.77230469 -20.93617187 2.88445312 -22 3 C-22.66 2.34 -23.32 1.68 -24 1 C-16.01969403 -1.82635836 -8.27527386 -0.7431678 0 0 Z " fill="#24303D" transform="translate(122,69)"/>
<path d="M0 0 C1.50433594 0.01353516 1.50433594 0.01353516 3.0390625 0.02734375 C3.80992187 0.03894531 4.58078125 0.05054688 5.375 0.0625 C4.385 0.3925 3.395 0.7225 2.375 1.0625 C2.375 2.0525 2.375 3.0425 2.375 4.0625 C0.065 4.0625 -2.245 4.0625 -4.625 4.0625 C-4.625 3.4025 -4.625 2.7425 -4.625 2.0625 C-5.615 1.7325 -6.605 1.4025 -7.625 1.0625 C-4.98041621 -0.25979189 -2.94738699 -0.03427194 0 0 Z " fill="#757575" transform="translate(147.625,137.9375)"/>
<path d="M0 0 C0.66 0.33 1.32 0.66 2 1 C2.05429959 2.74965358 2.09292823 4.49979787 2.125 6.25 C2.14820313 7.22453125 2.17140625 8.1990625 2.1953125 9.203125 C1.99862781 12.0196498 1.44568916 13.60949036 0 16 C-1.32 15.67 -2.64 15.34 -4 15 C-3.34 15 -2.68 15 -2 15 C-0.9458482 11.83754459 -0.68724328 9.13051782 -0.4375 5.8125 C-0.35371094 4.72582031 -0.26992187 3.63914062 -0.18359375 2.51953125 C-0.12300781 1.68808594 -0.06242188 0.85664062 0 0 Z " fill="#0A85C0" transform="translate(175,118)"/>
<path d="M0 0 C1 3 1 3 0.4375 6.375 C-0.01242678 10.10296475 0.31272822 11.72470772 2 15 C-1.875 13.25 -1.875 13.25 -3 11 C-3.46280992 4.75206612 -3.46280992 4.75206612 -1.5 1.5625 C-1.005 1.046875 -0.51 0.53125 0 0 Z " fill="#0A8DCC" transform="translate(113,120)"/>
<path d="M0 0 C0.515625 0.2475 1.03125 0.495 1.5625 0.75 C-4.1875 3.75 -4.1875 3.75 -6.4375 3.75 C-6.4375 4.41 -6.4375 5.07 -6.4375 5.75 C-4.4575 5.75 -2.4775 5.75 -0.4375 5.75 C-0.1075 6.41 0.2225 7.07 0.5625 7.75 C-3.3975 7.42 -7.3575 7.09 -11.4375 6.75 C-10.7775 6.42 -10.1175 6.09 -9.4375 5.75 C-9.4375 5.09 -9.4375 4.43 -9.4375 3.75 C-3.0375 -0.31153846 -3.0375 -0.31153846 0 0 Z " fill="#0B1118" transform="translate(98.4375,71.25)"/>
<path d="M0 0 C0 0.33 0 0.66 0 1 C-1.155 1.20625 -2.31 1.4125 -3.5 1.625 C-8.56611764 2.85534286 -12.07619501 5.6814628 -16 9 C-16 8.01 -16 7.02 -16 6 C-14.3203125 4.4296875 -14.3203125 4.4296875 -12.125 2.875 C-11.40570313 2.35679688 -10.68640625 1.83859375 -9.9453125 1.3046875 C-6.19123895 -1.2131048 -4.41806501 -0.86440402 0 0 Z " fill="#192430" transform="translate(152,43)"/>
<path d="M0 0 C0.66 0.33 1.32 0.66 2 1 C2 8.59 2 16.18 2 24 C1.67 24 1.34 24 1 24 C0.93941406 22.84242188 0.87882813 21.68484375 0.81640625 20.4921875 C0.73194498 18.95311543 0.64729982 17.41405345 0.5625 15.875 C0.52318359 15.11445312 0.48386719 14.35390625 0.44335938 13.5703125 C0.25189488 10.15340766 -0.01923783 6.8875907 -0.59765625 3.5078125 C-0.73042969 2.68023437 -0.86320313 1.85265625 -1 1 C-0.67 0.67 -0.34 0.34 0 0 Z " fill="#101214" transform="translate(184,107)"/>
<path d="M0 0 C1.32 1.32 2.64 2.64 4 4 C7.06991681 3.83557723 7.06991681 3.83557723 10 3 C10.99 3 11.98 3 13 3 C11.9375 4.5 11.9375 4.5 10 6 C3.86153846 6.43076923 3.86153846 6.43076923 1 5 C1 7.31 1 9.62 1 12 C0.67 12 0.34 12 0 12 C0 8.04 0 4.08 0 0 Z " fill="#090A0B" transform="translate(75,159)"/>
<path d="M0 0 C0.99 0.33 1.98 0.66 3 1 C3 1.33 3 1.66 3 2 C5.31 2.33 7.62 2.66 10 3 C10 3.33 10 3.66 10 4 C7.89627599 4.33611568 5.79200343 4.66879946 3.6875 5 C1.92986328 5.2784375 1.92986328 5.2784375 0.13671875 5.5625 C-3 6 -3 6 -6 6 C-4.02 4.02 -2.04 2.04 0 0 Z " fill="#1A1F24" transform="translate(146,58)"/>
<path d="M0 0 C0.33 0.99 0.66 1.98 1 3 C0.67 3.33 0.34 3.66 0 4 C-0.23363881 5.84891946 -0.41303635 7.70488031 -0.5625 9.5625 C-0.64628906 10.57441406 -0.73007813 11.58632812 -0.81640625 12.62890625 C-0.87699219 13.41136719 -0.93757812 14.19382813 -1 15 C-1.33 15 -1.66 15 -2 15 C-2 12.03 -2 9.06 -2 6 C-4.64 6 -7.28 6 -10 6 C-10 5.67 -10 5.34 -10 5 C-8.906875 4.731875 -7.81375 4.46375 -6.6875 4.1875 C-3.38307337 3.12336261 -2.05039578 2.65345336 0 0 Z " fill="#CFCFCE" transform="translate(167,156)"/>
<path d="M0 0 C4 4.5 4 4.5 4 9 C1.69 8.34 -0.62 7.68 -3 7 C-3 6.34 -3 5.68 -3 5 C-2.34 5 -1.68 5 -1 5 C-0.67 3.35 -0.34 1.7 0 0 Z " fill="#535F67" transform="translate(205,98)"/>
<path d="M0 0 C0.33 0 0.66 0 1 0 C1.61538462 7.26153846 1.61538462 7.26153846 -1.5 11 C-2.325 11.66 -3.15 12.32 -4 13 C-4.99 12.67 -5.98 12.34 -7 12 C-6.21625 11.13375 -5.4325 10.2675 -4.625 9.375 C-2.16613272 6.44943553 -0.97549896 3.72463238 0 0 Z " fill="#445159" transform="translate(92,152)"/>
<path d="M0 0 C2.72426311 2.35277269 3.8141763 4.62496331 5 8 C4.34 8 3.68 8 3 8 C3 12.29 3 16.58 3 21 C0.60660652 17.40990977 0.81614831 15.86745502 0.9375 11.625 C1.04500055 7.55867484 0.95708769 3.96189788 0 0 Z " fill="#465159" transform="translate(207,114)"/>
<path d="M0 0 C3.15140423 0.34069235 4.60781561 0.58076841 6.8125 2.9375 C8 5 8 5 8 7 C4.65980694 6.40353695 2.49529367 5.31705841 0 3 C0 2.01 0 1.02 0 0 Z " fill="#455057" transform="translate(122,112)"/>
<path d="M0 0 C-0.59167969 0.38671875 -1.18335938 0.7734375 -1.79296875 1.171875 C-6.01413301 3.95384949 -10.12058072 6.74629351 -14 10 C-14 9.01 -14 8.02 -14 7 C-4.76687117 -1.58895706 -4.76687117 -1.58895706 0 0 Z " fill="#161A1C" transform="translate(53,100)"/>
<path d="M0 0 C0.99 0.33 1.98 0.66 3 1 C3 1.66 3 2.32 3 3 C2.01 3 1.02 3 0 3 C-0.2475 3.598125 -0.495 4.19625 -0.75 4.8125 C-2.19482573 7.34094503 -3.48280545 8.55070617 -6 10 C-6.99 9.67 -7.98 9.34 -9 9 C-8.51789063 8.60167969 -8.03578125 8.20335937 -7.5390625 7.79296875 C-6.90742188 7.26316406 -6.27578125 6.73335937 -5.625 6.1875 C-4.99851563 5.66542969 -4.37203125 5.14335937 -3.7265625 4.60546875 C-1.7778952 2.91774261 -1.7778952 2.91774261 0 0 Z " fill="#0C0E0F" transform="translate(194,169)"/>
<path d="M0 0 C2.0625 0.4375 2.0625 0.4375 4 1 C3.67 2.32 3.34 3.64 3 5 C1.35 5.33 -0.3 5.66 -2 6 C-1.125 1.125 -1.125 1.125 0 0 Z " fill="#ECEEF0" transform="translate(117,120)"/>
<path d="M0 0 C4.93810736 0.49381074 8.80700602 1.26967834 13 4 C14.16796875 6.609375 14.16796875 6.609375 15 9 C13.06182687 7.87616008 11.12448482 6.75088679 9.1875 5.625 C7.56908203 4.68527344 7.56908203 4.68527344 5.91796875 3.7265625 C3.91168907 2.53944654 1.93965941 1.29310627 0 0 Z " fill="#B7BABB" transform="translate(171,135)"/>
<path d="M0 0 C0.66 0 1.32 0 2 0 C0.6118265 3.12857014 -1.01101878 5.28189174 -3.4375 7.6875 C-4.03433594 8.28949219 -4.63117188 8.89148438 -5.24609375 9.51171875 C-7 11 -7 11 -10 12 C-8.90777974 8.72333923 -8.17281146 8.08390769 -5.5625 6 C-3.11225368 4.03571068 -1.78619422 2.67929132 0 0 Z " fill="#B3B4B5" transform="translate(185,175)"/>
<path d="M0 0 C-2.95769397 1.97179598 -4.16417962 2.36929854 -7.5625 2.75 C-8.34753906 2.84796875 -9.13257812 2.9459375 -9.94140625 3.046875 C-12 3 -12 3 -14 1 C-12.41913952 0.63495397 -10.83516093 0.28339494 -9.25 -0.0625 C-8.36828125 -0.25972656 -7.4865625 -0.45695312 -6.578125 -0.66015625 C-4.01320972 -0.99825872 -2.42908361 -0.81158635 0 0 Z " fill="#18293D" transform="translate(89,77)"/>
<path d="M0 0 C4.57478244 2.0214155 7.61831569 4.31993178 11 8 C10.67 8.66 10.34 9.32 10 10 C9.0925 9.21625 8.185 8.4325 7.25 7.625 C4.94809764 5.69947504 2.78422793 4.17794259 0 3 C0 2.01 0 1.02 0 0 Z " fill="#343D43" transform="translate(187,128)"/>
<path d="M0 0 C1.9375 0.6875 1.9375 0.6875 2.9375 2.6875 C-0.53575181 3.8452506 -3.42317448 3.75616652 -7.0625 3.6875 C-3.08781646 -0.46785098 -3.08781646 -0.46785098 0 0 Z " fill="#7E8E98" transform="translate(100.0625,72.3125)"/>
<path d="M0 0 C4.40114397 0.50298788 6.71195019 2.08772731 10 5 C9.67 5.66 9.34 6.32 9 7 C6.03 5.35 3.06 3.7 0 2 C0 1.34 0 0.68 0 0 Z " fill="#7B8C96" transform="translate(162,77)"/>
<path d="M0 0 C1.32 0 2.64 0 4 0 C3.67 1.65 3.34 3.3 3 5 C1.68 5 0.36 5 -1 5 C-0.67 3.35 -0.34 1.7 0 0 Z " fill="#EAEDEE" transform="translate(167,118)"/>
<path d="M0 0 C0.66 0.33 1.32 0.66 2 1 C1.01 2.32 0.02 3.64 -1 5 C-0.34 5.33 0.32 5.66 1 6 C-1.97 8.475 -1.97 8.475 -5 11 C-4.690625 10.2575 -4.38125 9.515 -4.0625 8.75 C-2.97470143 6.13014648 -2.97470143 6.13014648 -2.5 3.8125 C-2 2 -2 2 0 0 Z " fill="#C7C9CA" transform="translate(104,91)"/>
<path d="M0 0 C2.48862878 3.23521742 4.75421558 6.59260295 7 10 C6.01 10 5.02 10 4 10 C1.09677182 6.35022743 0 4.74147821 0 0 Z " fill="#38262B" transform="translate(133,164)"/>
<path d="M0 0 C1.125 1.5 1.125 1.5 2 4 C1.57598348 6.7773082 0.81108065 9.29639783 0 12 C-0.66 11.34 -1.32 10.68 -2 10 C-1.67889311 6.46782421 -1.12183498 3.36550494 0 0 Z " fill="#162435" transform="translate(27,125)"/>
<path d="M0 0 C0.66 0 1.32 0 2 0 C2 0.99 2 1.98 2 3 C4.64 3 7.28 3 10 3 C10 3.33 10 3.66 10 4 C4.06 4.495 4.06 4.495 -2 5 C-2.33 4.34 -2.66 3.68 -3 3 C-2.01 2.67 -1.02 2.34 0 2 C0 1.34 0 0.68 0 0 Z " fill="#C6C9CA" transform="translate(158,103)"/>
<path d="M0 0 C0 1.32 0 2.64 0 4 C-0.99 4 -1.98 4 -3 4 C-3 3.34 -3 2.68 -3 2 C-3.99 2 -4.98 2 -6 2 C-6 2.66 -6 3.32 -6 4 C-6.66 4 -7.32 4 -8 4 C-7 1 -7 1 -4.5625 -0.25 C-2 -1 -2 -1 0 0 Z " fill="#405A66" transform="translate(122,125)"/>
<path d="M0 0 C0.33 0 0.66 0 1 0 C1 2.31 1 4.62 1 7 C-1.66666667 5.66666667 -4.33333333 4.33333333 -7 3 C-4.69 3 -2.38 3 0 3 C0 2.01 0 1.02 0 0 Z " fill="#D0D0D1" transform="translate(144,127)"/>
<path d="M0 0 C1.98 0 3.96 0 6 0 C6.66 1.32 7.32 2.64 8 4 C6.68 4.33 5.36 4.66 4 5 C4 3.68 4 2.36 4 1 C2.68 0.67 1.36 0.34 0 0 Z " fill="#496877" transform="translate(167,117)"/>
<path d="M0 0 C1.32 0 2.64 0 4 0 C4.33 0.99 4.66 1.98 5 3 C2.69 3.33 0.38 3.66 -2 4 C-1.34 2.68 -0.68 1.36 0 0 Z " fill="#E7E8E7" transform="translate(159,157)"/>
<path d="M0 0 C2 4 2 4 1.25 7.1875 C0 10 0 10 -2 11 C-1.34 7.37 -0.68 3.74 0 0 Z " fill="#5B6870" transform="translate(215,143)"/>
<path d="M0 0 C0.66 0.33 1.32 0.66 2 1 C2 1.66 2 2.32 2 3 C-0.31 4.32 -2.62 5.64 -5 7 C-3.70700306 4.11562221 -2.34058637 2.12780579 0 0 Z " fill="#798993" transform="translate(55,89)"/>
<path d="M0 0 C1.2065625 0.0309375 1.2065625 0.0309375 2.4375 0.0625 C1.1175 0.3925 -0.2025 0.7225 -1.5625 1.0625 C-2.2225 3.7025 -2.8825 6.3425 -3.5625 9.0625 C-4.2225 8.0725 -4.8825 7.0825 -5.5625 6.0625 C-3.71405061 0.0905866 -3.71405061 0.0905866 0 0 Z " fill="#182A41" transform="translate(117.5625,44.9375)"/>
<path d="M0 0 C0.33 0 0.66 0 1 0 C1.33 2.31 1.66 4.62 2 7 C2.66 7 3.32 7 4 7 C3.67 7.99 3.34 8.98 3 10 C2.01 10.33 1.02 10.66 0 11 C0 7.37 0 3.74 0 0 Z " fill="#161E26" transform="translate(212,146)"/>
<path d="M0 0 C0 0.66 0 1.32 0 2 C-6.93 1.505 -6.93 1.505 -14 1 C-14 0.67 -14 0.34 -14 0 C-12.2300132 -0.19532961 -10.45895721 -0.38098882 -8.6875 -0.5625 C-7.70136719 -0.66691406 -6.71523437 -0.77132812 -5.69921875 -0.87890625 C-3 -1 -3 -1 0 0 Z " fill="#040507" transform="translate(124,68)"/>
<path d="M0 0 C0.99 0 1.98 0 3 0 C3 1.98 3 3.96 3 6 C3.99 6.33 4.98 6.66 6 7 C5.01 7 4.02 7 3 7 C2.67 7.66 2.34 8.32 2 9 C1.01879536 5.94736336 1.01879536 4.05263664 2 1 C1.34 0.67 0.68 0.34 0 0 Z " fill="#D5D5D5" transform="translate(151,130)"/>
<path d="M0 0 C1.0625 1.875 1.0625 1.875 2 4 C1.67 4.66 1.34 5.32 1 6 C1.66 6.33 2.32 6.66 3 7 C2.34 7 1.68 7 1 7 C0.67 7.66 0.34 8.32 0 9 C-1.125 3.375 -1.125 3.375 0 0 Z " fill="#1A455A" transform="translate(113,123)"/>
</svg>
