<svg width="1000" height="1000" viewBox="0 0 1000 1000" fill="none" xmlns="http://www.w3.org/2000/svg">
<rect width="1000" height="1000" fill="white"/>
<path d="M924.649 418.045C924.649 370.764 879.484 326.971 797.493 294.721C717.907 263.433 612.258 246.196 500.005 246.196C387.751 246.196 282.093 263.433 202.507 294.721C120.515 326.971 75.3506 370.764 75.3506 418.045C75.3506 465.326 120.515 509.119 202.507 541.359C236.74 554.817 275.825 565.719 318.831 573.813H75.3506V581.955C75.3506 629.236 120.515 673.029 202.507 705.269C282.103 736.567 387.751 753.804 499.995 753.804C612.239 753.804 717.897 736.567 797.483 705.269C879.484 673.029 924.639 629.236 924.639 581.955C924.639 534.674 879.475 490.881 797.483 458.631C763.25 445.174 724.155 434.272 681.159 426.178H924.639V418.045H924.649ZM770.38 560.773C765.567 568.945 756.962 573.813 747.347 573.813H674.921C672.178 516.669 639.658 463.723 589.503 434.301C631.756 442.045 670.732 455.464 702.489 473.255C733.998 490.9 756.843 511.568 770.4 534.674C775.192 542.846 775.183 552.601 770.38 560.763V560.773ZM385.434 500.005C385.434 459.302 436.828 426.187 499.995 426.187C563.162 426.187 614.556 459.302 614.556 500.005C614.556 540.708 563.162 573.822 499.995 573.822C436.828 573.822 385.434 540.708 385.434 500.005ZM229.61 439.227C234.423 431.065 243.028 426.187 252.643 426.187H325.069C327.812 483.331 360.332 536.277 410.477 565.699C368.224 557.955 329.258 544.536 297.501 526.745C265.991 509.09 243.147 488.432 229.59 465.326C224.798 457.154 224.798 447.399 229.61 439.237V439.227ZM325.069 409.902H252.643C243.028 409.902 234.423 405.025 229.61 396.863C224.798 388.701 224.788 378.945 229.59 370.773C243.137 347.667 265.991 327.009 297.501 309.354C329.238 291.573 368.204 278.154 410.477 270.4C360.332 299.813 327.812 352.759 325.069 409.902ZM674.931 590.098H747.357C756.972 590.098 765.577 594.975 770.39 603.137C775.202 611.299 775.212 621.055 770.41 629.227C756.853 652.333 734.008 672.991 702.499 690.646C670.762 708.437 631.796 721.856 589.523 729.6C639.668 700.187 672.198 647.241 674.931 590.088V590.098ZM646.273 397.183C640.312 405.267 631.053 409.902 620.883 409.902H379.107C368.937 409.902 359.688 405.267 353.717 397.183C347.756 389.109 346.161 379.052 349.33 369.578C370.789 305.516 431.332 262.471 499.995 262.471C568.658 262.471 629.201 305.516 650.66 369.578C653.829 379.042 652.234 389.109 646.273 397.183ZM326.733 277.377C313.483 282.711 300.917 288.687 289.282 295.217C235.066 325.591 203.349 366.294 199.863 409.912H126.328C117.753 409.912 110.058 405.209 106.246 397.63C102.434 390.051 103.275 381.559 108.474 374.903C112.326 369.977 116.901 365.04 122.06 360.24C142.261 341.458 171.404 324.503 208.667 309.85C243.226 296.256 282.905 285.344 326.713 277.387L326.733 277.377ZM126.328 426.187H199.853C203.339 469.796 235.056 510.509 289.272 540.883C300.917 547.412 313.483 553.388 326.723 558.732C282.915 550.755 243.236 539.853 208.676 526.259C171.404 511.607 142.271 494.651 122.07 475.869C116.911 471.069 112.336 466.133 108.484 461.206C103.285 454.541 102.444 446.048 106.256 438.479C110.058 430.9 117.763 426.197 126.338 426.197L126.328 426.187ZM353.727 602.827C359.688 594.742 368.947 590.107 379.116 590.107H620.893C631.063 590.107 640.322 594.742 646.283 602.827C652.244 610.901 653.839 620.968 650.67 630.432C629.221 694.493 568.668 737.538 500.005 737.538C431.342 737.538 370.798 694.493 349.34 630.432C346.171 620.968 347.765 610.901 353.727 602.827ZM673.277 722.643C686.526 717.308 699.093 711.323 710.728 704.793C764.943 674.419 796.661 633.716 800.146 590.098H873.672C882.247 590.098 889.941 594.801 893.754 602.38C897.566 609.959 896.724 618.451 891.526 625.107C887.674 630.033 883.099 634.969 877.94 639.769C857.729 658.561 828.586 675.517 791.333 690.16C756.774 703.753 717.095 714.665 673.287 722.633L673.277 722.643ZM873.672 573.822H800.146C796.661 530.214 764.943 489.501 710.728 459.127C699.112 452.617 686.536 446.631 673.267 441.277C717.085 449.255 756.754 460.157 791.323 473.75C828.596 488.403 857.729 505.359 877.93 524.141C883.089 528.941 887.664 533.877 891.516 538.803C896.715 545.469 897.556 553.961 893.744 561.531C889.941 569.11 882.237 573.813 873.662 573.813L873.672 573.822ZM236.373 609.191C242.137 597.414 253.99 590.107 267.309 590.107H325.069C327.812 647.261 360.332 700.197 410.477 729.619C368.204 721.875 329.238 708.456 297.501 690.665C273.458 677.198 254.287 661.797 240.503 644.88C232.175 634.668 230.59 620.987 236.364 609.201L236.373 609.191ZM113.495 607.393C117.97 596.734 128.031 590.107 139.746 590.107H199.853C203.339 633.716 235.056 674.429 289.272 704.803C300.917 711.332 313.483 717.308 326.723 722.652C282.915 714.675 243.246 703.773 208.667 690.179C171.404 675.527 142.261 658.571 122.06 639.789C121.238 639.021 120.426 638.244 119.634 637.476C111.415 629.479 109.058 617.955 113.485 607.403L113.495 607.393ZM673.277 277.377C717.085 285.344 756.764 296.256 791.323 309.84C828.586 324.493 857.729 341.448 877.93 360.231C878.752 360.998 879.564 361.776 880.356 362.543C888.575 370.54 890.932 382.064 886.505 392.616C882.029 403.276 871.969 409.902 860.244 409.902H800.137C796.651 366.294 764.934 325.581 710.718 295.207C699.073 288.677 686.507 282.702 673.267 277.367L673.277 277.377ZM763.636 390.829C757.873 402.595 746.02 409.912 732.701 409.912H674.941C672.198 352.768 639.678 299.822 589.523 270.4C631.776 278.144 670.752 291.563 702.509 309.354C726.542 322.812 745.713 338.223 759.507 355.139C767.835 365.361 769.419 379.032 763.646 390.829H763.636Z" fill="black"/>
</svg>
