<?xml version="1.0" encoding="UTF-8"?>
<svg width="200px" height="200px" viewBox="0 0 200 200" version="1.1" xmlns="http://www.w3.org/2000/svg" xmlns:xlink="http://www.w3.org/1999/xlink">
    <title>RING@svg</title>
    <defs>
        <linearGradient x1="-2.22044605e-14%" y1="50%" x2="100%" y2="50%" id="linearGradient-1">
            <stop stop-color="#929297" offset="0%"></stop>
            <stop stop-color="#88878D" offset="78.0357361%"></stop>
            <stop stop-color="#BAB9C6" offset="100%"></stop>
        </linearGradient>
        <linearGradient x1="-1.11022302e-14%" y1="50%" x2="100%" y2="50%" id="linearGradient-2">
            <stop stop-color="#919FB7" offset="0%"></stop>
            <stop stop-color="#F8FAFE" offset="100%"></stop>
        </linearGradient>
    </defs>
    <g id="RING" stroke="none" stroke-width="1" fill="none" fill-rule="evenodd">
        <g fill-rule="nonzero">
            <path d="M97.7013618,45.6646324 C63.8891612,45.5255382 33.9969176,62.540554 15.9046026,88.3713689 C8.57819158,98.8281332 3.18602062,110.75707 0.252171134,123.628586 C0.0850089518,121.266103 -1.33126583e-13,118.880787 -1.33126583e-13,116.475511 C-1.33126583e-13,61.5984813 44.2503383,17.1118589 98.8357445,17.1118589 C158.142458,17.1118589 199.849609,58.274768 199.849609,109.05179 C199.849609,148.587007 174.565693,182.29391 139.08608,195.281166 C130.46327,198.238167 121.652952,199.849609 112.468261,199.849609 C69.8037522,199.849609 32.9452481,165.078456 32.9452481,122.186065 C32.9452481,114.817129 33.9660811,107.687894 38.1454157,100.933497 C36.5770863,105.099723 36.3533773,108.191603 36.3533773,111.336011 C36.3533773,146.974542 66.2266647,174.723169 101.675852,174.723169 C137.12504,174.723169 165.862284,145.832431 165.862284,110.193901 C165.862284,80.0127976 145.25239,54.6711044 117.409882,47.6175522 C111.734449,46.4766541 105.93213,45.6916796 97.7013618,45.6646324 Z" id="Combined-Shape-Copy-34" fill="url(#linearGradient-1)" transform="translate(99.924805, 108.480734) rotate(180.000000) translate(-99.924805, -108.480734) "></path>
            <path d="M97.7013618,28.5527735 C63.8891612,28.4136794 33.9969176,45.4286953 15.9046026,71.2595102 C8.57819158,81.7162741 3.18602062,93.645211 0.252171134,106.516727 C0.0850089518,104.154243 -1.33126583e-13,101.768928 -1.33126583e-13,99.3636519 C-1.33126583e-13,44.4866222 44.2503383,0 98.8357445,0 C158.142458,0 199.849609,41.1629093 199.849609,91.9399306 C199.849609,131.475148 174.565693,165.18205 139.08608,178.169307 C130.46327,181.126309 121.652952,182.737751 112.468261,182.737751 C69.8037522,182.737751 32.9452481,147.966598 32.9452481,105.074207 C32.9452481,97.7052702 33.9660811,90.5760355 38.1454157,83.8216378 C36.5770863,87.987864 36.3533773,91.0797439 36.3533773,94.2241527 C36.3533773,129.862683 66.2266647,157.61131 101.675852,157.61131 C137.12504,157.61131 165.862284,128.720572 165.862284,93.0820418 C165.862284,62.9009385 145.25239,37.5592455 117.409882,30.5056934 C111.734449,29.3647953 105.93213,28.5798206 97.7013618,28.5527735 Z" id="Combined-Shape-Copy-41" fill="url(#linearGradient-2)"></path>
        </g>
    </g>
</svg>