<svg width="2000" height="2000" viewBox="0 0 2000 2000" fill="none" xmlns="http://www.w3.org/2000/svg">
<g clip-path="url(#clip0_3043_2)">
<rect width="2000" height="2000" fill="#FF1571"/>
<circle cx="1000" cy="1000" r="1000" fill="#FF1571"/>
<path d="M944.749 687.349C757.835 761.915 606.301 965.165 606.301 1141.29L936.959 1009.36L983.189 945.55L984.301 860.827V860.735C984.394 854.243 989.959 846.777 996.821 844.041L1017.59 835.74V934.977L1059.05 960.667L1165.93 918.051C1352.84 843.438 1504.42 640.188 1504.42 464.066L944.795 687.349H944.749Z" fill="white"/>
<path d="M1055.48 1313.38C1242.39 1238.81 1393.92 1035.56 1393.92 859.438L1063.27 991.367L1017.04 1055.17L1015.92 1139.9V1139.99C1015.83 1146.48 1010.27 1153.95 1003.4 1156.68L982.63 1164.98V1065.75L941.176 1040.06L834.296 1082.67C647.428 1157.29 495.848 1360.49 495.848 1536.66L1055.48 1313.38Z" fill="white"/>
</g>
<defs>
<clipPath id="clip0_3043_2">
<rect width="2000" height="2000" fill="white"/>
</clipPath>
</defs>
</svg>
