<?xml version="1.0" encoding="UTF-8"?>
<!-- Generated by Pixelmator Pro 3.4.1 -->
<svg width="400" height="400" viewBox="0 0 400 400" xmlns="http://www.w3.org/2000/svg">
    <g id="f-logo-1">
        <g id="Layer1">
            <path id="Path" fill="#ffffff" stroke="none" d="M 400 200 C 400 310.45697 310.45694 400 200 400 C 89.543045 400 -0 310.45697 -0 200 C -0 89.54306 89.543045 0 200 0 C 310.45694 0 400 89.54306 400 200 Z"/>
            <linearGradient id="linearGradient1" x1="35.363636" y1="145.090909" x2="339.090909" y2="145.090909" gradientUnits="userSpaceOnUse">
                <stop offset="1e-05" stop-color="#1b75ba" stop-opacity="1"/>
                <stop offset="0.17" stop-color="#2967b2" stop-opacity="1"/>
                <stop offset="0.72" stop-color="#543d99" stop-opacity="1"/>
                <stop offset="1" stop-color="#652d8f" stop-opacity="1"/>
            </linearGradient>
            <path id="path1" fill="url(#linearGradient1)" stroke="none" d="M 338.636353 95.909088 C 304.818176 51.909088 260.727264 25.909088 191.72728 25.909088 C 109.909096 25.909088 35.363636 101.181824 35.363636 181.545456 C 35.363636 237.454559 67.090912 264.272705 102.090904 264.272705 C 129.893814 265.148621 155.60939 249.583939 167.72728 224.545456 C 168.16951 223.707687 168.145325 222.700424 167.663376 221.884842 C 167.181442 221.06929 166.310806 220.56221 165.363647 220.545456 L 118.181816 220.545456 C 116.309525 220.496155 114.817535 218.963852 114.818184 217.090897 L 114.818184 182.909103 C 114.817535 181.036148 116.309525 179.503845 118.181816 179.454544 L 181.818176 179.454544 C 184.390915 179.445633 186.712677 177.909714 187.727264 175.545456 C 215.545441 111.909088 264.818176 98.090912 293.090912 95.818176 C 307.607056 94.651642 322.21637 95.817932 336.363647 99.272705 C 337.266144 99.603973 338.278259 99.277039 338.816498 98.480438 C 339.354736 97.683868 339.280426 96.622894 338.636353 95.909088 Z"/>
        </g>
    </g>
    <g id="x-logo-2">
        <g id="g1">
            <linearGradient id="linearGradient2" x1="73.038164" y1="275.106532" x2="392.394819" y2="275.106532" gradientUnits="userSpaceOnUse" gradientTransform="matrix(0.836072 -0.548619 0.548619 0.836072 -112.750057 172.734729)">
                <stop offset="1e-05" stop-color="#d81c5c" stop-opacity="1"/>
                <stop offset="1" stop-color="#ed4036" stop-opacity="1"/>
            </linearGradient>
            <path id="path2" fill="url(#linearGradient2)" stroke="none" d="M 61.741951 305.684631 C 96.066559 349.861969 140.634644 375.089233 209.336365 374.919891 C 291.034424 374.226563 365.494629 298.464233 365.024689 217.953613 C 364.633789 161.959198 332.889709 135.098236 297.569916 135.485229 C 269.739258 134.841766 244.126038 150.604095 232.159195 175.738815 C 231.736221 176.59549 231.798355 177.612076 232.322495 178.410858 C 232.846649 179.209641 233.754501 179.671265 234.708755 179.624222 L 281.679535 179.373764 C 283.570953 179.364639 285.114685 180.884659 285.134888 182.775986 L 285.400482 217.063736 C 285.409546 217.975494 285.046143 218.851501 284.394287 219.489075 C 283.742432 220.126663 282.858612 220.470612 281.947266 220.441345 L 218.425095 220.880478 C 215.865585 220.898087 213.554199 222.41478 212.519287 224.755783 C 185.088669 288.667664 135.773926 302.795807 107.450043 305.373413 C 92.939285 306.603302 78.325226 305.49585 64.165573 302.093262 C 63.201771 301.738312 62.120163 302.087341 61.545639 302.93869 C 60.971092 303.790039 61.052128 304.923676 61.741951 305.684631 Z"/>
        </g>
    </g>
</svg>
