<?xml version="1.0" encoding="UTF-8"?>
<svg width="256px" height="256px" viewBox="0 0 256 256" version="1.1" xmlns="http://www.w3.org/2000/svg" xmlns:xlink="http://www.w3.org/1999/xlink">
    <title>Artboard</title>
    <defs>
        <linearGradient x1="84.7602606%" y1="90.6212066%" x2="20.9027651%" y2="-5.04584678%" id="linearGradient-1">
            <stop stop-color="#004560" offset="0%"></stop>
            <stop stop-color="#61D1C9" offset="100%"></stop>
        </linearGradient>
        <linearGradient x1="43.6498075%" y1="34.0629566%" x2="78.8812056%" y2="71.2533281%" id="linearGradient-2">
            <stop stop-color="#43D16A" offset="0%"></stop>
            <stop stop-color="#25B7B0" offset="100%"></stop>
        </linearGradient>
    </defs>
    <g id="Artboard" stroke="none" stroke-width="1" fill="none" fill-rule="evenodd">
        <circle id="Oval" fill="#00455F" cx="128" cy="128" r="128"></circle>
        <g id="6315f76f93b5737098b53f90_logo" transform="translate(42.000000, 62.000000)" fill-rule="nonzero">
            <path d="M116.504331,46.3986615 C129.182205,46.3986615 139.459566,36.0118759 139.459566,23.1993308 C139.459566,10.3866773 129.182205,0 116.504331,0 C103.826457,0 93.5490957,10.3866773 93.5490957,23.1993308 C93.5490957,36.0118759 103.826457,46.3986615 116.504331,46.3986615 Z" id="Path" fill="#F46060"></path>
            <path d="M130.350662,29.70184 C121.755384,27.2025315 112.678279,26.9163003 103.945836,28.8693693 C95.2131239,30.8225466 87.102637,34.9534759 80.3535543,40.8847959 C79.662612,41.4645184 78.8115997,41.8137065 77.916393,41.8846818 C77.0211862,41.9553863 76.1259795,41.7435438 75.3541938,41.2794949 C72.3411575,39.3504275 69.0680746,37.8705097 65.6368081,36.8857941 C64.8318765,36.659323 64.1085969,36.2039428 63.5532023,35.5727496 C62.9980771,34.9415564 62.6348204,34.1621818 62.5068182,33.3275439 C61.499239,26.8373334 58.8718261,20.7129713 54.8730383,15.5335026 C50.8739811,10.354034 45.6355934,6.28966436 39.6512899,3.72406709 C33.6669864,1.15846712 27.1351031,0.175859642 20.6708319,0.869589212 C14.2066685,1.56331661 8.02400206,3.91028264 2.70627996,7.68880031 C1.50247211,8.56645687 0.63052673,9.8331506 0.235285676,11.279152 C-0.159954112,12.7251262 -0.0548389195,14.264127 0.532485154,15.6418349 L35.8344,98.8388986 C38.0395405,100.313669 40.6329992,101.08275 43.2771198,101.047533 C45.9209709,101.012316 48.4942187,100.174428 50.6602849,98.6414137 L125.89484,45.6959511 C128.263553,44.0269462 130.026211,41.6194723 130.913333,38.842493 C131.800455,36.0652429 131.762998,33.071274 130.807159,30.317592 L130.350662,29.70184 Z" id="Path" fill="url(#linearGradient-1)"></path>
            <path d="M122.24287,123.642083 L170.501574,9.84181935 C170.907947,8.85247138 171.069634,7.77846767 170.972622,6.71164277 C170.87588,5.64481786 170.523402,4.61784211 169.945371,3.71986817 C169.367071,2.82186714 168.580464,2.08017717 167.654806,1.55835917 C166.728879,1.03654117 165.691388,0.750036339 164.631799,0.724864364 C154.91603,0.724864364 145.450068,3.83741098 137.595316,9.61654025 C129.740294,15.3956695 123.901239,23.5433175 120.917037,32.8878758 C120.319335,34.7708904 119.285347,36.4829682 117.901576,37.8813456 C116.517805,39.279723 114.823865,40.3245781 112.960692,40.9289524 C108.738507,42.3422292 104.871224,44.6649119 101.62482,47.7374413 C98.378146,50.8096998 95.8302291,54.5578498 94.1575776,58.7229123 C93.142992,61.3089082 91.3191632,63.4885566 88.9641928,64.9286524 C86.6089529,66.3684772 83.8521904,66.9904599 81.1148303,66.6984315 C79.5909308,66.5402268 78.0602944,66.4586864 76.52858,66.4559774 C67.0998055,66.4603118 57.9448209,69.6631433 50.5312048,75.5505778 C43.1173192,81.4377413 37.8735419,89.6695303 35.6392977,98.9269406 L46.1166121,123.642083 C60.4636341,157.452639 107.917676,157.452639 122.24287,123.642083 Z" id="Path" fill="url(#linearGradient-2)"></path>
            <path d="M120.417155,81.4174239 C126.755823,81.4174239 131.894773,76.2240311 131.894773,69.8175554 C131.894773,63.4113506 126.755823,58.2179577 120.417155,58.2179577 C114.078218,58.2179577 108.939538,63.4113506 108.939538,69.8175554 C108.939538,76.2240311 114.078218,81.4174239 120.417155,81.4174239 Z" id="Path" fill="#199B57"></path>
            <path d="M103.309328,124.45532 C107.535286,124.45532 110.961163,120.992968 110.961163,116.721984 C110.961163,112.451271 107.535286,108.988919 103.309328,108.988919 C99.0833706,108.988919 95.6574936,112.451271 95.6574936,116.721984 C95.6574936,120.992968 99.0833706,124.45532 103.309328,124.45532 Z" id="Path" fill="#199B57"></path>
            <path d="M52.8338964,58.1299158 C56.0034996,58.1299158 58.5727052,55.5333548 58.5727052,52.3299815 C58.5727052,49.1268791 56.0034996,46.5303181 52.8338964,46.5303181 C49.6645627,46.5303181 47.0950876,49.1268791 47.0950876,52.3299815 C47.0950876,55.5333548 49.6645627,58.1299158 52.8338964,58.1299158 Z" id="Path" fill="#61D1C9"></path>
            <path d="M34.0396748,36.0451964 C39.3591755,33.6821498 41.775048,27.4076016 39.4367852,22.0316775 C37.098253,16.6557263 30.8908215,14.2136316 25.5715364,16.5768677 C20.2521436,18.9401039 17.8357321,25.2134873 20.1741027,30.589574 C22.5124732,35.9652814 28.7201742,38.4085138 34.0396748,36.0451964 Z" id="Path" fill="#61D1C9"></path>
            <path d="M90.5926499,87.9203395 C90.9960588,88.7259913 91.2383197,89.6047856 91.3048809,90.5055227 C91.3711725,91.4062598 91.2609559,92.3116022 90.9801596,93.1689956 C90.6993632,94.026389 90.2531073,94.8193085 89.66807,95.5022433 C89.0830327,96.1849072 88.3713406,96.7440415 87.5717987,97.1476801 C80.3689145,100.844088 74.341764,106.5167 70.1815588,113.515089 C69.745543,114.334828 69.1491876,115.055688 68.4291417,115.635682 C67.7090958,116.215946 66.8799112,116.642882 65.9919804,116.88967 C65.1040496,117.136459 64.1754275,117.198494 63.2632437,117.072256 C62.3507903,116.945746 61.4733691,116.63313 60.6837978,116.15391 C59.8944961,115.674691 59.2092129,115.037809 58.6705258,114.283086 C58.1315693,113.528363 57.7499881,112.671512 57.5484184,111.763189 C57.3471182,110.855138 57.3298715,109.91485 57.4985649,109.000026 C57.6672583,108.084931 58.0178495,107.214535 58.5293192,106.440578 C64.0328735,97.1964418 72.0150888,89.7172085 81.5503072,84.8673148 C83.1539722,84.083064 84.996934,83.963056 86.6865626,84.533568 C88.3761912,85.1043509 89.7777476,86.3193301 90.5926499,87.9203395 Z" id="Path" fill="#199B57"></path>
        </g>
    </g>
</svg>