<svg width="256" height="256" viewBox="0 0 256 256" fill="none" xmlns="http://www.w3.org/2000/svg">
<rect width="256" height="256" fill="white"/>
<path d="M139.588 117.978L139.263 117.79L116.487 104.64C116.388 104.582 116.289 104.524 116.19 104.465C114.504 103.508 112.552 102.962 110.475 102.962C104.071 102.962 98.8799 108.154 98.8799 114.556V141.238C98.8799 147.64 104.07 152.832 110.475 152.832C112.475 152.832 114.355 152.322 115.998 151.43C116.053 151.401 116.102 151.375 116.155 151.344C116.268 151.281 116.379 151.219 116.486 151.153L139.297 137.979L139.588 137.811C142.934 135.778 145.169 132.098 145.169 127.895C145.169 123.693 142.934 120.016 139.588 117.978Z" fill="#002BFF"/>
<path d="M213.114 96.653C211.726 93.788 209.486 91.425 206.697 89.901L107.09 32.393C106.785 32.209 106.481 32.027 106.16 31.859C103.996 30.67 101.526 30 98.874 30C96.299 30 93.875 30.64 91.741 31.769C91.451 31.921 91.147 32.104 90.872 32.272L69.945 44.358L49.093 56.384C48.805 56.537 48.499 56.72 48.225 56.887C44.08 59.449 41.259 63.929 41 69.081V186.721C41.259 191.856 44.08 196.338 48.225 198.914C48.499 199.066 48.805 199.248 49.093 199.416L69.946 211.428L90.873 223.514C91.148 223.698 91.452 223.864 91.742 224.018C93.876 225.145 96.3 225.786 98.875 225.786C101.527 225.786 103.997 225.114 106.161 223.942C106.481 223.758 106.786 223.59 107.091 223.393L206.698 165.899C209.487 164.376 211.727 161.997 213.115 159.147C214.091 157.151 214.639 154.879 214.639 152.502V103.284C214.639 100.905 214.09 98.651 213.114 96.653ZM210.249 130.461H210.234L198.375 137.303L186.715 144.043L97.823 195.361L86.223 202.039L74.212 208.973C73.801 209.203 73.343 209.34 72.839 209.34C71.239 209.34 69.944 208.043 69.944 206.428V49.358C69.944 47.756 71.239 46.462 72.839 46.462C73.343 46.462 73.801 46.599 74.212 46.813L86.223 53.748L97.823 60.439L186.715 111.759L198.375 118.495L210.234 125.34H210.249C211.148 125.843 211.758 126.803 211.758 127.9C211.758 128.998 211.149 129.957 210.249 130.461Z" fill="#002BFF"/>
</svg>
