<?xml version="1.0" encoding="UTF-8"?>
<svg id="Layer_2" data-name="Layer 2" xmlns="http://www.w3.org/2000/svg" xmlns:xlink="http://www.w3.org/1999/xlink" viewBox="0 0 715.79 715.79">
  <defs>
    <style>
      .cls-1 {
        fill: none;
      }

      .cls-2 {
        clip-path: url(#clippath-1);
      }

      .cls-3 {
        fill: #fff;
      }

      .cls-4 {
        fill: #6d3aec;
      }

      .cls-5 {
        clip-path: url(#clippath);
      }
    </style>
    <clipPath id="clippath">
      <rect class="cls-1" x="149.13" y="128.22" width="472.32" height="459.35"/>
    </clipPath>
    <clipPath id="clippath-1">
      <rect class="cls-1" x="149.13" y="128.22" width="472.32" height="459.35"/>
    </clipPath>
  </defs>
  <g id="Layer_1-2" data-name="Layer 1">
    <g>
      <circle class="cls-4" cx="357.89" cy="357.89" r="357.89"/>
      <g id="Artwork_2" data-name="Artwork 2">
        <g class="cls-5">
          <g class="cls-2">
            <path class="cls-3" d="M200.4,254.6h236.32c35.37,0,64.14,28.77,64.14,64.14s-28.77,64.14-64.14,64.14h-127.87c-10.07,0-18.26,8.19-18.26,18.26s8.19,18.26,18.26,18.26h127.86c55.5,0,100.66-45.15,100.66-100.66s-45.16-100.66-100.66-100.66h-236.31c-10.07,0-18.26,8.19-18.26,18.26s8.19,18.26,18.26,18.26"/>
            <path class="cls-3" d="M436.72,134h-91.65c-10.07,0-18.26,8.19-18.26,18.26s8.19,18.26,18.26,18.26h91.65c81.72,0,148.22,66.49,148.22,148.23s-66.5,148.22-148.22,148.22h-232.82c-10.07,0-18.26,8.19-18.26,18.26s8.19,18.25,18.26,18.25h232.82c101.87,0,184.74-82.87,184.74-184.74s-82.87-184.75-184.74-184.75"/>
            <path class="cls-3" d="M330.85,318.74c0-10.07-8.19-18.26-18.26-18.26h-44.5c-10.07,0-18.26,8.19-18.26,18.26s8.08,18.26,14.76,18.26h44.5c12.82,0,21.77-7.51,21.77-18.26"/>
            <path class="cls-3" d="M273.05,551.05h-105.65c-10.07,0-18.26,8.19-18.26,18.26s8.19,18.25,18.26,18.25h105.65c10.07,0,18.26-8.19,18.26-18.25s-8.2-18.26-18.26-18.26"/>
          </g>
        </g>
      </g>
    </g>
  </g>
</svg>