<svg version="1.1" id="Layer_1" xmlns="http://www.w3.org/2000/svg" xmlns:xlink="http://www.w3.org/1999/xlink" x="0px" y="0px"
	 width="100%" viewBox="0 0 256 256" enable-background="new 0 0 256 256" xml:space="preserve">
<path fill="#FFFDFD" opacity="1.000000" stroke="none" 
	d="
M148.000000,257.000000 
	C98.666672,257.000000 49.833340,257.000000 1.000006,257.000000 
	C1.000004,171.666672 1.000004,86.333351 1.000002,1.000018 
	C86.333321,1.000012 171.666641,1.000012 257.000000,1.000006 
	C257.000000,86.333313 257.000000,171.666626 257.000000,256.999969 
	C220.833328,257.000000 184.666672,257.000000 148.000000,257.000000 
M144.049683,253.728058 
	C144.869965,253.581345 145.686584,253.408844 146.511047,253.291641 
	C207.224976,244.660522 253.124374,193.427673 254.802719,132.411392 
	C256.948059,54.418179 189.147369,-6.538193 111.755966,3.804809 
	C27.929033,15.007891 -21.296570,105.351463 14.529210,181.842545 
	C35.633953,226.902954 84.802292,260.201660 144.049683,253.728058 
z"/>
<path fill="#DD3045" opacity="1.000000" stroke="none" 
	d="
M143.601044,253.778793 
	C84.802292,260.201660 35.633953,226.902954 14.529210,181.842545 
	C-21.296570,105.351463 27.929033,15.007891 111.755966,3.804809 
	C189.147369,-6.538193 256.948059,54.418179 254.802719,132.411392 
	C253.124374,193.427673 207.224976,244.660522 146.511047,253.291641 
	C145.686584,253.408844 144.869965,253.581345 143.601044,253.778793 
M59.120602,81.677246 
	C47.064075,99.995125 42.543018,120.000298 45.877422,141.690048 
	C53.167526,189.110992 98.788071,220.505157 146.250549,210.825089 
	C192.182083,201.457230 222.041718,154.509338 210.270187,108.821579 
	C201.485229,74.725281 179.168335,52.983860 144.658310,46.399494 
	C109.533951,39.697922 80.855484,52.204590 59.120602,81.677246 
z"/>
<path fill="#FFFEFE" opacity="1.000000" stroke="none" 
	d="
M59.324852,81.378510 
	C80.855484,52.204590 109.533951,39.697922 144.658310,46.399494 
	C179.168335,52.983860 201.485229,74.725281 210.270187,108.821579 
	C222.041718,154.509338 192.182083,201.457230 146.250549,210.825089 
	C98.788071,220.505157 53.167526,189.110992 45.877422,141.690048 
	C42.543018,120.000298 47.064075,99.995125 59.324852,81.378510 
z"/>
</svg>