<svg width="256" height="256" viewBox="0 0 256 256" fill="none" xmlns="http://www.w3.org/2000/svg">
<g filter="url(#filter0_i_76_39)">
<path d="M115.2 7.39008C123.121 2.81708 132.879 2.81708 140.8 7.39008L226.051 56.6099C233.972 61.1829 238.851 69.6342 238.851 78.7802V177.22C238.851 186.366 233.972 194.817 226.051 199.39L140.8 248.61C132.879 253.183 123.121 253.183 115.2 248.61L29.9488 199.39C22.0281 194.817 17.1488 186.366 17.1488 177.22V78.7802C17.1488 69.6342 22.0281 61.1829 29.9488 56.6099L115.2 7.39008Z" fill="url(#paint0_radial_76_39)"/>
<path d="M115.2 7.39008C123.121 2.81708 132.879 2.81708 140.8 7.39008L226.051 56.6099C233.972 61.1829 238.851 69.6342 238.851 78.7802V177.22C238.851 186.366 233.972 194.817 226.051 199.39L140.8 248.61C132.879 253.183 123.121 253.183 115.2 248.61L29.9488 199.39C22.0281 194.817 17.1488 186.366 17.1488 177.22V78.7802C17.1488 69.6342 22.0281 61.1829 29.9488 56.6099L115.2 7.39008Z" fill="url(#paint1_linear_76_39)"/>
</g>
<g filter="url(#filter1_dd_76_39)">
<path d="M180.151 175.077C161.041 194.186 128.146 192.274 128.146 192.274C128.146 192.274 126.233 159.378 145.343 140.269C164.452 121.159 197.347 123.072 197.347 123.072C197.347 123.072 199.26 155.967 180.151 175.077Z" fill="url(#paint2_radial_76_39)"/>
<path d="M180.151 175.077C161.041 194.186 128.146 192.274 128.146 192.274C128.146 192.274 126.233 159.378 145.343 140.269C164.452 121.159 197.347 123.072 197.347 123.072C197.347 123.072 199.26 155.967 180.151 175.077Z" fill="url(#paint3_linear_76_39)"/>
<path d="M180.151 175.077C161.041 194.186 128.146 192.274 128.146 192.274C128.146 192.274 126.233 159.378 145.343 140.269C164.452 121.159 197.347 123.072 197.347 123.072C197.347 123.072 199.26 155.967 180.151 175.077Z" fill="url(#paint4_linear_76_39)"/>
<path d="M76.4464 175.077C95.5559 194.186 128.451 192.274 128.451 192.274C128.451 192.274 130.364 159.378 111.254 140.269C92.1449 121.159 59.2497 123.072 59.2497 123.072C59.2497 123.072 57.337 155.967 76.4464 175.077Z" fill="url(#paint5_radial_76_39)"/>
<path d="M76.4464 175.077C95.5559 194.186 128.451 192.274 128.451 192.274C128.451 192.274 130.364 159.378 111.254 140.269C92.1449 121.159 59.2497 123.072 59.2497 123.072C59.2497 123.072 57.337 155.967 76.4464 175.077Z" fill="url(#paint6_linear_76_39)"/>
<path d="M76.4464 175.077C95.5559 194.186 128.451 192.274 128.451 192.274C128.451 192.274 130.364 159.378 111.254 140.269C92.1449 121.159 59.2497 123.072 59.2497 123.072C59.2497 123.072 57.337 155.967 76.4464 175.077Z" fill="url(#paint7_linear_76_39)"/>
<path d="M127.601 190.831C127.608 191.236 127.617 191.563 127.625 191.805C127.443 191.81 127.232 191.815 126.992 191.818C126.063 191.833 124.712 191.833 123.03 191.774C119.666 191.656 114.981 191.299 109.703 190.349C99.1363 188.447 86.2512 184.174 76.8 174.723C67.3488 165.272 63.0764 152.387 61.1741 141.819C60.224 136.542 59.8677 131.857 59.7491 128.493C59.6898 126.811 59.6899 125.46 59.7048 124.53C59.7113 124.118 59.7208 123.789 59.7293 123.551C59.9674 123.543 60.2964 123.533 60.7085 123.527C61.6376 123.512 62.9887 123.512 64.6705 123.571C68.035 123.69 72.7196 124.046 77.9974 124.996C88.5645 126.898 101.45 131.171 110.901 140.622C120.352 150.073 124.624 162.959 126.527 173.526C127.221 177.383 127.598 180.924 127.797 183.864C127.726 184.932 127.678 185.921 127.646 186.817C127.586 188.518 127.586 189.886 127.601 190.831ZM128.972 191.805C128.98 191.563 128.989 191.236 128.996 190.831C129.011 189.886 129.011 188.518 128.951 186.817C128.919 185.921 128.871 184.932 128.8 183.864C128.999 180.924 129.376 177.383 130.07 173.526C131.973 162.959 136.245 150.073 145.696 140.622C155.147 131.171 168.032 126.898 178.6 124.996C183.877 124.046 188.562 123.69 191.926 123.571C193.608 123.512 194.959 123.512 195.888 123.527C196.301 123.533 196.63 123.543 196.868 123.551C196.876 123.789 196.886 124.118 196.892 124.53C196.907 125.46 196.907 126.811 196.848 128.493C196.729 131.857 196.373 136.542 195.423 141.819C193.521 152.387 189.248 165.272 179.797 174.723C170.346 184.174 157.461 188.447 146.894 190.349C141.616 191.299 136.931 191.656 133.567 191.774C131.885 191.833 130.534 191.833 129.605 191.818C129.365 191.815 129.154 191.81 128.972 191.805Z" stroke="url(#paint8_linear_76_39)" stroke-opacity="0.5"/>
</g>
<g filter="url(#filter2_ddi_76_39)">
<path d="M128.4 51C128.4 51 132.977 68.9444 140.916 76.8838C148.856 84.8232 166.8 89.4 166.8 89.4C166.8 89.4 148.856 93.9768 140.916 101.916C132.977 109.856 128.4 127.8 128.4 127.8C128.4 127.8 123.823 109.856 115.884 101.916C107.944 93.9768 90 89.4 90 89.4C90 89.4 107.944 84.8232 115.884 76.8838C123.823 68.9444 128.4 51 128.4 51Z" fill="url(#paint9_linear_76_39)"/>
<path d="M164.934 89.4C164.577 89.504 164.172 89.6245 163.726 89.7611C161.911 90.3169 159.407 91.1411 156.654 92.215C151.166 94.3552 144.611 97.5147 140.563 101.563C136.515 105.611 133.355 112.166 131.215 117.654C130.141 120.407 129.317 122.911 128.761 124.726C128.624 125.172 128.504 125.577 128.4 125.934C128.296 125.577 128.176 125.172 128.039 124.726C127.483 122.911 126.659 120.407 125.585 117.654C123.445 112.166 120.285 105.611 116.237 101.563C112.189 97.5147 105.634 94.3552 100.146 92.215C97.3927 91.1411 94.8893 90.3169 93.0743 89.7611C92.628 89.6245 92.2233 89.504 91.8665 89.4C92.2233 89.296 92.628 89.1755 93.0743 89.0389C94.8893 88.4831 97.3927 87.6589 100.146 86.585C105.634 84.4448 112.189 81.2853 116.237 77.2373C120.285 73.1894 123.445 66.634 125.585 61.1463C126.659 58.3927 127.483 55.8893 128.039 54.0743C128.176 53.628 128.296 53.2233 128.4 52.8665C128.504 53.2233 128.624 53.628 128.761 54.0743C129.317 55.8893 130.141 58.3927 131.215 61.1463C133.355 66.634 136.515 73.1894 140.563 77.2373C144.611 81.2853 151.166 84.4448 156.654 86.585C159.407 87.6589 161.911 88.4831 163.726 89.0389C164.172 89.1755 164.577 89.296 164.934 89.4Z" stroke="url(#paint10_linear_76_39)" stroke-linejoin="round"/>
</g>
<defs>
<filter id="filter0_i_76_39" x="17.1488" y="3.96033" width="221.703" height="251.279" filterUnits="userSpaceOnUse" color-interpolation-filters="sRGB">
<feFlood flood-opacity="0" result="BackgroundImageFix"/>
<feBlend mode="normal" in="SourceGraphic" in2="BackgroundImageFix" result="shape"/>
<feColorMatrix in="SourceAlpha" type="matrix" values="0 0 0 0 0 0 0 0 0 0 0 0 0 0 0 0 0 0 127 0" result="hardAlpha"/>
<feOffset dy="3.2"/>
<feGaussianBlur stdDeviation="8"/>
<feComposite in2="hardAlpha" operator="arithmetic" k2="-1" k3="1"/>
<feColorMatrix type="matrix" values="0 0 0 0 0 0 0 0 0 0 0 0 0 0 0 0 0 0 1 0"/>
<feBlend mode="normal" in2="shape" result="effect1_innerShadow_76_39"/>
</filter>
<filter id="filter1_dd_76_39" x="48.3379" y="123.018" width="159.921" height="91.0255" filterUnits="userSpaceOnUse" color-interpolation-filters="sRGB">
<feFlood flood-opacity="0" result="BackgroundImageFix"/>
<feColorMatrix in="SourceAlpha" type="matrix" values="0 0 0 0 0 0 0 0 0 0 0 0 0 0 0 0 0 0 127 0" result="hardAlpha"/>
<feMorphology radius="1.80977" operator="erode" in="SourceAlpha" result="effect1_dropShadow_76_39"/>
<feOffset dy="3.61953"/>
<feGaussianBlur stdDeviation="2.71465"/>
<feColorMatrix type="matrix" values="0 0 0 0 0.0627451 0 0 0 0 0.0941176 0 0 0 0 0.156863 0 0 0 0.03 0"/>
<feBlend mode="normal" in2="BackgroundImageFix" result="effect1_dropShadow_76_39"/>
<feColorMatrix in="SourceAlpha" type="matrix" values="0 0 0 0 0 0 0 0 0 0 0 0 0 0 0 0 0 0 127 0" result="hardAlpha"/>
<feMorphology radius="3.61953" operator="erode" in="SourceAlpha" result="effect2_dropShadow_76_39"/>
<feOffset dy="10.8586"/>
<feGaussianBlur stdDeviation="7.23906"/>
<feColorMatrix type="matrix" values="0 0 0 0 0.0627451 0 0 0 0 0.0941176 0 0 0 0 0.156863 0 0 0 0.08 0"/>
<feBlend mode="normal" in2="effect1_dropShadow_76_39" result="effect2_dropShadow_76_39"/>
<feBlend mode="normal" in="SourceGraphic" in2="effect2_dropShadow_76_39" result="shape"/>
</filter>
<filter id="filter2_ddi_76_39" x="89" y="50.5" width="78.8" height="78.8" filterUnits="userSpaceOnUse" color-interpolation-filters="sRGB">
<feFlood flood-opacity="0" result="BackgroundImageFix"/>
<feColorMatrix in="SourceAlpha" type="matrix" values="0 0 0 0 0 0 0 0 0 0 0 0 0 0 0 0 0 0 127 0" result="hardAlpha"/>
<feOffset dy="0.25"/>
<feGaussianBlur stdDeviation="0.25"/>
<feColorMatrix type="matrix" values="0 0 0 0 0.0627451 0 0 0 0 0.0941176 0 0 0 0 0.156863 0 0 0 0.06 0"/>
<feBlend mode="normal" in2="BackgroundImageFix" result="effect1_dropShadow_76_39"/>
<feColorMatrix in="SourceAlpha" type="matrix" values="0 0 0 0 0 0 0 0 0 0 0 0 0 0 0 0 0 0 127 0" result="hardAlpha"/>
<feOffset dy="0.5"/>
<feGaussianBlur stdDeviation="0.5"/>
<feColorMatrix type="matrix" values="0 0 0 0 0.0627451 0 0 0 0 0.0941176 0 0 0 0 0.156863 0 0 0 0.1 0"/>
<feBlend mode="normal" in2="effect1_dropShadow_76_39" result="effect2_dropShadow_76_39"/>
<feBlend mode="normal" in="SourceGraphic" in2="effect2_dropShadow_76_39" result="shape"/>
<feColorMatrix in="SourceAlpha" type="matrix" values="0 0 0 0 0 0 0 0 0 0 0 0 0 0 0 0 0 0 127 0" result="hardAlpha"/>
<feOffset dy="0.5"/>
<feGaussianBlur stdDeviation="0.625"/>
<feComposite in2="hardAlpha" operator="arithmetic" k2="-1" k3="1"/>
<feColorMatrix type="matrix" values="0 0 0 0 1 0 0 0 0 1 0 0 0 0 1 0 0 0 1 0"/>
<feBlend mode="normal" in2="shape" result="effect3_innerShadow_76_39"/>
</filter>
<radialGradient id="paint0_radial_76_39" cx="0" cy="0" r="1" gradientUnits="userSpaceOnUse" gradientTransform="translate(128 120.4) rotate(-90) scale(133.2 131.493)">
<stop stop-color="#003647"/>
<stop offset="1" stop-color="#0E0D1B"/>
</radialGradient>
<linearGradient id="paint1_linear_76_39" x1="128" y1="0.0887912" x2="128" y2="255.911" gradientUnits="userSpaceOnUse">
<stop/>
<stop offset="1" stop-color="#2D3749"/>
</linearGradient>
<radialGradient id="paint2_radial_76_39" cx="0" cy="0" r="1" gradientUnits="userSpaceOnUse" gradientTransform="translate(78.866 47.9075) rotate(36.9219) scale(85.7889 101.022)">
<stop stop-color="#FFF500"/>
<stop offset="1" stop-color="#27FFB1" stop-opacity="0.53"/>
</radialGradient>
<linearGradient id="paint3_linear_76_39" x1="102.385" y1="210.764" x2="212.568" y2="103.307" gradientUnits="userSpaceOnUse">
<stop stop-color="#30FFB4"/>
<stop offset="1" stop-color="#00B68A"/>
</linearGradient>
<linearGradient id="paint4_linear_76_39" x1="111.25" y1="136.25" x2="111.25" y2="203.75" gradientUnits="userSpaceOnUse">
<stop stop-color="#86CEEA"/>
<stop offset="1" stop-color="#6AADFC"/>
</linearGradient>
<radialGradient id="paint5_radial_76_39" cx="0" cy="0" r="1" gradientUnits="userSpaceOnUse" gradientTransform="translate(78.866 47.9075) rotate(36.9219) scale(85.7889 101.022)">
<stop stop-color="#FFF500"/>
<stop offset="1" stop-color="#27FFB1" stop-opacity="0.53"/>
</radialGradient>
<linearGradient id="paint6_linear_76_39" x1="102.385" y1="210.764" x2="212.568" y2="103.307" gradientUnits="userSpaceOnUse">
<stop stop-color="#30FFB4"/>
<stop offset="1" stop-color="#00B68A"/>
</linearGradient>
<linearGradient id="paint7_linear_76_39" x1="111.25" y1="136.25" x2="111.25" y2="203.75" gradientUnits="userSpaceOnUse">
<stop stop-color="#86CEEA"/>
<stop offset="1" stop-color="#6AADFC"/>
</linearGradient>
<linearGradient id="paint8_linear_76_39" x1="128.298" y1="72.9609" x2="128.298" y2="192.001" gradientUnits="userSpaceOnUse">
<stop stop-color="white"/>
<stop offset="1" stop-color="white" stop-opacity="0"/>
</linearGradient>
<linearGradient id="paint9_linear_76_39" x1="139.053" y1="45.6" x2="139.053" y2="135" gradientUnits="userSpaceOnUse">
<stop stop-color="white"/>
<stop offset="1" stop-color="#CBE1F0"/>
</linearGradient>
<linearGradient id="paint10_linear_76_39" x1="128.4" y1="51" x2="119.621" y2="120.694" gradientUnits="userSpaceOnUse">
<stop stop-color="white"/>
<stop offset="1" stop-color="#D0DDE8"/>
</linearGradient>
</defs>
</svg>
