<svg width="96" height="96" viewBox="0 0 96 96" fill="none" xmlns="http://www.w3.org/2000/svg">
<path d="M43.0978 1.80894C46.1312 0.0575823 49.8686 0.0575819 52.902 1.80894L85.5514 20.6591C88.5849 22.4105 90.4536 25.6471 90.4536 29.1498V66.8501C90.4536 70.3528 88.5849 73.5895 85.5514 75.3409L52.902 94.191C49.8686 95.9424 46.1312 95.9424 43.0978 94.191L10.4483 75.3409C7.41488 73.5895 5.5462 70.3528 5.5462 66.8501V29.1498C5.5462 25.6471 7.41488 22.4105 10.4483 20.6591L43.0978 1.80894Z" fill="url(#paint0_linear_76_65)"/>
<g filter="url(#filter0_dd_76_65)">
<path d="M67.9726 66.0294C60.6541 73.3479 48.0559 72.6154 48.0559 72.6154C48.0559 72.6154 47.3234 60.0171 54.6419 52.6986C61.9604 45.38 74.5586 46.1125 74.5586 46.1125C74.5586 46.1125 75.2911 58.7108 67.9726 66.0294Z" fill="url(#paint1_radial_76_65)"/>
<path d="M67.9726 66.0294C60.6541 73.3479 48.0559 72.6154 48.0559 72.6154C48.0559 72.6154 47.3234 60.0171 54.6419 52.6986C61.9604 45.38 74.5586 46.1125 74.5586 46.1125C74.5586 46.1125 75.2911 58.7108 67.9726 66.0294Z" fill="url(#paint2_linear_76_65)"/>
<path d="M67.9726 66.0294C60.6541 73.3479 48.0559 72.6154 48.0559 72.6154C48.0559 72.6154 47.3234 60.0171 54.6419 52.6986C61.9604 45.38 74.5586 46.1125 74.5586 46.1125C74.5586 46.1125 75.2911 58.7108 67.9726 66.0294Z" fill="url(#paint3_linear_76_65)"/>
<path d="M28.2562 66.0294C35.5747 73.3479 48.1728 72.6154 48.1728 72.6154C48.1728 72.6154 48.9053 60.0171 41.5868 52.6986C34.2683 45.38 21.6702 46.1125 21.6702 46.1125C21.6702 46.1125 20.9376 58.7108 28.2562 66.0294Z" fill="url(#paint4_radial_76_65)"/>
<path d="M28.2562 66.0294C35.5747 73.3479 48.1728 72.6154 48.1728 72.6154C48.1728 72.6154 48.9053 60.0171 41.5868 52.6986C34.2683 45.38 21.6702 46.1125 21.6702 46.1125C21.6702 46.1125 20.9376 58.7108 28.2562 66.0294Z" fill="url(#paint5_linear_76_65)"/>
<path d="M28.2562 66.0294C35.5747 73.3479 48.1728 72.6154 48.1728 72.6154C48.1728 72.6154 48.9053 60.0171 41.5868 52.6986C34.2683 45.38 21.6702 46.1125 21.6702 46.1125C21.6702 46.1125 20.9376 58.7108 28.2562 66.0294Z" fill="url(#paint6_linear_76_65)"/>
<path d="M48.5611 72.2567C48.5625 72.1991 48.5638 72.1354 48.565 72.0658C48.5708 71.7013 48.5708 71.1741 48.5477 70.5194C48.5357 70.1778 48.5173 69.8012 48.4902 69.3948C48.5663 68.277 48.7099 66.9323 48.9735 65.4679C49.6991 61.4376 51.3255 56.5454 54.9071 52.9637C58.4887 49.3821 63.3808 47.7557 67.4111 47.0302C69.422 46.6682 71.2071 46.5324 72.489 46.4872C73.1297 46.4646 73.6439 46.4647 73.997 46.4703C74.0707 46.4715 74.1374 46.4729 74.1967 46.4744C74.1982 46.5338 74.1996 46.6004 74.2008 46.6742C74.2065 47.0272 74.2065 47.5415 74.1839 48.1822C74.1387 49.464 74.003 51.2492 73.641 53.2601C72.9154 57.2904 71.2891 62.1825 67.7074 65.7642C64.1258 69.3459 59.2337 70.9722 55.2034 71.6978C53.1926 72.0598 51.4074 72.1955 50.1255 72.2407C49.4848 72.2633 48.9706 72.2633 48.6175 72.2576C48.5982 72.2573 48.5794 72.257 48.5611 72.2567ZM47.2552 65.4679C47.5188 66.9323 47.6625 68.277 47.7385 69.3948C47.7114 69.8012 47.6931 70.1778 47.6811 70.5194C47.658 71.1741 47.658 71.7013 47.6638 72.0658C47.6649 72.1354 47.6662 72.1991 47.6677 72.2567C47.6493 72.257 47.6305 72.2573 47.6112 72.2576C47.2582 72.2633 46.7439 72.2633 46.1032 72.2407C44.8214 72.1955 43.0362 72.0598 41.0254 71.6978C36.9951 70.9722 32.1029 69.3459 28.5213 65.7642C24.9397 62.1825 23.3133 57.2904 22.5878 53.2601C22.2258 51.2492 22.09 49.464 22.0448 48.1822C22.0222 47.5415 22.0223 47.0272 22.0279 46.6742C22.0291 46.6004 22.0305 46.5338 22.032 46.4744C22.0914 46.4729 22.1581 46.4715 22.2318 46.4703C22.5848 46.4647 23.0991 46.4646 23.7398 46.4872C25.0216 46.5324 26.8068 46.6682 28.8176 47.0302C32.8479 47.7557 37.74 49.3821 41.3217 52.9637C44.9033 56.5454 46.5297 61.4376 47.2552 65.4679Z" stroke="url(#paint7_linear_76_65)" stroke-opacity="0.5" stroke-width="0.75"/>
</g>
<g filter="url(#filter1_ddi_76_65)">
<path d="M48.0001 18.5872C48.0001 18.5872 49.7529 25.4596 52.7935 28.5002C55.8341 31.5408 62.7065 33.2936 62.7065 33.2936C62.7065 33.2936 55.8342 35.0465 52.7935 38.0871C49.7529 41.1277 48.0001 48 48.0001 48C48.0001 48 46.2473 41.1277 43.2066 38.0871C40.166 35.0465 33.2937 33.2936 33.2937 33.2936C33.2937 33.2936 40.166 31.5408 43.2066 28.5002C46.2473 25.4596 48.0001 18.5872 48.0001 18.5872Z" fill="url(#paint8_linear_76_65)"/>
<path d="M58.754 32.3865C59.754 32.7765 60.668 33.0809 61.3547 33.2936C60.668 33.5064 59.754 33.8107 58.754 34.2008C56.6489 35.0217 54.1074 36.2429 52.5284 37.8219C50.9494 39.4009 49.7282 41.9425 48.9072 44.0475C48.5172 45.0476 48.2128 45.9616 48.0001 46.6482C47.7873 45.9616 47.483 45.0476 47.093 44.0475C46.272 41.9425 45.0508 39.4009 43.4718 37.8219C41.8928 36.2429 39.3512 35.0217 37.2462 34.2008C36.2462 33.8107 35.3321 33.5064 34.6455 33.2936C35.3321 33.0809 36.2462 32.7765 37.2462 32.3865C39.3512 31.5655 41.8928 30.3444 43.4718 28.7654C45.0508 27.1864 46.272 24.6448 47.093 22.5397C47.483 21.5397 47.7873 20.6257 48.0001 19.939C48.2128 20.6257 48.5172 21.5397 48.9072 22.5397C49.7282 24.6448 50.9494 27.1864 52.5284 28.7654C54.1074 30.3444 56.6489 31.5655 58.754 32.3865Z" stroke="url(#paint9_linear_76_65)" stroke-width="0.75" stroke-linejoin="round"/>
</g>
<defs>
<filter id="filter0_dd_76_65" x="18.8774" y="46.0922" width="58.474" height="32.0884" filterUnits="userSpaceOnUse" color-interpolation-filters="sRGB">
<feFlood flood-opacity="0" result="BackgroundImageFix"/>
<feColorMatrix in="SourceAlpha" type="matrix" values="0 0 0 0 0 0 0 0 0 0 0 0 0 0 0 0 0 0 127 0" result="hardAlpha"/>
<feMorphology radius="0.462068" operator="erode" in="SourceAlpha" result="effect1_dropShadow_76_65"/>
<feOffset dy="0.924136"/>
<feGaussianBlur stdDeviation="0.693102"/>
<feColorMatrix type="matrix" values="0 0 0 0 0.0627451 0 0 0 0 0.0941176 0 0 0 0 0.156863 0 0 0 0.03 0"/>
<feBlend mode="normal" in2="BackgroundImageFix" result="effect1_dropShadow_76_65"/>
<feColorMatrix in="SourceAlpha" type="matrix" values="0 0 0 0 0 0 0 0 0 0 0 0 0 0 0 0 0 0 127 0" result="hardAlpha"/>
<feMorphology radius="0.924136" operator="erode" in="SourceAlpha" result="effect2_dropShadow_76_65"/>
<feOffset dy="2.77241"/>
<feGaussianBlur stdDeviation="1.84827"/>
<feColorMatrix type="matrix" values="0 0 0 0 0.0627451 0 0 0 0 0.0941176 0 0 0 0 0.156863 0 0 0 0.08 0"/>
<feBlend mode="normal" in2="effect1_dropShadow_76_65" result="effect2_dropShadow_76_65"/>
<feBlend mode="normal" in="SourceGraphic" in2="effect2_dropShadow_76_65" result="shape"/>
</filter>
<filter id="filter1_ddi_76_65" x="32.7831" y="18.3319" width="30.4341" height="30.4341" filterUnits="userSpaceOnUse" color-interpolation-filters="sRGB">
<feFlood flood-opacity="0" result="BackgroundImageFix"/>
<feColorMatrix in="SourceAlpha" type="matrix" values="0 0 0 0 0 0 0 0 0 0 0 0 0 0 0 0 0 0 127 0" result="hardAlpha"/>
<feOffset dy="0.12766"/>
<feGaussianBlur stdDeviation="0.12766"/>
<feColorMatrix type="matrix" values="0 0 0 0 0.0627451 0 0 0 0 0.0941176 0 0 0 0 0.156863 0 0 0 0.06 0"/>
<feBlend mode="normal" in2="BackgroundImageFix" result="effect1_dropShadow_76_65"/>
<feColorMatrix in="SourceAlpha" type="matrix" values="0 0 0 0 0 0 0 0 0 0 0 0 0 0 0 0 0 0 127 0" result="hardAlpha"/>
<feOffset dy="0.255319"/>
<feGaussianBlur stdDeviation="0.255319"/>
<feColorMatrix type="matrix" values="0 0 0 0 0.0627451 0 0 0 0 0.0941176 0 0 0 0 0.156863 0 0 0 0.1 0"/>
<feBlend mode="normal" in2="effect1_dropShadow_76_65" result="effect2_dropShadow_76_65"/>
<feBlend mode="normal" in="SourceGraphic" in2="effect2_dropShadow_76_65" result="shape"/>
<feColorMatrix in="SourceAlpha" type="matrix" values="0 0 0 0 0 0 0 0 0 0 0 0 0 0 0 0 0 0 127 0" result="hardAlpha"/>
<feOffset dy="0.255319"/>
<feGaussianBlur stdDeviation="0.319149"/>
<feComposite in2="hardAlpha" operator="arithmetic" k2="-1" k3="1"/>
<feColorMatrix type="matrix" values="0 0 0 0 1 0 0 0 0 1 0 0 0 0 1 0 0 0 1 0"/>
<feBlend mode="normal" in2="shape" result="effect3_innerShadow_76_65"/>
</filter>
<linearGradient id="paint0_linear_76_65" x1="47.9999" y1="-0.987293" x2="47.9999" y2="96.9872" gradientUnits="userSpaceOnUse">
<stop/>
<stop offset="1" stop-color="#2D3749"/>
</linearGradient>
<radialGradient id="paint1_radial_76_65" cx="0" cy="0" r="1" gradientUnits="userSpaceOnUse" gradientTransform="translate(29.1828 17.3263) rotate(36.9219) scale(32.8553 38.6895)">
<stop stop-color="#FFF500"/>
<stop offset="1" stop-color="#27FFB1" stop-opacity="0.53"/>
</radialGradient>
<linearGradient id="paint2_linear_76_65" x1="38.1902" y1="79.697" x2="80.388" y2="38.5432" gradientUnits="userSpaceOnUse">
<stop stop-color="#30FFB4"/>
<stop offset="1" stop-color="#00B68A"/>
</linearGradient>
<linearGradient id="paint3_linear_76_65" x1="41.5852" y1="51.1596" x2="41.5852" y2="77.0106" gradientUnits="userSpaceOnUse">
<stop stop-color="#86CEEA"/>
<stop offset="1" stop-color="#6AADFC"/>
</linearGradient>
<radialGradient id="paint4_radial_76_65" cx="0" cy="0" r="1" gradientUnits="userSpaceOnUse" gradientTransform="translate(29.1828 17.3263) rotate(36.9219) scale(32.8553 38.6895)">
<stop stop-color="#FFF500"/>
<stop offset="1" stop-color="#27FFB1" stop-opacity="0.53"/>
</radialGradient>
<linearGradient id="paint5_linear_76_65" x1="38.1902" y1="79.697" x2="80.388" y2="38.5432" gradientUnits="userSpaceOnUse">
<stop stop-color="#30FFB4"/>
<stop offset="1" stop-color="#00B68A"/>
</linearGradient>
<linearGradient id="paint6_linear_76_65" x1="41.5852" y1="51.1596" x2="41.5852" y2="77.0106" gradientUnits="userSpaceOnUse">
<stop stop-color="#86CEEA"/>
<stop offset="1" stop-color="#6AADFC"/>
</linearGradient>
<linearGradient id="paint7_linear_76_65" x1="48.1144" y1="26.9212" x2="48.1144" y2="72.511" gradientUnits="userSpaceOnUse">
<stop stop-color="white"/>
<stop offset="1" stop-color="white" stop-opacity="0"/>
</linearGradient>
<linearGradient id="paint8_linear_76_65" x1="52.08" y1="16.5192" x2="52.08" y2="50.7575" gradientUnits="userSpaceOnUse">
<stop stop-color="white"/>
<stop offset="1" stop-color="#CBE1F0"/>
</linearGradient>
<linearGradient id="paint9_linear_76_65" x1="48.0001" y1="18.5872" x2="44.6379" y2="45.2786" gradientUnits="userSpaceOnUse">
<stop stop-color="white"/>
<stop offset="1" stop-color="#D0DDE8"/>
</linearGradient>
</defs>
</svg>
