<?xml version="1.0" encoding="UTF-8"?>
<svg id="Layer_1" xmlns="http://www.w3.org/2000/svg" version="1.1" viewBox="0 0 200 200">
  <!-- Generator: Adobe Illustrator 29.3.1, SVG Export Plug-In . SVG Version: 2.1.0 Build 151)  -->
  <defs>
    <style>
      .st0 {
        fill: #f5bb39;
      }

      .st1 {
        fill: #0a2e3d;
      }
    </style>
  </defs>
  <g>
    <path class="st1" d="M105.5,126.6c-.6,2.2-2.6,3.8-4.9,3.8s-4.4-1.6-4.9-3.8l-14.5-57.6c-2.2-8.8-10.2-15.4-19.7-15.4s-20.3,9.1-20.3,20.3v4.6c0,4.2,3.4,7.7,7.7,7.7s7.7-3.4,7.7-7.7v-4.6c0-2.7,2.2-4.9,4.9-4.9s4.3,1.6,4.8,3.7l14.8,58.5c2.3,8.7,10.2,15.1,19.6,15.1s17.3-6.4,19.6-15.1l14.8-58.5c.5-2.1,2.5-3.7,4.8-3.7s4.9,2.2,4.9,4.9v64.7c0,4.2,3.4,7.7,7.7,7.7s7.7-3.4,7.7-7.7v-64.7c0-11.2-9.1-20.3-20.3-20.3s-17.5,6.6-19.7,15.4l-14.5,57.6Z"/>
    <path class="st1" d="M56.4,138.7c0,4.2-3.4,7.7-7.7,7.7s-7.7-3.4-7.7-7.7v-17.2c0-4.2,3.4-7.7,7.7-7.7s7.7,3.4,7.7,7.7v17.2Z"/>
  </g>
  <path class="st0" d="M43.5,94.7c.9-.9,1.8-1.7,2.5-2.4h0c1.5-1.5,3.9-1.5,5.4,0h0c.7.7,1.5,1.5,2.5,2.4h0c.9,1,1.7,1.8,2.4,2.5h0c1.4,1.6,1.4,4,0,5.5h0c-.6.8-1.4,1.6-2.4,2.5h0c-.9,1-1.8,1.7-2.4,2.4h0c-1.5,1.5-3.9,1.5-5.4,0h0c-.7-.7-1.5-1.5-2.5-2.4h0c-1-1-1.7-1.8-2.4-2.5h0c-1.4-1.6-1.4-4,0-5.5h0c.6-.8,1.4-1.6,2.4-2.5h0Z"/>
</svg>