<svg width="256" height="256" viewBox="0 0 256 256" fill="none" xmlns="http://www.w3.org/2000/svg">
<path d="M253.44 128C253.44 58.7215 197.279 2.56006 128 2.56006C58.7215 2.56006 2.56006 58.7215 2.56006 128C2.56006 197.279 58.7215 253.44 128 253.44C197.279 253.44 253.44 197.279 253.44 128Z" fill="white"/>
<mask id="mask0_1648_225467" style="mask-type:luminance" maskUnits="userSpaceOnUse" x="51" y="61" width="154" height="134">
<path d="M204.8 61.4399H51.2V194.56H204.8V61.4399Z" fill="white"/>
</mask>
<g mask="url(#mask0_1648_225467)">
<path d="M192.406 147.844C192.911 148.245 193.242 148.591 193.739 149.001C194.04 149.249 194.042 149.249 194.337 148.979C194.542 148.789 194.742 148.591 194.953 148.406C195.801 147.649 196.943 147.686 197.734 148.509C198.049 148.839 198.346 149.188 198.622 149.553C199.306 150.45 199.238 151.622 198.466 152.438C198.249 152.667 198.019 152.883 197.786 153.092C197.59 153.266 197.583 153.434 197.722 153.652C198.007 154.101 198.284 154.555 198.551 155.015C198.892 155.597 199.194 156.203 199.481 156.815C199.754 157.398 199.754 157.393 200.32 157.206C200.595 157.107 200.874 157.024 201.158 156.958C202.08 156.771 202.954 157.241 203.348 158.146C203.587 158.704 203.765 159.289 203.881 159.889C204.05 160.744 203.554 161.693 202.761 162.115C202.454 162.276 202.116 162.347 201.795 162.468C201.406 162.615 201.372 162.644 201.436 163.045C201.642 164.304 201.786 165.57 201.795 166.85C201.798 167.13 201.898 167.289 202.175 167.313C202.413 167.333 202.65 167.38 202.886 167.406C203.831 167.509 204.474 168.005 204.753 168.981C204.777 169.065 204.839 170.826 204.756 171.303C204.575 172.357 203.796 173.108 202.772 173.15C202.55 173.161 202.328 173.146 202.111 173.106C201.707 173.028 201.439 173.207 201.341 173.618C201.101 174.628 200.777 175.609 200.43 176.582C200.328 176.863 200.387 177.11 200.61 177.308C200.725 177.411 201.173 177.919 201.246 178.088C201.412 178.476 200.693 177.872 200.527 177.772C200.148 177.542 195.494 174.835 193.761 173.864C193.885 172.9 194.332 171.665 194.513 170.714C195.431 165.867 194.481 161.446 191.822 157.409C189.61 154.052 186.582 151.905 182.862 150.84C179.588 149.902 176.343 150.093 173.16 151.317C170.527 152.329 167.643 153.99 166.061 156.606C165.88 156.819 165.794 156.794 165.508 156.66C164.517 156.14 160.637 153.479 159.059 152.511C158.361 151.773 157.898 150.563 158.423 149.671C158.798 149.034 159.301 148.518 159.842 148.053C160.601 147.402 161.701 147.42 162.507 148.033C163.508 148.793 163.506 148.789 164.478 147.973C164.985 147.547 165.526 147.169 166.059 146.778C166.555 146.417 166.591 146.271 166.359 145.703C165.726 144.153 166.131 142.977 167.56 142.211C167.938 141.999 168.333 141.823 168.74 141.684C169.83 141.335 170.835 141.744 171.428 142.767C172.046 143.835 172.043 143.833 173.207 143.551C173.822 143.402 174.445 143.296 175.067 143.177C175.688 143.057 175.782 142.954 175.818 142.307C175.832 141.984 175.878 141.662 175.956 141.35C176.12 140.724 176.417 140.175 177.033 139.929C178.206 139.458 179.391 139.368 180.542 139.987C181.221 140.351 181.538 140.979 181.547 141.793C181.56 143.012 181.568 143.022 182.698 143.215C183.442 143.342 184.169 143.531 184.899 143.712C185.454 143.851 185.597 143.796 185.814 143.234C186.359 141.81 187.719 141.083 189.322 141.912C189.777 142.147 190.254 142.319 190.651 142.699C191.452 143.464 191.508 144.593 191.179 145.417C191.132 145.532 191.076 145.643 191.03 145.76C190.811 146.332 190.787 146.666 190.787 146.666C190.787 146.666 191.91 147.45 192.406 147.844Z" fill="#5F5F5F"/>
<path d="M193.506 173.397C193.971 173.866 200.197 177.453 200.734 177.792C200.893 177.814 201.016 177.925 201.161 177.987C201.272 178.091 201.37 178.198 201.471 178.315C201.964 179.042 201.955 179.809 201.67 180.612C201.488 181.038 201.272 181.446 201.02 181.83C200.434 182.76 199.352 183.052 198.401 182.547C198.112 182.394 197.831 182.224 197.557 182.039C197.357 181.909 197.22 181.944 197.08 182.139C196.318 183.2 195.47 184.191 194.548 185.099C194.363 185.282 194.341 185.441 194.497 185.654C194.677 185.892 194.844 186.143 195.006 186.396C195.663 187.422 195.486 188.606 194.557 189.367C194.234 189.63 193.904 189.887 193.561 190.123C192.638 190.754 191.556 190.576 190.853 189.683C190.658 189.433 190.477 189.172 190.307 188.901C190.158 188.665 190.008 188.612 189.757 188.762C188.702 189.394 187.587 189.893 186.45 190.335C186.037 190.497 186.041 190.503 186.121 190.958C186.15 191.117 186.173 191.278 186.201 191.436C186.467 192.771 186.164 193.494 185.055 194.179C184.769 194.346 184.44 194.32 184.133 194.405C183.597 194.541 183.056 194.529 182.51 194.501C182.332 194.409 182.154 194.308 181.98 194.207C181.455 193.747 181.221 193.14 181.085 192.445C180.901 191.503 181.013 191.656 180.189 191.696C179.098 191.75 178.004 191.745 176.913 191.681C176.489 191.656 176.489 191.655 176.391 192.068C176.346 192.261 176.294 192.452 176.267 192.647C176.09 193.881 175.147 194.807 173.642 194.506C173.274 194.432 172.91 194.331 172.551 194.219C171.522 193.901 170.927 192.857 171.134 191.746C171.184 191.465 171.247 191.184 171.299 190.902C171.37 190.519 171.365 190.498 170.999 190.354C170.296 190.075 169.595 189.791 168.919 189.447C168.519 189.245 168.124 189.032 167.729 188.817C167.319 188.595 167.323 188.592 167.035 188.997C166.881 189.213 166.738 189.436 166.579 189.644C165.877 190.571 164.771 190.765 163.836 190.117C163.481 189.87 163.133 189.606 162.798 189.327C161.946 188.615 161.762 187.444 162.349 186.478C162.522 186.19 162.716 185.916 162.912 185.644C163.048 185.456 163.057 185.304 162.882 185.131C161.947 184.209 161.09 183.204 160.319 182.126C160.172 181.922 160.028 181.923 159.839 182.048C159.608 182.201 159.368 182.34 159.128 182.48C158.051 183.097 156.93 182.792 156.298 181.683C156.072 181.285 155.795 180.92 155.64 180.475C155.255 179.37 155.579 178.346 156.542 177.731C156.746 177.6 156.956 177.479 157.157 177.348C157.512 177.12 157.522 177.113 157.365 176.712C157.039 175.881 156.76 175.031 156.526 174.168C156.423 173.789 156.326 173.405 156.241 173.02C156.18 172.739 156.04 172.63 155.766 172.691C155.547 172.734 155.327 172.764 155.106 172.782C153.803 172.927 152.839 172.106 152.702 170.738C152.665 170.36 152.625 169.986 152.6 169.61C152.566 169.065 152.73 168.527 153.061 168.107C153.392 167.687 153.863 167.417 154.378 167.351C154.665 167.314 154.954 167.291 155.24 167.244C155.614 167.179 155.627 167.17 155.632 166.759C155.648 165.862 155.715 164.965 155.827 164.073C155.874 163.682 155.998 163.301 155.971 162.9C155.943 162.625 155.832 162.455 155.623 162.369C155.48 162.326 155.446 162.307 155.233 162.251C154.811 162.143 154.429 161.951 154.124 161.625" fill="#414141"/>
<path d="M155.989 163.145C156.038 162.869 155.925 162.456 155.657 162.376C155.427 162.309 155.06 162.164 154.831 162.091C153.922 161.802 153.351 161.047 153.252 160.031C153.136 159.6 153.497 158.202 153.661 157.748C154.029 156.75 154.928 156.169 155.942 156.33C156.161 156.364 156.376 156.422 156.583 156.504C156.966 156.661 157.261 156.538 157.43 156.154C157.847 155.211 158.471 154.276 158.873 153.325C159.262 152.407 158.986 152.483 159.123 152.515C159.455 152.816 164.302 155.3 165.83 156.598C164.836 157.732 162.623 162.868 162.532 164.586" fill="#414141"/>
<path d="M165.887 156.516C168.982 152.992 171.197 151.48 174.252 150.566C176.11 150.004 178.051 149.8 179.979 149.963C183.222 150.239 186.151 151.432 188.731 153.54C191.004 155.401 192.661 157.757 193.791 160.537C194.482 162.237 194.848 164.014 195.018 165.856C195.262 168.494 194.727 171.441 193.867 173.899C193.693 174.062 190.528 171.779 190.189 171.334C190.112 171.094 190.208 170.874 190.266 170.652C190.577 169.451 190.779 168.231 190.743 166.983C190.572 160.984 186.693 156.036 181.327 154.827C177.368 153.935 173.169 154.836 169.325 158.951C169.228 159.008 169.199 158.884 168.547 158.41C167.451 157.708 166.912 157.268 166.163 156.79C165.733 156.526 165.755 156.669 165.887 156.516Z" fill="#414141"/>
<path d="M193.93 173.726C193.826 173.899 193.734 174.078 193.651 174.263C192.707 176.66 191.196 178.627 189.354 180.293C186.945 182.474 184.15 183.834 180.977 184.271C180.199 184.379 179.421 184.497 178.635 184.47C176.363 184.395 174.167 183.954 172.07 182.992C170.739 182.377 169.493 181.576 168.367 180.61C166.613 179.116 165.188 177.32 164.142 175.192C163.181 173.232 162.627 171.158 162.393 168.973C162.188 167.092 162.349 165.246 162.723 163.404C163.15 161.305 163.947 159.369 165.061 157.576C165.22 157.321 165.68 156.741 165.83 156.596C166.64 157.038 168.848 158.575 169.202 158.909C169.425 159.216 169.013 159.62 168.885 159.817C168.206 160.862 167.647 161.966 167.288 163.179C166.035 167.403 166.609 171.334 169.134 174.868C171.24 177.817 174.103 179.433 177.605 179.803C182.594 180.332 187.714 177.347 189.822 172.081C189.938 171.79 189.908 171.331 190.382 171.308C190.687 171.676 193.572 173.519 193.93 173.726Z" fill="#5F5F5F"/>
<path d="M190.384 171.308C189.987 172.382 189.543 173.428 188.92 174.383C186.947 177.407 184.255 179.284 180.827 179.931C177.355 180.585 174.176 179.768 171.35 177.569C168.865 175.632 167.278 173.027 166.667 169.837C165.943 166.067 166.703 162.597 168.822 159.462C168.901 159.344 168.976 159.226 169.055 159.109C169.135 159.008 170.188 157.783 170.701 157.331C172.973 155.326 175.571 154.298 178.542 154.239C184.108 154.127 189.128 158.096 190.576 163.863C191.156 166.171 191.14 168.486 190.51 170.787C190.463 170.958 190.425 171.135 190.384 171.308Z" fill="#EDAE50"/>
<path d="M181.993 167.191C182.087 169.164 180.367 170.693 178.736 170.672C176.873 170.649 175.345 169.11 175.363 167.157C175.378 165.249 176.794 163.672 178.759 163.666C180.396 163.662 182.083 165.205 181.993 167.191Z" fill="#414141"/>
<path d="M182.182 160.629C182.562 160.588 182.878 160.73 183.14 161.026C183.372 161.288 183.621 161.535 183.848 161.804C184.375 162.424 184.054 163.56 183.372 163.783C183.075 163.881 182.802 163.887 182.539 163.705C181.978 163.318 181.5 162.826 181.074 162.287C180.624 161.715 180.853 160.982 181.524 160.733C181.735 160.652 181.958 160.616 182.182 160.629Z" fill="#FCD38C"/>
<path d="M92.8405 194.302C91.918 193.79 91.3701 192.995 91.2058 191.903C91.1495 191.532 91.0522 191.168 90.9796 190.797C90.9284 190.538 90.8046 190.451 90.5477 190.472C88.9149 190.617 87.2737 190.636 85.6385 190.527C85.417 190.513 85.1949 190.5 84.9753 190.472C84.7653 190.448 84.656 190.539 84.6131 190.752C84.5354 191.138 84.4307 191.52 84.3702 191.91C84.1831 193.113 83.5575 193.94 82.493 194.405C81.8116 194.6 81.1306 194.531 80.4501 194.399C79.8194 194.275 79.172 194.218 78.6004 193.869C78.3807 193.699 78.1452 193.552 77.9548 193.34C77.2757 192.584 76.9946 191.701 77.17 190.672C77.2361 190.283 77.3236 189.899 77.3981 189.512C77.5238 188.849 77.5229 188.845 76.9369 188.628C75.6024 188.127 74.301 187.536 73.0405 186.856C72.7371 186.693 72.4294 186.532 72.1394 186.347C71.9179 186.203 71.7708 186.233 71.627 186.455C71.4059 186.795 71.1606 187.118 70.9413 187.462C70.0067 188.924 68.1728 189.352 66.7313 188.181C66.3538 187.874 65.9549 187.595 65.576 187.289C64.2383 186.213 63.9944 184.497 64.9691 183.042C65.2242 182.661 65.4853 182.282 65.752 181.908C65.8786 181.732 65.8763 181.588 65.7161 181.443C65.6379 181.374 65.5681 181.294 65.4941 181.22C64.2453 179.969 63.0919 178.617 62.0442 177.175C61.7472 176.765 61.7444 176.767 61.3078 177.032C61.0118 177.211 60.7176 177.392 60.4216 177.572C58.8665 178.509 57.3212 178.097 56.36 176.492C56.2283 176.287 56.1785 176.212 56.0407 175.965C55.8708 175.618 55.666 175.293 55.512 174.934C54.8566 173.404 55.3132 171.839 56.6859 170.974C57.0075 170.772 57.3347 170.577 57.6596 170.375C58.0925 170.106 58.0971 170.103 57.9109 169.633C57.3128 168.123 56.8194 166.57 56.4345 164.985C56.3707 164.724 56.3009 164.464 56.2497 164.201C56.1985 163.937 56.0528 163.851 55.8085 163.884C55.3519 163.945 54.8943 164.016 54.4349 164.043C53.2559 164.115 52.346 163.621 51.7302 162.555C51.4742 162.116 51.3778 161.625 51.3345 161.117C51.3029 160.739 51.2321 160.4 51.2079 159.993C51.1083 158.462 51.941 156.537 53.7712 156.4C54.1622 156.37 54.5513 156.308 54.9418 156.262C55.3928 156.209 55.4086 156.205 55.4189 155.753C55.4482 154.423 55.5511 153.096 55.7266 151.778C55.7982 151.244 55.8802 150.713 55.9695 150.182C56.0552 149.675 56.0556 149.664 55.5762 149.499C55.2173 149.375 54.8585 149.26 54.5052 149.133C52.9706 148.588 52.1779 147.048 52.6085 145.41C52.7677 144.804 52.9627 144.208 53.1726 143.62C53.7102 142.102 55.1824 141.337 56.6584 141.795C57.1006 141.933 57.5432 142.07 57.9728 142.243C58.2475 142.351 58.3699 142.261 58.4853 142.006C58.7576 141.405 59.0536 140.817 59.3403 140.225C59.4427 140.022 59.5368 139.858 59.6299 139.671C59.9375 139.077 60.2638 138.492 60.6553 137.95C61.0071 137.626 120.266 174.34 120.1 174.762C119.985 174.979 119.894 175.187 119.785 175.397C119.576 175.788 119.378 176.186 119.156 176.568C118.311 178.017 116.771 178.457 115.335 177.668C114.958 177.46 114.595 177.221 114.225 176.998C113.839 176.767 113.835 176.765 113.573 177.122C112.988 177.918 112.376 178.691 111.737 179.439C111.166 180.107 110.561 180.741 109.946 181.364C109.663 181.65 109.664 181.659 109.882 181.984C110.127 182.351 110.387 182.708 110.63 183.077C111.575 184.507 111.321 186.23 110.009 187.283C109.589 187.621 109.162 187.949 108.727 188.267C107.365 189.262 105.745 188.991 104.737 187.598C104.481 187.241 104.237 186.87 103.981 186.51C103.749 186.187 103.741 186.181 103.401 186.376C102.009 187.18 100.565 187.876 99.0781 188.46C98.87 188.542 98.6601 188.618 98.453 188.701C98.0783 188.851 98.0713 188.857 98.1458 189.295C98.2119 189.684 98.2672 190.078 98.3734 190.455C98.769 191.867 97.9423 193.573 96.108 194.172C95.3149 194.432 93.5969 194.621 92.8405 194.302Z" fill="#414141"/>
<path d="M119.983 174.867C118.739 174.106 107.662 166.917 106.886 166.466C106.465 166.241 106.602 166.214 106.858 165.709C107.763 163.67 108.373 161.499 108.666 159.269C108.877 157.644 108.866 156.013 108.739 154.376C108.62 152.835 108.345 151.311 107.919 149.831C107.376 147.945 106.59 146.181 105.62 144.494C104.538 142.612 103.16 141.006 101.637 139.525C100.465 138.386 99.1422 137.461 97.7444 136.658C95.6448 135.442 93.3603 134.622 90.993 134.234C89.5064 133.991 88.0057 133.871 86.5051 133.975C83.3121 134.196 80.289 135.081 77.4772 136.709C75.2588 138.027 73.2736 139.738 71.6087 141.769C71.1842 142.287 70.58 143.318 70.1639 143.841C69.9252 144.141 65.9502 141.424 60.5425 138.054C60.7422 137.684 60.9344 137.381 61.1476 137.059C61.2803 136.857 61.2696 136.703 61.0964 136.544C60.7645 136.234 60.4341 135.922 60.1083 135.605C59.0731 134.593 58.831 133.25 59.4794 131.932C59.6274 131.63 59.8951 130.92 60.3033 130.405C60.5006 130.155 60.718 129.928 60.9312 129.696C61.9752 128.558 64.0041 128.538 65.0933 129.587C66.4119 130.854 66.2388 130.56 67.3489 129.662C68.2979 128.897 69.2582 128.15 70.2621 127.464C70.8021 127.096 70.837 126.917 70.5638 126.299C70.2594 125.61 69.9852 124.917 70.0438 124.13C70.1169 123.157 70.4916 122.326 71.2456 121.786C72.3222 121.015 73.4654 120.381 74.839 120.42C75.9733 120.454 76.7678 121.048 77.344 122.022C77.5493 122.372 77.7089 122.754 77.8747 123.128C78.0287 123.48 78.2777 123.594 78.6268 123.498C80.0977 123.092 81.5876 122.785 83.0868 122.529C83.6319 122.436 83.7417 122.268 83.7626 121.698C83.7724 121.499 83.7724 121.301 83.7626 121.103C83.6463 119.291 84.9789 117.769 86.5544 117.664C87.423 117.606 88.2929 117.537 89.1549 117.718C90.4228 117.988 91.6707 119.212 91.5451 120.891C91.5278 121.123 91.5404 121.358 91.5451 121.593C91.5562 122.283 91.6796 122.453 92.327 122.55C93.7299 122.757 95.1193 123.056 96.4868 123.445C97.211 123.653 97.3232 123.578 97.6244 122.865C97.8608 122.306 98.0977 121.747 98.5152 121.298C99.3591 120.395 100.409 120.25 101.503 120.504C102.37 120.706 103.184 121.121 103.93 121.633C105.145 122.468 105.588 123.967 105.093 125.426C104.991 125.73 104.867 126.027 104.737 126.321C104.481 126.897 104.525 127.108 105.034 127.447C106.105 128.155 107.135 128.925 108.122 129.757C109.202 130.676 109.009 130.815 110.201 129.679C111.244 128.683 112.856 128.565 113.808 129.246C114.773 129.936 115.612 130.806 116.169 131.893C116.665 132.862 116.599 134.643 115.611 135.538C115.315 135.809 115.052 136.118 114.777 136.413C114.539 136.671 114.506 136.951 114.695 137.243C115.578 138.613 116.368 140.045 117.059 141.531C117.229 141.896 117.52 141.989 117.879 141.869C118.301 141.726 118.733 141.611 119.169 141.529C120.338 141.313 121.624 141.853 122.224 142.933C122.805 143.979 123.164 145.128 123.201 146.356C123.24 147.706 122.601 148.64 121.508 149.262C121.145 149.464 120.763 149.623 120.367 149.739C119.949 149.864 119.77 150.132 119.855 150.581C120.15 152.19 120.248 153.821 120.345 155.454C120.37 155.887 120.568 156.125 120.98 156.137C121.289 156.147 121.591 156.207 121.895 156.249C123.462 156.465 124.534 157.75 124.539 159.42C124.543 159.744 124.527 160.066 124.496 160.389C124.445 160.896 124.272 161.624 124.137 162.099C123.745 163.482 122.419 164.239 121.054 164.148C120.612 164.118 120.172 164.044 119.729 163.997C119.323 163.956 119.302 163.961 119.202 164.385C118.899 165.659 118.567 166.924 118.133 168.157C117.932 168.73 117.724 169.3 117.495 169.862C117.393 170.111 117.435 170.264 117.654 170.394C118.086 170.651 118.52 170.901 118.936 171.186C120.046 171.942 120.504 173.318 120.1 174.631C120.067 174.712 120.029 174.792 119.983 174.867Z" fill="#666059"/>
<path d="M74.8009 146.481C75.3133 145.834 75.7997 145.161 76.3611 144.553C79.009 141.686 82.2086 140.004 85.9862 139.556C89.3272 139.159 92.497 139.772 95.4247 141.508C99.9317 144.179 102.62 148.252 103.468 153.62C103.961 156.737 103.587 159.782 102.412 162.704C102.346 162.869 102.299 163.042 102.243 163.212C102.371 163.493 102.246 163.735 102.135 163.979C101.564 165.222 100.815 166.335 99.9466 167.355C97.4508 170.288 94.3956 172.232 90.6882 172.904C85.767 173.797 81.3265 172.597 77.4665 169.245C74.3359 166.525 72.4494 163.004 71.8415 158.783C71.3691 155.497 71.7624 152.295 73.0545 149.238C73.3677 148.497 73.748 147.796 74.1311 147.094C74.2875 146.8 74.4913 146.582 74.8009 146.481Z" fill="#EDAE50"/>
<path d="M77.661 156.163C77.5763 150.107 82.4934 145.493 87.7088 145.464C92.8241 145.437 97.9288 149.729 97.9376 156.216C97.9464 162.239 93.3059 166.817 87.8898 166.876C81.9893 166.94 77.5526 161.811 77.661 156.163Z" fill="#45423D"/>
<path d="M97.7617 146.288C97.8464 147.183 96.7824 147.884 96.0428 147.368C95.541 147.016 95.0672 146.659 94.6697 146.192C94.0971 145.521 94.2275 144.823 94.9862 144.384C95.548 144.059 96.0716 144.036 96.5906 144.502C96.9555 144.829 97.3093 145.159 97.5713 145.586C97.704 145.793 97.771 146.039 97.7617 146.288Z" fill="#FCD38C"/>
<path d="M79.6988 156.235C79.5732 151.861 82.9384 147.594 87.8224 147.614C92.3848 147.632 95.9465 151.487 95.9004 156.309C95.8557 161.062 92.1153 164.788 87.6693 164.73C83.0599 164.671 79.5741 160.583 79.6988 156.235Z" fill="#EDAE50"/>
<path d="M87.7745 159.664C85.9573 159.664 84.4423 158.072 84.4558 156.154C84.4674 154.263 85.8577 152.681 87.7959 152.66C89.5632 152.642 91.1067 154.18 91.0969 156.183C91.088 158.135 89.6321 159.666 87.7745 159.664Z" fill="#414141"/>
<path d="M91.6126 150.374C91.8039 150.374 91.9905 150.396 92.153 150.508C92.8591 151.001 93.237 151.688 93.2119 152.59C93.1984 153.054 92.5672 153.541 92.1371 153.438C91.4092 153.264 90.8162 152.885 90.4112 152.201C90.0608 151.611 90.1301 151.116 90.6551 150.698C90.9391 150.475 91.2635 150.383 91.6126 150.374Z" fill="#FCD38C"/>
<path d="M74.8023 146.48C74.2731 147.363 73.7611 148.252 73.3519 149.206C72.6644 150.816 72.2185 152.529 72.0286 154.283C71.7773 156.494 71.9509 158.737 72.5392 160.877C73.128 163.017 74.1195 165.009 75.4548 166.737C77.4847 169.362 80.0428 171.172 83.1078 172.18C84.884 172.764 86.7133 173.034 88.5658 172.904C93.4125 172.567 97.3647 170.393 100.386 166.369C101.019 165.52 101.566 164.604 102.017 163.634C102.085 163.49 102.168 163.354 102.245 163.213C102.666 163.421 105.944 165.652 106.503 166.064C106.725 166.226 106.624 166.442 106.519 166.64C105.943 167.724 105.335 168.785 104.602 169.761C103.001 171.895 101.134 173.715 98.9245 175.141C96.7806 176.527 94.4249 177.511 91.9627 178.051C90.0576 178.474 88.1278 178.536 86.204 178.41C83.645 178.245 81.1925 177.561 78.8578 176.421C77.2585 175.648 75.7597 174.663 74.3978 173.489C71.7191 171.164 69.6413 168.355 68.2971 164.962C67.4383 162.784 66.9007 160.48 66.7043 158.131C66.3966 154.627 66.924 151.256 68.0946 147.978C68.5238 146.777 69.0898 145.652 69.6948 144.544C69.754 144.437 69.821 144.329 69.8894 144.227C70.2571 143.677 70.3269 143.66 70.8734 143.988C71.7908 144.539 73.5558 145.693 74.4546 146.271C74.5747 146.333 74.691 146.402 74.8023 146.48Z" fill="#666059"/>
<path d="M103.297 159.729C103.761 157.556 103.804 155.306 103.425 153.115C103.046 150.923 102.251 148.834 101.089 146.973C99.1474 144.335 96.7079 142.112 94.0004 140.74C92.3103 139.973 90.4997 139.546 88.6607 139.48C83.8065 139.298 79.6448 140.992 76.2544 144.675C75.7215 145.264 75.2207 145.886 74.7552 146.535C74.3563 146.284 70.6844 144.31 70.1677 143.84C69.9629 143.654 71.5641 141.743 72.3865 140.85C74.185 138.897 76.2177 137.284 78.5533 136.103C80.7391 134.915 83.2381 134.237 85.759 133.954C87.6921 133.734 89.6446 133.789 91.5637 134.117C94.0935 134.555 96.4263 135.592 98.6382 136.978C100.155 137.919 101.552 139.058 102.794 140.371C105.235 142.971 107.031 145.988 108.043 149.506C108.688 151.766 109 154.116 108.969 156.474C108.936 159.993 108.098 163.225 106.88 165.828C106.639 166.345 106.858 166.332 106.158 165.828C105.298 165.181 103.153 163.827 102.248 163.215C102.191 163.169 102.931 161.462 103.297 159.729Z" fill="#45423D"/>
<path d="M80.7559 68.0283C80.3826 66.7776 80.0964 65.5018 79.7817 64.2343C79.6989 63.9006 79.792 63.8108 80.1299 63.7247C98.8239 58.9351 121.556 62.5945 133.232 66.3205C135.083 67.0201 136.884 67.8328 138.55 68.9447C139.272 69.4279 139.958 69.9599 140.498 70.673C140.647 70.8685 140.783 71.076 140.901 71.2943C141.184 71.824 141.247 72.3584 140.982 72.9379C140.367 74.2821 139.698 75.5965 138.975 76.8803C138.508 77.7162 138.028 78.5443 137.554 79.3765C137.331 79.7805 137.081 80.1668 136.805 80.5331C136.563 80.7701 136.292 80.656 136.032 80.5946C134.888 80.3246 133.734 80.1133 132.597 79.8187C132.514 79.7968 132.428 79.8336 132.343 79.8368C131.153 79.4305 129.897 79.3844 128.687 79.0809C128.529 79.0409 128.391 79.1419 128.24 79.1149C126.254 78.7081 124.241 78.5028 122.241 78.2133C121.539 78.1114 120.812 78.1654 120.131 77.9005C119.871 77.6106 119.823 77.2312 119.735 76.8658C119.231 74.7089 118.577 72.6153 117.378 70.7563C117.195 70.4737 116.997 70.2042 116.789 69.9417C116.164 69.1528 115.42 68.6836 114.408 68.5435C111.77 68.1781 109.128 67.8621 106.478 67.6256C102.069 67.2295 97.6552 67.162 93.2385 67.2281C91.0587 67.2598 88.8809 67.4125 86.7053 67.6103C84.9036 67.7722 83.1065 67.9645 81.3145 68.2149C81.0924 68.2372 80.9007 68.2233 80.7559 68.0283Z" fill="#EDAE50"/>
<path d="M142.744 105.688C141.503 105.679 140.261 105.652 139.02 105.671C138.624 105.676 138.536 105.433 138.449 105.134C138.113 105.026 138.123 104.702 138.071 104.432C137.67 102.353 137.292 100.268 136.855 98.1969C135.781 93.1043 134.574 88.0481 133.106 83.0636C132.853 82.2048 132.581 81.3526 132.334 80.4915C132.259 80.2299 132.115 79.9441 132.358 79.6816C132.448 79.5736 132.568 79.5736 132.686 79.5955C134.068 79.8659 135.447 80.1359 136.805 80.5259C137.696 83.1678 138.445 85.8558 139.137 88.562C140.077 92.24 140.883 95.952 141.635 99.677C141.915 101.068 142.741 105.654 142.744 105.688Z" fill="#45423D"/>
<path d="M80.7587 68.0288C82.3915 67.7351 84.0397 67.5643 85.6869 67.4088C86.8748 67.2967 88.0686 67.2245 89.2593 67.1389C92.5682 66.8968 95.8799 66.9015 99.1902 66.9606C101.595 67.0034 103.998 67.1375 106.399 67.3386C107.998 67.4726 109.594 67.6267 111.187 67.8184C112.525 67.9804 113.853 68.2141 115.191 68.3979C115.624 68.4566 115.95 68.68 116.259 68.9779C117.325 70.0038 118.077 71.2591 118.668 72.6289C119.372 74.2566 119.855 75.9588 120.175 77.7135C120.101 77.9598 119.91 77.963 119.718 77.9509C118.867 77.8969 118.015 77.8336 117.167 77.7503C116.42 77.6777 115.67 77.6423 114.923 77.5981C113.733 77.5288 112.542 77.3928 111.346 77.4627C110.884 77.4901 110.43 77.3677 109.969 77.3598C109.346 77.3505 109.152 77.4924 108.936 78.1008C107.661 81.6908 106.612 85.3549 105.69 89.0609C104.265 94.7859 103.178 100.586 102.264 106.422C102.019 107.983 101.819 109.55 101.601 111.114C101.556 111.432 101.524 111.759 101.331 112.032C101.181 112.191 100.99 112.202 100.806 112.152C99.9494 111.918 99.0981 111.658 98.243 111.418C98.176 111.402 98.1141 111.37 98.062 111.323C98.0098 111.275 97.9698 111.216 97.9447 111.149C97.8069 110.758 97.8935 110.361 97.9488 109.977C98.8202 103.663 99.887 97.3888 101.29 91.1815C102.283 86.7913 103.414 82.4458 104.862 78.1958C105.082 77.5534 104.959 77.3663 104.318 77.3589C101.778 77.3291 99.2428 77.4222 96.7042 77.5502C95.4284 77.6149 94.1535 77.6698 92.881 77.7824C92.7963 77.7824 92.7106 77.7857 92.625 77.7862C91.2966 77.7955 91.2659 77.8262 90.8469 79.1281C88.4094 86.6991 86.7053 94.4601 85.389 102.324C84.9953 104.676 84.6499 107.036 84.2994 109.395C84.2677 109.611 84.2449 109.824 84.116 110.005C83.9931 110.214 83.7897 110.242 83.5858 110.275C82.5269 110.437 81.4615 110.55 80.4073 110.747C80.1699 110.792 79.8785 110.845 79.8306 110.442C80.0074 109.199 80.1843 107.956 80.3616 106.713C80.8211 103.479 81.3414 100.256 81.9223 97.0448C82.6843 92.8376 83.5556 88.6634 84.6322 84.5394C85.1447 82.5831 85.6743 80.631 86.319 78.7171C86.5443 78.0463 86.5434 78.0463 86.056 77.5832C84.8798 76.4615 83.7078 75.3351 82.5256 74.2203C82.3082 74.0197 82.1564 73.7521 82.0903 73.4556C81.6901 71.8209 81.2702 70.1913 80.8569 68.5599C80.7857 68.3933 80.7512 68.2118 80.7587 68.0288Z" fill="#45423D"/>
<path d="M80.7596 68.0254C80.8215 68.1967 80.8923 68.3656 80.8565 68.5569C80.7545 68.3954 80.6256 68.2367 80.7596 68.0254Z" fill="#A9A9A9"/>
<path d="M107.898 114.969C105.934 113.857 103.874 112.981 101.768 112.223C101.576 112.153 101.375 112.102 101.228 111.937C101.445 110.354 101.645 108.768 101.881 107.188C102.428 103.53 103.067 99.891 103.797 96.2703C104.91 90.7816 106.24 85.3563 107.99 80.0515C108.27 79.2025 108.56 78.3572 108.852 77.5129C108.999 77.0856 109.005 77.0842 109.439 77.0973C111.862 77.1694 114.284 77.2671 116.704 77.4268C117.861 77.5031 119.015 77.6153 120.171 77.7117C122.082 77.9053 123.985 78.1529 125.885 78.4364C126.692 78.5574 127.5 78.6686 128.302 78.826C128.763 79.0201 129.049 79.3915 129.327 79.8178C130.386 81.4418 131.228 83.1956 131.93 85.003C132.664 86.8932 133.335 88.8211 133.788 90.8189C133.967 91.6055 134.221 92.3716 134.404 93.1554C135.004 95.7345 135.669 98.2964 136.154 100.905C136.402 102.243 136.667 103.58 136.993 104.902C137.081 105.254 137.225 105.651 136.795 105.905C136.749 105.959 136.712 106.026 136.655 106.058C135.894 106.482 135.381 107.172 134.881 107.876C134.046 109.051 133.22 110.232 132.39 111.411C132.157 111.519 131.963 111.429 131.773 111.285C130.774 110.531 129.765 109.79 128.747 109.063C128.23 108.691 128.191 108.506 128.538 107.958C129.03 107.181 129.559 106.43 130.067 105.663C130.263 105.368 130.472 105.082 130.632 104.763C130.919 104.185 130.814 103.609 130.372 103.264C129.93 102.919 129.379 102.989 128.956 103.489C128.421 104.122 127.999 104.846 127.543 105.542C126.093 107.743 124.641 109.942 123.185 112.14C123.048 112.346 122.909 112.553 122.817 112.788C122.603 113.323 122.751 113.874 123.183 114.17C123.628 114.477 124.142 114.416 124.52 113.961C125.048 113.324 125.467 112.597 125.927 111.908C126.219 111.466 126.512 111.023 126.814 110.588C127.025 110.286 127.258 110.241 127.561 110.446C128.667 111.196 129.724 112.02 130.802 112.81C130.983 112.942 131.161 113.099 131.155 113.37C130.817 113.949 130.48 114.53 130.14 115.107C129.97 115.397 129.787 115.679 129.619 115.972C128.917 117.179 128.895 118.429 129.5 119.669C131.129 123.008 132.822 126.312 134.732 129.485C134.97 129.881 135.225 130.262 135.464 130.654C136.137 131.759 137.143 132.203 138.327 132.241C139.468 132.276 140.606 132.144 141.743 132.04C141.716 137.039 140.359 141.613 137.816 145.822C137.46 146.41 137.075 146.662 136.38 146.641C134.54 146.583 132.697 146.631 130.856 146.636C130.484 146.581 130.497 146.235 130.445 145.974C130.227 144.902 129.94 143.85 129.636 142.802C128.471 138.757 126.783 134.901 124.617 131.343C123.918 130.192 123.136 129.106 122.404 127.982C121.723 127.045 120.988 126.154 120.23 125.289C118.879 123.747 117.477 122.258 115.943 120.914C113.725 118.98 111.348 117.257 108.842 115.764C108.495 115.544 108.078 115.407 107.898 114.969Z" fill="#B9E1E1"/>
<path d="M136.688 106.032C136.83 105.707 136.817 105.26 136.744 104.955C136.096 102.295 131.523 83.7507 128.938 79.6696C128.625 79.1749 128.551 79.0441 128.304 78.8271C129.519 78.9268 130.709 79.1967 131.913 79.3736C132.006 79.3852 132.094 79.4187 132.172 79.4732C132.249 79.5267 132.312 79.5993 132.358 79.6845C133.974 84.8515 135.359 90.086 136.515 95.3876C137.223 98.6183 137.951 102.09 138.528 105.35L138.537 105.371C138.654 105.598 138.683 105.535 138.007 105.625C137.588 105.682 137.023 105.878 136.688 106.032Z" fill="#DCF9FB"/>
<path d="M98.061 111.083C97.0095 110.867 95.959 110.631 94.9052 110.441C93.6475 110.217 92.3796 110.062 91.1066 109.977C89.902 109.894 88.7077 109.869 87.5007 109.866C86.8226 109.866 86.1356 109.936 85.4532 109.883C85.1739 109.657 85.2242 109.351 85.2647 109.044C85.8433 104.646 86.5163 100.268 87.3937 95.9199C88.009 92.8572 88.7016 89.8169 89.5539 86.8203C90.3679 83.9577 91.3165 81.1455 92.7864 78.5678C93.0075 78.1801 93.0424 77.8594 92.8083 77.4958C92.9703 77.427 93.1425 77.4279 93.3124 77.4195C97.1808 77.2347 101.049 77.0346 104.923 77.0718C105.09 77.0718 105.263 77.0304 105.426 77.1179C105.491 77.3115 105.383 77.4698 105.327 77.6313C103.618 82.546 102.328 87.5925 101.216 92.6906C100.273 97.0156 99.4908 101.373 98.8159 105.753C98.5441 107.527 98.3133 109.307 98.061 111.083Z" fill="#B9E1E1"/>
<path d="M93.1453 77.4303C93.8379 77.3451 93.7722 77.3851 93.3571 78.1327C92.2358 80.1504 91.2914 82.2249 90.5704 84.414C90.1519 85.6823 89.7465 86.9628 89.4333 88.2716C89.0912 89.6997 88.6876 91.1109 88.3706 92.5464C88.049 93.9991 87.7777 95.4629 87.4807 96.9212C87.1758 98.4144 86.8654 99.9061 86.6336 101.414C86.2747 103.754 85.9284 106.096 85.5942 108.439C85.5263 108.916 85.4401 109.396 85.4541 109.885C85.2814 109.966 84.0982 110.095 84.0079 109.885C84.0857 108.736 84.2905 107.605 84.459 106.47C84.876 103.666 85.3452 100.871 85.8656 98.0848C87.0799 91.6471 88.5764 85.2848 90.582 79.0673C90.7086 78.6763 90.8585 78.2928 90.9707 77.8976C91.0363 77.6658 91.1671 77.5802 91.3766 77.5736C91.8569 77.548 93.0601 77.4266 93.1453 77.4303Z" fill="#DCF9FB"/>
<path d="M157.102 156.622C155.908 156.525 154.579 155.536 153.629 158.09C152.685 160.622 154.073 161.597 153.864 161.512C153.761 161.498 153.657 161.495 153.553 161.503C152.772 161.512 151.964 161.376 151.184 161.375C150.908 161.241 150.973 161.003 151.019 160.772C151.411 158.782 152.013 156.844 152.813 154.994C153.871 152.567 155.166 150.295 156.789 148.232C159.046 145.366 161.688 142.993 164.762 141.149C167.96 139.229 171.394 138.042 175.032 137.525C176.789 137.275 178.562 137.183 180.339 137.313C181.012 137.363 181.539 137.074 181.901 136.488C182.049 136.25 182.212 136.069 182.465 135.974C182.758 135.971 183.024 136.101 183.303 136.167C183.918 136.313 183.982 136.289 184.252 135.702C184.687 134.756 185.14 133.817 185.703 132.942C185.841 132.849 185.956 132.721 186.039 132.572C186.769 131.395 187.702 130.422 188.799 129.623C188.83 129.608 188.865 129.601 188.898 129.606C189.295 129.606 189.399 129.925 189.494 130.237C189.914 131.606 190.386 132.952 190.97 134.257C191.938 136.416 193.132 138.415 194.665 140.178C194.893 140.442 195.182 140.676 195.048 141.105C194.25 142.581 193.451 144.057 192.653 145.533C192.535 145.75 192.406 145.96 192.282 146.174C192.06 146.545 191.809 146.897 191.533 147.226C191.461 147.171 191.385 147.123 191.305 147.081C191.259 147.059 191.172 146.977 191.127 146.951C190.291 146.472 190.41 146.441 190.827 145.547C191.087 144.984 191.224 144.413 191.058 143.777C190.993 143.515 190.877 143.269 190.718 143.057C190.558 142.844 190.359 142.669 190.132 142.542C189.597 142.236 189.042 141.947 188.431 141.813C187.574 141.625 186.679 142.044 186.266 142.86C186.13 143.13 186.034 143.42 185.908 143.694C185.726 144.096 185.621 144.152 185.225 144.034C184.174 143.718 183.112 143.459 182.023 143.332C181.921 143.319 181.824 143.277 181.722 143.268C181.432 143.232 181.309 143.052 181.312 142.756C181.312 142.469 181.294 142.18 181.312 141.892C181.379 140.803 180.721 140.068 179.766 139.87C179.078 139.726 178.367 139.736 177.683 139.898C176.807 140.105 176.289 140.668 176.167 141.626C176.117 141.981 176.088 142.339 176.08 142.697C176.075 143.165 176.045 143.204 175.597 143.297C175.044 143.411 174.488 143.497 173.934 143.607C173.365 143.723 172.801 143.866 172.243 144.037C171.88 144.148 171.796 144.103 171.644 143.747C171.505 143.419 171.374 143.087 171.195 142.78C170.722 141.969 169.866 141.596 168.99 141.833C168.361 142.007 167.762 142.284 167.218 142.658C166.423 143.199 166.133 144.219 166.47 145.18C166.57 145.465 166.716 145.732 166.834 146.012C166.981 146.364 166.968 146.448 166.676 146.637C165.64 147.305 164.682 148.084 163.729 148.872C163.451 149.103 163.374 149.105 163.114 148.852C162.882 148.613 162.635 148.39 162.378 148.184C161.645 147.626 160.644 147.62 159.955 148.232C159.476 148.659 159.022 149.124 158.679 149.695C158.161 150.56 158.281 151.586 158.987 152.288C159.272 152.572 159.302 152.594 159.766 152.928C159.053 153.679 157.659 155.71 157.251 156.508" fill="#414141"/>
<path d="M147.559 161.274C144.691 161.27 141.823 161.267 138.954 161.264C134.395 161.264 129.838 161.264 125.278 161.264C124.226 161.264 124.209 161.229 124.355 160.143C124.457 159.35 124.476 158.561 124.054 157.84C123.6 157.063 122.957 156.565 122.094 156.425C121.673 156.354 121.248 156.308 120.823 156.29C120.31 156.274 120.216 156.14 120.197 155.595C120.136 153.834 120 152.084 119.679 150.349C119.551 149.663 119.586 149.605 120.239 149.416C120.768 149.262 121.282 149.071 121.753 148.772C122.926 148.03 123.269 146.76 122.989 145.456C122.86 144.861 122.665 144.281 122.476 143.703C121.984 142.205 120.682 141.426 119.205 141.717C118.699 141.817 118.214 141.987 117.726 142.15C117.326 142.285 117.275 142.271 117.09 141.86C116.314 140.138 115.399 138.488 114.355 136.93C114.158 136.64 114.168 136.548 114.467 136.312C114.878 135.984 115.21 135.569 115.59 135.209C116.505 134.345 116.489 132.526 115.941 131.658C115.426 130.84 114.772 130.145 114.061 129.535C113.166 128.764 111.598 128.736 110.603 129.678C110.261 130.003 109.872 130.273 109.569 130.642C109.388 130.865 109.22 130.869 109.005 130.678C108.498 130.225 107.986 129.777 107.46 129.349C106.636 128.677 105.768 128.074 104.889 127.484C104.126 126.973 104.162 127.087 104.549 126.242C104.711 125.905 104.853 125.558 104.975 125.202C105.418 123.819 105.016 122.304 103.602 121.548C102.992 121.224 102.379 120.889 101.721 120.701C100.799 120.436 99.8981 120.485 99.0868 121.119C98.7577 121.38 98.4938 121.722 98.3179 122.114C98.0996 122.581 97.9078 123.063 97.6988 123.535C97.5406 123.891 97.5057 123.913 97.1482 123.794C95.7774 123.341 94.3759 123.031 92.9582 122.794C92.6216 122.74 92.2837 122.686 91.9463 122.635C91.4575 122.56 91.4198 122.52 91.411 121.98C91.4045 121.53 91.4059 121.081 91.411 120.63C91.4226 119.381 90.7961 118.578 89.7819 118.056C89.4905 117.901 89.1712 117.812 88.8454 117.795C88.0793 117.768 87.3117 117.716 86.547 117.849C85.0887 118.106 84.183 119.179 84.1378 120.732C84.1262 121.128 84.1378 121.523 84.1331 121.92C84.1257 122.527 84.1024 122.545 83.5481 122.638C81.845 122.922 80.147 123.233 78.4923 123.76C78.0976 123.885 78.0506 123.858 77.87 123.448C77.6982 123.056 77.5307 122.662 77.3575 122.271C76.6756 120.715 75.0945 120.212 73.6376 120.772C73.0916 120.98 72.5592 121.225 72.0425 121.503C71.1954 121.965 70.6364 122.678 70.4534 123.693C70.3594 124.227 70.4069 124.776 70.5907 125.283C70.7499 125.74 70.9608 126.171 71.1595 126.609C71.328 126.981 71.3089 127.066 70.9868 127.272C69.6268 128.141 68.3561 129.141 67.1161 130.188C66.9569 130.323 66.8085 130.475 66.6549 130.613C66.3896 130.847 66.3081 130.847 66.0395 130.603C65.7426 130.333 65.4368 130.072 65.1589 129.781C64.1116 128.684 62.1507 128.69 61.1341 129.856C60.8344 130.2 60.5486 130.558 60.2409 130.894C59.869 131.298 59.8443 131.284 59.4627 130.913C59.1387 130.599 58.3749 129.891 58.3204 129.849C57.8117 129.25 57.8326 129.246 58.3479 128.634C62.7283 123.425 68.2812 119.46 74.4964 117.102C77.6289 115.914 80.8531 115.14 84.1657 114.839C86.1891 114.662 88.2222 114.642 90.2483 114.778C92.9921 114.952 95.7118 115.426 98.3621 116.194C100.537 116.821 102.652 117.657 104.681 118.692C106.067 119.381 107.411 120.159 108.707 121.022C110.522 122.233 112.239 123.597 113.843 125.103C115.378 126.554 116.818 128.113 118.156 129.767C118.337 130.005 118.506 130.252 118.664 130.508C119.915 131.996 120.919 133.668 121.858 135.378C123.743 138.804 125.154 142.496 126.046 146.341C126.359 147.687 126.565 149.053 126.796 150.415C126.997 151.602 127.824 152.009 128.84 151.433C130.113 150.713 130.921 148.998 130.736 147.48C130.695 147.151 130.48 146.778 130.815 146.469C131.082 146.311 131.374 146.324 131.665 146.323C133.202 146.319 134.737 146.302 136.273 146.331C136.907 146.343 137.332 146.093 137.672 145.539C138.941 143.466 139.909 141.204 140.542 138.828C141.041 136.973 141.4 135.091 141.521 133.163C141.537 132.965 141.533 132.766 141.513 132.569C141.486 132.334 141.541 132.142 141.747 132.018C142.08 132.012 142.81 131.968 142.842 131.965C144.118 131.885 144.118 131.887 144.12 133.237C144.12 134.263 144.114 135.289 144.123 136.312C144.131 137.25 144.369 137.539 145.239 137.77C147.322 138.329 149.431 138.51 151.58 138.392C152.574 138.337 153.544 138.15 154.53 138.067C154.733 138.043 154.933 137.989 155.121 137.906C155.72 137.664 155.896 137.42 155.905 136.735C155.92 135.459 155.901 134.181 155.916 132.904C155.919 132.626 155.865 132.321 156.1 132.095C156.487 131.781 156.857 132.021 157.202 132.173C158.057 132.551 158.699 133.223 159.29 133.95C160.384 135.294 161.195 136.831 161.965 138.394C162.032 138.519 162.06 138.665 162.046 138.808C162.02 139.158 161.779 139.333 161.534 139.5C159.519 140.871 157.711 142.499 156.048 144.316C154.141 146.398 152.559 148.726 151.219 151.242C149.663 154.163 148.605 157.278 147.98 160.561C147.926 160.837 147.979 161.227 147.559 161.274Z" fill="#45423D"/>
<path d="M147.556 161.274C147.685 160.661 147.81 160.046 147.946 159.438C149.06 154.434 151.201 149.969 154.293 146.002C156.346 143.352 158.78 141.057 161.509 139.201C161.665 139.093 161.838 139.007 161.936 138.823C162.058 138.607 171.362 132.299 181.768 134.326C182.386 134.8 182.46 135.711 182.123 136.537C181.794 137.343 181.181 137.596 180.2 137.572C179.294 137.548 178.39 137.497 177.489 137.549C175.972 137.63 174.465 137.831 172.977 138.153C168.903 139.053 165.193 140.796 161.865 143.428C157.975 146.502 155.04 150.39 153.026 155.048C152.208 156.949 151.593 158.941 151.19 160.985C151.165 161.107 150.832 163.083 150.729 163.956C150.636 164.765 150.267 165.331 149.525 165.598C148.434 165.99 147.269 165.152 147.246 163.938C147.233 163.327 147.359 162.727 147.446 162.124C147.481 161.884 147.518 161.313 147.556 161.274Z" fill="#A19D98"/>
<path d="M138.679 157.067C136.819 157.067 134.959 157.072 133.099 157.063C132.228 157.059 131.597 156.611 131.237 155.789C130.877 154.967 130.988 154.169 131.51 153.455C131.925 152.891 132.518 152.674 133.175 152.652C133.619 152.638 134.063 152.647 134.509 152.647C137.649 152.649 140.789 152.651 143.929 152.653C144.524 152.653 145.078 152.761 145.55 153.187C146.202 153.776 146.466 154.73 146.195 155.58C146.063 156.011 145.805 156.387 145.458 156.655C145.11 156.922 144.692 157.068 144.262 157.07C142.402 157.08 140.54 157.067 138.679 157.067Z" fill="#FCBE4F"/>
<path d="M79.8301 110.437C79.9465 110.535 80.0796 110.537 80.2164 110.508C81.3805 110.269 82.5572 110.131 83.7353 110.002C83.8381 109.99 83.7865 109.992 84.0774 109.963C88.2143 109.639 93.7291 109.877 98.0657 111.084C99.0217 111.363 99.9848 111.57 100.942 111.847C101.04 111.853 105.725 113.657 107.545 114.688C107.708 114.811 107.787 114.876 107.904 114.97C107.978 115.854 107.717 116.518 107.227 117.122C106.545 117.962 105.643 118.565 104.634 118.947C103.336 118.353 102.045 117.744 100.705 117.257C98.3333 116.394 95.8902 115.769 93.4074 115.388C91.2445 115.063 89.0601 114.924 86.8752 114.972C84.298 115.017 81.732 115.342 79.2176 115.941C71.4138 117.788 64.3375 122.118 58.9489 128.345C58.7767 128.545 58.6007 128.741 58.428 128.939C58.0692 129.354 57.9123 129.623 57.6479 129.952C57.2086 130.502 56.7808 131.062 56.353 131.621C55.3533 132.925 53.5962 132.995 52.5019 131.628C51.7609 130.701 51.8865 129.305 52.4898 128.426C53.147 127.485 53.8498 126.579 54.595 125.713C55.357 124.815 56.0989 123.898 56.9339 123.073C58.1046 121.919 59.2701 120.755 60.5426 119.724C64.8895 116.208 69.6534 113.526 74.9042 111.832C76.2917 111.383 77.7007 111.013 79.1259 110.722C79.3768 110.672 79.6407 110.653 79.8301 110.437Z" fill="#EDAE50"/>
<path d="M122.548 127.824C123.82 129.41 124.855 131.166 125.854 132.945C127.03 135.037 128.007 137.232 128.835 139.502C129.595 141.585 130.251 143.702 130.688 145.889C130.74 146.135 130.802 146.375 130.859 146.622C130.973 147.293 131.104 147.958 130.964 148.649C130.68 150.068 130.008 151.178 128.727 151.796C127.654 152.314 126.723 151.773 126.547 150.541C126.086 147.301 125.332 144.137 124.184 141.085C122.824 137.474 121.044 134.117 118.779 131.045C118.675 130.904 118.58 130.755 118.48 130.61C118.726 129.752 119.233 129.059 119.722 128.347C119.996 127.946 120.42 128.012 120.775 127.894C121.347 127.705 121.947 127.55 122.548 127.824Z" fill="#EDAE50"/>
<path d="M122.255 127.752C119.45 127.513 118.569 130.427 118.479 130.61C117.268 129.056 115.99 127.567 114.599 126.187C111.772 123.372 108.565 121.016 105.081 119.194C104.928 119.115 104.779 119.032 104.629 118.947C104.759 118.785 105.913 118.547 106.875 117.165C107.689 115.996 107.881 115.203 107.897 114.97C108.816 115.333 109.617 115.924 110.45 116.448C111.89 117.347 113.273 118.341 114.593 119.425C115.785 120.412 116.943 121.44 118.044 122.545C118.799 123.301 119.507 124.102 120.221 124.895C121.051 125.818 121.889 126.745 122.545 127.826" fill="#FCD38C"/>
<path d="M195.004 141.094C194.702 140.564 194.244 140.176 193.876 139.702C191.894 137.155 190.474 134.289 189.473 131.18C189.358 130.822 189.254 130.462 189.138 130.104C189.09 129.952 189.054 129.779 188.849 129.785C186.323 127.506 183.274 126.235 180.288 124.844C175.777 122.744 171.066 121.301 166.301 120.029C162.564 119.031 158.778 118.291 154.98 117.607C154.635 117.545 154.265 117.515 154.026 117.175C153.963 116.929 153.963 116.677 153.963 116.426C153.958 113.45 153.959 110.474 153.968 107.498C153.968 107.174 153.874 106.801 154.206 106.562C154.954 106.756 155.727 106.756 156.488 106.867C157.922 107.076 159.366 107.232 160.8 107.461C162.656 107.754 164.518 108.014 166.359 108.403C167.63 108.673 168.908 108.9 170.177 109.185C171.664 109.519 173.151 109.858 174.618 110.252C177.066 110.907 179.513 111.572 181.898 112.456C182.848 112.807 183.789 113.187 184.751 113.499C185.73 113.817 186.498 114.451 187.229 115.165C188.819 116.717 190.404 118.274 191.938 119.888C192.963 120.968 193.993 122.041 194.97 123.171C195.394 123.66 195.863 124.108 196.304 124.584C197.065 125.408 197.774 126.283 198.555 127.09C199.181 127.738 199.551 128.555 199.598 129.488C199.663 130.801 199.622 132.104 199.306 133.395C198.723 135.771 197.65 137.867 196.193 139.762C195.827 140.234 195.45 140.698 195.004 141.094Z" fill="#EDAE50"/>
<path d="M131.157 113.359L127.627 110.779C127.569 110.742 127.513 110.7 127.461 110.654C127.248 110.438 127.119 110.537 126.985 110.762C126.785 111.096 126.56 111.414 126.344 111.737C125.834 112.501 125.334 113.274 124.81 114.027C124.42 114.586 123.926 114.758 123.38 114.578C122.564 114.308 122.196 113.382 122.601 112.58C122.727 112.327 122.895 112.097 123.052 111.861C124.847 109.15 126.644 106.44 128.441 103.729C128.553 103.55 128.678 103.378 128.813 103.216C129.282 102.685 129.993 102.602 130.531 103C130.791 103.193 130.976 103.481 131.05 103.808C131.123 104.135 131.078 104.48 130.924 104.774C130.765 105.09 130.56 105.382 130.365 105.676C129.808 106.515 129.245 107.35 128.685 108.187C128.461 108.521 128.456 108.528 128.776 108.762C129.978 109.646 131.184 110.527 132.39 111.406L131.157 113.359Z" fill="#45423E"/>
<path d="M145.709 105.894C145.874 106.017 145.863 106.203 145.863 106.38C145.867 109.534 145.867 112.687 145.863 115.84C145.867 115.948 145.85 116.055 145.811 116.155C145.6 116.425 145.298 116.414 145.013 116.415C143.957 116.421 142.902 116.361 141.847 116.34C138.9 116.273 135.952 116.313 133 116.319C132.796 116.319 132.59 116.331 132.4 116.427C132.288 116.481 132.185 116.559 132.202 116.708C132.217 116.856 132.336 116.902 132.455 116.935C132.537 116.957 132.622 116.968 132.708 116.965C134.155 116.933 135.601 116.996 137.051 116.9C138.443 116.808 139.842 116.836 141.24 116.924C142.445 117.001 143.656 117.032 144.864 117.079C145.172 117.09 145.479 117.068 145.753 117.261C145.889 117.983 146.104 118.698 145.957 119.45C145.954 119.519 145.936 119.586 145.903 119.646C145.678 119.929 145.327 119.935 145.034 120.063C144.48 120.306 144.204 120.703 144.221 121.348C144.301 124.293 144.081 127.235 144.119 130.179C144.123 130.52 144.13 130.861 144.166 131.201C144.243 131.937 144.051 132.179 143.346 132.254C143.159 132.274 142.971 132.279 142.782 132.285C142.454 132.289 142.127 132.291 141.8 132.264C140.841 132.422 139.871 132.433 138.905 132.503C137.114 132.629 135.8 131.862 134.866 130.234C133.571 127.976 132.264 125.726 131.08 123.4C130.548 122.356 130.055 121.293 129.494 120.264C128.594 118.61 128.586 116.994 129.636 115.411C130.095 114.721 130.43 113.945 130.978 113.32C131.281 112.567 131.773 111.941 132.215 111.28C133.229 109.704 134.3 108.172 135.453 106.704C135.805 106.257 136.294 105.981 136.745 105.66C137.344 105.489 139.515 105.444 140.065 105.424C140.69 105.403 141.317 105.416 141.942 105.424C142.24 105.427 145.134 105.592 145.709 105.894Z" fill="#EDAE50"/>
<path d="M182.488 136.216C182.294 136.103 182.174 135.946 182.187 135.698C182.226 134.941 181.762 134.569 181.194 134.291C180.438 134 174.673 133.429 168.942 135.527C166.926 136.214 164.982 137.072 163.154 138.207C162.817 138.417 162.444 138.559 162.129 138.81C162.084 138.845 162 138.822 161.934 138.826C161.484 138.149 161.187 137.383 160.782 136.679C160.155 135.591 159.491 134.534 158.643 133.616C157.978 132.895 157.223 132.342 156.269 132.14C156.007 132.162 155.967 131.959 155.936 131.763C155.907 131.531 155.897 131.296 155.906 131.063C155.906 129.43 155.878 127.795 155.912 126.162C155.944 124.616 155.776 123.079 155.797 121.534C155.805 120.947 155.54 120.548 155.028 120.32C154.823 120.229 154.625 120.124 154.434 120.007C154.287 119.916 154.129 119.823 154.193 119.592L154.213 118.424C154.382 118.176 154.613 118.211 154.86 118.25C157.696 118.699 160.513 119.255 163.311 119.916C166.675 120.718 170.019 121.597 173.293 122.744C175.918 123.662 178.516 124.66 181.031 125.882C182.223 126.461 183.44 126.994 184.529 127.779C184.94 128.074 185.269 128.467 185.581 128.876C186.324 129.848 186.135 130.977 186.066 132.083C186.045 132.428 185.889 132.75 185.862 133.098C185.219 134.126 184.671 135.216 184.225 136.354C184.133 136.59 184.011 136.679 183.754 136.587C183.342 136.44 182.912 136.338 182.488 136.216Z" fill="#EDAE50"/>
<path d="M185.869 133.099C185.726 132.81 185.749 132.497 185.802 132.201C185.914 131.575 185.875 130.948 185.875 130.32C185.875 129.705 185.551 129.227 185.198 128.789C184.754 128.241 184.209 127.793 183.597 127.472C180.735 125.939 177.771 124.663 174.738 123.555C172.546 122.754 170.335 122.023 168.088 121.417C165.248 120.651 162.397 119.944 159.512 119.364C157.854 119.032 156.184 118.782 154.525 118.458C154.425 118.438 154.321 118.434 154.22 118.423C154.22 118.027 154.22 117.632 154.22 117.238C155.239 117.34 156.242 117.553 157.248 117.744C158.556 117.992 159.862 118.255 161.166 118.534C162.533 118.829 163.903 119.116 165.256 119.494C166.292 119.784 167.341 120.03 168.381 120.315C170.923 121.013 173.435 121.815 175.916 122.72C177.932 123.456 179.881 124.368 181.841 125.249C183.705 126.091 185.514 127.066 187.253 128.166C187.764 128.487 188.233 128.882 188.714 129.252C188.885 129.383 189.039 129.541 188.854 129.785C188.204 130.392 187.533 130.974 186.956 131.666C186.572 132.127 186.233 132.621 185.869 133.099Z" fill="#FCD38C"/>
<path d="M145.707 116.159L145.71 117.344C142.297 117.048 135.934 117.048 132.722 117.239C132.478 117.227 132.235 117.2 131.993 117.16C131.814 117.117 131.538 116.874 131.542 116.721C131.551 116.441 131.704 116.306 131.902 116.203C132.149 116.072 132.479 116.048 132.758 116.048C135.831 116.048 138.905 115.999 141.976 116.077C143.218 116.108 144.464 116.128 145.707 116.159Z" fill="#FCD38C"/>
<path d="M198.382 130.525C198.399 131.686 198.178 132.756 197.862 133.806C197.304 135.664 196.397 137.322 195.24 138.835C195.006 139.143 194.994 139.144 194.75 138.84C193.625 137.448 192.726 135.905 191.955 134.273C191.377 133.047 190.902 131.776 190.477 130.485C190.347 130.084 190.362 130.013 190.743 129.807C192.073 129.088 193.467 128.577 194.954 128.353C195.632 128.251 196.315 128.253 196.993 128.165C197.061 128.159 197.129 128.157 197.198 128.16C197.842 128.174 197.943 128.26 198.185 128.878C198.4 129.429 198.396 130.001 198.382 130.525Z" fill="#FEFEFE"/>
<path d="M154.146 106.827C154.146 110.26 154.184 117.791 154.264 119.903C154.074 120.158 153.826 120.065 153.604 119.998C151.2 119.259 148.781 119.368 146.354 119.836C146.149 119.875 145.95 119.929 145.777 119.752L145.764 119.769C145.652 119.607 145.764 102.83 145.75 101.756C145.743 101.295 145.817 100.876 146.034 100.471C146.302 99.9733 146.535 99.4557 146.784 98.9456C146.818 98.9088 146.864 98.8855 146.914 98.8809C149.712 100.14 152.023 101.601 154.13 103.871C154.099 104.691 154.13 105.789 154.146 106.827Z" fill="#414141"/>
<path d="M146.924 98.6853H146.883L146.842 98.6769C147.044 98.1687 147.055 97.6362 147.053 97.0953C147.047 95.4793 147.072 93.8627 147.058 92.2471C147.052 91.6579 147.22 91.1808 147.57 90.72C149.292 88.4462 151.165 86.3028 153.171 84.3046C154.447 83.0344 155.801 81.8545 157.288 80.8584C157.571 80.9296 157.45 81.1237 157.386 81.2726C156.474 83.3919 156.603 85.6144 156.89 87.8202C157.015 88.7925 157.271 89.7942 158.039 90.5082C158.093 90.5534 158.13 90.618 158.142 90.6902C158.153 90.7623 158.139 90.8363 158.101 90.8978C156.368 91.7463 155.008 93.064 153.859 94.6456C153.689 94.8793 153.564 95.126 153.606 95.4336C153.53 97.3592 153.546 99.2829 153.61 102.451C153.607 102.485 153.603 102.519 153.597 102.553C153.341 102.736 153.174 102.529 153.015 102.388C152.331 101.774 151.666 101.137 150.928 100.59C150.122 99.9909 149.295 99.4319 148.401 98.9869C147.93 98.7537 147.451 98.5959 146.924 98.6853Z" fill="#A19D98"/>
<path d="M158.403 80.6211C158.749 80.8036 158.926 81.1075 159.013 81.498C159.236 82.4908 159.384 83.5009 159.454 84.5188C159.574 86.2587 159.335 87.9427 158.921 89.6132C158.836 89.9609 158.737 90.3039 158.518 90.5911C158.3 90.6302 158.233 90.4641 158.145 90.3044C157.126 88.4617 156.941 86.4509 157.068 84.3796C157.084 84.0957 157.129 83.8118 157.146 83.5255C157.203 82.4252 157.653 81.3882 158.403 80.6211Z" fill="#A19D98"/>
<path d="M155.263 120.112C155.795 120.358 156.056 120.719 156.077 121.388C156.185 124.764 156.156 128.139 156.164 131.514C156.164 131.73 156.186 132.63 156.183 132.88C156.176 134.281 156.152 135.681 156.171 137.081C156.178 137.574 155.984 137.855 155.58 138.033C152.204 139.006 147.821 138.957 144.747 137.925C144.054 137.704 143.87 137.431 143.865 136.677C143.857 135.69 143.865 134.703 143.865 133.714C143.865 133.302 143.871 132.889 143.865 132.475C143.857 132.062 143.967 125.661 143.967 125.464C143.967 123.956 143.978 122.447 143.963 120.938C143.958 120.464 144.124 120.179 144.545 119.981C149.426 118.356 151.989 118.829 155.263 120.112Z" fill="#A19D98"/>
<path d="M144.877 129V121.72C144.877 121.594 144.874 121.468 144.877 121.342C144.888 120.842 144.929 120.775 145.386 120.599C147.102 119.905 152.121 119.249 154.8 121.111C155.223 121.346 155.291 121.585 155.308 122.151C155.377 123.427 155.258 132.9 155.262 136.548C155.262 136.621 155.262 136.692 155.262 136.764C155.249 137.285 155.216 137.31 154.714 137.419C151.59 138.103 148.483 138.013 145.389 137.203C144.93 137.083 144.906 137.071 144.906 136.549C144.902 134.876 144.902 133.204 144.906 131.533C144.906 130.687 144.906 129.843 144.906 128.997L144.877 129Z" fill="#45423D"/>
<path d="M146.81 98.7872C146.87 98.3255 147.137 98.2771 147.653 98.4046C148.272 98.5992 148.865 98.878 149.417 99.235C150.643 100.006 151.818 100.855 152.849 101.908C153.079 102.144 153.346 102.341 153.596 102.553C153.632 102.708 153.711 102.848 153.824 102.954C154.15 103.262 154.193 103.619 154.128 104.069C153.587 103.988 153.283 103.648 152.94 103.249C152.009 102.169 150.921 101.294 149.767 100.498C149.057 100.008 147.969 99.4719 147.18 99.1405C146.91 99.0269 146.778 99.0339 146.81 98.7872Z" fill="#DCF9FB"/>
<path d="M158.407 80.6211C158.59 80.7258 158.706 80.7737 158.238 81.2113C157.644 81.7717 157.251 83.1853 157.291 85.5032C157.329 87.0401 157.349 88.4081 158.522 90.5911C158.423 90.7531 158.293 90.8722 158.102 90.8969C156.115 88.8396 156.308 82.5089 157.289 80.8575C157.696 80.4139 157.933 80.3637 158.407 80.6211Z" fill="#DCF9FB"/>
</g>
</svg>
