<?xml version="1.0" encoding="UTF-8"?>
<!DOCTYPE svg PUBLIC "-//W3C//DTD SVG 1.1//EN" "http://www.w3.org/Graphics/SVG/1.1/DTD/svg11.dtd">
<svg xmlns="http://www.w3.org/2000/svg" version="1.1" width="1000px" height="1000px" style="shape-rendering:geometricPrecision; text-rendering:geometricPrecision; image-rendering:optimizeQuality; fill-rule:evenodd; clip-rule:evenodd" xmlns:xlink="http://www.w3.org/1999/xlink">
<g><path style="opacity:0.971" fill="#010102" d="M 469.5,22.5 C 619.562,16.3267 746.395,66.9934 850,174.5C 950.339,287.216 991.006,418.883 972,569.5C 946.6,718.258 870.1,832.092 742.5,911C 624.468,977.838 499.801,993.838 368.5,959C 229.403,916.228 128.237,829.395 65,698.5C 17.8718,591.499 9.53848,481.499 40,368.5C 87.3201,215.513 185.487,109.68 334.5,51C 378.332,35.2685 423.332,25.7685 469.5,22.5 Z"/></g>
<g><path style="opacity:1" fill="#3d83a9" d="M 470.5,42.5 C 596.593,37.2487 707.26,75.4154 802.5,157C 908.968,255.157 960.134,376.991 956,522.5C 945.765,667.509 882.931,783.343 767.5,870C 669.217,938.822 560.217,966.488 440.5,953C 294.8,930.511 183.3,857.011 106,732.5C 43.9175,624.189 27.2508,509.189 56,387.5C 89.724,263.487 161.557,168.654 271.5,103C 333.435,67.9628 399.768,47.7962 470.5,42.5 Z"/></g>
<g><path style="opacity:1" fill="#020303" d="M 475.5,79.5 C 627.527,76.1063 749.36,134.44 841,254.5C 921.318,372.195 939.984,499.195 897,635.5C 856.446,748.39 781.946,830.557 673.5,882C 558.292,931.606 442.959,931.94 327.5,883C 202.809,823.485 123.642,726.652 90,592.5C 61.3787,451.639 93.712,326.973 187,218.5C 264.959,134.773 361.125,88.44 475.5,79.5 Z"/></g>
<g><path style="opacity:1" fill="#91cfda" d="M 476.5,99.5 C 621.658,95.9861 737.825,151.653 825,266.5C 896.667,370.826 916.667,484.492 885,607.5C 845.916,735.251 764.416,824.084 640.5,874C 518.63,917.094 401.964,906.094 290.5,841C 174.649,765.872 111.149,659.039 100,520.5C 96.4623,376.09 151.962,260.59 266.5,174C 329.498,129.611 399.498,104.777 476.5,99.5 Z"/></g>
<g><path style="opacity:1" fill="#b47755" d="M 735.5,288.5 C 733.251,289.08 731.585,290.413 730.5,292.5C 721.793,290.323 713.126,290.323 704.5,292.5C 705.504,291.317 706.338,289.984 707,288.5C 709.396,272.304 708.396,256.304 704,240.5C 700.784,233.956 696.784,227.956 692,222.5C 689.207,212.746 684.707,203.912 678.5,196C 674.064,193.355 672.231,194.522 673,199.5C 676.921,207.594 680.254,215.928 683,224.5C 686.761,231.695 690.761,238.695 695,245.5C 698.623,261.001 700.457,276.668 700.5,292.5C 688.317,290.133 675.983,288.8 663.5,288.5C 665.14,287.21 665.64,285.543 665,283.5C 660.75,277.335 656.75,271.002 653,264.5C 646.972,241.153 635.139,221.32 617.5,205C 614.271,202.384 610.604,200.884 606.5,200.5C 606.635,204.438 608.135,207.772 611,210.5C 619.333,220.167 627.667,229.833 636,239.5C 640.09,248.177 643.424,257.177 646,266.5C 649.932,274.247 654.432,281.58 659.5,288.5C 647.705,290.394 635.872,290.727 624,289.5C 605.542,293.481 586.875,294.814 568,293.5C 559.174,294.116 550.34,294.616 541.5,295C 537.006,296.821 532.506,298.654 528,300.5C 525.044,300.432 522.544,299.432 520.5,297.5C 519.209,297.263 518.209,297.596 517.5,298.5C 515.958,297.699 514.292,297.366 512.5,297.5C 506.606,292.654 500.939,287.654 495.5,282.5C 490.884,277.071 485.217,272.904 478.5,270C 465.442,265.129 452.442,260.296 439.5,255.5C 437.828,254.13 436.161,252.797 434.5,251.5C 436.676,248.198 438.176,244.531 439,240.5C 443.026,236.805 447.026,233.138 451,229.5C 451.735,221.759 455.902,217.926 463.5,218C 470.633,214.258 478.3,212.258 486.5,212C 489.377,211.044 492.044,209.711 494.5,208C 498.768,207.969 502.768,206.969 506.5,205C 517.659,205.97 527.992,203.637 537.5,198C 545.995,198.494 553.995,196.827 561.5,193C 573.309,193.063 584.976,192.063 596.5,190C 603.996,185.541 611.663,185.375 619.5,189.5C 624.438,188.354 629.105,186.521 633.5,184C 645.91,185.36 658.41,185.86 671,185.5C 682.986,182.138 694.486,183.305 705.5,189C 710.333,193.833 715.167,198.667 720,203.5C 727.486,216.623 733.82,230.29 739,244.5C 743.034,259.624 741.867,274.291 735.5,288.5 Z"/></g>
<g><path style="opacity:1" fill="#080403" d="M 692.5,190.5 C 693.873,190.343 695.207,190.51 696.5,191C 707.331,205.493 716.498,220.993 724,237.5C 725.648,243.556 726.481,249.722 726.5,256C 725.96,264.86 725.127,273.693 724,282.5C 722.971,285.875 720.804,287.042 717.5,286C 715.703,284.406 714.703,282.406 714.5,280C 716.909,266.858 717.076,253.691 715,240.5C 708.935,228.705 702.602,217.039 696,205.5C 694.219,201.605 692.719,197.605 691.5,193.5C 691.685,192.416 692.018,191.416 692.5,190.5 Z"/></g>
<g><path style="opacity:1" fill="#080403" d="M 651.5,193.5 C 656.029,193.496 659.529,195.496 662,199.5C 665.252,204.334 668.252,209.334 671,214.5C 672.839,221.179 675.506,227.512 679,233.5C 682.256,246.022 684.922,258.689 687,271.5C 688.333,274.167 689.667,276.833 691,279.5C 691.758,281.769 691.591,283.936 690.5,286C 685.357,285.553 681.857,282.719 680,277.5C 677.296,270.766 675.963,263.766 676,256.5C 670.189,236.063 661.856,216.729 651,198.5C 650.36,196.735 650.527,195.068 651.5,193.5 Z"/></g>
<g><path style="opacity:1" fill="#080403" d="M 704.5,292.5 C 703.167,292.5 701.833,292.5 700.5,292.5C 700.457,276.668 698.623,261.001 695,245.5C 690.761,238.695 686.761,231.695 683,224.5C 680.254,215.928 676.921,207.594 673,199.5C 672.231,194.522 674.064,193.355 678.5,196C 684.707,203.912 689.207,212.746 692,222.5C 696.784,227.956 700.784,233.956 704,240.5C 708.396,256.304 709.396,272.304 707,288.5C 706.338,289.984 705.504,291.317 704.5,292.5 Z"/></g>
<g><path style="opacity:1" fill="#090503" d="M 627.5,196.5 C 634.274,199.751 640.107,204.418 645,210.5C 651.437,219.706 657.104,229.373 662,239.5C 666.129,250.349 669.795,261.349 673,272.5C 674.333,275.167 675.667,277.833 677,280.5C 678.115,287.968 675.781,289.302 670,284.5C 664.031,269.96 658.364,255.293 653,240.5C 646.616,227.121 638.282,215.121 628,204.5C 626.304,201.881 626.137,199.214 627.5,196.5 Z"/></g>
<g><path style="opacity:1" fill="#090503" d="M 663.5,288.5 C 662.167,288.5 660.833,288.5 659.5,288.5C 654.432,281.58 649.932,274.247 646,266.5C 643.424,257.177 640.09,248.177 636,239.5C 627.667,229.833 619.333,220.167 611,210.5C 608.135,207.772 606.635,204.438 606.5,200.5C 610.604,200.884 614.271,202.384 617.5,205C 635.139,221.32 646.972,241.153 653,264.5C 656.75,271.002 660.75,277.335 665,283.5C 665.64,285.543 665.14,287.21 663.5,288.5 Z"/></g>
<g><path style="opacity:1" fill="#090503" d="M 585.5,201.5 C 586.552,201.351 587.552,201.517 588.5,202C 596.974,209.071 605.974,215.405 615.5,221C 619.036,224.201 622.203,227.701 625,231.5C 633.432,247.457 641.099,263.791 648,280.5C 648.591,287.609 646.258,288.942 641,284.5C 634.979,268.793 627.646,253.793 619,239.5C 612.713,231.882 605.213,225.715 596.5,221C 591.583,216.986 587.75,212.152 585,206.5C 584.36,204.735 584.527,203.068 585.5,201.5 Z"/></g>
<g><path style="opacity:1" fill="#070403" d="M 542.5,202.5 C 545.516,203.343 548.183,204.843 550.5,207C 556.333,212.833 562.167,218.667 568,224.5C 573.081,233.665 578.415,242.665 584,251.5C 592.333,261.167 601.333,270.167 611,278.5C 613.854,281.614 615.021,285.281 614.5,289.5C 612.473,289.662 610.473,289.495 608.5,289C 596.725,279.858 585.891,269.691 576,258.5C 570.495,250.16 565.495,241.493 561,232.5C 556,226.167 551,219.833 546,213.5C 543.668,210.178 542.502,206.511 542.5,202.5 Z"/></g>
<g><path style="opacity:1" fill="#080503" d="M 562.5,206.5 C 564.527,206.338 566.527,206.505 568.5,207C 572.447,209.28 576.113,211.947 579.5,215C 591.279,228.113 603.779,240.613 617,252.5C 622.775,261.048 627.775,270.048 632,279.5C 633.155,288.38 630.488,289.713 624,283.5C 619.89,274.819 615.224,266.486 610,258.5C 606.749,254.578 602.916,251.412 598.5,249C 586.696,236.196 574.53,223.696 562,211.5C 561.36,209.735 561.527,208.068 562.5,206.5 Z"/></g>
<g><path style="opacity:1" fill="#080503" d="M 519.5,208.5 C 522.647,208.737 525.647,209.57 528.5,211C 538.472,216.25 547.305,223.084 555,231.5C 564.17,246.509 573.836,261.176 584,275.5C 584.777,278.429 584.61,281.263 583.5,284C 582.167,284.667 580.833,284.667 579.5,284C 575.333,279.167 571.167,274.333 567,269.5C 560.918,259 554.584,248.666 548,238.5C 543.5,234 539,229.5 534.5,225C 528.77,221.938 523.603,218.104 519,213.5C 518.36,211.735 518.527,210.068 519.5,208.5 Z"/></g>
<g><path style="opacity:1" fill="#090503" d="M 495.5,209.5 C 503.235,211.386 509.902,215.219 515.5,221C 525.481,224.245 533.647,230.078 540,238.5C 547.095,251.697 555.429,264.031 565,275.5C 567.891,280.862 566.391,283.362 560.5,283C 549.127,271.277 539.627,258.111 532,243.5C 525.998,236.848 518.831,231.682 510.5,228C 505.427,223.382 500.26,218.882 495,214.5C 494.36,212.735 494.527,211.068 495.5,209.5 Z"/></g>
<g><path style="opacity:1" fill="#090503" d="M 474.5,215.5 C 479.997,215.243 484.997,216.743 489.5,220C 500.328,227.581 511.328,234.915 522.5,242C 530.689,250.874 537.522,260.707 543,271.5C 547.035,275.2 550.702,279.2 554,283.5C 554.165,287.977 551.998,289.477 547.5,288C 537.979,275.3 527.979,262.967 517.5,251C 504.72,240.888 491.386,231.555 477.5,223C 474.156,221.233 473.156,218.733 474.5,215.5 Z"/></g>
<g><path style="opacity:1" fill="#090503" d="M 457.5,225.5 C 460.647,225.737 463.647,226.57 466.5,228C 480.627,235.482 494.627,243.149 508.5,251C 519.846,259.674 529.013,270.174 536,282.5C 538.006,285.536 538.84,288.869 538.5,292.5C 533.424,290.947 529.257,287.947 526,283.5C 519.917,274.082 512.417,265.915 503.5,259C 488.062,251.413 473.062,243.08 458.5,234C 454.986,231.468 454.653,228.635 457.5,225.5 Z"/></g>
<g><path style="opacity:1" fill="#090503" d="M 520.5,297.5 C 506.082,281.592 489.415,268.426 470.5,258C 461.946,256.445 453.612,254.111 445.5,251C 441.818,249.68 440.318,247.18 441,243.5C 441.725,242.941 442.558,242.608 443.5,242.5C 453.429,245.299 463.429,247.799 473.5,250C 478.916,252.139 484.249,254.472 489.5,257C 501,267.833 512.5,278.667 524,289.5C 526.715,294.022 525.549,296.689 520.5,297.5 Z"/></g>
<g><path style="opacity:1" fill="#985a36" d="M 434.5,251.5 C 436.161,252.797 437.828,254.13 439.5,255.5C 435.775,255.78 434.608,257.78 436,261.5C 450.327,267.245 464.493,273.412 478.5,280C 485.82,285.655 492.82,291.655 499.5,298C 501.473,298.495 503.473,298.662 505.5,298.5C 505.509,296.692 505.009,295.025 504,293.5C 500.19,290.525 497.356,286.858 495.5,282.5C 500.939,287.654 506.606,292.654 512.5,297.5C 511.952,299.626 511.285,301.626 510.5,303.5C 510.631,302.624 510.298,301.957 509.5,301.5C 504.595,303.083 499.928,302.749 495.5,300.5C 490.304,299.043 486.304,295.876 483.5,291C 480.029,288.928 476.362,287.428 472.5,286.5C 473.17,283.41 472.003,281.743 469,281.5C 466.577,282.626 464.077,283.626 461.5,284.5C 459.438,283.224 457.104,282.39 454.5,282C 447.588,282.037 440.922,281.037 434.5,279C 432.641,277.442 431.141,275.609 430,273.5C 430.13,268.959 429.964,264.459 429.5,260C 429.872,257.291 431.372,255.457 434,254.5C 434.483,253.552 434.649,252.552 434.5,251.5 Z"/></g>
<g><path style="opacity:1" fill="#080402" d="M 439.5,255.5 C 452.442,260.296 465.442,265.129 478.5,270C 485.217,272.904 490.884,277.071 495.5,282.5C 497.356,286.858 500.19,290.525 504,293.5C 505.009,295.025 505.509,296.692 505.5,298.5C 503.473,298.662 501.473,298.495 499.5,298C 492.82,291.655 485.82,285.655 478.5,280C 464.493,273.412 450.327,267.245 436,261.5C 434.608,257.78 435.775,255.78 439.5,255.5 Z"/></g>
<g><path style="opacity:1" fill="#090a0a" d="M 472.5,286.5 C 474.096,289.314 474.596,292.314 474,295.5C 470.462,298.031 468.128,301.364 467,305.5C 466,306.167 465,306.833 464,307.5C 462.966,311.654 461.632,315.654 460,319.5C 459,320.167 458,320.833 457,321.5C 455.905,325.12 454.238,328.453 452,331.5C 448.311,342.123 444.811,352.79 441.5,363.5C 442.5,364.833 443.5,366.167 444.5,367.5C 443.355,370.748 442.521,374.081 442,377.5C 438.979,380.644 437.312,384.31 437,388.5C 439.087,387.206 441.254,386.039 443.5,385C 449.033,383.761 454.366,382.261 459.5,380.5C 473.346,382.049 484.846,377.715 494,367.5C 496.333,364.5 498.667,361.5 501,358.5C 504.529,343.022 506.862,327.355 508,311.5C 509.136,308.904 509.969,306.237 510.5,303.5C 511.285,301.626 511.952,299.626 512.5,297.5C 514.292,297.366 515.958,297.699 517.5,298.5C 516.414,316.588 514.247,334.588 511,352.5C 510.058,355.993 508.725,359.326 507,362.5C 500.402,369.221 493.902,376.054 487.5,383C 486.167,383.667 484.833,384.333 483.5,385C 474.665,385.421 465.999,386.588 457.5,388.5C 448.689,391.327 439.856,393.993 431,396.5C 430.255,404.391 428.589,412.058 426,419.5C 421.969,425.366 418.136,431.366 414.5,437.5C 423.082,436.166 431.749,434.166 440.5,431.5C 445.412,431.063 450.078,431.896 454.5,434C 463.5,439.167 472.5,444.333 481.5,449.5C 490.199,434.814 502.866,425.48 519.5,421.5C 519.5,419.833 519.5,418.167 519.5,416.5C 522.841,415.843 524.841,417.176 525.5,420.5C 542.821,418.333 558.821,422.499 573.5,433C 581.841,440.517 587.508,449.684 590.5,460.5C 600.929,453.618 611.929,447.785 623.5,443C 634.463,441.536 644.963,443.036 655,447.5C 653.963,441.263 653.13,434.93 652.5,428.5C 652.667,426.5 652.833,424.5 653,422.5C 654.011,421.663 655.178,421.33 656.5,421.5C 655.261,436.794 660.928,448.794 673.5,457.5C 687.098,434.87 707.098,425.37 733.5,429C 737.22,430.013 740.886,431.18 744.5,432.5C 744.881,427.109 744.047,421.776 742,416.5C 741.11,394.159 740.11,371.826 739,349.5C 735.85,335.228 732.85,320.895 730,306.5C 729.352,301.796 729.519,297.129 730.5,292.5C 731.585,290.413 733.251,289.08 735.5,288.5C 736.832,289.83 737.665,291.497 738,293.5C 741.035,315.229 744.368,336.895 748,358.5C 749.792,378.059 750.792,397.726 751,417.5C 752.667,424.167 754.333,430.833 756,437.5C 773.116,449.728 778.116,465.728 771,485.5C 767.433,491.736 763.1,497.403 758,502.5C 756.568,517.461 755.568,532.461 755,547.5C 752.134,556.573 748.134,565.24 743,573.5C 734.652,580.842 725.485,587.008 715.5,592C 712.797,595.038 709.797,597.705 706.5,600C 698.142,608.362 690.476,617.362 683.5,627C 672.547,633.544 660.88,638.544 648.5,642C 637.891,648.638 626.558,653.638 614.5,657C 613.365,661.748 613.198,666.581 614,671.5C 615.791,674.993 617.124,678.659 618,682.5C 622.78,689.726 626.78,697.392 630,705.5C 633.771,711.936 639.271,716.103 646.5,718C 659.211,718.919 671.878,720.253 684.5,722C 688.385,722.739 692.052,724.073 695.5,726C 701.333,731.167 707.167,736.333 713,741.5C 714.923,745.805 714.923,750.138 713,754.5C 710.588,758.916 707.422,762.749 703.5,766C 699.553,768.28 695.887,770.947 692.5,774C 670.958,785.271 649.291,796.271 627.5,807C 588.315,820.479 547.981,826.146 506.5,824C 482.865,820.421 459.198,817.087 435.5,814C 408.86,807.124 381.86,801.791 354.5,798C 336.598,792.62 318.598,787.62 300.5,783C 291.563,779.531 282.896,775.531 274.5,771C 255.677,769.672 240.177,761.839 228,747.5C 225.082,742.166 222.582,736.666 220.5,731C 221.391,727.892 223.058,725.225 225.5,723C 229.327,721.254 232.993,719.254 236.5,717C 272.416,711.289 302.916,695.123 328,668.5C 339.706,655.796 351.04,642.796 362,629.5C 363.92,619.973 364.92,610.306 365,600.5C 369.092,586.184 373.092,571.85 377,557.5C 376.969,548.691 377.969,540.024 380,531.5C 380.333,515.833 380.667,500.167 381,484.5C 384.391,474.323 388.558,464.49 393.5,455C 388.928,456.073 384.261,456.739 379.5,457C 377.675,455.534 377.175,453.701 378,451.5C 384.973,448.266 392.14,445.433 399.5,443C 406.8,434.234 412.966,424.734 418,414.5C 419.998,404.502 421.998,394.502 424,384.5C 427.684,380.857 429.351,376.524 429,371.5C 427.536,370.541 426.703,369.208 426.5,367.5C 427.328,358.166 429.995,349.499 434.5,341.5C 431.775,337.369 432.442,333.702 436.5,330.5C 435.377,326.163 435.544,321.829 437,317.5C 439.653,315.57 440.986,312.904 441,309.5C 445.667,304.833 450.333,300.167 455,295.5C 454.695,293.557 454.695,291.557 455,289.5C 456.965,287.45 459.132,285.783 461.5,284.5C 464.077,283.626 466.577,282.626 469,281.5C 472.003,281.743 473.17,283.41 472.5,286.5 Z"/></g>
<g><path style="opacity:1" fill="#9c9c9c" d="M 472.5,286.5 C 476.362,287.428 480.029,288.928 483.5,291C 486.304,295.876 490.304,299.043 495.5,300.5C 493.147,305.994 490.647,311.661 488,317.5C 482.379,323.295 477.045,329.295 472,335.5C 466.76,349.491 461.926,363.658 457.5,378C 457.684,379.376 458.351,380.209 459.5,380.5C 454.366,382.261 449.033,383.761 443.5,385C 441.254,386.039 439.087,387.206 437,388.5C 437.312,384.31 438.979,380.644 442,377.5C 442.521,374.081 443.355,370.748 444.5,367.5C 443.5,366.167 442.5,364.833 441.5,363.5C 444.811,352.79 448.311,342.123 452,331.5C 454.238,328.453 455.905,325.12 457,321.5C 458,320.833 459,320.167 460,319.5C 461.632,315.654 462.966,311.654 464,307.5C 465,306.833 466,306.167 467,305.5C 468.128,301.364 470.462,298.031 474,295.5C 474.596,292.314 474.096,289.314 472.5,286.5 Z"/></g>
<g><path style="opacity:1" fill="#fdfdfd" d="M 659.5,288.5 C 660.833,288.5 662.167,288.5 663.5,288.5C 675.983,288.8 688.317,290.133 700.5,292.5C 701.833,292.5 703.167,292.5 704.5,292.5C 713.126,290.323 721.793,290.323 730.5,292.5C 729.519,297.129 729.352,301.796 730,306.5C 732.85,320.895 735.85,335.228 739,349.5C 740.11,371.826 741.11,394.159 742,416.5C 744.047,421.776 744.881,427.109 744.5,432.5C 740.886,431.18 737.22,430.013 733.5,429C 707.098,425.37 687.098,434.87 673.5,457.5C 660.928,448.794 655.261,436.794 656.5,421.5C 655.178,421.33 654.011,421.663 653,422.5C 652.833,424.5 652.667,426.5 652.5,428.5C 653.13,434.93 653.963,441.263 655,447.5C 644.963,443.036 634.463,441.536 623.5,443C 611.929,447.785 600.929,453.618 590.5,460.5C 587.508,449.684 581.841,440.517 573.5,433C 558.821,422.499 542.821,418.333 525.5,420.5C 524.841,417.176 522.841,415.843 519.5,416.5C 519.5,418.167 519.5,419.833 519.5,421.5C 502.866,425.48 490.199,434.814 481.5,449.5C 472.5,444.333 463.5,439.167 454.5,434C 450.078,431.896 445.412,431.063 440.5,431.5C 444.268,421.298 449.101,411.631 455,402.5C 456.373,397.928 457.206,393.261 457.5,388.5C 465.999,386.588 474.665,385.421 483.5,385C 484.833,384.333 486.167,383.667 487.5,383C 493.902,376.054 500.402,369.221 507,362.5C 508.725,359.326 510.058,355.993 511,352.5C 514.247,334.588 516.414,316.588 517.5,298.5C 518.209,297.596 519.209,297.263 520.5,297.5C 522.544,299.432 525.044,300.432 528,300.5C 532.506,298.654 537.006,296.821 541.5,295C 550.34,294.616 559.174,294.116 568,293.5C 586.875,294.814 605.542,293.481 624,289.5C 635.872,290.727 647.705,290.394 659.5,288.5 Z"/></g>
<g><path style="opacity:1" fill="#f7f7f7" d="M 495.5,300.5 C 499.928,302.749 504.595,303.083 509.5,301.5C 510.298,301.957 510.631,302.624 510.5,303.5C 509.969,306.237 509.136,308.904 508,311.5C 506.862,327.355 504.529,343.022 501,358.5C 498.667,361.5 496.333,364.5 494,367.5C 484.846,377.715 473.346,382.049 459.5,380.5C 458.351,380.209 457.684,379.376 457.5,378C 461.926,363.658 466.76,349.491 472,335.5C 477.045,329.295 482.379,323.295 488,317.5C 490.647,311.661 493.147,305.994 495.5,300.5 Z"/></g>
<g><path style="opacity:1" fill="#111111" d="M 479.5,301.5 C 485.555,300.942 486.888,303.109 483.5,308C 478.791,308.082 477.458,305.915 479.5,301.5 Z"/></g>
<g><path style="opacity:1" fill="#0f0f0f" d="M 469.5,314.5 C 474.796,314.611 476.796,317.111 475.5,322C 469.846,325.05 467.013,323.55 467,317.5C 468.045,316.627 468.878,315.627 469.5,314.5 Z"/></g>
<g><path style="opacity:1" fill="#131313" d="M 494.5,314.5 C 497.352,314.352 499.019,315.686 499.5,318.5C 497.167,323.833 494.833,323.833 492.5,318.5C 492.752,316.927 493.418,315.594 494.5,314.5 Z"/></g>
<g><path style="opacity:1" fill="#181818" d="M 482.5,326.5 C 488.555,325.942 489.888,328.109 486.5,333C 481.791,333.082 480.458,330.915 482.5,326.5 Z"/></g>
<g><path style="opacity:1" fill="#0f0f0f" d="M 460.5,331.5 C 467.536,330.603 469.203,333.103 465.5,339C 459.785,339.401 458.119,336.901 460.5,331.5 Z"/></g>
<g><path style="opacity:1" fill="#171717" d="M 496.5,333.5 C 501.328,333.385 502.661,335.552 500.5,340C 498.866,340.494 497.199,340.66 495.5,340.5C 495.298,338.05 495.631,335.717 496.5,333.5 Z"/></g>
<g><path style="opacity:1" fill="#1e1e1e" d="M 475.5,345.5 C 480.197,346.874 480.531,348.874 476.5,351.5C 473.025,349.916 472.692,347.916 475.5,345.5 Z"/></g>
<g><path style="opacity:1" fill="#101010" d="M 451.5,353.5 C 453.288,353.215 454.955,353.548 456.5,354.5C 457.385,358.443 455.719,359.943 451.5,359C 450.248,357.172 450.248,355.339 451.5,353.5 Z"/></g>
<g><path style="opacity:1" fill="#0e0e0e" d="M 482.5,352.5 C 487.663,352.107 489.33,354.273 487.5,359C 481.741,360.139 480.074,357.972 482.5,352.5 Z"/></g>
<g><path style="opacity:1" fill="#161616" d="M 465.5,362.5 C 470.486,362.305 472.152,364.472 470.5,369C 463.561,370.574 461.894,368.407 465.5,362.5 Z"/></g>
<g><path style="opacity:1" fill="#1d1d1d" d="M 448.5,374.5 C 451.166,374.066 452.333,375.066 452,377.5C 448.403,379.066 447.237,378.066 448.5,374.5 Z"/></g>
<g><path style="opacity:1" fill="#9c9c9c" d="M 457.5,388.5 C 457.206,393.261 456.373,397.928 455,402.5C 449.101,411.631 444.268,421.298 440.5,431.5C 431.749,434.166 423.082,436.166 414.5,437.5C 418.136,431.366 421.969,425.366 426,419.5C 428.589,412.058 430.255,404.391 431,396.5C 439.856,393.993 448.689,391.327 457.5,388.5 Z"/></g>
<g><path style="opacity:1" fill="#1c1c1c" d="M 705.5,398.5 C 706.5,398.5 707.5,398.5 708.5,398.5C 708.5,399.5 708.5,400.5 708.5,401.5C 707.5,401.5 706.5,401.5 705.5,401.5C 705.5,400.5 705.5,399.5 705.5,398.5 Z"/></g>
<g><path style="opacity:1" fill="#252525" d="M 712.5,399.5 C 713.5,399.5 714.5,399.5 715.5,399.5C 715.5,400.5 715.5,401.5 715.5,402.5C 714.5,402.5 713.5,402.5 712.5,402.5C 712.5,401.5 712.5,400.5 712.5,399.5 Z"/></g>
<g><path style="opacity:1" fill="#1d1d1d" d="M 550.5,402.5 C 551.5,402.5 552.5,402.5 553.5,402.5C 553.5,403.833 553.5,405.167 553.5,406.5C 552.167,406.5 550.833,406.5 549.5,406.5C 549.433,405.041 549.766,403.708 550.5,402.5 Z"/></g>
<g><path style="opacity:1" fill="#171717" d="M 563.5,402.5 C 567.161,402.35 568.161,403.85 566.5,407C 562.707,407.487 561.707,405.987 563.5,402.5 Z"/></g>
<g><path style="opacity:1" fill="#333333" d="M 651.5,402.5 C 653.252,402.418 654.252,403.251 654.5,405C 652.833,408.333 651.167,408.333 649.5,405C 650.056,403.989 650.722,403.156 651.5,402.5 Z"/></g>
<g><path style="opacity:1" fill="#171717" d="M 723.5,407.5 C 722.167,407.5 720.833,407.5 719.5,407.5C 719.222,405.654 719.889,404.32 721.5,403.5C 723.111,404.32 723.778,405.654 723.5,407.5 Z"/></g>
<g><path style="opacity:1" fill="#3a3a3a" d="M 570.5,404.5 C 571.5,404.5 572.5,404.5 573.5,404.5C 572.754,408.31 571.754,408.31 570.5,404.5 Z"/></g>
<g><path style="opacity:1" fill="#212121" d="M 640.5,404.5 C 642.346,404.222 643.68,404.889 644.5,406.5C 643.68,408.111 642.346,408.778 640.5,408.5C 640.5,407.167 640.5,405.833 640.5,404.5 Z"/></g>
<g><path style="opacity:1" fill="#151515" d="M 686.5,404.5 C 687.833,404.5 689.167,404.5 690.5,404.5C 690.5,405.833 690.5,407.167 690.5,408.5C 689.167,408.5 687.833,408.5 686.5,408.5C 686.5,407.167 686.5,405.833 686.5,404.5 Z"/></g>
<g><path style="opacity:1" fill="#1f1f1f" d="M 702.5,404.5 C 706.161,404.35 707.161,405.85 705.5,409C 701.707,409.487 700.707,407.987 702.5,404.5 Z"/></g>
<g><path style="opacity:1" fill="#212121" d="M 577.5,406.5 C 578.833,406.5 580.167,406.5 581.5,406.5C 581.5,407.5 581.5,408.5 581.5,409.5C 580.167,409.5 578.833,409.5 577.5,409.5C 577.5,408.5 577.5,407.5 577.5,406.5 Z"/></g>
<g><path style="opacity:1" fill="#2a2a2a" d="M 726.5,405.5 C 727.5,405.5 728.5,405.5 729.5,405.5C 729.5,406.5 729.5,407.5 729.5,408.5C 728.5,408.5 727.5,408.5 726.5,408.5C 726.5,407.5 726.5,406.5 726.5,405.5 Z"/></g>
<g><path style="opacity:1" fill="#1c1c1c" d="M 522.5,406.5 C 526.161,406.35 527.161,407.85 525.5,411C 521.707,411.487 520.707,409.987 522.5,406.5 Z"/></g>
<g><path style="opacity:1" fill="#171717" d="M 611.5,406.5 C 612.833,406.5 614.167,406.5 615.5,406.5C 615.5,407.833 615.5,409.167 615.5,410.5C 614.167,410.5 612.833,410.5 611.5,410.5C 611.5,409.167 611.5,407.833 611.5,406.5 Z"/></g>
<g><path style="opacity:1" fill="#232323" d="M 693.5,407.5 C 694.978,407.238 696.311,407.571 697.5,408.5C 695.537,411.194 694.203,410.861 693.5,407.5 Z"/></g>
<g><path style="opacity:1" fill="#1b1b1b" d="M 512.5,408.5 C 513.833,408.5 515.167,408.5 516.5,408.5C 516.99,410.948 516.157,412.615 514,413.5C 511.389,412.5 510.889,410.833 512.5,408.5 Z"/></g>
<g><path style="opacity:1" fill="#292929" d="M 604.5,407.5 C 607.957,407.667 608.29,408.667 605.5,410.5C 604.614,409.675 604.281,408.675 604.5,407.5 Z"/></g>
<g><path style="opacity:1" fill="#6e6e6e" d="M 665.5,407.5 C 667.337,407.639 667.67,408.306 666.5,409.5C 665.702,409.043 665.369,408.376 665.5,407.5 Z"/></g>
<g><path style="opacity:1" fill="#6b6b6b" d="M 719.5,407.5 C 720.833,407.5 722.167,407.5 723.5,407.5C 720.533,410.969 717.199,411.303 713.5,408.5C 715.542,408.241 717.542,407.908 719.5,407.5 Z"/></g>
<g><path style="opacity:1" fill="#262626" d="M 544.5,409.5 C 547.166,409.066 548.333,410.066 548,412.5C 544.403,414.066 543.237,413.066 544.5,409.5 Z"/></g>
<g><path style="opacity:1" fill="#454545" d="M 659.5,408.5 C 661.337,408.639 661.67,409.306 660.5,410.5C 659.702,410.043 659.369,409.376 659.5,408.5 Z"/></g>
<g><path style="opacity:1" fill="#161616" d="M 555.5,409.5 C 556.995,409.415 557.995,410.081 558.5,411.5C 557.68,413.111 556.346,413.778 554.5,413.5C 554.433,412.041 554.766,410.708 555.5,409.5 Z"/></g>
<g><path style="opacity:1" fill="#313131" d="M 571.5,409.5 C 574.166,409.066 575.333,410.066 575,412.5C 571.403,414.066 570.237,413.066 571.5,409.5 Z"/></g>
<g><path style="opacity:1" fill="#111111" d="M 617.5,410.5 C 618.675,410.281 619.675,410.614 620.5,411.5C 618.948,412.798 617.948,412.465 617.5,410.5 Z"/></g>
<g><path style="opacity:1" fill="#4d4d4d" d="M 503.5,411.5 C 505.337,411.639 505.67,412.306 504.5,413.5C 503.702,413.043 503.369,412.376 503.5,411.5 Z"/></g>
<g><path style="opacity:1" fill="#040404" d="M 531.5,411.5 C 533.337,411.639 533.67,412.306 532.5,413.5C 531.702,413.043 531.369,412.376 531.5,411.5 Z"/></g>
<g><path style="opacity:1" fill="#2b2b2b" d="M 678.5,411.5 C 679.675,411.281 680.675,411.614 681.5,412.5C 679.948,413.798 678.948,413.465 678.5,411.5 Z"/></g>
<g><path style="opacity:1" fill="#1c1c1c" d="M 685.5,412.5 C 686.675,412.281 687.675,412.614 688.5,413.5C 686.948,414.798 685.948,414.465 685.5,412.5 Z"/></g>
<g><path style="opacity:1" fill="#222222" d="M 605.5,412.5 C 606.5,412.5 607.5,412.5 608.5,412.5C 608.5,413.833 608.5,415.167 608.5,416.5C 607.167,416.5 605.833,416.5 604.5,416.5C 604.433,415.041 604.766,413.708 605.5,412.5 Z"/></g>
<g><path style="opacity:1" fill="#555555" d="M 668.5,411.5 C 669.586,411.62 670.253,412.287 670.5,413.5C 669.696,415.957 668.696,415.957 667.5,413.5C 667.863,412.817 668.196,412.15 668.5,411.5 Z"/></g>
<g><path style="opacity:1" fill="#171717" d="M 476.5,414.5 C 481.159,414.015 482.492,415.848 480.5,420C 476.266,420.267 474.933,418.434 476.5,414.5 Z"/></g>
<g><path style="opacity:1" fill="#101010" d="M 566.5,414.5 C 566.715,416.179 566.048,417.179 564.5,417.5C 563.596,416.791 563.263,415.791 563.5,414.5C 564.5,414.5 565.5,414.5 566.5,414.5 Z"/></g>
<g><path style="opacity:1" fill="#2e2e2e" d="M 635.5,413.5 C 637.625,414.368 637.791,415.368 636,416.5C 634.317,415.824 634.15,414.824 635.5,413.5 Z"/></g>
<g><path style="opacity:1" fill="#1f1f1f" d="M 673.5,414.5 C 675.465,414.948 675.798,415.948 674.5,417.5C 673.614,416.675 673.281,415.675 673.5,414.5 Z"/></g>
<g><path style="opacity:1" fill="#262626" d="M 488.5,415.5 C 489.5,415.5 490.5,415.5 491.5,415.5C 491.5,416.5 491.5,417.5 491.5,418.5C 490.5,418.5 489.5,418.5 488.5,418.5C 488.5,417.5 488.5,416.5 488.5,415.5 Z"/></g>
<g><path style="opacity:1" fill="#7b7b7b" d="M 566.5,414.5 C 567.167,415.167 567.833,415.833 568.5,416.5C 567.89,417.391 567.557,418.391 567.5,419.5C 566.29,419.068 565.29,418.401 564.5,417.5C 566.048,417.179 566.715,416.179 566.5,414.5 Z"/></g>
<g><path style="opacity:1" fill="#383838" d="M 575.5,415.5 C 576.978,415.238 578.311,415.571 579.5,416.5C 577.537,419.194 576.203,418.861 575.5,415.5 Z"/></g>
<g><path style="opacity:1" fill="#2d2d2d" d="M 613.5,413.5 C 614.5,413.5 615.5,413.5 616.5,413.5C 616.5,414.833 616.5,416.167 616.5,417.5C 615.5,417.5 614.5,417.5 613.5,417.5C 613.5,416.167 613.5,414.833 613.5,413.5 Z"/></g>
<g><path style="opacity:1" fill="#1e1e1e" d="M 627.5,415.5 C 628.833,415.5 630.167,415.5 631.5,415.5C 631.5,416.833 631.5,418.167 631.5,419.5C 627.56,420.234 626.227,418.901 627.5,415.5 Z"/></g>
<g><path style="opacity:1" fill="#313131" d="M 538.5,415.5 C 541.957,415.667 542.29,416.667 539.5,418.5C 538.614,417.675 538.281,416.675 538.5,415.5 Z"/></g>
<g><path style="opacity:1" fill="#1b1b1b" d="M 548.5,416.5 C 549.833,416.5 551.167,416.5 552.5,416.5C 552.5,417.833 552.5,419.167 552.5,420.5C 549.5,420.833 548.167,419.5 548.5,416.5 Z"/></g>
<g><path style="opacity:1" fill="#161616" d="M 568.5,416.5 C 570.912,416.694 571.912,418.027 571.5,420.5C 569.901,420.768 568.568,420.434 567.5,419.5C 567.557,418.391 567.89,417.391 568.5,416.5 Z"/></g>
<g><path style="opacity:1" fill="#282828" d="M 593.5,417.5 C 594.5,417.5 595.5,417.5 596.5,417.5C 595.754,421.31 594.754,421.31 593.5,417.5 Z"/></g>
<g><path style="opacity:1" fill="#262626" d="M 511.5,417.5 C 512.5,417.5 513.5,417.5 514.5,417.5C 514.5,418.833 514.5,420.167 514.5,421.5C 513.5,421.5 512.5,421.5 511.5,421.5C 511.5,420.167 511.5,418.833 511.5,417.5 Z"/></g>
<g><path style="opacity:1" fill="#1e1e1e" d="M 583.5,418.5 C 584.833,418.5 586.167,418.5 587.5,418.5C 587.833,421.5 586.5,422.833 583.5,422.5C 583.5,421.167 583.5,419.833 583.5,418.5 Z"/></g>
<g><path style="opacity:1" fill="#181818" d="M 494.5,420.5 C 498.35,420.701 499.35,422.534 497.5,426C 493.537,426.118 492.537,424.284 494.5,420.5 Z"/></g>
<g><path style="opacity:1" fill="#191919" d="M 503.5,420.5 C 504.5,420.5 505.5,420.5 506.5,420.5C 506.426,424.541 505.093,425.208 502.5,422.5C 502.863,421.817 503.196,421.15 503.5,420.5 Z"/></g>
<g><path style="opacity:1" fill="#1e1e1e" d="M 638.5,419.5 C 641.084,420.048 642.084,421.715 641.5,424.5C 637.716,424.475 636.716,422.808 638.5,419.5 Z"/></g>
<g><path style="opacity:1" fill="#131313" d="M 601.5,423.5 C 602.5,423.5 603.5,423.5 604.5,423.5C 604.5,424.5 604.5,425.5 604.5,426.5C 603.5,426.5 602.5,426.5 601.5,426.5C 601.5,425.5 601.5,424.5 601.5,423.5 Z"/></g>
<g><path style="opacity:1" fill="#303030" d="M 610.5,422.5 C 612.337,422.639 612.67,423.306 611.5,424.5C 610.702,424.043 610.369,423.376 610.5,422.5 Z"/></g>
<g><path style="opacity:1" fill="#424242" d="M 623.5,421.5 C 624.5,421.5 625.5,421.5 626.5,421.5C 626.5,422.5 626.5,423.5 626.5,424.5C 625.5,424.5 624.5,424.5 623.5,424.5C 623.5,423.5 623.5,422.5 623.5,421.5 Z"/></g>
<g><path style="opacity:1" fill="#222222" d="M 480.5,423.5 C 484.138,422.737 485.638,424.07 485,427.5C 480.415,429.413 478.915,428.079 480.5,423.5 Z"/></g>
<g><path style="opacity:1" fill="#1c1c1c" d="M 468.5,424.5 C 469.5,424.5 470.5,424.5 471.5,424.5C 471.5,425.833 471.5,427.167 471.5,428.5C 470.167,428.5 468.833,428.5 467.5,428.5C 467.433,427.041 467.766,425.708 468.5,424.5 Z"/></g>
<g><path style="opacity:1" fill="#252525" d="M 488.5,424.5 C 490.912,424.694 491.912,426.027 491.5,428.5C 488.046,428.733 487.046,427.4 488.5,424.5 Z"/></g>
<g><path style="opacity:1" fill="#191919" d="M 618.5,425.5 C 619.833,425.5 621.167,425.5 622.5,425.5C 622.5,426.5 622.5,427.5 622.5,428.5C 621.167,428.5 619.833,428.5 618.5,428.5C 618.5,427.5 618.5,426.5 618.5,425.5 Z"/></g>
<g><path style="opacity:1" fill="#222222" d="M 460.5,427.5 C 461.833,427.5 463.167,427.5 464.5,427.5C 464.778,429.346 464.111,430.68 462.5,431.5C 460.889,430.68 460.222,429.346 460.5,427.5 Z"/></g>
<g><path style="opacity:1" fill="#535353" d="M 594.5,426.5 C 595.675,426.281 596.675,426.614 597.5,427.5C 595.948,428.798 594.948,428.465 594.5,426.5 Z"/></g>
<g><path style="opacity:1" fill="#1b1b1b" d="M 473.5,427.5 C 477.676,426.831 479.009,428.331 477.5,432C 476.207,432.49 474.873,432.657 473.5,432.5C 473.5,430.833 473.5,429.167 473.5,427.5 Z"/></g>
<g><path style="opacity:1" fill="#f8f8f8" d="M 555.5,499.5 C 556.211,495.695 556.878,491.862 557.5,488C 557.481,486.167 556.815,484.667 555.5,483.5C 559.962,479.267 563.462,474.267 566,468.5C 568.892,461.449 566.726,456.615 559.5,454C 551.113,452.538 543.113,449.871 535.5,446C 520.684,443.05 507.184,445.883 495,454.5C 495.653,463.832 499.153,472.166 505.5,479.5C 505.821,484.695 505.487,489.695 504.5,494.5C 487.726,483.076 483.559,468.076 492,449.5C 505.301,432.282 522.801,425.449 544.5,429C 563.19,432.028 575.356,442.528 581,460.5C 581.616,479.396 573.116,492.396 555.5,499.5 Z"/></g>
<g><path style="opacity:1" fill="#1c1c1c" d="M 608.5,427.5 C 611.861,428.203 612.194,429.537 609.5,431.5C 607.358,430.563 607.024,429.23 608.5,427.5 Z"/></g>
<g><path style="opacity:1" fill="#f4f4f4" d="M 749.5,452.5 C 749.5,453.167 749.5,453.833 749.5,454.5C 744.04,451.059 738.04,449.725 731.5,450.5C 727.833,450.667 724.167,450.833 720.5,451C 716.268,452.95 711.934,454.617 707.5,456C 703.787,457.851 700.453,460.184 697.5,463C 698.848,467.529 700.848,471.695 703.5,475.5C 703.187,480.353 702.521,485.02 701.5,489.5C 693.992,482.201 687.158,474.201 681,465.5C 682.117,458.937 685.117,453.271 690,448.5C 689.613,453.413 689.446,458.413 689.5,463.5C 690.5,463.5 691.5,463.5 692.5,463.5C 692.211,457.755 692.711,452.088 694,446.5C 700.153,441.22 707.32,438.053 715.5,437C 727.088,435.439 737.921,437.606 748,443.5C 748.696,446.478 749.196,449.478 749.5,452.5 Z"/></g>
<g><path style="opacity:1" fill="#fefefe" d="M 505.5,505.5 C 503.402,525.472 501.902,545.472 501,565.5C 503.274,569.714 505.274,574.047 507,578.5C 507.37,590.178 507.037,601.844 506,613.5C 502.264,623.912 497.597,633.912 492,643.5C 491.056,649.553 493.556,651.72 499.5,650C 503.571,644.694 506.737,638.861 509,632.5C 510.955,624.64 513.289,616.974 516,609.5C 516.667,605.167 516.667,600.833 516,596.5C 514.224,589.982 513.224,583.315 513,576.5C 511.542,572.004 509.542,567.67 507,563.5C 506.833,561.667 506.667,559.833 506.5,558C 507.743,549.71 509.577,541.543 512,533.5C 512.507,525.413 513.341,517.413 514.5,509.5C 519.769,510.817 525.103,511.817 530.5,512.5C 531.899,519.861 533.399,527.195 535,534.5C 535.667,544.5 535.667,554.5 535,564.5C 530.921,574.194 527.588,584.194 525,594.5C 526,608.516 525.666,622.516 524,636.5C 522.414,638.67 521.08,641.004 520,643.5C 518.041,649.368 517.375,655.368 518,661.5C 519.305,664.306 521.472,665.14 524.5,664C 525.126,663.25 525.626,662.416 526,661.5C 527.092,655.218 527.758,648.884 528,642.5C 529.586,640.33 530.92,637.996 532,635.5C 533.246,626.276 533.413,617.11 532.5,608C 537.767,607.036 542.101,604.536 545.5,600.5C 544.493,609.144 544.327,617.811 545,626.5C 548.565,636.914 555.731,642.581 566.5,643.5C 586.141,638.337 606.141,635.837 626.5,636C 630.536,634.54 634.536,632.873 638.5,631C 645.956,630.683 653.289,630.016 660.5,629C 654.772,630.848 649.106,632.848 643.5,635C 639.334,637.917 635.001,640.584 630.5,643C 623.489,645.793 616.489,648.46 609.5,651C 607.951,652.214 606.785,653.714 606,655.5C 604.531,665.9 605.865,675.9 610,685.5C 615.114,693.393 619.447,701.726 623,710.5C 628.096,718.584 635.263,724.084 644.5,727C 653.141,727.979 661.808,728.646 670.5,729C 679.478,728.931 687.478,731.598 694.5,737C 698.633,740.131 702.466,743.631 706,747.5C 705.107,750.436 703.274,752.936 700.5,755C 688.703,763.565 676.036,770.565 662.5,776C 630.369,796.155 595.369,808.155 557.5,812C 545.995,812.92 534.495,813.753 523,814.5C 518.167,814.333 513.333,814.167 508.5,814C 486.531,810.719 464.531,807.719 442.5,805C 416.149,798.413 389.482,793.413 362.5,790C 343.448,785.154 324.448,780.154 305.5,775C 295.899,771.862 286.899,767.696 278.5,762.5C 275.968,757.466 272.468,753.132 268,749.5C 267.802,745.404 268.469,741.404 270,737.5C 276.928,733.285 284.095,729.452 291.5,726C 302.167,724.333 312.833,722.667 323.5,721C 345.142,712.313 367.475,710.147 390.5,714.5C 392.429,714.46 394.262,714.127 396,713.5C 396.658,711.892 396.158,710.725 394.5,710C 381.693,705.172 368.693,700.506 355.5,696C 355.043,695.586 354.709,695.086 354.5,694.5C 359.689,688.478 364.689,682.312 369.5,676C 378.886,670.612 387.719,664.446 396,657.5C 410.388,638.257 415.388,616.59 411,592.5C 409.043,576.861 407.209,561.195 405.5,545.5C 408.075,532.976 409.575,520.309 410,507.5C 412.384,493.342 418.051,480.675 427,469.5C 430.739,461.212 432.905,452.545 433.5,443.5C 438.667,441.651 444,441.151 449.5,442C 459.724,445.779 469.391,450.612 478.5,456.5C 476.912,478.858 485.912,495.191 505.5,505.5 Z"/></g>
<g><path style="opacity:1" fill="#9e9e9e" d="M 433.5,443.5 C 432.905,452.545 430.739,461.212 427,469.5C 418.051,480.675 412.384,493.342 410,507.5C 409.575,520.309 408.075,532.976 405.5,545.5C 407.209,561.195 409.043,576.861 411,592.5C 415.388,616.59 410.388,638.257 396,657.5C 387.719,664.446 378.886,670.612 369.5,676C 364.689,682.312 359.689,688.478 354.5,694.5C 354.709,695.086 355.043,695.586 355.5,696C 368.693,700.506 381.693,705.172 394.5,710C 396.158,710.725 396.658,711.892 396,713.5C 394.262,714.127 392.429,714.46 390.5,714.5C 367.475,710.147 345.142,712.313 323.5,721C 312.833,722.667 302.167,724.333 291.5,726C 284.095,729.452 276.928,733.285 270,737.5C 268.469,741.404 267.802,745.404 268,749.5C 272.468,753.132 275.968,757.466 278.5,762.5C 260.635,762.144 245.802,755.477 234,742.5C 232.783,739.006 231.283,735.673 229.5,732.5C 232.109,729.856 235.109,727.689 238.5,726C 248.047,725.723 257.047,723.39 265.5,719C 277.078,716.425 288.745,715.925 300.5,717.5C 308.591,717.552 316.091,715.552 323,711.5C 324.073,707.905 322.739,705.905 319,705.5C 309.964,707.859 300.797,708.692 291.5,708C 306.259,698.611 319.925,687.778 332.5,675.5C 344.853,661.648 357.02,647.648 369,633.5C 370,631.5 371,629.5 372,627.5C 374.002,607.83 378.669,588.83 386,570.5C 392.048,545.494 394.048,520.161 392,494.5C 393.373,479.212 397.873,464.878 405.5,451.5C 414.552,447.903 423.885,445.237 433.5,443.5 Z"/></g>
<g><path style="opacity:1" fill="#090808" d="M 555.5,483.5 C 552.838,485.268 549.838,485.935 546.5,485.5C 543.193,484.949 539.86,484.616 536.5,484.5C 531.167,484.5 525.833,484.5 520.5,484.5C 518.139,484.326 515.806,483.993 513.5,483.5C 511.151,481.659 508.485,480.326 505.5,479.5C 499.153,472.166 495.653,463.832 495,454.5C 507.184,445.883 520.684,443.05 535.5,446C 543.113,449.871 551.113,452.538 559.5,454C 566.726,456.615 568.892,461.449 566,468.5C 563.462,474.267 559.962,479.267 555.5,483.5 Z"/></g>
<g><path style="opacity:1" fill="#fcfcfc" d="M 651.5,532.5 C 648.813,532.664 646.146,532.497 643.5,532C 638.977,529.866 634.311,528.033 629.5,526.5C 619.44,521.67 610.107,522.67 601.5,529.5C 598.123,529.959 594.789,530.626 591.5,531.5C 590.711,531.217 590.044,530.717 589.5,530C 584.845,529.501 580.179,529.334 575.5,529.5C 574.969,527.456 573.802,525.789 572,524.5C 570.911,518.867 571.577,513.534 574,508.5C 576.844,506.841 579.344,504.841 581.5,502.5C 582.686,501.039 582.686,499.705 581.5,498.5C 580.167,497.5 578.833,496.5 577.5,495.5C 584.851,487.304 589.018,477.637 590,466.5C 599.849,461.491 609.683,456.324 619.5,451C 629.877,448.982 640.21,449.315 650.5,452C 658.754,454.629 665.421,459.462 670.5,466.5C 671.567,481.806 678.234,493.973 690.5,503C 687.296,505.869 684.463,509.035 682,512.5C 679.213,518.861 676.046,525.028 672.5,531C 668.223,530.551 663.889,530.051 659.5,529.5C 657.5,529.667 655.5,529.833 653.5,530C 652.619,530.708 651.953,531.542 651.5,532.5 Z"/></g>
<g><path style="opacity:1" fill="#0d0b0c" d="M 749.5,454.5 C 749.5,455.5 749.5,456.5 749.5,457.5C 749.217,458.289 748.717,458.956 748,459.5C 747.727,464.229 747.061,468.896 746,473.5C 745.004,475.66 743.504,477.327 741.5,478.5C 740.292,479.234 738.959,479.567 737.5,479.5C 736.833,479.5 736.167,479.5 735.5,479.5C 729.688,478.423 723.688,477.757 717.5,477.5C 716.5,477.5 715.5,477.5 714.5,477.5C 710.586,477.889 706.92,477.222 703.5,475.5C 700.848,471.695 698.848,467.529 697.5,463C 700.453,460.184 703.787,457.851 707.5,456C 711.934,454.617 716.268,452.95 720.5,451C 724.167,450.833 727.833,450.667 731.5,450.5C 738.04,449.725 744.04,451.059 749.5,454.5 Z"/></g>
<g><path style="opacity:1" fill="#f3a8c2" d="M 515.5,452.5 C 518.518,452.335 521.518,452.502 524.5,453C 520.652,458.548 519.485,464.715 521,471.5C 521.346,473.848 522.513,475.681 524.5,477C 509.223,477.563 502.556,470.396 504.5,455.5C 508.172,454.098 511.839,453.098 515.5,452.5 Z"/></g>
<g><path style="opacity:1" fill="#83bbc5" d="M 758.5,451.5 C 765.075,458.524 767.242,466.857 765,476.5C 764.64,478.608 763.973,480.608 763,482.5C 762.619,471.985 761.119,461.652 758.5,451.5 Z"/></g>
<g><path style="opacity:1" fill="#e39fb8" d="M 739.5,456.5 C 742.998,456.565 743.498,457.899 741,460.5C 740.209,459.255 739.709,457.922 739.5,456.5 Z"/></g>
<g><path style="opacity:1" fill="#f1f2f2" d="M 749.5,457.5 C 750.167,458.167 750.833,458.833 751.5,459.5C 752.808,466.082 753.808,472.748 754.5,479.5C 754.577,484.837 753.577,489.837 751.5,494.5C 746.656,490.151 743.322,484.818 741.5,478.5C 743.504,477.327 745.004,475.66 746,473.5C 747.061,468.896 747.727,464.229 748,459.5C 748.717,458.956 749.217,458.289 749.5,457.5 Z"/></g>
<g><path style="opacity:1" fill="#979797" d="M 749.5,452.5 C 750.924,454.515 751.59,456.848 751.5,459.5C 750.833,458.833 750.167,458.167 749.5,457.5C 749.5,456.5 749.5,455.5 749.5,454.5C 749.5,453.833 749.5,453.167 749.5,452.5 Z"/></g>
<g><path style="opacity:1" fill="#f5a9c3" d="M 716.5,457.5 C 718.199,457.34 719.866,457.506 721.5,458C 718.574,463.116 719.24,467.782 723.5,472C 717.78,472.788 712.114,472.621 706.5,471.5C 704.461,469.101 703.295,466.434 703,463.5C 707.179,460.582 711.679,458.582 716.5,457.5 Z"/></g>
<g><path style="opacity:1" fill="#f3a8c2" d="M 547.5,460.5 C 551.155,459.512 554.821,460.012 558.5,462C 559.357,462.689 560.023,463.522 560.5,464.5C 558.98,469.71 556.314,474.21 552.5,478C 549.577,479.632 546.577,479.799 543.5,478.5C 549.703,473.504 551.036,467.504 547.5,460.5 Z"/></g>
<g><path style="opacity:1" fill="#c98aa0" d="M 739.5,466.5 C 740.559,468.726 740.392,471.059 739,473.5C 736.936,474.591 734.769,474.758 732.5,474C 736.418,472.917 738.752,470.417 739.5,466.5 Z"/></g>
<g><path style="opacity:1" fill="#9ad5e4" d="M 703.5,475.5 C 706.92,477.222 710.586,477.889 714.5,477.5C 713.081,478.451 711.415,478.784 709.5,478.5C 710.768,486.21 710.768,493.876 709.5,501.5C 706.951,501.613 704.618,500.946 702.5,499.5C 701.513,496.232 701.18,492.898 701.5,489.5C 702.521,485.02 703.187,480.353 703.5,475.5 Z"/></g>
<g><path style="opacity:1" fill="#f6f9fa" d="M 714.5,477.5 C 715.5,477.5 716.5,477.5 717.5,477.5C 719.292,478.309 721.292,478.809 723.5,479C 722.667,479.833 721.833,480.667 721,481.5C 719.814,488.786 719.314,496.119 719.5,503.5C 715.84,503.841 712.507,503.175 709.5,501.5C 710.768,493.876 710.768,486.21 709.5,478.5C 711.415,478.784 713.081,478.451 714.5,477.5 Z"/></g>
<g><path style="opacity:1" fill="#9cd4e2" d="M 717.5,477.5 C 723.688,477.757 729.688,478.423 735.5,479.5C 732.833,479.5 730.167,479.5 727.5,479.5C 728.182,487.537 728.182,495.537 727.5,503.5C 724.833,503.5 722.167,503.5 719.5,503.5C 719.314,496.119 719.814,488.786 721,481.5C 721.833,480.667 722.667,479.833 723.5,479C 721.292,478.809 719.292,478.309 717.5,477.5 Z"/></g>
<g><path style="opacity:1" fill="#fafcfc" d="M 735.5,479.5 C 736.167,479.5 736.833,479.5 737.5,479.5C 737.664,486.66 739.997,492.994 744.5,498.5C 743.4,499.558 742.066,500.392 740.5,501C 736.166,501.9 731.832,502.734 727.5,503.5C 728.182,495.537 728.182,487.537 727.5,479.5C 730.167,479.5 732.833,479.5 735.5,479.5 Z"/></g>
<g><path style="opacity:1" fill="#9edae9" d="M 741.5,478.5 C 743.322,484.818 746.656,490.151 751.5,494.5C 749.664,496.588 747.331,497.921 744.5,498.5C 739.997,492.994 737.664,486.66 737.5,479.5C 738.959,479.567 740.292,479.234 741.5,478.5 Z"/></g>
<g><path style="opacity:1" fill="#9cd7e6" d="M 505.5,479.5 C 508.485,480.326 511.151,481.659 513.5,483.5C 514.893,489.039 515.56,494.705 515.5,500.5C 511.345,499.258 507.678,497.258 504.5,494.5C 505.487,489.695 505.821,484.695 505.5,479.5 Z"/></g>
<g><path style="opacity:1" fill="#fcfcfc" d="M 513.5,483.5 C 515.806,483.993 518.139,484.326 520.5,484.5C 523.625,485.479 526.958,485.813 530.5,485.5C 529.968,491.152 529.635,496.819 529.5,502.5C 527.5,502.5 525.5,502.5 523.5,502.5C 520.659,502.44 517.993,501.774 515.5,500.5C 515.56,494.705 514.893,489.039 513.5,483.5 Z"/></g>
<g><path style="opacity:1" fill="#fafcfc" d="M 536.5,484.5 C 539.86,484.616 543.193,484.949 546.5,485.5C 547.609,486.29 548.942,486.79 550.5,487C 548.925,491.671 548.258,496.504 548.5,501.5C 545.239,502.378 541.906,503.044 538.5,503.5C 539.031,496.922 538.365,490.588 536.5,484.5 Z"/></g>
<g><path style="opacity:1" fill="#d9d9d9" d="M 681.5,477.5 C 684.81,482.975 689.31,487.308 695,490.5C 695.798,492.259 695.631,493.926 694.5,495.5C 687.784,491.133 683.451,485.133 681.5,477.5 Z"/></g>
<g><path style="opacity:1" fill="#9cd6e4" d="M 555.5,483.5 C 556.815,484.667 557.481,486.167 557.5,488C 556.878,491.862 556.211,495.695 555.5,499.5C 553.299,500.566 550.965,501.233 548.5,501.5C 548.258,496.504 548.925,491.671 550.5,487C 548.942,486.79 547.609,486.29 546.5,485.5C 549.838,485.935 552.838,485.268 555.5,483.5 Z"/></g>
<g><path style="opacity:1" fill="#9fd5e3" d="M 520.5,484.5 C 525.833,484.5 531.167,484.5 536.5,484.5C 538.365,490.588 539.031,496.922 538.5,503.5C 533.305,503.821 528.305,503.487 523.5,502.5C 525.5,502.5 527.5,502.5 529.5,502.5C 529.635,496.819 529.968,491.152 530.5,485.5C 526.958,485.813 523.625,485.479 520.5,484.5 Z"/></g>
<g><path style="opacity:1" fill="#898989" d="M 577.5,495.5 C 578.833,496.5 580.167,497.5 581.5,498.5C 579.143,498.663 576.81,498.497 574.5,498C 575.373,496.955 576.373,496.122 577.5,495.5 Z"/></g>
<g><path style="opacity:1" fill="#9a9a9a" d="M 581.5,502.5 C 579.344,504.841 576.844,506.841 574,508.5C 571.577,513.534 570.911,518.867 572,524.5C 573.802,525.789 574.969,527.456 575.5,529.5C 570.686,528.857 567.52,526.191 566,521.5C 564.093,509.289 569.26,502.956 581.5,502.5 Z"/></g>
<g><path style="opacity:1" fill="#fcfcfc" d="M 698.5,507.5 C 698.206,516.217 697.372,524.884 696,533.5C 695.751,536.177 694.751,538.51 693,540.5C 692.935,549.612 691.935,558.612 690,567.5C 687,571.833 684,576.167 681,580.5C 680.329,581.252 679.496,581.586 678.5,581.5C 675.413,575.446 670.413,572.113 663.5,571.5C 656.418,572.583 649.418,573.917 642.5,575.5C 624.02,571.769 605.354,570.603 586.5,572C 581.511,573.663 576.511,575.33 571.5,577C 566.938,579.78 562.272,582.28 557.5,584.5C 556.957,584.44 556.624,584.107 556.5,583.5C 558.234,579.964 559.567,576.297 560.5,572.5C 560.046,559.434 559.046,546.434 557.5,533.5C 560.297,535.795 562.964,538.295 565.5,541C 568.552,543.029 571.886,544.196 575.5,544.5C 587.931,541.876 600.265,539.042 612.5,536C 624.22,535.839 635.886,536.672 647.5,538.5C 653.18,537.832 658.847,537.166 664.5,536.5C 668.574,537.99 672.574,537.824 676.5,536C 680.715,529.072 684.548,521.905 688,514.5C 690.285,512.093 692.451,509.593 694.5,507C 696.066,506.235 697.399,506.402 698.5,507.5 Z"/></g>
<g><path style="opacity:1" fill="#9edbea" d="M 505.5,505.5 C 508.5,506.833 511.5,508.167 514.5,509.5C 513.341,517.413 512.507,525.413 512,533.5C 509.577,541.543 507.743,549.71 506.5,558C 506.667,559.833 506.833,561.667 507,563.5C 509.542,567.67 511.542,572.004 513,576.5C 513.224,583.315 514.224,589.982 516,596.5C 516.667,600.833 516.667,605.167 516,609.5C 513.289,616.974 510.955,624.64 509,632.5C 506.737,638.861 503.571,644.694 499.5,650C 493.556,651.72 491.056,649.553 492,643.5C 497.597,633.912 502.264,623.912 506,613.5C 507.037,601.844 507.37,590.178 507,578.5C 505.274,574.047 503.274,569.714 501,565.5C 501.902,545.472 503.402,525.472 505.5,505.5 Z"/></g>
<g><path style="opacity:1" fill="#f9fafa" d="M 747.5,507.5 C 749.176,508.183 749.843,509.517 749.5,511.5C 747.04,525.327 745.874,539.327 746,553.5C 744.681,557.472 742.847,561.139 740.5,564.5C 739.819,562.842 738.985,561.175 738,559.5C 736.814,548.676 734.814,538.009 732,527.5C 731,526.5 730,525.5 729,524.5C 728.767,520.415 728.267,516.415 727.5,512.5C 734.174,511.269 740.841,509.602 747.5,507.5 Z"/></g>
<g><path style="opacity:1" fill="#9edaea" d="M 698.5,507.5 C 701.172,508.501 703.838,509.501 706.5,510.5C 706.022,518.163 705.522,525.83 705,533.5C 704.115,536.726 702.781,539.726 701,542.5C 700.665,550.529 699.998,558.529 699,566.5C 697.967,571.567 695.634,575.9 692,579.5C 689.022,588.923 686.189,598.257 683.5,607.5C 683.666,601.491 683.499,595.491 683,589.5C 681.741,586.644 680.241,583.977 678.5,581.5C 679.496,581.586 680.329,581.252 681,580.5C 684,576.167 687,571.833 690,567.5C 691.935,558.612 692.935,549.612 693,540.5C 694.751,538.51 695.751,536.177 696,533.5C 697.372,524.884 698.206,516.217 698.5,507.5 Z"/></g>
<g><path style="opacity:1" fill="#9e9e9f" d="M 558.5,509.5 C 557.589,532.768 568.256,541.268 590.5,535C 591.337,533.989 591.67,532.822 591.5,531.5C 594.789,530.626 598.123,529.959 601.5,529.5C 599.875,532.449 600.708,534.449 604,535.5C 608.446,533.36 612.946,531.36 617.5,529.5C 621.006,531.285 624.672,532.118 628.5,532C 630.635,530.444 630.968,528.611 629.5,526.5C 634.311,528.033 638.977,529.866 643.5,532C 646.146,532.497 648.813,532.664 651.5,532.5C 651.414,533.496 651.748,534.329 652.5,535C 656.688,535.176 660.688,535.676 664.5,536.5C 658.847,537.166 653.18,537.832 647.5,538.5C 635.886,536.672 624.22,535.839 612.5,536C 600.265,539.042 587.931,541.876 575.5,544.5C 571.886,544.196 568.552,543.029 565.5,541C 562.964,538.295 560.297,535.795 557.5,533.5C 556.193,529.077 555.193,524.577 554.5,520C 554.61,515.961 555.943,512.461 558.5,509.5 Z"/></g>
<g><path style="opacity:1" fill="#475559" d="M 749.5,511.5 C 749.843,509.517 749.176,508.183 747.5,507.5C 748.172,506.733 749.005,506.066 750,505.5C 750.789,507.712 750.622,509.712 749.5,511.5 Z"/></g>
<g><path style="opacity:1" fill="#9edaea" d="M 558.5,509.5 C 555.943,512.461 554.61,515.961 554.5,520C 555.193,524.577 556.193,529.077 557.5,533.5C 559.046,546.434 560.046,559.434 560.5,572.5C 559.567,576.297 558.234,579.964 556.5,583.5C 556.624,584.107 556.957,584.44 557.5,584.5C 550.744,587.903 546.744,593.236 545.5,600.5C 542.101,604.536 537.767,607.036 532.5,608C 533.413,617.11 533.246,626.276 532,635.5C 530.92,637.996 529.586,640.33 528,642.5C 527.758,648.884 527.092,655.218 526,661.5C 525.626,662.416 525.126,663.25 524.5,664C 521.472,665.14 519.305,664.306 518,661.5C 517.375,655.368 518.041,649.368 520,643.5C 521.08,641.004 522.414,638.67 524,636.5C 525.666,622.516 526,608.516 525,594.5C 527.588,584.194 530.921,574.194 535,564.5C 535.667,554.5 535.667,544.5 535,534.5C 533.399,527.195 531.899,519.861 530.5,512.5C 533.833,512.5 537.167,512.5 540.5,512.5C 543.254,529.011 544.087,545.678 543,562.5C 539.921,567.145 537.588,572.145 536,577.5C 534.647,584.874 533.313,592.207 532,599.5C 536.183,593.138 540.85,587.138 546,581.5C 548.81,577.547 550.81,573.213 552,568.5C 552.667,560.167 552.667,551.833 552,543.5C 549.41,532.691 546.91,522.024 544.5,511.5C 549.959,510.683 555.292,509.016 560.5,506.5C 560.984,507.781 560.317,508.781 558.5,509.5 Z"/></g>
<g><path style="opacity:1" fill="#fbfcfc" d="M 706.5,510.5 C 710.807,511.327 715.14,511.993 719.5,512.5C 724.628,532.171 728.128,552.171 730,572.5C 730.717,573.044 731.217,573.711 731.5,574.5C 715.521,581.418 701.688,591.418 690,604.5C 687.829,608.844 685.163,612.844 682,616.5C 681.073,613.137 681.573,610.137 683.5,607.5C 686.189,598.257 689.022,588.923 692,579.5C 695.634,575.9 697.967,571.567 699,566.5C 699.998,558.529 700.665,550.529 701,542.5C 702.781,539.726 704.115,536.726 705,533.5C 705.522,525.83 706.022,518.163 706.5,510.5 Z"/></g>
<g><path style="opacity:1" fill="#f9fcfd" d="M 544.5,511.5 C 546.91,522.024 549.41,532.691 552,543.5C 552.667,551.833 552.667,560.167 552,568.5C 550.81,573.213 548.81,577.547 546,581.5C 540.85,587.138 536.183,593.138 532,599.5C 533.313,592.207 534.647,584.874 536,577.5C 537.588,572.145 539.921,567.145 543,562.5C 544.087,545.678 543.254,529.011 540.5,512.5C 541.568,511.566 542.901,511.232 544.5,511.5 Z"/></g>
<g><path style="opacity:1" fill="#9fdbea" d="M 719.5,512.5 C 722.167,512.5 724.833,512.5 727.5,512.5C 728.267,516.415 728.767,520.415 729,524.5C 730,525.5 731,526.5 732,527.5C 734.814,538.009 736.814,548.676 738,559.5C 738.985,561.175 739.819,562.842 740.5,564.5C 738.895,569.104 735.895,572.438 731.5,574.5C 731.217,573.711 730.717,573.044 730,572.5C 728.128,552.171 724.628,532.171 719.5,512.5 Z"/></g>
<g><path style="opacity:1" fill="#0f0f0f" d="M 629.5,526.5 C 630.968,528.611 630.635,530.444 628.5,532C 624.672,532.118 621.006,531.285 617.5,529.5C 612.946,531.36 608.446,533.36 604,535.5C 600.708,534.449 599.875,532.449 601.5,529.5C 610.107,522.67 619.44,521.67 629.5,526.5 Z"/></g>
<g><path style="opacity:1" fill="#f7f7f7" d="M 605.5,610.5 C 603.833,610.5 602.167,610.5 600.5,610.5C 600.5,609.5 600.5,608.5 600.5,607.5C 600.5,597.5 600.5,587.5 600.5,577.5C 608.44,577.481 616.274,578.148 624,579.5C 624.055,588.839 623.555,598.172 622.5,607.5C 616.856,608.607 611.189,609.607 605.5,610.5 Z"/></g>
<g><path style="opacity:1" fill="#fbfbfb" d="M 578.5,610.5 C 577.866,603.4 577.199,596.4 576.5,589.5C 576.5,586.833 576.5,584.167 576.5,581.5C 583.038,579.532 589.705,578.199 596.5,577.5C 596.5,588.833 596.5,600.167 596.5,611.5C 590.536,610.693 584.536,610.36 578.5,610.5 Z"/></g>
<g><path style="opacity:1" fill="#f5f5f5" d="M 660.5,578.5 C 667.858,578.435 673.191,581.602 676.5,588C 676.241,589.261 675.574,590.261 674.5,591C 669.747,593.458 665.247,596.292 661,599.5C 660.5,592.508 660.334,585.508 660.5,578.5 Z"/></g>
<g><path style="opacity:1" fill="#fafafa" d="M 627.5,593.5 C 628.483,589.702 628.817,585.702 628.5,581.5C 629.833,581.5 631.167,581.5 632.5,581.5C 640.388,583.204 648.055,582.537 655.5,579.5C 656.497,587.138 656.831,594.804 656.5,602.5C 646.459,604.279 636.459,604.945 626.5,604.5C 627.426,600.906 627.759,597.24 627.5,593.5 Z"/></g>
<g><path style="opacity:1" fill="#b2b2b2" d="M 632.5,581.5 C 631.167,581.5 629.833,581.5 628.5,581.5C 628.817,585.702 628.483,589.702 627.5,593.5C 627.5,589.167 627.5,584.833 627.5,580.5C 629.415,580.216 631.081,580.549 632.5,581.5 Z"/></g>
<g><path style="opacity:1" fill="#f8f8f8" d="M 572.5,592.5 C 573.113,598.271 572.446,603.604 570.5,608.5C 565.484,607.942 560.484,607.275 555.5,606.5C 554.167,606.5 552.833,606.5 551.5,606.5C 551.5,604.167 551.5,601.833 551.5,599.5C 551.549,596.901 552.549,594.734 554.5,593C 560.412,589.876 566.412,587.043 572.5,584.5C 572.5,587.167 572.5,589.833 572.5,592.5 Z"/></g>
<g><path style="opacity:1" fill="#bcbcbc" d="M 576.5,589.5 C 577.199,596.4 577.866,603.4 578.5,610.5C 576.539,603.913 575.872,596.913 576.5,589.5 Z"/></g>
<g><path style="opacity:1" fill="#f7f7f7" d="M 675.5,596.5 C 676.5,596.5 677.5,596.5 678.5,596.5C 678.397,602.861 677.897,609.194 677,615.5C 672.659,620.755 667.159,623.421 660.5,623.5C 660.334,617.491 660.501,611.491 661,605.5C 666.026,602.606 670.86,599.606 675.5,596.5 Z"/></g>
<g><path style="opacity:1" fill="#404040" d="M 572.5,592.5 C 573.489,597.975 573.822,603.642 573.5,609.5C 572.209,609.737 571.209,609.404 570.5,608.5C 572.446,603.604 573.113,598.271 572.5,592.5 Z"/></g>
<g><path style="opacity:1" fill="#6d6d6d" d="M 551.5,599.5 C 551.5,601.833 551.5,604.167 551.5,606.5C 552.833,606.5 554.167,606.5 555.5,606.5C 554.081,607.451 552.415,607.784 550.5,607.5C 550.194,604.615 550.527,601.948 551.5,599.5 Z"/></g>
<g><path style="opacity:1" fill="#8d8d8d" d="M 600.5,607.5 C 600.5,608.5 600.5,609.5 600.5,610.5C 602.167,610.5 603.833,610.5 605.5,610.5C 603.735,611.461 601.735,611.795 599.5,611.5C 599.232,609.901 599.566,608.568 600.5,607.5 Z"/></g>
<g><path style="opacity:1" fill="#f9f9f9" d="M 653.5,608.5 C 655.442,613.056 656.108,618.056 655.5,623.5C 646.065,623.682 637.065,625.682 628.5,629.5C 627.503,622.866 627.17,616.2 627.5,609.5C 636.167,609.167 644.833,608.833 653.5,608.5 Z"/></g>
<g><path style="opacity:1" fill="#f8f8f8" d="M 549.5,611.5 C 557.174,612.119 564.84,612.786 572.5,613.5C 572.831,620.863 572.497,628.197 571.5,635.5C 562.608,638.145 556.441,635.145 553,626.5C 551.894,621.466 550.727,616.466 549.5,611.5 Z"/></g>
<g><path style="opacity:1" fill="#fafafa" d="M 620.5,612.5 C 622.453,618.074 623.12,624.074 622.5,630.5C 614.807,630.906 607.14,631.572 599.5,632.5C 599.425,626.471 599.759,620.471 600.5,614.5C 607.183,613.965 613.85,613.298 620.5,612.5 Z"/></g>
<g><path style="opacity:1" fill="#606060" d="M 653.5,608.5 C 654.209,607.596 655.209,607.263 656.5,607.5C 656.821,613.026 656.488,618.36 655.5,623.5C 656.108,618.056 655.442,613.056 653.5,608.5 Z"/></g>
<g><path style="opacity:1" fill="#f5f5f5" d="M 576.5,614.5 C 583.167,614.5 589.833,614.5 596.5,614.5C 595.693,620.464 595.36,626.464 595.5,632.5C 588.761,632.512 582.095,633.179 575.5,634.5C 575.954,627.841 576.287,621.174 576.5,614.5 Z"/></g>
<g><path style="opacity:1" fill="#6c6c6c" d="M 620.5,612.5 C 621.209,611.596 622.209,611.263 623.5,611.5C 623.823,618.022 623.49,624.355 622.5,630.5C 623.12,624.074 622.453,618.074 620.5,612.5 Z"/></g>
<g><path style="opacity:1" fill="#9f9f9f" d="M 550.5,687.5 C 549.883,687.611 549.383,687.944 549,688.5C 547.627,700.914 542.293,711.248 533,719.5C 531.702,720.946 531.535,722.279 532.5,723.5C 527.614,724.393 522.614,725.726 517.5,727.5C 520.561,721.269 525.228,716.436 531.5,713C 534,709.833 536.5,706.667 539,703.5C 540.59,694.954 542.924,686.621 546,678.5C 547.396,676.473 549.062,676.14 551,677.5C 551.172,680.826 551.005,684.159 550.5,687.5 Z"/></g>
<g><path style="opacity:1" fill="#0d0d0d" d="M 550.5,687.5 C 554.235,704.033 548.235,716.033 532.5,723.5C 531.535,722.279 531.702,720.946 533,719.5C 542.293,711.248 547.627,700.914 549,688.5C 549.383,687.944 549.883,687.611 550.5,687.5 Z"/></g>
</svg>
