<?xml version="1.0" encoding="UTF-8"?>
<svg id="Layer_1" xmlns="http://www.w3.org/2000/svg" version="1.1" viewBox="0 0 256 256">
  <!-- Generator: Adobe Illustrator 29.3.1, SVG Export Plug-In . SVG Version: 2.1.0 Build 151)  -->
  <defs>
    <style>
      .st0 {
        fill: #fff;
      }

      .st1 {
        fill: #3679b5;
      }
    </style>
  </defs>
  <rect class="st1" x="-1144.7" y="-28.4" width="1502.9" height="330"/>
  <g>
    <path class="st0" d="M125.9,48l-70.5,27.6h0v101l74.8,31.3,70.5-33.2v-22.2l-70.5,33.2-52.6-22v-17.2l52.6,22,70.5-33.2v-22.2l-70.5,33.2-52.6-22v-17.2l52.6,22,70.5-33.2v-19.2s0-3,0-3l-74.8-25.7ZM129.4,106.7h0s.6.2.6.2l-.7-.2Z"/>
    <polygon class="st0" points="130.1 107 129.4 106.7 129.5 106.7 130.1 107"/>
    <polygon class="st0" points="130.1 107 129.4 106.7 129.5 106.7 130.1 107"/>
  </g>
</svg>