<?xml version="1.0" encoding="utf-8"?>
<svg viewBox="0 0 69 69" fill="none" xmlns="http://www.w3.org/2000/svg">
  <path d="M34.1 68.2C52.9329 68.2 68.2 52.9329 68.2 34.1C68.2 15.2671 52.9329 0 34.1 0C15.2671 0 0 15.2671 0 34.1C0 52.9329 15.2671 68.2 34.1 68.2Z" fill="#0216DD"/>
  <path d="M39.1262 41.4496C39.1262 41.5036 39.1802 41.5576 39.1802 41.6657C37.8292 42.9627 36.1539 43.7193 34.2624 43.7733C30.5876 43.9355 27.5073 41.5576 26.5346 37.9369C25.832 35.3429 23.5082 33.8838 20.8602 34.5863C18.9688 35.0727 17.6178 36.5859 18.1582 39.342C19.9956 48.529 29.5068 54.3114 38.4777 51.6093C45.1788 49.6098 50.5829 42.9627 49.9884 35.1267C49.8804 33.3434 48.8536 32.3166 47.0702 32.3166C45.2328 32.3166 43.4495 32.3166 41.612 32.3166C40.0449 32.3166 38.5317 32.3166 36.9645 32.3166C34.7488 32.3706 33.1816 33.9919 33.1276 36.2076C33.1276 36.6939 33.1276 37.1803 33.1276 37.6667C33.1276 39.8824 34.8029 41.5036 37.0185 41.5036C37.7211 41.4496 38.4236 41.4496 39.1262 41.4496ZM36.6943 22.8053C36.6943 23.67 36.6943 24.5887 36.6943 25.4534C36.6943 26.318 37.0726 26.9665 37.7211 27.5069C38.91 28.4256 40.261 28.2095 41.558 28.0473C42.855 27.8852 43.8277 26.7504 43.8818 25.3993C43.9358 23.616 43.9358 21.8326 43.8818 20.1033C43.8818 18.8603 43.0171 17.7255 41.7742 17.5093C40.9095 17.3472 39.9368 17.3472 39.0721 17.4553C37.613 17.6174 36.6943 18.6982 36.6943 20.2114C36.6943 21.076 36.6943 21.9407 36.6943 22.8053ZM34.1003 21.2382C34.1003 20.8058 34.1003 20.5356 34.1003 20.2654C34.1003 18.8063 33.1816 17.6714 31.7225 17.4553C30.9659 17.3472 30.1553 17.4012 29.3987 17.5093C28.1558 17.7255 27.2911 18.8603 27.2371 20.1573C27.2371 20.6437 27.2371 21.1301 27.2371 21.6164C27.2371 23.5079 28.1558 24.5887 29.9932 24.6968C30.8578 24.7508 31.8306 24.6428 32.6412 24.3185C33.9922 23.7241 34.2084 22.4271 34.1003 21.2382ZM24.8052 21.9947C24.8052 21.6705 24.8593 21.2922 24.8052 20.9679C24.6972 19.5629 23.4002 18.8063 22.3734 19.5629C21.2926 20.3735 20.3198 21.2922 19.4552 22.2649C18.7526 23.0756 19.293 24.4266 20.3739 24.5887C21.3466 24.6968 22.3734 24.6428 23.3461 24.5887C23.6704 24.5887 24.1567 24.3725 24.3189 24.0483C24.5891 23.4538 24.8593 22.0488 24.8052 21.9947Z" fill="white"/>
</svg>