<?xml version="1.0" encoding="UTF-8"?>
<svg id="Layer_1" data-name="Layer 1" xmlns="http://www.w3.org/2000/svg" xmlns:xlink="http://www.w3.org/1999/xlink" viewBox="0 0 870 870">
  <defs>
    <style>
      .cls-1 {
        stroke: #221488;
      }

      .cls-1, .cls-2 {
        fill: #6c51e6;
        stroke-linecap: round;
        stroke-linejoin: round;
        stroke-width: 10.99px;
      }

      .cls-2 {
        stroke: #2e2d80;
      }

      .cls-3 {
        fill: #db8f19;
      }

      .cls-3, .cls-4, .cls-5 {
        stroke: #aa752a;
        stroke-miterlimit: 10;
        stroke-width: 10.97px;
      }

      .cls-6 {
        fill: url(#radial-gradient);
      }

      .cls-6, .cls-7 {
        opacity: .5;
      }

      .cls-6, .cls-7, .cls-8, .cls-9, .cls-10, .cls-11 {
        stroke-width: 0px;
      }

      .cls-4 {
        fill: #f9b246;
      }

      .cls-7 {
        fill: url(#radial-gradient-2);
      }

      .cls-8 {
        fill: url(#linear-gradient);
        opacity: .43;
      }

      .cls-9 {
        fill: #221488;
      }

      .cls-10 {
        fill: #fff;
      }

      .cls-11 {
        fill: #ef69a6;
      }

      .cls-5 {
        fill: none;
      }

      .cls-12 {
        fill: #aa752a;
        font-family: Modak, Modak;
        font-size: 82.28px;
      }
    </style>
    <radialGradient id="radial-gradient" cx="523.6" cy="511.85" fx="523.6" fy="511.85" r="50.46" gradientUnits="userSpaceOnUse">
      <stop offset="0" stop-color="#e5526c"/>
      <stop offset="1" stop-color="#6c51e6"/>
    </radialGradient>
    <radialGradient id="radial-gradient-2" cx="338.1" cy="518.42" fx="338.1" fy="518.42" r="50.46" gradientUnits="userSpaceOnUse">
      <stop offset="0" stop-color="#e5526c"/>
      <stop offset="1" stop-color="#6c51e6"/>
    </radialGradient>
    <linearGradient id="linear-gradient" x1="434.44" y1="740.1" x2="434.44" y2="557.5" gradientUnits="userSpaceOnUse">
      <stop offset="0" stop-color="#221488"/>
      <stop offset="1" stop-color="#6c51e6"/>
    </linearGradient>
  </defs>
  <circle class="cls-4" cx="435" cy="435" r="410.83"/>
  <circle class="cls-3" cx="434.98" cy="439.98" r="300.12"/>
  <path class="cls-2" d="M721.44,428c15.77,12.62,13.99,29.74,11.52,48.39,0,1.37-.27,2.47-.27,3.84-1.1,8.23-2.74,15.91-4.39,24.14-.27,3.02-.82,6.03-1.92,9.05-.55,2.19-.82,4.39-1.37,6.86,0,.27-.55.82-.55,1.1-.55,1.65-.55,3.57-1.37,5.21-.27.82-.27,1.92-.55,2.74-2.74,7.95-5.21,16.18-8.5,23.86-.27.55,0,.82-.27,1.37-2.19,4.94-4.11,9.6-6.58,14.54s-4.39,10.15-7.41,15.08c-2.19,3.29-3.84,6.58-5.76,10.15-2.74,4.39-5.49,8.23-8.23,12.89-.55.82-1.37,1.37-1.92,2.19-6.31,9.6-12.62,17.55-19.75,26.06-5.49,6.31-10.97,11.79-17,17.55-4.39,3.84-8.23,7.68-12.34,11.79-1.1.82-1.92,1.65-3.02,2.19-4.11,3.02-7.13,6.31-11.52,9.05-1.1.82-2.19,1.92-3.29,3.02-7.95,6.03-15.36,11.24-23.86,16.18-3.29,1.92-6.31,3.57-9.6,5.49-.27.27-.82,0-1.1.27-24.14,15.08-48.82,23.31-75.7,30.17-15.36,4.11-30.17,6.86-45.8,7.95-19.47,1.37-38.67,1.37-58.14-.55-.27,0-.82-.55-1.1-.55-22.76-1.65-44.16-7.41-65.82-14.26-7.13-2.47-13.99-5.49-20.84-8.23-6.03-2.47-11.52-5.76-17.28-8.5-9.05-4.66-17.28-9.32-26.06-15.08-1.1-1.1-2.19-1.92-3.57-2.74-12.62-7.68-23.31-16.18-33.73-26.6-.82-.82-2.19-1.37-3.02-2.19-.55-.82-1.1-1.37-1.65-1.65-17.28-15.91-30.99-31.81-44.43-51.56-2.47-3.84-4.66-7.41-7.13-11.24-.27-.55-.27-.82-.55-1.37-6.31-9.87-11.24-19.75-15.91-30.17l-2.47-6.58c-6.58-15.08-12.07-29.62-15.63-46.08l-.82-1.65c-3.57-14.26-5.49-27.97-6.86-42.24v-3.57c-.27-1.65-.51-3.57-.55-5.21-.49-19.13,39.68-12.1,39.85-13.15"/>
  <path class="cls-1" d="M135.35,459.11l20.55-51.09c-25.89-29.22-41.61-67.65-41.61-109.76,0-91.47,74.15-165.62,165.62-165.62,48.89,0,92.82,21.19,123.14,54.87,11.65-1.66,23.53-2.52,35.62-2.52,10.43,0,20.67.65,30.72,1.9,30.21-32.15,73.11-52.23,120.7-52.23,91.47,0,165.62,74.15,165.62,165.62,0,40.56-14.59,77.7-38.79,106.5l17.88,48.67"/>
  <path class="cls-9" d="M322.67,212.86c-12.91-6.32-27.42-9.88-42.76-9.88-53.74,0-97.3,43.56-97.3,97.3,0,13.4,2.71,26.16,7.61,37.77,32.91-53.57,78.52-98.2,132.45-125.19Z"/>
  <path class="cls-9" d="M550.38,212.86c12.91-6.32,27.42-9.88,42.76-9.88,53.74,0,97.3,43.56,97.3,97.3,0,13.4-2.71,26.16-7.61,37.77-32.91-53.57-78.52-98.2-132.45-125.19Z"/>
  <path class="cls-5" d="M734.76,420.92c.95,18.44.67,36.82-1.8,55.47,0,1.37-.27,2.47-.27,3.84-1.1,8.23-2.74,15.91-4.39,24.14-.27,3.02-.82,6.03-1.92,9.05-.55,2.19-.82,4.39-1.37,6.86,0,.27-.55.82-.55,1.1-.55,1.65-.55,3.57-1.37,5.21-.27.82-.27,1.92-.55,2.74-2.74,7.95-5.21,16.18-8.5,23.86-.27.55,0,.82-.27,1.37-2.19,4.94-4.11,9.6-6.58,14.54s-4.39,10.15-7.41,15.08c-2.19,3.29-3.84,6.58-5.76,10.15-2.74,4.39-5.49,8.23-8.23,12.89-.55.82-1.37,1.37-1.92,2.19-6.31,9.6-12.62,17.55-19.75,26.06-5.49,6.31-10.97,11.79-17,17.55-4.39,3.84-8.23,7.68-12.34,11.79-1.1.82-1.92,1.65-3.02,2.19-4.11,3.02-7.13,6.31-11.52,9.05-1.1.82-2.19,1.92-3.29,3.02-7.95,6.03-15.36,11.24-23.86,16.18-3.29,1.92-6.31,3.57-9.6,5.49-.27.27-.82,0-1.1.27-24.14,15.08-48.82,23.31-75.7,30.17-15.36,4.11-30.17,6.86-45.8,7.95-19.47,1.37-38.67,1.37-58.14-.55-.27,0-.82-.55-1.1-.55-22.76-1.65-44.16-7.41-65.82-14.26-7.13-2.47-13.99-5.49-20.84-8.23-6.03-2.47-11.52-5.76-17.28-8.5-9.05-4.66-17.28-9.32-26.06-15.08-1.1-1.1-2.19-1.92-3.57-2.74-12.62-7.68-23.31-16.18-33.73-26.6-.82-.82-2.19-1.37-3.02-2.19-.55-.82-1.1-1.37-1.65-1.65-17.28-15.91-30.99-31.81-44.43-51.56-2.47-3.84-4.66-7.41-7.13-11.24-.27-.55-.27-.82-.55-1.37-6.31-9.87-11.24-19.75-15.91-30.17l-2.47-6.58c-6.58-15.08-12.07-29.62-15.63-46.08l-.82-1.65c-3.57-14.26-5.49-27.97-6.86-42.24v-3.57c-.27-1.65-.55-3.57-.55-5.21-.55-9.87-.82-20.02-.55-29.89.27-6.03.27-12.07,1.1-18.38.27-1.1.55-2.47.72-3.52"/>
  <path class="cls-9" d="M458,496.23c-11.61-.38-14.68,6.12-19.89,6.23-5.21-.11-8.28-6.61-19.89-6.23-5.67.19-12.07,6.5-11.45,19.59.49,10.5,6.3,27.97,31.35,28.03,25.05-.06,30.86-17.53,31.35-28.03.61-13.09-5.78-19.4-11.45-19.59Z"/>
  <ellipse class="cls-11" cx="437.86" cy="529.58" rx="23.47" ry="11.17"/>
  <path class="cls-9" d="M457.02,501.7c.26,0,.53,0,.8.01.97.03,2.06.64,3.01,1.65,1.32,1.43,3.49,4.92,3.15,12.2-.15,3.29-1.04,9.58-5.23,14.72-4.36,5.34-11.31,8.06-20.62,8.08-9.34-.02-16.28-2.74-20.65-8.08-4.2-5.14-5.08-11.43-5.23-14.72-.34-7.28,1.83-10.77,3.15-12.2.94-1.02,2.04-1.62,3.01-1.65.27,0,.54-.01.8-.01,4.96,0,7.58,1.56,10.35,3.21,2.33,1.39,4.97,2.96,8.45,3.03h.11s.11,0,.11,0c3.48-.07,6.12-1.64,8.45-3.03,2.77-1.65,5.39-3.21,10.35-3.21M457.02,496.21c-10.81,0-13.85,6.14-18.92,6.24-5.06-.1-8.1-6.24-18.92-6.24-.32,0-.64,0-.98.02-5.67.19-12.07,6.5-11.45,19.59.49,10.5,6.3,27.97,31.35,28.03,25.05-.06,30.86-17.53,31.35-28.03.61-13.09-5.78-19.4-11.45-19.59-.33-.01-.66-.02-.98-.02h0Z"/>
  <circle class="cls-6" cx="523.6" cy="511.85" r="50.46"/>
  <ellipse class="cls-9" cx="523.6" cy="458.16" rx="24.06" ry="45.25"/>
  <circle class="cls-10" cx="538.81" cy="424.64" r="11.73"/>
  <circle class="cls-10" cx="525.25" cy="442.59" r="6.99"/>
  <circle class="cls-7" cx="338.1" cy="518.42" r="50.46"/>
  <ellipse class="cls-9" cx="343.44" cy="455.1" rx="24.06" ry="45.25"/>
  <circle class="cls-10" cx="358.65" cy="421.58" r="11.73"/>
  <circle class="cls-10" cx="345.09" cy="439.53" r="6.99"/>
  <path class="cls-8" d="M670.64,561.25c-45.38-3.48-90.93-3.97-136.42-3.68-45.69.29-91.37,1.2-137.07,1.2h-237.59l2.12,5.65c4.66,10.42,9.6,20.3,15.91,30.17.27.55.27.82.55,1.37,2.47,3.84,4.66,7.41,7.13,11.24,13.44,19.75,27.15,35.65,44.43,51.56.55.27,1.1.82,1.65,1.65.82.82,2.19,1.37,3.02,2.19,10.42,10.42,21.12,18.92,33.73,26.6,1.37.82,2.47,1.65,3.57,2.74,8.78,5.76,17,10.42,26.06,15.08,5.76,2.74,11.24,6.03,17.28,8.5,6.86,2.74,13.71,5.76,20.84,8.23,21.67,6.86,43.06,12.62,65.82,14.26.27,0,.82.55,1.1.55,19.47,1.92,38.67,1.92,58.14.55,15.63-1.1,30.44-3.84,45.8-7.95,26.88-6.86,51.56-15.08,75.7-30.17.27-.27.82,0,1.1-.27,3.29-1.92,6.31-3.57,9.6-5.49,8.5-4.94,15.91-10.15,23.86-16.18,1.1-1.1,2.19-2.19,3.29-3.02,4.39-2.74,7.41-6.03,11.52-9.05,1.1-.55,1.92-1.37,3.02-2.19,4.11-4.11,7.95-7.95,12.34-11.79,6.03-5.76,11.52-11.24,17-17.55,7.13-8.5,13.44-16.46,19.75-26.06.55-.82,1.37-1.37,1.92-2.19,2.74-4.66,5.49-8.5,8.23-12.89,1.92-3.57,3.57-6.86,5.76-10.15,3.02-4.94,4.94-10.15,7.41-15.08.76-1.52,1.46-3.01,2.14-4.5-12.89-1.18-25.79-2.35-38.69-3.34Z"/>
  <path class="cls-1" d="M155.6,483.47s-88.73,53.71-71.33,93.04c11.89,26.88,88.39-11.37,88.39-11.37"/>
  <path class="cls-1" d="M706.86,483.47s88.73,53.71,71.33,93.04c-11.89,26.88-88.39-11.37-88.39-11.37"/>
  <text class="cls-12" transform="translate(363.1 806.95) rotate(7.26)"><tspan x="0" y="0">A</tspan></text>
  <text class="cls-12" transform="translate(420.7 813.24) rotate(.61)"><tspan x="0" y="0">I</tspan></text>
  <text class="cls-12" transform="translate(450.86 813.94) rotate(-5.59)"><tspan x="0" y="0">P</tspan></text>
</svg>