<svg version="1.1" id="Layer_1" xmlns="http://www.w3.org/2000/svg" xmlns:xlink="http://www.w3.org/1999/xlink" x="0px" y="0px"
	 width="100%" viewBox="0 0 256 256" enable-background="new 0 0 256 256" xml:space="preserve">
<path fill="#010000" opacity="1.000000" stroke="none" 
	d="
M257.000000,98.000000 
	C257.000000,151.333328 257.000000,204.166672 257.000000,257.000000 
	C171.666672,257.000000 86.333336,257.000000 1.000000,257.000000 
	C1.000000,171.666672 1.000000,86.333336 1.000000,1.000000 
	C86.333336,1.000000 171.666672,1.000000 257.000000,1.000000 
	C257.000000,33.166668 257.000000,65.333336 257.000000,98.000000 
M120.998474,23.999695 
	C120.998474,23.999695 120.902824,24.098635 120.863274,23.530466 
	C120.590103,23.197992 120.316925,22.865520 120.043747,22.533051 
	C119.674400,22.980774 119.305061,23.428497 118.193031,23.981531 
	C114.789284,24.598536 111.385536,25.215538 107.261726,25.881069 
	C106.592346,26.123962 105.922958,26.366856 104.655670,26.209440 
	C104.190186,26.311701 103.724693,26.413961 102.451729,26.262932 
	C96.770576,26.110096 92.816338,29.428749 88.327126,33.269596 
	C86.229973,34.529224 84.132828,35.788853 81.330879,37.047718 
	C80.934738,37.745075 80.538589,38.442432 80.000000,39.000610 
	C80.000000,39.000610 80.140579,39.141953 79.376526,38.981384 
	C78.382553,39.814369 77.388580,40.647354 76.258202,41.373203 
	C76.258202,41.373203 76.332420,41.529972 75.633629,41.282490 
	C74.509438,42.694553 72.226021,44.347580 72.460823,45.477146 
	C73.501923,50.485531 70.488365,53.559883 67.239014,57.073685 
	C66.501640,58.175617 65.877953,59.378048 65.007690,60.362507 
	C60.682404,65.255341 56.292152,70.090752 51.271755,75.321655 
	C51.277546,77.784988 51.402386,80.256363 51.236740,82.708115 
	C51.158928,83.859886 50.521885,84.973869 49.413029,86.162849 
	C48.998775,87.168640 48.584526,88.174431 48.022457,89.974525 
	C48.062866,91.027451 48.103275,92.080368 48.151699,93.711952 
	C48.149124,94.097748 48.146553,94.483543 47.822723,95.489799 
	C47.762787,95.951576 47.702850,96.413361 47.146755,97.044464 
	C47.302959,97.737114 47.459167,98.429764 47.910076,99.257469 
	C47.910076,99.257469 48.100967,98.995453 48.122379,99.623817 
	C48.123554,100.042969 48.124729,100.462128 47.833225,101.709671 
	C47.911911,103.162712 47.990593,104.615746 48.035442,106.852295 
	C47.960011,107.889839 47.884583,108.927376 47.116840,110.070915 
	C45.342087,112.694122 45.529999,122.265419 47.422997,124.886642 
	C47.497326,124.989548 47.727943,124.979591 48.072105,125.856697 
	C47.987934,127.559853 47.903763,129.263000 47.096329,131.140884 
	C45.552376,133.620621 44.768265,136.022964 47.987106,138.678894 
	C47.974739,139.123291 47.962376,139.567688 47.474056,140.454926 
	C49.011532,143.629608 50.549004,146.804291 52.326645,150.223053 
	C52.326645,150.223053 52.237720,150.553726 51.974461,151.332199 
	C52.626038,152.559570 53.277615,153.786957 54.178860,155.528625 
	C54.198620,155.907730 54.218384,156.286819 54.023659,157.483963 
	C54.462845,159.199127 54.426598,161.280823 55.419662,162.569000 
	C61.152966,170.006042 67.684731,176.449493 77.092720,178.521652 
	C74.843658,180.118484 72.231117,181.404037 70.490654,183.436417 
	C69.544067,184.541763 69.310837,187.383621 70.075035,188.639557 
	C74.030281,195.139755 75.614822,201.508789 72.322830,208.935379 
	C70.739456,212.507401 66.923439,216.248779 70.341171,220.728958 
	C73.622383,225.030182 78.177086,222.656784 82.757729,222.676712 
	C83.089638,222.677231 83.421539,222.680008 84.690430,222.971573 
	C89.540695,222.881378 94.390961,222.791199 99.828842,222.707047 
	C100.219429,222.734589 100.610023,222.762131 101.429207,223.449890 
	C102.975555,223.930862 104.516029,224.806656 106.069183,224.829712 
	C117.508919,224.999649 128.951431,225.046066 140.392319,224.987915 
	C141.688278,224.981323 142.979736,224.084518 145.081741,223.495285 
	C150.293121,223.803131 155.504486,224.110962 161.533432,224.838379 
	C163.013397,224.963547 164.522263,224.947952 165.967072,225.244446 
	C168.630890,225.791077 171.285263,226.650406 172.397934,222.935272 
	C173.706116,218.567398 176.015060,214.184021 171.728592,209.337036 
	C169.713562,205.244919 165.738373,205.487335 162.531281,204.243790 
	C164.135040,196.728622 165.927780,189.245789 167.222336,181.677734 
	C167.589691,179.530136 166.928482,176.931839 165.963181,174.910767 
	C165.054550,173.008362 164.663269,171.976807 167.695999,171.734604 
	C168.522919,171.754776 169.349854,171.774948 170.596817,171.882568 
	C170.596817,171.882568 171.013672,171.984238 171.162643,172.689896 
	C172.186935,173.024033 173.211212,173.358154 174.931747,173.721313 
	C175.859772,173.682800 176.787781,173.644287 178.637726,173.868973 
	C180.433517,173.825485 182.267380,173.994934 184.015121,173.682602 
	C186.031311,173.322250 187.971527,172.536835 190.539490,171.840439 
	C190.934341,171.767212 191.329193,171.693970 192.441605,171.908524 
	C193.262299,171.243912 194.083008,170.579300 194.993042,169.993134 
	C194.993042,169.993134 194.916626,169.902069 195.613342,169.927902 
	C196.028458,169.234848 196.443558,168.541794 196.998169,167.997299 
	C196.998169,167.997299 196.850830,167.856552 197.601013,168.019150 
	C198.219650,167.220688 198.838272,166.422226 199.689728,165.278748 
	C199.689728,165.278748 199.955338,164.958282 200.576538,164.960754 
	C201.103043,164.388565 201.629532,163.816376 202.712769,163.065262 
	C203.132751,162.702652 203.552734,162.340042 204.640152,161.778229 
	C205.024582,160.803696 205.409012,159.829163 205.916077,158.141098 
	C207.237488,155.390411 208.558914,152.639709 210.404572,149.818604 
	C210.274490,149.208771 210.144394,148.598953 209.907547,147.618423 
	C209.997971,147.118149 210.088379,146.617889 210.824463,146.024109 
	C211.204773,145.336746 211.585068,144.649384 212.143951,143.213913 
	C212.197052,142.191132 212.250168,141.168350 212.978333,139.881683 
	C213.345871,133.256363 213.713409,126.631050 214.020691,119.367119 
	C214.096359,118.948738 214.172028,118.530357 214.948608,118.107605 
	C219.384186,114.868607 214.701218,112.662529 214.015350,109.364838 
	C214.097931,108.950447 214.180511,108.536064 214.989670,108.094612 
	C218.112106,104.549416 217.223984,97.677559 212.549347,93.652145 
	C209.930130,91.396721 208.940720,89.209923 210.303391,85.370415 
	C210.244995,78.722710 208.941620,72.475197 205.014008,66.887421 
	C203.138275,64.218864 202.133804,60.854294 199.989334,58.477474 
	C196.613708,54.736084 192.608704,51.562527 188.965179,48.006386 
	C188.965179,48.006386 188.850037,48.133183 188.843735,47.420292 
	C188.769882,47.100323 188.805649,46.618732 188.606430,46.483646 
	C180.182175,40.771046 171.736969,35.089363 163.294342,29.403858 
	C163.176315,29.736563 163.058273,30.069265 162.323181,30.145605 
	C161.446426,30.067120 160.569656,29.988634 159.725220,29.458786 
	C159.572388,29.186979 159.363937,28.968201 158.882172,28.108282 
	C149.920975,24.152056 140.652832,22.881535 130.109390,24.922909 
	C127.429855,24.880945 124.750328,24.838980 121.774345,24.429182 
	C121.525375,24.212053 121.235710,24.102150 120.998474,23.999695 
z"/>
<path fill="#FAF9F9" opacity="1.000000" stroke="none" 
	d="
M47.809155,109.964920 
	C47.884583,108.927376 47.960011,107.889839 48.349831,106.306587 
	C48.484776,104.134346 48.305340,102.507812 48.125900,100.881279 
	C48.124729,100.462128 48.123554,100.042969 48.386978,99.205566 
	C48.482376,97.481331 48.313175,96.175331 48.143974,94.869339 
	C48.146553,94.483543 48.149124,94.097748 48.454910,93.282562 
	C52.103516,88.887924 55.448902,84.922668 59.510429,80.108589 
	C56.385517,79.962692 54.357944,79.868027 51.924782,79.754433 
	C51.924782,78.163948 51.924782,76.555168 51.924782,74.946388 
	C56.292152,70.090752 60.682404,65.255341 65.007690,60.362507 
	C65.877953,59.378048 66.501640,58.175617 67.976562,57.067654 
	C73.334824,55.893147 74.143822,51.698250 75.815163,47.726616 
	C75.812630,46.131424 75.776009,44.970585 75.865189,43.537033 
	C76.104797,42.686203 76.218613,42.108089 76.332420,41.529972 
	C76.332420,41.529972 76.258202,41.373203 76.418335,41.634949 
	C76.578461,41.896698 77.026642,41.976040 77.313080,42.032360 
	C78.434807,41.431297 79.270103,40.773914 80.221893,39.876774 
	C80.272446,39.471996 80.206512,39.306973 80.140579,39.141953 
	C80.140579,39.141953 80.000000,39.000610 80.373329,39.195072 
	C81.150238,39.244057 81.553825,39.098576 82.316605,38.936798 
	C85.503349,37.026482 88.330902,35.132465 91.433273,33.162693 
	C92.073242,32.982212 92.438400,32.877491 93.135971,32.812923 
	C93.995865,32.256359 94.523338,31.659639 95.311890,30.952398 
	C95.937164,30.741175 96.301361,30.640471 96.990875,30.633907 
	C97.897079,30.177176 98.477959,29.626307 99.417908,28.973576 
	C100.763718,28.753296 101.750450,28.634878 103.050140,28.632694 
	C103.993256,28.035868 104.623413,27.322807 105.253578,26.609749 
	C105.922958,26.366856 106.592346,26.123962 107.820648,26.206928 
	C114.335350,26.643463 120.290894,26.801392 126.247101,26.832987 
	C127.818741,26.841326 129.392456,26.459675 131.254486,26.293806 
	C131.925171,26.402531 132.306610,26.474552 132.792435,26.864100 
	C133.718887,27.610765 134.522354,28.365032 135.366196,28.413328 
	C139.225143,28.634180 143.102066,28.547262 146.959839,28.780624 
	C151.211411,29.037807 155.449142,29.523819 159.692902,29.910149 
	C160.569656,29.988634 161.446426,30.067120 162.667969,30.653839 
	C168.017929,34.463650 173.018982,37.771446 178.029617,41.064693 
	C181.629807,43.430923 185.242767,45.777721 188.850037,48.133183 
	C188.850037,48.133183 188.965179,48.006386 188.890472,48.433525 
	C193.388489,54.604012 198.810745,59.881786 202.287369,66.225800 
	C205.556564,72.191269 206.772324,79.282051 208.907547,85.898712 
	C208.923553,85.919701 208.926483,85.870850 208.603668,85.885910 
	C206.085144,86.759636 205.745346,87.904297 207.761261,89.761734 
	C211.949402,95.394730 215.525970,100.887321 214.263092,108.121674 
	C214.180511,108.536064 214.097931,108.950447 213.785202,109.936394 
	C213.785919,113.042625 214.016800,115.577301 214.247681,118.111977 
	C214.172028,118.530357 214.096359,118.948738 213.852158,120.002747 
	C213.087585,126.406296 212.491547,132.174210 211.539154,138.065094 
	C210.829590,140.171844 210.476395,142.155624 210.047943,144.333405 
	C209.972656,144.527374 209.838852,144.921448 209.490402,145.036591 
	C207.410889,150.078949 205.679825,155.006134 203.911453,160.169647 
	C203.874146,160.405960 203.651733,160.829620 203.336029,160.852142 
	C202.316452,161.521164 201.612595,162.167664 200.713409,162.895981 
	C200.518082,162.977798 200.112503,163.099808 199.763611,163.083740 
	C198.568130,164.304169 197.721542,165.540680 196.783051,167.045105 
	C196.744370,167.494202 196.797592,167.675385 196.850830,167.856552 
	C196.850830,167.856552 196.998169,167.997299 196.631638,167.821091 
	C195.876480,167.790680 195.487869,167.936493 194.699936,168.098572 
	C185.842285,170.357544 177.338898,171.630600 168.335388,169.246948 
	C167.066269,168.687408 166.130066,168.187119 165.166290,167.366516 
	C162.771225,163.413742 162.025696,166.154816 161.041336,168.469330 
	C161.626877,170.512955 162.188248,172.191711 162.876434,173.816742 
	C163.567062,175.447540 165.090439,177.052795 165.028229,178.620804 
	C164.689102,187.167511 163.653427,195.629623 159.999481,203.780792 
	C158.512039,202.994049 157.368637,202.389267 156.148224,201.406952 
	C155.371078,198.685181 154.670929,196.340958 154.149429,193.784485 
	C153.852737,192.719681 153.377380,191.867111 152.834991,190.709320 
	C152.624115,190.015869 152.480286,189.627655 152.445572,188.907074 
	C150.576157,187.268250 148.483337,184.753860 146.644882,184.927811 
	C143.601395,185.215790 139.454147,185.790115 139.381760,190.923340 
	C136.849106,193.475464 140.443588,198.199066 135.617401,199.451508 
	C135.589752,199.407318 135.515427,199.334167 135.638779,198.981354 
	C134.780792,198.160553 133.799469,197.692535 132.843704,197.153107 
	C132.869278,197.081711 132.771011,197.197266 132.766083,196.849335 
	C131.508591,195.333481 130.256027,194.165558 128.796616,192.782318 
	C127.745682,191.672150 126.901611,190.777313 124.976196,188.736115 
	C122.078262,194.283905 119.614120,199.001251 116.779846,203.955688 
	C115.471588,206.205490 114.533470,208.218185 113.595352,210.230896 
	C113.174286,210.044876 112.753212,209.858856 112.332146,209.672836 
	C112.062462,207.768387 111.792786,205.863953 111.664963,203.520813 
	C111.743492,200.927719 111.619804,198.773087 111.627647,196.618942 
	C111.656265,188.758530 109.256683,187.256439 101.996162,190.637543 
	C96.877571,193.021164 92.810585,190.531265 93.147102,184.884949 
	C93.364708,181.233749 94.361969,177.629044 95.132507,173.735748 
	C93.928291,168.261887 91.048210,170.134750 88.297630,172.011078 
	C82.352158,176.066879 71.918915,175.291336 66.712517,170.066513 
	C62.407383,165.746155 58.385521,161.143494 54.238144,156.665924 
	C54.218384,156.286819 54.198620,155.907730 54.135048,154.912720 
	C53.473396,153.049103 52.855560,151.801422 52.237720,150.553726 
	C52.237720,150.553726 52.326645,150.223053 52.278408,149.717224 
	C50.803452,146.144943 49.376728,143.078522 47.950008,140.012085 
	C47.962376,139.567688 47.974739,139.123291 47.997803,137.925064 
	C47.945526,135.102875 47.882561,133.034515 47.819592,130.966156 
	C47.903763,129.263000 47.987934,127.559853 48.098793,124.984528 
	C48.020035,119.396545 47.914593,114.680733 47.809155,109.964920 
M77.757751,152.615677 
	C77.757751,152.615677 77.903618,153.048569 77.988365,153.583405 
	C78.649292,153.814651 79.310219,154.045883 80.868263,154.479294 
	C83.915710,154.347382 86.963158,154.215454 90.366402,154.500443 
	C90.908508,153.995422 91.450607,153.490417 92.654747,152.730240 
	C93.351265,152.600769 94.047791,152.471283 95.591194,152.731155 
	C96.820503,152.627228 98.049805,152.523300 100.037369,152.637085 
	C104.310143,151.384720 108.582909,150.132339 113.600578,148.920929 
	C115.817993,146.476852 118.035400,144.032776 120.385757,141.376160 
	C120.385757,141.376160 120.607971,141.260117 121.166748,141.781738 
	C126.858620,138.186508 128.459122,132.315735 128.913620,126.297600 
	C129.170319,122.898598 127.771469,119.374565 126.872276,115.438316 
	C126.707405,114.935867 126.542542,114.433426 126.711205,113.537743 
	C126.184647,112.990181 125.658089,112.442619 124.978859,111.155937 
	C123.278664,104.043594 116.992027,101.097000 111.838303,96.274117 
	C108.241035,94.503693 104.643776,92.733261 100.282181,90.715691 
	C97.578964,90.376823 94.875748,90.037956 92.010727,89.062363 
	C90.622421,89.289124 89.234116,89.515884 87.021240,89.904114 
	C84.813622,90.126099 82.606003,90.348076 79.702263,90.296982 
	C77.036728,92.055138 74.371193,93.813293 71.078423,95.900009 
	C66.904526,98.573151 65.829376,102.368355 67.031548,107.816628 
	C66.945206,109.175034 66.858864,110.533447 66.013016,112.121315 
	C65.780388,115.841927 65.547760,119.562546 65.338211,123.746246 
	C65.353279,124.055260 65.359962,124.364449 65.100540,125.372505 
	C65.660698,126.287842 66.220856,127.203178 66.918808,128.529404 
	C66.918808,128.529404 67.101784,128.922256 66.983879,129.698349 
	C68.417572,134.951447 69.511032,140.335327 71.454926,145.392303 
	C72.216553,147.373688 74.884895,148.622131 77.167679,150.258621 
	C77.167679,150.258621 77.640312,150.371216 77.423218,150.963608 
	C77.548683,151.362671 77.674141,151.761734 77.757751,152.615677 
M131.600113,172.001175 
	C132.140427,171.403336 132.680740,170.805496 133.857849,170.058945 
	C134.592484,169.429657 135.327133,168.800385 136.825333,167.968948 
	C139.246719,169.070465 141.852966,169.890488 144.050110,171.333420 
	C148.331650,174.145203 151.712860,173.247086 152.558258,168.123581 
	C152.581467,167.235947 152.604660,166.348297 152.948227,164.728561 
	C151.967529,163.484268 150.986816,162.239990 150.000000,161.000000 
	C150.000000,161.000000 150.004471,160.993851 150.107376,160.240845 
	C148.106415,157.147430 146.105438,154.054031 143.913528,150.604309 
	C143.913528,150.604309 143.866882,150.202774 143.976715,149.519821 
	C143.355682,148.942520 142.734650,148.365204 141.868179,147.159225 
	C140.566711,147.417862 139.265259,147.676514 138.168365,148.024628 
	C138.168365,148.024628 138.128983,148.244400 137.401505,147.987823 
	C135.965195,148.340408 134.528885,148.692993 132.309967,149.143982 
	C132.059036,149.996109 131.808121,150.848236 131.500534,151.974869 
	C131.500534,151.974869 131.255493,152.110916 130.511292,152.073105 
	C130.001465,153.041092 129.491638,154.009079 129.001770,154.995956 
	C129.001770,154.995956 128.978714,154.987625 128.354416,155.079498 
	C127.978134,157.159073 127.601860,159.238663 127.107430,161.888031 
	C126.892258,162.201324 126.677078,162.514603 125.764008,162.837662 
	C123.352730,164.968277 120.904427,167.093826 125.103271,170.609848 
	C125.717667,171.119949 126.332062,171.630035 127.068527,172.818298 
	C128.779480,174.379166 130.230774,174.777832 130.992615,172.003876 
	C130.992615,172.003876 130.948227,171.956299 131.600113,172.001175 
M158.280655,74.062683 
	C157.227875,75.004677 156.175079,75.946663 155.122284,76.888657 
	C155.745605,77.326561 156.368927,77.764473 156.992249,78.202377 
	C157.671555,76.811226 158.350845,75.420067 159.588455,73.943878 
	C159.902710,73.636337 160.216965,73.328796 160.531219,73.021255 
	C160.324585,72.840263 160.117966,72.659279 159.911331,72.478294 
	C159.598495,72.976051 159.285660,73.473816 158.280655,74.062683 
M200.493240,135.964066 
	C200.816803,134.988846 201.140366,134.013641 201.568069,132.456253 
	C201.629944,132.067413 201.691818,131.678589 202.420593,131.047379 
	C202.856033,128.945557 203.291458,126.843742 203.777786,123.910042 
	C203.893478,121.966789 204.009186,120.023544 204.806686,117.877380 
	C204.596817,115.882797 204.386948,113.888206 204.074951,111.082207 
	C203.929291,109.595665 204.239441,107.850334 203.565704,106.663597 
	C198.261566,97.320686 187.248795,87.975815 174.432388,88.964592 
	C167.142365,89.527000 160.243942,91.983383 157.315857,98.618584 
	C153.100006,108.171928 149.162506,118.217117 151.605362,129.202759 
	C152.411484,132.827957 152.228973,137.361710 154.387497,139.824280 
	C157.127228,142.949921 161.569794,145.551239 165.667511,146.330139 
	C176.392120,148.368713 187.547150,150.755493 197.590500,141.846390 
	C198.348221,139.855408 199.105927,137.864410 200.001831,135.991241 
	C200.001831,135.991241 199.869217,135.865738 200.493240,135.964066 
M196.214844,78.043297 
	C196.447479,82.457703 198.501099,84.115280 204.097672,82.653061 
	C201.104828,80.659164 199.011002,79.264221 196.214844,78.043297 
z"/>
<path fill="#EA1330" opacity="1.000000" stroke="none" 
	d="
M111.523102,203.959503 
	C111.792786,205.863953 112.062462,207.768387 112.332146,209.672836 
	C112.753212,209.858856 113.174286,210.044876 113.595352,210.230896 
	C114.533470,208.218185 115.471588,206.205490 117.161057,203.962860 
	C124.238121,203.725052 130.563843,203.717163 137.259384,203.785217 
	C138.366241,203.805313 139.103287,203.749496 140.158188,203.774811 
	C140.906876,203.835709 141.337692,203.815506 142.239319,203.893555 
	C147.171005,204.136536 151.631912,204.281296 156.388855,204.629868 
	C158.490204,204.883499 160.295502,204.933319 162.100800,204.983139 
	C165.738373,205.487335 169.713562,205.244919 171.853119,210.063797 
	C171.851730,212.394592 171.725815,213.998627 171.596786,215.642227 
	C169.700058,214.107132 168.380966,213.039536 167.061874,211.971954 
	C166.552246,212.465073 166.042618,212.958176 165.532990,213.451294 
	C167.139282,215.823669 168.745575,218.196045 171.084427,221.650375 
	C169.527039,222.145798 167.796860,222.765106 166.027802,223.239456 
	C164.277588,223.708740 162.488113,224.031677 160.715866,224.418808 
	C155.504486,224.110962 150.293121,223.803131 144.234116,223.302414 
	C133.134827,223.033356 122.883179,222.957596 112.631523,222.880753 
	C108.754547,222.851700 104.877579,222.820114 101.000610,222.789673 
	C100.610023,222.762131 100.219429,222.734589 99.358215,222.357056 
	C93.842873,222.233063 88.798141,222.459045 83.753418,222.685028 
	C83.421539,222.680008 83.089638,222.677231 82.340897,222.329041 
	C81.175529,221.703339 80.441216,221.233246 79.676292,221.176636 
	C70.922844,220.528778 70.317963,219.602234 73.669777,211.375961 
	C74.346397,209.715347 75.482773,208.239822 76.136703,206.572861 
	C76.709572,205.112564 77.287117,203.475845 77.179482,201.965744 
	C76.984627,199.232056 76.401115,196.505203 75.746094,193.832794 
	C75.334122,192.151993 74.436104,190.596313 73.867523,188.946152 
	C73.339188,187.412735 72.178978,184.806534 72.650444,184.446884 
	C74.501907,183.034485 76.828995,181.908768 79.108681,181.584244 
	C79.867081,181.476257 81.750542,184.039917 81.849220,185.469879 
	C82.202789,190.593460 81.854126,195.762894 82.123001,200.896545 
	C82.204071,202.444351 83.453926,205.252670 84.125366,205.239792 
	C89.758324,205.131805 95.381256,204.501205 101.451370,204.003632 
	C104.293922,203.907303 106.692307,203.835342 109.385773,203.848145 
	C110.294937,203.941788 110.909019,203.950653 111.523102,203.959503 
z"/>
<path fill="#670814" opacity="1.000000" stroke="none" 
	d="
M101.007210,204.028000 
	C95.381256,204.501205 89.758324,205.131805 84.125366,205.239792 
	C83.453926,205.252670 82.204071,202.444351 82.123001,200.896545 
	C81.854126,195.762894 82.202789,190.593460 81.849220,185.469879 
	C81.750542,184.039917 79.867081,181.476257 79.108681,181.584244 
	C76.828995,181.908768 74.501907,183.034485 72.650444,184.446884 
	C72.178978,184.806534 73.339188,187.412735 73.867523,188.946152 
	C74.436104,190.596313 75.334122,192.151993 75.746094,193.832794 
	C76.401115,196.505203 76.984627,199.232056 77.179482,201.965744 
	C77.287117,203.475845 76.709572,205.112564 76.136703,206.572861 
	C75.482773,208.239822 74.346397,209.715347 73.669777,211.375961 
	C70.317963,219.602234 70.922844,220.528778 79.676292,221.176636 
	C80.441216,221.233246 81.175529,221.703339 82.091995,222.326050 
	C78.177086,222.656784 73.622383,225.030182 70.341171,220.728958 
	C66.923439,216.248779 70.739456,212.507401 72.322830,208.935379 
	C75.614822,201.508789 74.030281,195.139755 70.075035,188.639557 
	C69.310837,187.383621 69.544067,184.541763 70.490654,183.436417 
	C72.231117,181.404037 74.843658,180.118484 77.643417,178.242294 
	C79.060417,177.974472 79.926727,177.985992 80.883469,178.365967 
	C83.748055,181.719818 84.347977,185.283249 84.087334,189.229721 
	C83.858932,192.687790 84.170296,196.179047 84.008095,199.644653 
	C83.856194,202.890289 85.227074,204.077667 88.406265,203.970947 
	C92.601212,203.830154 96.806419,203.994720 101.007210,204.028000 
z"/>
<path fill="#424141" opacity="1.000000" stroke="none" 
	d="
M80.793037,177.997528 
	C79.926727,177.985992 79.060417,177.974472 77.888290,177.956757 
	C67.684731,176.449493 61.152966,170.006042 55.419662,162.569000 
	C54.426598,161.280823 54.462845,159.199127 54.130898,157.074951 
	C58.385521,161.143494 62.407383,165.746155 66.712517,170.066513 
	C71.918915,175.291336 82.352158,176.066879 88.297630,172.011078 
	C91.048210,170.134750 93.928291,168.261887 94.891747,173.736496 
	C94.528343,174.005005 94.046875,174.011398 93.988289,173.674164 
	C92.634293,173.465912 91.225075,173.311890 90.065376,173.778305 
	C86.918068,175.044159 83.876518,176.572983 80.793037,177.997528 
z"/>
<path fill="#626060" opacity="1.000000" stroke="none" 
	d="
M162.316040,204.613464 
	C160.295502,204.933319 158.490204,204.883499 156.441711,204.190567 
	C156.207428,202.959808 156.216324,202.372147 156.225220,201.784500 
	C157.368637,202.389267 158.512039,202.994049 159.999481,203.780792 
	C163.653427,195.629623 164.689102,187.167511 165.028229,178.620804 
	C165.090439,177.052795 163.567062,175.447540 162.876434,173.816742 
	C162.188248,172.191711 161.626877,170.512955 161.449966,168.401703 
	C162.991318,167.859390 164.092590,167.773117 165.193878,167.686829 
	C166.130066,168.187119 167.066269,168.687408 168.302063,169.444595 
	C168.601654,169.701508 168.583115,170.103027 168.359451,170.121399 
	C167.747391,170.522659 167.358994,170.905579 166.970596,171.288483 
	C164.663269,171.976807 165.054550,173.008362 165.963181,174.910767 
	C166.928482,176.931839 167.589691,179.530136 167.222336,181.677734 
	C165.927780,189.245789 164.135040,196.728622 162.316040,204.613464 
z"/>
<path fill="#746F70" opacity="1.000000" stroke="none" 
	d="
M208.891541,85.877731 
	C206.772324,79.282051 205.556564,72.191269 202.287369,66.225800 
	C198.810745,59.881786 193.388489,54.604012 188.842972,48.504616 
	C192.608704,51.562527 196.613708,54.736084 199.989334,58.477474 
	C202.133804,60.854294 203.138275,64.218864 205.014008,66.887421 
	C208.941620,72.475197 210.244995,78.722710 209.880310,85.693741 
	C209.268661,85.970619 209.080093,85.924171 208.891541,85.877731 
z"/>
<path fill="#746F70" opacity="1.000000" stroke="none" 
	d="
M188.846893,47.776737 
	C185.242767,45.777721 181.629807,43.430923 178.029617,41.064693 
	C173.018982,37.771446 168.017929,34.463650 162.976501,30.782021 
	C163.058273,30.069265 163.176315,29.736563 163.294342,29.403856 
	C171.736969,35.089363 180.182175,40.771046 188.606430,46.483646 
	C188.805649,46.618732 188.769882,47.100323 188.846893,47.776737 
z"/>
<path fill="#670814" opacity="1.000000" stroke="none" 
	d="
M101.214905,223.119781 
	C104.877579,222.820114 108.754547,222.851700 112.631523,222.880753 
	C122.883179,222.957596 133.134827,223.033356 143.829895,223.355026 
	C142.979736,224.084518 141.688278,224.981323 140.392319,224.987915 
	C128.951431,225.046066 117.508919,224.999649 106.069183,224.829712 
	C104.516029,224.806656 102.975555,223.930862 101.214905,223.119781 
z"/>
<path fill="#800919" opacity="1.000000" stroke="none" 
	d="
M161.124649,224.628601 
	C162.488113,224.031677 164.277588,223.708740 166.027802,223.239456 
	C167.796860,222.765106 169.527039,222.145798 171.084427,221.650375 
	C168.745575,218.196045 167.139282,215.823669 165.532990,213.451294 
	C166.042618,212.958176 166.552246,212.465073 167.061874,211.971954 
	C168.380966,213.039536 169.700058,214.107132 171.596786,215.642227 
	C171.725815,213.998627 171.851730,212.394592 172.001495,210.382080 
	C176.015060,214.184021 173.706116,218.567398 172.397934,222.935272 
	C171.285263,226.650406 168.630890,225.791077 165.967072,225.244446 
	C164.522263,224.947952 163.013397,224.963547 161.124649,224.628601 
z"/>
<path fill="#6F6D6D" opacity="1.000000" stroke="none" 
	d="
M51.598267,75.134018 
	C51.924782,76.555168 51.924782,78.163948 51.924782,79.754433 
	C54.357944,79.868027 56.385517,79.962692 59.510429,80.108589 
	C55.448902,84.922668 52.103516,88.887924 48.450905,92.993233 
	C48.103275,92.080368 48.062866,91.027451 48.368057,89.410957 
	C49.188526,87.933250 49.663395,87.019119 50.138268,86.104980 
	C50.521885,84.973869 51.158928,83.859886 51.236740,82.708115 
	C51.402386,80.256363 51.277546,77.784988 51.598267,75.134018 
z"/>
<path fill="#BCBABA" opacity="1.000000" stroke="none" 
	d="
M168.583115,170.103027 
	C168.583115,170.103027 168.601654,169.701508 168.634979,169.503845 
	C177.338898,171.630600 185.842285,170.357544 194.693756,168.406265 
	C195.030136,169.099136 194.973389,169.500610 194.916626,169.902069 
	C194.916626,169.902069 194.993042,169.993134 194.612625,169.905640 
	C193.396149,170.419006 192.560089,171.019867 191.724045,171.620728 
	C191.329193,171.693970 190.934341,171.767212 189.793915,171.810211 
	C185.270844,172.388565 181.493317,172.997162 177.715805,173.605774 
	C176.787781,173.644287 175.859772,173.682800 174.480270,173.388672 
	C173.023758,172.698761 172.018707,172.341492 171.013672,171.984238 
	C171.013672,171.984238 170.596817,171.882568 170.341003,171.521500 
	C169.584488,170.807968 169.083801,170.455490 168.583115,170.103027 
z"/>
<path fill="#3E3A3B" opacity="1.000000" stroke="none" 
	d="
M132.688034,26.546574 
	C132.306610,26.474552 131.925171,26.402531 131.265076,25.960157 
	C130.993027,25.367378 130.999649,25.144951 131.006256,24.922522 
	C140.652832,22.881535 149.920975,24.152056 158.576706,28.522449 
	C157.131470,28.794100 155.954285,28.787926 154.858002,28.487009 
	C147.581055,26.489573 140.281372,24.881388 132.688034,26.546574 
z"/>
<path fill="#A19E9F" opacity="1.000000" stroke="none" 
	d="
M132.792435,26.864101 
	C140.281372,24.881388 147.581055,26.489573 154.858002,28.487009 
	C155.954285,28.787926 157.131470,28.794100 158.685547,28.869534 
	C159.363937,28.968201 159.572388,29.186979 159.709061,29.684467 
	C155.449142,29.523819 151.211411,29.037807 146.959839,28.780624 
	C143.102066,28.547262 139.225143,28.634180 135.366196,28.413328 
	C134.522354,28.365032 133.718887,27.610765 132.792435,26.864101 
z"/>
<path fill="#545152" opacity="1.000000" stroke="none" 
	d="
M208.907547,85.898712 
	C209.080093,85.924171 209.268661,85.970619 209.748505,86.020676 
	C208.940720,89.209923 209.930130,91.396721 212.549347,93.652145 
	C217.223984,97.677559 218.112106,104.549416 214.626373,108.108139 
	C215.525970,100.887321 211.949402,95.394730 207.875916,89.404396 
	C208.288574,87.753006 208.607529,86.811928 208.926483,85.870850 
	C208.926483,85.870850 208.923553,85.919701 208.907547,85.898712 
z"/>
<path fill="#545152" opacity="1.000000" stroke="none" 
	d="
M211.895523,137.942123 
	C212.491547,132.174210 213.087585,126.406296 213.882294,120.322060 
	C213.713409,126.631050 213.345871,133.256363 212.550537,139.650040 
	C212.046997,138.926300 211.971252,138.434219 211.895523,137.942123 
z"/>
<path fill="#A19E9F" opacity="1.000000" stroke="none" 
	d="
M130.557831,24.922714 
	C130.999649,25.144951 130.993027,25.367378 130.975800,25.923456 
	C129.392456,26.459675 127.818741,26.841326 126.247101,26.832987 
	C120.290894,26.801392 114.335350,26.643463 108.180679,26.182665 
	C111.385536,25.215538 114.789284,24.598536 118.886772,24.005001 
	C120.021286,24.051857 120.462051,24.075245 120.902824,24.098633 
	C120.902824,24.098635 120.998474,23.999695 121.039200,24.318619 
	C121.410217,24.690699 121.740509,24.743856 122.070793,24.797016 
	C124.750328,24.838980 127.429855,24.880945 130.557831,24.922714 
z"/>
<path fill="#696969" opacity="1.000000" stroke="none" 
	d="
M75.983025,41.406231 
	C76.218613,42.108089 76.104797,42.686203 75.513481,43.601460 
	C75.284340,45.346054 75.532707,46.753513 75.781075,48.160969 
	C74.143822,51.698250 73.334824,55.893147 68.348557,57.018791 
	C70.488365,53.559883 73.501923,50.485531 72.460823,45.477146 
	C72.226021,44.347580 74.509438,42.694553 75.983025,41.406231 
z"/>
<path fill="#585757" opacity="1.000000" stroke="none" 
	d="
M96.665558,30.539764 
	C96.301361,30.640471 95.937164,30.741175 94.982651,30.922894 
	C93.862740,31.593531 93.333145,32.183151 92.803551,32.772774 
	C92.438400,32.877491 92.073242,32.982212 91.070122,33.095383 
	C89.945457,33.058708 89.458763,33.013588 88.972069,32.968468 
	C92.816338,29.428749 96.770576,26.110096 102.804329,26.645374 
	C103.017014,27.524031 102.877098,28.020245 102.737183,28.516460 
	C101.750450,28.634878 100.763718,28.753296 99.094955,28.933159 
	C97.830460,29.509657 97.248009,30.024710 96.665558,30.539764 
z"/>
<path fill="#262424" opacity="1.000000" stroke="none" 
	d="
M47.462997,110.017914 
	C47.914593,114.680733 48.020035,119.396545 48.005608,124.567291 
	C47.727943,124.979591 47.497326,124.989548 47.422997,124.886642 
	C45.529999,122.265419 45.342087,112.694122 47.462997,110.017914 
z"/>
<path fill="#BCBABA" opacity="1.000000" stroke="none" 
	d="
M203.948761,159.933334 
	C205.679825,155.006134 207.410889,150.078949 209.593475,145.330505 
	C210.089600,145.712036 210.134186,145.914825 210.178787,146.117615 
	C210.088379,146.617889 209.997971,147.118149 209.863800,148.111496 
	C209.840164,149.032715 209.860260,149.460876 209.880341,149.889023 
	C208.558914,152.639709 207.237488,155.390411 205.603470,158.595093 
	C204.843491,159.343826 204.396133,159.638580 203.948761,159.933334 
z"/>
<path fill="#670814" opacity="1.000000" stroke="none" 
	d="
M84.221924,222.828293 
	C88.798141,222.459045 93.842873,222.233063 99.064407,222.354050 
	C94.390961,222.791199 89.540695,222.881378 84.221924,222.828293 
z"/>
<path fill="#B0AEAE" opacity="1.000000" stroke="none" 
	d="
M88.649597,33.119030 
	C89.458763,33.013588 89.945457,33.058708 90.795303,33.171143 
	C88.330902,35.132465 85.503349,37.026482 82.301697,38.618553 
	C81.963631,37.893898 81.999649,37.471188 82.035675,37.048477 
	C84.132828,35.788853 86.229973,34.529224 88.649597,33.119030 
z"/>
<path fill="#585757" opacity="1.000000" stroke="none" 
	d="
M178.176758,173.737366 
	C181.493317,172.997162 185.270844,172.388565 189.496552,171.858002 
	C187.971527,172.536835 186.031311,173.322250 184.015121,173.682602 
	C182.267380,173.994934 180.433517,173.825485 178.176758,173.737366 
z"/>
<path fill="#262424" opacity="1.000000" stroke="none" 
	d="
M47.712032,140.233505 
	C49.376728,143.078522 50.803452,146.144943 52.158325,149.595184 
	C50.549004,146.804291 49.011532,143.629608 47.712032,140.233505 
z"/>
<path fill="#545152" opacity="1.000000" stroke="none" 
	d="
M214.598145,118.109787 
	C214.016800,115.577301 213.785919,113.042625 213.792740,110.254959 
	C214.701218,112.662529 219.384186,114.868607 214.598145,118.109787 
z"/>
<path fill="#262424" opacity="1.000000" stroke="none" 
	d="
M47.457962,131.053528 
	C47.882561,133.034515 47.945526,135.102875 47.903625,137.603989 
	C44.768265,136.022964 45.552376,133.620621 47.457962,131.053528 
z"/>
<path fill="#BCBABA" opacity="1.000000" stroke="none" 
	d="
M211.539154,138.065094 
	C211.971252,138.434219 212.046997,138.926300 212.213013,139.781982 
	C212.250168,141.168350 212.197052,142.191132 211.747437,143.617615 
	C210.941696,144.060684 210.532455,144.100052 210.123215,144.139420 
	C210.476395,142.155624 210.829590,140.171844 211.539154,138.065094 
z"/>
<path fill="#6F6D6D" opacity="1.000000" stroke="none" 
	d="
M47.979561,101.295471 
	C48.305340,102.507812 48.484776,104.134346 48.366745,105.914833 
	C47.990593,104.615746 47.911911,103.162712 47.979561,101.295471 
z"/>
<path fill="#BCBABA" opacity="1.000000" stroke="none" 
	d="
M196.874969,166.777191 
	C197.721542,165.540680 198.568130,164.304169 199.719482,163.394150 
	C200.001282,164.133194 199.978302,164.545731 199.955338,164.958282 
	C199.955338,164.958282 199.689728,165.278748 199.291199,165.508881 
	C198.220108,166.085083 197.547546,166.431137 196.874969,166.777191 
z"/>
<path fill="#6F6D6D" opacity="1.000000" stroke="none" 
	d="
M47.983349,95.179565 
	C48.313175,96.175331 48.482376,97.481331 48.376270,98.891388 
	C48.100967,98.995453 47.910076,99.257469 47.824490,98.817612 
	C47.706905,97.876877 47.674911,97.376007 47.642918,96.875137 
	C47.702850,96.413361 47.762787,95.951576 47.983349,95.179565 
z"/>
<path fill="#262424" opacity="1.000000" stroke="none" 
	d="
M52.106091,150.942963 
	C52.855560,151.801422 53.473396,153.049103 54.010216,154.655563 
	C53.277615,153.786957 52.626038,152.559570 52.106091,150.942963 
z"/>
<path fill="#A19E9F" opacity="1.000000" stroke="none" 
	d="
M103.050140,28.632692 
	C102.877098,28.020245 103.017014,27.524031 103.208069,26.772018 
	C103.724693,26.413961 104.190186,26.311701 104.954620,26.409594 
	C104.623413,27.322807 103.993256,28.035868 103.050140,28.632692 
z"/>
<path fill="#585757" opacity="1.000000" stroke="none" 
	d="
M168.359451,170.121399 
	C169.083801,170.455490 169.584488,170.807968 170.130981,171.477783 
	C169.349854,171.774948 168.522919,171.754776 167.333298,171.511536 
	C167.358994,170.905579 167.747391,170.522659 168.359451,170.121399 
z"/>
<path fill="#585757" opacity="1.000000" stroke="none" 
	d="
M192.082825,171.764618 
	C192.560089,171.019867 193.396149,170.419006 194.567963,169.866425 
	C194.083008,170.579300 193.262299,171.243912 192.082825,171.764618 
z"/>
<path fill="#696969" opacity="1.000000" stroke="none" 
	d="
M79.758553,39.061668 
	C80.206512,39.306973 80.272446,39.471996 79.843094,39.897835 
	C78.574089,40.764450 77.800369,41.370247 77.026642,41.976040 
	C77.026642,41.976040 76.578461,41.896698 76.486534,41.688522 
	C77.388580,40.647354 78.382553,39.814369 79.758553,39.061668 
z"/>
<path fill="#585757" opacity="1.000000" stroke="none" 
	d="
M171.088165,172.337067 
	C172.018707,172.341492 173.023758,172.698761 174.132141,173.374146 
	C173.211212,173.358154 172.186935,173.024033 171.088165,172.337067 
z"/>
<path fill="#585757" opacity="1.000000" stroke="none" 
	d="
M203.911453,160.169647 
	C204.396133,159.638580 204.843491,159.343826 205.542145,158.951859 
	C205.409012,159.829163 205.024582,160.803696 204.200500,161.598053 
	C203.724487,161.221817 203.688110,161.025726 203.651733,160.829620 
	C203.651733,160.829620 203.874146,160.405960 203.911453,160.169647 
z"/>
<path fill="#262424" opacity="1.000000" stroke="none" 
	d="
M49.775650,86.133911 
	C49.663395,87.019119 49.188526,87.933250 48.441967,89.013809 
	C48.584526,88.174431 48.998775,87.168640 49.775650,86.133911 
z"/>
<path fill="#585757" opacity="1.000000" stroke="none" 
	d="
M196.783051,167.045105 
	C197.547546,166.431137 198.220108,166.085083 199.174789,165.681396 
	C198.838272,166.422226 198.219650,167.220688 197.225922,167.937851 
	C196.797592,167.675385 196.744370,167.494202 196.783051,167.045105 
z"/>
<path fill="#BCBABA" opacity="1.000000" stroke="none" 
	d="
M203.336029,160.852142 
	C203.688110,161.025726 203.724487,161.221817 203.866791,161.697662 
	C203.552734,162.340042 203.132751,162.702652 202.124603,163.041321 
	C201.327225,162.949646 201.117981,162.881897 200.908722,162.814163 
	C201.612595,162.167664 202.316452,161.521164 203.336029,160.852142 
z"/>
<path fill="#262424" opacity="1.000000" stroke="none" 
	d="
M47.394836,96.959801 
	C47.674911,97.376007 47.706905,97.876877 47.677139,98.750076 
	C47.459167,98.429764 47.302959,97.737114 47.394836,96.959801 
z"/>
<path fill="#696969" opacity="1.000000" stroke="none" 
	d="
M81.683273,37.048096 
	C81.999649,37.471188 81.963631,37.893898 81.942505,38.634853 
	C81.553825,39.098576 81.150238,39.244057 80.444550,39.264664 
	C80.538589,38.442432 80.934738,37.745075 81.683273,37.048096 
z"/>
<path fill="#3E3A3B" opacity="1.000000" stroke="none" 
	d="
M120.883049,23.814548 
	C120.462051,24.075245 120.021286,24.051857 119.258118,23.952343 
	C119.305061,23.428497 119.674400,22.980774 120.043747,22.533051 
	C120.316925,22.865520 120.590103,23.197992 120.883049,23.814548 
z"/>
<path fill="#545152" opacity="1.000000" stroke="none" 
	d="
M210.047943,144.333405 
	C210.532455,144.100052 210.941696,144.060684 211.658157,143.991669 
	C211.585068,144.649384 211.204773,145.336746 210.501617,146.070862 
	C210.134186,145.914825 210.089600,145.712036 209.941925,145.215347 
	C209.838852,144.921448 209.972656,144.527374 210.047943,144.333405 
z"/>
<path fill="#545152" opacity="1.000000" stroke="none" 
	d="
M210.142456,149.853821 
	C209.860260,149.460876 209.840164,149.032715 209.917175,148.296844 
	C210.144394,148.598953 210.274490,149.208771 210.142456,149.853821 
z"/>
<path fill="#585757" opacity="1.000000" stroke="none" 
	d="
M195.264984,169.914978 
	C194.973389,169.500610 195.030136,169.099136 195.093079,168.389984 
	C195.487869,167.936493 195.876480,167.790680 196.561890,167.746811 
	C196.443558,168.541794 196.028458,169.234848 195.264984,169.914978 
z"/>
<path fill="#585757" opacity="1.000000" stroke="none" 
	d="
M200.713409,162.895981 
	C201.117981,162.881897 201.327225,162.949646 201.846252,163.130783 
	C201.629532,163.816376 201.103043,164.388565 200.265930,164.959518 
	C199.978302,164.545731 200.001282,164.133194 200.068375,163.410217 
	C200.112503,163.099808 200.518082,162.977798 200.713409,162.895981 
z"/>
<path fill="#3E3A3B" opacity="1.000000" stroke="none" 
	d="
M121.922569,24.613098 
	C121.740509,24.743856 121.410217,24.690699 120.992638,24.368507 
	C121.235710,24.102150 121.525375,24.212053 121.922569,24.613098 
z"/>
<path fill="#030202" opacity="1.000000" stroke="none" 
	d="
M94.744308,152.341812 
	C94.047791,152.471283 93.351265,152.600769 92.022552,152.682709 
	C90.931290,152.692703 90.472221,152.750214 89.670502,152.593353 
	C86.141441,152.402756 82.955055,152.426544 79.754601,152.402466 
	C79.740540,152.354584 79.656548,152.300690 79.682358,151.950043 
	C79.018890,151.190018 78.329597,150.780609 77.640312,150.371216 
	C77.640312,150.371216 77.167679,150.258621 76.835884,149.878082 
	C75.598373,147.819641 74.457497,146.224594 73.831635,144.448090 
	C72.048744,139.387344 70.475632,134.252701 68.877792,128.772995 
	C68.279823,126.597610 67.624016,124.796356 66.997086,122.551788 
	C67.131882,119.465088 67.237793,116.821701 67.690765,114.035690 
	C68.325836,110.594330 68.613838,107.295601 68.942436,103.630402 
	C69.988045,101.171555 70.993050,99.079170 72.317001,96.864395 
	C74.981743,95.362518 77.327522,93.983047 80.124191,92.722603 
	C87.446465,92.827713 94.317841,92.813789 101.531113,92.888214 
	C104.580002,94.319534 107.286972,95.662498 110.074997,97.335052 
	C112.209229,99.489944 114.506126,101.109314 116.261223,103.186478 
	C119.252663,106.726852 121.903755,110.554810 124.749146,114.598442 
	C125.430107,116.021255 126.059746,117.107574 126.815460,118.617508 
	C128.202744,127.408768 124.074425,134.240112 120.607971,141.260117 
	C120.607971,141.260117 120.385757,141.376160 120.020157,141.610458 
	C117.388252,144.189819 115.121964,146.534897 112.855675,148.879974 
	C108.582909,150.132339 104.310143,151.384720 99.623123,152.222443 
	C97.322884,148.659973 96.090172,150.973892 94.744308,152.341812 
M86.005753,140.614975 
	C86.085732,140.983414 86.165710,141.351852 86.216789,142.486053 
	C87.507057,142.958664 88.797325,143.431259 89.993599,143.986923 
	C89.993599,143.986923 90.082146,143.895020 90.193443,144.672546 
	C95.644928,147.551300 103.837257,145.078049 105.998062,139.997498 
	C105.998062,139.997498 105.918396,139.934784 106.664818,139.887787 
	C110.081573,134.940826 109.410072,130.632431 104.999031,128.999344 
	C104.999031,128.999344 104.977654,129.027756 104.941170,128.289459 
	C102.585716,123.240776 97.975082,122.793579 93.379784,123.113693 
	C90.209450,123.334534 86.064659,123.113350 86.158363,128.673325 
	C86.158363,128.673325 85.948196,128.976288 85.323441,129.034393 
	C85.214104,130.075745 85.104774,131.117096 85.284538,132.858490 
	C85.245850,133.855240 85.207161,134.852005 84.663803,136.138504 
	C85.065178,137.447830 85.466553,138.757156 86.005753,140.614975 
z"/>
<path fill="#0C0A0A" opacity="1.000000" stroke="none" 
	d="
M196.866501,141.881439 
	C187.547150,150.755493 176.392120,148.368713 165.667511,146.330139 
	C161.569794,145.551239 157.127228,142.949921 154.387497,139.824280 
	C152.228973,137.361710 152.411484,132.827957 151.605362,129.202759 
	C149.162506,118.217117 153.100006,108.171928 157.315857,98.618584 
	C160.243942,91.983383 167.142365,89.527000 174.432388,88.964592 
	C187.248795,87.975815 198.261566,97.320686 203.565704,106.663597 
	C204.239441,107.850334 203.929291,109.595665 203.993530,111.916016 
	C203.983032,114.526649 204.053955,116.303474 204.124893,118.080292 
	C204.009186,120.023544 203.893478,121.966789 203.387131,124.398750 
	C202.582214,127.021553 202.167953,129.155655 201.753693,131.289749 
	C201.691818,131.678589 201.629944,132.067413 201.185730,132.880722 
	C200.492004,134.158707 200.180603,135.012222 199.869202,135.865738 
	C199.869217,135.865738 200.001831,135.991241 199.575867,135.973114 
	C198.388779,137.930466 197.627640,139.905960 196.866501,141.881439 
M165.057022,138.011429 
	C165.057022,138.011429 165.193680,137.811356 165.162399,138.546448 
	C166.143372,138.994537 167.124344,139.442642 168.010025,140.003815 
	C168.010025,140.003815 168.096481,139.885574 168.210083,140.681168 
	C174.945419,144.079193 179.881195,142.369019 182.000900,135.996872 
	C182.000900,135.996872 181.923950,135.936401 182.701370,135.888519 
	C186.212662,132.422577 185.894745,127.848640 181.992081,125.036850 
	C181.992081,125.036850 181.944168,125.057907 181.960129,124.423698 
	C181.387390,123.909866 180.814651,123.396042 180.030945,122.539940 
	C180.030945,122.539940 179.862411,122.174904 179.862747,121.433632 
	C173.721191,115.734238 162.955627,117.859932 161.035904,125.986374 
	C161.077347,128.254242 161.118790,130.522095 161.115372,133.462357 
	C161.717758,133.989777 162.320145,134.517212 163.089767,135.390411 
	C163.089767,135.390411 163.189713,135.761276 163.128677,136.466736 
	C163.811905,136.912415 164.495148,137.358093 165.057022,138.011429 
z"/>
<path fill="#070707" opacity="1.000000" stroke="none" 
	d="
M131.255493,152.110916 
	C131.255493,152.110916 131.500534,151.974869 131.830566,151.905396 
	C132.470856,151.574951 132.781097,151.313980 133.438751,151.037766 
	C135.233780,150.096481 136.681381,149.170441 138.128983,148.244400 
	C138.128983,148.244400 138.168365,148.024628 138.358383,148.118652 
	C138.975372,148.272583 139.402328,148.332489 139.892395,148.695755 
	C140.664902,149.309402 141.374298,149.619690 142.372162,150.027832 
	C143.062698,150.151398 143.464798,150.177078 143.866882,150.202774 
	C143.866882,150.202774 143.913528,150.604309 143.904907,151.154282 
	C145.932343,154.800781 147.968399,157.897324 150.004471,160.993851 
	C150.004471,160.993851 150.000000,161.000000 149.996567,161.354370 
	C150.871384,162.959366 151.749634,164.210022 152.627869,165.460663 
	C152.604660,166.348297 152.581467,167.235947 152.143967,168.564484 
	C148.342743,171.383270 145.589890,169.111069 142.501862,168.035629 
	C140.196640,167.232788 137.512909,167.516754 134.740326,167.377411 
	C134.136307,167.502823 133.789703,167.567566 133.117432,167.469574 
	C132.183685,167.849594 131.575592,168.392365 130.545120,169.017883 
	C126.145218,169.836548 127.288986,166.539841 126.665039,164.469147 
	C126.701225,164.274734 126.879387,163.921600 127.249146,163.897995 
	C131.896240,161.646820 131.104065,157.697601 131.058289,153.663208 
	C131.175766,152.937576 131.215637,152.524246 131.255493,152.110916 
z"/>
<path fill="#090606" opacity="1.000000" stroke="none" 
	d="
M156.148224,201.406952 
	C156.216324,202.372147 156.207428,202.959808 156.145660,203.986755 
	C151.631912,204.281296 147.171005,204.136536 142.253204,203.445404 
	C141.776184,200.073135 142.075516,197.199142 141.659027,194.432922 
	C141.073685,190.545364 142.832687,188.263733 146.239624,187.721451 
	C148.143127,187.418472 150.295959,188.681870 152.336441,189.239441 
	C152.480286,189.627655 152.624115,190.015869 152.587143,190.842407 
	C152.927811,192.186081 153.449280,193.091415 153.970764,193.996735 
	C154.670929,196.340958 155.371078,198.685181 156.148224,201.406952 
z"/>
<path fill="#1F1819" opacity="1.000000" stroke="none" 
	d="
M136.889572,203.709290 
	C130.563843,203.717163 124.238121,203.725052 117.531189,203.725769 
	C119.614120,199.001251 122.078262,194.283905 124.976196,188.736115 
	C126.901611,190.777313 127.745682,191.672150 128.794128,193.132050 
	C130.255997,194.863846 131.513504,196.030548 132.771011,197.197266 
	C132.771011,197.197266 132.869278,197.081711 132.837524,197.487579 
	C133.709000,198.373672 134.612213,198.853912 135.515427,199.334167 
	C135.515427,199.334167 135.589752,199.407318 135.584137,199.775513 
	C136.015549,201.332214 136.452560,202.520752 136.889572,203.709290 
z"/>
<path fill="#474545" opacity="1.000000" stroke="none" 
	d="
M94.046875,174.011398 
	C94.046875,174.011398 94.528343,174.005005 94.769104,174.004242 
	C94.361969,177.629044 93.364708,181.233749 93.147102,184.884949 
	C92.810585,190.531265 96.877571,193.021164 101.996162,190.637543 
	C109.256683,187.256439 111.656265,188.758530 111.627647,196.618942 
	C111.619804,198.773087 111.743492,200.927719 111.664963,203.520813 
	C110.909019,203.950653 110.294937,203.941788 109.401855,203.405975 
	C109.121193,201.062103 109.293037,199.223740 109.071838,197.433945 
	C108.822655,195.417847 108.219376,193.445541 107.770119,191.454178 
	C105.897202,192.084808 103.912926,192.499725 102.177025,193.395782 
	C99.462120,194.797226 90.836021,193.016571 90.617966,190.482605 
	C90.124573,184.749084 88.348999,178.531708 94.046875,174.011398 
z"/>
<path fill="#5E5959" opacity="1.000000" stroke="none" 
	d="
M152.445572,188.907074 
	C150.295959,188.681870 148.143127,187.418472 146.239624,187.721451 
	C142.832687,188.263733 141.073685,190.545364 141.659027,194.432922 
	C142.075516,197.199142 141.776184,200.073135 141.782410,203.347168 
	C141.337692,203.815506 140.906876,203.835709 140.172256,203.418365 
	C139.812347,198.894882 139.756226,194.808960 139.700089,190.723038 
	C139.454147,185.790115 143.601395,185.215790 146.644882,184.927811 
	C148.483337,184.753860 150.576157,187.268250 152.445572,188.907074 
z"/>
<path fill="#A8A5A6" opacity="1.000000" stroke="none" 
	d="
M120.887360,141.520935 
	C124.074425,134.240112 128.202744,127.408768 126.965881,118.255096 
	C127.032936,116.948326 127.075638,116.427589 127.118347,115.906853 
	C127.771469,119.374565 129.170319,122.898598 128.913620,126.297600 
	C128.459122,132.315735 126.858620,138.186508 120.887360,141.520935 
z"/>
<path fill="#9E9B9C" opacity="1.000000" stroke="none" 
	d="
M68.819962,129.147125 
	C70.475632,134.252701 72.048744,139.387344 73.831635,144.448090 
	C74.457497,146.224594 75.598373,147.819641 76.594482,149.850952 
	C74.884895,148.622131 72.216553,147.373688 71.454926,145.392303 
	C69.511032,140.335327 68.417572,134.951447 67.332138,129.323700 
	C68.060249,129.015076 68.440102,129.081100 68.819962,129.147125 
z"/>
<path fill="#545050" opacity="1.000000" stroke="none" 
	d="
M124.697830,114.261948 
	C121.903755,110.554810 119.252663,106.726852 116.261223,103.186478 
	C114.506126,101.109314 112.209229,99.489944 110.418625,97.319260 
	C111.138756,96.957787 111.596298,96.941704 112.053848,96.925629 
	C116.992027,101.097000 123.278664,104.043594 125.001450,111.852844 
	C125.061195,112.990051 125.098351,113.430351 125.027008,113.969498 
	C124.918510,114.068359 124.697830,114.261948 124.697830,114.261948 
z"/>
<path fill="#4B4949" opacity="1.000000" stroke="none" 
	d="
M101.189209,92.799866 
	C94.317841,92.813789 87.446465,92.827713 80.127396,92.446098 
	C79.919258,91.557060 80.158821,91.063553 80.398384,90.570053 
	C82.606003,90.348076 84.813622,90.126099 87.859673,89.930695 
	C89.856247,89.871216 91.014389,89.785149 92.172531,89.699089 
	C94.875748,90.037956 97.578964,90.376823 100.646927,91.147659 
	C101.070854,91.986382 101.130035,92.393127 101.189209,92.799866 
z"/>
<path fill="#5E5959" opacity="1.000000" stroke="none" 
	d="
M134.997742,167.316757 
	C137.512909,167.516754 140.196640,167.232788 142.501862,168.035629 
	C145.589890,169.111069 148.342743,171.383270 152.073944,168.890411 
	C151.712860,173.247086 148.331650,174.145203 144.050110,171.333420 
	C141.852966,169.890488 139.246719,169.070465 136.244064,167.940155 
	C135.296082,167.875336 135.074402,167.677124 134.997742,167.316757 
z"/>
<path fill="#9B9697" opacity="1.000000" stroke="none" 
	d="
M139.381760,190.923340 
	C139.756226,194.808960 139.812347,198.894882 139.854401,203.337250 
	C139.103287,203.749496 138.366241,203.805313 137.259384,203.785202 
	C136.452560,202.520752 136.015549,201.332214 135.611786,199.819702 
	C140.443588,198.199066 136.849106,193.475464 139.381760,190.923340 
z"/>
<path fill="#A8A5A6" opacity="1.000000" stroke="none" 
	d="
M196.566010,77.956284 
	C199.011002,79.264221 201.104828,80.659164 204.097672,82.653061 
	C198.501099,84.115280 196.447479,82.457703 196.566010,77.956284 
z"/>
<path fill="#B9B5B5" opacity="1.000000" stroke="none" 
	d="
M71.998047,96.986794 
	C70.993050,99.079170 69.988045,101.171555 68.687950,103.803741 
	C67.948479,105.228485 67.504097,106.113426 67.059708,106.998367 
	C65.829376,102.368355 66.904526,98.573151 71.479950,96.087852 
	C71.920334,96.512726 71.959198,96.749756 71.998047,96.986794 
z"/>
<path fill="#B0AEAE" opacity="1.000000" stroke="none" 
	d="
M101.531113,92.888222 
	C101.130035,92.393127 101.070854,91.986382 101.029099,91.271240 
	C104.643776,92.733261 108.241035,94.503693 111.946075,96.599869 
	C111.596298,96.941704 111.138756,96.957787 110.337578,96.989662 
	C107.286972,95.662498 104.580002,94.319534 101.531113,92.888222 
z"/>
<path fill="#504D4D" opacity="1.000000" stroke="none" 
	d="
M126.628860,164.663544 
	C127.288986,166.539841 126.145218,169.836548 130.583191,169.361908 
	C131.079544,169.850952 131.115463,170.078735 131.129028,170.583206 
	C131.053879,171.225357 131.001053,171.590836 130.948227,171.956299 
	C130.948227,171.956299 130.992615,172.003876 130.575134,171.937943 
	C129.087250,171.961380 128.016846,172.050766 126.946457,172.140137 
	C126.332062,171.630035 125.717667,171.119949 124.990509,169.950867 
	C125.461449,167.749100 126.045158,166.206314 126.628860,164.663544 
z"/>
<path fill="#BCBABA" opacity="1.000000" stroke="none" 
	d="
M150.055923,160.617340 
	C147.968399,157.897324 145.932343,154.800781 144.000366,151.332443 
	C146.105438,154.054031 148.106415,157.147430 150.055923,160.617340 
z"/>
<path fill="#A8A5A6" opacity="1.000000" stroke="none" 
	d="
M113.228127,148.900452 
	C115.121964,146.534897 117.388252,144.189819 119.953682,141.716736 
	C118.035400,144.032776 115.817993,146.476852 113.228127,148.900452 
z"/>
<path fill="#B9B5B5" opacity="1.000000" stroke="none" 
	d="
M67.343697,114.178307 
	C67.237793,116.821701 67.131882,119.465088 66.720291,122.600494 
	C66.048119,123.156052 65.681633,123.219604 65.315140,123.283157 
	C65.547760,119.562546 65.780388,115.841927 66.502014,112.385292 
	C67.108574,113.158951 67.226135,113.668625 67.343697,114.178307 
z"/>
<path fill="#504D4D" opacity="1.000000" stroke="none" 
	d="
M130.980682,153.975494 
	C131.104065,157.697601 131.896240,161.646820 127.121658,163.633392 
	C126.570244,163.204239 126.516075,163.016068 126.461899,162.827896 
	C126.677078,162.514603 126.892258,162.201324 127.559570,161.523346 
	C128.334045,159.101654 128.656372,157.044647 128.978714,154.987625 
	C128.978714,154.987625 129.001770,154.995956 129.239304,154.849426 
	C129.978119,154.460434 130.479401,154.217972 130.980682,153.975494 
z"/>
<path fill="#656565" opacity="1.000000" stroke="none" 
	d="
M79.768661,152.450348 
	C82.955055,152.426544 86.141441,152.402756 89.667084,152.912323 
	C90.007744,153.658295 90.009171,153.870911 90.010605,154.083542 
	C86.963158,154.215454 83.915710,154.347382 80.387863,154.071915 
	C79.861198,153.259796 79.814926,152.855072 79.768661,152.450348 
z"/>
<path fill="#B0AEAE" opacity="1.000000" stroke="none" 
	d="
M72.317009,96.864395 
	C71.959198,96.749756 71.920334,96.512726 71.793564,95.923569 
	C74.371193,93.813293 77.036728,92.055138 80.050323,90.433517 
	C80.158821,91.063553 79.919258,91.557060 79.676498,92.327065 
	C77.327522,93.983047 74.981743,95.362518 72.317009,96.864395 
z"/>
<path fill="#504D4D" opacity="1.000000" stroke="none" 
	d="
M67.690765,114.035690 
	C67.226135,113.668625 67.108574,113.158951 66.881760,112.270561 
	C66.858864,110.533447 66.945206,109.175034 67.045624,107.407501 
	C67.504097,106.113426 67.948479,105.228485 68.647346,104.170212 
	C68.613838,107.295601 68.325836,110.594330 67.690765,114.035690 
z"/>
<path fill="#9B9697" opacity="1.000000" stroke="none" 
	d="
M202.087143,131.168564 
	C202.167953,129.155655 202.582214,127.021553 203.361679,124.814690 
	C203.291458,126.843742 202.856033,128.945557 202.087143,131.168564 
z"/>
<path fill="#CCC9CA" opacity="1.000000" stroke="none" 
	d="
M126.112953,162.832779 
	C126.516075,163.016068 126.570244,163.204239 126.751907,163.657013 
	C126.879387,163.921600 126.701225,164.274734 126.665039,164.469147 
	C126.045158,166.206314 125.461449,167.749100 124.825867,169.687286 
	C120.904427,167.093826 123.352730,164.968277 126.112953,162.832779 
z"/>
<path fill="#9B9697" opacity="1.000000" stroke="none" 
	d="
M197.228500,141.863922 
	C197.627640,139.905960 198.388779,137.930466 199.506775,135.914200 
	C199.105927,137.864410 198.348221,139.855408 197.228500,141.863922 
z"/>
<path fill="#F3F2F2" opacity="1.000000" stroke="none" 
	d="
M159.030151,74.028915 
	C158.350845,75.420067 157.671555,76.811226 156.992249,78.202377 
	C156.368927,77.764473 155.745605,77.326561 155.122284,76.888657 
	C156.175079,75.946663 157.227875,75.004677 158.640808,74.031708 
	C159.000977,74.000725 159.030151,74.028915 159.030151,74.028915 
z"/>
<path fill="#504D4D" opacity="1.000000" stroke="none" 
	d="
M65.326675,123.514694 
	C65.681633,123.219604 66.048119,123.156052 66.691406,123.043800 
	C67.624016,124.796356 68.279823,126.597610 68.877792,128.772995 
	C68.440102,129.081100 68.060249,129.015076 67.391083,128.935669 
	C67.101784,128.922256 66.918808,128.529404 66.946655,127.981232 
	C66.435753,126.513321 65.896996,125.593575 65.358246,124.673828 
	C65.359962,124.364449 65.353279,124.055260 65.326675,123.514694 
z"/>
<path fill="#504D4D" opacity="1.000000" stroke="none" 
	d="
M137.765244,148.116119 
	C136.681381,149.170441 135.233780,150.096481 133.360229,150.704971 
	C132.987061,149.940155 133.039810,149.492859 133.092575,149.045578 
	C134.528885,148.692993 135.965195,148.340408 137.765244,148.116119 
z"/>
<path fill="#9B9697" opacity="1.000000" stroke="none" 
	d="
M204.465790,117.978836 
	C204.053955,116.303474 203.983032,114.526649 204.044586,112.321732 
	C204.386948,113.888206 204.596817,115.882797 204.465790,117.978836 
z"/>
<path fill="#CCC9CA" opacity="1.000000" stroke="none" 
	d="
M128.666565,155.033569 
	C128.656372,157.044647 128.334045,159.101654 127.618652,161.238464 
	C127.601860,159.238663 127.978134,157.159073 128.666565,155.033569 
z"/>
<path fill="#656565" opacity="1.000000" stroke="none" 
	d="
M95.167755,152.536484 
	C96.090172,150.973892 97.322884,148.659973 99.243996,152.113586 
	C98.049805,152.523300 96.820503,152.627228 95.167755,152.536484 
z"/>
<path fill="#BCBABA" opacity="1.000000" stroke="none" 
	d="
M165.166290,167.366516 
	C164.092590,167.773117 162.991318,167.859390 161.481400,168.013275 
	C162.025696,166.154816 162.771225,163.413742 165.166290,167.366516 
z"/>
<path fill="#9B9697" opacity="1.000000" stroke="none" 
	d="
M132.766083,196.849335 
	C131.513504,196.030548 130.255997,194.863846 129.000977,193.347382 
	C130.256027,194.165558 131.508591,195.333481 132.766083,196.849335 
z"/>
<path fill="#BCBABA" opacity="1.000000" stroke="none" 
	d="
M152.788055,165.094604 
	C151.749634,164.210022 150.871384,162.959366 149.999619,161.352219 
	C150.986816,162.239990 151.967529,163.484268 152.788055,165.094604 
z"/>
<path fill="#CCC9CA" opacity="1.000000" stroke="none" 
	d="
M134.740326,167.377411 
	C135.074402,167.677124 135.296082,167.875336 135.862289,168.041245 
	C135.327133,168.800385 134.592484,169.429657 133.411621,170.010468 
	C132.965378,169.962006 132.713974,169.715927 132.795197,169.449707 
	C133.065308,168.666428 133.254196,168.149353 133.443100,167.632294 
	C133.789703,167.567566 134.136307,167.502823 134.740326,167.377411 
z"/>
<path fill="#B0AEAE" opacity="1.000000" stroke="none" 
	d="
M92.091629,89.380722 
	C91.014389,89.785149 89.856247,89.871216 88.271957,89.849960 
	C89.234116,89.515884 90.622421,89.289124 92.091629,89.380722 
z"/>
<path fill="#CCC9CA" opacity="1.000000" stroke="none" 
	d="
M139.829300,148.392426 
	C139.402328,148.332489 138.975372,148.272583 138.256104,148.073914 
	C139.265259,147.676514 140.566711,147.417862 141.908585,147.596252 
	C141.948990,148.033264 141.801590,148.287888 141.467957,148.244110 
	C140.699326,148.264343 140.264313,148.328384 139.829300,148.392426 
z"/>
<path fill="#B0AEAE" opacity="1.000000" stroke="none" 
	d="
M75.815163,47.726616 
	C75.532707,46.753513 75.284340,45.346054 75.387680,43.874176 
	C75.776009,44.970585 75.812630,46.131424 75.815163,47.726616 
z"/>
<path fill="#CCC9CA" opacity="1.000000" stroke="none" 
	d="
M127.007492,172.479218 
	C128.016846,172.050766 129.087250,171.961380 130.559250,171.910324 
	C130.230774,174.777832 128.779480,174.379166 127.007492,172.479218 
z"/>
<path fill="#5E5959" opacity="1.000000" stroke="none" 
	d="
M154.149414,193.784485 
	C153.449280,193.091415 152.927811,192.186081 152.654175,191.147644 
	C153.377380,191.867111 153.852737,192.719681 154.149414,193.784485 
z"/>
<path fill="#746F70" opacity="1.000000" stroke="none" 
	d="
M208.603668,85.885910 
	C208.607529,86.811928 208.288574,87.753006 207.854950,89.051422 
	C205.745346,87.904297 206.085144,86.759636 208.603668,85.885910 
z"/>
<path fill="#545050" opacity="1.000000" stroke="none" 
	d="
M126.995308,115.672585 
	C127.075638,116.427589 127.032936,116.948326 126.839806,117.831482 
	C126.059746,117.107574 125.430107,116.021255 124.749146,114.598442 
	C124.697830,114.261948 124.918510,114.068359 125.334442,114.047432 
	C125.959480,113.994659 126.168571,113.962814 126.377670,113.930977 
	C126.542542,114.433426 126.707405,114.935867 126.995308,115.672585 
z"/>
<path fill="#9B9697" opacity="1.000000" stroke="none" 
	d="
M135.638779,198.981354 
	C134.612213,198.853912 133.709000,198.373672 132.811951,197.558975 
	C133.799469,197.692535 134.780792,198.160553 135.638779,198.981354 
z"/>
<path fill="#9B9697" opacity="1.000000" stroke="none" 
	d="
M200.181213,135.914902 
	C200.180603,135.012222 200.492004,134.158707 201.133667,133.171814 
	C201.140366,134.013641 200.816803,134.988846 200.181213,135.914902 
z"/>
<path fill="#B9B5B5" opacity="1.000000" stroke="none" 
	d="
M65.229393,125.023163 
	C65.896996,125.593575 66.435753,126.513321 66.877762,127.775787 
	C66.220856,127.203178 65.660698,126.287842 65.229393,125.023163 
z"/>
<path fill="#B0AEAE" opacity="1.000000" stroke="none" 
	d="
M77.313080,42.032360 
	C77.800369,41.370247 78.574089,40.764450 79.726608,40.137592 
	C79.270103,40.773914 78.434807,41.431297 77.313080,42.032360 
z"/>
<path fill="#B0AEAE" opacity="1.000000" stroke="none" 
	d="
M79.754601,152.402466 
	C79.814926,152.855072 79.861198,153.259796 79.939308,153.970825 
	C79.310219,154.045883 78.649292,153.814651 78.115578,153.272278 
	C78.468285,152.907990 78.676323,152.815582 79.080429,152.621338 
	C79.293961,152.558731 79.656548,152.300690 79.656548,152.300690 
	C79.656548,152.300690 79.740540,152.354584 79.754601,152.402466 
z"/>
<path fill="#CCC9CA" opacity="1.000000" stroke="none" 
	d="
M131.058289,153.663208 
	C130.479401,154.217972 129.978119,154.460434 129.229324,154.839996 
	C129.491638,154.009079 130.001465,153.041092 130.883392,152.092010 
	C131.215637,152.524246 131.175766,152.937576 131.058289,153.663208 
z"/>
<path fill="#B0AEAE" opacity="1.000000" stroke="none" 
	d="
M96.990875,30.633904 
	C97.248009,30.024710 97.830460,29.509657 98.735878,29.035021 
	C98.477959,29.626307 97.897079,30.177176 96.990875,30.633904 
z"/>
<path fill="#B0AEAE" opacity="1.000000" stroke="none" 
	d="
M93.135971,32.812927 
	C93.333145,32.183151 93.862740,31.593531 94.721573,31.033413 
	C94.523338,31.659639 93.995865,32.256359 93.135971,32.812927 
z"/>
<path fill="#A8A5A6" opacity="1.000000" stroke="none" 
	d="
M126.544434,113.734360 
	C126.168571,113.962814 125.959480,113.994659 125.442947,113.948578 
	C125.098351,113.430351 125.061195,112.990051 125.077782,112.222412 
	C125.658089,112.442619 126.184647,112.990181 126.544434,113.734360 
z"/>
<path fill="#BCBABA" opacity="1.000000" stroke="none" 
	d="
M143.921799,149.861298 
	C143.464798,150.177078 143.062698,150.151398 142.365662,149.748688 
	C141.981003,149.010406 141.891296,148.649155 141.801590,148.287888 
	C141.801590,148.287888 141.948990,148.033264 142.031311,147.910583 
	C142.734650,148.365204 143.355682,148.942520 143.921799,149.861298 
z"/>
<path fill="#CCC9CA" opacity="1.000000" stroke="none" 
	d="
M131.274170,171.978729 
	C131.001053,171.590836 131.053879,171.225357 131.387894,170.479599 
	C132.017395,169.971512 132.365677,169.843719 132.713974,169.715927 
	C132.713974,169.715927 132.965378,169.962006 133.093231,170.084824 
	C132.680740,170.805496 132.140427,171.403336 131.274170,171.978729 
z"/>
<path fill="#F3F2F2" opacity="1.000000" stroke="none" 
	d="
M158.986908,73.986153 
	C159.285660,73.473816 159.598495,72.976051 159.911331,72.478294 
	C160.117966,72.659279 160.324585,72.840263 160.531219,73.021255 
	C160.216965,73.328796 159.902710,73.636337 159.309296,73.986397 
	C159.030151,74.028915 159.000977,74.000725 158.986908,73.986153 
z"/>
<path fill="#CCC9CA" opacity="1.000000" stroke="none" 
	d="
M132.701263,149.094788 
	C133.039810,149.492859 132.987061,149.940155 133.012817,150.720230 
	C132.781097,151.313980 132.470856,151.574951 131.858917,151.768127 
	C131.808121,150.848236 132.059036,149.996109 132.701263,149.094788 
z"/>
<path fill="#656565" opacity="1.000000" stroke="none" 
	d="
M79.682358,151.950043 
	C79.656548,152.300690 79.293961,152.558731 78.841858,152.432419 
	C78.193047,152.257675 77.996330,152.209244 77.799606,152.160797 
	C77.674141,151.761734 77.548683,151.362671 77.531769,150.667419 
	C78.329597,150.780609 79.018890,151.190018 79.682358,151.950043 
z"/>
<path fill="#B0AEAE" opacity="1.000000" stroke="none" 
	d="
M90.188507,154.291992 
	C90.009171,153.870911 90.007744,153.658295 90.009743,153.126709 
	C90.472221,152.750214 90.931290,152.692703 91.691528,152.810287 
	C91.450607,153.490417 90.908508,153.995422 90.188507,154.291992 
z"/>
<path fill="#9E9B9C" opacity="1.000000" stroke="none" 
	d="
M77.778679,152.388245 
	C77.996330,152.209244 78.193047,152.257675 78.628334,152.495026 
	C78.676323,152.815582 78.468285,152.907990 78.073204,153.004852 
	C77.903618,153.048569 77.757751,152.615677 77.778679,152.388245 
z"/>
<path fill="#040102" opacity="1.000000" stroke="none" 
	d="
M93.988289,173.674164 
	C88.348999,178.531708 90.124573,184.749084 90.617966,190.482605 
	C90.836021,193.016571 99.462120,194.797226 102.177025,193.395782 
	C103.912926,192.499725 105.897202,192.084808 107.770119,191.454178 
	C108.219376,193.445541 108.822655,195.417847 109.071838,197.433945 
	C109.293037,199.223740 109.121193,201.062103 109.106773,203.321198 
	C106.692307,203.835342 104.293922,203.907303 101.451370,204.003632 
	C96.806419,203.994720 92.601212,203.830154 88.406265,203.970947 
	C85.227074,204.077667 83.856194,202.890289 84.008095,199.644653 
	C84.170296,196.179047 83.858932,192.687790 84.087334,189.229721 
	C84.347977,185.283249 83.748055,181.719818 80.883469,178.365967 
	C83.876518,176.572983 86.918068,175.044159 90.065376,173.778305 
	C91.225075,173.311890 92.634293,173.465912 93.988289,173.674164 
z"/>
<path fill="#DC102B" opacity="1.000000" stroke="none" 
	d="
M85.168465,135.848755 
	C85.207161,134.852005 85.245850,133.855240 85.448669,132.191376 
	C85.724594,130.674942 85.836395,129.825607 85.948196,128.976288 
	C85.948196,128.976288 86.158363,128.673325 86.504341,128.421112 
	C87.797508,127.692757 88.744705,127.216629 90.173264,126.821457 
	C93.567947,126.814613 96.481277,126.726830 99.748062,126.667160 
	C101.726906,127.472755 103.352280,128.250259 104.977654,129.027756 
	C104.977654,129.027756 104.999031,128.999344 105.024727,129.384399 
	C106.972572,133.018494 107.444946,136.391296 105.918396,139.934784 
	C105.918396,139.934784 105.998062,139.997498 105.597504,140.029694 
	C100.158684,141.339584 95.120415,142.617310 90.082146,143.895020 
	C90.082146,143.895020 89.993599,143.986923 89.929016,143.660828 
	C89.272385,142.778458 88.680344,142.222183 88.073563,141.329651 
	C87.463524,139.968277 86.868217,138.943192 86.147095,137.541168 
	C85.737015,136.725754 85.452736,136.287247 85.168465,135.848755 
M91.073845,137.831589 
	C94.302711,140.995422 96.705849,140.959381 98.984894,137.168289 
	C99.132217,136.816223 99.279541,136.464157 99.994545,135.919479 
	C99.802719,134.908051 99.610893,133.896637 99.076614,132.281311 
	C97.149307,131.257797 95.222008,130.234283 92.587143,129.137177 
	C92.071106,129.780090 91.555069,130.423004 90.914116,131.919327 
	C90.928413,133.640030 90.942711,135.360733 91.073845,137.831589 
z"/>
<path fill="#41040D" opacity="1.000000" stroke="none" 
	d="
M104.959412,128.658600 
	C103.352280,128.250259 101.726906,127.472755 99.557037,126.325363 
	C95.905655,126.217148 92.798775,126.478828 89.691895,126.740509 
	C88.744705,127.216629 87.797508,127.692757 86.540581,128.240341 
	C86.064659,123.113350 90.209450,123.334534 93.379784,123.113693 
	C97.975082,122.793579 102.585716,123.240776 104.959412,128.658600 
z"/>
<path fill="#41040D" opacity="1.000000" stroke="none" 
	d="
M90.137794,144.283783 
	C95.120415,142.617310 100.158684,141.339584 105.563980,139.991638 
	C103.837257,145.078049 95.644928,147.551300 90.137794,144.283783 
z"/>
<path fill="#41040D" opacity="1.000000" stroke="none" 
	d="
M106.291611,139.911285 
	C107.444946,136.391296 106.972572,133.018494 105.010971,129.396515 
	C109.410072,130.632431 110.081573,134.940826 106.291611,139.911285 
z"/>
<path fill="#AE0D23" opacity="1.000000" stroke="none" 
	d="
M86.272911,137.918091 
	C86.868217,138.943192 87.463524,139.968277 87.769562,141.393555 
	C87.068756,141.769257 86.657227,141.744766 86.245689,141.720291 
	C86.165710,141.351852 86.085732,140.983414 86.008453,139.982941 
	C86.098412,138.873306 86.185661,138.395691 86.272911,137.918091 
z"/>
<path fill="#41040D" opacity="1.000000" stroke="none" 
	d="
M86.147095,137.541168 
	C86.185661,138.395691 86.098412,138.873306 85.939545,139.708694 
	C85.466553,138.757156 85.065178,137.447830 84.916138,135.993622 
	C85.452736,136.287247 85.737015,136.725754 86.147095,137.541168 
z"/>
<path fill="#41040D" opacity="1.000000" stroke="none" 
	d="
M86.231239,142.103180 
	C86.657227,141.744766 87.068756,141.769257 87.784294,141.729828 
	C88.680344,142.222183 89.272385,142.778458 89.976013,143.619293 
	C88.797325,143.431259 87.507057,142.958664 86.231239,142.103180 
z"/>
<path fill="#41040D" opacity="1.000000" stroke="none" 
	d="
M85.635818,129.005341 
	C85.836395,129.825607 85.724594,130.674942 85.304115,131.841354 
	C85.104774,131.117096 85.214104,130.075745 85.635818,129.005341 
z"/>
<path fill="#D4102A" opacity="1.000000" stroke="none" 
	d="
M179.862411,122.174904 
	C179.862411,122.174904 180.030945,122.539940 180.091965,123.038025 
	C180.750046,124.043381 181.347107,124.550644 181.944168,125.057907 
	C181.944168,125.057907 181.992081,125.036850 181.959747,125.494156 
	C181.926270,129.279770 181.925110,132.608093 181.923950,135.936401 
	C181.923950,135.936401 182.000900,135.996872 181.620026,136.025696 
	C177.903152,140.916107 172.906967,140.082291 168.096481,139.885574 
	C168.096481,139.885574 168.010025,140.003815 167.986282,139.620209 
	C167.039581,138.761505 166.116638,138.286423 165.193680,137.811356 
	C165.193680,137.811356 165.057022,138.011429 165.056702,137.604950 
	C164.434143,136.719421 163.811935,136.240341 163.189713,135.761276 
	C163.189713,135.761276 163.089767,135.390411 163.028473,134.888916 
	C162.364868,133.854919 161.762543,133.322449 161.160233,132.789963 
	C161.118790,130.522095 161.077347,128.254242 161.410522,125.459686 
	C167.215698,120.112427 173.364532,119.999863 179.862411,122.174904 
M168.827927,132.644623 
	C170.048737,133.058289 171.537827,134.116837 172.431854,133.744934 
	C174.054504,133.069962 176.006622,131.770309 176.496613,130.292252 
	C176.817841,129.323257 174.998016,126.666229 173.798874,126.421310 
	C172.329865,126.121284 170.261246,127.254189 168.937302,128.352646 
	C168.228149,128.941010 168.538010,130.757568 168.827927,132.644623 
z"/>
<path fill="#540611" opacity="1.000000" stroke="none" 
	d="
M179.862579,121.804268 
	C173.364532,119.999863 167.215698,120.112427 161.447052,125.034813 
	C162.955627,117.859932 173.721191,115.734238 179.862579,121.804268 
z"/>
<path fill="#50050F" opacity="1.000000" stroke="none" 
	d="
M168.153290,140.283371 
	C172.906967,140.082291 177.903152,140.916107 181.585602,135.990631 
	C179.881195,142.369019 174.945419,144.079193 168.153290,140.283371 
z"/>
<path fill="#50050F" opacity="1.000000" stroke="none" 
	d="
M182.312653,135.912460 
	C181.925110,132.608093 181.926270,129.279770 181.937469,125.497162 
	C185.894745,127.848640 186.212662,132.422577 182.312653,135.912460 
z"/>
<path fill="#50050F" opacity="1.000000" stroke="none" 
	d="
M165.178040,138.178894 
	C166.116638,138.286423 167.039581,138.761505 168.033936,139.563660 
	C167.124344,139.442642 166.143372,138.994537 165.178040,138.178894 
z"/>
<path fill="#540611" opacity="1.000000" stroke="none" 
	d="
M181.952148,124.740799 
	C181.347107,124.550644 180.750046,124.043381 180.197449,123.209167 
	C180.814651,123.396042 181.387390,123.909866 181.952148,124.740799 
z"/>
<path fill="#50050F" opacity="1.000000" stroke="none" 
	d="
M161.137802,133.126160 
	C161.762543,133.322449 162.364868,133.854919 162.944855,134.716019 
	C162.320145,134.517212 161.717758,133.989777 161.137802,133.126160 
z"/>
<path fill="#50050F" opacity="1.000000" stroke="none" 
	d="
M163.159195,136.114014 
	C163.811935,136.240341 164.434143,136.719421 165.117371,137.501129 
	C164.495148,137.358093 163.811905,136.912415 163.159195,136.114014 
z"/>
<path fill="#5E5959" opacity="1.000000" stroke="none" 
	d="
M132.795197,169.449707 
	C132.365677,169.843719 132.017395,169.971512 131.410248,170.202911 
	C131.115463,170.078735 131.079544,169.850952 131.005569,169.279144 
	C131.575592,168.392365 132.183685,167.849594 133.117432,167.469559 
	C133.254196,168.149353 133.065308,168.666428 132.795197,169.449707 
z"/>
<path fill="#504D4D" opacity="1.000000" stroke="none" 
	d="
M141.467957,148.244110 
	C141.891296,148.649155 141.981003,149.010406 142.077209,149.650818 
	C141.374298,149.619690 140.664902,149.309402 139.892395,148.695770 
	C140.264313,148.328384 140.699326,148.264343 141.467957,148.244110 
z"/>
<path fill="#2F0309" opacity="1.000000" stroke="none" 
	d="
M93.294701,129.210770 
	C95.222008,130.234283 97.149307,131.257797 99.162796,132.983490 
	C99.308266,134.494476 99.367561,135.303284 99.426865,136.112091 
	C99.279541,136.464157 99.132217,136.816223 98.498894,137.495392 
	C95.660927,137.575485 93.308968,137.328461 90.957001,137.081436 
	C90.942711,135.360733 90.928413,133.640030 91.295258,131.459473 
	C92.215836,130.403336 92.755272,129.807053 93.294701,129.210770 
z"/>
<path fill="#AE0D23" opacity="1.000000" stroke="none" 
	d="
M90.173264,126.821457 
	C92.798775,126.478828 95.905655,126.217148 99.203568,126.297256 
	C96.481277,126.726830 93.567947,126.814613 90.173264,126.821457 
z"/>
<path fill="#AE0D23" opacity="1.000000" stroke="none" 
	d="
M91.015427,137.456512 
	C93.308968,137.328461 95.660927,137.575485 98.414566,137.768982 
	C96.705849,140.959381 94.302711,140.995422 91.015427,137.456512 
z"/>
<path fill="#AE0D23" opacity="1.000000" stroke="none" 
	d="
M99.710709,136.015778 
	C99.367561,135.303284 99.308266,134.494476 99.334015,133.285431 
	C99.610893,133.896637 99.802719,134.908051 99.710709,136.015778 
z"/>
<path fill="#AE0D23" opacity="1.000000" stroke="none" 
	d="
M92.940918,129.173981 
	C92.755272,129.807053 92.215836,130.403336 91.357719,131.032761 
	C91.555069,130.423004 92.071106,129.780090 92.940918,129.173981 
z"/>
<path fill="#2F0309" opacity="1.000000" stroke="none" 
	d="
M168.607971,132.332245 
	C168.538010,130.757568 168.228149,128.941010 168.937302,128.352646 
	C170.261246,127.254189 172.329865,126.121284 173.798874,126.421310 
	C174.998016,126.666229 176.817841,129.323257 176.496613,130.292252 
	C176.006622,131.770309 174.054504,133.069962 172.431854,133.744934 
	C171.537827,134.116837 170.048737,133.058289 168.607971,132.332245 
z"/>
</svg>
