<svg width="24" height="24" viewBox="0 0 24 24" fill="none" xmlns="http://www.w3.org/2000/svg">
<path fill-rule="evenodd" clip-rule="evenodd" d="M12 0C18.6264 0 24 5.3736 24 12C24 18.6264 18.6264 24 12 24C5.3736 24 0 18.6264 0 12C0 5.3736 5.3736 0 12 0Z" fill="#15181E"/>
<path fill-rule="evenodd" clip-rule="evenodd" d="M13.7547 10.56V13.44H11.0451V10.56H13.7547ZM13.7547 10.56V4.8H10.9057C9.87651 4.8 9.03141 4.97691 8.3704 5.33074C7.70101 5.68457 7.20734 6.18651 6.88939 6.83657C6.56306 7.4784 6.3999 8.24366 6.3999 9.13234C6.3999 10.0128 6.56306 10.7781 6.88939 11.4281C7.20734 12.0699 7.70101 12.5678 8.3704 12.9216C9.03141 13.2672 9.87651 13.44 10.9057 13.44H11.0451V19.2H13.8941C14.9233 19.2 15.7684 19.0272 16.4294 18.6816C17.0988 18.3278 17.5925 17.8299 17.9104 17.1881C18.2367 16.5381 18.3999 15.7728 18.3999 14.8923C18.3999 14.0037 18.2367 13.2384 17.9104 12.5966C17.5925 11.9465 17.0988 11.4446 16.4294 11.0907C15.7684 10.7369 14.9233 10.56 13.8941 10.56H13.7547Z" fill="white"/>
</svg>
