<svg id="Layer_1" data-name="Layer 1" xmlns="http://www.w3.org/2000/svg" viewBox="0 0 344 404.84"><defs><style>.cls-1{fill:#fff;}</style></defs><title>forth_logo</title><g id="_9LiF6z.tif" data-name="9LiF6z.tif"><path class="cls-1" d="M74.77,45.4h344V450.24h-344ZM252.15,397.15l.51-3.34c-5-1.32-9.9-2.91-14.94-3.9-18.53-3.62-26-11-29.05-29.7a108.48,108.48,0,0,1-1.38-17.36q-.14-93,0-186.1a111.57,111.57,0,0,1,1.89-19.63c3.09-17.05,8.19-21.5,25.86-21.87,19-.4,37.95-.28,56.93-.13,35.06.29,50.71,12,61.5,45.22,1.29,4,3.77,7.57,5.7,11.34l3.44-.78c.2-3.55.84-7.14.52-10.65-1.4-15.82-3.47-31.6-4.53-47.45-.7-10.5-6-13.88-15.8-13.86-70.49.15-141,0-211.48.17-3.67,0-7.34,1.34-11,2.06a13.71,13.71,0,0,0,9,4.74c24.3,3.52,31.82,11.56,33.61,36.26.28,3.86.27,7.75.27,11.63q0,94.22,0,188.43a120.44,120.44,0,0,1-.82,16.24c-2.83,20.5-9.6,27.39-29.72,31.5-4.36.89-8.51,2.78-12.75,4.22l.87,3Z" transform="translate(-74.77 -45.4)"/><path d="M252.15,397.15H120.73l-.87-3c4.24-1.44,8.39-3.33,12.75-4.22,20.12-4.11,26.89-11,29.72-31.5a120.44,120.44,0,0,0,.82-16.24q.07-94.21,0-188.43c0-3.88,0-7.77-.27-11.63-1.79-24.7-9.31-32.74-33.61-36.26a13.71,13.71,0,0,1-9-4.74c3.68-.72,7.35-2,11-2.06,70.5-.12,141,0,211.48-.17,9.81,0,15.1,3.36,15.8,13.86,1.06,15.85,3.13,31.63,4.53,47.45.32,3.51-.32,7.1-.52,10.65l-3.44.78c-1.93-3.77-4.41-7.36-5.7-11.34-10.79-33.25-26.44-44.93-61.5-45.22-19-.15-38-.27-56.93.13-17.67.37-22.77,4.82-25.86,21.87a111.57,111.57,0,0,0-1.89,19.63q-.21,93,0,186.1a108.48,108.48,0,0,0,1.38,17.36c3.08,18.74,10.52,26.08,29.05,29.7,5,1,10,2.58,14.94,3.9Z" transform="translate(-74.77 -45.4)"/></g></svg>