<?xml version="1.0" encoding="UTF-8" standalone="no"?>
<svg
   xmlns:dc="http://purl.org/dc/elements/1.1/"
   xmlns:cc="http://creativecommons.org/ns#"
   xmlns:rdf="http://www.w3.org/1999/02/22-rdf-syntax-ns#"
   xmlns:svg="http://www.w3.org/2000/svg"
   xmlns="http://www.w3.org/2000/svg"
   xmlns:sodipodi="http://sodipodi.sourceforge.net/DTD/sodipodi-0.dtd"
   xmlns:inkscape="http://www.inkscape.org/namespaces/inkscape"
   id="Flux_symbol_blue-white"
   width="256"
   height="256"
   viewBox="0 0 256 255.99999"
   version="1.1"
   sodipodi:docname="logo.svg"
   inkscape:version="0.92.5 (2060ec1f9f, 2020-04-08)">
  <metadata
     id="metadata901">
    <rdf:RDF>
      <cc:Work
         rdf:about="">
        <dc:format>image/svg+xml</dc:format>
        <dc:type
           rdf:resource="http://purl.org/dc/dcmitype/StillImage" />
        <dc:title></dc:title>
      </cc:Work>
    </rdf:RDF>
  </metadata>
  <defs
     id="defs899" />
  <sodipodi:namedview
     pagecolor="#ffffff"
     bordercolor="#666666"
     borderopacity="1"
     objecttolerance="10"
     gridtolerance="10"
     guidetolerance="10"
     inkscape:pageopacity="0"
     inkscape:pageshadow="2"
     inkscape:window-width="3368"
     inkscape:window-height="1376"
     id="namedview897"
     showgrid="false"
     fit-margin-top="0"
     fit-margin-left="0"
     fit-margin-right="0"
     fit-margin-bottom="0"
     inkscape:zoom="3.569077"
     inkscape:cx="128"
     inkscape:cy="128.00049"
     inkscape:window-x="72"
     inkscape:window-y="27"
     inkscape:window-maximized="1"
     inkscape:current-layer="Flux_symbol_blue-white" />
  <circle
     id="Ellipse_64"
     data-name="Ellipse 64"
     cx="128"
     cy="128"
     style="fill:#2b61d1;stroke-width:0.75995773"
     r="128" />
  <g
     id="Group_179"
     data-name="Group 179"
     transform="matrix(0.762672,0,0,0.762672,57.841041,47.080505)">
    <path
       id="Path_73"
       data-name="Path 73"
       d="m 144.555,190.421 -19.224,11.107 -41.3,-23.841 18.756,-10.832 0.469,-0.276 0.717,0.413 z"
       transform="translate(-32.311,13.286)"
       inkscape:connector-curvature="0"
       style="fill:#ffffff" />
    <path
       id="Path_74"
       data-name="Path 74"
       d="m 232.54,89.764 v 22.352 l -40.653,-23.469 -11.025,-6.367 -11.025,6.367 -51.677,29.836 -11.025,6.367 v 13.16 L 87.25,126.531 76.225,120.164 65.2,126.531 46.5,137.321 V 89.764 l 93.02,-53.7 z"
       transform="translate(-46.5,-36.06)"
       inkscape:connector-curvature="0"
       style="fill:#ffffff" />
    <path
       id="Path_75"
       data-name="Path 75"
       d="m 209.856,117.919 v 59.671 l -51.678,29.835 -0.069,-0.041 L 106.5,177.59 V 117.919 L 158.178,88.07 Z"
       transform="translate(-23.815,-16.396)"
       inkscape:connector-curvature="0"
       style="fill:#ffffff" />
    <path
       id="Path_76"
       data-name="Path 76"
       d="m 105.95,132.727 v 34.314 L 76.225,184.212 46.5,167.041 V 132.727 L 76.225,115.57 Z"
       transform="translate(-46.5,-5.999)"
       inkscape:connector-curvature="0"
       style="fill:#ffffff" />
  </g>
</svg>
