<?xml version="1.0" encoding="UTF-8"?>
<svg id="Layer_1" data-name="Layer 1" xmlns="http://www.w3.org/2000/svg" viewBox="0 0 592.96 715.71">
  <defs>
    <style>
      .cls-1 {
        fill: #ff4e17;
      }
    </style>
  </defs>
  <path class="cls-1" d="M428.43,318.8c8.1-16.4,13.75-36.97,13.75-62.57,0-35.12-14.04-66.91-39.54-89.52-25.16-22.31-59.2-34.1-98.44-34.1l-135.22-.63c-26.1,0-47.26,21.16-47.26,47.26v400.77h236.55c88.33,0,139.96-73.68,139.96-140.14,0-50.49-28.03-96.69-69.79-121.07Zm-124.24-151.63c63.48,0,103.43,38.05,103.43,89.06,0,68.46-51.59,99.77-103.79,99.77-49.04,0-89.43-40.39-89.43-102.99v-34.56c0-22.69-13.57-43.06-34.57-49.77v-1.51h124.35Z"/>
</svg>