<svg width="256" height="256" viewBox="0 0 64 64" fill="none" xmlns="http://www.w3.org/2000/svg">
<g clip-path="url(#clip0_24755_43726)">
<rect width="64" height="64" rx="32" fill="white"/>
<path fill-rule="evenodd" clip-rule="evenodd" d="M32 64C49.6731 64 64 49.6731 64 32C64 14.3269 49.6731 0 32 0C14.3269 0 0 14.3269 0 32C0 49.6731 14.3269 64 32 64ZM18 27.9999C18 34.6199 23.3867 39.9999 30 39.9999C36.6133 39.9999 42 34.6199 42 27.9999C42 21.3799 36.6133 15.9999 30 15.9999C23.3867 15.9999 18 21.3799 18 27.9999ZM22 27.9999C22 23.5866 25.5867 19.9999 30 19.9999C34.4133 19.9999 38 23.5866 38 27.9999C38 32.4133 34.4133 35.9999 30 35.9999C25.5867 35.9999 22 32.4133 22 27.9999ZM41.4133 43.4133L33.4133 51.4133C33.0267 51.8066 32.5133 51.9999 32 51.9999C31.4867 51.9999 30.98 51.8066 30.5867 51.4133C29.8067 50.6333 29.8067 49.3666 30.5867 48.5866L38.5867 40.5866C39.3667 39.8066 40.6333 39.8066 41.4133 40.5866C42.1933 41.3666 42.1933 42.6333 41.4133 43.4133ZM41.6 17.9999C41.6 16.6799 42.68 15.5999 44 15.5999C45.32 15.5999 46.4 16.6799 46.4 17.9999C46.4 19.3199 45.32 20.3999 44 20.3999C42.68 20.3999 41.6 19.3199 41.6 17.9999Z" fill="#6F4CFF"/>
</g>
<defs>
<clipPath id="clip0_24755_43726">
<rect width="64" height="64" rx="32" fill="white"/>
</clipPath>
</defs>
</svg>