<svg width="256" height="256" viewBox="0 0 256 256" fill="none" xmlns="http://www.w3.org/2000/svg">
<g clip-path="url(#clip0_818_104187)">
<path d="M256 128C256 198.656 198.656 256 128 256C57.344 256 0 198.656 0 128C0 57.344 57.344 0 128 0C198.656 0 256 57.344 256 128Z" fill="url(#paint0_linear_818_104187)"/>
<path d="M175.787 79.4453H134.4V93.8666C130.219 85.3333 121.429 79.5306 111.275 79.5306H54.4427V176.555H72.6187V97.7066H112.384C115.968 97.7066 118.869 100.608 118.869 104.192V176.555H137.045V105.301C137.045 102.656 136.619 100.096 135.936 97.7066H176.896C180.48 97.7066 183.381 100.608 183.381 104.192V176.555H201.557V105.301C201.557 91.0506 190.037 79.4453 175.787 79.4453Z" fill="white"/>
</g>
<defs>
<linearGradient id="paint0_linear_818_104187" x1="37.4903" y1="37.4903" x2="218.51" y2="218.51" gradientUnits="userSpaceOnUse">
<stop stop-color="#4BD5D8"/>
<stop offset="1" stop-color="#3C4257"/>
</linearGradient>
<clipPath id="clip0_818_104187">
<rect width="256" height="256" fill="white"/>
</clipPath>
</defs>
</svg>
