<svg xmlns="http://www.w3.org/2000/svg" viewBox="0 0 134.43 134.43"><defs><style>.cls-1{fill:#fff;}.cls-2,.cls-3{fill-rule:evenodd;}.cls-3{fill:#fd3;}</style></defs><g id="Layer_2" data-name="Layer 2"><g id="Layer_1-2" data-name="Layer 1"><circle class="cls-1" cx="67.21" cy="67.21" r="67.21"/><path class="cls-2" d="M109.47,56.24a7.59,7.59,0,0,0-6.08,4.67A7.3,7.3,0,0,0,103,65l-9.9,2.77.49,1.71,9.93-2.78a7.53,7.53,0,1,0,6-10.49Z"/><path class="cls-2" d="M109.12,76.27a6.54,6.54,0,0,0-6.85,4.11L94,79.08l-.27,1.76,8.11,1.28A6,6,0,0,0,103.64,87a6.42,6.42,0,0,0,4.45,2.24,6.51,6.51,0,0,0,1-13Z"/><path class="cls-2" d="M100.1,92.4A5.46,5.46,0,0,0,96,96.48,5.56,5.56,0,0,0,96.3,100l-4.78,3.9a6.48,6.48,0,0,0-5.16-2.63L84,92.38l-1.72.46,2.31,8.69a6.51,6.51,0,0,0-4.7,5l-6.16-.24A11.55,11.55,0,0,0,66,95.93l3-5.51-1.58-.84-3.16,5.89a11.18,11.18,0,0,0-6.25.64,11.52,11.52,0,1,0,15.68,12l6.12.24a6.52,6.52,0,1,0,12.61-2.83l4.89-4a5.52,5.52,0,1,0,2.82-9.13Z"/><path class="cls-2" d="M48.57,87.72a6.59,6.59,0,0,0,4.15.35,6.51,6.51,0,0,0,1-12.31l.66-8.58c.25,0,.51,0,.77,0A8.5,8.5,0,0,0,61.88,64l6.44,4,.94-1.52-6.43-4a8.42,8.42,0,0,0,.88-3.75,8.53,8.53,0,0,0-6.9-8.36L60,41.86a13,13,0,0,0,10.76-2.47l4.82,3A8.52,8.52,0,0,0,80.39,56l-1,8.5,1.77.2,1-8.49h.1A8.53,8.53,0,0,0,86,40l1.85-5.34a6.57,6.57,0,0,0,5.87-.47l4.39,3.77a8.45,8.45,0,1,0,1.59-1L95.1,33a6.48,6.48,0,0,0,1.71-4.76,6.52,6.52,0,0,0-12.55-2.13l-8.83.16a13,13,0,1,0-17.4,15l-3.31,8.89a8.54,8.54,0,0,0-8.08,8.51,7.94,7.94,0,0,0,0,.85L39.6,61.87a13,13,0,0,0-10-4.68h-.26L28.77,52a6.51,6.51,0,0,0,4.76-5.45l4.13-.09a5.52,5.52,0,1,0,5.82-6.26L43,35.79a5.53,5.53,0,1,0-2,.33l.46,4.26a5.53,5.53,0,0,0-3.74,4l-4.27.09a6.52,6.52,0,1,0-6.71,7.67l.56,5.21a13,13,0,1,0,13.48,6.2l6.3-2.08a8.58,8.58,0,0,0,5.31,5.26l-.66,8.5c-1.78-.16-3.74.29-6.08,3.37a5,5,0,0,0-1,2.71A6.49,6.49,0,0,0,47,86.76l-3.71,3.5a9,9,0,1,0,1.27,1.25Zm35.24-59.8c0,.22,0,.45,0,.69a6.5,6.5,0,0,0,2.49,5.11l-2,5.66a8.5,8.5,0,0,0-7.5,1.73l-4.71-3a13,13,0,0,0,3.65-9c0-.36,0-.7,0-1.05Z"/><path class="cls-3" d="M79.76,60.2a18.05,18.05,0,1,1-18.06,18,18.06,18.06,0,0,1,18.06-18Z"/></g></g></svg>