<?xml version="1.0" encoding="UTF-8"?>
<svg id="Layer_1" data-name="Layer 1" xmlns="http://www.w3.org/2000/svg" viewBox="0 0 200 200">
  <defs>
    <style>
      .cls-1 {
        fill: #fccd3c;
      }

      .cls-2 {
        fill: #db2200;
      }

      .cls-3 {
        fill: #718b3f;
      }

      .cls-4 {
        fill: #f02601;
      }

      .cls-5 {
        fill: #1c1417;
      }

      .cls-6 {
        fill: #ba1d00;
      }

      .cls-7 {
        fill: #a2544e;
      }

      .cls-8 {
        fill: #9c2c18;
      }

      .cls-9 {
        fill: #de2200;
      }

      .cls-10 {
        fill: #fdfef9;
      }

      .cls-11 {
        fill: #ea2500;
      }

      .cls-12 {
        fill: #941a03;
      }

      .cls-13 {
        fill: #fdfdf8;
      }

      .cls-14 {
        fill: #5e502a;
      }

      .cls-15 {
        fill: #8b1500;
      }

      .cls-16 {
        fill: #e72400;
      }

      .cls-17 {
        fill: #d22000;
      }

      .cls-18 {
        fill: #c66760;
      }

      .cls-19 {
        fill: #bf1e00;
      }
    </style>
  </defs>
  <rect class="cls-1" x=".07" y="-.13" width="200" height="200"/>
  <g>
    <path class="cls-14" d="M131.3,28.62h0c2.64-.07,5.23-.08,7.76.59,2.84.75,5.48,1.97,8.01,3.45.93.54,1.92,1,2.58,1.9.55.76.63,1.64-.57,1.97-1,.27-2.02.42-3.04.6-2.12.38-3.81,1.53-5.34,2.97-1.5,1.41-2.74,3.04-3.81,4.79-.19.31-.44.57-.69.9-.58.94-1.16,1.82-1.54,2.84-1.01,2.05-2,4.08-2.93,6.13-1.01,2.23-2.07,4.42-3.45,6.45-.07.1-.1.22-.15.38-.37.5-.77.93-1.11,1.47-2.39,3.04-5.17,5.56-8.48,7.48-3.12,1.81-6.49,2.85-10.06,3.3-1.16.15-2.33.09-3.49.26-.85.13-1.69-.12-2.6-.12-.22,0-.38,0-.6.01-.62.01-1.17,0-1.79,0-.57.02-1.07,0-1.63,0-.22,0-.37-.02-.58.05-.62.17-1.17.27-1.7-.21-.06-.07-.09-.1-.15-.17-.05-.08-.06-.11-.1-.2-.16-.89.13-1.64.55-2.33.75-1.22,1.58-2.38,2.76-3.24.32-.23.51-.59.87-.84,1.62-.85,2.03-2.48,2.63-3.93.95-2.34,1.53-4.79,1.35-7.35-.11-1.56-.38-3.1-.68-4.64-.3-1.53-.47-3.09-.66-4.65-.27-2.21-.06-4.35.5-6.46,1.16-4.36,3.7-7.79,7.43-10.28,1.41-.94,3.02-1.66,4.79-1.72,1.05-.04,1.57.68,1.3,1.7-.2.75-.58,1.42-1,2.07-1.4,2.14-2.23,4.49-2.6,7.01-.01.07.02.14.05.33.6-.87,1.13-1.67,1.7-2.45,1.55-2.13,3.57-3.71,5.84-5.01,2.42-1.38,5.04-2.14,7.73-2.74.39-.09.82-.02,1.27-.19"/>
    <path class="cls-7" d="M99.13,68.59c-.16.43-.47.68-.78.94-.92.79-1.66,1.73-2.14,2.85-.14.32-.2.66-.17,1.06-.5.15-.92-.06-1.23-.58.14-1.37.49-2.67.73-3.97.25-1.35.51-2.69.52-4.08.02-1.94-.07-3.88-.14-5.81-.07-1.99-.21-3.99-.44-5.97-.25-2.07-.52-4.15-.9-6.21-.27-1.46-.49-2.95-.73-4.43-.4-2.4-.92-4.77-1.74-7.07-.39-1.09-.85-2.15-1.45-3.14-.25-.41-.75-.47-1.49-.37-2.26.3-4.34,1.17-6.43,2-.73.29-1.53.4-2.19-.22-.46-.43-.72-2.17-.46-2.74.14-.3.37-.42.66-.51,1.8-.52,3.61-.98,5.38-1.62,2.44-.89,4.77-1.97,7-3.29,1.02-.61,2.05-1.2,3.08-1.8.16-.09.32-.16.5-.21.95-.32,1.26-.18,1.54.75.23.77.41,1.55.85,2.26.15.25.4.4.51.7.15.42.05.66-.35.8-1.49.55-2.97,1.11-4.46,1.65-.4.14-.54.26-.28.71,1.69,2.99,2.69,6.24,3.48,9.55.46,1.91.81,3.84,1.06,5.79.24,1.89.43,3.78.55,5.68.15,2.44.28,4.89.18,7.33-.07,1.82-.08,3.64-.21,5.46-.11,1.48-.28,2.95-.42,4.48h0Z"/>
    <path class="cls-6" d="M142.42,66.97c1.61.84,3.18,1.72,4.7,2.71,2.4,1.57,4.68,3.29,6.76,5.25,1.92,1.81,3.64,3.83,5.27,5.91,1.66,2.12,3,4.44,4.27,6.81.7,1.31,1.26,2.7,1.82,4.07.6,1.46,1.08,2.96,1.51,4.48.33,1.19.64,2.39.85,3.67.26.47.24.94.35,1.45.27,1.36.37,2.68.56,4.05.02.39.08.71,0,1.1.1,1.26.11,2.47.11,3.68,0,3.02-.23,6.02-.72,9-.36,2.22-.84,4.4-1.41,6.58-.91,3.44-2.21,6.71-3.66,9.94-.86,1.92-1.86,3.78-2.91,5.6-.87,1.51-1.84,2.97-2.85,4.41-1.14,1.63-2.33,3.21-3.54,4.78-.69.9-1.46,1.74-2.25,2.55-1.56,1.61-3.16,3.18-4.75,4.76-.36.36-4,3.23-4.4,3.61-.78-.33-.98-1.05-1.16-1.83.1-.35,3.55-3.11,3.77-3.31,5.31-4.74,9.74-10.21,13.3-16.37,4.02-6.95,6.68-14.38,7.77-22.35.26-1.9.37-3.82.44-5.74.25-6.86-.9-13.47-3.45-19.84-1.8-4.49-4.35-8.53-7.53-12.19-4.04-4.64-8.9-8.2-14.35-11-.42-.22-.94-.31-1.17-.86.38-.51.85-.24,1.27-.21.6.05,1.17.09,1.38-.73h0s0,0,0,0Z"/>
    <path class="cls-19" d="M31.59,112.14c.03-.22.03-.37.04-.58.13-.31.05-.58.03-.88-.04-.11-.04-.17-.04-.29.1-.16.07-.36.3-.43.45.02.53.35.64.63.41.95.64,1.96,1.24,2.89.16,1.11.01,2.18.22,3.29.15,4.1.9,8.04,2.01,11.91.72,2.53,1.65,4.99,2.68,7.48,2.4,5.39,5.42,10.35,9.11,14.89,3.5,4.31,7.47,8.13,11.98,11.38.2.14.4.27.65.43,1.83,1.39,3.78,2.46,5.72,3.59,1.6.92,3.27,1.72,4.95,2.46.18.08,3.31,1.18,3.45,1.4.04.78-.02,1.48-.62,2.05-2.19-.85-7.17-2.92-9.19-4.03-1.15-.63-2.22-1.39-3.43-2-1.47-.64-2.65-1.63-3.85-2.57-2.33-1.84-4.65-3.7-6.74-5.88-.18-.18-.31-.33-.5-.51-1.69-1.6-3.11-3.38-4.59-5.18-.08-.09-.12-.14-.2-.22s-.12-.14-.19-.23c-.6-.76-1.23-1.43-1.74-2.25-.05-.06-.06-.09-.11-.15-.07-.11-.12-.18-.21-.28-.05-.05-.07-.07-.12-.12-.09-.1-.15-.17-.25-.27-.83-1.31-1.62-2.59-2.43-3.87-1.17-1.85-2.08-3.85-3.21-5.78-.06-.17-.11-.3-.22-.45-.04-.07-.05-.11-.09-.19-.31-1.11-.8-2.09-1.29-3.12-.71-1.78-1.26-3.56-1.85-5.39,0-.46-.08-.85-.25-1.28-.57-1.94-.94-3.87-1.31-5.86,0-.44-.14-.81-.13-1.26-.14-1.42-.29-2.78-.44-4.2-.47-1.19-.12-2.35-.12-3.5,0-.53.02-1.06.08-1.65h0Z"/>
    <path class="cls-6" d="M94.29,72.58c.4.58,1,.72,1.61.92.05,0,.06,0,.06,0,.03.03.07.06.12.13.46.49.99.41,1.58.3.21.01.36,0,.55.07,2.75,1.39,5.36,2.9,7.87,4.59,1.15.78,2.28,1.59,3.43,2.37.14.1.28.2.41.31.57.49.71,1.06.39,1.54-.35.52-.94.6-1.62.22-1.1-.63-2.13-1.37-3.18-2.07-2.45-1.64-5-3.12-7.66-4.41-.06-.03-.13-.08-.2-.1-2.22-.41-4.03-1.9-6.26-2.34-2.2-.44-4.38-.92-6.61-1.18-2.74-.33-5.5-.38-8.24-.24-5.87.3-11.62,1.27-17.1,3.49-4.69,1.9-8.97,4.47-12.67,7.95-.25.23-.56.39-.8.72-.61.46-1.04,1.05-1.68,1.48-.78.19-1.49.39-2.22.56-.35.08-.77.16-.68-.51.61-.7,1.19-1.34,1.79-2.04.04-.07.06-.1.11-.16.03-.04.03-.02.02-.03.3-.33.48-.78.99-.97.84-.66,1.52-1.42,2.31-2.04,1.07-.84,2.11-1.71,3.25-2.46s2.3-1.46,3.48-2.16c1.63-.97,3.36-1.72,5.11-2.45,1.93-.81,3.92-1.44,5.94-1.96,1.8-.47,3.65-.8,5.49-1.09,2.43-.38,4.87-.62,7.34-.63.89,0,1.79-.17,2.67-.1,2.28.18,4.56.21,6.83.53,2.57.37,5.07.96,7.58,1.76h0,0Z"/>
    <path class="cls-6" d="M142.26,161.32c-1.27.82-5.91,4.2-7.15,4.98-2.79,1.75-5.73,3.19-8.74,4.5-3.87,1.69-7.86,2.97-11.97,3.92-2.36.55-4.74.94-7.14,1.27-2.46.34-4.93.5-7.41.61-1.38.06-2.77.16-4.14.07-2.28-.15-4.56-.19-6.84-.51-3.02-.43-6-.96-8.94-1.75-.41-.11-5.59-1.89-6.04-2.06-.45-.81-.03-1.45.42-2.13.38-.14,5.43,1.73,5.73,1.81,3.88,1.08,7.84,1.76,11.85,2.11,2.89.25,5.79.28,8.69.14,9.17-.45,17.98-2.48,26.35-6.29,3.8-1.73,10.83-6.4,14.3-8.82.69.27,1.18,1.29,1.04,2.14h0Z"/>
    <path class="cls-17" d="M41.37,86.35c.04.42.25.51.64.38.72-.23,1.45-.47,2.28-.52.04.63-.54.89-.85,1.32-.3.43-.67.83-1.03,1.28-4.61,6.02-7.25,12.77-8.17,20.29-.08,1.13-.24,2.2-.2,3.28.01.35.06.73-.3,1.02-.58-.42-.69-1.05-.93-1.61-.24-.59-.31-1.25-.84-1.74-.24-.18-.18-.43-.21-.7,0-.26,0-.46.02-.71.2-.25.14-.48.12-.75,0-.11,0-.17.02-.28.11-.14.15-.26.12-.45,0-.11,0-.17.02-.28.16-.19.15-.37.12-.6,0-.11,0-.17.02-.28.32-.97.43-1.94.71-2.93,0-.12,0-.18.02-.29.05-.08.07-.12.12-.19.02-.09.02-.15.03-.26.04-.08.07-.11.12-.18,0-.97.56-1.75.81-2.61.12-.41.25-.82.38-1.29.03-.08.06-.11.11-.17.03-.04.03-.03.02-.02.13-.1.07-.25.12-.42.02-.05.02-.11.04-.14.04-.06.07-.1.12-.17.02-.03.02-.09.03-.12.45-.79.71-1.62,1.08-2.42.48-1.06,1.1-2.05,1.66-3.13.02-.05.02-.04.02-.04.14-.09.2-.23.28-.42.02-.04.02-.1.03-.13.03-.05.06-.08.11-.15.03-.04.02-.03.02-.03.35-.5.74-.97,1.01-1.58.69-1.07,1.35-2.1,2.32-2.95h0s0-.01,0-.01Z"/>
    <path class="cls-12" d="M142.41,66.9c.02,1.03.02,1-.95,1.04-.53.02-1.03-.31-1.6-.05-.2.21-.4.22-.67.16-.32-.24-.72-.34-.73-.83.55-.39,1.17-.09,1.74-.3-.1-.25-.33-.28-.51-.38-2.1-1.11-4.3-1.91-6.6-2.48-1.25-.31-2.5-.62-3.75-.94-.56-.15-1.1-.39-1.67.01-.21.15-.47.03-.71-.15.25-.54.51-1.07,1.1-1.36,1.08.47,2.19.62,3.28.88,3.45.84,6.82,1.92,9.95,3.65.37.21.72.47,1.12.73h0Z"/>
    <path class="cls-4" d="M37.56,91.62c.11.29-.05.54-.2.79-.86,1.46-1.57,2.98-2.23,4.54-.04.08-.11.14-.22.22.55-1.97,1.36-3.86,2.66-5.54h0Z"/>
    <path class="cls-4" d="M32.87,103.04c.3.35.02.69-.07,1.04-.16.62-.12,1.28-.53,1.86-.08-1,.3-1.91.59-2.89h0,0Z"/>
    <path class="cls-4" d="M39.02,89.27c.07.7-.52,1.09-.94,1.6.09-.63.54-1.07.94-1.6Z"/>
    <path class="cls-4" d="M31.7,109.34c.3.12.2.37.22.65-.07.14-.14.22-.25.33-.03-.3-.02-.62.03-.98Z"/>
    <path class="cls-4" d="M31.84,107.87c.28.21.31.45-.01.7-.05-.22-.04-.44.01-.7Z"/>
    <path class="cls-4" d="M32.14,106.26c.27.16.31.36-.01.56-.04-.17-.04-.35.01-.56Z"/>
    <path class="cls-4" d="M31.63,110.69c.25.18.15.46.05.77-.05-.21-.05-.46-.05-.77Z"/>
    <path class="cls-10" d="M135.05,51.22c.08-.13.15-.3.32-.22.1.05.09.16.02.24-.09.11-.2.22-.35-.02Z"/>
    <path class="cls-4" d="M31.99,107.13c.25.12.28.27-.02.42-.04-.12-.03-.26.02-.42Z"/>
    <path class="cls-4" d="M37.86,91.17c.05.16.09.36-.21.43-.05-.17.04-.3.21-.43Z"/>
    <path class="cls-4" d="M34.64,97.61c.02.11,0,.24-.07.41-.02-.11,0-.24.07-.41Z"/>
    <path class="cls-4" d="M33.04,102.57s0,.07-.06.14c-.01-.03,0-.07.06-.14Z"/>
    <path class="cls-4" d="M33.19,102.14s0,.07-.06.14c-.01-.03,0-.07.06-.14Z"/>
    <path class="cls-4" d="M43.28,84.16s.01.08-.05.12c-.01-.03,0-.07.05-.12Z"/>
    <path class="cls-4" d="M38.01,90.88s.01.08-.06.13c-.01-.03,0-.07.06-.13Z"/>
    <path class="cls-4" d="M34.8,97.31s0,.07-.06.14c-.01-.02,0-.07.06-.14Z"/>
    <path class="cls-4" d="M34.5,98.05s0,.08-.06.13c-.01-.03,0-.07.06-.13Z"/>
    <path class="cls-17" d="M139.05,67.89c.25.04.45.04.71.04,1.65.93,3.32,1.72,4.89,2.7,2.29,1.43,4.47,2.98,6.51,4.76,3.35,2.9,6.18,6.24,8.52,9.99,2.78,4.46,4.65,9.28,5.72,14.41.63,2.99.95,6.01,1.06,9.07.15,4.24-.31,8.4-1.11,12.54-.66,3.39-1.67,6.69-2.93,9.9-1.36,3.46-3.03,6.79-4.97,9.98-2.02,3.32-4.32,6.45-6.88,9.37-1.75,1.99-3.57,3.91-5.6,5.63-.22.19-.4.42-.63.68-.2-.09-4.01,3.07-6,4.83-1.19.82-2.41,1.5-3.47,2.16-4.98,3.08-10.24,5.55-15.85,7.28-3.38,1.05-6.81,1.88-10.31,2.41-2.37.36-4.74.59-7.14.76-2.53.18-5.06.19-7.58.07-5.02-.23-9.95-1.06-14.84-2.46-2.53-.94-5.05-1.88-7.58-2.82-3.86-1.52-7.4-3.61-10.85-5.89-.1-.06-.17-.17-.28-.3.09-.17.23-.17.38-.16,3.63.15,6.45-1.31,8.28-4.44,1.36-2.32,1.48-4.85.74-7.42-.7-2.47-2.2-4.49-3.78-6.44-1.26-1.55-2.47-3.14-3.41-4.91-.26-.48-.48-.97-.15-1.52.11-.18.11-.36-.14-.47-1.34-.58-1.87-1.76-2.25-3.06-.53-1.85-1.16-3.67-2.08-5.37-1.46-2.67-3.54-4.7-6.52-5.49-6.43-1.73-11.66,2.39-12.67,7.81-.24,1.28-.21,2.56-.02,3.85.05.32.24.67-.12.96-1.29-2.57-2.17-5.26-2.97-7.98-.73-2.49-1.24-5.02-1.58-7.59-.17-1.24-.36-2.49-.33-3.82.57-.27.76.24,1.06.51,2.09,1.86,4.53,2.74,7.31,2.56,3.13-.2,5.6-1.72,7.53-4.12,1.78-2.22,2.98-4.71,3.53-7.53.44-2.3,1.32-4.48,2.13-6.67,1.17-3.15,1.24-6.33.01-9.49-.29-.74-.26-1.4.08-2.11.32-.64.77-1.18,1.18-1.75,1.75-2.46,3.91-4.45,6.51-5.98,1.29-.76,2.72-1.17,4.11-1.71,1.43-.56,2.91-.83,4.45-1.03,2.11-.28,4.17-1.02,6.02-2.14,1.01-.6,1.41-1.77,1.08-2.78-.31-.96-1.32-1.61-2.52-1.45-1.38.18-2.76.26-4.13.46-.63.09-1.27.24-1.81.57-2.46,1.49-5.27,1.99-7.95,2.87-2.29.75-4.51,1.69-6.58,2.93-.46.28-.92.55-1.44.69-2.27.59-4.28,1.74-6.2,3.04-.48.33-.97.65-1.48.94-.25.15-.5.32-.86.16.33-.81,1.06-1.25,1.66-1.77,2.76-2.36,5.78-4.33,9.06-5.92,3.67-1.78,7.52-3.01,11.52-3.74,2.4-.44,4.82-.74,7.27-.92,2.19-.16,4.38-.18,6.56-.08,3.95.19,7.85.77,11.6,2.1.79.28,1.66.36,2.17,1.17.12.2.37.23.59.2.64-.08,1.18.17,1.74.44,3.5,1.67,6.74,3.77,9.93,5.94.34.23.7.44,1.05.65.44.26.83.1,1.11-.23.3-.36.27-.76-.07-1.12-.58-.6-1.32-.98-1.99-1.45-3.03-2.16-6.16-4.17-9.51-5.79-.13-.06-.23-.17-.37-.3-.07-.1-.09-.15-.03-.24.57-.03,1.1-.04,1.69-.04.17.07.27.15.39.16,2.85.47,5.56,1.44,8.26,2.42,2.59.93,5.26,1.47,8.02,1.25,2.53-.2,4.82-1.13,6.92-2.54,1.56-1.04,3.02-2.22,4.55-3.3,4.7-3.32,7.31-3.68,8.52-3.83,1.09-.14,1.99-.12,2.56-.09h0Z"/>
    <path class="cls-3" d="M128.57,58.28c-1.66,3.01-3.72,5.66-6.25,7.9-3.6,3.2-7.76,5.28-12.52,6.15-2.95.53-5.9.41-8.87.43-1.05,0-2.08,0-3.13.13-.69.08-.81-.12-.48-.73.71-1.35,1.7-2.48,2.85-3.47,1.4-1.2,2.91-2.28,4.23-3.57,1.76-1.72,2.86-3.85,3.72-6.12,1.08-2.85,1.5-5.87,2.17-8.82,1.08-4.82,2.86-9.35,5.97-13.24,1.84-2.29,4.21-3.95,6.92-5.11,1.52-.65,3.09-1.17,4.71-1.51,5.24-1.1,10.33-.67,15.19,1.67,1.75.84,3.5,1.7,5.06,2.88.15.11.4.2.35.41-.05.23-.32.17-.5.22-1.46.43-3.01.47-4.44,1.07-1.05.44-2.01,1.03-2.83,1.76-1.72,1.54-3.33,3.21-4.53,5.21-1.91,3.18-3.75,6.41-5.21,9.83-.7,1.65-1.45,3.29-2.41,4.89h0,0Z"/>
    <path class="cls-15" d="M126.89,62.98c.4-.02.78.23,1.08-.24.1-.16.42-.1.63-.04,2.65.8,5.39,1.26,7.98,2.22,1.3.48,2.54,1.1,3.77,1.74.14.07.36.13.31.35-.06.27-.31.19-.48.19-.51.01-1.02,0-1.6,0-.27.21-.52.3-.79.32-3.25.26-6.1,1.58-8.8,3.3-1.75,1.11-3.39,2.39-5.04,3.62-3.86,2.89-8.14,3.5-12.76,2.48-1.5-.33-2.95-.85-4.39-1.39-1.44-.53-2.95-.86-4.41-1.46-.04-.09-.05-.12-.02-.22,4.23.21,8.33-.25,12.3-1.7,2.95-1.08,5.56-2.73,7.95-4.76,1.56-1.33,2.92-2.84,4.27-4.42h0Z"/>
    <path class="cls-6" d="M102.34,73.9c1.63.54,3.24.98,4.8,1.55,1.66.6,3.34,1.19,5.08,1.48,4.15.7,7.99,0,11.44-2.54,2.71-2,5.32-4.14,8.44-5.52,1.78-.79,3.6-1.41,5.57-1.52.24-.01.47-.09.77-.14.07.38.54.32.65.67-3.36.1-6.4,1.22-9.24,2.95-2.24,1.36-4.24,3.07-6.41,4.54-3.01,2.03-6.32,2.83-9.88,2.5-2.2-.21-4.3-.91-6.37-1.68-2.25-.83-4.53-1.58-6.91-1.95-.18-.03-.33-.06-.37-.33.59-.07,1.18-.08,1.84-.09.23.09.4.03.6.1h0s0,0,0,0Z"/>
    <path class="cls-8" d="M98.14,73.83c.04.07.03.11.01.2-.13.01-.25,0-.41-.07.07-.17.2-.17.39-.13h0Z"/>
    <path class="cls-8" d="M102.38,73.91c-.17.01-.33,0-.54-.06.12-.04.27-.05.49-.05.06,0,.05.07.05.11h0Z"/>
    <path class="cls-7" d="M96.09,73.61s-.07-.02-.12-.09c.03,0,.07.02.12.09Z"/>
    <path class="cls-18" d="M91.28,31.31c-.36-.86-1.33-.94-2.34-.78-1.32.2-2.57.69-3.84,1.09-1.08.34-2.16.68-3.27.89-.29.05-.7.31-.86-.22-.24-.85-.18-1.01.54-1.19,1.65-.41,3.28-.89,4.88-1.46,2.86-1.01,5.56-2.34,8.16-3.89.74-.44,1.48-.87,2.22-1.31.34-.2.54-.18.65.27.12.53.32,1.05.51,1.56.11.29.08.47-.22.62-1.31.65-2.61,1.32-4,1.81-.85.3-1.04,1.3-.33,1.89.24.2.39.42.52.68,1.85,3.51,2.88,7.3,3.67,11.15.45,2.23.75,4.49.98,6.75.14,1.36.18,2.73.23,4.1.03.88.07,1.75.1,2.63.07,1.85-.17,3.69-.1,5.54.01.35-.19.67-.13,1.03-.58-3.07-1.41-6.08-1.95-9.16-.64-3.66-1.26-7.32-1.95-10.97-.42-2.25-.87-4.48-1.59-6.64-.43-1.28-.93-2.54-1.64-3.7-.13-.2-.24-.41-.25-.7h0Z"/>
    <path class="cls-9" d="M38.65,136.41c.31-.4.01-.76-.04-1.08-.57-3.88.52-7.17,3.46-9.77,1.68-1.49,3.68-2.28,5.96-2.38,2.77-.12,5.21.63,7.34,2.44,1.86,1.57,3.04,3.57,3.87,5.8.53,1.43.99,2.89,1.5,4.33.31.89.93,1.45,1.86,1.66.45.11.33.45.15.68-.36.44-.25.82-.02,1.27.96,1.84,2.22,3.47,3.51,5.08,1.8,2.24,3.47,4.56,4.03,7.48.99,5.12-1.98,10.11-7.43,11.05-.78.14-1.53.21-2.36,0-1.27-.59-2.25-1.5-3.3-2.31-2.48-1.9-4.67-4.1-6.8-6.37-2.71-2.88-5.08-6.04-7.2-9.38-1.16-1.83-2.2-3.72-3.22-5.62-.49-.92-.89-1.89-1.33-2.89h0Z"/>
    <path class="cls-2" d="M45.75,84.9c.69,0,1.12-.44,1.59-.76,1.58-1.06,3.15-2.16,4.93-2.81,1.76-.65,3.41-1.48,5.08-2.3,2.08-1.02,4.21-1.99,6.5-2.52,2.33-.54,4.55-1.34,6.66-2.49.99-.54,2.14-.61,3.25-.67.71-.04,1.4-.12,2.08-.26,1.88-.39,3.4.79,3.28,2.57-.06.88-.52,1.64-1.28,2.02-2.28,1.14-4.61,2.19-7.24,2.24-1.12.02-2.11.53-3.14.88-2.19.74-4.29,1.63-6.18,3.03-1.78,1.33-3.19,2.95-4.53,4.69-.46.6-.93,1.18-1.23,1.88-.22.52-.3,1.01-.06,1.54.78,1.79,1.08,3.68.98,5.61-.09,1.73-.5,3.4-1.17,5-1.06,2.51-1.53,5.21-2.37,7.78-1.34,4.16-3.65,7.67-7.96,9.3-3.09,1.18-6.09.73-8.92-.99-.8-.49-1.35-1.25-2.18-1.75-.24-1.12-.2-2.25-.2-3.45.24-.28.15-.57.14-.83-.04-1.19.09-2.37.26-3.59.38-.06.43.21.49.43.54,2.16,2,3.59,3.81,4.68,1.9,1.15,3.93,1.83,6.2,1.37,1.03-.21,2.03-.52,2.95-1.05.53-.31,1.01-.65,1.64-.76.43-.07.65-.45.74-.83.17-.75.59-1.38.92-2.06,1.22-2.46,2-5.07,2.68-7.71.43-1.65.73-3.33.83-5.04.06-1.12-.11-2.24-.44-3.31-.24-.79-.28-1.58-.14-2.38.15-.8.07-1.55-.49-2.19-.37-.42-.38-.91-.15-1.37.45-.92.75-1.9,1.09-2.86.2-.57.57-1.16.02-1.7-.63-.61-1.34-1.06-2.29-.8-.64.18-1.22.51-1.75.9-1.33.96-2.68,1.84-4.3,2.27-.74.2-1.28.77-1.87,1.25-.47.39-.89.92-1.66.83.58-.88,1.24-1.68,1.98-2.48.42-.54.83-1.02,1.43-1.36,0,0,.01,0,.01,0Z"/>
    <path class="cls-4" d="M37.03,138.38c-.62-.91-1.04-1.95-1.3-3.12.52.95,1.06,1.95,1.3,3.12Z"/>
    <path class="cls-4" d="M43.45,149.21c-.2.12-.24,0-.28-.2.15-.06.26-.02.28.2Z"/>
    <path class="cls-4" d="M37.31,138.83c-.09-.03-.17-.1-.26-.22.14-.04.25.01.26.22Z"/>
    <path class="cls-4" d="M43.17,148.9s-.1-.09-.16-.2c.05.02.1.09.16.2Z"/>
    <path class="cls-4" d="M45.54,151.93c.04-.07.07-.05.12.03.02.03,0,.04,0,.05-.04,0-.07.01-.12-.07h0Z"/>
    <path class="cls-4" d="M45.38,151.71c.05,0,.09.04.14.1.02.03,0,.04,0,.05-.07.03-.12.01-.16-.09,0-.05.01-.06.02-.07h0Z"/>
    <path class="cls-16" d="M42.26,88.72c.6-.02,1.01-.41,1.36-.74.97-.94,2.05-1.6,3.36-1.93,1.04-.26,1.82-1,2.69-1.58.66-.44,1.32-.91,2.09-1.16.97-.31,2.32.2,2.85,1.09.26.44.12.87-.06,1.26-.48,1.01-.64,2.14-1.22,3.11-.29.48-.3.99.17,1.45.46.45.62,1.06.49,1.69-.27,1.25-.03,2.44.28,3.65.47,1.81.23,3.64-.12,5.45-.67,3.47-1.68,6.83-3.2,10.02-.3.63-.71,1.18-.85,1.91-.11.59-.49,1.11-1.27,1.06-.35-.02-.61.28-.89.47-1.4.9-2.96,1.36-4.61,1.4-2.35.07-4.32-.95-6.17-2.28-.93-.67-1.55-1.58-2.2-2.49-.44-.62-.45-1.37-.8-2.06.08-2.27.6-4.44,1.2-6.58,1.2-4.29,3.03-8.29,5.59-11.95.42-.59.85-1.18,1.31-1.8h0Z"/>
    <path class="cls-12" d="M125.59,134.26c1.79-.39,3.48-.29,5.13.36,1.79.7,2.88,2.39,2.98,4.29.18,3.18-1.18,5.71-3.26,7.91-3.36,3.55-7.59,5.67-12.2,7.11-2.86.9-5.78,1.5-8.74,1.83-2.68.3-5.38.28-8.08.08-2.56-.19-5.04-.66-7.47-1.47-2.44-.81-4.75-1.93-6.64-3.69-1.55-1.45-2.8-3.13-2.93-5.43-.15-2.42,1.7-4.44,3.57-5.06,1.9-.64,3.77-.41,5.56.5.83.42,1.77.5,2.67.64,2.61.4,5.24.39,7.86.27,3.49-.16,6.85-.96,10.06-2.38,2.96-1.31,5.74-2.99,8.76-4.17.86-.33,1.73-.65,2.71-.79h0Z"/>
    <path class="cls-12" d="M63.85,115.25c-1.59-3.07-2.76-6.24-3.22-9.61-.42-3.08-.56-6.2.7-9.16,1.63-3.83,5.67-6.46,10.09-5.78,5.27.81,8.37,4.08,10.21,8.79,1,2.54,1.36,5.24,1.64,7.95.22,2.16.28,4.31.26,6.47-.01.8-.17,1.59-.15,2.4.01.44.15.64.58.76,1.14.32,2.32.52,3.3,1.26.28.21.63.38.47.79-.17.43-.56.32-.88.18-1.75-.76-3.61-1.2-5.49-1.32-2.13-.14-4.28-.18-6.39.3-2.02.46-3.98,1.1-5.75,2.21-1.97,1.23-3.7,2.74-5.12,4.59-.22.29-.48.55-.73.82-.2.22-.45.33-.71.14-.26-.18-.21-.47-.12-.73.12-.36.45-.57.66-.86,1.11-1.53,2.47-2.8,3.96-3.95.3-.23.33-.42.05-.7-1.32-1.34-2.4-2.86-3.35-4.55h0Z"/>
    <path class="cls-12" d="M124.24,108.28c-2.41,1.19-4.41,2.81-6.16,4.77-.27.3-.52.67-.95.37-.49-.34-.19-.68.07-1.04.88-1.21,2-2.18,3.19-3.06.39-.29.36-.44.05-.77-3.02-3.21-4.79-7.02-5.49-11.37-.45-2.82-.51-5.62.33-8.36,1.01-3.32,3.01-5.76,6.53-6.61,2.63-.64,4.96.18,7.04,1.74,3.51,2.64,5.5,6.21,6.17,10.53.61,3.94.39,7.79-1.26,11.48-.18.39-.16.65.3.85.93.38,1.71,1.02,2.53,1.58.3.21.81.47.42.98-.37.47-.81.24-1.16-.03-1.63-1.26-3.46-2.04-5.48-2.43-.32-.06-.63-.06-1.01-.08-1.05.32-2.12.14-3.09.59-.65.3-1.26.71-2.04.86h0Z"/>
    <path class="cls-12" d="M115.26,120.01c.11,1.69-.31,3.14-1.34,4.41-1.82,2.24-5.22,2.43-7.35.53-.27-.25-.35-.59-.11-.85.3-.33.63-.16.96.09,1.85,1.38,4.2,1.24,5.57-.42,1.29-1.57,1.55-3.38.79-5.26-.64-1.58-1.82-2.58-3.54-2.96-.62-.14-1.18-.03-1.71.15-1.23.42-2.37,1.02-3.19,2.08-.26.34-.55.43-.87.21-.3-.21-.18-.5.01-.76,1.12-1.53,4.02-3.36,6.59-2.62,2.19.64,4.07,2.95,4.19,5.41h0Z"/>
    <path class="cls-12" d="M81.7,89.82c-.3.32-.49.1-.71-.06-1.12-.89-2.14-1.89-3.34-2.7-4.27-2.9-8.57-2.55-12.85-.14-2.89,1.63-5.04,4.07-6.8,6.86-.16.25-.27.79-.71.55-.46-.26-.08-.69.08-.95,2.43-3.72,5.41-6.82,9.72-8.34,4.23-1.49,8.13-.82,11.67,1.91.86.67,1.69,1.38,2.52,2.09.22.19.42.41.4.78h0Z"/>
    <path class="cls-12" d="M128.35,78.95c-3.83-1.11-7.4-.75-10.67,1.53-1.26.88-2.33,1.97-3.31,3.16-.21.25-.44.86-.86.53-.4-.32.08-.68.31-.97,2.17-2.73,4.81-4.76,8.32-5.37,3.81-.66,7.27.15,10.28,2.66.39.33.77.67,1.15,1.01.18.17.38.37.15.62-.23.25-.47.04-.63-.11-.74-.67-1.52-1.29-2.34-1.85-.73-.49-1.5-.9-2.39-1.2h0Z"/>
    <path class="cls-12" d="M136.73,141.12c-.17.41-.46.41-.75.31-.28-.1-.28-.38-.25-.62.04-.41.05-.83.18-1.22.84-2.55-1.06-6.25-4.08-7.2-1.12-.35-2.23-.65-3.42-.57-.27.02-.54.01-.8-.01-.26-.03-.36-.22-.36-.47,0-.23.08-.36.32-.39,3.86-.59,8.97,1.51,9.5,6.68.09.87-.04,1.68-.21,2.5-.06.31-.12.62-.14.99h0Z"/>
    <path class="cls-12" d="M83.72,139.33c1.17-.94,2.28-1.91,3.78-2.17.21-.04.43-.06.65-.07.35-.02.64.06.64.49,0,.39-.27.51-.58.51-1.79.04-3.01,1.13-4.12,2.34-1.44,1.58-1.71,3.51-1.37,5.56.07.39.11.77-.36.88-.51.12-.57-.26-.62-.66-.35-2.38-.14-4.6,1.64-6.43.12-.12.2-.27.33-.45h0Z"/>
    <path class="cls-13" d="M70.67,125.14c-.48.26-.94.41-1.29-.05-.36-.47-.15-.94.16-1.33.57-.71,1.29-1.24,2.16-1.54.36-.12.76-.28,1.03.18.25.44.18.83-.16,1.2-.55.6-1.2,1.06-1.9,1.55h0Z"/>
    <path class="cls-8" d="M124.22,108.32c1.48-1.01,3.08-1.71,5.01-1.49-1.15.47-2.27,1.18-3.55,1.52-.48.12-.95.12-1.46-.02Z"/>
    <path class="cls-13" d="M75.75,120.12c.56.08.73.45.75.88.02.4-.3.58-.61.72-.39.17-.79.25-1.16-.06-.42-.36-.36-.92.14-1.29.24-.18.52-.26.87-.25h0Z"/>
    <path class="cls-13" d="M110.25,117.84c-.37-.4-.52-.8-.1-1.18.44-.41.86-.18,1.22.14.38.34.71.8.34,1.26-.5.63-.98.14-1.46-.22h0Z"/>
    <path class="cls-13" d="M112.75,119.62c-.2.38-.48.49-.8.32-.28-.15-.23-.46-.17-.71.05-.23.21-.42.46-.38.41.05.53.36.52.78h0Z"/>
    <path class="cls-14" d="M121.84,45.66c1.71-.1,3.38.2,5.03.65.95.27,1.82.02,2.69-.31.21-.08.4-.18.63-.15.22.02.37.13.4.35.05.29-.12.44-.36.57-1.2.62-2.47.67-3.76.44-1.12-.2-2.17-.67-3.34-.64-1.74.05-2.12.3-2.77,1.91-1.22,3.01-1.87,6.17-2.59,9.31-.51,2.21-1.37,4.24-2.81,6.01-.04.05-.05.13-.14.35,1.65-.58,3.24-.95,4.66-1.81,1.34-.81,2.41-1.95,3.69-2.83.34-.23.67-.49,1.11-.5.18,0,.34.05.43.22.09.18.02.34-.11.46-.22.19-.44.38-.68.54-1.1.72-2.03,1.65-3.09,2.43-1.87,1.37-4.06,1.95-6.26,2.47-.68.16-1.27.38-1.82.82-2,1.63-4.31,2.62-6.82,3.12-1.67.33-3.22.92-4.64,1.85-.3.19-.62.43-.87,0-.22-.39.02-.65.37-.89,1.75-1.23,3.78-1.74,5.77-2.36.7-.22,1.22-.44,1.43-1.27.22-.86.71-1.64,1.09-2.46.12-.27.31-.45.63-.35.34.11.33.4.26.67-.05.21-.17.4-.26.6-.23.56-.62,1.05-.74,1.71,1.2-.32,2.07-1.2,2.98-1.98,2.27-1.95,3.36-4.56,4.2-7.36.55-1.82-.14-3.32-.73-4.9-.56-1.5-1.3-2.93-1.68-4.5-.55-2.26.07-4.26,1.28-6.15.19-.29.47-.5.79-.26.31.22.22.55.04.85-.37.6-.69,1.21-.94,1.89-.53,1.47-.51,2.9.04,4.34.63,1.67,1.29,3.34,2,5.15.58-2.65,1.45-5.03,2.67-7.28,1.69-3.1,4.2-5.36,7.16-7.2.33-.21.64-.14.83.16.2.33-.04.62-.3.8-1.33.95-2.57,2-3.69,3.18-.67.7-1.29,1.45-1.76,2.36h-.01Z"/>
    <path class="cls-13" d="M126.13,33.9c-1.05.43-1.98.94-2.81,1.64-.18.16-.4.28-.62.37-.3.11-.63.14-.89-.12-.27-.27-.31-.6-.18-.95.25-.73.78-1.24,1.39-1.64,1.3-.83,2.7-1.44,4.21-1.79.19-.04.39-.06.58-.05.38,0,.74.1.88.51.14.4-.06.71-.35.97-.62.55-1.41.75-2.21,1.06h0Z"/>
    <path class="cls-13" d="M118.71,37.16c-.43-.48-.37-.94.01-1.33.39-.39.9-.61,1.45-.4.55.21.48.68.28,1.1-.3.65-.95.89-1.75.63h0Z"/>
    <path class="cls-13" d="M120.53,39.55c-.16.22-.28.4-.44.54-.35.31-.76.39-1.12.09-.35-.29-.31-.7-.08-1.05.32-.49.81-.74,1.38-.54.41.14.48.51.27.96h0Z"/>
    <path class="cls-13" d="M116.94,39c-.3.28-.55.27-.79.01-.16-.17-.21-.38-.06-.59.15-.21.37-.23.59-.16.36.11.4.38.26.74h0Z"/>
    <path class="cls-13" d="M95.88,26.35c-.33.17-.62.33-.92.45-.2.08-.41.05-.51-.18-.1-.23.03-.39.24-.48.44-.18.87-.37,1.21-.72.13-.13.3-.14.44-.01.16.14.16.32.06.5-.12.2-.32.3-.53.44Z"/>
    <path class="cls-13" d="M93.4,26.76c.27-.16.45-.09.56.15.07.14.05.29-.07.4-.12.12-.26.13-.4.04-.21-.14-.27-.33-.1-.58h0Z"/>
    <path class="cls-11" d="M53.88,139.33c-1.67,1.48-3.57,2.17-5.76,2.16-3.32-.02-5.68-1.72-6.7-4.9-.97-3.04-.48-5.85,1.66-8.21,2.65-2.92,6.96-3.17,10.1-.79,2.35,1.79,3.4,4.19,3.1,7.06-.19,1.77-1,3.4-2.41,4.68h0Z"/>
    <path class="cls-4" d="M47.74,87.58c.06-.9.84-1.23,1.34-1.75.45-.46,1.05-.75,1.69-.97.77-.26,1.35.06,1.85.52.48.44.57,1,.31,1.66-.75,1.89-1.36,3.84-2.19,5.7-.27.6-.44,1.23-.4,1.91.04.78-.21,1.42-.8,1.95-.38.34-.75.7-1.08,1.09-.48.55-.41,1.04.18,1.48,2.45,1.85,3.09,4.61,1.79,7.38-.75,1.6-1.86,2.9-3.3,3.8-2.34,1.45-5.23,1.42-7.39-.59-1.71-1.59-2.42-3.54-2.56-5.82-.16-2.4.74-4.22,2.63-5.62.22-.16.46-.28.8-.26.26.06.25.26.31.41.35.97,1.32,1.2,2.07.47.48-.46.83-1.02,1.11-1.62.83-1.77,1.86-3.42,2.91-5.05.26-.41.55-.8.9-1.15.14-.14.27-.28.4-.43,1.07-1.3.92-2.22-.54-3.11h0Z"/>
    <path class="cls-10" d="M47.66,87.56c1.65.45,2.02,1.58.93,2.96-.86,1.08-1.71,2.17-2.43,3.35-.74,1.2-1.42,2.43-2.04,3.69-.28.57-.6,1.11-1.07,1.55-.47.44-1.04.57-1.62.35-.55-.21-.77-.7-.78-1.35.59-3.12,2.22-5.65,4.15-8.02.49-.6,1.02-1.17,1.53-1.75.35-.39.74-.69,1.33-.79h0Z"/>
    <path class="cls-10" d="M117.78,138.72c1.29-.6,1.24-.57,1.95.63,1.87,3.13,3.64,6.32,5.46,9.47.28.48.22.69-.22.95-3.28,1.93-6.82,3.2-10.52,3.99-1.05.22-1.07.19-1.18-.85-.32-2.93-1.12-5.77-1.69-8.66-.16-.79-.23-1.59-.37-2.38-.09-.48.26-.47.54-.56,2.07-.68,4.06-1.57,6.03-2.61h0Z"/>
    <path class="cls-10" d="M120.79,137.2c1.78-.81,3.49-1.64,5.41-1.91,1.53-.22,3-.16,4.41.54,1.75.86,2.24,2.77,1.98,4.41-.59,3.73-3.02,6.17-5.87,8.32-.42.32-.48.04-.62-.2-1.28-2.21-2.54-4.42-3.82-6.63-.63-1.09-1.31-2.16-1.93-3.25-.48-.84-.46-.85.43-1.28h0Z"/>
    <path class="cls-10" d="M107.99,142.26c.64-.14,1.24-.21,1.81-.37.34-.1.46-.11.5.28.4,3.71,1.54,7.28,1.98,10.98.12,1.02.14,1-1.05,1.21-2.43.43-4.87.56-7.33.58-.39,0-.62-.02-.62-.53-.02-3.63-.39-7.25-.36-10.88,0-.75.25-.93.92-.89,1.38.1,2.73-.18,4.14-.39h0Z"/>
    <path class="cls-10" d="M94.01,147.43c.38-1.64.75-3.23,1.11-4.82.06-.27.1-.35.46-.3,1.58.22,3.15.4,4.76.35.45-.01.91.09,1.36.14.44.05.29.4.28.62-.05,2.07.07,4.14.14,6.2.05,1.56.09,3.11.17,4.67.02.45-.12.54-.51.51-2.12-.19-4.21-.52-6.27-1.1-.76-.21-1.48-.53-2.23-.76-.49-.16-.55-.37-.43-.84.41-1.53.76-3.07,1.16-4.66h0Z"/>
    <path class="cls-10" d="M90.46,141c1.28.1,2.34.77,3.53.97.42.07.22.53.15.81-.54,2.17-1.09,4.34-1.64,6.5-.21.85-.43,1.7-.64,2.55-.06.26-.12.39-.43.24-2.48-1.21-4.55-2.87-5.64-5.48-1.15-2.76.96-5.08,3.27-5.54.43-.09.88-.3,1.4-.05h0Z"/>
    <path class="cls-5" d="M78.88,116.42c-.64.54-1.36.49-2.09.5-2.63.05-5.07.85-7.38,2.05-.52.27-.75.16-1.09-.2-2.08-2.21-3.64-4.73-4.68-7.58-.86-2.35-1.65-4.73-1.98-7.22-.27-2-.12-3.98.72-5.87.93-2.09,2.06-4.03,3.94-5.43.35-.26.7-.55,1.24-.5.63-.05,1.1.18,1.55.49.75.52,1.43,1.12,1.95,1.86,1.01,1.43,1.87,2.96,2.32,4.68.13.5-.01.9-.26,1.31-.41.68-.84,1.36-.84,2.18.14.08.23.05.32.02,1.5-.55,1.91-.43,2.82.87,1.98,2.82,2.93,6.01,3.34,9.39.1.8.14,1.6.26,2.39.05.33.09.68-.12,1.04h0Z"/>
    <path class="cls-13" d="M78.92,116.47c-.23-3.92-.77-7.75-2.72-11.25-.38-.68-.82-1.32-1.28-1.95-.57-.79-1.04-.91-1.94-.54-.33.14-.64.31-1.01.49,0-.91.26-1.7.74-2.38.5-.71.6-1.35.29-2.22-.52-1.46-1.22-2.8-2.13-4.03-.81-1.09-1.84-1.94-3.19-2.42,3.02-.94,5.8-.32,8.37,1.52,2.99,2.16,4.5,5.23,5.29,8.72,1.02,4.54,1.37,9.13,1.03,13.78-.03.39-.09.53-.54.46-.94-.14-1.89-.23-2.91-.19h0Z"/>
    <path class="cls-10" d="M119.23,84.96c2.28-2.53,5.96-2.2,8.59-.36,3.45,2.42,5.36,5.85,6.1,9.93.65,3.63.4,7.21-.94,10.7-.26.68-.52.85-1.23.6-1.04-.36-2.15-.36-3.32-.21-.53-1.77-1.21-3.48-1.98-5.16-.51-1.11-1.05-2.19-1.81-3.15-.8-1.01-1.69-1.48-2.84-.46-.14.12-.32.29-.52.17-.22-.14-.17-.38-.12-.6.1-.4.22-.8.38-1.18,1.23-2.98.6-5.76-.91-8.44-.37-.67-.92-1.19-1.4-1.83h0Z"/>
    <path class="cls-5" d="M119.17,84.92c1.54,1.07,2.21,2.7,2.76,4.36.67,2.03.62,4.06-.22,6.06-.21.51-.47,1.01-.47,1.61.29-.01.4-.26.57-.4.94-.74,1.82-.69,2.65.18.54.57.94,1.24,1.3,1.93.99,1.85,1.82,3.76,2.49,5.75.12.35.21.7.12,1.14-2.29.4-4.34,1.32-6.26,2.55-.31.2-.47.19-.72-.11-2.97-3.63-4.77-7.79-5.35-12.41-.32-2.55-.12-5.15.75-7.63.44-1.27,1.37-2.16,2.38-3.04h0Z"/>
    <path class="cls-3" d="M121.84,45.71s-.03.01-.02,0h.02Z"/>
    <path class="cls-3" d="M108.97,66.62s0,.11-.02,0c.01,0,.02,0,.02,0Z"/>
    <path class="cls-13" d="M40.23,103.07c.54.89.4,1.87-.29,2.48-.71.63-1.57.35-1.76-.58-.15-.74-.04-1.44.59-1.91.42-.33.94-.37,1.47,0h0Z"/>
    <path class="cls-13" d="M45.02,102.96c-.02.08-.02.1-.03.12-.28.86-.84,1.34-1.48,1.21-.6-.11-.92-.5-.95-1.11-.04-.73.49-1.42,1.21-1.61.66-.18,1.37.38,1.25,1.39h0Z"/>
    <path class="cls-13" d="M76.1,115.03c-.14.58-.43.94-1,.99-.56.05-.91-.28-1.19-.7-.18-.27-.3-.56-.35-.87-.2-1.27-.41-2.55-.58-3.83-.07-.52-.07-1.08.53-1.3.61-.22,1.06.14,1.34.62.91,1.55,1.19,3.27,1.24,5.09h0,0Z"/>
    <path class="cls-13" d="M68.92,98.93c.1-.17.16-.31.27-.4.38-.32.79-.31,1.2-.03.33.23.51.54.33.94-.21.46-.56.74-1.09.67-.48-.06-.71-.36-.74-.84,0-.1.02-.19.04-.34h0Z"/>
    <path class="cls-13" d="M72.88,107.97c-.31-.06-.53-.18-.58-.44-.08-.38-.16-.81.32-.99.39-.15.71,0,.86.42.2.54.05.89-.6,1h0Z"/>
    <path class="cls-13" d="M123.09,102.67c-.22-.6-.52-1.11-.55-1.71-.01-.33,0-.66.34-.81.33-.15.67-.09.95.16.32.27.54.62.74.99.52.96.88,1.99,1.23,3.03.17.5.06.91-.44,1.16-.52.27-.89.02-1.17-.38-.49-.73-.73-1.58-1.11-2.43h0Z"/>
    <path class="cls-13" d="M122.18,99.15c-.08-.09-.15-.14-.17-.2-.09-.28-.14-.57.14-.79.17-.14.38-.16.52,0,.22.23.37.54.23.86-.14.32-.42.26-.73.14h0Z"/>
    <path class="cls-13" d="M123.49,99.05c0-.35.13-.57.46-.57.26,0,.33.24.39.44.06.21,0,.39-.21.47-.29.1-.52.01-.63-.35h0Z"/>
  </g>
</svg>