<svg width="56" height="57" viewBox="0 0 56 57" fill="none" xmlns="http://www.w3.org/2000/svg">
<circle cx="28" cy="28" r="28" fill="#F4F7FE"/>
<path d="M27.9472 28.145C30.9714 28.145 33.4208 25.6955 33.4208 22.6714C33.4208 19.6472 30.9714 17.1978 27.9472 17.1978C24.9231 17.1978 22.4736 19.6472 22.4736 22.6714C22.4736 25.6955 24.9231 28.145 27.9472 28.145ZM27.9472 30.8818C24.2936 30.8818 17 32.7154 17 36.3554V37.7238C17 38.4764 17.6158 39.0922 18.3684 39.0922H37.526C38.2787 39.0922 38.8944 38.4764 38.8944 37.7238V36.3554C38.8944 32.7154 31.6009 30.8818 27.9472 30.8818Z" fill="#4318FF"/>
<path d="M28 57C43.464 57 56 44.464 56 29C56 13.536 43.464 1 28 1C12.536 1 0 13.536 0 29C0 44.464 12.536 57 28 57Z" fill="url(#paint0_linear_543_3906)"/>
<path d="M28.0198 41.5785C29.6104 42.3087 32.6005 42.1868 35.992 42.7351C39.3835 43.2833 41.8834 47.4708 42.5603 44.9931C43.5124 41.5081 41.1575 34.9846 39.1119 29.6493C39.04 29.4617 41.2022 29.3498 42.5603 26.759C43.3644 25.2249 43.3478 21.3872 43.8836 20.0507C45.5496 15.8946 43.5967 16.9294 43.4103 16.5037C43.2954 16.2413 44.0421 12.2638 42.8584 14.2056C42.6087 14.6151 40.3423 20.6634 39.8132 21.7888C38.6264 24.3132 37.5715 24.5488 37.5001 24.358C37.008 23.7447 36.6761 22.8883 36.5044 21.7888C35.687 16.5558 32.2202 12.2002 26.9353 12.2002C21.6504 12.2002 17.3662 16.4932 17.3662 21.7888C17.0682 22.661 16.9193 23.5174 16.9193 24.358C16.9193 24.7039 14.8944 26.3414 13.8575 27.4659C12.2042 29.2589 11.6645 31.1563 11.6525 31.7463C11.6457 32.1039 11.9132 35.3743 13.3577 34.6078C13.4566 34.5554 13.6077 34.1879 13.8136 33.691C14.0994 33.0011 14.4881 32.0258 14.9922 31.3346C15.7169 30.3407 16.806 30.0727 16.9193 30.0745C16.8961 33.3356 16.8961 35.1377 16.9193 35.4809C17.1185 38.4353 17.7556 39.3834 19.3096 41.5785C20.323 43.0101 21.8185 43.5975 23.3366 42.7351C23.9615 42.3801 25.7434 40.5334 28.0198 41.5785Z" fill="url(#paint1_linear_543_3906)"/>
<path d="M30.8901 24.581C33.0041 24.581 34.7178 22.8452 34.7178 20.7041C34.7178 18.5629 33.0041 16.8271 30.8901 16.8271C28.7762 16.8271 27.0625 18.5629 27.0625 20.7041C27.0625 22.8452 28.7762 24.581 30.8901 24.581Z" fill="white"/>
<path d="M30.8383 23.4181C32.1573 22.9895 32.9268 21.7197 32.5571 20.5819C32.1874 19.4442 30.8185 18.8692 29.4995 19.2978C28.1806 19.7263 27.411 20.9961 27.7807 22.1339C28.1504 23.2717 29.5193 23.8466 30.8383 23.4181Z" fill="#160B0D"/>
<path d="M31.5409 21.2625C31.8316 21.2625 32.0673 21.0267 32.0673 20.736C32.0673 20.4452 31.8316 20.2095 31.5409 20.2095C31.2503 20.2095 31.0146 20.4452 31.0146 20.736C31.0146 21.0267 31.2503 21.2625 31.5409 21.2625Z" fill="white"/>
<path d="M21.1939 24.581C21.8457 24.581 22.3741 24.0738 22.3741 23.4482C22.3741 22.8226 21.8457 22.3154 21.1939 22.3154C20.5421 22.3154 20.0137 22.8226 20.0137 23.4482C20.0137 24.0738 20.5421 24.581 21.1939 24.581Z" fill="white"/>
<path d="M25.5122 33.55C27.2507 35.6219 29.7597 36.3788 31.1161 35.2407C32.4726 34.1025 32.1628 31.5002 30.4243 29.4283C28.6857 27.3564 26.1768 26.5994 24.8203 27.7376C23.4639 28.8758 23.7736 31.4781 25.5122 33.55Z" fill="white"/>
<path d="M21.6884 23.3683C21.8206 23.3683 21.9277 23.2611 21.9277 23.129C21.9277 22.9968 21.8206 22.8896 21.6884 22.8896C21.5563 22.8896 21.4492 22.9968 21.4492 23.129C21.4492 23.2611 21.5563 23.3683 21.6884 23.3683Z" fill="black"/>
<defs>
<linearGradient id="paint0_linear_543_3906" x1="30.8929" y1="-6.00786" x2="30.8929" y2="50.5578" gradientUnits="userSpaceOnUse">
<stop stop-color="#FF96D5"/>
<stop offset="1" stop-color="#FFD390"/>
</linearGradient>
<linearGradient id="paint1_linear_543_3906" x1="28.1019" y1="12.2002" x2="28.1019" y2="45.7706" gradientUnits="userSpaceOnUse">
<stop stop-color="#0C0C02"/>
<stop offset="1" stop-color="#43003E"/>
</linearGradient>
</defs>
</svg>
