<?xml version="1.0" encoding="utf-8"?>
<!-- Generator: Adobe Illustrator 24.1.0, SVG Export Plug-In . SVG Version: 6.00 Build 0)  -->
<svg version="1.1" id="Layer_1" xmlns="http://www.w3.org/2000/svg" xmlns:xlink="http://www.w3.org/1999/xlink" x="0px" y="0px"
	 viewBox="0 0 700 700" style="enable-background:new 0 0 700 700;" xml:space="preserve">
<style type="text/css">
	.st0{fill:#020202;}
</style>
<g>
	<path class="st0" d="M87.2,174.7c0-21.2-1.3-41.7-3.3-62.9h94.6l3.3,43c10.6-14.5,36.4-50.3,103.2-50.3c76.8,0,98.6,47,105.2,62.9
		c27.8-53.6,72.8-62.2,107.2-62.2c67.5,0,94.7,40.4,101.9,53.6c17.9,29.1,16.5,69.5,16.5,98.6v183.1h-98.6v-191
		c0-35.8-5.3-75.5-56.3-75.5C402.3,174,401,229,401,278.6v161.9h-98.6v-193c0-25.8-0.7-73.5-54.9-73.5c-61.6,0-61.6,53-61.6,75.5
		v191H87.2V174.7z"/>
	<path class="st0" d="M83.9,514h532.2v81.5H83.9V514z"/>
</g>
</svg>
