<?xml version="1.0" encoding="UTF-8"?>
<svg width="256px" height="256px" viewBox="0 0 256 256" version="1.1" xmlns="http://www.w3.org/2000/svg" xmlns:xlink="http://www.w3.org/1999/xlink">
    <title>黄色 透明</title>
    <g id="黄色-透明" stroke="none" stroke-width="1" fill="none" fill-rule="evenodd">
        <g id="编组-2" transform="translate(48.000000, 55.000000)" fill="#F7A600">
            <polygon id="路径备份-2" opacity="0.5" points="111.674564 6.70561827 85.8870169 40.4252937 59.9892641 6.70561827 5.36449462 6.70561827 58.5565868 76.1664594 5.69511246 145.290949 53.9838134 145.290949 160 6.70561827"></polygon>
            <polygon id="路径" points="106.310069 0 80.5225223 33.7196754 54.6247694 0 5.42401179e-13 0 53.1920921 69.4608411 0.330617838 138.585331 48.6193187 138.585331 154.635505 0"></polygon>
            <path d="M132.24252,109.279416 L135.28852,113.256416 L110.84752,145.416416 L105.292273,145.417257 L105.09952,145.166416 L132.24252,109.279416 Z M156.24052,140.616416 L159.917043,145.417257 L152.67752,145.416416 L156.24052,140.616416 Z M138.38252,117.296416 L141.59552,121.492416 L123.48452,145.416416 L117.01252,145.416416 L138.38252,117.296416 Z M144.70752,125.555416 L147.57152,129.296416 L135.26052,145.416416 L129.67152,145.416416 L144.70752,125.555416 Z M150.68952,133.367416 L153.48652,137.020416 L147.25152,145.416416 L141.48652,145.416416 L150.68952,133.367416 Z M126.06052,101.205416 L129.14852,105.238416 L102.00052,141.131416 L98.8585204,137.040416 L126.06052,101.205416 Z M119.83252,93.0734158 L122.95952,97.1564158 L95.7535204,132.997416 L92.5365204,128.809416 L119.83252,93.0734158 Z M113.64352,84.9914158 L116.73252,89.0244158 L89.4315204,124.766416 L86.4555204,120.891416 L113.64352,84.9914158 Z" id="形状结合"></path>
        </g>
    </g>
</svg>