<svg width="318" height="318" viewBox="0 0 318 318" fill="none" xmlns="http://www.w3.org/2000/svg">
<circle cx="159" cy="159" r="159" fill="#ADD6FF"/>
<mask id="mask0_259_1243" style="mask-type:alpha" maskUnits="userSpaceOnUse" x="0" y="0" width="318" height="318">
<circle cx="159" cy="159" r="159" fill="#86C0FB"/>
</mask>
<g mask="url(#mask0_259_1243)">
<path d="M224.413 191.934C221.924 186.654 219.638 181.261 216.761 176.174C213.928 171.161 209.646 167.115 207.161 161.942C204.73 156.882 203.491 151.301 200.518 146.503C197.395 141.459 192.855 137.483 189.388 132.68C185.911 127.861 183.652 122.403 181.264 116.994C178.935 111.714 176.22 107.388 172.41 103.058C163.99 93.4844 157.427 82.6713 152.013 71.1499C127.446 71.8851 106.244 80.4389 88.9491 96.6237C71.0689 113.361 62 134.193 62 158.545C62 182.897 71.0528 203.788 88.9061 220.714L89.0027 220.805C107.098 237.521 129.469 246 155.485 246C181.5 246 203.866 237.526 221.966 220.805L222.015 220.757C226.651 216.421 230.692 211.816 234.153 206.965C230.348 202.302 226.968 197.338 224.413 191.929V191.934ZM178.286 180.52C172.179 186.235 164.72 189.015 155.485 189.015C146.249 189.015 138.833 186.251 132.732 180.563C126.792 174.832 123.899 167.63 123.899 158.545C123.899 149.46 126.786 142.253 132.727 136.527C138.828 130.839 146.271 128.075 155.479 128.075C164.688 128.075 172.173 130.855 178.28 136.57C184.398 142.296 187.376 149.487 187.376 158.545C187.376 167.604 184.403 174.794 178.28 180.52H178.286Z" fill="url(#paint0_linear_259_1243)"/>
<path d="M317.919 214.001C317.925 206.703 317.882 199.41 318 192.112C318.011 191.484 318.011 190.813 317.673 190.276C317.19 189.509 316.192 189.278 315.301 189.101C296.825 185.42 280.007 174.269 269.221 158.846C256.691 140.923 246.42 121.228 232.135 104.539C219.997 90.3561 204.558 79.2532 186.297 74.6597C175.694 71.9926 164.902 71.0213 153.993 71.0106C117.111 70.4149 93.7196 92.0572 88.9544 96.6239C88.9759 102.071 90.5643 106.358 92.802 110.158C95.0397 113.957 97.9267 117.273 100.556 120.778C102.949 123.97 105.128 127.324 106.4 131.349C107.13 133.667 107.559 136.206 107.559 139.066C107.559 140.681 146.41 127.201 153.429 128.076C168.863 128.076 177.304 133.378 186.324 142.753C199.729 156.678 208.277 173.99 219.112 189.831C234.931 212.954 255.714 236.308 284.139 242.936C294.523 245.356 305.019 246.118 315.639 245.984C317.598 245.957 317.952 245.109 317.946 243.408C317.893 233.609 317.919 223.794 317.93 213.995L317.919 214.001Z" fill="url(#paint1_linear_259_1243)"/>
</g>
<defs>
<linearGradient id="paint0_linear_259_1243" x1="63.7279" y1="140.788" x2="234.593" y2="176.87" gradientUnits="userSpaceOnUse">
<stop offset="0.4" stop-color="#3D67FF"/>
<stop offset="1" stop-color="#2241A9"/>
</linearGradient>
<linearGradient id="paint1_linear_259_1243" x1="135.225" y1="83.6643" x2="317.796" y2="217.494" gradientUnits="userSpaceOnUse">
<stop offset="0.264898" stop-color="#3D67FF"/>
<stop offset="1" stop-color="#86C0FB"/>
</linearGradient>
</defs>
</svg>
