<svg width="256" height="256" viewBox="0 0 256 256" fill="none" xmlns="http://www.w3.org/2000/svg">
<rect width="256" height="256" rx="128" fill="url(#paint0_linear_1374_88810)"/>
<rect width="256" height="256" rx="128" fill="#064CF9"/>
<path fill-rule="evenodd" clip-rule="evenodd" d="M119.559 75.592C114.743 77.8144 107.771 81.0276 104.066 82.7326C100.362 84.4374 95.3904 86.7317 93.0194 87.8311C90.6483 88.9302 88.2552 90.0288 87.7009 90.272C87.147 90.5154 86.7302 90.8277 86.7749 90.966C86.8606 91.2314 92.0413 93.4839 114.767 103.136L128.701 109.054L145.483 101.947C154.713 98.0381 164.174 94.0324 166.509 93.0453C168.842 92.0582 170.716 91.1422 170.672 91.01C170.627 90.8776 167.323 89.2715 163.329 87.4407C153.367 82.8739 138.337 75.8989 133.329 73.5183C131.047 72.4336 128.986 71.5474 128.748 71.5487C128.51 71.55 124.375 73.3695 119.559 75.592ZM78.1879 97.8907C78.1184 98.0722 78.0928 112.209 78.1311 129.305L78.2003 160.39L84.5321 163.379C93.5483 167.635 106.744 173.913 118.57 179.573L128.763 184.451L140.395 178.96C146.792 175.939 153.845 172.609 156.068 171.559C158.291 170.508 164.535 167.566 169.944 165.021L179.778 160.393L179.847 128.972C179.885 111.69 179.812 97.5505 179.686 97.5505C179.56 97.5505 172.679 100.398 164.395 103.879C156.11 107.359 145.937 111.628 141.788 113.366L134.243 116.525L134.109 143.149L133.974 169.773L131.346 170.942L128.719 172.111L126.161 170.906L123.603 169.7L123.535 143.121L123.466 116.542L120.098 115.119C118.246 114.335 113.699 112.428 109.994 110.88C101.016 107.129 81.2231 98.8163 79.6043 98.1177C78.6484 97.7049 78.2814 97.6462 78.1879 97.8907Z" fill="white"/>
<defs>
<linearGradient id="paint0_linear_1374_88810" x1="0.888888" y1="2.68221e-06" x2="256.889" y2="256" gradientUnits="userSpaceOnUse">
<stop stop-color="#C0D2FF"/>
<stop offset="1" stop-color="#064CF9"/>
</linearGradient>
</defs>
</svg>
