<?xml version="1.0" encoding="UTF-8"?>
<svg id="Capa_1" data-name="Capa 1" xmlns="http://www.w3.org/2000/svg" version="1.1" viewBox="0 0 284 283">
  <defs>
    <style>
      .cls-1 {
        fill: #fff;
      }

      .cls-1, .cls-2 {
        stroke-width: 0px;
      }

      .cls-2 {
        fill: #222323;
        fill-rule: evenodd;
      }
    </style>
  </defs>
  <circle class="cls-1" cx="142" cy="141.9" r="141.1" transform="translate(-58.7 142) rotate(-45)"/>
  <path class="cls-2" d="M135.5,52.5s7.8-6.4,17.3-2.1l67.4,38.6c5.6,2.7,9.3,10.1,6.3,25.9-5.3,23.9-24.1,29.4-24.1,29.4,0,0,.2-47.3.2-52.9h0s-67-38.7-67-38.7h.2c0-.1-.3-.3-.3-.3ZM134.6,111.2v-49.4c0,0,59.7,34.2,59.7,34.2v49.3l-59.7-34.2ZM78.6,145.5l61.4,35.7v55.3c0,0-61.4-35.8-61.4-35.8v-55.2ZM149.8,236.4v-55.3c0,0,48.9-28,48.9-28v55.2l-48.9,28.1ZM144.9,176l-57.6-33.3,43.1-24.9,57.6,33.3-43.1,24.9Z"/>
</svg>