<svg xmlns="http://www.w3.org/2000/svg" width="256" height="256" viewBox="0 0 256 256">
  <g id="Adex_icon_256px" data-name="Adex icon 256px" transform="translate(20270 11021)">
    <g id="Layer_x0020_1" transform="translate(-20221 -11021)">
      <g id="_1942084283040">
        <path id="Path_17737" data-name="Path 17737" d="M0,1301.312l49.341-49.338L0,1202.639l29.287-29.288,49.375,49.376,49.38-49.376,29.285,29.288-49.339,49.335,49.339,49.338L128,1330.638,78.666,1281.3l-49.338,49.342Z" transform="translate(0 -1123.973)" fill="#7298fe" fill-rule="evenodd"/>
        <path id="Path_17738" data-name="Path 17738" d="M774.8,46.055,820.857,0l46.056,46.055L842.2,70.767,820.857,49.419,799.51,70.767Z" transform="translate(-742.195)" fill="#2855cc" fill-rule="evenodd"/>
        <path id="Path_17739" data-name="Path 17739" d="M774.8,4426.457l46.057,46.057,46.056-46.057L842.2,4401.75l-21.348,21.345L799.51,4401.75Z" transform="translate(-742.195 -4216.514)" fill="#2855cc" fill-rule="evenodd"/>
      </g>
    </g>
    <rect id="Rectangle_2110" data-name="Rectangle 2110" width="256" height="256" transform="translate(-20270 -11021)" fill="none"/>
  </g>
</svg>
