<svg width="256" height="256" fill="none" xmlns="http://www.w3.org/2000/svg"><g clip-path="url(#prefix__clip0_210_2212)"><mask id="prefix__a" style="mask-type:luminance" maskUnits="userSpaceOnUse" x="0" y="0" width="256" height="256"><path d="M256 0H0v256h256V0z" fill="#fff"/></mask><g mask="url(#prefix__a)"><path d="M256 128C256 57.308 198.693 0 128 0 57.308 0 0 57.307 0 128s57.307 128 128 128 128-57.307 128-128z" fill="#121212"/><path d="M118.349 186.738c-32.504 0-58.957-26.421-58.957-58.888 0-32.466 26.453-58.888 58.957-58.888 32.505 0 58.957 26.422 58.957 58.888 0 32.467-26.452 58.888-58.957 58.888zm0-101.488c-23.518 0-42.65 19.111-42.65 42.6 0 23.491 19.132 42.601 42.65 42.601 23.517 0 42.65-19.11 42.65-42.601 0-23.489-19.133-42.6-42.65-42.6z" fill="#81D9D9"/><g filter="url(#prefix__filter0_d_210_2212)"><path d="M90.41 197.38a8.123 8.123 0 01-3.388-.742c-4.094-1.863-5.906-6.696-4.022-10.786l55.859-122.21c1.866-4.089 6.703-5.899 10.798-4.017 4.095 1.864 5.907 6.696 4.022 10.786l-55.858 122.21a8.18 8.18 0 01-7.428 4.759h.017z" fill="#fff"/></g><path d="M175.729 163.556c0 11.763 9.548 21.3 21.326 21.3v-42.583c-11.778 0-21.326 9.538-21.326 21.3v-.017z" fill="#EBAC76"/></g></g><defs><clipPath id="prefix__clip0_210_2212"><path fill="#fff" d="M0 0h256v256H0z"/></clipPath><filter id="prefix__filter0_d_210_2212" x="48.174" y="31.651" width="112.93" height="179.259" filterUnits="userSpaceOnUse" color-interpolation-filters="sRGB"><feFlood flood-opacity="0" result="BackgroundImage"/><feColorMatrix in="SourceAlpha" values="0 0 0 0 0 0 0 0 0 0 0 0 0 0 0 0 0 0 127 0" result="hardAlpha"/><feOffset dx="-13.7" dy="-6.85"/><feGaussianBlur stdDeviation="10.19"/><feComposite in2="hardAlpha" operator="out"/><feColorMatrix values="0 0 0 0 0 0 0 0 0 0 0 0 0 0 0 0 0 0 0.16 0"/><feBlend in2="BackgroundImage" result="effect1_dropShadow_210_2212"/><feBlend in="SourceGraphic" in2="effect1_dropShadow_210_2212" result="shape"/></filter></defs></svg>