<?xml version="1.0" encoding="UTF-8"?>
<svg width="256px" height="256px" viewBox="0 0 256 256" version="1.1" xmlns="http://www.w3.org/2000/svg" xmlns:xlink="http://www.w3.org/1999/xlink">
    <title>phun_mark_purple</title>
    <g id="Icons-+-illo" stroke="none" stroke-width="1" fill="none" fill-rule="evenodd">
        <g id="phunwallet_icons" transform="translate(-255.000000, -120.000000)">
            <g id="labels" transform="translate(54.000000, 28.000000)"></g>
            <g id="phun_mark_purple" transform="translate(255.000000, 120.000000)" fill="#4C20F0" fill-rule="nonzero">
                <g id="logo_pc_mark">
                    <path d="M128,0 C198.692448,0 256,57.307552 256,128 C256,198.692448 198.692448,256 128,256 C57.307552,256 0,198.692448 0,128 C0,57.307552 57.307552,0 128,0 Z M19.9136398,111.662842 C15.483871,140.785602 22.7486919,169.908361 40.2905766,193.526209 C57.8324613,217.144057 83.3479299,232.593326 112.407214,237.032771 C117.900127,237.92066 123.39304,238.275816 128.885954,238.275816 C152.275133,238.275816 174.95555,230.817548 194.092151,216.611324 C217.658522,199.031121 233.074117,173.459918 237.503886,144.337158 C238.212649,141.140757 236.08636,138.121935 232.896927,137.589201 C229.707493,137.056468 226.69525,139.364979 226.163678,142.56138 C222.265481,168.487739 208.444602,191.572853 187.358903,207.1997 C166.273203,222.826547 140.403353,229.396925 114.356312,225.490214 C88.4864618,221.583502 65.4516637,207.732433 49.8588773,186.600675 C34.2660909,165.468916 27.710033,139.542557 31.6082296,113.43862 C39.5818136,59.8101237 89.7267971,22.5187852 143.238405,30.6873641 C146.427838,31.2200975 149.440081,28.9115861 149.971654,25.7151856 C150.503226,22.5187852 148.199746,19.4999625 145.010312,18.9672291 C84.9426467,9.91076115 28.9503683,51.6415448 19.9136398,111.662842 Z M169.462637,129.953356 L168.576683,136.168579 L171.234544,136.523735 C168.399492,150.374803 157.945237,162.450094 143.061214,168.310161 C128.531572,173.992651 113.647549,172.394451 102.661722,164.048294 L104.079248,162.272516 L99.117907,158.543382 L90.9671323,169.553206 L95.9284735,173.28234 L97.5231902,171.151406 C110.812497,181.273341 129.063145,183.404274 146.250648,176.656318 C146.605029,176.47874 146.78222,176.47874 147.136601,176.301162 C164.324105,169.19805 176.727457,154.63667 179.916891,137.944357 L182.04318,138.299513 L182.929134,132.084289 L169.462637,129.953356 Z M77.1462535,102.606374 C70.7673863,105.625197 67.9323343,113.261042 70.9445771,119.831421 C73.9568199,126.224222 81.5760224,129.065467 88.1320803,126.046644 C94.5109474,123.027822 97.3459995,115.391976 94.3337567,108.821597 C91.3215138,102.251219 83.5251207,99.5875516 77.1462535,102.606374 Z M146.605029,74.3715036 C140.226162,77.3903262 137.39111,85.0261717 140.403353,91.5965504 C143.415596,97.9893513 151.034798,100.830596 157.590856,97.8117735 C163.969723,94.7929509 166.804775,87.1571054 163.792532,80.5867267 C160.603099,74.1939258 152.983896,71.3526809 146.605029,74.3715036 Z"></path>
                </g>
            </g>
        </g>
    </g>
</svg>