<svg width="350" height="350" version="1.1" xmlns="http://www.w3.org/2000/svg" desc="Created with imagetracer.js version 1.2.6" ><path fill="rgb(0,0,0)" stroke="rgb(0,0,0)" stroke-width="1" opacity="0" d="M 0 0 L 350 0 L 350 350 L 0 350 L 0 0 Z M 161 11 L 133 16 L 110 24 Q 81 37 61 57 Q 39 80 24 110 L 16 133 L 11 161 L 11 190 L 12 191 L 12 199 L 20 231 L 31 255 L 39 266 L 39 268 L 53 285 Q 76 310 109 325 L 139 335 L 156 337 L 157 338 L 169 338 L 170 339 L 201 337 L 220 333 L 232 329 L 265 313 L 289 294 Q 312 272 326 241 L 332 225 L 332 221 L 335 212 L 337 195 L 338 194 L 338 183 L 339 182 L 338 152 L 330 120 L 319 96 L 302 71 Q 277 42 241 24 L 218 16 L 199 12 L 191 12 L 190 11 L 161 11 Z " /><path fill="rgb(230,245,18)" stroke="rgb(230,245,18)" stroke-width="1" opacity="0.5490196078431373" d="M 160.5 11 L 190 11.5 L 160.5 12 L 160.5 11 Z " /><path fill="rgb(230,245,18)" stroke="rgb(230,245,18)" stroke-width="1" opacity="0.5490196078431373" d="M 152.5 12 L 159 12.5 L 152.5 13 L 152.5 12 Z " /><path fill="rgb(230,245,18)" stroke="rgb(230,245,18)" stroke-width="1" opacity="0.5490196078431373" d="M 191.5 12 L 198.5 12 L 214 15.5 L 210.5 16 L 198.5 13 L 191.5 13 L 191.5 12 Z " /><path fill="rgb(230,245,18)" stroke="rgb(230,245,18)" stroke-width="1" opacity="0.5490196078431373" d="M 145.5 13 L 151 13.5 L 136.5 16 L 136.5 15 L 145.5 13 Z " /><path fill="rgb(230,245,18)" stroke="rgb(230,245,18)" stroke-width="1" opacity="0.5490196078431373" d="M 132.5 16 L 135 16.5 L 129.5 18 L 129.5 17 L 132.5 16 Z " /><path fill="rgb(230,245,18)" stroke="rgb(230,245,18)" stroke-width="1" opacity="0.5490196078431373" d="M 215.5 16 L 221 17.5 L 218.5 18 L 215.5 17 L 215.5 16 Z " /><path fill="rgb(230,245,18)" stroke="rgb(230,245,18)" stroke-width="1" opacity="0.5490196078431373" d="M 125.5 18 L 128 18.5 L 117.5 22 L 117.5 21 L 125.5 18 Z " /><path fill="rgb(230,245,18)" stroke="rgb(230,245,18)" stroke-width="1" opacity="0.5490196078431373" d="M 222.5 18 L 233 21.5 L 231.5 22 L 222.5 19 L 222.5 18 Z " /><path fill="rgb(230,245,18)" stroke="rgb(230,245,18)" stroke-width="1" opacity="0.5490196078431373" d="M 114.5 22 L 116 22.5 L 112.5 24 L 112.5 23 L 114.5 22 Z " /><path fill="rgb(230,245,18)" stroke="rgb(230,245,18)" stroke-width="1" opacity="0.5490196078431373" d="M 234.5 22 L 238 23.5 L 236.5 24 L 234.5 22 Z " /><path fill="rgb(230,245,18)" stroke="rgb(230,245,18)" stroke-width="1" opacity="0.5490196078431373" d="M 109.5 24 L 111 24.5 L 94.5 33 L 95.5 31 L 109.5 24 Z " /><path fill="rgb(230,245,18)" stroke="rgb(230,245,18)" stroke-width="1" opacity="0.5490196078431373" d="M 239.5 24 L 256 32.5 L 254.5 32 L 239.5 25 L 239.5 24 Z " /><path fill="rgb(230,245,18)" stroke="rgb(230,245,18)" stroke-width="1" opacity="0.5490196078431373" d="M 92.5 33 L 91.5 35 L 89.5 36 L 90.5 34 L 92.5 33 Z " /><path fill="rgb(230,245,18)" stroke="rgb(230,245,18)" stroke-width="1" opacity="0.5490196078431373" d="M 257.5 33 L 260 34.5 L 258.5 35 L 257.5 33 Z " /><path fill="rgb(230,245,18)" stroke="rgb(230,245,18)" stroke-width="1" opacity="0.5490196078431373" d="M 87.5 36 L 86.5 38 L 80.5 42 L 82.5 39 L 87.5 36 Z " /><path fill="rgb(230,245,18)" stroke="rgb(230,245,18)" stroke-width="1" opacity="0.5490196078431373" d="M 78.5 42 L 76.5 45 L 78.5 42 Z " /><path fill="rgb(230,245,18)" stroke="rgb(230,245,18)" stroke-width="1" opacity="0.5490196078431373" d="M 74.5 45 L 71.5 49 L 62.5 57 L 70.5 48 L 74.5 45 Z " /><path fill="rgb(230,245,18)" stroke="rgb(230,245,18)" stroke-width="1" opacity="0.5490196078431373" d="M 60.5 57 L 57.5 61 L 60.5 57 Z " /><path fill="rgb(230,245,18)" stroke="rgb(230,245,18)" stroke-width="1" opacity="0.5490196078431373" d="M 293.5 62 L 305 74.5 L 301 71.5 L 293.5 62 Z " /><path fill="rgb(230,245,18)" stroke="rgb(230,245,18)" stroke-width="1" opacity="0.5490196078431373" d="M 305.5 76 L 306.5 78 L 305.5 76 Z " /><path fill="rgb(230,245,18)" stroke="rgb(230,245,18)" stroke-width="1" opacity="0.5490196078431373" d="M 310.5 83 L 314 87.5 L 312 86.5 L 310.5 83 Z " /><path fill="rgb(230,245,18)" stroke="rgb(230,245,18)" stroke-width="1" opacity="0.5490196078431373" d="M 314.5 89 L 315.5 91 L 314.5 89 Z " /><path fill="rgb(230,245,18)" stroke="rgb(230,245,18)" stroke-width="1" opacity="0.5490196078431373" d="M 317.5 94 L 326 110.5 L 325 110.5 L 317.5 94 Z " /><path fill="rgb(230,245,18)" stroke="rgb(230,245,18)" stroke-width="1" opacity="0.5490196078431373" d="M 25.5 107 L 26 108.5 L 24.5 111 L 24 109.5 L 25.5 107 Z " /><path fill="rgb(230,245,18)" stroke="rgb(230,245,18)" stroke-width="1" opacity="0.5490196078431373" d="M 23.5 112 L 24 113.5 L 22.5 116 L 22 114.5 L 23.5 112 Z " /><path fill="rgb(230,245,18)" stroke="rgb(230,245,18)" stroke-width="1" opacity="0.5490196078431373" d="M 326.5 112 L 328 115.5 L 327 115.5 L 326.5 112 Z " /><path fill="rgb(230,245,18)" stroke="rgb(230,245,18)" stroke-width="1" opacity="0.5490196078431373" d="M 328.5 117 L 332 127.5 L 331 127.5 L 328.5 117 Z " /><path fill="rgb(230,245,18)" stroke="rgb(230,245,18)" stroke-width="1" opacity="0.5490196078431373" d="M 20.5 120 L 21 121.5 L 18.5 128 L 18 125.5 L 20.5 120 Z " /><path fill="rgb(230,245,18)" stroke="rgb(230,245,18)" stroke-width="1" opacity="0.5490196078431373" d="M 17.5 129 L 18 131.5 L 16.5 135 L 16 132.5 L 17.5 129 Z " /><path fill="rgb(230,245,18)" stroke="rgb(230,245,18)" stroke-width="1" opacity="0.5490196078431373" d="M 333.5 132 L 334 134.5 L 333 134.5 L 333.5 132 Z " /><path fill="rgb(230,245,18)" stroke="rgb(230,245,18)" stroke-width="1" opacity="0.5490196078431373" d="M 15.5 136 L 16 139.5 L 13.5 151 L 13 145.5 L 15.5 136 Z " /><path fill="rgb(230,245,18)" stroke="rgb(230,245,18)" stroke-width="1" opacity="0.5490196078431373" d="M 334.5 136 L 336 143.5 L 335 143.5 L 334.5 136 Z " /><path fill="rgb(230,245,18)" stroke="rgb(230,245,18)" stroke-width="1" opacity="0.5490196078431373" d="M 336.5 145 L 337 149.5 L 336 149.5 L 336.5 145 Z " /><path fill="rgb(230,245,18)" stroke="rgb(230,245,18)" stroke-width="1" opacity="0.5490196078431373" d="M 337.5 151 L 338 156.5 L 337 156.5 L 337.5 151 Z " /><path fill="rgb(230,245,18)" stroke="rgb(230,245,18)" stroke-width="1" opacity="0.5490196078431373" d="M 12.5 152 L 13 157.5 L 12 157.5 L 12.5 152 Z " /><path fill="rgb(230,245,18)" stroke="rgb(230,245,18)" stroke-width="1" opacity="0.5490196078431373" d="M 11.5 160 L 12 189.5 L 11 189.5 L 11.5 160 Z " /><path fill="rgb(230,245,18)" stroke="rgb(230,245,18)" stroke-width="1" opacity="0.5490196078431373" d="M 12.5 192 L 16 213.5 L 15 213.5 L 12 198.5 L 12.5 192 Z " /><path fill="rgb(230,245,18)" stroke="rgb(230,245,18)" stroke-width="1" opacity="0.5490196078431373" d="M 16.5 215 L 17 217.5 L 16 217.5 L 16.5 215 Z " /><path fill="rgb(230,245,18)" stroke="rgb(230,245,18)" stroke-width="1" opacity="0.5490196078431373" d="M 18.5 222 L 22 232.5 L 21 232.5 L 18 224.5 L 18.5 222 Z " /><path fill="rgb(230,245,18)" stroke="rgb(230,245,18)" stroke-width="1" opacity="0.5490196078431373" d="M 331.5 223 L 332 224.5 L 328.5 233 L 328 231.5 L 331.5 223 Z " /><path fill="rgb(230,245,18)" stroke="rgb(230,245,18)" stroke-width="1" opacity="0.5490196078431373" d="M 22.5 234 L 24 237.5 L 23 237.5 L 22.5 234 Z " /><path fill="rgb(230,245,18)" stroke="rgb(230,245,18)" stroke-width="1" opacity="0.5490196078431373" d="M 327.5 234 L 328 235.5 L 326.5 238 L 326 236.5 L 327.5 234 Z " /><path fill="rgb(230,245,18)" stroke="rgb(230,245,18)" stroke-width="1" opacity="0.5490196078431373" d="M 24.5 239 L 32 254.5 L 31 254.5 L 24 240.5 L 24.5 239 Z " /><path fill="rgb(230,245,18)" stroke="rgb(230,245,18)" stroke-width="1" opacity="0.5490196078431373" d="M 325.5 239 L 326 240.5 L 322.5 247 L 322 245.5 L 325.5 239 Z " /><path fill="rgb(230,245,18)" stroke="rgb(230,245,18)" stroke-width="1" opacity="0.5490196078431373" d="M 320.5 250 L 320 251.5 L 317.5 256 L 318 254.5 L 320.5 250 Z " /><path fill="rgb(230,245,18)" stroke="rgb(230,245,18)" stroke-width="1" opacity="0.5490196078431373" d="M 315.5 259 L 314.5 261 L 315.5 259 Z " /><path fill="rgb(230,245,18)" stroke="rgb(230,245,18)" stroke-width="1" opacity="0.5490196078431373" d="M 313.5 262 L 313 263.5 L 308.5 270 L 310 267.5 L 313.5 262 Z " /><path fill="rgb(230,245,18)" stroke="rgb(230,245,18)" stroke-width="1" opacity="0.5490196078431373" d="M 39.5 267 L 41.5 270 L 39.5 267 Z " /><path fill="rgb(230,245,18)" stroke="rgb(230,245,18)" stroke-width="1" opacity="0.5490196078431373" d="M 307.5 271 L 305.5 274 L 307.5 271 Z " /><path fill="rgb(230,245,18)" stroke="rgb(230,245,18)" stroke-width="1" opacity="0.5490196078431373" d="M 304.5 275 L 302 278.5 L 294.5 287 L 301 279.5 L 304.5 275 Z " /><path fill="rgb(230,245,18)" stroke="rgb(230,245,18)" stroke-width="1" opacity="0.5490196078431373" d="M 46.5 276 L 47.5 278 L 46.5 276 Z " /><path fill="rgb(230,245,18)" stroke="rgb(230,245,18)" stroke-width="1" opacity="0.5490196078431373" d="M 293.5 288 L 288.5 294 L 293.5 288 Z " /><path fill="rgb(230,245,18)" stroke="rgb(230,245,18)" stroke-width="1" opacity="0.5490196078431373" d="M 286.5 294 L 279.5 302 L 264.5 313 L 266.5 310 Q 278.2 303.7 286.5 294 Z " /><path fill="rgb(228,244,13)" stroke="rgb(228,244,13)" stroke-width="1" opacity="0.996078431372549" d="M 59.5 59 L 58.5 61 L 59.5 59 Z " /><path fill="rgb(228,244,13)" stroke="rgb(228,244,13)" stroke-width="1" opacity="0.996078431372549" d="M 85.5 233 L 83.5 236 L 85.5 233 Z " /><path fill="rgb(228,244,13)" stroke="rgb(228,244,13)" stroke-width="1" opacity="0.996078431372549" d="M 41.5 266 L 40.5 268 L 41.5 266 Z " /><path fill="rgb(227,245,13)" stroke="rgb(227,245,13)" stroke-width="1" opacity="1" d="M 159.5 12 L 190.5 12 L 191.5 13 L 198.5 13 L 214.5 16 L 238.5 24 L 259 35.5 L 249 42 L 247.5 45 L 240 50 L 233.5 58 Q 231.3 57.3 232 59.5 L 221 72.5 L 219 77 L 207.5 77 L 193 84 L 191.5 87 L 188 89.5 L 182 98.5 L 182 105.5 L 192.5 114 L 196.5 115 L 199 114 L 200 107.5 L 195 99.5 Q 197 96 199 100.5 L 201 103.5 L 207.5 109 Q 209.8 108.3 209 104.5 L 204 96.5 L 204 94 Q 207.7 92.5 207 95.5 L 208 98 Q 210.7 96.9 210 99.5 Q 210.5 103.5 215.5 103 L 217 99.5 L 213 91.5 L 216 90 Q 214.9 92.7 217.5 92 L 226.5 96 Q 229 95 228 90.5 L 224 83.5 L 224 79 L 236 83 Q 234.9 85.7 237.5 85 L 247 93.5 L 262.5 112 L 281.5 104 L 309.5 83 Q 331.4 110.6 337 154.5 L 334 152.5 L 334 151 L 332 151 Q 333.1 148.3 330.5 149 L 318.5 139 L 316.5 139 L 299.5 128 L 274.5 117 Q 264.9 118.4 261 116 Q 262.1 113.3 259.5 114 L 254 106 Q 251.3 107.1 252 104.5 L 244 94 L 239 90.5 Q 239.8 88.3 237.5 89 L 228.5 83 L 228 84.5 Q 232.1 87.4 231 95.5 Q 229.7 99.7 223.5 99 L 219 97 L 220 101.5 L 216.5 106 Q 211.1 104.1 212 107.5 L 208.5 112 L 203.5 110 L 200.5 116 Q 199.1 118.6 194.5 118 L 184.5 112 L 184 114.5 L 192 130 L 197 133.5 Q 196.3 135.8 198.5 135 L 205.5 139 L 207.5 138 Q 208.8 140.3 213.5 139 Q 221.4 135.4 234.5 137 L 241 142.5 L 247 155 L 264 167.5 Q 263.3 169.8 265.5 169 L 269 174 L 273 176.5 L 281 187.5 L 271.5 192 L 269.5 192 L 252.5 196 L 217.5 196 L 216.5 195 L 202.5 194 L 196 188.5 L 185 163.5 L 173 130.5 L 174 130.5 L 176.5 134 L 183.5 135 L 190 130.5 Q 183.1 123.1 182 111 L 174.5 114 L 170 118.5 L 169.5 122 L 160 102.5 Q 150.9 88.6 138.5 78 L 124.5 69 L 107.5 63 L 96.5 61 L 73.5 60 L 72.5 61 L 59.5 61 L 60 59.5 L 61.5 57 Q 82.6 36.6 111.5 24 L 135.5 16 L 151.5 13 L 158.5 13 L 159.5 12 Z " /><path fill="rgb(227,245,13)" stroke="rgb(227,245,13)" stroke-width="1" opacity="1" d="M 291.5 62 L 301 70.5 L 306 77.5 L 303 79 Q 304.1 81.7 301.5 81 L 299 82 Q 300.3 85 296.5 84 L 273.5 100 L 260.5 105 L 256 101.5 L 249 90 L 243 87 Q 244.1 84.3 241.5 85 Q 238.3 83.3 238 78.5 L 240.5 74 L 244.5 72 L 256.5 71 L 266.5 67 L 280.5 66 L 281.5 65 L 283.5 65 L 291.5 62 Z " /><path fill="rgb(227,245,13)" stroke="rgb(227,245,13)" stroke-width="1" opacity="1" d="M 92.5 79 L 104.5 79 L 113.5 81 L 120.5 85 L 123.5 85 Q 137.1 91.4 146 102.5 L 153 112.5 L 156 130.5 L 165 140.5 L 166 147.5 L 165 150 L 159.5 151 L 156 148.5 L 153.5 145 L 153 146.5 L 156 153.5 Q 155.5 156.5 151.5 156 L 147 152.5 Q 146.8 147.8 143.5 146 L 143 148.5 Q 145.5 150 144 155.5 L 140.5 157 L 135.5 153 L 135 154.5 Q 140 157 139 165.5 Q 137.5 168.5 131.5 167 L 126.5 159 L 126 161.5 Q 128.6 164.4 128 170.5 Q 127 174 121.5 173 L 118 169.5 L 116 163 L 114 163.5 L 120 179.5 L 116.5 182 L 113 181 Q 114.1 178.3 111.5 179 L 108.5 175 Q 106.3 174.3 107 176.5 Q 109.8 177.6 109 181 Q 111.7 179.9 111 182.5 L 112 185.5 L 110.5 185 L 107 183.5 Q 107.8 181.3 105.5 182 Q 97.4 172.4 93 160 Q 90.3 161.1 91 158.5 L 86 152 L 83 150.5 L 72 128.5 L 69 114.5 L 69 103.5 L 72 93.5 L 80.5 84 L 92.5 79 Z M 94 82 L 82 87 L 77 92 L 72 105 Q 73 139 92 156 Q 91 158 94 157 L 104 174 Q 104 171 109 171 L 117 179 L 112 169 L 112 161 L 116 159 Q 120 162 121 169 L 125 170 L 122 159 L 123 157 L 127 155 L 129 156 L 132 164 L 137 164 L 132 156 Q 131 151 134 150 L 138 151 Q 140 150 139 153 L 141 154 L 140 150 Q 139 144 143 143 L 147 144 Q 150 145 149 151 L 152 152 L 149 145 L 151 141 L 154 141 L 161 148 L 163 147 Q 163 139 157 137 Q 158 134 155 135 L 152 129 L 152 122 L 150 114 L 145 107 L 133 94 L 117 85 L 105 82 L 94 82 Z " /><path fill="rgb(227,245,13)" stroke="rgb(227,245,13)" stroke-width="1" opacity="1" d="M 110.5 92 L 116.5 92 L 127 100.5 L 136 112.5 L 137 121.5 L 133.5 125 L 129.5 126 L 124.5 125 L 121 122.5 L 119 119.5 L 110 103.5 L 109 93.5 L 110.5 92 Z M 122 107 L 120 109 L 120 113 L 122 118 L 126 120 L 131 120 Q 132 113 128 110 Q 127 106 122 107 Z " /><path fill="rgb(227,245,13)" stroke="rgb(227,245,13)" stroke-width="1" opacity="1" d="M 236 95 L 240 96.5 L 244 103 L 248 105.5 L 249 110.5 L 248 113 L 222.5 126 L 211.5 128 L 210.5 127 L 202.5 127 L 198 123.5 L 200.5 120 Q 204.5 120.5 205 117.5 L 205 115 L 211.5 115 L 216.5 109 Q 221 110 222 107.5 L 223.5 104 Q 232.2 105.7 235 101.5 L 236 95 Z " /><path fill="rgb(227,245,13)" stroke="rgb(227,245,13)" stroke-width="1" opacity="1" d="M 26.5 107 L 35 126.5 L 54 153 L 57 154.5 L 63 163 L 68 166.5 L 72 173 L 75 174.5 L 85 190.5 L 88 200.5 L 88 209.5 Q 85.5 223 75.5 229 L 56.5 240 L 39 247 Q 40.1 249.7 37.5 249 L 34 254 L 31 252.5 Q 21.3 235.7 16 214.5 L 12 191.5 L 12 158.5 L 16 135.5 L 22 116.5 L 26.5 107 Z " /><path fill="rgb(227,245,13)" stroke="rgb(227,245,13)" stroke-width="1" opacity="1" d="M 90.5 108 L 92.5 108 L 96.5 108 L 106 116.5 L 114 130.5 L 115 142.5 L 114 145 L 110.5 147 L 105.5 147 L 97 139.5 L 87 119.5 L 86 111.5 L 90.5 108 Z M 102 127 L 98 130 L 99 135 L 102 140 L 107 143 L 111 141 Q 111 131 105 129 Q 106 125 102 127 Z " /><path fill="rgb(227,245,13)" stroke="rgb(227,245,13)" stroke-width="1" opacity="1" d="M 176.5 120 L 179.5 120 L 184 123.5 L 183 127.5 L 184 131 L 181 131 Q 182.3 128 178.5 129 L 174 122.5 L 176.5 120 Z " /><path fill="rgb(227,245,13)" stroke="rgb(227,245,13)" stroke-width="1" opacity="1" d="M 125.5 130 L 136 137.5 L 138 140.5 L 135.5 144 L 129.5 147 L 125.5 147 L 124 145.5 L 123 132.5 L 125.5 130 Z M 128 137 L 128 142 L 131 142 L 132 140 L 128 137 Z " /><path fill="rgb(227,245,13)" stroke="rgb(227,245,13)" stroke-width="1" opacity="1" d="M 169.5 157 L 174 159.5 Q 177.7 165.3 176 176.5 L 169.5 190 Q 167.3 189.3 168 191.5 L 156.5 198 L 144.5 199 L 128.5 196 L 124 193.5 L 123 189.5 L 126.5 185 L 131.5 184 L 134.5 185 L 134.5 184 L 132 182.5 L 131 179.5 Q 132 176 137.5 177 L 142.5 179 L 142 177.5 L 141 171.5 L 143.5 168 Q 148.8 166.8 150 169.5 L 152.5 174 L 153 172.5 L 152 169 L 154.5 168 L 157.5 170 L 158 167.5 L 156 162.5 L 159.5 158 L 165 161.5 L 165.5 164 L 169.5 157 Z M 171 161 L 168 169 L 166 170 L 162 166 Q 164 160 159 162 L 162 170 Q 163 174 160 175 L 158 174 Q 155 173 156 177 L 153 179 L 147 171 L 144 173 L 146 178 L 145 182 Q 138 183 135 180 Q 134 183 137 182 L 139 186 L 137 189 L 132 187 L 128 188 L 126 191 L 129 193 L 146 196 L 156 195 L 165 191 L 169 186 L 173 176 Q 175 165 171 161 Z " /><path fill="rgb(227,245,13)" stroke="rgb(227,245,13)" stroke-width="1" opacity="1" d="M 286.5 192 Q 290.7 190.9 289 195 L 277.5 202 L 274.5 202 L 272.5 204 L 265.5 206 L 263.5 206 L 248.5 209 L 233.5 210 L 232.5 211 L 213.5 211 L 198 206 L 199.5 203 L 214.5 208 L 232.5 208 L 233.5 207 L 247.5 206 L 264.5 203 L 283 196 Q 281.9 193.3 284.5 194 L 286.5 192 Z " /><path fill="rgb(227,245,13)" stroke="rgb(227,245,13)" stroke-width="1" opacity="1" d="M 179.5 194 Q 185.2 192.4 183 198 L 179 198 L 179 199.5 L 174 210.5 L 170.5 214 Q 167.3 219.2 159 218 L 161 223 Q 163.7 221.9 163 224.5 Q 170.3 232.2 172 245.5 Q 170.5 248.5 169 245.5 L 169 242.5 L 163 228.5 L 157.5 222 L 156 222.5 L 156 239.5 L 158 244.5 L 155.5 246 L 153 239.5 L 153 219 L 137.5 218 L 117 209.5 L 118.5 206 Q 125.9 212.1 137.5 214 L 137 212.5 L 136 204.5 Q 138.5 200 146.5 201 L 151 204.5 L 153 210 Q 156 211.3 155 207.5 L 160.5 200 L 164.5 200 L 169 204.5 L 170.5 209 L 176 197.5 L 179.5 194 Z M 162 203 Q 157 207 157 215 Q 164 216 167 212 L 165 205 L 162 203 Z M 143 204 L 139 207 L 140 212 Q 144 217 153 216 L 149 209 L 149 206 Q 146 207 147 204 L 143 204 Z " /><path fill="rgb(227,245,13)" stroke="rgb(227,245,13)" stroke-width="1" opacity="1" d="M 93.5 222 L 95 225.5 Q 89 236.4 79.5 244 L 71.5 250 L 53 258 L 53 259.5 L 42.5 270 L 41 267.5 L 51.5 256 Q 58.3 250.3 68.5 248 L 79 241 L 82.5 236 L 86 233.5 L 93.5 222 Z " /><path fill="rgb(227,245,13)" stroke="rgb(227,245,13)" stroke-width="1" opacity="1" d="M 329.5 225 L 330 227.5 Q 316.1 268.1 287.5 294 L 270.5 308 L 264 311 Q 262 298.9 256 289.5 L 254 281.5 L 254 272.5 Q 255.8 264.9 261.5 261 L 264.5 259 Q 280.8 248.8 302.5 244 L 324 232 L 329.5 225 Z " /><path fill="rgb(227,245,13)" stroke="rgb(227,245,13)" stroke-width="1" opacity="1" d="M 99.5 229 Q 102.8 227.9 102 230.5 Q 96.9 243.4 86.5 251 L 62.5 263 L 53 271.5 L 51 274.5 L 48.5 278 Q 43.3 275.3 49 272.5 L 58.5 262 L 78.5 253 L 92 241.5 L 99.5 229 Z " /><path fill="rgb(227,245,13)" stroke="rgb(227,245,13)" stroke-width="1" opacity="1" d="M 213.5 235 L 217 237.5 L 216 245.5 L 214 247.5 L 215.5 248 Q 218.3 243.8 224.5 243 L 227 246.5 L 222 250 L 220.5 253 L 213 259.5 L 212 270.5 L 213 273 L 215.5 273 L 221 267.5 L 223 259 L 228 259 L 228 260.5 L 229 263.5 Q 227.5 272.5 221.5 277 Q 218.2 280.2 210.5 279 Q 203.8 275.5 206 264 Q 203.3 265.1 204 262.5 L 203 260.5 L 208 252.5 L 210 238.5 L 213.5 235 Z " /><path fill="rgb(227,245,13)" stroke="rgb(227,245,13)" stroke-width="1" opacity="1" d="M 201.5 243 L 205 245.5 L 197 265.5 Q 203 270.5 205 279.5 L 201.5 282 L 198 280 L 195 273 Q 192 271.8 193 275.5 L 186.5 284 L 183 283 L 182 251.5 L 184.5 249 L 188 250.5 L 189 252.5 L 189 265 Q 192 266.3 191 262.5 L 198 245 L 201.5 243 Z " /><path fill="rgb(227,245,13)" stroke="rgb(227,245,13)" stroke-width="1" opacity="1" d="M 167.5 257 Q 175.5 255.5 177 260.5 L 177 266.5 L 172 277 Q 169.3 275.9 170 278.5 L 162 286.5 L 163 287.5 L 164.5 290 L 166.5 291 L 177.5 282 L 179.5 282 Q 182.5 282.5 182 286.5 L 179 291 L 169.5 297 L 163.5 297 L 157 291.5 L 155.5 289 L 152 286.5 L 153.5 283 Q 156.5 283.9 155 279.5 L 158 267.5 L 163.5 259 L 167.5 257 Z M 169 264 Q 164 267 163 274 Q 161 275 164 276 L 171 265 L 169 264 Z " /><path fill="rgb(227,245,13)" stroke="rgb(227,245,13)" stroke-width="1" opacity="1" d="M 149.5 267 Q 154 266 155 268.5 L 155 271.5 L 148 280 Q 145.3 278.9 146 281.5 L 142 289.5 L 143 290.5 L 144 302.5 L 140.5 305 L 137 302.5 Q 138.5 297 136 295.5 L 136 271.5 L 139.5 269 L 143 271.5 L 143.5 274 L 149.5 267 Z " /><path fill="rgb(0,0,0)" stroke="rgb(0,0,0)" stroke-width="1" opacity="0.996078431372549" d="M 260.5 35 L 261.5 37 L 260.5 35 Z " /><path fill="rgb(0,0,0)" stroke="rgb(0,0,0)" stroke-width="1" opacity="0.996078431372549" d="M 263.5 37 L 264.5 39 L 263.5 37 Z " /><path fill="rgb(0,0,0)" stroke="rgb(0,0,0)" stroke-width="1" opacity="0.996078431372549" d="M 266.5 39 L 267.5 41 L 266.5 39 Z " /><path fill="rgb(0,0,0)" stroke="rgb(0,0,0)" stroke-width="1" opacity="0.996078431372549" d="M 269.5 41 L 270.5 43 L 269.5 41 Z " /><path fill="rgb(0,0,0)" stroke="rgb(0,0,0)" stroke-width="1" opacity="0.996078431372549" d="M 273.5 44 L 275.5 47 L 273.5 44 Z " /><path fill="rgb(0,0,0)" stroke="rgb(0,0,0)" stroke-width="1" opacity="0.996078431372549" d="M 277.5 47 L 280.5 51 L 277.5 47 Z " /><path fill="rgb(0,0,0)" stroke="rgb(0,0,0)" stroke-width="1" opacity="0.996078431372549" d="M 284.5 53 L 291.5 61 L 284.5 53 Z " /><path fill="rgb(0,0,0)" stroke="rgb(0,0,0)" stroke-width="1" opacity="0.996078431372549" d="M 56.5 62 L 53.5 66 L 56.5 62 Z " /><path fill="rgb(0,0,0)" stroke="rgb(0,0,0)" stroke-width="1" opacity="0.996078431372549" d="M 50.5 69 L 47.5 73 L 50.5 69 Z " /><path fill="rgb(0,0,0)" stroke="rgb(0,0,0)" stroke-width="1" opacity="0.996078431372549" d="M 45.5 75 L 44.5 77 L 45.5 75 Z " /><path fill="rgb(0,0,0)" stroke="rgb(0,0,0)" stroke-width="1" opacity="0.996078431372549" d="M 42.5 79 L 41.5 81 L 42.5 79 Z " /><path fill="rgb(0,0,0)" stroke="rgb(0,0,0)" stroke-width="1" opacity="0.996078431372549" d="M 307.5 79 L 308.5 81 L 307.5 79 Z " /><path fill="rgb(0,0,0)" stroke="rgb(0,0,0)" stroke-width="1" opacity="0.996078431372549" d="M 40.5 82 L 39.5 84 L 40.5 82 Z " /><path fill="rgb(0,0,0)" stroke="rgb(0,0,0)" stroke-width="1" opacity="0.996078431372549" d="M 38.5 85 L 37.5 87 L 38.5 85 Z " /><path fill="rgb(0,0,0)" stroke="rgb(0,0,0)" stroke-width="1" opacity="0.996078431372549" d="M 32.5 95 L 31.5 97 L 32.5 95 Z " /><path fill="rgb(0,0,0)" stroke="rgb(0,0,0)" stroke-width="1" opacity="0.996078431372549" d="M 337.5 157 L 338 161.5 L 337 161.5 L 337.5 157 Z " /><path fill="rgb(0,0,0)" stroke="rgb(0,0,0)" stroke-width="1" opacity="0.996078431372549" d="M 338.5 169 L 339 181.5 L 338 181.5 L 338.5 169 Z " /><path fill="rgb(0,0,0)" stroke="rgb(0,0,0)" stroke-width="1" opacity="0.996078431372549" d="M 337.5 189 L 338 193.5 L 337 193.5 L 337.5 189 Z " /><path fill="rgb(0,0,0)" stroke="rgb(0,0,0)" stroke-width="1" opacity="0.996078431372549" d="M 336.5 198 L 337 200.5 L 336 200.5 L 336.5 198 Z " /><path fill="rgb(0,0,0)" stroke="rgb(0,0,0)" stroke-width="1" opacity="0.996078431372549" d="M 335.5 204 L 336 206.5 L 335 206.5 L 335.5 204 Z " /><path fill="rgb(0,0,0)" stroke="rgb(0,0,0)" stroke-width="1" opacity="0.996078431372549" d="M 334.5 209 L 335 211.5 L 334 211.5 L 334.5 209 Z " /><path fill="rgb(0,0,0)" stroke="rgb(0,0,0)" stroke-width="1" opacity="0.996078431372549" d="M 332.5 217 L 333 219.5 L 332 219.5 L 332.5 217 Z " /><path fill="rgb(0,0,0)" stroke="rgb(0,0,0)" stroke-width="1" opacity="0.996078431372549" d="M 35.5 260 L 36.5 262 L 35.5 260 Z " /><path fill="rgb(0,0,0)" stroke="rgb(0,0,0)" stroke-width="1" opacity="0.996078431372549" d="M 37.5 263 L 38.5 265 L 37.5 263 Z " /><path fill="rgb(0,0,0)" stroke="rgb(0,0,0)" stroke-width="1" opacity="0.996078431372549" d="M 44.5 273 L 45.5 275 L 44.5 273 Z " /><path fill="rgb(0,0,0)" stroke="rgb(0,0,0)" stroke-width="1" opacity="0.996078431372549" d="M 48.5 278 L 50.5 281 L 48.5 278 Z " /><path fill="rgb(0,0,0)" stroke="rgb(0,0,0)" stroke-width="1" opacity="0.996078431372549" d="M 53.5 284 L 65.5 297 L 53.5 284 Z " /><path fill="rgb(0,0,0)" stroke="rgb(0,0,0)" stroke-width="1" opacity="0.996078431372549" d="M 69.5 299 L 72.5 303 L 69.5 299 Z " /><path fill="rgb(0,0,0)" stroke="rgb(0,0,0)" stroke-width="1" opacity="0.996078431372549" d="M 74.5 303 L 76.5 306 L 74.5 303 Z " /><path fill="rgb(0,0,0)" stroke="rgb(0,0,0)" stroke-width="1" opacity="0.996078431372549" d="M 79.5 307 L 80.5 309 L 79.5 307 Z " /><path fill="rgb(0,0,0)" stroke="rgb(0,0,0)" stroke-width="1" opacity="0.996078431372549" d="M 82.5 309 L 83.5 311 L 82.5 309 Z " /><path fill="rgb(0,0,0)" stroke="rgb(0,0,0)" stroke-width="1" opacity="0.996078431372549" d="M 85.5 311 L 86.5 313 L 85.5 311 Z " /><path fill="rgb(0,0,0)" stroke="rgb(0,0,0)" stroke-width="1" opacity="0.996078431372549" d="M 88.5 313 L 89.5 315 L 88.5 313 Z " /><path fill="rgb(0,0,0)" stroke="rgb(0,0,0)" stroke-width="1" opacity="0.996078431372549" d="M 261.5 313 L 260.5 315 L 261.5 313 Z " /><path fill="rgb(0,0,0)" stroke="rgb(0,0,0)" stroke-width="1" opacity="0.996078431372549" d="M 95.5 317 L 96.5 319 L 95.5 317 Z " /><path fill="rgb(0,0,0)" stroke="rgb(0,0,0)" stroke-width="1" opacity="0.996078431372549" d="M 254.5 317 L 253.5 319 L 254.5 317 Z " /><path fill="rgb(0,0,0)" stroke="rgb(0,0,0)" stroke-width="1" opacity="0.996078431372549" d="M 106.5 323 L 110 324.5 L 108.5 325 L 106.5 323 Z " /><path fill="rgb(0,0,0)" stroke="rgb(0,0,0)" stroke-width="1" opacity="0.996078431372549" d="M 217.5 332 L 220 332.5 L 217.5 333 L 217.5 332 Z " /><path fill="rgb(0,0,0)" stroke="rgb(0,0,0)" stroke-width="1" opacity="0.996078431372549" d="M 134.5 333 L 137 333.5 L 134.5 334 L 134.5 333 Z " /><path fill="rgb(0,0,0)" stroke="rgb(0,0,0)" stroke-width="1" opacity="0.996078431372549" d="M 213.5 333 L 216 333.5 L 213.5 334 L 213.5 333 Z " /><path fill="rgb(0,0,0)" stroke="rgb(0,0,0)" stroke-width="1" opacity="0.996078431372549" d="M 138.5 334 L 141 334.5 L 138.5 335 L 138.5 334 Z " /><path fill="rgb(0,0,0)" stroke="rgb(0,0,0)" stroke-width="1" opacity="0.996078431372549" d="M 209.5 334 L 212 334.5 L 209.5 335 L 209.5 334 Z " /><path fill="rgb(0,0,0)" stroke="rgb(0,0,0)" stroke-width="1" opacity="0.996078431372549" d="M 143.5 335 L 146 335.5 L 143.5 336 L 143.5 335 Z " /><path fill="rgb(0,0,0)" stroke="rgb(0,0,0)" stroke-width="1" opacity="0.996078431372549" d="M 204.5 335 L 207 335.5 L 204.5 336 L 204.5 335 Z " /><path fill="rgb(0,0,0)" stroke="rgb(0,0,0)" stroke-width="1" opacity="0.996078431372549" d="M 149.5 336 L 152 336.5 L 149.5 337 L 149.5 336 Z " /><path fill="rgb(0,0,0)" stroke="rgb(0,0,0)" stroke-width="1" opacity="0.996078431372549" d="M 198.5 336 L 201 336.5 L 198.5 337 L 198.5 336 Z " /><path fill="rgb(0,0,0)" stroke="rgb(0,0,0)" stroke-width="1" opacity="0.996078431372549" d="M 156.5 337 L 162 337.5 L 156.5 338 L 156.5 337 Z " /><path fill="rgb(0,0,0)" stroke="rgb(0,0,0)" stroke-width="1" opacity="0.996078431372549" d="M 188.5 337 L 194 337.5 L 188.5 338 L 188.5 337 Z " /><path fill="rgb(0,0,0)" stroke="rgb(0,0,0)" stroke-width="1" opacity="0.996078431372549" d="M 169.5 338 L 181 338.5 L 169.5 339 L 169.5 338 Z " /><path fill="rgb(0,0,0)" stroke="rgb(0,0,0)" stroke-width="1" opacity="1" d="M 259.5 35 Q 278.1 45.9 292 61.5 L 282.5 65 L 264.5 67 L 254.5 71 L 246.5 71 Q 240.8 72.3 238 76.5 Q 236.9 84.1 241.5 86 L 249 91.5 L 257 104 L 263.5 105 L 274.5 100 L 306.5 78 L 309 84 L 286.5 100 L 263.5 112 L 258 107.5 Q 249.5 94 237.5 84 L 225.5 78 L 223 81.5 L 227 88.5 L 228 93.5 Q 227.3 95.8 223.5 95 L 214.5 89 L 212 90 L 216 97.5 L 216 101.5 L 214.5 103 L 209 97.5 L 206.5 94 L 203 95.5 L 208 103.5 L 208 108 L 200 101.5 L 197.5 98 L 194 99.5 Q 198.7 103.3 200 110.5 L 197.5 114 L 191.5 113 L 182 105.5 Q 181.3 98.8 184 95.5 L 193.5 85 L 205.5 78 L 217.5 77 L 219 77.5 Q 227.9 61.4 241.5 50 L 259.5 35 Z " /><path fill="rgb(0,0,0)" stroke="rgb(0,0,0)" stroke-width="1" opacity="1" d="M 63.5 61 L 90.5 61 L 112.5 65 Q 133 71.5 146 85.5 Q 161.9 102.1 170.5 126 L 171 122.5 L 170 119.5 L 172.5 116 L 182 112 L 182 116.5 L 189 130.5 Q 186.4 134.4 180.5 135 L 174 130.5 L 172.5 128 L 172 130.5 L 175 135.5 L 192 181.5 L 198.5 192 L 201.5 194 L 210.5 196 L 247.5 197 L 248.5 196 L 256.5 196 L 266.5 194 L 275.5 191 L 281 187.5 L 266.5 169 L 245 151.5 L 241 141.5 L 237.5 138 Q 232.8 134.7 223.5 136 L 216.5 138 L 205.5 138 Q 197.5 135.5 193 129.5 L 184 113.5 L 185.5 113 L 192.5 118 L 198.5 118 L 202 115.5 L 203 111 L 209.5 112 Q 212.7 110.7 212.5 106 L 215.5 107 L 220 103.5 L 220.5 98 Q 222 100.5 227.5 99 L 231 96.5 L 232 90.5 L 228 84.5 L 229.5 84 L 244 95.5 L 259.5 115 Q 264.2 120.3 276.5 118 L 301.5 130 L 324.5 144 L 334 152.5 L 337 156.5 Q 335.7 161.3 338 162.5 L 338 188.5 L 332 220.5 L 323.5 231 L 309.5 240 L 269.5 255 L 257 264.5 Q 251.8 270.3 254 283.5 L 263 307.5 L 263 313 Q 244.6 324.9 220.5 332 L 197.5 337 L 162.5 338 L 161.5 337 L 146.5 336 L 129.5 332 L 97.5 319 Q 70.4 304.1 51 281.5 L 49 277.5 L 61.5 264 Q 82.3 257.8 95 243.5 L 101 234.5 L 102 229.5 Q 100.8 226.8 99.5 229 Q 96.9 228.2 98 231.5 Q 93.3 241.8 84.5 248 L 60.5 260 L 51 268.5 L 46.5 274 L 43 271.5 L 43 269.5 L 53.5 259 L 76.5 247 L 92 231.5 Q 95.9 228.5 95 222 L 91 223.5 L 90 227.5 L 77.5 241 Q 69.3 248.8 56.5 252 L 43 263.5 L 40.5 267 L 33 254.5 L 39.5 248 L 70.5 233 L 83 222.5 Q 90.3 215.3 88 198.5 Q 85.7 187.8 80 180.5 L 54 151.5 L 37 128.5 L 30 115.5 L 27 105.5 Q 38.7 80.2 57.5 62 Q 62.3 63.3 63.5 61 Z M 97 78 L 85 81 L 79 85 Q 72 91 69 101 L 69 119 L 74 136 L 81 149 L 95 165 L 102 179 L 110 186 L 113 185 L 108 177 L 108 175 L 117 183 L 120 181 Q 120 171 115 167 L 116 164 L 118 171 L 123 174 Q 127 175 128 172 L 127 162 L 127 160 L 133 168 Q 139 169 140 165 L 140 162 L 136 156 L 137 154 L 137 156 L 141 158 Q 145 159 145 156 Q 146 150 143 148 L 145 147 L 147 154 L 151 156 Q 155 157 156 155 Q 157 150 154 149 L 155 147 L 162 152 L 164 151 L 167 147 L 165 140 L 156 130 L 154 114 L 149 106 Q 140 93 127 86 L 112 80 L 97 78 Z M 237 94 Q 234 95 235 101 L 230 104 L 225 103 L 222 107 Q 221 110 216 109 L 214 112 L 210 115 L 206 114 L 204 118 L 200 120 Q 197 121 198 125 L 206 128 L 218 128 L 246 115 L 250 110 L 244 101 L 237 94 Z M 176 120 L 174 122 Q 174 127 178 129 Q 182 127 181 131 L 184 132 L 185 130 L 183 121 Q 181 119 176 120 Z M 169 157 L 166 163 L 165 161 L 162 158 Q 157 157 156 161 Q 155 167 158 169 L 158 170 L 154 168 L 152 172 L 148 167 Q 142 166 141 171 Q 140 176 142 178 L 142 179 L 137 176 Q 132 175 131 179 Q 130 183 133 184 L 126 185 Q 122 187 123 193 L 127 196 L 140 199 L 155 199 L 165 195 L 172 188 L 176 179 Q 175 174 177 173 L 177 168 L 175 161 Q 174 156 169 157 Z M 288 191 Q 279 199 267 202 L 244 206 L 229 207 L 228 208 L 212 207 L 200 203 L 198 206 L 202 208 L 217 212 L 229 212 L 230 211 L 238 211 L 239 210 L 246 210 L 247 209 L 264 207 Q 277 204 287 197 L 290 194 L 288 191 Z M 181 193 L 179 194 L 176 197 L 171 209 L 168 203 L 163 199 L 160 200 L 155 207 Q 156 210 153 209 Q 152 204 148 201 Q 139 200 136 203 L 135 207 L 137 213 L 137 214 L 121 206 L 117 206 L 116 209 L 119 212 L 121 211 L 125 214 L 136 218 L 153 220 L 152 224 L 152 237 L 154 246 L 156 247 L 158 246 L 156 236 L 157 222 Q 166 231 169 247 L 173 246 Q 169 230 161 220 L 159 220 L 166 218 L 173 213 L 179 201 Q 178 198 182 199 L 184 196 L 181 193 Z M 213 235 L 210 238 L 207 251 L 207 256 L 203 260 L 203 263 L 206 266 L 205 267 L 207 277 L 212 280 Q 218 281 221 278 Q 229 274 229 261 Q 229 258 225 258 Q 221 260 221 267 L 217 272 L 213 272 L 213 261 L 227 248 Q 228 243 225 242 L 221 243 L 216 247 L 218 239 L 217 236 L 213 235 Z M 201 243 L 198 246 L 190 264 L 190 263 L 189 252 Q 188 248 184 249 L 181 253 L 182 255 L 182 282 Q 183 285 188 284 L 193 277 Q 192 273 195 274 L 201 282 L 205 281 L 206 279 L 198 266 L 204 252 L 205 246 Q 204 243 201 243 Z M 170 256 L 165 258 Q 159 262 157 269 L 155 282 L 154 283 Q 150 282 152 288 L 155 289 L 157 293 L 165 298 Q 172 298 176 294 L 183 286 L 182 284 Q 181 281 177 282 L 174 286 L 168 290 Q 164 290 163 288 Q 162 284 165 285 L 174 275 L 178 265 L 177 260 Q 175 256 170 256 Z M 151 266 L 144 273 L 143 270 L 139 269 L 136 272 L 135 276 L 135 291 L 136 292 L 137 304 L 141 306 L 144 304 L 144 296 L 143 295 L 143 287 L 156 271 L 155 267 L 151 266 Z " /><path fill="rgb(0,0,0)" stroke="rgb(0,0,0)" stroke-width="1" opacity="1" d="M 91.5 83 L 106.5 83 L 116.5 86 Q 132.3 91.7 142 103.5 L 150 114.5 L 152 130.5 L 163 145.5 L 159.5 147 L 153.5 140 Q 149.8 139.3 149 141.5 Q 148.3 148.7 152 151.5 L 150 150.5 Q 149.6 145 145.5 143 Q 140 142 139 145.5 L 141 152.5 L 137.5 150 L 134.5 149 L 131 151.5 L 131 154.5 L 136 164 L 132 163 L 127.5 155 Q 122.1 153.1 123 156.5 L 122 160.5 Q 124.6 163.4 124 169.5 L 121 167.5 Q 120.4 161.6 116.5 159 Q 111.1 157.1 112 160.5 Q 109.8 161.8 111 166.5 L 116 177.5 L 113 175.5 L 109.5 171 L 105 171 Q 106 174 103 173 L 99 163.5 L 83 144.5 L 77 132.5 L 73 117.5 L 73 101.5 Q 75.1 91.6 82.5 87 L 91.5 83 Z M 112 91 L 108 96 L 110 105 L 117 119 Q 120 124 127 126 Q 135 127 137 123 L 137 115 L 130 104 L 120 93 Q 117 90 112 91 Z M 93 107 L 90 108 L 85 114 Q 89 131 99 143 L 108 148 L 112 147 L 116 141 Q 115 127 108 119 L 98 108 L 93 107 Z M 125 130 L 123 132 L 123 145 L 126 148 Q 132 148 135 145 Q 139 145 138 140 L 130 131 L 125 130 Z " /><path fill="rgb(0,0,0)" stroke="rgb(0,0,0)" stroke-width="1" opacity="1" d="M 122.5 107 Q 127.5 106.5 128 110.5 L 131 117.5 Q 130.5 120.5 126.5 120 L 123 117.5 L 120 109.5 L 122.5 107 Z " /><path fill="rgb(0,0,0)" stroke="rgb(0,0,0)" stroke-width="1" opacity="1" d="M 100.5 128 Q 106 127 107 130.5 Q 110.9 133.1 110 140.5 Q 109.3 142.8 105.5 142 Q 99.4 138.6 99 129.5 L 100.5 128 Z " /><path fill="rgb(0,0,0)" stroke="rgb(0,0,0)" stroke-width="1" opacity="1" d="M 129.5 137 Q 134.5 139.5 129.5 142 Q 126.5 142.9 128 138.5 L 129.5 137 Z " /><path fill="rgb(0,0,0)" stroke="rgb(0,0,0)" stroke-width="1" opacity="1" d="M 160.5 162 L 164.5 170 Q 168.9 171.5 168 168.5 L 170.5 162 L 172 163.5 Q 170.5 169 173 170.5 L 170 183.5 L 164.5 190 Q 157 197 140.5 195 L 127 192 L 128.5 188 L 137.5 189 Q 139.8 188.3 139 184.5 L 135.5 180 Q 137.4 183.6 143.5 183 Q 147 182 146 176.5 L 145 171 L 148 172.5 Q 148.3 177.3 151.5 179 Q 155.3 179.8 156 177.5 L 156.5 174 L 160.5 175 Q 163.3 173.8 162 168.5 Q 159 166 160.5 162 Z " /><path fill="rgb(0,0,0)" stroke="rgb(0,0,0)" stroke-width="1" opacity="1" d="M 161.5 204 Q 165.5 203.5 166 206.5 L 166 213 L 163.5 213 L 158 214 Q 157.7 207.4 161.5 204 Z " /><path fill="rgb(0,0,0)" stroke="rgb(0,0,0)" stroke-width="1" opacity="1" d="M 141.5 205 Q 146.8 203.8 148 206.5 L 153 215.5 L 148.5 216 Q 142.8 214.8 140 210.5 Q 139 206 141.5 205 Z " /><path fill="rgb(0,0,0)" stroke="rgb(0,0,0)" stroke-width="1" opacity="1" d="M 169.5 264 L 170 265.5 L 163.5 275 L 164 273.5 Q 163.4 266.9 167.5 265 L 169.5 264 Z " /><path fill="rgb(93,99,5)" stroke="rgb(93,99,5)" stroke-width="1" opacity="0.996078431372549" d="M 257.5 36 L 256.5 38 L 257.5 36 Z " /><path fill="rgb(93,99,5)" stroke="rgb(93,99,5)" stroke-width="1" opacity="0.996078431372549" d="M 252.5 40 L 250.5 43 L 252.5 40 Z " /><path fill="rgb(93,99,5)" stroke="rgb(93,99,5)" stroke-width="1" opacity="0.996078431372549" d="M 246.5 45 L 242.5 50 L 246.5 45 Z " /><path fill="rgb(93,99,5)" stroke="rgb(93,99,5)" stroke-width="1" opacity="0.996078431372549" d="M 73.5 60 L 84 60.5 L 73.5 61 L 73.5 60 Z " /><path fill="rgb(93,99,5)" stroke="rgb(93,99,5)" stroke-width="1" opacity="0.996078431372549" d="M 231.5 60 L 228.5 64 L 231.5 60 Z " /><path fill="rgb(93,99,5)" stroke="rgb(93,99,5)" stroke-width="1" opacity="0.996078431372549" d="M 57.5 61 L 63 61.5 L 57.5 62 L 57.5 61 Z " /><path fill="rgb(93,99,5)" stroke="rgb(93,99,5)" stroke-width="1" opacity="0.996078431372549" d="M 91.5 61 L 97 61.5 L 91.5 62 L 91.5 61 Z " /><path fill="rgb(93,99,5)" stroke="rgb(93,99,5)" stroke-width="1" opacity="0.996078431372549" d="M 100.5 62 L 103 62.5 L 100.5 63 L 100.5 62 Z " /><path fill="rgb(93,99,5)" stroke="rgb(93,99,5)" stroke-width="1" opacity="0.996078431372549" d="M 105.5 63 L 108 63.5 L 105.5 64 L 105.5 63 Z " /><path fill="rgb(93,99,5)" stroke="rgb(93,99,5)" stroke-width="1" opacity="0.996078431372549" d="M 278.5 65 L 281 65.5 L 278.5 66 L 278.5 65 Z " /><path fill="rgb(93,99,5)" stroke="rgb(93,99,5)" stroke-width="1" opacity="0.996078431372549" d="M 268.5 66 L 273 66.5 L 268.5 67 L 268.5 66 Z " /><path fill="rgb(93,99,5)" stroke="rgb(93,99,5)" stroke-width="1" opacity="0.996078431372549" d="M 225.5 67 L 224.5 69 L 225.5 67 Z " /><path fill="rgb(93,99,5)" stroke="rgb(93,99,5)" stroke-width="1" opacity="0.996078431372549" d="M 123.5 69 L 126 70.5 L 124.5 70 L 123.5 69 Z " /><path fill="rgb(93,99,5)" stroke="rgb(93,99,5)" stroke-width="1" opacity="0.996078431372549" d="M 246.5 71 L 251 71.5 L 246.5 72 L 246.5 71 Z " /><path fill="rgb(93,99,5)" stroke="rgb(93,99,5)" stroke-width="1" opacity="0.996078431372549" d="M 131.5 73 L 132.5 75 L 131.5 73 Z " /><path fill="rgb(93,99,5)" stroke="rgb(93,99,5)" stroke-width="1" opacity="0.996078431372549" d="M 134.5 75 L 135.5 77 L 134.5 75 Z " /><path fill="rgb(93,99,5)" stroke="rgb(93,99,5)" stroke-width="1" opacity="0.996078431372549" d="M 96.5 78 L 101 78.5 L 96.5 79 L 96.5 78 Z " /><path fill="rgb(93,99,5)" stroke="rgb(93,99,5)" stroke-width="1" opacity="0.996078431372549" d="M 138.5 78 L 142.5 83 L 138.5 78 Z " /><path fill="rgb(93,99,5)" stroke="rgb(93,99,5)" stroke-width="1" opacity="0.996078431372549" d="M 305.5 78 L 304.5 80 L 305.5 78 Z " /><path fill="rgb(93,99,5)" stroke="rgb(93,99,5)" stroke-width="1" opacity="0.996078431372549" d="M 105.5 79 L 108 79.5 L 105.5 80 L 105.5 79 Z " /><path fill="rgb(93,99,5)" stroke="rgb(93,99,5)" stroke-width="1" opacity="0.996078431372549" d="M 198.5 81 L 197.5 83 L 198.5 81 Z " /><path fill="rgb(93,99,5)" stroke="rgb(93,99,5)" stroke-width="1" opacity="0.996078431372549" d="M 301.5 81 L 300.5 83 L 301.5 81 Z " /><path fill="rgb(93,99,5)" stroke="rgb(93,99,5)" stroke-width="1" opacity="0.996078431372549" d="M 93.5 82 L 105 82.5 L 93.5 83 L 93.5 82 Z " /><path fill="rgb(93,99,5)" stroke="rgb(93,99,5)" stroke-width="1" opacity="0.996078431372549" d="M 195.5 83 L 194.5 85 L 195.5 83 Z " /><path fill="rgb(93,99,5)" stroke="rgb(93,99,5)" stroke-width="1" opacity="0.996078431372549" d="M 239.5 83 L 241.5 86 L 239.5 83 Z " /><path fill="rgb(93,99,5)" stroke="rgb(93,99,5)" stroke-width="1" opacity="0.996078431372549" d="M 237.5 84 L 238.5 86 L 237.5 84 Z " /><path fill="rgb(93,99,5)" stroke="rgb(93,99,5)" stroke-width="1" opacity="0.996078431372549" d="M 307.5 84 L 306.5 86 L 307.5 84 Z " /><path fill="rgb(93,99,5)" stroke="rgb(93,99,5)" stroke-width="1" opacity="0.996078431372549" d="M 78.5 85 L 75.5 89 L 78.5 85 Z " /><path fill="rgb(93,99,5)" stroke="rgb(93,99,5)" stroke-width="1" opacity="0.996078431372549" d="M 295.5 85 L 294.5 87 L 295.5 85 Z " /><path fill="rgb(93,99,5)" stroke="rgb(93,99,5)" stroke-width="1" opacity="0.996078431372549" d="M 146.5 86 L 150.5 91 L 146.5 86 Z " /><path fill="rgb(93,99,5)" stroke="rgb(93,99,5)" stroke-width="1" opacity="0.996078431372549" d="M 81.5 87 L 77.5 92 L 81.5 87 Z " /><path fill="rgb(93,99,5)" stroke="rgb(93,99,5)" stroke-width="1" opacity="0.996078431372549" d="M 190.5 87 L 188.5 90 L 190.5 87 Z " /><path fill="rgb(93,99,5)" stroke="rgb(93,99,5)" stroke-width="1" opacity="0.996078431372549" d="M 235.5 87 L 237.5 90 L 235.5 87 Z " /><path fill="rgb(93,99,5)" stroke="rgb(93,99,5)" stroke-width="1" opacity="0.996078431372549" d="M 303.5 87 L 301.5 90 L 303.5 87 Z " /><path fill="rgb(93,99,5)" stroke="rgb(93,99,5)" stroke-width="1" opacity="0.996078431372549" d="M 231.5 90 L 232 94.5 L 231 94.5 L 231.5 90 Z " /><path fill="rgb(93,99,5)" stroke="rgb(93,99,5)" stroke-width="1" opacity="0.996078431372549" d="M 111.5 91 L 116 91.5 L 111.5 92 L 111.5 91 Z " /><path fill="rgb(93,99,5)" stroke="rgb(93,99,5)" stroke-width="1" opacity="0.996078431372549" d="M 134.5 91 L 135.5 93 L 134.5 91 Z " /><path fill="rgb(93,99,5)" stroke="rgb(93,99,5)" stroke-width="1" opacity="0.996078431372549" d="M 217.5 91 L 218.5 93 L 217.5 91 Z " /><path fill="rgb(93,99,5)" stroke="rgb(93,99,5)" stroke-width="1" opacity="0.996078431372549" d="M 298.5 91 L 297.5 93 L 298.5 91 Z " /><path fill="rgb(93,99,5)" stroke="rgb(93,99,5)" stroke-width="1" opacity="0.996078431372549" d="M 249.5 92 L 250.5 94 L 249.5 92 Z " /><path fill="rgb(93,99,5)" stroke="rgb(93,99,5)" stroke-width="1" opacity="0.996078431372549" d="M 283.5 92 L 282.5 94 L 283.5 92 Z " /><path fill="rgb(93,99,5)" stroke="rgb(93,99,5)" stroke-width="1" opacity="0.996078431372549" d="M 119.5 93 L 120.5 95 L 119.5 93 Z " /><path fill="rgb(93,99,5)" stroke="rgb(93,99,5)" stroke-width="1" opacity="0.996078431372549" d="M 152.5 93 L 153.5 95 L 152.5 93 Z " /><path fill="rgb(93,99,5)" stroke="rgb(93,99,5)" stroke-width="1" opacity="0.996078431372549" d="M 295.5 93 L 294.5 95 L 295.5 93 Z " /><path fill="rgb(93,99,5)" stroke="rgb(93,99,5)" stroke-width="1" opacity="0.996078431372549" d="M 132.5 94 L 133.5 96 L 132.5 94 Z " /><path fill="rgb(93,99,5)" stroke="rgb(93,99,5)" stroke-width="1" opacity="0.996078431372549" d="M 227.5 94 L 226.5 96 L 224 95.5 L 227.5 94 Z " /><path fill="rgb(93,99,5)" stroke="rgb(93,99,5)" stroke-width="1" opacity="0.996078431372549" d="M 236.5 94 L 238 94.5 L 236 95 L 235.5 100 L 235 95.5 L 236.5 94 Z " /><path fill="rgb(93,99,5)" stroke="rgb(93,99,5)" stroke-width="1" opacity="0.996078431372549" d="M 247.5 94 L 249.5 97 L 247.5 94 Z " /><path fill="rgb(93,99,5)" stroke="rgb(93,99,5)" stroke-width="1" opacity="0.996078431372549" d="M 108.5 95 L 109 98.5 L 108 98.5 L 108.5 95 Z " /><path fill="rgb(93,99,5)" stroke="rgb(93,99,5)" stroke-width="1" opacity="0.996078431372549" d="M 207.5 95 L 208.5 97 L 207.5 95 Z " /><path fill="rgb(93,99,5)" stroke="rgb(93,99,5)" stroke-width="1" opacity="0.996078431372549" d="M 279.5 95 L 277.5 98 L 279.5 95 Z " /><path fill="rgb(93,99,5)" stroke="rgb(93,99,5)" stroke-width="1" opacity="0.996078431372549" d="M 230.5 96 L 229.5 98 L 230.5 96 Z " /><path fill="rgb(93,99,5)" stroke="rgb(93,99,5)" stroke-width="1" opacity="0.996078431372549" d="M 244.5 96 L 246.5 99 L 244.5 96 Z " /><path fill="rgb(93,99,5)" stroke="rgb(93,99,5)" stroke-width="1" opacity="0.996078431372549" d="M 155.5 97 L 156.5 99 L 155.5 97 Z " /><path fill="rgb(93,99,5)" stroke="rgb(93,99,5)" stroke-width="1" opacity="0.996078431372549" d="M 204.5 97 L 205.5 99 L 204.5 97 Z " /><path fill="rgb(93,99,5)" stroke="rgb(93,99,5)" stroke-width="1" opacity="0.996078431372549" d="M 219 97 L 223 98.5 L 221.5 99 L 219 98.5 L 219 97 Z " /><path fill="rgb(93,99,5)" stroke="rgb(93,99,5)" stroke-width="1" opacity="0.996078431372549" d="M 240.5 97 L 243.5 101 L 240.5 97 Z " /><path fill="rgb(93,99,5)" stroke="rgb(93,99,5)" stroke-width="1" opacity="0.996078431372549" d="M 195.5 98 L 195 99.5 L 196 101.5 L 194 100.5 L 195.5 98 Z " /><path fill="rgb(93,99,5)" stroke="rgb(93,99,5)" stroke-width="1" opacity="0.996078431372549" d="M 197.5 98 L 199.5 101 L 197.5 98 Z " /><path fill="rgb(93,99,5)" stroke="rgb(93,99,5)" stroke-width="1" opacity="0.996078431372549" d="M 275.5 98 L 274.5 100 L 275.5 98 Z " /><path fill="rgb(93,99,5)" stroke="rgb(93,99,5)" stroke-width="1" opacity="0.996078431372549" d="M 210.5 99 L 213.5 103 L 210.5 99 Z " /><path fill="rgb(93,99,5)" stroke="rgb(93,99,5)" stroke-width="1" opacity="0.996078431372549" d="M 216.5 99 L 217 101.5 L 215 102.5 L 216.5 99 Z " /><path fill="rgb(93,99,5)" stroke="rgb(93,99,5)" stroke-width="1" opacity="0.996078431372549" d="M 254.5 99 L 255.5 101 L 254.5 99 Z " /><path fill="rgb(93,99,5)" stroke="rgb(93,99,5)" stroke-width="1" opacity="0.996078431372549" d="M 69.5 100 L 70 102.5 L 69 102.5 L 69.5 100 Z " /><path fill="rgb(93,99,5)" stroke="rgb(93,99,5)" stroke-width="1" opacity="0.996078431372549" d="M 157.5 100 L 158.5 102 L 157.5 100 Z " /><path fill="rgb(93,99,5)" stroke="rgb(93,99,5)" stroke-width="1" opacity="0.996078431372549" d="M 252.5 100 L 253.5 102 L 252.5 100 Z " /><path fill="rgb(93,99,5)" stroke="rgb(93,99,5)" stroke-width="1" opacity="0.996078431372549" d="M 127.5 101 L 129.5 104 L 127.5 101 Z " /><path fill="rgb(93,99,5)" stroke="rgb(93,99,5)" stroke-width="1" opacity="0.996078431372549" d="M 234.5 101 L 233.5 103 L 234.5 101 Z " /><path fill="rgb(93,99,5)" stroke="rgb(93,99,5)" stroke-width="1" opacity="0.996078431372549" d="M 283.5 101 L 282.5 103 L 283.5 101 Z " /><path fill="rgb(93,99,5)" stroke="rgb(93,99,5)" stroke-width="1" opacity="0.996078431372549" d="M 219.5 102 L 220 103.5 L 217 105.5 L 219.5 102 Z " /><path fill="rgb(93,99,5)" stroke="rgb(93,99,5)" stroke-width="1" opacity="0.996078431372549" d="M 249.5 102 L 251.5 105 L 249.5 102 Z " /><path fill="rgb(93,99,5)" stroke="rgb(93,99,5)" stroke-width="1" opacity="0.996078431372549" d="M 146.5 103 L 148.5 106 L 146.5 103 Z " /><path fill="rgb(93,99,5)" stroke="rgb(93,99,5)" stroke-width="1" opacity="0.996078431372549" d="M 201.5 103 L 208 108 L 208.5 104 L 209 107.5 L 206.5 109 L 201.5 103 Z " /><path fill="rgb(93,99,5)" stroke="rgb(93,99,5)" stroke-width="1" opacity="0.996078431372549" d="M 224.5 103 L 229 103.5 L 224.5 104 L 224.5 103 Z " /><path fill="rgb(93,99,5)" stroke="rgb(93,99,5)" stroke-width="1" opacity="0.996078431372549" d="M 72.5 104 L 73 114.5 L 72 114.5 L 72.5 104 Z " /><path fill="rgb(93,99,5)" stroke="rgb(93,99,5)" stroke-width="1" opacity="0.996078431372549" d="M 142.5 104 L 144.5 107 L 142.5 104 Z " /><path fill="rgb(93,99,5)" stroke="rgb(93,99,5)" stroke-width="1" opacity="0.996078431372549" d="M 256.5 105 L 257.5 107 L 256.5 105 Z " /><path fill="rgb(93,99,5)" stroke="rgb(93,99,5)" stroke-width="1" opacity="0.996078431372549" d="M 276.5 105 L 275.5 107 L 276.5 105 Z " /><path fill="rgb(93,99,5)" stroke="rgb(93,99,5)" stroke-width="1" opacity="0.996078431372549" d="M 213.5 106 L 216 106.5 L 213.5 107 L 213.5 106 Z " /><path fill="rgb(93,99,5)" stroke="rgb(93,99,5)" stroke-width="1" opacity="0.996078431372549" d="M 92.5 107 L 95 107.5 L 92.5 108 L 92.5 107 Z " /><path fill="rgb(93,99,5)" stroke="rgb(93,99,5)" stroke-width="1" opacity="0.996078431372549" d="M 121.5 107 L 120.5 109 L 121.5 107 Z " /><path fill="rgb(93,99,5)" stroke="rgb(93,99,5)" stroke-width="1" opacity="0.996078431372549" d="M 132.5 107 L 133.5 109 L 132.5 107 Z " /><path fill="rgb(93,99,5)" stroke="rgb(93,99,5)" stroke-width="1" opacity="0.996078431372549" d="M 221.5 107 L 220.5 109 L 221.5 107 Z " /><path fill="rgb(93,99,5)" stroke="rgb(93,99,5)" stroke-width="1" opacity="0.996078431372549" d="M 253.5 107 L 255.5 110 L 253.5 107 Z " /><path fill="rgb(93,99,5)" stroke="rgb(93,99,5)" stroke-width="1" opacity="0.996078431372549" d="M 97.5 108 L 98.5 110 L 97.5 108 Z " /><path fill="rgb(93,99,5)" stroke="rgb(93,99,5)" stroke-width="1" opacity="0.996078431372549" d="M 126.5 108 L 127.5 110 L 126.5 108 Z " /><path fill="rgb(93,99,5)" stroke="rgb(93,99,5)" stroke-width="1" opacity="0.996078431372549" d="M 185.5 108 L 186.5 110 L 185.5 108 Z " /><path fill="rgb(93,99,5)" stroke="rgb(93,99,5)" stroke-width="1" opacity="0.996078431372549" d="M 211.5 108 L 212 109.5 L 209 111.5 L 211.5 108 Z " /><path fill="rgb(93,99,5)" stroke="rgb(93,99,5)" stroke-width="1" opacity="0.996078431372549" d="M 215.5 109 L 214.5 111 L 215.5 109 Z " /><path fill="rgb(93,99,5)" stroke="rgb(93,99,5)" stroke-width="1" opacity="0.996078431372549" d="M 128.5 111 L 129.5 113 L 128.5 111 Z " /><path fill="rgb(93,99,5)" stroke="rgb(93,99,5)" stroke-width="1" opacity="0.996078431372549" d="M 180.5 111 L 182 111.5 L 179.5 113 L 180.5 111 Z " /><path fill="rgb(93,99,5)" stroke="rgb(93,99,5)" stroke-width="1" opacity="0.996078431372549" d="M 213.5 112 L 211.5 115 L 210 114.5 L 213.5 112 Z " /><path fill="rgb(93,99,5)" stroke="rgb(93,99,5)" stroke-width="1" opacity="0.996078431372549" d="M 246.5 113 L 245.5 115 L 246.5 113 Z " /><path fill="rgb(93,99,5)" stroke="rgb(93,99,5)" stroke-width="1" opacity="0.996078431372549" d="M 258.5 113 L 259.5 115 L 258.5 113 Z " /><path fill="rgb(93,99,5)" stroke="rgb(93,99,5)" stroke-width="1" opacity="0.996078431372549" d="M 174.5 114 L 173.5 116 L 174.5 114 Z " /><path fill="rgb(93,99,5)" stroke="rgb(93,99,5)" stroke-width="1" opacity="0.996078431372549" d="M 205.5 114 L 208 114.5 L 205 115 Q 205.8 118.8 202.5 120 L 201 119.5 L 204 117.5 L 205.5 114 Z " /><path fill="rgb(93,99,5)" stroke="rgb(93,99,5)" stroke-width="1" opacity="0.996078431372549" d="M 69.5 115 L 70 118.5 L 69 118.5 L 69.5 115 Z " /><path fill="rgb(93,99,5)" stroke="rgb(93,99,5)" stroke-width="1" opacity="0.996078431372549" d="M 201.5 115 L 200.5 117 L 201.5 115 Z " /><path fill="rgb(93,99,5)" stroke="rgb(93,99,5)" stroke-width="1" opacity="0.996078431372549" d="M 106.5 117 L 107.5 119 L 106.5 117 Z " /><path fill="rgb(93,99,5)" stroke="rgb(93,99,5)" stroke-width="1" opacity="0.996078431372549" d="M 154.5 117 L 155 120.5 L 154 120.5 L 154.5 117 Z " /><path fill="rgb(93,99,5)" stroke="rgb(93,99,5)" stroke-width="1" opacity="0.996078431372549" d="M 264.5 117 L 275 117.5 L 264.5 118 L 264.5 117 Z " /><path fill="rgb(93,99,5)" stroke="rgb(93,99,5)" stroke-width="1" opacity="0.996078431372549" d="M 117.5 118 L 118.5 120 L 117.5 118 Z " /><path fill="rgb(93,99,5)" stroke="rgb(93,99,5)" stroke-width="1" opacity="0.996078431372549" d="M 130.5 118 L 129.5 120 L 130.5 118 Z " /><path fill="rgb(93,99,5)" stroke="rgb(93,99,5)" stroke-width="1" opacity="0.996078431372549" d="M 175.5 120 L 174.5 122 L 175.5 120 Z " /><path fill="rgb(93,99,5)" stroke="rgb(93,99,5)" stroke-width="1" opacity="0.996078431372549" d="M 199.5 120 L 198.5 122 L 199.5 120 Z " /><path fill="rgb(93,99,5)" stroke="rgb(93,99,5)" stroke-width="1" opacity="0.996078431372549" d="M 151.5 121 L 152 126.5 L 151 126.5 L 151.5 121 Z " /><path fill="rgb(93,99,5)" stroke="rgb(93,99,5)" stroke-width="1" opacity="0.996078431372549" d="M 136.5 122 L 134.5 125 L 136.5 122 Z " /><path fill="rgb(93,99,5)" stroke="rgb(93,99,5)" stroke-width="1" opacity="0.996078431372549" d="M 169 122 Q 172.3 120.7 171 125.5 L 174 129.5 L 172 130.5 L 169 122 Z " /><path fill="rgb(93,99,5)" stroke="rgb(93,99,5)" stroke-width="1" opacity="0.996078431372549" d="M 198.5 124 L 199.5 126 L 198.5 124 Z " /><path fill="rgb(93,99,5)" stroke="rgb(93,99,5)" stroke-width="1" opacity="0.996078431372549" d="M 126.5 125 L 129 125.5 L 126.5 126 L 126.5 125 Z " /><path fill="rgb(93,99,5)" stroke="rgb(93,99,5)" stroke-width="1" opacity="0.996078431372549" d="M 130.5 125 L 133 125.5 L 130.5 126 L 130.5 125 Z " /><path fill="rgb(93,99,5)" stroke="rgb(93,99,5)" stroke-width="1" opacity="0.996078431372549" d="M 175.5 125 L 178 128.5 L 175 126.5 L 175.5 125 Z " /><path fill="rgb(93,99,5)" stroke="rgb(93,99,5)" stroke-width="1" opacity="0.996078431372549" d="M 101.5 127 L 104 127.5 L 101.5 128 L 101.5 127 Z " /><path fill="rgb(93,99,5)" stroke="rgb(93,99,5)" stroke-width="1" opacity="0.996078431372549" d="M 191.5 127 L 192.5 129 L 191.5 127 Z " /><path fill="rgb(93,99,5)" stroke="rgb(93,99,5)" stroke-width="1" opacity="0.996078431372549" d="M 205.5 127 L 211 127.5 L 205.5 128 L 205.5 127 Z " /><path fill="rgb(93,99,5)" stroke="rgb(93,99,5)" stroke-width="1" opacity="0.996078431372549" d="M 212.5 127 L 218 127.5 L 212.5 128 L 212.5 127 Z " /><path fill="rgb(93,99,5)" stroke="rgb(93,99,5)" stroke-width="1" opacity="0.996078431372549" d="M 188.5 128 L 190 130.5 L 188 131.5 L 189 129.5 L 188.5 128 Z " /><path fill="rgb(93,99,5)" stroke="rgb(93,99,5)" stroke-width="1" opacity="0.996078431372549" d="M 124.5 130 L 123.5 132 L 124.5 130 Z " /><path fill="rgb(93,99,5)" stroke="rgb(93,99,5)" stroke-width="1" opacity="0.996078431372549" d="M 156.5 130 L 157.5 132 L 156.5 130 Z " /><path fill="rgb(93,99,5)" stroke="rgb(93,99,5)" stroke-width="1" opacity="0.996078431372549" d="M 302.5 130 L 303.5 132 L 302.5 130 Z " /><path fill="rgb(93,99,5)" stroke="rgb(93,99,5)" stroke-width="1" opacity="0.996078431372549" d="M 107.5 131 L 108.5 133 L 107.5 131 Z " /><path fill="rgb(93,99,5)" stroke="rgb(93,99,5)" stroke-width="1" opacity="0.996078431372549" d="M 129.5 131 L 131.5 134 L 129.5 131 Z " /><path fill="rgb(93,99,5)" stroke="rgb(93,99,5)" stroke-width="1" opacity="0.996078431372549" d="M 174.5 131 L 176.5 134 Q 174.8 130.9 173 132.5 L 174.5 131 Z " /><path fill="rgb(93,99,5)" stroke="rgb(93,99,5)" stroke-width="1" opacity="0.996078431372549" d="M 153.5 132 L 154.5 134 L 153.5 132 Z " /><path fill="rgb(93,99,5)" stroke="rgb(93,99,5)" stroke-width="1" opacity="0.996078431372549" d="M 198.5 134 L 199.5 136 L 198.5 134 Z " /><path fill="rgb(93,99,5)" stroke="rgb(93,99,5)" stroke-width="1" opacity="0.996078431372549" d="M 309.5 134 L 310.5 136 L 309.5 134 Z " /><path fill="rgb(93,99,5)" stroke="rgb(93,99,5)" stroke-width="1" opacity="0.996078431372549" d="M 110.5 136 L 111 140.5 L 109 141.5 L 110.5 136 Z " /><path fill="rgb(93,99,5)" stroke="rgb(93,99,5)" stroke-width="1" opacity="0.996078431372549" d="M 115.5 136 L 116 140.5 L 115 140.5 L 115.5 136 Z " /><path fill="rgb(93,99,5)" stroke="rgb(93,99,5)" stroke-width="1" opacity="0.996078431372549" d="M 223.5 136 L 233 136.5 L 223.5 137 L 223.5 136 Z " /><path fill="rgb(93,99,5)" stroke="rgb(93,99,5)" stroke-width="1" opacity="0.996078431372549" d="M 95.5 137 L 96.5 139 L 95.5 137 Z " /><path fill="rgb(93,99,5)" stroke="rgb(93,99,5)" stroke-width="1" opacity="0.996078431372549" d="M 157.5 137 L 161.5 142 L 157.5 137 Z " /><path fill="rgb(93,99,5)" stroke="rgb(93,99,5)" stroke-width="1" opacity="0.996078431372549" d="M 162.5 137 L 164.5 140 L 162.5 137 Z " /><path fill="rgb(93,99,5)" stroke="rgb(93,99,5)" stroke-width="1" opacity="0.996078431372549" d="M 217.5 137 L 220 137.5 L 217.5 138 L 217.5 137 Z " /><path fill="rgb(93,99,5)" stroke="rgb(93,99,5)" stroke-width="1" opacity="0.996078431372549" d="M 136.5 138 L 137.5 140 L 136.5 138 Z " /><path fill="rgb(93,99,5)" stroke="rgb(93,99,5)" stroke-width="1" opacity="0.996078431372549" d="M 208.5 138 L 214 138.5 L 208.5 139 L 208.5 138 Z " /><path fill="rgb(93,99,5)" stroke="rgb(93,99,5)" stroke-width="1" opacity="0.996078431372549" d="M 237.5 138 L 240.5 142 L 237.5 138 Z " /><path fill="rgb(93,99,5)" stroke="rgb(93,99,5)" stroke-width="1" opacity="0.996078431372549" d="M 44.5 139 L 45.5 141 L 44.5 139 Z " /><path fill="rgb(93,99,5)" stroke="rgb(93,99,5)" stroke-width="1" opacity="0.996078431372549" d="M 102.5 139 L 103.5 141 L 102.5 139 Z " /><path fill="rgb(93,99,5)" stroke="rgb(93,99,5)" stroke-width="1" opacity="0.996078431372549" d="M 123.5 140 L 124 144.5 L 123 144.5 L 123.5 140 Z " /><path fill="rgb(93,99,5)" stroke="rgb(93,99,5)" stroke-width="1" opacity="0.996078431372549" d="M 131.5 140 L 130.5 142 L 131.5 140 Z " /><path fill="rgb(93,99,5)" stroke="rgb(93,99,5)" stroke-width="1" opacity="0.996078431372549" d="M 150.5 140 L 153.5 140 L 158 144.5 L 153.5 141 L 149.5 142 L 150.5 140 Z " /><path fill="rgb(93,99,5)" stroke="rgb(93,99,5)" stroke-width="1" opacity="0.996078431372549" d="M 319.5 140 L 320.5 142 L 319.5 140 Z " /><path fill="rgb(93,99,5)" stroke="rgb(93,99,5)" stroke-width="1" opacity="0.996078431372549" d="M 99.5 142 L 101.5 145 L 99.5 142 Z " /><path fill="rgb(93,99,5)" stroke="rgb(93,99,5)" stroke-width="1" opacity="0.996078431372549" d="M 141.5 143 L 140 145.5 L 139.5 149 L 139 145.5 L 141.5 143 Z " /><path fill="rgb(93,99,5)" stroke="rgb(93,99,5)" stroke-width="1" opacity="0.996078431372549" d="M 166.5 143 L 167 146.5 L 166 146.5 L 166.5 143 Z " /><path fill="rgb(93,99,5)" stroke="rgb(93,99,5)" stroke-width="1" opacity="0.996078431372549" d="M 48.5 144 L 49.5 146 L 48.5 144 Z " /><path fill="rgb(93,99,5)" stroke="rgb(93,99,5)" stroke-width="1" opacity="0.996078431372549" d="M 79.5 145 L 80.5 147 L 79.5 145 Z " /><path fill="rgb(93,99,5)" stroke="rgb(93,99,5)" stroke-width="1" opacity="0.996078431372549" d="M 132.5 145 L 131.5 147 L 130 146.5 L 132.5 145 Z " /><path fill="rgb(93,99,5)" stroke="rgb(93,99,5)" stroke-width="1" opacity="0.996078431372549" d="M 149.5 145 L 148.5 147 L 149.5 145 Z " /><path fill="rgb(93,99,5)" stroke="rgb(93,99,5)" stroke-width="1" opacity="0.996078431372549" d="M 153.5 145 L 155.5 148 L 153 147 L 153.5 145 Z " /><path fill="rgb(93,99,5)" stroke="rgb(93,99,5)" stroke-width="1" opacity="0.996078431372549" d="M 84.5 146 L 85.5 148 L 84.5 146 Z " /><path fill="rgb(93,99,5)" stroke="rgb(93,99,5)" stroke-width="1" opacity="0.996078431372549" d="M 124.5 146 L 129 147.5 L 125.5 148 L 124.5 146 Z " /><path fill="rgb(93,99,5)" stroke="rgb(93,99,5)" stroke-width="1" opacity="0.996078431372549" d="M 162.5 146 L 161.5 148 L 160 147.5 L 162.5 146 Z " /><path fill="rgb(93,99,5)" stroke="rgb(93,99,5)" stroke-width="1" opacity="0.996078431372549" d="M 327.5 146 L 329.5 149 L 327.5 146 Z " /><path fill="rgb(93,99,5)" stroke="rgb(93,99,5)" stroke-width="1" opacity="0.996078431372549" d="M 107.5 147 L 110 147.5 L 107.5 148 L 107.5 147 Z " /><path fill="rgb(93,99,5)" stroke="rgb(93,99,5)" stroke-width="1" opacity="0.996078431372549" d="M 51.5 148 L 53.5 151 L 51.5 148 Z " /><path fill="rgb(93,99,5)" stroke="rgb(93,99,5)" stroke-width="1" opacity="0.996078431372549" d="M 81.5 148 L 82.5 150 L 81.5 148 Z " /><path fill="rgb(93,99,5)" stroke="rgb(93,99,5)" stroke-width="1" opacity="0.996078431372549" d="M 150.5 148 L 149.5 150 L 150.5 148 Z " /><path fill="rgb(93,99,5)" stroke="rgb(93,99,5)" stroke-width="1" opacity="0.996078431372549" d="M 132.5 150 L 132 151.5 L 131.5 155 L 131 151.5 L 132.5 150 Z " /><path fill="rgb(93,99,5)" stroke="rgb(93,99,5)" stroke-width="1" opacity="0.996078431372549" d="M 151.5 150 L 150.5 152 L 151.5 150 Z " /><path fill="rgb(93,99,5)" stroke="rgb(93,99,5)" stroke-width="1" opacity="0.996078431372549" d="M 88.5 151 L 91.5 155 L 88.5 151 Z " /><path fill="rgb(93,99,5)" stroke="rgb(93,99,5)" stroke-width="1" opacity="0.996078431372549" d="M 144.5 151 L 145 155.5 Q 144.5 158.5 140.5 158 L 140.5 157 L 144 155.5 L 144.5 151 Z " /><path fill="rgb(93,99,5)" stroke="rgb(93,99,5)" stroke-width="1" opacity="0.996078431372549" d="M 139.5 152 L 140.5 154 L 139.5 152 Z " /><path fill="rgb(93,99,5)" stroke="rgb(93,99,5)" stroke-width="1" opacity="0.996078431372549" d="M 147.5 153 L 148.5 155 L 147.5 153 Z " /><path fill="rgb(93,99,5)" stroke="rgb(93,99,5)" stroke-width="1" opacity="0.996078431372549" d="M 334.5 153 L 336.5 156 L 334.5 153 Z " /><path fill="rgb(93,99,5)" stroke="rgb(93,99,5)" stroke-width="1" opacity="0.996078431372549" d="M 86.5 154 L 90.5 159 L 86.5 154 Z " /><path fill="rgb(93,99,5)" stroke="rgb(93,99,5)" stroke-width="1" opacity="0.996078431372549" d="M 155.5 154 L 154.5 156 L 155.5 154 Z " /><path fill="rgb(93,99,5)" stroke="rgb(93,99,5)" stroke-width="1" opacity="0.996078431372549" d="M 57.5 155 L 62.5 161 L 57.5 155 Z " /><path fill="rgb(93,99,5)" stroke="rgb(93,99,5)" stroke-width="1" opacity="0.996078431372549" d="M 137.5 155 Q 140.5 156.5 137.5 158 L 137.5 155 Z " /><path fill="rgb(93,99,5)" stroke="rgb(93,99,5)" stroke-width="1" opacity="0.996078431372549" d="M 168.5 157 L 167.5 159 L 168.5 157 Z " /><path fill="rgb(93,99,5)" stroke="rgb(93,99,5)" stroke-width="1" opacity="0.996078431372549" d="M 251.5 157 L 252.5 159 L 251.5 157 Z " /><path fill="rgb(93,99,5)" stroke="rgb(93,99,5)" stroke-width="1" opacity="0.996078431372549" d="M 158.5 158 L 157 160.5 L 156.5 162 L 156 160.5 L 158.5 158 Z " /><path fill="rgb(93,99,5)" stroke="rgb(93,99,5)" stroke-width="1" opacity="0.996078431372549" d="M 95.5 159 L 96.5 161 L 95.5 159 Z " /><path fill="rgb(93,99,5)" stroke="rgb(93,99,5)" stroke-width="1" opacity="0.996078431372549" d="M 116.5 159 L 118.5 162 L 116.5 159 Z " /><path fill="rgb(93,99,5)" stroke="rgb(93,99,5)" stroke-width="1" opacity="0.996078431372549" d="M 126.5 159 Q 129.5 160.5 126.5 162 L 126.5 159 Z " /><path fill="rgb(93,99,5)" stroke="rgb(93,99,5)" stroke-width="1" opacity="0.996078431372549" d="M 163.5 159 L 164.5 161 L 163.5 159 Z " /><path fill="rgb(93,99,5)" stroke="rgb(93,99,5)" stroke-width="1" opacity="0.996078431372549" d="M 166.5 160 L 167 162.5 L 165 163.5 L 166.5 160 Z " /><path fill="rgb(93,99,5)" stroke="rgb(93,99,5)" stroke-width="1" opacity="0.996078431372549" d="M 255.5 160 L 256.5 162 L 255.5 160 Z " /><path fill="rgb(93,99,5)" stroke="rgb(93,99,5)" stroke-width="1" opacity="0.996078431372549" d="M 92.5 161 L 93.5 163 L 92.5 161 Z " /><path fill="rgb(93,99,5)" stroke="rgb(93,99,5)" stroke-width="1" opacity="0.996078431372549" d="M 111.5 161 L 112 166.5 L 111 166.5 L 111.5 161 Z " /><path fill="rgb(93,99,5)" stroke="rgb(93,99,5)" stroke-width="1" opacity="0.996078431372549" d="M 139.5 161 L 140 164.5 L 139 164.5 L 139.5 161 Z " /><path fill="rgb(93,99,5)" stroke="rgb(93,99,5)" stroke-width="1" opacity="0.996078431372549" d="M 170.5 161 L 171.5 163 L 170.5 161 Z " /><path fill="rgb(93,99,5)" stroke="rgb(93,99,5)" stroke-width="1" opacity="0.996078431372549" d="M 97.5 162 L 98.5 164 L 97.5 162 Z " /><path fill="rgb(93,99,5)" stroke="rgb(93,99,5)" stroke-width="1" opacity="0.996078431372549" d="M 128.5 163 L 128 164.5 L 127.5 166 L 127 164.5 L 128.5 163 Z " /><path fill="rgb(93,99,5)" stroke="rgb(93,99,5)" stroke-width="1" opacity="0.996078431372549" d="M 156.5 163 L 157 165.5 L 156 165.5 L 156.5 163 Z " /><path fill="rgb(93,99,5)" stroke="rgb(93,99,5)" stroke-width="1" opacity="0.996078431372549" d="M 259.5 163 L 260.5 165 L 259.5 163 Z " /><path fill="rgb(93,99,5)" stroke="rgb(93,99,5)" stroke-width="1" opacity="0.996078431372549" d="M 172.5 165 L 173 169.5 L 172 169.5 L 172.5 165 Z " /><path fill="rgb(93,99,5)" stroke="rgb(93,99,5)" stroke-width="1" opacity="0.996078431372549" d="M 68.5 167 L 71.5 171 L 68.5 167 Z " /><path fill="rgb(93,99,5)" stroke="rgb(93,99,5)" stroke-width="1" opacity="0.996078431372549" d="M 117.5 167 L 118 168.5 L 116 169.5 L 117.5 167 Z " /><path fill="rgb(93,99,5)" stroke="rgb(93,99,5)" stroke-width="1" opacity="0.996078431372549" d="M 124.5 167 L 125 169.5 L 124 169.5 L 124.5 167 Z " /><path fill="rgb(93,99,5)" stroke="rgb(93,99,5)" stroke-width="1" opacity="0.996078431372549" d="M 132.5 167 L 137 167.5 L 132.5 168 L 132.5 167 Z " /><path fill="rgb(93,99,5)" stroke="rgb(93,99,5)" stroke-width="1" opacity="0.996078431372549" d="M 144.5 167 L 148 167.5 L 144.5 168 L 144.5 167 Z " /><path fill="rgb(93,99,5)" stroke="rgb(93,99,5)" stroke-width="1" opacity="0.996078431372549" d="M 176.5 167 L 177 172.5 L 176 172.5 L 176.5 167 Z " /><path fill="rgb(93,99,5)" stroke="rgb(93,99,5)" stroke-width="1" opacity="0.996078431372549" d="M 121.5 168 L 122.5 170 L 121.5 168 Z " /><path fill="rgb(93,99,5)" stroke="rgb(93,99,5)" stroke-width="1" opacity="0.996078431372549" d="M 163.5 168 L 164.5 170 L 163.5 168 Z " /><path fill="rgb(93,99,5)" stroke="rgb(93,99,5)" stroke-width="1" opacity="0.996078431372549" d="M 266.5 169 L 268.5 172 L 266.5 169 Z " /><path fill="rgb(93,99,5)" stroke="rgb(93,99,5)" stroke-width="1" opacity="0.996078431372549" d="M 118.5 170 L 120.5 173 Q 118.8 169.9 117 171.5 L 118.5 170 Z " /><path fill="rgb(93,99,5)" stroke="rgb(93,99,5)" stroke-width="1" opacity="0.996078431372549" d="M 109.5 171 L 112.5 175 L 109.5 171 Z " /><path fill="rgb(93,99,5)" stroke="rgb(93,99,5)" stroke-width="1" opacity="0.996078431372549" d="M 127.5 171 L 125.5 174 L 122 173.5 Q 126.3 173.8 127.5 171 Z " /><path fill="rgb(93,99,5)" stroke="rgb(93,99,5)" stroke-width="1" opacity="0.996078431372549" d="M 172.5 171 L 173 175.5 L 172 175.5 L 172.5 171 Z " /><path fill="rgb(93,99,5)" stroke="rgb(93,99,5)" stroke-width="1" opacity="0.996078431372549" d="M 151.5 172 Q 153.8 171.3 153 173.5 L 151.5 172 Z " /><path fill="rgb(93,99,5)" stroke="rgb(93,99,5)" stroke-width="1" opacity="0.996078431372549" d="M 161.5 173 L 160.5 175 L 161.5 173 Z " /><path fill="rgb(93,99,5)" stroke="rgb(93,99,5)" stroke-width="1" opacity="0.996078431372549" d="M 75.5 175 L 76.5 177 L 75.5 175 Z " /><path fill="rgb(93,99,5)" stroke="rgb(93,99,5)" stroke-width="1" opacity="0.996078431372549" d="M 108.5 175 L 109.5 177 L 107 176.5 L 108.5 175 Z " /><path fill="rgb(93,99,5)" stroke="rgb(93,99,5)" stroke-width="1" opacity="0.996078431372549" d="M 133.5 176 L 137 176.5 Q 132.8 176.3 131.5 179 L 133.5 176 Z " /><path fill="rgb(93,99,5)" stroke="rgb(93,99,5)" stroke-width="1" opacity="0.996078431372549" d="M 149.5 176 L 151.5 179 L 149.5 176 Z " /><path fill="rgb(93,99,5)" stroke="rgb(93,99,5)" stroke-width="1" opacity="0.996078431372549" d="M 155.5 177 L 154.5 179 L 155.5 177 Z " /><path fill="rgb(93,99,5)" stroke="rgb(93,99,5)" stroke-width="1" opacity="0.996078431372549" d="M 273.5 177 L 274.5 179 L 273.5 177 Z " /><path fill="rgb(93,99,5)" stroke="rgb(93,99,5)" stroke-width="1" opacity="0.996078431372549" d="M 102.5 178 L 103.5 180 L 102.5 178 Z " /><path fill="rgb(93,99,5)" stroke="rgb(93,99,5)" stroke-width="1" opacity="0.996078431372549" d="M 78.5 179 L 79.5 181 L 78.5 179 Z " /><path fill="rgb(93,99,5)" stroke="rgb(93,99,5)" stroke-width="1" opacity="0.996078431372549" d="M 119.5 180 L 118.5 182 L 119.5 180 Z " /><path fill="rgb(93,99,5)" stroke="rgb(93,99,5)" stroke-width="1" opacity="0.996078431372549" d="M 111.5 182 L 113 184.5 L 112 184.5 L 111.5 182 Z " /><path fill="rgb(93,99,5)" stroke="rgb(93,99,5)" stroke-width="1" opacity="0.996078431372549" d="M 140.5 182 L 144 182.5 L 140.5 183 L 140.5 182 Z " /><path fill="rgb(93,99,5)" stroke="rgb(93,99,5)" stroke-width="1" opacity="0.996078431372549" d="M 125.5 185 L 124.5 187 L 125.5 185 Z " /><path fill="rgb(93,99,5)" stroke="rgb(93,99,5)" stroke-width="1" opacity="0.996078431372549" d="M 279.5 185 L 280.5 187 L 279.5 185 Z " /><path fill="rgb(93,99,5)" stroke="rgb(93,99,5)" stroke-width="1" opacity="0.996078431372549" d="M 129.5 187 L 132 187.5 L 129.5 188 L 129.5 187 Z " /><path fill="rgb(93,99,5)" stroke="rgb(93,99,5)" stroke-width="1" opacity="0.996078431372549" d="M 138.5 187 L 137.5 189 L 138.5 187 Z " /><path fill="rgb(93,99,5)" stroke="rgb(93,99,5)" stroke-width="1" opacity="0.996078431372549" d="M 127.5 188 L 127 189.5 L 126.5 191 L 126 189.5 L 127.5 188 Z " /><path fill="rgb(93,99,5)" stroke="rgb(93,99,5)" stroke-width="1" opacity="0.996078431372549" d="M 163.5 190 L 162.5 192 L 163.5 190 Z " /><path fill="rgb(93,99,5)" stroke="rgb(93,99,5)" stroke-width="1" opacity="0.996078431372549" d="M 197.5 190 L 198.5 192 L 197.5 190 Z " /><path fill="rgb(93,99,5)" stroke="rgb(93,99,5)" stroke-width="1" opacity="0.996078431372549" d="M 128.5 192 L 131 192.5 L 128.5 193 L 128.5 192 Z " /><path fill="rgb(93,99,5)" stroke="rgb(93,99,5)" stroke-width="1" opacity="0.996078431372549" d="M 285.5 192 L 284.5 194 L 285.5 192 Z " /><path fill="rgb(93,99,5)" stroke="rgb(93,99,5)" stroke-width="1" opacity="0.996078431372549" d="M 165.5 193 L 164.5 195 L 165.5 193 Z " /><path fill="rgb(93,99,5)" stroke="rgb(93,99,5)" stroke-width="1" opacity="0.996078431372549" d="M 137.5 194 L 140 194.5 L 137.5 195 L 137.5 194 Z " /><path fill="rgb(93,99,5)" stroke="rgb(93,99,5)" stroke-width="1" opacity="0.996078431372549" d="M 178.5 194 L 176.5 197 L 178.5 194 Z " /><path fill="rgb(93,99,5)" stroke="rgb(93,99,5)" stroke-width="1" opacity="0.996078431372549" d="M 145.5 195 L 150 195.5 L 145.5 196 L 145.5 195 Z " /><path fill="rgb(93,99,5)" stroke="rgb(93,99,5)" stroke-width="1" opacity="0.996078431372549" d="M 210.5 195 L 217 195.5 L 210.5 196 L 210.5 195 Z " /><path fill="rgb(93,99,5)" stroke="rgb(93,99,5)" stroke-width="1" opacity="0.996078431372549" d="M 253.5 195 L 257 195.5 L 253.5 196 L 253.5 195 Z " /><path fill="rgb(93,99,5)" stroke="rgb(93,99,5)" stroke-width="1" opacity="0.996078431372549" d="M 287.5 195 L 286.5 197 L 287.5 195 Z " /><path fill="rgb(93,99,5)" stroke="rgb(93,99,5)" stroke-width="1" opacity="0.996078431372549" d="M 129.5 196 L 132 196.5 L 129.5 197 L 129.5 196 Z " /><path fill="rgb(93,99,5)" stroke="rgb(93,99,5)" stroke-width="1" opacity="0.996078431372549" d="M 224.5 196 L 248 196.5 L 224.5 197 L 224.5 196 Z " /><path fill="rgb(93,99,5)" stroke="rgb(93,99,5)" stroke-width="1" opacity="0.996078431372549" d="M 279.5 196 L 278.5 198 L 275.5 199 L 275.5 198 L 279.5 196 Z " /><path fill="rgb(93,99,5)" stroke="rgb(93,99,5)" stroke-width="1" opacity="0.996078431372549" d="M 134.5 197 L 137 197.5 L 134.5 198 L 134.5 197 Z " /><path fill="rgb(93,99,5)" stroke="rgb(93,99,5)" stroke-width="1" opacity="0.996078431372549" d="M 139.5 198 L 144 198.5 L 139.5 199 L 139.5 198 Z " /><path fill="rgb(93,99,5)" stroke="rgb(93,99,5)" stroke-width="1" opacity="0.996078431372549" d="M 151.5 198 L 155 198.5 L 151.5 199 L 151.5 198 Z " /><path fill="rgb(93,99,5)" stroke="rgb(93,99,5)" stroke-width="1" opacity="0.996078431372549" d="M 179.5 198 L 182 198.5 L 179.5 199 L 179.5 198 Z " /><path fill="rgb(93,99,5)" stroke="rgb(93,99,5)" stroke-width="1" opacity="0.996078431372549" d="M 281.5 199 L 280.5 201 L 281.5 199 Z " /><path fill="rgb(93,99,5)" stroke="rgb(93,99,5)" stroke-width="1" opacity="0.996078431372549" d="M 159.5 200 L 158.5 202 L 159.5 200 Z " /><path fill="rgb(93,99,5)" stroke="rgb(93,99,5)" stroke-width="1" opacity="0.996078431372549" d="M 165.5 200 L 167.5 203 L 165.5 200 Z " /><path fill="rgb(93,99,5)" stroke="rgb(93,99,5)" stroke-width="1" opacity="0.996078431372549" d="M 161.5 203 L 165 204.5 L 163.5 204 L 160.5 205 L 161.5 203 Z " /><path fill="rgb(93,99,5)" stroke="rgb(93,99,5)" stroke-width="1" opacity="0.996078431372549" d="M 257.5 203 L 260 203.5 L 257.5 204 L 257.5 203 Z " /><path fill="rgb(93,99,5)" stroke="rgb(93,99,5)" stroke-width="1" opacity="0.996078431372549" d="M 142.5 204 L 146 204.5 L 142.5 205 L 142.5 204 Z " /><path fill="rgb(93,99,5)" stroke="rgb(93,99,5)" stroke-width="1" opacity="0.996078431372549" d="M 251.5 204 L 255 204.5 L 251.5 205 L 251.5 204 Z " /><path fill="rgb(93,99,5)" stroke="rgb(93,99,5)" stroke-width="1" opacity="0.996078431372549" d="M 140.5 205 L 140 206.5 L 139.5 210 L 139 206.5 L 140.5 205 Z " /><path fill="rgb(93,99,5)" stroke="rgb(93,99,5)" stroke-width="1" opacity="0.996078431372549" d="M 244.5 205 L 248 205.5 L 244.5 206 L 244.5 205 Z " /><path fill="rgb(93,99,5)" stroke="rgb(93,99,5)" stroke-width="1" opacity="0.996078431372549" d="M 135.5 206 L 136 208.5 L 135 208.5 L 135.5 206 Z " /><path fill="rgb(93,99,5)" stroke="rgb(93,99,5)" stroke-width="1" opacity="0.996078431372549" d="M 236.5 206 L 240 206.5 L 236.5 207 L 236.5 206 Z " /><path fill="rgb(93,99,5)" stroke="rgb(93,99,5)" stroke-width="1" opacity="0.996078431372549" d="M 214.5 207 L 218 207.5 L 214.5 208 L 214.5 207 Z " /><path fill="rgb(93,99,5)" stroke="rgb(93,99,5)" stroke-width="1" opacity="0.996078431372549" d="M 228.5 207 L 233 207.5 L 228.5 208 L 228.5 207 Z " /><path fill="rgb(93,99,5)" stroke="rgb(93,99,5)" stroke-width="1" opacity="0.996078431372549" d="M 256.5 207 L 259 207.5 L 256.5 208 L 256.5 207 Z " /><path fill="rgb(93,99,5)" stroke="rgb(93,99,5)" stroke-width="1" opacity="0.996078431372549" d="M 116.5 208 L 118.5 211 L 120 211.5 L 118.5 212 Q 114.9 210.9 116.5 208 Z " /><path fill="rgb(93,99,5)" stroke="rgb(93,99,5)" stroke-width="1" opacity="0.996078431372549" d="M 166.5 208 L 167 211.5 L 166 211.5 L 166.5 208 Z " /><path fill="rgb(93,99,5)" stroke="rgb(93,99,5)" stroke-width="1" opacity="0.996078431372549" d="M 249.5 208 L 253 208.5 L 249.5 209 L 249.5 208 Z " /><path fill="rgb(93,99,5)" stroke="rgb(93,99,5)" stroke-width="1" opacity="0.996078431372549" d="M 241.5 209 L 246 209.5 L 241.5 210 L 241.5 209 Z " /><path fill="rgb(93,99,5)" stroke="rgb(93,99,5)" stroke-width="1" opacity="0.996078431372549" d="M 87.5 210 L 88 212.5 L 87 212.5 L 87.5 210 Z " /><path fill="rgb(93,99,5)" stroke="rgb(93,99,5)" stroke-width="1" opacity="0.996078431372549" d="M 210.5 210 L 213 210.5 L 210.5 211 L 210.5 210 Z " /><path fill="rgb(93,99,5)" stroke="rgb(93,99,5)" stroke-width="1" opacity="0.996078431372549" d="M 233.5 210 L 238 210.5 L 233.5 211 L 233.5 210 Z " /><path fill="rgb(93,99,5)" stroke="rgb(93,99,5)" stroke-width="1" opacity="0.996078431372549" d="M 121.5 211 L 122.5 213 L 121.5 211 Z " /><path fill="rgb(93,99,5)" stroke="rgb(93,99,5)" stroke-width="1" opacity="0.996078431372549" d="M 140.5 211 L 142.5 214 L 140.5 211 Z " /><path fill="rgb(93,99,5)" stroke="rgb(93,99,5)" stroke-width="1" opacity="0.996078431372549" d="M 216.5 211 L 229 211.5 L 216.5 212 L 216.5 211 Z " /><path fill="rgb(93,99,5)" stroke="rgb(93,99,5)" stroke-width="1" opacity="0.996078431372549" d="M 157.5 212 L 158 214 L 162 214.5 L 157 215 L 157.5 212 Z " /><path fill="rgb(93,99,5)" stroke="rgb(93,99,5)" stroke-width="1" opacity="0.996078431372549" d="M 169.5 214 L 167.5 217 L 169.5 214 Z " /><path fill="rgb(93,99,5)" stroke="rgb(93,99,5)" stroke-width="1" opacity="0.996078431372549" d="M 139.5 218 L 142 218.5 L 139.5 219 L 139.5 218 Z " /><path fill="rgb(93,99,5)" stroke="rgb(93,99,5)" stroke-width="1" opacity="0.996078431372549" d="M 159.5 218 L 162 218.5 L 159.5 219 L 159.5 218 Z " /><path fill="rgb(93,99,5)" stroke="rgb(93,99,5)" stroke-width="1" opacity="0.996078431372549" d="M 146.5 219 L 153 219.5 L 146.5 220 L 146.5 219 Z " /><path fill="rgb(93,99,5)" stroke="rgb(93,99,5)" stroke-width="1" opacity="0.996078431372549" d="M 82.5 222 L 77.5 228 L 82.5 222 Z " /><path fill="rgb(93,99,5)" stroke="rgb(93,99,5)" stroke-width="1" opacity="0.996078431372549" d="M 92.5 222 L 92 223.5 L 91.5 225 L 91 223.5 L 92.5 222 Z " /><path fill="rgb(93,99,5)" stroke="rgb(93,99,5)" stroke-width="1" opacity="0.996078431372549" d="M 157.5 222 L 158.5 224 L 157.5 222 Z " /><path fill="rgb(93,99,5)" stroke="rgb(93,99,5)" stroke-width="1" opacity="0.996078431372549" d="M 331.5 222 L 330.5 224 L 331.5 222 Z " /><path fill="rgb(93,99,5)" stroke="rgb(93,99,5)" stroke-width="1" opacity="0.996078431372549" d="M 152.5 223 L 153 236.5 L 152 236.5 L 152.5 223 Z " /><path fill="rgb(93,99,5)" stroke="rgb(93,99,5)" stroke-width="1" opacity="0.996078431372549" d="M 160.5 226 L 161.5 228 L 160.5 226 Z " /><path fill="rgb(93,99,5)" stroke="rgb(93,99,5)" stroke-width="1" opacity="0.996078431372549" d="M 74.5 229 L 73.5 231 L 74.5 229 Z " /><path fill="rgb(93,99,5)" stroke="rgb(93,99,5)" stroke-width="1" opacity="0.996078431372549" d="M 88.5 229 L 86.5 232 L 88.5 229 Z " /><path fill="rgb(93,99,5)" stroke="rgb(93,99,5)" stroke-width="1" opacity="0.996078431372549" d="M 71.5 231 L 70.5 233 L 71.5 231 Z " /><path fill="rgb(93,99,5)" stroke="rgb(93,99,5)" stroke-width="1" opacity="0.996078431372549" d="M 91.5 231 L 89.5 234 L 91.5 231 Z " /><path fill="rgb(93,99,5)" stroke="rgb(93,99,5)" stroke-width="1" opacity="0.996078431372549" d="M 322.5 231 L 320.5 234 L 322.5 231 Z " /><path fill="rgb(93,99,5)" stroke="rgb(93,99,5)" stroke-width="1" opacity="0.996078431372549" d="M 318.5 234 L 317.5 236 L 318.5 234 Z " /><path fill="rgb(93,99,5)" stroke="rgb(93,99,5)" stroke-width="1" opacity="0.996078431372549" d="M 156.5 236 L 157 239.5 L 156 239.5 L 156.5 236 Z " /><path fill="rgb(93,99,5)" stroke="rgb(93,99,5)" stroke-width="1" opacity="0.996078431372549" d="M 60.5 237 L 59.5 239 L 57.5 240 L 58.5 238 L 60.5 237 Z " /><path fill="rgb(93,99,5)" stroke="rgb(93,99,5)" stroke-width="1" opacity="0.996078431372549" d="M 313.5 237 L 312.5 239 L 313.5 237 Z " /><path fill="rgb(93,99,5)" stroke="rgb(93,99,5)" stroke-width="1" opacity="0.996078431372549" d="M 97.5 239 L 96.5 241 L 97.5 239 Z " /><path fill="rgb(93,99,5)" stroke="rgb(93,99,5)" stroke-width="1" opacity="0.996078431372549" d="M 54.5 240 L 56 240.5 L 52.5 242 L 52.5 241 L 54.5 240 Z " /><path fill="rgb(93,99,5)" stroke="rgb(93,99,5)" stroke-width="1" opacity="0.996078431372549" d="M 153.5 240 L 154 242.5 L 153 242.5 L 153.5 240 Z " /><path fill="rgb(93,99,5)" stroke="rgb(93,99,5)" stroke-width="1" opacity="0.996078431372549" d="M 76.5 241 L 74.5 244 L 76.5 241 Z " /><path fill="rgb(93,99,5)" stroke="rgb(93,99,5)" stroke-width="1" opacity="0.996078431372549" d="M 91.5 241 L 87.5 246 L 91.5 241 Z " /><path fill="rgb(93,99,5)" stroke="rgb(93,99,5)" stroke-width="1" opacity="0.996078431372549" d="M 222.5 242 Q 226.5 241.5 227 244.5 L 224.5 243 Q 221.5 243.5 222.5 242 Z " /><path fill="rgb(93,99,5)" stroke="rgb(93,99,5)" stroke-width="1" opacity="0.996078431372549" d="M 94.5 243 L 89.5 249 L 94.5 243 Z " /><path fill="rgb(93,99,5)" stroke="rgb(93,99,5)" stroke-width="1" opacity="0.996078431372549" d="M 172.5 243 L 173 245.5 L 171 246.5 L 172.5 243 Z " /><path fill="rgb(93,99,5)" stroke="rgb(93,99,5)" stroke-width="1" opacity="0.996078431372549" d="M 220.5 243 L 218.5 246 L 220.5 243 Z " /><path fill="rgb(93,99,5)" stroke="rgb(93,99,5)" stroke-width="1" opacity="0.996078431372549" d="M 78.5 244 L 76.5 247 L 78.5 244 Z " /><path fill="rgb(93,99,5)" stroke="rgb(93,99,5)" stroke-width="1" opacity="0.996078431372549" d="M 154.5 245 L 156.5 246 L 158 245.5 L 155.5 247 L 154.5 245 Z " /><path fill="rgb(93,99,5)" stroke="rgb(93,99,5)" stroke-width="1" opacity="0.996078431372549" d="M 69.5 246 L 68.5 248 L 69.5 246 Z " /><path fill="rgb(93,99,5)" stroke="rgb(93,99,5)" stroke-width="1" opacity="0.996078431372549" d="M 226.5 247 L 223.5 251 L 226.5 247 Z " /><path fill="rgb(93,99,5)" stroke="rgb(93,99,5)" stroke-width="1" opacity="0.996078431372549" d="M 83.5 248 L 82.5 250 L 83.5 248 Z " /><path fill="rgb(93,99,5)" stroke="rgb(93,99,5)" stroke-width="1" opacity="0.996078431372549" d="M 37.5 249 L 34.5 253 L 37.5 249 Z " /><path fill="rgb(93,99,5)" stroke="rgb(93,99,5)" stroke-width="1" opacity="0.996078431372549" d="M 183.5 249 L 182.5 251 L 183.5 249 Z " /><path fill="rgb(93,99,5)" stroke="rgb(93,99,5)" stroke-width="1" opacity="0.996078431372549" d="M 80.5 250 L 79.5 252 L 80.5 250 Z " /><path fill="rgb(93,99,5)" stroke="rgb(93,99,5)" stroke-width="1" opacity="0.996078431372549" d="M 207.5 250 L 208 252.5 L 207 252.5 L 207.5 250 Z " /><path fill="rgb(93,99,5)" stroke="rgb(93,99,5)" stroke-width="1" opacity="0.996078431372549" d="M 85.5 251 L 84.5 253 L 85.5 251 Z " /><path fill="rgb(93,99,5)" stroke="rgb(93,99,5)" stroke-width="1" opacity="0.996078431372549" d="M 82.5 253 L 81.5 255 L 82.5 253 Z " /><path fill="rgb(93,99,5)" stroke="rgb(93,99,5)" stroke-width="1" opacity="0.996078431372549" d="M 219.5 253 L 213.5 260 L 219.5 253 Z " /><path fill="rgb(93,99,5)" stroke="rgb(93,99,5)" stroke-width="1" opacity="0.996078431372549" d="M 53.5 254 L 52.5 256 L 53.5 254 Z " /><path fill="rgb(93,99,5)" stroke="rgb(93,99,5)" stroke-width="1" opacity="0.996078431372549" d="M 269.5 255 L 271 255.5 L 268.5 257 L 269.5 255 Z " /><path fill="rgb(93,99,5)" stroke="rgb(93,99,5)" stroke-width="1" opacity="0.996078431372549" d="M 169.5 256 L 172 256.5 L 169.5 257 L 169.5 256 Z " /><path fill="rgb(93,99,5)" stroke="rgb(93,99,5)" stroke-width="1" opacity="0.996078431372549" d="M 55.5 257 L 54.5 259 L 55.5 257 Z " /><path fill="rgb(93,99,5)" stroke="rgb(93,99,5)" stroke-width="1" opacity="0.996078431372549" d="M 174.5 257 L 176.5 260 L 174.5 257 Z " /><path fill="rgb(93,99,5)" stroke="rgb(93,99,5)" stroke-width="1" opacity="0.996078431372549" d="M 224.5 258 L 227 258.5 L 224.5 259 L 224.5 258 Z " /><path fill="rgb(93,99,5)" stroke="rgb(93,99,5)" stroke-width="1" opacity="0.996078431372549" d="M 46.5 260 L 43.5 264 L 46.5 260 Z " /><path fill="rgb(93,99,5)" stroke="rgb(93,99,5)" stroke-width="1" opacity="0.996078431372549" d="M 60.5 260 L 59.5 262 L 60.5 260 Z " /><path fill="rgb(93,99,5)" stroke="rgb(93,99,5)" stroke-width="1" opacity="0.996078431372549" d="M 189.5 260 L 191 265 L 189 264.5 L 189 262.5 L 189.5 260 Z " /><path fill="rgb(93,99,5)" stroke="rgb(93,99,5)" stroke-width="1" opacity="0.996078431372549" d="M 261.5 260 L 257.5 265 L 261.5 260 Z " /><path fill="rgb(93,99,5)" stroke="rgb(93,99,5)" stroke-width="1" opacity="0.996078431372549" d="M 161.5 261 L 160.5 263 L 161.5 261 Z " /><path fill="rgb(93,99,5)" stroke="rgb(93,99,5)" stroke-width="1" opacity="0.996078431372549" d="M 57.5 262 L 51.5 269 L 57.5 262 Z " /><path fill="rgb(93,99,5)" stroke="rgb(93,99,5)" stroke-width="1" opacity="0.996078431372549" d="M 177.5 262 L 178 264.5 L 177 264.5 L 177.5 262 Z " /><path fill="rgb(93,99,5)" stroke="rgb(93,99,5)" stroke-width="1" opacity="0.996078431372549" d="M 182.5 262 L 183 281.5 L 182 281.5 L 182.5 262 Z " /><path fill="rgb(93,99,5)" stroke="rgb(93,99,5)" stroke-width="1" opacity="0.996078431372549" d="M 197.5 264 L 199 266.5 L 197 265.5 L 197.5 264 Z " /><path fill="rgb(93,99,5)" stroke="rgb(93,99,5)" stroke-width="1" opacity="0.996078431372549" d="M 59.5 265 L 53.5 272 L 59.5 265 Z " /><path fill="rgb(93,99,5)" stroke="rgb(93,99,5)" stroke-width="1" opacity="0.996078431372549" d="M 150.5 266 L 153 266.5 L 150.5 267 L 150.5 266 Z " /><path fill="rgb(93,99,5)" stroke="rgb(93,99,5)" stroke-width="1" opacity="0.996078431372549" d="M 205.5 266 L 206 270.5 L 205 270.5 L 205.5 266 Z " /><path fill="rgb(93,99,5)" stroke="rgb(93,99,5)" stroke-width="1" opacity="0.996078431372549" d="M 220.5 267 L 219.5 269 L 220.5 267 Z " /><path fill="rgb(93,99,5)" stroke="rgb(93,99,5)" stroke-width="1" opacity="0.996078431372549" d="M 212.5 268 L 213 270.5 L 212 270.5 L 212.5 268 Z " /><path fill="rgb(93,99,5)" stroke="rgb(93,99,5)" stroke-width="1" opacity="0.996078431372549" d="M 48.5 272 L 45.5 276 L 48.5 272 Z " /><path fill="rgb(93,99,5)" stroke="rgb(93,99,5)" stroke-width="1" opacity="0.996078431372549" d="M 144.5 272 L 143.5 274 L 144.5 272 Z " /><path fill="rgb(93,99,5)" stroke="rgb(93,99,5)" stroke-width="1" opacity="0.996078431372549" d="M 163.5 272 L 164.5 274 L 166 273.5 L 163 275.5 L 163 273.5 L 163.5 272 Z " /><path fill="rgb(93,99,5)" stroke="rgb(93,99,5)" stroke-width="1" opacity="0.996078431372549" d="M 213.5 272 L 216 272.5 L 213.5 273 L 213.5 272 Z " /><path fill="rgb(93,99,5)" stroke="rgb(93,99,5)" stroke-width="1" opacity="0.996078431372549" d="M 51.5 274 L 49.5 277 L 51.5 274 Z " /><path fill="rgb(93,99,5)" stroke="rgb(93,99,5)" stroke-width="1" opacity="0.996078431372549" d="M 173.5 274 L 172.5 276 L 173.5 274 Z " /><path fill="rgb(93,99,5)" stroke="rgb(93,99,5)" stroke-width="1" opacity="0.996078431372549" d="M 135.5 275 L 136 290.5 L 135 290.5 L 135.5 275 Z " /><path fill="rgb(93,99,5)" stroke="rgb(93,99,5)" stroke-width="1" opacity="0.996078431372549" d="M 195.5 275 L 196.5 277 L 195.5 275 Z " /><path fill="rgb(93,99,5)" stroke="rgb(93,99,5)" stroke-width="1" opacity="0.996078431372549" d="M 155.5 276 L 156 278.5 L 155 278.5 L 155.5 276 Z " /><path fill="rgb(93,99,5)" stroke="rgb(93,99,5)" stroke-width="1" opacity="0.996078431372549" d="M 207.5 276 L 209.5 279 L 207.5 276 Z " /><path fill="rgb(93,99,5)" stroke="rgb(93,99,5)" stroke-width="1" opacity="0.996078431372549" d="M 149.5 277 L 148.5 279 L 149.5 277 Z " /><path fill="rgb(93,99,5)" stroke="rgb(93,99,5)" stroke-width="1" opacity="0.996078431372549" d="M 169.5 279 L 164.5 285 L 169.5 279 Z " /><path fill="rgb(93,99,5)" stroke="rgb(93,99,5)" stroke-width="1" opacity="0.996078431372549" d="M 211.5 279 L 217 279.5 L 211.5 280 L 211.5 279 Z " /><path fill="rgb(93,99,5)" stroke="rgb(93,99,5)" stroke-width="1" opacity="0.996078431372549" d="M 190.5 280 L 187.5 284 L 190.5 280 Z " /><path fill="rgb(93,99,5)" stroke="rgb(93,99,5)" stroke-width="1" opacity="0.996078431372549" d="M 146.5 281 L 145.5 283 L 146.5 281 Z " /><path fill="rgb(93,99,5)" stroke="rgb(93,99,5)" stroke-width="1" opacity="0.996078431372549" d="M 176.5 282 L 174.5 285 L 176.5 282 Z " /><path fill="rgb(93,99,5)" stroke="rgb(93,99,5)" stroke-width="1" opacity="0.996078431372549" d="M 180.5 282 L 181.5 284 L 180.5 282 Z " /><path fill="rgb(93,99,5)" stroke="rgb(93,99,5)" stroke-width="1" opacity="0.996078431372549" d="M 172.5 286 L 170.5 289 L 172.5 286 Z " /><path fill="rgb(93,99,5)" stroke="rgb(93,99,5)" stroke-width="1" opacity="0.996078431372549" d="M 142.5 287 L 143 289.5 L 142 289.5 L 142.5 287 Z " /><path fill="rgb(93,99,5)" stroke="rgb(93,99,5)" stroke-width="1" opacity="0.996078431372549" d="M 152.5 287 L 153.5 289 L 152.5 287 Z " /><path fill="rgb(93,99,5)" stroke="rgb(93,99,5)" stroke-width="1" opacity="0.996078431372549" d="M 181.5 287 L 179.5 290 L 181.5 287 Z " /><path fill="rgb(93,99,5)" stroke="rgb(93,99,5)" stroke-width="1" opacity="0.996078431372549" d="M 163.5 288 L 164.5 290 L 163.5 288 Z " /><path fill="rgb(93,99,5)" stroke="rgb(93,99,5)" stroke-width="1" opacity="0.996078431372549" d="M 155.5 289 L 156.5 291 L 155.5 289 Z " /><path fill="rgb(93,99,5)" stroke="rgb(93,99,5)" stroke-width="1" opacity="0.996078431372549" d="M 177.5 291 L 175.5 294 L 177.5 291 Z " /><path fill="rgb(93,99,5)" stroke="rgb(93,99,5)" stroke-width="1" opacity="0.996078431372549" d="M 157.5 292 L 160.5 296 L 157.5 292 Z " /><path fill="rgb(93,99,5)" stroke="rgb(93,99,5)" stroke-width="1" opacity="0.996078431372549" d="M 143.5 295 L 144 299.5 L 143 299.5 L 143.5 295 Z " /><path fill="rgb(93,99,5)" stroke="rgb(93,99,5)" stroke-width="1" opacity="0.996078431372549" d="M 136.5 296 L 137 299.5 L 136 299.5 L 136.5 296 Z " /><path fill="rgb(93,99,5)" stroke="rgb(93,99,5)" stroke-width="1" opacity="0.996078431372549" d="M 164.5 297 L 168 297.5 L 164.5 298 L 164.5 297 Z " /><path fill="rgb(93,99,5)" stroke="rgb(93,99,5)" stroke-width="1" opacity="0.996078431372549" d="M 137.5 303 L 138.5 305 L 137.5 303 Z " /><path fill="rgb(93,99,5)" stroke="rgb(93,99,5)" stroke-width="1" opacity="0.996078431372549" d="M 143.5 303 L 142.5 305 L 143.5 303 Z " /><path fill="rgb(93,99,5)" stroke="rgb(93,99,5)" stroke-width="1" opacity="0.996078431372549" d="M 263.5 309 L 264 312.5 L 263 312.5 L 263.5 309 Z " /></svg>