<svg width="250" height="250" viewBox="0 0 250 250" fill="none" xmlns="http://www.w3.org/2000/svg">
<path fill-rule="evenodd" clip-rule="evenodd" d="M125 2.23215L232.143 64.0911V187.809L125 249.668L17.8571 187.809V64.0911L125 2.23215ZM27.9018 66.0242L94.5313 104.493L125 51.7193L155.469 104.493L222.098 66.0242L125 9.96452L27.9018 66.0242ZM225.446 71.8235L158.817 110.292L189.286 163.065L128.348 198.248V240.003L225.446 183.943V71.8235ZM121.652 240.003V198.248L60.7143 163.065L91.183 110.292L24.5536 71.8235V183.943L121.652 240.003ZM96.9823 113.64L69.8618 160.614L121.652 190.515V131.749V127.883L118.304 125.95L96.9823 113.64ZM128.348 190.515L180.138 160.614L153.018 113.64L131.696 125.95L128.348 127.883V131.749V190.515ZM149.669 107.841L125 65.1122L100.331 107.841L125 122.084L149.669 107.841Z" fill="url(#paint0_linear_1609_58)"/>
<path opacity="0.6" fill-rule="evenodd" clip-rule="evenodd" d="M121.652 120.151V124.017L118.304 125.95L21.8386 181.644L25.1868 187.443L125 129.816L224.813 187.443L228.162 181.644L131.696 125.95L128.348 124.017V120.151V8.76249H121.652V120.151Z" fill="url(#paint1_linear_1609_58)"/>
<defs>
<linearGradient id="paint0_linear_1609_58" x1="125" y1="-121.486" x2="-119.898" y2="90.6021" gradientUnits="userSpaceOnUse">
<stop stop-color="#4EF1BA"/>
<stop offset="0.501904" stop-color="#16CED1"/>
<stop offset="1" stop-color="#3773F2"/>
</linearGradient>
<linearGradient id="paint1_linear_1609_58" x1="379.793" y1="91.797" x2="205.051" y2="367.476" gradientUnits="userSpaceOnUse">
<stop stop-color="#4EF1BA"/>
<stop offset="0.501904" stop-color="#16CED1"/>
<stop offset="1" stop-color="#3773F2"/>
</linearGradient>
</defs>
</svg>
