<?xml version="1.0" encoding="UTF-8"?>
<!DOCTYPE svg PUBLIC "-//W3C//DTD SVG 1.1//EN" "http://www.w3.org/Graphics/SVG/1.1/DTD/svg11.dtd">
<svg xmlns="http://www.w3.org/2000/svg" version="1.1" width="256px" height="256px" style="shape-rendering:geometricPrecision; text-rendering:geometricPrecision; image-rendering:optimizeQuality; fill-rule:evenodd; clip-rule:evenodd" xmlns:xlink="http://www.w3.org/1999/xlink">
<g><path style="opacity:1" fill="#fdfdfd" d="M -0.5,-0.5 C 84.8333,-0.5 170.167,-0.5 255.5,-0.5C 255.5,84.8333 255.5,170.167 255.5,255.5C 170.167,255.5 84.8333,255.5 -0.5,255.5C -0.5,170.167 -0.5,84.8333 -0.5,-0.5 Z"/></g>
<g><path style="opacity:1" fill="#643821" d="M 177.5,11.5 C 177.5,11.8333 177.5,12.1667 177.5,12.5C 152.795,2.81859 127.461,-0.181413 101.5,3.5C 122.338,0.22736 143.005,1.06069 163.5,6C 168.464,7.37092 173.131,9.20425 177.5,11.5 Z"/></g>
<g><path style="opacity:1" fill="#764c37" d="M 95.5,5.5 C 92.4483,7.63456 88.4483,8.96789 83.5,9.5C 87.0845,7.19393 91.0845,5.8606 95.5,5.5 Z"/></g>
<g><path style="opacity:1" fill="#311810" d="M 228.5,193.5 C 239.422,176.068 245.755,157.068 247.5,136.5C 250.501,96.8438 237.168,63.8438 207.5,37.5C 199.285,29.635 189.951,23.3017 179.5,18.5C 170.032,13.7394 160.032,10.7394 149.5,9.5C 138.279,6.58493 126.946,5.91826 115.5,7.5C 84.9916,10.0957 59.3249,22.4291 38.5,44.5C 38.1667,44.5 37.8333,44.5 37.5,44.5C 38.2026,42.2843 39.5359,40.451 41.5,39C 46.3981,34.5922 51.3981,30.4255 56.5,26.5C 94.4958,2.88303 134.496,-0.950306 176.5,15C 217.143,33.7537 241.309,65.2537 249,109.5C 252.031,133.932 248.364,157.265 238,179.5C 235.552,184.752 232.386,189.419 228.5,193.5 Z"/></g>
<g><path style="opacity:1" fill="#c19277" d="M 177.5,12.5 C 226.227,36.5939 251.227,75.9273 252.5,130.5C 250.326,165.513 236.326,194.847 210.5,218.5C 182.059,242.809 149.059,252.976 111.5,249C 99.8246,247.414 88.4913,244.581 77.5,240.5C 48.5303,226.53 26.8637,205.197 12.5,176.5C 11.7093,174.309 11.7093,172.309 12.5,170.5C 21.3131,190.987 34.6464,207.987 52.5,221.5C 83.4203,244.813 117.754,252.147 155.5,243.5C 173.357,239.571 189.357,231.904 203.5,220.5C 212.936,212.402 221.27,203.402 228.5,193.5C 232.386,189.419 235.552,184.752 238,179.5C 248.364,157.265 252.031,133.932 249,109.5C 241.309,65.2537 217.143,33.7537 176.5,15C 134.496,-0.950306 94.4958,2.88303 56.5,26.5C 55.475,26.1034 55.3083,25.4368 56,24.5C 58.352,22.9697 60.5187,21.3031 62.5,19.5C 68.8035,14.8495 75.8035,11.5162 83.5,9.5C 88.4483,8.96789 92.4483,7.63456 95.5,5.5C 97.3024,4.5418 99.3024,3.87513 101.5,3.5C 127.461,-0.181413 152.795,2.81859 177.5,12.5 Z"/></g>
<g><path style="opacity:1" fill="#9f6543" d="M 115.5,7.5 C 126.946,5.91826 138.279,6.58493 149.5,9.5C 138.22,8.0291 126.887,7.36244 115.5,7.5 Z"/></g>
<g><path style="opacity:1" fill="#7b4a2d" d="M 180.5,24.5 C 181.551,25.2223 182.218,26.2223 182.5,27.5C 179.631,30.512 178.298,29.8453 178.5,25.5C 177.127,25.3433 175.793,25.51 174.5,26C 176.524,28.2493 178.191,30.7493 179.5,33.5C 179.167,33.8333 178.833,34.1667 178.5,34.5C 177.065,33.1763 176.065,31.5096 175.5,29.5C 174.032,31.3329 172.365,31.6662 170.5,30.5C 171.473,27.2211 172.973,24.2211 175,21.5C 177.018,22.2228 178.852,23.2228 180.5,24.5 Z"/></g>
<g><path style="opacity:1" fill="#d29877" d="M 115.5,7.5 C 126.887,7.36244 138.22,8.0291 149.5,9.5C 160.032,10.7394 170.032,13.7394 179.5,18.5C 179.557,19.609 179.89,20.609 180.5,21.5C 181.625,22.6522 181.625,23.6522 180.5,24.5C 178.852,23.2228 177.018,22.2228 175,21.5C 172.973,24.2211 171.473,27.2211 170.5,30.5C 172.365,31.6662 174.032,31.3329 175.5,29.5C 176.065,31.5096 177.065,33.1763 178.5,34.5C 178.833,34.1667 179.167,33.8333 179.5,33.5C 178.191,30.7493 176.524,28.2493 174.5,26C 175.793,25.51 177.127,25.3433 178.5,25.5C 178.298,29.8453 179.631,30.512 182.5,27.5C 184.167,27.5 185.833,27.5 187.5,27.5C 187.199,30.5698 186.199,33.4032 184.5,36C 184.528,37.0698 184.861,37.9032 185.5,38.5C 185.414,39.4959 185.748,40.3292 186.5,41C 188.833,41.6667 191.167,41.6667 193.5,41C 194.733,39.3333 196.067,37.8333 197.5,36.5C 198.15,36.1961 198.817,35.8627 199.5,35.5C 202.226,37.5298 205.226,39.0298 208.5,40C 209.883,41.4609 209.549,42.2942 207.5,42.5C 206.01,40.7202 204.01,40.0535 201.5,40.5C 201.732,47.8853 202.732,48.5519 204.5,42.5C 205.85,43.9501 207.516,44.6168 209.5,44.5C 214.434,46.8203 218.434,50.3203 221.5,55C 220.906,55.4643 220.239,55.631 219.5,55.5C 217.612,54.0603 215.945,52.3936 214.5,50.5C 214.167,50.8333 213.833,51.1667 213.5,51.5C 214.833,52.6199 215.333,53.9532 215,55.5C 213.312,57.7894 211.479,59.1228 209.5,59.5C 210.365,60.5827 211.365,60.7494 212.5,60C 213.729,58.4708 215.229,57.3041 217,56.5C 217.717,57.0442 218.217,57.7109 218.5,58.5C 221.273,60.1031 223.606,62.2698 225.5,65C 225.043,65.414 224.709,65.914 224.5,66.5C 225.154,68.1151 225.654,69.7818 226,71.5C 228.213,72.8019 230.546,73.8019 233,74.5C 234.541,76.477 235.041,78.477 234.5,80.5C 235.098,81.7946 235.598,83.1279 236,84.5C 236.741,83.3595 237.575,83.3595 238.5,84.5C 240.785,87.8519 241.951,91.5186 242,95.5C 241.444,93.4049 240.944,93.2382 240.5,95C 241.609,97.0466 242.276,99.2133 242.5,101.5C 242.244,103.792 242.577,105.959 243.5,108C 242.256,108.456 241.423,107.956 241,106.5C 240.082,108.632 238.749,109.299 237,108.5C 235.181,110.536 233.347,110.703 231.5,109C 234,108.167 234.167,107 232,105.5C 231.333,106.833 230.667,106.833 230,105.5C 229.019,108.689 227.686,109.022 226,106.5C 224.927,107.28 223.76,107.113 222.5,106C 223.167,105.333 223.833,104.667 224.5,104C 223.167,104 221.833,104 220.5,104C 221.098,101.402 219.931,99.5686 217,98.5C 215.853,99.4581 214.853,99.1247 214,97.5C 213.683,99.3008 213.016,99.6341 212,98.5C 210.867,100.211 209.367,100.711 207.5,100C 210.276,98.2213 209.943,97.2213 206.5,97C 210.5,96 210.5,95 206.5,94C 207.833,93.6667 209.167,93.3333 210.5,93C 207.833,92.3333 207.833,91.6667 210.5,91C 208.56,89.7926 206.727,89.626 205,90.5C 204.167,89.5 203.333,88.5 202.5,87.5C 199.907,87.3267 197.24,87.3267 194.5,87.5C 193.226,86.6406 193.392,85.9739 195,85.5C 203.139,84.078 203.305,82.578 195.5,81C 194.333,79.8333 193.167,78.6667 192,77.5C 191.395,79.4812 190.395,79.8146 189,78.5C 186.929,81.4155 185.595,81.0822 185,77.5C 184.275,79.158 183.108,79.658 181.5,79C 179.07,78.3571 177.403,76.8571 176.5,74.5C 175.252,75.0402 174.085,75.7069 173,76.5C 172.594,79.7422 171.761,82.7422 170.5,85.5C 169.746,83.5541 168.412,82.7207 166.5,83C 168.129,86.4268 169.629,89.9268 171,93.5C 173.071,94.1029 174.238,95.4362 174.5,97.5C 175.568,98.4345 176.901,98.7678 178.5,98.5C 178.737,99.791 178.404,100.791 177.5,101.5C 177.631,100.624 177.298,99.9569 176.5,99.5C 172.513,101.613 168.513,101.947 164.5,100.5C 166.833,100.5 169.167,100.5 171.5,100.5C 171.719,99.325 171.386,98.325 170.5,97.5C 168.201,96.3649 166.034,95.0316 164,93.5C 164.351,91.1141 164.185,88.7808 163.5,86.5C 162.575,85.3595 161.741,85.3595 161,86.5C 160.283,85.9558 159.783,85.2891 159.5,84.5C 161.264,83.2878 162.93,83.6212 164.5,85.5C 165.298,83.9223 165.798,82.2556 166,80.5C 167.613,81.6223 168.78,81.1223 169.5,79C 168.027,78.2904 167.36,77.1238 167.5,75.5C 165.5,75.5 163.5,75.5 161.5,75.5C 161.167,74.8333 160.833,74.1667 160.5,73.5C 158.409,73.3184 156.409,73.6518 154.5,74.5C 152.274,71.5511 149.274,69.8844 145.5,69.5C 145.061,71.0298 143.728,72.0298 141.5,72.5C 141.491,74.3084 141.991,75.9751 143,77.5C 145.127,79.1137 146.627,81.1137 147.5,83.5C 143.72,81.5599 140.054,79.3933 136.5,77C 140.445,74.6721 140.112,72.8388 135.5,71.5C 135.709,70.914 136.043,70.414 136.5,70C 135.376,69.7508 134.376,69.2508 133.5,68.5C 134.711,67.1255 135.711,65.6255 136.5,64C 135.167,62.3333 135.167,60.6667 136.5,59C 136.05,57.7147 135.383,56.548 134.5,55.5C 135.002,54.479 135.668,54.3123 136.5,55C 137.376,56.586 138.376,58.086 139.5,59.5C 139.554,58.3131 139.887,56.9798 140.5,55.5C 145.008,54.5864 145.341,53.253 141.5,51.5C 140.784,52.311 139.95,52.9777 139,53.5C 136.149,51.2106 132.815,49.8772 129,49.5C 128.127,49.7355 127.293,50.0688 126.5,50.5C 125.832,52.9688 125.165,55.3021 124.5,57.5C 123.665,56.0568 122.332,55.0568 120.5,54.5C 121.853,53.4763 122.52,52.143 122.5,50.5C 119.478,50.196 116.478,49.696 113.5,49C 117.672,47.6357 122.005,46.6357 126.5,46C 125.601,44.7638 124.434,43.9304 123,43.5C 113.837,45.4087 104.67,46.242 95.5,46C 96.67,47.7547 98.3367,48.7547 100.5,49C 99.0267,49.7096 98.3601,50.8762 98.5,52.5C 101.356,53.8279 104.356,54.8279 107.5,55.5C 107.193,53.5542 107.193,51.8875 107.5,50.5C 109.316,51.8149 110.983,53.3149 112.5,55C 114.9,55.1858 117.234,55.6858 119.5,56.5C 118.597,58.6204 117.263,58.9538 115.5,57.5C 114.494,57.9377 114.494,58.6043 115.5,59.5C 110.128,61.0217 104.961,60.6884 100,58.5C 99.5,58.6667 99,58.8333 98.5,59C 100.093,59.9487 101.426,61.1154 102.5,62.5C 101.305,62.3225 100.138,61.9891 99,61.5C 98,62.1667 97,62.8333 96,63.5C 92.8336,61.7773 90.6669,62.6106 89.5,66C 90.0223,66.9503 90.689,67.7836 91.5,68.5C 90.1667,68.8333 88.8333,69.1667 87.5,69.5C 88.09,70.7989 89.09,71.6322 90.5,72C 89.2068,72.49 87.8734,72.6567 86.5,72.5C 86.5,74.1667 86.5,75.8333 86.5,77.5C 85.5041,77.5858 84.6708,77.2524 84,76.5C 83.7132,74.1093 83.2132,71.7759 82.5,69.5C 83.5,68.8333 84.5,68.1667 85.5,67.5C 84.2299,66.7124 83.2299,65.7124 82.5,64.5C 84.861,64.3259 87.1944,63.9926 89.5,63.5C 89.8399,60.8559 89.1733,58.5225 87.5,56.5C 88.4066,53.5788 88.7399,50.5788 88.5,47.5C 83.8408,47.8111 82.5075,50.1445 84.5,54.5C 85.3957,53.4937 86.0623,53.4937 86.5,54.5C 85.9017,55.7946 85.4017,57.1279 85,58.5C 84.586,58.0426 84.086,57.7093 83.5,57.5C 82.5344,59.396 82.2011,61.396 82.5,63.5C 81.2048,59.6 80.7048,55.6 81,51.5C 80.3333,52.1667 79.6667,52.8333 79,53.5C 78.262,56.9913 77.4287,60.3246 76.5,63.5C 75.7667,60.2629 73.7667,58.0962 70.5,57C 71.5,56.6667 72.5,56.3333 73.5,56C 72.33,53.6656 70.6633,51.8323 68.5,50.5C 69.5695,50.3601 70.7361,50.3601 72,50.5C 72.5,50 73,49.5 73.5,49C 71.4216,47.3898 69.4216,46.3898 67.5,46C 69.02,44.1153 70.02,41.9486 70.5,39.5C 69.7666,38.913 68.7666,38.913 67.5,39.5C 67.9528,38.5416 68.6195,37.7083 69.5,37C 63.1365,40.0193 59.6365,37.8527 59,30.5C 57.5713,35.2167 59.0713,38.55 63.5,40.5C 61.0968,40.393 59.2635,41.393 58,43.5C 55.8182,41.2443 53.4848,41.2443 51,43.5C 49.3745,42.7113 47.8745,41.7113 46.5,40.5C 45.537,40.9698 45.537,41.6365 46.5,42.5C 45.6618,42.8417 45.3284,43.5084 45.5,44.5C 43.002,43.9182 40.6687,43.9182 38.5,44.5C 59.3249,22.4291 84.9916,10.0957 115.5,7.5 Z"/></g>
<g><path style="opacity:1" fill="#64391f" d="M 86.5,17.5 C 88.201,19.7315 89.5343,22.2315 90.5,25C 92.9034,25.6302 94.7367,24.7969 96,22.5C 95.4532,26.0427 93.2866,27.5427 89.5,27C 87.7774,24.0565 86.7774,20.8898 86.5,17.5 Z"/></g>
<g><path style="opacity:1" fill="#77482b" d="M 158.5,15.5 C 161.923,16.3634 165.256,17.5301 168.5,19C 167.207,19.49 165.873,19.6567 164.5,19.5C 164.244,21.9372 163.577,24.2706 162.5,26.5C 161.176,27.6869 160.176,27.3535 159.5,25.5C 160.167,23.5 160.833,21.5 161.5,19.5C 160.174,18.3578 159.174,17.0245 158.5,15.5 Z"/></g>
<g><path style="opacity:1" fill="#f4d3bd" d="M 81.5,25.5 C 80.2921,22.9558 78.2921,21.6225 75.5,21.5C 75.4701,20.5028 75.9701,19.8361 77,19.5C 80.9392,20.2079 82.4392,22.2079 81.5,25.5 Z"/></g>
<g><path style="opacity:1" fill="#824f30" d="M 118.5,10.5 C 120.101,12.7857 121.768,15.119 123.5,17.5C 124.192,16.9747 124.692,16.3081 125,15.5C 125.539,20.1555 124.039,21.1555 120.5,18.5C 119.585,20.9803 118.085,21.6469 116,20.5C 114.686,17.9107 114.019,15.2441 114,12.5C 115.044,13.6226 115.71,14.9559 116,16.5C 116.718,17.4506 117.551,17.6172 118.5,17C 117.395,14.8797 117.395,12.7131 118.5,10.5 Z"/></g>
<g><path style="opacity:1" fill="#f3cfb6" d="M 87.5,15.5 C 92.6746,13.1734 95.5079,14.8401 96,20.5C 93.9696,17.4374 91.1363,15.7707 87.5,15.5 Z"/></g>
<g><path style="opacity:1" fill="#6e3f22" d="M 131.5,10.5 C 134.203,10.9519 136.87,11.6185 139.5,12.5C 137.5,13.1667 135.5,13.8333 133.5,14.5C 134.376,15.2508 135.376,15.7508 136.5,16C 130.905,17.2916 131.239,18.9583 137.5,21C 135.559,21.7429 133.726,21.5762 132,20.5C 131.502,17.1832 131.335,13.8499 131.5,10.5 Z"/></g>
<g><path style="opacity:1" fill="#734426" d="M 75.5,21.5 C 78.2921,21.6225 80.2921,22.9558 81.5,25.5C 82.7776,32.3689 80.2776,34.0355 74,30.5C 72.5783,27.9699 72.245,25.3033 73,22.5C 73.1981,24.3817 73.6981,26.0484 74.5,27.5C 75.4006,29.7271 77.0672,30.7271 79.5,30.5C 80.7512,28.2754 80.4178,26.1088 78.5,24C 77.2161,23.3162 76.0495,23.4829 75,24.5C 74.5304,23.4232 74.6971,22.4232 75.5,21.5 Z"/></g>
<g><path style="opacity:1" fill="#f9e3d2" d="M 79.5,30.5 C 77.0672,30.7271 75.4006,29.7271 74.5,27.5C 74.4346,27.0618 74.6012,26.7284 75,26.5C 76.3968,28.0703 77.8968,29.4036 79.5,30.5 Z"/></g>
<g><path style="opacity:1" fill="#fcf2ea" d="M 139.5,27.5 C 140.873,27.3433 142.207,27.51 143.5,28C 139.526,28.9945 135.86,30.4945 132.5,32.5C 131.167,32.8333 129.833,33.1667 128.5,33.5C 127.624,33.6309 126.957,33.2975 126.5,32.5C 127.689,31.5713 129.022,31.238 130.5,31.5C 130.5,30.5 130.5,29.5 130.5,28.5C 126.586,28.8887 122.92,28.2221 119.5,26.5C 118.022,26.762 116.689,26.4287 115.5,25.5C 116.5,25.1667 117.5,24.8333 118.5,24.5C 125.269,26.5559 132.269,27.5559 139.5,27.5 Z"/></g>
<g><path style="opacity:1" fill="#a76740" d="M 179.5,18.5 C 189.951,23.3017 199.285,29.635 207.5,37.5C 205.407,36.9553 203.407,36.122 201.5,35C 195.327,28.9526 188.327,24.4526 180.5,21.5C 179.89,20.609 179.557,19.609 179.5,18.5 Z"/></g>
<g><path style="opacity:1" fill="#fdf5ee" d="M 143.5,30.5 C 148.747,32.3772 154.08,34.0439 159.5,35.5C 159.44,36.0431 159.107,36.3764 158.5,36.5C 155.557,35.7565 152.557,35.2565 149.5,35C 146.601,32.766 143.268,31.4326 139.5,31C 140.793,30.51 142.127,30.3433 143.5,30.5 Z"/></g>
<g><path style="opacity:1" fill="#f6d2bc" d="M 119.5,26.5 C 122.92,28.2221 126.586,28.8887 130.5,28.5C 130.5,29.5 130.5,30.5 130.5,31.5C 129.022,31.238 127.689,31.5713 126.5,32.5C 126.957,33.2975 127.624,33.6309 128.5,33.5C 124.47,36.0603 120.304,36.0603 116,33.5C 115.667,34.5 115.333,35.5 115,36.5C 111.421,33.1277 107.254,30.961 102.5,30C 108.215,28.8334 113.882,27.6667 119.5,26.5 Z"/></g>
<g><path style="opacity:1" fill="#f6ceb7" d="M 139.5,27.5 C 141.838,26.053 143.838,26.553 145.5,29C 144.584,29.2784 143.918,29.7784 143.5,30.5C 142.127,30.3433 140.793,30.51 139.5,31C 143.268,31.4326 146.601,32.766 149.5,35C 152.557,35.2565 155.557,35.7565 158.5,36.5C 159.107,36.3764 159.44,36.0431 159.5,35.5C 161.335,37.8345 163.335,40.0012 165.5,42C 164.142,43.2645 162.142,44.4311 159.5,45.5C 157.194,45.0074 154.861,44.6741 152.5,44.5C 151.375,41.096 149.375,38.2627 146.5,36C 144.062,35.3179 141.895,35.8179 140,37.5C 138.989,36.9444 138.156,36.2778 137.5,35.5C 136.33,33.7215 134.664,32.7215 132.5,32.5C 135.86,30.4945 139.526,28.9945 143.5,28C 142.207,27.51 140.873,27.3433 139.5,27.5 Z"/></g>
<g><path style="opacity:1" fill="#f0c5ad" d="M 101.5,34.5 C 104.187,34.3359 106.854,34.5026 109.5,35C 108.833,35.6667 108.167,36.3333 107.5,37C 112.553,37.7498 112.72,38.9165 108,40.5C 105.744,38.9145 103.244,38.2479 100.5,38.5C 100.739,40.4672 100.406,42.3005 99.5,44C 84.9706,45.3074 84.3039,44.1407 97.5,40.5C 97.6574,37.6824 98.9908,35.6824 101.5,34.5 Z"/></g>
<g><path style="opacity:1" fill="#af7552" d="M 137.5,35.5 C 138.156,36.2778 138.989,36.9444 140,37.5C 141.895,35.8179 144.062,35.3179 146.5,36C 149.375,38.2627 151.375,41.096 152.5,44.5C 148.265,43.564 143.931,43.2307 139.5,43.5C 139.87,39.8141 138.537,38.8141 135.5,40.5C 136.859,38.9907 136.359,38.324 134,38.5C 131.081,40.0722 127.915,40.7388 124.5,40.5C 124.5,39.1667 124.5,37.8333 124.5,36.5C 128.824,36.0728 133.158,35.7395 137.5,35.5 Z"/></g>
<g><path style="opacity:1" fill="#673a1f" d="M 67.5,39.5 C 66.2921,40.2341 64.9587,40.5674 63.5,40.5C 59.0713,38.55 57.5713,35.2167 59,30.5C 59.6365,37.8527 63.1365,40.0193 69.5,37C 68.6195,37.7083 67.9528,38.5416 67.5,39.5 Z"/></g>
<g><path style="opacity:1" fill="#683d23" d="M 197.5,36.5 C 196.067,37.8333 194.733,39.3333 193.5,41C 191.167,41.6667 188.833,41.6667 186.5,41C 185.748,40.3292 185.414,39.4959 185.5,38.5C 185.682,33.2063 186.182,33.2063 187,38.5C 187.804,39.8045 188.971,40.4712 190.5,40.5C 193.302,39.2715 195.469,37.2715 197,34.5C 197.464,35.0944 197.631,35.7611 197.5,36.5 Z"/></g>
<g><path style="opacity:1" fill="#6d4025" d="M 207.5,42.5 C 208.167,43.1667 208.833,43.8333 209.5,44.5C 207.516,44.6168 205.85,43.9501 204.5,42.5C 202.732,48.5519 201.732,47.8853 201.5,40.5C 204.01,40.0535 206.01,40.7202 207.5,42.5 Z"/></g>
<g><path style="opacity:1" fill="#a87c64" d="M 62.5,19.5 C 60.5187,21.3031 58.352,22.9697 56,24.5C 55.3083,25.4368 55.475,26.1034 56.5,26.5C 51.3981,30.4255 46.3981,34.5922 41.5,39C 39.5359,40.451 38.2026,42.2843 37.5,44.5C 37.5,45.1667 37.5,45.8333 37.5,46.5C 32.4441,51.8857 27.4441,57.2191 22.5,62.5C 20.52,63.4736 18.8533,64.807 17.5,66.5C 17.7497,64.326 18.7497,62.6594 20.5,61.5C 22.3264,59.8525 23.6597,57.8525 24.5,55.5C 24.427,53.9731 25.0937,52.9731 26.5,52.5C 28.5869,51.4154 29.9202,49.7488 30.5,47.5C 39.0178,35.6448 49.6845,26.3115 62.5,19.5 Z"/></g>
<g><path style="opacity:1" fill="#845132" d="M 152.5,44.5 C 154.861,44.6741 157.194,45.0074 159.5,45.5C 159.804,46.1499 160.137,46.8165 160.5,47.5C 154.329,50.3331 148.329,49.9998 142.5,46.5C 140.125,47.5826 137.792,47.5826 135.5,46.5C 136.59,45.3914 136.59,44.3914 135.5,43.5C 134.667,44.5 133.833,45.5 133,46.5C 131.174,44.9262 129.007,44.0929 126.5,44C 129.618,42.9779 132.618,41.8113 135.5,40.5C 138.537,38.8141 139.87,39.8141 139.5,43.5C 143.931,43.2307 148.265,43.564 152.5,44.5 Z"/></g>
<g><path style="opacity:1" fill="#936040" d="M 46.5,42.5 C 48.9896,44.4893 51.3229,46.6559 53.5,49C 50.3566,50.6095 47.1899,50.4428 44,48.5C 44.2605,51.117 45.7605,52.9503 48.5,54C 44.6486,53.3578 41.6486,51.1911 39.5,47.5C 42.2337,47.5008 45.2337,47.3342 48.5,47C 47.6266,45.955 46.6266,45.1217 45.5,44.5C 45.3284,43.5084 45.6618,42.8417 46.5,42.5 Z"/></g>
<g><path style="opacity:1" fill="#4d2914" d="M 197.5,45.5 C 198.837,46.3149 199.837,47.4815 200.5,49C 202.367,49.7112 203.867,49.2112 205,47.5C 205.617,48.4491 205.451,49.2825 204.5,50C 200.156,51.4757 197.822,49.9757 197.5,45.5 Z"/></g>
<g><path style="opacity:1" fill="#6a4838" d="M 30.5,47.5 C 29.9202,49.7488 28.5869,51.4154 26.5,52.5C 27.0798,50.2512 28.4131,48.5846 30.5,47.5 Z"/></g>
<g><path style="opacity:1" fill="#9a6241" d="M 124.5,57.5 C 124.167,57.5 123.833,57.5 123.5,57.5C 120.343,61.0085 116.676,63.6752 112.5,65.5C 109.455,65.5079 106.455,65.8413 103.5,66.5C 103.567,65.0413 103.234,63.7079 102.5,62.5C 101.426,61.1154 100.093,59.9487 98.5,59C 99,58.8333 99.5,58.6667 100,58.5C 104.961,60.6884 110.128,61.0217 115.5,59.5C 114.494,58.6043 114.494,57.9377 115.5,57.5C 117.263,58.9538 118.597,58.6204 119.5,56.5C 117.234,55.6858 114.9,55.1858 112.5,55C 110.983,53.3149 109.316,51.8149 107.5,50.5C 107.193,51.8875 107.193,53.5542 107.5,55.5C 104.356,54.8279 101.356,53.8279 98.5,52.5C 98.3601,50.8762 99.0267,49.7096 100.5,49C 98.3367,48.7547 96.67,47.7547 95.5,46C 104.67,46.242 113.837,45.4087 123,43.5C 124.434,43.9304 125.601,44.7638 126.5,46C 122.005,46.6357 117.672,47.6357 113.5,49C 116.478,49.696 119.478,50.196 122.5,50.5C 122.52,52.143 121.853,53.4763 120.5,54.5C 122.332,55.0568 123.665,56.0568 124.5,57.5 Z"/></g>
<g><path style="opacity:1" fill="#fbe3d3" d="M 164.5,61.5 C 164.565,61.9382 164.399,62.2716 164,62.5C 159.735,60.4156 155.568,58.0822 151.5,55.5C 150.058,54.1805 149.392,52.5138 149.5,50.5C 157.579,50.0339 162.579,53.7006 164.5,61.5 Z"/></g>
<g><path style="opacity:1" fill="#754426" d="M 35.5,53.5 C 37.3788,56.1148 39.7121,58.2814 42.5,60C 41.9056,60.4643 41.2389,60.631 40.5,60.5C 38.0626,58.567 35.7293,56.4003 33.5,54C 34.0944,53.5357 34.7611,53.369 35.5,53.5 Z"/></g>
<g><path style="opacity:1" fill="#61371f" d="M 219.5,55.5 C 222.1,56.9689 221.767,57.9689 218.5,58.5C 218.217,57.7109 217.717,57.0442 217,56.5C 215.229,57.3041 213.729,58.4708 212.5,60C 211.365,60.7494 210.365,60.5827 209.5,59.5C 211.479,59.1228 213.312,57.7894 215,55.5C 215.333,53.9532 214.833,52.6199 213.5,51.5C 213.833,51.1667 214.167,50.8333 214.5,50.5C 215.945,52.3936 217.612,54.0603 219.5,55.5 Z"/></g>
<g><path style="opacity:1" fill="#6b483a" d="M 24.5,55.5 C 23.6597,57.8525 22.3264,59.8525 20.5,61.5C 20.8449,58.8021 22.1782,56.8021 24.5,55.5 Z"/></g>
<g><path style="opacity:1" fill="#efc2a8" d="M 82.5,64.5 C 82.5,64.1667 82.5,63.8333 82.5,63.5C 82.2011,61.396 82.5344,59.396 83.5,57.5C 84.086,57.7093 84.586,58.0426 85,58.5C 85.4017,57.1279 85.9017,55.7946 86.5,54.5C 86.0623,53.4937 85.3957,53.4937 84.5,54.5C 82.5075,50.1445 83.8408,47.8111 88.5,47.5C 88.7399,50.5788 88.4066,53.5788 87.5,56.5C 89.1733,58.5225 89.8399,60.8559 89.5,63.5C 87.1944,63.9926 84.861,64.3259 82.5,64.5 Z"/></g>
<g><path style="opacity:1" fill="#c58762" d="M 180.5,21.5 C 188.327,24.4526 195.327,28.9526 201.5,35C 203.407,36.122 205.407,36.9553 207.5,37.5C 237.168,63.8438 250.501,96.8438 247.5,136.5C 247.823,130.31 247.49,124.31 246.5,118.5C 246.237,112.456 244.904,106.79 242.5,101.5C 242.276,99.2133 241.609,97.0466 240.5,95C 240.944,93.2382 241.444,93.4049 242,95.5C 241.951,91.5186 240.785,87.8519 238.5,84.5C 237.575,83.3595 236.741,83.3595 236,84.5C 235.598,83.1279 235.098,81.7946 234.5,80.5C 235.041,78.477 234.541,76.477 233,74.5C 230.546,73.8019 228.213,72.8019 226,71.5C 225.654,69.7818 225.154,68.1151 224.5,66.5C 224.709,65.914 225.043,65.414 225.5,65C 223.606,62.2698 221.273,60.1031 218.5,58.5C 221.767,57.9689 222.1,56.9689 219.5,55.5C 220.239,55.631 220.906,55.4643 221.5,55C 218.434,50.3203 214.434,46.8203 209.5,44.5C 208.833,43.8333 208.167,43.1667 207.5,42.5C 209.549,42.2942 209.883,41.4609 208.5,40C 205.226,39.0298 202.226,37.5298 199.5,35.5C 198.817,35.8627 198.15,36.1961 197.5,36.5C 197.631,35.7611 197.464,35.0944 197,34.5C 195.469,37.2715 193.302,39.2715 190.5,40.5C 188.971,40.4712 187.804,39.8045 187,38.5C 186.182,33.2063 185.682,33.2063 185.5,38.5C 184.861,37.9032 184.528,37.0698 184.5,36C 186.199,33.4032 187.199,30.5698 187.5,27.5C 185.833,27.5 184.167,27.5 182.5,27.5C 182.218,26.2223 181.551,25.2223 180.5,24.5C 181.625,23.6522 181.625,22.6522 180.5,21.5 Z"/></g>
<g><path style="opacity:1" fill="#ecbda3" d="M 102.5,62.5 C 103.234,63.7079 103.567,65.0413 103.5,66.5C 106.455,65.8413 109.455,65.5079 112.5,65.5C 117.343,65.3654 121.343,67.0321 124.5,70.5C 124.167,70.8333 123.833,71.1667 123.5,71.5C 122.389,70.3887 121.055,69.722 119.5,69.5C 116.673,71.1632 114.173,70.8298 112,68.5C 111.751,69.624 111.251,70.624 110.5,71.5C 105.165,70.6644 100.498,68.4977 96.5,65C 95.365,64.2506 94.365,64.4173 93.5,65.5C 97.8639,68.6824 102.531,71.3491 107.5,73.5C 108.583,74.365 108.749,75.365 108,76.5C 106.229,77.3041 104.729,78.4708 103.5,80C 104.549,80.4922 105.549,80.3256 106.5,79.5C 107.197,81.3845 108.197,81.7178 109.5,80.5C 109.833,81 110.167,81.5 110.5,82C 109.385,83.3932 108.885,84.8932 109,86.5C 110.956,86.2155 113.123,86.2155 115.5,86.5C 115.281,85.325 115.614,84.325 116.5,83.5C 120.908,87.5974 120.241,90.2641 114.5,91.5C 113.925,88.9853 112.925,88.4853 111.5,90C 112.414,91.4064 113.08,92.9064 113.5,94.5C 112.279,93.9717 111.113,93.305 110,92.5C 108.963,89.5945 107.796,86.7612 106.5,84C 104.575,82.4052 102.575,82.2385 100.5,83.5C 98.6329,80.7709 97.6329,81.1043 97.5,84.5C 95.8008,84.6602 94.1341,84.4935 92.5,84C 90.2941,81.9633 88.2941,79.7966 86.5,77.5C 86.5,75.8333 86.5,74.1667 86.5,72.5C 87.8734,72.6567 89.2068,72.49 90.5,72C 89.09,71.6322 88.09,70.7989 87.5,69.5C 88.8333,69.1667 90.1667,68.8333 91.5,68.5C 90.689,67.7836 90.0223,66.9503 89.5,66C 90.6669,62.6106 92.8336,61.7773 96,63.5C 97,62.8333 98,62.1667 99,61.5C 100.138,61.9891 101.305,62.3225 102.5,62.5 Z"/></g>
<g><path style="opacity:1" fill="#efc0a5" d="M 151.5,55.5 C 155.568,58.0822 159.735,60.4156 164,62.5C 164.399,62.2716 164.565,61.9382 164.5,61.5C 167.078,66.1409 168.578,71.1409 169,76.5C 168.626,75.5838 168.126,74.7504 167.5,74C 165.19,73.5034 162.857,73.3367 160.5,73.5C 157.16,72.9764 155.494,70.9764 155.5,67.5C 160,67.7809 160.833,66.1142 158,62.5C 155.578,60.2504 153.411,57.9171 151.5,55.5 Z"/></g>
<g><path style="opacity:1" fill="#a96f4d" d="M 160.5,73.5 C 160.833,74.1667 161.167,74.8333 161.5,75.5C 158.755,75.373 156.755,76.5397 155.5,79C 154.207,79.49 152.873,79.6567 151.5,79.5C 152.595,74.6145 150.928,72.9478 146.5,74.5C 147.297,76.1315 148.297,77.6315 149.5,79C 147.92,81.2607 148.253,83.094 150.5,84.5C 149.209,84.7373 148.209,84.404 147.5,83.5C 146.627,81.1137 145.127,79.1137 143,77.5C 141.991,75.9751 141.491,74.3084 141.5,72.5C 143.728,72.0298 145.061,71.0298 145.5,69.5C 149.274,69.8844 152.274,71.5511 154.5,74.5C 156.409,73.6518 158.409,73.3184 160.5,73.5 Z"/></g>
<g><path style="opacity:1" fill="#905b3b" d="M 82.5,63.5 C 82.5,63.8333 82.5,64.1667 82.5,64.5C 83.2299,65.7124 84.2299,66.7124 85.5,67.5C 84.5,68.1667 83.5,68.8333 82.5,69.5C 83.2132,71.7759 83.7132,74.1093 84,76.5C 84.6708,77.2524 85.5041,77.5858 86.5,77.5C 85.7822,79.1368 85.6155,80.8034 86,82.5C 87.9717,83.3052 89.4717,84.6385 90.5,86.5C 87.2516,87.2031 84.2516,87.2031 81.5,86.5C 82.0431,86.44 82.3764,86.1067 82.5,85.5C 80.0792,81.1981 79.4126,76.6981 80.5,72C 79.3179,69.9954 77.9846,68.1621 76.5,66.5C 76.5,65.5 76.5,64.5 76.5,63.5C 77.4287,60.3246 78.262,56.9913 79,53.5C 79.6667,52.8333 80.3333,52.1667 81,51.5C 80.7048,55.6 81.2048,59.6 82.5,63.5 Z"/></g>
<g><path style="opacity:1" fill="#855334" d="M 161.5,75.5 C 163.5,75.5 165.5,75.5 167.5,75.5C 167.36,77.1238 168.027,78.2904 169.5,79C 168.78,81.1223 167.613,81.6223 166,80.5C 165.798,82.2556 165.298,83.9223 164.5,85.5C 162.93,83.6212 161.264,83.2878 159.5,84.5C 156.5,84.5 153.5,84.5 150.5,84.5C 148.253,83.094 147.92,81.2607 149.5,79C 148.297,77.6315 147.297,76.1315 146.5,74.5C 150.928,72.9478 152.595,74.6145 151.5,79.5C 152.873,79.6567 154.207,79.49 155.5,79C 156.755,76.5397 158.755,75.373 161.5,75.5 Z"/></g>
<g><path style="opacity:1" fill="#dea889" d="M 76.5,63.5 C 76.5,64.5 76.5,65.5 76.5,66.5C 77.2319,74.1333 77.7319,81.8 78,89.5C 79.478,92.1579 80.6446,94.8245 81.5,97.5C 82.0241,99.3057 82.6908,100.972 83.5,102.5C 85.7197,105.765 86.8864,109.432 87,113.5C 88.7364,116.739 91.2364,119.073 94.5,120.5C 94.5,122.167 94.5,123.833 94.5,125.5C 92.1484,127.144 90.8151,129.477 90.5,132.5C 88.9288,134.415 86.9288,135.415 84.5,135.5C 84.3048,139.192 82.3048,141.026 78.5,141C 78.8333,141.333 79.1667,141.667 79.5,142C 78.2341,142.309 77.0674,142.809 76,143.5C 75.0643,140.208 75.5643,137.208 77.5,134.5C 77.3333,134.167 77.1667,133.833 77,133.5C 76.1841,134.823 75.0174,135.489 73.5,135.5C 72.2719,134.694 71.2719,133.694 70.5,132.5C 70.189,131.522 69.5223,130.855 68.5,130.5C 67.1585,132.005 65.4918,132.672 63.5,132.5C 63.8016,135.059 63.4682,137.393 62.5,139.5C 62.6621,137.473 62.4955,135.473 62,133.5C 61.3292,132.748 60.4959,132.414 59.5,132.5C 59.44,131.957 59.1067,131.624 58.5,131.5C 57.452,132.383 56.2853,133.05 55,133.5C 53.5349,132.67 52.0349,132.504 50.5,133C 52.8333,135.667 55.1667,138.333 57.5,141C 57.2716,141.399 56.9382,141.565 56.5,141.5C 54.7541,139.748 52.7541,138.415 50.5,137.5C 49.8333,137.5 49.1667,137.5 48.5,137.5C 48.7989,135.396 48.4656,133.396 47.5,131.5C 46.6143,132.325 46.281,133.325 46.5,134.5C 45.1067,133.74 43.6067,133.074 42,132.5C 41.1667,132.667 40.3333,132.833 39.5,133C 43.7225,135.244 43.3892,136.41 38.5,136.5C 38.7373,135.209 38.404,134.209 37.5,133.5C 37.6716,132.508 37.3382,131.842 36.5,131.5C 35.2652,131.721 34.2652,132.388 33.5,133.5C 31.9017,132.515 30.235,132.349 28.5,133C 30.1691,134.669 32.1691,135.502 34.5,135.5C 34.719,136.675 34.3857,137.675 33.5,138.5C 32.065,136.599 30.3983,136.266 28.5,137.5C 29.325,138.386 30.325,138.719 31.5,138.5C 31.5,139.5 31.5,140.5 31.5,141.5C 30.1667,141.5 28.8333,141.5 27.5,141.5C 27.665,138.15 27.4983,134.817 27,131.5C 25.5845,134.958 25.0845,138.625 25.5,142.5C 26.7373,144.097 28.404,145.263 30.5,146C 25.8984,147.538 25.5651,149.538 29.5,152C 29.1667,152.333 28.8333,152.667 28.5,153C 30.6079,153.36 32.6079,154.027 34.5,155C 34.1667,155.333 33.8333,155.667 33.5,156C 34.3567,156.689 35.0233,157.522 35.5,158.5C 32.2133,159.942 29.3799,159.275 27,156.5C 27.382,158.771 28.5487,160.771 30.5,162.5C 31.4255,163.641 32.2588,163.641 33,162.5C 33.7065,164.081 34.5399,165.581 35.5,167C 34.9491,168.398 34.6158,169.732 34.5,171C 37.9076,173.063 40.9076,174.896 43.5,176.5C 42.624,177.251 41.624,177.751 40.5,178C 42.9273,178.627 44.9273,179.794 46.5,181.5C 47.6253,183.129 48.9586,184.629 50.5,186C 48.9926,186.837 48.4926,188.004 49,189.5C 50.3639,188.742 51.5305,189.242 52.5,191C 48.3282,193.139 47.6615,195.972 50.5,199.5C 50.2908,200.994 49.6241,202.161 48.5,203C 51.851,205.096 52.0177,207.596 49,210.5C 48.4054,209.101 48.5721,207.768 49.5,206.5C 48.376,205.086 47.376,203.586 46.5,202C 46.8333,201.667 47.1667,201.333 47.5,201C 46.552,200.517 45.552,200.351 44.5,200.5C 44.6495,201.552 44.4828,202.552 44,203.5C 41.9852,200.469 40.8185,197.136 40.5,193.5C 36.4589,193.498 35.7923,192.165 38.5,189.5C 37.6086,188.41 36.6086,188.41 35.5,189.5C 33.585,187.929 32.585,185.929 32.5,183.5C 28.0061,182.841 26.3395,180.175 27.5,175.5C 26.5,175.5 25.5,175.5 24.5,175.5C 23.6827,172.521 22.8494,169.521 22,166.5C 19.0759,162.916 16.5759,159.083 14.5,155C 15.5,154.667 16.5,154.333 17.5,154C 16.7511,152.266 16.2511,150.433 16,148.5C 15.6667,148.833 15.3333,149.167 15,149.5C 12.6368,145.674 13.8035,144.007 18.5,144.5C 18.7373,143.209 18.404,142.209 17.5,141.5C 15.8333,141.5 14.1667,141.5 12.5,141.5C 12.8128,137.958 12.4794,134.625 11.5,131.5C 10.4695,130.448 9.80288,129.114 9.5,127.5C 10.279,125.224 11.279,123.058 12.5,121C 11.6909,119.216 11.0243,117.383 10.5,115.5C 10.9186,114.328 11.5853,113.328 12.5,112.5C 10.0776,110.952 10.0776,109.286 12.5,107.5C 10.7976,104.31 11.4643,103.143 14.5,104C 13.9389,102.324 12.9389,100.991 11.5,100C 14.0731,96.8902 16.5731,93.7236 19,90.5C 19.7496,84.8219 21.4162,79.4886 24,74.5C 26.0875,72.2548 27.4208,69.5881 28,66.5C 29.6665,67.3402 29.8331,66.8402 28.5,65C 30.969,62.9057 33.6356,62.4057 36.5,63.5C 37.3857,62.675 37.719,61.675 37.5,60.5C 38.5,60.5 39.5,60.5 40.5,60.5C 41.2389,60.631 41.9056,60.4643 42.5,60C 39.7121,58.2814 37.3788,56.1148 35.5,53.5C 37.4913,53.6823 39.4913,53.1823 41.5,52C 38.5744,51.313 37.2411,49.4797 37.5,46.5C 37.5,45.8333 37.5,45.1667 37.5,44.5C 37.8333,44.5 38.1667,44.5 38.5,44.5C 40.6687,43.9182 43.002,43.9182 45.5,44.5C 46.6266,45.1217 47.6266,45.955 48.5,47C 45.2337,47.3342 42.2337,47.5008 39.5,47.5C 41.6486,51.1911 44.6486,53.3578 48.5,54C 45.7605,52.9503 44.2605,51.117 44,48.5C 47.1899,50.4428 50.3566,50.6095 53.5,49C 51.3229,46.6559 48.9896,44.4893 46.5,42.5C 45.537,41.6365 45.537,40.9698 46.5,40.5C 47.8745,41.7113 49.3745,42.7113 51,43.5C 53.4848,41.2443 55.8182,41.2443 58,43.5C 59.2635,41.393 61.0968,40.393 63.5,40.5C 64.9587,40.5674 66.2921,40.2341 67.5,39.5C 68.7666,38.913 69.7666,38.913 70.5,39.5C 70.02,41.9486 69.02,44.1153 67.5,46C 69.4216,46.3898 71.4216,47.3898 73.5,49C 73,49.5 72.5,50 72,50.5C 70.7361,50.3601 69.5695,50.3601 68.5,50.5C 70.6633,51.8323 72.33,53.6656 73.5,56C 72.5,56.3333 71.5,56.6667 70.5,57C 73.7667,58.0962 75.7667,60.2629 76.5,63.5 Z"/></g>
<g><path style="opacity:1" fill="#634438" d="M 17.5,66.5 C 12.2014,78.1485 7.86802,89.4818 4.5,100.5C 6.49768,88.1591 10.831,76.8258 17.5,66.5 Z"/></g>
<g><path style="opacity:1" fill="#3a2620" d="M 177.5,12.5 C 177.5,12.1667 177.5,11.8333 177.5,11.5C 220.984,31.1905 246.151,64.8572 253,112.5C 253.5,118.825 253.666,125.158 253.5,131.5C 252.833,131.5 252.5,131.167 252.5,130.5C 251.227,75.9273 226.227,36.5939 177.5,12.5 Z"/></g>
<g><path style="opacity:1" fill="#643b23" d="M 76.5,66.5 C 77.9846,68.1621 79.3179,69.9954 80.5,72C 79.4126,76.6981 80.0792,81.1981 82.5,85.5C 82.3764,86.1067 82.0431,86.44 81.5,86.5C 80.9569,86.56 80.6236,86.8933 80.5,87.5C 81.1925,88.5178 81.8592,89.5178 82.5,90.5C 82.8016,93.0593 82.4682,95.3926 81.5,97.5C 80.6446,94.8245 79.478,92.1579 78,89.5C 77.7319,81.8 77.2319,74.1333 76.5,66.5 Z"/></g>
<g><path style="opacity:1" fill="#fce4d4" d="M 170.5,85.5 C 173.072,88.9692 175.406,92.6358 177.5,96.5C 176.675,97.3857 175.675,97.719 174.5,97.5C 174.238,95.4362 173.071,94.1029 171,93.5C 169.629,89.9268 168.129,86.4268 166.5,83C 168.412,82.7207 169.746,83.5541 170.5,85.5 Z"/></g>
<g><path style="opacity:1" fill="#c58e6d" d="M 86.5,77.5 C 88.2941,79.7966 90.2941,81.9633 92.5,84C 94.1341,84.4935 95.8008,84.6602 97.5,84.5C 99.2303,85.0256 100.564,86.0256 101.5,87.5C 97.1074,87.4568 96.7741,87.9568 100.5,89C 101.305,90.1127 101.972,91.2794 102.5,92.5C 101.5,92.5 100.5,92.5 99.5,92.5C 99.5,91.5 99.5,90.5 99.5,89.5C 97.4727,89.3379 95.4727,89.5045 93.5,90C 97.6553,92.2728 97.322,93.4395 92.5,93.5C 92.5,95.1667 92.5,96.8333 92.5,98.5C 91.8501,98.1961 91.1835,97.8627 90.5,97.5C 89.2234,100.034 89.2234,102.534 90.5,105C 89.9056,105.464 89.2389,105.631 88.5,105.5C 87.0937,105.027 86.427,104.027 86.5,102.5C 86.1231,100.742 85.4565,99.0754 84.5,97.5C 90.472,96.9498 91.1386,94.7832 86.5,91C 85.2068,90.51 83.8734,90.3433 82.5,90.5C 81.8592,89.5178 81.1925,88.5178 80.5,87.5C 80.6236,86.8933 80.9569,86.56 81.5,86.5C 84.2516,87.2031 87.2516,87.2031 90.5,86.5C 89.4717,84.6385 87.9717,83.3052 86,82.5C 85.6155,80.8034 85.7822,79.1368 86.5,77.5 Z"/></g>
<g><path style="opacity:1" fill="#7f5032" d="M 114.5,91.5 C 115.141,92.4822 115.807,93.4822 116.5,94.5C 116.376,95.1067 116.043,95.44 115.5,95.5C 114.833,95.1667 114.167,94.8333 113.5,94.5C 113.08,92.9064 112.414,91.4064 111.5,90C 112.925,88.4853 113.925,88.9853 114.5,91.5 Z"/></g>
<g><path style="opacity:1" fill="#c28967" d="M 123.5,57.5 C 123.5,58.5 123.5,59.5 123.5,60.5C 127.588,60.2184 128.088,60.8851 125,62.5C 123.535,61.6705 122.035,61.5038 120.5,62C 121.871,65.3801 124.038,68.2134 127,70.5C 127.483,71.448 127.649,72.448 127.5,73.5C 128.5,73.5 129.5,73.5 130.5,73.5C 130.473,75.1993 129.806,76.5326 128.5,77.5C 128.167,77.5 127.833,77.5 127.5,77.5C 126.167,77.5 124.833,77.5 123.5,77.5C 123.008,81.4565 123.675,85.1232 125.5,88.5C 130.006,89.2555 134.339,90.4221 138.5,92C 144.166,96.2964 150.499,98.1297 157.5,97.5C 156.02,99.5443 156.52,100.878 159,101.5C 160.333,100.833 161.667,100.167 163,99.5C 163.765,99.5699 164.265,99.9033 164.5,100.5C 163.957,100.56 163.624,100.893 163.5,101.5C 165.291,102.17 166.958,102.837 168.5,103.5C 165.017,102.916 162.017,103.749 159.5,106C 156.429,106.147 153.596,106.98 151,108.5C 147.014,105.313 143.18,101.813 139.5,98C 137.865,97.4604 136.532,97.9604 135.5,99.5C 133.38,98.1285 132.38,98.7952 132.5,101.5C 127.554,99.0948 122.221,97.4281 116.5,96.5C 115.833,96.5 115.5,96.1667 115.5,95.5C 116.043,95.44 116.376,95.1067 116.5,94.5C 115.807,93.4822 115.141,92.4822 114.5,91.5C 120.241,90.2641 120.908,87.5974 116.5,83.5C 115.614,84.325 115.281,85.325 115.5,86.5C 113.123,86.2155 110.956,86.2155 109,86.5C 108.885,84.8932 109.385,83.3932 110.5,82C 110.167,81.5 109.833,81 109.5,80.5C 108.197,81.7178 107.197,81.3845 106.5,79.5C 105.549,80.3256 104.549,80.4922 103.5,80C 104.729,78.4708 106.229,77.3041 108,76.5C 108.749,75.365 108.583,74.365 107.5,73.5C 102.531,71.3491 97.8639,68.6824 93.5,65.5C 94.365,64.4173 95.365,64.2506 96.5,65C 100.498,68.4977 105.165,70.6644 110.5,71.5C 111.251,70.624 111.751,69.624 112,68.5C 114.173,70.8298 116.673,71.1632 119.5,69.5C 121.055,69.722 122.389,70.3887 123.5,71.5C 123.833,71.1667 124.167,70.8333 124.5,70.5C 121.343,67.0321 117.343,65.3654 112.5,65.5C 116.676,63.6752 120.343,61.0085 123.5,57.5 Z"/></g>
<g><path style="opacity:1" fill="#79492c" d="M 110.5,76.5 C 112.198,79.0343 113.531,81.8676 114.5,85C 113.552,85.4828 112.552,85.6495 111.5,85.5C 111.492,82.4552 111.159,79.4552 110.5,76.5 Z"/></g>
<g><path style="opacity:1" fill="#ebbca1" d="M 147.5,83.5 C 148.209,84.404 149.209,84.7373 150.5,84.5C 153.5,84.5 156.5,84.5 159.5,84.5C 159.783,85.2891 160.283,85.9558 161,86.5C 161.741,85.3595 162.575,85.3595 163.5,86.5C 164.185,88.7808 164.351,91.1141 164,93.5C 166.034,95.0316 168.201,96.3649 170.5,97.5C 171.386,98.325 171.719,99.325 171.5,100.5C 169.167,100.5 166.833,100.5 164.5,100.5C 164.265,99.9033 163.765,99.5699 163,99.5C 161.667,100.167 160.333,100.833 159,101.5C 156.52,100.878 156.02,99.5443 157.5,97.5C 150.499,98.1297 144.166,96.2964 138.5,92C 134.339,90.4221 130.006,89.2555 125.5,88.5C 123.675,85.1232 123.008,81.4565 123.5,77.5C 124.833,77.5 126.167,77.5 127.5,77.5C 129.556,81.0674 132.223,84.2341 135.5,87C 141.323,89.0532 147.156,90.8865 153,92.5C 156.013,91.9555 156.179,90.7888 153.5,89C 148.228,87.365 143.562,84.6984 139.5,81C 135.564,80.3894 131.898,79.2227 128.5,77.5C 129.806,76.5326 130.473,75.1993 130.5,73.5C 129.5,73.5 128.5,73.5 127.5,73.5C 127.649,72.448 127.483,71.448 127,70.5C 124.038,68.2134 121.871,65.3801 120.5,62C 122.035,61.5038 123.535,61.6705 125,62.5C 128.088,60.8851 127.588,60.2184 123.5,60.5C 123.5,59.5 123.5,58.5 123.5,57.5C 123.833,57.5 124.167,57.5 124.5,57.5C 125.165,55.3021 125.832,52.9688 126.5,50.5C 127.293,50.0688 128.127,49.7355 129,49.5C 132.815,49.8772 136.149,51.2106 139,53.5C 139.95,52.9777 140.784,52.311 141.5,51.5C 145.341,53.253 145.008,54.5864 140.5,55.5C 139.887,56.9798 139.554,58.3131 139.5,59.5C 138.376,58.086 137.376,56.586 136.5,55C 135.668,54.3123 135.002,54.479 134.5,55.5C 135.383,56.548 136.05,57.7147 136.5,59C 135.167,60.6667 135.167,62.3333 136.5,64C 135.711,65.6255 134.711,67.1255 133.5,68.5C 134.376,69.2508 135.376,69.7508 136.5,70C 136.043,70.414 135.709,70.914 135.5,71.5C 140.112,72.8388 140.445,74.6721 136.5,77C 140.054,79.3933 143.72,81.5599 147.5,83.5 Z"/></g>
<g><path style="opacity:1" fill="#fcdecd" d="M 127.5,77.5 C 127.833,77.5 128.167,77.5 128.5,77.5C 131.898,79.2227 135.564,80.3894 139.5,81C 143.562,84.6984 148.228,87.365 153.5,89C 156.179,90.7888 156.013,91.9555 153,92.5C 147.156,90.8865 141.323,89.0532 135.5,87C 132.223,84.2341 129.556,81.0674 127.5,77.5 Z"/></g>
<g><path style="opacity:1" fill="#945f3f" d="M 82.5,90.5 C 83.8734,90.3433 85.2068,90.51 86.5,91C 91.1386,94.7832 90.472,96.9498 84.5,97.5C 85.4565,99.0754 86.1231,100.742 86.5,102.5C 85.3478,101.375 84.3478,101.375 83.5,102.5C 82.6908,100.972 82.0241,99.3057 81.5,97.5C 82.4682,95.3926 82.8016,93.0593 82.5,90.5 Z"/></g>
<g><path style="opacity:1" fill="#e4b396" d="M 101.5,87.5 C 105.468,88.0709 107.635,90.4043 108,94.5C 109.745,95.9557 111.578,97.289 113.5,98.5C 113.167,98.8333 112.833,99.1667 112.5,99.5C 111.086,98.376 109.586,97.376 108,96.5C 107.601,96.7284 107.435,97.0618 107.5,97.5C 105.322,94.3384 103.322,91.005 101.5,87.5 Z"/></g>
<g><path style="opacity:1" fill="#fadecc" d="M 113.5,94.5 C 114.167,94.8333 114.833,95.1667 115.5,95.5C 115.5,96.1667 115.833,96.5 116.5,96.5C 116.389,97.1174 116.056,97.6174 115.5,98C 118.147,98.3149 118.813,99.4816 117.5,101.5C 115.955,102.452 114.288,102.785 112.5,102.5C 110.451,101.118 108.785,99.4516 107.5,97.5C 107.435,97.0618 107.601,96.7284 108,96.5C 109.586,97.376 111.086,98.376 112.5,99.5C 112.833,99.1667 113.167,98.8333 113.5,98.5C 111.578,97.289 109.745,95.9557 108,94.5C 107.635,90.4043 105.468,88.0709 101.5,87.5C 100.564,86.0256 99.2303,85.0256 97.5,84.5C 97.6329,81.1043 98.6329,80.7709 100.5,83.5C 102.575,82.2385 104.575,82.4052 106.5,84C 107.796,86.7612 108.963,89.5945 110,92.5C 111.113,93.305 112.279,93.9717 113.5,94.5 Z"/></g>
<g><path style="opacity:1" fill="#532e18" d="M 177.5,101.5 C 174.299,102.453 171.299,103.786 168.5,105.5C 168.5,104.833 168.5,104.167 168.5,103.5C 166.958,102.837 165.291,102.17 163.5,101.5C 163.624,100.893 163.957,100.56 164.5,100.5C 168.513,101.947 172.513,101.613 176.5,99.5C 177.298,99.9569 177.631,100.624 177.5,101.5 Z"/></g>
<g><path style="opacity:1" fill="#e4b296" d="M 102.5,92.5 C 104.634,97.7739 107.967,102.107 112.5,105.5C 117.235,110.632 121.235,116.299 124.5,122.5C 124.103,123.525 123.437,123.692 122.5,123C 118.996,119.816 116.663,115.982 115.5,111.5C 114.167,111.5 112.833,111.5 111.5,111.5C 111.433,113.401 111.767,115.234 112.5,117C 111.991,118.169 111.158,119.002 110,119.5C 108.69,113.014 105.19,108.014 99.5,104.5C 99.1667,104.667 98.8333,104.833 98.5,105C 102.011,107.166 103.344,109.999 102.5,113.5C 99.921,110.865 96.921,108.699 93.5,107C 92.6634,105.989 92.33,104.822 92.5,103.5C 94.1092,103.906 95.4425,103.906 96.5,103.5C 95.1431,101.814 93.8098,100.148 92.5,98.5C 92.5,96.8333 92.5,95.1667 92.5,93.5C 97.322,93.4395 97.6553,92.2728 93.5,90C 95.4727,89.5045 97.4727,89.3379 99.5,89.5C 99.5,90.5 99.5,91.5 99.5,92.5C 100.5,92.5 101.5,92.5 102.5,92.5 Z"/></g>
<g><path style="opacity:1" fill="#5d361f" d="M 101.5,87.5 C 103.322,91.005 105.322,94.3384 107.5,97.5C 108.785,99.4516 110.451,101.118 112.5,102.5C 113.952,103.302 115.618,103.802 117.5,104C 116.944,104.383 116.611,104.883 116.5,105.5C 115.167,105.5 113.833,105.5 112.5,105.5C 107.967,102.107 104.634,97.7739 102.5,92.5C 101.972,91.2794 101.305,90.1127 100.5,89C 96.7741,87.9568 97.1074,87.4568 101.5,87.5 Z"/></g>
<g><path style="opacity:1" fill="#79482e" d="M 8.5,96.5 C 8.32524,102.438 7.32524,108.105 5.5,113.5C 5.12547,107.468 6.12547,101.802 8.5,96.5 Z"/></g>
<g><path style="opacity:1" fill="#945f3f" d="M 92.5,98.5 C 93.8098,100.148 95.1431,101.814 96.5,103.5C 95.4425,103.906 94.1092,103.906 92.5,103.5C 92.33,104.822 92.6634,105.989 93.5,107C 96.921,108.699 99.921,110.865 102.5,113.5C 102.631,114.239 102.464,114.906 102,115.5C 100.601,114.773 99.1012,114.273 97.5,114C 96.6634,112.989 96.33,111.822 96.5,110.5C 94.8212,110.285 93.8212,110.952 93.5,112.5C 92.6981,113.952 92.1981,115.618 92,117.5C 90.662,114.682 89.162,112.015 87.5,109.5C 87.8178,108.353 88.4844,107.519 89.5,107C 88.944,106.617 88.6107,106.117 88.5,105.5C 89.2389,105.631 89.9056,105.464 90.5,105C 89.2234,102.534 89.2234,100.034 90.5,97.5C 91.1835,97.8627 91.8501,98.1961 92.5,98.5 Z"/></g>
<g><path style="opacity:1" fill="#b87f5e" d="M 124.5,122.5 C 127.597,124.655 130.597,126.988 133.5,129.5C 130.315,130.458 127.315,129.958 124.5,128C 122.167,127.333 119.833,127.333 117.5,128C 119.375,130.935 121.708,133.435 124.5,135.5C 117.859,132.514 111.193,129.514 104.5,126.5C 102.491,125.416 100.324,124.416 98,123.5C 96.5657,123.862 95.3991,124.528 94.5,125.5C 94.5,123.833 94.5,122.167 94.5,120.5C 95.1515,121.091 95.8182,121.757 96.5,122.5C 97.3184,120.892 97.9851,119.225 98.5,117.5C 96.1461,116.406 94.4794,114.739 93.5,112.5C 93.8212,110.952 94.8212,110.285 96.5,110.5C 96.33,111.822 96.6634,112.989 97.5,114C 99.1012,114.273 100.601,114.773 102,115.5C 102.464,114.906 102.631,114.239 102.5,113.5C 103.344,109.999 102.011,107.166 98.5,105C 98.8333,104.833 99.1667,104.667 99.5,104.5C 105.19,108.014 108.69,113.014 110,119.5C 111.158,119.002 111.991,118.169 112.5,117C 111.767,115.234 111.433,113.401 111.5,111.5C 112.833,111.5 114.167,111.5 115.5,111.5C 116.663,115.982 118.996,119.816 122.5,123C 123.437,123.692 124.103,123.525 124.5,122.5 Z"/></g>
<g><path style="opacity:1" fill="#edc0a6" d="M 116.5,96.5 C 122.221,97.4281 127.554,99.0948 132.5,101.5C 132.38,98.7952 133.38,98.1285 135.5,99.5C 136.532,97.9604 137.865,97.4604 139.5,98C 143.18,101.813 147.014,105.313 151,108.5C 153.596,106.98 156.429,106.147 159.5,106C 162.017,103.749 165.017,102.916 168.5,103.5C 168.5,104.167 168.5,104.833 168.5,105.5C 168.67,106.822 168.337,107.989 167.5,109C 164.833,109.333 162.167,109.667 159.5,110C 159.043,110.414 158.709,110.914 158.5,111.5C 161.975,112.08 165.309,112.913 168.5,114C 165.099,113.734 163.433,115.234 163.5,118.5C 165.144,118.714 166.644,118.38 168,117.5C 169.419,118.46 170.919,119.293 172.5,120C 171.748,120.671 171.414,121.504 171.5,122.5C 166.339,120.286 161.006,118.62 155.5,117.5C 155.5,118.5 155.5,119.5 155.5,120.5C 154.022,120.238 152.689,120.571 151.5,121.5C 157.715,124.917 164.382,126.25 171.5,125.5C 171.721,126.735 172.388,127.735 173.5,128.5C 170.475,129.674 167.808,129.007 165.5,126.5C 164.833,126.833 164.167,127.167 163.5,127.5C 161.217,126.679 158.884,126.012 156.5,125.5C 154.895,126.43 153.395,126.43 152,125.5C 151.517,126.448 151.351,127.448 151.5,128.5C 149.139,128.326 146.806,127.993 144.5,127.5C 143.883,125.32 142.883,123.32 141.5,121.5C 138.389,119.979 135.389,118.312 132.5,116.5C 131.614,115.675 131.281,114.675 131.5,113.5C 129.833,113.5 128.167,113.5 126.5,113.5C 121.657,112.651 118.323,109.984 116.5,105.5C 116.611,104.883 116.944,104.383 117.5,104C 115.618,103.802 113.952,103.302 112.5,102.5C 114.288,102.785 115.955,102.452 117.5,101.5C 118.813,99.4816 118.147,98.3149 115.5,98C 116.056,97.6174 116.389,97.1174 116.5,96.5 Z"/></g>
<g><path style="opacity:1" fill="#643a20" d="M 86.5,102.5 C 86.427,104.027 87.0937,105.027 88.5,105.5C 88.6107,106.117 88.944,106.617 89.5,107C 88.4844,107.519 87.8178,108.353 87.5,109.5C 89.162,112.015 90.662,114.682 92,117.5C 92.1981,115.618 92.6981,113.952 93.5,112.5C 94.4794,114.739 96.1461,116.406 98.5,117.5C 97.9851,119.225 97.3184,120.892 96.5,122.5C 95.8182,121.757 95.1515,121.091 94.5,120.5C 91.2364,119.073 88.7364,116.739 87,113.5C 86.8864,109.432 85.7197,105.765 83.5,102.5C 84.3478,101.375 85.3478,101.375 86.5,102.5 Z"/></g>
<g><path style="opacity:1" fill="#fbdecc" d="M 171.5,122.5 C 172.625,123.652 172.625,124.652 171.5,125.5C 164.382,126.25 157.715,124.917 151.5,121.5C 152.689,120.571 154.022,120.238 155.5,120.5C 155.5,119.5 155.5,118.5 155.5,117.5C 161.006,118.62 166.339,120.286 171.5,122.5 Z"/></g>
<g><path style="opacity:1" fill="#ae846e" d="M 22.5,62.5 C 18.4215,70.3256 14.5881,78.3256 11,86.5C 9.84969,89.7679 9.01636,93.1012 8.5,96.5C 6.12547,101.802 5.12547,107.468 5.5,113.5C 5.74834,121.033 5.415,128.533 4.5,136C 5.85015,144.251 7.51682,152.418 9.5,160.5C 9.5,160.833 9.5,161.167 9.5,161.5C 7.62643,159.918 6.2931,157.918 5.5,155.5C 4.5418,153.698 3.87513,151.698 3.5,149.5C 4.14713,148.726 4.48046,147.726 4.5,146.5C 4.27703,142.336 3.61037,139.669 2.5,138.5C 1.34269,129.676 1.17602,120.676 2,111.5C 2.41878,107.608 3.25212,103.942 4.5,100.5C 7.86802,89.4818 12.2014,78.1485 17.5,66.5C 18.8533,64.807 20.52,63.4736 22.5,62.5 Z"/></g>
<g><path style="opacity:1" fill="#cc9372" d="M 126.5,113.5 C 128.167,113.5 129.833,113.5 131.5,113.5C 131.281,114.675 131.614,115.675 132.5,116.5C 135.389,118.312 138.389,119.979 141.5,121.5C 142.883,123.32 143.883,125.32 144.5,127.5C 138.125,126.445 132.792,123.611 128.5,119C 131.849,118.911 132.349,117.744 130,115.5C 128.698,114.915 127.531,114.249 126.5,113.5 Z"/></g>
<g><path style="opacity:1" fill="#9f6846" d="M 112.5,105.5 C 113.833,105.5 115.167,105.5 116.5,105.5C 118.323,109.984 121.657,112.651 126.5,113.5C 127.531,114.249 128.698,114.915 130,115.5C 132.349,117.744 131.849,118.911 128.5,119C 132.792,123.611 138.125,126.445 144.5,127.5C 145.262,129.262 146.596,130.262 148.5,130.5C 146.777,131.807 144.943,131.807 143,130.5C 142.53,131.577 142.697,132.577 143.5,133.5C 141.352,133.389 141.019,134.056 142.5,135.5C 145.252,138.263 148.252,140.597 151.5,142.5C 150.413,146.573 147.746,148.239 143.5,147.5C 137.299,143.236 130.966,139.236 124.5,135.5C 121.708,133.435 119.375,130.935 117.5,128C 119.833,127.333 122.167,127.333 124.5,128C 127.315,129.958 130.315,130.458 133.5,129.5C 130.597,126.988 127.597,124.655 124.5,122.5C 121.235,116.299 117.235,110.632 112.5,105.5 Z"/></g>
<g><path style="opacity:1" fill="#5f4037" d="M 3.5,149.5 C 2.88575,145.865 2.55241,142.198 2.5,138.5C 3.61037,139.669 4.27703,142.336 4.5,146.5C 4.48046,147.726 4.14713,148.726 3.5,149.5 Z"/></g>
<g><path style="opacity:1" fill="#daa384" d="M 242.5,101.5 C 244.904,106.79 246.237,112.456 246.5,118.5C 245.305,128.233 244.972,137.899 245.5,147.5C 244.5,147.5 243.5,147.5 242.5,147.5C 243.833,149.833 243.833,152.167 242.5,154.5C 241.448,154.351 240.448,154.517 239.5,155C 239.833,155.333 240.167,155.667 240.5,156C 238.5,157.333 236.5,158.667 234.5,160C 235.167,160.333 235.833,160.667 236.5,161C 236.307,162.645 236.14,164.479 236,166.5C 234.853,165.542 233.853,165.875 233,167.5C 231.933,165.717 230.433,165.217 228.5,166C 229.974,167.316 231.641,168.316 233.5,169C 232.421,169.956 231.255,170.789 230,171.5C 228.556,169.845 226.722,169.178 224.5,169.5C 221.921,169.917 219.754,169.25 218,167.5C 217.51,168.793 217.343,170.127 217.5,171.5C 219.5,171.5 221.5,171.5 223.5,171.5C 223.157,173.483 223.824,174.817 225.5,175.5C 226.161,174.282 226.828,172.949 227.5,171.5C 228.308,171.808 228.975,172.308 229.5,173C 227.833,175.333 226.167,177.667 224.5,180C 226.108,180.658 227.275,180.158 228,178.5C 228.374,179.416 228.874,180.25 229.5,181C 227.403,182.646 225.736,184.646 224.5,187C 224.957,187.414 225.291,187.914 225.5,188.5C 223.718,191.019 222.218,193.685 221,196.5C 219.846,197.743 218.512,198.743 217,199.5C 216.667,200.833 216.333,202.167 216,203.5C 214.028,204.305 212.528,205.639 211.5,207.5C 209.704,208.141 208.204,209.141 207,210.5C 206.329,209.748 205.496,209.414 204.5,209.5C 199.699,204.528 195.032,199.362 190.5,194C 181.666,186.664 172.999,179.164 164.5,171.5C 162.788,168.289 160.121,166.456 156.5,166C 155.809,164.933 155.309,163.766 155,162.5C 153.989,163.337 152.822,163.67 151.5,163.5C 153.811,161.932 156.478,161.098 159.5,161C 158.748,160.329 158.414,159.496 158.5,158.5C 159.332,157.671 158.999,156.838 157.5,156C 155.616,155.784 153.949,155.117 152.5,154C 153.308,153.692 153.975,153.192 154.5,152.5C 152.445,151.813 150.779,150.646 149.5,149C 148.216,148.316 147.049,148.483 146,149.5C 145.005,148.934 144.172,148.267 143.5,147.5C 147.746,148.239 150.413,146.573 151.5,142.5C 155.755,140.071 160.422,138.904 165.5,139C 168.695,137.305 171.028,134.805 172.5,131.5C 170.657,131.245 168.657,131.078 166.5,131C 162.873,127.642 162.206,127.975 164.5,132C 159.082,132.484 153.749,131.984 148.5,130.5C 146.596,130.262 145.262,129.262 144.5,127.5C 146.806,127.993 149.139,128.326 151.5,128.5C 151.351,127.448 151.517,126.448 152,125.5C 153.395,126.43 154.895,126.43 156.5,125.5C 158.884,126.012 161.217,126.679 163.5,127.5C 164.167,127.167 164.833,126.833 165.5,126.5C 167.808,129.007 170.475,129.674 173.5,128.5C 172.388,127.735 171.721,126.735 171.5,125.5C 172.625,124.652 172.625,123.652 171.5,122.5C 171.414,121.504 171.748,120.671 172.5,120C 170.919,119.293 169.419,118.46 168,117.5C 166.644,118.38 165.144,118.714 163.5,118.5C 163.433,115.234 165.099,113.734 168.5,114C 165.309,112.913 161.975,112.08 158.5,111.5C 158.709,110.914 159.043,110.414 159.5,110C 162.167,109.667 164.833,109.333 167.5,109C 168.337,107.989 168.67,106.822 168.5,105.5C 171.299,103.786 174.299,102.453 177.5,101.5C 178.404,100.791 178.737,99.791 178.5,98.5C 176.901,98.7678 175.568,98.4345 174.5,97.5C 175.675,97.719 176.675,97.3857 177.5,96.5C 175.406,92.6358 173.072,88.9692 170.5,85.5C 171.761,82.7422 172.594,79.7422 173,76.5C 174.085,75.7069 175.252,75.0402 176.5,74.5C 177.403,76.8571 179.07,78.3571 181.5,79C 183.108,79.658 184.275,79.158 185,77.5C 185.595,81.0822 186.929,81.4155 189,78.5C 190.395,79.8146 191.395,79.4812 192,77.5C 193.167,78.6667 194.333,79.8333 195.5,81C 203.305,82.578 203.139,84.078 195,85.5C 193.392,85.9739 193.226,86.6406 194.5,87.5C 197.24,87.3267 199.907,87.3267 202.5,87.5C 203.333,88.5 204.167,89.5 205,90.5C 206.727,89.626 208.56,89.7926 210.5,91C 207.833,91.6667 207.833,92.3333 210.5,93C 209.167,93.3333 207.833,93.6667 206.5,94C 210.5,95 210.5,96 206.5,97C 209.943,97.2213 210.276,98.2213 207.5,100C 209.367,100.711 210.867,100.211 212,98.5C 213.016,99.6341 213.683,99.3008 214,97.5C 214.853,99.1247 215.853,99.4581 217,98.5C 219.931,99.5686 221.098,101.402 220.5,104C 221.833,104 223.167,104 224.5,104C 223.833,104.667 223.167,105.333 222.5,106C 223.76,107.113 224.927,107.28 226,106.5C 227.686,109.022 229.019,108.689 230,105.5C 230.667,106.833 231.333,106.833 232,105.5C 234.167,107 234,108.167 231.5,109C 233.347,110.703 235.181,110.536 237,108.5C 238.749,109.299 240.082,108.632 241,106.5C 241.423,107.956 242.256,108.456 243.5,108C 242.577,105.959 242.244,103.792 242.5,101.5 Z"/></g>
<g><path style="opacity:1" fill="#926752" d="M 5.5,155.5 C 6.2931,157.918 7.62643,159.918 9.5,161.5C 10.1067,164.653 11.1067,167.653 12.5,170.5C 11.7093,172.309 11.7093,174.309 12.5,176.5C 8.79738,170.051 6.46405,163.051 5.5,155.5 Z"/></g>
<g><path style="opacity:1" fill="#edbe9e" d="M 9.5,160.5 C 10.1667,160.833 10.8333,161.167 11.5,161.5C 19.6701,185.99 34.0035,205.99 54.5,221.5C 53.8333,221.5 53.1667,221.5 52.5,221.5C 34.6464,207.987 21.3131,190.987 12.5,170.5C 11.1067,167.653 10.1067,164.653 9.5,161.5C 9.5,161.167 9.5,160.833 9.5,160.5 Z"/></g>
<g><path style="opacity:1" fill="#bf7c54" d="M 79.5,235.5 C 70.7137,231.608 62.3804,226.941 54.5,221.5C 34.0035,205.99 19.6701,185.99 11.5,161.5C 9.84284,157.566 9.5095,153.566 10.5,149.5C 14.0589,162.262 18.8922,174.596 25,186.5C 29.7086,191.876 34.0419,197.542 38,203.5C 41.1816,204.405 43.1816,206.405 44,209.5C 49.707,213.457 54.8737,217.957 59.5,223C 67.3241,226.745 74.9908,230.745 82.5,235C 81.552,235.483 80.552,235.649 79.5,235.5 Z"/></g>
<g><path style="opacity:1" fill="#d79a76" d="M 37.5,46.5 C 37.2411,49.4797 38.5744,51.313 41.5,52C 39.4913,53.1823 37.4913,53.6823 35.5,53.5C 34.7611,53.369 34.0944,53.5357 33.5,54C 35.7293,56.4003 38.0626,58.567 40.5,60.5C 39.5,60.5 38.5,60.5 37.5,60.5C 37.719,61.675 37.3857,62.675 36.5,63.5C 33.6356,62.4057 30.969,62.9057 28.5,65C 29.8331,66.8402 29.6665,67.3402 28,66.5C 27.4208,69.5881 26.0875,72.2548 24,74.5C 21.4162,79.4886 19.7496,84.8219 19,90.5C 16.5731,93.7236 14.0731,96.8902 11.5,100C 12.9389,100.991 13.9389,102.324 14.5,104C 11.4643,103.143 10.7976,104.31 12.5,107.5C 10.0776,109.286 10.0776,110.952 12.5,112.5C 11.5853,113.328 10.9186,114.328 10.5,115.5C 11.0243,117.383 11.6909,119.216 12.5,121C 11.279,123.058 10.279,125.224 9.5,127.5C 9.80288,129.114 10.4695,130.448 11.5,131.5C 10.3567,134.976 10.1901,138.642 11,142.5C 13.6401,144.1 15.8067,143.766 17.5,141.5C 18.404,142.209 18.7373,143.209 18.5,144.5C 13.8035,144.007 12.6368,145.674 15,149.5C 15.3333,149.167 15.6667,148.833 16,148.5C 16.2511,150.433 16.7511,152.266 17.5,154C 16.5,154.333 15.5,154.667 14.5,155C 16.5759,159.083 19.0759,162.916 22,166.5C 22.8494,169.521 23.6827,172.521 24.5,175.5C 25.5,175.5 26.5,175.5 27.5,175.5C 26.3395,180.175 28.0061,182.841 32.5,183.5C 32.585,185.929 33.585,187.929 35.5,189.5C 36.6086,188.41 37.6086,188.41 38.5,189.5C 35.7923,192.165 36.4589,193.498 40.5,193.5C 40.8185,197.136 41.9852,200.469 44,203.5C 44.4828,202.552 44.6495,201.552 44.5,200.5C 45.552,200.351 46.552,200.517 47.5,201C 47.1667,201.333 46.8333,201.667 46.5,202C 47.376,203.586 48.376,205.086 49.5,206.5C 48.5721,207.768 48.4054,209.101 49,210.5C 52.0177,207.596 51.851,205.096 48.5,203C 49.6241,202.161 50.2908,200.994 50.5,199.5C 47.6615,195.972 48.3282,193.139 52.5,191C 51.5305,189.242 50.3639,188.742 49,189.5C 48.4926,188.004 48.9926,186.837 50.5,186C 48.9586,184.629 47.6253,183.129 46.5,181.5C 48.2624,181.357 49.9291,181.691 51.5,182.5C 53.7609,180.466 56.4275,179.3 59.5,179C 60.5523,177.284 59.8856,176.284 57.5,176C 60.8794,175.289 62.3794,173.122 62,169.5C 62.3826,170.056 62.8826,170.389 63.5,170.5C 63.5,172.5 63.5,174.5 63.5,176.5C 61.8093,180.541 60.1426,184.541 58.5,188.5C 56.0731,192.387 54.5731,196.721 54,201.5C 53.2099,204.634 53.5432,207.634 55,210.5C 64.1409,219.646 74.6409,226.646 86.5,231.5C 100.809,237.769 115.976,240.769 132,240.5C 135.352,240.498 138.518,240.165 141.5,239.5C 165.171,236.328 186.171,227.162 204.5,212C 204.272,211.601 203.938,211.435 203.5,211.5C 203.833,210.833 204.167,210.167 204.5,209.5C 205.496,209.414 206.329,209.748 207,210.5C 208.204,209.141 209.704,208.141 211.5,207.5C 212.528,205.639 214.028,204.305 216,203.5C 216.333,202.167 216.667,200.833 217,199.5C 218.512,198.743 219.846,197.743 221,196.5C 222.218,193.685 223.718,191.019 225.5,188.5C 225.291,187.914 224.957,187.414 224.5,187C 225.736,184.646 227.403,182.646 229.5,181C 228.874,180.25 228.374,179.416 228,178.5C 227.275,180.158 226.108,180.658 224.5,180C 226.167,177.667 227.833,175.333 229.5,173C 228.975,172.308 228.308,171.808 227.5,171.5C 226.828,172.949 226.161,174.282 225.5,175.5C 224.85,173.565 224.517,171.565 224.5,169.5C 226.722,169.178 228.556,169.845 230,171.5C 231.255,170.789 232.421,169.956 233.5,169C 231.641,168.316 229.974,167.316 228.5,166C 230.433,165.217 231.933,165.717 233,167.5C 233.853,165.875 234.853,165.542 236,166.5C 236.14,164.479 236.307,162.645 236.5,161C 235.833,160.667 235.167,160.333 234.5,160C 236.5,158.667 238.5,157.333 240.5,156C 240.167,155.667 239.833,155.333 239.5,155C 240.448,154.517 241.448,154.351 242.5,154.5C 243.833,152.167 243.833,149.833 242.5,147.5C 243.5,147.5 244.5,147.5 245.5,147.5C 244.972,137.899 245.305,128.233 246.5,118.5C 247.49,124.31 247.823,130.31 247.5,136.5C 245.755,157.068 239.422,176.068 228.5,193.5C 221.27,203.402 212.936,212.402 203.5,220.5C 203.103,219.475 202.437,219.308 201.5,220C 173.237,240.747 141.571,248.58 106.5,243.5C 96.974,242.207 87.974,239.54 79.5,235.5C 80.552,235.649 81.552,235.483 82.5,235C 74.9908,230.745 67.3241,226.745 59.5,223C 54.8737,217.957 49.707,213.457 44,209.5C 43.1816,206.405 41.1816,204.405 38,203.5C 34.0419,197.542 29.7086,191.876 25,186.5C 18.8922,174.596 14.0589,162.262 10.5,149.5C 9.5095,153.566 9.84284,157.566 11.5,161.5C 10.8333,161.167 10.1667,160.833 9.5,160.5C 7.51682,152.418 5.85015,144.251 4.5,136C 5.415,128.533 5.74834,121.033 5.5,113.5C 7.32524,108.105 8.32524,102.438 8.5,96.5C 9.01636,93.1012 9.84969,89.7679 11,86.5C 14.5881,78.3256 18.4215,70.3256 22.5,62.5C 27.4441,57.2191 32.4441,51.8857 37.5,46.5 Z"/></g>
<g><path style="opacity:1" fill="#bc8260" d="M 155.5,188.5 C 157.814,190.477 160.147,192.477 162.5,194.5C 162.034,192.705 162.034,190.705 162.5,188.5C 164.869,190.682 167.535,192.349 170.5,193.5C 171.672,193.081 172.672,192.415 173.5,191.5C 178.446,194.978 181.779,199.645 183.5,205.5C 184.643,203.041 184.31,200.707 182.5,198.5C 182.846,197.304 183.346,197.304 184,198.5C 185.076,201.237 186.243,203.904 187.5,206.5C 188.557,208.941 189.89,211.275 191.5,213.5C 191.043,214.298 190.376,214.631 189.5,214.5C 183.006,210.436 177.006,205.603 171.5,200C 170.251,199.26 169.251,199.427 168.5,200.5C 164.355,197.636 163.521,198.636 166,203.5C 168.067,206.07 170.567,208.07 173.5,209.5C 174.298,209.043 174.631,208.376 174.5,207.5C 175.167,207.5 175.5,207.833 175.5,208.5C 176.141,209.482 176.807,210.482 177.5,211.5C 173.019,211.34 169.186,209.34 166,205.5C 163.782,207.645 162.449,210.312 162,213.5C 159,210.167 156,206.833 153,203.5C 152.667,207.5 152.333,211.5 152,215.5C 150.648,213.406 150.148,211.073 150.5,208.5C 150.868,203.776 149.868,199.11 147.5,194.5C 148.376,194.631 149.043,194.298 149.5,193.5C 148.626,191.253 148.292,188.92 148.5,186.5C 150.833,187.167 153.167,187.833 155.5,188.5 Z"/></g>
<g><path style="opacity:1" fill="#efc3a9" d="M 164.5,171.5 C 164.062,171.435 163.728,171.601 163.5,172C 170.369,178.702 177.036,185.535 183.5,192.5C 182.475,192.897 182.308,193.563 183,194.5C 186.184,198.238 189.351,201.905 192.5,205.5C 192.719,206.675 192.386,207.675 191.5,208.5C 190.378,207.37 189.044,206.703 187.5,206.5C 186.243,203.904 185.076,201.237 184,198.5C 183.346,197.304 182.846,197.304 182.5,198.5C 184.31,200.707 184.643,203.041 183.5,205.5C 181.779,199.645 178.446,194.978 173.5,191.5C 172.672,192.415 171.672,193.081 170.5,193.5C 167.535,192.349 164.869,190.682 162.5,188.5C 162.034,190.705 162.034,192.705 162.5,194.5C 160.147,192.477 157.814,190.477 155.5,188.5C 155.657,187.127 155.49,185.793 155,184.5C 152.665,181.834 150.831,178.834 149.5,175.5C 147.713,173.524 145.546,172.191 143,171.5C 142.833,170.833 142.667,170.167 142.5,169.5C 143.823,167.835 145.156,166.168 146.5,164.5C 147.919,163.549 149.585,163.216 151.5,163.5C 152.822,163.67 153.989,163.337 155,162.5C 155.309,163.766 155.809,164.933 156.5,166C 160.121,166.456 162.788,168.289 164.5,171.5 Z"/></g>
<g><path style="opacity:1" fill="#b77d5b" d="M 105.5,168.5 C 107.807,169.653 110.14,170.82 112.5,172C 115.461,175.476 118.794,178.309 122.5,180.5C 121.903,180.735 121.57,181.235 121.5,182C 124.702,188.572 127.202,195.405 129,202.5C 130.756,213.554 132.756,224.554 135,235.5C 135.514,225.106 134.348,214.939 131.5,205C 132.337,203.989 132.67,202.822 132.5,201.5C 135.734,204.538 136.734,208.205 135.5,212.5C 137.05,216.661 138.884,220.661 141,224.5C 141.758,226.769 141.591,228.936 140.5,231C 143.215,231.717 145.382,233.217 147,235.5C 147.5,235.167 148,234.833 148.5,234.5C 145.815,227.959 142.649,221.626 139,215.5C 138.333,214.5 138.333,213.5 139,212.5C 143.281,219.115 147.947,225.448 153,231.5C 154.11,233.037 155.61,233.703 157.5,233.5C 150.085,235.893 142.418,237.56 134.5,238.5C 133.243,235.573 131.243,233.239 128.5,231.5C 125.921,226.252 123.588,220.919 121.5,215.5C 122.748,214.666 123.415,213.333 123.5,211.5C 121.614,203.508 118.948,195.841 115.5,188.5C 117.288,188.785 118.955,188.452 120.5,187.5C 118.158,184.161 115.825,180.827 113.5,177.5C 112.378,176.37 111.044,175.703 109.5,175.5C 107.853,173.674 105.853,172.34 103.5,171.5C 103.586,170.504 103.252,169.671 102.5,169C 103.448,168.517 104.448,168.351 105.5,168.5 Z"/></g>
<g><path style="opacity:1" fill="#925b39" d="M 107.5,183.5 C 109.159,186.833 111.825,188.5 115.5,188.5C 118.948,195.841 121.614,203.508 123.5,211.5C 123.415,213.333 122.748,214.666 121.5,215.5C 121.067,212.834 120.567,210.168 120,207.5C 119.8,205.68 118.966,204.347 117.5,203.5C 114.865,199.857 112.199,196.19 109.5,192.5C 107.727,189.94 105.727,187.607 103.5,185.5C 102.167,184.167 100.833,182.833 99.5,181.5C 98.365,180.526 97.365,179.359 96.5,178C 97,177.833 97.5,177.667 98,177.5C 100.791,180.13 103.958,182.13 107.5,183.5 Z"/></g>
<g><path style="opacity:1" fill="#f8d5bf" d="M 164.5,171.5 C 172.999,179.164 181.666,186.664 190.5,194C 195.032,199.362 199.699,204.528 204.5,209.5C 204.167,210.167 203.833,210.833 203.5,211.5C 203.167,211.5 202.833,211.5 202.5,211.5C 196.581,204.915 190.248,198.581 183.5,192.5C 177.036,185.535 170.369,178.702 163.5,172C 163.728,171.601 164.062,171.435 164.5,171.5 Z"/></g>
<g><path style="opacity:1" fill="#4c2b1b" d="M 202.5,184.5 C 203.568,183.566 204.901,183.232 206.5,183.5C 206.662,185.527 206.495,187.527 206,189.5C 205.506,187.866 205.34,186.199 205.5,184.5C 204.5,184.5 203.5,184.5 202.5,184.5 Z"/></g>
<g><path style="opacity:1" fill="#744b35" d="M 199.5,183.5 C 201.369,185.635 202.036,188.302 201.5,191.5C 202.873,191.343 204.207,191.51 205.5,192C 203.098,192.814 200.765,192.647 198.5,191.5C 199.393,188.916 199.726,186.249 199.5,183.5 Z"/></g>
<g><path style="opacity:1" fill="#e6b397" d="M 109.5,175.5 C 111.044,175.703 112.378,176.37 113.5,177.5C 115.825,180.827 118.158,184.161 120.5,187.5C 118.955,188.452 117.288,188.785 115.5,188.5C 111.825,188.5 109.159,186.833 107.5,183.5C 110.187,183.664 112.854,183.497 115.5,183C 113.168,180.694 111.168,178.194 109.5,175.5 Z"/></g>
<g><path style="opacity:1" fill="#62381f" d="M 63.5,176.5 C 64.0967,176.735 64.4301,177.235 64.5,178C 63.5115,182.191 61.5115,185.691 58.5,188.5C 60.1426,184.541 61.8093,180.541 63.5,176.5 Z"/></g>
<g><path style="opacity:1" fill="#f4c9b1" d="M 99.5,181.5 C 100.833,182.833 102.167,184.167 103.5,185.5C 103.44,186.043 103.107,186.376 102.5,186.5C 95.9928,184.417 89.6594,181.917 83.5,179C 79.0764,178.82 74.7431,178.653 70.5,178.5C 70.7093,177.914 71.0426,177.414 71.5,177C 75.5,176.333 79.5,176.333 83.5,177C 88.9381,178.225 94.2715,179.725 99.5,181.5 Z"/></g>
<g><path style="opacity:1" fill="#c18867" d="M 149.5,170.5 C 155.096,173.792 160.096,177.792 164.5,182.5C 161.641,183.599 158.974,183.099 156.5,181C 153.485,177.844 151.152,174.344 149.5,170.5 Z"/></g>
<g><path style="opacity:1" fill="#d69f80" d="M 142.5,161.5 C 143.526,162.853 144.859,163.853 146.5,164.5C 145.156,166.168 143.823,167.835 142.5,169.5C 142.667,170.167 142.833,170.833 143,171.5C 145.546,172.191 147.713,173.524 149.5,175.5C 150.831,178.834 152.665,181.834 155,184.5C 155.49,185.793 155.657,187.127 155.5,188.5C 153.167,187.833 150.833,187.167 148.5,186.5C 148.292,188.92 148.626,191.253 149.5,193.5C 149.043,194.298 148.376,194.631 147.5,194.5C 146.833,193.5 146.167,192.5 145.5,191.5C 141.204,183.931 138.371,175.931 137,167.5C 138,168.833 139,170.167 140,171.5C 140.497,168.854 140.664,166.187 140.5,163.5C 141.833,163.5 142.5,162.833 142.5,161.5 Z"/></g>
<g><path style="opacity:1" fill="#e8b79b" d="M 115.5,151.5 C 115.206,156.738 117.873,159.905 123.5,161C 124.956,163.266 125.79,165.766 126,168.5C 128.132,169.928 130.299,171.261 132.5,172.5C 134.159,173.834 135.492,175.501 136.5,177.5C 134.252,179.225 134.752,180.558 138,181.5C 140.299,188.554 143.132,195.221 146.5,201.5C 148.588,203.336 149.921,205.669 150.5,208.5C 150.148,211.073 150.648,213.406 152,215.5C 152.333,211.5 152.667,207.5 153,203.5C 156,206.833 159,210.167 162,213.5C 162.449,210.312 163.782,207.645 166,205.5C 169.186,209.34 173.019,211.34 177.5,211.5C 176.807,210.482 176.141,209.482 175.5,208.5C 178.266,211.083 181.266,213.583 184.5,216C 186.886,217.193 189.22,218.36 191.5,219.5C 190.486,220.674 189.153,221.34 187.5,221.5C 184.57,220.701 181.57,220.368 178.5,220.5C 179.013,218.71 179.513,217.044 180,215.5C 177.959,214.577 175.792,214.244 173.5,214.5C 174.384,218.692 175.717,222.692 177.5,226.5C 171.306,229.918 164.639,232.251 157.5,233.5C 155.61,233.703 154.11,233.037 153,231.5C 147.947,225.448 143.281,219.115 139,212.5C 138.333,213.5 138.333,214.5 139,215.5C 142.649,221.626 145.815,227.959 148.5,234.5C 148,234.833 147.5,235.167 147,235.5C 145.382,233.217 143.215,231.717 140.5,231C 141.591,228.936 141.758,226.769 141,224.5C 138.884,220.661 137.05,216.661 135.5,212.5C 136.734,208.205 135.734,204.538 132.5,201.5C 129.148,194.41 125.815,187.41 122.5,180.5C 118.794,178.309 115.461,175.476 112.5,172C 110.14,170.82 107.807,169.653 105.5,168.5C 104.158,167.207 102.491,166.374 100.5,166C 93.2824,165.002 86.2824,165.502 79.5,167.5C 78.2521,166.666 77.5854,165.333 77.5,163.5C 76.9518,160.447 78.1185,158.447 81,157.5C 81.4974,154.854 81.6641,152.187 81.5,149.5C 84.0442,150.708 85.3775,152.708 85.5,155.5C 90.5805,155.25 95.5805,155.75 100.5,157C 105.348,159.256 110.015,161.756 114.5,164.5C 117.852,167.695 120.685,171.362 123,175.5C 120.723,166.371 115.223,159.704 106.5,155.5C 103.365,152.763 100.032,150.263 96.5,148C 93.4016,147.729 90.5683,148.562 88,150.5C 86.2802,149.616 85.1135,148.283 84.5,146.5C 85.287,144.896 86.6203,144.229 88.5,144.5C 90.9857,131.358 95.3191,131.191 101.5,144C 106.077,146.787 110.743,149.287 115.5,151.5 Z"/></g>
<g><path style="opacity:1" fill="#f8d0ba" d="M 103.5,171.5 C 105.853,172.34 107.853,173.674 109.5,175.5C 111.168,178.194 113.168,180.694 115.5,183C 112.854,183.497 110.187,183.664 107.5,183.5C 106.031,179.79 103.365,177.457 99.5,176.5C 97.461,175.089 96.461,173.089 96.5,170.5C 98.861,170.674 101.194,171.007 103.5,171.5 Z"/></g>
<g><path style="opacity:1" fill="#7c4c30" d="M 205.5,171.5 C 208.672,172.796 212.005,173.796 215.5,174.5C 212.554,175.655 209.554,175.821 206.5,175C 205.663,173.989 205.33,172.822 205.5,171.5 Z"/></g>
<g><path style="opacity:1" fill="#8b5a3e" d="M 180.5,171.5 C 183.672,172.796 187.005,173.796 190.5,174.5C 190.291,175.086 189.957,175.586 189.5,176C 186.833,176.667 184.167,176.667 181.5,176C 180.62,174.644 180.286,173.144 180.5,171.5 Z"/></g>
<g><path style="opacity:1" fill="#ae7554" d="M 138.5,162.5 C 139.167,162.833 139.833,163.167 140.5,163.5C 140.664,166.187 140.497,168.854 140,171.5C 139,170.167 138,168.833 137,167.5C 138.371,175.931 141.204,183.931 145.5,191.5C 144.903,191.735 144.57,192.235 144.5,193C 145.233,195.835 145.9,198.668 146.5,201.5C 143.132,195.221 140.299,188.554 138,181.5C 134.752,180.558 134.252,179.225 136.5,177.5C 135.492,175.501 134.159,173.834 132.5,172.5C 132.288,170.616 131.288,169.283 129.5,168.5C 131.124,167.131 131.624,165.464 131,163.5C 128.055,158.22 124.055,153.887 119,150.5C 117.989,151.337 116.822,151.67 115.5,151.5C 112.895,147.556 109.895,143.89 106.5,140.5C 106.887,139.28 107.72,138.613 109,138.5C 110.3,139.707 111.8,140.374 113.5,140.5C 113.433,143.766 115.099,145.266 118.5,145C 121.686,147.168 124.853,149.335 128,151.5C 130.42,154.521 132.253,157.854 133.5,161.5C 135.045,162.452 136.712,162.785 138.5,162.5 Z"/></g>
<g><path style="opacity:1" fill="#5e361f" d="M 224.5,169.5 C 224.517,171.565 224.85,173.565 225.5,175.5C 223.824,174.817 223.157,173.483 223.5,171.5C 221.5,171.5 219.5,171.5 217.5,171.5C 217.343,170.127 217.51,168.793 218,167.5C 219.754,169.25 221.921,169.917 224.5,169.5 Z"/></g>
<g><path style="opacity:1" fill="#5e361f" d="M 201.5,170.5 C 202.222,170.082 202.722,169.416 203,168.5C 203.047,174.786 200.214,176.619 194.5,174C 192.607,171.083 192.107,167.916 193,164.5C 192.481,170.304 194.981,173.138 200.5,173C 201.252,172.329 201.586,171.496 201.5,170.5 Z"/></g>
<g><path style="opacity:1" fill="#dba485" d="M 105.5,168.5 C 104.448,168.351 103.448,168.517 102.5,169C 103.252,169.671 103.586,170.504 103.5,171.5C 101.194,171.007 98.861,170.674 96.5,170.5C 96.461,173.089 97.461,175.089 99.5,176.5C 93.8969,175.678 88.5635,174.178 83.5,172C 84.1667,171.667 84.8333,171.333 85.5,171C 83.5632,169.538 81.5632,168.372 79.5,167.5C 86.2824,165.502 93.2824,165.002 100.5,166C 102.491,166.374 104.158,167.207 105.5,168.5 Z"/></g>
<g><path style="opacity:1" fill="#6e4022" d="M 213.5,165.5 C 214.043,165.56 214.376,165.893 214.5,166.5C 213.145,168.929 211.478,170.262 209.5,170.5C 210.857,168.814 212.19,167.148 213.5,165.5 Z"/></g>
<g><path style="opacity:1" fill="#936041" d="M 180.5,162.5 C 184.401,161.857 187.734,162.857 190.5,165.5C 189.299,167.909 187.633,169.909 185.5,171.5C 185.08,169.674 185.08,167.674 185.5,165.5C 182.715,166.084 181.048,165.084 180.5,162.5 Z"/></g>
<g><path style="opacity:1" fill="#cb9271" d="M 132.5,172.5 C 130.299,171.261 128.132,169.928 126,168.5C 125.79,165.766 124.956,163.266 123.5,161C 117.873,159.905 115.206,156.738 115.5,151.5C 116.822,151.67 117.989,151.337 119,150.5C 124.055,153.887 128.055,158.22 131,163.5C 131.624,165.464 131.124,167.131 129.5,168.5C 131.288,169.283 132.288,170.616 132.5,172.5 Z"/></g>
<g><path style="opacity:1" fill="#7d4e31" d="M 222.5,162.5 C 223.693,162.97 224.36,163.97 224.5,165.5C 224.516,168.723 223.182,169.056 220.5,166.5C 221.63,165.378 222.297,164.044 222.5,162.5 Z"/></g>
<g><path style="opacity:1" fill="#542e19" d="M 205.5,163.5 C 207.607,162.532 209.941,162.198 212.5,162.5C 212.725,166.056 211.892,166.39 210,163.5C 208.437,164.722 206.937,164.722 205.5,163.5 Z"/></g>
<g><path style="opacity:1" fill="#663a21" d="M 201.5,170.5 C 200.776,168.782 200.109,166.948 199.5,165C 197.112,164.135 195.612,164.968 195,167.5C 194.815,163.028 196.815,161.695 201,163.5C 201.497,165.81 201.663,168.143 201.5,170.5 Z"/></g>
<g><path style="opacity:1" fill="#b17857" d="M 158.5,158.5 C 158.414,159.496 158.748,160.329 159.5,161C 156.478,161.098 153.811,161.932 151.5,163.5C 149.585,163.216 147.919,163.549 146.5,164.5C 144.859,163.853 143.526,162.853 142.5,161.5C 141.89,159.566 140.89,157.899 139.5,156.5C 139.5,155.833 139.833,155.5 140.5,155.5C 142.727,156.401 143.727,158.067 143.5,160.5C 147.135,160.344 147.468,159.178 144.5,157C 145.849,156.228 146.682,155.061 147,153.5C 149.819,157.493 153.653,159.16 158.5,158.5 Z"/></g>
<g><path style="opacity:1" fill="#d9a181" d="M 36.5,131.5 C 36.3347,135.182 36.5014,138.848 37,142.5C 39.6401,144.1 41.8067,143.766 43.5,141.5C 43.9382,141.565 44.2716,141.399 44.5,141C 42.4153,138.861 40.7487,139.028 39.5,141.5C 37.631,139.365 36.9644,136.698 37.5,133.5C 38.404,134.209 38.7373,135.209 38.5,136.5C 43.3892,136.41 43.7225,135.244 39.5,133C 40.3333,132.833 41.1667,132.667 42,132.5C 43.6067,133.074 45.1067,133.74 46.5,134.5C 46.3359,137.187 46.5026,139.854 47,142.5C 47.8928,143.711 48.7261,143.711 49.5,142.5C 48.6906,140.929 48.3573,139.262 48.5,137.5C 49.1667,137.5 49.8333,137.5 50.5,137.5C 51.7017,139.392 53.035,141.226 54.5,143C 55.816,143.528 56.4827,143.028 56.5,141.5C 56.9382,141.565 57.2716,141.399 57.5,141C 55.1667,138.333 52.8333,135.667 50.5,133C 52.0349,132.504 53.5349,132.67 55,133.5C 56.2853,133.05 57.452,132.383 58.5,131.5C 59.1067,131.624 59.44,131.957 59.5,132.5C 58.9569,132.56 58.6236,132.893 58.5,133.5C 60.1022,136.237 60.9355,139.237 61,142.5C 61.6708,143.252 62.5041,143.586 63.5,143.5C 65.0403,141.271 66.5403,138.938 68,136.5C 70.765,139.312 71.265,142.145 69.5,145C 70.8333,145.333 72.1667,145.667 73.5,146C 73.1667,146.333 72.8333,146.667 72.5,147C 73.1667,149 73.8333,151 74.5,153C 73.6243,154.585 72.2909,155.585 70.5,156C 72.9316,157.087 72.5983,157.587 69.5,157.5C 69.5094,159.661 70.1761,160.994 71.5,161.5C 70.4319,164.205 68.4319,165.705 65.5,166C 66.3366,167.011 66.67,168.178 66.5,169.5C 65.209,169.263 64.209,169.596 63.5,170.5C 62.8826,170.389 62.3826,170.056 62,169.5C 62.3794,173.122 60.8794,175.289 57.5,176C 59.8856,176.284 60.5523,177.284 59.5,179C 56.4275,179.3 53.7609,180.466 51.5,182.5C 49.9291,181.691 48.2624,181.357 46.5,181.5C 44.9273,179.794 42.9273,178.627 40.5,178C 41.624,177.751 42.624,177.251 43.5,176.5C 40.9076,174.896 37.9076,173.063 34.5,171C 34.6158,169.732 34.9491,168.398 35.5,167C 34.5399,165.581 33.7065,164.081 33,162.5C 32.2588,163.641 31.4255,163.641 30.5,162.5C 28.5487,160.771 27.382,158.771 27,156.5C 29.3799,159.275 32.2133,159.942 35.5,158.5C 35.0233,157.522 34.3567,156.689 33.5,156C 33.8333,155.667 34.1667,155.333 34.5,155C 32.6079,154.027 30.6079,153.36 28.5,153C 28.8333,152.667 29.1667,152.333 29.5,152C 25.5651,149.538 25.8984,147.538 30.5,146C 28.404,145.263 26.7373,144.097 25.5,142.5C 28.214,143.863 30.8806,143.696 33.5,142C 34.4506,141.282 34.6172,140.449 34,139.5C 33.2917,140.381 32.4584,141.047 31.5,141.5C 31.5,140.5 31.5,139.5 31.5,138.5C 30.325,138.719 29.325,138.386 28.5,137.5C 30.3983,136.266 32.065,136.599 33.5,138.5C 34.3857,137.675 34.719,136.675 34.5,135.5C 32.1691,135.502 30.1691,134.669 28.5,133C 30.235,132.349 31.9017,132.515 33.5,133.5C 34.2652,132.388 35.2652,131.721 36.5,131.5 Z"/></g>
<g><path style="opacity:1" fill="#825132" d="M 106.5,155.5 C 115.223,159.704 120.723,166.371 123,175.5C 120.685,171.362 117.852,167.695 114.5,164.5C 112.198,161.588 109.364,159.255 106,157.5C 105.308,156.563 105.475,155.897 106.5,155.5 Z"/></g>
<g><path style="opacity:1" fill="#ce9575" d="M 84.5,146.5 C 85.1135,148.283 86.2802,149.616 88,150.5C 90.5683,148.562 93.4016,147.729 96.5,148C 100.032,150.263 103.365,152.763 106.5,155.5C 105.475,155.897 105.308,156.563 106,157.5C 109.364,159.255 112.198,161.588 114.5,164.5C 110.015,161.756 105.348,159.256 100.5,157C 95.5805,155.75 90.5805,155.25 85.5,155.5C 85.3775,152.708 84.0442,150.708 81.5,149.5C 82.1667,148.167 83.1667,147.167 84.5,146.5 Z"/></g>
<g><path style="opacity:1" fill="#f5d3bf" d="M 104.5,126.5 C 111.193,129.514 117.859,132.514 124.5,135.5C 130.966,139.236 137.299,143.236 143.5,147.5C 144.172,148.267 145.005,148.934 146,149.5C 147.049,148.483 148.216,148.316 149.5,149C 150.779,150.646 152.445,151.813 154.5,152.5C 153.975,153.192 153.308,153.692 152.5,154C 153.949,155.117 155.616,155.784 157.5,156C 158.999,156.838 159.332,157.671 158.5,158.5C 153.653,159.16 149.819,157.493 147,153.5C 146.682,155.061 145.849,156.228 144.5,157C 147.468,159.178 147.135,160.344 143.5,160.5C 143.727,158.067 142.727,156.401 140.5,155.5C 141.678,154.001 143.345,153.001 145.5,152.5C 139.402,146.944 132.735,142.111 125.5,138C 117.438,135.135 109.771,131.469 102.5,127C 103.094,126.536 103.761,126.369 104.5,126.5 Z"/></g>
<g><path style="opacity:1" fill="#e0ae90" d="M 104.5,126.5 C 103.761,126.369 103.094,126.536 102.5,127C 109.771,131.469 117.438,135.135 125.5,138C 132.735,142.111 139.402,146.944 145.5,152.5C 143.345,153.001 141.678,154.001 140.5,155.5C 139.833,155.5 139.5,155.833 139.5,156.5C 138.448,156.649 137.448,156.483 136.5,156C 124.397,143.45 110.397,133.617 94.5,126.5C 94.5,126.167 94.5,125.833 94.5,125.5C 95.3991,124.528 96.5657,123.862 98,123.5C 100.324,124.416 102.491,125.416 104.5,126.5 Z"/></g>
<g><path style="opacity:1" fill="#f8d8c5" d="M 94.5,126.5 C 110.397,133.617 124.397,143.45 136.5,156C 137.448,156.483 138.448,156.649 139.5,156.5C 140.89,157.899 141.89,159.566 142.5,161.5C 142.5,162.833 141.833,163.5 140.5,163.5C 139.833,163.167 139.167,162.833 138.5,162.5C 134.907,157.578 130.907,152.744 126.5,148C 118.854,143.031 111.187,138.031 103.5,133C 98.934,132.926 95.934,130.759 94.5,126.5 Z"/></g>
<g><path style="opacity:1" fill="#4c2814" d="M 36.5,131.5 C 37.3382,131.842 37.6716,132.508 37.5,133.5C 36.9644,136.698 37.631,139.365 39.5,141.5C 40.8333,141.5 42.1667,141.5 43.5,141.5C 41.8067,143.766 39.6401,144.1 37,142.5C 36.5014,138.848 36.3347,135.182 36.5,131.5 Z"/></g>
<g><path style="opacity:1" fill="#c9906e" d="M 94.5,125.5 C 94.5,125.833 94.5,126.167 94.5,126.5C 95.934,130.759 98.934,132.926 103.5,133C 111.187,138.031 118.854,143.031 126.5,148C 130.907,152.744 134.907,157.578 138.5,162.5C 136.712,162.785 135.045,162.452 133.5,161.5C 132.253,157.854 130.42,154.521 128,151.5C 124.853,149.335 121.686,147.168 118.5,145C 115.099,145.266 113.433,143.766 113.5,140.5C 111.8,140.374 110.3,139.707 109,138.5C 107.72,138.613 106.887,139.28 106.5,140.5C 109.895,143.89 112.895,147.556 115.5,151.5C 110.743,149.287 106.077,146.787 101.5,144C 95.3191,131.191 90.9857,131.358 88.5,144.5C 86.6203,144.229 85.287,144.896 84.5,146.5C 83.1667,147.167 82.1667,148.167 81.5,149.5C 81.6641,152.187 81.4974,154.854 81,157.5C 78.1185,158.447 76.9518,160.447 77.5,163.5C 77.5854,165.333 78.2521,166.666 79.5,167.5C 81.5632,168.372 83.5632,169.538 85.5,171C 84.8333,171.333 84.1667,171.667 83.5,172C 88.5635,174.178 93.8969,175.678 99.5,176.5C 103.365,177.457 106.031,179.79 107.5,183.5C 103.958,182.13 100.791,180.13 98,177.5C 97.5,177.667 97,177.833 96.5,178C 97.365,179.359 98.365,180.526 99.5,181.5C 94.2715,179.725 88.9381,178.225 83.5,177C 79.5,176.333 75.5,176.333 71.5,177C 71.0426,177.414 70.7093,177.914 70.5,178.5C 74.7431,178.653 79.0764,178.82 83.5,179C 89.6594,181.917 95.9928,184.417 102.5,186.5C 103.107,186.376 103.44,186.043 103.5,185.5C 105.727,187.607 107.727,189.94 109.5,192.5C 108.761,192.369 108.094,192.536 107.5,193C 109.26,193.965 109.594,195.132 108.5,196.5C 105.956,194.371 103.122,192.704 100,191.5C 100.047,193.587 101.047,195.254 103,196.5C 109.458,198.619 114.458,202.619 118,208.5C 118.384,206.803 118.218,205.137 117.5,203.5C 118.966,204.347 119.8,205.68 120,207.5C 120.567,210.168 121.067,212.834 121.5,215.5C 119.87,213.974 119.037,211.974 119,209.5C 118.282,210.451 117.449,210.617 116.5,210C 113.266,206.855 110.266,203.522 107.5,200C 106.251,199.26 105.251,199.427 104.5,200.5C 103.089,199.092 101.423,198.092 99.5,197.5C 97.1222,199.53 97.7889,200.53 101.5,200.5C 101.698,202.575 101.865,204.575 102,206.5C 92.4089,201.958 83.5756,196.291 75.5,189.5C 75.1667,189.667 74.8333,189.833 74.5,190C 75.8788,192.403 77.5455,194.57 79.5,196.5C 77.5342,197.372 75.5342,197.205 73.5,196C 65.7224,185.648 63.889,186.815 68,199.5C 71,201.833 73.6667,204.5 76,207.5C 76.6924,206.975 77.1924,206.308 77.5,205.5C 75.9686,204.387 74.9686,202.887 74.5,201C 74.6667,200.167 74.8333,199.333 75,198.5C 78.0841,200.235 80.9175,202.235 83.5,204.5C 88.483,206.657 93.483,208.657 98.5,210.5C 98.1667,210.833 97.8333,211.167 97.5,211.5C 92.3981,210.443 87.3981,209.11 82.5,207.5C 82.5,208.5 82.5,209.5 82.5,210.5C 82.2761,212.046 81.9427,213.713 81.5,215.5C 79.1514,213.609 76.4847,213.276 73.5,214.5C 70.6064,212.468 67.4397,210.802 64,209.5C 62.9701,209.836 62.4701,210.503 62.5,211.5C 58.9163,210.086 56.583,207.586 55.5,204C 56.1262,198.74 57.1262,193.573 58.5,188.5C 61.5115,185.691 63.5115,182.191 64.5,178C 64.4301,177.235 64.0967,176.735 63.5,176.5C 63.5,174.5 63.5,172.5 63.5,170.5C 64.209,169.596 65.209,169.263 66.5,169.5C 66.67,168.178 66.3366,167.011 65.5,166C 68.4319,165.705 70.4319,164.205 71.5,161.5C 70.1761,160.994 69.5094,159.661 69.5,157.5C 72.5983,157.587 72.9316,157.087 70.5,156C 72.2909,155.585 73.6243,154.585 74.5,153C 73.8333,151 73.1667,149 72.5,147C 72.8333,146.667 73.1667,146.333 73.5,146C 72.1667,145.667 70.8333,145.333 69.5,145C 71.265,142.145 70.765,139.312 68,136.5C 66.5403,138.938 65.0403,141.271 63.5,143.5C 62.7659,142.292 62.4326,140.959 62.5,139.5C 63.4682,137.393 63.8016,135.059 63.5,132.5C 65.4918,132.672 67.1585,132.005 68.5,130.5C 69.5223,130.855 70.189,131.522 70.5,132.5C 69.9569,132.56 69.6236,132.893 69.5,133.5C 71.1837,136.612 71.8503,139.946 71.5,143.5C 72.675,143.719 73.675,143.386 74.5,142.5C 73.6258,140.253 73.2924,137.92 73.5,135.5C 75.0174,135.489 76.1841,134.823 77,133.5C 77.1667,133.833 77.3333,134.167 77.5,134.5C 75.5643,137.208 75.0643,140.208 76,143.5C 77.0674,142.809 78.2341,142.309 79.5,142C 79.1667,141.667 78.8333,141.333 78.5,141C 82.3048,141.026 84.3048,139.192 84.5,135.5C 86.9288,135.415 88.9288,134.415 90.5,132.5C 90.8151,129.477 92.1484,127.144 94.5,125.5 Z"/></g>
<g><path style="opacity:1" fill="#56311c" d="M 70.5,132.5 C 71.2719,133.694 72.2719,134.694 73.5,135.5C 73.2924,137.92 73.6258,140.253 74.5,142.5C 73.675,143.386 72.675,143.719 71.5,143.5C 71.8503,139.946 71.1837,136.612 69.5,133.5C 69.6236,132.893 69.9569,132.56 70.5,132.5 Z"/></g>
<g><path style="opacity:1" fill="#d39b7a" d="M 143.5,133.5 C 145.537,135.641 148.037,136.974 151,137.5C 151.456,138.744 150.956,139.577 149.5,140C 150.381,140.708 151.047,141.542 151.5,142.5C 148.252,140.597 145.252,138.263 142.5,135.5C 141.019,134.056 141.352,133.389 143.5,133.5 Z"/></g>
<g><path style="opacity:1" fill="#5b331a" d="M 50.5,137.5 C 52.7541,138.415 54.7541,139.748 56.5,141.5C 56.4827,143.028 55.816,143.528 54.5,143C 53.035,141.226 51.7017,139.392 50.5,137.5 Z"/></g>
<g><path style="opacity:1" fill="#f9e7d9" d="M 43.5,141.5 C 42.1667,141.5 40.8333,141.5 39.5,141.5C 40.7487,139.028 42.4153,138.861 44.5,141C 44.2716,141.399 43.9382,141.565 43.5,141.5 Z"/></g>
<g><path style="opacity:1" fill="#61371e" d="M 31.5,141.5 C 32.4584,141.047 33.2917,140.381 34,139.5C 34.6172,140.449 34.4506,141.282 33.5,142C 30.8806,143.696 28.214,143.863 25.5,142.5C 25.0845,138.625 25.5845,134.958 27,131.5C 27.4983,134.817 27.665,138.15 27.5,141.5C 28.8333,141.5 30.1667,141.5 31.5,141.5 Z"/></g>
<g><path style="opacity:1" fill="#55301a" d="M 59.5,132.5 C 60.4959,132.414 61.3292,132.748 62,133.5C 62.4955,135.473 62.6621,137.473 62.5,139.5C 62.4326,140.959 62.7659,142.292 63.5,143.5C 62.5041,143.586 61.6708,143.252 61,142.5C 60.9355,139.237 60.1022,136.237 58.5,133.5C 58.6236,132.893 58.9569,132.56 59.5,132.5 Z"/></g>
<g><path style="opacity:1" fill="#7d4b2d" d="M 151.5,142.5 C 151.047,141.542 150.381,140.708 149.5,140C 150.956,139.577 151.456,138.744 151,137.5C 148.037,136.974 145.537,135.641 143.5,133.5C 142.697,132.577 142.53,131.577 143,130.5C 144.943,131.807 146.777,131.807 148.5,130.5C 153.749,131.984 159.082,132.484 164.5,132C 162.206,127.975 162.873,127.642 166.5,131C 168.657,131.078 170.657,131.245 172.5,131.5C 171.028,134.805 168.695,137.305 165.5,139C 160.422,138.904 155.755,140.071 151.5,142.5 Z"/></g>
<g><path style="opacity:1" fill="#633920" d="M 20.5,131.5 C 21.1982,134.897 21.8648,138.397 22.5,142C 21.5509,142.617 20.7175,142.451 20,141.5C 19.2534,138.076 19.42,134.743 20.5,131.5 Z"/></g>
<g><path style="opacity:1" fill="#64391e" d="M 11.5,131.5 C 12.4794,134.625 12.8128,137.958 12.5,141.5C 14.1667,141.5 15.8333,141.5 17.5,141.5C 15.8067,143.766 13.6401,144.1 11,142.5C 10.1901,138.642 10.3567,134.976 11.5,131.5 Z"/></g>
<g><path style="opacity:1" fill="#663d25" d="M 48.5,137.5 C 48.3573,139.262 48.6906,140.929 49.5,142.5C 48.7261,143.711 47.8928,143.711 47,142.5C 46.5026,139.854 46.3359,137.187 46.5,134.5C 46.281,133.325 46.6143,132.325 47.5,131.5C 48.4656,133.396 48.7989,135.396 48.5,137.5 Z"/></g>
<g><path style="opacity:1" fill="#633b22" d="M 122.5,180.5 C 125.815,187.41 129.148,194.41 132.5,201.5C 132.67,202.822 132.337,203.989 131.5,205C 134.348,214.939 135.514,225.106 135,235.5C 132.756,224.554 130.756,213.554 129,202.5C 127.202,195.405 124.702,188.572 121.5,182C 121.57,181.235 121.903,180.735 122.5,180.5 Z"/></g>
<g><path style="opacity:1" fill="#f0c1a5" d="M 109.5,192.5 C 112.199,196.19 114.865,199.857 117.5,203.5C 118.218,205.137 118.384,206.803 118,208.5C 114.458,202.619 109.458,198.619 103,196.5C 101.047,195.254 100.047,193.587 100,191.5C 103.122,192.704 105.956,194.371 108.5,196.5C 109.594,195.132 109.26,193.965 107.5,193C 108.094,192.536 108.761,192.369 109.5,192.5 Z"/></g>
<g><path style="opacity:1" fill="#7b4a2c" d="M 145.5,191.5 C 146.167,192.5 146.833,193.5 147.5,194.5C 149.868,199.11 150.868,203.776 150.5,208.5C 149.921,205.669 148.588,203.336 146.5,201.5C 145.9,198.668 145.233,195.835 144.5,193C 144.57,192.235 144.903,191.735 145.5,191.5 Z"/></g>
<g><path style="opacity:1" fill="#8d5836" d="M 168.5,200.5 C 170.5,202.833 172.5,205.167 174.5,207.5C 174.631,208.376 174.298,209.043 173.5,209.5C 170.567,208.07 168.067,206.07 166,203.5C 163.521,198.636 164.355,197.636 168.5,200.5 Z"/></g>
<g><path style="opacity:1" fill="#b87e5c" d="M 183.5,192.5 C 190.248,198.581 196.581,204.915 202.5,211.5C 201.564,212.974 200.23,213.974 198.5,214.5C 195.767,211.925 193.767,208.925 192.5,205.5C 189.351,201.905 186.184,198.238 183,194.5C 182.308,193.563 182.475,192.897 183.5,192.5 Z"/></g>
<g><path style="opacity:1" fill="#4d2617" d="M 252.5,130.5 C 252.5,131.167 252.833,131.5 253.5,131.5C 249.043,185.819 222.043,223.819 172.5,245.5C 172.158,244.662 171.492,244.328 170.5,244.5C 182.982,239.604 194.649,233.104 205.5,225C 207.79,223.223 209.457,221.056 210.5,218.5C 236.326,194.847 250.326,165.513 252.5,130.5 Z"/></g>
<g><path style="opacity:1" fill="#f8d2bb" d="M 189.5,214.5 C 190.241,216.354 191.241,218.021 192.5,219.5C 192.167,219.5 191.833,219.5 191.5,219.5C 189.22,218.36 186.886,217.193 184.5,216C 181.266,213.583 178.266,211.083 175.5,208.5C 175.5,207.833 175.167,207.5 174.5,207.5C 172.5,205.167 170.5,202.833 168.5,200.5C 169.251,199.427 170.251,199.26 171.5,200C 177.006,205.603 183.006,210.436 189.5,214.5 Z"/></g>
<g><path style="opacity:1" fill="#b27854" d="M 104.5,200.5 C 108.145,204.48 111.811,208.48 115.5,212.5C 113.922,213.298 112.256,213.798 110.5,214C 114.38,217.388 118.38,220.554 122.5,223.5C 119.17,222.837 115.67,222.837 112,223.5C 106.136,220.647 100.303,217.981 94.5,215.5C 90.5261,213.84 86.5261,212.173 82.5,210.5C 82.5,209.5 82.5,208.5 82.5,207.5C 87.3981,209.11 92.3981,210.443 97.5,211.5C 97.8333,211.167 98.1667,210.833 98.5,210.5C 93.483,208.657 88.483,206.657 83.5,204.5C 80.9175,202.235 78.0841,200.235 75,198.5C 74.8333,199.333 74.6667,200.167 74.5,201C 74.9686,202.887 75.9686,204.387 77.5,205.5C 77.1924,206.308 76.6924,206.975 76,207.5C 73.6667,204.5 71,201.833 68,199.5C 63.889,186.815 65.7224,185.648 73.5,196C 75.5342,197.205 77.5342,197.372 79.5,196.5C 77.5455,194.57 75.8788,192.403 74.5,190C 74.8333,189.833 75.1667,189.667 75.5,189.5C 83.5756,196.291 92.4089,201.958 102,206.5C 101.865,204.575 101.698,202.575 101.5,200.5C 97.7889,200.53 97.1222,199.53 99.5,197.5C 101.423,198.092 103.089,199.092 104.5,200.5 Z"/></g>
<g><path style="opacity:1" fill="#482011" d="M 12.5,176.5 C 26.8637,205.197 48.5303,226.53 77.5,240.5C 73.422,239.298 69.422,237.798 65.5,236C 61.8333,233.5 58.1667,231 54.5,228.5C 53.8933,228.624 53.56,228.957 53.5,229.5C 34.1885,216.19 20.5219,198.523 12.5,176.5 Z"/></g>
<g><path style="opacity:1" fill="#dca788" d="M 192.5,205.5 C 193.767,208.925 195.767,211.925 198.5,214.5C 196.54,216.156 194.54,217.823 192.5,219.5C 191.241,218.021 190.241,216.354 189.5,214.5C 190.376,214.631 191.043,214.298 191.5,213.5C 189.89,211.275 188.557,208.941 187.5,206.5C 189.044,206.703 190.378,207.37 191.5,208.5C 192.386,207.675 192.719,206.675 192.5,205.5 Z"/></g>
<g><path style="opacity:1" fill="#cc916f" d="M 187.5,221.5 C 184.48,223.677 181.147,225.343 177.5,226.5C 175.717,222.692 174.384,218.692 173.5,214.5C 175.792,214.244 177.959,214.577 180,215.5C 179.513,217.044 179.013,218.71 178.5,220.5C 181.57,220.368 184.57,220.701 187.5,221.5 Z"/></g>
<g><path style="opacity:1" fill="#834f2f" d="M 58.5,188.5 C 57.1262,193.573 56.1262,198.74 55.5,204C 56.583,207.586 58.9163,210.086 62.5,211.5C 64.9266,213.558 67.5932,215.391 70.5,217C 76.5715,219.954 82.5715,222.787 88.5,225.5C 89.2341,226.708 89.5674,228.041 89.5,229.5C 85.0744,227.788 80.741,225.788 76.5,223.5C 75.8333,223.667 75.1667,223.833 74.5,224C 78.4294,226.787 82.4294,229.287 86.5,231.5C 74.6409,226.646 64.1409,219.646 55,210.5C 53.5432,207.634 53.2099,204.634 54,201.5C 54.5731,196.721 56.0731,192.387 58.5,188.5 Z"/></g>
<g><path style="opacity:1" fill="#f1c3a9" d="M 73.5,214.5 C 74.0577,215.79 75.0577,216.623 76.5,217C 84.6082,218.622 91.9415,221.956 98.5,227C 100.5,227.333 102.5,227.667 104.5,228C 107.018,230.756 110.018,232.756 113.5,234C 112.552,234.483 111.552,234.649 110.5,234.5C 103.947,232.886 97.6137,230.719 91.5,228C 90.9221,226.583 89.9221,225.75 88.5,225.5C 82.5715,222.787 76.5715,219.954 70.5,217C 67.5932,215.391 64.9266,213.558 62.5,211.5C 62.4701,210.503 62.9701,209.836 64,209.5C 67.4397,210.802 70.6064,212.468 73.5,214.5 Z"/></g>
<g><path style="opacity:1" fill="#673a1e" d="M 202.5,211.5 C 202.833,211.5 203.167,211.5 203.5,211.5C 203.938,211.435 204.272,211.601 204.5,212C 186.171,227.162 165.171,236.328 141.5,239.5C 138.941,239.802 136.607,239.468 134.5,238.5C 142.418,237.56 150.085,235.893 157.5,233.5C 164.639,232.251 171.306,229.918 177.5,226.5C 181.147,225.343 184.48,223.677 187.5,221.5C 189.153,221.34 190.486,220.674 191.5,219.5C 191.833,219.5 192.167,219.5 192.5,219.5C 194.54,217.823 196.54,216.156 198.5,214.5C 200.23,213.974 201.564,212.974 202.5,211.5 Z"/></g>
<g><path style="opacity:1" fill="#dda787" d="M 82.5,210.5 C 86.5261,212.173 90.5261,213.84 94.5,215.5C 92.5714,215.231 90.9047,215.731 89.5,217C 95.4015,219.64 101.401,221.973 107.5,224C 110.632,226.082 113.632,228.248 116.5,230.5C 118.743,231.474 121.076,231.808 123.5,231.5C 123.5,232.833 123.5,234.167 123.5,235.5C 124.93,235.421 126.264,235.754 127.5,236.5C 128.452,234.955 128.785,233.288 128.5,231.5C 131.243,233.239 133.243,235.573 134.5,238.5C 126.427,237.015 118.427,235.682 110.5,234.5C 111.552,234.649 112.552,234.483 113.5,234C 110.018,232.756 107.018,230.756 104.5,228C 102.5,227.667 100.5,227.333 98.5,227C 91.9415,221.956 84.6082,218.622 76.5,217C 75.0577,216.623 74.0577,215.79 73.5,214.5C 76.4847,213.276 79.1514,213.609 81.5,215.5C 81.9427,213.713 82.2761,212.046 82.5,210.5 Z"/></g>
<g><path style="opacity:1" fill="#edbea3" d="M 121.5,215.5 C 123.588,220.919 125.921,226.252 128.5,231.5C 128.785,233.288 128.452,234.955 127.5,236.5C 126.264,235.754 124.93,235.421 123.5,235.5C 123.5,234.167 123.5,232.833 123.5,231.5C 121.076,231.808 118.743,231.474 116.5,230.5C 113.632,228.248 110.632,226.082 107.5,224C 101.401,221.973 95.4015,219.64 89.5,217C 90.9047,215.731 92.5714,215.231 94.5,215.5C 100.303,217.981 106.136,220.647 112,223.5C 115.67,222.837 119.17,222.837 122.5,223.5C 118.38,220.554 114.38,217.388 110.5,214C 112.256,213.798 113.922,213.298 115.5,212.5C 111.811,208.48 108.145,204.48 104.5,200.5C 105.251,199.427 106.251,199.26 107.5,200C 110.266,203.522 113.266,206.855 116.5,210C 117.449,210.617 118.282,210.451 119,209.5C 119.037,211.974 119.87,213.974 121.5,215.5 Z"/></g>
<g><path style="opacity:1" fill="#9c623f" d="M 88.5,225.5 C 89.9221,225.75 90.9221,226.583 91.5,228C 97.6137,230.719 103.947,232.886 110.5,234.5C 118.427,235.682 126.427,237.015 134.5,238.5C 136.607,239.468 138.941,239.802 141.5,239.5C 138.518,240.165 135.352,240.498 132,240.5C 115.976,240.769 100.809,237.769 86.5,231.5C 82.4294,229.287 78.4294,226.787 74.5,224C 75.1667,223.833 75.8333,223.667 76.5,223.5C 80.741,225.788 85.0744,227.788 89.5,229.5C 89.5674,228.041 89.2341,226.708 88.5,225.5 Z"/></g>
<g><path style="opacity:1" fill="#f4c7aa" d="M 203.5,220.5 C 189.357,231.904 173.357,239.571 155.5,243.5C 140.892,245.385 126.225,245.885 111.5,245C 109.618,244.802 107.952,244.302 106.5,243.5C 141.571,248.58 173.237,240.747 201.5,220C 202.437,219.308 203.103,219.475 203.5,220.5 Z"/></g>
<g><path style="opacity:1" fill="#f5decd" d="M 52.5,221.5 C 53.1667,221.5 53.8333,221.5 54.5,221.5C 62.3804,226.941 70.7137,231.608 79.5,235.5C 87.974,239.54 96.974,242.207 106.5,243.5C 107.952,244.302 109.618,244.802 111.5,245C 126.225,245.885 140.892,245.385 155.5,243.5C 117.754,252.147 83.4203,244.813 52.5,221.5 Z"/></g>
<g><path style="opacity:1" fill="#6f3818" d="M 210.5,218.5 C 209.457,221.056 207.79,223.223 205.5,225C 194.649,233.104 182.982,239.604 170.5,244.5C 144.708,252.743 118.708,253.577 92.5,247C 87.0787,245.577 82.0787,243.41 77.5,240.5C 88.4913,244.581 99.8246,247.414 111.5,249C 149.059,252.976 182.059,242.809 210.5,218.5 Z"/></g>
<g><path style="opacity:1" fill="#311710" d="M 53.5,229.5 C 53.56,228.957 53.8933,228.624 54.5,228.5C 58.1667,231 61.8333,233.5 65.5,236C 69.422,237.798 73.422,239.298 77.5,240.5C 82.0787,243.41 87.0787,245.577 92.5,247C 118.708,253.577 144.708,252.743 170.5,244.5C 171.492,244.328 172.158,244.662 172.5,245.5C 129.93,260.857 90.2631,255.524 53.5,229.5 Z"/></g>
</svg>
