<svg id="Layer_1" data-name="Layer 1" xmlns="http://www.w3.org/2000/svg" viewBox="0 0 256 238"><defs><style>.cls-1{fill:#8d8fc6;}.cls-2{fill:#579fd6;}.cls-3{fill:#f27046;}.cls-4{fill:#eb407a;}</style></defs><title>icon_colored</title><path class="cls-1" d="M74.5,28.33,21.29,120.5,74.5,212.67H180.94l1.76-3,51.46-89.13L180.94,28.33ZM84.65,40.54h78.83L111.65,56.93a15.85,15.85,0,0,1,2,5l59.66-18.81L185.22,101a20.12,20.12,0,0,1,5.36-.78l-10-47.91,37.87,65.53h-7.62a24.21,24.21,0,0,1,.15,2.68,23.29,23.29,0,0,1-.15,2.68h7.62l-39.1,67.75,10.92-50.13A20.57,20.57,0,0,1,185,140l-12.88,59-58.37-19.53a17.61,17.61,0,0,1-1.7,5l47.5,15.92H84.65l4-6.85A20.17,20.17,0,0,1,83.93,191L80,197.78,42.67,133.13l37,32.66a20.52,20.52,0,0,1,3.6-4L36.69,120.66,85,77.79a17.45,17.45,0,0,1-3.19-4.32l-39.46,35L80,43.22l5.56,9.69A17.51,17.51,0,0,1,90.12,50Zm28.24,31.17a16.15,16.15,0,0,1-2.68,4.64l62,35.81a19.74,19.74,0,0,1,2.83-4.54Zm-20,10.51v75.33a18,18,0,0,1,2.47-.16,17.18,17.18,0,0,1,2.89.21v-75a11.21,11.21,0,0,1-1.29,0,17.57,17.57,0,0,1-4.07-.47Zm79.34,46.63-62.08,35.81a18.45,18.45,0,0,1,2.68,4.68l62.23-36a19.68,19.68,0,0,1-2.83-4.53Z"/><path class="cls-2" d="M97,48.58a17.06,17.06,0,1,0,17,17,17.08,17.08,0,0,0-17-17Zm0,5.36a11.7,11.7,0,1,1-11.7,11.69A11.65,11.65,0,0,1,97,53.94Z"/><path class="cls-3" d="M95.37,157.39a18.73,18.73,0,1,0,18.7,18.7,18.74,18.74,0,0,0-18.7-18.7Zm0,5.31A13.4,13.4,0,1,1,82,176.09a13.37,13.37,0,0,1,13.4-13.39Z"/><path class="cls-4" d="M190.73,100.2A20.3,20.3,0,1,0,211,120.5a20.34,20.34,0,0,0-20.3-20.3Zm0,5.36a14.94,14.94,0,1,1-14.94,14.94,14.88,14.88,0,0,1,14.94-14.94Z"/></svg>