<svg id="Layer_1" data-name="Layer 1" xmlns="http://www.w3.org/2000/svg" viewBox="0 0 500 500"><defs><style>.cls-1{fill:#15b555;}.cls-2{fill:#f7b852;}.cls-3{fill:#fff;}</style></defs><rect class="cls-1" width="500" height="500" rx="250"/><path class="cls-2" d="M278.16,98.28,250,70,221.85,98.28l-33.41-19s6.15,36.09,8.07,42.82c3.38,11.76,23.22,18.77,53.5,18.77s50.12-7,53.49-18.77c1.93-6.73,8.07-42.82,8.07-42.82Z"/><ellipse class="cls-2" cx="117.68" cy="363.24" rx="8.33" ry="14.62" transform="translate(-251.07 462.29) rotate(-87.09)"/><ellipse class="cls-2" cx="102.56" cy="384.45" rx="14.62" ry="8.33" transform="translate(-103.7 44.19) rotate(-16.29)"/><ellipse class="cls-2" cx="106.87" cy="413" rx="14.62" ry="8.33" transform="translate(-269.54 212.24) rotate(-47.42)"/><ellipse class="cls-2" cx="138.19" cy="416.29" rx="14.62" ry="8.33" transform="translate(-300.19 401.57) rotate(-69.71)"/><ellipse class="cls-2" cx="160.39" cy="401.7" rx="8.33" ry="14.62" transform="translate(-22.91 9.92) rotate(-3.31)"/><rect class="cls-3" x="172.7" y="288.74" width="37.66" height="42.91" rx="12.81"/><rect class="cls-3" x="289.66" y="288.74" width="37.66" height="42.91" rx="12.81"/><path class="cls-3" d="M166.6,186.21c20.36,3.6,34.65-32.33,23.42-35.6-14.49-4.21-28.42-8.69-34.44-21-6.28-12.85-3.94-30.65,2.92-44.52-37.11,11.44-40.15,47.24-35.77,62.18C128.42,166.67,148.65,183,166.6,186.21Z"/><ellipse class="cls-3" cx="121.79" cy="223.05" rx="39.72" ry="22.7" transform="translate(-104.17 106.74) rotate(-34.13)"/><ellipse class="cls-3" cx="378.23" cy="223.05" rx="22.7" ry="39.72" transform="translate(-18.61 410.99) rotate(-55.87)"/><path class="cls-3" d="M350.38,363.29c10.92-7.9,18.14-18.53,18.14-32.83V293.92c0-15.33-8.62-27.7-16.06-33.06-8.57-6.18-14.32-9.36-17-20.18-2.17-8.62-4.45-13.27-7.79-30-3.08-15.39,2.7-21.82,12.53-26.08,9.06-3.92,29.23-14.5,36.51-35.47,5.11-14.7,2.93-52.73-35.16-64.07,5.11,10.17,11,29.75,2.2,45.87-9.2,16.78-39.54,20.77-59,24.33C265.86,158.75,250,172.36,250,198.05v40.53c0,9.75-7.91,13.23-17.66,13.23H173.6a42.15,42.15,0,0,0-42.1,42.11v36.54c0,14.67,7.59,25.47,19,33.43a191.76,191.76,0,0,0-32.8,29.24l9.85,10.35a173.12,173.12,0,0,1,41.16-30.13c30.18,11.76,69.6,12.7,81.32,12.7s51.17-.94,81.36-12.72a173.18,173.18,0,0,1,49.36,41.83L394.22,403A192.12,192.12,0,0,0,350.38,363.29ZM295.75,200c9.3,0,16.83,8.4,16.83,18.75s-7.53,18.75-16.83,18.75-16.83-8.39-16.83-18.75S286.45,200,295.75,200ZM150.18,330.46V293.92A23.45,23.45,0,0,1,173.6,270.5H326.41a23.45,23.45,0,0,1,23.43,23.42v36.54c0,29.19-65.3,36.91-99.83,36.91S150.18,359.65,150.18,330.46Z"/><path class="cls-3" d="M178.14,206.21a8.15,8.15,0,0,0,6.18,9.71c2.18.49,4.51,1.13,6.91,1.9a100,100,0,0,0-10.38,4.07,8.14,8.14,0,0,0,6.89,14.75,94.74,94.74,0,0,1,14.4-5.17,97.4,97.4,0,0,1,15.23-3h0a8.75,8.75,0,0,0,1.42-.3l.31-.1a7.64,7.64,0,0,0,1.28-.56l.13-.07a7.64,7.64,0,0,0,1-.74l.23-.18a8.42,8.42,0,0,0,1-1l.11-.15c.16-.21.32-.43.47-.66.05-.08.08-.17.13-.26a7,7,0,0,0,.38-.78,6.76,6.76,0,0,0,.29-.69c.08-.25.14-.51.2-.77s.12-.53.16-.8a5.85,5.85,0,0,0,0-.73,6.61,6.61,0,0,0,0-.89c0-.09,0-.18,0-.28s-.07-.29-.1-.43a8,8,0,0,0-.17-.85c-.07-.25-.16-.49-.25-.74a7.28,7.28,0,0,0-.31-.71,7.14,7.14,0,0,0-.4-.71c-.13-.21-.27-.41-.42-.61s-.36-.44-.55-.65-.33-.34-.52-.5-.47-.38-.72-.56a4.08,4.08,0,0,0-.33-.25,103.82,103.82,0,0,0-15.84-8A109.94,109.94,0,0,0,187.86,200,8.14,8.14,0,0,0,178.14,206.21Z"/></svg>