<?xml version="1.0" encoding="UTF-8"?>
<svg version="1.1" xmlns="http://www.w3.org/2000/svg" width="640" height="640">
<path d="M0 0 C211.2 0 422.4 0 640 0 C640 211.2 640 422.4 640 640 C428.8 640 217.6 640 0 640 C0 428.8 0 217.6 0 0 Z " fill="#090A09" transform="translate(0,0)"/>
<path d="M0 0 C12.54 0 25.08 0 38 0 C38 4.29 38 8.58 38 13 C42.29 13 46.58 13 51 13 C51 33.79 51 54.58 51 76 C46.71 76 42.42 76 38 76 C37.67 55.87 37.34 35.74 37 15 C18.685 14.505 18.685 14.505 0 14 C0 34.46 0 54.92 0 76 C12.13173597 75.96039717 12.13173597 75.96039717 24.26342773 75.90991211 C25.77848236 75.90699293 27.29353777 75.90444438 28.80859375 75.90234375 C29.60237427 75.89722778 30.39615479 75.89211182 31.21398926 75.88684082 C33.14302829 75.88653044 35.07196912 75.93764107 37 76 C40.07318149 79.07318149 38 84.65386506 38 89 C25.13 89 12.26 89 -1 89 C-1 85.04 -1 81.08 -1 77 C-4.96 77 -8.92 77 -13 77 C-13.02255425 68.8030903 -13.04091696 60.60620455 -13.05181217 52.40927219 C-13.0570402 48.60348423 -13.06413638 44.79771852 -13.07543945 40.99194336 C-13.0862712 37.32207456 -13.09227744 33.65222722 -13.09487724 29.98234367 C-13.09673097 28.57925008 -13.1003506 27.17615771 -13.10573006 25.7730732 C-13.11294419 23.8143032 -13.11340809 21.8555118 -13.11352539 19.89672852 C-13.115746 18.77976089 -13.11796661 17.66279327 -13.12025452 16.51197815 C-13 14 -13 14 -12 13 C-7.99779347 12.85644883 -4.00558317 12.95783597 0 13 C0 8.71 0 4.42 0 0 Z " fill="#0A910D" transform="translate(172,262)"/>
<path d="M0 0 C6.084375 -0.020625 12.16875 -0.04125 18.4375 -0.0625 C20.36005615 -0.071604 22.2826123 -0.08070801 24.26342773 -0.09008789 C25.77848236 -0.09300707 27.29353777 -0.09555562 28.80859375 -0.09765625 C29.60237427 -0.10277222 30.39615479 -0.10788818 31.21398926 -0.11315918 C33.14302829 -0.11346956 35.07196912 -0.06235893 37 0 C38 1 38 1 38.12025452 3.43605042 C38.11803391 4.51748825 38.11581329 5.59892609 38.11352539 6.71313477 C38.11344986 7.9343251 38.11337433 9.15551544 38.11329651 10.41371155 C38.10818911 11.75627686 38.10297311 13.09884175 38.09765625 14.44140625 C38.09579199 15.80761158 38.09436813 17.17381757 38.09336853 18.5400238 C38.08954394 22.14201695 38.07971417 25.74397 38.06866455 29.34594727 C38.05844916 33.01903745 38.05387064 36.69213409 38.04882812 40.36523438 C38.03809184 47.57684334 38.02049553 54.78841095 38 62 C41.96 62 45.92 62 50 62 C50 62.33 50 62.66 50 63 C25.25 62.505 25.25 62.505 0 62 C0 41.54 0 21.08 0 0 Z " fill="#081108" transform="translate(172,276)"/>
<path d="M0 0 C17.16 0 34.32 0 52 0 C52 4.29 52 8.58 52 13 C56.29 13 60.58 13 65 13 C65 21.58 65 30.16 65 39 C60.71 39 56.42 39 52 39 C52 42.96 52 46.92 52 51 C39.46 51 26.92 51 14 51 C14 46.71 14 42.42 14 38 C26.21 38 38.42 38 51 38 C50.34 30.74 49.68 23.48 49 16 C32.83 16 16.66 16 0 16 C0 10.72 0 5.44 0 0 Z " fill="#057606" transform="translate(334,262)"/>
<path d="M0 0 C4.29 0 8.58 0 13 0 C13 3.96 13 7.92 13 12 C16.96 12 20.92 12 25 12 C25 8.04 25 4.08 25 0 C29.29 0 33.58 0 38 0 C38 4.29 38 8.58 38 13 C34.04 13 30.08 13 26 13 C26 20.92 26 28.84 26 37 C29.96 37 33.92 37 38 37 C38 41.29 38 45.58 38 50 C42.29 50 46.58 50 51 50 C51 54.29 51 58.58 51 63 C48.68756208 63.02685412 46.3750373 63.04632841 44.0625 63.0625 C42.77472656 63.07410156 41.48695313 63.08570313 40.16015625 63.09765625 C37 63 37 63 36 62 C35.85742811 58.66381769 35.95771843 55.34024394 36 52 C32.04 52 28.08 52 24 52 C23.34 50.68 22.68 49.36 22 48 C21.34 48.66 20.68 49.32 20 50 C20 46.7 20 43.4 20 40 C19.34 40 18.68 40 18 40 C17.67 41.32 17.34 42.64 17 44 C16.67 43.01 16.34 42.02 16 41 C16 42.65 16 44.3 16 46 C16.66 46 17.32 46 18 46 C17.34 48.31 16.68 50.62 16 53 C14.02 53.495 14.02 53.495 12 54 C12 53.67 12 53.34 12 53 C9.03 53 6.06 53 3 53 C2.95101563 53.78246094 2.90203125 54.56492187 2.8515625 55.37109375 C2.77679688 56.38300781 2.70203125 57.39492188 2.625 58.4375 C2.55539062 59.44683594 2.48578125 60.45617187 2.4140625 61.49609375 C2.27742188 62.32238281 2.14078125 63.14867187 2 64 C-0.74505463 65.37252731 -3.00327412 65.13229255 -6.0625 65.125 C-7.68865234 65.12886719 -7.68865234 65.12886719 -9.34765625 65.1328125 C-12 65 -12 65 -13 64 C-13.07271741 61.64686445 -13.08370868 59.29166332 -13.0625 56.9375 C-13.05347656 55.64714844 -13.04445312 54.35679687 -13.03515625 53.02734375 C-13.02355469 52.02832031 -13.01195312 51.02929688 -13 50 C-8.71 50 -4.42 50 0 50 C0 45.71 0 41.42 0 37 C3.96 37 7.92 37 12 37 C12 29.08 12 21.16 12 13 C8.04 13 4.08 13 0 13 C0 8.71 0 4.42 0 0 Z " fill="#07810A" transform="translate(260,288)"/>
<path d="M0 0 C8 0 8 0 10 1 C10 2.32 10 3.64 10 5 C7 7 7 7 4 7 C3.67 9.31 3.34 11.62 3 14 C4.32 14.33 5.64 14.66 7 15 C7 17.97 7 20.94 7 24 C7.99 24 8.98 24 10 24 C9.67 23.01 9.34 22.02 9 21 C9.75 17.875 9.75 17.875 11 15 C13.88211302 14.03929566 15.69850044 13.89418117 18.6875 13.9375 C19.89986328 13.95103516 19.89986328 13.95103516 21.13671875 13.96484375 C22.05904297 13.98224609 22.05904297 13.98224609 23 14 C22.34 13.01 21.68 12.02 21 11 C20.92094936 8.66800612 20.91201231 6.33167378 21 4 C19.35 4.33 17.7 4.66 16 5 C15.67 6.98 15.34 8.96 15 11 C14.01 11 13.02 11 12 11 C12 7.7 12 4.4 12 1 C21.57 1 31.14 1 41 1 C41.495 2.485 41.495 2.485 42 4 C40.35 4 38.7 4 37 4 C37 5.65 37 7.3 37 9 C40.465 8.505 40.465 8.505 44 8 C44.33 6.35 44.66 4.7 45 3 C45.66 3 46.32 3 47 3 C47 2.34 47 1.68 47 1 C48.65 1 50.3 1 52 1 C52 1.66 52 2.32 52 3 C52.66 3 53.32 3 54 3 C54 4.32 54 5.64 54 7 C52.02 7 50.04 7 48 7 C48 7.66 48 8.32 48 9 C49.65 9 51.3 9 53 9 C53 9.99 53 10.98 53 12 C49.7 12.33 46.4 12.66 43 13 C43.99 13.66 44.98 14.32 46 15 C46.29296875 17.6015625 46.29296875 17.6015625 46.1875 20.625 C46.14689453 22.12933594 46.14689453 22.12933594 46.10546875 23.6640625 C46.07066406 24.43492187 46.03585938 25.20578125 46 26 C45.01 26.33 44.02 26.66 43 27 C42.505 28.485 42.505 28.485 42 30 C41.2575 29.835 40.515 29.67 39.75 29.5 C36.80993422 28.88074304 36.80993422 28.88074304 33 29 C26.33333333 29 19.66666667 29 13 29 C13 28.34 13 27.68 13 27 C9.04 27 5.08 27 1 27 C1 26.34 1 25.68 1 25 C1.99 25 2.98 25 4 25 C4 23.02 4 21.04 4 19 C2.35 19 0.7 19 -1 19 C-0.67 12.73 -0.34 6.46 0 0 Z " fill="#022003" transform="translate(181,365)"/>
<path d="M0 0 C1.65 0 3.3 0 5 0 C5 0.99 5 1.98 5 3 C5.66 3 6.32 3 7 3 C7.33 2.01 7.66 1.02 8 0 C8 0.99 8 1.98 8 3 C8.66 3 9.32 3 10 3 C10 2.34 10 1.68 10 1 C11.65 1 13.3 1 15 1 C15 1.66 15 2.32 15 3 C15.66 3 16.32 3 17 3 C17 2.01 17 1.02 17 0 C17.66 0 18.32 0 19 0 C19 1.32 19 2.64 19 4 C20.32 4 21.64 4 23 4 C23 5.32 23 6.64 23 8 C23.99 8 24.98 8 26 8 C26 13 26 18 26 23 C25.01 23.33 24.02 23.66 23 24 C23.99 24.33 24.98 24.66 26 25 C26 25.66 26 26.32 26 27 C24.68 27 23.36 27 22 27 C22 28.32 22 29.64 22 31 C20.68 31 19.36 31 18 31 C17.67 31.99 17.34 32.98 17 34 C17 33.01 17 32.02 17 31 C16.34 31 15.68 31 15 31 C15 31.99 15 32.98 15 34 C14.34 34 13.68 34 13 34 C13 33.01 13 32.02 13 31 C11.35 31 9.7 31 8 31 C7.67 32.32 7.34 33.64 7 35 C7 33.68 7 32.36 7 31 C6.01 31 5.02 31 4 31 C3.505 32.485 3.505 32.485 3 34 C1.68 34 0.36 34 -1 34 C-1 33.01 -1 32.02 -1 31 C-2.32 31 -3.64 31 -5 31 C-5 28.36 -5 25.72 -5 23 C-5.99 22.67 -6.98 22.34 -8 22 C-6.68 22 -5.36 22 -4 22 C-4.16371094 21.49984375 -4.32742187 20.9996875 -4.49609375 20.484375 C-5.1878911 17.0736532 -5.10504665 13.71264243 -5.0625 10.25 C-5.05798828 9.55261719 -5.05347656 8.85523438 -5.04882812 8.13671875 C-5.0371002 6.42444197 -5.01916653 4.71220967 -5 3 C-3.35 3 -1.7 3 0 3 C0 2.01 0 1.02 0 0 Z " fill="#031802" transform="translate(148,361)"/>
<path d="M0 0 C4.29 0 8.58 0 13 0 C13 8.58 13 17.16 13 26 C8.71 26 4.42 26 0 26 C0 29.96 0 33.92 0 38 C-12.54 38 -25.08 38 -38 38 C-38 33.71 -38 29.42 -38 25 C-25.46 25 -12.92 25 0 25 C0 16.75 0 8.5 0 0 Z " fill="#08D20B" transform="translate(474,275)"/>
<path d="M0 0 C3.96 0 7.92 0 12 0 C12 20.46 12 40.92 12 62 C8.04 62 4.08 62 0 62 C0 41.54 0 21.08 0 0 Z " fill="#05F50A" transform="translate(210,276)"/>
<path d="M0 0 C2.97 0 5.94 0 9 0 C10.58969234 3.47745199 11.41465662 6.16442626 11 10 C9 12 9 12 7.0546875 12.1953125 C5.03645833 12.13020833 3.01822917 12.06510417 1 12 C1 12.66 1 13.32 1 14 C1.928125 14.2165625 1.928125 14.2165625 2.875 14.4375 C5 15 5 15 7 16 C7 16.66 7 17.32 7 18 C7.99 17.67 8.98 17.34 10 17 C10.33 16.34 10.66 15.68 11 15 C12.98 15 14.96 15 17 15 C17.33 15.66 17.66 16.32 18 17 C18.7734375 16.7525 18.7734375 16.7525 19.5625 16.5 C24.38265584 15.51125008 28.75782901 15.28501057 33 18 C33 17.01 33 16.02 33 15 C34.32 15 35.64 15 37 15 C37.06058594 15.68707031 37.12117188 16.37414062 37.18359375 17.08203125 C37.26738281 17.98308594 37.35117187 18.88414062 37.4375 19.8125 C37.51871094 20.70582031 37.59992188 21.59914063 37.68359375 22.51953125 C37.93489767 25.12743559 37.93489767 25.12743559 39 28 C32.33333333 28 25.66666667 28 19 28 C18.34 28.33 17.68 28.66 17 29 C12.32818984 29.41527201 9.82491487 28.69993991 6 26 C5.67 26.99 5.34 27.98 5 29 C2.36 29 -0.28 29 -3 29 C-3.33 24.05 -3.66 19.1 -4 14 C-2.68 13.67 -1.36 13.34 0 13 C0 12.34 0 11.68 0 11 C-0.99 11.495 -0.99 11.495 -2 12 C-3.54023996 12.06950541 -5.08334988 12.08452357 -6.625 12.0625 C-7.85089844 12.04896484 -7.85089844 12.04896484 -9.1015625 12.03515625 C-10.04128906 12.01775391 -10.04128906 12.01775391 -11 12 C-11 10.68 -11 9.36 -11 8 C-8.03 8.495 -8.03 8.495 -5 9 C-5 8.01 -5 7.02 -5 6 C-7.97 5.505 -7.97 5.505 -11 5 C-10.34 3.68 -9.68 2.36 -9 1 C-7.02 1 -5.04 1 -3 1 C-3 2.32 -3 3.64 -3 5 C-1.68 5 -0.36 5 1 5 C0.67 3.35 0.34 1.7 0 0 Z " fill="#033404" transform="translate(249,365)"/>
<path d="M0 0 C3.63 0 7.26 0 11 0 C11 20.46 11 40.92 11 62 C7.37 62 3.74 62 0 62 C0 41.54 0 21.08 0 0 Z " fill="#05F80A" transform="translate(160,276)"/>
<path d="M0 0 C16.83 0 33.66 0 51 0 C51 4.29 51 8.58 51 13 C34.17 13 17.34 13 0 13 C0 8.71 0 4.42 0 0 Z " fill="#07E70B" transform="translate(335,338)"/>
<path d="M0 0 C16.5 0 33 0 50 0 C50 4.29 50 8.58 50 13 C33.5 13 17 13 0 13 C0 8.71 0 4.42 0 0 Z " fill="#01FC05" transform="translate(424,338)"/>
<path d="M0 0 C16.5 0 33 0 50 0 C50 3.96 50 7.92 50 12 C33.5 12 17 12 0 12 C0 8.04 0 4.08 0 0 Z " fill="#06F40B" transform="translate(336,263)"/>
<path d="M0 0 C16.5 0 33 0 50 0 C50 3.96 50 7.92 50 12 C33.5 12 17 12 0 12 C0 8.04 0 4.08 0 0 Z " fill="#06F40C" transform="translate(424,263)"/>
<path d="M0 0 C0.33 0.99 0.66 1.98 1 3 C5.95 3 10.9 3 16 3 C16 3.66 16 4.32 16 5 C17.32 5 18.64 5 20 5 C20 8.63 20 12.26 20 16 C20.66 16 21.32 16 22 16 C22 17.65 22 19.3 22 21 C24.31 21 26.62 21 29 21 C29 21.66 29 22.32 29 23 C29.66 23 30.32 23 31 23 C31 23.99 31 24.98 31 26 C31.66 26 32.32 26 33 26 C33.33 24.35 33.66 22.7 34 21 C35.65 21 37.3 21 39 21 C39.495 22.485 39.495 22.485 40 24 C40.66 24 41.32 24 42 24 C42 27.3 42 30.6 42 34 C39.22882696 33.85919445 36.45817359 33.71256882 33.6875 33.5625 C32.90181641 33.52318359 32.11613281 33.48386719 31.30664062 33.44335938 C30.1706543 33.38051758 30.1706543 33.38051758 29.01171875 33.31640625 C28.31522217 33.27974854 27.61872559 33.24309082 26.90112305 33.20532227 C25 33 25 33 22 32 C22 29.36 22 26.72 22 24 C21.34 24 20.68 24 20 24 C20 26.64 20 29.28 20 32 C19.01 32 18.02 32 17 32 C16.92345464 27.48382401 16.89771304 23.40914783 18 19 C14.7 18.67 11.4 18.34 8 18 C7.34 14.7 6.68 11.4 6 8 C5.67 10.97 5.34 13.94 5 17 C2.69 17 0.38 17 -2 17 C-1.34 13.7 -0.68 10.4 0 7 C-0.66 7 -1.32 7 -2 7 C-2.6875 5.1875 -2.6875 5.1875 -3 3 C-1.5625 1.25 -1.5625 1.25 0 0 Z " fill="#022402" transform="translate(272,360)"/>
<path d="M0 0 C1.9453125 0.6953125 1.9453125 0.6953125 4 2 C4.6796875 4.2421875 4.6796875 4.2421875 4.875 6.875 C4.95492187 7.73867188 5.03484375 8.60234375 5.1171875 9.4921875 C4.99129646 12.18625572 4.37500266 13.7083289 3 16 C1.68 16 0.36 16 -1 16 C-1 15.34 -1 14.68 -1 14 C-4.00030058 13.65373409 -4.00030058 13.65373409 -5.5625 15.5 C-6.036875 15.995 -6.51125 16.49 -7 17 C-7.66 17 -8.32 17 -9 17 C-9 16.34 -9 15.68 -9 15 C-9.66 15 -10.32 15 -11 15 C-11 15.66 -11 16.32 -11 17 C-12.98 17 -14.96 17 -17 17 C-17.33 16.34 -17.66 15.68 -18 15 C-18 15.99 -18 16.98 -18 18 C-17.34 18.639375 -16.68 19.27875 -16 19.9375 C-14 22 -14 22 -14 26 C-13.34 26.33 -12.68 26.66 -12 27 C-14.83071992 30.61703101 -15.78717492 30.13119582 -21 31 C-21.33 26.38 -21.66 21.76 -22 17 C-23.32 17 -24.64 17 -26 17 C-26 20.63 -26 24.26 -26 28 C-25.34 28 -24.68 28 -24 28 C-24 28.66 -24 29.32 -24 30 C-25.65 29.67 -27.3 29.34 -29 29 C-29 25.7 -29 22.4 -29 19 C-28.34 19 -27.68 19 -27 19 C-27.33 18.01 -27.66 17.02 -28 16 C-28.1192902 14.00258264 -28.17523935 12.00093876 -28.1875 10 C-28.20167969 8.948125 -28.21585937 7.89625 -28.23046875 6.8125 C-28 4 -28 4 -26 1 C-22.875 0.8125 -22.875 0.8125 -20 1 C-19.67 1.99 -19.34 2.98 -19 4 C-17.576875 3.938125 -17.576875 3.938125 -16.125 3.875 C-13 4 -13 4 -11 6 C-10.38125 5.649375 -9.7625 5.29875 -9.125 4.9375 C-8.073125 4.4734375 -8.073125 4.4734375 -7 4 C-6.34 4.33 -5.68 4.66 -5 5 C-4.67 4.34 -4.34 3.68 -4 3 C-2.68 3 -1.36 3 0 3 C0 2.01 0 1.02 0 0 Z " fill="#031703" transform="translate(345,362)"/>
<path d="M0 0 C8 0 8 0 10 1 C10 2.32 10 3.64 10 5 C7 7 7 7 4 7 C3.67 9.31 3.34 11.62 3 14 C4.32 14.33 5.64 14.66 7 15 C7 17.97 7 20.94 7 24 C7.99 24 8.98 24 10 24 C9.67 23.01 9.34 22.02 9 21 C9.9375 17.8125 9.9375 17.8125 11 15 C11.99 15.33 12.98 15.66 14 16 C13.67 16.33 13.34 16.66 13 17 C12.76807135 18.51469448 12.58784762 20.03754562 12.4375 21.5625 C12.293125 23.026875 12.14875 24.49125 12 26 C14.97 26 17.94 26 21 26 C21.33 24.02 21.66 22.04 22 20 C23.32 20 24.64 20 26 20 C25.34 22.31 24.68 24.62 24 27 C26.64 27 29.28 27 32 27 C32 26.34 32 25.68 32 25 C30.68 24.67 29.36 24.34 28 24 C28.66 23.46375 29.32 22.9275 30 22.375 C32.31024799 20.10041408 32.31024799 20.10041408 32.25 16.75 C32.1675 15.8425 32.085 14.935 32 14 C30.35 14 28.7 14 27 14 C28.09375 12.4921875 28.09375 12.4921875 30 11 C33.03125 10.8203125 33.03125 10.8203125 36.5 11.125 C38.21703125 11.25261719 38.21703125 11.25261719 39.96875 11.3828125 C43 12 43 12 44.89453125 13.19921875 C46.46534975 15.75804323 46.29246515 17.7134875 46.1875 20.6875 C46.14689453 22.17830078 46.14689453 22.17830078 46.10546875 23.69921875 C46.07066406 24.45847656 46.03585938 25.21773438 46 26 C45.01 26.33 44.02 26.66 43 27 C42.505 28.485 42.505 28.485 42 30 C41.2575 29.835 40.515 29.67 39.75 29.5 C36.80993422 28.88074304 36.80993422 28.88074304 33 29 C26.33333333 29 19.66666667 29 13 29 C13 28.34 13 27.68 13 27 C9.04 27 5.08 27 1 27 C1 26.34 1 25.68 1 25 C1.99 25 2.98 25 4 25 C4 23.02 4 21.04 4 19 C2.35 19 0.7 19 -1 19 C-0.67 12.73 -0.34 6.46 0 0 Z " fill="#031A03" transform="translate(181,365)"/>
<path d="M0 0 C12.54 0 25.08 0 38 0 C38 3.96 38 7.92 38 12 C25.46 12 12.92 12 0 12 C0 8.04 0 4.08 0 0 Z " fill="#00FE05" transform="translate(348,301)"/>
<path d="M0 0 C3.96 0 7.92 0 12 0 C12 12.21 12 24.42 12 37 C8.04 37 4.08 37 0 37 C0 24.79 0 12.58 0 0 Z " fill="#08F50C" transform="translate(185,288)"/>
<path d="M0 0 C11.88 0 23.76 0 36 0 C36 3.63 36 7.26 36 11 C24.12 11 12.24 11 0 11 C0 7.37 0 3.74 0 0 Z " fill="#05F809" transform="translate(173,339)"/>
<path d="M0 0 C11.88 0 23.76 0 36 0 C36 3.63 36 7.26 36 11 C24.12 11 12.24 11 0 11 C0 7.37 0 3.74 0 0 Z " fill="#06F90B" transform="translate(437,301)"/>
<path d="M0 0 C11.88 0 23.76 0 36 0 C36 3.63 36 7.26 36 11 C24.12 11 12.24 11 0 11 C0 7.37 0 3.74 0 0 Z " fill="#05F90B" transform="translate(173,264)"/>
<path d="M0 0 C3.96 0 7.92 0 12 0 C12 4.29 12 8.58 12 13 C15.96 13 19.92 13 24 13 C24 16.63 24 20.26 24 24 C23.67 24 23.34 24 23 24 C23 20.7 23 17.4 23 14 C19.04 14 15.08 14 11 14 C10.34 12.68 9.68 11.36 9 10 C8.34 10.66 7.68 11.32 7 12 C7 8.7 7 5.4 7 2 C6.34 2 5.68 2 5 2 C4.67 3.32 4.34 4.64 4 6 C3.67 5.01 3.34 4.02 3 3 C3 4.65 3 6.3 3 8 C3.66 8 4.32 8 5 8 C4.34 10.31 3.68 12.62 3 15 C1.68 15.33 0.36 15.66 -1 16 C-1 15.67 -1 15.34 -1 15 C-3.97 15 -6.94 15 -10 15 C-10.04898437 15.78246094 -10.09796875 16.56492187 -10.1484375 17.37109375 C-10.22320312 18.38300781 -10.29796875 19.39492188 -10.375 20.4375 C-10.44460938 21.44683594 -10.51421875 22.45617187 -10.5859375 23.49609375 C-10.72257812 24.32238281 -10.85921875 25.14867187 -11 26 C-13.74505463 27.37252731 -16.00327412 27.13229255 -19.0625 27.125 C-20.68865234 27.12886719 -20.68865234 27.12886719 -22.34765625 27.1328125 C-25 27 -25 27 -26 26 C-26.14426614 21.33154772 -26.04208415 16.67134047 -26 12 C-17.42 12 -8.84 12 0 12 C0 8.04 0 4.08 0 0 Z " fill="#022102" transform="translate(273,326)"/>
<path d="M0 0 C1.65 0 3.3 0 5 0 C5 0.99 5 1.98 5 3 C5.66 3 6.32 3 7 3 C7.33 2.01 7.66 1.02 8 0 C8 0.99 8 1.98 8 3 C8.66 3 9.32 3 10 3 C10 2.34 10 1.68 10 1 C11.65 1 13.3 1 15 1 C15 1.66 15 2.32 15 3 C15.66 3 16.32 3 17 3 C17 2.01 17 1.02 17 0 C17.66 0 18.32 0 19 0 C19 1.32 19 2.64 19 4 C20.32 4 21.64 4 23 4 C23 5.32 23 6.64 23 8 C23.99 8 24.98 8 26 8 C26 13 26 18 26 23 C25.01 23.33 24.02 23.66 23 24 C23.99 24.33 24.98 24.66 26 25 C26 25.66 26 26.32 26 27 C24.68 27 23.36 27 22 27 C22 28.32 22 29.64 22 31 C20.68 31 19.36 31 18 31 C17.67 31.99 17.34 32.98 17 34 C17 33.01 17 32.02 17 31 C16.34 31 15.68 31 15 31 C15 31.99 15 32.98 15 34 C14.34 34 13.68 34 13 34 C13 33.01 13 32.02 13 31 C11.35 31 9.7 31 8 31 C7.67 32.32 7.34 33.64 7 35 C7 33.68 7 32.36 7 31 C6.01 31 5.02 31 4 31 C3.505 32.485 3.505 32.485 3 34 C1.68 34 0.36 34 -1 34 C-1 33.01 -1 32.02 -1 31 C-2.32 31 -3.64 31 -5 31 C-5 28.36 -5 25.72 -5 23 C-5.99 22.67 -6.98 22.34 -8 22 C-6.68 22 -5.36 22 -4 22 C-4.16371094 21.49984375 -4.32742187 20.9996875 -4.49609375 20.484375 C-5.1878911 17.0736532 -5.10504665 13.71264243 -5.0625 10.25 C-5.05798828 9.55261719 -5.05347656 8.85523438 -5.04882812 8.13671875 C-5.0371002 6.42444197 -5.01916653 4.71220967 -5 3 C-3.35 3 -1.7 3 0 3 C0 2.01 0 1.02 0 0 Z M-2 6 C-2 13.59 -2 21.18 -2 29 C3.4140625 29.0309375 3.4140625 29.0309375 8.9375 29.0625 C10.07695068 29.071604 11.21640137 29.08070801 12.39038086 29.09008789 C13.28120361 29.09258545 14.17202637 29.09508301 15.08984375 29.09765625 C16.00628662 29.10289307 16.92272949 29.10812988 17.86694336 29.11352539 C19.98363023 29.23921211 19.98363023 29.23921211 21 28 C21.08700342 26.36527118 21.10701063 24.72685945 21.09765625 23.08984375 C21.09515869 22.199021 21.09266113 21.30819824 21.09008789 20.39038086 C21.08098389 19.25093018 21.07187988 18.11147949 21.0625 16.9375 C21.0315625 11.5234375 21.0315625 11.5234375 21 6 C13.41 6 5.82 6 -2 6 Z " fill="#1BC61F" transform="translate(148,361)"/>
<path d="M0 0 C3.02894737 0.38370543 5.98540302 0.32134903 9.03515625 0.2578125 C9.03515625 0.5878125 9.03515625 0.9178125 9.03515625 1.2578125 C8.06578125 1.5465625 7.09640625 1.8353125 6.09765625 2.1328125 C2.92851422 2.89995932 2.92851422 2.89995932 2.03515625 5.2578125 C5.00515625 5.7528125 5.00515625 5.7528125 8.03515625 6.2578125 C8.03515625 7.2478125 8.03515625 8.2378125 8.03515625 9.2578125 C5.06515625 8.7628125 5.06515625 8.7628125 2.03515625 8.2578125 C2.03515625 9.5778125 2.03515625 10.8978125 2.03515625 12.2578125 C5.66515625 11.9278125 9.29515625 11.5978125 13.03515625 11.2578125 C13.03515625 11.9178125 13.03515625 12.5778125 13.03515625 13.2578125 C12.41640625 13.5465625 11.79765625 13.8353125 11.16015625 14.1328125 C8.9018986 15.19501292 8.9018986 15.19501292 7.03515625 17.2578125 C7.03515625 16.5978125 7.03515625 15.9378125 7.03515625 15.2578125 C5.71515625 15.2578125 4.39515625 15.2578125 3.03515625 15.2578125 C2.70515625 18.8878125 2.37515625 22.5178125 2.03515625 26.2578125 C1.04515625 26.5878125 0.05515625 26.9178125 -0.96484375 27.2578125 C-0.96484375 25.9378125 -0.96484375 24.6178125 -0.96484375 23.2578125 C-1.91359375 23.7528125 -2.86234375 24.2478125 -3.83984375 24.7578125 C-6.96484375 26.2578125 -6.96484375 26.2578125 -8.96484375 26.2578125 C-9.00222656 25.48695313 -9.03960937 24.71609375 -9.078125 23.921875 C-9.14386719 22.91898437 -9.20960938 21.91609375 -9.27734375 20.8828125 C-9.36435547 19.38621094 -9.36435547 19.38621094 -9.453125 17.859375 C-9.62199219 17.00085938 -9.79085937 16.14234375 -9.96484375 15.2578125 C-10.95484375 14.5978125 -11.94484375 13.9378125 -12.96484375 13.2578125 C-11.30141538 11.59438413 -9.18227285 11.89733153 -6.90234375 11.6953125 C-5.98324219 11.61152344 -5.06414062 11.52773438 -4.1171875 11.44140625 C-3.40691406 11.38082031 -2.69664062 11.32023437 -1.96484375 11.2578125 C-1.96484375 10.9278125 -1.96484375 10.5978125 -1.96484375 10.2578125 C-4.43984375 9.7628125 -4.43984375 9.7628125 -6.96484375 9.2578125 C-6.96484375 8.5978125 -6.96484375 7.9378125 -6.96484375 7.2578125 C-4.98484375 7.2578125 -3.00484375 7.2578125 -0.96484375 7.2578125 C-0.96484375 5.9378125 -0.96484375 4.6178125 -0.96484375 3.2578125 C-1.62484375 3.2578125 -2.28484375 3.2578125 -2.96484375 3.2578125 C-2.96484375 2.5978125 -2.96484375 1.9378125 -2.96484375 1.2578125 C-4.61484375 1.2578125 -6.26484375 1.2578125 -7.96484375 1.2578125 C-7.96484375 1.9178125 -7.96484375 2.5778125 -7.96484375 3.2578125 C-8.62484375 3.2578125 -9.28484375 3.2578125 -9.96484375 3.2578125 C-9.94421875 4.0621875 -9.92359375 4.8665625 -9.90234375 5.6953125 C-9.96484375 8.2578125 -9.96484375 8.2578125 -10.96484375 9.2578125 C-13.29781808 9.29874187 -15.631896 9.30022973 -17.96484375 9.2578125 C-17.96484375 7.6078125 -17.96484375 5.9578125 -17.96484375 4.2578125 C-16.64484375 3.9278125 -15.32484375 3.5978125 -13.96484375 3.2578125 C-13.96484375 2.5978125 -13.96484375 1.9378125 -13.96484375 1.2578125 C-16.27484375 1.5878125 -18.58484375 1.9178125 -20.96484375 2.2578125 C-20.96484375 1.5978125 -20.96484375 0.9378125 -20.96484375 0.2578125 C-20.38476562 0.26941406 -19.8046875 0.28101563 -19.20703125 0.29296875 C-15.66923759 0.33383435 -12.39249901 0.33636143 -8.90234375 -0.3046875 C-5.78385188 -0.76914374 -3.1051395 -0.46666836 0 0 Z " fill="#080B09" transform="translate(235.96484375,364.7421875)"/>
<path d="M0 0 C6.084375 -0.020625 12.16875 -0.04125 18.4375 -0.0625 C20.36005615 -0.071604 22.2826123 -0.08070801 24.26342773 -0.09008789 C25.77848236 -0.09300707 27.29353777 -0.09555562 28.80859375 -0.09765625 C29.60237427 -0.10277222 30.39615479 -0.10788818 31.21398926 -0.11315918 C33.14302829 -0.11346956 35.07196912 -0.06235893 37 0 C38 1 38 1 38.12025452 3.43605042 C38.11803391 4.51748825 38.11581329 5.59892609 38.11352539 6.71313477 C38.11344986 7.9343251 38.11337433 9.15551544 38.11329651 10.41371155 C38.10818911 11.75627686 38.10297311 13.09884175 38.09765625 14.44140625 C38.09579199 15.80761158 38.09436813 17.17381757 38.09336853 18.5400238 C38.08954394 22.14201695 38.07971417 25.74397 38.06866455 29.34594727 C38.05844916 33.01903745 38.05387064 36.69213409 38.04882812 40.36523438 C38.03809184 47.57684334 38.02049553 54.78841095 38 62 C41.96 62 45.92 62 50 62 C50 62.33 50 62.66 50 63 C25.25 62.505 25.25 62.505 0 62 C0 41.54 0 21.08 0 0 Z M2 1 C1.97905451 8.66837567 1.95901642 16.33664831 1.94824982 24.00502777 C1.9429601 27.57571125 1.93588661 31.14637115 1.92456055 34.71704102 C1.91165824 38.81006097 1.90677094 42.9030558 1.90234375 46.99609375 C1.89718246 48.28148544 1.89202118 49.56687714 1.88670349 50.89122009 C1.88662796 52.07236893 1.88655243 53.25351776 1.88647461 54.47045898 C1.884254 55.51636703 1.88203339 56.56227509 1.87974548 57.63987732 C1.73349015 59.95689295 1.73349015 59.95689295 3 61 C5.44803767 61.0884283 7.86844794 61.11535972 10.31640625 61.09765625 C11.28797668 61.09614563 11.28797668 61.09614563 12.2791748 61.09460449 C14.70696779 61.08935843 17.13473561 61.07539725 19.5625 61.0625 C24.986875 61.041875 30.41125 61.02125 36 61 C36 41.2 36 21.4 36 1 C24.78 1 13.56 1 2 1 Z " fill="#003600" transform="translate(172,276)"/>
<path d="M0 0 C4.29 0 8.58 0 13 0 C13 8.25 13 16.5 13 25 C8.71 25 4.42 25 0 25 C0 16.75 0 8.5 0 0 Z " fill="#06E70B" transform="translate(474,313)"/>
<path d="M0 0 C4.29 0 8.58 0 13 0 C13 8.25 13 16.5 13 25 C8.71 25 4.42 25 0 25 C0 16.75 0 8.5 0 0 Z " fill="#06E50B" transform="translate(386,313)"/>
<path d="M0 0 C12.54 0 25.08 0 38 0 C38 8.25 38 16.5 38 25 C42.29 25 46.58 25 51 25 C51 25.66 51 26.32 51 27 C47.37 27 43.74 27 40 27 C40 30.96 40 34.92 40 39 C37.54934849 40.22532576 35.95426623 40.12691158 33.21484375 40.12939453 C32.2204126 40.13254669 31.22598145 40.13569885 30.20141602 40.13894653 C29.12432373 40.1369223 28.04723145 40.13489807 26.9375 40.1328125 C25.835271 40.13376923 24.73304199 40.13472595 23.59741211 40.13571167 C21.26383406 40.13639306 18.93025411 40.13454163 16.59667969 40.13037109 C13.01493085 40.1250223 9.43330742 40.1303175 5.8515625 40.13671875 C3.58854139 40.13605796 1.32552036 40.13477678 -0.9375 40.1328125 C-2.55313843 40.13584885 -2.55313843 40.13584885 -4.20141602 40.13894653 C-5.69306274 40.13421829 -5.69306274 40.13421829 -7.21484375 40.12939453 C-8.09261475 40.12859894 -8.97038574 40.12780334 -9.87475586 40.12698364 C-12 40 -12 40 -14 39 C-14.02685412 36.68756208 -14.04632841 34.3750373 -14.0625 32.0625 C-14.07410156 30.77472656 -14.08570313 29.48695313 -14.09765625 28.16015625 C-14 25 -14 25 -13 24 C-11.43452952 23.90673284 -9.86487228 23.88254418 -8.29663086 23.88647461 C-7.29566879 23.88655014 -6.29470673 23.88662567 -5.26341248 23.88670349 C-4.1748848 23.89186478 -3.08635712 23.89702606 -1.96484375 23.90234375 C-0.3022628 23.90446617 -0.3022628 23.90446617 1.39390564 23.90663147 C4.95013069 23.91224967 8.50629383 23.92480525 12.0625 23.9375 C14.46679597 23.94251266 16.87109292 23.94707597 19.27539062 23.95117188 C25.18363706 23.9613761 31.09174885 23.98094795 37 24 C37 16.41 37 8.82 37 1 C24.79 1 12.58 1 0 1 C0 0.67 0 0.34 0 0 Z M-12 25 C-12 29.29 -12 33.58 -12 38 C4.5 38 21 38 38 38 C38 33.71 38 29.42 38 25 C21.5 25 5 25 -12 25 Z " fill="#003800" transform="translate(436,313)"/>
<path d="M0 0 C3.96 0 7.92 0 12 0 C12 7.92 12 15.84 12 24 C8.04 24 4.08 24 0 24 C0 16.08 0 8.16 0 0 Z " fill="#0DEE12" transform="translate(273,301)"/>
<path d="M0 0 C3.96 0 7.92 0 12 0 C12 7.92 12 15.84 12 24 C8.04 24 4.08 24 0 24 C0 16.08 0 8.16 0 0 Z " fill="#06F20A" transform="translate(386,276)"/>
<path d="M0 0 C2.97 0 5.94 0 9 0 C10.58969234 3.47745199 11.41465662 6.16442626 11 10 C9 12 9 12 7.0546875 12.1953125 C5.03645833 12.13020833 3.01822917 12.06510417 1 12 C1 12.66 1 13.32 1 14 C1.639375 14.12375 2.27875 14.2475 2.9375 14.375 C3.618125 14.58125 4.29875 14.7875 5 15 C6.60725635 18.21451269 6.05748185 21.43612536 6 25 C5.34 25 4.68 25 4 25 C4 22.69 4 20.38 4 18 C2.35 18 0.7 18 -1 18 C-0.81870185 21.43793339 -0.81870185 21.43793339 0 25 C1.93597032 26.51294288 1.93597032 26.51294288 4 27 C1.69 27 -0.62 27 -3 27 C-3.33 22.71 -3.66 18.42 -4 14 C-2.68 13.67 -1.36 13.34 0 13 C0 12.34 0 11.68 0 11 C-0.99 11.495 -0.99 11.495 -2 12 C-3.54023996 12.06950541 -5.08334988 12.08452357 -6.625 12.0625 C-7.85089844 12.04896484 -7.85089844 12.04896484 -9.1015625 12.03515625 C-10.04128906 12.01775391 -10.04128906 12.01775391 -11 12 C-11 10.68 -11 9.36 -11 8 C-8.03 8.495 -8.03 8.495 -5 9 C-5 8.01 -5 7.02 -5 6 C-7.97 5.505 -7.97 5.505 -11 5 C-10.34 3.68 -9.68 2.36 -9 1 C-7.02 1 -5.04 1 -3 1 C-3 2.32 -3 3.64 -3 5 C-1.68 5 -0.36 5 1 5 C0.67 3.35 0.34 1.7 0 0 Z " fill="#022904" transform="translate(249,365)"/>
<path d="M0 0 C17.16 0 34.32 0 52 0 C52 0.33 52 0.66 52 1 C35.5 1 19 1 2 1 C2 4.96 2 8.92 2 13 C18.5 13 35 13 52 13 C52 21.25 52 29.5 52 38 C39.46 38 26.92 38 14 38 C14 37.67 14 37.34 14 37 C31.325 36.505 31.325 36.505 49 36 C49 29.4 49 22.8 49 16 C46.8346167 15.96241577 46.8346167 15.96241577 44.62548828 15.92407227 C39.28424762 15.83010479 33.94314027 15.72985829 28.60205078 15.62768555 C26.28762931 15.58429624 23.973175 15.54262416 21.65869141 15.50268555 C18.33746427 15.44507968 15.01640308 15.38135749 11.6953125 15.31640625 C10.65569366 15.29969376 9.61607483 15.28298126 8.54495239 15.26576233 C7.10368484 15.2358445 7.10368484 15.2358445 5.63330078 15.20532227 C4.78502716 15.18977798 3.93675354 15.1742337 3.06277466 15.15821838 C1 15 1 15 -1 14 C-0.67 9.38 -0.34 4.76 0 0 Z " fill="#004601" transform="translate(422,262)"/>
<path d="M0 0 C0.33 0 0.66 0 1 0 C1 3.96 1 7.92 1 12 C-11.21 12 -23.42 12 -36 12 C-36 16.29 -36 20.58 -36 25 C-23.46 25 -10.92 25 2 25 C2 33.25 2 41.5 2 50 C-14.83 50 -31.66 50 -49 50 C-49 49.67 -49 49.34 -49 49 C-48.42814972 48.98969254 -47.85629944 48.97938507 -47.26712036 48.96876526 C-41.33014214 48.86081685 -35.39331929 48.74620958 -29.45654297 48.62768555 C-27.23912803 48.58429922 -25.02167888 48.54262692 -22.80419922 48.50268555 C-19.62196528 48.44507246 -16.43990416 48.38135236 -13.2578125 48.31640625 C-12.26194122 48.29969376 -11.26606995 48.28298126 -10.24002075 48.26576233 C-9.31921722 48.24581711 -8.3984137 48.22587189 -7.44970703 48.20532227 C-6.6369632 48.18977798 -5.82421936 48.1742337 -4.98684692 48.15821838 C-2.92561733 48.11897586 -2.92561733 48.11897586 -1 47 C-1 40.73 -1 34.46 -1 28 C-4.75503906 27.90912109 -4.75503906 27.90912109 -8.5859375 27.81640625 C-11.00523956 27.75463238 -13.42449409 27.69123827 -15.84375 27.62768555 C-17.52762642 27.58432183 -19.21154723 27.5426478 -20.89550781 27.50268555 C-23.31328724 27.44501766 -25.73084295 27.3813135 -28.1484375 27.31640625 C-28.9036972 27.29969376 -29.65895691 27.28298126 -30.43710327 27.26576233 C-35.77225659 27.11387171 -35.77225659 27.11387171 -38 26 C-38 22.04 -38 18.08 -38 14 C-38.66 13.67 -39.32 13.34 -40 13 C-36.21157527 10.47438352 -33.21466671 10.74608427 -28.83203125 10.8046875 C-27.63981209 10.80893234 -27.63981209 10.80893234 -26.42350769 10.81326294 C-23.88635162 10.82445295 -21.34954928 10.84955509 -18.8125 10.875 C-17.09180198 10.88503134 -15.37109841 10.89415692 -13.65039062 10.90234375 C-9.43345757 10.92438839 -5.21678875 10.95890994 -1 11 C-0.67 7.37 -0.34 3.74 0 0 Z " fill="#003901" transform="translate(384,288)"/>
<path d="M0 0 C16.5 0 33 0 50 0 C50 4.29 50 8.58 50 13 C33.5 13 17 13 0 13 C0 8.71 0 4.42 0 0 Z M1 2 C1 4.97 1 7.94 1 11 C16.84 11 32.68 11 49 11 C48.505 6.545 48.505 6.545 48 2 C32.49 2 16.98 2 1 2 Z " fill="#12C917" transform="translate(424,338)"/>
<path d="M0 0 C1.23556641 0.01740234 1.23556641 0.01740234 2.49609375 0.03515625 C3.32238281 0.04417969 4.14867187 0.05320312 5 0.0625 C5.63808594 0.07410156 6.27617187 0.08570313 6.93359375 0.09765625 C7.26359375 1.08765625 7.59359375 2.07765625 7.93359375 3.09765625 C8.59359375 3.42765625 9.25359375 3.75765625 9.93359375 4.09765625 C9.93359375 3.43765625 9.93359375 2.77765625 9.93359375 2.09765625 C11.58359375 1.43765625 13.23359375 0.77765625 14.93359375 0.09765625 C14.93359375 2.07765625 14.93359375 4.05765625 14.93359375 6.09765625 C15.92359375 6.09765625 16.91359375 6.09765625 17.93359375 6.09765625 C17.93359375 7.08765625 17.93359375 8.07765625 17.93359375 9.09765625 C17.27359375 9.09765625 16.61359375 9.09765625 15.93359375 9.09765625 C15.93359375 10.41765625 15.93359375 11.73765625 15.93359375 13.09765625 C14.61359375 13.42765625 13.29359375 13.75765625 11.93359375 14.09765625 C11.93359375 11.09765625 11.93359375 11.09765625 12.93359375 9.09765625 C10.98453125 9.28328125 10.98453125 9.28328125 8.99609375 9.47265625 C8.26519531 9.54226563 7.53429687 9.611875 6.78125 9.68359375 C6.17152344 9.82023437 5.56179688 9.956875 4.93359375 10.09765625 C4.60359375 10.75765625 4.27359375 11.41765625 3.93359375 12.09765625 C1.55859375 12.22265625 1.55859375 12.22265625 -1.06640625 12.09765625 C-3.06640625 10.09765625 -3.06640625 10.09765625 -3.296875 7.96875 C-3.27560547 6.76412109 -3.27560547 6.76412109 -3.25390625 5.53515625 C-3.24746094 4.72949219 -3.24101562 3.92382812 -3.234375 3.09375 C-3.00333979 0.34819204 -2.7582601 0.13035256 0 0 Z " fill="#023503" transform="translate(356.06640625,364.90234375)"/>
<path d="M0 0 C0.66 0.33 1.32 0.66 2 1 C2.08696177 4.93736123 2.14037835 8.87447628 2.1875 12.8125 C2.21263672 13.93205078 2.23777344 15.05160156 2.26367188 16.20507812 C2.27333984 17.27822266 2.28300781 18.35136719 2.29296875 19.45703125 C2.3086792 20.44678955 2.32438965 21.43654785 2.34057617 22.45629883 C2 25 2 25 0.63671875 26.84179688 C-2.70213707 29.20449556 -7.20099194 27.54271544 -11 27 C-10.505 32.445 -10.505 32.445 -10 38 C-14.32895648 40.16447824 -17.41273686 40.2751049 -22.09765625 40.23046875 C-22.88716171 40.23001053 -23.67666718 40.22955231 -24.49009705 40.2290802 C-26.16195171 40.22606224 -27.83380367 40.21818957 -29.50561523 40.20581055 C-32.02923891 40.18773819 -34.55249068 40.18529987 -37.07617188 40.18554688 C-45.43110114 40.16663239 -53.69366931 40.01251247 -62 39 C-62 38.67 -62 38.34 -62 38 C-45.83 38 -29.66 38 -13 38 C-13 33.71 -13 29.42 -13 25 C-8.71 25 -4.42 25 0 25 C0 16.75 0 8.5 0 0 Z " fill="#002600" transform="translate(399,313)"/>
<path d="M0 0 C9.08695652 -0.47826087 9.08695652 -0.47826087 12.625 1.375 C14.81631687 5.55842312 14.24614942 9.32316108 14 14 C9.38 14 4.76 14 0 14 C0 9.38 0 4.76 0 0 Z " fill="#09EE0E" transform="translate(150,371)"/>
<path d="M0 0 C2.10388569 -0.05402274 4.20816714 -0.09280256 6.3125 -0.125 C8.07013672 -0.15980469 8.07013672 -0.15980469 9.86328125 -0.1953125 C13 0 13 0 16 2 C16.33 1.34 16.66 0.68 17 0 C17.99 0 18.98 0 20 0 C20 0.66 20 1.32 20 2 C19.01 2.66 18.02 3.32 17 4 C16.67 4.99 16.34 5.98 16 7 C17.32 7.66 18.64 8.32 20 9 C17.3333581 10.33332095 15.83319697 9.67102033 13 9 C13 9.66 13 10.32 13 11 C11.04196493 11.05389087 9.08351091 11.09274217 7.125 11.125 C6.03445313 11.14820313 4.94390625 11.17140625 3.8203125 11.1953125 C1 11 1 11 -1 9 C-1.33870968 2.67741935 -1.33870968 2.67741935 0 0 Z " fill="#041A05" transform="translate(395,366)"/>
<path d="M0 0 C0.02694851 1.95825873 0.04637218 3.91662226 0.0625 5.875 C0.07410156 6.96554687 0.08570313 8.05609375 0.09765625 9.1796875 C0 12 0 12 -1 14 C-4.3 14 -7.6 14 -11 14 C-11 13.34 -11 12.68 -11 12 C-11.99 12.66 -12.98 13.32 -14 14 C-17.13671875 14.1953125 -17.13671875 14.1953125 -20.6875 14.125 C-21.86699219 14.10695313 -23.04648437 14.08890625 -24.26171875 14.0703125 C-25.16535156 14.04710937 -26.06898438 14.02390625 -27 14 C-27 13.67 -27 13.34 -27 13 C-23.04 13 -19.08 13 -15 13 C-15 12.34 -15 11.68 -15 11 C-12 10 -12 10 -10 10 C-10.66 9.67 -11.32 9.34 -12 9 C-11.6875 7.0625 -11.6875 7.0625 -11 5 C-10.01 4.67 -9.02 4.34 -8 4 C-8 3.34 -8 2.68 -8 2 C-8.99 2 -9.98 2 -11 2 C-11.33 2.99 -11.66 3.98 -12 5 C-13.65 3.68 -15.3 2.36 -17 1 C-14.73052303 0.63724344 -12.45935265 0.28506814 -10.1875 -0.0625 C-8.92292969 -0.25972656 -7.65835937 -0.45695312 -6.35546875 -0.66015625 C-3 -1 -3 -1 0 0 Z " fill="#031802" transform="translate(423,364)"/>
<path d="M0 0 C4.29 0 8.58 0 13 0 C13 4.29 13 8.58 13 13 C8.71 13 4.42 13 0 13 C0 8.71 0 4.42 0 0 Z " fill="#0ADB0E" transform="translate(247,338)"/>
<path d="M0 0 C4.29 0 8.58 0 13 0 C13 4.29 13 8.58 13 13 C8.71 13 4.42 13 0 13 C0 8.71 0 4.42 0 0 Z " fill="#03FA08" transform="translate(247,275)"/>
<path d="M0 0 C4.29 0 8.58 0 13 0 C13 4.29 13 8.58 13 13 C8.71 13 4.42 13 0 13 C0 8.71 0 4.42 0 0 Z " fill="#04FA08" transform="translate(298,275)"/>
<path d="M0 0 C7.59 0 15.18 0 23 0 C23.020625 3.609375 23.04125 7.21875 23.0625 10.9375 C23.071604 12.07695068 23.08070801 13.21640137 23.09008789 14.39038086 C23.09258545 15.28120361 23.09508301 16.17202637 23.09765625 17.08984375 C23.10551147 18.46450806 23.10551147 18.46450806 23.11352539 19.86694336 C23 22 23 22 22 23 C20.36527118 23.08700342 18.72685945 23.10701063 17.08984375 23.09765625 C16.199021 23.09515869 15.30819824 23.09266113 14.39038086 23.09008789 C13.25093018 23.08098389 12.11147949 23.07187988 10.9375 23.0625 C7.328125 23.041875 3.71875 23.02125 0 23 C0 15.41 0 7.82 0 0 Z M1 1 C1 5.95 1 10.9 1 16 C1.33 16 1.66 16 2 16 C2 12.04 2 8.08 2 4 C2.66 4 3.32 4 4 4 C4 8.62 4 13.24 4 18 C8.62 18 13.24 18 18 18 C18.04125 16.411875 18.0825 14.82375 18.125 13.1875 C18.14820313 12.29417969 18.17140625 11.40085937 18.1953125 10.48046875 C18.18285827 7.74597286 18.18285827 7.74597286 16 5 C18.31459868 6.81817001 18.95377187 7.75615543 19.51171875 10.69921875 C19.67447917 13.46614583 19.83723958 16.23307292 20 19 C13.73 19 7.46 19 1 19 C1 19.99 1 20.98 1 22 C7.93 22 14.86 22 22 22 C22 15.07 22 8.14 22 1 C15.07 1 8.14 1 1 1 Z " fill="#015402" transform="translate(146,367)"/>
<path d="M0 0 C2.97 0 5.94 0 9 0 C9 1.65 9 3.3 9 5 C9.66 5 10.32 5 11 5 C11 3.68 11 2.36 11 1 C12.32 1.33 13.64 1.66 15 2 C15 5.96 15 9.92 15 14 C13.68 14 12.36 14 11 14 C11 12.68 11 11.36 11 10 C10.34 10 9.68 10 9 10 C9 11.65 9 13.3 9 15 C7.68 15 6.36 15 5 15 C4.34 11.04 3.68 7.08 3 3 C1.03177114 4.96822886 1.33751619 8.34808709 1 11 C1.66 11 2.32 11 3 11 C3 11.66 3 12.32 3 13 C1.68 12.67 0.36 12.34 -1 12 C-1.02712066 10.56260487 -1.04645067 9.12506137 -1.0625 7.6875 C-1.07410156 6.88699219 -1.08570313 6.08648437 -1.09765625 5.26171875 C-1 3 -1 3 0 0 Z " fill="#033D03" transform="translate(377,363)"/>
<path d="M0 0 C1.65 0 3.3 0 5 0 C5 0.99 5 1.98 5 3 C5.66 3 6.32 3 7 3 C7.33 2.01 7.66 1.02 8 0 C8 0.99 8 1.98 8 3 C8.66 3 9.32 3 10 3 C10 2.34 10 1.68 10 1 C11.65 1 13.3 1 15 1 C15 1.66 15 2.32 15 3 C15.66 3 16.32 3 17 3 C17 2.01 17 1.02 17 0 C17.66 0 18.32 0 19 0 C19 1.32 19 2.64 19 4 C20.32 4 21.64 4 23 4 C23 5.32 23 6.64 23 8 C23.99 8 24.98 8 26 8 C26 12.66666667 26 17.33333333 26 22 C24.68 22 23.36 22 22 22 C22 18 22 18 23 16 C22.34 15.67 21.68 15.34 21 15 C21 12.03 21 9.06 21 6 C20.31373535 6.01047363 19.6274707 6.02094727 18.92041016 6.03173828 C15.82197711 6.07321874 12.72360239 6.09930069 9.625 6.125 C8.00464844 6.15013672 8.00464844 6.15013672 6.3515625 6.17578125 C5.3203125 6.18222656 4.2890625 6.18867188 3.2265625 6.1953125 C1.79691162 6.21102295 1.79691162 6.21102295 0.33837891 6.22705078 C-2 6 -2 6 -4 4 C-4.33 5.32 -4.66 6.64 -5 8 C-5 6.35 -5 4.7 -5 3 C-3.35 3 -1.7 3 0 3 C0 2.01 0 1.02 0 0 Z " fill="#18AA1B" transform="translate(148,361)"/>
<path d="M0 0 C8 0 8 0 10 1 C10 2.32 10 3.64 10 5 C7 7 7 7 4 7 C3.67 9.31 3.34 11.62 3 14 C3.99 14 4.98 14 6 14 C6 17.96 6 21.92 6 26 C6.99 26.33 7.98 26.66 9 27 C6.36 27 3.72 27 1 27 C1 26.34 1 25.68 1 25 C1.99 25 2.98 25 4 25 C4 23.02 4 21.04 4 19 C2.35 19 0.7 19 -1 19 C-0.67 12.73 -0.34 6.46 0 0 Z " fill="#043106" transform="translate(181,365)"/>
<path d="M0 0 C3.02894737 0.38370543 5.98540302 0.32134903 9.03515625 0.2578125 C9.03515625 0.5878125 9.03515625 0.9178125 9.03515625 1.2578125 C8.06578125 1.5465625 7.09640625 1.8353125 6.09765625 2.1328125 C2.92851422 2.89995932 2.92851422 2.89995932 2.03515625 5.2578125 C5.00515625 5.7528125 5.00515625 5.7528125 8.03515625 6.2578125 C8.03515625 7.2478125 8.03515625 8.2378125 8.03515625 9.2578125 C5.06515625 8.7628125 5.06515625 8.7628125 2.03515625 8.2578125 C1.70515625 8.9178125 1.37515625 9.5778125 1.03515625 10.2578125 C-1.80451606 10.2578125 -4.20220086 9.85514069 -6.96484375 9.2578125 C-6.96484375 8.5978125 -6.96484375 7.9378125 -6.96484375 7.2578125 C-4.98484375 7.2578125 -3.00484375 7.2578125 -0.96484375 7.2578125 C-0.96484375 5.9378125 -0.96484375 4.6178125 -0.96484375 3.2578125 C-1.62484375 3.2578125 -2.28484375 3.2578125 -2.96484375 3.2578125 C-2.96484375 2.5978125 -2.96484375 1.9378125 -2.96484375 1.2578125 C-4.61484375 1.2578125 -6.26484375 1.2578125 -7.96484375 1.2578125 C-7.96484375 1.9178125 -7.96484375 2.5778125 -7.96484375 3.2578125 C-8.62484375 3.2578125 -9.28484375 3.2578125 -9.96484375 3.2578125 C-9.94421875 4.0621875 -9.92359375 4.8665625 -9.90234375 5.6953125 C-9.96484375 8.2578125 -9.96484375 8.2578125 -10.96484375 9.2578125 C-13.29781808 9.29874187 -15.631896 9.30022973 -17.96484375 9.2578125 C-17.96484375 7.6078125 -17.96484375 5.9578125 -17.96484375 4.2578125 C-16.64484375 3.9278125 -15.32484375 3.5978125 -13.96484375 3.2578125 C-13.96484375 2.5978125 -13.96484375 1.9378125 -13.96484375 1.2578125 C-16.27484375 1.5878125 -18.58484375 1.9178125 -20.96484375 2.2578125 C-20.96484375 1.5978125 -20.96484375 0.9378125 -20.96484375 0.2578125 C-20.38476562 0.26941406 -19.8046875 0.28101563 -19.20703125 0.29296875 C-15.66923759 0.33383435 -12.39249901 0.33636143 -8.90234375 -0.3046875 C-5.78385188 -0.76914374 -3.1051395 -0.46666836 0 0 Z " fill="#031B03" transform="translate(235.96484375,364.7421875)"/>
<path d="M0 0 C12.54 0 25.08 0 38 0 C38 3.96 38 7.92 38 12 C25.46 12 12.92 12 0 12 C0 8.04 0 4.08 0 0 Z M1 1 C0.4452998 6.76887492 0.4452998 6.76887492 3 10 C5.55395487 10.26711404 7.86274374 10.34849029 10.4140625 10.29296875 C11.14370209 10.28872391 11.87334167 10.28447906 12.62509155 10.28010559 C14.95876759 10.26329353 17.2915844 10.22563868 19.625 10.1875 C21.20571671 10.17245634 22.78644693 10.15876738 24.3671875 10.14648438 C28.24512344 10.11338201 32.12241598 10.06158404 36 10 C36 7.03 36 4.06 36 1 C24.45 1 12.9 1 1 1 Z " fill="#12D518" transform="translate(348,301)"/>
<path d="M0 0 C1.4540625 0.0309375 1.4540625 0.0309375 2.9375 0.0625 C3.2675 1.0525 3.5975 2.0425 3.9375 3.0625 C2.2875 3.0625 0.6375 3.0625 -1.0625 3.0625 C-1.0625 4.7125 -1.0625 6.3625 -1.0625 8.0625 C2.4025 7.5675 2.4025 7.5675 5.9375 7.0625 C6.2675 5.4125 6.5975 3.7625 6.9375 2.0625 C7.5975 2.0625 8.2575 2.0625 8.9375 2.0625 C8.9375 1.4025 8.9375 0.7425 8.9375 0.0625 C10.5875 0.0625 12.2375 0.0625 13.9375 0.0625 C13.9375 0.7225 13.9375 1.3825 13.9375 2.0625 C14.5975 2.0625 15.2575 2.0625 15.9375 2.0625 C15.9375 3.3825 15.9375 4.7025 15.9375 6.0625 C13.9575 6.0625 11.9775 6.0625 9.9375 6.0625 C9.9375 6.7225 9.9375 7.3825 9.9375 8.0625 C11.5875 8.0625 13.2375 8.0625 14.9375 8.0625 C14.9375 9.0525 14.9375 10.0425 14.9375 11.0625 C8.9975 11.0625 3.0575 11.0625 -3.0625 11.0625 C-4.68901522 7.80946956 -4.17703156 4.67024398 -4.0625 1.0625 C-3.0625 0.0625 -3.0625 0.0625 0 0 Z " fill="#034B04" transform="translate(219.0625,365.9375)"/>
<path d="M0 0 C3.96 0 7.92 0 12 0 C12 3.96 12 7.92 12 12 C8.04 12 4.08 12 0 12 C0 8.04 0 4.08 0 0 Z " fill="#08ED0D" transform="translate(260,326)"/>
<path d="M0 0 C3.96 0 7.92 0 12 0 C12 3.96 12 7.92 12 12 C8.04 12 4.08 12 0 12 C0 8.04 0 4.08 0 0 Z " fill="#09EF0D" transform="translate(260,288)"/>
<path d="M0 0 C17.16 0 34.32 0 52 0 C52 0.33 52 0.66 52 1 C35.5 1 19 1 2 1 C2 5.29 2 9.58 2 14 C18.17 14 34.34 14 51 14 C51 16.97 51 19.94 51 23 C50.67 23 50.34 23 50 23 C49.505 19.535 49.505 19.535 49 16 C32.83 16 16.66 16 0 16 C0 10.72 0 5.44 0 0 Z " fill="#014502" transform="translate(334,262)"/>
<path d="M0 0 C2.97 0 5.94 0 9 0 C9 0.66 9 1.32 9 2 C9.66 2 10.32 2 11 2 C11 5.3 11 8.6 11 12 C7.04 12 3.08 12 -1 12 C-1.125 2.25 -1.125 2.25 0 0 Z " fill="#09450A" transform="translate(427,366)"/>
<path d="M0 0 C3.63 0 7.26 0 11 0 C11 3.96 11 7.92 11 12 C7.37 12 3.74 12 0 12 C0 8.04 0 4.08 0 0 Z " fill="#07F10C" transform="translate(286,326)"/>
<path d="M0 0 C3.63 0 7.26 0 11 0 C11 3.96 11 7.92 11 12 C7.37 12 3.74 12 0 12 C0 8.04 0 4.08 0 0 Z " fill="#08F30C" transform="translate(286,288)"/>
<path d="M0 0 C0.99 0 1.98 0 3 0 C4.18893275 4.60711442 4.33243079 9.26774995 4 14 C3.67 14.33 3.34 14.66 3 15 C2.92851801 16.35243917 2.91600546 17.70834367 2.9375 19.0625 C2.958125 20.361875 2.97875 21.66125 3 23 C4.32 23 5.64 23 7 23 C7 23.99 7 24.98 7 26 C7.763125 25.505 8.52625 25.01 9.3125 24.5 C12 23 12 23 15 23 C15 24.65 15 26.3 15 28 C11.6875 28.6875 11.6875 28.6875 8 29 C6.0625 27.6875 6.0625 27.6875 5 26 C5 25.34 5 24.68 5 24 C4.01 24 3.02 24 2 24 C2 22.68 2 21.36 2 20 C1.01 19.67 0.02 19.34 -1 19 C-1.02697137 16.39576408 -1.04682489 13.79180756 -1.0625 11.1875 C-1.07087891 10.44951172 -1.07925781 9.71152344 -1.08789062 8.95117188 C-1.10259828 5.70077932 -1.03531702 3.10595105 0 0 Z " fill="#023703" transform="translate(140,369)"/>
<path d="M0 0 C3.63 0 7.26 0 11 0 C11 3.63 11 7.26 11 11 C7.37 11 3.74 11 0 11 C0 7.37 0 3.74 0 0 Z " fill="#07F40B" transform="translate(299,339)"/>
<path d="M0 0 C4.29 0 8.58 0 13 0 C13 0.33 13 0.66 13 1 C9.7 1.33 6.4 1.66 3 2 C2.95101563 2.77085937 2.90203125 3.54171875 2.8515625 4.3359375 C2.77679688 5.33882813 2.70203125 6.34171875 2.625 7.375 C2.55539062 8.37273437 2.48578125 9.37046875 2.4140625 10.3984375 C2 13 2 13 0 15 C-3.68024605 15.27629475 -7.30494557 15.0859315 -11 15 C-11 21.6 -11 28.2 -11 35 C-7.7 35 -4.4 35 -1 35 C-0.67 35.66 -0.34 36.32 0 37 C-3.96 37 -7.92 37 -12 37 C-12 29.08 -12 21.16 -12 13 C-8.04 13 -4.08 13 0 13 C0 8.71 0 4.42 0 0 Z " fill="#001E00" transform="translate(298,288)"/>
<path d="M0 0 C3.0625 -0.25 3.0625 -0.25 6 0 C7 1 7 1 7.1328125 3.21484375 C7.13023437 4.11332031 7.12765625 5.01179688 7.125 5.9375 C7.12757813 6.83339844 7.13015625 7.72929687 7.1328125 8.65234375 C7 11 7 11 6 13 C3.29686424 13.21917317 1.56041618 13.32851983 -0.8125 11.9375 C-2.65150018 8.93702602 -2.30671285 6.43518387 -2 3 C-1.34 2.01 -0.68 1.02 0 0 Z " fill="#0A5D0A" transform="translate(218,380)"/>
<path d="M0 0 C7.26 0 14.52 0 22 0 C22 0.99 22 1.98 22 3 C24.475 3.495 24.475 3.495 27 4 C27 4.99 27 5.98 27 7 C27.99 7.33 28.98 7.66 30 8 C30 10.97 30 13.94 30 17 C27.2160817 15.60804085 27.02101003 13.84424221 26 11 C26.66 11 27.32 11 28 11 C28 10.34 28 9.68 28 9 C27.01 9 26.02 9 25 9 C25 7.68 25 6.36 25 5 C23.68 5 22.36 5 21 5 C21 3.68 21 2.36 21 1 C20.34 1 19.68 1 19 1 C19 1.99 19 2.98 19 4 C18.34 4 17.68 4 17 4 C17 3.34 17 2.68 17 2 C16.34 2 15.68 2 15 2 C14.67 2.66 14.34 3.32 14 4 C14 3.34 14 2.68 14 2 C13.34 2 12.68 2 12 2 C12 2.66 12 3.32 12 4 C10.35 4 8.7 4 7 4 C7 3.01 7 2.02 7 1 C6.34 1 5.68 1 5 1 C4.67 1.99 4.34 2.98 4 4 C4 3.01 4 2.02 4 1 C3.34 1 2.68 1 2 1 C2 1.99 2 2.98 2 4 C0.35 4 -1.3 4 -3 4 C-2.01 3.67 -1.02 3.34 0 3 C0 2.01 0 1.02 0 0 Z " fill="#023701" transform="translate(146,360)"/>
<path d="M0 0 C1.9453125 0.6953125 1.9453125 0.6953125 4 2 C4.6796875 4.2421875 4.6796875 4.2421875 4.875 6.875 C4.95492188 7.73867188 5.03484375 8.60234375 5.1171875 9.4921875 C4.99129646 12.18625572 4.37500266 13.7083289 3 16 C1.68 16 0.36 16 -1 16 C-0.67 14.68 -0.34 13.36 0 12 C-1.32 12 -2.64 12 -4 12 C-4 9.03 -4 6.06 -4 3 C-2.68 3 -1.36 3 0 3 C0 2.01 0 1.02 0 0 Z " fill="#043E05" transform="translate(345,362)"/>
<path d="M0 0 C1.65 0.33 3.3 0.66 5 1 C5.05395478 2.62463842 5.09277195 4.24978541 5.125 5.875 C5.14820313 6.77992188 5.17140625 7.68484375 5.1953125 8.6171875 C5 11 5 11 3 13 C-0.98709073 13.45136876 -3.34249664 13.3357464 -6.9375 11.5 C-9.91721513 7.88822409 -9.38243285 5.58919421 -9 1 C-8.01 1 -7.02 1 -6 1 C-6 3.64 -6 6.28 -6 9 C-3.69 9 -1.38 9 1 9 C0.67 6.03 0.34 3.06 0 0 Z " fill="#042403" transform="translate(461,365)"/>
<path d="M0 0 C2.475 0.99 2.475 0.99 5 2 C5 8.6 5 15.2 5 22 C3.35 21.67 1.7 21.34 0 21 C0 14.07 0 7.14 0 0 Z " fill="#01FE05" transform="translate(278,302)"/>
<path d="M0 0 C3.625 0.375 3.625 0.375 7 1 C7.05399736 2.45792884 7.09279177 3.91642712 7.125 5.375 C7.14820313 6.18710937 7.17140625 6.99921875 7.1953125 7.8359375 C7 10 7 10 5 12 C1.375 11.625 1.375 11.625 -2 11 C-2.05399736 9.54207116 -2.09279177 8.08357288 -2.125 6.625 C-2.15980469 5.40683594 -2.15980469 5.40683594 -2.1953125 4.1640625 C-2 2 -2 2 0 0 Z " fill="#137A14" transform="translate(195,380)"/>
<path d="M0 0 C0.86625 0 1.7325 0 2.625 0 C5 0 5 0 10 1 C10 4.96 10 8.92 10 13 C8.35 13 6.7 13 5 13 C5 12.34 5 11.68 5 11 C5.66 11 6.32 11 7 11 C7 10.01 7 9.02 7 8 C6.01 8 5.02 8 4 8 C4 6.02 4 4.04 4 2 C2.35 2.66 0.7 3.32 -1 4 C-1 4.66 -1 5.32 -1 6 C-1.99 5.67 -2.98 5.34 -4 5 C-4 4.01 -4 3.02 -4 2 C-6.97 2 -9.94 2 -13 2 C-13 1.34 -13 0.68 -13 0 C-8.34025896 -1.02286998 -4.6861361 -0.76682227 0 0 Z " fill="#031B04" transform="translate(367,363)"/>
<path d="M0 0 C1.4370809 -0.05422947 2.87475462 -0.09289723 4.3125 -0.125 C5.11300781 -0.14820313 5.91351563 -0.17140625 6.73828125 -0.1953125 C9 0 9 0 12 2 C12.40843923 4.71203652 12.13336867 7.2437142 12 10 C11.01 10 10.02 10 9 10 C9 7.36 9 4.72 9 2 C8.34 2 7.68 2 7 2 C7 4.64 7 7.28 7 10 C6.01 10 5.02 10 4 10 C4 7.36 4 4.72 4 2 C3.34 2 2.68 2 2 2 C2 4.64 2 7.28 2 10 C1.01 10 0.02 10 -1 10 C-1.125 2.25 -1.125 2.25 0 0 Z " fill="#0F7411" transform="translate(290,382)"/>
<path d="M0 0 C3.625 0.375 3.625 0.375 7 1 C7.1953125 7.0546875 7.1953125 7.0546875 7 9 C5 11 5 11 1.9375 11.1875 C-1 11 -1 11 -2 10 C-2.27314815 4.26388889 -2.27314815 4.26388889 -2 2 C-1.34 1.34 -0.68 0.68 0 0 Z " fill="#1A8F1B" transform="translate(320,365)"/>
<path d="M0 0 C3 0.125 3 0.125 4 1.125 C4.09823996 2.60148876 4.12973519 4.08275417 4.125 5.5625 C4.12757813 6.36558594 4.13015625 7.16867187 4.1328125 7.99609375 C4 10.125 4 10.125 3 12.125 C0.625 12.25 0.625 12.25 -2 12.125 C-4 10.125 -4 10.125 -4.23046875 7.99609375 C-4.20919922 6.79146484 -4.20919922 6.79146484 -4.1875 5.5625 C-4.18105469 4.75683594 -4.17460937 3.95117188 -4.16796875 3.12109375 C-3.89319798 -0.1442054 -3.35054004 0.13960583 0 0 Z " fill="#0E7210" transform="translate(357,364.875)"/>
<path d="M0 0 C7.75 -0.125 7.75 -0.125 10 1 C10 3.97 10 6.94 10 10 C7.29120665 11.35439668 4.99066732 11.06501451 2 11 C2 7.7 2 4.4 2 1 C1.34 0.67 0.68 0.34 0 0 Z " fill="#20A822" transform="translate(280,365)"/>
<path d="M0 0 C2.5625 0.25 2.5625 0.25 5 1 C5.33 1.66 5.66 2.32 6 3 C3.03 2.505 3.03 2.505 0 2 C0 3.98 0 5.96 0 8 C3.63 8 7.26 8 11 8 C10.67 6.02 10.34 4.04 10 2 C10.99 2 11.98 2 13 2 C13 3.98 13 5.96 13 8 C13.66 8 14.32 8 15 8 C15.33 8.99 15.66 9.98 16 11 C13.37472811 11.05382106 10.75055287 11.09358313 8.125 11.125 C7.37863281 11.14175781 6.63226563 11.15851563 5.86328125 11.17578125 C3.90805539 11.1933959 1.95257979 11.10320189 0 11 C-2 9 -2 9 -2.25 5.5 C-2 2 -2 2 0 0 Z " fill="#09410B" transform="translate(272,382)"/>
<path d="M0 0 C4.29 0 8.58 0 13 0 C13 0.33 13 0.66 13 1 C9.37 1 5.74 1 2 1 C2 3.97 2 6.94 2 10 C2.78246094 9.98839844 3.56492187 9.97679687 4.37109375 9.96484375 C5.38300781 9.95582031 6.39492188 9.94679688 7.4375 9.9375 C8.44683594 9.92589844 9.45617187 9.91429687 10.49609375 9.90234375 C13 10 13 10 14 11 C14.08748207 12.92667507 14.10697334 14.85651861 14.09765625 16.78515625 C14.09443359 17.95498047 14.09121094 19.12480469 14.08789062 20.33007812 C14.07951172 21.56177734 14.07113281 22.79347656 14.0625 24.0625 C14.05798828 25.29806641 14.05347656 26.53363281 14.04882812 27.80664062 C14.03699608 30.87114117 14.02051173 33.93554721 14 37 C13.67 37 13.34 37 13 37 C13 28.75 13 20.5 13 12 C8.71 12 4.42 12 0 12 C0 8.04 0 4.08 0 0 Z " fill="#003100" transform="translate(474,301)"/>
<path d="M0 0 C0.33 0 0.66 0 1 0 C1 3.96 1 7.92 1 12 C-11.21 12 -23.42 12 -36 12 C-36 16.62 -36 21.24 -36 26 C-36.66 26 -37.32 26 -38 26 C-38 22.04 -38 18.08 -38 14 C-38.66 13.67 -39.32 13.34 -40 13 C-36.21157527 10.47438352 -33.21466671 10.74608427 -28.83203125 10.8046875 C-27.63981209 10.80893234 -27.63981209 10.80893234 -26.42350769 10.81326294 C-23.88635162 10.82445295 -21.34954928 10.84955509 -18.8125 10.875 C-17.09180198 10.88503134 -15.37109841 10.89415692 -13.65039062 10.90234375 C-9.43345757 10.92438839 -5.21678875 10.95890994 -1 11 C-0.67 7.37 -0.34 3.74 0 0 Z " fill="#002000" transform="translate(384,288)"/>
<path d="M0 0 C2.875 -0.125 2.875 -0.125 6 0 C8 2 8 2 8.125 5.625 C8.08375 6.73875 8.0425 7.8525 8 9 C5.29120665 10.35439668 2.99066732 10.06501451 0 10 C-1.36952673 7.26094655 -1.12621361 5.02912668 -1 2 C-0.67 1.34 -0.34 0.68 0 0 Z " fill="#188B1D" transform="translate(204,366)"/>
<path d="M0 0 C1.66611905 -0.042721 3.33382885 -0.04063832 5 0 C6 1 6 1 6.09765625 3.28515625 C6.08605469 4.20167969 6.07445312 5.11820312 6.0625 6.0625 C6.05347656 6.98160156 6.04445313 7.90070313 6.03515625 8.84765625 C6.02355469 9.55792969 6.01195312 10.26820313 6 11 C3.69 11 1.38 11 -1 11 C-1 10.34 -1 9.68 -1 9 C-1.66 9 -2.32 9 -3 9 C-3 7.68 -3 6.36 -3 5 C-2.34 4.67 -1.68 4.34 -1 4 C-0.34786708 1.97536745 -0.34786708 1.97536745 0 0 Z " fill="#075E08" transform="translate(443,366)"/>
<path d="M0 0 C1.79244141 0.01740234 1.79244141 0.01740234 3.62109375 0.03515625 C5.41740234 0.04869141 5.41740234 0.04869141 7.25 0.0625 C8.17683594 0.07410156 9.10367187 0.08570313 10.05859375 0.09765625 C10.38859375 0.75765625 10.71859375 1.41765625 11.05859375 2.09765625 C6.76859375 2.09765625 2.47859375 2.09765625 -1.94140625 2.09765625 C-1.94140625 6.38765625 -1.94140625 10.67765625 -1.94140625 15.09765625 C2.34859375 15.09765625 6.63859375 15.09765625 11.05859375 15.09765625 C11.05859375 19.38765625 11.05859375 23.67765625 11.05859375 28.09765625 C10.72859375 28.09765625 10.39859375 28.09765625 10.05859375 28.09765625 C10.05859375 24.13765625 10.05859375 20.17765625 10.05859375 16.09765625 C8.66833984 16.11505859 8.66833984 16.11505859 7.25 16.1328125 C6.05246094 16.14183594 4.85492188 16.15085937 3.62109375 16.16015625 C2.42613281 16.17175781 1.23117188 16.18335938 0 16.1953125 C-2.94140625 16.09765625 -2.94140625 16.09765625 -3.94140625 15.09765625 C-4.04049927 12.7660557 -4.07111129 10.43135683 -4.06640625 8.09765625 C-4.06898438 6.81890625 -4.0715625 5.54015625 -4.07421875 4.22265625 C-3.90025921 0.12949068 -3.90025921 0.12949068 0 0 Z " fill="#002300" transform="translate(248.94140625,272.90234375)"/>
<path d="M0 0 C3.125 -0.1875 3.125 -0.1875 6 0 C6 0.99 6 1.98 6 3 C4.7934375 2.9690625 4.7934375 2.9690625 3.5625 2.9375 C1.06645115 2.70366379 1.06645115 2.70366379 0 4 C-0.07148199 5.35243917 -0.08399454 6.70834367 -0.0625 8.0625 C-0.041875 9.361875 -0.02125 10.66125 0 12 C1.65 12.33 3.3 12.66 5 13 C3.68 13.33 2.36 13.66 1 14 C0.67 18.29 0.34 22.58 0 27 C0.66 27 1.32 27 2 27 C2 27.66 2 28.32 2 29 C0.35 28.67 -1.3 28.34 -3 28 C-3 24.7 -3 21.4 -3 18 C-2.34 18 -1.68 18 -1 18 C-1.33 17.01 -1.66 16.02 -2 15 C-2.1192902 13.00258264 -2.17523935 11.00093876 -2.1875 9 C-2.20167969 7.948125 -2.21585937 6.89625 -2.23046875 5.8125 C-2 3 -2 3 0 0 Z " fill="#0F5710" transform="translate(319,363)"/>
<path d="M0 0 C1.98 0 3.96 0 6 0 C6 0.66 6 1.32 6 2 C6.66 2 7.32 2 8 2 C8 3.32 8 4.64 8 6 C6.02 6 4.04 6 2 6 C2 6.66 2 7.32 2 8 C3.98 8 5.96 8 8 8 C8 8.99 8 9.98 8 11 C4.625 11.125 4.625 11.125 1 11 C-1 9 -1 9 -1.1875 5.5 C-1 2 -1 2 0 0 Z " fill="#09810D" transform="translate(395,366)"/>
<path d="M0 0 C0.33 0 0.66 0 1 0 C1 3.96 1 7.92 1 12 C4.96 12 8.92 12 13 12 C13 8.04 13 4.08 13 0 C13.33 0 13.66 0 14 0 C14 3.96 14 7.92 14 12 C17.63 12 21.26 12 25 12 C25 8.04 25 4.08 25 0 C25.33 0 25.66 0 26 0 C26 4.29 26 8.58 26 13 C21.91692924 13.19688398 17.83383137 13.38272264 13.75 13.5625 C12.61046875 13.61857422 11.4709375 13.67464844 10.296875 13.73242188 C2.77305498 14.05303921 -4.51370842 13.81843977 -12 13 C-12 12.67 -12 12.34 -12 12 C-8.04 12 -4.08 12 0 12 C0 8.04 0 4.08 0 0 Z " fill="#0D8F10" transform="translate(272,288)"/>
<path d="M0 0 C1.98 0 3.96 0 6 0 C6 4.29 6 8.58 6 13 C3.69 13 1.38 13 -1 13 C-0.67 12.01 -0.34 11.02 0 10 C0.06802967 8.27204648 0.08495645 6.54164635 0.0625 4.8125 C0.05347656 3.91144531 0.04445313 3.01039063 0.03515625 2.08203125 C0.02355469 1.39496094 0.01195312 0.70789063 0 0 Z " fill="#044805" transform="translate(271,364)"/>
<path d="M0 0 C4.29 0 8.58 0 13 0 C13 4.29 13 8.58 13 13 C8.71 13 4.42 13 0 13 C0 8.71 0 4.42 0 0 Z M2 2 C0.8422494 5.47325181 0.93133348 8.36067448 1 12 C4.3 12 7.6 12 11 12 C11 8.7 11 5.4 11 2 C8.03 2 5.06 2 2 2 Z " fill="#12B317" transform="translate(298,275)"/>
<path d="M0 0 C4.29 0 8.58 0 13 0 C13 4.29 13 8.58 13 13 C8.71 13 4.42 13 0 13 C0 8.71 0 4.42 0 0 Z M2 2 C2 5.3 2 8.6 2 12 C5.3 12 8.6 12 12 12 C12.11320856 6.91696314 12.11320856 6.91696314 11 2 C8.03 2 5.06 2 2 2 Z " fill="#14B618" transform="translate(247,275)"/>
<path d="M0 0 C0.33 0.99 0.66 1.98 1 3 C5.95 3 10.9 3 16 3 C16 3.66 16 4.32 16 5 C14.02 5.33 12.04 5.66 10 6 C10 9.3 10 12.6 10 16 C11.98 16 13.96 16 16 16 C16 16.33 16 16.66 16 17 C13.69 17 11.38 17 9 17 C8.67 13.7 8.34 10.4 8 7 C7.01 7.33 6.02 7.66 5 8 C5 6.68 5 5.36 5 4 C3.02 4 1.04 4 -1 4 C-1.33 4.99 -1.66 5.98 -2 7 C-2.6875 5.1875 -2.6875 5.1875 -3 3 C-1.5625 1.25 -1.5625 1.25 0 0 Z " fill="#053A06" transform="translate(272,360)"/>
<path d="M0 0 C2 0 2 0 4.125 1.75 C6 4 6 4 6 8 C6.66 8.33 7.32 8.66 8 9 C5.16928008 12.61703101 4.21282508 12.13119582 -1 13 C-0.67 8.71 -0.34 4.42 0 0 Z " fill="#032404" transform="translate(325,380)"/>
<path d="M0 0 C1.093125 0.185625 2.18625 0.37125 3.3125 0.5625 C6.93624133 1.2578068 6.93624133 1.2578068 10 0 C10 1.32 10 2.64 10 4 C10.66 4 11.32 4 12 4 C12.125 11.625 12.125 11.625 11 15 C10.34 15 9.68 15 9 15 C8.67 11.7 8.34 8.4 8 5 C6.35 4.67 4.7 4.34 3 4 C2.67 5.65 2.34 7.3 2 9 C1.34 8.67 0.68 8.34 0 8 C0 5.36 0 2.72 0 0 Z " fill="#021803" transform="translate(440,362)"/>
<path d="M0 0 C4.29 0 8.58 0 13 0 C12.67 0.66 12.34 1.32 12 2 C8.7 2 5.4 2 2 2 C2 4.64 2 7.28 2 10 C5.63 10 9.26 10 13 10 C13 10.66 13 11.32 13 12 C8.71 12 4.42 12 0 12 C0 8.04 0 4.08 0 0 Z " fill="#002A01" transform="translate(386,301)"/>
<path d="M0 0 C2.97 0 5.94 0 9 0 C10.60725635 3.21451269 10.05748185 6.43612536 10 10 C9.34 10 8.68 10 8 10 C8 7.69 8 5.38 8 3 C6.35 3 4.7 3 3 3 C3.18129815 6.43793339 3.18129815 6.43793339 4 10 C5.93597032 11.51294288 5.93597032 11.51294288 8 12 C5.69 12 3.38 12 1 12 C0.67 8.04 0.34 4.08 0 0 Z " fill="#19901C" transform="translate(245,380)"/>
<path d="M0 0 C0.99 0.33 1.98 0.66 3 1 C3.02686553 2.97909398 3.04633375 4.95828971 3.0625 6.9375 C3.07410156 8.03964844 3.08570313 9.14179688 3.09765625 10.27734375 C3 13 3 13 2 14 C0.35 14 -1.3 14 -3 14 C-3 10.7 -3 7.4 -3 4 C-2.34 3.67 -1.68 3.34 -1 3 C-0.67 2.01 -0.34 1.02 0 0 Z " fill="#074609" transform="translate(420,363)"/>
<path d="M0 0 C1.98 0 3.96 0 6 0 C5.88541307 1.43836751 5.75790884 2.87570966 5.625 4.3125 C5.55539063 5.11300781 5.48578125 5.91351563 5.4140625 6.73828125 C5 9 5 9 3 12 C1.68 11.67 0.36 11.34 -1 11 C-1.0270043 9.54176788 -1.04639787 8.08339325 -1.0625 6.625 C-1.07410156 5.81289063 -1.08570313 5.00078125 -1.09765625 4.1640625 C-1 2 -1 2 0 0 Z " fill="#0F4B11" transform="translate(239,380)"/>
<path d="M0 0 C1.65 0 3.3 0 5 0 C5 0.66 5 1.32 5 2 C5.66 2 6.32 2 7 2 C7 3.32 7 4.64 7 6 C5.02 6 3.04 6 1 6 C1 6.66 1 7.32 1 8 C2.65 8 4.3 8 6 8 C6.33 8.66 6.66 9.32 7 10 C4.66705225 10.04241723 2.33297433 10.04092937 0 10 C-1 9 -1 9 -1.125 5.5625 C-1 2 -1 2 0 0 Z " fill="#199A1A" transform="translate(228,366)"/>
<path d="M0 0 C6.75 -0.125 6.75 -0.125 9 1 C9 2.32 9 3.64 9 5 C6.69 5.33 4.38 5.66 2 6 C2 7.65 2 9.3 2 11 C1.34 11 0.68 11 0 11 C0 7.37 0 3.74 0 0 Z " fill="#17891A" transform="translate(182,365)"/>
<path d="M0 0 C4.29 0 8.58 0 13 0 C13.33 3.3 13.66 6.6 14 10 C13.01 10.495 13.01 10.495 12 11 C12 8.36 12 5.72 12 3 C11.34 3 10.68 3 10 3 C10 2.34 10 1.68 10 1 C7.03 1 4.06 1 1 1 C0.67 4.3 0.34 7.6 0 11 C-1.32 11.33 -2.64 11.66 -4 12 C-4 9.03 -4 6.06 -4 3 C-3.01 2.67 -2.02 2.34 -1 2 C-0.67 1.34 -0.34 0.68 0 0 Z " fill="#011F01" transform="translate(426,365)"/>
<path d="M0 0 C1.65 0 3.3 0 5 0 C5.66 1.65 6.32 3.3 7 5 C5.68 6.32 4.36 7.64 3 9 C3.99 9.33 4.98 9.66 6 10 C6 10.66 6 11.32 6 12 C3.36 12 0.72 12 -2 12 C-1.67 11.01 -1.34 10.02 -1 9 C-0.34 9 0.32 9 1 9 C1.309375 8.38125 1.61875 7.7625 1.9375 7.125 C2.625 5.75 3.3125 4.375 4 3 C2.02 3.33 0.04 3.66 -2 4 C-1.34 2.68 -0.68 1.36 0 0 Z " fill="#16871B" transform="translate(207,380)"/>
<path d="M0 0 C4.29 0 8.58 0 13 0 C13 0.66 13 1.32 13 2 C9.37 2 5.74 2 2 2 C2 5.96 2 9.92 2 14 C1.34 14 0.68 14 0 14 C0 9.38 0 4.76 0 0 Z M-8 14 C-5.36 14 -2.72 14 0 14 C0 14.33 0 14.66 0 15 C-2.64 15 -5.28 15 -8 15 C-8 14.67 -8 14.34 -8 14 Z " fill="#003301" transform="translate(474,338)"/>
<path d="M0 0 C0.66 0 1.32 0 2 0 C2 3.3 2 6.6 2 10 C2.99 10 3.98 10 5 10 C5 8.02 5 6.04 5 4 C6.32 3.67 7.64 3.34 9 3 C9 4.65 9 6.3 9 8 C8.34 8 7.68 8 7 8 C6.34 9.32 5.68 10.64 5 12 C3.68 12 2.36 12 1 12 C0.67 10.35 0.34 8.7 0 7 C-1.98 7 -3.96 7 -6 7 C-2.25 4 -2.25 4 0 4 C0 2.68 0 1.36 0 0 Z " fill="#011702" transform="translate(191,366)"/>
<path d="M0 0 C1.98 0 3.96 0 6 0 C6.33 1.65 6.66 3.3 7 5 C5.02 5 3.04 5 1 5 C1 5.99 1 6.98 1 8 C2.98 8 4.96 8 7 8 C7 8.66 7 9.32 7 10 C1.25 10.125 1.25 10.125 -1 9 C-1.125 2.25 -1.125 2.25 0 0 Z " fill="#19991D" transform="translate(259,382)"/>
<path d="M0 0 C2.475 0.495 2.475 0.495 5 1 C5 3.97 5 6.94 5 10 C6.65 10.33 8.3 10.66 10 11 C10 10.34 10 9.68 10 9 C9.34 9 8.68 9 8 9 C8 6.36 8 3.72 8 1 C8.66 1 9.32 1 10 1 C10.33 4.63 10.66 8.26 11 12 C8.36 12 5.72 12 3 12 C3 9.03 3 6.06 3 3 C2.34 3 1.68 3 1 3 C0.67 2.01 0.34 1.02 0 0 Z " fill="#011C02" transform="translate(311,381)"/>
<path d="M0 0 C1.65 0 3.3 0 5 0 C5 1.65 5 3.3 5 5 C5.66 5 6.32 5 7 5 C6.67 6.65 6.34 8.3 6 10 C0.25 10.125 0.25 10.125 -2 9 C-2 8.34 -2 7.68 -2 7 C0.97 7.495 0.97 7.495 4 8 C4 7.01 4 6.02 4 5 C1.03 4.505 1.03 4.505 -2 4 C-1.34 2.68 -0.68 1.36 0 0 Z " fill="#1A881B" transform="translate(240,366)"/>
<path d="M0 0 C2.475 0.99 2.475 0.99 5 2 C5 2.66 5 3.32 5 4 C7.97 4.495 7.97 4.495 11 5 C11 5.99 11 6.98 11 8 C8.03 7.505 8.03 7.505 5 7 C4.67 7.66 4.34 8.32 4 9 C1.16032769 9 -1.23735711 8.59732819 -4 8 C-4 7.34 -4 6.68 -4 6 C-2.02 6 -0.04 6 2 6 C2 4.68 2 3.36 2 2 C1.34 2 0.68 2 0 2 C0 1.34 0 0.68 0 0 Z " fill="#032C03" transform="translate(233,366)"/>
<path d="M0 0 C2.31 0 4.62 0 7 0 C7 0.66 7 1.32 7 2 C7.99 2 8.98 2 10 2 C10 3.32 10 4.64 10 6 C6.7 6 3.4 6 0 6 C0 4.02 0 2.04 0 0 Z " fill="#031E04" transform="translate(272,384)"/>
<path d="M0 0 C1.32 0 2.64 0 4 0 C4 3.3 4 6.6 4 10 C3.67 10 3.34 10 3 10 C3 8.02 3 6.04 3 4 C2.01 4.495 2.01 4.495 1 5 C1 6.65 1 8.3 1 10 C0.67 8.68 0.34 7.36 0 6 C-0.99 6 -1.98 6 -3 6 C-3 5.34 -3 4.68 -3 4 C-7.61507774 2.95785309 -7.61507774 2.95785309 -12 4 C-11.67 3.01 -11.34 2.02 -11 1 C-3.57142857 0.71428571 -3.57142857 0.71428571 0 3 C0 2.01 0 1.02 0 0 Z " fill="#033703" transform="translate(282,380)"/>
<path d="M0 0 C0.66 1.32 1.32 2.64 2 4 C7.445 3.505 7.445 3.505 13 3 C13 3.66 13 4.32 13 5 C12.38125 5.28875 11.7625 5.5775 11.125 5.875 C8.86674235 6.93720042 8.86674235 6.93720042 7 9 C7 8.34 7 7.68 7 7 C5.68 7 4.36 7 3 7 C2.67 10.63 2.34 14.26 2 18 C1.67 18 1.34 18 1 18 C1.01160156 17.21753906 1.02320313 16.43507813 1.03515625 15.62890625 C1.04417969 14.61699219 1.05320313 13.60507812 1.0625 12.5625 C1.07410156 11.55316406 1.08570313 10.54382813 1.09765625 9.50390625 C1.28612676 7.05978933 1.28612676 7.05978933 0 6 C-0.04080783 4.00041636 -0.04254356 1.99954746 0 0 Z " fill="#031203" transform="translate(236,373)"/>
<path d="M0 0 C0.66 0.33 1.32 0.66 2 1 C1.67 1.99 1.34 2.98 1 4 C1.66 4 2.32 4 3 4 C3 6.31 3 8.62 3 11 C0.69 11 -1.62 11 -4 11 C-4 8.36 -4 5.72 -4 3 C-4.99 2.67 -5.98 2.34 -7 2 C-5.68 2 -4.36 2 -3 2 C-2.67 3.32 -2.34 4.64 -2 6 C-1.34 4.02 -0.68 2.04 0 0 Z " fill="#031403" transform="translate(459,363)"/>
<path d="M0 0 C2.97 0 5.94 0 9 0 C9 0.66 9 1.32 9 2 C8.01 2 7.02 2 6 2 C6 4.64 6 7.28 6 10 C5.34 10 4.68 10 4 10 C4 7.36 4 4.72 4 2 C3.01 2 2.02 2 1 2 C1 4.64 1 7.28 1 10 C0.34 10 -0.32 10 -1 10 C-1.125 2.25 -1.125 2.25 0 0 Z " fill="#1D8B1F" transform="translate(427,366)"/>
<path d="M0 0 C0.33 0 0.66 0 1 0 C1 1.65 1 3.3 1 5 C0.01 5 -0.98 5 -2 5 C-2.33 11.27 -2.66 17.54 -3 24 C-4.65 24 -6.3 24 -8 24 C-8 23.34 -8 22.68 -8 22 C-6.68 22 -5.36 22 -4 22 C-4.16749756 21.42475586 -4.33499512 20.84951172 -4.50756836 20.25683594 C-5.00349842 17.98396661 -5.03653641 16.20253397 -4.87890625 13.890625 C-4.83056641 13.13652344 -4.78222656 12.38242187 -4.73242188 11.60546875 C-4.67634766 10.82816406 -4.62027344 10.05085938 -4.5625 9.25 C-4.51029297 8.45722656 -4.45808594 7.66445313 -4.40429688 6.84765625 C-4.27510676 4.89806003 -4.13830035 2.94897114 -4 1 C-3.34 1 -2.68 1 -2 1 C-2 1.99 -2 2.98 -2 4 C-1.34 4 -0.68 4 0 4 C0 2.68 0 1.36 0 0 Z " fill="#021802" transform="translate(142,364)"/>
<path d="M0 0 C1.65 0 3.3 0 5 0 C6.60725635 3.21451269 6.05748185 6.43612536 6 10 C4.02 10 2.04 10 0 10 C1.32 9.67 2.64 9.34 4 9 C4 8.01 4 7.02 4 6 C2.68 6 1.36 6 0 6 C0 6.66 0 7.32 0 8 C-0.66 8 -1.32 8 -2 8 C-2 7.01 -2 6.02 -2 5 C-1.34 5 -0.68 5 0 5 C0 3.35 0 1.7 0 0 Z " fill="#179C1A" transform="translate(307,382)"/>
<path d="M0 0 C1.99954746 -0.04254356 4.00041636 -0.04080783 6 0 C7 1 7 1 7.09765625 3.06640625 C7.08605469 3.89011719 7.07445312 4.71382813 7.0625 5.5625 C7.05347656 6.38878906 7.04445312 7.21507812 7.03515625 8.06640625 C7.02355469 8.70449219 7.01195312 9.34257812 7 10 C6.34 10 5.68 10 5 10 C5 9.01 5 8.02 5 7 C3.68 6.67 2.36 6.34 1 6 C2.32 5.67 3.64 5.34 5 5 C5 4.34 5 3.68 5 3 C3.68 3 2.36 3 1 3 C1 3.66 1 4.32 1 5 C0.01 5 -0.98 5 -2 5 C-1.34 3.35 -0.68 1.7 0 0 Z " fill="#117313" transform="translate(218,380)"/>
<path d="M0 0 C0.99 0 1.98 0 3 0 C4.20568053 4.67201205 4.09382426 9.21496292 4 14 C3.01 13.67 2.02 13.34 1 13 C0.66666667 11.33333333 0.33333333 9.66666667 0 8 C-0.20625 7.13375 -0.4125 6.2675 -0.625 5.375 C-1 3 -1 3 0 0 Z " fill="#0C700E" transform="translate(140,369)"/>
<path d="M0 0 C0.33 0.66 0.66 1.32 1 2 C1.99 2 2.98 2 4 2 C4.33 4.97 4.66 7.94 5 11 C6.98 11.66 8.96 12.32 11 13 C11 13.33 11 13.66 11 14 C5.375 14.25 5.375 14.25 2 12 C1.67 12.66 1.34 13.32 1 14 C0.34 13.67 -0.32 13.34 -1 13 C-0.835 11.96875 -0.67 10.9375 -0.5 9.875 C-0.06678152 6.51755674 0.08235703 3.37663843 0 0 Z " fill="#011E01" transform="translate(349,364)"/>
<path d="M0 0 C0.99 0 1.98 0 3 0 C3.66 0.66 4.32 1.32 5 2 C6.32 1.34 7.64 0.68 9 0 C8.690625 0.598125 8.38125 1.19625 8.0625 1.8125 C6.89790296 4.08956772 6.89790296 4.08956772 6 7 C6.99 7.33 7.98 7.66 9 8 C9 8.66 9 9.32 9 10 C8.2575 9.814375 7.515 9.62875 6.75 9.4375 C4.05009037 9.00796892 2.55368923 9.14877026 0 10 C0 9.34 0 8.68 0 8 C0.66 7.67 1.32 7.34 2 7 C2 5.68 2 4.36 2 3 C1.34 2.67 0.68 2.34 0 2 C0 1.34 0 0.68 0 0 Z " fill="#187318" transform="translate(329,366)"/>
<path d="M0 0 C0.33 0 0.66 0 1 0 C1 1.65 1 3.3 1 5 C2.65 5 4.3 5 6 5 C6 3.35 6 1.7 6 0 C6.66 0 7.32 0 8 0 C8 3.63 8 7.26 8 11 C7.34 11 6.68 11 6 11 C6 9.68 6 8.36 6 7 C4.68 7 3.36 7 2 7 C2 8.32 2 9.64 2 11 C1.34 11 0.68 11 0 11 C0 7.37 0 3.74 0 0 Z " fill="#1E9D21" transform="translate(383,365)"/>
<path d="M0 0 C0.66 0 1.32 0 2 0 C2 3.63 2 7.26 2 11 C5.3 11 8.6 11 12 11 C12 11.66 12 12.32 12 13 C8.04 13 4.08 13 0 13 C0 8.71 0 4.42 0 0 Z " fill="#002601" transform="translate(386,262)"/>
<path d="M0 0 C0.33 0 0.66 0 1 0 C1.33 7.59 1.66 15.18 2 23 C3.32 23.33 4.64 23.66 6 24 C5.34 25.32 4.68 26.64 4 28 C3.34 28 2.68 28 2 28 C2 27.01 2 26.02 2 25 C0.68 25 -0.64 25 -2 25 C-1.84152588 24.44280273 -1.68305176 23.88560547 -1.51977539 23.31152344 C-0.96429853 20.84122989 -0.791532 18.54446396 -0.68359375 16.015625 C-0.64169922 15.08105469 -0.59980469 14.14648438 -0.55664062 13.18359375 C-0.51732422 12.21550781 -0.47800781 11.24742187 -0.4375 10.25 C-0.39431641 9.26644531 -0.35113281 8.28289062 -0.30664062 7.26953125 C-0.20077948 4.84648725 -0.09869829 2.4233446 0 0 Z " fill="#0BAF0F" transform="translate(145,367)"/>
<path d="M0 0 C2.00720923 0.28674418 4.0085944 0.61866701 6 1 C6 3.64 6 6.28 6 9 C5.01 9 4.02 9 3 9 C3 6.36 3 3.72 3 1 C2.34 1 1.68 1 1 1 C1 3.64 1 6.28 1 9 C0.34 9 -0.32 9 -1 9 C-1.09765625 2.84765625 -1.09765625 2.84765625 -1 1 C-0.67 0.67 -0.34 0.34 0 0 Z " fill="#17801C" transform="translate(296,383)"/>
<path d="M0 0 C2.475 0.99 2.475 0.99 5 2 C5.33 1.34 5.66 0.68 6 0 C6.99 0 7.98 0 9 0 C9 0.66 9 1.32 9 2 C8.01 2.66 7.02 3.32 6 4 C5.67 4.99 5.34 5.98 5 7 C6.32 7.66 7.64 8.32 9 9 C8.01 9.495 8.01 9.495 7 10 C6.01 9.67 5.02 9.34 4 9 C1.85744207 9.38932856 1.85744207 9.38932856 0 10 C0 9.01 0 8.02 0 7 C0.99 7 1.98 7 3 7 C2.505 6.21625 2.01 5.4325 1.5 4.625 C0 2 0 2 0 0 Z " fill="#176E19" transform="translate(406,366)"/>
<path d="M0 0 C11.55 0 23.1 0 35 0 C35 0.33 35 0.66 35 1 C34.04633545 1.0093457 33.0926709 1.01869141 32.11010742 1.02832031 C28.57057038 1.06820433 25.03190407 1.13395659 21.49291992 1.20751953 C19.96145822 1.23573878 18.42985061 1.25694869 16.89819336 1.27099609 C14.69569151 1.29241426 12.49494541 1.33905138 10.29296875 1.390625 C9.26625313 1.39246796 9.26625313 1.39246796 8.21879578 1.39434814 C4.90233205 1.49645978 3.39174754 1.59177275 1.04418945 4.03808594 C0.69960693 4.68551758 0.35502441 5.33294922 0 6 C0 4.02 0 2.04 0 0 Z " fill="#09F70E" transform="translate(349,302)"/>
<path d="M0 0 C0.33 0 0.66 0 1 0 C1 1.65 1 3.3 1 5 C-0.32 5 -1.64 5 -3 5 C-3 5.99 -3 6.98 -3 8 C-6.63 8 -10.26 8 -14 8 C-14 6.68 -14 5.36 -14 4 C-12.35 4 -10.7 4 -9 4 C-9 4.99 -9 5.98 -9 7 C-8.34 7 -7.68 7 -7 7 C-7 6.01 -7 5.02 -7 4 C-4.69 4 -2.38 4 0 4 C0 2.68 0 1.36 0 0 Z " fill="#065E07" transform="translate(170,388)"/>
<path d="M0 0 C2.31 0 4.62 0 7 0 C7 0.99 7 1.98 7 3 C6.01 3.33 5.02 3.66 4 4 C3.67 5.98 3.34 7.96 3 10 C2.01 10 1.02 10 0 10 C0 6.7 0 3.4 0 0 Z " fill="#0B690D" transform="translate(193,366)"/>
<path d="M0 0 C1.65 0.33 3.3 0.66 5 1 C5.33 4.3 5.66 7.6 6 11 C2.37 11 -1.26 11 -5 11 C-5 10.67 -5 10.34 -5 10 C-1.535 9.505 -1.535 9.505 2 9 C1.51515724 4.35413108 1.51515724 4.35413108 0 0 Z " fill="#032C03" transform="translate(210,366)"/>
<path d="M0 0 C1.65 0 3.3 0 5 0 C5 2.64 5 5.28 5 8 C3.35 8 1.7 8 0 8 C0 5.36 0 2.72 0 0 Z " fill="#023202" transform="translate(283,366)"/>
<path d="M0 0 C2.5625 0.25 2.5625 0.25 5 1 C5.33 1.66 5.66 2.32 6 3 C3.03 2.505 3.03 2.505 0 2 C0 3.98 0 5.96 0 8 C1.98 8 3.96 8 6 8 C6 8.66 6 9.32 6 10 C3.66705225 10.04241723 1.33297433 10.04092937 -1 10 C-2 9 -2 9 -2.1875 5.5625 C-2 2 -2 2 0 0 Z " fill="#1A8F1C" transform="translate(272,382)"/>
<path d="M0 0 C0.66 0 1.32 0 2 0 C2 3.63 2 7.26 2 11 C2.99 11.33 3.98 11.66 5 12 C2.36 12 -0.28 12 -3 12 C-3 11.34 -3 10.68 -3 10 C-2.01 10 -1.02 10 0 10 C0 8.02 0 6.04 0 4 C-0.99 4 -1.98 4 -3 4 C-3 3.34 -3 2.68 -3 2 C-2.01 2 -1.02 2 0 2 C0 1.34 0 0.68 0 0 Z " fill="#1C9C1F" transform="translate(185,380)"/>
<path d="M0 0 C2 1 4 2 6 3 C6 3.66 6 4.32 6 5 C4.02 5.99 2.04 6.98 0 8 C0.33 7.01 0.66 6.02 1 5 C-1.97 5 -4.94 5 -8 5 C-8 4.34 -8 3.68 -8 3 C-5.36 3 -2.72 3 0 3 C0 2.01 0 1.02 0 0 Z " fill="#041202" transform="translate(451,374)"/>
<path d="M0 0 C2.475 0.495 2.475 0.495 5 1 C5 3.31 5 5.62 5 8 C3.35 8 1.7 8 0 8 C0 5.36 0 2.72 0 0 Z " fill="#08660A" transform="translate(320,366)"/>
<path d="M0 0 C1.66611905 -0.042721 3.33382885 -0.04063832 5 0 C6 1 6 1 6.09765625 3.06640625 C6.08605469 3.89011719 6.07445312 4.71382813 6.0625 5.5625 C6.05347656 6.38878906 6.04445313 7.21507812 6.03515625 8.06640625 C6.01775391 9.02353516 6.01775391 9.02353516 6 10 C4.02 10 2.04 10 0 10 C0 9.67 0 9.34 0 9 C1.65 9 3.3 9 5 9 C5 7.68 5 6.36 5 5 C3.35 5 1.7 5 0 5 C0 3.35 0 1.7 0 0 Z " fill="#1E9E1E" transform="translate(443,366)"/>
<path d="M0 0 C0.99 0.33 1.98 0.66 3 1 C3 1.66 3 2.32 3 3 C5.64 3 8.28 3 11 3 C11 3.33 11 3.66 11 4 C9.02 4 7.04 4 5 4 C4.95101563 4.63808594 4.90203125 5.27617187 4.8515625 5.93359375 C4.77679688 6.75988281 4.70203125 7.58617187 4.625 8.4375 C4.55539062 9.26121094 4.48578125 10.08492188 4.4140625 10.93359375 C4.27742188 11.61550781 4.14078125 12.29742187 4 13 C3.01 13.495 3.01 13.495 2 14 C1.92652344 12.84371094 1.92652344 12.84371094 1.8515625 11.6640625 C1.77679688 10.66117187 1.70203125 9.65828125 1.625 8.625 C1.55539062 7.62726563 1.48578125 6.62953125 1.4140625 5.6015625 C1.23636036 2.84491121 1.23636036 2.84491121 -1 1 C-0.67 0.67 -0.34 0.34 0 0 Z " fill="#011802" transform="translate(390,362)"/>
<path d="M0 0 C0.8353125 1.2065625 0.8353125 1.2065625 1.6875 2.4375 C4.21864487 5.24228216 5.32579134 5.69381595 9 6 C8.67 6.66 8.34 7.32 8 8 C5.23723823 7.47731534 2.6739124 6.89130413 0 6 C-1.89470816 5.9314505 -3.7916834 5.91519628 -5.6875 5.9375 C-6.68136719 5.94652344 -7.67523438 5.95554687 -8.69921875 5.96484375 C-9.45847656 5.97644531 -10.21773437 5.98804688 -11 6 C-10.67 5.01 -10.34 4.02 -10 3 C-10 3.66 -10 4.32 -10 5 C-7.36 5 -4.72 5 -2 5 C-2 4.34 -2 3.68 -2 3 C-1.34 3 -0.68 3 0 3 C0 2.01 0 1.02 0 0 Z " fill="#032C05" transform="translate(215,387)"/>
<path d="M0 0 C1.32 0.33 2.64 0.66 4 1 C4.06058594 1.62648438 4.12117187 2.25296875 4.18359375 2.8984375 C4.26738281 3.71570313 4.35117188 4.53296875 4.4375 5.375 C4.55931641 6.59316406 4.55931641 6.59316406 4.68359375 7.8359375 C4.89090114 10.04272805 4.89090114 10.04272805 6 12 C3.03 11.505 3.03 11.505 0 11 C-0.33 11.66 -0.66 12.32 -1 13 C-1 12.01 -1 11.02 -1 10 C-0.01 10 0.98 10 2 10 C2 9.34 2 8.68 2 8 C0.68 7.67 -0.64 7.34 -2 7 C-0.68 6.67 0.64 6.34 2 6 C2 4.35 2 2.7 2 1 C1.34 0.67 0.68 0.34 0 0 Z " fill="#042F03" transform="translate(172,378)"/>
<path d="M0 0 C1.4540625 0.0309375 1.4540625 0.0309375 2.9375 0.0625 C3.2675 1.0525 3.5975 2.0425 3.9375 3.0625 C0.9675 2.5675 0.9675 2.5675 -2.0625 2.0625 C-2.0625 4.3725 -2.0625 6.6825 -2.0625 9.0625 C-0.0825 9.0625 1.8975 9.0625 3.9375 9.0625 C3.9375 9.3925 3.9375 9.7225 3.9375 10.0625 C1.60455225 10.10491723 -0.72952567 10.10342937 -3.0625 10.0625 C-4.0625 9.0625 -4.0625 9.0625 -4.1953125 7.25 C-4.19273437 6.528125 -4.19015625 5.80625 -4.1875 5.0625 C-4.19007813 4.340625 -4.19265625 3.61875 -4.1953125 2.875 C-3.96314697 -0.29337667 -3.23031119 0.06592472 0 0 Z " fill="#1F8C21" transform="translate(219.0625,365.9375)"/>
<path d="M0 0 C0.66 0 1.32 0 2 0 C3.125 7.625 3.125 7.625 2 11 C1.34 11 0.68 11 0 11 C0 10.01 0 9.02 0 8 C-1.65 8 -3.3 8 -5 8 C-5 7.01 -5 6.02 -5 5 C-2.525 5.495 -2.525 5.495 0 6 C0 4.02 0 2.04 0 0 Z " fill="#19AC20" transform="translate(346,365)"/>
<path d="M0 0 C0.33 0 0.66 0 1 0 C1.33 3.63 1.66 7.26 2 11 C0.35 11.33 -1.3 11.66 -3 12 C-2.01 11.67 -1.02 11.34 0 11 C0 10.34 0 9.68 0 9 C-0.66 9 -1.32 9 -2 9 C-2.125 5.625 -2.125 5.625 -2 2 C-1.34 1.34 -0.68 0.68 0 0 Z " fill="#041F05" transform="translate(380,365)"/>
<path d="M0 0 C2.31 0 4.62 0 7 0 C7 0.33 7 0.66 7 1 C5.02 1 3.04 1 1 1 C1 1.66 1 2.32 1 3 C2.98 3 4.96 3 7 3 C7 3.99 7 4.98 7 6 C3.625 6.1875 3.625 6.1875 0 6 C-0.66 5.01 -1.32 4.02 -2 3 C-1.34 3 -0.68 3 0 3 C0 2.01 0 1.02 0 0 Z " fill="#0C700E" transform="translate(396,371)"/>
<path d="M0 0 C1.4540625 0.0309375 1.4540625 0.0309375 2.9375 0.0625 C2.9375 0.3925 2.9375 0.7225 2.9375 1.0625 C1.2875 1.0625 -0.3625 1.0625 -2.0625 1.0625 C-2.0625 3.7025 -2.0625 6.3425 -2.0625 9.0625 C-0.7425 9.0625 0.5775 9.0625 1.9375 9.0625 C1.9375 9.7225 1.9375 10.3825 1.9375 11.0625 C0.27138095 11.105221 -1.39632885 11.10313832 -3.0625 11.0625 C-4.0625 10.0625 -4.0625 10.0625 -4.1953125 8.03125 C-4.19273437 7.2165625 -4.19015625 6.401875 -4.1875 5.5625 C-4.19007813 4.7478125 -4.19265625 3.933125 -4.1953125 3.09375 C-3.9772303 -0.2416248 -3.415854 0.06971131 0 0 Z " fill="#1F9622" transform="translate(357.0625,364.9375)"/>
<path d="M0 0 C2.64 0 5.28 0 8 0 C8 1.32 8 2.64 8 4 C8.66 4.33 9.32 4.66 10 5 C8.68 5.33 7.36 5.66 6 6 C6 5.34 6 4.68 6 4 C4.02 3.34 2.04 2.68 0 2 C0 1.34 0 0.68 0 0 Z " fill="#040F04" transform="translate(250,377)"/>
<path d="M0 0 C1.32 0.33 2.64 0.66 4 1 C4 3.64 4 6.28 4 9 C2.02 9.99 2.02 9.99 0 11 C0 7.37 0 3.74 0 0 Z " fill="#177719" transform="translate(461,365)"/>
<path d="M0 0 C0 4.95 0 9.9 0 15 C-0.66 15 -1.32 15 -2 15 C-2 11.04 -2 7.08 -2 3 C-2.66 2.67 -3.32 2.34 -4 2 C-1 0 -1 0 0 0 Z " fill="#031302" transform="translate(348,299)"/>
<path d="M0 0 C0.99 0 1.98 0 3 0 C3 2.64 3 5.28 3 8 C3.66 8 4.32 8 5 8 C5 8.66 5 9.32 5 10 C1.125 9.125 1.125 9.125 0 8 C-0.14115161 5.32941149 -0.04247107 2.67567762 0 0 Z " fill="#137D14" transform="translate(452,366)"/>
<path d="M0 0 C1.65 0 3.3 0 5 0 C5 1.98 5 3.96 5 6 C3.35 6 1.7 6 0 6 C0 4.02 0 2.04 0 0 Z " fill="#013201" transform="translate(205,368)"/>
<path d="M0 0 C0.99 0.495 0.99 0.495 2 1 C1.67 2.32 1.34 3.64 1 5 C1.66 5.33 2.32 5.66 3 6 C2.67 6.33 2.34 6.66 2 7 C2.66 7.33 3.32 7.66 4 8 C4 9.32 4 10.64 4 12 C2.68 12 1.36 12 0 12 C0 8.04 0 4.08 0 0 Z " fill="#094D0A" transform="translate(139,376)"/>
<path d="M0 0 C1.32 0 2.64 0 4 0 C4 2.97 4 5.94 4 9 C2.68 9 1.36 9 0 9 C0 6 0 3 0 0 Z " fill="#0A800C" transform="translate(170,374)"/>
<path d="M0 0 C1.32 0.33 2.64 0.66 4 1 C4 4.3 4 7.6 4 11 C2.68 11 1.36 11 0 11 C0 7.37 0 3.74 0 0 Z " fill="#20A921" transform="translate(272,365)"/>
<path d="M0 0 C4.29 0.33 8.58 0.66 13 1 C13 4.96 13 8.92 13 13 C12.67 13 12.34 13 12 13 C12 9.37 12 5.74 12 2 C6.06 2.495 6.06 2.495 0 3 C0 2.01 0 1.02 0 0 Z " fill="#001901" transform="translate(158,338)"/>
<path d="M0 0 C1.32 0 2.64 0 4 0 C3.67 2.64 3.34 5.28 3 8 C2.01 8 1.02 8 0 8 C0 5.36 0 2.72 0 0 Z " fill="#0D320E" transform="translate(302,367)"/>
<path d="M0 0 C0.99 0.33 1.98 0.66 3 1 C2.67 1.33 2.34 1.66 2 2 C1.63239269 4.32817964 1.29758419 6.6618385 1 9 C1.66 9 2.32 9 3 9 C3 9.66 3 10.32 3 11 C1.68 10.67 0.36 10.34 -1 10 C-1.02689216 8.52093108 -1.04634621 7.04172517 -1.0625 5.5625 C-1.07410156 4.73878906 -1.08570313 3.91507812 -1.09765625 3.06640625 C-1 1 -1 1 0 0 Z " fill="#1D7F1E" transform="translate(377,365)"/>
<path d="M0 0 C0.66 0 1.32 0 2 0 C2 1.98 2 3.96 2 6 C-0.97 6 -3.94 6 -7 6 C-7 5.34 -7 4.68 -7 4 C-4.69 4 -2.38 4 0 4 C0 2.68 0 1.36 0 0 Z " fill="#001D00" transform="translate(267,384)"/>
<path d="M0 0 C0.99 0 1.98 0 3 0 C3 3.63 3 7.26 3 11 C2.01 11 1.02 11 0 11 C0 7.37 0 3.74 0 0 Z " fill="#012501" transform="translate(224,380)"/>
<path d="M0 0 C0.99 0 1.98 0 3 0 C3 1.32 3 2.64 3 4 C0.29120665 5.35439668 -2.00933268 5.06501451 -5 5 C-5.33 4.01 -5.66 3.02 -6 2 C-3.03 2.495 -3.03 2.495 0 3 C0 2.01 0 1.02 0 0 Z " fill="#147C15" transform="translate(256,371)"/>
<path d="M0 0 C0.33 0.99 0.66 1.98 1 3 C1.99 3.33 2.98 3.66 4 4 C4 6.97 4 9.94 4 13 C1.2160817 11.60804085 1.02101003 9.84424221 0 7 C0.66 7 1.32 7 2 7 C2 6.01 2 5.02 2 4 C1.34 4 0.68 4 0 4 C0 2.68 0 1.36 0 0 Z " fill="#032004" transform="translate(172,364)"/>
<path d="M0 0 C0.66 0 1.32 0 2 0 C3.20272819 2.40545638 3.10071472 3.94996953 3.0625 6.625 C3.05347656 7.44226563 3.04445313 8.25953125 3.03515625 9.1015625 C3.02355469 9.72804688 3.01195312 10.35453125 3 11 C2.01 11 1.02 11 0 11 C0 7.37 0 3.74 0 0 Z " fill="#18811D" transform="translate(325,380)"/>
<path d="M0 0 C0.33 0 0.66 0 1 0 C1 1.98 1 3.96 1 6 C1.66 6 2.32 6 3 6 C3 6.66 3 7.32 3 8 C2.34 8 1.68 8 1 8 C0.67 8.99 0.34 9.98 0 11 C0 10.01 0 9.02 0 8 C-1.65 8 -3.3 8 -5 8 C-5 7.34 -5 6.68 -5 6 C-3.35 6 -1.7 6 0 6 C0 4.02 0 2.04 0 0 Z " fill="#26B728" transform="translate(370,365)"/>
<path d="M0 0 C1.65 0 3.3 0 5 0 C5 1.32 5 2.64 5 4 C2.69 4 0.38 4 -2 4 C-1.34 2.68 -0.68 1.36 0 0 Z " fill="#0D770F" transform="translate(240,366)"/>
<path d="M0 0 C0.99 0.33 1.98 0.66 3 1 C3.33 2.65 3.66 4.3 4 6 C1.36 5.67 -1.28 5.34 -4 5 C-4 4.34 -4 3.68 -4 3 C-2.68 3 -1.36 3 0 3 C0 2.01 0 1.02 0 0 Z " fill="#043001" transform="translate(186,360)"/>
<path d="M0 0 C1.65 0 3.3 0 5 0 C5.33 0.99 5.66 1.98 6 3 C5.34 3.66 4.68 4.32 4 5 C4 4.34 4 3.68 4 3 C2.02 3.33 0.04 3.66 -2 4 C-1.34 2.68 -0.68 1.36 0 0 Z " fill="#147315" transform="translate(207,380)"/>
<path d="M0 0 C0.99 0 1.98 0 3 0 C3 2.64 3 5.28 3 8 C2.01 8 1.02 8 0 8 C0 5.36 0 2.72 0 0 Z " fill="#003500" transform="translate(428,368)"/>
<path d="M0 0 C0.33 0 0.66 0 1 0 C1 2.97 1 5.94 1 9 C0.01 8.67 -0.98 8.34 -2 8 C-2.33 6.35 -2.66 4.7 -3 3 C-2.01 2.67 -1.02 2.34 0 2 C0 1.34 0 0.68 0 0 Z " fill="#0D8E0F" transform="translate(143,374)"/>
<path d="M0 0 C2.31 0 4.62 0 7 0 C7 0.33 7 0.66 7 1 C5.02 1 3.04 1 1 1 C1 1.66 1 2.32 1 3 C2.65 3 4.3 3 6 3 C6.33 3.66 6.66 4.32 7 5 C4.69 5 2.38 5 0 5 C-0.33 4.34 -0.66 3.68 -1 3 C-0.67 2.01 -0.34 1.02 0 0 Z " fill="#0E800F" transform="translate(228,371)"/>
<path d="M0 0 C0.99 0 1.98 0 3 0 C3.66 0.66 4.32 1.32 5 2 C6.32 1.34 7.64 0.68 9 0 C8.34 1.32 7.68 2.64 7 4 C6.01 4 5.02 4 4 4 C3.67 4.99 3.34 5.98 3 7 C2.87625 6.360625 2.7525 5.72125 2.625 5.0625 C2.315625 4.0415625 2.315625 4.0415625 2 3 C1.34 2.67 0.68 2.34 0 2 C0 1.34 0 0.68 0 0 Z " fill="#136713" transform="translate(329,366)"/>
<path d="M0 0 C0 1.98 0 3.96 0 6 C-1.98 6.33 -3.96 6.66 -6 7 C-3.60526316 0 -3.60526316 0 0 0 Z " fill="#0B7A0B" transform="translate(370,365)"/>
<path d="M0 0 C0.86625 0.4640625 0.86625 0.4640625 1.75 0.9375 C3.84294184 1.92583364 5.74535275 2.5168613 8 3 C7.34 4.32 6.68 5.64 6 7 C5.34 7 4.68 7 4 7 C4 6.01 4 5.02 4 4 C2.68 4 1.36 4 0 4 C0 2.68 0 1.36 0 0 Z " fill="#129B14" transform="translate(143,388)"/>
<path d="M0 0 C0.66 0 1.32 0 2 0 C2 2.64 2 5.28 2 8 C1.34 8 0.68 8 0 8 C0 7.01 0 6.02 0 5 C-1.32 4.67 -2.64 4.34 -4 4 C-2.68 3.67 -1.36 3.34 0 3 C0 2.01 0 1.02 0 0 Z " fill="#18841D" transform="translate(223,382)"/>
<path d="M0 0 C1.32 0 2.64 0 4 0 C4 3.3 4 6.6 4 10 C3.67 10 3.34 10 3 10 C3 8.02 3 6.04 3 4 C2.01 4 1.02 4 0 4 C0 2.68 0 1.36 0 0 Z " fill="#064306" transform="translate(282,380)"/>
<path d="M0 0 C2.3125 -0.25 2.3125 -0.25 5 0 C6.8125 1.8125 6.8125 1.8125 8 4 C8 4.99 8 5.98 8 7 C7.34 7 6.68 7 6 7 C5.67 6.01 5.34 5.02 5 4 C4.34 3.67 3.68 3.34 3 3 C2.67 3.66 2.34 4.32 2 5 C2 4.01 2 3.02 2 2 C1.34 2 0.68 2 0 2 C0 1.34 0 0.68 0 0 Z " fill="#033004" transform="translate(401,366)"/>
<path d="M0 0 C1.32 0 2.64 0 4 0 C4 0.66 4 1.32 4 2 C4.66 2 5.32 2 6 2 C6 2.99 6 3.98 6 5 C3.36 5 0.72 5 -2 5 C-2 4.67 -2 4.34 -2 4 C-0.35 4 1.3 4 3 4 C3 3.34 3 2.68 3 2 C2.01 2 1.02 2 0 2 C0 1.34 0 0.68 0 0 Z " fill="#1FA522" transform="translate(397,366)"/>
<path d="M0 0 C0.99 0 1.98 0 3 0 C3.33 2.64 3.66 5.28 4 8 C2.68 8 1.36 8 0 8 C0 5.36 0 2.72 0 0 Z " fill="#1AA61E" transform="translate(282,384)"/>
<path d="M0 0 C0.99 0 1.98 0 3 0 C2.67 2.97 2.34 5.94 2 9 C1.34 9 0.68 9 0 9 C0 6.03 0 3.06 0 0 Z " fill="#013901" transform="translate(449,368)"/>
<path d="M0 0 C1.2065625 0.0309375 1.2065625 0.0309375 2.4375 0.0625 C2.4375 0.7225 2.4375 1.3825 2.4375 2.0625 C1.4475 2.3925 0.4575 2.7225 -0.5625 3.0625 C0.4275 3.7225 1.4175 4.3825 2.4375 5.0625 C0.7875 5.0625 -0.8625 5.0625 -2.5625 5.0625 C-3.125 3.125 -3.125 3.125 -3.5625 1.0625 C-2.5625 0.0625 -2.5625 0.0625 0 0 Z " fill="#1A8B1E" transform="translate(253.5625,365.9375)"/>
<path d="M0 0 C2.97 0.495 2.97 0.495 6 1 C6 1.99 6 2.98 6 4 C3.03 3.505 3.03 3.505 0 3 C-0.33 3.66 -0.66 4.32 -1 5 C-0.67 3.35 -0.34 1.7 0 0 Z " fill="#043604" transform="translate(250,370)"/>
<path d="M0 0 C0.33 0.99 0.66 1.98 1 3 C1.66 3 2.32 3 3 3 C3 2.34 3 1.68 3 1 C4.32 1 5.64 1 7 1 C7 1.99 7 2.98 7 4 C2.25 5.125 2.25 5.125 0 4 C0 2.68 0 1.36 0 0 Z " fill="#034E06" transform="translate(304,387)"/>
<path d="M0 0 C1.2065625 0.0309375 1.2065625 0.0309375 2.4375 0.0625 C1.1175 0.3925 -0.2025 0.7225 -1.5625 1.0625 C-1.5625 1.7225 -1.5625 2.3825 -1.5625 3.0625 C-0.2425 3.3925 1.0775 3.7225 2.4375 4.0625 C1.1175 4.0625 -0.2025 4.0625 -1.5625 4.0625 C-1.5625 4.7225 -1.5625 5.3825 -1.5625 6.0625 C-2.2225 6.0625 -2.8825 6.0625 -3.5625 6.0625 C-3.605221 4.39638095 -3.60313832 2.72867115 -3.5625 1.0625 C-2.5625 0.0625 -2.5625 0.0625 0 0 Z " fill="#043E06" transform="translate(308.5625,380.9375)"/>
<path d="M0 0 C0.99 0.33 1.98 0.66 3 1 C2.67 3.64 2.34 6.28 2 9 C1.34 9 0.68 9 0 9 C0 6.03 0 3.06 0 0 Z " fill="#229526" transform="translate(193,367)"/>
<path d="M0 0 C0.66 0 1.32 0 2 0 C2.33 2.64 2.66 5.28 3 8 C1.68 8 0.36 8 -1 8 C-0.67 5.36 -0.34 2.72 0 0 Z " fill="#20AE23" transform="translate(419,368)"/>
<path d="M0 0 C0.33 0 0.66 0 1 0 C1.33 2.97 1.66 5.94 2 9 C1.01 8.67 0.02 8.34 -1 8 C-0.34 8 0.32 8 1 8 C0.484375 7.5875 -0.03125 7.175 -0.5625 6.75 C-1.036875 6.1725 -1.51125 5.595 -2 5 C-1.74853421 2.86254078 -1.54074221 1.54074221 0 0 Z " fill="#042A04" transform="translate(337,368)"/>
<path d="M0 0 C1.65 0 3.3 0 5 0 C5 2.64 5 5.28 5 8 C4.67 8 4.34 8 4 8 C4 6.02 4 4.04 4 2 C2.02 2.99 2.02 2.99 0 4 C0 2.68 0 1.36 0 0 Z " fill="#023901" transform="translate(367,363)"/>
<path d="M0 0 C0.33 1.32 0.66 2.64 1 4 C-0.98 4.66 -2.96 5.32 -5 6 C-4.67 4.68 -4.34 3.36 -4 2 C-2.68 2 -1.36 2 0 2 C0 1.34 0 0.68 0 0 Z " fill="#041302" transform="translate(171,391)"/>
<path d="M0 0 C2.475 0.495 2.475 0.495 5 1 C5 1.99 5 2.98 5 4 C3.35 4 1.7 4 0 4 C0 2.68 0 1.36 0 0 Z " fill="#080C08" transform="translate(273,385)"/>
<path d="M0 0 C1.32 0 2.64 0 4 0 C4 0.99 4 1.98 4 3 C2.68 3 1.36 3 0 3 C0 3.66 0 4.32 0 5 C-0.66 5 -1.32 5 -2 5 C-2 4.01 -2 3.02 -2 2 C-1.34 2 -0.68 2 0 2 C0 1.34 0 0.68 0 0 Z " fill="#148317" transform="translate(307,385)"/>
<path d="M0 0 C1.98 0 3.96 0 6 0 C6 0.99 6 1.98 6 3 C4.35 3 2.7 3 1 3 C0.67 2.01 0.34 1.02 0 0 Z " fill="#0C780D" transform="translate(259,382)"/>
<path d="M0 0 C2 3 2 3 1.625 5.1875 C1.41875 5.785625 1.2125 6.38375 1 7 C0.01 6.34 -0.98 5.68 -2 5 C-1.125 1.125 -1.125 1.125 0 0 Z " fill="#033104" transform="translate(413,368)"/>
<path d="M0 0 C1.98 0 3.96 0 6 0 C6 0.99 6 1.98 6 3 C3.69 3 1.38 3 -1 3 C-0.67 2.01 -0.34 1.02 0 0 Z " fill="#023D00" transform="translate(319,363)"/>
</svg>
