<?xml version="1.0" encoding="utf-8"?>
<!-- Generator: Adobe Illustrator 26.0.3, SVG Export Plug-In . SVG Version: 6.00 Build 0)  -->
<svg version="1.1" id="Layer_1" xmlns="http://www.w3.org/2000/svg" xmlns:xlink="http://www.w3.org/1999/xlink" x="0px" y="0px"
	 viewBox="0 0 320 320" style="enable-background:new 0 0 320 320;" xml:space="preserve">
<style type="text/css">
	.st0{fill:#10151B;stroke:#F5C09A;stroke-width:11.61;stroke-linecap:round;stroke-linejoin:round;}
	.st1{fill:none;stroke:#F5C09A;stroke-width:11.61;stroke-linecap:round;stroke-linejoin:round;}
	.st2{fill:none;stroke:#F5C09A;stroke-width:6.77;stroke-linecap:round;stroke-linejoin:round;}
	.st3{clip-path:url(#SVGID_00000111913708796773405090000010877289967779680143_);}
	.st4{fill:#F5C09A;stroke:#F5C09A;stroke-width:4.84;stroke-miterlimit:10;}
	.st5{fill:none;stroke:#F5C09A;stroke-width:11.61;stroke-miterlimit:10;}
</style>
<circle class="st0" cx="160.4" cy="160" r="147.6"/>
<line class="st1" x1="160.4" y1="12.4" x2="160.4" y2="43.5"/>
<line class="st1" x1="160.4" y1="277.1" x2="160.4" y2="307.6"/>
<polyline class="st2" points="116.9,77.9 160.4,43.5 261,123.1 "/>
<line class="st2" x1="59.8" y1="123.1" x2="116.9" y2="77.9"/>
<line class="st2" x1="261" y1="197.4" x2="261" y2="123.1"/>
<polyline class="st2" points="59.8,123.1 59.8,197.4 160.4,277.1 261,197.4 "/>
<g>
	<defs>
		<polygon id="SVGID_1_" points="261,123.1 160.4,43.5 61.9,124 59.8,197.4 160.4,277.1 261,197.4 		"/>
	</defs>
	<clipPath id="SVGID_00000146463407201013427420000014751115421928134803_">
		<use xlink:href="#SVGID_1_"  style="overflow:visible;"/>
	</clipPath>
	<g style="clip-path:url(#SVGID_00000146463407201013427420000014751115421928134803_);">
		<path class="st4" d="M169,102.8c-1.2,3.5,1.1,5.3,4.8,6.5c2.5,0.9,4.9,2,7.2,3.3c6.7,3.7,10.3,9.7,12.3,16.9
			c0.3,1.4,0.2,2.9-0.2,4.2c-0.2,1.2-1.3,2.1-2.5,2.1c-3.1,0.4-6.3,0.6-9.4,0.5c-1.5,0-2.8-0.7-3.6-1.9c-0.6-0.8-1.2-1.7-1.8-2.6
			c-5.4-8.5-13-11.7-22.9-9.6c-9.5,2-11.6,7.9-10.8,16.5c0.3,2.9,2.7,4.4,5,5.6c3.5,1.7,7.3,2.8,11.1,3.4c7.7,1.3,15.3,3.2,22.7,5.5
			c13.1,4.4,17.1,16.4,16.6,26.2c-0.3,6.5-2.2,12.7-6.6,17.6c-5.1,6-11.9,10.2-19.6,12.1c-1.1,0.2-1.9,1.1-2,2.3
			c-0.6,3.2-0.1,6.6-0.6,9.8c-0.7,4.2-1,4.7-5.2,5.5c-3.2,0.5-6.4,0.4-9.6-0.2c-1.8-0.2-3.3-1.7-3.5-3.6c-0.5-3.4-0.8-6.8-0.6-10.2
			c0-2.9,0-3-2.8-3.6c-5.8-1.4-11.3-3.5-16-7.5c-5.8-4.9-9.6-11.7-10.8-19.2c-0.4-2.4,0.2-3.8,2.5-4.8c3.9-1.6,8.2-1.8,12.2-0.6
			c0.8,0.3,1.5,0.8,2,1.6c1.5,1.9,2.7,4,3.6,6.2c2.8,6.4,7.8,9.5,14.7,9.8c4,0.3,7.9,0.1,11.8-0.6c6-1.1,10.5-6,11.3-12
			c0.3-1.7,0.3-3.3,0-5c-0.4-2.5-1.9-4.7-4.1-5.9c-5.8-3.1-12.1-5.1-18.6-5.9c-8.2-0.9-16-3.5-23-7.9c-5.9-3.7-8.8-9.7-9.7-16.5
			c-2-14.9,6.7-28,21.2-32.2c1.9-0.5,4.5-0.3,5.4-1.9s0.2-3.7,0.2-5.7c0-2.6,0.3-5.2,0.8-7.7c0.3-1.4,1.4-2.6,2.8-2.8
			c4-0.9,8-0.9,12,0c1.4,0.3,2.6,1.4,2.8,2.8C169,96.5,169.2,99.7,169,102.8z"/>
		<path class="st4" d="M134.8,68.9c0.4,4.3-1.5,7.3-5.2,9.3c-4.4,2.4-9,4.5-13.2,7.2c-22.4,14.5-37.4,34.3-40.9,61.2
			c-4.2,32.6,7.3,59.3,33.1,79.8c5.2,4,10.8,7.4,16.7,10.3c1.8,0.9,3.4,2.1,5.1,3c2.5,1.3,4.1,3.9,4.2,6.8c0.2,2.2,0.1,4.3-0.3,6.5
			c-0.6,3.3-2.9,4.7-6.1,4c-5.1-1.2-10-3.2-14.6-5.7c-28.2-15.2-46.7-38.1-54.7-69.3c-2.6-10.2-2.4-20.6-1.9-31
			c0.2-8.9,1.9-17.6,5-25.9c7.2-18.5,17.8-34.7,33.5-47.1c9.3-7.3,19.8-12.6,30.7-17.2c0.6-0.3,1.3-0.5,1.9-0.6
			c2.3-0.8,4.9,0.4,5.7,2.7c0,0,0,0.1,0,0.1C134.5,64.8,134.9,66.9,134.8,68.9z"/>
		<path class="st4" d="M263.2,161.2c0.2,45.4-30.2,78.3-58,91.5c-4.2,2.1-8.6,3.8-13.1,5.1c-3.8,1-5.7-0.4-6.6-4.2
			c-0.4-2.3-0.5-4.6-0.1-6.8c0.2-2.3,1.5-4.4,3.4-5.6c3-2,6.2-3.7,9.3-5.4c15.6-8.5,28.2-20.2,37-35.6c6.6-11.4,8.7-25,9.1-38.2
			c0.5-17-2.3-32.1-11.3-46.5c-8.7-14-21.1-25.3-35.8-32.6c-2.4-1.2-4.7-2.7-7.1-4c-4.9-2.8-5.4-6.3-4.7-12c0.2-0.9,0.5-1.8,0.9-2.6
			c1.5-3.2,3.3-4,6.7-2.9c4.5,1.7,8.9,3.7,13.1,6.1c10.2,5.5,20,11.4,27.9,20c13.6,14.8,23.4,31.7,27.6,51.5
			C263.1,146.1,263.3,153.4,263.2,161.2z"/>
	</g>
</g>
<polygon class="st5" points="261,123.1 160.4,43.5 61.9,124 59.8,197.4 160.4,277.1 261,197.4 "/>
</svg>
