<?xml version="1.0" encoding="UTF-8"?>
<svg id="USC" xmlns="http://www.w3.org/2000/svg" version="1.1" viewBox="0 0 256 256">
  <defs>
    <style>
      .cls-1 {
        fill: #194798;
      }

      .cls-1, .cls-2 {
        stroke-width: 0px;
      }

      .cls-2 {
        fill: #fff;
      }
    </style>
  </defs>
  <g>
    <path class="cls-1" d="M255,128c-.2,70.2-56.7,127-127.1,127S1,198,1,127.9C1,57.9,58,.9,128,1c70.2,0,126.9,56.7,127,127ZM238.5,128.3c-.3-61.3-49.1-110.6-110.6-110.6S17.5,66.9,17.5,128.3s49.1,110.6,110.4,110.6,110.4-49.2,110.7-110.6Z"/>
    <path class="cls-2" d="M128,17.7c61.4,0,110.3,49.3,110.6,110.6-.3,61.4-49.3,110.6-110.7,110.6S17.5,189.7,17.5,128.3,66.7,17.7,128,17.7Z"/>
  </g>
  <path class="cls-1" d="M128.1,23.7c57.9.2,104.3,46.9,104,104.6-.3,57.6-46.8,103.9-104.4,103.8-57.7-.2-104.2-47.2-104-104.6.3-57.6,46.9-103.8,104.3-103.9ZM154.6,102.1c-.3-.4-.4-.8-.6-1-4.6-6.6-10.8-10.9-18.9-12.2-1.1-.2-1.3-.6-1.3-1.7v-9.4c0-1-.3-1.2-1.2-1.2h-9.3c-1,0-1.2.3-1.2,1.2v10c0,.7-.2,1-1,1.2-1.1.3-2.3.6-3.3,1-10.1,3.6-16,13.2-14.6,23.8,1,7.3,5.2,12.2,11.9,15.1,3.4,1.5,7.1,2.4,10.6,3.4,4,1,8.1,2,11.6,4.5,3.1,2.2,4.5,5.2,4.1,9-.4,3.6-2.9,5.8-6,7.2-3.1,1.3-6.4,1.4-9.7.8-5.6-1-9.7-4.4-12.8-8.9-.3-.5-.8-1-1.1-1.6-3.6,2.1-7,4.1-10.5,6.2-.7.4-.3.9,0,1.3,4,8.5,10.6,13.9,19.9,15.5.9.2,1,.5,1,1.3v10.6c0,1,.3,1.4,1.4,1.3h8.1c2.4,0,2.1.2,2.1-2.1v-10.7c.9-.2,1.7-.3,2.5-.5,9.5-2.2,18.9-9.6,19.4-21.2.3-5.9-1.2-11.3-5.7-15.5-2.4-2.3-5.3-4-8.5-5.2-3.9-1.4-7.9-2.4-11.9-3.7-3.2-1-6.5-1.9-9.3-4-2.7-1.9-3.8-4.6-3.3-7.9.4-3.1,2.4-5.1,5.1-6.1,1.3-.5,2.8-.8,4.2-.9,5.4-.3,10.4.8,14.4,4.8,1,1,1.7,1.9,2.7,3,3.7-2.4,7.3-4.8,11.1-7.2ZM86.9,196.4h14.6c1.3-.2,2.1-1,2.3-2.2.2-1.1-.5-2.2-1.7-2.7-3-1.5-6-2.9-8.9-4.5-6.9-4.1-12.9-9.3-18-15.5-3.1-3.8-5.8-7.9-8-12.3-.5-1.1-1.4-1.9-2.7-1.9s-1.9.9-2.4,1.9c-1.7,3.8-3.3,7.4-4.9,11.2-1.5,3.4-2.1,6.9-1.4,10.7,1.6,9.1,9.2,15.5,18.4,15.5h12.7ZM169.7,196.4h10.9c2,0,4.1,0,6-.5,9.3-1.9,15.7-11.4,14.1-20.6-1.1-6.1-4.5-11.4-6.8-17-.5-1.2-2.3-1.5-3.3-.6-.6.4-1,1.1-1.4,1.8-3.7,6.9-8.2,13.1-14,18.5-6.1,5.8-13.1,10.2-20.9,13.5-.5.3-1.1.8-1.4,1.4-.9,1.8.4,3.6,2.6,3.6h14.1,0ZM128.2,37.3c-7.5.3-13.3,3.7-16.7,10.6-1.7,3.5-3.1,7.2-4.8,10.7-.5,1.1-.6,2.3.3,3.2.9,1,1.9,1,3.1.6,4.5-1.4,9.1-2,13.7-2.4,3.5-.2,7,0,10.4.3,4,.4,8,1.2,12,2,1.2.3,2.3.4,3.2-.5,1-1,.8-2.1.3-3.3-1.6-3.5-3.1-7.1-4.7-10.5-3.3-7-9.1-10.3-16.8-10.7h0Z"/>
</svg>