<?xml version="1.0" encoding="UTF-8" standalone="no"?>
<!-- Created with Inkscape (http://www.inkscape.org/) -->

<svg
   width="258pt"
   height="296pt"
   viewBox="0 0 91.016665 104.42222"
   version="1.1"
   id="svg218"
   inkscape:version="1.2.2 (b0a8486541, 2022-12-01)"
   sodipodi:docname="logo.svg"
   xmlns:inkscape="http://www.inkscape.org/namespaces/inkscape"
   xmlns:sodipodi="http://sodipodi.sourceforge.net/DTD/sodipodi-0.dtd"
   xmlns="http://www.w3.org/2000/svg"
   xmlns:svg="http://www.w3.org/2000/svg">
  <sodipodi:namedview
     id="namedview220"
     pagecolor="#ffffff"
     bordercolor="#000000"
     borderopacity="0.25"
     inkscape:showpageshadow="2"
     inkscape:pageopacity="0.0"
     inkscape:pagecheckerboard="0"
     inkscape:deskcolor="#d1d1d1"
     inkscape:document-units="mm"
     showgrid="false"
     inkscape:zoom="1.1893044"
     inkscape:cx="375.42954"
     inkscape:cy="231.2276"
     inkscape:window-width="1680"
     inkscape:window-height="981"
     inkscape:window-x="0"
     inkscape:window-y="32"
     inkscape:window-maximized="1"
     inkscape:current-layer="layer1" />
  <defs
     id="defs215">
    <linearGradient
       id="paint0_linear"
       x1="29.6775"
       y1="5.9997001"
       x2="29.6775"
       y2="52.109901"
       gradientUnits="userSpaceOnUse"
       gradientTransform="matrix(2.1838649,0,0,2.1838649,-19.003334,-11.525245)">
      <stop
         stop-color="white"
         id="stop16" />
      <stop
         offset="0.98"
         stop-color="#389E20"
         id="stop18" />
      <stop
         offset="1"
         id="stop20" />
    </linearGradient>
  </defs>
  <g
     inkscape:label="Capa 1"
     inkscape:groupmode="layer"
     id="layer1">
    <path
       d="m 50.152679,2.6054958 c -2.390461,-1.3700696 -6.298266,-1.3700696 -8.678024,0 L 4.9982061,23.522074 c -2.3929034,1.369938 -4.34676252,4.733308 -4.34676252,7.476023 v 41.848966 c 0,2.740096 1.95385912,6.106086 4.34676252,7.478646 L 41.464172,101.24758 c 2.390241,1.36994 6.298046,1.36994 8.678024,0 L 86.621038,80.323087 c 2.387838,-1.372558 4.341521,-4.733308 4.341521,-7.478863 V 31.003339 c 0,-2.742716 -1.953683,-6.106086 -4.341521,-7.476024 z"
       fill="#87f96e"
       id="path2"
       style="stroke-width:2.18387" />
    <path
       style="mix-blend-mode:overlay;fill:url(#paint0_linear);stroke-width:2.18387"
       d="m 50.152679,2.6054958 c -2.390461,-1.3700696 -6.298266,-1.3700696 -8.678024,0 L 4.9982061,23.522074 c -2.3929034,1.369938 -4.34676252,4.733308 -4.34676252,7.476023 v 41.848966 c 0,2.740096 1.95385912,6.106086 4.34676252,7.478646 L 41.464172,101.24758 c 2.390241,1.36994 6.298046,1.36994 8.678024,0 L 86.621038,80.323087 c 2.387838,-1.372558 4.341521,-4.733308 4.341521,-7.478863 V 31.003339 c 0,-2.742716 -1.953683,-6.106086 -4.341521,-7.476024 z"
       fill="url(#paint0_linear)"
       id="path4" />
    <path
       d="m 49.431128,23.743299 c 0,-1.777448 -1.441132,-3.21858 -3.218799,-3.21858 -1.777664,0 -3.21858,1.441132 -3.21858,3.21858 v 58.860398 c 0,1.777667 1.440916,3.21858 3.21858,3.21858 1.777667,0 3.218799,-1.440913 3.218799,-3.21858 z"
       fill="#062f4f"
       id="path6"
       style="stroke-width:2.18387" />
    <path
       d="m 74.7371,52.230288 c -0.424982,-0.731158 -1.122071,-1.26446 -1.939054,-1.483281 -0.816983,-0.218823 -1.687254,-0.105264 -2.420813,0.315786 L 49.276511,63.246138 v 7.363119 L 73.569605,56.585131 c 0.729848,-0.424979 1.262055,-1.121196 1.480878,-1.936869 0.218607,-0.815673 0.105918,-1.684851 -0.313383,-2.417974 z"
       fill="#062f4f"
       id="path8"
       style="stroke-width:2.18387" />
    <path
       d="m 17.516775,52.67405 c 0.424981,-0.731377 1.122289,-1.264677 1.939273,-1.4835 0.816766,-0.218605 1.687256,-0.105045 2.420816,0.315785 L 42.977372,63.68968 v 7.363119 L 18.684489,57.028676 C 17.95464,56.603694 17.422214,55.90748 17.203609,55.091804 16.984786,54.276131 17.097473,53.406953 17.516775,52.67405 Z"
       fill="#062f4f"
       id="path10"
       style="stroke-width:2.18387" />
    <path
       d="m 74.7371,35.646673 c -0.424982,-0.731157 -1.122071,-1.264457 -1.939054,-1.48328 -0.816983,-0.218824 -1.687254,-0.105262 -2.420813,0.315785 L 49.276511,46.659684 v 7.363119 L 73.569605,40.00676 c 0.731158,-0.424981 1.264457,-1.122288 1.483281,-1.939274 0.218823,-0.816983 0.105261,-1.687253 -0.315786,-2.420813 z"
       fill="#062f4f"
       id="path12"
       style="stroke-width:2.18387" />
    <path
       d="m 17.515465,36.082791 c 0.42498,-0.731157 1.12207,-1.264676 1.938836,-1.483937 0.816766,-0.21904 1.687255,-0.106354 2.421253,0.313603 l 21.100508,12.183345 v 7.363119 L 18.683178,40.432176 c -0.728974,-0.424326 -1.260746,-1.119666 -1.479351,-1.93425 -0.218823,-0.8148 -0.106791,-1.682668 0.311638,-2.415135 z"
       fill="#062f4f"
       id="path14"
       style="stroke-width:2.18387" />
  </g>
</svg>
