<?xml version="1.0" encoding="UTF-8"?>
<svg version="1.1" xmlns="http://www.w3.org/2000/svg" width="500" height="500">
<path d="M0 0 C165 0 330 0 500 0 C500 165 500 330 500 500 C335 500 170 500 0 500 C0 335 0 170 0 0 Z " fill="#2B2B2B" transform="translate(0,0)"/>
<path d="M0 0 C1.18529297 -0.01611328 2.37058594 -0.03222656 3.59179688 -0.04882812 C14.30240018 -0.05470339 23.84383119 1.7371162 33.375 6.6875 C35.13070312 7.59628906 35.13070312 7.59628906 36.921875 8.5234375 C39.499255 9.9916465 41.79159801 11.49650454 44.125 13.3125 C45.094375 13.9725 46.06375 14.6325 47.0625 15.3125 C48.7125 14.9825 50.3625 14.6525 52.0625 14.3125 C53.5475 8.8675 53.5475 8.8675 55.0625 3.3125 C56.7125 3.3125 58.3625 3.3125 60.0625 3.3125 C60.14702263 15.46614991 59.8794359 27.60114483 59.5625 39.75 C59.5141502 41.65689667 59.46597202 43.5637977 59.41796875 45.47070312 C59.30145256 50.08468794 59.18263181 54.69860797 59.0625 59.3125 C57.4125 59.3125 55.7625 59.3125 54.0625 59.3125 C53.80726563 57.57226562 53.80726563 57.57226562 53.546875 55.796875 C51.27194884 40.86566948 48.74867265 26.10988223 36.375 16 C24.60301452 8.12958685 13.01381501 6.60795648 -0.7734375 8.75390625 C-10.21555424 11.38775987 -16.53557464 18.22173758 -21.375 26.421875 C-31.52807382 45.20506158 -33.34881307 64.51102044 -33.25 85.5 C-33.24817719 86.30721497 -33.24635437 87.11442993 -33.24447632 87.94610596 C-33.16264925 109.52233236 -32.49003736 135.46387798 -17.05859375 152.37109375 C-11.5096986 157.59422206 -6.02561041 160.36332159 1.625 160.6875 C6.8821489 160.4877465 11.23351552 159.26341678 14.9375 155.3125 C17.22396695 151.24766987 17.23786714 147.49972704 17.265625 142.96875 C17.27132507 142.24441772 17.27702515 141.52008545 17.28289795 140.77380371 C17.2923432 139.23723811 17.29888005 137.7006523 17.30273438 136.1640625 C17.31235017 133.84858016 17.34333818 131.53402066 17.375 129.21875 C17.67522437 115.16819073 17.67522437 115.16819073 12 102.75 C7.81951475 100.70423062 3.62397496 100.06162028 -0.9375 99.3125 C-2.2743485 98.99355645 -3.60918135 98.66528671 -4.9375 98.3125 C-4.9375 96.9925 -4.9375 95.6725 -4.9375 94.3125 C20.4725 94.3125 45.8825 94.3125 72.0625 94.3125 C71.7325 95.9625 71.4025 97.6125 71.0625 99.3125 C69.40177151 99.99382451 67.734733 100.65992127 66.0625 101.3125 C64.19613697 104.92291816 63.79820902 107.9926508 63.74365234 112.02075195 C63.72378265 113.14153641 63.70391296 114.26232086 63.68344116 115.41706848 C63.67188995 116.6161937 63.66033875 117.81531891 63.6484375 119.05078125 C63.62907135 120.28668503 63.6097052 121.52258881 63.5897522 122.79594421 C63.54017445 126.06901967 63.49887171 129.342061 63.46160889 132.61529541 C63.42147981 135.96043457 63.37026548 139.30538373 63.3203125 142.65039062 C63.22433193 149.20431861 63.13926329 155.75832028 63.0625 162.3125 C61.7425 162.3125 60.4225 162.3125 59.0625 162.3125 C58.64677734 161.13880859 58.64677734 161.13880859 58.22265625 159.94140625 C57.86042969 158.92949219 57.49820312 157.91757812 57.125 156.875 C56.76535156 155.86566406 56.40570313 154.85632813 56.03515625 153.81640625 C55.29372361 151.40936255 55.29372361 151.40936255 54.0625 150.3125 C47.52605158 150.27272629 42.27619023 152.22868996 36.5 155.0625 C28.20919675 158.94647205 19.87164955 161.85143064 11.0625 164.3125 C10.4331958 164.49280762 9.8038916 164.67311523 9.15551758 164.85888672 C5.04541732 165.74965614 0.81362694 165.50314987 -3.375 165.5 C-4.36113281 165.49991943 -5.34726562 165.49983887 -6.36328125 165.49975586 C-13.75290953 165.44217591 -20.68587838 164.77348847 -27.9375 163.3125 C-32.27351282 162.47926455 -36.35523326 162.19064667 -40.76904297 162.19897461 C-41.42340836 162.19882858 -42.07777374 162.19868256 -42.75196838 162.1985321 C-44.89457626 162.19922353 -47.03709499 162.20697948 -49.1796875 162.21484375 C-50.67326815 162.21671067 -52.16684942 162.21813328 -53.66043091 162.21913147 C-57.57635207 162.22293506 -61.49223568 162.23274676 -65.40814209 162.24383545 C-69.41011039 162.25409612 -73.41208481 162.25863904 -77.4140625 162.26367188 C-85.2552255 162.2743711 -93.09635807 162.2914214 -100.9375 162.3125 C-100.9375 160.6625 -100.9375 159.0125 -100.9375 157.3125 C-99.70773438 157.16554688 -99.70773438 157.16554688 -98.453125 157.015625 C-96.83664063 156.79132813 -96.83664063 156.79132813 -95.1875 156.5625 C-93.58648437 156.35367188 -93.58648437 156.35367188 -91.953125 156.140625 C-88.48481141 155.18818655 -87.15103502 154.10527783 -84.9375 151.3125 C-83.68222738 147.54668213 -83.77512039 144.01737821 -83.76953125 140.09375 C-83.76620285 139.28063354 -83.76287445 138.46751709 -83.75944519 137.62976074 C-83.7543806 135.90487228 -83.75203672 134.17997402 -83.75219727 132.45507812 C-83.75003125 129.85008907 -83.73192805 127.24553797 -83.71289062 124.640625 C-83.68725782 116.88446316 -83.82587566 109.59555738 -85.48120117 101.98681641 C-86.45194468 96.29739725 -86.22322516 90.50472818 -86.1875 84.75 C-86.19523438 83.50025391 -86.20296875 82.25050781 -86.2109375 80.96289062 C-86.19981065 75.66929345 -86.15987919 70.64399335 -84.9296875 65.48046875 C-83.24913788 58.18583306 -83.72772113 50.62884578 -83.8125 43.1875 C-83.82255296 41.64323499 -83.83167471 40.09896362 -83.83984375 38.5546875 C-83.86166664 34.80715751 -83.89606794 31.05987054 -83.9375 27.3125 C-84.27668457 28.20066406 -84.61586914 29.08882812 -84.96533203 30.00390625 C-96.33531127 59.75453115 -107.96907918 89.39999069 -119.6449585 119.03167725 C-120.88706297 122.18447707 -122.12848969 125.33754273 -123.36962891 128.49072266 C-125.16992606 133.06437034 -126.97122186 137.63762286 -128.77368164 142.2104187 C-129.41942413 143.8487743 -130.06493572 145.48722093 -130.71020508 147.12576294 C-131.58321235 149.34202457 -132.45741623 151.55780994 -133.33203125 153.7734375 C-134.05676636 155.61107666 -134.05676636 155.61107666 -134.79614258 157.48583984 C-135.9375 160.3125 -135.9375 160.3125 -136.9375 162.3125 C-138.2575 162.3125 -139.5775 162.3125 -140.9375 162.3125 C-152.17527938 136.91180784 -163.38297339 111.49822654 -174.53858948 86.06134033 C-177.29749538 79.77062924 -180.05842705 73.48080973 -182.8203125 67.19140625 C-183.22436813 66.27125732 -183.62842377 65.3511084 -184.04472351 64.40307617 C-185.61230151 60.83329372 -187.17990123 57.26352082 -188.74758911 53.69378662 C-189.81490305 51.26335134 -190.88207475 48.83285365 -191.94921875 46.40234375 C-192.24962067 45.71838028 -192.55002258 45.03441681 -192.85952759 44.32972717 C-196.22646555 36.66065298 -199.58121238 28.98623932 -202.9375 21.3125 C-202.98441991 35.54329618 -203.01945272 49.77408021 -203.04112434 64.00493813 C-203.05152939 70.6139966 -203.06562838 77.22300283 -203.08837891 83.83203125 C-203.1102246 90.21869795 -203.12209324 96.60531464 -203.12725449 102.99201584 C-203.13092928 105.41986248 -203.13810481 107.84770661 -203.14896011 110.27553177 C-204.72348129 132.64953674 -204.72348129 132.64953674 -196.9375 152.3125 C-192.05732934 155.56594711 -186.6278569 156.35661001 -180.9375 157.3125 C-180.9375 158.9625 -180.9375 160.6125 -180.9375 162.3125 C-195.4575 162.3125 -209.9775 162.3125 -224.9375 162.3125 C-224.9375 160.6625 -224.9375 159.0125 -224.9375 157.3125 C-224.03257812 156.98378906 -224.03257812 156.98378906 -223.109375 156.6484375 C-217.67485071 154.49215851 -214.49463427 152.83591003 -211.9375 147.3125 C-209.90819 139.9940378 -209.64546695 132.80811306 -209.6628418 125.25683594 C-209.65773087 124.09458496 -209.65261993 122.93233398 -209.64735413 121.73486328 C-209.6335388 117.92214708 -209.63440802 114.10961314 -209.63671875 110.296875 C-209.63381307 108.30847713 -209.63090207 106.32007919 -209.627312 104.33168244 C-209.61626201 98.09382457 -209.61575568 91.85602696 -209.62182617 85.61816406 C-209.6278801 79.19576067 -209.61550886 72.77357557 -209.5942561 66.3512094 C-209.57662601 60.81888621 -209.57064044 55.28663247 -209.57389385 49.75428224 C-209.57570259 46.4576979 -209.57178785 43.16130418 -209.55917931 39.86473846 C-209.54685265 36.19318212 -209.55358313 32.52213405 -209.56518555 28.85058594 C-209.55754181 27.76577942 -209.54989807 26.6809729 -209.54202271 25.56329346 C-209.58032268 20.08395048 -209.75704661 16.00518262 -212.9375 11.3125 C-214.77875168 10.02294671 -214.77875168 10.02294671 -216.875 9.5 C-217.54402344 9.28730469 -218.21304688 9.07460937 -218.90234375 8.85546875 C-220.90931046 8.32002082 -222.91947003 7.80459232 -224.9375 7.3125 C-224.9375 5.9925 -224.9375 4.6725 -224.9375 3.3125 C-203.4875 3.3125 -182.0375 3.3125 -159.9375 3.3125 C-150.74153975 21.70442051 -150.74153975 21.70442051 -147.2734375 29.59375 C-146.87820892 30.48447708 -146.48298035 31.37520416 -146.07577515 32.29292297 C-144.81761576 35.13114634 -143.56490464 37.97173326 -142.3125 40.8125 C-141.43678338 42.79137482 -140.56080384 44.77013331 -139.68457031 46.7487793 C-132.38404988 63.24738008 -125.13795078 79.7699911 -117.9375 96.3125 C-116.27599102 93.82023653 -115.2780257 91.87329397 -114.22021484 89.12451172 C-113.89106583 88.27465195 -113.56191681 87.42479218 -113.22279358 86.54917908 C-112.86825607 85.62287186 -112.51371857 84.69656464 -112.1484375 83.7421875 C-111.77242905 82.76870865 -111.39642059 81.7952298 -111.00901794 80.79225159 C-109.77359065 77.59191246 -108.54310477 74.38969621 -107.3125 71.1875 C-106.03099459 67.86478773 -104.74818677 64.5425801 -103.46534729 61.22038269 C-102.5909313 58.9555822 -101.71694248 56.69061674 -100.84336853 54.42549133 C-96.50878048 43.18864433 -92.13360841 31.9677959 -87.75 20.75 C-87.05449318 18.96925061 -86.359017 17.18848925 -85.66357422 15.40771484 C-84.08881654 11.37574173 -82.51339266 7.34402963 -80.9375 3.3125 C-80.26035446 3.30441315 -79.58320892 3.29632629 -78.88554382 3.28799438 C-71.79550372 3.20149381 -64.70572869 3.10197381 -57.6159668 2.99511719 C-54.9750618 2.95699071 -52.33410776 2.92211029 -49.69311523 2.890625 C-45.88247223 2.84461837 -42.07216214 2.78668371 -38.26171875 2.7265625 C-37.09356125 2.71501129 -35.92540375 2.70346008 -34.72184753 2.69155884 C-28.41892819 2.5797731 -22.51880834 2.00955307 -16.34037781 0.76318359 C-10.94940146 -0.24794755 -5.46442418 -0.01480874 0 0 Z " fill="#836C61" transform="translate(330.9375,165.6875)"/>
<path d="M0 0 C1.18529297 -0.01611328 2.37058594 -0.03222656 3.59179688 -0.04882812 C14.30240018 -0.05470339 23.84383119 1.7371162 33.375 6.6875 C35.13070312 7.59628906 35.13070312 7.59628906 36.921875 8.5234375 C39.499255 9.9916465 41.79159801 11.49650454 44.125 13.3125 C45.5790625 14.3025 45.5790625 14.3025 47.0625 15.3125 C49.5375 14.8175 49.5375 14.8175 52.0625 14.3125 C53.0525 10.6825 54.0425 7.0525 55.0625 3.3125 C56.7125 3.3125 58.3625 3.3125 60.0625 3.3125 C60.14702263 15.46614991 59.8794359 27.60114483 59.5625 39.75 C59.5141502 41.65689667 59.46597202 43.5637977 59.41796875 45.47070312 C59.30145256 50.08468794 59.18263181 54.69860797 59.0625 59.3125 C57.4125 59.3125 55.7625 59.3125 54.0625 59.3125 C53.89234375 58.15234375 53.7221875 56.9921875 53.546875 55.796875 C51.27194884 40.86566948 48.74867265 26.10988223 36.375 16 C24.60301452 8.12958685 13.01381501 6.60795648 -0.7734375 8.75390625 C-10.21555424 11.38775987 -16.53557464 18.22173758 -21.375 26.421875 C-31.52807382 45.20506158 -33.34881307 64.51102044 -33.25 85.5 C-33.24817719 86.30721497 -33.24635437 87.11442993 -33.24447632 87.94610596 C-33.16264925 109.52233236 -32.49003736 135.46387798 -17.05859375 152.37109375 C-11.5096986 157.59422206 -6.02561041 160.36332159 1.625 160.6875 C6.8821489 160.4877465 11.23351552 159.26341678 14.9375 155.3125 C17.22396695 151.24766987 17.23786714 147.49972704 17.265625 142.96875 C17.27417511 141.88225159 17.27417511 141.88225159 17.28289795 140.77380371 C17.2923432 139.23723811 17.29888005 137.7006523 17.30273438 136.1640625 C17.31235017 133.84858016 17.34333818 131.53402066 17.375 129.21875 C17.67522437 115.16819073 17.67522437 115.16819073 12 102.75 C7.81951475 100.70423062 3.62397496 100.06162028 -0.9375 99.3125 C-2.2743485 98.99355645 -3.60918135 98.66528671 -4.9375 98.3125 C-4.9375 96.9925 -4.9375 95.6725 -4.9375 94.3125 C20.4725 94.3125 45.8825 94.3125 72.0625 94.3125 C71.7325 95.9625 71.4025 97.6125 71.0625 99.3125 C69.40177151 99.99382451 67.734733 100.65992127 66.0625 101.3125 C64.19613697 104.92291816 63.79820902 107.9926508 63.74365234 112.02075195 C63.72378265 113.14153641 63.70391296 114.26232086 63.68344116 115.41706848 C63.67188995 116.6161937 63.66033875 117.81531891 63.6484375 119.05078125 C63.62907135 120.28668503 63.6097052 121.52258881 63.5897522 122.79594421 C63.54017445 126.06901967 63.49887171 129.342061 63.46160889 132.61529541 C63.42147981 135.96043457 63.37026548 139.30538373 63.3203125 142.65039062 C63.22433193 149.20431861 63.13926329 155.75832028 63.0625 162.3125 C61.7425 162.3125 60.4225 162.3125 59.0625 162.3125 C58.78535156 161.53003906 58.50820313 160.74757813 58.22265625 159.94140625 C57.86042969 158.92949219 57.49820313 157.91757812 57.125 156.875 C56.76535156 155.86566406 56.40570313 154.85632813 56.03515625 153.81640625 C55.29372361 151.40936255 55.29372361 151.40936255 54.0625 150.3125 C47.52605158 150.27272629 42.27619023 152.22868996 36.5 155.0625 C28.20919675 158.94647205 19.87164955 161.85143064 11.0625 164.3125 C10.4331958 164.49280762 9.8038916 164.67311523 9.15551758 164.85888672 C5.04532565 165.74967601 0.81370747 165.50280134 -3.375 165.5 C-4.35678223 165.50064453 -5.33856445 165.50128906 -6.35009766 165.50195312 C-13.7210044 165.44856713 -20.71072939 164.83966662 -27.9375 163.3125 C-27.9375 162.9825 -27.9375 162.6525 -27.9375 162.3125 C-25.6275 162.3125 -23.3175 162.3125 -20.9375 162.3125 C-20.9375 160.6625 -20.9375 159.0125 -20.9375 157.3125 C-21.989375 157.35375 -23.04125 157.395 -24.125 157.4375 C-28.67764429 157.28823297 -31.48077481 156.82125109 -34.6875 153.5 C-36.96748361 149.51002869 -37.06361095 145.37799059 -37.07794189 140.86099243 C-37.08365204 139.77880936 -37.08936218 138.69662628 -37.09524536 137.58164978 C-37.09636322 136.4043782 -37.09748108 135.22710663 -37.09863281 134.01416016 C-37.10359772 132.76646347 -37.10856262 131.51876678 -37.11367798 130.23326111 C-37.12576351 126.81789121 -37.13323839 123.40258234 -37.13768864 119.98719835 C-37.1406255 117.85119776 -37.1447314 115.71520247 -37.14919281 113.57920456 C-37.16285517 106.88952365 -37.17252862 100.19985493 -37.1763947 93.51016104 C-37.18087584 85.79977497 -37.19843152 78.08956614 -37.2273953 70.37923396 C-37.24903536 64.41049197 -37.25910018 58.44179979 -37.26043582 52.473019 C-37.26148197 48.9119626 -37.26734927 45.35107309 -37.28525543 41.79005814 C-37.30484885 37.81652392 -37.30043786 33.84321022 -37.29394531 29.86962891 C-37.30776749 28.10979424 -37.30776749 28.10979424 -37.3218689 26.31440735 C-37.29073131 20.23230277 -37.04664133 15.6154076 -33.9375 10.3125 C-30.77509418 8.20422945 -29.43092531 7.97432535 -25.75 7.6875 C-24.84894531 7.61273438 -23.94789063 7.53796875 -23.01953125 7.4609375 C-22.33246094 7.41195312 -21.64539063 7.36296875 -20.9375 7.3125 C-20.9375 5.9925 -20.9375 4.6725 -20.9375 3.3125 C-22.2575 2.9825 -23.5775 2.6525 -24.9375 2.3125 C-16.57896915 0.4520906 -8.54750731 -0.02316398 0 0 Z " fill="#514F4F" transform="translate(330.9375,165.6875)"/>
<path d="M0 0 C0.33 0 0.66 0 1 0 C1 39.6 1 79.2 1 120 C0.67 120 0.34 120 0 120 C-0.01981934 119.05793701 -0.03963867 118.11587402 -0.06005859 117.14526367 C-0.13887466 113.59832275 -0.22558529 110.05174685 -0.31738281 106.50512695 C-0.35530284 104.97981 -0.39021483 103.4544148 -0.421875 101.92895508 C-0.58729264 94.05352456 -0.95278425 86.49351917 -2.55908203 78.75561523 C-3.47578608 73.02646869 -3.28592678 67.22470486 -3.25 61.4375 C-3.25773438 60.18775391 -3.26546875 58.93800781 -3.2734375 57.65039062 C-3.26236941 52.38474872 -3.23584892 47.38903567 -1.98828125 42.2578125 C-0.19703931 34.48804094 -0.83074377 26.36005912 -0.9375 18.4375 C-0.96513088 15.94711659 -0.98977659 13.45678912 -1.00868225 10.96632385 C-1.0209388 9.42601741 -1.03854199 7.88574242 -1.06199646 6.3455658 C-1.07890159 4.56367089 -1.04469881 2.7814144 -1 1 C-0.67 0.67 -0.34 0.34 0 0 Z " fill="#746259" transform="translate(248,189)"/>
<path d="M0 0 C0.33 0 0.66 0 1 0 C1 16.5 1 33 1 50 C0.67 50 0.34 50 0 50 C-1.93851258 41.43455633 -2.30439141 33.19904929 -2.25 24.4375 C-2.25773438 23.18775391 -2.26546875 21.93800781 -2.2734375 20.65039062 C-2.25846407 13.52678156 -1.76396067 6.91219441 0 0 Z " fill="#4E4C4C" transform="translate(247,226)"/>
</svg>
