<svg width="24" height="24" viewBox="0 0 24 24" fill="none" xmlns="http://www.w3.org/2000/svg">
<rect x="0.395447" y="0.42688" width="23.2095" height="23.1467" rx="11.5734" fill="#2C6BFF"/>
<path d="M13.1644 12.0394L17.2017 16.0303L19.5998 16.0158L15.502 11.9916L19.605 7.96454L17.2378 7.93266L13.1644 12.0389V12.0394Z" fill="#F1F5FF"/>
<path d="M12.0567 10.8305L16.0706 6.8161L16.056 4.43157L12.0089 8.50594L7.95839 4.42688L7.92651 6.78047L12.0567 10.8309V10.8305Z" fill="#F1F5FF"/>
<path d="M10.8356 11.9241L6.79826 7.93313L4.40013 7.94766L8.49795 11.9719L4.39545 15.9989L6.76263 16.0308L10.8365 11.9245L10.8356 11.9241Z" fill="#F1F5FF"/>
<path d="M11.9432 13.1695L7.92932 17.1839L7.94385 19.5684L11.991 15.4945L16.0415 19.5736L16.0734 17.22L11.9432 13.1695Z" fill="#F1F5FF"/>
</svg>
