<svg width="817" height="305" viewBox="0 0 817 305" fill="none" xmlns="http://www.w3.org/2000/svg">
<g clip-path="url(#clip0_23365_47672)">
<path d="M175.441 153.293L256.211 233.656L304.19 233.366L222.217 152.338L304.291 71.2489L256.934 70.6077L175.441 153.293Z" fill="#262626"/>
<path d="M153.278 128.945L233.579 48.1129L233.289 0.0991113L152.323 82.1331L71.2951 -0.00335779L70.6543 47.3888L153.278 128.945Z" fill="#262626"/>
<path d="M128.85 150.97L48.08 70.6077L0.102447 70.8978L82.0741 151.926L0 233.014L47.3566 233.656L128.85 150.97Z" fill="#262626"/>
<path d="M151.014 176.052L70.7129 256.883L71.0023 304.897L151.969 222.863L232.997 305L233.636 257.607L151.014 176.052Z" fill="#262626"/>
<path d="M409.74 172.47C409.74 200.64 409.74 215.826 414.36 219.788C418.097 223.088 423.814 224.628 440.967 224.628C452.623 224.628 461.198 224.407 466.698 218.467C469.338 215.606 471.976 209.442 472.415 205.262C472.635 203.281 473.075 201.959 474.834 201.959C476.373 201.959 476.594 203.06 476.594 205.702C476.594 208.123 475.053 224.628 473.295 231.011C471.976 235.853 470.875 236.954 459.441 236.954C443.607 236.954 432.171 236.513 422.275 236.293C412.379 235.853 404.462 235.632 395.446 235.632C393.028 235.632 388.189 235.632 382.911 235.853C377.852 235.853 372.136 236.293 367.737 236.293C364.879 236.293 363.338 235.632 363.338 234.092C363.338 232.993 364.219 232.332 366.858 232.332C370.156 232.332 372.796 231.89 374.774 231.45C379.173 230.571 380.272 225.73 381.152 219.348C382.251 210.104 382.251 192.718 382.251 172.47V133.737C382.251 100.284 382.251 94.1212 381.811 87.0795C381.372 79.597 379.613 76.0756 372.356 74.5342C370.595 74.0944 367.957 73.8746 365.099 73.8746C362.679 73.8746 361.359 73.4348 361.359 71.8946C361.359 70.3532 362.898 69.9134 366.199 69.9134C376.533 69.9134 390.388 70.573 396.326 70.573C401.603 70.573 417.657 69.9134 426.233 69.9134C429.313 69.9134 430.853 70.3532 430.853 71.8946C430.853 73.4348 429.532 73.8746 426.892 73.8746C424.474 73.8746 420.957 74.0944 418.317 74.5342C412.379 75.6358 410.62 79.3771 410.18 87.0795C409.74 94.1212 409.74 100.284 409.74 133.737V172.47Z" fill="#262626"/>
<path d="M517.709 215.384C496.159 196.458 490.439 171.809 490.439 150.462C490.439 135.497 495.057 109.527 516.168 90.1599C532.004 75.6357 552.895 66.8317 585.661 66.8317C599.295 66.8317 607.431 67.7123 617.548 69.0327C625.905 70.1332 632.942 72.1143 639.539 72.774C641.958 72.995 642.838 74.0943 642.838 75.4147C642.838 77.176 642.178 79.8168 641.738 87.5192C641.299 94.7818 641.519 106.887 641.078 111.287C640.859 114.59 640.419 116.35 638.441 116.35C636.68 116.35 636.24 114.59 636.24 111.507C636.02 104.685 633.162 96.9817 627.664 91.2604C620.408 83.5569 603.255 77.6157 583.023 77.6157C563.89 77.6157 551.354 82.4575 541.679 91.2604C525.625 106.007 521.446 126.914 521.446 148.261C521.446 200.64 561.252 226.609 590.719 226.609C610.292 226.609 622.166 224.407 630.963 214.285C634.701 210.104 637.562 203.721 638.441 199.76C639.101 196.238 639.539 195.358 641.299 195.358C642.838 195.358 643.276 196.9 643.276 198.659C643.276 201.3 640.639 220.447 638.441 227.93C637.341 231.671 636.461 232.773 632.723 234.313C623.926 237.832 607.213 239.375 593.138 239.375C563.01 239.375 537.72 232.773 517.709 215.384Z" fill="#262626"/>
<path d="M744.867 144.299C751.904 155.084 787.53 214.725 793.028 221.767C796.766 226.61 800.065 229.25 805.784 231.011C809.521 232.111 812.16 232.332 814.139 232.332C815.678 232.332 816.998 232.773 816.998 234.092C816.998 235.632 815.239 236.293 812.82 236.293H806.223C800.945 236.293 783.571 236.293 766.638 235.853C760.92 235.632 759.162 235.192 759.162 233.653C759.162 232.332 760.261 231.671 762.239 231.23C763.338 231.011 764.219 229.03 762.679 226.171C750.586 204.602 738.049 182.815 727.933 166.308L695.386 218.907C693.188 222.428 692.087 225.73 692.307 228.15C692.528 230.131 694.509 231.45 696.486 231.89C697.806 232.111 699.784 232.332 701.545 232.332C702.863 232.332 704.184 232.993 704.184 234.313C704.184 235.853 702.645 236.293 699.784 236.293H695.827C694.509 236.293 680.654 235.632 675.155 235.632C670.976 235.632 660.2 236.293 656.682 236.293H652.944C650.744 236.293 649.646 235.632 649.646 234.313C649.646 232.993 650.966 232.332 652.724 232.332C654.263 232.332 657.561 232.111 660.862 231.23C667.239 229.471 671.416 225.29 678.893 214.725L720.896 154.645L683.072 91.9224C677.793 83.1172 672.517 77.8357 664.819 75.4148C661.3 74.3143 657.783 73.8745 655.583 73.8745C654.263 73.8745 653.385 73.2138 653.385 71.6735C653.385 70.3531 654.923 69.9134 657.783 69.9134C663.06 69.9134 680.873 70.573 691.208 70.573C694.288 70.573 706.602 69.9134 714.739 69.9134C717.818 69.9134 719.138 70.3532 719.138 71.8946C719.138 73.4348 717.818 73.8745 715.839 73.8745C714.52 73.8745 711.661 74.0944 709.901 74.754C707.923 75.4148 707.262 76.9551 707.262 78.2754C707.262 79.597 708.142 82.2366 709.463 84.6598C718.917 102.264 728.815 118.33 737.39 133.295C743.769 123.613 764.001 93.0218 767.298 86.8596C769.056 83.7768 769.715 80.2566 769.715 78.4953C769.715 76.955 768.176 75.1949 765.978 74.5342C763.78 73.8745 760.7 73.8745 758.941 73.8745C757.623 73.8745 756.303 73.4348 756.303 71.8946C756.303 70.573 757.842 69.9134 760.92 69.9134C769.497 69.9134 778.734 70.573 782.912 70.573C787.31 70.573 796.326 69.9134 804.462 69.9134C806.882 69.9134 808.421 70.573 808.421 71.8946C808.421 73.2138 807.102 73.8745 804.901 73.8745C802.703 73.8745 800.065 74.3143 796.985 75.1949C791.929 76.5153 787.53 82.6775 780.932 92.3622L744.867 144.299Z" fill="#262626"/>
</g>
<defs>
<clipPath id="clip0_23365_47672">
<rect width="817" height="305" fill="white"/>
</clipPath>
</defs>
</svg>
