<svg width="40" height="40" viewBox="0 0 40 40" fill="none" xmlns="http://www.w3.org/2000/svg">
<rect width="40" height="40" rx="20" fill="#FEE45D"/>
<path d="M19.9997 24.9994C19.9997 22.2383 17.7613 19.9995 14.9999 19.9995C12.2384 19.9995 10 22.2383 10 24.9994C10 27.7608 12.2384 29.9996 14.9999 29.9996C17.7613 29.9996 19.9997 27.7605 19.9997 24.9994Z" fill="black"/>
<path d="M21.4648 28.5356C23.4175 30.4882 26.5834 30.4882 28.5357 28.5356C30.488 26.5829 30.4884 23.4167 28.5357 21.4644L21.4648 28.5356Z" fill="black"/>
<path d="M23.536 23.5362C25.4887 21.5835 25.4887 18.4177 23.536 16.465C21.5834 14.5123 18.4175 14.5123 16.4648 16.465L23.536 23.5362Z" fill="black"/>
<path d="M28.5357 18.5354C30.4884 16.5827 30.4884 13.4169 28.5357 11.4645C26.583 9.51183 23.4172 9.51183 21.4648 11.4645L28.5357 18.5354Z" fill="black"/>
<path d="M18.5354 11.4645C16.5827 9.51183 13.4169 9.51183 11.4645 11.4645C9.51183 13.4172 9.51183 16.583 11.4645 18.5354L18.5354 11.4645Z" fill="black"/>
</svg>
