<?xml version="1.0" standalone="no"?>
<!DOCTYPE svg PUBLIC "-//W3C//DTD SVG 20010904//EN"
 "http://www.w3.org/TR/2001/REC-SVG-20010904/DTD/svg10.dtd">
<svg version="1.0" xmlns="http://www.w3.org/2000/svg"
 width="640.000000pt" height="640.000000pt" viewBox="0 0 640.000000 640.000000"
 preserveAspectRatio="xMidYMid meet">

<g transform="translate(0.000000,640.000000) scale(0.100000,-0.100000)"
fill="#000000" stroke="none">
<path d="M2 4873 c1 -841 3 -1505 5 -1478 6 97 34 308 48 369 7 33 23 106 35
161 23 107 105 387 123 420 6 11 10 23 9 28 -1 4 2 7 8 7 5 0 10 6 10 14 0 49
208 454 225 438 5 -4 5 -1 1 6 -9 16 163 274 177 265 6 -3 7 -1 3 5 -3 6 14
36 39 67 25 31 54 65 63 77 9 11 42 48 73 82 31 34 67 73 81 88 14 15 29 24
33 20 5 -4 6 -2 2 4 -6 11 112 121 126 116 5 -1 6 1 3 6 -6 10 74 79 86 74 5
-1 7 2 5 7 -3 13 123 112 134 105 5 -3 8 0 7 8 -2 7 5 12 15 11 10 0 16 1 13
5 -6 6 115 99 122 94 3 -2 8 0 11 5 25 35 399 234 516 274 22 8 43 18 47 24 4
5 8 7 8 2 0 -4 11 0 25 9 14 9 32 14 40 10 9 -3 14 -2 10 3 -4 8 33 22 70 27
6 0 24 7 40 13 75 32 405 109 540 127 22 3 56 7 75 10 19 3 80 9 135 13 56 5
-575 9 -1432 10 l-1533 1 2 -1527z"/>
<path d="M3430 6388 c47 -4 105 -11 130 -13 25 -3 52 -5 60 -6 26 -1 133 -19
175 -29 22 -5 83 -19 135 -30 113 -26 303 -80 310 -89 3 -3 15 -7 28 -8 13 -2
47 -14 75 -27 29 -13 94 -40 144 -61 51 -21 90 -42 87 -46 -3 -5 3 -6 12 -2
13 5 15 3 9 -7 -5 -9 -4 -11 3 -6 12 7 72 -19 83 -36 3 -5 9 -9 13 -9 23 2
148 -74 138 -84 -4 -5 -1 -5 6 -1 14 8 245 -142 237 -154 -3 -4 3 -7 13 -6 9
0 16 -5 14 -12 -1 -8 2 -11 7 -8 20 12 360 -286 353 -309 -2 -5 0 -7 3 -3 8 8
100 -88 192 -198 91 -110 103 -127 97 -136 -3 -5 -1 -7 4 -6 18 5 237 -330
257 -392 4 -11 11 -20 17 -20 5 0 8 -7 4 -15 -3 -8 -2 -15 2 -15 7 0 49 -85
97 -195 7 -16 27 -62 44 -102 17 -39 32 -82 33 -95 2 -12 5 -25 8 -28 19 -17
97 -328 140 -555 10 -53 28 -216 33 -300 2 -27 4 640 5 1483 l2 1532 -1527 -1
c-937 -1 -1495 -5 -1443 -11z"/>
<path d="M2 1533 l-2 -1533 1528 2 c840 0 1511 3 1492 5 -19 1 -87 8 -150 14
-63 6 -146 17 -185 24 -203 36 -540 126 -528 140 4 4 3 5 -3 2 -14 -8 -86 18
-77 28 5 4 2 5 -5 1 -7 -4 -18 -4 -25 2 -7 5 -35 17 -64 27 -29 10 -49 23 -46
28 3 6 1 7 -4 4 -15 -9 -116 37 -106 47 4 5 2 6 -5 2 -18 -10 -288 135 -275
148 5 4 4 7 -2 6 -21 -5 -36 0 -30 10 3 5 0 7 -7 5 -8 -3 -23 3 -33 12 -11 10
-50 38 -87 62 -38 24 -65 48 -61 54 3 6 1 7 -5 3 -15 -9 -214 151 -337 271
-166 160 -350 376 -338 395 3 6 2 8 -4 5 -5 -4 -38 35 -73 85 -57 83 -83 125
-143 228 -32 55 -130 250 -151 300 -11 25 -29 69 -42 98 -13 29 -25 61 -26 70
-2 9 -6 19 -9 22 -22 18 -133 435 -145 545 -3 22 -9 56 -14 75 -7 30 -21 155
-33 305 -2 22 -4 -650 -5 -1492z"/>
<path d="M6390 2998 c-1 -29 -8 -102 -16 -163 -8 -60 -15 -117 -15 -125 -1 -8
-14 -76 -30 -150 -36 -169 -43 -194 -96 -370 -20 -63 -40 -124 -46 -135 -6
-11 -12 -22 -12 -25 -1 -3 -7 -16 -13 -30 -5 -14 -24 -59 -42 -100 -55 -133
-224 -433 -254 -452 -6 -4 -8 -8 -4 -8 4 0 -19 -38 -52 -86 -64 -90 -66 -94
-102 -136 -13 -15 -41 -48 -63 -75 -22 -26 -63 -73 -90 -103 -28 -30 -66 -72
-84 -93 -19 -20 -36 -36 -37 -34 -2 2 -36 -29 -76 -68 -100 -97 -238 -206
-251 -198 -5 3 -7 2 -4 -4 9 -14 -352 -253 -382 -253 -5 0 -14 -7 -21 -15 -7
-9 -19 -14 -27 -11 -7 3 -13 2 -13 -3 0 -12 -167 -89 -265 -122 -22 -8 -42
-17 -45 -21 -10 -13 -101 -39 -113 -32 -6 4 -9 3 -4 -1 9 -10 -64 -34 -223
-74 -173 -43 -252 -61 -295 -66 -21 -3 -52 -8 -69 -11 -17 -3 -56 -8 -86 -10
-30 -3 -93 -9 -140 -13 -47 -4 605 -9 1448 -9 l1532 -2 0 1525 c0 839 -2 1525
-5 1525 -3 0 -5 -24 -5 -52z"/>
<path d="M930 956 c0 -2 8 -10 18 -17 15 -13 16 -12 3 4 -13 16 -21 21 -21 13z"/>
</g>
</svg>
