<svg width="601" height="645" viewBox="0 0 601 645" fill="none" xmlns="http://www.w3.org/2000/svg">
<path fill-rule="evenodd" clip-rule="evenodd" d="M0.632812 0C43.6665 0 78.5522 34.8856 78.5522 77.9193V344.591C78.5522 467.242 177.981 566.671 300.633 566.671C423.285 566.671 522.713 467.242 522.713 344.591V77.9194C522.713 34.8857 557.599 0 600.633 0V0V344.591C600.633 510.276 466.318 644.591 300.633 644.591C134.947 644.591 0.632812 510.276 0.632812 344.591V0V0Z" fill="#00D9A1"/>
<path fill-rule="evenodd" clip-rule="evenodd" d="M134.595 126.469C170.071 126.469 198.83 155.227 198.83 190.703V201.314C226.92 179.497 262.207 166.507 300.529 166.507C392.174 166.507 466.467 240.799 466.468 332.443H466.47C466.47 424.089 392.177 498.382 300.531 498.382C208.886 498.382 134.594 424.09 134.592 332.446H134.59C134.59 330.691 134.617 328.943 134.671 327.201H134.595L134.595 126.469ZM198.824 332.443H198.827C198.827 388.613 244.361 434.148 300.531 434.148C356.7 434.148 402.235 388.614 402.236 332.446H402.233C402.233 276.276 356.699 230.741 300.529 230.741C244.36 230.741 198.826 276.275 198.824 332.443Z" fill="#00D9A1"/>
<circle cx="431.395" cy="104.555" r="38.2348" fill="#00D9A1"/>
</svg>
