<?xml version="1.0" encoding="UTF-8"?>
<svg xmlns="http://www.w3.org/2000/svg" version="1.1" viewBox="0 0 256 256">
  <defs>
    <style>
      .cls-1 {
        fill: #fff;
      }

      .cls-2 {
        fill: none;
      }

      .cls-3 {
        fill: #8d3cb4;
      }
    </style>
  </defs>
  <!-- Generator: Adobe Illustrator 28.7.1, SVG Export Plug-In . SVG Version: 1.2.0 Build 142)  -->
  <g>
    <g id="Layer_1">
      <path class="cls-2" d="M127.7,0h.6c70.5,0,127.7,57.3,127.7,128h0c0,70.7-57.2,128-127.7,128h-.6C57.2,256,0,198.7,0,128H0C0,57.3,57.2,0,127.7,0Z"/>
      <path class="cls-3" d="M127.7,0h.6c70.5,0,127.7,57.3,127.7,128h0c0,70.7-57.2,128-127.7,128h-.6C57.2,256,0,198.7,0,128H0C0,57.3,57.2,0,127.7,0Z"/>
      <path class="cls-1" d="M181.7,75l-.5-.3-.3-.6c-8.7-21.8-29.4-36-52.9-36s-44.1,14.2-52.9,36l-.3.6-.5.3c-21.8,8.7-36,29.5-36,53s14.2,44.2,36,53l.5.3.3.6c8.7,21.9,29.4,36.1,52.9,36.1s44.1-14.2,52.9-36.1l.3-.6.5-.3c21.8-8.7,36-29.5,36-53s-14.2-44.2-36-53h0ZM92,64.1c9-10.4,22.1-16.4,36-16.4s27,6,36,16.4c1.1,1.4,1.4,3,.5,4.4s-2.2,2.5-3.8,2.5c-10.9,0-21.5,3-30.5,8.7-.8.6-1.4.6-2.2.6s-1.6-.3-2.2-.6c-9-5.7-19.6-8.7-30.5-8.7s-3.3-.8-3.8-2.5c-.8-1.6-.5-3.3.5-4.4ZM81.1,87.3c.5-3.3,3-5.7,6.3-6.3,2.7-.6,5.5-.6,7.9-.6,10.9,0,21.3,3.6,29.7,10.4,1.6,1.4,4.1,1.4,6,0,8.5-6.8,18.5-10.4,29.4-10.4s5.5.3,7.9.6c3.3.6,5.7,3,6.3,6.3.5,2.7.5,5.5.5,7.9,0,5.2-.8,10.4-2.5,15.6-.8,2.2-2.7,4.1-4.9,4.9-2.5.8-4.9.3-6.8-1.1-9.8-7.1-21.3-10.7-33.2-10.7s-23.4,3.8-33.2,10.7c-1.4,1.1-3,1.4-4.4,1.4s-1.6,0-2.5-.3c-2.5-.8-4.1-2.5-4.9-4.9-1.6-4.9-2.5-10.1-2.5-15.6s.3-5.5.8-7.9h0ZM158.5,128c0,2.5-1.4,4.9-3.3,6.3-7.9,5.7-17.4,8.5-27.2,8.5s-19.1-3-27.2-8.5c-2.2-1.4-3.3-3.8-3.3-6.3s1.4-4.9,3.3-6.3c7.9-5.7,17.4-8.5,27.2-8.5s19.1,3,27.2,8.5c1.9,1.4,3.3,3.8,3.3,6.3ZM71.1,160.8c0,1.6-.8,3.3-2.5,3.8-.5.3-1.1.3-1.6.3-1.1,0-1.9-.3-2.7-1.1-10.4-9-16.4-22.1-16.4-36.1s6-27,16.4-36.1c1.4-1.1,3-1.4,4.4-.6,1.6.8,2.5,2.2,2.5,3.8,0,10.9,3,21.3,8.7,30.6.8,1.4.8,3,0,4.4-5.7,9.3-8.7,19.9-8.7,30.9h0ZM164,191.9c-9,10.4-22.1,16.4-36,16.4s-27-6-36-16.4c-1.1-1.4-1.4-3-.5-4.4.8-1.6,2.2-2.5,3.8-2.5,10.9,0,21.5-3,30.5-8.7,1.4-.8,3-.8,4.6,0,9,5.7,19.6,8.7,30.5,8.7s3.3.8,3.8,2.5c.3,1.4.3,3.3-.8,4.4h0ZM174.9,168.7c-.5,3.3-3,5.7-6.3,6.3-2.7.6-5.5.6-7.9.6-10.9,0-21.3-3.6-29.7-10.4-1.6-1.4-4.1-1.4-5.7,0-8.5,6.8-18.8,10.4-29.7,10.4s-5.5-.3-7.9-.6c-3.3-.6-5.7-3-6.3-6.3-.5-2.7-.5-5.5-.5-7.9,0-5.2.8-10.4,2.5-15.6.8-2.2,2.7-4.1,4.9-4.9,2.5-.8,4.9-.3,6.8,1.1,9.8,7.1,21.3,10.6,33.2,10.6s23.4-3.8,33.2-10.6c1.9-1.4,4.4-1.9,6.8-1.1s4.1,2.5,4.9,4.9c1.6,4.9,2.5,10.1,2.5,15.6-.3,2.7-.3,5.2-.8,7.9h0ZM191.8,164.1c-.8.6-1.6,1.1-2.7,1.1s-1.1,0-1.6-.3c-1.6-.8-2.5-2.2-2.5-3.8,0-10.9-3-21.3-8.7-30.6-.8-1.4-.8-3,0-4.4,5.7-9,8.7-19.7,8.7-30.6s.8-3.3,2.5-3.8c1.4-.8,3.3-.6,4.4.6,10.4,9,16.4,22.1,16.4,36s-6,26.5-16.4,35.8h0Z"/>
    </g>
  </g>
</svg>