<?xml version="1.0" encoding="UTF-8"?>
<svg id="Layer_1" xmlns="http://www.w3.org/2000/svg" viewBox="0 0 256 256">
  <defs>
    <style>
      .cls-1 {
        fill: #fff;
      }

      .cls-2 {
        fill: none;
      }

      .cls-3 {
        fill: #8d3cb4;
      }
    </style>
  </defs>
  <path class="cls-2" d="M127.68,0h.63c70.52,0,127.68,57.31,127.68,128h0c0,70.69-57.17,128-127.68,128h-.63C57.17,256,0,198.69,0,128h0C0,57.31,57.17,0,127.68,0Z"/>
  <path class="cls-3" d="M127.68,0h.63c70.52,0,127.68,57.31,127.68,128h0c0,70.69-57.17,128-127.68,128h-.63C57.17,256,0,198.69,0,128h0C0,57.31,57.17,0,127.68,0Z"/>
  <path class="cls-1" d="M181.67,75.02l-.54-.27-.27-.55c-8.72-21.85-29.42-36.05-52.85-36.05s-44.13,14.2-52.85,36.05l-.27.55-.54.27c-21.79,8.74-35.96,29.49-35.96,52.98s14.17,44.24,35.96,52.98l.54.27.27.55c8.72,21.85,29.42,36.05,52.85,36.05s44.13-14.2,52.85-36.05l.27-.55.54-.27c21.79-8.74,35.96-29.49,35.96-52.98s-14.17-44.24-35.96-52.98ZM92.04,64.09c8.99-10.38,22.07-16.39,35.96-16.39s26.97,6.01,35.96,16.39c1.09,1.37,1.36,3,.54,4.37-.82,1.37-2.18,2.46-3.81,2.46-10.9,0-21.52,3-30.51,8.74-.82.55-1.36.55-2.18.55s-1.63-.27-2.18-.55c-8.99-5.74-19.61-8.74-30.51-8.74-1.63,0-3.27-.82-3.81-2.46-.82-1.64-.54-3.28.54-4.37ZM81.14,87.31c.54-3.28,3-5.73,6.27-6.28,2.72-.55,5.45-.55,7.9-.55,10.9,0,21.25,3.55,29.69,10.38,1.63,1.37,4.09,1.37,5.99,0,8.45-6.83,18.52-10.38,29.42-10.38,2.72,0,5.45.27,7.9.55,3.27.55,5.72,3,6.27,6.28.54,2.73.54,5.46.54,7.92,0,5.19-.82,10.38-2.45,15.57-.82,2.19-2.72,4.1-4.9,4.92-2.45.82-4.9.27-6.81-1.09-9.81-7.1-21.25-10.65-33.24-10.65s-23.43,3.82-33.24,10.65c-1.36,1.09-3,1.37-4.36,1.37-.82,0-1.63,0-2.45-.27-2.45-.82-4.09-2.46-4.9-4.92-1.63-4.92-2.45-10.1-2.45-15.57,0-2.73.27-5.46.82-7.92ZM158.51,128c0,2.46-1.36,4.92-3.27,6.28-7.9,5.73-17.44,8.47-27.24,8.47s-19.07-3-27.24-8.47c-2.18-1.37-3.27-3.82-3.27-6.28s1.36-4.92,3.27-6.28c7.9-5.73,17.44-8.47,27.24-8.47s19.07,3,27.24,8.47c1.91,1.37,3.27,3.82,3.27,6.28ZM71.06,160.77c0,1.64-.82,3.28-2.45,3.82-.54.27-1.09.27-1.63.27-1.09,0-1.91-.27-2.72-1.09-10.35-9.01-16.35-22.12-16.35-36.05s5.99-27.04,16.35-36.05c1.36-1.09,3-1.37,4.36-.55,1.63.82,2.45,2.18,2.45,3.82,0,10.92,3,21.3,8.72,30.59.82,1.37.82,3,0,4.37-5.72,9.29-8.72,19.94-8.72,30.86ZM163.96,191.91c-8.99,10.38-22.07,16.39-35.96,16.39s-26.97-6.01-35.96-16.39c-1.09-1.37-1.36-3-.54-4.37.82-1.64,2.18-2.46,3.81-2.46,10.9,0,21.52-3,30.51-8.74,1.36-.82,3-.82,4.63,0,8.99,5.74,19.61,8.74,30.51,8.74,1.63,0,3.27.82,3.81,2.46.27,1.37.27,3.28-.82,4.37ZM174.86,168.69c-.54,3.28-3,5.73-6.27,6.28-2.72.55-5.45.55-7.9.55-10.9,0-21.25-3.55-29.69-10.38-1.63-1.37-4.09-1.37-5.72,0-8.45,6.83-18.8,10.38-29.69,10.38-2.72,0-5.45-.27-7.9-.55-3.27-.55-5.72-3-6.27-6.28-.54-2.73-.54-5.46-.54-7.92,0-5.19.82-10.38,2.45-15.57.82-2.19,2.72-4.1,4.9-4.92,2.45-.82,4.9-.27,6.81,1.09,9.81,7.1,21.25,10.65,33.24,10.65s23.43-3.82,33.24-10.65c1.91-1.37,4.36-1.91,6.81-1.09,2.45.82,4.09,2.46,4.9,4.92,1.63,4.92,2.45,10.1,2.45,15.57-.27,2.73-.27,5.19-.82,7.92ZM191.75,164.05c-.82.55-1.63,1.09-2.72,1.09-.54,0-1.09,0-1.63-.27-1.63-.82-2.45-2.18-2.45-3.82,0-10.92-3-21.3-8.72-30.59-.82-1.37-.82-3,0-4.37,5.72-9.01,8.72-19.66,8.72-30.59,0-1.64.82-3.28,2.45-3.82,1.36-.82,3.27-.55,4.36.55,10.35,9.01,16.35,22.12,16.35,36.05s-5.99,26.49-16.35,35.78Z"/>
</svg>
