<svg width="256" height="256" viewBox="0 0 256 256" fill="none" xmlns="http://www.w3.org/2000/svg">
<circle cx="128" cy="128" r="128" fill="white"/>
<path fill-rule="evenodd" clip-rule="evenodd" d="M179.868 84.6382C179.868 79.8716 183.773 75.9998 188.601 75.9998C193.429 75.9998 197.343 79.8624 197.333 84.6382V171.361C197.333 176.128 193.429 180 188.601 180C183.782 180 179.868 176.137 179.868 171.361V84.6382ZM58.6667 84.6385C58.6667 79.8627 62.5806 76 67.3991 76C72.2268 76 76.1407 79.8627 76.1315 84.6385V171.361C76.1315 176.128 72.2268 180 67.3991 180C62.5806 180 58.6667 176.137 58.6667 171.361V84.6385ZM107.802 94.0258C102.974 94.0258 99.0692 97.8976 99.0692 102.664V153.335C99.0692 158.111 102.983 161.974 107.802 161.974C112.629 161.974 116.534 158.102 116.534 153.335V102.664C116.534 97.8884 112.629 94.0258 107.802 94.0258ZM139.473 117.211C139.473 112.444 143.378 108.572 148.206 108.572C153.024 108.572 156.938 112.444 156.938 117.211V138.588C156.938 143.354 153.024 147.226 148.206 147.226C143.387 147.226 139.473 143.364 139.473 138.588V117.211Z" fill="url(#paint0_linear_9079_35)"/>
<defs>
<linearGradient id="paint0_linear_9079_35" x1="58.6667" y1="128" x2="197.333" y2="128" gradientUnits="userSpaceOnUse">
<stop stop-color="#4400E2"/>
<stop offset="0.421875" stop-color="#F94E6C"/>
<stop offset="1" stop-color="#FFCB00"/>
</linearGradient>
</defs>
</svg>
