<?xml version="1.0" encoding="UTF-8"?>
<svg width="32px" height="32px" viewBox="0 0 32 32" version="1.1" xmlns="http://www.w3.org/2000/svg" xmlns:xlink="http://www.w3.org/1999/xlink">
    <title>DF</title>
    <g id="Page-1" stroke="none" stroke-width="1" fill="none" fill-rule="evenodd">
        <g id="Artboard备份" transform="translate(-1650.000000, -3959.000000)" fill-rule="nonzero">
            <g id="DF" transform="translate(1650.000000, 3959.000000)">
                <path d="M16,32 C11.1742381,32 6.84750542,29.8636409 3.9139614,26.4850821 C1.47577913,23.6770307 0,20.010878 0,16 C0,7.16336 7.16336,0 16,0 C24.83664,0 32,7.16336 32,16 C32,24.83664 24.83664,32 16,32 Z" id="Fill-504" fill="#FFFFFF"></path>
                <g id="编组-2" transform="translate(6.000000, 4.000000)">
                    <path d="M0,20.1666667 L0,4.58333333 L9.78744565,4.58333333 C13.488827,4.58333333 16.5,7.82027774 16.5,11.7989373 C16.5,15.7775971 13.488827,19.0145415 9.78744565,19.0145415 L8.61195316,19.0145415 L8.61195316,15.9501649 L9.78744565,15.9501649 C11.9080188,15.9501649 13.6333688,14.0879484 13.6333688,11.7989373 C13.6333688,9.51001445 11.9080188,7.64779801 9.78744565,7.64779801 L2.86654572,7.64779801 L2.86654572,20.1666667 L0,20.1666667 Z" id="Fill-1" fill="#FA9C00"></path>
                    <path d="M4.28680082,23.8333333 L4.28680082,9.50595781 L7.18730838,9.50595781 L7.18730838,20.8253081 L10.5793541,20.8253081 C15.2772643,20.8253081 19.0994059,16.829048 19.0994059,11.9166667 C19.0994059,7.00445824 15.2772643,3.00793866 10.5793541,3.00793866 L3.66666667,3.00793866 L3.66666667,0 L10.5793541,0 C16.876667,0 22,5.34575558 22,11.9165802 C22,18.4875778 16.876667,23.8333333 10.5793541,23.8333333 L4.28680082,23.8333333 Z" id="Fill-3" fill="#242A47"></path>
                </g>
            </g>
        </g>
    </g>
</svg>