<svg width="247" height="180" viewBox="0 0 247 180" fill="none" xmlns="http://www.w3.org/2000/svg">
    <path fill-rule="evenodd" clip-rule="evenodd"
        d="M214.867 6.12006C191.484 -6.47863 161.584 0.997979 148.084 22.8197L123.639 62.3311L148.884 75.9328L168.685 151.708C173.502 170.141 192.456 182.205 212.604 179.66C233.44 177.028 248.47 159.699 246.885 140.133L239.311 46.5832C239.653 30.4981 230.853 14.7328 214.867 6.12006Z"
        fill="url(#paint0_linear_379_999)" />
    <path fill-rule="evenodd" clip-rule="evenodd"
        d="M32.1323 6.12202C55.5156 -6.47668 85.4155 0.99995 98.9157 22.8215L123.36 62.3331L98.1153 75.9348L78.3143 151.71C73.4972 170.143 54.543 182.207 34.3954 179.662C13.5593 177.03 -1.46973 159.701 0.114504 140.135L7.68931 46.5819C7.34657 30.4979 16.148 14.7342 32.1323 6.12202Z"
        fill="url(#paint1_linear_379_999)" />
    <path
        d="M56.4883 58.3935C64.0822 58.3935 70.2383 52.6485 70.2383 45.5617C70.2383 38.4749 64.0822 32.73 56.4883 32.73C48.8944 32.73 42.7383 38.4749 42.7383 45.5617C42.7383 52.6485 48.8944 58.3935 56.4883 58.3935Z"
        fill="#070B10" />
    <path
        d="M189.914 58.3935C197.508 58.3935 203.664 52.6485 203.664 45.5617C203.664 38.4749 197.508 32.73 189.914 32.73C182.32 32.73 176.164 38.4749 176.164 45.5617C176.164 52.6485 182.32 58.3935 189.914 58.3935Z"
        fill="#070B10" />
    <defs>
        <linearGradient id="paint0_linear_379_999" x1="185.331" y1="12.297" x2="210.247" y2="180.592"
            gradientUnits="userSpaceOnUse">
            <stop stop-color="#FC2ECF" />
            <stop offset="1" stop-color="#8300EB" />
        </linearGradient>
        <linearGradient id="paint1_linear_379_999" x1="62.0898" y1="17.0514" x2="33.1323" y2="180.794"
            gradientUnits="userSpaceOnUse">
            <stop stop-color="#FC2ECF" />
            <stop offset="1" stop-color="#8300EB" />
        </linearGradient>
    </defs>
</svg>