<svg width="253" height="38" viewBox="0 0 253 38" fill="none" xmlns="http://www.w3.org/2000/svg">
<g clip-path="url(#clip0_433_100)">
<mask id="mask0_433_100" style="mask-type:luminance" maskUnits="userSpaceOnUse" x="0" y="0" width="253" height="38">
<path d="M253 0H0V38H253V0Z" fill="white"/>
</mask>
<g mask="url(#mask0_433_100)">
<path d="M223.069 0V9.8547C222.595 9.50881 222.098 9.2081 221.578 8.95127C220.077 8.20795 218.388 7.83625 216.511 7.83625C216.384 7.83625 216.262 7.83755 216.138 7.84139C216.113 7.84014 216.089 7.84014 216.063 7.84014C215.978 7.83755 215.892 7.83625 215.805 7.83625C215.253 7.83625 214.716 7.87624 214.194 7.95627C212.11 8.27506 210.275 9.23006 208.688 10.8239C208.624 10.8884 208.56 10.9542 208.497 11.02C208.45 11.0691 208.404 11.1194 208.357 11.1698C208.341 11.1866 208.325 11.2033 208.309 11.2214C208.194 11.3492 208.082 11.4782 207.973 11.6085C207.959 11.624 207.946 11.6395 207.933 11.6563C207.883 11.717 207.835 11.7776 207.787 11.8383C207.731 11.9092 207.678 11.9802 207.624 12.0512C207.464 12.2641 207.313 12.4823 207.171 12.7042C207.078 12.8501 206.988 12.9985 206.901 13.1482C206.899 13.152 206.898 13.1559 206.895 13.1598C206.863 13.2166 206.831 13.2734 206.8 13.3302C206.739 13.4437 206.679 13.5586 206.62 13.6747C206.591 13.7328 206.562 13.7921 206.534 13.8503C206.497 13.9289 206.461 14.0077 206.426 14.0877C206.358 14.2374 206.295 14.3897 206.235 14.5432C206.134 14.8001 206.043 15.0621 205.964 15.3292C205.94 15.4066 205.918 15.4828 205.896 15.5615C205.892 15.577 205.887 15.5912 205.884 15.6067C205.863 15.6815 205.844 15.7564 205.824 15.8313C205.803 15.9177 205.783 16.0055 205.763 16.0919C205.743 16.1797 205.723 16.2674 205.707 16.3552C205.692 16.4313 205.678 16.5075 205.664 16.5836C205.652 16.6495 205.64 16.7153 205.63 16.7811C205.625 16.8056 205.622 16.8302 205.617 16.856C205.615 16.8676 205.614 16.8792 205.612 16.8908C205.601 16.967 205.589 17.0418 205.579 17.1179C205.574 17.1528 205.57 17.1876 205.566 17.2225C205.564 17.2315 205.564 17.2393 205.563 17.2483C205.554 17.3257 205.545 17.4031 205.536 17.4819C205.528 17.5593 205.521 17.638 205.514 17.7155C205.498 17.8974 205.487 18.082 205.48 18.2691C205.478 18.2949 205.477 18.3207 205.476 18.3465C205.474 18.3607 205.474 18.3736 205.474 18.3878C205.474 18.4085 205.473 18.4278 205.472 18.4485C205.472 18.4807 205.47 18.5143 205.469 18.5478V18.5672C205.467 18.6627 205.467 18.7595 205.467 18.8563C205.467 18.9311 205.468 19.006 205.469 19.0796C205.469 19.1015 205.469 19.1222 205.47 19.1441C205.47 19.166 205.47 19.188 205.472 19.2086V19.2318C205.473 19.2874 205.476 19.3428 205.477 19.3984C205.477 19.4138 205.478 19.428 205.48 19.4435C205.483 19.5403 205.488 19.6371 205.495 19.7326C205.5 19.8178 205.506 19.903 205.514 19.9868C205.532 20.1946 205.555 20.3998 205.582 20.6037C205.763 21.9381 206.161 23.1758 206.774 24.3154C206.814 24.3902 206.857 24.4663 206.899 24.5412C206.938 24.6096 206.978 24.6767 207.018 24.7451C207.064 24.8213 207.111 24.8974 207.16 24.9736C207.19 25.0239 207.222 25.0742 207.257 25.1232C207.284 25.1645 207.311 25.2046 207.339 25.2446C207.37 25.291 207.401 25.3388 207.436 25.3852C207.468 25.4343 207.502 25.482 207.537 25.5285C207.584 25.5956 207.633 25.6614 207.683 25.7272C207.825 25.9156 207.974 26.1002 208.13 26.2821C208.183 26.3428 208.235 26.4035 208.287 26.4628C208.299 26.4771 208.312 26.4899 208.323 26.5029C208.381 26.5661 208.439 26.6293 208.497 26.6912C208.56 26.7571 208.624 26.8229 208.688 26.8874C210.276 28.4838 212.114 29.4401 214.2 29.7576C214.719 29.8363 215.255 29.8763 215.805 29.8763C215.914 29.8763 216.021 29.8815 216.134 29.8802C216.265 29.8828 216.394 29.8815 216.521 29.8815C218.093 29.8815 219.527 29.6247 220.832 29.115C224.783 27.4191 227.554 23.4649 227.554 18.8563V0H223.069ZM222.233 22.2944C222.154 22.4376 222.068 22.5783 221.977 22.7151C221.902 22.8286 221.823 22.9396 221.74 23.0493C221.674 23.1358 221.606 23.221 221.535 23.3048C221.429 23.4313 221.318 23.5552 221.201 23.6753C219.956 24.9322 218.391 25.5607 216.511 25.5607C214.631 25.5607 213.065 24.9322 211.819 23.6753C210.574 22.3898 209.95 20.7831 209.95 18.8563C209.95 16.9295 210.574 15.3369 211.819 14.08C213.065 12.7946 214.628 12.1519 216.511 12.1519C218.395 12.1519 219.956 12.7946 221.201 14.08C221.318 14.1974 221.429 14.3187 221.535 14.4426C221.606 14.5252 221.674 14.6091 221.74 14.6943C221.823 14.8014 221.902 14.9111 221.977 15.0233C222.068 15.1588 222.154 15.2969 222.233 15.4376C222.792 16.4275 223.071 17.5657 223.071 18.8563C223.071 20.1469 222.792 21.2916 222.233 22.2944Z" fill="white"/>
<path d="M253.001 18.8962C253.001 15.8234 252.019 13.2125 250.053 11.0612C248.116 8.90984 245.625 7.83481 242.581 7.83481C239.37 7.83481 236.74 8.89566 234.692 11.0186C232.644 13.1145 231.619 15.7266 231.619 18.8549C231.619 21.9832 232.658 24.6791 234.733 26.7737C236.81 28.8412 239.536 29.8749 242.912 29.8749C246.926 29.8749 249.956 28.3521 252.005 25.3077L248.309 23.1292C247.119 24.8611 245.334 25.7271 242.954 25.7271C241.238 25.7271 239.784 25.3077 238.595 24.4701C237.404 23.6041 236.644 22.3742 236.311 20.7817H252.835C252.946 19.9996 253.001 19.3711 253.001 18.8962ZM236.269 17.0946C236.574 15.502 237.28 14.245 238.387 13.3235C239.494 12.4021 240.878 11.9414 242.538 11.9414C244.005 11.9414 245.279 12.3737 246.358 13.2397C247.465 14.1056 248.171 15.391 248.475 17.0946H236.269ZM223.072 18.8549C223.072 17.5643 222.794 16.4261 222.235 15.4362C222.792 16.4261 223.071 17.5643 223.071 18.8549C223.071 20.1454 222.792 21.2901 222.235 22.2929C222.794 21.2901 223.072 20.1442 223.072 18.8549ZM173.702 22.2065C173.203 23.1847 172.455 23.9668 171.46 24.554C170.491 25.1399 169.398 25.4328 168.179 25.4328C166.353 25.4328 164.816 24.8044 163.571 23.5473C162.353 22.2903 161.745 20.7262 161.745 18.8549C161.745 16.9836 162.353 15.4194 163.571 14.1611C164.816 12.9041 166.353 12.2756 168.179 12.2756C169.425 12.2756 170.518 12.5699 171.46 13.1558C172.428 13.7146 173.148 14.4967 173.619 15.502L177.48 13.2397C176.65 11.5916 175.404 10.2791 173.743 9.30091C172.082 8.32394 170.242 7.83481 168.222 7.83481C165.094 7.83481 162.477 8.89566 160.374 11.0186C158.299 13.1145 157.26 15.7266 157.26 18.8549C157.26 21.9832 158.299 24.5669 160.374 26.6899C162.477 28.8141 165.094 29.8749 168.222 29.8749C170.242 29.8749 172.082 29.3858 173.743 28.4088C175.404 27.4306 176.677 26.1039 177.563 24.4275L173.702 22.2065ZM129.057 12.7376V8.37946H123.909V2.51257L119.424 3.85346V8.37946H115.605V12.7376H119.424V22.7936C119.424 25.5309 120.171 27.4164 121.666 28.4502C123.161 29.4555 125.625 29.7497 129.057 29.3303V25.2664C127.922 25.3219 126.966 25.336 126.191 25.3077C125.444 25.2522 124.877 25.0418 124.489 24.6791C124.102 24.2881 123.909 23.6596 123.909 22.7936V12.7376H129.057ZM114.176 18.8962C114.176 15.8234 113.193 13.2125 111.229 11.0612C109.29 8.90984 106.799 7.83481 103.755 7.83481C100.544 7.83481 97.9151 8.89566 95.8663 11.0186C93.8193 13.1145 92.7949 15.7266 92.7949 18.8549C92.7949 21.9832 93.8331 24.6791 95.9085 26.7737C97.984 28.8412 100.71 29.8749 104.087 29.8749C108.101 29.8749 111.132 28.3521 113.18 25.3077L109.485 23.1292C108.295 24.8611 106.509 25.7271 104.129 25.7271C102.414 25.7271 100.96 25.3077 99.7692 24.4701C98.5799 23.6041 97.8177 22.3742 97.4867 20.7817H114.01C114.121 19.9996 114.176 19.3711 114.176 18.8962ZM97.4444 17.0946C97.7489 15.502 98.4546 14.245 99.5621 13.3235C100.669 12.4021 102.053 11.9414 103.714 11.9414C105.18 11.9414 106.454 12.3737 107.534 13.2397C108.641 14.1056 109.347 15.391 109.651 17.0946H97.4444Z" fill="white"/>
<path d="M150.048 11.0078C149.625 10.5807 149.18 10.1974 148.712 9.85796C146.865 8.51192 144.679 7.83826 142.152 7.83826C142.026 7.83826 141.902 7.83951 141.78 7.8434C141.67 7.83951 141.558 7.83826 141.446 7.83826C138.595 7.83826 136.159 8.89906 134.138 11.0221C132.632 12.6042 131.687 14.4588 131.304 16.5856C131.288 16.6759 131.273 16.7663 131.258 16.8579C131.247 16.925 131.238 16.9934 131.228 17.0618C131.211 17.187 131.195 17.3135 131.182 17.44C131.171 17.5329 131.163 17.6245 131.155 17.7174C131.14 17.8994 131.128 18.0839 131.12 18.2711C131.117 18.3498 131.114 18.4298 131.112 18.5099C131.109 18.6247 131.107 18.7409 131.107 18.8583C131.107 18.9848 131.107 19.1099 131.112 19.2339C131.114 19.3048 131.117 19.3758 131.12 19.4455C131.124 19.5423 131.129 19.6391 131.136 19.7346C131.261 21.6975 131.816 23.445 132.8 24.9755C132.831 25.0258 132.863 25.0762 132.898 25.1252C133.257 25.6724 133.67 26.1951 134.138 26.6933C136.159 28.8175 138.595 29.8783 141.446 29.8783C141.556 29.8783 141.666 29.8784 141.775 29.8732C141.899 29.8771 142.025 29.8783 142.152 29.8783C144.679 29.8783 146.865 29.2202 148.712 27.9038V29.3337H153.195V18.8583C153.195 15.6887 152.146 13.074 150.048 11.0078ZM146.842 23.6772C145.597 24.9342 144.033 25.5627 142.152 25.5627C140.271 25.5627 138.706 24.9342 137.46 23.6772C136.215 22.3918 135.592 20.7851 135.592 18.8583C135.592 16.9315 136.215 15.3389 137.46 14.0819C138.706 12.7966 140.27 12.1539 142.152 12.1539C144.034 12.1539 145.597 12.7966 146.842 14.0819C148.089 15.3389 148.712 16.9302 148.712 18.8583C148.712 20.7864 148.089 22.3918 146.842 23.6772Z" fill="white"/>
<path d="M150.048 11.0078C149.625 10.5807 149.18 10.1974 148.712 9.85796C146.865 8.51192 144.679 7.83826 142.152 7.83826C142.026 7.83826 141.902 7.83951 141.78 7.8434C141.67 7.83951 141.558 7.83826 141.446 7.83826C138.595 7.83826 136.159 8.89906 134.138 11.0221C132.632 12.6042 131.687 14.4588 131.304 16.5856C131.288 16.6759 131.273 16.7663 131.258 16.8579C131.247 16.925 131.238 16.9934 131.228 17.0618C131.211 17.187 131.195 17.3135 131.182 17.44C131.171 17.5329 131.163 17.6245 131.155 17.7174C131.14 17.8994 131.128 18.0839 131.12 18.2711C131.117 18.3498 131.114 18.4298 131.112 18.5099C131.109 18.6247 131.107 18.7408 131.107 18.8583C131.107 18.9848 131.107 19.1099 131.112 19.2339C131.114 19.3048 131.117 19.3758 131.12 19.4455C131.124 19.5423 131.129 19.6391 131.136 19.7346C131.261 21.6975 131.816 23.4449 132.8 24.9755C132.831 25.0258 132.863 25.0762 132.898 25.1252C133.257 25.6724 133.67 26.1951 134.138 26.6933C136.159 28.8175 138.595 29.8783 141.446 29.8783C141.556 29.8783 141.662 29.8835 141.776 29.8822C141.907 29.8848 142.037 29.8822 142.163 29.8822C144.69 29.8822 146.865 29.2189 148.712 27.9025V29.3324H153.195V18.857C153.195 15.6874 152.146 13.0727 150.048 11.0065V11.0078ZM146.842 23.6772C145.597 24.9342 144.033 25.5627 142.152 25.5627C140.271 25.5627 138.706 24.9342 137.46 23.6772C136.215 22.3918 135.592 20.7851 135.592 18.8583C135.592 16.9315 136.215 15.3389 137.46 14.0819C138.706 12.7966 140.27 12.1539 142.152 12.1539C144.034 12.1539 145.597 12.7966 146.842 14.0819C148.089 15.3389 148.712 16.9302 148.712 18.8583C148.712 20.7864 148.089 22.3918 146.842 23.6772Z" fill="white"/>
<path d="M197.888 11.0441C197.464 10.6169 197.02 10.2336 196.552 9.89415C194.705 8.54812 192.518 7.87445 189.992 7.87445C189.866 7.87445 189.742 7.87575 189.62 7.87959C189.509 7.87575 189.398 7.87445 189.286 7.87445C186.434 7.87445 183.998 8.9353 181.978 11.0582C180.472 12.6405 179.527 14.495 179.144 16.6218C179.128 16.7122 179.112 16.8025 179.098 16.8941C179.087 16.9612 179.078 17.0296 179.068 17.098C179.051 17.2232 179.035 17.3497 179.022 17.4762C179.011 17.5691 179.002 17.6607 178.995 17.7537C178.979 17.9356 178.968 18.1202 178.96 18.3073C178.956 18.386 178.954 18.466 178.951 18.5461C178.949 18.6609 178.947 18.7771 178.947 18.8945C178.947 19.021 178.947 19.1462 178.952 19.27C178.954 19.341 178.956 19.412 178.96 19.4817C178.964 19.5785 178.969 19.6753 178.975 19.7708C179.101 21.7337 179.656 23.4811 180.64 25.0117C180.671 25.0621 180.703 25.1124 180.738 25.1614C181.097 25.7086 181.51 26.2313 181.978 26.7294C183.998 28.8537 186.434 29.9145 189.286 29.9145C189.396 29.9145 189.502 29.9197 189.616 29.9184C189.747 29.921 189.877 29.9184 190.003 29.9184C192.53 29.9184 194.705 29.2551 196.552 27.9387V29.3686H201.034V18.8932C201.034 15.7236 199.986 13.109 197.888 11.0428V11.0441ZM194.682 23.7135C193.437 24.9704 191.873 25.5989 189.992 25.5989C188.111 25.5989 186.546 24.9704 185.3 23.7135C184.055 22.428 183.432 20.8213 183.432 18.8945C183.432 16.9677 184.055 15.3751 185.3 14.1181C186.546 12.8328 188.109 12.19 189.992 12.19C191.874 12.19 193.437 12.8328 194.682 14.1181C195.929 15.3751 196.552 16.9664 196.552 18.8945C196.552 20.8226 195.929 22.428 194.682 23.7135Z" fill="white"/>
<path d="M89.1566 15.7309V29.332H84.6811V15.7309C84.6811 13.6879 83.0341 12.0257 81.0114 12.0257C78.9884 12.0257 77.3399 13.6879 77.3399 15.7309V29.332H72.8645V15.7309C72.8645 13.6879 71.2174 12.0257 69.1944 12.0257C67.1717 12.0257 65.5233 13.6879 65.5233 15.7309V29.332H61.0479V15.7309C61.0479 11.1894 64.6945 7.50873 69.1944 7.50873C71.4438 7.50873 73.4797 8.42893 74.9541 9.91691C75.0037 9.96724 75.0538 10.0189 75.1024 10.0705C76.5869 8.49214 78.6853 7.50873 81.0114 7.50873C83.3371 7.50873 85.2973 8.42893 86.7707 9.91691C88.2451 11.4049 89.1566 13.4595 89.1566 15.7309Z" fill="white"/>
<path fill-rule="evenodd" clip-rule="evenodd" d="M41.2788 1.46703C36.7867 -1.15053 31.0425 0.402839 28.449 4.93661L23.7529 13.1457L28.6027 15.9716L32.4067 31.715C33.3321 35.5448 36.9734 38.0511 40.844 37.5224C44.8469 36.9756 47.7344 33.3752 47.43 29.3101L45.9749 9.87383C46.0406 6.53191 44.3498 3.25646 41.2788 1.46703Z" fill="url(#paint0_linear_433_100)"/>
<path fill-rule="evenodd" clip-rule="evenodd" d="M6.17297 1.46703C10.6652 -1.15053 16.4093 0.402843 19.0028 4.93656L23.6989 13.1457L18.8491 15.9716L15.0451 31.715C14.1197 35.5448 10.4783 38.0511 6.60775 37.5224C2.60489 36.9756 -0.282353 33.3752 0.0219975 29.31L1.4772 9.87313C1.41136 6.53145 3.10222 3.25634 6.17297 1.46703Z" fill="url(#paint1_linear_433_100)"/>
<path d="M10.8515 12.3266C12.3104 12.3266 13.493 11.133 13.493 9.66067C13.493 8.18826 12.3104 6.99469 10.8515 6.99469C9.39259 6.99469 8.20996 8.18826 8.20996 9.66067C8.20996 11.133 9.39259 12.3266 10.8515 12.3266Z" fill="#070B10"/>
<path d="M36.4843 12.3266C37.9432 12.3266 39.1258 11.133 39.1258 9.66067C39.1258 8.18826 37.9432 6.99469 36.4843 6.99469C35.0254 6.99469 33.8428 8.18826 33.8428 9.66067C33.8428 11.133 35.0254 12.3266 36.4843 12.3266Z" fill="#070B10"/>
</g>
</g>
<defs>
<linearGradient id="paint0_linear_433_100" x1="35.6047" y1="2.75038" x2="41.1827" y2="37.5894" gradientUnits="userSpaceOnUse">
<stop stop-color="#FC2ECF"/>
<stop offset="1" stop-color="#8300EB"/>
</linearGradient>
<linearGradient id="paint1_linear_433_100" x1="11.9281" y1="3.73777" x2="5.45491" y2="37.5835" gradientUnits="userSpaceOnUse">
<stop stop-color="#FC2ECF"/>
<stop offset="1" stop-color="#8300EB"/>
</linearGradient>
<clipPath id="clip0_433_100">
<rect width="253" height="38" fill="white"/>
</clipPath>
</defs>
</svg>
