<svg width="185" height="185" viewBox="0 0 185 185" fill="none" xmlns="http://www.w3.org/2000/svg">
<circle cx="92.5" cy="92.5" r="87.5" fill="white" stroke="url(#paint0_linear_1464_7391)" stroke-width="10"/>
<path d="M82 95H104.3C105.8 95 107.1 96.2 107.1 97.8C107.1 99.3 105.9 100.6 104.3 100.6H82C80.5 100.6 79.2 99.4 79.2 97.8C79.2 96.3 80.5 95 82 95Z" fill="#713B9C"/>
<path d="M77.8 105.5H108.5C110 105.5 111.3 106.7 111.3 108.3C111.3 109.8 110.1 111.1 108.5 111.1H77.8C76.3 111.1 75 109.9 75 108.3C75 106.7 76.3 105.5 77.8 105.5Z" fill="#152675"/>
<path d="M82 115.9H104.3C105.8 115.9 107.1 117.1 107.1 118.7C107.1 120.2 105.9 121.5 104.3 121.5H82C80.5 121.5 79.2 120.3 79.2 118.7C79.2 117.2 80.5 115.9 82 115.9Z" fill="#0B4077"/>
<path fill-rule="evenodd" clip-rule="evenodd" d="M92.5091 29.425C108.809 29.425 122.009 42.625 122.009 58.925V59.725V69.225C118.409 66.625 114.609 64.425 110.609 62.325V59.425C110.609 49.425 102.509 41.325 92.5091 41.325C82.5091 41.325 74.4091 49.525 74.4091 59.525V61.625C70.3091 63.425 66.4091 65.825 63.0091 68.825V59.725C62.6091 43.525 75.4091 29.925 91.7091 29.525C91.8743 29.525 92.0394 29.4947 92.1879 29.4674C92.3091 29.4452 92.4192 29.425 92.5091 29.425Z" fill="url(#paint1_linear_1464_7391)"/>
<path fill-rule="evenodd" clip-rule="evenodd" d="M93.1018 65.525C97.7018 65.525 102.202 66.325 106.602 67.825C113.002 70.425 118.902 74.325 123.802 79.225C139.202 96.325 137.702 122.725 120.502 138.125C103.302 153.525 77.0018 152.025 61.6018 134.825C54.8018 127.225 51.0018 117.325 51.0018 107.125C50.9018 96.325 55.0018 85.825 62.6018 78.025C66.7018 74.525 71.2018 71.525 76.1018 69.225C76.5018 69.025 76.9268 68.825 77.3518 68.625C77.7768 68.425 78.2018 68.225 78.6018 68.025L80.0018 67.525C84.3018 66.225 88.7018 65.525 93.1018 65.525ZM92.7018 136C108.442 136 121.202 123.24 121.202 107.5C121.202 91.7599 108.442 79 92.7018 79C76.9617 79 64.2018 91.7599 64.2018 107.5C64.2018 123.24 76.9617 136 92.7018 136Z" fill="url(#paint2_linear_1464_7391)"/>
<defs>
<linearGradient id="paint0_linear_1464_7391" x1="92.5" y1="0" x2="92.5" y2="185" gradientUnits="userSpaceOnUse">
<stop stop-color="#796CC7"/>
<stop offset="1" stop-color="#7BC8C9"/>
</linearGradient>
<linearGradient id="paint1_linear_1464_7391" x1="92.5046" y1="29.425" x2="108.5" y2="59" gradientUnits="userSpaceOnUse">
<stop stop-color="#9352C1"/>
<stop offset="1" stop-color="#9274BE"/>
</linearGradient>
<linearGradient id="paint2_linear_1464_7391" x1="93" y1="76.5" x2="93" y2="154.5" gradientUnits="userSpaceOnUse">
<stop stop-color="#8068B5"/>
<stop offset="0.4" stop-color="#6173AF"/>
<stop offset="1" stop-color="#6DC2C6"/>
</linearGradient>
</defs>
</svg>
