<svg viewBox="0 0 512 512"
    xmlns="http://www.w3.org/2000/svg">
    <circle cx="256" cy="256" fill="#d62d79" r="256"/>
    <g fill="#fff">
        <path d="M384 272H128c-8.8 0-16 7.2-16 16s7.2 16 16 16h21.2c-3.1 9-6 17.3-8.6 24.8-3.5 10.2-6.5 18.7-8.5 24.7l-3.2 9.3c-2.9 8.4 1.5 17.5 9.9 20.4s17.5-1.5 20.4-9.9l3.2-9.3c2.1-5.9 5-14.4 8.5-24.7s7.7-22.3 12.2-35.2H329c4.5 13 8.6 25 12.2 35.2 3.5 10.3 6.5 18.8 8.5 24.7l3.2 9.3c2.9 8.4 12 12.8 20.3 9.9 8.4-2.9 12.8-12 9.9-20.4l-3.2-9.3c-2.1-5.9-5-14.4-8.5-24.7-2.6-7.4-5.5-15.8-8.6-24.8H384c8.8 0 16-7.2 16-16s-7.2-16-16-16zM128 240h256c8.8 0 16-7.2 16-16s-7.2-16-16-16h-54.3c-13.4-38.9-24.6-71.3-26.5-77.1-3.4-10.2-9-19.3-17.6-25.7C277 98.7 266.7 96 256 96s-21 2.7-29.6 9.2c-8.6 6.4-14.2 15.4-17.6 25.7-1.9 5.8-13.1 38.2-26.5 77.1H128c-8.8 0-16 7.2-16 16s7.2 16 16 16zm111.2-98.9c1.9-5.8 4.3-8.7 6.4-10.3 2-1.5 5.2-2.8 10.4-2.8 5.3 0 8.4 1.3 10.4 2.8 2.1 1.6 4.5 4.6 6.4 10.3 1.8 5.3 11.2 32.7 23 66.9h-79.6c11.8-34.1 21.2-61.5 23-66.9z"/>
    </g>
</svg>
