<?xml version="1.0" encoding="utf-8"?>
<svg viewBox="325.481 12.24 77.284 77.284" xmlns="http://www.w3.org/2000/svg">
  <path d="m 0,0 c -13.491,0 -24.464,10.975 -24.464,24.464 0,0.056 0.007,0.11 0.007,0.164 L 0.164,0.007 C 0.109,0.007 0.055,0 0,0 M 1.308,0.066 V 17.102 H 19.549 L 5.195,31.457 V 25.324 L 9.081,21.438 H -3.027 V 15.306 13.053 9.33 l -20.759,20.762 -3.648,3.645 c -0.988,-2.915 -1.548,-6.027 -1.548,-9.273 0,-15.98 13.001,-28.981 28.982,-28.981 10.845,0 20.265,6.015 25.225,14.863 l -3.344,3.342 C 18.078,5.977 10.362,0.548 1.308,0.066" style="fill:#70cc8b;fill-opacity:1;fill-rule:nonzero;stroke:none" id="path50" transform="matrix(1.333333, 0, 0, -1.333333, 364.12384, 83.502029)"/>
  <path d="m 0,0 -24.621,24.621 c 0.057,0 0.11,0.007 0.164,0.007 13.489,0 24.464,-10.974 24.464,-24.465 C 0.007,0.109 0,0.056 0,0 m -24.457,29.145 c -10.845,0 -20.265,-6.015 -25.224,-14.862 l 3.342,-3.343 c 3.804,7.71 11.52,13.14 20.572,13.622 V 7.527 h -18.239 l 14.353,-14.353 v 6.131 l -3.883,3.886 h 12.106 v 7.64 4.468 l 20.762,-20.76 3.646,-3.647 c 0.988,2.915 1.546,6.026 1.546,9.271 0,15.982 -13,28.982 -28.981,28.982" style="fill:#70cc8b;fill-opacity:1;fill-rule:nonzero;stroke:none" id="path54" transform="matrix(1.333333, 0, 0, -1.333333, 396.733154, 51.1003)"/>
</svg>