<svg width="256" height="256" viewBox="0 0 256 256" fill="none" xmlns="http://www.w3.org/2000/svg">
<path fill-rule="evenodd" clip-rule="evenodd" d="M128 256C198.692 256 256 198.692 256 128C256 57.3076 198.692 0 128 0C57.3076 0 0 57.3076 0 128C0 198.692 57.3076 256 128 256ZM128 235.52C187.382 235.52 235.52 187.382 235.52 128C235.52 68.6183 187.382 20.48 128 20.48C68.6183 20.48 20.48 68.6183 20.48 128C20.48 187.382 68.6183 235.52 128 235.52Z" fill="url(#paint0_linear_6815_8)"/>
<path d="M84.1671 195.458L73.2031 176.461C72.8626 175.757 72.8626 174.935 73.2031 174.231L85.3847 153.126C85.8176 152.463 86.5393 152.045 87.3294 152H111.681C112.472 152.046 113.196 152.463 113.632 153.126L125.807 174.231C126.16 174.941 126.16 175.775 125.807 176.484L113.597 197.578C113.161 198.223 112.456 198.635 111.681 198.698H89.805C87.5255 198.551 85.4431 197.354 84.1671 195.458ZM163.224 152.017L138.987 109.968C138.389 109.068 137.405 108.5 136.327 108.431H87.7968C86.7192 108.5 85.7354 109.068 85.1366 109.968L60.8714 152.04C60.3929 153.008 60.3929 154.145 60.8714 155.113L68.0096 167.45L80.4509 145.894C81.1324 144.854 82.2631 144.195 83.5035 144.115H115.472C116.722 144.185 117.864 144.846 118.548 145.894L134.538 173.619C135.104 174.738 135.104 176.059 134.538 177.177L122.097 198.733H136.31C137.39 198.669 138.377 198.097 138.97 197.191L163.224 155.124C163.714 154.147 163.714 152.995 163.224 152.017ZM207.253 124.194L170.062 59.6415C168.777 57.6777 166.633 56.4443 164.291 56.3203H89.8511C87.5089 56.4443 85.3658 57.6777 84.0806 59.6415L46.872 124.194C45.8161 126.278 45.8161 128.741 46.872 130.825L55.4067 145.617L80.1277 102.719C80.9754 101.424 82.3867 100.61 83.9305 100.524H140.142C141.684 100.61 143.093 101.425 143.939 102.719L172.035 151.428C172.734 152.808 172.734 154.438 172.035 155.818L147.291 198.698H164.314C166.657 198.575 168.8 197.341 170.085 195.377L207.293 130.831C208.344 128.745 208.344 126.285 207.293 124.2L207.253 124.194Z" fill="url(#paint1_linear_6815_8)"/>
<defs>
<linearGradient id="paint0_linear_6815_8" x1="191.989" y1="30.2194" x2="64.1682" y2="226.065" gradientUnits="userSpaceOnUse">
<stop stop-color="#FE01FA"/>
<stop offset="0.316319" stop-color="#FF0F6F"/>
<stop offset="0.519531" stop-color="#FF3D3D"/>
<stop offset="0.708633" stop-color="#FF851F"/>
<stop offset="1" stop-color="#FFDB01"/>
</linearGradient>
<linearGradient id="paint1_linear_6815_8" x1="167.574" y1="73.1314" x2="100.514" y2="190.013" gradientUnits="userSpaceOnUse">
<stop stop-color="#FE01FA"/>
<stop offset="0.316319" stop-color="#FF0F6F"/>
<stop offset="0.519531" stop-color="#FF3D3D"/>
<stop offset="0.708633" stop-color="#FF851F"/>
<stop offset="1" stop-color="#FFDB01"/>
</linearGradient>
</defs>
</svg>
