<svg width="1001" height="1001" viewBox="0 0 1001 1001" fill="none" xmlns="http://www.w3.org/2000/svg">
<path d="M129.388 303.711L488.346 91.1699L847.304 284.818V731.941L497.792 928.738L112.07 716.197L129.388 303.711Z" fill="white"/>
<path fill-rule="evenodd" clip-rule="evenodd" d="M512.998 985.794L918.533 750.644C921.67 748.825 924.274 746.213 926.082 743.071C927.891 739.929 928.841 736.367 928.837 732.742L927.865 264.117C927.855 260.489 926.891 256.928 925.069 253.791C923.248 250.653 920.634 248.049 917.488 246.239L510.981 12.8134C507.837 10.9991 504.271 10.044 500.641 10.044C497.011 10.044 493.445 10.9991 490.301 12.8134L84.7654 247.988C81.6262 249.803 79.0223 252.414 77.2172 255.557C75.4122 258.701 74.4699 262.265 74.486 265.89L75.4581 734.515C75.4604 738.141 76.4213 741.702 78.2435 744.837C80.0658 747.972 82.6845 750.57 85.8347 752.368L492.342 985.794C495.481 987.609 499.044 988.564 502.67 988.564C506.296 988.564 509.859 987.609 512.998 985.794ZM627.577 427.564L805.923 322.898C807.476 321.979 808.763 320.67 809.654 319.1C810.545 317.531 811.01 315.756 811.003 313.951C810.995 312.146 810.516 310.375 809.612 308.813C808.708 307.25 807.411 305.952 805.85 305.045L511.2 135.866C508.06 134.052 504.498 133.096 500.872 133.096C497.245 133.096 493.683 134.052 490.544 135.866L191.423 309.272C188.28 311.091 185.673 313.706 183.864 316.853C182.055 320 181.108 323.568 181.119 327.198L181.386 426.276C181.389 429.899 182.347 433.457 184.164 436.592C185.982 439.726 188.595 442.326 191.738 444.129L384.98 555.183C388.132 556.991 390.752 559.598 392.574 562.741C394.396 565.884 395.356 569.452 395.357 573.084V672.455C395.355 673.662 395.035 674.848 394.431 675.893C393.826 676.939 392.958 677.807 391.913 678.412C390.867 679.017 389.681 679.337 388.473 679.34C387.265 679.343 386.077 679.029 385.029 678.43L294.653 626.522C292.56 625.295 290.829 623.536 289.634 621.425C288.439 619.314 287.823 616.924 287.849 614.499L287.728 581.902C287.713 578.245 286.729 574.658 284.877 571.505C283.024 568.352 280.369 565.745 277.181 563.951L196.647 518.796C195.075 517.914 193.299 517.459 191.496 517.476C189.693 517.493 187.926 517.981 186.37 518.893C184.815 519.804 183.525 521.106 182.629 522.671C181.734 524.235 181.263 526.006 181.265 527.808V589.723L181.483 672.94C181.486 676.566 182.447 680.127 184.269 683.262C186.091 686.397 188.71 688.995 191.86 690.793L481.723 856.742C483.82 857.944 486.196 858.573 488.614 858.566C491.031 858.56 493.404 857.917 495.495 856.704C497.585 855.49 499.319 853.749 500.523 851.654C501.728 849.558 502.359 847.183 502.354 844.767L501.868 510.805C501.86 507.177 500.897 503.615 499.076 500.477C497.254 497.339 494.639 494.735 491.492 492.928L299.271 382.482C298.22 381.88 297.348 381.011 296.741 379.964C296.134 378.917 295.814 377.728 295.814 376.518C295.814 375.308 296.134 374.12 296.741 373.073C297.348 372.026 298.22 371.157 299.271 370.555L490.908 259.745C494.052 257.93 497.618 256.975 501.249 256.975C504.879 256.975 508.445 257.93 511.589 259.745L598.27 309.587C599.32 310.189 600.193 311.058 600.8 312.105C601.407 313.152 601.726 314.341 601.726 315.551C601.726 316.761 601.407 317.949 600.8 318.996C600.193 320.043 599.32 320.912 598.27 321.514L521.868 365.527C520.265 366.452 518.94 367.79 518.031 369.402C517.123 371.014 516.664 372.84 516.704 374.69C516.744 376.54 517.28 378.345 518.257 379.916C519.234 381.488 520.615 382.768 522.257 383.623L607.602 428.074C610.702 429.687 614.161 430.486 617.656 430.397C621.149 430.308 624.564 429.333 627.577 427.564Z" fill="black"/>
<path d="M607.092 565.091L607.263 682.022C607.266 684.44 607.905 686.813 609.117 688.905C610.329 690.997 612.07 692.733 614.166 693.939C616.261 695.146 618.638 695.779 621.056 695.777C623.475 695.774 625.85 695.135 627.943 693.924L729.035 635.313C732.169 633.487 734.769 630.87 736.573 627.724C738.377 624.578 739.322 621.013 739.314 617.387L739.071 500.577C739.068 498.159 738.428 495.786 737.217 493.694C736.005 491.602 734.264 489.866 732.168 488.66C730.072 487.453 727.696 486.82 725.277 486.823C722.859 486.825 720.484 487.464 718.391 488.675L617.396 547.189C614.254 549.002 611.647 551.612 609.837 554.756C608.028 557.899 607.081 561.464 607.092 565.091Z" fill="#FF4F20"/>
</svg>
