<?xml version="1.0" encoding="UTF-8" standalone="no"?>
<!-- Generator: Adobe Illustrator 16.0.0, SVG Export Plug-In . SVG Version: 6.00 Build 0)  -->

<svg
   version="1.1"
   id="Capa_1"
   x="0px"
   y="0px"
   width="256"
   height="256"
   viewBox="0 0 256 256"
   enable-background="new 0 0 32 32"
   xml:space="preserve"
   inkscape:version="1.2.1 (9c6d41e, 2022-07-14)"
   sodipodi:docname="brightid-transparent-background.svg"
   inkscape:export-filename="C:\Users\Adam\Pictures\BrightID\brightid-transparent-outside.png"
   inkscape:export-xdpi="153.60001"
   inkscape:export-ydpi="153.60001"
   xmlns:inkscape="http://www.inkscape.org/namespaces/inkscape"
   xmlns:sodipodi="http://sodipodi.sourceforge.net/DTD/sodipodi-0.dtd"
   xmlns="http://www.w3.org/2000/svg"
   xmlns:svg="http://www.w3.org/2000/svg"
   xmlns:rdf="http://www.w3.org/1999/02/22-rdf-syntax-ns#"
   xmlns:cc="http://creativecommons.org/ns#"
   xmlns:dc="http://purl.org/dc/elements/1.1/"><metadata
   id="metadata21"><rdf:RDF><cc:Work
       rdf:about=""><dc:format>image/svg+xml</dc:format><dc:type
         rdf:resource="http://purl.org/dc/dcmitype/StillImage" /></cc:Work></rdf:RDF></metadata><defs
   id="defs19">
	
	
</defs><sodipodi:namedview
   pagecolor="#b8b8b8"
   bordercolor="#666666"
   borderopacity="1"
   objecttolerance="10"
   gridtolerance="10"
   guidetolerance="10"
   inkscape:pageopacity="0"
   inkscape:pageshadow="2"
   inkscape:window-width="1920"
   inkscape:window-height="1027"
   id="namedview17"
   showgrid="false"
   inkscape:zoom="0.61388471"
   inkscape:cx="512.31118"
   inkscape:cy="533.4878"
   inkscape:window-x="16"
   inkscape:window-y="26"
   inkscape:window-maximized="0"
   inkscape:current-layer="Capa_1"
   inkscape:showpageshadow="2"
   inkscape:pagecheckerboard="0"
   inkscape:deskcolor="#b8b8b8" />
<g
   id="g460"
   transform="matrix(0.32,0,0,0.32,-35.839997,-35.839993)"><g
     transform="matrix(25.463921,0,0,25.522413,104.58999,103.65415)"
     id="g5">
		<g
   id="g7">
			<g
   id="g9">
				<path
   d="m 11.141,11.328 v 5.099 c 0,2.815 2.284,5.099 5.102,5.099 2.815,0 5.099,-2.283 5.099,-5.099 0,-2.816 -2.283,-5.099 -5.099,-5.099 -0.006,0 -0.015,0 -0.021,0 v 0 z"
   id="path11"
   inkscape:connector-curvature="0"
   style="fill:#fb8a61" />
				<path
   d="M 17.047,0.327 H 14.991 11.14 v 5.899 h 5.081 v 0 c 0.006,0 0.015,0 0.021,0 5.633,0 10.199,4.568 10.199,10.2 0,5.632 -4.566,10.2 -10.199,10.2 -5.635,0 -10.198,-4.568 -10.198,-10.2 V 11.327 H 0.291 v 4.666 h 0.037 c 0.009,8.66 7.029,15.679 15.691,15.679 8.666,0 15.689,-7.024 15.689,-15.693 C 31.709,7.661 25.233,0.855 17.047,0.327 Z"
   id="path13"
   inkscape:connector-curvature="0"
   style="fill:#fb8a61" />
			</g>
		</g>
	</g><rect
     x="112.00559"
     y="112.0097"
     width="145.0425"
     height="151.65417"
     id="rect15"
     style="fill:#fb8a61;stroke-width:1.5534" /></g>
</svg>
