<svg width="256" height="256" viewBox="0 0 256 256" fill="none" xmlns="http://www.w3.org/2000/svg">
<g clip-path="url(#clip0_32_2)">
<path d="M256 128C256 57.3076 198.692 0 128 0C57.3076 0 0 57.3076 0 128C0 198.692 57.3076 256 128 256C198.692 256 256 198.692 256 128Z" fill="#24E5DF"/>
<path d="M127.919 20.48C68.5855 20.48 20.48 68.7979 20.48 128.393C20.48 187.987 68.5855 236.302 127.919 236.302C187.254 236.302 235.354 187.988 235.354 128.393C235.354 68.7968 187.25 20.48 127.919 20.48ZM164.275 164.919C127.768 201.592 81.8885 214.967 61.8035 194.797C41.7194 174.629 55.0424 128.544 91.5584 91.8715C128.068 55.1986 173.944 41.819 194.033 61.9856C214.116 82.1524 200.794 128.238 164.275 164.919Z" fill="#133D38"/>
</g>
<defs>
<clipPath id="clip0_32_2">
<rect width="256" height="256" fill="white"/>
</clipPath>
</defs>
</svg>
