<svg viewBox="0 0 40 40" fill="none"
  xmlns="http://www.w3.org/2000/svg">
  <path
    d="M20.0668 39.9332C31.0756 39.8963 39.9701 30.942 39.9332 19.9332C39.8963 8.92435 30.942 0.0298583 19.9332 0.0667488C8.9244 0.103639 0.0299057 9.05794 0.0667962 20.0667C0.103687 31.0756 9.05799 39.97 20.0668 39.9332Z"
    fill="url(#paint0_linear_3812_19369)" />
  <path
    d="M20.0519 37.5906C16.3186 37.5906 12.6002 36.3747 9.58365 34.1669L10.511 32.9041C13.2608 34.9165 16.6495 36.025 20.0519 36.025C21.6363 36.025 23.2081 35.7896 24.7239 35.3256L25.1841 36.8227C23.5195 37.3324 21.7932 37.5906 20.053 37.5906H20.0519ZM27.0021 36.1553L26.3816 34.7177C26.4732 34.6788 26.5636 34.6388 26.6541 34.5977C31.2047 32.5407 34.4823 28.5661 35.6466 23.6944L37.1715 24.0578C35.895 29.4038 32.2969 33.7646 27.2997 36.0239C27.2001 36.0684 27.1005 36.113 27.0021 36.1553ZM8.08508 32.9384C6.33923 31.3373 4.954 29.4255 3.96945 27.2553C2.92766 24.9595 2.3999 22.5254 2.3999 20.0204C2.3999 19.4022 2.4331 18.7759 2.4995 18.16L4.05875 18.3257C3.99922 18.8868 3.96831 19.457 3.96831 20.0204C3.96831 22.3014 4.44913 24.5184 5.39819 26.6097C6.29572 28.5867 7.55617 30.3283 9.14633 31.7853L8.08508 32.9384ZM37.5173 22.154L35.9614 21.9597C36.0439 21.3015 36.0862 20.6329 36.0862 19.9701C36.0862 17.6891 35.6054 15.4721 34.6563 13.3809C33.8012 11.4976 32.614 9.82453 31.1257 8.40749L32.2076 7.27499C33.8424 8.83032 35.1463 10.6679 36.0851 12.7352C37.1269 15.031 37.6546 17.4651 37.6546 19.9701C37.6546 20.6969 37.6088 21.4317 37.5184 22.154H37.5173ZM4.34152 16.5864L2.80975 16.2515C3.38559 13.6288 4.57048 11.1342 6.23848 9.03716C7.98777 6.83731 10.179 5.13229 12.7537 3.96779C12.9517 3.87751 13.1532 3.79181 13.3524 3.71067L13.9466 5.15857C13.7645 5.23285 13.5814 5.3117 13.4005 5.39398C11.0559 6.45448 9.05932 8.00752 7.46687 10.0108C5.9477 11.9215 4.86699 14.1957 4.34152 16.5875V16.5864ZM29.7806 7.26357C26.9849 5.13686 23.5115 3.96551 20.0015 3.96551C18.5178 3.96551 17.041 4.17235 15.6146 4.58032L15.183 3.07528C16.7502 2.62732 18.3713 2.3999 20.0015 2.3999C23.8527 2.3999 27.6626 3.68553 30.7308 6.01794L29.7806 7.26242V7.26357Z"
    fill="white" />
  <path opacity="0.2"
    d="M32.4594 32.3797C39.294 25.4995 39.2597 14.3748 32.3795 7.54021C25.4993 0.705639 14.3746 0.739869 7.54004 7.62008L32.4594 32.3797Z"
    fill="white" />
  <path
    d="M19.1859 12.1272C19.4535 12.0999 19.725 12.0859 19.9998 12.0859C24.369 12.0859 27.9109 15.6278 27.9109 19.997C27.9109 23.4041 25.7571 26.3081 22.7368 27.4219L20.0525 31.1969C26.2138 31.1685 31.1998 26.165 31.1998 19.997C31.1998 14.2051 26.8035 9.44012 21.1658 8.85694L19.1859 12.1272Z"
    fill="white" />
  <path
    d="M19.7457 8.7998C13.6774 8.93491 8.7998 13.8963 8.7998 19.997C8.7998 25.7044 13.0689 30.4147 18.5881 31.1089L20.9001 27.8574C20.6046 27.8909 20.3042 27.9081 19.9998 27.9081C15.6306 27.9081 12.0887 24.3662 12.0887 19.997C12.0887 16.4958 14.3632 13.5258 17.5151 12.4839L19.7457 8.7998Z"
    fill="white" />
  <path
    d="M22.737 27.4219C25.7573 26.3082 27.9111 23.4042 27.9111 19.9971H31.2C31.2 26.1651 26.2141 31.1686 20.0527 31.197L22.737 27.4219Z"
    fill="url(#paint1_linear_3812_19369)" />
  <path
    d="M19.7457 8.7998C13.6774 8.93491 8.7998 13.8963 8.7998 19.997C8.7998 19.997 12.0887 20.0442 12.0887 19.997C12.0887 16.4958 14.3632 13.5258 17.5151 12.4839L19.7457 8.7998Z"
    fill="url(#paint2_linear_3812_19369)" />
  <path d="M19.9799 29.1528L25.6035 21.2335L19.9799 24.5523L14.3594 21.2335L19.9799 29.1528Z"
    fill="white" />
  <path opacity="0.1" d="M19.9795 29.1528L25.6031 21.2335L19.9795 24.5523V29.1528Z" fill="#4C52F9" />
  <path d="M19.9626 23.5013L25.6142 20.1764L19.9626 10.8418L14.311 20.1764L19.9626 23.5013Z"
    fill="url(#paint3_linear_3812_19369)" />
  <path d="M19.9626 23.5013L25.6142 20.1764L19.9626 10.8418L14.311 20.1764L19.9626 23.5013Z"
    fill="white" />
  <path opacity="0.1" d="M19.9624 23.501L14.3108 20.1764L19.9624 10.8418L19.9624 23.501Z"
    fill="#4C52F9" />
  <path opacity="0.1" d="M19.9626 23.5013V17.5269L14.311 20.1764L19.9626 23.5013Z" fill="#4C52F9" />
  <path opacity="0.1" d="M19.9627 23.5013V17.5269L25.6143 20.1764L19.9627 23.5013Z" fill="#4C52F9" />
  <defs>
    <linearGradient id="paint0_linear_3812_19369" x1="0.0667962" y1="20.0667" x2="39.9332"
      y2="19.9332" gradientUnits="userSpaceOnUse">
      <stop offset="0.25" stop-color="#1A82FF" />
      <stop offset="0.5" stop-color="#7A26F3" />
      <stop offset="0.74" stop-color="#D6453B" />
    </linearGradient>
    <linearGradient id="paint1_linear_3812_19369" x1="12.626" y1="34.0303" x2="24.9608" y2="25.9505"
      gradientUnits="userSpaceOnUse">
      <stop stop-color="#4C52F9" stop-opacity="0.5" />
      <stop offset="1" stop-color="white" />
    </linearGradient>
    <linearGradient id="paint2_linear_3812_19369" x1="26.0442" y1="3.64442" x2="14.2423"
      y2="12.1717" gradientUnits="userSpaceOnUse">
      <stop stop-color="#4C52F9" stop-opacity="0.5" />
      <stop offset="1" stop-color="white" />
    </linearGradient>
    <linearGradient id="paint3_linear_3812_19369" x1="7.93903" y1="14.2221" x2="17.8401"
      y2="20.2643" gradientUnits="userSpaceOnUse">
      <stop stop-color="#1C313F" />
      <stop offset="1" stop-color="white" />
    </linearGradient>
  </defs>
</svg>
