<svg width="151" height="35" viewBox="0 0 151 35" fill="none" xmlns="http://www.w3.org/2000/svg">
	<g filter="url(#filter0_d)">
		<path fill-rule="evenodd" clip-rule="evenodd"
			d="M59.7377 0.0384641C59.6928 0.0711147 59.8546 0.124784 60.186 0.187074C61.3465 0.405296 62.803 0.940399 63.753 1.49747C65.9273 2.77249 67.2581 4.67945 67.6537 7.08697C67.8317 8.17046 67.8931 11.4151 67.7897 14.2814C67.6136 19.164 67.1533 23.654 66.0366 31.3805C65.9 32.3257 65.7882 33.1438 65.7882 33.1986C65.7882 33.2915 66.1798 33.2968 71.6434 33.2774C76.8475 33.2588 77.5593 33.2453 78.045 33.156C80.3605 32.7303 82.0374 32.026 84.2732 30.5405C85.1189 29.9785 86.243 29.1602 86.1691 29.1602C86.1388 29.1602 85.7276 29.2524 85.2554 29.3651C84.2222 29.6117 82.7422 29.8828 81.643 30.0267C80.4826 30.1785 77.592 30.1795 76.7197 30.0283C74.4467 29.6342 72.9053 28.6768 72.3982 27.3442C72.2708 27.0091 72.2693 26.9799 72.2808 24.8796C72.2872 23.7105 72.3338 19.8049 72.3844 16.2003C72.4933 8.44194 72.4844 7.6843 72.2761 6.93062C71.9425 5.72362 71.1441 4.36505 70.2272 3.4444C68.4671 1.67701 66.2943 0.625111 63.3961 0.137301C62.7452 0.0277774 59.8594 -0.0502179 59.7377 0.0384641ZM126.371 5.80043C126.416 5.8466 126.892 6.20877 127.427 6.6053C128.623 7.49106 129.035 7.84472 129.568 8.44578C130.795 9.83086 131.516 11.4532 132.436 14.9014C133.231 17.8811 134.771 24.7839 134.771 25.3667C134.771 25.4878 134.598 25.4081 132.865 24.4887C126.143 20.9215 122.283 18.4306 118.387 15.1459C115.811 12.9741 113.19 10.2754 110.993 7.53493C110.661 7.12045 110.336 6.76914 110.272 6.75432C110.128 6.72132 107.369 6.34717 106.371 6.2253C105.333 6.0986 103.969 5.9687 103.228 5.92607L102.588 5.88923L103.018 6.14424C105.621 7.68672 108.994 12.2622 110.473 16.2594C110.732 16.9584 110.865 17.4752 111.096 18.6838C111.682 21.7458 111.965 23.9306 112.075 26.2401C112.193 28.7117 111.97 30.7837 111.322 33.2442C111.217 33.6414 111.141 33.9762 111.152 33.988C111.19 34.0288 112.329 32.7808 112.706 32.2852C113.546 31.1793 114.371 29.6479 114.802 28.3926C115.424 26.5814 115.715 24.178 115.582 21.9422C115.524 20.9722 115.413 19.8576 115.318 19.3008L115.282 19.0949L115.472 19.2475C117.746 21.0798 120.892 23.1367 124.785 25.3366C127.733 27.0027 132.253 29.4413 133.332 29.9482C137.781 32.0371 143.045 33.3375 148.289 33.6427C149.768 33.7288 151.037 33.7692 150.999 33.7291C150.981 33.71 150.671 33.5682 150.309 33.4137C147.163 32.0697 144.359 30.3664 142.823 28.867C142.364 28.4187 141.797 27.6285 141.508 27.0346C141.389 26.7911 141.087 25.994 140.835 25.2634C138.848 19.4815 136.355 12.73 135.85 11.7623C134.935 10.0063 133.229 8.63259 130.337 7.32267C129.05 6.73998 126.228 5.65702 126.371 5.80043ZM82.5389 6.29361C82.4961 6.31156 82.9342 6.49164 83.5124 6.69375C87.6603 8.1436 89.5943 9.77276 90.2111 12.3364C90.364 12.9722 90.4879 14.1628 90.8776 18.7391C91.3123 23.8453 91.5826 26.7282 91.6872 27.3744C91.834 28.2807 92.0821 28.9625 92.521 29.6658C93.9946 32.027 97.2008 33.4009 102.366 33.8846C103.119 33.9551 106.331 34.0358 106.286 33.983C106.27 33.9641 105.744 33.7651 105.118 33.5408C100.911 32.0343 98.7992 30.641 97.8351 28.7365C97.2769 27.6337 97.2463 27.4364 96.33 19.0048C95.9275 15.3013 95.6919 13.3088 95.576 12.6282C95.3383 11.2325 94.7669 10.1184 93.789 9.1436C92.2047 7.56439 89.7922 6.6396 86.3995 6.31103C85.7668 6.24975 82.6764 6.23581 82.5389 6.29361ZM15.4402 6.90051C17.0328 7.71725 18.6719 9.43988 19.3366 10.9957C19.9719 12.4828 19.8524 14.4332 19.0235 16.106C18.6865 16.7859 18.4012 17.1959 17.5962 18.1566C12.9284 23.7273 7.00206 28.9676 0.871691 32.945C0.351374 33.2826 -0.039434 33.5671 0.00317934 33.5772C0.122953 33.6055 7.35932 32.4288 12.2712 31.5822C16.7314 30.8135 17.4649 30.7309 19.8648 30.7274C21.8768 30.7246 22.2648 30.7584 23.3417 31.03C24.7607 31.3879 25.9855 32.1303 26.6392 33.0286L26.8743 33.3517L28.8214 33.3532C29.8923 33.354 32.1549 33.3711 33.8494 33.3913C35.9129 33.4159 36.9233 33.4084 36.9091 33.3685C36.8974 33.3357 36.6487 33.1373 36.3563 32.9275C33.4692 30.8562 31.3569 28.0738 30.1124 24.7024C29.1412 22.0716 27.5925 17.5713 26.5059 14.2224C25.6561 11.6034 25.5683 11.3705 25.2264 10.8281C23.9595 8.81763 21.3885 7.37138 18.0846 6.81053C17.7501 6.75379 17.0181 6.70473 16.2488 6.68761L14.9693 6.65903L15.4402 6.90051ZM55.3852 8.32344C50.3491 8.83735 45.2113 11.7491 42.2161 15.787C40.0342 18.7283 39.0671 22.134 39.4505 25.5267C39.7045 27.7751 40.5327 30.0457 41.9425 32.3589L42.5066 33.2844L42.8682 33.3322C43.0671 33.3584 44.5316 33.3804 46.1226 33.3808C48.5389 33.3816 49.1713 33.3641 49.9612 33.2744C52.1095 33.0306 54.0608 32.5835 55.9261 31.9075C56.9486 31.537 58.476 30.871 59.029 30.5546L59.3072 30.3954L59.0943 30.4308C58.063 30.6021 57.5121 30.6489 56.1878 30.6777C53.8337 30.7288 52.0833 30.5096 50.1631 29.9233C46.5089 28.8076 44.2926 26.6872 43.8699 23.9022C43.8054 23.4775 43.807 21.9444 43.872 21.8756C43.8887 21.858 45.6035 21.8402 47.6827 21.8362C50.9121 21.8299 51.5727 21.8433 52.2142 21.9277C53.675 22.1201 55.041 22.5807 56.4254 23.3478L57.104 23.7238L57.4027 23.357C58.7266 21.7314 59.8679 20.0513 60.3747 18.9819L60.6234 18.4572L60.299 18.4942C57.6508 18.7967 52.4835 18.9268 47.4311 18.818C45.9783 18.7868 44.7813 18.7522 44.7709 18.7412C44.7318 18.6997 45.1067 17.824 45.3805 17.3171C45.8504 16.4471 46.32 15.8338 47.0639 15.1185C49.1242 13.1373 51.9762 12.3632 54.9123 12.9883C56.0037 13.2206 57.5352 13.8483 58.5483 14.4785C58.7395 14.5974 58.9196 14.6947 58.9486 14.6947C59.0306 14.6947 59.0106 13.1995 58.92 12.5692C58.6982 11.0255 57.948 9.69813 56.6704 8.58878C56.2492 8.22307 56.2888 8.23122 55.3852 8.32344ZM21.7011 18.2974C22.1172 19.1742 22.4855 20.325 23.0423 22.4883C23.5315 24.3888 23.894 25.6741 24.0892 26.2004L24.2288 26.5764L24.065 26.5416C23.5396 26.4301 22.5493 26.3742 21.6728 26.4067C19.6568 26.4812 17.5748 26.7767 13.8915 27.511C13.2375 27.6415 12.6932 27.7384 12.6819 27.7265C12.6708 27.7146 12.9626 27.4577 13.3306 27.1555C14.5466 26.1573 15.6199 25.1407 16.9766 23.7023C18.7974 21.7717 19.8943 20.3861 20.9875 18.6358C21.2461 18.2218 21.4682 17.883 21.4811 17.883C21.494 17.883 21.593 18.0695 21.7011 18.2974Z"
			fill="black" />
	</g>
	<defs>
		<filter id="filter0_d" x="0" y="0" width="151" height="35" filterUnits="userSpaceOnUse"
			color-interpolation-filters="sRGB">
			<feFlood flood-opacity="0" result="BackgroundImageFix" />
			<feColorMatrix in="SourceAlpha" type="matrix" values="0 0 0 0 0 0 0 0 0 0 0 0 0 0 0 0 0 0 127 0"
				result="hardAlpha" />
			<feOffset dy="1" />
			<feComposite in2="hardAlpha" operator="out" />
			<feColorMatrix type="matrix" values="0 0 0 0 1 0 0 0 0 1 0 0 0 0 1 0 0 0 0.8 0" />
			<feBlend mode="normal" in2="BackgroundImageFix" result="effect1_dropShadow" />
			<feBlend mode="normal" in="SourceGraphic" in2="effect1_dropShadow" result="shape" />
		</filter>
	</defs>
</svg>
