<svg width="256" height="256" viewBox="0 0 256 256" fill="none" xmlns="http://www.w3.org/2000/svg">
<circle cx="128" cy="128" r="128" fill="#02E2AC"/>
<path fill-rule="evenodd" clip-rule="evenodd" d="M161.847 108.014C167.12 115.406 169.983 124.382 169.908 133.434C169.908 142.334 167.045 151.235 161.847 158.476L172.846 166.848C179.852 157.194 183.694 145.427 183.694 133.509C183.769 120.913 179.626 108.542 172.017 98.5859L165.709 104.272L161.847 108.014Z" fill="#0E0333"/>
<path fill-rule="evenodd" clip-rule="evenodd" d="M182.64 172.264L145.65 144.13C148.287 140.66 149.793 136.436 150.019 132.061C150.17 127.686 149.04 123.387 146.705 119.691L164.409 103.7L182.941 86.3517C184.147 85.2203 184.222 83.2591 183.016 82.0523L180.455 79.4877C167.271 66.137 149.492 58.3679 130.809 57.7645L130.884 47.5817C130.959 46.9028 130.884 46.224 130.733 45.5451C130.507 44.8663 130.206 44.2628 129.754 43.7348C129.302 43.2068 128.775 42.8297 128.097 42.528C127.494 42.2263 126.816 42.0754 126.138 42.0754C125.46 42.0754 124.782 42.2263 124.179 42.528C123.577 42.8297 122.974 43.2068 122.522 43.7348C122.07 44.2628 121.693 44.8663 121.542 45.4697C121.316 46.1485 121.241 46.8274 121.392 47.5062L121.316 57.9907C116.872 58.4433 112.427 59.273 108.133 60.5553L108.208 47.5062C108.283 46.8274 108.208 46.1485 108.057 45.4697C107.831 44.7908 107.53 44.1874 107.078 43.6594C106.626 43.1314 106.099 42.7543 105.421 42.4526C104.818 42.1509 104.14 42 103.462 42C102.784 42 102.106 42.1509 101.503 42.4526C100.9 42.7543 100.298 43.1314 99.8458 43.6594C99.3938 44.1874 99.0171 44.7908 98.8664 45.3943C98.6404 46.0731 98.5651 46.752 98.7157 47.4308L98.4897 64.1004C83.2719 70.8889 70.7662 82.7311 63.1572 97.5905C55.5483 112.45 53.1376 129.497 56.4524 145.864C59.7671 162.232 68.5814 177.016 81.3885 187.727C94.1956 198.438 110.317 204.472 126.967 204.774L180.832 205C182.489 205 183.845 203.642 183.845 201.983V174.753C183.845 173.773 183.393 172.868 182.64 172.264ZM128.021 191.649C114.762 191.574 101.88 187.124 91.4082 179.053C80.9365 170.907 73.4029 159.517 70.0128 146.694C66.6227 133.871 67.6021 120.219 72.6496 108C77.7724 95.7802 86.7374 85.522 98.2637 78.8843L98.1884 98.7219C98.1131 99.4007 98.1884 100.08 98.3391 100.758C98.5651 101.437 98.8664 102.041 99.3184 102.569C99.7704 103.097 100.298 103.474 100.976 103.776C101.579 104.077 102.257 104.228 102.935 104.228C103.613 104.228 104.291 104.077 104.893 103.776C105.496 103.474 106.099 103.097 106.551 102.569C107.003 102.041 107.379 101.437 107.53 100.834C107.756 100.155 107.831 99.4762 107.681 98.7973L107.756 74.4341C114.386 72.0204 121.392 70.8889 128.473 70.8889C141.506 70.8889 154.163 75.1883 164.484 83.0329C165.237 83.6363 165.313 84.6923 164.635 85.3711L136.459 111.243C133.898 110.187 131.11 109.584 128.323 109.584C125.234 109.584 122.145 110.187 119.282 111.469C116.42 112.752 113.934 114.637 111.9 116.975C109.865 119.314 108.359 122.105 107.455 125.046C106.551 128.063 106.325 131.156 106.777 134.248C107.229 137.341 108.283 140.283 109.941 142.923C111.598 145.563 113.858 147.75 116.42 149.485C119.056 151.144 121.994 152.276 125.083 152.728C128.172 153.181 131.336 152.955 134.274 152.05L170.285 179.43C170.661 179.732 170.887 180.184 170.887 180.637L170.812 190.292C170.812 191.121 170.134 191.8 169.305 191.8L128.021 191.649ZM136.836 131.307C136.836 132.966 136.308 134.626 135.404 136.059C134.425 137.492 133.144 138.548 131.562 139.227C129.98 139.906 128.247 140.056 126.665 139.679C125.083 139.302 123.501 138.548 122.296 137.341C121.09 136.134 120.262 134.626 119.96 132.966C119.659 131.307 119.81 129.572 120.488 128.063C121.166 126.479 122.221 125.197 123.652 124.217C125.083 123.311 126.741 122.783 128.398 122.783C130.658 122.783 132.843 123.689 134.425 125.348C135.932 126.857 136.836 128.969 136.836 131.307Z" fill="#0E0333"/>
</svg>
