<svg width="288" height="288" viewBox="0 0 288 288" fill="none" xmlns="http://www.w3.org/2000/svg">
<ellipse cx="144.5" cy="144" rx="105.5" ry="117" fill="white"/>
<path d="M161.33 137.025C164.542 142.707 169.204 143.17 172.313 138.452C176.391 132.272 179.848 125.167 181.318 117.98C182.258 113.377 181.923 106.791 176.558 103.409C172.849 101.057 167.591 101.31 165.619 104.567C162.389 109.889 157.333 114.963 158.757 122.857C160.125 127.027 158.667 132.315 161.33 137.025ZM126.671 134.766C129.995 134.522 132.486 133.438 134.052 129.624C136.672 123.255 140 117.243 138.443 109.761C138.799 105.329 139.176 100.74 136.582 96.3385C132.684 89.7218 127.804 90.2831 123.417 94.9371C115.552 103.277 114.257 118.974 119.381 129.615C121.006 133.001 123.001 135.036 126.671 134.766ZM193.703 140.38C191.872 138.623 187.73 141.884 185.984 144.884C184.325 147.725 184.599 150.982 187.035 152.821C191.13 155.902 188.622 158.503 187.73 161.82C183.012 179.528 169.65 187.344 153.491 190.961C142.178 193.503 130.355 190.057 121.495 183.98C111.889 177.385 106.057 166.204 100.804 155.315C97.0129 147.468 93.8995 140.843 103.827 135.285C107.103 133.45 109.072 130.142 107.387 126.011C105.65 121.756 101.739 121.533 98.2136 122.175C93.7082 123.066 89.0326 122.336 85.014 120.114C82.1322 118.597 78.8044 117.629 76.0341 120.757C73.2638 123.885 75.2965 126.881 76.077 129.971C77.2391 134.548 82.1579 137.127 82.1665 142.429C82.1879 157.393 87.7757 169.585 97.0772 181.82C108.326 196.622 121.843 203.968 139.395 207.683C146.424 209.17 151.913 205.215 160.194 207.117C173.372 207.58 182.879 196.987 192.241 188.206C201.603 179.425 201.615 163.487 214.18 156.099C218.186 153.742 218.04 149.161 216.226 145.308C211.08 134.436 200.518 146.903 193.703 140.38ZM271.752 117.239C270.526 107.596 267.271 98.4298 265.354 88.9547C261.863 71.7443 247.956 59.1794 236.99 45.8345C232.625 40.5248 227.316 34.4352 221.411 31.4739C204.077 22.7873 185.221 16.8177 166.116 14.585C148.156 12.4851 129.875 16.2991 112.49 21.8702C107.438 23.4858 101.927 22.6416 97.1458 26.4257C84.3836 36.5393 69.8931 44.2917 58.2244 55.9824C54.0194 60.2298 50.1174 64.7663 46.5471 69.5587C39.2825 79.1881 35.869 91.5859 27.6781 100.208C26.4902 101.455 25.8641 103.127 25.3967 104.781C23.5999 111.209 23.2525 117.637 20.7438 123.885C18.1322 130.442 15.2332 136.566 16.1852 143.86C16.97 149.859 18.1579 155.542 17.9821 161.602C20.7224 176.768 21.7001 192.195 26.9319 206.865C29.1962 213.216 33.7934 217.887 37.4471 222.995C49.4117 239.743 61.0333 257.459 83.4616 262.198C86.635 262.867 89.8941 263.762 92.7459 265.262C110.903 274.827 130.698 274.189 149.996 272.83C174.315 271.116 196.092 261.217 214.429 244.894C218.546 241.23 224.387 240.484 227.633 235.688C235.408 224.212 246.017 214.728 251.588 201.696C257.099 188.797 262.082 175.718 267.957 162.999C270.067 158.435 270.586 153.695 270.684 148.878C270.74 146.114 270.654 143.307 270.646 140.521C270.616 132.769 272.708 124.927 271.735 117.2L271.752 117.239ZM239.679 147.348C234.868 175.906 223.559 202.845 197.43 220.389C183.707 229.603 170.782 239.091 152.899 239.451C145.918 239.593 139.013 245.134 130.865 243.462C113.918 240.655 98.9298 234.583 83.543 225.211C64.3182 213.498 61.1362 193.897 50.4924 178.101C49.5661 176.729 48.9571 174.244 49.5747 172.877C55.0081 161.07 48.2882 149.277 49.6733 137.14C50.9598 126.122 55.7843 117.247 59.8111 108.063C65.4117 95.3014 74.8205 84.5535 85.1126 74.8812C98.3637 62.4192 112.331 50.5485 131.316 49.2928C138.829 48.8 144.64 43.9789 152.217 44.416C180.838 46.0702 203.948 55.9524 222.264 79.9638C238.191 100.812 243.629 123.761 239.662 147.31L239.679 147.348Z" fill="#F00A19"/>
</svg>
