<?xml version="1.0" encoding="utf-8"?>
<!-- Generator: Adobe Illustrator 19.0.0, SVG Export Plug-In . SVG Version: 6.00 Build 0)  -->
<svg version="1.1" id="Layer_1" xmlns="http://www.w3.org/2000/svg" xmlns:xlink="http://www.w3.org/1999/xlink" x="0px" y="0px"
	 viewBox="-163 -110 631.8 629" style="enable-background:new -163 -110 631.8 629;" xml:space="preserve">
<style type="text/css">
	.st0{fill:#192123;}
	.st1{opacity:0.7;}
	.st2{fill:url(#SVGID_1_);}
	.st3{clip-path:url(#SVGID_5_);}
	.st4{clip-path:url(#SVGID_9_);}
	.st5{opacity:0.5;clip-path:url(#SVGID_15_);fill:none;stroke:#FFFFFF;stroke-width:26.7624;stroke-miterlimit:10;}
	.st6{opacity:0.5;clip-path:url(#SVGID_15_);fill:none;stroke:#FFFFFF;stroke-width:13.3812;stroke-miterlimit:10;}
	.st7{fill:#FFFFFF;}
	.st8{clip-path:url(#SVGID_17_);}
	.st9{fill:#19898A;}
	.st10{fill:#68FEE2;}
	.st11{fill:#1FC9A8;}
	.st12{opacity:0.6;clip-path:url(#SVGID_19_);fill:none;stroke:#FFFFFF;stroke-width:26.7624;stroke-miterlimit:10;}
	.st13{opacity:0.6;clip-path:url(#SVGID_19_);fill:none;stroke:#FFFFFF;stroke-width:13.3812;stroke-miterlimit:10;}
	.st14{clip-path:url(#SVGID_17_);fill:#FFFFFF;}
	.st15{clip-path:url(#SVGID_21_);}
	.st16{fill:#3AC1AC;}
	.st17{opacity:0.5;clip-path:url(#SVGID_23_);fill:none;stroke:#FFFFFF;stroke-width:26.7624;stroke-miterlimit:10;}
	.st18{opacity:0.5;clip-path:url(#SVGID_23_);fill:none;stroke:#FFFFFF;stroke-width:13.3812;stroke-miterlimit:10;}
	.st19{clip-path:url(#SVGID_21_);fill:#FFFFFF;}
	.st20{opacity:0.6;clip-path:url(#SVGID_25_);}
	.st21{fill:none;stroke:#FFFFFF;stroke-width:22.5264;stroke-miterlimit:10;}
	.st22{fill:none;stroke:#FFFFFF;stroke-width:15.0176;stroke-miterlimit:10;}
	.st23{clip-path:url(#SVGID_29_);}
	.st24{clip-path:url(#SVGID_33_);}
</style>
<g>
	<g>
		<circle class="st0" cx="152.9" cy="204.5" r="300.8"/>
	</g>
	<g class="st1">
		<linearGradient id="SVGID_1_" gradientUnits="userSpaceOnUse" x1="2.4556" y1="-56.0773" x2="303.3444" y2="465.0773">
			<stop  offset="7.887628e-004" style="stop-color:#2F353D"/>
			<stop  offset="0.1394" style="stop-color:#314348"/>
			<stop  offset="0.4008" style="stop-color:#376864"/>
			<stop  offset="0.7542" style="stop-color:#41A291"/>
			<stop  offset="1" style="stop-color:#48CFB4"/>
		</linearGradient>
		<path class="st2" d="M152.9-73c36.1,0,71.2,6.8,104.4,20.3c34.4,14,65.3,34.5,91.8,61c26.5,26.5,47,57.4,61,91.8
			c13.5,33.2,20.3,68.4,20.3,104.4s-6.8,71.2-20.3,104.4c-14,34.4-34.5,65.3-61,91.8c-26.5,26.5-57.4,47-91.8,61
			C224.1,475.2,189,482,152.9,482s-71.2-6.8-104.4-20.3c-34.4-14-65.3-34.5-91.8-61c-26.5-26.5-47-57.4-61-91.8
			c-13.5-33.2-20.3-68.4-20.3-104.4s6.8-71.2,20.3-104.4c14-34.4,34.5-65.3,61-91.8c26.5-26.5,57.4-47,91.8-61
			C81.7-66.2,116.8-73,152.9-73 M152.9-96.3c-77,0-154,29.4-212.7,88.1c-117.5,117.5-117.5,307.9,0,425.4
			c58.7,58.7,135.7,88.1,212.7,88.1s154-29.4,212.7-88.1c117.5-117.5,117.5-307.9,0-425.4C306.9-66.9,229.9-96.3,152.9-96.3
			L152.9-96.3z"/>
	</g>
	<g>
		<g>
			<g>
				<defs>
					<polygon id="SVGID_2_" points="180.3,98.5 29.2,134.2 72.1,295.2 					"/>
				</defs>
				<clipPath id="SVGID_3_">
					<use xlink:href="#SVGID_2_"  style="overflow:visible;"/>
				</clipPath>
			</g>
			<g>
				<defs>
					<path id="SVGID_4_" d="M87.7,271.6L207,92.4c1-1.6,1.8-3.3,2.3-5.1l8.9-36.3c3.5-14.2-11.9-25.4-24.4-17.8L34.3,131.1
						c-3.3,2-5.8,5.1-7,8.8l-10.8,32.8c-1.3,4.1-1,8.5,0.9,12.3l42,84.8C65.1,281.1,80.8,282.1,87.7,271.6z"/>
				</defs>
				<clipPath id="SVGID_5_">
					<use xlink:href="#SVGID_4_"  style="overflow:visible;"/>
				</clipPath>
				<g class="st3">
					<defs>
						<polygon id="SVGID_6_" points="180.3,98.5 29.2,134.2 72.1,295.2 						"/>
					</defs>
					<clipPath id="SVGID_7_">
						<use xlink:href="#SVGID_6_"  style="overflow:visible;"/>
					</clipPath>
				</g>
			</g>
			<g>
				<defs>
					<path id="SVGID_8_" d="M112,375.9L271.5,278c3.3-2,5.8-5.1,7-8.8l10.8-32.8c1.3-4.1,1-8.5-0.9-12.3l-42-84.8
						c-5.6-11.3-21.2-12.3-28.2-1.8L98.8,316.7c-1,1.6-1.8,3.3-2.3,5.1l-8.9,36.3C84.2,372.3,99.6,383.5,112,375.9z"/>
				</defs>
				<clipPath id="SVGID_9_">
					<use xlink:href="#SVGID_8_"  style="overflow:visible;"/>
				</clipPath>
				<g class="st4">
					<defs>
						<polygon id="SVGID_10_" points="125.5,310.6 276.6,274.9 233.7,114 						"/>
					</defs>
					<clipPath id="SVGID_11_">
						<use xlink:href="#SVGID_10_"  style="overflow:visible;"/>
					</clipPath>
				</g>
				<g class="st4">
					<defs>
						<polygon id="SVGID_12_" points="125.5,310.6 276.6,274.9 233.7,114 						"/>
					</defs>
					<clipPath id="SVGID_13_">
						<use xlink:href="#SVGID_12_"  style="overflow:visible;"/>
					</clipPath>
				</g>
			</g>
		</g>
		<g>
			<g>
				<defs>
					<polygon id="SVGID_14_" points="180.3,98.5 29.2,134.2 72.1,295.2 					"/>
				</defs>
				<clipPath id="SVGID_15_">
					<use xlink:href="#SVGID_14_"  style="overflow:visible;"/>
				</clipPath>
				<line class="st5" x1="202" y1="173.9" x2="-5.4" y2="276.5"/>
				<line class="st6" x1="227.6" y1="117.2" x2="20.2" y2="219.7"/>
			</g>
			<path class="st7" d="M62.9,124.6c1.9,1.9,5.4,11.7,5.4,11.7s3-9.2,5.4-11.7c2.4-2.5,11.7-5.4,11.7-5.4s-9.6-3.3-11.7-5.4
				c-2.1-2.1-5.4-11.7-5.4-11.7s-3.1,9.4-5.4,11.7c-2.3,2.3-11.7,5.4-11.7,5.4S60.9,122.6,62.9,124.6z"/>
			<path class="st7" d="M126,136.6c0.9,0.9,2.4,5.3,2.4,5.3s1.3-4.2,2.4-5.3c1.1-1.1,5.3-2.4,5.3-2.4s-4.3-1.5-5.3-2.4
				c-1-1-2.4-5.3-2.4-5.3s-1.4,4.2-2.4,5.3s-5.3,2.4-5.3,2.4S125.1,135.8,126,136.6z"/>
			<g>
				<defs>
					<path id="SVGID_16_" d="M87.7,271.6L207,92.4c1-1.6,1.8-3.3,2.3-5.1l8.9-36.3c3.5-14.2-11.9-25.4-24.4-17.8L34.3,131.1
						c-3.3,2-5.8,5.1-7,8.8l-10.8,32.8c-1.3,4.1-1,8.5,0.9,12.3l42,84.8C65.1,281.1,80.8,282.1,87.7,271.6z"/>
				</defs>
				<clipPath id="SVGID_17_">
					<use xlink:href="#SVGID_16_"  style="overflow:visible;"/>
				</clipPath>
				<g class="st8">
					<g>
						<polygon class="st9" points="227.6,12.4 29.2,134.2 180.3,98.5 						"/>
					</g>
					<g>
						<polygon class="st10" points="180.3,98.5 180.3,98.5 72.1,295.2 208.5,90 227.6,12.4 180.3,98.5 						"/>
					</g>
					<polygon class="st11" points="180.3,98.5 29.2,134.2 72.1,295.2 					"/>
					<g>
						<polygon class="st10" points="72.1,295.2 29.2,134.2 14.5,179 						"/>
					</g>
				</g>
				<g class="st8">
					<defs>
						<polygon id="SVGID_18_" points="180.3,98.5 29.2,134.2 72.1,295.2 						"/>
					</defs>
					<clipPath id="SVGID_19_">
						<use xlink:href="#SVGID_18_"  style="overflow:visible;"/>
					</clipPath>
					<line class="st12" x1="130.4" y1="248.6" x2="76.8" y2="23.5"/>
					<line class="st13" x1="180" y1="286.2" x2="126.5" y2="61.1"/>
				</g>
				<path class="st14" d="M62.9,124.6c1.9,1.9,5.4,11.7,5.4,11.7s3-9.2,5.4-11.7c2.4-2.5,11.7-5.4,11.7-5.4s-9.6-3.3-11.7-5.4
					c-2.1-2.1-5.4-11.7-5.4-11.7s-3.1,9.4-5.4,11.7c-2.3,2.3-11.7,5.4-11.7,5.4S60.9,122.6,62.9,124.6z"/>
				<path class="st14" d="M126,136.6c0.9,0.9,2.4,5.3,2.4,5.3s1.3-4.2,2.4-5.3c1.1-1.1,5.3-2.4,5.3-2.4s-4.3-1.5-5.3-2.4
					c-1-1-2.4-5.3-2.4-5.3s-1.4,4.2-2.4,5.3s-5.3,2.4-5.3,2.4S125.1,135.8,126,136.6z"/>
			</g>
			<g>
				<defs>
					<path id="SVGID_20_" d="M112,375.9L271.5,278c3.3-2,5.8-5.1,7-8.8l10.8-32.8c1.3-4.1,1-8.5-0.9-12.3l-42-84.8
						c-5.6-11.3-21.2-12.3-28.2-1.8L98.8,316.7c-1,1.6-1.8,3.3-2.3,5.1l-8.9,36.3C84.2,372.3,99.6,383.5,112,375.9z"/>
				</defs>
				<clipPath id="SVGID_21_">
					<use xlink:href="#SVGID_20_"  style="overflow:visible;"/>
				</clipPath>
				<g class="st15">
					<g>
						<polygon class="st9" points="78.2,396.7 276.6,274.9 125.5,310.6 						"/>
					</g>
					<g>
						<polygon class="st10" points="125.5,310.6 125.5,310.6 233.7,114 97.3,319.1 78.2,396.7 125.5,310.6 						"/>
					</g>
					<g>
						<polygon class="st16" points="125.5,310.6 276.6,274.9 233.7,114 						"/>
					</g>
					<g>
						<polygon class="st10" points="233.7,114 276.6,274.9 291.3,230.1 						"/>
					</g>
				</g>
				<g class="st15">
					<defs>
						<polygon id="SVGID_22_" points="125.5,310.6 276.6,274.9 233.7,114 						"/>
					</defs>
					<clipPath id="SVGID_23_">
						<use xlink:href="#SVGID_22_"  style="overflow:visible;"/>
					</clipPath>
					<line class="st17" x1="295.2" y1="291.3" x2="91.9" y2="180.7"/>
					<line class="st18" x1="356.3" y1="279.5" x2="153.1" y2="169"/>
				</g>
				<path class="st19" d="M179.8,308.2c-0.9-0.9-2.4-5.3-2.4-5.3s-1.3,4.2-2.4,5.3c-1.1,1.1-5.3,2.4-5.3,2.4s4.3,1.5,5.3,2.4
					s2.4,5.3,2.4,5.3s1.4-4.2,2.4-5.3s5.3-2.4,5.3-2.4S180.7,309,179.8,308.2z"/>
				<g class="st15">
					<g>
						<polygon class="st9" points="78.2,396.7 276.6,274.9 125.5,310.6 						"/>
					</g>
					<g>
						<polygon class="st10" points="125.5,310.6 125.5,310.6 233.7,114 97.3,319.1 78.2,396.7 125.5,310.6 						"/>
					</g>
					<polygon class="st11" points="125.5,310.6 276.6,274.9 233.7,114 					"/>
					<g>
						<polygon class="st10" points="233.7,114 276.6,274.9 291.3,230.1 						"/>
					</g>
				</g>
				<g class="st15">
					<defs>
						<polygon id="SVGID_24_" points="125.5,310.6 276.6,274.9 233.7,114 						"/>
					</defs>
					<clipPath id="SVGID_25_">
						<use xlink:href="#SVGID_24_"  style="overflow:visible;"/>
					</clipPath>
					<g class="st20">
						<line class="st21" x1="308.7" y1="273.4" x2="105.5" y2="162.9"/>
					</g>
					<g class="st20">
						<line class="st22" x1="369.9" y1="261.7" x2="166.6" y2="151.1"/>
					</g>
				</g>
				<path class="st19" d="M179.8,308.2c-0.9-0.9-2.4-5.3-2.4-5.3s-1.3,4.2-2.4,5.3c-1.1,1.1-5.3,2.4-5.3,2.4s4.3,1.5,5.3,2.4
					s2.4,5.3,2.4,5.3s1.4-4.2,2.4-5.3s5.3-2.4,5.3-2.4S180.7,309,179.8,308.2z"/>
			</g>
		</g>
		<g>
			<g>
				<defs>
					<polygon id="SVGID_26_" points="180.3,98.5 29.2,134.2 72.1,295.2 					"/>
				</defs>
				<clipPath id="SVGID_27_">
					<use xlink:href="#SVGID_26_"  style="overflow:visible;"/>
				</clipPath>
			</g>
			<g>
				<defs>
					<path id="SVGID_28_" d="M87.7,271.6L207,92.4c1-1.6,1.8-3.3,2.3-5.1l8.9-36.3c3.5-14.2-11.9-25.4-24.4-17.8L34.3,131.1
						c-3.3,2-5.8,5.1-7,8.8l-10.8,32.8c-1.3,4.1-1,8.5,0.9,12.3l42,84.8C65.1,281.1,80.8,282.1,87.7,271.6z"/>
				</defs>
				<clipPath id="SVGID_29_">
					<use xlink:href="#SVGID_28_"  style="overflow:visible;"/>
				</clipPath>
				<g class="st23">
					<defs>
						<polygon id="SVGID_30_" points="180.3,98.5 29.2,134.2 72.1,295.2 						"/>
					</defs>
					<clipPath id="SVGID_31_">
						<use xlink:href="#SVGID_30_"  style="overflow:visible;"/>
					</clipPath>
				</g>
			</g>
			<g>
				<defs>
					<path id="SVGID_32_" d="M112,375.9L271.5,278c3.3-2,5.8-5.1,7-8.8l10.8-32.8c1.3-4.1,1-8.5-0.9-12.3l-42-84.8
						c-5.6-11.3-21.2-12.3-28.2-1.8L98.8,316.7c-1,1.6-1.8,3.3-2.3,5.1l-8.9,36.3C84.2,372.3,99.6,383.5,112,375.9z"/>
				</defs>
				<clipPath id="SVGID_33_">
					<use xlink:href="#SVGID_32_"  style="overflow:visible;"/>
				</clipPath>
				<g class="st24">
					<defs>
						<polygon id="SVGID_34_" points="125.5,310.6 276.6,274.9 233.7,114 						"/>
					</defs>
					<clipPath id="SVGID_35_">
						<use xlink:href="#SVGID_34_"  style="overflow:visible;"/>
					</clipPath>
				</g>
				<g class="st24">
					<defs>
						<polygon id="SVGID_36_" points="125.5,310.6 276.6,274.9 233.7,114 						"/>
					</defs>
					<clipPath id="SVGID_37_">
						<use xlink:href="#SVGID_36_"  style="overflow:visible;"/>
					</clipPath>
				</g>
			</g>
		</g>
	</g>
</g>
</svg>
