<svg fill="#fff" xml:space="preserve" viewBox="0 0 310.077 75.32" xmlns="http://www.w3.org/2000/svg"><path d="M45.365 6.299C40.488 2.243 34.117-.012 27.773 0c-3.167.008-6.356.535-9.358 1.609a27.984 27.984 0 0 0-8.262 4.693c-4.916 4.031-8.396 9.789-9.628 16.05-1.242 6.234-.267 12.88 2.763 18.478 2.568 4.862 6.64 8.847 11.47 11.426.105.319.198.64.318.957.455 1.167.986 2.319 1.779 3.42a4.074 4.074 0 0 0 7.267-1.433c.316-1.319.371-2.587.348-3.839a23.733 23.733 0 0 0-.399-3.692c-.303-1.562-1.348-2.985-2.916-3.671l-.113-.049c-3.645-1.595-6.776-4.437-8.585-7.981-1.866-3.501-2.398-7.667-1.621-11.551.771-3.875 2.938-7.452 6.009-9.964a17.525 17.525 0 0 1 10.946-3.947c3.984-.032 7.901 1.35 11.011 3.845a17.54 17.54 0 0 1 6.175 9.966c.852 3.911.364 8.15-1.485 11.737-1.798 3.607-4.909 6.56-8.6 8.288l-.07.028a5.24 5.24 0 0 0-1.206.728 6.037 6.037 0 0 0-.387.364c-.588.62-.639.822-.861 1.182l-.134.253-.073.173-.125.329a4.703 4.703 0 0 0-.197.599c-.189.695-.234 1.205-.315 1.726a46.804 46.804 0 0 0-.166 2.671l-.068 4.783c.003 1.554-.047 3.09-.067 4.617-.106 1.536-.331 3.052-1.135 4.615l-.021.039a6.095 6.095 0 1 0 10.59-.461c-.891-1.42-1.254-2.885-1.389-4.333-.083-1.456-.137-2.904-.087-4.334.032-1.426.142-2.844.366-4.155.051-.293.111-.575.175-.847 5.226-2.455 9.687-6.566 12.414-11.721 3.018-5.528 3.983-12.11 2.791-18.31-1.209-6.226-4.662-11.966-9.562-15.989z"></path><path d="m34.89 34.919-7.064-7.064-7.064-7.064-.568-.569a10.758 10.758 0 0 0-3.162 7.633c0 5.962 4.833 10.795 10.794 10.795 2.981 0 5.68-1.208 7.633-3.162l-.569-.569zM220.845 44.816H200.87v-34.16a4.5 4.5 0 0 0-9 0v38.66a4.5 4.5 0 0 0 4.5 4.5h24.476a4.5 4.5 0 1 0-.001-9zM260.087 6.156h-25.135a4.5 4.5 0 0 0 0 9h25.135a4.5 4.5 0 0 0 0-9zM254.171 34.486a4.5 4.5 0 0 0 0-9h-13.305a4.5 4.5 0 0 0 0 9h13.305zM260.087 44.816h-25.135a4.5 4.5 0 0 0 0 9h25.135a4.5 4.5 0 0 0 0-9zM135.77 6.156a4.5 4.5 0 0 0-4.5 4.5v14.708h-19.208V10.656a4.5 4.5 0 0 0-4.5-4.5H66.904a4.5 4.5 0 0 0 0 9h12.671v34.16a4.5 4.5 0 0 0 9 0v-34.16h14.487v34.16a4.5 4.5 0 0 0 9 0V34.364h19.208v14.953a4.5 4.5 0 0 0 9 0v-38.66a4.5 4.5 0 0 0-4.5-4.501zM298.084 25.486H282.12a2.997 2.997 0 0 1-2.994-2.994V18.15a2.997 2.997 0 0 1 2.994-2.994h16.64a4.5 4.5 0 0 0 0-9h-16.64c-6.613 0-11.994 5.38-11.994 11.994v4.343c0 6.613 5.381 11.994 11.994 11.994h15.964a2.997 2.997 0 0 1 2.993 2.994v4.343a2.997 2.997 0 0 1-2.993 2.994h-23.458a4.5 4.5 0 0 0 0 9h23.458c6.613 0 11.993-5.38 11.993-11.994V37.48c0-6.613-5.38-11.994-11.993-11.994zM169.723 8.898a4.5 4.5 0 0 0-8.284 0l-16.41 38.66a4.499 4.499 0 0 0 4.142 6.257h32.82a4.5 4.5 0 0 0 4.142-6.257l-16.41-38.66zm-13.755 35.919 9.613-22.647 9.613 22.647h-19.226z"></path></svg>