<?xml version="1.0" encoding="UTF-8"?>
<svg id="Layer_1" data-name="Layer 1" xmlns="http://www.w3.org/2000/svg" viewBox="0 0 200 200">
  <defs>
    <style>
      .cls-1 {
        fill: #8e684c;
      }

      .cls-2 {
        fill: #ddb48c;
      }

      .cls-3 {
        fill: #aa8165;
      }

      .cls-4 {
        fill: #ba9678;
      }
    </style>
  </defs>
  <g id="g3931">
    <g>
      <g id="g3937">
        <path id="path3939" class="cls-3" d="M79.85,138.62C79.85,110.43,73.22,43.45,100.26,0c-1.7,0-3.35.55-4.71,1.57C27.09,52.86-10.04,199.96,99.91,200c-1.35-.27-20.05-7.71-20.05-61.38"/>
      </g>
      <g id="g3941">
        <path id="path3943" class="cls-1" d="M104.98,1.57C103.62.55,101.97,0,100.27,0c27.03,43.45,20.73,110.43,20.73,138.62,0,53.69-19.68,61.12-21.01,61.38,109.53-.04,73.43-147.14,4.99-198.43"/>
      </g>
      <g id="g3945">
        <path id="path3947" class="cls-4" d="M136.72,138.62c0-28.19-9.42-95.16-36.45-138.62h0l-15.12,107.6,14.81,92.4s.03,0,.04,0c1.33-.26,36.73-7.69,36.73-61.38"/>
      </g>
      <g id="g3949">
        <path id="path3951" class="cls-2" d="M100.26,0c-27.03,43.45-37.07,110.43-37.07,138.62,0,53.67,35.37,61.12,36.72,61.38.01,0,.03,0,.04,0h0,0L100.26,0s0,0,0,0"/>
      </g>
    </g>
  </g>
</svg>