<svg id="Capa_1" data-name="Capa 1" xmlns="http://www.w3.org/2000/svg" viewBox="0 0 500 500"><defs><style>.cls-1{fill:#0078f0;}.cls-2{fill:#fff;}</style></defs><title>swarm-SMT-token-symbol</title><circle class="cls-1" cx="249.43" cy="250.16" r="246.13"/><path class="cls-2" d="M189.11,337.63l20.58-57.78-33.82-95H97.26l54.42,152.65c2.74,7.48,10.24,12.6,18.69,12.78C178.82,350.16,186.33,345.12,189.11,337.63Z"/><path class="cls-2" d="M286.86,186.55c-2.39-6.41-8.22-12.13-15.36-12.28-7.5-.15-13.81,5.8-16.28,12.56l-.65,1.77-28.32,80.9-25.66,72a30.34,30.34,0,0,1-5.1,8.8l66.28,0c8.49-.14,16-5.28,18.8-12.79l.66-1.81,28.31-80.86.83-2.32Z"/><path class="cls-2" d="M326.5,261.73h78.59l-26.75-75c-2.75-7.51-10.3-12.65-18.8-12.79l-1.28,0h-65a30.15,30.15,0,0,1,5.06,8.73Z"/></svg>