<?xml version="1.0" encoding="UTF-8"?>
<svg id="Layer_2" data-name="Layer 2" xmlns="http://www.w3.org/2000/svg" viewBox="0 0 1395.32 1395.32">
  <defs>
    <style>
      .cls-1 {
        fill: #89ff55;
      }
    </style>
  </defs>
  <g id="Layer_1-2" data-name="Layer 1">
    <g>
      <circle class="cls-1" cx="697.66" cy="697.66" r="697.66"/>
      <g>
        <path d="m709.81,788.71c-1.69-5.4-3.79-10.77-6.31-16.08-23.67-49.74-79.6-77.36-133.45-65.77-71.12,15.31-111.56,88.06-89.49,155.32,9.95,30.34,30.82,54.04,56.81,68.19,29.19,15.88,47.6,45.41,49.62,78.58,1.05,17.19,5.06,34.57,12.37,51.51,29.39,68.09,105.68,105.21,177.45,86.52,85.69-22.31,133.58-111.75,106.4-194.58-16.69-50.87-57.67-86.96-105.86-99.64-31.96-8.41-57.67-32.51-67.54-64.05Z"/>
        <circle cx="809.16" cy="527.79" r="111.64"/>
        <circle cx="627.97" cy="290.37" r="46.86"/>
      </g>
    </g>
  </g>
</svg>