<svg width="320" height="320" viewBox="0 0 320 320" fill="none" xmlns="http://www.w3.org/2000/svg">
<path fill-rule="evenodd" clip-rule="evenodd" d="M217.557 15.8083C216.802 15.4683 216.079 15.0049 215.288 14.8066C186.075 7.48795 157.218 8.64627 128.94 19.0204C117.942 23.0554 107.59 28.4585 97.9651 35.3096C89.6346 41.2394 82.0065 47.8729 75.2953 55.4521C52.6758 80.9973 41.9105 110.731 43.9037 144.823C45.2388 167.654 52.8352 188.302 67.3008 206.022C84.1559 226.668 105.846 239.505 132.928 242.089C150.767 243.791 167.791 240.818 183.415 231.715C190.137 227.798 196.208 223.01 201.598 217.386C203.25 215.662 204.995 213.97 206.94 212.603C207.777 212.014 209.528 211.816 210.322 212.304C211.104 212.785 211.76 214.52 211.497 215.426C210.624 218.429 209.725 221.56 208.089 224.184C203.225 231.986 196.965 238.556 189.2 243.672C159.448 263.273 128.078 263.544 96.0274 250.624C79.1 243.802 65.0651 232.735 53.2263 218.781C32.9259 194.855 23.7576 166.978 23.1479 136.205C22.7955 118.407 26.6836 101.144 33.2452 84.5813C38.6073 71.0464 45.6802 58.4064 55.2112 47.2653C59.4149 42.3515 63.9468 37.7131 68.3254 32.9453C69.1542 32.043 69.9616 31.1217 70.7792 30.2087C70.6506 30.0544 70.5219 29.8996 70.3932 29.7448C69.2684 30.655 68.0424 31.4673 67.0351 32.4907C57.8547 41.8174 49.2971 51.6038 42.3724 62.7838C30.2893 82.291 22.9409 103.3 21.012 126.116C19.3767 145.454 21.3071 164.44 27.7232 182.819C33.2326 198.603 41.1758 213.16 52.4007 225.681C79.1723 255.546 112.515 270.431 153.102 267.613C173.999 266.162 193.076 259.139 209.383 245.986C234.37 225.831 246.886 199.842 245.089 167.575C244.94 164.886 244.659 162.178 244.847 159.507C244.927 158.36 245.883 156.563 246.745 156.366C247.722 156.143 249.45 157.089 250.137 158.037C253.218 162.284 254.178 167.362 254.907 172.38C257.812 192.383 253.793 211.084 243.837 228.643C234.331 245.411 221.234 258.755 204.565 268.475C174.412 286.058 142.18 289.444 108.538 281.187C87.5075 276.026 68.9631 265.962 52.5975 251.941C35.5121 237.303 22.5596 219.649 13.6193 199.104C11.5333 194.311 9.56704 189.467 7.27917 184.7C8.22313 187.767 8.99787 190.897 10.1371 193.891C21.4553 223.628 39.9419 247.897 66.6156 265.735C90.1622 281.482 116.219 289.809 144.656 289.755C174.862 289.698 202.137 280.586 225.727 261.632C249.186 242.783 263.334 218.431 267.675 188.817C270.991 166.205 266.782 144.653 255.207 124.928C245.393 108.203 231.466 95.5811 213.168 88.1589C208.934 86.4415 204.579 85.0193 200.282 83.454C199.116 83.0294 197.789 82.7983 196.848 82.078C195.908 81.3582 194.656 80.0016 194.818 79.1681C195.02 78.1299 196.394 76.8584 197.506 76.5516C199.485 76.0054 201.655 75.8932 203.73 75.9745C216.604 76.4781 228.103 81.0763 238.757 87.9477C261.849 102.842 275.952 124.017 282.279 150.337C288.66 176.878 285.669 202.68 274.691 227.562C265.604 248.159 251.616 265.111 233.834 278.887C222.341 287.79 209.596 294.607 195.874 299.739C183.043 304.537 169.87 307.427 156.265 308.643C155.265 308.733 154.274 308.925 153.281 309.314C155.278 309.314 157.294 309.496 159.268 309.285C174.387 307.669 189.249 304.81 203.305 298.893C220.528 291.643 236.117 281.928 249.53 268.771C259.672 258.824 268.36 247.904 275.037 235.438C288.892 209.571 293.941 182.136 289.138 153.174C284.052 122.506 269.333 97.2818 244.09 78.6441C224.25 63.9948 201.808 56.8179 176.896 58.2405C161.128 59.1411 146.424 63.8571 133.329 72.4561C116.256 83.6684 104.707 99.1074 99.9598 119.16C99.4657 121.249 98.9096 123.389 97.9237 125.269C97.3731 126.319 95.8861 127.48 94.8056 127.495C93.7358 127.511 91.9448 126.328 91.6922 125.358C90.8111 121.978 90.0075 118.466 89.9935 115.001C89.9553 105.546 93.1102 96.8161 97.4351 88.5586C108.536 67.3639 126.071 53.5508 148.513 45.5317C180.742 34.0149 211.696 38.1622 241.502 53.5107C258.203 62.1106 271.99 74.2719 283.409 89.1541C297.883 108.016 306.762 129.154 310.307 152.519C311.311 159.132 311.901 165.807 312.738 172.954C313.503 164.202 312.479 156.035 311.125 147.937C307.245 124.728 298.227 103.603 283.789 84.9297C271.786 69.4043 257.065 56.9723 239.446 47.8918C219.634 37.6812 198.602 32.523 176.388 33.4286C150.701 34.4756 126.991 42.3021 107.367 59.0329C77.9304 84.1309 64.7649 115.812 72.7585 154.32C77.4853 177.089 90.6084 194.388 111.462 205.403C116.204 207.909 121.581 209.239 126.677 211.079C128.499 211.737 130.511 212.041 132.138 213.002C133.229 213.646 134.437 215.174 134.417 216.286C134.398 217.415 133.122 219.229 132.069 219.503C128.659 220.389 125.068 221.314 121.603 221.136C106.724 220.37 93.8924 214.549 82.5607 205.039C65.5602 190.772 56.0157 172.429 51.9159 151.027C47.0941 125.857 51.7878 102.057 63.5469 79.6662C73.9355 59.8845 89.0924 44.2754 108.267 32.3951C132.188 17.5738 158.253 10.9472 186.267 11.5335C196.837 11.7549 207.301 13.2838 217.592 15.7954L217.557 15.8083Z" fill="url(#paint0_linear_23_8526)"/>
<path d="M136.003 21.5805L137.52 91.5787C137.736 101.554 145.771 109.59 155.747 109.806L225.745 111.322L155.747 112.838C145.771 113.054 137.736 121.09 137.52 131.065L136.003 201.064L134.487 131.065C134.271 121.09 126.236 113.054 116.26 112.838L46.2617 111.322L116.26 109.806C126.236 109.59 134.271 101.554 134.487 91.5788L136.003 21.5805Z" fill="#F8F1E4"/>
<defs>
<linearGradient id="paint0_linear_23_8526" x1="119.348" y1="580.478" x2="492.677" y2="466.018" gradientUnits="userSpaceOnUse">
<stop stop-color="#F26F56"/>
<stop offset="1" stop-color="#F49756"/>
</linearGradient>
</defs>
</svg>
