<?xml version="1.0" encoding="UTF-8"?>
<svg id="Chi_Logo" data-name="Chi Logo" xmlns="http://www.w3.org/2000/svg" version="1.1" viewBox="0 0 256 256">
  <defs>
    <style>
      .cls-1 {
        fill: #0050a7;
      }

      .cls-1, .cls-2 {
        stroke-width: 0px;
      }

      .cls-2 {
        fill: #fff;
      }
    </style>
  </defs>
  <circle class="cls-1" cx="128" cy="128" r="127"/>
  <polygon class="cls-2" points="202.1 128 161.6 178.2 153.4 168.2 128.9 138.2 112.4 158.6 104.4 148.7 120.9 128.4 95.1 97 70.1 128 128 199.7 136.7 188.8 118.4 165.9 126.4 155.9 144.9 178.8 153 188.8 153 188.8 128 219.8 53.9 128 94.8 77.4 102.9 87.3 128.7 118.8 145.1 98.5 153 108.1 136.6 128.5 161.2 158.6 185.9 128 128 56.4 119.8 66.5 138.2 89.5 130.1 99.5 111.7 76.6 103.6 66.5 128 36.2 202.1 128"/>
</svg>