<?xml version="1.0" encoding="UTF-8"?><svg width="1032" height="1032" xmlns="http://www.w3.org/2000/svg"><g transform="translate(18 18)" fill-rule="nonzero" fill="none"><circle fill="#FFF" cx="498" cy="498" r="482"/><path d="M498 0C223.41 0 0 223.41 0 498c0 274.592 223.41 498 498 498 274.592 0 498-223.408 498-498C996 223.41 772.613 0 498 0ZM174.985 796.48a42.046 42.046 0 0 1-.742-9.178c.479-15.093 8.554-27.889 14.328-41.379 6.038-14.137 11.382-28.561 16.365-43.106 7.093-20.584 12.388-41.765 16.342-63.185 2.084-11.308-1.15-28.776 6.11-38.671 2.252-3.044 4.624-4.672 7.044-5.201 11.885-2.637 25.183 20.415 31.532 27.484 33.042 36.803 72.05 67.64 110.602 98.382C413.49 751.1 451.685 781.553 482.714 815c15.382 16.581 30 33.93 43.178 52.332 6.66 9.298 12.939 18.881 18.738 28.751 5.795 9.92 11.619 19.961 10.564 31.966-.526 5.964-3.424 11.691-7.931 15.622-6.014 5.248-13.49 5.846-21.085 6.372-9.369.647-18.81.865-28.203.865-16.939 0-33.88-.937-50.722-2.83-50.848-5.701-100.636-20.125-146.665-42.505a453.137 453.137 0 0 1-64.503-38.29c-20.965-14.904-42.17-30.454-54.726-53.48-2.947-5.414-5.271-11.284-6.398-17.322h.024Zm308.208-468.866c15.766 15.769 23.578 1.152 36.85-9.798a151.536 151.536 0 0 1 48.043-26.74c34.6-11.67 72.84-10.208 106.553 3.761 60.574 25.086 95.291 83.84 95.291 161.184 0 38.098-11.404 75.165-29.398 108.52-30.07 55.709-76.557 101.616-125.963 140.408-21.156 16.63-43.25 32.06-65.986 46.462a825.008 825.008 0 0 1-26.862 16.29c-14.71 8.532-24.87 8.532-38.002-3.856-8.914-8.41-18.065-16.534-27.337-24.511-18.548-15.934-37.69-31.198-56.811-46.462-85.997-68.598-167.224-133.411-167.224-236.826 0-45.046 11.717-83.601 33.33-112.785.383-.597.814-1.148 1.198-1.749 15.12-19.886 34.839-35.365 58.75-45.261 17.972-7.452 36.782-11.07 55.423-11.07 37.547 0 74.397 14.712 102.167 42.458l-.022-.025Zm-77.848-85.323c7.956-10.518 34.288-11.405 46.243-13.178 17.515-2.588 35.247-3.714 52.955-3.45 12.506.191 24.94 1.796 37.307 3.498 10.71 1.485 26.38.647 35.87 6.373 2.561 1.534 4.622 4.241 4.525 7.236 0 .216 0 .432-.047.647-.336 2.54-2.157 4.744-4.36 6.086-9.323 5.751-23.124 6.877-33.377 11.118-14.208 5.87-24.969 19.504-40.52 21.541-18.376 2.42-29.3-7.02-43.56-15.359-15.26-8.937-33.615-10.59-50.65-13.586-1.417-.24-2.855-.599-3.978-1.461-2.805-2.133-2.565-6.685-.458-9.489l.05.024ZM616.15 919.493a46.806 46.806 0 0 1-15.836-16.052c-7.477-12.652-15.05-25.159-23.507-37.21-9.297-13.25-25.015-37.787-17.993-54.343 2.25-5.298 6.636-9.347 10.9-13.229 11.55-10.47 21.542-22.33 32.9-32.85 19.024-17.586 33.737-30.525 51.42-45.26 14.327-11.958 27.123-26.718 43.464-35.894 3.33-1.87 7.068-3.595 10.831-2.948 3.953.673 7.09 3.978 8.65 7.667 1.556 3.716 1.796 7.812 1.914 11.837.96 32.349-.046 57.82 6.064 91.531 3.377 18.642 12.195 36.06 19.814 53.41 4.747 10.806 1.8 23.48-4.815 32.85-3.595 5.054-6.972 6.37-12.123 9.079-6.253 3.283-12.27 7.068-18.498 10.377-14.041 7.452-28.536 13.562-43.035 19.983-6.132 2.708-10.878 6.06-17.826 7.212-6.732 1.126-13.704.815-20.294-.984a46.727 46.727 0 0 1-12.03-5.198v.022Zm181.815-96.44c-.286-.072-.55-.122-.815-.215-10.9-2.997-13.68-12.917-16.173-22.572-2.805-10.904-4.912-21.972-5.942-33.187a882.942 882.942 0 0 1-3.617-77.584c-.075-29.351 2.898-83.912 15-128.764 2.633-9.752 4.718-19.195 7.906-28.969 7.955-24.44 12.41-50.031 12.41-75.766 0-25.732-3.331-50.268-10.758-74.276-3.115-10.088-10.806-21.613-11.164-31.988-.361-9.92 5.223-18.93 7.977-27.891 2.851-9.298 5.176-18.737 7.069-28.25 3.259-16.46 7.548-33.832 9.057-50.413.934-10.16 1.868-20.319 2.827-30.502.217-2.396.432-4.864-.19-7.189-.648-2.324-2.325-4.528-4.672-5.055-2.661-.623-5.298.958-7.573 2.468-22.594 15-49.36 23.937-75.86 28.968-12.098 2.3-25.087 5.104-37.068 2.133-14.305-3.546-26.811-8.506-40.255-14.592-14.255-6.446-28.99-11.837-44.014-16.222-31.484-9.177-64.216-13.897-96.995-14.376-33.447-.503-67.041 3.57-99.29 12.46-15.791 4.336-31.27 9.847-46.223 16.532-7.162 3.211-13.99 7.404-21.18 10.447-5.846 2.468-12.772 7.045-18.953 8.099-3.785.647-8.65-.575-12.46-.887-10.998-.91-21.9-2.899-32.586-5.63-20.655-5.272-40.47-13.203-60.094-21.397-2.037-.839-4.313-.815-6.493-.767-1.797.048-3.666.072-5.344.767-3.737 1.51-5.607 5.678-6.613 9.608-2.612 10.231-.36 20.199.312 30.478a352.966 352.966 0 0 0 3.043 28.825c1.749 11.932 4.121 23.793 7.26 35.462a255.786 255.786 0 0 0 5.583 18.162c3.258 9.272 5.247 21.374 1.82 30.836-3.402 9.394-7.451 18.427-10.063 28.228-5.727 21.492-8.29 43.775-8.29 66.012 0 5.054.215 9.99.527 14.878 3.067 48.833-1.078 101.09-8.674 149.347 0 25.138-12.987 54.44-21.708 77.634-3.906 10.424-7.74 21.757-13.802 31.126-1.988 3.066-4.025 6.157-6.733 8.625-5.175 4.719-12.675 6.782-19.528 5.366-12.076-2.515-17.683-14.831-23.146-24.583a454.31 454.31 0 0 1-17.922-35.63c-10.998-24.536-19.816-50.053-26.262-76.146-8.769-35.486-13.154-72.028-13.154-108.591 0-249.79 203.14-452.93 452.858-452.93 249.719 0 452.883 203.163 452.883 452.883 0 20.415-1.366 40.828-4.096 61.05-6.782 50.128-22.093 99.008-45.073 144.078a454.108 454.108 0 0 1-39.054 63.16 462.456 462.456 0 0 1-23.17 28.873c-7.859 9.008-15.239 18.523-24.704 25.685-1.077.815-2.182 1.653-3.452 2.11-1.27.455-2.658.501-4 .551-3.115.097-6.303.19-9.322-.48h-.047Z" fill="#000"/><path d="M324.324 382.232c-10.363-.887-17.615-6.305-27.452-8.56-1.723-.409-3.638-.552-5.194.311-2.178 1.2-2.968 4.078-2.585 6.548.383 2.47 1.627 4.702 2.633 7.004 1.388 3.165 2.274 6.545 3.135 9.879 3.04 11.654 6.104 23.334 8.856 35.063 2.13 9.04 2.777 17.433 7.755 25.636 8.807 14.508 24.87 23.624 41.815 23.624 12.182 0 24.103-4.68 33.054-12.95a49.525 49.525 0 0 0 10.892-14.63c1.673-3.455 1.387-12.736 3.327-14.487 9.813-8.897 32.358 28.587 35.95 34.054 5.985 9.137 13.5 18.131 18.764 27.484 7.443 13.19 12.996 28.443 17.52 42.88 5.124 16.308 7.973 32.832 9.191 49.836.218 2.95.433 5.922 1.176 8.776 1.386 5.302 4.545 9.928 7.658 14.414 1.365 1.991 2.801 4.028 4.788 5.421 1.987 1.39 4.689 1.99 6.868.91.887-.455 1.627-1.175 2.345-1.894 9.383-9.76 11.084-22.4 12.664-35.207 2.823-22.9 5.503-48.419 15.677-69.307 4.188-8.611 8.998-16.932 13.811-25.207 5.478-9.399 11.439-18.56 18.093-27.168 3.28-4.247 6.703-8.347 10.366-12.281 2.201-2.374 6.436-8.848 10.099-7.315 3.806 1.607 5.65 10.193 7.85 13.67a49.162 49.162 0 0 0 11.25 12.518 48.85 48.85 0 0 0 30.135 10.458c15.487 0 30.278-7.58 39.444-20.05 4.334-5.898 8.498-14.004 8.905-21.465.479-8.776-1.269-16.81 1.197-25.78 3.541-12.879 12.997-23.839 14.601-37.1.19-1.608.168-3.477-1.054-4.533-1.172-1.032-2.944-.838-4.474-.574-21.351 3.62-41.506 9.736-63.261 11.583-31.453 2.636-58.858 19.306-80.256 41.87-8.952 9.428-17.928 19.98-24.532 31.226-5.196 8.825-12.447 17.028-16.42 26.502-2.084 5.013-4.117 11.078-9.313 12.614-14.025 4.1-22.044-27.723-27.43-36.094-8.662-13.477-18.478-26.26-29.895-37.531-23.839-23.502-54.403-38.637-88.272-38.637-9.934 0-19.747-.648-29.656-1.51h-.025Z" fill="#000"/></g></svg>