<?xml version="1.0" encoding="UTF-8"?>
<svg id="Layer_1" xmlns="http://www.w3.org/2000/svg" version="1.1" viewBox="0 0 256 256.32">
  <!-- Generator: Adobe Illustrator 29.1.0, SVG Export Plug-In . SVG Version: 2.1.0 Build 142)  -->
  <g id="Layer_2">
    <circle cx="114.69" cy="133.82" r="92.27" fill="#fff"/>
  </g>
  <path d="M251.78,128.24c-.09-1.72-.21-3.41-.42-5.09-.51-5.68-1.48-11.24-2.86-16.68-.42-1.73-.93-3.41-1.43-5.09-2.24-7.33-5.18-14.32-8.8-20.89-.92-1.73-1.94-3.41-2.94-5.05-4.35-6.99-9.44-13.47-15.16-19.33-1.73-1.77-3.5-3.49-5.35-5.09-4.5-4.09-9.39-7.79-14.52-11.03-2.87-1.85-5.86-3.58-8.93-5.09-15.2-7.83-32.47-12.26-50.7-12.26h-25.27v18.92c51.01,0,92.35,41.36,92.35,92.37s-41.34,92.36-92.35,92.37v18.93h25.27c16.85,0,32.8-3.75,47.12-10.49,3.28-1.51,6.48-3.2,9.59-5.09,5.14-3.03,10.03-6.49,14.61-10.36,1.94-1.6,3.83-3.29,5.69-5.1,3.62-3.41,6.99-7.12,10.02-11.03,1.39-1.64,2.65-3.37,3.83-5.09,2.61-3.66,4.97-7.45,7.12-11.41.88-1.64,1.77-3.37,2.52-5.1,3.08-6.4,5.52-13.14,7.33-20.17.42-1.69.8-3.37,1.14-5.1.76-3.62,1.3-7.28,1.68-11.03.22-1.68.35-3.37.43-5.1.12-2.06.17-4.13.17-6.23,0-1.89-.05-3.79-.13-5.69Z" fill="#c88a1d"/>
  <g>
    <path d="M251.74,140.16c-.08,1.73-.21,3.41-.43,5.1h-31.07v-5.1h31.5Z" fill="#a47212"/>
    <path d="M249.63,156.29c-.33,1.73-.72,3.41-1.14,5.1h-38.19v-5.1h39.33Z" fill="#a47212"/>
    <path d="M241.17,181.56c-.76,1.73-1.64,3.46-2.52,5.1h-37.61v-5.1h40.13Z" fill="#a47212"/>
    <path d="M231.53,198.06c-1.18,1.73-2.44,3.45-3.83,5.09h-39.04v-5.09h42.87Z" fill="#a47212"/>
    <path d="M217.68,214.19c-1.86,1.81-3.75,3.5-5.69,5.1h-36.55v-5.1h42.24Z" fill="#a47212"/>
    <path d="M197.37,229.65c-3.11,1.89-6.31,3.58-9.59,5.09h-31.37v-5.09h40.97Z" fill="#a47212"/>
    <path d="M251.78,128.24h-33.65v-5.09h33.22c.21,1.69.33,3.37.42,5.09Z" fill="#a47212"/>
    <path d="M248.5,106.48h-34.19v-5.09h32.76c.5,1.68,1.01,3.37,1.43,5.09Z" fill="#a47212"/>
    <path d="M238.26,80.5h-34.27v-5.05h31.33c1,1.64,2.02,3.33,2.94,5.05Z" fill="#a47212"/>
    <path d="M220.16,56.11h-38.15v-5.09h32.8c1.86,1.6,3.63,3.33,5.35,5.09Z" fill="#a47212"/>
    <path d="M200.28,39.99h-36.98v-5.09h28.05c3.07,1.51,6.06,3.24,8.93,5.09Z" fill="#a47212"/>
  </g>
  <path d="M115.37,22.65C53.91,22.65,4.09,72.47,4.09,133.92s49.83,111.29,111.28,111.29,111.29-49.82,111.29-111.29S176.84,22.65,115.37,22.65ZM115.37,226.3c-51.01,0-92.37-41.36-92.37-92.37S64.36,41.56,115.37,41.56s92.37,41.36,92.37,92.37-41.35,92.37-92.37,92.37Z" fill="#f8ae0f"/>
  <g>
    <path d="M90.9,179.4c3.05-3.1,6.05-6.16,9.06-9.21,15.68,15.09,38.7,10.43,47.05,2.83-1.62-1.56-3.22-3.14-4.87-4.67-2.06-1.93-2.79-4.23-1.97-6.94.77-2.55,2.6-4,5.16-4.48,2.05-.39,3.89.21,5.37,1.66,1.71,1.68,3.34,3.45,5.22,5.41,5.49-7.73,7.1-15.95,6.3-24.69-.8-8.85-4.58-16.38-10.97-22.49,3.06-3.17,5.97-6.19,9.13-9.46,1.85,2.15,3.82,4.25,5.56,6.52,4.89,6.36,7.91,13.58,8.95,21.51,1.73,13.24-.44,25.64-8.56,36.59-.62.84-.42,1.24.22,1.85,2.48,2.34,4.92,4.72,7.36,7.1,2.77,2.7,3.09,6.25.85,9.05-2.33,2.91-6.71,3.25-9.48.67-2.56-2.4-5.05-4.86-7.55-7.33-.69-.68-1.24-.99-2.15-.26-6.31,5.04-13.48,8.23-21.47,9.4-16.23,2.38-30.69-1.35-42.9-12.67-.14-.13-.25-.3-.32-.39Z" fill="#0173bc" fill-rule="evenodd"/>
    <path d="M85.92,167.91c-3.89,2.83-8.05,4.83-12.61,5.94-7.82,1.9-14.95.45-21.09-4.82-3.74-3.21-5.63-7.63-6.92-12.24-.63-2.28-.74-4.73-.91-7.11-.08-1.04-.47-1.26-1.3-.98-1.82.62-3.62,1.29-5.47,1.97.07-4.09.84-8.16,3.04-11.87,2.28-3.83,5.78-5.85,10.39-6.53-2.53-1.86-4.83-3.56-7.33-5.41,3.82-3.7,7.89-6.47,13.01-7.31,5.26-.87,9.73.95,13.71,4.55,5.7-18.57,18.11-29.87,36.52-35.14-.35-.38-.59-.68-.86-.93-5.79-5.44-6.77-12.07-2.61-18.85,1.22-1.99,2.88-3.71,4.32-5.56.66-.86,1.47-.93,2.21-.28,1.01.87,1.9,1.88,2.82,2.86.29.31.49.71.86,1.27,3.42-9.6,10.7-12.16,20-11.5-.75,1.1-1.53,2.01-2.05,3.05-.49.99-.72,2.12-1.15,3.47,1.09-.11,1.8-.21,2.52-.26,7.56-.52,13.56,2.55,18.31,8.19,3.85,4.57,6.79,9.62,6.5,15.88-.24,5.13-2.82,9.02-6.86,12.09,4.24-9.06,5.15-17.7-2.81-25.38-7.54-7.28-16.15-7.73-25.49-3.86-.22-2.72.79-4.81,2.25-6.79-3.38,1.79-5.87,4.49-7.53,7.83-1.63,3.28-2.86,6.74-4.25,10.09-2.17-2.42-3.27-5.63-4.42-9.08-1.21,1.35-1.49,2.84-1.62,4.36-.33,3.98,1.25,7.35,3.56,10.42,1.26,1.67,2.72,3.17,4.1,4.78-20.92,6.15-35.74,18.53-41.33,40.45-1.59-1.21-3.09-2.44-4.68-3.55-2.56-1.8-5.31-3.36-8.48-3.58-1.61-.11-3.39.27-4.9.9-1.92.79-1.93,1.63-.23,2.81,1.31.91,2.76,1.62,4.17,2.37.61.33,1.26.56,1.84.8-3.1,1.33-6.27,2.49-9.27,4.02-3.02,1.54-5.58,3.69-6.68,7.1,1.78,1.33,2.98,1.54,5.78,1.03-.33,1.05-.7,2.01-.94,2.99-1.8,7.26.28,13.5,5.01,19.08,3.39,4,7.98,5.13,12.85,5.58,5.85.55,11.44-.73,16.9-2.74.23-.09.46-.17.7-.24.08-.02.17.04.41.11Z" fill="#565455" fill-rule="evenodd"/>
    <path d="M137.46,148.48c.03,4.32-2.84,6.69-7.24,5.92-4.17-.73-7.66-2.82-10.83-5.51-4.1-3.49-7.51-7.52-9.3-12.68-.49-1.4-.83-2.91-.87-4.39-.11-3.79,2.65-6.13,6.44-5.69,4.4.52,8.06,2.65,11.36,5.4,4.66,3.88,8.39,8.44,10.01,14.44.22.82.29,1.67.43,2.5Z" fill-rule="evenodd"/>
    <path d="M140.19,92.4c-3.5-2.39-6.98-3.73-10.69-4.45-1.08-.21-2.17-.39-3.26-.47-3.1-.24-4.47-2.01-3.72-4.95.83-3.27,4.94-8.04,9.78-7.29,1.5.23,3.13.87,4.3,1.82,3.44,2.78,5.53,6.36,4.98,10.97-.16,1.42-.86,2.78-1.38,4.38Z" fill="#0173bc" fill-rule="evenodd"/>
    <path d="M73.17,160.04c-2.86,2.19-7.25,1.95-9.96-.75-3.03-3.03-4.83-6.7-4.61-11.14.21-4.09,4.99-7.69,8.98-6.77,2.08.48,3.03,1.95,2.64,4.11-.83,4.59.79,8.75,2.28,12.94.2.55.45,1.09.67,1.6Z" fill="#0173bc" fill-rule="evenodd"/>
    <path d="M101.51,148.51c.03,2.83-2.13,5.07-4.96,5.12-2.9.06-5.14-2.15-5.17-5.07-.02-2.79,2.23-5.06,5.03-5.06,2.81,0,5.07,2.22,5.09,5.02Z" fill-rule="evenodd"/>
    <path d="M125.57,114.26c-.02-2.9,2.18-5.11,5.12-5.12,2.76,0,5.09,2.33,5.07,5.07-.02,2.72-2.35,5.05-5.11,5.08-2.75.04-5.06-2.24-5.08-5.04Z" fill-rule="evenodd"/>
  </g>
</svg>