<?xml version="1.0" encoding="UTF-8"?>
<svg version="1.1" xmlns="http://www.w3.org/2000/svg" width="96" height="96">
<path d="M0 0 C1.31653564 0.01135986 1.31653564 0.01135986 2.65966797 0.02294922 C9.45144448 0.1952272 15.06562583 1.23369297 21.125 4.4375 C21.98222656 4.87320312 22.83945313 5.30890625 23.72265625 5.7578125 C36.08766834 12.58374678 43.23004062 22.68856753 47.52075195 36.01293945 C48.54203578 40.11086661 48.61362209 44.10669413 48.5625 48.3125 C48.55492676 49.19019043 48.54735352 50.06788086 48.53955078 50.97216797 C48.3672728 57.76394448 47.32880703 63.37812583 44.125 69.4375 C43.47144531 70.72333984 43.47144531 70.72333984 42.8046875 72.03515625 C35.97875322 84.40016834 25.87393247 91.54254062 12.54956055 95.83325195 C8.45163339 96.85453578 4.45580587 96.92612209 0.25 96.875 C-0.62769043 96.86742676 -1.50538086 96.85985352 -2.40966797 96.85205078 C-9.20144448 96.6797728 -14.81562583 95.64130703 -20.875 92.4375 C-22.16083984 91.78394531 -22.16083984 91.78394531 -23.47265625 91.1171875 C-35.83766834 84.29125322 -42.98004062 74.18643247 -47.27075195 60.86206055
C-48.29203578 56.76413339 -48.36362209 52.76830587 -48.3125 48.5625 C-48.30492676 47.68480957 -48.29735352 46.80711914 -48.28955078 45.90283203 C-48.1172728 39.11105552 -47.07880703 33.49687417 -43.875 27.4375 C-43.43929687 26.58027344 -43.00359375 25.72304688 -42.5546875 24.83984375 C-35.72875322 12.47483166 -25.62393247 5.33245938 -12.29956055 1.04174805 C-8.20163339 0.02046422 -4.20580587 -0.05112209 0 0 Z " fill="#3A73C4" transform="translate(47.875,-0.4375)"/>
<path d="M0 0 C1.32 0.66 2.64 1.32 4 2 C4 8.93 4 15.86 4 23 C4.66 23 5.32 23 6 23 C6.21011719 22.45859375 6.42023437 21.9171875 6.63671875 21.359375 C8.51269807 18.11269446 11.08218876 15.76571604 13.8125 13.25 C14.33392578 12.74339844 14.85535156 12.23679687 15.39257812 11.71484375 C17.89402638 9.39764699 19.44617437 8.06295176 22.88671875 7.671875 C23.58410156 7.78015625 24.28148437 7.8884375 25 8 C25.36328125 10.1484375 25.36328125 10.1484375 25 13 C23.10349089 15.09939148 21.33282026 16.82362382 19.1875 18.625 C18.09735993 19.57518098 17.00750762 20.52569221 15.91796875 21.4765625 C14.95503906 22.30929688 13.99210937 23.14203125 13 24 C12.01 24.99 11.02 25.98 10 27 C16.93 27.33 23.86 27.66 31 28 C31.66 29.32 32.32 30.64 33 32 C29.36209965 35.63790035 23.54194709 34.36952456 18.625 34.375 C17.47515625 34.39949219 16.3253125 34.42398438 15.140625 34.44921875 C13.48160156 34.45501953 13.48160156 34.45501953 11.7890625 34.4609375 C10.77537598 34.46915527 9.76168945 34.47737305 8.71728516 34.48583984 C5.33567098 33.8812206 4.15899777 32.59787601 2 30 C-0.46800047 31.15173355 -2.04783565 32.04783565 -4 34 C-6.52197266 34.22705078 -6.52197266 34.22705078 -9.6640625 34.1953125 C-10.78554688 34.18886719 -11.90703125 34.18242188 -13.0625 34.17578125 C-14.238125 34.15902344 -15.41375 34.14226563 -16.625 34.125 C-18.40003906 34.11146484 -18.40003906 34.11146484 -20.2109375 34.09765625 C-23.14082523 34.07402812 -26.0703134 34.04108514 -29 34 C-29.66 32.68 -30.32 31.36 -31 30 C-27.86882433 27.91254955 -26.93053776 27.72346004 -23.33203125 27.5859375 C-22.43935547 27.54726563 -21.54667969 27.50859375 -20.62695312 27.46875 C-19.69818359 27.4378125 -18.76941406 27.406875 -17.8125 27.375 C-16.87212891 27.33632813 -15.93175781 27.29765625 -14.96289062 27.2578125 C-12.6421229 27.16356813 -10.32136252 27.07795975 -8 27 C-9.74688937 25.22600373 -11.49733451 23.45577447 -13.25 21.6875 C-13.74113281 21.18798828 -14.23226562 20.68847656 -14.73828125 20.17382812 C-16.85071542 18.04731106 -18.90786563 16.06633675 -21.34375 14.3125 C-21.8903125 13.879375 -22.436875 13.44625 -23 13 C-23.25 10.3125 -23.25 10.3125 -23 8 C-20.9375 7.5625 -20.9375 7.5625 -18 8 C-16.10773925 9.55066498 -14.50456133 11.25521111 -12.84375 13.05078125 C-10.52479573 15.50238757 -7.99095736 17.60381292 -5.3828125 19.73828125 C-4 21 -4 21 -3 23 C-2.98018066 22.37432129 -2.96036133 21.74864258 -2.93994141 21.10400391 C-2.84485774 18.27723481 -2.73511254 15.45122185 -2.625 12.625 C-2.5940625 11.64015625 -2.563125 10.6553125 -2.53125 9.640625 C-2.49257813 8.69960938 -2.45390625 7.75859375 -2.4140625 6.7890625 C-2.3826416 5.91975098 -2.3512207 5.05043945 -2.31884766 4.15478516 C-2 2 -2 2 0 0
Z " fill="#FAFBFD" transform="translate(47,28)"/>
</svg>
