<?xml version="1.0" standalone="no"?>
<!DOCTYPE svg PUBLIC "-//W3C//DTD SVG 20010904//EN"
 "http://www.w3.org/TR/2001/REC-SVG-20010904/DTD/svg10.dtd">
<svg version="1.0" xmlns="http://www.w3.org/2000/svg"
 width="96.000000pt" height="96.000000pt" viewBox="0 0 96.000000 96.000000"
 preserveAspectRatio="xMidYMid meet">

<g transform="translate(0.000000,96.000000) scale(0.100000,-0.100000)"
fill="#000000" stroke="none">
<path d="M400 950 c-292 -52 -465 -348 -369 -629 85 -246 358 -376 608 -290
338 117 427 563 159 804 -62 55 -134 91 -223 110 -76 16 -107 17 -175 5z m98
-282 c8 -8 12 -49 12 -117 l0 -105 84 82 c91 90 126 104 126 53 0 -24 -15 -44
-82 -105 l-81 -76 110 0 c86 0 113 -3 123 -15 10 -12 10 -18 0 -30 -10 -12
-39 -15 -138 -15 -115 0 -128 2 -149 22 l-23 21 -23 -21 c-21 -20 -34 -22
-149 -22 -99 0 -128 3 -138 15 -10 12 -10 18 0 30 10 12 37 15 124 15 l111 0
-83 76 c-67 62 -82 81 -82 105 0 51 35 37 126 -53 l84 -82 0 105 c0 97 8 129
30 129 3 0 11 -5 18 -12z"/>
</g>
</svg>
