<svg width="200" height="200" viewBox="0 0 200 200" fill="none" xmlns="http://www.w3.org/2000/svg">
<path fill-rule="evenodd" clip-rule="evenodd" d="M200 103.125C200 120.702 191.999 136.488 179.405 146.796C171.934 152.909 162.573 156.25 152.914 156.25H47.0856C37.4267 156.25 28.0659 152.909 20.5952 146.796C8.00119 136.488 0 120.702 0 103.125C0 85.5481 8.00119 69.7619 20.5952 59.4541C28.0659 53.3408 37.4267 50 47.0856 50H152.914C162.573 50 171.934 53.3408 179.405 59.4541C191.999 69.7619 200 85.5481 200 103.125Z" fill="url(#paint0_linear_262_616)"/>
<path fill-rule="evenodd" clip-rule="evenodd" d="M92.9275 95.9256C67.9294 94.6469 46.1675 86.6531 32.7923 75C24.2315 81.6038 18.75 91.7488 18.75 103.125C18.75 114.501 24.2315 124.646 32.7923 131.25C46.1675 119.597 67.9294 111.603 92.9275 110.324C95.2581 110.205 97.6175 110.144 100 110.144C102.383 110.144 104.742 110.205 107.072 110.324C132.071 111.603 153.833 119.597 167.208 131.25C175.769 124.646 181.25 114.501 181.25 103.125C181.25 91.7488 175.769 81.6038 167.208 75C153.833 86.6531 132.071 94.6469 107.072 95.9256C104.742 96.045 102.383 96.1056 100 96.1056C97.6175 96.1056 95.2581 96.045 92.9275 95.9256Z" fill="black"/>
<path fill-rule="evenodd" clip-rule="evenodd" d="M32.7923 75C46.1675 86.6531 67.9294 94.6469 92.9275 95.9256C95.2581 96.045 97.6175 96.1056 100 96.1056C102.383 96.1056 104.742 96.045 107.072 95.9256C132.071 94.6469 153.833 86.6531 167.208 75C175.769 81.6038 181.25 91.7488 181.25 103.125C181.25 114.501 175.769 124.646 167.208 131.25C153.833 119.597 132.071 111.603 107.072 110.324C104.742 110.205 102.383 110.144 100 110.144C97.6175 110.144 95.2581 110.205 92.9275 110.324C67.9294 111.603 46.1675 119.597 32.7923 131.25C24.2315 124.646 18.75 114.501 18.75 103.125C18.75 91.7488 24.2315 81.6038 32.7923 75Z" fill="white"/>
<defs>
<linearGradient id="paint0_linear_262_616" x1="100" y1="50" x2="100" y2="156.25" gradientUnits="userSpaceOnUse">
<stop stop-color="#2538E6"/>
<stop offset="1" stop-color="#D425AB"/>
</linearGradient>
</defs>
</svg>
