<?xml version="1.0" encoding="UTF-8"?>
<!DOCTYPE svg PUBLIC "-//W3C//DTD SVG 1.1//EN" "http://www.w3.org/Graphics/SVG/1.1/DTD/svg11.dtd">
<svg xmlns="http://www.w3.org/2000/svg" version="1.1" width="256px" height="256px" style="shape-rendering:geometricPrecision; text-rendering:geometricPrecision; image-rendering:optimizeQuality; fill-rule:evenodd; clip-rule:evenodd" xmlns:xlink="http://www.w3.org/1999/xlink">
<g><path style="opacity:1" fill="#2aa8e0" d="M -0.5,-0.5 C 84.8333,-0.5 170.167,-0.5 255.5,-0.5C 255.5,84.8333 255.5,170.167 255.5,255.5C 170.167,255.5 84.8333,255.5 -0.5,255.5C -0.5,170.167 -0.5,84.8333 -0.5,-0.5 Z"/></g>
<g><path style="opacity:1" fill="#0b0506" d="M 97.5,69.5 C 104.555,69.2703 111.555,69.7703 118.5,71C 122.955,72.9789 127.455,74.8122 132,76.5C 135.812,75.8541 139.646,75.3541 143.5,75C 167.074,64.5569 186.908,69.3902 203,89.5C 213.364,107.507 212.697,125.173 201,142.5C 182.167,161.333 163.333,180.167 144.5,199C 136.404,203.085 129.071,202.085 122.5,196C 116.39,195.912 110.39,195.245 104.5,194C 86,175.5 67.5,157 49,138.5C 39.4121,123.008 39.0788,107.341 48,91.5C 57.2807,80.6234 69.114,75.1234 83.5,75C 87.9833,72.4549 92.65,70.6215 97.5,69.5 Z"/></g>
<g><path style="opacity:1" fill="#e52f29" d="M 70.5,79.5 C 85.9556,77.4289 98.9556,82.0956 109.5,93.5C 124.495,77.7467 141.495,75.2467 160.5,86C 175.42,99.0358 178.587,114.536 170,132.5C 150.78,152.719 131.28,172.552 111.5,192C 109.365,192.635 107.365,192.301 105.5,191C 88,173.5 70.5,156 53,138.5C 41.1748,121.562 41.6748,105.062 54.5,89C 59.4665,85.0245 64.7998,81.8578 70.5,79.5 Z"/></g>
<g><path style="opacity:1" fill="#67212c" d="M 97.5,80.5 C 102.65,79.3493 107.984,79.1826 113.5,80C 115.246,80.4709 116.913,81.1376 118.5,82C 115.329,84.3414 112.329,86.8414 109.5,89.5C 106.047,85.706 102.047,82.706 97.5,80.5 Z"/></g>
<g><path style="opacity:1" fill="#6c232f" d="M 156.5,80.5 C 178.259,76.7198 192.759,85.3865 200,106.5C 201.935,117.017 199.935,126.683 194,135.5C 175.167,154.333 156.333,173.167 137.5,192C 130.5,192.667 123.5,192.667 116.5,192C 134,174.5 151.5,157 169,139.5C 177.771,127.239 179.771,113.906 175,99.5C 171.319,90.6537 165.153,84.3203 156.5,80.5 Z"/></g>
<g><path style="opacity:1" fill="#ef8254" d="M 72.5,113.5 C 75.6492,113.211 78.6492,113.711 81.5,115C 90.1667,123.667 98.8333,132.333 107.5,141C 108.5,141.667 109.5,141.667 110.5,141C 114.348,136.984 118.348,133.151 122.5,129.5C 133.971,127.468 137.471,131.802 133,142.5C 126.167,149.333 119.333,156.167 112.5,163C 110.5,163.667 108.5,163.667 106.5,163C 94.3333,150.833 82.1667,138.667 70,126.5C 67.4582,121.438 68.2915,117.105 72.5,113.5 Z"/></g>
<g><path style="opacity:1" fill="#ef8253" d="M 138.5,113.5 C 149.832,113.344 152.832,118.177 147.5,128C 137.898,131.069 133.732,127.569 135,117.5C 135.69,115.65 136.856,114.316 138.5,113.5 Z"/></g>
</svg>
