<svg width="40" height="40" viewBox="0 0 40 40" fill="none" xmlns="http://www.w3.org/2000/svg">
<rect width="40" height="40" rx="12" fill="#B9B9FF"/>
<path d="M8 12.5H10.25L13 20L10.25 27.5H8L10.75 20L8 12.5Z" fill="black"/>
<path d="M19.6439 27.16C18.4839 27.16 17.5306 26.8933 16.7839 26.36C16.0506 25.8267 15.6839 25.1 15.6839 24.18H17.7039C17.7039 24.5933 17.8839 24.9133 18.2439 25.14C18.6172 25.3533 19.0972 25.46 19.6839 25.46H20.5239C21.2172 25.46 21.7306 25.3267 22.0639 25.06C22.3972 24.78 22.5639 24.4133 22.5639 23.96C22.5639 23.5067 22.4039 23.1533 22.0839 22.9C21.7639 22.6467 21.3106 22.4667 20.7239 22.36L19.2239 22.14C17.0372 21.7933 15.9439 20.7333 15.9439 18.96C15.9439 17.9467 16.2772 17.1733 16.9439 16.64C17.6106 16.1067 18.5639 15.84 19.8039 15.84H20.5639C21.7106 15.84 22.6306 16.1 23.3239 16.62C24.0172 17.1267 24.3639 17.8 24.3639 18.64H22.3439C22.3439 18.3067 22.1772 18.04 21.8439 17.84C21.5239 17.64 21.0839 17.54 20.5239 17.54H19.7639C19.1506 17.54 18.6839 17.6667 18.3639 17.92C18.0439 18.16 17.8839 18.5067 17.8839 18.96C17.8839 19.7333 18.4306 20.2067 19.5239 20.38L21.0239 20.62C22.2239 20.8067 23.1039 21.16 23.6639 21.68C24.2239 22.1867 24.5039 22.92 24.5039 23.88C24.5039 24.9067 24.1639 25.7133 23.4839 26.3C22.8172 26.8733 21.8172 27.16 20.4839 27.16H19.6439Z" fill="black"/>
<path d="M32 12.5H29.75L27 20L29.75 27.5H32L29.25 20L32 12.5Z" fill="black"/>
</svg>
