<?xml version="1.0" standalone="no"?>
<!DOCTYPE svg PUBLIC "-//W3C//DTD SVG 20010904//EN"
 "http://www.w3.org/TR/2001/REC-SVG-20010904/DTD/svg10.dtd">
<svg version="1.0" xmlns="http://www.w3.org/2000/svg"
 width="512.000000pt" height="512.000000pt" viewBox="0 0 512.000000 512.000000"
 preserveAspectRatio="xMidYMid meet">

<g transform="translate(0.000000,512.000000) scale(0.100000,-0.100000)"
fill="#000000" stroke="none">
<path d="M0 2560 l0 -2560 2560 0 2560 0 0 2560 0 2560 -2560 0 -2560 0 0
-2560z m3700 405 c579 -907 1082 -1694 1116 -1748 53 -81 60 -97 44 -97 -11 0
-724 -52 -1585 -115 l-1566 -115 -712 264 c-391 145 -720 266 -730 268 -10 1
-18 8 -17 13 1 11 2391 3187 2395 3183 1 -2 476 -745 1055 -1653z"/>
<path d="M2166 3812 c-258 -341 -469 -624 -468 -628 1 -11 1656 -493 1660
-484 1 3 -155 381 -348 839 -193 459 -356 847 -363 863 -12 30 -13 29 -481
-590z"/>
<path d="M2903 4030 c29 -77 580 -1376 588 -1386 5 -7 42 -32 82 -55 380 -226
419 -248 405 -227 -8 13 -250 392 -538 843 -287 451 -527 825 -533 830 -7 7
-8 5 -4 -5z"/>
<path d="M1608 3073 c-28 -32 -1150 -1517 -1155 -1528 -2 -8 19 -9 74 -3 682
73 930 94 1603 138 786 52 1596 113 1605 121 5 5 -311 759 -324 772 -8 8
-1756 517 -1777 517 -6 0 -18 -8 -26 -17z"/>
<path d="M3594 2388 c197 -472 250 -595 262 -607 13 -15 787 -479 792 -476 2
2 -120 195 -270 430 l-273 427 -257 153 c-141 85 -266 159 -277 165 -18 9 -14
-4 23 -92z"/>
</g>
</svg>
