<?xml version="1.0" encoding="UTF-8"?><svg id="a" xmlns="http://www.w3.org/2000/svg" xmlns:xlink="http://www.w3.org/1999/xlink" viewBox="0 0 360 360"><defs><clipPath id="b"><rect width="360" height="360" style="fill:none;"/></clipPath></defs><g style="clip-path:url(#b);"><path d="m298.57,298.78c-65.6,65.6-171.96,65.6-237.56,0S-4.59,126.82,61.01,61.22C126.61-4.38,232.97-4.38,298.57,61.22c65.6,65.6,65.6,171.96,0,237.56" style="fill:#a101f8;"/><path d="m145.39,159.48c0-6.9-5.6-12.5-12.5-12.5h-17.21c12.4-23.7,37.09-38.99,64.46-38.99,23.5,0,45.68,11.45,59.33,30.63,4,5.62,11.8,6.94,17.43,2.94,5.62-4,6.94-11.81,2.94-17.43-18.33-25.76-48.12-41.14-79.7-41.14-41.07,0-77.63,25.62-91.74,63.99h-15.55c-6.9,0-12.5,5.6-12.5,12.5s5.6,12.5,12.5,12.5h60.04c6.9,0,12.5-5.6,12.5-12.5" style="fill:#fff;"/><path d="m286.66,187.99h-60.04c-6.9,0-12.5,5.6-12.5,12.5s5.6,12.5,12.5,12.5h17.21c-12.4,23.7-37.09,38.99-64.46,38.99-23.5,0-45.68-11.45-59.33-30.63-4-5.62-11.81-6.94-17.43-2.94-5.62,4-6.94,11.81-2.94,17.43,18.33,25.76,48.12,41.14,79.7,41.14,41.06,0,77.63-25.62,91.74-63.99h15.55c6.9,0,12.5-5.6,12.5-12.5s-5.6-12.5-12.5-12.5" style="fill:#fff;"/></g></svg>