<svg xmlns="http://www.w3.org/2000/svg" width="144" height="144" fill="none">
  <circle cx="72" cy="72" r="72" fill="#E9DC2B" />
  <path fill="#000"
    d="M37.127 28h3.552a2.536 2.536 0 0 1 0 5.072H37.22c-1.211 0-1.968.002-2.537.048-.54.044-.685.115-.715.13-.309.158-.56.41-.718.718-.015.03-.086.175-.13.715-.046.57-.048 1.326-.048 2.537v3.459a2.536 2.536 0 0 1-5.072 0v-3.552c0-1.09 0-2.056.065-2.857.07-.854.227-1.74.667-2.604a6.713 6.713 0 0 1 2.934-2.934c.864-.44 1.75-.597 2.604-.667.8-.065 1.767-.065 2.857-.065ZM79.606 72.635a2.536 2.536 0 0 1-5.071 0c0-2.536 2.535-4.438 2.535-4.438s2.536 1.902 2.536 4.438ZM87.215 66.294a2.536 2.536 0 1 1-5.072 0c0-2.535 2.536-4.437 2.536-4.437s2.536 1.902 2.536 4.437Z" />
  <path fill="#000" fill-rule="evenodd"
    d="M80.324 31.688c-1.862-2.746-5.816-2.994-8.007-.501l-8.222 9.357-14.49 1.404a5.072 5.072 0 0 0-4.559 4.557l-2.071 21.296c-.62.373-1.443.891-2.372 1.534-1.99 1.376-4.562 3.388-6.663 5.84a2.536 2.536 0 1 0 3.85 3.3c1.703-1.987 3.884-3.715 5.697-4.969a39.99 39.99 0 0 1 2.5-1.596l-1.115 17.374c-.23 3.572 4.152 5.454 6.585 2.83l2.75-2.968.132.387.088.26c.192.568.352 1.04.468 1.414l.03.096.037.093c1.02 2.547 2.388 5.46 4.706 8.157l-2.918 2.488c-2.186 1.865-1.594 5.387 1.081 6.435l11.834 4.637a3.805 3.805 0 0 0 4.091-.867l34.018-34.395a3.804 3.804 0 0 0 .535-4.668l-3.774-6.132a3.803 3.803 0 0 0-5.649-.95l-3.75-6.183.416-.01c.491-.011 1.211-.02 2.106-.008 1.794.022 4.276.121 7.026.427a2.537 2.537 0 0 0 .561-5.04 77.84 77.84 0 0 0-9.23-.46l-15.69-23.139Zm14.653 37.747-5.57-9.181c-2.672.23-6.211.623-10.304 1.293a139.2 139.2 0 0 0-5.46 1.005l-.064.429c-.092.63-.2 1.345-.35 2.07-.294 1.43-.79 3.117-1.875 4.603-1.137 1.556-2.795 2.725-5.087 3.291-5.594 1.381-10.528-1.04-13.07-4.34-.656.266-1.313.539-1.968.82L50.16 86.052l1.639-1.767c1.099-1.186 2.635-1.41 3.847-1.094 1.2.313 2.38 1.223 2.828 2.678.117.379.24.762.367 1.143 2.268-.872 4.982-1.52 7.847-.946a2.536 2.536 0 0 1-.994 4.973c-1.605-.321-3.269.029-5.047.716.752 1.568 1.662 3.095 2.878 4.507l19.5-16.634a2.53 2.53 0 0 1-.883-1.924c0-2.535 2.536-4.437 2.536-4.437s1.628 1.22 2.275 3.011l8.023-6.843ZM62.66 65.302c-1.414.424-2.842.88-4.277 1.372a7.662 7.662 0 0 0 5.522 1.55 3.794 3.794 0 0 1-1.245-2.922Z"
    clip-rule="evenodd" />
  <path fill="#000"
    d="M34.27 115.935c.8.065 1.767.065 2.857.065h3.552a2.536 2.536 0 1 0 0-5.072H37.22c-1.211 0-1.968-.001-2.537-.048-.54-.044-.685-.115-.715-.13a1.645 1.645 0 0 1-.718-.718c-.015-.03-.086-.175-.13-.715-.046-.569-.048-1.326-.048-2.537v-3.459a2.536 2.536 0 0 0-5.072 0v3.552c0 1.09 0 2.056.065 2.857.07.854.227 1.74.667 2.604a6.706 6.706 0 0 0 2.934 2.934c.864.44 1.75.597 2.604.667ZM106.873 28h-3.552a2.536 2.536 0 0 0 0 5.072h3.459c1.211 0 1.968.002 2.537.048.54.044.685.115.715.13.309.158.56.41.718.718.015.03.086.175.13.715.047.57.048 1.326.048 2.537v3.459a2.536 2.536 0 0 0 5.072 0v-3.552c0-1.09 0-2.056-.065-2.857-.07-.854-.227-1.74-.667-2.604a6.706 6.706 0 0 0-2.934-2.934c-.864-.44-1.75-.597-2.604-.667-.801-.065-1.767-.065-2.857-.065ZM109.73 115.935c-.801.065-1.767.065-2.857.065h-3.552a2.536 2.536 0 0 1 0-5.072h3.459c1.211 0 1.968-.001 2.537-.048.54-.044.685-.115.715-.13a1.65 1.65 0 0 0 .718-.718c.015-.03.086-.175.13-.715.047-.569.048-1.326.048-2.537v-3.459a2.537 2.537 0 0 1 5.072 0v3.552c0 1.09 0 2.056-.065 2.857-.07.854-.227 1.74-.667 2.604a6.7 6.7 0 0 1-2.934 2.934c-.864.44-1.75.597-2.604.667Z" />
</svg>