<svg xmlns="http://www.w3.org/2000/svg" width="256" height="256" fill="none">
  <path fill="#E9DC2B"
    d="M128 256c70.692 0 128-57.308 128-128C256 57.308 198.692 0 128 0 57.308 0 0 57.308 0 128c0 70.692 57.308 128 128 128Z" />
  <path fill="#000"
    d="M66.003 49.778h6.317a4.508 4.508 0 1 1 0 9.016h-6.15c-2.152 0-3.499.004-4.51.086-.96.077-1.218.205-1.27.23-.551.282-.997.73-1.277 1.278-.027.052-.154.31-.232 1.27-.082 1.013-.086 2.357-.086 4.51v6.15a4.509 4.509 0 0 1-9.016 0v-6.315c0-1.938 0-3.654.115-5.079.125-1.518.404-3.094 1.187-4.63a11.935 11.935 0 0 1 5.216-5.216c1.536-.78 3.11-1.06 4.628-1.185 1.422-.115 3.142-.115 5.08-.115h-.002Zm75.519 79.351a4.516 4.516 0 0 1-2.804 4.08 4.509 4.509 0 0 1-6.211-4.08c0-4.51 4.507-7.89 4.507-7.89s4.508 3.38 4.508 7.89Zm13.527-11.273a4.515 4.515 0 0 1-1.293 3.238 4.513 4.513 0 0 1-6.431 0 4.504 4.504 0 0 1-1.294-3.238c0-4.507 4.51-7.889 4.51-7.889s4.508 3.382 4.508 7.889Z" />
  <path fill="#000" fill-rule="evenodd"
    d="M142.798 56.333c-3.31-4.88-10.34-5.321-14.235-.89l-14.617 16.635-25.76 2.496a9.017 9.017 0 0 0-8.104 8.103l-3.683 37.858a79.342 79.342 0 0 0-4.216 2.727c-3.538 2.447-8.11 6.023-11.845 10.383a4.495 4.495 0 0 0-.674 5.026 4.51 4.51 0 0 0 7.518.84c3.027-3.533 6.906-6.605 10.129-8.834 1.445-1 2.928-1.947 4.444-2.837l-1.983 30.887c-.41 6.35 7.382 9.696 11.707 5.031l4.89-5.276.234.687.156.463c.342 1.009.626 1.849.832 2.513l.054.172.065.165c1.814 4.527 4.246 9.706 8.366 14.501l-5.188 4.423c-3.886 3.316-2.832 9.577 1.923 11.44l21.038 8.243a6.77 6.77 0 0 0 7.273-1.541l60.476-61.147a6.76 6.76 0 0 0 .951-8.298l-6.708-10.902a6.773 6.773 0 0 0-4.638-3.123 6.756 6.756 0 0 0-5.405 1.434l-6.668-10.991.74-.018c1.248-.027 2.496-.031 3.744-.013 3.19.038 7.602.214 12.49.758a4.512 4.512 0 0 0 .999-8.96 138.628 138.628 0 0 0-16.41-.818l-27.895-41.136v-.001Zm26.051 67.107-9.904-16.322c-4.75.41-11.041 1.107-18.318 2.299a247.458 247.458 0 0 0-9.706 1.787l-.114.762a63.77 63.77 0 0 1-.622 3.68c-.522 2.543-1.404 5.542-3.333 8.184-2.023 2.765-4.969 4.843-9.045 5.85-9.944 2.455-18.716-1.849-23.234-7.716a195.6 195.6 0 0 0-3.5 1.459l-1.9 29.558 2.914-3.141c1.953-2.109 4.685-2.507 6.84-1.945 2.133.557 4.231 2.174 5.027 4.761.207.674.426 1.355.653 2.032 4.032-1.55 8.857-2.702 13.949-1.682a4.508 4.508 0 0 1-1.766 8.841c-2.855-.571-5.811.051-8.973 1.273 1.336 2.787 2.954 5.502 5.116 8.012l34.668-29.571a4.495 4.495 0 0 1-1.571-3.421c0-4.507 4.508-7.887 4.508-7.887s2.894 2.168 4.045 5.352l14.266-12.165Zm-57.453-7.348c-2.55.764-5.085 1.577-7.603 2.44a13.623 13.623 0 0 0 9.816 2.755 6.747 6.747 0 0 1-2.213-5.195Z"
    clip-rule="evenodd" />
  <path fill="#000"
    d="M60.924 206.107c1.422.115 3.141.115 5.08.115h6.316a4.512 4.512 0 0 0 4.508-4.508 4.511 4.511 0 0 0-4.508-4.51h-6.15c-2.152 0-3.499-.001-4.51-.084-.96-.078-1.218-.205-1.27-.232a2.924 2.924 0 0 1-1.277-1.276c-.027-.054-.154-.311-.232-1.271-.082-1.011-.086-2.358-.086-4.511v-6.149a4.5 4.5 0 0 0-2.782-4.165 4.502 4.502 0 0 0-3.451 0 4.492 4.492 0 0 0-2.44 2.44 4.502 4.502 0 0 0-.343 1.725v6.316c0 1.936 0 3.654.115 5.079.125 1.518.404 3.092 1.187 4.628a11.913 11.913 0 0 0 5.216 5.216c1.536.782 3.11 1.061 4.627 1.187Zm129.073-156.33h-6.316a4.504 4.504 0 0 0-4.508 4.509 4.502 4.502 0 0 0 1.32 3.188 4.5 4.5 0 0 0 3.188 1.32h6.151c2.151 0 3.498.004 4.509.086.96.077 1.219.205 1.271.23.549.282.996.73 1.276 1.278.027.052.154.31.232 1.27.083 1.013.086 2.357.086 4.51v6.15a4.51 4.51 0 0 0 7.697 3.189 4.494 4.494 0 0 0 1.319-3.19v-6.314c0-1.938 0-3.654-.115-5.079-.124-1.518-.403-3.094-1.187-4.63a11.915 11.915 0 0 0-5.216-5.216c-1.536-.78-3.11-1.06-4.628-1.185-1.425-.115-3.141-.115-5.079-.115Zm5.079 156.33c-1.425.115-3.141.115-5.079.115h-6.316a4.505 4.505 0 0 1-4.165-2.783 4.505 4.505 0 0 1 .978-4.914 4.513 4.513 0 0 1 3.187-1.321h6.151c2.151 0 3.498-.001 4.509-.084.96-.078 1.219-.205 1.271-.232.549-.28.996-.727 1.276-1.276.027-.054.154-.311.232-1.271.083-1.011.086-2.358.086-4.511v-6.149a4.501 4.501 0 0 1 1.364-3.106 4.503 4.503 0 0 1 6.288 0 4.508 4.508 0 0 1 1.364 3.106v6.316c0 1.936 0 3.654-.115 5.079-.124 1.518-.403 3.092-1.187 4.628a11.89 11.89 0 0 1-5.216 5.216c-1.536.782-3.11 1.061-4.628 1.187Z" />

</svg>