<?xml version="1.0" encoding="UTF-8"?>
<!DOCTYPE svg PUBLIC "-//W3C//DTD SVG 1.1//EN" "http://www.w3.org/Graphics/SVG/1.1/DTD/svg11.dtd">
<svg xmlns="http://www.w3.org/2000/svg" version="1.1" width="256px" height="256px" style="shape-rendering:geometricPrecision; text-rendering:geometricPrecision; image-rendering:optimizeQuality; fill-rule:evenodd; clip-rule:evenodd" xmlns:xlink="http://www.w3.org/1999/xlink">
<g><path style="opacity:1" fill="#040404" d="M -0.5,-0.5 C 36.8333,-0.5 74.1667,-0.5 111.5,-0.5C 48.2733,12.0601 10.9399,50.0601 -0.5,113.5C -0.5,75.5 -0.5,37.5 -0.5,-0.5 Z"/></g>
<g><path style="opacity:1" fill="#050505" d="M 140.5,-0.5 C 178.833,-0.5 217.167,-0.5 255.5,-0.5C 255.5,37.8333 255.5,76.1667 255.5,114.5C 244.169,49.1686 205.835,10.8353 140.5,-0.5 Z"/></g>
<g><path style="opacity:1" fill="#efefea" d="M 111.5,-0.5 C 121.167,-0.5 130.833,-0.5 140.5,-0.5C 205.835,10.8353 244.169,49.1686 255.5,114.5C 255.5,121.833 255.5,129.167 255.5,136.5C 247.739,194.434 216.072,232.6 160.5,251C 152.681,252.426 145.014,253.926 137.5,255.5C 130.833,255.5 124.167,255.5 117.5,255.5C 73.1251,250.291 39.2917,228.625 16,190.5C 7.7054,174.615 2.2054,157.948 -0.5,140.5C -0.5,131.5 -0.5,122.5 -0.5,113.5C 10.9399,50.0601 48.2733,12.0601 111.5,-0.5 Z"/></g>
<g><path style="opacity:1" fill="#1f203c" d="M 225.5,56.5 C 232.901,65.2958 238.234,75.2958 241.5,86.5C 236.694,76.2218 231.361,66.2218 225.5,56.5 Z"/></g>
<g><path style="opacity:1" fill="#221d33" d="M 27.5,57.5 C 27.2624,59.4044 26.2624,60.7377 24.5,61.5C 24.7376,59.5956 25.7376,58.2623 27.5,57.5 Z"/></g>
<g><path style="opacity:1" fill="#181136" d="M 30.5,53.5 C 30.2624,55.4044 29.2624,56.7377 27.5,57.5C 27.7376,55.5956 28.7376,54.2623 30.5,53.5 Z"/></g>
<g><path style="opacity:1" fill="#151732" d="M 222.5,52.5 C 224.262,53.2623 225.262,54.5956 225.5,56.5C 223.738,55.7377 222.738,54.4044 222.5,52.5 Z"/></g>
<g><path style="opacity:1" fill="#1f1937" d="M 34.5,48.5 C 33.9202,50.7488 32.5869,52.4154 30.5,53.5C 31.0798,51.2512 32.4131,49.5846 34.5,48.5 Z"/></g>
<g><path style="opacity:1" fill="#211e33" d="M 46.5,36.5 C 43.1667,40.5 39.5,44.1667 35.5,47.5C 38.1667,42.8333 41.8333,39.1667 46.5,36.5 Z"/></g>
<g><path style="opacity:1" fill="#34374f" d="M 208.5,37.5 C 214.55,41.2166 219.217,46.2166 222.5,52.5C 217.861,47.5261 213.195,42.5261 208.5,37.5 Z"/></g>
<g><path style="opacity:1" fill="#161a3a" d="M 202.5,32.5 C 205.089,33.4194 207.089,35.086 208.5,37.5C 205.911,36.5806 203.911,34.914 202.5,32.5 Z"/></g>
<g><path style="opacity:1" fill="#1e1650" d="M 52.5,31.5 C 51.0892,33.914 49.0892,35.5806 46.5,36.5C 47.9108,34.086 49.9108,32.4194 52.5,31.5 Z"/></g>
<g><path style="opacity:1" fill="#1d153b" d="M 56.5,28.5 C 55.7377,30.2624 54.4044,31.2624 52.5,31.5C 53.2623,29.7376 54.5956,28.7376 56.5,28.5 Z"/></g>
<g><path style="opacity:1" fill="#1c1e42" d="M 144.5,7.5 C 160.85,9.50108 176.183,14.6677 190.5,23C 194.975,25.6499 198.975,28.8166 202.5,32.5C 184.996,19.8888 165.663,11.5555 144.5,7.5 Z"/></g>
<g><path style="opacity:1" fill="#1c40fa" d="M 115.5,7.5 C 125.167,7.5 134.833,7.5 144.5,7.5C 165.663,11.5555 184.996,19.8888 202.5,32.5C 203.911,34.914 205.911,36.5806 208.5,37.5C 213.195,42.5261 217.861,47.5261 222.5,52.5C 222.738,54.4044 223.738,55.7377 225.5,56.5C 231.361,66.2218 236.694,76.2218 241.5,86.5C 242.544,91.3548 243.877,96.0215 245.5,100.5C 246.461,102.265 246.795,104.265 246.5,106.5C 246.5,108.5 246.5,110.5 246.5,112.5C 236.833,112.5 227.167,112.5 217.5,112.5C 210.837,76.991 190.504,52.8244 156.5,40C 149.637,37.9672 142.637,36.8006 135.5,36.5C 132.351,35.8349 129.018,35.5016 125.5,35.5C 119.923,35.3682 114.59,36.0349 109.5,37.5C 109.167,37.5 108.833,37.5 108.5,37.5C 104.778,38.0166 101.112,38.85 97.5,40C 96.944,40.3826 96.6107,40.8826 96.5,41.5C 95.8333,41.5 95.1667,41.5 94.5,41.5C 92.0326,41.7549 90.0326,42.7549 88.5,44.5C 85.0078,45.4097 82.0078,47.0764 79.5,49.5C 67.5513,55.7819 58.218,64.7819 51.5,76.5C 46.2714,82.9572 42.6047,90.2905 40.5,98.5C 36.1026,110.204 34.7692,122.204 36.5,134.5C 36.5734,141.862 37.9067,148.862 40.5,155.5C 41.129,158.397 42.129,161.064 43.5,163.5C 45.1588,168.827 47.8255,173.493 51.5,177.5C 58.9817,189.814 68.9817,199.648 81.5,207C 91.5027,212.612 102.169,216.112 113.5,217.5C 117.653,218.166 121.987,218.499 126.5,218.5C 132.749,218.706 138.749,218.04 144.5,216.5C 161.564,213.635 176.564,206.468 189.5,195C 202.001,182.142 211.001,167.308 216.5,150.5C 217.188,147.98 218.188,145.48 219.5,143C 224,142.833 228.5,142.667 233,142.5C 237.886,142.507 242.386,143.174 246.5,144.5C 245.575,148.79 244.909,153.124 244.5,157.5C 242.721,161.595 241.388,165.928 240.5,170.5C 239.069,171.78 238.402,173.447 238.5,175.5C 235.992,179.182 233.992,183.182 232.5,187.5C 229.779,190.894 227.446,194.561 225.5,198.5C 223.413,199.585 222.08,201.251 221.5,203.5C 218.757,205.239 216.757,207.573 215.5,210.5C 213.5,211.833 211.833,213.5 210.5,215.5C 207.573,216.757 205.239,218.757 203.5,221.5C 201.251,222.08 199.585,223.413 198.5,225.5C 187.686,232.241 176.352,237.907 164.5,242.5C 159.354,243.701 154.354,245.035 149.5,246.5C 149.167,246.5 148.833,246.5 148.5,246.5C 144.158,246.739 139.824,247.073 135.5,247.5C 123.097,247.803 110.764,247.136 98.5,245.5C 86.758,241.967 75.4246,237.3 64.5,231.5C 64.0269,230.094 63.0269,229.427 61.5,229.5C 61.1583,228.662 60.4916,228.328 59.5,228.5C 57.3868,226.669 56.2202,224.669 56,222.5C 55.6667,223.167 55.3333,223.833 55,224.5C 54.1841,223.177 53.0174,222.511 51.5,222.5C 50.4154,220.413 48.7488,219.08 46.5,218.5C 42.8333,214.167 38.8333,210.167 34.5,206.5C 33.5806,203.911 31.914,201.911 29.5,200.5C 22.025,189.052 15.6917,177.052 10.5,164.5C 10.5905,161.848 9.92381,159.515 8.5,157.5C 5.8502,143.992 4.8502,130.325 5.5,116.5C 6.56289,112.361 7.22956,108.028 7.5,103.5C 8.16667,100.167 8.83333,96.8333 9.5,93.5C 11.2671,91.2084 12.2671,88.5418 12.5,85.5C 13.8686,83.3085 14.8686,80.9752 15.5,78.5C 17.6744,75.4846 19.3411,72.1513 20.5,68.5C 22.588,66.6644 23.9213,64.3311 24.5,61.5C 26.2624,60.7377 27.2624,59.4044 27.5,57.5C 29.2624,56.7377 30.2624,55.4044 30.5,53.5C 32.5869,52.4154 33.9202,50.7488 34.5,48.5C 35.1667,48.5 35.5,48.1667 35.5,47.5C 39.5,44.1667 43.1667,40.5 46.5,36.5C 49.0892,35.5806 51.0892,33.914 52.5,31.5C 54.4044,31.2624 55.7377,30.2624 56.5,28.5C 65.5844,21.1257 75.9177,16.1257 87.5,13.5C 96.5486,10.2383 105.882,8.23832 115.5,7.5 Z"/></g>
<g><path style="opacity:1" fill="#c2d5b3" d="M 79.5,49.5 C 74.7317,53.0912 70.0651,56.9245 65.5,61C 60.9676,66.3618 56.301,71.5284 51.5,76.5C 58.218,64.7819 67.5513,55.7819 79.5,49.5 Z"/></g>
<g><path style="opacity:1" fill="#899fb3" d="M 94.5,41.5 C 92.9674,43.2451 90.9674,44.2451 88.5,44.5C 90.0326,42.7549 92.0326,41.7549 94.5,41.5 Z"/></g>
<g><path style="opacity:1" fill="#c4d49d" d="M 108.5,37.5 C 105.164,40.4858 101.164,41.8192 96.5,41.5C 96.6107,40.8826 96.944,40.3826 97.5,40C 101.112,38.85 104.778,38.0166 108.5,37.5 Z"/></g>
<g><path style="opacity:1" fill="#91adac" d="M 135.5,36.5 C 126.815,36.464 118.149,36.7974 109.5,37.5C 114.59,36.0349 119.923,35.3682 125.5,35.5C 129.018,35.5016 132.351,35.8349 135.5,36.5 Z"/></g>
<g><path style="opacity:1" fill="#2c274a" d="M 115.5,6.5 C 115.5,6.83333 115.5,7.16667 115.5,7.5C 105.882,8.23832 96.5486,10.2383 87.5,13.5C 88.8475,11.5197 90.8475,10.353 93.5,10C 100.663,7.73385 107.996,6.56719 115.5,6.5 Z"/></g>
<g><path style="opacity:1" fill="#2e296f" d="M 144.5,7.5 C 134.833,7.5 125.167,7.5 115.5,7.5C 115.5,7.16667 115.5,6.83333 115.5,6.5C 118.984,5.83465 122.651,5.50131 126.5,5.5C 132.733,5.37991 138.733,6.04657 144.5,7.5 Z"/></g>
<g><path style="opacity:1" fill="#211c2b" d="M 20.5,68.5 C 19.3411,72.1513 17.6744,75.4846 15.5,78.5C 16.1266,74.5799 17.7933,71.2466 20.5,68.5 Z"/></g>
<g><path style="opacity:1" fill="#121610" d="M 134.5,83.5 C 139.09,84.0303 143.424,85.3637 147.5,87.5C 147.892,89.1789 148.392,90.8455 149,92.5C 150.269,89.0874 152.769,86.9208 156.5,86C 159.478,85.304 162.478,84.804 165.5,84.5C 167.621,84.3253 169.621,84.6586 171.5,85.5C 174.312,91.4805 173.979,97.3139 170.5,103C 177.151,103.336 183.484,102.003 189.5,99C 190.406,97.3005 190.739,95.4672 190.5,93.5C 191.404,94.209 191.737,95.209 191.5,96.5C 191.608,98.5138 190.942,100.18 189.5,101.5C 177.024,105.911 164.358,106.578 151.5,103.5C 149.167,102.167 146.833,102.167 144.5,103.5C 138.613,107.264 132.113,108.931 125,108.5C 117.175,108.169 109.675,106.502 102.5,103.5C 99.4931,100.52 95.8265,98.853 91.5,98.5C 91.1667,98.5 90.8333,98.5 90.5,98.5C 89.2003,97.399 88.7003,96.0657 89,94.5C 90.8083,96.3959 92.975,96.8959 95.5,96C 102.631,91.1012 110.298,87.2678 118.5,84.5C 123.805,83.8058 129.138,83.4724 134.5,83.5 Z"/></g>
<g><path style="opacity:1" fill="#3a383a" d="M 12.5,85.5 C 12.2671,88.5418 11.2671,91.2084 9.5,93.5C 9.73292,90.4582 10.7329,87.7916 12.5,85.5 Z"/></g>
<g><path style="opacity:1" fill="#313449" d="M 241.5,86.5 C 244.056,90.7118 245.39,95.3784 245.5,100.5C 243.877,96.0215 242.544,91.3548 241.5,86.5 Z"/></g>
<g><path style="opacity:1" fill="#6dd148" d="M 91.5,62.5 C 92.1667,62.5 92.8333,62.5 93.5,62.5C 92.4975,64.0109 91.8308,65.6776 91.5,67.5C 90.1667,67.5 88.8333,67.5 87.5,67.5C 87.2606,69.4672 87.5939,71.3005 88.5,73C 84.9124,74.9654 83.9124,77.7988 85.5,81.5C 84.3112,82.4287 82.9778,82.762 81.5,82.5C 81.5,84.1667 81.5,85.8333 81.5,87.5C 78.6773,87.0254 76.6773,88.0254 75.5,90.5C 75.3645,95.7543 75.6978,101.088 76.5,106.5C 77.5,106.5 78.5,106.5 79.5,106.5C 79.7394,108.467 79.4061,110.301 78.5,112C 79.448,112.483 80.448,112.649 81.5,112.5C 81.5,114.833 81.5,117.167 81.5,119.5C 80.7784,119.082 80.2784,118.416 80,117.5C 80.1436,124.804 78.8103,131.804 76,138.5C 74.8333,139.667 73.6667,140.833 72.5,142C 67.4724,142.588 62.4724,142.422 57.5,141.5C 55.3146,141.296 53.3146,140.63 51.5,139.5C 50.8333,139.167 50.1667,138.833 49.5,138.5C 45.9135,136.42 42.7468,133.754 40,130.5C 38.0918,115.092 42.9251,102.259 54.5,92C 56.4068,90.878 58.4068,90.0447 60.5,89.5C 61.5,89.5 62.5,89.5 63.5,89.5C 63.631,90.2389 63.4643,90.9056 63,91.5C 58.7109,93.6256 55.2109,96.6256 52.5,100.5C 52.6667,100.833 52.8333,101.167 53,101.5C 56.7166,95.891 61.8833,93.391 68.5,94C 68.7463,100.118 69.0797,106.285 69.5,112.5C 70.4212,106.522 71.0879,100.522 71.5,94.5C 72.4731,92.0521 72.8064,89.3854 72.5,86.5C 74.0277,83.2513 75.3611,79.918 76.5,76.5C 80.8656,71.1338 85.8656,66.4671 91.5,62.5 Z"/></g>
<g><path style="opacity:1" fill="#247d1f" d="M 63.5,89.5 C 65.8333,89.5 68.1667,89.5 70.5,89.5C 70.2155,91.4147 70.5489,93.0813 71.5,94.5C 71.0879,100.522 70.4212,106.522 69.5,112.5C 69.0797,106.285 68.7463,100.118 68.5,94C 61.8833,93.391 56.7166,95.891 53,101.5C 52.8333,101.167 52.6667,100.833 52.5,100.5C 55.2109,96.6256 58.7109,93.6256 63,91.5C 63.4643,90.9056 63.631,90.2389 63.5,89.5 Z"/></g>
<g><path style="opacity:1" fill="#1e741a" d="M 91.5,98.5 C 95.8265,98.853 99.4931,100.52 102.5,103.5C 101.761,103.369 101.094,103.536 100.5,104C 107.748,109.303 115.914,111.803 125,111.5C 129.545,111.397 134.045,110.897 138.5,110C 141.102,109.117 143.269,107.617 145,105.5C 145.692,104.563 145.525,103.897 144.5,103.5C 146.833,102.167 149.167,102.167 151.5,103.5C 150.127,103.343 148.793,103.51 147.5,104C 146.547,105.955 145.213,107.622 143.5,109C 138.383,111.866 133.383,114.866 128.5,118C 121.118,118.747 113.785,118.414 106.5,117C 104.695,116.028 103.028,114.861 101.5,113.5C 101.833,113.167 102.167,112.833 102.5,112.5C 105.859,114.68 109.526,116.013 113.5,116.5C 120.33,118.203 126.997,117.37 133.5,114C 123.967,113.567 114.634,112.067 105.5,109.5C 101.706,107.54 98.7059,104.707 96.5,101C 94.256,100.95 92.5893,100.117 91.5,98.5 Z"/></g>
<g><path style="opacity:1" fill="#105a0f" d="M 189.5,104.5 C 189.5,105.167 189.5,105.833 189.5,106.5C 187.368,106.554 186.035,107.554 185.5,109.5C 177.188,110.24 168.854,110.573 160.5,110.5C 167.36,109.735 174.36,108.902 181.5,108C 184.336,107.079 187.002,105.912 189.5,104.5 Z"/></g>
<g><path style="opacity:1" fill="#2c2950" d="M 7.5,103.5 C 7.22956,108.028 6.56289,112.361 5.5,116.5C 5.15606,111.878 5.82273,107.545 7.5,103.5 Z"/></g>
<g><path style="opacity:1" fill="#56cf45" d="M 185.5,109.5 C 185.167,110.5 184.5,111.167 183.5,111.5C 183.44,110.957 183.107,110.624 182.5,110.5C 173.953,112.722 165.287,114.388 156.5,115.5C 158.631,114.686 160.964,114.186 163.5,114C 164.167,113.333 164.833,112.667 165.5,112C 163.618,111.802 161.952,111.302 160.5,110.5C 168.854,110.573 177.188,110.24 185.5,109.5 Z"/></g>
<g><path style="opacity:1" fill="#697e91" d="M 246.5,106.5 C 248.175,109.507 248.841,112.84 248.5,116.5C 248.167,116.5 247.833,116.5 247.5,116.5C 247.5,115.5 247.5,114.5 247.5,113.5C 237.319,113.827 227.319,113.494 217.5,112.5C 227.167,112.5 236.833,112.5 246.5,112.5C 246.5,110.5 246.5,108.5 246.5,106.5 Z"/></g>
<g><path style="opacity:1" fill="#c7f388" d="M 189.5,106.5 C 189.016,109.788 190.016,112.455 192.5,114.5C 191.292,115.234 189.959,115.567 188.5,115.5C 187.432,114.566 186.099,114.232 184.5,114.5C 184.443,113.391 184.11,112.391 183.5,111.5C 184.5,111.167 185.167,110.5 185.5,109.5C 186.035,107.554 187.368,106.554 189.5,106.5 Z"/></g>
<g><path style="opacity:1" fill="#105310" d="M 183.5,111.5 C 184.11,112.391 184.443,113.391 184.5,114.5C 184.565,114.938 184.399,115.272 184,115.5C 183.326,114.422 182.326,113.755 181,113.5C 172.953,116.531 164.786,117.197 156.5,115.5C 165.287,114.388 173.953,112.722 182.5,110.5C 183.107,110.624 183.44,110.957 183.5,111.5 Z"/></g>
<g><path style="opacity:1" fill="#c3d9d5" d="M 40.5,98.5 C 40.4889,100.547 40.1556,102.547 39.5,104.5C 39.7472,105.713 40.4138,106.38 41.5,106.5C 37.5025,114.739 36.5025,123.406 38.5,132.5C 37.1667,132.5 36.5,133.167 36.5,134.5C 34.7692,122.204 36.1026,110.204 40.5,98.5 Z"/></g>
<g><path style="opacity:1" fill="#defb6d" d="M 135.5,36.5 C 142.637,36.8006 149.637,37.9672 156.5,40C 190.504,52.8244 210.837,76.991 217.5,112.5C 227.319,113.494 237.319,113.827 247.5,113.5C 247.5,114.5 247.5,115.5 247.5,116.5C 247.826,124.684 247.492,132.684 246.5,140.5C 236.145,140.168 225.812,140.501 215.5,141.5C 216.127,142.417 216.461,143.417 216.5,144.5C 216.5,146.5 216.5,148.5 216.5,150.5C 211.001,167.308 202.001,182.142 189.5,195C 176.564,206.468 161.564,213.635 144.5,216.5C 134.19,217.339 123.857,217.672 113.5,217.5C 102.169,216.112 91.5027,212.612 81.5,207C 68.9817,199.648 58.9817,189.814 51.5,177.5C 49.3357,172.5 46.669,167.833 43.5,163.5C 42.129,161.064 41.129,158.397 40.5,155.5C 40.5628,150.797 40.2295,146.13 39.5,141.5C 40.8221,141.67 41.9887,141.337 43,140.5C 49.0199,144.541 51.3532,150.208 50,157.5C 48.4419,156.655 47.4419,157.321 47,159.5C 46.2506,160.635 46.4173,161.635 47.5,162.5C 49.1338,162.968 50.3005,163.968 51,165.5C 51.6838,164.216 51.5171,163.049 50.5,162C 52.1075,162.019 53.7741,162.185 55.5,162.5C 55.5,164.167 55.5,165.833 55.5,167.5C 56.9587,167.433 58.2921,167.766 59.5,168.5C 71.755,183.302 87.0884,193.635 105.5,199.5C 106.808,200.232 108.142,201.066 109.5,202C 123.192,205.196 136.858,205.196 150.5,202C 151.056,201.617 151.389,201.117 151.5,200.5C 157.028,198.549 162.362,196.215 167.5,193.5C 169.631,191.617 171.964,190.95 174.5,191.5C 174.723,190.033 175.056,188.533 175.5,187C 180.926,188.2 184.093,186.033 185,180.5C 187.655,178.947 190.488,177.78 193.5,177C 195.816,173.836 198.149,170.669 200.5,167.5C 201.267,163.851 202.6,160.518 204.5,157.5C 205.793,155.192 207.126,152.858 208.5,150.5C 211.87,140.018 212.37,129.351 210,118.5C 205.363,113.268 199.53,110.934 192.5,111.5C 192.5,107.167 192.5,102.833 192.5,98.5C 194.006,83.3942 187.34,73.5609 172.5,69C 168.963,65.6309 165.629,62.1309 162.5,58.5C 160.688,55.8628 158.188,54.1961 155,53.5C 149.196,52.6687 143.362,52.3354 137.5,52.5C 131.244,50.3685 124.911,50.7019 118.5,53.5C 114.801,52.6206 111.135,51.6206 107.5,50.5C 103.506,51.2639 99.8397,52.7639 96.5,55C 94.8659,55.4935 93.1992,55.6602 91.5,55.5C 91.5,56.5 91.5,57.5 91.5,58.5C 87.8595,61.9683 84.0261,65.3016 80,68.5C 77.9205,71.0652 76.0872,73.7318 74.5,76.5C 74.1667,77.1667 73.8333,77.8333 73.5,78.5C 70.7211,79.6091 69.0545,81.6091 68.5,84.5C 64.0435,84.6307 60.0435,85.6307 56.5,87.5C 49.6326,92.3665 44.6326,98.6998 41.5,106.5C 40.4138,106.38 39.7472,105.713 39.5,104.5C 40.1556,102.547 40.4889,100.547 40.5,98.5C 42.6047,90.2905 46.2714,82.9572 51.5,76.5C 56.301,71.5284 60.9676,66.3618 65.5,61C 70.0651,56.9245 74.7317,53.0912 79.5,49.5C 82.0078,47.0764 85.0078,45.4097 88.5,44.5C 90.9674,44.2451 92.9674,43.2451 94.5,41.5C 95.1667,41.5 95.8333,41.5 96.5,41.5C 101.164,41.8192 105.164,40.4858 108.5,37.5C 108.833,37.5 109.167,37.5 109.5,37.5C 118.149,36.7974 126.815,36.464 135.5,36.5 Z"/></g>
<g><path style="opacity:1" fill="#d5d9cc" d="M 108.5,97.5 C 112.31,98.7542 112.31,99.7542 108.5,100.5C 108.5,99.5 108.5,98.5 108.5,97.5 Z"/></g>
<g><path style="opacity:1" fill="#e3e6cb" d="M 100.5,94.5 C 101.693,94.9704 102.36,95.9704 102.5,97.5C 102.167,98.5 101.833,99.5 101.5,100.5C 97.093,98.5937 96.7597,96.5937 100.5,94.5 Z"/></g>
<g><path style="opacity:1" fill="#efefe5" d="M 160.5,92.5 C 163.91,92.3838 165.244,94.0504 164.5,97.5C 160.065,98.0776 158.732,96.4109 160.5,92.5 Z"/></g>
<g><path style="opacity:1" fill="#e1e1d4" d="M 116.5,91.5 C 120.473,92.0755 121.473,94.2421 119.5,98C 114.148,98.1754 113.148,96.0087 116.5,91.5 Z"/></g>
<g><path style="opacity:1" fill="#d7d9cc" d="M 106.5,91.5 C 107.5,91.5 108.5,91.5 109.5,91.5C 109.5,92.5 109.5,93.5 109.5,94.5C 108.5,94.5 107.5,94.5 106.5,94.5C 106.5,93.5 106.5,92.5 106.5,91.5 Z"/></g>
<g><path style="opacity:1" fill="#f7f8e3" d="M 126.5,85.5 C 132.705,83.7823 138.705,84.6157 144.5,88C 148.701,93.5573 148.035,98.5573 142.5,103C 137.857,106.204 132.857,107.037 127.5,105.5C 131.832,98.4072 131.499,91.7405 126.5,85.5 Z"/></g>
<g><path style="opacity:1" fill="#f9fae4" d="M 188.5,86.5 C 189.939,88.588 190.606,90.9214 190.5,93.5C 190.739,95.4672 190.406,97.3005 189.5,99C 183.484,102.003 177.151,103.336 170.5,103C 173.979,97.3139 174.312,91.4805 171.5,85.5C 176.316,84.3503 181.316,84.1837 186.5,85C 187.044,85.7172 187.711,86.2172 188.5,86.5 Z"/></g>
<g><path style="opacity:1" fill="#0e2a1b" d="M 72.5,86.5 C 72.8064,89.3854 72.4731,92.0521 71.5,94.5C 70.5489,93.0813 70.2155,91.4147 70.5,89.5C 68.1667,89.5 65.8333,89.5 63.5,89.5C 62.5,89.5 61.5,89.5 60.5,89.5C 64.6009,89.0192 68.6009,88.0192 72.5,86.5 Z"/></g>
<g><path style="opacity:1" fill="#2e5023" d="M 187.5,82.5 C 188.434,83.5676 188.768,84.901 188.5,86.5C 187.711,86.2172 187.044,85.7172 186.5,85C 181.316,84.1837 176.316,84.3503 171.5,85.5C 169.621,84.6586 167.621,84.3253 165.5,84.5C 166.952,83.6981 168.618,83.1981 170.5,83C 176.382,82.6804 182.049,82.5137 187.5,82.5 Z"/></g>
<g><path style="opacity:1" fill="#a2eba5" d="M 73.5,78.5 C 73.067,81.1955 71.7337,83.3621 69.5,85C 65.3121,86.6307 60.9788,87.4641 56.5,87.5C 60.0435,85.6307 64.0435,84.6307 68.5,84.5C 69.0545,81.6091 70.7211,79.6091 73.5,78.5 Z"/></g>
<g><path style="opacity:1" fill="#87dc5a" d="M 176.5,77.5 C 178.857,77.3367 181.19,77.5034 183.5,78C 185.751,78.7475 187.084,80.2475 187.5,82.5C 182.049,82.5137 176.382,82.6804 170.5,83C 168.618,83.1981 166.952,83.6981 165.5,84.5C 162.478,84.804 159.478,85.304 156.5,86C 152.769,86.9208 150.269,89.0874 149,92.5C 148.392,90.8455 147.892,89.1789 147.5,87.5C 148.461,85.7354 148.795,83.7354 148.5,81.5C 157.577,78.5671 166.91,77.2338 176.5,77.5 Z"/></g>
<g><path style="opacity:1" fill="#104510" d="M 125.5,60.5 C 126.5,60.5 127.5,60.5 128.5,60.5C 131.179,64.8413 133.846,69.1747 136.5,73.5C 139.966,71.5114 143.632,70.0114 147.5,69C 154.346,68.8283 161.013,68.3283 167.5,67.5C 168.833,68.1667 169.833,69.1667 170.5,70.5C 158.931,68.1674 147.931,69.6674 137.5,75C 140.719,76.2933 143.719,77.9599 146.5,80C 157.42,77.378 168.42,75.5447 179.5,74.5C 180.043,74.56 180.376,74.8933 180.5,75.5C 179.051,76.1719 177.718,76.8386 176.5,77.5C 166.91,77.2338 157.577,78.5671 148.5,81.5C 148.795,83.7354 148.461,85.7354 147.5,87.5C 147.747,84.495 146.747,81.995 144.5,80C 140.26,77.8085 135.76,76.6418 131,76.5C 116.433,78.1305 103.433,83.4639 92,92.5C 91.5,92.1667 91,91.8333 90.5,91.5C 93.4858,89.837 96.1525,87.837 98.5,85.5C 109.291,79.2375 120.957,75.5708 133.5,74.5C 130.359,71.9362 126.693,70.4362 122.5,70C 112.208,68.9898 102.541,70.9898 93.5,76C 92.6195,76.7083 91.9528,77.5416 91.5,78.5C 90.9569,78.44 90.6236,78.1067 90.5,77.5C 93.4353,74.0244 97.102,71.5244 101.5,70C 109.773,68.6696 118.107,68.1696 126.5,68.5C 128.291,69.3913 130.124,70.3913 132,71.5C 132.167,71 132.333,70.5 132.5,70C 130.735,66.4038 128.402,63.2371 125.5,60.5 Z"/></g>
<g><path style="opacity:1" fill="#bdf868" d="M 98.5,85.5 C 95.3097,85.5129 92.4763,86.5129 90,88.5C 88.1886,87.5765 88.3553,86.7431 90.5,86C 89.9012,83.5043 90.2346,81.0043 91.5,78.5C 91.9528,77.5416 92.6195,76.7083 93.5,76C 102.541,70.9898 112.208,68.9898 122.5,70C 126.693,70.4362 130.359,71.9362 133.5,74.5C 120.957,75.5708 109.291,79.2375 98.5,85.5 Z"/></g>
<g><path style="opacity:1" fill="#c4f768" d="M 170.5,70.5 C 173.45,71.7405 176.45,73.0738 179.5,74.5C 168.42,75.5447 157.42,77.378 146.5,80C 143.719,77.9599 140.719,76.2933 137.5,75C 147.931,69.6674 158.931,68.1674 170.5,70.5 Z"/></g>
<g><path style="opacity:1" fill="#131b58" d="M 136.5,54.5 C 145.729,52.4332 154.396,53.7666 162.5,58.5C 165.629,62.1309 168.963,65.6309 172.5,69C 187.34,73.5609 194.006,83.3942 192.5,98.5C 192.672,97.5084 192.338,96.8417 191.5,96.5C 191.737,95.209 191.404,94.209 190.5,93.5C 190.606,90.9214 189.939,88.588 188.5,86.5C 188.768,84.901 188.434,83.5676 187.5,82.5C 187.084,80.2475 185.751,78.7475 183.5,78C 181.19,77.5034 178.857,77.3367 176.5,77.5C 177.718,76.8386 179.051,76.1719 180.5,75.5C 180.376,74.8933 180.043,74.56 179.5,74.5C 176.45,73.0738 173.45,71.7405 170.5,70.5C 169.833,69.1667 168.833,68.1667 167.5,67.5C 160.587,58.1315 151.253,54.2982 139.5,56C 135.532,57.0377 131.865,58.5377 128.5,60.5C 127.5,60.5 126.5,60.5 125.5,60.5C 122.122,59.9769 119.122,58.6435 116.5,56.5C 112.019,55.3516 107.352,55.1849 102.5,56C 99.7187,56.5218 97.3854,57.6885 95.5,59.5C 93.5956,59.7376 92.2623,60.7376 91.5,62.5C 85.8656,66.4671 80.8656,71.1338 76.5,76.5C 76.0623,75.4937 75.3957,75.4937 74.5,76.5C 76.0872,73.7318 77.9205,71.0652 80,68.5C 84.0261,65.3016 87.8595,61.9683 91.5,58.5C 102.802,52.2086 114.302,51.8753 126,57.5C 129.669,56.9979 133.169,55.9979 136.5,54.5 Z"/></g>
<g><path style="opacity:1" fill="#bcf66c" d="M 167.5,67.5 C 161.013,68.3283 154.346,68.8283 147.5,69C 143.632,70.0114 139.966,71.5114 136.5,73.5C 133.846,69.1747 131.179,64.8413 128.5,60.5C 131.865,58.5377 135.532,57.0377 139.5,56C 151.253,54.2982 160.587,58.1315 167.5,67.5 Z"/></g>
<g><path style="opacity:1" fill="#d1f870" d="M 116.5,56.5 C 119.122,58.6435 122.122,59.9769 125.5,60.5C 128.402,63.2371 130.735,66.4038 132.5,70C 132.333,70.5 132.167,71 132,71.5C 130.124,70.3913 128.291,69.3913 126.5,68.5C 117.348,60.496 106.681,57.996 94.5,61C 93.944,61.3826 93.6107,61.8826 93.5,62.5C 92.8333,62.5 92.1667,62.5 91.5,62.5C 92.2623,60.7376 93.5956,59.7376 95.5,59.5C 102.241,56.928 109.241,55.928 116.5,56.5 Z"/></g>
<g><path style="opacity:1" fill="#8eb990" d="M 116.5,56.5 C 109.241,55.928 102.241,56.928 95.5,59.5C 97.3854,57.6885 99.7187,56.5218 102.5,56C 107.352,55.1849 112.019,55.3516 116.5,56.5 Z"/></g>
<g><path style="opacity:1" fill="#a6cf93" d="M 137.5,52.5 C 143.362,52.3354 149.196,52.6687 155,53.5C 158.188,54.1961 160.688,55.8628 162.5,58.5C 154.396,53.7666 145.729,52.4332 136.5,54.5C 136.328,53.5084 136.662,52.8417 137.5,52.5 Z"/></g>
<g><path style="opacity:1" fill="#c5f387" d="M 137.5,52.5 C 136.662,52.8417 136.328,53.5084 136.5,54.5C 133.169,55.9979 129.669,56.9979 126,57.5C 114.302,51.8753 102.802,52.2086 91.5,58.5C 91.5,57.5 91.5,56.5 91.5,55.5C 93.1992,55.6602 94.8659,55.4935 96.5,55C 99.8397,52.7639 103.506,51.2639 107.5,50.5C 111.135,51.6206 114.801,52.6206 118.5,53.5C 124.911,50.7019 131.244,50.3685 137.5,52.5 Z"/></g>
<g><path style="opacity:1" fill="#c1fb6c" d="M 90.5,98.5 C 90.8333,98.5 91.1667,98.5 91.5,98.5C 92.5893,100.117 94.256,100.95 96.5,101C 98.7059,104.707 101.706,107.54 105.5,109.5C 106.058,110.79 107.058,111.623 108.5,112C 113.858,113.335 119.191,114.669 124.5,116C 120.848,116.499 117.182,116.665 113.5,116.5C 109.526,116.013 105.859,114.68 102.5,112.5C 102.167,112.833 101.833,113.167 101.5,113.5C 103.028,114.861 104.695,116.028 106.5,117C 113.785,118.414 121.118,118.747 128.5,118C 133.383,114.866 138.383,111.866 143.5,109C 145.213,107.622 146.547,105.955 147.5,104C 148.793,103.51 150.127,103.343 151.5,103.5C 164.358,106.578 177.024,105.911 189.5,101.5C 189.5,102.5 189.5,103.5 189.5,104.5C 187.002,105.912 184.336,107.079 181.5,108C 174.36,108.902 167.36,109.735 160.5,110.5C 161.952,111.302 163.618,111.802 165.5,112C 164.833,112.667 164.167,113.333 163.5,114C 160.964,114.186 158.631,114.686 156.5,115.5C 164.786,117.197 172.953,116.531 181,113.5C 182.326,113.755 183.326,114.422 184,115.5C 184.399,115.272 184.565,114.938 184.5,114.5C 186.099,114.232 187.432,114.566 188.5,115.5C 187.239,125.807 191.239,133.64 200.5,139C 203.823,139.932 206.823,139.432 209.5,137.5C 209.874,141.647 208.874,145.314 206.5,148.5C 207.363,146.105 207.363,143.771 206.5,141.5C 204.259,141.881 201.926,142.048 199.5,142C 203.007,143.341 203.007,145.174 199.5,147.5C 195.601,148.984 191.601,149.484 187.5,149C 195.285,147.058 194.952,145.724 186.5,145C 185.034,144.365 183.7,143.531 182.5,142.5C 180.78,143.955 178.78,144.788 176.5,145C 179.623,145.206 182.623,145.873 185.5,147C 177.464,149.164 169.464,148.997 161.5,146.5C 158.885,147.269 156.219,147.603 153.5,147.5C 153.421,148.93 153.754,150.264 154.5,151.5C 153.167,152.167 151.833,152.833 150.5,153.5C 152.423,154.308 154.423,154.808 156.5,155C 156.043,155.414 155.709,155.914 155.5,156.5C 158.96,157.37 162.46,158.037 166,158.5C 173.477,157.958 180.977,157.792 188.5,158C 192.348,156.579 195.682,154.412 198.5,151.5C 199.849,151.846 201.183,152.179 202.5,152.5C 202.5,152.833 202.5,153.167 202.5,153.5C 199.22,155.692 195.887,157.692 192.5,159.5C 175.489,161.808 158.822,160.475 142.5,155.5C 140.815,153.182 138.481,152.182 135.5,152.5C 128.838,148.174 122.172,143.841 115.5,139.5C 114.564,138.026 113.23,137.026 111.5,136.5C 111.389,135.883 111.056,135.383 110.5,135C 112.167,134.667 113.833,134.333 115.5,134C 109.649,131.919 105.315,133.752 102.5,139.5C 100.486,142.161 98.4862,142.161 96.5,139.5C 97.9527,137.815 99.286,136.149 100.5,134.5C 102.195,133.989 103.861,133.322 105.5,132.5C 104.311,131.571 102.978,131.238 101.5,131.5C 100.167,131.5 98.8333,131.5 97.5,131.5C 97.6602,133.199 97.4935,134.866 97,136.5C 95.4534,134.113 93.2867,132.78 90.5,132.5C 89.7689,130.251 88.7689,128.084 87.5,126C 87.8333,125 88.1667,124 88.5,123C 86.7441,119.384 86.0775,115.551 86.5,111.5C 87.5,111.5 88.5,111.5 89.5,111.5C 88.6138,109.278 88.6138,107.112 89.5,105C 88.9777,104.05 88.311,103.216 87.5,102.5C 88.6155,101.402 88.6155,100.235 87.5,99C 87.6667,98.5 87.8333,98 88,97.5C 88.6708,98.2524 89.5041,98.5858 90.5,98.5 Z"/></g>
<g><path style="opacity:1" fill="#64db4a" d="M 105.5,109.5 C 114.634,112.067 123.967,113.567 133.5,114C 126.997,117.37 120.33,118.203 113.5,116.5C 117.182,116.665 120.848,116.499 124.5,116C 119.191,114.669 113.858,113.335 108.5,112C 107.058,111.623 106.058,110.79 105.5,109.5 Z"/></g>
<g><path style="opacity:1" fill="#b0ec67" d="M 102.5,103.5 C 109.675,106.502 117.175,108.169 125,108.5C 132.113,108.931 138.613,107.264 144.5,103.5C 145.525,103.897 145.692,104.563 145,105.5C 143.269,107.617 141.102,109.117 138.5,110C 134.045,110.897 129.545,111.397 125,111.5C 115.914,111.803 107.748,109.303 100.5,104C 101.094,103.536 101.761,103.369 102.5,103.5 Z"/></g>
<g><path style="opacity:1" fill="#424926" d="M 247.5,116.5 C 247.833,116.5 248.167,116.5 248.5,116.5C 248.827,125.682 248.493,134.682 247.5,143.5C 247.672,142.508 247.338,141.842 246.5,141.5C 246.5,141.167 246.5,140.833 246.5,140.5C 247.492,132.684 247.826,124.684 247.5,116.5 Z"/></g>
<g><path style="opacity:1" fill="#1f2c93" d="M 76.5,76.5 C 75.3611,79.918 74.0277,83.2513 72.5,86.5C 68.6009,88.0192 64.6009,89.0192 60.5,89.5C 58.4068,90.0447 56.4068,90.878 54.5,92C 42.9251,102.259 38.0918,115.092 40,130.5C 42.7468,133.754 45.9135,136.42 49.5,138.5C 48.6618,138.842 48.3284,139.508 48.5,140.5C 47.1667,139.5 45.8333,138.5 44.5,137.5C 42.5398,135.844 40.5398,134.177 38.5,132.5C 36.5025,123.406 37.5025,114.739 41.5,106.5C 44.6326,98.6998 49.6326,92.3665 56.5,87.5C 60.9788,87.4641 65.3121,86.6307 69.5,85C 71.7337,83.3621 73.067,81.1955 73.5,78.5C 73.8333,77.8333 74.1667,77.1667 74.5,76.5C 75.3957,75.4937 76.0623,75.4937 76.5,76.5 Z"/></g>
<g><path style="opacity:1" fill="#050611" d="M 192.5,114.5 C 198.084,113.525 202.917,114.858 207,118.5C 209.001,124.673 209.834,131.006 209.5,137.5C 206.823,139.432 203.823,139.932 200.5,139C 191.239,133.64 187.239,125.807 188.5,115.5C 189.959,115.567 191.292,115.234 192.5,114.5 Z"/></g>
<g><path style="opacity:1" fill="#cee0d9" d="M 195.5,116.5 C 198.997,116.995 199.997,118.828 198.5,122C 197.207,122.49 195.873,122.657 194.5,122.5C 194.325,120.379 194.659,118.379 195.5,116.5 Z"/></g>
<g><path style="opacity:1" fill="#1f5617" d="M 101.5,131.5 C 102.978,131.238 104.311,131.571 105.5,132.5C 103.861,133.322 102.195,133.989 100.5,134.5C 99.9569,134.44 99.6236,134.107 99.5,133.5C 100.243,132.818 100.909,132.151 101.5,131.5 Z"/></g>
<g><path style="opacity:1" fill="#afd5c6" d="M 38.5,132.5 C 40.5398,134.177 42.5398,135.844 44.5,137.5C 41.2678,137.228 39.2678,135.562 38.5,132.5 Z"/></g>
<g><path style="opacity:1" fill="#468334" d="M 111.5,136.5 C 109.708,136.366 108.042,136.699 106.5,137.5C 106.19,136.262 105.69,136.262 105,137.5C 104.333,138.833 103.667,140.167 103,141.5C 102.536,140.906 102.369,140.239 102.5,139.5C 105.315,133.752 109.649,131.919 115.5,134C 113.833,134.333 112.167,134.667 110.5,135C 111.056,135.383 111.389,135.883 111.5,136.5 Z"/></g>
<g><path style="opacity:1" fill="#0c2f0a" d="M 81.5,119.5 C 81.4135,123.857 81.0802,128.19 80.5,132.5C 79.3518,136.399 77.3518,139.899 74.5,143C 70.2695,144.29 65.9362,144.79 61.5,144.5C 60.4097,143.143 59.0764,142.143 57.5,141.5C 62.4724,142.422 67.4724,142.588 72.5,142C 73.6667,140.833 74.8333,139.667 76,138.5C 78.8103,131.804 80.1436,124.804 80,117.5C 80.2784,118.416 80.7784,119.082 81.5,119.5 Z"/></g>
<g><path style="opacity:1" fill="#c4e595" d="M 246.5,140.5 C 246.5,140.833 246.5,141.167 246.5,141.5C 236.833,141.5 227.167,141.5 217.5,141.5C 217.737,142.791 217.404,143.791 216.5,144.5C 216.461,143.417 216.127,142.417 215.5,141.5C 225.812,140.501 236.145,140.168 246.5,140.5 Z"/></g>
<g><path style="opacity:1" fill="#1a288a" d="M 246.5,141.5 C 247.338,141.842 247.672,142.508 247.5,143.5C 247.5,143.833 247.5,144.167 247.5,144.5C 247.167,144.5 246.833,144.5 246.5,144.5C 242.386,143.174 237.886,142.507 233,142.5C 228.5,142.667 224,142.833 219.5,143C 218.188,145.48 217.188,147.98 216.5,150.5C 216.5,148.5 216.5,146.5 216.5,144.5C 217.404,143.791 217.737,142.791 217.5,141.5C 227.167,141.5 236.833,141.5 246.5,141.5 Z"/></g>
<g><path style="opacity:1" fill="#050505" d="M 255.5,136.5 C 255.5,176.167 255.5,215.833 255.5,255.5C 216.167,255.5 176.833,255.5 137.5,255.5C 145.014,253.926 152.681,252.426 160.5,251C 216.072,232.6 247.739,194.434 255.5,136.5 Z"/></g>
<g><path style="opacity:1" fill="#040404" d="M -0.5,140.5 C 2.2054,157.948 7.7054,174.615 16,190.5C 39.2917,228.625 73.1251,250.291 117.5,255.5C 78.1667,255.5 38.8333,255.5 -0.5,255.5C -0.5,217.167 -0.5,178.833 -0.5,140.5 Z"/></g>
<g><path style="opacity:1" fill="#141539" d="M 246.5,144.5 C 246.833,144.5 247.167,144.5 247.5,144.5C 247.237,149.124 246.237,153.458 244.5,157.5C 244.909,153.124 245.575,148.79 246.5,144.5 Z"/></g>
<g><path style="opacity:1" fill="#8fef59" d="M 126.5,68.5 C 118.107,68.1696 109.773,68.6696 101.5,70C 97.102,71.5244 93.4353,74.0244 90.5,77.5C 90.6236,78.1067 90.9569,78.44 91.5,78.5C 90.2346,81.0043 89.9012,83.5043 90.5,86C 88.3553,86.7431 88.1886,87.5765 90,88.5C 92.4763,86.5129 95.3097,85.5129 98.5,85.5C 96.1525,87.837 93.4858,89.837 90.5,91.5C 91,91.8333 91.5,92.1667 92,92.5C 103.433,83.4639 116.433,78.1305 131,76.5C 135.76,76.6418 140.26,77.8085 144.5,80C 146.747,81.995 147.747,84.495 147.5,87.5C 143.424,85.3637 139.09,84.0303 134.5,83.5C 130.019,82.3516 125.352,82.1849 120.5,83C 119.584,83.2784 118.918,83.7784 118.5,84.5C 110.298,87.2678 102.631,91.1012 95.5,96C 92.975,96.8959 90.8083,96.3959 89,94.5C 88.7003,96.0657 89.2003,97.399 90.5,98.5C 89.5041,98.5858 88.6708,98.2524 88,97.5C 87.8333,98 87.6667,98.5 87.5,99C 88.6155,100.235 88.6155,101.402 87.5,102.5C 88.311,103.216 88.9777,104.05 89.5,105C 88.6138,107.112 88.6138,109.278 89.5,111.5C 88.5,111.5 87.5,111.5 86.5,111.5C 86.0775,115.551 86.7441,119.384 88.5,123C 88.1667,124 87.8333,125 87.5,126C 88.7689,128.084 89.7689,130.251 90.5,132.5C 93.2867,132.78 95.4534,134.113 97,136.5C 97.4935,134.866 97.6602,133.199 97.5,131.5C 98.8333,131.5 100.167,131.5 101.5,131.5C 100.909,132.151 100.243,132.818 99.5,133.5C 99.6236,134.107 99.9569,134.44 100.5,134.5C 99.286,136.149 97.9527,137.815 96.5,139.5C 98.4862,142.161 100.486,142.161 102.5,139.5C 102.369,140.239 102.536,140.906 103,141.5C 103.667,140.167 104.333,138.833 105,137.5C 105.69,136.262 106.19,136.262 106.5,137.5C 105.244,139.941 105.244,142.274 106.5,144.5C 106.797,147.559 108.13,150.059 110.5,152C 115.833,156 121.167,160 126.5,164C 133.48,167.298 140.48,170.632 147.5,174C 152.013,174.806 156.346,176.139 160.5,178C 164.833,178.333 169.167,178.667 173.5,179C 174.252,179.671 174.586,180.504 174.5,181.5C 173.833,181.5 173.5,181.833 173.5,182.5C 141.655,195.358 111.322,192.525 82.5,174C 72.9853,167.661 66.3186,159.161 62.5,148.5C 62.5,147.5 62.5,146.5 62.5,145.5C 66.1667,145.5 69.8333,145.5 73.5,145.5C 74.1667,148.833 74.8333,152.167 75.5,155.5C 76.9778,155.238 78.3112,155.571 79.5,156.5C 83.3058,163.804 88.9724,169.304 96.5,173C 96.1667,173.333 95.8333,173.667 95.5,174C 98.5358,174.638 101.536,174.472 104.5,173.5C 108.128,174.71 111.794,175.71 115.5,176.5C 115.371,171.809 113.038,168.809 108.5,167.5C 107.107,165.326 107.44,163.493 109.5,162C 105.961,159.624 102.961,156.791 100.5,153.5C 98.9291,152.691 97.2624,152.357 95.5,152.5C 94.8333,149.833 94.1667,147.167 93.5,144.5C 91.1789,144.229 89.1789,144.896 87.5,146.5C 86.6667,144.5 85.8333,142.5 85,140.5C 84.6667,141.167 84.3333,141.833 84,142.5C 82.9148,141.707 81.7481,141.04 80.5,140.5C 79.795,137.911 79.795,135.244 80.5,132.5C 81.0802,128.19 81.4135,123.857 81.5,119.5C 81.5,117.167 81.5,114.833 81.5,112.5C 80.448,112.649 79.448,112.483 78.5,112C 79.4061,110.301 79.7394,108.467 79.5,106.5C 78.5,106.5 77.5,106.5 76.5,106.5C 75.6978,101.088 75.3645,95.7543 75.5,90.5C 76.6773,88.0254 78.6773,87.0254 81.5,87.5C 81.5,85.8333 81.5,84.1667 81.5,82.5C 82.9778,82.762 84.3112,82.4287 85.5,81.5C 83.9124,77.7988 84.9124,74.9654 88.5,73C 87.5939,71.3005 87.2606,69.4672 87.5,67.5C 88.8333,67.5 90.1667,67.5 91.5,67.5C 91.8308,65.6776 92.4975,64.0109 93.5,62.5C 93.6107,61.8826 93.944,61.3826 94.5,61C 106.681,57.996 117.348,60.496 126.5,68.5 Z"/></g>
<g><path style="opacity:1" fill="#479033" d="M 134.5,83.5 C 129.138,83.4724 123.805,83.8058 118.5,84.5C 118.918,83.7784 119.584,83.2784 120.5,83C 125.352,82.1849 130.019,82.3516 134.5,83.5 Z"/></g>
<g><path style="opacity:1" fill="#dbf389" d="M 38.5,132.5 C 39.2678,135.562 41.2678,137.228 44.5,137.5C 45.8333,138.5 47.1667,139.5 48.5,140.5C 50.0019,145.732 51.5019,151.066 53,156.5C 55.4458,160.394 57.6124,164.394 59.5,168.5C 58.2921,167.766 56.9587,167.433 55.5,167.5C 55.5,165.833 55.5,164.167 55.5,162.5C 53.7741,162.185 52.1075,162.019 50.5,162C 51.5171,163.049 51.6838,164.216 51,165.5C 50.3005,163.968 49.1338,162.968 47.5,162.5C 46.4173,161.635 46.2506,160.635 47,159.5C 47.4419,157.321 48.4419,156.655 50,157.5C 51.3532,150.208 49.0199,144.541 43,140.5C 41.9887,141.337 40.8221,141.67 39.5,141.5C 40.2295,146.13 40.5628,150.797 40.5,155.5C 37.9067,148.862 36.5734,141.862 36.5,134.5C 36.5,133.167 37.1667,132.5 38.5,132.5 Z"/></g>
<g><path style="opacity:1" fill="#afdbbf" d="M 208.5,150.5 C 207.126,152.858 205.793,155.192 204.5,157.5C 204.149,154.188 205.482,151.855 208.5,150.5 Z"/></g>
<g><path style="opacity:1" fill="#646266" d="M 8.5,157.5 C 9.92381,159.515 10.5905,161.848 10.5,164.5C 9.07619,162.485 8.40953,160.152 8.5,157.5 Z"/></g>
<g><path style="opacity:1" fill="#141407" d="M 111.5,136.5 C 113.23,137.026 114.564,138.026 115.5,139.5C 113.218,138.61 110.885,138.444 108.5,139C 107.483,140.049 107.316,141.216 108,142.5C 129.02,164.927 154.854,174.927 185.5,172.5C 182.572,173.257 179.906,174.59 177.5,176.5C 149.599,175.385 125.932,164.719 106.5,144.5C 105.244,142.274 105.244,139.941 106.5,137.5C 108.042,136.699 109.708,136.366 111.5,136.5 Z"/></g>
<g><path style="opacity:1" fill="#52526a" d="M 244.5,157.5 C 244.196,160.522 243.696,163.522 243,166.5C 242.8,168.32 241.966,169.653 240.5,170.5C 241.388,165.928 242.721,161.595 244.5,157.5 Z"/></g>
<g><path style="opacity:1" fill="#75d94a" d="M 80.5,132.5 C 79.795,135.244 79.795,137.911 80.5,140.5C 81.7481,141.04 82.9148,141.707 84,142.5C 84.3333,141.833 84.6667,141.167 85,140.5C 85.8333,142.5 86.6667,144.5 87.5,146.5C 89.1789,144.896 91.1789,144.229 93.5,144.5C 94.1667,147.167 94.8333,149.833 95.5,152.5C 97.2624,152.357 98.9291,152.691 100.5,153.5C 102.961,156.791 105.961,159.624 109.5,162C 107.44,163.493 107.107,165.326 108.5,167.5C 113.038,168.809 115.371,171.809 115.5,176.5C 111.794,175.71 108.128,174.71 104.5,173.5C 101.536,174.472 98.5358,174.638 95.5,174C 95.8333,173.667 96.1667,173.333 96.5,173C 88.9724,169.304 83.3058,163.804 79.5,156.5C 78.3112,155.571 76.9778,155.238 75.5,155.5C 74.8333,152.167 74.1667,148.833 73.5,145.5C 69.8333,145.5 66.1667,145.5 62.5,145.5C 62.5,146.5 62.5,147.5 62.5,148.5C 62.1667,148.5 61.8333,148.5 61.5,148.5C 61.5,147.167 61.5,145.833 61.5,144.5C 65.9362,144.79 70.2695,144.29 74.5,143C 77.3518,139.899 79.3518,136.399 80.5,132.5 Z"/></g>
<g><path style="opacity:1" fill="#b8d4b5" d="M 43.5,163.5 C 46.669,167.833 49.3357,172.5 51.5,177.5C 47.8255,173.493 45.1588,168.827 43.5,163.5 Z"/></g>
<g><path style="opacity:1" fill="#16172e" d="M 240.5,170.5 C 240.598,172.553 239.931,174.22 238.5,175.5C 238.402,173.447 239.069,171.78 240.5,170.5 Z"/></g>
<g><path style="opacity:1" fill="#d0f695" d="M 200.5,167.5 C 198.149,170.669 195.816,173.836 193.5,177C 190.488,177.78 187.655,178.947 185,180.5C 184.093,186.033 180.926,188.2 175.5,187C 175.056,188.533 174.723,190.033 174.5,191.5C 171.964,190.95 169.631,191.617 167.5,193.5C 172.397,188.048 177.064,182.382 181.5,176.5C 188.776,175.361 195.109,172.361 200.5,167.5 Z"/></g>
<g><path style="opacity:1" fill="#8a8c97" d="M 238.5,175.5 C 238.799,177.604 238.466,179.604 237.5,181.5C 236.272,184.013 234.605,186.013 232.5,187.5C 233.992,183.182 235.992,179.182 238.5,175.5 Z"/></g>
<g><path style="opacity:1" fill="#352eae" d="M 191.5,96.5 C 192.338,96.8417 192.672,97.5084 192.5,98.5C 192.5,102.833 192.5,107.167 192.5,111.5C 199.53,110.934 205.363,113.268 210,118.5C 212.37,129.351 211.87,140.018 208.5,150.5C 205.482,151.855 204.149,154.188 204.5,157.5C 202.6,160.518 201.267,163.851 200.5,167.5C 195.109,172.361 188.776,175.361 181.5,176.5C 177.064,182.382 172.397,188.048 167.5,193.5C 162.362,196.215 157.028,198.549 151.5,200.5C 136.088,204.496 120.755,204.162 105.5,199.5C 87.0884,193.635 71.755,183.302 59.5,168.5C 57.6124,164.394 55.4458,160.394 53,156.5C 51.5019,151.066 50.0019,145.732 48.5,140.5C 48.3284,139.508 48.6618,138.842 49.5,138.5C 50.1667,138.833 50.8333,139.167 51.5,139.5C 51.7959,141.403 52.4625,143.07 53.5,144.5C 53.6955,152.586 56.1955,159.919 61,166.5C 77.6443,186.996 99.1443,198.329 125.5,200.5C 128.625,201.479 131.958,201.813 135.5,201.5C 140.464,200.289 145.464,199.289 150.5,198.5C 151.71,198.068 152.71,197.401 153.5,196.5C 159.497,195.669 164.497,193.002 168.5,188.5C 170.156,186.54 171.823,184.54 173.5,182.5C 173.5,181.833 173.833,181.5 174.5,181.5C 176.047,180.232 177.047,178.565 177.5,176.5C 179.906,174.59 182.572,173.257 185.5,172.5C 190.885,171.976 195.218,169.643 198.5,165.5C 199.931,164.22 200.598,162.553 200.5,160.5C 201.234,159.292 201.567,157.959 201.5,156.5C 202.11,155.609 202.443,154.609 202.5,153.5C 202.5,153.167 202.5,152.833 202.5,152.5C 204.167,151.5 205.5,150.167 206.5,148.5C 208.874,145.314 209.874,141.647 209.5,137.5C 209.834,131.006 209.001,124.673 207,118.5C 202.917,114.858 198.084,113.525 192.5,114.5C 190.016,112.455 189.016,109.788 189.5,106.5C 189.5,105.833 189.5,105.167 189.5,104.5C 189.5,103.5 189.5,102.5 189.5,101.5C 190.942,100.18 191.608,98.5138 191.5,96.5 Z"/></g>
<g><path style="opacity:1" fill="#221508" d="M 61.5,148.5 C 61.8333,148.5 62.1667,148.5 62.5,148.5C 66.3186,159.161 72.9853,167.661 82.5,174C 111.322,192.525 141.655,195.358 173.5,182.5C 171.823,184.54 170.156,186.54 168.5,188.5C 168.083,187.876 167.416,187.543 166.5,187.5C 134.092,197.389 104.426,192.222 77.5,172C 69.9236,165.608 64.5902,157.775 61.5,148.5 Z"/></g>
<g><path style="opacity:1" fill="#f03235" d="M 61.5,148.5 C 64.5902,157.775 69.9236,165.608 77.5,172C 104.426,192.222 134.092,197.389 166.5,187.5C 167.416,187.543 168.083,187.876 168.5,188.5C 164.497,193.002 159.497,195.669 153.5,196.5C 146.268,192.97 139.935,194.137 134.5,200C 131.518,200.498 128.518,200.665 125.5,200.5C 99.1443,198.329 77.6443,186.996 61,166.5C 56.1955,159.919 53.6955,152.586 53.5,144.5C 53.4701,143.503 53.9701,142.836 55,142.5C 56.3002,143.707 57.8002,144.374 59.5,144.5C 59.2291,146.38 59.8958,147.713 61.5,148.5 Z"/></g>
<g><path style="opacity:1" fill="#1d0a07" d="M 134.5,157.5 C 153.696,166.697 173.696,168.863 194.5,164C 196.692,163.074 198.692,161.907 200.5,160.5C 200.598,162.553 199.931,164.22 198.5,165.5C 198.565,165.062 198.399,164.728 198,164.5C 175.651,171.698 154.484,169.365 134.5,157.5 Z"/></g>
<g><path style="opacity:1" fill="#1c180f" d="M 202.5,153.5 C 202.443,154.609 202.11,155.609 201.5,156.5C 198.792,158.353 195.792,159.353 192.5,159.5C 195.887,157.692 199.22,155.692 202.5,153.5 Z"/></g>
<g><path style="opacity:1" fill="#272212" d="M 142.5,155.5 C 158.822,160.475 175.489,161.808 192.5,159.5C 175.345,164.436 158.678,163.102 142.5,155.5 Z"/></g>
<g><path style="opacity:1" fill="#211e0f" d="M 135.5,152.5 C 138.481,152.182 140.815,153.182 142.5,155.5C 139.759,155.293 137.426,154.293 135.5,152.5 Z"/></g>
<g><path style="opacity:1" fill="#2e9029" d="M 106.5,144.5 C 125.932,164.719 149.599,175.385 177.5,176.5C 177.047,178.565 176.047,180.232 174.5,181.5C 174.586,180.504 174.252,179.671 173.5,179C 169.167,178.667 164.833,178.333 160.5,178C 156.346,176.139 152.013,174.806 147.5,174C 140.48,170.632 133.48,167.298 126.5,164C 121.167,160 115.833,156 110.5,152C 108.13,150.059 106.797,147.559 106.5,144.5 Z"/></g>
<g><path style="opacity:1" fill="#acfb65" d="M 206.5,148.5 C 205.5,150.167 204.167,151.5 202.5,152.5C 201.183,152.179 199.849,151.846 198.5,151.5C 195.682,154.412 192.348,156.579 188.5,158C 180.977,157.792 173.477,157.958 166,158.5C 162.46,158.037 158.96,157.37 155.5,156.5C 155.709,155.914 156.043,155.414 156.5,155C 154.423,154.808 152.423,154.308 150.5,153.5C 151.833,152.833 153.167,152.167 154.5,151.5C 153.754,150.264 153.421,148.93 153.5,147.5C 156.219,147.603 158.885,147.269 161.5,146.5C 169.464,148.997 177.464,149.164 185.5,147C 182.623,145.873 179.623,145.206 176.5,145C 178.78,144.788 180.78,143.955 182.5,142.5C 183.7,143.531 185.034,144.365 186.5,145C 194.952,145.724 195.285,147.058 187.5,149C 191.601,149.484 195.601,148.984 199.5,147.5C 203.007,145.174 203.007,143.341 199.5,142C 201.926,142.048 204.259,141.881 206.5,141.5C 207.363,143.771 207.363,146.105 206.5,148.5 Z"/></g>
<g><path style="opacity:1" fill="#1e0f0b" d="M 51.5,139.5 C 53.3146,140.63 55.3146,141.296 57.5,141.5C 59.0764,142.143 60.4097,143.143 61.5,144.5C 61.5,145.833 61.5,147.167 61.5,148.5C 59.8958,147.713 59.2291,146.38 59.5,144.5C 57.8002,144.374 56.3002,143.707 55,142.5C 53.9701,142.836 53.4701,143.503 53.5,144.5C 52.4625,143.07 51.7959,141.403 51.5,139.5 Z"/></g>
<g><path style="opacity:1" fill="#1d1408" d="M 115.5,139.5 C 122.172,143.841 128.838,148.174 135.5,152.5C 127.778,149.775 121.111,145.442 115.5,139.5 Z"/></g>
<g><path style="opacity:1" fill="#ef3534" d="M 115.5,139.5 C 121.111,145.442 127.778,149.775 135.5,152.5C 137.426,154.293 139.759,155.293 142.5,155.5C 158.678,163.102 175.345,164.436 192.5,159.5C 195.792,159.353 198.792,158.353 201.5,156.5C 201.567,157.959 201.234,159.292 200.5,160.5C 198.692,161.907 196.692,163.074 194.5,164C 173.696,168.863 153.696,166.697 134.5,157.5C 154.484,169.365 175.651,171.698 198,164.5C 198.399,164.728 198.565,165.062 198.5,165.5C 195.218,169.643 190.885,171.976 185.5,172.5C 154.854,174.927 129.02,164.927 108,142.5C 107.316,141.216 107.483,140.049 108.5,139C 110.885,138.444 113.218,138.61 115.5,139.5 Z"/></g>
<g><path style="opacity:1" fill="#3c110e" d="M 134.5,157.5 C 130.619,156.226 126.952,154.393 123.5,152C 119.137,148.972 115.637,145.472 113,141.5C 119.786,147.467 126.952,152.801 134.5,157.5 Z"/></g>
<g><path style="opacity:1" fill="#812322" d="M 153.5,196.5 C 152.71,197.401 151.71,198.068 150.5,198.5C 144.67,195.189 139.67,196.189 135.5,201.5C 131.958,201.813 128.625,201.479 125.5,200.5C 128.518,200.665 131.518,200.498 134.5,200C 139.935,194.137 146.268,192.97 153.5,196.5 Z"/></g>
<g><path style="opacity:1" fill="#e3d95f" d="M 150.5,198.5 C 145.464,199.289 140.464,200.289 135.5,201.5C 139.67,196.189 144.67,195.189 150.5,198.5 Z"/></g>
<g><path style="opacity:1" fill="#3b3746" d="M 29.5,200.5 C 31.914,201.911 33.5806,203.911 34.5,206.5C 32.086,205.089 30.4194,203.089 29.5,200.5 Z"/></g>
<g><path style="opacity:1" fill="#2c2c3e" d="M 225.5,198.5 C 224.92,200.749 223.587,202.415 221.5,203.5C 222.08,201.251 223.413,199.585 225.5,198.5 Z"/></g>
<g><path style="opacity:1" fill="#e0edbb" d="M 105.5,199.5 C 120.755,204.162 136.088,204.496 151.5,200.5C 151.389,201.117 151.056,201.617 150.5,202C 136.858,205.196 123.192,205.196 109.5,202C 108.142,201.066 106.808,200.232 105.5,199.5 Z"/></g>
<g><path style="opacity:1" fill="#2c2e3f" d="M 221.5,203.5 C 220.243,206.427 218.243,208.761 215.5,210.5C 216.757,207.573 218.757,205.239 221.5,203.5 Z"/></g>
<g><path style="opacity:1" fill="#3e3d3f" d="M 34.5,206.5 C 38.8333,210.167 42.8333,214.167 46.5,218.5C 41.5,215.5 37.5,211.5 34.5,206.5 Z"/></g>
<g><path style="opacity:1" fill="#cae7af" d="M 144.5,216.5 C 138.749,218.04 132.749,218.706 126.5,218.5C 121.987,218.499 117.653,218.166 113.5,217.5C 123.857,217.672 134.19,217.339 144.5,216.5 Z"/></g>
<g><path style="opacity:1" fill="#221a3d" d="M 46.5,218.5 C 48.7488,219.08 50.4154,220.413 51.5,222.5C 49.2512,221.92 47.5846,220.587 46.5,218.5 Z"/></g>
<g><path style="opacity:1" fill="#313445" d="M 210.5,215.5 C 208.761,218.243 206.427,220.243 203.5,221.5C 205.239,218.757 207.573,216.757 210.5,215.5 Z"/></g>
<g><path style="opacity:1" fill="#2d2b8a" d="M 51.5,222.5 C 53.0174,222.511 54.1841,223.177 55,224.5C 55.3333,223.833 55.6667,223.167 56,222.5C 56.2202,224.669 57.3868,226.669 59.5,228.5C 56.4669,226.984 53.8003,224.984 51.5,222.5 Z"/></g>
<g><path style="opacity:1" fill="#454753" d="M 203.5,221.5 C 202.415,223.587 200.749,224.92 198.5,225.5C 199.585,223.413 201.251,222.08 203.5,221.5 Z"/></g>
<g><path style="opacity:1" fill="#1a1535" d="M 61.5,229.5 C 63.0269,229.427 64.0269,230.094 64.5,231.5C 62.9731,231.573 61.9731,230.906 61.5,229.5 Z"/></g>
<g><path style="opacity:1" fill="#4f515a" d="M 164.5,242.5 C 159.977,245.216 154.977,246.549 149.5,246.5C 154.354,245.035 159.354,243.701 164.5,242.5 Z"/></g>
<g><path style="opacity:1" fill="#171464" d="M 98.5,245.5 C 110.764,247.136 123.097,247.803 135.5,247.5C 135.5,247.833 135.5,248.167 135.5,248.5C 126.827,248.666 118.16,248.5 109.5,248C 105.608,247.581 101.942,246.748 98.5,245.5 Z"/></g>
<g><path style="opacity:1" fill="#323141" d="M 148.5,246.5 C 144.433,248.054 140.1,248.72 135.5,248.5C 135.5,248.167 135.5,247.833 135.5,247.5C 139.824,247.073 144.158,246.739 148.5,246.5 Z"/></g>
</svg>
