<?xml version="1.0" encoding="UTF-8"?>
<svg id="Layer_1" data-name="Layer 1" xmlns="http://www.w3.org/2000/svg" viewBox="0 0 221.85 238.83">
  <defs>
    <style>
      .cls-1 {
        fill: none;
      }

      .cls-2 {
        fill: #fdf8f6;
      }

      .cls-3 {
        fill: #fd8600;
      }

      .cls-4 {
        fill: #f48200;
      }

      .cls-5 {
        fill: #110c0e;
      }

      .cls-6 {
        fill: #0a0609;
      }
    </style>
  </defs>
  <g>
    <path class="cls-4" d="M139.35,234.64h-.28c-.12-.26.4-.26.28,0Z"/>
    <path class="cls-4" d="M82.79,234.64h-.28c-.12-.26.4-.26.28,0Z"/>
    <path class="cls-3" d="M.02,154.94c-.23-18.91,7.71-39.42,15.31-56.43C5.09,73.95,3.19,41.97,11.03,16.45,16.85-2.47,24.81-4.36,40.68,7.14c13.06,9.47,24.31,22.71,33.2,36.06,23.42-9.58,50.69-9.58,74.11,0,8.94-13.4,20.22-26.7,33.36-36.17,19.3-13.91,26.01-5.63,30.88,14.43,5.98,24.61,4.11,53.71-5.7,77.05,6.43,13.76,11.69,28.2,14.11,43.27.99,6.14,1.21,11.56,1.21,11.56,0,.67-.11,3.29-.12,3.66-2.54-4.44-6.59-11.5-12.89-14.57-14.41-7.04-28.08.3-40.04,8.38-7.13,4.82-13.47,10.58-19.81,16.38-5.14-6.44-11.15-11.83-18.97-14.76-2.77-1.04-6.69-2.24-9.62-2.5-.46-.04-.93.03-1.39,0-.18-.01-.37,0-.56,0-.97-.6-2.26-.52-3.34-.56-.19,0-.37,0-.56,0-2.35-.06-4.9-.08-7.25,0-.19,0-.37,0-.56,0-1.04.05-2.34.07-3.34.28-.34.07-.49.26-.56.28-.46.03-.93-.04-1.39,0-2.88.24-6.89,1.48-9.62,2.5-7.82,2.93-13.83,8.32-18.97,14.76-5.2-4.67-10.26-9.45-15.9-13.59-10.11-7.41-23.56-15.93-36.66-13.63-9.01,1.58-15.38,7.66-20.28,14.97ZM57.67,51.24c.37-.63-2.24-4.62-2.74-5.4-4.43-6.91-16.71-22.89-23.78-26.38-4.22-2.08-6.89-1.44-9.07,2.74-5.11,9.82-4.6,29.44-3.35,40.33.88,7.66,2.6,15.25,5.26,22.47,2.49-3.34,4.59-6.97,7.13-10.28,7.19-9.36,16.33-17.56,26.55-23.48ZM197.87,85c1.98-5.39,3.47-10.95,4.42-16.62,2.09-12.56,2.77-28.49-.59-40.84-1.56-5.74-3.73-11.54-10.8-8.17-6.69,3.19-17.25,16.89-21.67,23.19-.89,1.27-5.26,7.46-5.09,8.55,10.23,6.12,19.33,14.15,26.61,23.61,2.55,3.32,4.64,6.93,7.13,10.28ZM79.62,89.83c-4.56-4.41-11.35-5.76-17.15-2.99-4.14,1.98-8.01,7.92-3.36,11.38,2.79,2.08,11.7,4.19,15.3,4.76,2.76.43,5.76,1.04,7.8-1.41,3.02-3.61.3-8.94-2.6-11.74ZM142.24,89.83c-2.9,2.81-5.63,8.12-2.6,11.74,2.93,3.51,11.79.73,15.72-.43,4.83-1.42,12.16-3.54,8.57-10.21-4.08-7.61-16.02-6.6-21.69-1.1Z"/>
    <path class="cls-4" d="M139.07,234.64h.28c-.24.05-.27,0-.28,0Z"/>
    <path class="cls-4" d="M82.51,234.64h.28s-.03.05-.28,0Z"/>
    <path class="cls-4" d="M114.55,149.37c-.29.46-1.06.28-1.53.28-1.82.02-4,.21-5.72-.28,2.35-.08,4.89-.06,7.25,0Z"/>
    <path class="cls-4" d="M106.75,149.37c-.02.16.05.52,0,.56-.14.1-3.06.13-3.35-.28,1.01-.2,2.3-.23,3.34-.28Z"/>
    <path class="cls-4" d="M118.45,149.93c-.58-.02-3.21.1-3.35,0-.05-.03.03-.4,0-.56,1.08.04,2.37-.04,3.34.56Z"/>
    <path class="cls-4" d="M102.85,149.93c-.29.07-.97.73-1.39,0,.46-.04.93.03,1.39,0Z"/>
    <path class="cls-4" d="M120.4,149.93c-.18.44-1.21.44-1.39,0,.46.03.94-.04,1.39,0Z"/>
  </g>
  <path class="cls-2" d="M57.67,51.24c-10.22,5.92-19.35,14.11-26.55,23.48-2.54,3.31-4.64,6.94-7.13,10.28-2.67-7.22-4.38-14.81-5.26-22.47-1.25-10.89-1.76-30.51,3.35-40.33,2.18-4.18,4.85-4.82,9.07-2.74,7.07,3.49,19.35,19.47,23.78,26.38.5.78,3.11,4.77,2.74,5.4Z"/>
  <path class="cls-2" d="M197.87,85c-2.49-3.35-4.58-6.97-7.13-10.28-7.27-9.46-16.37-17.49-26.61-23.61-.17-1.09,4.2-7.28,5.09-8.55,4.42-6.3,14.98-20.01,21.67-23.19,7.07-3.36,9.24,2.44,10.8,8.17,3.36,12.35,2.68,28.28.59,40.84-.94,5.68-2.44,11.24-4.42,16.62Z"/>
  <path class="cls-2" d="M79.62,89.83c2.9,2.8,5.62,8.12,2.6,11.74-2.05,2.44-5.05,1.84-7.8,1.41-3.6-.57-12.51-2.69-15.3-4.76-4.65-3.46-.78-9.4,3.36-11.38,5.79-2.76,12.59-1.42,17.15,2.99Z"/>
  <path class="cls-2" d="M142.24,89.83c5.68-5.5,17.61-6.51,21.69,1.1,3.58,6.67-3.74,8.79-8.57,10.21-3.93,1.15-12.79,3.93-15.72.43-3.03-3.62-.3-8.93,2.6-11.74Z"/>
  <path class="cls-2" d="M101.4,147.22c3.5-.42,7.04-.53,10.56-.49,5.02.1,10.06.38,14.9,1.8,6.36,1.82,12.1,5.35,16.89,9.89,2.88,2.74,5.71,4.61,9.39,2.08.96-.63,1.9-1.43,2.8-2.2,7.57-6.55,15.6-12.7,24.63-17.12,5.42-2.65,11.39-4.51,17.47-4.35,9.09,0,20.32,6.46,23.27,15.29,1.13,3.91.02,8.21-1.32,12.04-4.28,11.78-12.33,21.7-21.18,30.41-6.81,7.26-15.11,12.85-23.26,18.47-12.55,8.59-26.32,15.73-40.67,20.78-12.29,4.77-24.23,6.57-37.21,3.42-7-1.67-13.69-4.41-20.33-7.12-15.61-6.65-30.08-15.71-43.54-25.99-4.14-3.07-7.84-6.66-11.45-10.33-8.29-7.93-15.43-17.24-19.84-27.89-3.01-7.73-4.42-13.94,2.1-20.36,17.62-18.26,40.84-4.16,57,9.11,1.68,1.38,3.32,2.82,4.97,4.24,1.75,1.5,3.97,3.15,6.31,2.74,2.51-.45,4.23-2.44,6.29-4.23.8-.72,1.63-1.41,2.48-2.07,5.65-4.41,12.56-7.3,19.67-8.13h.05Z"/>
  <path class="cls-5" d="M114.31,188.42c-.34,1.33-.49,4.52-.02,6.13.37,1.31,1.28,2.48,3.24,3.81,9.65,6.54,24.61,3.97,30.58-6.38,2-3.47,2.04-8.27,6.79-8.83,2.99-.36,4.97,2.22,4.8,5.08-.19,3.36-6.76,10.58-9.33,12.98-9.06,8.46-21.75,10.52-33.13,5.53-2.25-.99-4.23-2.41-6.41-3.53-11.13,7.98-26.13,8.51-37.1-.06-2.94-2.3-9.76-9.55-11.07-12.89-1.99-5.06,2.48-9.29,7.11-6,1.72,1.22,2.56,5.16,3.66,7.2,5.11,9.46,15.49,12.17,25.5,9.33,3.12-.89,8.26-2.76,8.85-6.19.53-3.06-.1-5.28-.25-6.17"/>
  <path class="cls-5" d="M114.31,188.42c6.88-.97,17.65-9.55,17.53-16.88-.25-14.45-33.12-16.25-40.37-4.43-2.87,4.68-.6,9.39,2.6,13.19,3.44,4.09,8.29,6.89,13.48,8.11"/>
  <path class="cls-6" d="M85.18,135.98c-.57.75-3.57.34-4.65.59-6.37,1.46-10.18,3.86-17.01,1.62-7.56-2.49-10.39-7.52-13.1-14.46-.91-2.34-1.29-1.83-3.28-2.83-3.97-1.99,1.05-5.34,3.09-6.58,10.42-6.33,23.7-2.39,30.31,7.43,1.91,2.84,4.68,9.3,4.96,12.67.03.4-.08,1.26-.32,1.58Z"/>
  <path class="cls-6" d="M136.68,135.99c.57.75,3.57.34,4.65.59,6.37,1.46,10.18,3.86,17.01,1.62,7.56-2.49,10.39-7.52,13.1-14.46.91-2.34,1.29-1.83,3.28-2.83,3.97-1.99-1.05-5.34-3.09-6.58-10.42-6.33-23.7-2.39-30.31,7.43-1.91,2.84-4.68,9.3-4.96,12.67-.03.4.08,1.26.32,1.58Z"/>
  <rect class="cls-1" x="83.68" y="196.25" width="56.8" height="5.73"/>
</svg>