<svg width="256" height="256" viewBox="0 0 256 256" fill="none" xmlns="http://www.w3.org/2000/svg">
<rect width="256" height="256" rx="128" fill="url(#paint0_linear_550_12143)"/>
<path fill-rule="evenodd" clip-rule="evenodd" d="M205.842 164.186C212.049 153.702 213.011 140.089 206.05 128.024L173.813 72.15C170.101 65.7169 164.775 60.3772 158.367 56.6654C151.959 52.9537 144.694 51 137.3 51H113.486C113.444 51 113.402 51.001 113.361 51.003C107.056 51.025 100.865 52.6982 95.3979 55.8591C89.8941 59.041 85.316 63.6191 82.1203 69.1366L48.9024 126.491C45.6445 132.116 43.9191 138.506 43.9005 145.017C43.8819 151.527 45.5709 157.928 48.7966 163.572L53.3768 171.585L60.8591 185.394C63.6095 191.597 68.0894 196.867 73.7572 200.564C79.469 204.289 86.1383 206.254 92.9454 206.218L92.9513 206.218L160.876 206.142C167.587 206.134 174.171 204.299 179.928 200.831C185.686 197.363 190.403 192.391 193.579 186.444L196.896 180.233L205.842 164.186ZM126.617 59.3728C130.647 61.4237 134.146 64.3898 136.838 68.0357L177.967 139.321C178.041 139.448 178.11 139.577 178.176 139.708C178.69 140.736 178.96 141.873 178.962 143.028C178.964 144.331 178.625 145.612 177.979 146.741C177.332 147.87 176.401 148.808 175.28 149.461C174.158 150.113 172.886 150.456 171.59 150.456H160.486L129.37 95.6693C129.356 95.641 129.34 95.6129 129.324 95.5851L122.974 84.4037C121.917 82.5434 120.392 80.9962 118.551 79.9185C116.71 78.8408 114.618 78.2708 112.488 78.2659L112.488 78.2697C112.488 78.2697 112.489 78.2697 112.488 78.2697C110.358 78.2653 108.262 78.8264 106.416 79.8962C104.571 80.9659 103.038 82.5072 101.973 84.3631L62.5155 153.109L62.5083 153.122L62.4661 153.196C59.6991 157.953 58.0901 163.3 57.7689 168.801L53.2936 160.971C50.5226 156.123 49.0718 150.625 49.0878 145.032C49.1038 139.439 50.5859 133.95 53.3846 129.117L86.6024 71.7633C89.3414 67.0342 93.2654 63.1103 97.9827 60.3831C102.7 57.6559 108.046 56.2207 113.487 56.2207C118.049 56.2213 122.547 57.3011 126.617 59.3728ZM124.084 96.8801L118.47 86.9954C117.866 85.9319 116.993 85.0475 115.941 84.4317C114.888 83.8158 113.693 83.4902 112.475 83.4876C111.258 83.4851 110.061 83.8058 109.006 84.4174C107.951 85.0289 107.075 85.9096 106.466 86.9705L67.0149 155.706L67.0077 155.718L66.95 155.82C64.5598 159.925 63.1835 164.548 62.9367 169.299C62.6899 174.05 63.5795 178.791 65.531 183.124L65.5335 183.125L65.5406 183.141C67.8773 188.479 71.7143 193.013 76.5793 196.186C81.4442 199.359 87.1248 201.032 92.9227 201L92.9341 201L160.87 200.924C166.645 200.917 172.309 199.338 177.264 196.354C182.218 193.37 186.277 189.092 189.009 183.975L192.337 177.743L192.36 177.701L192.683 177.121C189.835 178.724 186.719 179.946 183.383 180.705C180.769 181.305 178.084 181.606 175.38 181.592H98.4317C96.1251 181.592 93.8587 180.982 91.8604 179.824C89.862 178.665 88.2018 176.997 87.0465 174.989C85.8911 172.981 85.2811 170.702 85.2778 168.382C85.2745 166.061 85.8779 163.781 87.0276 161.769L124.084 96.8801ZM184.786 174.909C181.865 175.856 178.714 176.374 175.385 176.374L98.4306 176.374C97.0338 176.374 95.6615 176.005 94.4513 175.303C93.2412 174.601 92.2358 173.592 91.5361 172.375C90.8364 171.159 90.467 169.779 90.4651 168.374C90.4631 166.969 90.8289 165.587 91.5251 164.369L96.4904 155.674H158.863C158.903 155.676 158.943 155.677 158.983 155.677H171.592C173.799 155.677 175.967 155.092 177.877 153.981C179.788 152.87 181.374 151.272 182.475 149.347C183.577 147.423 184.154 145.241 184.151 143.022C184.147 141.048 183.684 139.107 182.804 137.351C182.693 137.13 182.576 136.913 182.452 136.699L141.253 65.2917L141.251 65.289C141.204 65.2075 141.153 65.1287 141.097 65.0528C138.516 61.522 135.295 58.5263 131.613 56.218H137.3C143.785 56.218 150.158 57.9316 155.778 61.1873C161.399 64.443 166.071 69.1266 169.326 74.7693L201.564 130.643C207.419 140.791 206.708 152.222 201.617 161.117C201.579 161.173 201.543 161.23 201.509 161.29C201.286 161.679 201.055 162.062 200.816 162.439C198.313 166.349 194.934 169.698 190.882 172.133C190.747 172.214 190.612 172.293 190.476 172.372C188.664 173.418 186.757 174.267 184.786 174.909ZM99.4702 150.456H154.512L127.067 102.132L99.4702 150.456Z" fill="white"/>
<defs>
<linearGradient id="paint0_linear_550_12143" x1="128" y1="0" x2="128" y2="256" gradientUnits="userSpaceOnUse">
<stop stop-color="#1E201D"/>
<stop offset="1" stop-color="#1C2C20"/>
</linearGradient>
</defs>
</svg>
