<svg width="256" height="256" viewBox="0 0 256 256" fill="none" xmlns="http://www.w3.org/2000/svg">
<path d="M256 128C256 198.692 198.692 256 128 256C57.3076 256 0 198.692 0 128C0 57.3076 57.3076 0 128 0C198.692 0 256 57.3076 256 128Z" fill="#6938EF"/>
<path d="M240 128C240 189.856 189.856 240 128 240C66.1441 240 16 189.856 16 128C16 66.1441 66.1441 16 128 16C189.856 16 240 66.1441 240 128Z" fill="#8760F2"/>
<path d="M224 128C224 181.019 181.019 224 128 224C74.9807 224 32 181.019 32 128C32 74.9806 74.9807 32 128 32C181.019 32 224 74.9806 224 128Z" fill="#A588F5"/>
<path d="M208 128C208 172.183 172.183 208 128 208C83.8172 208 48 172.183 48 128C48 83.8172 83.8172 48 128 48C172.183 48 208 83.8172 208 128Z" fill="#C3AFF9"/>
<path d="M192 128C192 163.346 163.346 192 128 192C92.6538 192 64 163.346 64 128C64 92.6537 92.6538 64 128 64C163.346 64 192 92.6537 192 128Z" fill="#E1D7FC"/>
<path d="M176 128C176 154.51 154.51 176 128 176C101.49 176 80 154.51 80 128C80 101.49 101.49 80 128 80C154.51 80 176 101.49 176 128Z" fill="white"/>
<path d="M160 128C160 145.673 145.673 160 128 160C110.327 160 96 145.673 96 128C96 110.327 110.327 96 128 96C145.673 96 160 110.327 160 128Z" fill="#6938EF"/>
</svg>
