<?xml version="1.0" encoding="UTF-8"?>
<svg id="Layer_1" xmlns="http://www.w3.org/2000/svg" viewBox="0 0 256 256">
  <defs>
    <style>
      .cls-1 {
        fill: #1f2723;
        fill-rule: evenodd;
      }
    </style>
  </defs>
  <path class="cls-1" d="M22.57,85.45c-2.42,1.94-2.42,5.63,0,7.56l12.58,10.06c1.78,1.43,4.31,1.42,6.08-.02l71.73-58.28c1.14-.93,1.79-2.31,1.79-3.76v-19.23c0-4.06-4.7-6.32-7.87-3.78,0,0-84.31,67.45-84.31,67.45ZM44.23,144.22c-1.77,1.44-4.3,1.45-6.08.02l-11.56-9.24c-2.41-1.93-2.42-5.6-.04-7.54L106.84,62.23c3.16-2.58,7.9-.32,7.9,3.76v18.63c0,1.46-.66,2.85-1.79,3.76l-68.74,55.84h.01ZM29.56,168.62c-2.4,1.94-2.39,5.62.04,7.54l77.29,61.83c3.17,2.54,7.87.28,7.87-3.78v-124.62c0-4.08-4.73-6.34-7.9-3.76l-77.29,62.79h0ZM124.44,232.59c0,4.32,5.22,6.48,8.27,3.43l104.59-104.59c1.9-1.9,1.9-4.96,0-6.85L132.71,19.99c-3.06-3.06-8.27-.89-8.27,3.43v209.2-.02Z"/>
</svg>