<svg id="Layer_1" data-name="Layer 1" xmlns="http://www.w3.org/2000/svg" viewBox="0 0 300 300"><title>LOGO SQUARE</title><path d="M261.34,221a4.93,4.93,0,0,1-.55,0h-.1a3.79,3.79,0,0,1-.45-.07l-.19,0-.36-.09-.28-.09-.05,0-.56-.23A6.05,6.05,0,0,1,261.34,209a5.89,5.89,0,0,1,3.41,1.09c.11.07.2.15.3.22l.2.18.18.15.25.26c.06.07.13.13.18.2l.15.18c.08.11.17.22.24.33l.11.16.18.29c0,.05,0,.1.07.14s.14.28.2.42l.06.15c.06.15.12.3.17.45s0,.07,0,.09.08.3.12.45,0,.07,0,.1a4.67,4.67,0,0,1,.08.52.41.41,0,0,0,0,.11,5.25,5.25,0,0,1,0,.56,6,6,0,0,1-6,6m-45.49-92.61a15.07,15.07,0,0,0,4.67-10.93,15.27,15.27,0,0,0-.62-4.31L250.53,95.3a14.91,14.91,0,0,0,7.4,4.32V199.77a.63.63,0,0,1-.47.61l-.15,0a.63.63,0,0,1-.54-.31Zm34.9,75.87a.63.63,0,0,1-.74.09l-85.78-50.07a15.36,15.36,0,0,0,0-8.64l30.64-17.88a14.72,14.72,0,0,0,10.8,4.72,15,15,0,0,0,4.27-.63l40.92,71.65a.62.62,0,0,1-.11.76m-3.81,7a.61.61,0,0,1-.53.31l-81.87-.06A14.94,14.94,0,0,0,153.41,200V164.61a14.75,14.75,0,0,0,7.39-4.31l85.92,50.14a.66.66,0,0,1,.31.55l-.09.31m-.47,8.39-85.67,50a14.71,14.71,0,0,0-7.39-4.31V229.25a15,15,0,0,0,11-10.79l81.8.06a.64.64,0,0,1,.6.46.66.66,0,0,1-.3.71M156,280.5h0a4.63,4.63,0,0,1-.07.52v.06c0,.16-.07.32-.11.48a.29.29,0,0,0,0,.09l-.15.43a.76.76,0,0,0,0,.11c-.05.13-.11.27-.17.4l-.06.13a4,4,0,0,1-.2.35l-.08.14a3.62,3.62,0,0,1-.22.32l-.11.15-.23.28-.13.15-.25.25-.16.15-.25.22-.19.14-.26.18a1.64,1.64,0,0,1-.22.14l-.26.15-.25.12-.25.12-.29.1-.25.09-.32.08-.23.06-.39.06-.2,0a5.68,5.68,0,0,1-.59,0l-.6,0-.19,0-.39-.06-.23-.06-.32-.08-.25-.09-.28-.1-.26-.12-.25-.12-.26-.15-.22-.14-.26-.18-.19-.14-.25-.22-.16-.15a2.83,2.83,0,0,1-.24-.25l-.14-.15-.23-.28-.11-.15a3.62,3.62,0,0,1-.22-.32.57.57,0,0,0-.08-.13l-.2-.37a.61.61,0,0,1,0-.12c-.07-.13-.12-.27-.18-.4a.42.42,0,0,0,0-.1c-.05-.15-.1-.29-.14-.44a.31.31,0,0,1,0-.08c0-.17-.08-.33-.11-.49a.07.07,0,0,1,0-.05,5.91,5.91,0,0,1-.1-1,6,6,0,1,1,12,0,4.36,4.36,0,0,1,0,.51M139.2,269.69,53.29,219.54A.63.63,0,0,1,53,219c0-.09.05-.19.08-.28a.6.6,0,0,1,.54-.32l82,.06a14.94,14.94,0,0,0,11,10.81v36.13a14.75,14.75,0,0,0-7.39,4.31M49.68,204.47a.59.59,0,0,1-.43-.17.61.61,0,0,1-.1-.76l40.91-71.65a15.05,15.05,0,0,0,4.27.63,14.76,14.76,0,0,0,10.81-4.72l30.63,17.88a15.36,15.36,0,0,0,0,8.64L50,204.39a.58.58,0,0,1-.31.08m-6.45-4.38a.61.61,0,0,1-.53.31l-.16,0a.63.63,0,0,1-.46-.61V99.62a14.84,14.84,0,0,0,7.39-4.32L80.1,113.19a15.27,15.27,0,0,0-.62,4.31,15.07,15.07,0,0,0,4.67,10.93Zm-2,20.37h0l-.56.23,0,0-.28.09-.35.09-.2,0a3.5,3.5,0,0,1-.45.07h-.1a4.93,4.93,0,0,1-.55,0,6,6,0,0,1-6-6,5.25,5.25,0,0,1,0-.56.41.41,0,0,0,0-.11c0-.17.05-.35.08-.52a.36.36,0,0,0,0-.1c0-.15.07-.3.12-.45s0-.06,0-.09.11-.3.17-.45l.06-.15c.06-.14.13-.28.2-.41a1.09,1.09,0,0,1,.08-.15c.05-.1.11-.19.17-.29l.11-.16.24-.33.15-.18.18-.2.25-.26.18-.15.2-.18.3-.22A5.92,5.92,0,0,1,38.66,209a6.05,6.05,0,0,1,2.54,11.51M34.32,89.15l-.18-.2L34,88.77l-.24-.33-.11-.16a2.91,2.91,0,0,1-.17-.3.57.57,0,0,1-.08-.13c-.07-.14-.14-.28-.2-.42l-.06-.14c-.06-.16-.12-.31-.17-.46s0-.07,0-.09-.08-.3-.12-.45a.36.36,0,0,0,0-.1c0-.17-.06-.35-.08-.52a.45.45,0,0,0,0-.11,5.12,5.12,0,0,1,0-.56,6,6,0,0,1,6-6,4.93,4.93,0,0,1,.55,0h.1a3.5,3.5,0,0,1,.45.07l.2,0,.35.09.28.1h0a5.48,5.48,0,0,1,.56.23,6.05,6.05,0,0,1-2.54,11.51A6,6,0,0,1,35.24,90L35,89.74l-.2-.17-.18-.17-.25-.25M96.87,123h0l-.47.2h0l-.46.15h-.07l-.45.11h-.07a6.51,6.51,0,0,1-1,.09,6,6,0,0,1-5.4-3.48,4.73,4.73,0,0,1-.2-.47s0,0,0,0a3.53,3.53,0,0,1-.15-.46l0-.07a3.4,3.4,0,0,1-.09-.46s0,0,0-.08,0-.31-.06-.48,0-.34,0-.51A6.06,6.06,0,0,1,91.8,112l.46-.2h0l.46-.15.07,0,.45-.1h.08a3.7,3.7,0,0,1,.48-.06h0l.5,0a6,6,0,0,1,5.6,4,0,0,0,0,1,0,0,4.11,4.11,0,0,1,.15.46.64.64,0,0,0,0,.07c0,.16.07.31.1.46s0,0,0,.08a5.44,5.44,0,0,1,.09,1A6.05,6.05,0,0,1,96.87,123m41.8-92.36a.62.62,0,0,1,.75.1.65.65,0,0,1,.1.76L98.6,103.12a14.75,14.75,0,0,0-15.08,4.09L52.89,89.33a15.36,15.36,0,0,0,0-8.64Zm5.38-11.11h0a4.63,4.63,0,0,1,.07-.52.11.11,0,0,1,0-.06,4.15,4.15,0,0,1,.11-.48.29.29,0,0,1,0-.09c0-.15.09-.29.14-.43a.49.49,0,0,0,0-.11c.06-.13.11-.27.18-.4a.61.61,0,0,1,0-.12c.07-.13.13-.25.2-.36a1,1,0,0,0,.08-.14,3.62,3.62,0,0,1,.22-.32l.11-.15.23-.28.14-.15.24-.25.16-.15.25-.22.19-.14.26-.18.22-.14.26-.15.25-.12.26-.12.28-.1.25-.09.32-.08.24-.06c.12,0,.25,0,.37-.06l.2,0a5.68,5.68,0,0,1,.59,0h0a5.35,5.35,0,0,1,.58,0l.21,0,.38.06.23.06.32.08.25.09.29.1.25.12.25.12.26.15.22.14.26.18.19.14.25.22.16.15a2.77,2.77,0,0,1,.24.25,1,1,0,0,1,.14.15l.23.28.11.15a3.62,3.62,0,0,1,.22.32l.08.14a3.07,3.07,0,0,1,.2.36l.06.12c.06.13.12.27.17.4a.49.49,0,0,0,0,.11l.15.43a.29.29,0,0,0,0,.09c0,.16.07.32.11.48V19a4.34,4.34,0,0,1,.07.52,4.41,4.41,0,0,1,0,.52,6,6,0,1,1-12,0c0-.18,0-.35,0-.52M144,150a6,6,0,1,1,6,6,6,6,0,0,1-6-6m-4.82,10.3a14.75,14.75,0,0,0,7.39,4.31V200a14.93,14.93,0,0,0-11.12,11.5l-81.64-.06a.63.63,0,0,1-.6-.46.65.65,0,0,1,.29-.71Zm-34.69-53.72,40.92-71.66a.61.61,0,0,1,.7-.29.62.62,0,0,1,.46.6V135.39a14.75,14.75,0,0,0-7.39,4.31l-30.64-17.88a15.4,15.4,0,0,0,.62-4.32,15,15,0,0,0-4.67-10.92M156,214.63a6,6,0,0,1-1.35,3.82l-.11.14-.22.23-.18.18-.17.16a5.89,5.89,0,0,1-7.36.43h0a5.52,5.52,0,0,1-.53-.43l-.17-.16-.18-.18-.2-.21a6.12,6.12,0,0,1-1.48-4,6,6,0,0,1,1.21-3.61s0,0,0,0a4.22,4.22,0,0,1,.38-.46l0,0a4.07,4.07,0,0,1,.42-.41l0,0a5.88,5.88,0,0,1,7.8,0l0,0c.14.13.28.27.41.41l0,0a4.43,4.43,0,0,1,.38.46h0a6.06,6.06,0,0,1,.35.53,6,6,0,0,1,.85,3.08m35.47-92.81L160.8,139.7a14.71,14.71,0,0,0-7.39-4.31V35.23a.62.62,0,0,1,.46-.6.6.6,0,0,1,.7.29l40.92,71.66a15.11,15.11,0,0,0-4,15.24M211.62,118h0c0,.17,0,.33-.06.49a.17.17,0,0,0,0,.07c0,.16-.06.31-.1.46s0,0,0,.07a3.53,3.53,0,0,1-.15.46v0a4.62,4.62,0,0,1-.19.47,6,6,0,0,1-5.41,3.48,6.26,6.26,0,0,1-1-.09h-.07l-.46-.11h-.07l-.46-.15h0a6.06,6.06,0,0,1-3.91-5.67,5.44,5.44,0,0,1,.09-1,.22.22,0,0,0,0-.08c0-.15.07-.3.11-.46s0,0,0-.06.1-.32.15-.47v0c.06-.16.12-.32.19-.47h0a6,6,0,0,1,5.41-3.48l.51,0,.47.07h.08l.45.1.07,0c.15,0,.31.09.46.15h0a6.05,6.05,0,0,1,3.91,5.66c0,.17,0,.35,0,.51m-51-87.3a.62.62,0,0,1,.75-.1l85.79,50.08a15.13,15.13,0,0,0,0,8.64l-30.64,17.88a14.75,14.75,0,0,0-15.08-4.09L160.48,31.47a.65.65,0,0,1,.1-.76M258.8,79.54h0l.56-.23h.05l.28-.1.36-.09.19,0a3.79,3.79,0,0,1,.45-.07h.1a4.93,4.93,0,0,1,.55,0,6,6,0,0,1,6,6,5.12,5.12,0,0,1,0,.56.45.45,0,0,0,0,.11,4.67,4.67,0,0,1-.08.52s0,.07,0,.1-.07.3-.12.45,0,.06,0,.09-.11.3-.17.45l-.06.15c-.06.14-.13.28-.2.41s-.05.1-.07.15l-.18.29-.11.16c-.07.11-.16.22-.24.33l-.15.18c-.05.07-.12.13-.18.2s-.17.17-.25.25l-.18.17-.2.17a3.3,3.3,0,0,1-.3.22,5.89,5.89,0,0,1-3.41,1.09,6.05,6.05,0,0,1-2.54-11.51m5.95,120.84V99.62A15,15,0,0,0,261.34,70a14.76,14.76,0,0,0-10.81,4.72l-86.3-50.38a15.33,15.33,0,0,0,.62-4.31,14.85,14.85,0,1,0-29.7,0,15.33,15.33,0,0,0,.62,4.31L49.47,74.71A14.76,14.76,0,0,0,38.66,70a15,15,0,0,0-3.41,29.63V200.38A15,15,0,0,0,38.66,230a14.76,14.76,0,0,0,10.81-4.72l86.3,50.38a15.34,15.34,0,0,0-.62,4.32,14.85,14.85,0,1,0,29.7,0,15.34,15.34,0,0,0-.62-4.32l86.3-50.38A14.76,14.76,0,0,0,261.34,230a15,15,0,0,0,3.41-29.63" style="fill:#0b80bd"/></svg>
