<svg width="105" height="256" viewBox="0 0 105 256" fill="none" xmlns="http://www.w3.org/2000/svg">
<path d="M34.9785 17.1992L69.9557 34.4022L69.9557 238.801L34.9785 221.598L34.9785 17.1992Z" fill="#43E188"/>
<path d="M34.9785 17.1992L69.9557 34.4022L69.9557 238.801L34.9785 221.598L34.9785 17.1992Z" fill="#43E188"/>
<path d="M34.9785 17.1992L0.00131887 34.4022L0.00131887 238.801L34.9785 221.598L34.9785 17.1992Z" fill="url(#paint0_linear_11781_2)"/>
<path d="M69.959 238.799L104.936 221.596L104.936 17.1975L69.959 34.4005L69.959 238.799Z" fill="url(#paint1_linear_11781_2)"/>
<path d="M69.9463 34.4082L34.9688 17.2041L69.9463 0L104.928 17.2041L69.9463 34.4082Z" fill="url(#paint2_linear_11781_2)"/>
<path d="M34.9814 221.592L69.959 238.796L34.9814 256L1.74267e-06 238.796L34.9814 221.592Z" fill="url(#paint3_linear_11781_2)"/>
<defs>
<linearGradient id="paint0_linear_11781_2" x1="17.4899" y1="-85.4498" x2="17.4899" y2="272.418" gradientUnits="userSpaceOnUse">
<stop stop-color="#F4F4F4" stop-opacity="0"/>
<stop offset="0.854318" stop-color="#43E188"/>
</linearGradient>
<linearGradient id="paint1_linear_11781_2" x1="87.4476" y1="337.186" x2="87.4476" y2="-25.5076" gradientUnits="userSpaceOnUse">
<stop stop-color="#F4F4F4" stop-opacity="0"/>
<stop offset="0.820338" stop-color="#43E188"/>
</linearGradient>
<linearGradient id="paint2_linear_11781_2" x1="69.9482" y1="-19.4036" x2="69.9482" y2="42.5502" gradientUnits="userSpaceOnUse">
<stop stop-color="#FAFAFA"/>
<stop offset="1" stop-color="#43E188"/>
</linearGradient>
<linearGradient id="paint3_linear_11781_2" x1="38.36" y1="271.491" x2="35.8396" y2="221.548" gradientUnits="userSpaceOnUse">
<stop offset="0.0311887" stop-color="#FAFAFA"/>
<stop offset="1" stop-color="#43E188"/>
</linearGradient>
</defs>
</svg>
