<?xml version="1.0" standalone="no"?>
<!DOCTYPE svg PUBLIC "-//W3C//DTD SVG 20010904//EN"
 "http://www.w3.org/TR/2001/REC-SVG-20010904/DTD/svg10.dtd">
<svg version="1.0" xmlns="http://www.w3.org/2000/svg"
 width="64.000000pt" height="64.000000pt" viewBox="0 0 64.000000 64.000000"
 preserveAspectRatio="xMidYMid meet">

<g transform="translate(0.000000,64.000000) scale(0.100000,-0.100000)"
fill="#000000" stroke="none">
<path d="M223 621 c-109 -37 -177 -109 -210 -220 -39 -134 32 -297 158 -361
l39 -20 0 109 0 110 36 -24 c88 -60 204 1 204 108 0 37 0 37 40 37 38 0 40 -1
40 -32 0 -119 -97 -218 -212 -218 -27 0 -28 -2 -28 -56 l0 -56 55 4 c76 6 179
60 221 115 43 56 74 142 74 203 0 106 -67 222 -157 272 l-53 30 0 -111 0 -110
-36 24 c-89 60 -204 -1 -204 -108 0 -38 0 -38 -37 -35 -33 3 -38 7 -41 30 -12
104 92 217 201 218 l37 0 0 55 0 55 -37 0 c-21 -1 -61 -9 -90 -19z"/>
</g>
</svg>
