<svg width="256" height="256" viewBox="0 0 256 256" fill="none" xmlns="http://www.w3.org/2000/svg">
<path fill-rule="evenodd" clip-rule="evenodd" d="M256 128C256 198.692 198.692 256 128 256C57.3076 256 0 198.692 0 128C0 57.3076 57.3076 0 128 0C198.692 0 256 57.3076 256 128Z" fill="white"/>
<path fill-rule="evenodd" clip-rule="evenodd" d="M177.321 97.163C177.321 97.2085 177.321 97.254 177.32 97.2996V97.0035H134.625C134.223 91.7158 129.806 87.5505 124.415 87.5505C118.76 87.5505 114.175 92.135 114.175 97.7903C114.175 102.864 117.865 107.076 122.708 107.888V147.415C92.5465 147.414 68.0962 124.845 68.0962 97.0033C68.0962 69.1618 92.547 46.5918 122.709 46.5918C152.87 46.5918 177.321 69.1618 177.321 97.0033C177.321 97.0566 177.321 97.1098 177.321 97.163Z" fill="black"/>
<path fill-rule="evenodd" clip-rule="evenodd" d="M78.8491 159.39C78.8491 159.302 78.8494 159.214 78.8499 159.126L78.8499 159.39L121.545 159.39C121.947 164.677 126.365 168.842 131.755 168.842C137.41 168.842 141.995 164.258 141.995 158.603C141.995 153.529 138.305 149.317 133.462 148.504L133.462 108.979C163.624 108.979 188.074 131.549 188.074 159.39C188.074 187.232 163.623 209.802 133.462 209.802C103.3 209.802 78.8491 187.232 78.8491 159.39Z" fill="black"/>
</svg>
