<?xml version="1.0" encoding="UTF-8"?>
<svg xmlns="http://www.w3.org/2000/svg" xmlns:xlink="http://www.w3.org/1999/xlink" width="250px" height="44px" viewBox="0 0 250 44" version="1.1">
<defs>
<linearGradient id="linear0" gradientUnits="userSpaceOnUse" x1="-502.3307" y1="2173.1218" x2="-355.96" y2="2319.4927" gradientTransform="matrix(0.130208,0,0,-0.130564,73.4375,312.569733)">
<stop offset="0" style="stop-color:rgb(66.27451%,0%,100%);stop-opacity:1;"/>
<stop offset="0.4844" style="stop-color:rgb(30.980392%,32.941176%,100%);stop-opacity:1;"/>
<stop offset="1" style="stop-color:rgb(0%,69.019608%,100%);stop-opacity:1;"/>
</linearGradient>
<linearGradient id="linear1" gradientUnits="userSpaceOnUse" x1="-467.7101" y1="2136.6565" x2="-321.225" y2="2283.1416" gradientTransform="matrix(0.130208,0,0,-0.130564,73.4375,312.569733)">
<stop offset="0" style="stop-color:rgb(66.27451%,0%,100%);stop-opacity:1;"/>
<stop offset="0.4844" style="stop-color:rgb(30.980392%,32.941176%,100%);stop-opacity:1;"/>
<stop offset="1" style="stop-color:rgb(0%,69.019608%,100%);stop-opacity:1;"/>
</linearGradient>
</defs>
<g id="surface1">
<path style=" stroke:none;fill-rule:nonzero;fill:rgb(100%,100%,100%);fill-opacity:1;" d="M 249.089844 29.714844 C 248.074219 31.203125 246.679688 31.753906 244.855469 31.714844 C 240.691406 31.621094 236.511719 31.6875 232.175781 31.6875 C 232.175781 30.527344 232.175781 29.441406 232.175781 28.097656 C 236.433594 28.097656 240.753906 28.097656 245.222656 28.097656 C 245.222656 26.753906 245.222656 25.683594 245.222656 24.3125 C 242.277344 24.3125 239.386719 24.324219 236.496094 24.3125 C 232.773438 24.296875 231.769531 23.304688 231.746094 19.636719 C 231.691406 13.527344 232.082031 13.132812 238.242188 13.132812 C 241.484375 13.132812 244.726562 13.132812 248.125 13.132812 C 248.125 14.375 248.125 15.511719 248.125 16.90625 C 244.011719 16.90625 239.871094 16.90625 235.625 16.90625 C 235.625 18.175781 235.625 19.207031 235.625 20.589844 C 238.488281 20.589844 241.378906 20.667969 244.257812 20.5625 C 246.25 20.5 247.902344 20.929688 249.089844 22.613281 C 249.089844 24.964844 249.089844 27.339844 249.089844 29.714844 Z M 249.089844 29.714844 "/>
<path style=" stroke:none;fill-rule:nonzero;fill:rgb(100%,100%,100%);fill-opacity:1;" d="M 200.144531 27.886719 C 202.253906 23.617188 204.167969 19.78125 206.054688 15.941406 C 207.527344 12.964844 207.527344 12.964844 211.105469 13.199219 C 211.105469 19.269531 211.105469 25.34375 211.105469 31.542969 C 210 31.542969 208.90625 31.542969 207.550781 31.542969 C 207.550781 28.449219 207.550781 25.328125 207.550781 22.207031 C 207.394531 22.167969 207.238281 22.144531 207.082031 22.105469 C 205.792969 24.78125 204.347656 27.40625 203.242188 30.160156 C 202.472656 32.105469 201.015625 31.558594 199.648438 31.675781 C 198.347656 31.777344 197.460938 31.53125 196.875 30.132812 C 195.753906 27.445312 194.375 24.859375 192.644531 22.339844 C 192.644531 25.382812 192.644531 28.421875 192.644531 31.570312 C 191.328125 31.570312 190.234375 31.570312 188.984375 31.570312 C 188.984375 25.460938 188.984375 19.390625 188.984375 13.316406 C 192.65625 12.796875 192.65625 12.796875 194.179688 15.875 C 196.121094 19.765625 198.046875 23.644531 200.144531 27.886719 Z M 200.144531 27.886719 "/>
<path style=" stroke:none;fill-rule:nonzero;fill:rgb(100%,100%,100%);fill-opacity:1;" d="M 149.308594 27.925781 C 152.941406 27.925781 156.445312 27.925781 160.089844 27.925781 C 160.089844 26.726562 160.089844 25.589844 160.089844 24.234375 C 157.683594 24.234375 155.339844 24.234375 152.902344 24.234375 C 152.902344 22.964844 152.902344 21.933594 152.902344 20.734375 C 156.511719 20.734375 160.105469 20.734375 163.878906 20.734375 C 163.878906 24.273438 163.878906 27.847656 163.878906 31.675781 C 160.664062 31.675781 157.433594 31.675781 154.207031 31.675781 C 152.421875 31.675781 150.625 31.699219 148.839844 31.660156 C 146.707031 31.609375 145.507812 30.667969 145.441406 28.605469 C 145.324219 24.519531 145.339844 20.433594 145.429688 16.359375 C 145.46875 14.570312 146.574219 13.238281 148.386719 13.199219 C 153.332031 13.070312 158.292969 13.160156 163.347656 13.160156 C 163.347656 14.441406 163.347656 15.535156 163.347656 16.828125 C 158.710938 16.828125 154.089844 16.828125 149.308594 16.828125 C 149.308594 20.578125 149.308594 24.15625 149.308594 27.925781 Z M 149.308594 27.925781 "/>
<path style=" stroke:none;fill-rule:nonzero;fill:rgb(100%,100%,100%);fill-opacity:1;" d="M 185.742188 31.570312 C 184.347656 31.570312 183.253906 31.570312 181.964844 31.570312 C 181.964844 29.179688 181.964844 26.894531 181.964844 24.46875 C 178.191406 24.46875 174.597656 24.46875 170.832031 24.46875 C 170.832031 26.855469 170.832031 29.140625 170.832031 31.542969 C 169.558594 31.542969 168.476562 31.542969 167.082031 31.542969 C 167.082031 29.089844 167.082031 26.609375 167.082031 24.128906 C 167.082031 21.6875 167.042969 19.246094 167.097656 16.816406 C 167.148438 14.453125 168.4375 13.160156 170.820312 13.121094 C 174.53125 13.082031 178.242188 13.082031 181.953125 13.121094 C 184.089844 13.148438 185.664062 14.425781 185.714844 16.425781 C 185.808594 21.425781 185.742188 26.425781 185.742188 31.570312 Z M 170.925781 20.445312 C 174.597656 20.445312 178.136719 20.445312 181.796875 20.445312 C 181.796875 19.269531 181.796875 18.199219 181.796875 17.089844 C 178.097656 17.089844 174.503906 17.089844 170.925781 17.089844 C 170.925781 18.292969 170.925781 19.324219 170.925781 20.445312 Z M 170.925781 20.445312 "/>
<path style=" stroke:none;fill-rule:nonzero;fill:rgb(100%,100%,100%);fill-opacity:1;" d="M 100.691406 24.429688 C 96.757812 24.429688 93.203125 24.429688 89.492188 24.429688 C 89.492188 26.84375 89.492188 29.128906 89.492188 31.542969 C 88.175781 31.542969 87.03125 31.542969 85.769531 31.542969 C 85.769531 26.347656 85.675781 21.214844 85.820312 16.097656 C 85.871094 14.191406 87.316406 13.175781 89.207031 13.148438 C 93.046875 13.082031 96.902344 13.082031 100.742188 13.148438 C 102.785156 13.175781 104.246094 14.425781 104.285156 16.425781 C 104.402344 21.425781 104.324219 26.425781 104.324219 31.558594 C 103.113281 31.558594 102.019531 31.558594 100.691406 31.558594 C 100.691406 29.257812 100.691406 26.921875 100.691406 24.429688 Z M 89.609375 17.027344 C 89.609375 18.226562 89.609375 19.308594 89.609375 20.40625 C 93.332031 20.40625 96.914062 20.40625 100.441406 20.40625 C 100.441406 19.167969 100.441406 18.097656 100.441406 17.027344 C 96.746094 17.027344 93.203125 17.027344 89.609375 17.027344 Z M 89.609375 17.027344 "/>
<path style=" stroke:none;fill-rule:nonzero;fill:rgb(100%,100%,100%);fill-opacity:1;" d="M 118.332031 19.429688 C 118.332031 23.632812 118.332031 27.550781 118.332031 31.558594 C 116.992188 31.558594 115.898438 31.558594 114.648438 31.558594 C 114.648438 25.484375 114.648438 19.414062 114.648438 13.292969 C 116.589844 12.730469 117.957031 13.355469 119.363281 14.765625 C 122.605469 18.03125 126.054688 21.085938 129.308594 24.128906 C 129.308594 20.851562 129.308594 17.144531 129.308594 13.277344 C 130.652344 13.277344 131.785156 13.277344 133.046875 13.277344 C 133.046875 19.324219 133.046875 25.355469 133.046875 31.464844 C 131.640625 31.960938 130.625 31.570312 129.570312 30.5 C 125.964844 26.84375 122.265625 23.292969 118.332031 19.429688 Z M 118.332031 19.429688 "/>
<path style=" stroke:none;fill-rule:nonzero;fill:rgb(100%,100%,100%);fill-opacity:1;" d="M 218.425781 24.246094 C 218.425781 25.628906 218.425781 26.675781 218.425781 27.964844 C 222.097656 27.964844 225.703125 27.964844 229.414062 27.964844 C 229.414062 29.257812 229.414062 30.289062 229.414062 31.492188 C 224.53125 31.492188 219.621094 31.492188 214.597656 31.492188 C 214.597656 25.421875 214.597656 19.390625 214.597656 13.226562 C 219.542969 13.226562 224.402344 13.226562 229.386719 13.226562 C 229.386719 14.402344 229.386719 15.484375 229.386719 16.84375 C 225.78125 16.84375 222.175781 16.84375 218.449219 16.84375 C 218.449219 18.136719 218.449219 19.167969 218.449219 20.472656 C 222.042969 20.472656 225.636719 20.472656 229.347656 20.472656 C 229.347656 21.832031 229.347656 22.914062 229.347656 24.21875 C 225.742188 24.246094 222.199219 24.246094 218.425781 24.246094 Z M 218.425781 24.246094 "/>
<path style=" stroke:none;fill-rule:nonzero;fill:rgb(100%,100%,100%);fill-opacity:1;" d="M 64.621094 13.199219 C 65.898438 13.199219 67.003906 13.199219 68.320312 13.199219 C 68.320312 15.617188 68.320312 17.964844 68.320312 20.421875 C 71.863281 20.421875 75.195312 20.421875 78.75 20.421875 C 78.75 18.019531 78.75 15.679688 78.75 13.226562 C 80.117188 13.226562 81.261719 13.226562 82.539062 13.226562 C 82.539062 19.324219 82.539062 25.34375 82.539062 31.519531 C 81.367188 31.519531 80.222656 31.519531 78.828125 31.519531 C 78.828125 29.207031 78.828125 26.871094 78.828125 24.414062 C 75.261719 24.414062 71.914062 24.414062 68.410156 24.414062 C 68.410156 26.777344 68.410156 29.0625 68.410156 31.503906 C 67.109375 31.503906 65.949219 31.503906 64.621094 31.503906 C 64.621094 25.5 64.621094 19.429688 64.621094 13.199219 Z M 64.621094 13.199219 "/>
<path style=" stroke:none;fill-rule:nonzero;fill:rgb(100%,100%,100%);fill-opacity:1;" d="M 61.980469 13.121094 C 61.980469 14.480469 61.980469 15.578125 61.980469 16.894531 C 57.265625 16.894531 52.644531 16.894531 47.917969 16.894531 C 47.917969 20.640625 47.917969 24.179688 47.917969 27.925781 C 52.578125 27.925781 57.1875 27.925781 61.941406 27.925781 C 61.941406 29.234375 61.941406 30.316406 61.941406 31.675781 C 59.011719 31.675781 56.042969 31.675781 53.085938 31.675781 C 51.222656 31.675781 49.375 31.714844 47.511719 31.660156 C 45.363281 31.609375 44.101562 30.511719 44.0625 28.398438 C 43.972656 24.441406 43.972656 20.484375 44.0625 16.53125 C 44.113281 14.582031 45.457031 13.1875 47.292969 13.148438 C 52.136719 13.070312 56.964844 13.121094 61.980469 13.121094 Z M 61.980469 13.121094 "/>
<path style=" stroke:none;fill-rule:nonzero;fill:rgb(100%,100%,100%);fill-opacity:1;" d="M 107.644531 13.175781 C 108.867188 13.175781 109.910156 13.175781 111.121094 13.175781 C 111.121094 19.296875 111.121094 25.367188 111.121094 31.558594 C 110 31.558594 108.90625 31.558594 107.644531 31.558594 C 107.644531 25.5 107.644531 19.429688 107.644531 13.175781 Z M 107.644531 13.175781 "/>
<path style=" stroke:none;fill-rule:nonzero;fill:url(#linear0);" d="M 18.359375 36.246094 L 18.359375 26.855469 L 8.90625 19.285156 L 15.128906 11.945312 L 18.230469 14.375 L 18.230469 0.847656 L 1.300781 22.089844 Z M 18.359375 36.246094 "/>
<path style=" stroke:none;fill-rule:nonzero;fill:url(#linear1);" d="M 21.261719 7.089844 L 21.261719 16.476562 L 30.753906 24.050781 L 24.53125 31.375 L 21.394531 28.945312 L 21.394531 42.484375 L 38.359375 21.230469 Z M 21.261719 7.089844 "/>
</g>
</svg>
