<svg width="256" height="256" viewBox="0 0 256 256" fill="none" xmlns="http://www.w3.org/2000/svg">
<g clip-path="url(#clip0_19239_41128)">
<path d="M128 256C198.692 256 256 198.692 256 128C256 57.3075 198.692 0 128 0C57.3075 0 0 57.3075 0 128C0 198.692 57.3075 256 128 256Z" fill="white"/>
<path fill-rule="evenodd" clip-rule="evenodd" d="M218.4 102.99C189.102 75.1336 158.983 60.5098 128.2 60.5098C97.4182 60.5098 67.2986 75.1336 38.0012 102.99C35.4943 105.374 35.396 109.337 37.7816 111.841C40.1672 114.346 44.1334 114.444 46.6403 112.061C74.4936 85.5774 101.678 73.0312 128.2 73.0312C154.7 73.0312 181.861 85.5561 209.69 111.994C210.126 112.445 210.482 113.065 210.689 113.712C210.616 114.095 210.578 114.49 210.578 114.894C210.578 116.373 210.09 117.169 209.693 117.508C209.608 117.581 209.524 117.657 209.443 117.735C208.761 118.386 208.08 119.028 207.399 119.662C181.462 98.097 155.005 86.8346 128.045 86.8346C99.6409 86.8346 71.7949 99.3363 44.5266 123.217C44.476 123.258 44.4258 123.299 44.3761 123.342L44.3084 123.4C42.221 125.188 39.945 127.137 37.6507 129.422C31.3761 135.307 30.8838 145.11 36.4153 151.832C36.4519 151.891 36.4897 151.95 36.5286 152.008C37.0669 152.815 37.7095 153.393 38.3158 153.801C67.4137 181.267 97.3208 195.68 127.881 195.68C158.663 195.68 188.783 181.057 218.08 153.2C220.587 150.817 220.686 146.854 218.3 144.349C215.914 141.844 211.948 141.746 209.441 144.129C181.588 170.613 154.403 183.159 127.881 183.159C101.359 183.159 74.1742 170.613 46.3209 144.129C46.306 144.115 46.2911 144.101 46.276 144.087C44.5787 142.25 44.8866 139.788 46.2515 138.529C46.3128 138.472 46.3731 138.415 46.4321 138.356C47.1198 137.668 47.8097 137.014 48.5096 136.372C75.6153 158.942 103.289 170.293 131.451 169.312C158.445 168.372 184.867 156.136 210.708 133.547C211.304 133.21 211.855 132.77 212.333 132.226C212.451 132.092 212.562 131.955 212.666 131.815C214.444 130.222 216.22 128.58 217.993 126.89C221.057 124.196 222.509 120.637 222.954 117.263C223.254 116.532 223.419 115.732 223.419 114.894C223.419 110.394 221.474 106.06 218.511 103.098L218.472 103.06C218.464 103.052 218.455 103.044 218.447 103.036C218.431 103.02 218.416 103.005 218.4 102.99ZM128.045 99.3561C150.786 99.3561 174.009 108.613 197.852 128.027C175.09 146.722 152.83 156.038 131.015 156.798C107.309 157.624 83.0691 148.382 58.1579 128.092C82.0292 108.633 105.279 99.3561 128.045 99.3561Z" fill="black"/>
<path fill-rule="evenodd" clip-rule="evenodd" d="M128 104.729C115.147 104.729 104.728 115.148 104.728 128.001C104.728 140.854 115.147 151.274 128 151.274C140.853 151.274 151.273 140.854 151.273 128.001C151.273 115.148 140.853 104.729 128 104.729ZM128 139.638C134.427 139.638 139.637 134.428 139.637 128.001C139.637 121.575 134.427 116.365 128 116.365C121.574 116.365 116.364 121.575 116.364 128.001C116.364 134.428 121.574 139.638 128 139.638Z" fill="black"/>
<circle cx="224" cy="224" r="31.5" fill="black" stroke="white"/>
<g clip-path="url(#clip1_19239_41128)">
<path d="M230.648 234.372L230.648 234.372C232.549 232.488 233.594 229.989 233.594 227.332C233.594 225.941 233.307 224.591 232.742 223.32L232.742 223.319C232.6 223 232.444 222.69 232.271 222.391C232.087 222.623 231.894 222.853 231.691 223.08L231.689 223.082C230.998 223.852 230.044 224.312 229.007 224.366C228.497 224.395 227.986 224.322 227.504 224.153C227.022 223.983 226.578 223.719 226.198 223.376C225.761 222.983 225.418 222.496 225.196 221.952C224.974 221.408 224.879 220.82 224.916 220.234L230.648 234.372ZM230.648 234.372C228.739 236.263 226.207 237.301 223.5 237.301C220.793 237.301 218.261 236.263 216.352 234.372C214.45 232.483 213.406 229.988 213.406 227.332C213.406 225.787 213.753 224.311 214.438 222.934L214.439 222.933M230.648 234.372L214.439 222.933M214.945 235.792L214.944 235.792C212.667 233.532 211.406 230.527 211.406 227.332C211.406 225.479 211.825 223.698 212.647 222.044L214.945 235.792ZM214.945 235.792C217.231 238.057 220.27 239.301 223.5 239.301C226.73 239.301 229.769 238.057 232.055 235.792C234.334 233.536 235.594 230.526 235.594 227.332C235.594 225.661 235.248 224.034 234.57 222.508C234.174 221.613 233.674 220.781 233.077 220.017L232.194 218.888L231.439 220.106C231.098 220.656 230.685 221.203 230.2 221.747C229.861 222.124 229.403 222.343 228.902 222.368L228.902 222.368L228.896 222.369C228.649 222.383 228.402 222.348 228.169 222.266C227.935 222.184 227.721 222.056 227.538 221.891L227.535 221.889C227.323 221.698 227.156 221.461 227.048 221.196C226.94 220.932 226.894 220.646 226.912 220.361L226.912 220.36C227.045 218.253 226.359 215.887 225.007 213.353L225.006 213.35C224.3 212.039 223.445 210.9 222.412 209.948L221.034 208.679L220.746 210.53C220.66 211.083 220.519 211.627 220.324 212.152C219.832 213.472 219.122 214.704 218.215 215.811L218.213 215.813C217.589 216.579 216.877 217.269 216.092 217.87L216.09 217.871M214.945 235.792L216.09 217.871M214.439 222.933C215.104 221.591 216.099 220.386 217.308 219.458C218.216 218.763 219.04 217.964 219.763 217.078C220.808 215.803 221.629 214.379 222.199 212.849L222.199 212.847M214.439 222.933L222.199 212.847M216.09 217.871C214.643 218.981 213.451 220.424 212.648 222.043L216.09 217.871ZM222.199 212.847C222.214 212.808 222.228 212.768 222.243 212.729M222.199 212.847L222.243 212.729M222.243 212.729C222.605 213.206 222.938 213.728 223.244 214.296C224.5 216.652 225.017 218.637 224.916 220.233L222.243 212.729ZM235.168 222.235L235.168 222.234C234.466 220.653 233.444 219.234 232.168 218.066L232.168 218.065L231.8 217.728L231.636 218.198C231.636 218.199 231.636 218.199 231.636 218.199C231.266 219.269 230.602 220.315 229.713 221.305L229.706 221.312L229.7 221.319C229.426 221.612 229.1 221.692 228.899 221.711C228.66 221.732 228.291 221.688 227.973 221.401C227.677 221.138 227.544 220.765 227.564 220.413L227.564 220.407C227.694 218.298 227.066 215.832 225.582 213.049L225.582 213.047C224.39 210.803 222.747 209.072 220.703 207.865C220.703 207.865 220.703 207.865 220.703 207.865L220.186 207.561L220.214 208.169L220.214 208.169C220.277 209.549 220.12 210.822 219.71 211.92L235.168 222.235ZM235.168 222.235C235.888 223.852 236.25 225.565 236.25 227.332L236.25 227.334C236.254 229.024 235.913 230.697 235.248 232.251L235.248 232.252C234.608 233.754 233.689 235.106 232.516 236.265L232.513 236.268C231.352 237.423 229.976 238.342 228.463 238.971L228.463 238.972C226.89 239.627 225.224 239.961 223.5 239.961C221.776 239.961 220.111 239.627 218.539 238.968L218.538 238.968M235.168 222.235L218.538 238.968M217.71 215.388L217.71 215.389C217.113 216.115 216.437 216.771 215.694 217.346L215.691 217.347C214.164 218.521 212.923 220.025 212.059 221.747C211.199 223.482 210.751 225.392 210.75 227.328L217.71 215.388ZM217.71 215.388C218.569 214.343 219.242 213.177 219.71 211.92L217.71 215.388ZM218.538 238.968C217.022 238.335 215.66 237.423 214.484 236.262C213.323 235.113 212.395 233.75 211.752 232.248M218.538 238.968L211.752 232.248M211.752 232.248C211.086 230.69 210.75 229.038 210.75 227.329L211.752 232.248Z" fill="#F6C361" stroke="#FF3344" stroke-width="2"/>
</g>
</g>
<defs>
<clipPath id="clip0_19239_41128">
<rect width="256" height="256" fill="white"/>
</clipPath>
<clipPath id="clip1_19239_41128">
<rect width="40" height="40" fill="white" transform="translate(203.5 203.5)"/>
</clipPath>
</defs>
</svg>
