<svg width="500" height="500" viewBox="0 0 500 500" fill="none" xmlns="http://www.w3.org/2000/svg">
<circle cx="250" cy="250" r="250" fill="black"/>
<path d="M249.032 89.8438V249.395H214.606V149.427L180.18 169.288L161.643 179.881L145.754 189.149V308.978L161.643 318.246L180.18 328.839V248.733H214.606V388.422L211.958 387.098L180.18 368.561L152.374 352.672L145.754 348.7L111.328 328.839V169.288L145.754 149.427L152.374 145.455L180.18 129.566L211.958 111.029L214.606 109.705L249.032 89.8438Z" fill="white"/>
<path d="M386.719 169.935V329.486L352.293 349.347L345.673 353.319L317.867 369.208L286.09 387.745L283.442 389.069L249.016 408.93V249.379H283.442V349.347L317.867 329.486L336.404 318.893L352.293 309.625V189.796L336.404 180.527L317.867 169.935V250.041H283.442V110.352L286.09 111.676L317.867 130.213L345.673 146.102L352.293 150.074L386.719 169.935Z" fill="white"/>
</svg>
