<?xml version="1.0" standalone="no"?>
<!DOCTYPE svg PUBLIC "-//W3C//DTD SVG 20010904//EN"
 "http://www.w3.org/TR/2001/REC-SVG-20010904/DTD/svg10.dtd">
<svg version="1.0" xmlns="http://www.w3.org/2000/svg"
 width="640.000000pt" height="640.000000pt" viewBox="0 0 640.000000 640.000000"
 preserveAspectRatio="xMidYMid meet">

<g transform="translate(0.000000,640.000000) scale(0.100000,-0.100000)"
fill="#000000" stroke="none">
<path d="M0 3200 l0 -3200 3200 0 3200 0 0 3200 0 3200 -3200 0 -3200 0 0
-3200z m3305 2510 c3 -5 25 -10 47 -10 22 0 86 -7 142 -16 909 -142 1610 -848
1740 -1754 36 -250 30 -448 -20 -700 -164 -821 -821 -1467 -1649 -1621 -142
-27 -430 -36 -575 -20 -709 82 -1321 511 -1630 1146 -177 362 -242 748 -194
1155 102 876 770 1600 1639 1775 66 13 158 27 205 31 47 4 92 10 100 15 21 12
188 11 195 -1z m-1097 -4380 l122 0 0 -55 0 -55 -227 0 c-126 0 -234 -4 -241
-9 -8 -5 -12 -23 -10 -47 l3 -39 195 -6 c160 -4 202 -8 233 -23 51 -25 71 -66
71 -146 0 -84 -21 -125 -77 -151 -38 -17 -68 -19 -299 -19 l-258 0 0 55 0 55
233 0 c171 0 238 3 250 13 24 18 30 59 13 82 -13 19 -29 20 -213 25 -209 5
-225 9 -262 56 -17 22 -21 41 -21 104 0 63 4 82 21 104 42 53 96 67 244 61 55
-3 155 -5 223 -5z m1222 -78 c42 -42 124 -129 183 -192 l107 -115 0 193 0 192
65 0 65 0 -2 -272 -3 -273 -70 -3 -70 -3 -137 148 c-75 81 -159 170 -187 198
l-51 49 0 -197 0 -198 -62 3 -63 3 -3 265 c-1 146 0 270 2 276 3 7 30 9 78 7
l73 -4 75 -77z m-764 -42 c54 -66 100 -120 103 -119 3 0 50 54 104 120 l98
119 81 0 80 0 -54 -62 c-29 -34 -97 -114 -150 -177 l-98 -116 0 -97 0 -98 -65
0 -65 0 0 101 0 101 -138 161 c-76 89 -141 168 -146 175 -5 9 11 12 72 12 l80
0 98 -120z m1871 -147 c81 -146 150 -270 151 -275 2 -5 -29 -8 -69 -6 l-73 3
-34 58 -35 57 -175 -2 -176 -3 -31 -55 -31 -55 -72 -3 c-40 -2 -72 -1 -72 2 0
2 46 87 103 188 57 100 125 222 152 271 l49 87 82 0 82 0 149 -267z m-2417
-436 c37 -19 54 -61 41 -99 -16 -45 -39 -57 -103 -58 l-58 0 0 85 0 85 48 0
c26 0 58 -6 72 -13z m130 -72 c0 -69 -3 -85 -15 -85 -12 0 -15 16 -15 85 0 69
3 85 15 85 12 0 15 -16 15 -85z m210 70 c28 -16 25 -17 -44 -19 -43 -1 -52 -5
-65 -28 -14 -25 -14 -31 -1 -55 13 -23 24 -29 58 -31 39 -3 42 -1 42 22 0 19
-5 26 -20 26 -11 0 -20 5 -20 10 0 6 16 10 35 10 33 0 35 -2 35 -34 0 -54 -53
-78 -115 -52 -60 25 -72 90 -26 137 33 33 79 38 121 14z m110 -70 c0 -69 -3
-85 -15 -85 -12 0 -15 16 -15 85 0 69 3 85 15 85 12 0 15 -16 15 -85z m200 70
c0 -10 -10 -15 -30 -15 l-30 0 0 -70 c0 -56 -3 -70 -15 -70 -12 0 -15 14 -15
70 l0 70 -30 0 c-20 0 -30 5 -30 15 0 12 15 15 75 15 60 0 75 -3 75 -15z m163
-67 c33 -78 34 -117 1 -69 -21 29 -88 30 -106 1 -14 -22 -43 -28 -35 -7 35 90
72 157 87 157 11 0 28 -26 53 -82z m117 7 l0 -75 50 0 c28 0 50 -4 50 -10 0
-6 -27 -10 -62 -10 l-63 0 -3 85 c-3 72 -1 85 12 85 13 0 16 -13 16 -75z m371
-12 c28 -60 34 -83 24 -83 -8 0 -19 9 -25 20 -17 31 -110 26 -110 -6 0 -8 -7
-14 -16 -14 -18 0 -15 13 27 106 21 46 35 64 46 62 9 -2 33 -38 54 -85z m200
76 c31 -16 13 -27 -37 -21 -41 4 -46 3 -42 -14 2 -11 20 -24 48 -34 40 -14 45
-19 45 -45 0 -43 -36 -61 -94 -45 -26 7 -40 15 -34 21 5 5 21 5 38 0 35 -10
79 3 73 21 -3 7 -18 17 -34 21 -81 24 -101 50 -65 86 23 23 70 28 102 10z
m187 5 c41 -11 18 -29 -32 -26 -42 4 -47 2 -44 -14 2 -11 18 -23 42 -29 44
-13 66 -37 59 -65 -5 -19 -54 -42 -76 -35 -7 2 -25 6 -41 10 -18 4 -25 10 -20
15 6 6 22 6 43 0 37 -10 75 3 68 23 -2 7 -25 19 -51 27 -66 22 -80 46 -46 80
20 20 55 25 98 14z m222 -9 c0 -12 -13 -15 -56 -15 -52 0 -55 -1 -52 -22 2
-19 10 -24 46 -26 56 -4 54 -22 -3 -22 -41 0 -45 -2 -45 -25 0 -24 3 -25 55
-25 30 0 55 -4 55 -10 0 -6 -30 -10 -70 -10 l-70 0 0 85 0 85 70 0 c56 0 70
-3 70 -15z m190 0 c0 -10 -10 -15 -30 -15 l-30 0 0 -70 c0 -56 -3 -70 -15 -70
-12 0 -15 14 -15 70 l0 70 -30 0 c-20 0 -30 5 -30 15 0 12 15 15 75 15 60 0
75 -3 75 -15z m161 4 c31 -16 13 -27 -36 -21 -40 4 -45 2 -45 -15 0 -15 12
-23 48 -34 36 -11 48 -19 50 -37 2 -13 -2 -30 -8 -38 -19 -22 -130 -17 -130 6
0 5 25 6 55 3 51 -5 55 -4 55 15 0 16 -10 24 -42 33 -52 13 -68 25 -68 50 0
39 75 63 121 38z"/>
<path d="M2828 5623 c7 -3 16 -2 19 1 4 3 -2 6 -13 5 -11 0 -14 -3 -6 -6z"/>
<path d="M2835 5609 c-27 -5 -63 -6 -80 -3 -17 3 -25 2 -18 -3 6 -5 -6 -8 -30
-9 -93 -2 -389 -123 -566 -230 -744 -452 -1111 -1366 -895 -2231 99 -396 326
-763 639 -1031 141 -121 256 -197 427 -282 683 -339 1492 -263 2106 197 96 73
265 234 346 333 221 265 364 577 429 935 29 162 31 535 3 690 -120 659 -517
1195 -1096 1477 -181 89 -307 129 -413 132 -48 1 -90 -1 -93 -6 -3 -4 -15 -8
-27 -7 -21 0 -21 1 -2 10 17 8 17 9 -5 4 -14 -2 -36 -5 -50 -6 -14 0 16 -9 65
-20 393 -84 713 -257 996 -539 230 -229 383 -476 477 -770 133 -417 132 -821
-3 -1229 -42 -125 -146 -354 -167 -367 -5 -4 -2 8 7 25 10 20 13 37 7 47 -6
11 -21 -7 -61 -74 -189 -320 -529 -615 -881 -766 -123 -52 -309 -110 -418
-130 -42 -8 -65 -14 -49 -15 15 -1 67 7 115 18 48 10 103 19 123 20 20 0 80
16 134 36 54 19 100 33 102 31 8 -8 -164 -69 -274 -97 -197 -50 -314 -62 -533
-56 -186 5 -317 23 -415 56 -25 9 -23 10 15 4 25 -4 59 -7 77 -8 17 0 29 -4
25 -9 -3 -5 5 -6 19 -3 13 4 38 7 54 8 17 0 -20 11 -82 24 -537 111 -989 430
-1273 898 -41 67 -56 84 -62 73 -5 -9 -4 -24 2 -36 6 -11 8 -20 5 -20 -4 0
-33 55 -65 123 -218 458 -249 977 -88 1462 225 678 803 1172 1526 1305 66 13
86 18 52 16 -43 -4 -50 -2 -30 5 20 8 22 12 10 19 -17 11 -16 11 -85 -1z m798
-46 c-7 -2 -19 -2 -25 0 -7 3 -2 5 12 5 14 0 19 -2 13 -5z m-2074 -2948 c13
-22 15 -31 6 -20 -18 22 -53 86 -38 70 6 -5 20 -28 32 -50z m3301 5 c-6 -11
-13 -20 -16 -20 -2 0 0 9 6 20 6 11 13 20 16 20 2 0 0 -9 -6 -20z m-50 -79
c-5 -11 -15 -23 -21 -27 -6 -3 -3 5 6 20 20 30 30 35 15 7z m-30 -45 c0 -2 -8
-10 -17 -17 -16 -13 -17 -12 -4 4 13 16 21 21 21 13z m-640 -561 c0 -6 -137
-75 -147 -75 -6 1 134 77 145 80 1 0 2 -2 2 -5z m-1481 -155 c23 -6 41 -14 38
-16 -6 -6 -117 25 -117 32 0 3 8 3 18 0 9 -3 37 -10 61 -16z"/>
<path d="M3443 5583 c9 -2 23 -2 30 0 6 3 -1 5 -18 5 -16 0 -22 -2 -12 -5z"/>
<path d="M2900 5495 c-123 -21 -309 -72 -400 -108 -131 -53 -325 -162 -425
-238 -127 -98 -415 -385 -415 -414 0 -4 -17 -35 -39 -69 -78 -123 -173 -330
-212 -460 -53 -174 -69 -267 -76 -424 l-6 -134 26 25 c22 19 28 37 33 86 4 33
11 61 16 61 6 0 7 -18 3 -42 -9 -54 0 -46 25 23 22 59 19 33 -5 -46 -20 -66
-9 -52 72 90 58 102 68 127 67 165 -3 113 -9 114 -50 10 -35 -91 -42 -84 -9 8
17 46 23 80 19 97 -4 17 -1 32 10 44 14 15 16 36 14 107 l-3 89 -29 -87 c-17
-48 -32 -86 -34 -83 -2 2 9 41 24 87 16 46 28 103 29 128 0 38 4 47 24 55 14
6 60 65 111 140 48 72 110 160 137 196 39 52 49 73 46 93 -7 35 13 58 48 54
22 -2 52 15 141 85 62 48 142 109 177 135 47 34 67 56 73 79 9 34 42 53 61 34
17 -17 29 -14 170 39 186 71 197 77 197 100 0 11 3 20 8 21 4 0 15 2 25 4 10
2 23 -5 29 -15 6 -10 16 -17 22 -15 6 2 77 13 158 25 134 20 147 24 138 40 -5
9 -6 20 -3 24 11 10 -118 5 -197 -9z m-1449 -1440 c-16 -60 -30 -104 -30 -97
-1 19 52 228 56 217 1 -6 -11 -59 -26 -120z m-44 -197 c-3 -8 -6 -5 -6 6 -1
11 2 17 5 13 3 -3 4 -12 1 -19z"/>
<path d="M3308 5503 c10 -4 10 -9 -3 -22 -14 -17 -7 -19 122 -39 163 -26 177
-27 193 -7 24 29 70 11 70 -26 0 -12 16 -23 48 -35 26 -10 99 -37 162 -61 97
-37 118 -42 136 -32 13 6 34 9 48 5 21 -5 26 -12 26 -36 0 -26 10 -37 67 -78
36 -26 118 -89 182 -139 97 -78 120 -92 142 -87 36 7 62 -19 54 -55 -5 -22 6
-42 57 -111 34 -47 95 -136 135 -197 53 -82 79 -113 94 -113 24 0 48 -45 32
-61 -8 -8 -7 -24 3 -58 18 -60 17 -65 -6 -16 l-19 40 0 -96 c-1 -74 2 -99 14
-109 8 -7 14 -28 14 -49 -1 -20 9 -63 20 -95 12 -33 19 -61 17 -63 -2 -2 -11
17 -20 44 -38 112 -61 116 -58 10 2 -54 8 -69 77 -185 41 -70 75 -122 75 -115
0 6 -9 40 -20 74 -26 84 -18 88 10 5 12 -36 23 -66 24 -66 1 0 1 28 0 63 -3
71 0 62 16 -40 8 -49 16 -73 25 -73 8 0 19 -8 24 -17 27 -47 -1 270 -39 430
-42 183 -150 426 -271 609 -75 115 -308 357 -433 450 -98 74 -307 189 -431
238 -87 35 -310 92 -422 109 -72 11 -189 14 -165 4z m1632 -1354 c12 -44 19
-83 17 -85 -2 -3 -12 24 -21 58 -8 35 -19 73 -22 86 -4 12 -4 22 -1 22 3 0 15
-36 27 -81z m27 -121 c-3 -8 -6 -5 -6 6 -1 11 2 17 5 13 3 -3 4 -12 1 -19z
m10 -40 c-3 -8 -6 -5 -6 6 -1 11 2 17 5 13 3 -3 4 -12 1 -19z m10 -50 c-3 -8
-6 -5 -6 6 -1 11 2 17 5 13 3 -3 4 -12 1 -19z m10 -50 c-3 -8 -6 -5 -6 6 -1
11 2 17 5 13 3 -3 4 -12 1 -19z"/>
<path d="M2941 5419 c-108 -16 -128 -22 -148 -44 -13 -14 -28 -25 -33 -25 -10
0 -44 -59 -38 -66 4 -3 258 98 338 135 54 25 42 25 -119 0z"/>
<path d="M3370 5408 c81 -38 303 -128 307 -124 7 7 -23 66 -34 66 -7 0 -23 11
-35 25 -20 21 -42 28 -153 45 -72 11 -134 19 -140 19 -5 0 19 -14 55 -31z"/>
<path d="M3035 5359 c-128 -73 -129 -74 -70 -99 27 -11 51 -17 54 -12 3 4 28
37 55 73 27 35 54 70 59 77 17 22 -7 13 -98 -39z"/>
<path d="M3320 5331 c33 -44 63 -82 68 -85 4 -2 29 5 55 16 42 19 46 22 30 33
-34 24 -197 115 -206 115 -4 0 19 -36 53 -79z"/>
<path d="M3033 5390 c-173 -70 -194 -82 -155 -92 11 -3 51 15 96 43 96 59 108
68 59 49z"/>
<path d="M3095 5318 c-36 -45 -62 -84 -58 -88 4 -4 34 -17 67 -29 80 -30 86
-23 86 94 0 126 -11 128 -95 23z"/>
<path d="M3340 5397 c0 -3 38 -28 84 -55 57 -34 91 -49 105 -45 12 3 21 9 21
12 0 4 -42 25 -92 45 -123 51 -118 49 -118 43z"/>
<path d="M3210 5299 c0 -123 8 -131 96 -94 35 15 64 29 64 32 0 2 -27 38 -61
79 -37 46 -68 74 -80 74 -17 0 -19 -8 -19 -91z"/>
<path d="M2570 5326 c-63 -23 -128 -50 -145 -59 -30 -16 -30 -16 -5 -18 23 -1
23 -2 -5 -8 -27 -6 -17 -12 84 -45 102 -33 118 -36 139 -24 20 11 52 61 52 82
0 3 -24 7 -52 9 l-53 3 56 2 c56 2 57 2 73 43 29 73 14 74 -144 15z m-22 -73
c-15 -2 -42 -2 -60 0 -18 2 -6 4 27 4 33 0 48 -2 33 -4z"/>
<path d="M3677 5364 c-6 -6 11 -63 25 -81 5 -7 35 -14 66 -16 l57 -3 -57 -2
c-32 -1 -58 -4 -58 -6 0 -22 34 -75 56 -84 23 -11 40 -8 136 24 60 20 107 38
105 41 -3 2 -45 8 -94 13 l-88 9 88 -4 c49 -1 85 0 80 4 -20 18 -271 111 -298
111 -6 0 -14 -3 -18 -6z"/>
<path d="M2759 5283 c-40 -14 -48 -21 -62 -61 -10 -25 -15 -47 -13 -49 3 -3
48 21 101 53 66 39 92 60 83 65 -19 12 -56 9 -109 -8z"/>
<path d="M3541 5291 c-11 -7 -1 -17 40 -44 77 -49 139 -79 139 -67 0 5 -7 28
-16 50 -14 35 -22 42 -67 55 -58 17 -76 18 -96 6z"/>
<path d="M2795 5217 c-94 -59 -100 -64 -100 -96 0 -31 -1 -33 -31 -28 -29 5
-36 0 -89 -64 -32 -38 -60 -69 -62 -69 -2 0 21 32 51 72 56 72 62 84 48 104
-10 16 -200 76 -229 72 -23 -3 -23 -3 21 -111 48 -118 72 -161 85 -152 5 2 21
-2 37 -9 16 -8 61 -22 100 -32 67 -17 73 -17 89 -1 20 21 35 21 83 1 34 -14
48 -14 162 2 69 10 131 23 137 30 7 7 31 20 53 31 l39 18 1 66 c0 50 -4 68
-15 73 -8 3 -15 12 -15 21 0 15 -124 79 -140 73 -7 -3 -179 -212 -194 -236 -4
-6 0 -25 9 -41 23 -46 18 -51 -9 -7 l-23 39 85 106 c90 113 117 150 111 154
-9 6 -100 47 -102 46 -1 0 -47 -28 -102 -62z"/>
<path d="M3441 5250 c-31 -15 -41 -23 -34 -33 5 -6 49 -63 98 -126 l89 -114
62 65 c83 88 81 96 -45 171 -54 31 -104 57 -112 57 -8 0 -34 -9 -58 -20z"/>
<path d="M3303 5190 c-39 -18 -63 -35 -63 -45 0 -9 -7 -18 -15 -21 -11 -5 -15
-23 -15 -74 0 -62 2 -68 23 -74 12 -3 34 -16 50 -29 22 -20 43 -26 110 -31 45
-4 103 -9 128 -12 34 -4 49 -1 59 11 7 8 21 15 31 15 25 0 69 -21 69 -33 0
-12 90 1 108 15 6 6 12 8 12 5 0 -3 21 1 48 9 26 8 53 16 60 18 7 1 17 7 23
13 16 16 109 236 103 245 -9 14 -36 9 -137 -22 -128 -40 -133 -50 -72 -133
l47 -62 -51 55 c-56 61 -61 57 -40 -40 6 -27 9 -56 6 -63 -2 -6 -10 21 -17 61
-21 115 -26 117 -103 43 -59 -57 -65 -66 -55 -85 10 -19 10 -20 -5 -7 -15 12
-20 10 -38 -13 -11 -14 -25 -26 -32 -26 -6 0 2 13 17 29 19 20 25 34 20 43
-25 41 -189 238 -198 237 -6 0 -39 -13 -73 -29z"/>
<path d="M2260 5182 c-104 -71 -261 -195 -279 -221 -21 -28 -21 -31 -4 -31 39
0 176 39 184 51 6 9 9 10 9 2 0 -20 70 6 95 35 23 26 52 137 43 163 -3 10 -56
-53 -106 -127 -7 -11 -5 -3 4 16 9 19 29 51 44 70 28 37 43 60 38 59 -2 0 -14
-8 -28 -17z"/>
<path d="M4030 5134 c-18 -38 -47 -103 -65 -144 -37 -89 -65 -143 -71 -138 -2
2 2 18 8 36 7 17 9 34 6 37 -3 4 -28 0 -54 -8 -48 -14 -49 -15 -47 -53 l2 -39
-12 36 -12 37 -49 -15 c-26 -8 -47 -16 -45 -17 2 -2 42 -20 89 -41 47 -21 117
-52 155 -70 51 -23 80 -31 107 -27 30 3 39 0 53 -22 9 -14 14 -29 11 -34 -3
-5 13 -26 34 -47 l40 -39 55 54 c43 43 55 61 55 85 0 40 -55 118 -79 111 -37
-11 -153 -36 -164 -35 -11 1 15 8 136 40 l37 10 -41 54 c-29 39 -48 55 -65 55
-12 0 -25 4 -28 9 -4 5 -30 3 -62 -6 -73 -19 -80 -12 -10 10 76 24 92 51 76
129 -21 109 -23 110 -60 32z m-3 -340 c-3 -3 -12 -4 -19 -1 -8 3 -5 6 6 6 11
1 17 -2 13 -5z"/>
<path d="M4120 5183 c73 -105 100 -147 100 -157 0 -6 -11 8 -25 32 -27 48 -96
135 -102 129 -2 -3 2 -37 8 -76 9 -52 17 -75 31 -82 10 -5 18 -16 18 -23 0 -8
18 -18 40 -24 29 -7 40 -7 40 2 0 6 4 5 9 -3 8 -13 152 -50 196 -51 17 0 15 4
-10 20 -16 11 -24 20 -17 20 7 0 -2 13 -20 28 -37 33 -208 159 -253 188 l-30
19 15 -22z"/>
<path d="M2330 5182 c0 -4 -6 -38 -14 -76 -19 -87 -8 -108 70 -133 30 -9 52
-18 50 -20 -2 -3 -28 3 -57 11 -35 11 -56 13 -63 6 -5 -5 -19 -10 -31 -10 -22
0 -102 -96 -90 -108 3 -4 25 -13 48 -19 l42 -13 -40 6 c-22 3 -47 7 -56 10
-22 6 -76 -73 -74 -109 1 -17 20 -49 50 -85 l49 -57 -56 53 c-66 60 -97 66
-165 30 -32 -17 -43 -29 -44 -48 -1 -17 -3 -19 -6 -7 -6 22 -18 22 -54 -4 -27
-19 -29 -25 -29 -84 0 -35 5 -67 10 -70 6 -3 10 -16 10 -29 0 -15 13 -32 36
-48 40 -29 73 -27 75 6 1 17 2 17 6 4 2 -10 8 -18 12 -18 11 0 245 251 247
265 7 50 40 76 79 62 8 -4 61 16 117 42 57 27 134 63 171 80 42 19 67 35 65
43 -4 11 -153 65 -185 67 -19 1 -16 -20 12 -83 14 -31 22 -56 19 -56 -3 0 -16
24 -29 54 -13 30 -28 57 -33 60 -6 3 -13 18 -17 33 -10 44 -107 253 -116 253
-5 0 -9 -3 -9 -8z m35 -376 c28 -8 43 -15 35 -15 -8 0 -37 6 -65 13 -27 8 -43
15 -35 15 8 0 38 -6 65 -13z m-408 -248 c-3 -7 -5 -2 -5 12 0 14 2 19 5 13 2
-7 2 -19 0 -25z m10 -40 c-3 -8 -6 -5 -6 6 -1 11 2 17 5 13 3 -3 4 -12 1 -19z
m10 -50 c-3 -8 -6 -5 -6 6 -1 11 2 17 5 13 3 -3 4 -12 1 -19z"/>
<path d="M2101 4943 c-79 -18 -146 -34 -148 -37 -2 -2 38 -14 89 -26 51 -11
101 -23 110 -26 12 -3 29 12 58 50 23 31 40 59 38 64 -1 4 -68 -7 -147 -25z"/>
<path d="M4150 4968 c0 -13 81 -118 91 -118 5 0 9 -5 9 -12 0 -22 49 -76 74
-80 20 -4 36 6 80 51 31 31 56 60 56 64 0 11 -44 8 -115 -8 -37 -9 -72 -14
-78 -12 -6 2 16 9 49 16 98 21 136 32 131 37 -11 11 -297 70 -297 62z"/>
<path d="M1940 4871 c0 -19 112 -111 135 -111 25 0 91 69 77 81 -10 8 -156 39
-187 39 -14 0 -25 -4 -25 -9z"/>
<path d="M2952 4855 c-46 -7 -85 -15 -88 -18 -3 -3 14 -8 38 -12 32 -5 58 -1
101 15 89 33 81 36 -51 15z m-25 -21 c-3 -3 -12 -4 -19 -1 -8 3 -5 6 6 6 11 1
17 -2 13 -5z"/>
<path d="M3300 4868 c0 -15 56 -40 96 -43 38 -3 45 -1 40 12 -6 13 1 15 41 10
34 -4 41 -3 26 3 -26 10 -203 26 -203 18z"/>
<path d="M1915 4850 c-7 -12 24 -190 34 -190 3 0 25 10 48 22 43 23 56 45 42
70 -15 28 -117 109 -124 98z"/>
<path d="M4416 4801 c-38 -38 -57 -65 -54 -77 3 -19 85 -71 95 -61 8 9 32 128
33 165 0 17 -4 32 -8 32 -4 0 -34 -26 -66 -59z"/>
<path d="M1887 4805 c-11 -75 -20 -185 -14 -185 3 0 18 5 32 12 30 13 30 24 6
133 -17 78 -18 79 -24 40z"/>
<path d="M3011 4821 l-44 -18 37 -6 c43 -7 81 5 89 27 8 22 -25 20 -82 -3z"/>
<path d="M3267 4833 c-10 -10 -8 -41 3 -48 12 -7 80 5 80 14 0 8 -54 41 -67
41 -5 0 -13 -3 -16 -7z"/>
<path d="M1798 4773 c-86 -111 -206 -299 -196 -308 8 -9 148 82 154 99 4 13 8
15 14 6 5 -9 18 -5 47 13 40 25 40 26 46 103 4 42 7 93 7 113 l-1 36 -14 -30
c-14 -30 -14 -30 -9 -2 4 15 4 27 2 27 -3 0 -25 -26 -50 -57z"/>
<path d="M4535 4760 c12 -159 12 -160 64 -184 53 -26 121 -66 121 -72 0 -3
-13 2 -30 11 -22 12 -30 12 -30 3 0 -7 -7 -2 -16 10 -8 12 -34 32 -56 43 l-40
20 7 -63 c10 -88 21 -98 110 -97 39 0 87 4 105 8 l34 7 -37 23 c-45 28 -49 38
-6 16 17 -9 33 -14 36 -11 11 10 -191 312 -232 346 -17 14 -17 13 -11 -10 l7
-25 -16 25 c-15 24 -16 21 -10 -50z"/>
<path d="M3100 4800 c-9 -17 -8 -20 10 -20 13 0 20 7 20 20 0 11 -4 20 -10 20
-5 0 -14 -9 -20 -20z"/>
<path d="M4487 4737 c-8 -45 -13 -85 -10 -90 2 -4 18 -14 35 -23 l31 -16 -6
34 c-4 18 -9 64 -13 101 -4 37 -10 70 -14 72 -4 3 -14 -32 -23 -78z"/>
<path d="M2845 4790 c-8 -13 5 -13 25 0 13 8 13 10 -2 10 -9 0 -20 -4 -23 -10z"/>
<path d="M2891 4775 l-34 -15 32 -34 33 -34 56 17 c88 27 80 59 -19 75 -20 4
-48 0 -68 -9z"/>
<path d="M3531 4769 l-23 -19 26 0 c14 0 29 0 33 -1 4 0 10 8 14 18 9 26 -19
27 -50 2z"/>
<path d="M3718 4763 c6 -9 20 -17 32 -18 l22 -2 -23 18 c-30 23 -43 24 -31 2z"/>
<path d="M3767 4769 c7 -7 15 -10 18 -7 3 3 -2 9 -12 12 -14 6 -15 5 -6 -5z"/>
<path d="M2616 4715 c-38 -30 -67 -55 -64 -55 7 0 172 72 178 77 5 5 -29 33
-39 33 -3 0 -37 -25 -75 -55z"/>
<path d="M3295 4755 c-22 -7 -34 -13 -27 -14 8 -1 12 -6 10 -13 -3 -7 9 -23
25 -37 34 -28 55 -21 70 23 18 55 -3 66 -78 41z"/>
<path d="M3616 4755 c-18 -14 -18 -15 10 -26 16 -6 39 -15 51 -19 27 -11 38
10 19 36 -17 23 -56 27 -80 9z"/>
<path d="M2597 4744 c-15 -8 -33 -12 -39 -8 -7 5 -8 3 -3 -6 6 -10 4 -12 -9
-7 -9 4 -15 3 -12 -1 3 -5 -24 -23 -60 -40 -86 -42 -96 -40 -14 3 36 19 61 34
57 35 -4 0 -34 -13 -66 -29 -56 -29 -77 -61 -40 -61 9 0 20 -7 23 -16 5 -12
17 -7 63 29 66 51 140 116 133 116 -3 0 -17 -7 -33 -15z"/>
<path d="M3066 4743 c-4 -10 1 -12 22 -7 36 9 37 11 8 16 -16 3 -27 0 -30 -9z"/>
<path d="M3820 4745 c14 -8 19 -14 11 -15 -11 0 -10 -5 4 -20 14 -15 30 -20
69 -19 l51 1 -70 33 c-71 34 -111 46 -65 20z"/>
<path d="M2794 4736 c-25 -11 -32 -22 -37 -52 -4 -21 -5 -40 -2 -42 7 -7 128
-31 157 -32 32 0 32 24 -1 52 -13 10 -20 18 -15 18 4 0 -7 16 -26 35 -39 40
-35 39 -76 21z"/>
<path d="M3487 4709 c-14 -15 -16 -29 -11 -57 9 -48 17 -63 30 -54 13 8 54 98
54 118 0 21 -52 16 -73 -7z"/>
<path d="M3063 4710 c-24 -10 -32 -53 -14 -65 13 -7 83 54 75 66 -7 11 -32 11
-61 -1z"/>
<path d="M3567 4658 c-21 -52 -23 -65 -12 -76 10 -11 19 -10 51 7 116 61 118
90 7 125 -18 6 -24 -2 -46 -56z"/>
<path d="M2675 4694 c-65 -24 -182 -83 -195 -99 -11 -13 -5 -15 40 -15 94 0
216 27 199 45 -4 3 -26 10 -50 15 l-44 9 53 -3 52 -3 0 33 c0 38 0 38 -55 18z"/>
<path d="M2975 4693 c-35 -9 -39 -22 -10 -33 35 -13 51 -8 58 19 5 22 -4 24
-48 14z"/>
<path d="M3232 4664 c-28 -42 -30 -104 -4 -104 23 0 96 75 89 92 -2 7 -18 21
-34 30 -28 16 -28 16 -51 -18z"/>
<path d="M4345 4689 c-4 -5 -14 -7 -24 -4 -11 3 -35 -14 -74 -53 l-58 -58 75
-81 c54 -58 84 -82 107 -87 20 -4 35 -2 39 5 4 6 7 -2 7 -18 0 -15 3 -41 6
-58 8 -42 111 -253 136 -279 26 -27 79 -95 61 -78 -22 19 -30 14 -30 -19 0
-27 3 -30 23 -24 21 7 21 6 3 -7 -19 -15 -19 -17 4 -131 16 -86 28 -121 44
-136 20 -19 22 -19 43 -1 14 11 30 45 42 86 23 80 27 66 6 -20 -19 -82 -14
-86 119 -86 58 0 106 3 106 7 0 4 -26 34 -57 67 l-58 59 58 -48 c31 -26 57
-43 57 -38 0 17 -151 273 -162 273 -3 0 -12 -26 -18 -57 -17 -81 -21 -92 -27
-73 -3 8 -13 24 -22 35 -9 12 -10 15 -1 8 23 -21 28 -16 39 35 8 37 7 50 -4
61 -12 12 -22 11 -73 -7 -82 -30 -90 -27 -13 6 35 15 66 32 68 37 2 6 -17 21
-42 35 -55 30 -52 39 4 11 54 -28 87 -20 95 22 3 17 2 35 -4 41 -15 15 -12 42
5 56 11 9 15 34 15 100 0 96 -5 120 -25 120 -8 0 -77 -54 -155 -121 -78 -66
-143 -119 -145 -117 -1 1 46 45 106 97 93 81 107 97 96 110 -10 14 -10 14 4 3
14 -11 22 -8 48 14 17 14 31 30 31 35 0 5 -25 9 -56 9 -41 0 -53 -3 -48 -12 6
-10 4 -10 -7 0 -19 17 -95 16 -102 -2 -3 -8 4 -27 15 -43 l22 -28 -31 28 c-22
20 -33 25 -38 17 -6 -9 -10 -8 -17 4 -7 13 -14 14 -31 6 -20 -10 -20 -10 -4 3
9 8 17 20 17 27 0 8 7 21 15 30 11 12 13 31 8 82 l-6 67 -46 25 c-127 69 -140
75 -146 65z m112 -101 c-3 -7 -5 -2 -5 12 0 14 2 19 5 13 2 -7 2 -19 0 -25z
m-10 -40 c-3 -8 -6 -5 -6 6 -1 11 2 17 5 13 3 -3 4 -12 1 -19z m-10 -50 c-3
-8 -6 -5 -6 6 -1 11 2 17 5 13 3 -3 4 -12 1 -19z m268 -588 c10 -11 16 -20 13
-20 -3 0 -13 9 -23 20 -10 11 -16 20 -13 20 3 0 13 -9 23 -20z m131 -112 l29
-33 -32 29 c-31 28 -38 36 -30 36 2 0 16 -15 33 -32z"/>
<path d="M3110 4654 c-47 -40 -41 -114 10 -114 4 0 21 21 38 47 25 38 28 49
19 64 -18 29 -34 30 -67 3z"/>
<path d="M3374 4654 c-15 -17 -38 -67 -55 -119 -32 -101 -35 -118 -15 -89 8
11 33 26 56 34 29 9 46 23 57 44 8 17 22 39 30 48 17 19 10 93 -7 83 -5 -3
-26 -35 -46 -70 -56 -101 -53 -75 5 34 29 56 14 78 -25 35z"/>
<path d="M3900 4666 c0 -3 14 -14 30 -26 26 -18 33 -20 46 -9 14 12 14 14 -2
26 -16 12 -74 19 -74 9z"/>
<path d="M3827 4646 c-4 -9 8 -25 29 -41 30 -23 39 -26 60 -16 31 14 30 23 -6
49 -33 25 -75 29 -83 8z"/>
<path d="M3647 4586 c-33 -18 -58 -36 -57 -41 1 -4 -4 -12 -12 -17 -8 -6 18
-7 72 -3 85 6 100 13 100 49 0 16 -25 45 -40 46 -3 0 -31 -15 -63 -34z"/>
<path d="M3986 4612 c-6 -10 9 -25 61 -61 l32 -22 -12 43 c-11 38 -17 43 -44
46 -17 2 -34 -1 -37 -6z"/>
<path d="M2793 4603 c15 -2 39 -2 55 0 15 2 2 4 -28 4 -30 0 -43 -2 -27 -4z"/>
<path d="M3815 4581 c11 -22 20 -28 35 -24 25 7 25 11 -2 34 -36 29 -51 25
-33 -10z"/>
<path d="M3767 4585 c-14 -34 -8 -53 13 -48 23 6 24 10 6 42 -11 20 -14 21
-19 6z"/>
<path d="M3937 4582 c-15 -9 -27 -19 -27 -22 0 -11 158 -144 174 -146 19 -3
19 -7 6 53 -8 35 -18 53 -38 65 -15 9 -41 28 -57 42 -29 24 -31 24 -58 8z"/>
<path d="M4093 4563 c7 -44 29 -64 126 -117 l66 -37 -95 96 c-52 52 -96 95
-99 95 -2 0 -1 -17 2 -37z"/>
<path d="M1798 4560 c-27 -17 -51 -30 -54 -30 -3 0 -38 -19 -77 -42 -70 -42
-71 -43 -42 -49 51 -11 93 -10 98 4 4 10 6 10 6 0 1 -8 16 -13 39 -13 54 0 75
26 80 100 2 33 3 60 1 60 -2 0 -25 -14 -51 -30z"/>
<path d="M2301 4567 c-6 -15 -14 -40 -17 -54 l-7 -27 31 23 c43 30 45 35 23
62 l-19 24 -11 -28z"/>
<path d="M3173 4578 c-21 -27 -24 -38 -10 -32 8 3 17 14 20 25 6 22 3 24 -10
7z"/>
<path d="M3286 4557 c-15 -19 -26 -45 -26 -58 0 -37 -29 -143 -40 -147 -6 -2
-10 -22 -10 -43 0 -56 16 -40 31 29 6 31 17 71 24 87 7 17 20 55 30 85 9 30
18 61 20 68 7 20 -3 14 -29 -21z"/>
<path d="M2788 4569 c-19 -10 -22 -37 -12 -77 6 -22 7 -22 28 -5 l21 18 -19
-22 c-18 -22 -18 -25 -2 -66 16 -44 21 -46 68 -38 4 0 24 33 43 71 25 50 33
78 29 95 -6 23 -11 25 -59 25 -29 0 -59 2 -67 5 -7 2 -21 0 -30 -6z"/>
<path d="M2260 4545 c-7 -8 -16 -13 -20 -10 -7 4 -160 -147 -160 -159 0 -3 9
-1 20 6 11 7 20 16 20 21 0 4 5 5 12 1 6 -4 8 -3 5 3 -4 6 1 17 11 24 15 13
16 12 3 -3 -20 -26 -1 -22 51 11 35 23 49 39 61 75 17 49 16 54 -3 31z m-20
-18 c0 -2 -15 -16 -32 -33 l-33 -29 29 33 c28 30 36 37 36 29z"/>
<path d="M2503 4553 c-39 -5 -49 -28 -21 -47 19 -14 25 -12 67 16 25 17 48 33
50 35 5 4 -51 1 -96 -4z"/>
<path d="M2580 4527 c-30 -17 -55 -36 -56 -42 -3 -11 98 -85 116 -85 7 0 9 24
4 78 -4 42 -8 78 -9 79 -1 2 -26 -12 -55 -30z"/>
<path d="M2656 4503 c9 -74 25 -86 40 -30 9 34 8 46 -5 64 -30 42 -43 29 -35
-34z"/>
<path d="M3876 4542 c-7 -12 44 -56 105 -91 l54 -31 -70 65 c-69 65 -80 72
-89 57z"/>
<path d="M3062 4518 c-7 -9 -6 -22 2 -43 l13 -30 17 33 c9 18 14 37 11 42 -9
14 -31 12 -43 -2z"/>
<path d="M2308 4495 c-41 -27 -52 -44 -63 -94 -5 -22 -4 -31 3 -27 15 9 114
146 105 145 -5 0 -25 -11 -45 -24z"/>
<path d="M3640 4503 c-99 -10 -105 -27 -37 -103 91 -101 101 -99 122 21 8 46
15 85 15 87 0 2 -51 0 -100 -5z"/>
<path d="M3745 4438 c-3 -40 -9 -82 -12 -93 -5 -17 -4 -18 10 -7 13 11 15 10
10 -6 -7 -27 10 -34 60 -27 68 10 70 13 46 84 l-22 63 -23 -28 -24 -29 20 36
c18 32 18 37 4 57 -8 12 -26 22 -39 22 -21 0 -23 -5 -30 -72z"/>
<path d="M2433 4493 c-7 -2 -13 -16 -13 -30 l0 -24 31 22 c23 16 28 24 17 30
-14 10 -17 10 -35 2z"/>
<path d="M2720 4459 c-7 -25 -8 -44 -2 -48 5 -3 12 -17 15 -31 10 -38 22 -51
40 -45 23 9 28 30 15 67 -14 43 -15 43 -35 27 -16 -13 -17 -12 -5 3 16 20 12
60 -5 65 -7 3 -17 -13 -23 -38z"/>
<path d="M3107 4468 c-9 -16 -17 -35 -17 -43 0 -25 70 -166 80 -160 12 8 13
145 1 145 -5 0 -17 20 -28 44 l-19 44 -17 -30z"/>
<path d="M4110 4489 c0 -33 20 -81 42 -99 17 -15 38 -19 88 -19 l65 0 -27 22
c-15 12 -49 33 -75 46 -26 14 -58 34 -70 45 -17 15 -23 16 -23 5z"/>
<path d="M2315 4423 c-30 -37 -55 -71 -55 -76 0 -5 15 1 33 12 17 12 49 31 70
43 36 21 44 39 31 72 -10 26 -21 19 -79 -51z"/>
<path d="M2949 4447 c-49 -78 -50 -82 -37 -131 8 -29 19 -48 31 -52 10 -3 20
-4 23 -2 6 7 23 145 24 191 0 20 -3 37 -7 37 -5 0 -20 -19 -34 -43z"/>
<path d="M3014 4477 c-2 -7 -11 -61 -18 -121 l-13 -107 31 -13 c83 -34 107
-39 124 -23 14 14 11 24 -23 101 -36 82 -63 106 -50 45 6 -25 4 -29 -14 -29
-25 0 -29 41 -6 60 18 15 19 40 3 75 -12 27 -26 32 -34 12z"/>
<path d="M2490 4465 c0 -3 14 -32 30 -65 34 -68 36 -76 15 -83 -11 -5 -14 2
-13 26 0 18 -9 51 -21 75 -18 35 -25 41 -40 33 -35 -19 -38 -33 -30 -130 4
-51 10 -96 13 -99 3 -2 12 0 19 6 8 7 17 9 20 6 5 -5 46 22 123 80 1 1 4 17 8
37 6 35 5 37 -53 77 -57 41 -71 48 -71 37z"/>
<path d="M3354 4460 c-11 -4 -33 -23 -48 -40 l-27 -33 23 -24 c44 -48 53 -47
87 6 24 37 30 56 25 75 -6 27 -23 31 -60 16z"/>
<path d="M3864 4455 c-5 -12 18 -101 32 -126 2 -4 39 1 81 10 55 11 78 20 78
31 0 17 -140 100 -168 100 -10 0 -20 -7 -23 -15z"/>
<path d="M2138 4387 c-48 -29 -88 -55 -88 -59 0 -5 24 -8 54 -8 46 0 59 4 83
28 24 23 53 70 53 87 0 11 -19 2 -102 -48z"/>
<path d="M3524 4403 c39 -163 71 -273 81 -273 22 0 64 93 62 135 -2 33 -12 50
-61 102 -64 69 -92 81 -82 36z"/>
<path d="M1587 4398 c-15 -16 -20 -42 -24 -118 -7 -112 5 -133 37 -70 11 22
23 40 25 40 3 0 -4 -18 -15 -40 -11 -21 -20 -53 -20 -69 0 -16 -4 -31 -10 -33
-6 -2 -6 -15 -1 -33 6 -22 14 -30 29 -29 12 0 19 -3 16 -8 -9 -14 15 -9 56 12
22 11 40 18 40 15 0 -2 -18 -14 -40 -25 -55 -28 -51 -46 14 -66 l55 -17 47 48
c63 65 148 238 146 298 -1 33 -8 47 -29 64 -16 13 -40 23 -54 23 -15 0 -32 7
-39 14 -9 11 -36 15 -113 14 -89 0 -104 -3 -120 -20z m87 -71 c-19 -37 -38
-67 -40 -67 -3 0 12 32 32 70 20 39 38 69 40 67 2 -2 -12 -33 -32 -70z"/>
<path d="M2332 4368 c-66 -43 -76 -57 -39 -59 20 -1 20 -2 2 -6 -40 -10 -35
-21 23 -57 83 -50 92 -44 92 58 0 44 -4 86 -8 93 -5 9 -25 0 -70 -29z"/>
<path d="M3403 4359 l-26 -40 16 -72 c10 -40 17 -88 16 -107 -1 -34 -1 -34
-11 10 -20 95 -29 120 -43 120 -35 0 -34 -35 1 -148 31 -98 37 -110 50 -98 9
9 14 36 14 73 0 57 15 206 26 271 8 45 -10 41 -43 -9z"/>
<path d="M3492 4388 c-21 -27 -33 -97 -38 -238 -5 -124 -4 -148 10 -165 16
-20 17 -19 66 35 39 44 49 62 50 90 0 29 -64 277 -74 288 -2 1 -8 -3 -14 -10z"/>
<path d="M3268 4355 c-3 -6 -11 -34 -18 -63 -10 -42 -10 -59 1 -83 6 -17 12
-47 11 -66 -1 -29 7 -44 50 -90 29 -30 54 -50 56 -45 5 17 -47 185 -60 193 -9
6 -6 21 12 59 l24 52 -23 19 c-31 25 -35 20 -21 -31 6 -23 9 -44 7 -46 -3 -3
-11 21 -19 53 -8 32 -16 53 -20 48z"/>
<path d="M4235 4324 c58 -28 68 -29 84 -10 18 21 -16 36 -81 35 l-53 -1 50
-24z"/>
<path d="M3960 4317 c-46 -10 -55 -15 -52 -32 2 -11 9 -24 16 -30 7 -5 15 -35
18 -66 6 -52 33 -117 63 -148 11 -11 17 -3 33 50 11 35 28 99 38 142 24 103
13 111 -116 84z"/>
<path d="M4170 4322 c0 -19 52 -52 81 -52 43 0 44 18 2 35 -54 23 -83 29 -83
17z"/>
<path d="M2720 4298 c-14 -5 -42 -8 -63 -6 -31 2 -49 -6 -103 -45 -51 -37 -65
-52 -62 -70 4 -31 70 -48 96 -24 10 9 34 17 52 17 49 0 139 71 133 104 -6 30
-20 36 -53 24z"/>
<path d="M4137 4303 c-4 -3 -7 -20 -8 -37 -1 -30 -1 -30 -9 -6 -5 18 -9 21
-13 10 -14 -38 -115 -385 -112 -388 1 -2 33 39 71 90 48 65 68 102 69 123 0
23 4 29 17 27 21 -3 53 42 44 63 -3 8 -13 15 -23 15 -16 0 -16 1 1 13 13 9 16
20 11 39 -8 29 -38 62 -48 51z m0 -115 c-3 -8 -6 -5 -6 6 -1 11 2 17 5 13 3
-3 4 -12 1 -19z"/>
<path d="M4331 4297 c-8 -11 -5 -19 14 -37 30 -28 35 -25 23 18 -9 35 -19 40
-37 19z"/>
<path d="M2050 4287 c0 -7 12 -25 28 -40 l27 -26 33 25 c26 21 30 29 21 40
-15 19 -109 19 -109 1z"/>
<path d="M3815 4286 l-50 -12 35 -11 c70 -23 100 -26 100 -10 0 25 -11 47 -24
46 -6 0 -33 -6 -61 -13z"/>
<path d="M2024 4262 c-13 -8 -29 -122 -17 -122 4 1 26 17 48 36 l39 35 -29 29
c-17 16 -35 26 -41 22z"/>
<path d="M4295 4260 c-10 -16 22 -76 53 -99 17 -11 32 -21 34 -21 2 0 2 18 0
40 -3 30 -11 45 -37 65 -37 28 -41 29 -50 15z"/>
<path d="M4395 4250 c2 -14 5 -48 5 -77 0 -49 2 -53 42 -82 24 -18 44 -28 46
-23 1 5 -20 53 -48 108 -28 54 -48 88 -45 74z"/>
<path d="M2232 4251 c-11 -6 -12 -24 -7 -75 4 -36 10 -66 14 -66 4 0 34 9 68
20 46 16 60 25 59 40 -1 20 -32 48 -83 74 -37 19 -34 18 -51 7z"/>
<path d="M2088 4188 c-79 -65 -97 -94 -81 -131 9 -19 14 -15 62 48 28 38 49
75 46 82 -2 8 -1 12 4 8 5 -3 19 8 31 25 12 16 20 30 18 30 -2 0 -38 -28 -80
-62z"/>
<path d="M2172 4221 c-12 -17 -22 -34 -22 -38 1 -10 57 -73 66 -73 7 0 -6 110
-15 128 -5 8 -14 3 -29 -17z"/>
<path d="M2905 4233 c-6 -16 33 -93 47 -93 4 0 8 22 8 49 0 44 -2 49 -24 53
-16 3 -27 0 -31 -9z"/>
<path d="M3755 4240 c-7 -12 4 -33 43 -82 l29 -37 32 44 c17 24 31 46 31 49 0
5 -33 14 -102 30 -15 3 -30 2 -33 -4z"/>
<path d="M1951 4175 c-61 -129 -61 -136 2 -82 37 32 38 34 35 92 l-3 60 -34
-70z"/>
<path d="M2736 4195 c-67 -52 -64 -77 12 -99 82 -23 82 -23 82 32 0 51 -18
102 -36 102 -6 0 -32 -16 -58 -35z"/>
<path d="M2976 4198 c-11 -57 -6 -100 16 -131 l22 -30 12 34 c12 32 13 32 13
8 1 -41 25 -41 63 -1 34 36 35 38 22 70 -8 17 -15 32 -17 32 -2 0 -31 11 -64
24 l-61 24 -6 -30z"/>
<path d="M3656 4165 c-20 -30 -36 -61 -36 -69 0 -8 -8 -17 -19 -21 -19 -6
-108 -105 -95 -105 17 0 276 153 281 166 3 8 -7 30 -21 49 -40 52 -65 47 -110
-20z"/>
<path d="M2880 4150 c0 -76 8 -97 35 -103 25 -4 35 8 35 44 0 17 -28 63 -62
104 -4 5 -8 -16 -8 -45z"/>
<path d="M3877 4164 c-15 -21 -57 -81 -93 -132 -36 -52 -63 -96 -60 -100 3 -3
-4 -16 -16 -29 -29 -31 -20 -37 98 -59 l93 -17 20 24 c17 20 20 39 21 122 0
61 -4 97 -10 97 -7 0 -9 13 -5 33 4 20 1 47 -7 67 l-14 34 -27 -40z m-60 -202
c-10 -10 -17 -24 -17 -30 0 -14 -26 -16 -35 -3 -3 5 3 12 14 16 11 3 22 12 25
20 3 8 11 15 17 15 8 0 6 -7 -4 -18z"/>
<path d="M2091 4109 c-24 -33 -41 -62 -38 -65 6 -6 147 48 147 56 0 3 -15 20
-32 37 l-33 32 -44 -60z"/>
<path d="M4325 4103 c21 -38 42 -71 47 -74 6 -4 19 -31 29 -60 25 -70 38 -77
71 -38 41 48 33 90 -25 134 -25 19 -48 35 -51 35 -2 0 -7 -10 -9 -22 -3 -15
-4 -13 -2 5 1 23 -6 34 -41 58 -23 16 -46 29 -49 29 -4 0 10 -30 30 -67z m152
-125 c-2 -13 -4 -5 -4 17 -1 22 1 32 4 23 2 -10 2 -28 0 -40z"/>
<path d="M4193 4125 c-22 -33 -22 -35 -4 -52 24 -24 28 -136 7 -188 -9 -21
-13 -41 -10 -46 3 -5 -5 -22 -18 -38 -13 -16 -28 -37 -35 -47 -8 -13 -8 -8 1
16 17 45 6 83 -37 133 l-33 38 -32 -45 c-19 -26 -32 -57 -32 -74 0 -16 -9 -41
-20 -55 -19 -24 -29 -115 -14 -130 4 -3 34 8 67 26 89 47 95 52 135 88 20 19
13 9 -16 -22 -35 -37 -68 -61 -101 -73 -74 -26 -92 -42 -85 -74 9 -37 11 -38
35 -16 22 19 22 19 10 -3 -6 -13 -8 -23 -4 -23 4 -1 58 25 119 57 102 53 111
60 122 95 7 21 10 51 7 66 l-6 27 16 -25 c15 -25 15 -24 10 20 -7 64 -35 352
-35 368 0 23 -25 12 -47 -23z"/>
<path d="M4260 4139 c0 -28 31 -335 36 -367 8 -40 12 -37 29 25 l14 48 -6 -55
-6 -55 35 43 c31 39 34 48 33 107 -2 90 -19 103 -35 25 -17 -81 -24 -70 -9 13
12 65 12 67 -19 130 -33 65 -72 113 -72 86z"/>
<path d="M2467 4114 c-25 -21 -27 -29 -27 -92 0 -81 14 -95 52 -54 81 88 99
147 48 158 -14 3 -30 7 -35 9 -6 1 -23 -8 -38 -21z"/>
<path d="M2340 4124 c-79 -26 -98 -36 -93 -50 3 -8 13 -19 23 -24 13 -7 26 1
60 35 42 43 44 50 10 39z"/>
<path d="M2339 4070 l-44 -39 52 -51 c29 -28 57 -48 63 -45 5 3 10 40 10 80 0
63 -3 76 -19 84 -15 9 -27 3 -62 -29z"/>
<path d="M3642 4032 c-110 -64 -130 -79 -117 -89 24 -17 135 -4 165 19 52 41
120 150 93 147 -5 0 -68 -35 -141 -77z"/>
<path d="M1940 4062 l-45 -41 32 -1 c35 0 68 34 61 66 -2 13 -13 8 -48 -24z"/>
<path d="M3122 4067 c-41 -42 -41 -63 0 -71 57 -11 92 49 50 87 -17 16 -20 15
-50 -16z"/>
<path d="M2676 4081 c-7 -11 144 -281 157 -281 12 0 -2 114 -14 118 -12 5 -11
49 1 57 6 3 10 23 10 43 l0 38 -67 17 c-78 20 -80 20 -87 8z"/>
<path d="M2861 4074 c0 -11 3 -14 6 -6 3 7 2 16 -1 19 -3 4 -6 -2 -5 -13z"/>
<path d="M3228 4083 c-22 -6 -24 -69 -3 -96 12 -17 68 -36 106 -37 37 0 29 32
-23 86 -28 30 -54 53 -57 53 -3 -1 -14 -3 -23 -6z"/>
<path d="M2125 4046 c-44 -18 -79 -36 -78 -42 2 -5 29 -12 60 -15 l58 -6 -57
-1 c-66 -2 -78 -13 -43 -36 45 -29 95 -17 155 37 50 45 52 48 34 63 -42 32
-48 32 -129 0z"/>
<path d="M2957 4061 c-6 -22 11 -37 34 -29 7 2 4 12 -9 27 l-19 24 -6 -22z"/>
<path d="M3960 3972 c0 -56 2 -102 4 -102 10 0 47 131 41 148 -3 11 -14 27
-25 37 -20 18 -20 17 -20 -83z"/>
<path d="M4150 4063 c0 -4 -18 -32 -40 -61 l-40 -53 37 -44 c20 -25 45 -45 54
-45 34 0 53 127 26 179 -12 24 -37 40 -37 24z"/>
<path d="M2537 3995 c-72 -87 -69 -105 27 -203 39 -40 79 -78 88 -83 14 -8 16
-5 9 19 -5 15 -22 60 -40 101 -17 41 -30 76 -28 78 2 2 21 -36 42 -83 22 -48
40 -83 42 -78 7 20 -47 298 -59 306 -22 13 -26 10 -81 -57z m46 -47 c8 -28 6
-29 -17 -13 -10 8 -15 18 -11 24 10 17 22 13 28 -11z"/>
<path d="M2660 4025 c0 -29 20 -155 41 -260 6 -31 17 -55 29 -63 17 -10 24 -7
55 19 19 17 35 40 35 50 0 11 -36 79 -80 151 -66 109 -80 127 -80 103z"/>
<path d="M2859 4049 c-1 -2 -3 -61 -5 -131 -3 -116 -2 -128 14 -128 43 0 184
34 189 46 6 16 -16 124 -26 124 -15 0 -80 -77 -95 -113 -20 -48 -40 -44 -43 9
-3 85 -27 219 -34 193z"/>
<path d="M2895 3979 c12 -114 17 -119 70 -61 32 35 49 92 26 92 -5 0 -16 3
-25 6 -11 4 -18 -5 -26 -36 -14 -52 -22 -48 -10 5 5 22 8 40 7 41 -1 1 -13 5
-26 9 -23 7 -23 7 -16 -56z"/>
<path d="M2230 3969 c-34 -32 -49 -54 -43 -60 5 -5 52 -8 104 -7 112 4 117 11
43 74 l-51 44 -53 -51z"/>
<path d="M1620 3965 c-10 -12 -10 -28 -1 -71 11 -55 10 -57 -17 -77 -43 -33
-172 -160 -172 -169 0 -4 47 -8 104 -8 132 0 136 3 113 102 -10 39 -16 73 -13
75 2 2 11 -27 21 -65 21 -86 46 -112 109 -112 42 0 44 1 50 38 8 47 8 156 0
204 -5 30 -12 39 -36 47 -28 10 -35 7 -82 -30 l-51 -41 43 39 c23 21 42 41 42
45 0 5 -84 38 -96 38 -1 0 -7 -7 -14 -15z"/>
<path d="M1902 3968 c-9 -9 -7 -17 10 -35 27 -28 34 -29 41 -2 11 42 -22 66
-51 37z"/>
<path d="M3105 3964 c11 -9 34 -23 50 -31 l30 -16 -19 22 c-11 11 -15 21 -10
21 5 0 2 5 -6 10 -8 5 -26 10 -40 10 -25 -1 -25 -1 -5 -16z"/>
<path d="M1777 3963 c-12 -11 -8 -21 13 -26 17 -4 18 -2 9 14 -11 21 -13 22
-22 12z"/>
<path d="M1573 3948 c-21 -26 -153 -261 -149 -266 3 -2 48 33 100 79 104 90
100 83 71 167 -9 27 -13 31 -22 20z"/>
<path d="M3064 3904 c4 -31 9 -60 11 -65 3 -4 31 -1 63 8 92 24 89 23 68 35
-14 8 -21 7 -27 -3 -7 -11 -9 -9 -9 6 0 13 -16 30 -44 48 -64 40 -70 37 -62
-29z"/>
<path d="M2013 3930 c-5 -19 -6 -19 -18 -3 -12 16 -14 16 -26 -9 -22 -49 21
-73 85 -48 32 12 33 30 3 58 -29 27 -37 28 -44 2z"/>
<path d="M3207 3932 c-15 -17 -16 -21 -3 -32 9 -6 32 -16 52 -20 32 -7 39 -5
61 18 28 30 20 39 -49 48 -35 5 -46 2 -61 -14z"/>
<path d="M4492 3923 c-21 -30 -25 -94 -7 -100 11 -3 42 114 32 123 -2 3 -14
-8 -25 -23z"/>
<path d="M1885 3901 c25 -72 31 -78 43 -43 11 32 10 33 -40 71 -17 13 -17 11
-3 -28z"/>
<path d="M4520 3866 l-13 -75 42 -52 c31 -40 41 -47 41 -31 0 22 -47 222 -53
229 -2 2 -10 -30 -17 -71z"/>
<path d="M1862 3818 c0 -54 4 -98 9 -98 5 0 9 6 9 13 0 8 7 29 16 47 16 31 16
35 -9 84 l-25 51 0 -97z"/>
<path d="M2196 3871 c-8 -12 128 -81 159 -81 12 0 25 -6 28 -14 5 -12 159 -78
235 -101 41 -12 23 18 -55 92 -64 59 -86 73 -120 79 -23 3 -44 12 -47 20 -4
11 -28 14 -100 14 -52 0 -97 -4 -100 -9z"/>
<path d="M1940 3838 c-7 -18 -19 -48 -27 -66 -15 -35 -7 -81 24 -130 8 -13 12
-26 9 -29 -3 -3 -16 17 -29 45 -25 53 -41 59 -31 13 8 -42 67 -161 76 -155 12
8 10 132 -4 153 -9 15 -8 26 5 52 9 19 17 28 17 22 0 -20 25 -15 48 10 l22 23
-49 47 -49 47 -12 -32z m19 -113 c0 -5 -6 1 -14 15 -8 14 -14 30 -14 35 0 6 6
-1 14 -15 8 -14 14 -29 14 -35z"/>
<path d="M2031 3849 l-24 -9 24 -26 23 -25 18 23 c33 44 16 60 -41 37z"/>
<path d="M3200 3847 c-19 -7 -36 -18 -38 -25 -1 -8 12 -5 40 9 65 32 64 38 -2
16z"/>
<path d="M3677 3831 c-3 -12 6 -38 23 -65 41 -63 75 -69 144 -23 53 35 67 63
37 71 -9 3 -45 10 -81 16 -36 6 -77 13 -91 16 -21 4 -28 1 -32 -15z"/>
<path d="M2164 3826 c-10 -26 35 -155 59 -167 12 -7 27 -19 33 -27 9 -12 27
-14 100 -8 138 10 165 12 223 14 34 1 51 6 45 11 -5 5 -61 30 -124 54 -86 33
-119 42 -131 34 -23 -14 -49 -2 -44 21 3 16 -10 26 -64 51 -76 35 -89 37 -97
17z"/>
<path d="M3450 3833 c-48 -9 -77 -42 -135 -154 -68 -131 -69 -132 103 28 126
118 133 144 32 126z"/>
<path d="M2084 3802 l-22 -27 59 -65 c66 -74 72 -67 36 45 -25 78 -41 88 -73
47z"/>
<path d="M3261 3780 c-112 -59 -136 -90 -51 -64 41 13 159 103 135 103 -5 0
-43 -17 -84 -39z"/>
<path d="M4383 3775 c-37 -43 -43 -57 -43 -95 0 -37 8 -57 46 -114 32 -48 49
-65 56 -58 16 16 23 158 9 166 -7 5 -12 -6 -13 -31 -1 -21 -4 11 -7 72 l-6
109 -42 -49z"/>
<path d="M4447 3813 c-3 -4 -5 -30 -5 -56 1 -26 4 -43 8 -37 4 7 11 11 16 11
5 0 12 12 16 27 6 20 3 32 -11 45 -10 11 -21 15 -24 10z"/>
<path d="M2955 3791 c-84 -22 -121 -40 -159 -80 l-29 -31 69 20 c38 11 86 25
106 31 21 5 48 20 60 33 13 13 32 28 43 34 l20 11 -20 0 c-11 0 -51 -9 -90
-18z"/>
<path d="M3616 3784 c-19 -18 -21 -54 -3 -54 7 -1 5 -6 -6 -14 -10 -8 -22 -27
-27 -43 -8 -27 -8 -27 -9 10 -1 28 -5 37 -18 38 -14 0 -13 2 5 9 14 6 22 18
22 34 0 21 -3 23 -26 17 -31 -8 -254 -199 -254 -217 0 -8 6 -11 13 -9 6 2 85
25 174 50 185 52 214 61 211 72 0 5 2 16 7 26 5 12 -1 30 -19 57 -28 43 -46
49 -70 24z"/>
<path d="M3309 3758 c-24 -18 -60 -46 -80 -64 -20 -18 -46 -35 -58 -39 l-22
-7 20 -31 c23 -37 66 -44 86 -12 20 30 104 185 101 185 -1 0 -22 -14 -47 -32z"/>
<path d="M3860 3732 c-69 -47 -77 -75 -35 -115 l30 -29 -32 22 c-21 14 -40 19
-54 15 -11 -4 -33 -2 -49 5 -24 10 -46 7 -142 -19 -175 -48 -260 -76 -252 -84
13 -12 234 -8 234 4 0 8 4 8 13 1 14 -12 323 -20 334 -9 3 4 -4 19 -18 34
l-24 27 31 -22 c16 -11 35 -17 41 -14 7 4 12 43 12 99 1 71 -3 95 -15 107 -8
9 -17 16 -18 16 -1 0 -27 -17 -56 -38z"/>
<path d="M4494 3748 c-11 -34 -15 -73 -21 -173 l-5 -90 26 24 c19 18 24 30 20
48 -4 14 -2 23 5 23 6 0 11 -8 11 -17 0 -14 4 -12 25 7 40 37 35 90 -14 151
-37 47 -40 48 -47 27z"/>
<path d="M2040 3745 c-7 -9 -13 -33 -13 -54 0 -31 9 -49 43 -90 24 -28 45 -51
47 -51 2 0 14 7 26 15 26 17 29 63 6 93 -48 60 -84 102 -90 102 -4 0 -12 -7
-19 -15z"/>
<path d="M3163 3693 c-13 -2 -23 -11 -23 -19 0 -19 13 -18 41 6 24 20 22 21
-18 13z"/>
<path d="M2895 3669 c-75 -22 -116 -48 -93 -60 7 -3 47 -14 89 -24 l76 -17 73
39 c40 21 72 43 72 48 -1 9 -99 34 -132 34 -8 0 -46 -9 -85 -20z m140 -8 c-7
-13 -127 -72 -133 -67 -2 3 27 21 64 40 78 40 77 39 69 27z"/>
<path d="M2004 3642 c-6 -4 -14 -39 -18 -78 -6 -60 -4 -72 9 -78 8 -3 24 2 34
12 10 9 24 18 32 20 17 4 39 22 39 31 -2 16 -87 99 -96 93z"/>
<path d="M3068 3609 c-32 -16 -58 -33 -58 -38 0 -10 85 -31 124 -31 13 0 27 7
30 16 6 15 -16 68 -31 77 -5 3 -34 -8 -65 -24z"/>
<path d="M4141 3585 c-127 -67 -135 -73 -120 -91 20 -24 86 -39 104 -24 13 11
15 10 10 -2 -4 -9 1 -18 12 -23 28 -11 156 -55 161 -55 6 0 -6 188 -14 217 -4
13 -10 20 -15 17 -5 -3 -9 0 -9 5 0 19 -24 11 -129 -44z m109 -100 c0 -19 -20
-29 -32 -17 -8 8 -7 16 2 26 14 17 30 12 30 -9z"/>
<path d="M4314 3580 c3 -30 8 -82 12 -115 3 -33 8 -62 10 -65 9 -8 75 34 70
46 -2 6 0 16 6 22 8 8 -1 30 -31 76 -24 36 -49 71 -58 77 -13 12 -14 6 -9 -41z"/>
<path d="M5070 3611 c0 -10 -9 -25 -20 -32 -14 -10 -24 -37 -34 -94 l-15 -80
3 63 c1 34 1 62 0 62 -2 0 -13 -31 -25 -70 -13 -38 -25 -68 -27 -66 -2 2 6 34
17 72 12 37 20 69 18 71 -3 2 -36 -52 -75 -120 -63 -109 -72 -130 -74 -180 -3
-77 14 -93 37 -33 21 56 31 56 11 0 -7 -21 -11 -54 -9 -71 4 -24 1 -34 -11
-39 -13 -5 -16 -23 -16 -103 1 -89 2 -94 15 -66 16 35 20 28 5 -10 -7 -18 -7
-33 0 -46 14 -25 -4 -59 -31 -59 -12 0 -28 -14 -40 -35 -12 -19 -23 -35 -26
-35 -3 0 4 16 16 35 30 52 21 64 -57 68 l-67 3 68 2 c81 2 86 14 25 65 -24 19
-72 63 -108 97 -51 48 -54 53 -15 22 35 -29 53 -38 61 -31 9 7 11 5 8 -8 -4
-13 11 -33 51 -67 75 -64 85 -56 85 69 0 103 -8 117 -49 81 l-25 -21 20 30
c47 72 51 113 11 131 -17 7 -39 4 -91 -13 -90 -30 -97 -23 -9 9 37 13 68 29
71 36 3 10 -145 92 -168 92 -14 0 -60 -76 -74 -124 -12 -41 -12 -41 -62 -42
-27 0 -61 -4 -76 -7 -28 -7 -30 -14 -44 -145 -5 -56 -10 -66 -34 -81 -37 -22
-156 -155 -163 -182 -4 -16 12 -39 69 -99 48 -50 81 -77 90 -73 8 3 21 0 28
-7 12 -9 31 -3 93 31 43 23 85 47 93 54 8 6 29 17 45 23 27 11 28 11 10 -2
-11 -9 -27 -21 -35 -28 -8 -7 -16 -12 -18 -10 -1 2 -41 -18 -87 -43 -59 -32
-85 -52 -85 -64 0 -10 30 -47 68 -82 l67 -63 6 34 c5 27 7 29 8 10 1 -14 5
-20 9 -15 4 6 14 10 22 10 8 -1 26 8 39 19 23 20 23 19 -3 -16 -19 -26 -25
-43 -21 -61 8 -29 -24 -58 -55 -50 -12 3 -36 -7 -62 -27 l-43 -32 39 36 c45
41 44 42 -14 21 -24 -8 -45 -13 -47 -11 -2 2 13 9 34 16 58 19 63 30 12 32
-41 1 -42 2 -9 6 l35 4 -35 14 c-33 13 -33 14 -5 9 17 -3 38 -8 48 -11 32 -10
18 21 -36 74 -70 70 -94 70 -131 1 -16 -28 -30 -48 -33 -46 -2 3 9 27 26 53
19 31 27 52 21 58 -6 6 -10 22 -10 36 0 38 -132 166 -181 175 -42 8 -234 -35
-280 -62 -23 -14 -32 -15 -55 -4 -25 11 -26 10 -14 -4 11 -13 10 -15 -3 -9 -9
3 -18 13 -21 22 -3 10 -3 -14 0 -51 2 -38 12 -88 20 -110 9 -23 18 -51 21 -63
6 -26 -23 -58 -46 -49 -9 4 -22 9 -28 12 -8 3 -13 -4 -14 -18 0 -13 -7 11 -15
54 -8 42 -28 104 -44 138 -17 33 -28 64 -25 68 2 5 0 23 -6 40 -6 18 -9 34 -6
37 2 3 18 -37 36 -88 17 -51 40 -118 50 -148 l20 -55 1 67 c0 74 -25 207 -42
223 -7 7 -9 -1 -5 -30 l6 -40 -16 47 c-11 32 -36 66 -80 110 l-64 63 36 -85
c20 -47 43 -96 51 -108 9 -13 14 -26 11 -28 -3 -3 -15 12 -28 32 -12 21 -24
33 -26 27 -5 -13 65 -211 83 -237 17 -24 18 -62 3 -72 -11 -7 -9 -21 22 -126
13 -45 25 -68 35 -68 8 0 17 -7 20 -15 4 -8 14 -15 23 -15 14 0 14 -2 1 -10
-13 -9 -12 -12 5 -25 18 -14 17 -15 -13 -9 -18 4 -32 3 -32 -2 0 -33 26 -93
48 -111 24 -20 38 -22 132 -22 122 0 121 2 -12 70 -43 22 -78 42 -78 45 0 3
43 -17 96 -45 83 -42 100 -48 120 -39 13 6 24 16 24 22 0 6 4 5 9 -2 6 -10 14
-5 30 22 29 47 39 47 12 0 -26 -44 -26 -47 2 -34 l22 11 -22 -18 c-12 -10 -23
-29 -25 -43 -3 -26 -27 -37 -56 -24 -9 4 -23 6 -31 5 -7 -1 -10 2 -6 8 4 8
-25 11 -93 11 -76 0 -102 -3 -112 -15 -15 -18 -70 -17 -63 1 2 7 -6 20 -19 29
-22 16 -22 17 -1 11 12 -4 24 -2 28 4 9 15 -4 84 -20 106 -12 17 -15 17 -55
-11 -24 -16 -48 -38 -54 -47 -6 -10 -14 -18 -18 -18 -7 0 -243 -182 -263 -202
-7 -8 -5 -9 7 -5 10 4 28 2 40 -3 14 -5 17 -9 8 -10 -10 -1 -9 -4 5 -9 15 -6
7 -9 -32 -15 -35 -4 -53 -12 -57 -24 -3 -9 -9 -23 -12 -30 -11 -25 244 3 407
44 719 180 1259 740 1404 1458 25 122 46 366 32 366 -4 0 -7 -8 -7 -19z m-73
-253 c-3 -7 -5 -2 -5 12 0 14 2 19 5 13 2 -7 2 -19 0 -25z m-10 -50 c-3 -7 -5
-2 -5 12 0 14 2 19 5 13 2 -7 2 -19 0 -25z m-76 -35 c-12 -20 -14 -14 -5 12 4
9 9 14 11 11 3 -2 0 -13 -6 -23z m66 -5 c-3 -8 -6 -5 -6 6 -1 11 2 17 5 13 3
-3 4 -12 1 -19z m-12 -58 c-9 -41 -17 -33 -9 9 4 17 9 30 11 27 3 -2 2 -19 -2
-36z m-18 -62 c-3 -8 -6 -5 -6 6 -1 11 2 17 5 13 3 -3 4 -12 1 -19z m-32 -108
c-9 -28 -19 -50 -21 -48 -2 2 4 27 13 56 9 28 19 50 21 47 2 -2 -4 -27 -13
-55z m-285 -113 c0 -2 -10 -12 -22 -23 l-23 -19 19 23 c18 21 26 27 26 19z
m-22 -88 l27 -7 -26 -1 c-29 -1 -54 -31 -62 -72 -4 -24 -4 -24 -6 2 -2 42 -26
42 -61 1 l-31 -37 25 40 c14 22 26 48 26 58 0 10 8 28 17 41 l17 22 24 -20
c13 -12 35 -24 50 -27z m192 -24 c0 -2 -29 -20 -65 -41 -36 -20 -71 -41 -78
-48 -16 -14 -40 -20 -33 -7 3 5 29 21 58 36 29 15 64 36 78 46 24 18 40 24 40
14z m-1143 -177 c-3 -8 -6 -5 -6 6 -1 11 2 17 5 13 3 -3 4 -12 1 -19z m1043
-17 c-5 -11 -15 -23 -21 -27 -6 -3 -3 5 6 20 20 30 30 35 15 7z m-80 -115 c0
-2 -8 -10 -17 -17 -16 -13 -17 -12 -4 4 13 16 21 21 21 13z m-133 -28 c-3 -8
-6 -5 -6 6 -1 11 2 17 5 13 3 -3 4 -12 1 -19z m-377 -78 c11 -11 32 -21 48
-21 26 -2 26 -2 2 -6 -39 -6 -72 -26 -81 -48 -7 -19 -8 -19 -8 3 -1 15 -5 21
-13 16 -6 -4 -8 -3 -5 2 3 6 2 16 -3 24 -6 10 -3 21 7 32 21 23 28 23 53 -2z
m-87 -7 c-7 -2 -19 -2 -25 0 -7 3 -2 5 12 5 14 0 19 -2 13 -5z m186 -57 c-29
-49 -34 -46 -9 5 12 23 24 39 26 36 3 -2 -5 -21 -17 -41z m-142 -58 c-3 -8 -6
-5 -6 6 -1 11 2 17 5 13 3 -3 4 -12 1 -19z m103 -8 c-6 -11 -7 -20 -3 -20 10
0 -19 -20 -30 -20 -4 0 2 14 15 30 25 34 34 39 18 10z m-220 -10 c14 0 32 6
40 13 12 10 12 9 1 -5 -10 -14 -9 -20 10 -39 15 -15 17 -20 6 -16 -9 3 -19 2
-22 -3 -4 -6 -19 -10 -36 -10 -25 0 -29 4 -29 28 0 15 -4 33 -10 40 -7 9 -7 9
2 2 7 -5 24 -10 38 -10z m430 6 c0 -2 -8 -10 -17 -17 -16 -13 -17 -12 -4 4 13
16 21 21 21 13z m-321 -54 c-5 -2 -9 -11 -9 -19 0 -9 -2 -14 -5 -11 -3 3 -2
20 2 38 5 28 8 31 13 15 4 -11 3 -21 -1 -23z m-156 1 c-7 -2 -19 -2 -25 0 -7
3 -2 5 12 5 14 0 19 -2 13 -5z m227 -13 c-6 -11 -13 -20 -16 -20 -2 0 0 9 6
20 6 11 13 20 16 20 2 0 0 -9 -6 -20z m-353 -6 c-3 -3 -12 -4 -19 -1 -8 3 -5
6 6 6 11 1 17 -2 13 -5z m323 -44 c-6 -11 -13 -20 -16 -20 -2 0 0 9 6 20 6 11
13 20 16 20 2 0 0 -9 -6 -20z m-63 -12 c-3 -8 -6 -5 -6 6 -1 11 2 17 5 13 3
-3 4 -12 1 -19z m98 -48 c-3 -5 -16 -15 -28 -21 -19 -9 -19 -8 3 10 28 23 34
26 25 11z m-515 -50 c8 -5 11 -10 5 -10 -5 0 -17 5 -25 10 -8 5 -10 10 -5 10
6 0 17 -5 25 -10z m40 -75 c0 -13 -273 -116 -304 -114 -6 0 50 21 124 47 74
27 144 53 155 60 23 13 25 14 25 7z"/>
<path d="M1430 3608 c0 -7 33 -43 73 -81 l72 -68 -74 61 c-40 34 -75 59 -78
56 -5 -5 118 -228 148 -267 16 -21 17 -19 34 52 10 41 20 69 22 62 2 -6 -3
-35 -11 -64 -20 -66 -20 -66 3 -74 13 -4 68 18 160 65 135 67 141 71 141 100
0 31 -27 92 -62 143 -17 24 -25 27 -78 27 -78 0 -103 -22 -126 -113 -22 -90
-29 -79 -9 12 23 98 20 101 -111 101 -76 0 -104 -3 -104 -12z"/>
<path d="M2529 3616 c-4 -5 -138 -15 -206 -15 -78 -1 -57 -16 101 -72 31 -11
40 -11 43 -1 3 6 9 10 14 6 11 -6 149 65 149 77 0 9 -93 13 -101 5z"/>
<path d="M4661 3601 c-11 -20 -27 -119 -34 -207 l-4 -52 73 -32 c100 -44 119
-34 94 50 -6 19 -22 77 -36 129 -17 63 -32 99 -47 112 -28 23 -34 23 -46 0z"/>
<path d="M4753 3605 c-10 -11 -6 -42 23 -157 20 -79 40 -146 43 -150 4 -5 42
53 85 128 43 75 75 138 72 141 -3 3 -36 -20 -73 -52 l-68 -58 73 74 c40 41 69
78 66 82 -4 4 -53 7 -108 7 -74 -1 -104 -5 -113 -15z"/>
<path d="M1334 3485 c12 -337 168 -735 401 -1024 72 -89 243 -256 333 -325
275 -209 636 -349 966 -375 102 -7 168 -2 133 12 -9 3 -17 13 -17 21 0 15 -29
26 -70 26 -20 0 -22 2 -10 10 13 9 13 10 0 10 -9 1 -6 5 8 10 12 5 29 7 37 4
8 -4 15 -4 15 -1 0 7 -231 189 -260 204 -14 7 -21 13 -16 13 5 0 -14 18 -42
40 -27 22 -52 40 -55 40 -3 0 -13 -7 -21 -16 -15 -14 -16 -14 -16 0 0 26 -24
19 -138 -38 -167 -85 -167 -85 -39 -86 106 0 108 0 137 30 28 29 29 29 32 7 2
-16 9 -21 26 -20 13 2 21 -1 17 -7 -3 -6 -13 -10 -22 -10 -10 0 -14 -6 -11
-18 6 -23 -34 -28 -52 -7 -10 12 -37 15 -119 15 -99 -1 -104 -2 -81 -16 l25
-15 -25 7 c-33 8 -32 8 -54 -1 -24 -10 -50 6 -54 33 -2 12 -24 34 -53 52 -27
18 -49 34 -49 37 0 3 11 -2 25 -11 14 -9 36 -23 50 -32 28 -18 32 -9 12 21
-26 38 -69 115 -64 115 3 0 24 -32 48 -72 35 -60 44 -69 50 -53 5 14 8 15 8 5
1 -8 11 -20 24 -26 19 -9 42 -1 150 54 70 35 127 67 127 72 0 5 -19 13 -42 19
l-43 11 42 -4 c25 -2 46 1 52 8 10 12 -13 70 -99 251 -38 80 -43 87 -50 65
l-7 -25 -4 24 c-2 14 -9 26 -15 28 -5 2 -47 -30 -91 -71 -86 -81 -99 -110 -64
-151 16 -20 16 -20 -5 -2 -29 24 -34 22 -29 -15 l5 -33 -9 29 c-13 37 -44 66
-73 67 -21 1 -21 2 -3 6 11 3 28 14 38 25 12 12 26 17 38 13 15 -5 38 11 99
71 44 43 80 83 80 90 0 13 -47 33 -200 86 l-85 29 -53 -58 c-44 -49 -52 -63
-49 -90 1 -18 -1 -34 -5 -35 -5 -2 10 -34 32 -72 22 -38 39 -71 36 -73 -2 -2
-23 30 -47 71 -32 57 -48 76 -64 76 -23 0 -143 -115 -132 -126 4 -4 24 -10 44
-14 l38 -8 -37 -1 c-47 -1 -45 -21 8 -68 l39 -35 -44 33 c-26 20 -61 35 -85
39 -39 5 -41 7 -47 47 -3 23 -12 50 -20 60 -13 17 -13 17 5 3 18 -14 18 -13
11 10 -16 51 -15 54 4 15 11 -22 20 -35 20 -30 1 6 5 3 10 -4 8 -12 11 -8 16
15 11 48 15 52 10 8 -3 -22 -2 -44 2 -48 10 -10 133 115 133 136 0 10 -19 28
-46 44 -38 22 -48 25 -55 13 -7 -11 -9 -8 -9 9 0 12 2 22 3 22 2 0 27 -13 56
-29 44 -24 56 -27 77 -17 13 6 24 14 24 17 0 3 7 14 16 25 15 18 15 18 5 -3
-20 -40 -11 -38 39 12 28 27 50 52 50 56 0 4 -17 13 -37 20 -23 8 -31 14 -22
16 9 2 24 22 34 44 10 21 20 37 22 35 3 -2 -5 -22 -16 -44 l-20 -39 27 -12
c26 -13 30 -9 193 161 131 135 163 174 151 180 -10 4 -11 7 -4 7 36 2 -22 159
-83 223 -14 15 -25 31 -25 35 0 10 -226 9 -263 -2 -23 -6 -33 -3 -55 18 -35
34 -115 67 -142 60 -13 -4 -25 0 -31 8 -6 11 -37 0 -149 -56 -151 -74 -168
-86 -148 -102 32 -24 185 -74 209 -68 20 5 29 1 42 -18 9 -13 45 -37 81 -52
37 -16 65 -30 63 -32 -2 -2 -35 10 -73 26 -68 30 -69 30 -85 11 -16 -18 -17
-18 -34 14 -18 33 -28 38 -161 87 -43 15 -56 16 -77 6 -25 -11 -42 -53 -27
-62 4 -3 10 -20 12 -38 3 -29 1 -33 -14 -29 -10 2 -18 -1 -18 -8 0 -7 -9 -1
-20 13 -14 18 -19 34 -14 51 3 15 -3 47 -15 82 -12 31 -20 59 -17 61 2 3 7 -5
11 -17 4 -12 16 -42 27 -68 25 -57 39 -41 34 41 -3 48 -13 72 -71 171 -73 126
-93 150 -70 85 20 -57 18 -73 -4 -24 l-18 40 5 -63 c2 -34 2 -62 -1 -62 -2 0
-10 36 -17 81 -14 96 -18 109 -35 109 -7 0 -16 6 -19 13 -3 6 -4 -42 -2 -108z
m125 -100 c0 -5 -4 -3 -9 5 -5 8 -9 22 -9 30 0 16 17 -16 18 -35z m31 -80 c0
-5 -5 -3 -10 5 -5 8 -10 20 -10 25 0 6 5 3 10 -5 5 -8 10 -19 10 -25z m-53
-57 c-3 -8 -6 -5 -6 6 -1 11 2 17 5 13 3 -3 4 -12 1 -19z m10 -40 c-3 -8 -6
-5 -6 6 -1 11 2 17 5 13 3 -3 4 -12 1 -19z m10 -40 c-3 -8 -6 -5 -6 6 -1 11 2
17 5 13 3 -3 4 -12 1 -19z m32 -93 c0 -5 -4 -3 -9 5 -5 8 -9 22 -9 30 0 16 17
-16 18 -35z m660 -44 c79 -35 93 -39 119 -29 17 7 37 25 46 42 9 17 14 22 10
11 -15 -47 -16 -63 -1 -67 11 -2 2 -16 -30 -46 -25 -23 -43 -35 -39 -27 14 38
-4 62 -71 90 -57 25 -68 27 -87 15 -19 -12 -20 -12 -8 3 11 13 9 18 -15 31
-51 28 -15 17 76 -23z m-623 -78 c-5 -5 -36 86 -35 101 0 6 9 -13 20 -43 10
-30 17 -56 15 -58z m341 25 c-2 -13 -4 -5 -4 17 -1 22 1 32 4 23 2 -10 2 -28
0 -40z m177 -3 c-6 -16 -24 -21 -24 -7 0 11 11 22 21 22 5 0 6 -7 3 -15z
m-452 -102 c18 -19 32 -23 80 -23 32 0 58 -3 58 -7 0 -5 -29 -7 -64 -5 -51 3
-64 1 -70 -13 -3 -9 -2 -13 4 -10 9 6 100 -41 100 -52 0 -3 -21 7 -46 22 -25
15 -48 25 -51 22 -2 -3 3 -18 12 -34 l17 -28 -21 25 c-11 14 -21 28 -21 33 0
4 -9 7 -19 7 -28 0 -36 17 -37 78 0 50 0 52 12 25 l12 -28 3 40 2 40 4 -35 c3
-19 14 -45 25 -57z m214 25 l29 -33 -32 29 c-18 17 -33 31 -33 33 0 8 8 1 36
-29z m174 29 c0 -2 -15 -16 -32 -33 l-33 -29 29 33 c28 30 36 37 36 29z m-84
-64 c5 3 10 -6 9 -20 0 -23 8 -29 68 -51 85 -32 82 -40 -5 -11 -88 30 -98 25
-98 -50 0 -57 2 -61 30 -76 17 -9 30 -18 30 -21 0 -2 -13 2 -29 10 -16 9 -31
12 -35 9 -3 -4 -6 -1 -6 5 0 6 -24 22 -52 36 -29 15 -64 36 -78 47 -15 13 -2
8 35 -12 33 -17 64 -36 70 -41 19 -17 25 -7 25 41 0 31 -5 53 -15 61 -8 7 -15
19 -15 26 0 9 -13 15 -37 16 l-38 1 37 4 c25 3 44 12 55 27 15 20 19 21 29 8
6 -8 15 -12 20 -9z m-155 -280 c13 -16 12 -17 -3 -4 -10 7 -18 15 -18 17 0 8
8 3 21 -13z m356 -169 c-3 -3 -12 -4 -19 -1 -8 3 -5 6 6 6 11 1 17 -2 13 -5z
m-70 -20 c-3 -3 -12 -4 -19 -1 -8 3 -5 6 6 6 11 1 17 -2 13 -5z m198 -94 c9
-16 13 -30 11 -30 -3 0 -12 14 -21 30 -9 17 -13 30 -11 30 3 0 12 -13 21 -30z
m218 -36 c12 -1 31 6 42 15 19 15 19 15 4 -4 -22 -28 -13 -55 19 -56 17 -1 8
-5 -22 -11 -27 -5 -56 -6 -65 -2 -9 4 -23 6 -31 5 -11 -1 -11 1 3 9 20 13 22
40 5 60 -11 12 -10 12 5 0 10 -8 28 -15 40 -16z m-96 -16 c-3 -8 -6 -5 -6 6
-1 11 2 17 5 13 3 -3 4 -12 1 -19z m-73 -31 c5 -21 4 -21 -14 3 -23 29 -26 48
-6 31 8 -6 16 -22 20 -34z m85 -19 c0 -16 -2 -18 -6 -8 -3 8 -11 18 -17 22 -7
5 -4 8 7 8 11 0 17 -7 16 -22z m224 5 c-7 -2 -19 -2 -25 0 -7 3 -2 5 12 5 14
0 19 -2 13 -5z m-216 -65 c-3 -7 -5 -2 -5 12 0 14 2 19 5 13 2 -7 2 -19 0 -25z
m10 -40 c-3 -8 -6 -5 -6 6 -1 11 2 17 5 13 3 -3 4 -12 1 -19z m340 -10 c-3 -8
-6 -5 -6 6 -1 11 2 17 5 13 3 -3 4 -12 1 -19z m113 -38 c-8 -5 -19 -10 -25
-10 -5 0 -3 5 5 10 8 5 20 10 25 10 6 0 3 -5 -5 -10z m75 -146 c66 -24 115
-43 108 -43 -30 -2 -273 92 -273 105 0 2 10 -1 23 -8 12 -6 76 -31 142 -54z
m-198 0 c-3 -3 -12 -4 -19 -1 -8 3 -5 6 6 6 11 1 17 -2 13 -5z m110 -30 c-3
-3 -12 -4 -19 -1 -8 3 -5 6 6 6 11 1 17 -2 13 -5z m220 -40 c-3 -3 -12 -4 -19
-1 -8 3 -5 6 6 6 11 1 17 -2 13 -5z"/>
<path d="M2567 3555 c-83 -46 -90 -55 -41 -54 33 1 45 7 73 40 19 22 32 41 30
43 -2 2 -30 -11 -62 -29z"/>
<path d="M2765 3580 c-12 -19 6 -52 25 -47 16 4 17 2 8 -13 -9 -13 -5 -28 18
-71 43 -78 61 -80 211 -12 72 32 120 60 120 68 0 18 -88 38 -169 39 -31 1 -51
4 -45 8 15 9 -38 22 -63 15 -11 -3 -18 -2 -15 3 5 9 -28 20 -62 20 -12 0 -25
-5 -28 -10z"/>
<path d="M2156 3554 c-11 -7 -18 -15 -15 -17 2 -2 29 -18 60 -35 56 -32 92
-39 117 -23 21 13 -62 80 -98 79 -15 -1 -31 2 -36 5 -5 3 -18 -1 -28 -9z"/>
<path d="M2270 3566 c0 -3 20 -21 45 -41 40 -34 48 -36 86 -30 51 9 43 16 -49
49 -77 27 -82 29 -82 22z"/>
<path d="M4562 3547 c-12 -13 -23 -36 -23 -53 -1 -17 -3 -22 -6 -11 -2 9 -9
17 -14 17 -16 0 -22 -29 -12 -53 8 -18 6 -24 -11 -32 -18 -10 -21 -19 -18 -70
1 -33 7 -64 12 -69 10 -10 63 90 57 107 -2 7 -12 -7 -22 -31 -10 -24 -19 -41
-21 -39 -6 5 35 130 56 172 23 46 26 35 6 -23 -13 -35 -13 -40 -1 -35 16 5 24
47 22 106 0 20 -2 37 -2 37 -1 0 -11 -10 -23 -23z"/>
<path d="M2664 3538 c-38 -42 -75 -109 -72 -131 2 -12 14 -27 28 -34 l25 -13
-27 0 c-17 0 -28 -6 -31 -17 -4 -17 -5 -17 -6 0 -1 21 -14 22 -32 1 -11 -14
-9 -19 11 -34 23 -18 25 -18 32 -2 5 14 7 14 7 -4 1 -23 36 -60 44 -47 3 4 10
33 15 63 6 31 14 68 18 84 6 26 5 28 -11 22 -18 -6 -18 -5 1 15 10 11 18 23
16 25 -1 2 0 15 4 28 3 13 4 34 2 46 l-3 22 -21 -24z m-24 -123 c0 -2 -10 -9
-22 -15 -22 -11 -22 -10 -4 4 21 17 26 19 26 11z"/>
<path d="M2716 3544 c-9 -23 -7 -64 2 -64 5 0 17 9 26 19 14 15 15 24 6 40
-13 25 -26 27 -34 5z"/>
<path d="M2068 3497 c-26 -16 -45 -34 -42 -38 3 -5 30 -9 60 -9 31 0 53 -4 50
-9 -4 -5 13 -12 36 -16 24 -4 50 -11 58 -16 27 -15 -8 -10 -82 12 -38 11 -79
19 -91 17 -20 -3 -19 -5 12 -22 67 -36 136 -47 252 -40 60 4 112 10 114 14 3
4 -15 24 -40 44 -35 29 -50 35 -70 30 -30 -7 -26 -14 18 -32 21 -8 23 -10 7
-6 -14 3 -61 11 -105 18 -70 12 -75 14 -40 17 l40 4 -40 24 c-68 40 -85 41
-137 8z"/>
<path d="M3346 3501 c-38 -6 -37 -7 62 -39 86 -28 104 -31 122 -20 22 14 35
42 25 58 -7 11 -143 11 -209 1z"/>
<path d="M2413 3489 c-18 -5 -33 -12 -33 -15 0 -9 41 -42 72 -59 26 -14 28
-14 63 28 35 40 35 42 14 45 -12 2 -26 -2 -31 -10 -7 -10 -10 -10 -19 5 -11
19 -19 20 -66 6z"/>
<path d="M2751 3491 c-27 -17 -20 -42 21 -72 23 -16 43 -27 45 -25 5 5 -21 66
-38 88 -10 12 -19 15 -28 9z"/>
<path d="M3570 3477 c0 -15 9 -29 25 -37 18 -9 23 -19 19 -32 -4 -13 0 -18 13
-19 17 0 17 -1 -1 -8 -16 -6 -10 -15 45 -64 35 -31 71 -57 80 -57 18 0 76 77
66 87 -4 3 -24 9 -44 13 -35 7 -34 8 19 9 53 1 58 3 85 39 53 67 53 66 -13 60
-58 -5 -58 -5 -19 7 l39 12 -33 6 c-18 4 -89 7 -157 7 -123 0 -124 0 -124 -23z
m153 -104 c-7 -2 -19 -2 -25 0 -7 3 -2 5 12 5 14 0 19 -2 13 -5z"/>
<path d="M3260 3465 c-7 -8 -23 -15 -36 -15 -19 0 -31 -17 -75 -105 -29 -57
-50 -107 -47 -110 5 -5 32 5 123 45 22 9 87 36 145 59 125 49 138 57 125 70
-9 8 -136 50 -196 65 -18 4 -31 1 -39 -9z"/>
<path d="M2566 3436 c-28 -37 -50 -86 -38 -86 18 1 42 30 42 51 0 14 7 35 16
47 24 35 9 26 -20 -12z"/>
<path d="M3120 3455 c-71 -25 -210 -94 -210 -104 0 -6 10 -13 23 -15 12 -3 31
-7 42 -9 11 -3 2 -5 -20 -6 -38 -2 -39 -2 -20 -17 59 -46 103 -64 127 -55 30
11 44 41 26 53 -9 5 -6 8 8 8 16 0 26 11 37 38 9 20 22 53 31 74 19 43 8 51
-44 33z m-67 -142 c-7 -2 -21 -2 -30 0 -10 3 -4 5 12 5 17 0 24 -2 18 -5z"/>
<path d="M3992 3458 c-13 -13 -15 -53 -6 -111 5 -29 10 -35 20 -27 10 9 11 7
7 -9 -7 -28 15 -27 111 4 85 28 100 30 91 14 -4 -6 3 -23 16 -37 22 -25 22
-25 -8 2 l-32 29 -80 -23 c-44 -13 -78 -27 -76 -31 4 -6 84 -22 223 -45 24 -4
32 -2 27 6 -4 7 0 10 11 8 15 -2 20 4 22 31 8 78 -19 109 -124 145 -43 14 -80
24 -83 21 -2 -3 12 -22 32 -43 20 -21 37 -42 37 -47 0 -6 -18 10 -39 35 l-40
45 -41 -45 -41 -45 36 51 c19 28 35 54 35 57 0 2 -12 8 -27 11 -16 4 -35 9
-43 12 -9 2 -21 -1 -28 -8z"/>
<path d="M3891 3404 c-38 -50 -39 -47 31 -84 52 -28 61 -26 55 13 -3 17 -9 51
-12 75 -9 56 -30 55 -74 -4z"/>
<path d="M2702 3432 c-7 -5 -20 -50 -28 -100 l-16 -92 23 -20 c13 -11 27 -19
30 -20 3 0 30 25 58 55 34 36 51 61 47 71 -3 9 -6 24 -6 35 0 11 -18 32 -42
49 -45 33 -47 33 -66 22z"/>
<path d="M4383 3398 c-13 -6 -23 -17 -23 -23 0 -7 -7 -18 -15 -25 -17 -15 -22
-126 -5 -115 10 6 90 158 90 170 0 8 -23 5 -47 -7z"/>
<path d="M4401 3312 c-23 -45 -41 -84 -41 -87 0 -3 16 -5 35 -5 53 0 75 30 68
94 -10 87 -17 87 -62 -2z"/>
<path d="M3405 3339 c-38 -17 -116 -50 -171 -73 -56 -22 -103 -45 -105 -51 -2
-5 27 -16 65 -24 63 -13 72 -13 99 3 21 12 27 13 18 3 -9 -12 -4 -15 30 -20
23 -3 53 -1 66 4 13 5 41 6 62 3 36 -6 178 19 210 36 22 12 -110 24 -150 14
-19 -4 -59 -7 -89 -5 -30 1 -67 -2 -82 -8 -22 -8 -28 -8 -28 3 0 27 12 45 26
39 11 -4 144 91 144 104 0 9 -32 -1 -95 -28z"/>
<path d="M3450 3306 c-38 -28 -69 -55 -70 -60 0 -4 21 -5 48 -2 26 3 101 5
167 5 l120 -1 -20 22 c-46 52 -98 84 -137 86 -33 2 -50 -6 -108 -50z"/>
<path d="M3816 3305 c-15 -19 -24 -40 -21 -46 7 -11 56 -6 129 13 l39 10 -49
29 c-27 16 -54 29 -60 29 -7 0 -24 -16 -38 -35z"/>
<path d="M2520 3298 c1 -12 16 -52 35 -88 l35 -65 -3 68 c-2 65 -4 69 -34 88
l-33 21 0 -24z"/>
<path d="M2880 3303 c-8 -3 -21 -12 -27 -21 -12 -14 -13 -14 -13 3 0 15 -13 6
-55 -35 -30 -30 -55 -58 -55 -61 0 -4 14 -17 30 -29 24 -17 34 -19 44 -11 11
9 15 9 18 -1 4 -10 27 -6 99 18 105 34 123 55 72 85 -16 9 -44 25 -63 36 -19
12 -42 18 -50 16z"/>
<path d="M2601 3233 c0 -16 3 -46 7 -68 l7 -40 13 54 c9 40 9 57 1 67 -18 22
-29 16 -28 -13z"/>
<path d="M2646 3198 c-3 -13 -6 -36 -6 -52 l0 -30 30 29 c35 33 37 43 13 61
-25 18 -30 17 -37 -8z"/>
<path d="M3852 3210 c-18 -4 -41 -15 -51 -24 -10 -9 -34 -21 -52 -26 -35 -10
-148 -114 -137 -125 6 -7 36 12 145 90 35 24 79 49 99 54 21 6 103 8 193 5
186 -5 178 11 -13 26 -137 11 -139 11 -184 0z"/>
<path d="M3104 3176 c-3 -8 -3 -20 0 -25 4 -6 -6 -3 -21 5 -27 14 -29 13 -61
-23 l-34 -38 56 -3 c45 -2 65 2 116 28 34 17 64 29 67 26 6 -5 -39 -30 -171
-93 -101 -49 -125 -52 -39 -5 l58 31 -50 1 c-45 0 -53 -3 -76 -33 -14 -17 -29
-39 -34 -47 -8 -13 -6 -13 8 -1 9 7 23 11 31 8 20 -8 171 39 186 58 7 8 27 15
45 15 32 0 171 52 189 70 7 7 -12 10 -52 10 -53 0 -94 5 -190 26 -14 3 -25 -1
-28 -10z"/>
<path d="M2925 3154 c-103 -36 -105 -37 -65 -44 l35 -7 -37 -2 c-20 0 -38 -6
-40 -12 -3 -9 -10 -9 -27 1 -24 12 -111 6 -111 -9 0 -4 18 -13 41 -20 23 -7
39 -14 36 -17 -2 -2 -17 0 -32 6 -57 22 -33 2 27 -22 94 -38 129 -35 175 15
l38 42 -35 6 -35 6 41 2 c39 1 55 13 88 69 11 18 -19 14 -99 -14z"/>
<path d="M3670 3169 c-146 -27 -143 -25 -174 -84 -17 -30 -27 -57 -24 -60 3
-4 25 19 48 49 43 57 65 76 36 31 -9 -14 -23 -36 -32 -50 -28 -43 -3 -28 52
33 68 73 70 62 3 -18 -28 -34 -48 -64 -45 -67 3 -4 45 31 94 78 76 73 102 102
90 98 -1 -1 -23 -5 -48 -10z"/>
<path d="M3823 3149 c-62 -32 -178 -128 -157 -129 6 0 29 12 50 27 125 85 127
85 277 88 76 1 132 -2 125 -7 -7 -4 -66 -8 -131 -8 -98 0 -124 -3 -157 -20
-22 -11 -40 -22 -40 -23 0 -2 51 -2 113 -1 61 2 102 0 90 -2 -13 -3 -23 -12
-23 -20 0 -12 12 -14 57 -12 62 3 82 23 36 35 -23 6 -15 9 48 19 42 6 87 15
100 18 l24 7 -25 -14 c-14 -8 -45 -18 -69 -22 -39 -6 -42 -9 -28 -23 14 -14
18 -13 41 1 14 9 27 13 31 8 3 -5 -11 -15 -30 -21 -19 -6 -35 -15 -35 -19 0
-4 -46 -9 -102 -10 -56 -1 -104 -4 -107 -7 -11 -11 15 -18 97 -24 51 -5 103
-15 122 -25 50 -26 105 -6 155 55 l20 24 -35 -21 c-51 -30 -88 -36 -106 -19
-12 13 -10 14 19 9 39 -6 88 15 111 49 22 31 20 41 -6 35 -21 -5 -21 -5 -5 7
23 18 22 26 -5 26 -13 0 -30 5 -38 10 -12 8 -10 10 8 10 14 0 21 4 17 11 -5 6
-57 10 -143 9 -76 -1 -159 2 -187 5 -44 6 -58 3 -112 -26z m380 -16 c-7 -2
-21 -2 -30 0 -10 3 -4 5 12 5 17 0 24 -2 18 -5z m41 -58 c-7 -17 -20 -20 -28
-6 -4 5 0 12 6 14 23 9 28 7 22 -8z"/>
<path d="M2679 3134 l-34 -37 54 6 c67 8 81 19 56 47 -25 28 -36 25 -76 -16z"/>
<path d="M3473 3118 c-13 -6 -23 -19 -23 -29 0 -31 15 -28 38 7 23 36 21 39
-15 22z"/>
<path d="M3302 3068 c-69 -29 -73 -32 -67 -57 8 -36 107 -131 136 -131 20 0
16 8 -36 62 l-60 62 53 -48 c29 -26 56 -46 59 -43 7 7 -37 79 -54 90 -7 5 -11
12 -8 18 9 14 25 11 25 -6 0 -8 9 -19 21 -25 11 -7 18 -17 16 -24 -3 -6 2 -21
10 -31 11 -16 15 -17 22 -6 16 26 -11 171 -32 171 -7 0 -45 -15 -85 -32z"/>
<path d="M3870 3061 l-55 -6 63 -9 c35 -4 66 -6 69 -3 6 7 -6 28 -15 25 -4 -1
-32 -4 -62 -7z"/>
<path d="M3723 3025 c-18 -8 -33 -17 -33 -21 0 -12 102 7 117 22 13 12 10 14
-19 14 -18 -1 -48 -7 -65 -15z"/>
<path d="M2401 2866 l-164 -164 35 -15 c19 -8 81 -30 137 -48 100 -33 101 -33
120 -14 15 16 23 50 35 168 18 161 20 237 8 237 -4 0 -81 -74 -171 -164z"/>
<path d="M2618 3023 c-10 -2 -18 -8 -18 -11 0 -4 -7 -72 -15 -152 -17 -167
-19 -240 -6 -240 4 0 93 57 197 126 229 154 229 146 -1 -14 -93 -64 -173 -125
-179 -135 -9 -15 -6 -23 19 -43 17 -13 53 -36 82 -50 64 -32 81 -49 56 -58
-12 -5 -23 1 -36 18 -20 27 -125 92 -134 82 -12 -12 133 -326 151 -326 7 0 29
33 51 73 21 39 47 88 58 107 11 19 58 105 105 190 46 85 89 160 95 165 6 6 -3
-15 -20 -45 -17 -30 -60 -112 -97 -182 l-67 -126 88 -54 c176 -108 211 -128
227 -128 14 0 16 30 17 293 0 160 4 301 9 312 5 12 9 -109 9 -292 1 -172 4
-313 8 -313 4 0 28 19 53 43 l45 42 -43 -46 c-51 -54 -48 -71 14 -95 56 -21
52 -29 -5 -9 -66 23 -71 13 -71 -149 0 -106 3 -136 13 -136 18 0 177 215 177
239 0 6 5 11 10 11 16 0 14 -4 -58 -107 -101 -145 -110 -158 -91 -147 9 5 71
52 137 104 117 90 121 95 100 107 -22 12 -22 12 7 7 24 -4 39 2 76 31 41 31
47 42 53 84 8 59 -28 185 -62 219 -13 13 -22 35 -22 52 0 53 -148 314 -172
305 -8 -3 -22 9 -32 27 -11 18 -52 66 -93 107 -65 66 -75 72 -90 60 -15 -12
-16 -12 -10 4 8 20 3 21 -26 5 -20 -10 -21 -10 -7 7 14 16 12 17 -20 10 -74
-16 -188 -56 -200 -70 -16 -20 -59 -19 -67 1 -3 8 -40 32 -82 53 -85 43 -108
50 -133 44z m759 -505 c-2 -24 -4 -5 -4 42 0 47 2 66 4 43 2 -24 2 -62 0 -85z
m30 -158 c4 0 22 -12 38 -26 23 -20 19 -18 -18 6 -41 27 -50 30 -64 18 -13
-10 -13 -7 2 16 18 27 19 27 27 7 4 -12 11 -21 15 -21z m118 -80 c3 -5 1 -10
-4 -10 -6 0 -11 5 -11 10 0 6 2 10 4 10 3 0 8 -4 11 -10z m-150 -150 c13 -6
15 -9 5 -9 -8 0 -22 4 -30 9 -18 12 -2 12 25 0z"/>
<path d="M3725 2981 c-18 -7 -17 -10 15 -26 18 -10 57 -26 84 -36 28 -9 42
-18 32 -18 -10 -1 -57 15 -103 35 -58 25 -88 33 -95 26 -7 -7 10 -21 54 -45
71 -40 116 -53 203 -62 33 -3 75 -8 93 -11 18 -3 32 -1 32 5 0 21 -47 41 -100
43 l-55 1 49 6 c54 7 52 13 -13 46 -25 13 -35 14 -41 5 -9 -14 -106 -4 -116
12 -4 7 5 8 27 3 30 -7 32 -6 20 9 -14 17 -52 20 -86 7z"/>
<path d="M3910 2976 c0 -3 24 -21 53 -40 28 -19 63 -46 76 -60 18 -19 35 -26
65 -27 l41 -1 -35 -11 c-33 -10 -33 -11 -10 -15 20 -3 36 8 88 63 34 37 61 70
59 72 -2 2 -23 -5 -46 -16 -24 -10 -52 -16 -64 -13 -13 3 -16 7 -9 10 10 3 8
8 -5 17 -19 13 -213 32 -213 21z m193 -53 c-7 -2 -19 -2 -25 0 -7 3 -2 5 12 5
14 0 19 -2 13 -5z m20 -40 c-7 -2 -19 -2 -25 0 -7 3 -2 5 12 5 14 0 19 -2 13
-5z"/>
<path d="M3565 2933 c27 -42 57 -73 66 -67 4 2 15 -6 24 -19 27 -42 128 -80
220 -84 68 -3 193 12 183 22 -2 2 -57 5 -124 7 -111 3 -125 6 -185 35 -35 18
-92 55 -127 82 -34 28 -65 51 -68 51 -4 0 2 -12 11 -27z"/>
<path d="M3625 2930 c11 -13 50 -43 87 -67 56 -36 80 -45 140 -53 92 -12 189
-12 207 -1 21 13 4 18 -114 30 -129 14 -154 21 -260 74 -67 33 -77 36 -60 17z"/>
<path d="M3530 2922 c0 -27 146 -162 175 -162 4 0 3 5 0 10 -3 6 9 1 28 -10
38 -23 127 -38 127 -23 0 6 -18 13 -39 16 -65 8 -168 66 -232 129 -41 41 -59
53 -59 40z"/>
<path d="M3437 2924 c-4 -4 -7 -13 -7 -20 0 -22 64 -124 79 -124 7 0 11 6 8
13 -3 6 -13 32 -22 57 -20 49 -47 85 -58 74z"/>
<path d="M3410 2867 c0 -7 7 -23 16 -35 9 -13 14 -26 11 -29 -3 -2 8 -27 24
-55 17 -28 44 -78 61 -112 17 -33 33 -56 35 -50 5 16 -50 143 -97 223 -41 72
-50 82 -50 58z"/>
<path d="M2806 2307 c-58 -107 -56 -134 17 -193 l50 -41 43 16 c24 9 46 20 50
24 4 4 13 7 21 7 28 0 173 62 173 74 0 10 -289 196 -304 196 -3 0 -25 -37 -50
-83z"/>
<path d="M3016 2116 c-66 -23 -121 -47 -122 -52 -2 -8 95 -87 219 -178 33 -25
38 -26 29 -9 -9 17 -110 157 -145 201 -5 6 -7 12 -4 12 2 0 42 -49 88 -110 46
-60 89 -110 95 -110 13 0 25 175 15 240 -5 39 -9 45 -31 47 -14 1 -79 -17
-144 -41z"/>
<path d="M2973 1733 c9 -2 25 -2 35 0 9 3 1 5 -18 5 -19 0 -27 -2 -17 -5z"/>
<path d="M3398 1733 c12 -2 30 -2 40 0 9 3 -1 5 -23 4 -22 0 -30 -2 -17 -4z"/>
<path d="M2250 953 c0 -30 -6 -49 -20 -63 -19 -19 -33 -20 -250 -20 l-230 0 0
-30 0 -30 261 3 261 2 29 33 c25 28 29 40 29 90 0 31 -4 53 -8 47 -9 -13 -55
-14 -64 0 -4 5 -8 -9 -8 -32z"/>
<path d="M3230 900 c0 -57 4 -90 9 -81 6 9 11 10 15 2 4 -6 18 -11 32 -11 24
0 24 2 24 84 l0 83 -32 -3 c-18 -2 -35 1 -40 8 -4 7 -8 -30 -8 -82z"/>
<path d="M3597 935 c57 -69 100 -108 120 -111 10 -1 37 -5 61 -9 l42 -8 0 84
0 84 -40 3 c-40 2 -40 2 -40 -33 0 -19 -3 -35 -6 -35 -3 0 -24 13 -47 29 -28
18 -52 28 -72 26 -16 -1 -37 3 -45 9 -8 6 4 -11 27 -39z"/>
<path d="M2727 932 c-3 -25 -3 -61 0 -81 5 -35 7 -37 44 -40 l39 -2 0 83 0 83
-39 0 c-39 0 -39 0 -44 -43z"/>
<path d="M4247 1116 c-31 -57 -57 -107 -57 -110 0 -3 52 -6 115 -6 63 0 115 2
115 5 0 7 -111 215 -114 215 -2 0 -28 -47 -59 -104z"/>
<path d="M4053 972 c-40 -66 -85 -154 -75 -148 7 4 12 2 12 -3 0 -6 13 -11 29
-11 25 0 34 8 61 55 l31 55 193 0 193 0 27 -50 c15 -28 32 -48 37 -45 5 4 9 2
9 -3 0 -6 18 -12 40 -14 22 -2 40 -3 40 -2 0 1 -23 42 -50 91 l-50 90 -45 0
c-25 0 -45 -4 -45 -10 0 -8 -135 -5 -351 8 -34 2 -48 -1 -56 -13z"/>
<path d="M2030 550 l0 -60 35 0 c47 0 79 32 70 68 -8 35 -31 52 -72 52 l-33 0
0 -60z"/>
<path d="M2857 565 l-17 -35 36 0 c31 0 35 3 29 18 -4 9 -10 25 -12 35 -8 26
-17 21 -36 -18z"/>
<path d="M3347 565 l-17 -35 35 0 c19 0 35 2 35 5 0 8 -30 65 -33 65 -2 0 -11
-16 -20 -35z"/>
</g>
</svg>
