<svg width="256" height="256" viewBox="0 0 256 256" fill="none" xmlns="http://www.w3.org/2000/svg">
<g clip-path="url(#clip0_107_30)">
<rect width="256" height="256" rx="128" fill="white"/>
<path d="M0 0H256V256H0V0Z" fill="#1D0C40"/>
<path d="M0 20C0 20 40.5679 16.8695 66.25 20C93.8691 23.3666 107.582 34.8108 135.25 37.75C182.646 42.7849 256 20 256 20V256H0V20Z" fill="#350E61"/>
<path d="M0 39.5C0 39.5 11 83 62.75 63.75C114.5 44.5 207 17 256 63.75V256H0V39.5Z" fill="#531085"/>
<path d="M0 86.5C0 86.5 21.4363 72.7058 53.5 75.5C88.5422 78.5537 133.25 116.25 166.75 98C200.25 79.75 241 75.5 256 86.5V256H0V86.5Z" fill="#7A11AC"/>
<path d="M0 133.5C0 133.5 30.7702 123.552 51.75 126.5C80.9192 130.599 96.5521 150.433 126 149.75C153.611 149.109 170.53 131.175 197.75 126.5C222.479 122.253 256 133.5 256 133.5V256H0V133.5Z" fill="#A524C5"/>
<path d="M0 182.5C0 182.5 46.7357 192.467 76.75 190C105.921 187.603 119.988 171.668 149.25 171C174.541 170.422 187.766 180.701 213 182.5C229.75 183.694 256 182.5 256 182.5V256H0V182.5Z" fill="#C44AD0"/>
<path d="M0 214.5C0 214.5 27.4347 203.454 49.25 200.25C80.4683 195.665 95.8267 211.641 127.25 214.5C154.63 216.991 169.762 206.444 197.25 207C220.375 207.468 256 214.5 256 214.5V256H0V214.5Z" fill="#D970D6"/>
<path d="M161.042 127H171.692V179.5H161.942V170.65C157.942 173.85 153.242 176.3 147.842 178C142.542 179.6 136.842 180.4 130.742 180.4C121.342 180.4 112.592 178.3 104.492 174.1C96.4922 169.9 90.0422 163.8 85.1422 155.8C80.2422 147.8 77.7922 138.3 77.7922 127.3C77.7922 117.1 80.1922 107.95 84.9922 99.85C89.7922 91.65 96.3922 85.25 104.792 80.65C113.192 75.95 122.692 73.6 133.292 73.6C141.292 73.6 148.642 74.9 155.342 77.5C162.042 80 167.692 83.75 172.292 88.75L165.392 95.8C157.092 87.6 146.542 83.5 133.742 83.5C125.242 83.5 117.542 85.4 110.642 89.2C103.842 92.9 98.4922 98.1 94.5922 104.8C90.6922 111.5 88.7422 119 88.7422 127.3C88.7422 136.2 90.6922 143.95 94.5922 150.55C98.5922 157.05 103.842 162.05 110.342 165.55C116.942 168.95 123.992 170.65 131.492 170.65C136.992 170.65 142.292 169.75 147.392 167.95C152.592 166.05 157.142 163.2 161.042 159.4V127Z" fill="white"/>
</g>
<rect x="4.5" y="4.5" width="247" height="247" rx="123.5" stroke="white" stroke-width="9"/>
<defs>
<clipPath id="clip0_107_30">
<rect width="256" height="256" rx="128" fill="white"/>
</clipPath>
</defs>
</svg>
