<svg fill="none" width="256" height="256" viewBox="0 0 16 17" xmlns="http://www.w3.org/2000/svg">
<rect fill="#fe2c85" height="16" rx="8" width="16" y=".5"/>
<g fill="#ffffff">
<path d="m.507315 6.18944c-.225025-.21749-.4655691-.41888-.729392-.58805-.240544-.18527-.558683-.20944-.814743-.05638-.12416.06444-.30262.22555-.43453.25777-.45006.12083-.86131.06445-1.31912.08056-.0388 0-.07759.00805-.11639.00805v.03222c.02328.00806.05432.01611.07759.02417.46557.08861.86907.12083 1.33464.0725.2095-.02417.496604-.08861.690591-.16111.178469-.0725.372456-.08055.558684-.01611.2871007.11278.550923.29.768189.51555.263823.25777.519886.53166.775946.79749v-.10472c-.25606-.29-.519883-.57999-.791465-.86194z"/><path d="m4.31569 12.1011c0 .008-.00783.0161-.00783.0241.03132.2006.07047.321.14877.4093 0 0 .09396.1765.30537.1444.14877-.1123.3915-.4093.50112-.5537.02349-.0241.03915-.0562.06264-.0883-.11745.0321-.24273.0482-.34452.0642-.2349.0241-.44631.0241-.66555 0z"/><path d="m8.11322 11.74c-.18792.016-.36018.0241-.52461.008-.01566.0722-.02349.1445-.01566.2167.01566.3692-.03132.7383-.13311 1.0915.00783-.0322.01566-.0562.01566-.0723-.00783.0401-.02349.1044-.03132.1124-.00783.1765-.01566.1123-.10179.6019 0 .1685.21141.2408.37584.2729.1566.0401.3132-.0321.3915-.1766.09396-.1525.16443-.313.21924-.4896.0783-.2969.10962-.6099.21141-.9068.0783-.289.18792-.5618.32103-.8347-.07047 0-.14094.0161-.20358.0401-.14877.0723-.36801.1124-.52461.1365z"/><path d="m11.0026 8.62611.0391.04012-.0156-.27286-.0783-.32102c0-.01605 0-.02407 0-.04013-.047.04013-.094.08026-.1332.12039-.274.20866-.5402.35312-.85343.48152.01566.03211.02349.07223.03913.10433.0157.05618.0392.12039.0548.17656.0392.15249.0783.30497.094.45745.0078.09631.0078-.0321.0235.21669-.0157.19261-.0235.22471-.047.32905-.0391.12839-.0235.10429-.1253.21669l-.11743.4574s0 .0803.0783.0803c.04703 0 .07043-.0642.07833-.0722.1174-.1284.1253-.0883.1409-.0723v.1124c-.0783.1926-.0626.3852-.0626.4253-.0313.0723-.1175.2408-.1175.2408s.1331.0642.1879 0c.0392-.0401.1097-.1525.1332-.1766.0156 0 .0313.0081.0391.0081l-.0705.0963.2584-.1124.0627-.0802c.0939-.0241.2035-.1445.2505-.2568.0235-.0562.0392-.1124.0392-.1606.0313-.0963.047-.2006.047-.321.0078-.1364.0234-.2648.0548-.39322 0 0 .1566-.8186.1566-.98713l-.1253-.16853c-.0235-.04816-.0235-.08829-.0313-.12841z"/><path d="m11.2218 5.55235-.0156.01606c.0078.04815 0 .0963-.0314.14445-.0078.02408-.0235.04013-.0391.05618-.0313.0321-.0627.04815-.1018.05618-.0235 0-.0392 0-.0548 0-.0078 0-.0235-.00803-.0313-.00803-.0314-.01605-.0548-.05617-.0627-.0963.0079-.00803.0079-.01605.0079-.02408.0078.00803.0156.01605.0234.01605.047.02408.1097-.00802.141-.08025s.0156-.13643-.0313-.16051c-.0079 0-.0157 0-.0235 0 .0313-.01605.0626-.02408.0939-.01605.0157 0 .0314.00802.047.01605 0 0 0 .00803.0078.00803.0314.02407.0549.05617.0549.0963l.0156-.02408.0861-.1284v.01605l.1958-.24879-.3837-1.01121-.0078-.00802c-.0313-.08026-.0783-.15249-.1409-.20064-.0627-.05618-.1332-.10433-.2115-.14446-.1487-.08828-.2975-.16051-.4541-.23274-.2975-.13643-.60291-.24879-.90828-.35312-.33669-.0963-.65772.16854-.81432.32102h-.36018l-.16443.51363-.13311-.0321-.07047.20866.12528.20866c-.08613.24879-.17226.48956-.25839.73834-.01566 0-.02349-.00802-.03915-.00802-.17226 0-.3132.12038-.36018.28089-.09396.02408-.18009.0642-.25839.10433h-.0783l-.36801.10433.10179.09631c-.03132.02407-.07047.04815-.10179.07223l-.11745-.04013-.10962.13643-.28971.31299-.43848.33707v.04816c-.07047.0642-.14877.1284-.21924.19261 0 0-.00783 0-.00783.00802-.09396.09631-.18792.19261-.28188.28892-.02349.0321-.07047.08828-.09396.12841-.04698-.03211-.16443-.12039-.20358-.14446-.04698-.0321-.44632-.32102-.50113-.35312-.16443-.10433-.32886-.20866-.49329-.31299-.24273-.14446-.45414-.08828-.61074.15248-.09396.15248-.18009.32102-.25056.48955-.10962.24077-.19575.49758-.32103.73032-.13311.24076-.3132.27286-.52461.0963-.11745-.0963-.21924-.20063-.32103-.31299-.12528-.13643-.25056-.27286-.36801-.40127l-.04698.04013c.08613.08828.17226.17656.25056.26484.14877.1605.30537.31299.46197.45745.25839.21668.50895.20866.75951-.02408.14877-.13643.27405-.30497.41499-.44943.13311-.14445.26622-.28891.40716-.42534.13311-.12841.32103-.17656.50112-.12841.04698.01605.09396.0321.14094.04815.10962.0642.50896.26484.62641.33707-.06264.05618-.09396.12841-.13311.19261-.06264.04815-.13311.12038-.17226.22471-.05481.08026-.08613.17656-.10179.26484-.03915.09631-.06265.17656-.06265.17656l.03915.48153c-.03132-.02408.07048.07223.07048.07223l.07047.07223.07047.08025.0783.05618.11745-.05618h.09396.03915l.01566-.08828-.14877-.1284v-.02408c.03132-.20064.09396-.24879.10179-.27287 0 0 .14877-.1284.21141-.13643.02349.05618-.01566.13643-.01566.13643.00783.08026.01566.12841.03915.15249.03915.02407 0 0 .03915.02407.03132-.00802.03132.00803.09396-.0321.03132-.05618.02349-.05618.04698-.12841.12528-.25681-.00783-.35311.2349-.56178.14877.12039.3132.22472.48546.32102.0783.04815.16443.07223.25056.08026l-.09396.15248-.09396.35312c-.04698.07223-.09396.14446-.14877.20866-.11745.15248-.2349.30497-.36801.44943-.14877.14445-.25839.31299-.33669.5056-.1566.11235-.25056.32105-.21924.54575v.0241c-.1566.329-.34452.65-.55593.947-.06265.0722-.11746.1605-.16444.2488-.04698.1043-.09396.2086-.12528.321.21925 0 .43849 0 .66556-.0562.10179-.0241.2349-.1364.32886-.1846.07047-.0401.14094-.0562.21141-.0642.02349-.0401.04698-.0722.07047-.1043.03132-.0402.06264-.0803.09396-.1124.14094-.1123.27405-.2407.3915-.3772.05481-.0802.11745-.1525.18792-.2247.05481-.1926.19575-.3451.38367-.3772.11745-.1204.2349-.2488.34452-.3852.0783-.0803.16443-.1525.25839-.2167l.09396.0642.00783.00803.12528.08827c.00783.0803.10179.1124.10179.2006-.01566.3291 0 .618.03915 1.1477 0 .0321 0 .0642-.00783.0883-.00783.0481-.01566.0963-.03132.1444.17226 0 .34452-.008.52461-.0562.10179-.024.2349-.1364.32886-.1845.14094-.0723.29754-.0883.43848-.0482.10962-.4414.21924-.955.28971-1.39642l.08613-.20866h-.03915c.00783-.04013.01566-.08828.02349-.12841 0-.00803.00783-.01605.00783-.01605 0-.00803.00783-.00803.00783-.01605l.10962-.01605.06264-.29695.2349-.56178c0-.01605.00783-.0321.00783-.05618.03132 0 .05481-.00802.0783-.00802l-.03915-.05618.0783.04815c.04698-.01605.08613-.0321.12528-.05618.28974-.19261.56374-.32101.81434-.5698.0705-.06421.1174-.20866.1722-.29694l-.0626-.30497s0 0 0-.00803c-.0626-.22471-.1566-.4414-.274-.65006-.0157-.0321-.0235-.07223-.0079-.11235.0783-.16854.1645-.33707.2506-.51363l.0783-.11236c.1644-.02408.3132-.15248.3837-.33707.0313-.08025.0391-.16853.0313-.24879zm-4.16555 1.49274c-.10179.17656.02349.13643-.13311.24879-.00783.01605-.01566.0321-.01566.04815-.03915.10433-.07047.21669-.11745.33707l-.17226.15248.03915.09631-.03132.04815-.03915.07223c-.00783 0-.01566 0-.01566.00803-.10962.0321-.2349.0321-.34452 0-.16443-.05618-.28188-.14446-.39933-.24077l.02349-.02407.51678-.3451.04698-.12038c.13311-.07223.27405-.13643.41499-.19261.06264-.02408.11745-.04815.18009-.0642-.00783-.01606.00783-.01606.04698-.02408zm.79866 1.25197c-.13311 0-.24273-.12038-.25056-.27287h.16443-.00783c0 .07223.06264.12841.13311.12841s.13311-.0642.13311-.13643-.06264-.13643-.13311-.13643c-.05481 0-.10179.0321-.12528.08025-.05481-.00802-.10962-.01605-.16443-.01605.01566-.14446.12528-.25681.25056-.25681.14094 0 .25839.13643.25839.30496 0 .16854-.11745.30497-.25839.30497zm.52461-4.22139c.01566 0 .03132.00803.04698.00803.04698.01605.0783.0642.09396.1284-.00783-.00802-.00783-.00802-.01566-.00802-.04698-.00803-.09396.0321-.10962.10433s.00783.13643.05481.14446c-.02349.01605-.04698.02407-.07047.02407-.06264 0-.12528-.05617-.14094-.1284-.00783-.02408-.00783-.04013-.00783-.06421 0-.12038.07047-.20866.14877-.20866zm.85347 2.51197c-.01566.01605-.03915.0321-.05481.04815-.37584-.04815-.7047-.28892-.8613-.65809-.18792-.43337-.0783-.93095.27405-1.24394.11745.38522.3915.61796.7047.81057.13311.08025.26622.15248.41499.20064-.06264.18458-.22707.60993-.47763.84267zm.22707.19261c.00783-.00803.03132-.02408.06264-.05618-.03132.0321-.05481.05618-.06264.05618zm.18792-.18459c.1566-.18458.38372-.46547.51682-.74636.0548.00802.1096.00802.1644.00802-.0392.31299-.3289.61796-.68122.73834z"/>
</g>
</svg>