<?xml version="1.0" encoding="UTF-8"?><svg id="Layer_1" xmlns="http://www.w3.org/2000/svg" viewBox="0 0 267.65 267.65"><defs><style>.cls-1{fill:#ffbb51;}.cls-2{fill:#161e53;}</style></defs><circle class="cls-2" cx="133.83" cy="133.83" r="133.83"/><path class="cls-1" d="M179.67,88.16l9.38-24.96h-15.41l-6.19,16.41c-3.39-1.78-6.95-3.21-10.63-4.27l4.58-12.15h-15.41l-3.74,9.92c-.49,0-.98-.03-1.48-.03h-17.9c-2.38-.3-4.72-.83-6.99-1.6-.79-.26-1.56-.55-2.32-.86l-5.08,13.48h0l-39.37,104.47h29.65l-5.99,15.89h15.41l6-15.89h12.24l-5.99,15.89h15.41l5.99-15.9c31.87-.54,57.26-26.82,56.72-58.69-.27-15.91-7.1-31-18.87-41.71Zm-89.73,85.99l32.66-86.63c1.47,.14,2.94,.2,4.41,.2s3.01-.07,4.48-.21h5.36l-32.66,86.64h-14.25Zm29.65,0l32.16-85.25c3.71,.98,7.27,2.44,10.6,4.35l-30.52,80.89h-12.24Zm51.84-12.7c-6.49,6.53-14.9,10.81-24,12.19l26.61-70.57c14.39,17.2,13.25,42.53-2.61,58.38h0Z"/></svg>