<?xml version="1.0" encoding="UTF-8"?>
<!DOCTYPE svg PUBLIC "-//W3C//DTD SVG 1.1//EN" "http://www.w3.org/Graphics/SVG/1.1/DTD/svg11.dtd">
<svg xmlns="http://www.w3.org/2000/svg" version="1.1" width="256px" height="256px" style="shape-rendering:geometricPrecision; text-rendering:geometricPrecision; image-rendering:optimizeQuality; fill-rule:evenodd; clip-rule:evenodd" xmlns:xlink="http://www.w3.org/1999/xlink">
<g><path style="opacity:1" fill="#fffefe" d="M -0.5,-0.5 C 84.8333,-0.5 170.167,-0.5 255.5,-0.5C 255.5,84.8333 255.5,170.167 255.5,255.5C 170.167,255.5 84.8333,255.5 -0.5,255.5C -0.5,170.167 -0.5,84.8333 -0.5,-0.5 Z"/></g>
<g><path style="opacity:1" fill="#ff4440" d="M 170.5,16.5 C 179.436,22.2684 186.936,29.6017 193,38.5C 213.417,74.0985 214.917,110.598 197.5,148C 203.764,153.361 207.264,160.194 208,168.5C 217.667,190.167 227.333,211.833 237,233.5C 238.569,238.625 237.069,242.459 232.5,245C 205.08,245.982 177.747,245.649 150.5,244C 147.735,241.005 146.902,237.505 148,233.5C 154.674,218.504 161.007,203.504 167,188.5C 136.222,214.986 101.056,223.486 61.5,214C 50.84,210.679 41.5067,205.346 33.5,198C 53.5897,170.488 73.923,143.155 94.5,116C 89.641,110.886 84.3076,106.22 78.5,102C 77.3914,101.362 76.2247,100.862 75,100.5C 63.9784,102.33 57.4784,97.6632 55.5,86.5C 57.3983,75.7607 63.7317,70.9274 74.5,72C 82.0757,75.3009 86.0757,81.1343 86.5,89.5C 91.6901,93.8575 97.0234,98.0242 102.5,102C 103.5,102.667 104.5,102.667 105.5,102C 127.297,73.56 148.964,45.06 170.5,16.5 Z"/></g>
<g><path style="opacity:1" fill="#fffefe" d="M 170.5,21.5 C 180.198,27.3673 187.698,35.3673 193,45.5C 206.105,70.9598 209.105,97.6265 202,125.5C 187.646,172.19 156.812,201.357 109.5,213C 84.1997,217.807 60.8663,213.14 39.5,199C 38.4829,197.951 38.3162,196.784 39,195.5C 83.0942,137.62 126.928,79.6197 170.5,21.5 Z"/></g>
<g><path style="opacity:1" fill="#ff4440" d="M 48.5,35.5 C 50.288,35.2148 51.9547,35.5481 53.5,36.5C 43.3959,41.4799 34.8959,48.4799 28,57.5C 22.8981,66.139 20.2314,75.4723 20,85.5C 17.1057,86.6148 15.939,85.4481 16.5,82C 18.6492,60.5053 29.3159,45.0053 48.5,35.5 Z"/></g>
<g><path style="opacity:1" fill="#ff4642" d="M 53.5,51.5 C 54.5,51.5 55.5,51.5 56.5,51.5C 56.67,52.8221 56.3366,53.9887 55.5,55C 43.1188,60.3956 36.6188,69.8956 36,83.5C 33.355,84.7084 32.1884,83.7084 32.5,80.5C 33.9141,66.6323 40.9141,56.9656 53.5,51.5 Z"/></g>
<g><path style="opacity:1" fill="#ff4843" d="M 56.5,66.5 C 58.288,66.2148 59.9547,66.5481 61.5,67.5C 59.1687,69.6596 56.6687,71.6596 54,73.5C 52.1539,76.5687 51.1539,79.9021 51,83.5C 50,84.8333 49,84.8333 48,83.5C 47.6394,76.2212 50.4727,70.5546 56.5,66.5 Z"/></g>
<g><path style="opacity:1" fill="#fff8f8" d="M 66.5,75.5 C 77.3472,75.1789 82.8472,80.5123 83,91.5C 89,96.1667 95,100.833 101,105.5C 101.079,108.308 99.9119,110.641 97.5,112.5C 91.8333,108 86.1667,103.5 80.5,99C 75.9491,97.7852 71.2824,97.1186 66.5,97C 60.6735,93.8672 58.5068,89.0339 60,82.5C 61.6941,79.6424 63.8607,77.309 66.5,75.5 Z"/></g>
<g><path style="opacity:1" fill="#fffafa" d="M 194.5,152.5 C 200.882,155.398 203.882,160.564 203.5,168C 201.573,182.483 193.239,189.15 178.5,188C 176.385,187.443 174.385,186.609 172.5,185.5C 171.479,184.998 171.312,184.332 172,183.5C 181.477,174.524 188.977,164.19 194.5,152.5 Z"/></g>
<g><path style="opacity:1" fill="#fffdfd" d="M 206.5,175.5 C 215.558,194.624 224.391,213.957 233,233.5C 233.667,235.833 233.667,238.167 233,240.5C 206.239,241.661 179.405,241.828 152.5,241C 150.675,239.534 150.175,237.701 151,235.5C 157.398,219.71 164.564,204.377 172.5,189.5C 188.047,194.719 199.38,190.052 206.5,175.5 Z"/></g>
</svg>
