<?xml version="1.0" encoding="UTF-8" standalone="no"?>
<!DOCTYPE svg PUBLIC "-//W3C//DTD SVG 1.1//EN" "http://www.w3.org/Graphics/SVG/1.1/DTD/svg11.dtd">
<svg width="100%" height="100%" viewBox="0 0 200 200" version="1.1" xmlns="http://www.w3.org/2000/svg" xmlns:xlink="http://www.w3.org/1999/xlink" xml:space="preserve" xmlns:serif="http://www.serif.com/" style="fill-rule:evenodd;clip-rule:evenodd;stroke-linejoin:round;stroke-miterlimit:2;">
    <g transform="matrix(1.20268,0,0,1.20268,-31.6155,-42.2391)">
        <circle cx="109.425" cy="118.269" r="80.888" style="fill:rgb(122,248,110);"/>
    </g>
    <g transform="matrix(1.03227,0,0,1.04585,-26.5448,-28.4119)">
        <circle cx="122.577" cy="122.783" r="82.845"/>
    </g>
    <path d="M98.33,128.858C98.33,128.858 96.843,134.64 96.713,134.713C96.584,134.786 142.458,165.084 157.016,150.12C172.704,133.997 137.654,95.498 122.02,80.287C107.331,65.996 60.368,34.339 45.576,49.543C36.697,58.668 53.05,73.868 53.05,73.868C53.05,73.868 43.96,60.829 50.173,54.652C61.621,43.27 102.876,73.152 115.655,86.006C124.407,94.81 158.597,131.066 148.046,141.555C138.624,150.923 104.477,128.858 104.477,128.858L98.33,128.858ZM99.061,105.538L96.213,117.718L106.917,124.19L94.453,125.245L91.606,137.425L86.75,125.898L74.287,126.953L83.75,118.773L78.894,107.246L89.598,113.718L99.061,105.538Z" style="fill:rgb(122,248,110);"/>
</svg>
