<svg width="220" height="220" viewBox="0 0 220 220" fill="none" xmlns="http://www.w3.org/2000/svg">
<g clip-path="url(#clip0_4775_18126)">
<path d="M110 220C170.751 220 220 170.751 220 110C220 49.2487 170.751 0 110 0C49.2487 0 0 49.2487 0 110C0 170.751 49.2487 220 110 220Z" fill="white"/>
<path fill-rule="evenodd" clip-rule="evenodd" d="M187.687 88.5065C162.51 64.5673 136.626 52 110.172 52C83.7186 52 57.8346 64.5673 32.6571 88.5065C30.5027 90.5549 30.4182 93.9605 32.4684 96.1131C34.5185 98.2657 37.9269 98.3501 40.0813 96.3017C64.0177 73.5425 87.3796 62.7606 110.172 62.7606C132.945 62.7606 156.287 73.5242 180.202 96.2438C180.577 96.6315 180.883 97.1651 181.061 97.7211C180.998 98.0498 180.965 98.3891 180.965 98.7361C180.965 100.007 180.546 100.691 180.205 100.983C180.132 101.046 180.06 101.111 179.99 101.178C179.404 101.737 178.818 102.289 178.233 102.834C155.943 84.3016 133.207 74.6229 110.039 74.6229C85.6287 74.6229 61.6986 85.3665 38.2649 105.889C38.2214 105.924 38.1782 105.96 38.1355 105.996L38.0774 106.046C36.2835 107.582 34.3276 109.258 32.3559 111.221C26.9637 116.279 26.5406 124.703 31.2942 130.48C31.3257 130.531 31.3581 130.581 31.3916 130.632C31.8542 131.325 32.4064 131.822 32.9275 132.172C57.9335 155.776 83.6349 168.162 109.898 168.162C136.351 168.162 162.235 155.595 187.413 131.656C189.567 129.607 189.652 126.202 187.601 124.049C185.551 121.897 182.143 121.812 179.988 123.861C156.052 146.62 132.69 157.402 109.898 157.402C87.1052 157.402 63.7433 146.62 39.8069 123.861L39.7683 123.824C38.3096 122.246 38.5742 120.13 39.7472 119.048C39.7999 118.999 39.8517 118.949 39.9024 118.899C40.4934 118.308 41.0863 117.745 41.6877 117.194C64.9817 136.59 88.7637 146.345 112.966 145.502C136.163 144.694 158.87 134.179 181.077 114.766C181.59 114.477 182.063 114.098 182.474 113.631C182.575 113.516 182.67 113.398 182.76 113.278C184.288 111.909 185.814 110.498 187.338 109.045C189.971 106.73 191.218 103.672 191.601 100.772C191.859 100.144 192 99.4566 192 98.7361C192 94.8691 190.329 91.1443 187.783 88.5996C187.751 88.5682 187.719 88.5371 187.687 88.5065ZM110.039 85.3835C129.582 85.3835 149.539 93.3384 170.029 110.023C150.468 126.088 131.338 134.095 112.591 134.748C92.2188 135.458 71.3873 127.516 49.9792 110.079C70.4937 93.3562 90.4738 85.3835 110.039 85.3835Z" fill="#B5179E"/>
<path fill-rule="evenodd" clip-rule="evenodd" d="M110 90C98.9543 90 90 98.9543 90 110C90 121.046 98.9543 130 110 130C121.046 130 130 121.046 130 110C130 98.9543 121.046 90 110 90ZM110 120C115.523 120 120 115.523 120 110C120 104.477 115.523 100 110 100C104.477 100 100 104.477 100 110C100 115.523 104.477 120 110 120Z" fill="#B5179E"/>
</g>
<defs>
<clipPath id="clip0_4775_18126">
<rect width="220" height="220" fill="white"/>
</clipPath>
</defs>
</svg>
