<?xml version="1.0" encoding="UTF-8"?>
<svg xmlns="http://www.w3.org/2000/svg" xmlns:xlink="http://www.w3.org/1999/xlink" width="341px" height="341px" viewBox="0 0 341 341" version="1.1">
<g id="surface1">
<rect x="0" y="0" width="341" height="341" style="fill:rgb(12.941177%,12.941177%,12.941177%);fill-opacity:1;stroke:none;"/>
<path style=" stroke:none;fill-rule:nonzero;fill:rgb(44.705883%,95.294118%,58.431375%);fill-opacity:1;" d="M 149.558594 105.90625 L 149.558594 62.0625 L 105.714844 62.0625 L 70.589844 97.1875 L 70.589844 161.578125 L 54.558594 177.605469 L 54.558594 221.449219 L 98.40625 221.449219 L 132.59375 187.261719 L 132.59375 122.871094 Z M 149.558594 105.90625 "/>
<path style=" stroke:none;fill-rule:nonzero;fill:rgb(44.705883%,95.294118%,58.431375%);fill-opacity:1;" d="M 241.875 66.710938 L 198.03125 66.710938 L 139.15625 125.589844 L 139.15625 189.980469 L 98.441406 230.691406 L 98.441406 274.539062 L 142.289062 274.535156 L 201.160156 215.664062 L 201.160156 151.273438 L 241.875 110.554688 Z M 241.875 66.710938 "/>
<path style=" stroke:none;fill-rule:nonzero;fill:rgb(44.705883%,95.294118%,58.431375%);fill-opacity:1;" d="M 285.757812 119.800781 L 241.914062 119.800781 L 241.914062 119.796875 L 241.914062 119.800781 L 207.722656 153.992188 L 207.722656 218.382812 L 190.714844 235.390625 L 190.714844 279.234375 L 234.558594 279.234375 L 269.726562 244.066406 L 269.726562 179.675781 L 285.757812 163.644531 Z M 285.757812 119.800781 "/>
</g>
</svg>
