<svg version="1.1" xmlns="http://www.w3.org/2000/svg" width="256" height="256">
<path d="M0 0 C84.48 0 168.96 0 256 0 C256 84.48 256 168.96 256 256 C171.52 256 87.04 256 0 256 C0 171.52 0 87.04 0 0 Z " fill="#FCFCFF" transform="translate(0,0)"/>
<path d="M0 0 C84.48 0 168.96 0 256 0 C256 84.48 256 168.96 256 256 C171.52 256 87.04 256 0 256 C0 171.52 0 87.04 0 0 Z M54 55 C53.28070313 55.64453125 52.56140625 56.2890625 51.8203125 56.953125 C40.95275624 66.99142998 33.44759177 80.88907904 28.875 94.8125 C28.62363281 95.54275391 28.37226563 96.27300781 28.11328125 97.02539062 C19.41333069 123.19356653 23.10119417 151.55599516 35 176 C39.76190752 184.99518223 45.89929052 192.71757945 53 200 C53.825 200.86625 54.65 201.7325 55.5 202.625 C56.325 203.40875 57.15 204.1925 58 205 C58.87785156 205.87011719 58.87785156 205.87011719 59.7734375 206.7578125 C79.00043243 224.98414598 105.03375611 232.68817303 131.0690918 232.47485352 C145.06060947 232.06925343 158.42430586 229.25466582 171 223 C171.59264648 222.71108887 172.18529297 222.42217773 172.79589844 222.12451172 C181.34014537 217.92645873 188.79096629 213.28310278 196 207 C196.60972656 206.52175781 197.21945313 206.04351562 197.84765625 205.55078125 C215.86026737 191.23096057 228.67478351 166.27939795 231.59765625 143.60546875 C234.36689009 115.79594669 229.46514221 87.64393102 211.64941406 65.30664062 C208.58996948 61.71259835 205.31886572 58.35359226 202 55 C201.33355469 54.27296875 200.66710937 53.5459375 199.98046875 52.796875 C190.46528875 42.62064038 178.66718113 36.33135206 166 31 C165.05382812 30.59910156 164.10765625 30.19820312 163.1328125 29.78515625 C124.30075713 14.51736 83.01736771 27.05734962 54 55 Z " fill="#1D69FF" transform="translate(0,0)"/>
<path d="M0 0 C0.79479767 -0.00335861 1.58959534 -0.00671722 2.40847778 -0.01017761 C5.00614025 -0.01958824 7.60373762 -0.02162548 10.20141602 -0.02270508 C12.02547735 -0.02592375 13.84953843 -0.02928827 15.67359924 -0.03279114 C19.48536782 -0.03875711 23.29711381 -0.04063357 27.10888672 -0.04003906 C31.97173443 -0.03993741 36.83443626 -0.05360472 41.69724941 -0.07081127 C45.46096959 -0.08197527 49.22465493 -0.08395695 52.98838997 -0.08342934 C54.78038093 -0.08460224 56.57237299 -0.08898487 58.36434746 -0.0967617 C80.87624914 -0.18534313 80.87624914 -0.18534313 87.64282227 4.14526367 C91.92060796 10.98972078 89.26843759 21.73287379 88.64282227 29.49682617 C88.55403809 30.63687103 88.46525391 31.77691589 88.3737793 32.95150757 C88.09208019 36.5580544 87.80503893 40.16415248 87.51782227 43.77026367 C87.32475943 46.22987129 87.13204759 48.68950648 86.93969727 51.14916992 C86.46979696 57.14819269 85.99552133 63.14685715 85.51782227 69.14526367 C74.38500977 72.85620117 74.38500977 72.85620117 72.40139771 73.51394653 C70.69933491 74.08442616 69.0043343 74.67587149 67.31030273 75.26977539 C43.21535648 82.82393497 6.83777543 80.66597182 -16.48217773 71.14526367 C-19.48217773 69.14526367 -19.48217773 69.14526367 -20.17749023 66.37182617 C-20.31928711 65.18331055 -20.46108398 63.99479492 -20.60717773 62.77026367 C-20.68572998 62.1219458 -20.76428223 61.47362793 -20.84521484 60.80566406 C-21.5843966 54.23302291 -21.89242606 47.63173085 -22.14086914 41.0246582 C-22.27000012 37.70764753 -22.41718455 34.52202104 -22.98217773 31.24682617 C-23.74188501 26.53426701 -23.8284393 21.84918535 -23.91967773 17.08276367 C-23.96543945 16.10243164 -24.01120117 15.12209961 -24.05834961 14.11206055 C-24.13432804 9.24613766 -24.10623914 6.93547772 -21.01733398 3.02416992 C-15.17305299 -0.83690794 -6.76100699 -0.00420853 0 0 Z " fill="#447BFF" transform="translate(95.482177734375,65.854736328125)"/>
<path d="M0 0 C40.26 0 80.52 0 122 0 C122 84.48 122 168.96 122 256 C81.74 256 41.48 256 0 256 C0 255.67 0 255.34 0 255 C0.61931396 254.92483154 1.23862793 254.84966309 1.87670898 254.7722168 C4.7315735 254.42018159 7.58444884 254.05393021 10.4375 253.6875 C11.89833008 253.51057617 11.89833008 253.51057617 13.38867188 253.33007812 C19.58283285 252.52214408 25.15427292 251.17738659 31 249 C32.27148244 248.56838412 33.54359832 248.13862878 34.81640625 247.7109375 C66.33933348 236.46918451 90.90960151 214.70440543 105.42578125 184.5065918 C106.2886159 182.67329475 107.14459833 180.83677698 108 179 C108.61294922 177.80890625 108.61294922 177.80890625 109.23828125 176.59375 C112.38368599 170.27865168 113.66906892 163.44701037 115.16796875 156.59765625 C116 153 116 153 117 151 C121.97311841 116.08160429 115.44076073 81.11502907 94.4375 52.4375 C92.98258336 50.60547712 91.50422496 48.79175823 90 47 C89.28199219 46.14277344 88.56398438 45.28554688 87.82421875 44.40234375 C74.69932362 29.31920494 59.75477767 19.27581366 41.82958984 10.86376953 C40.20510879 10.09683412 38.59546578 9.29864374 36.98828125 8.49609375 C25.47013205 3.11453171 12.49897575 2.34585183 0 1 C0 0.67 0 0.34 0 0 Z " fill="#FCFDFE" transform="translate(134,0)"/>
<path d="M0 0 C2.82646994 1.1451293 4.49826364 2.0876418 6.5546875 4.359375 C7.39868719 7.9291492 7.68783741 11.39104086 8.00390625 15.04296875 C8.57076282 18.45616897 8.94598824 19.62325153 11.4921875 21.859375 C13.39680144 23.17822847 13.39680144 23.17822847 15.5546875 24.359375 C16.37453125 24.86726563 17.194375 25.37515625 18.0390625 25.8984375 C28.45912103 32.01194005 39.35587177 35.47343196 51.42578125 35.59765625 C52.1845607 35.605728 52.94334015 35.61379974 53.72511292 35.62211609 C55.33128612 35.63591177 56.93748809 35.64665401 58.54370117 35.65454102 C60.16000171 35.66598357 61.77626682 35.6863108 63.39233398 35.71606445 C77.48974228 35.9750112 89.45926612 34.06139749 102.1171875 27.359375 C102.77525391 27.029375 103.43332031 26.699375 104.11132812 26.359375 C110.86863722 22.99367625 110.86863722 22.99367625 115.5546875 17.359375 C115.5546875 16.41449219 115.5546875 15.46960938 115.5546875 14.49609375 C115.5546875 5.484375 115.5546875 5.484375 118.3046875 2.390625 C122.72561801 -0.24965295 127.37998314 -1.52276382 132.53515625 -1.1796875 C135.3634565 -0.42474469 137.11376019 1.05047409 138.7421875 3.46484375 C141.04447373 8.83315538 139.89468665 14.03237738 137.9921875 19.359375 C131.4745516 34.10981414 119.00526384 42.47472305 104.5546875 48.359375 C90.68025924 53.31062817 76.25511087 54.69931616 61.6171875 54.609375 C60.36228516 54.61710937 59.10738281 54.62484375 57.81445312 54.6328125 C45.81812805 54.60806505 34.23122389 53.36663339 22.8046875 49.609375 C21.99394775 49.34552002 21.18320801 49.08166504 20.34790039 48.80981445 C6.24898208 44.043125 -4.93186066 35.30334154 -12.4453125 22.359375 C-13.0640625 21.43125 -13.6828125 20.503125 -14.3203125 19.546875 C-16.09976267 14.50509951 -16.21274764 9.63549157 -15.4453125 4.359375 C-11.55478061 -1.96273933 -6.50507427 -1.70420476 0 0 Z " fill="#447CFF" transform="translate(66.4453125,141.640625)"/>
<path d="M0 0 C0.33 0 0.66 0 1 0 C1.07476562 0.98355469 1.14953125 1.96710938 1.2265625 2.98046875 C3.68927092 30.55942944 14.15507254 55.86784906 32 77 C32.66515625 77.81210938 33.3303125 78.62421875 34.015625 79.4609375 C44.28925487 91.52293998 57.01112096 99.83470119 71 107 C72.68802734 107.86625 72.68802734 107.86625 74.41015625 108.75 C88.09674144 115.40204627 102.08194017 117.90065683 117 120 C117 120.33 117 120.66 117 121 C78.39 121 39.78 121 0 121 C0 81.07 0 41.14 0 0 Z " fill="#FCFDFF" transform="translate(0,135)"/>
<path d="M0 0 C38.61 0 77.22 0 117 0 C117 0.33 117 0.66 117 1 C115.23849609 1.23783203 115.23849609 1.23783203 113.44140625 1.48046875 C86.72709613 5.2688403 64.82445156 14.5534277 44 32 C43.31164063 32.55300781 42.62328125 33.10601562 41.9140625 33.67578125 C16.57518602 54.65797344 5.25372491 86.49476918 1 118 C0.67 118 0.34 118 0 118 C0 79.06 0 40.12 0 0 Z " fill="#FDFDFF" transform="translate(0,0)"/>
<path d="M0 0 C0 0.66 0 1.32 0 2 C-1.03125 2.12375 -2.0625 2.2475 -3.125 2.375 C-6.94769636 2.87728298 -6.94769636 2.87728298 -10.25 4.125 C-13 5 -13 5 -16 4 C-15.34 4 -14.68 4 -14 4 C-14 3.34 -14 2.68 -14 2 C-12.4176994 1.66179834 -10.83410625 1.32964061 -9.25 1 C-8.36828125 0.814375 -7.4865625 0.62875 -6.578125 0.4375 C-4 0 -4 0 0 0 Z " fill="#286FFF" transform="translate(112,1)"/>
<path d="M0 0 C2.04119788 1.61594832 4.04072937 3.2856382 6 5 C6 5.66 6 6.32 6 7 C7.32 7.66 8.64 8.32 10 9 C10 9.99 10 10.98 10 12 C2.15820312 5.5546875 2.15820312 5.5546875 0 2 C0 1.34 0 0.68 0 0 Z " fill="#3372FF" transform="translate(48,195)"/>
<path d="M0 0 C2.12920281 2.12920281 2.51084284 3.10230433 3.25 5.9375 C3.44078125 6.62714844 3.6315625 7.31679687 3.828125 8.02734375 C4 10 4 10 2 13 C1.46605821 11.5882217 0.94834896 10.17029756 0.4375 8.75 C0.14746094 7.96109375 -0.14257812 7.1721875 -0.44140625 6.359375 C-1.04522837 3.80896548 -0.8473932 2.44677771 0 0 Z " fill="#3072FF" transform="translate(244,81)"/>
</svg>
