<?xml version="1.0" encoding="UTF-8"?>
<svg id="_Слой_2" data-name="Слой 2" xmlns="http://www.w3.org/2000/svg" viewBox="0 0 200 200">
  <defs>
    <style>
      .cls-1 {
        fill: #000;
      }

      .cls-1, .cls-2 {
        stroke-width: 0px;
      }

      .cls-2 {
        fill: #fff;
      }
    </style>
  </defs>
  <g id="_Слой_1-2" data-name="Слой 1">
    <g>
      <path class="cls-1" d="M100,200c55.228,0,100-44.772,100-100S155.228,0,100,0,0,44.7715,0,100s44.7715,100,100,100Z"/>
      <path class="cls-2" d="M102.401,146.424c-15.7796,0-29.7998-5.47099-40.7039-15.92-7.3035-6.999-12.9361-15.989-16.7411-26.722-3.7619-10.60979-5.6693-22.78609-5.6693-36.1905h24.5653c0,10.5929,1.4311,20.0005,4.2536,27.9612,2.5103,7.08031,6.0686,12.86031,10.5761,17.18031,6.7394,6.458,15.3864,9.503,25.7003,9.048,9.505-.418,16.838-3.384,21.797-8.817,4.127-4.521,6.399-10.63499,6.399-17.2138.05699-3.7411-1.33701-7.3584-3.88901-10.0918-1.196-1.2619-2.63999-2.2619-4.241-2.937-1.601-.675-3.324-1.0103-5.062-.98489-2.398.0181-4.707.91689-6.488,2.5261-1.71201,1.60719-3.75401,4.92049-3.75401,11.5784h-24.5652c0-15.4677,6.2653-24.5941,11.521-29.52641,6.3352-5.8794,14.6492-9.1554,23.2872-9.1762,5.052-.0275,10.057.9788,14.70699,2.9572,4.65001,1.9784,8.84801,4.8873,12.336,8.5481,6.90901,7.2232,10.714,16.8498,10.714,27.1065,0,12.7358-4.558,24.7428-12.83299,33.80881-6.54401,7.17099-18.59801,15.90599-38.85101,16.797-1.026.045-2.046.06799-3.059.06799Z"/>
    </g>
  </g>
</svg>