<svg width="256" height="256" viewBox="0 0 52 52" fill="none"
  xmlns="http://www.w3.org/2000/svg">
  <g clip-path="url(#clip0_2696_124315)">
    <path d="M18.8742 29.8535L17.252 28.4561L17.5928 26.9589L19.6912 18.8091L26 8.59961L28.9229 10.1891L26 14.5542L18.6613 26.4305L27.1355 26.2356L30.2862 28.4546L31.6628 29.8535L34.3358 32.083L25.8363 43.7584L23.1142 41.8802L26 38.0152V35.0223L19.4233 33.1277L18.2491 32.0115L18.8742 29.8535Z" fill="#183240"/>
    <path d="M26 52C40.3594 52 52 40.3594 52 26C52 11.6406 40.3594 0 26 0C11.6406 0 0 11.6406 0 26C0 40.3594 11.6406 52 26 52Z" fill="url(#paint0_linear_2696_124315)"/>
    <path opacity="0.2" d="M42.2522 42.144C51.1669 33.1683 51.1193 18.6651 42.1436 9.75043C33.1679 0.835714 18.6647 0.883338 9.75 9.85907L42.2522 42.144Z" fill="white"/>
    <path d="M27.2407 36.3391C26.833 36.3882 26.4192 36.4164 25.9995 36.4164C20.3382 36.4164 15.732 31.8103 15.732 26.1489C15.732 21.6201 18.6802 17.77 22.7581 16.4097L25.7644 11.5371C17.8141 11.6636 11.3848 18.1688 11.3848 26.1504C11.3848 33.5724 16.9449 39.7189 24.1199 40.6461L27.2422 36.3405L27.2407 36.3391Z" fill="white"/>
    <path d="M15.732 26.1489C15.732 21.6201 18.6802 17.77 22.7581 16.4097L25.7644 11.5371C17.8141 11.6636 11.3848 18.1688 11.3848 26.1504H15.7335L15.732 26.1489Z" fill="url(#paint1_linear_2696_124315)"/>
    <path d="M27.7832 11.6426L25.1445 15.9213C25.4273 15.8975 25.7116 15.8826 26.0003 15.8826C31.6616 15.8826 36.2678 20.4888 36.2678 26.1502C36.2678 30.4691 33.586 34.1719 29.8013 35.6855L26.1164 40.765C34.1217 40.7025 40.6165 34.1705 40.6165 26.1502C40.6165 18.694 35.0043 12.5251 27.7832 11.6426Z" fill="white"/>
    <path d="M36.2667 26.1484C36.2667 30.4674 33.5848 34.1702 29.8002 35.6838L26.1152 40.7632C34.1206 40.7007 40.6154 34.1687 40.6154 26.1484H36.2667Z" fill="url(#paint2_linear_2696_124315)"/>
    <path d="M19.0372 28.4447L26.0007 32.457L32.9688 28.4447L26.0007 38.0157L19.0372 28.4447ZM18.6621 26.431L26.0022 14.5547L33.3424 26.431L26.0022 30.6622L18.6636 26.431H18.6621Z" fill="white"/>
    <path opacity="0.1" d="M26.0203 14.3906L18.6816 26.5661L26.0203 30.9044V23.2309V14.3906Z" fill="#4C52F9"/>
    <path opacity="0.1" d="M26.0209 32.2938L25.9316 32.404V38.0356L26.0209 38.299L33.364 27.957L26.0209 32.2938Z" fill="#4C52F9"/>
    <path opacity="0.1" d="M26.0195 30.904L33.3582 26.5657L26.0195 23.2305V30.904Z" fill="#4C52F9"/>
    <path opacity="0.1" d="M18.6816 26.5657L26.0203 30.904V23.2305L18.6816 26.5657Z" fill="#4C52F9"/>
  </g>
  <defs>
    <linearGradient id="paint0_linear_2696_124315" x1="0" y1="26" x2="52" y2="26" gradientUnits="userSpaceOnUse">
      <stop offset="0.25" stop-color="#1A82FF"/>
      <stop offset="0.5" stop-color="#7A26F3"/>
      <stop offset="0.74" stop-color="#D6453B"/>
    </linearGradient>
    <linearGradient id="paint1_linear_2696_124315" x1="35.2193" y1="4.322" x2="14.086" y2="22.33" gradientUnits="userSpaceOnUse">
      <stop stop-color="#4C52F9" stop-opacity="0.5"/>
      <stop offset="1" stop-color="white"/>
    </linearGradient>
    <linearGradient id="paint2_linear_2696_124315" x1="16.446" y1="44.4601" x2="32.5192" y2="33.9678" gradientUnits="userSpaceOnUse">
      <stop stop-color="#4C52F9" stop-opacity="0.5"/>
      <stop offset="1" stop-color="white"/>
    </linearGradient>
    <clipPath id="clip0_2696_124315">
      <rect width="52" height="52" fill="white"/>
    </clipPath>
  </defs>
</svg>
