<svg width="32" height="32" viewBox="0 0 32 32" fill="none" xmlns="http://www.w3.org/2000/svg">
<path fill-rule="evenodd" clip-rule="evenodd" d="M32 16C32 13.9059 31.5834 11.8118 30.7821 9.87712C29.9808 7.9424 28.7946 6.16704 27.3136 4.6864C25.833 3.20544 24.0576 2.0192 22.1229 1.21792C20.1882 0.41664 18.0941 0 16 0C13.9059 0 11.8118 0.41664 9.87712 1.21792C7.9424 2.0192 6.16704 3.20544 4.6864 4.6864C3.20544 6.16704 2.0192 7.9424 1.21792 9.87712C0.41664 11.8118 0 13.9059 0 16C0 18.0941 0.41664 20.1882 1.21792 22.1229C2.0192 24.0576 3.20544 25.833 4.6864 27.3136C6.16704 28.7946 7.9424 29.9808 9.87712 30.7821C11.8118 31.5834 13.9059 32 16 32C18.0941 32 20.1882 31.5834 22.1229 30.7821C24.0576 29.9808 25.833 28.7946 27.3136 27.3136C28.7946 25.833 29.9808 24.0576 30.7821 22.1229C31.5834 20.1882 32 18.0941 32 16Z" fill="#5814FB"/>
<path d="M8.06617 7.96306C7.98023 8.05023 7.9769 8.19344 8.06264 8.2808L14.1152 14.4483C14.1564 14.4902 14.1794 14.5466 14.1794 14.6054V19.9072C14.1794 19.9873 14.2222 20.0613 14.2915 20.1014L15.8946 21.027C15.964 21.067 16.0494 21.067 16.1187 21.027L17.7218 20.1014C17.7912 20.0613 17.8339 19.9873 17.8339 19.9072V14.6054C17.8339 14.5466 17.857 14.4902 17.8981 14.4483L23.9358 8.296C24.0214 8.20876 24.0214 8.06899 23.9357 7.98178L21.6637 5.66858C21.5759 5.57919 21.4318 5.57926 21.3439 5.66856C21.0072 6.01064 20.9462 6.07218 20.4508 6.57194C19.8971 7.1305 18.8008 8.23648 16.1705 10.8933C16.0828 10.9818 15.9289 10.9791 15.8412 10.8907L10.6572 5.67171C10.5693 5.58323 10.4162 5.57962 10.3286 5.66842L8.06617 7.96306Z" fill="white"/>
<path d="M9.46566 18.5824C9.36124 18.5213 9.24749 18.6461 9.31796 18.7445L15.9169 27.9548C15.9616 28.0172 16.0544 28.0172 16.0991 27.9548L22.7032 18.7444C22.7737 18.646 22.66 18.5212 22.5556 18.5822L16.0646 22.3778C16.0296 22.3982 15.9864 22.3982 15.9514 22.3778L9.46566 18.5824Z" fill="white"/>
<path d="M17.4784 7.92015C17.5052 7.96408 17.4986 8.02057 17.4625 8.05718C17.0038 8.52219 16.5446 8.98662 16.0837 9.44943C16.0399 9.49338 15.9688 9.49339 15.925 9.44947C15.4655 8.98855 15.0077 8.52601 14.5504 8.0629C14.5143 8.0263 14.5077 7.96979 14.5344 7.92584L15.9123 5.66137C15.9559 5.58961 16.0601 5.5896 16.1037 5.66136L17.4784 7.92015Z" fill="white"/>
<path d="M20.7492 13.2944C20.7112 13.232 20.6246 13.2221 20.5735 13.2742L18.9522 14.9262C18.9317 14.9472 18.9201 14.9754 18.9201 15.0048V19.1993C18.9201 19.2859 19.0141 19.3398 19.0888 19.296L22.9077 17.0605C22.9618 17.0288 22.9794 16.959 22.9468 16.9054L20.7492 13.2944Z" fill="white"/>
<path d="M13.088 19.1943C13.088 19.2809 12.994 19.3348 12.9193 19.2911L9.10976 17.0605C9.05569 17.0288 9.03806 16.959 9.07064 16.9054L11.2644 13.3C11.3024 13.2376 11.389 13.2276 11.4401 13.2797L13.0559 14.9262C13.0765 14.9472 13.088 14.9754 13.088 15.0047V19.1943Z" fill="white"/>
</svg>
