<svg width="41" height="42" viewBox="0 0 41 42" fill="none" xmlns="http://www.w3.org/2000/svg">
<circle cx="20.0564" cy="20.9339" r="17.2744" fill="#FEC424" stroke="url(#paint0_linear_394_29195)" stroke-width="5.42937"/>
<circle cx="20.0564" cy="20.9339" r="19.66" stroke="url(#paint1_linear_394_29195)" stroke-width="0.658106"/>
<circle cx="20.0568" cy="21.0148" r="14.3459" stroke="url(#paint2_linear_394_29195)" stroke-width="0.493579"/>
<mask id="path-4-inside-1_394_29195" fill="white">
<path d="M28.6444 19.3844H24.4363C23.2626 19.31 22.6918 19.0317 22.0423 18.406C21.2945 17.6846 20.7828 16.9898 20.4607 16.1054C20.314 15.7048 19.6699 15.7013 19.5232 16.1018C19.185 17.0235 18.6662 17.7591 17.9666 18.4007C17.267 19.0405 16.6068 19.3029 15.5602 19.3844H11.3538C11.0425 19.3844 10.8833 19.0193 11.1015 18.8013L15.8679 12.9717H24.1267L28.8949 18.8013C29.1132 19.0193 28.9557 19.3844 28.6426 19.3844H28.6444ZM28.6641 20.8733H24.3611C23.2071 20.9796 22.5755 21.2845 21.969 21.9137C21.2676 22.6404 20.7792 23.2944 20.4643 24.1487C20.3158 24.5493 19.6735 24.5458 19.5268 24.1452C19.2011 23.2501 18.7127 22.5589 18.0632 21.935C17.3672 21.2667 16.7768 20.9707 15.6174 20.8733H11.3323C11.0371 20.8733 10.8886 21.2207 11.098 21.4245L19.7647 29.8773C19.8935 30.0031 20.1047 30.0031 20.2353 29.8773L28.902 21.4245C29.1114 21.2207 28.9629 20.8733 28.6677 20.8733H28.6641Z"/>
</mask>
<path d="M28.6444 19.3844H24.4363C23.2626 19.31 22.6918 19.0317 22.0423 18.406C21.2945 17.6846 20.7828 16.9898 20.4607 16.1054C20.314 15.7048 19.6699 15.7013 19.5232 16.1018C19.185 17.0235 18.6662 17.7591 17.9666 18.4007C17.267 19.0405 16.6068 19.3029 15.5602 19.3844H11.3538C11.0425 19.3844 10.8833 19.0193 11.1015 18.8013L15.8679 12.9717H24.1267L28.8949 18.8013C29.1132 19.0193 28.9557 19.3844 28.6426 19.3844H28.6444ZM28.6641 20.8733H24.3611C23.2071 20.9796 22.5755 21.2845 21.969 21.9137C21.2676 22.6404 20.7792 23.2944 20.4643 24.1487C20.3158 24.5493 19.6735 24.5458 19.5268 24.1452C19.2011 23.2501 18.7127 22.5589 18.0632 21.935C17.3672 21.2667 16.7768 20.9707 15.6174 20.8733H11.3323C11.0371 20.8733 10.8886 21.2207 11.098 21.4245L19.7647 29.8773C19.8935 30.0031 20.1047 30.0031 20.2353 29.8773L28.902 21.4245C29.1114 21.2207 28.9629 20.8733 28.6677 20.8733H28.6641Z" fill="#FEC424"/>
<path d="M24.4363 19.3844L24.0926 24.8029L24.2642 24.8138H24.4363V19.3844ZM22.0423 18.406L18.273 22.3137L18.2755 22.3161L22.0423 18.406ZM20.4607 16.1054L25.5624 14.2477L25.5589 14.2381L20.4607 16.1054ZM19.5232 16.1018L24.6203 17.9719L24.6214 17.9691L19.5232 16.1018ZM17.9666 18.4007L21.631 22.407L21.6365 22.402L17.9666 18.4007ZM15.5602 19.3844V24.8138H15.7713L15.9818 24.7974L15.5602 19.3844ZM11.1015 18.8013L14.9383 22.6428L15.1318 22.4496L15.3048 22.2379L11.1015 18.8013ZM15.8679 12.9717V7.54231H13.2939L11.6646 9.53502L15.8679 12.9717ZM24.1267 12.9717L28.3294 9.53425L26.7001 7.54231H24.1267V12.9717ZM28.8949 18.8013L24.6922 22.2387L24.865 22.4499L25.0581 22.6428L28.8949 18.8013ZM24.3611 20.8733V15.4439H24.1115L23.8629 15.4668L24.3611 20.8733ZM21.969 21.9137L25.8757 25.6841L25.878 25.6817L21.969 21.9137ZM20.4643 24.1487L25.5551 26.036L25.5586 26.0265L20.4643 24.1487ZM19.5268 24.1452L14.4245 26.0014L14.4286 26.0124L19.5268 24.1452ZM18.0632 21.935L21.8245 18.0195L21.8234 18.0185L18.0632 21.935ZM15.6174 20.8733L16.0723 15.463L15.8453 15.4439H15.6174V20.8733ZM11.098 21.4245L14.8888 17.5377L14.8856 17.5346L11.098 21.4245ZM19.7647 29.8773L23.5587 25.9935L23.5556 25.9905L19.7647 29.8773ZM20.2353 29.8773L24.0024 33.7871L24.0143 33.7757L24.0261 33.7641L20.2353 29.8773ZM28.902 21.4245L25.1144 17.5346L25.1112 17.5377L28.902 21.4245ZM28.6444 13.955H24.4363V24.8138H28.6444V13.955ZM24.7799 13.9659C24.5456 13.951 24.771 13.9375 25.1616 14.1031C25.3575 14.1861 25.5262 14.2848 25.6573 14.3774C25.7776 14.4624 25.8333 14.5191 25.8092 14.4959L18.2755 22.3161C18.9 22.9177 19.7492 23.6029 20.9238 24.1007C22.0556 24.5805 23.1532 24.7433 24.0926 24.8029L24.7799 13.9659ZM25.8117 14.4983C25.6164 14.3099 25.552 14.2208 25.5422 14.2068C25.5381 14.2009 25.5426 14.2068 25.5503 14.2215C25.5537 14.2281 25.5568 14.2345 25.5592 14.2399C25.5615 14.2454 25.5626 14.2482 25.5624 14.2477L15.359 17.963C16.0428 19.8409 17.1239 21.2053 18.273 22.3137L25.8117 14.4983ZM25.5589 14.2381C24.5091 11.3717 21.8552 10.3821 20.0163 10.3738C18.1745 10.3656 15.4854 11.3392 14.425 14.2346L24.6214 17.9691C23.7076 20.4639 21.414 21.239 19.9676 21.2325C18.5241 21.226 16.2656 20.4384 15.3625 17.9726L25.5589 14.2381ZM14.426 14.2317C14.4161 14.2589 14.4089 14.2735 14.406 14.2793C14.4031 14.2848 14.4012 14.288 14.399 14.2911C14.3973 14.2936 14.3739 14.3286 14.2967 14.3994L21.6365 22.402C22.9204 21.2243 23.9589 19.7748 24.6203 17.9719L14.426 14.2317ZM14.3022 14.3944C14.3052 14.3917 14.3608 14.3412 14.4649 14.2729C14.574 14.2014 14.7051 14.1307 14.8498 14.0719C15.143 13.9528 15.306 13.9584 15.1385 13.9714L15.9818 24.7974C18.0517 24.6361 19.9102 23.9809 21.631 22.407L14.3022 14.3944ZM15.5602 13.955H11.3538V24.8138H15.5602V13.955ZM11.3538 13.955C15.5573 13.955 18.3711 19.2142 14.9383 22.6428L7.26475 14.9598C3.39538 18.8244 6.5277 24.8138 11.3538 24.8138V13.955ZM15.3048 22.2379L20.0712 16.4083L11.6646 9.53502L6.89827 15.3646L15.3048 22.2379ZM15.8679 18.4011H24.1267V7.54231H15.8679V18.4011ZM19.9241 16.4091L24.6922 22.2387L33.0975 15.3638L28.3294 9.53425L19.9241 16.4091ZM25.0581 22.6428C21.6464 19.2353 24.4106 13.955 28.6426 13.955V24.8138C33.5008 24.8138 36.5799 18.8032 32.7317 14.9598L25.0581 22.6428ZM28.6426 24.8138H28.6444V13.955H28.6426V24.8138ZM28.6641 15.4439H24.3611V26.3026H28.6641V15.4439ZM23.8629 15.4668C22.9192 15.5538 21.8449 15.7509 20.7527 16.2368C19.6099 16.7453 18.7426 17.4375 18.06 18.1457L25.878 25.6817C25.8543 25.7063 25.7737 25.7864 25.6389 25.8849C25.4984 25.9875 25.3374 26.082 25.1668 26.158C24.8305 26.3075 24.649 26.2991 24.8593 26.2797L23.8629 15.4668ZM18.0623 18.1433C17.0847 19.1562 16.045 20.4396 15.37 22.271L25.5586 26.0265C25.5566 26.032 25.551 26.0455 25.5427 26.0613C25.5347 26.0766 25.5317 26.0796 25.5408 26.0665C25.5638 26.0331 25.6456 25.9225 25.8757 25.6841L18.0623 18.1433ZM15.3735 22.2615C16.2897 19.7901 18.565 19.0116 20.0192 19.0181C21.4701 19.0246 23.7239 19.8177 24.6249 22.278L14.4286 26.0124C15.4764 28.8733 18.1246 29.8684 19.9705 29.8767C21.8197 29.885 24.4904 28.9079 25.5551 26.036L15.3735 22.2615ZM24.629 22.289C23.9827 20.5126 22.9894 19.1386 21.8245 18.0195L14.3019 25.8504C14.3481 25.8948 14.376 25.9255 14.3914 25.9435C14.3991 25.9526 14.4042 25.959 14.4071 25.9628C14.41 25.9667 14.4114 25.9687 14.4116 25.969C14.4118 25.9693 14.4115 25.9689 14.411 25.968C14.4105 25.9671 14.4103 25.9668 14.4106 25.9674C14.4108 25.9677 14.4159 25.9776 14.4245 26.0014L24.629 22.289ZM21.8234 18.0185C21.202 17.4218 20.3687 16.7427 19.2304 16.2337C18.1125 15.7338 17.0253 15.5431 16.0723 15.463L15.1625 26.2835C15.3689 26.3009 15.1566 26.307 14.7978 26.1465C14.6237 26.0687 14.4814 25.9813 14.3802 25.9085C14.2888 25.8428 14.2578 25.8081 14.303 25.8515L21.8234 18.0185ZM15.6174 15.4439H11.3323V26.3026H15.6174V15.4439ZM11.3323 15.4439C6.48813 15.4439 3.38052 21.4879 7.31027 25.3144L14.8856 17.5346C18.3967 20.9534 15.5861 26.3026 11.3323 26.3026V15.4439ZM7.30709 25.3113L15.9739 33.7641L23.5556 25.9905L14.8888 17.5377L7.30709 25.3113ZM15.9707 33.7611C18.2235 35.9618 21.7836 35.9249 24.0024 33.7871L16.4681 25.9675C18.4257 24.0813 21.5636 24.0445 23.5587 25.9935L15.9707 33.7611ZM24.0261 33.7641L32.6929 25.3113L25.1112 17.5377L16.4444 25.9905L24.0261 33.7641ZM32.6897 25.3144C36.6194 21.488 33.512 15.4439 28.6677 15.4439V26.3026C24.4137 26.3026 21.6034 20.9533 25.1144 17.5346L32.6897 25.3144ZM28.6677 15.4439H28.6641V26.3026H28.6677V15.4439Z" fill="#FCFCFC" mask="url(#path-4-inside-1_394_29195)"/>
<defs>
<linearGradient id="paint0_linear_394_29195" x1="34.3896" y1="6.17122" x2="7.94412" y2="36.6679" gradientUnits="userSpaceOnUse">
<stop stop-color="#FED64A"/>
<stop offset="0.123016" stop-color="#FEF14E"/>
<stop offset="0.248796" stop-color="#FFDF6C"/>
<stop offset="0.482583" stop-color="#FCFF67"/>
<stop offset="0.743348" stop-color="#FED545"/>
<stop offset="0.82597" stop-color="#FECA45"/>
<stop offset="1" stop-color="#FEED44"/>
</linearGradient>
<linearGradient id="paint1_linear_394_29195" x1="16.1231" y1="0.944824" x2="20.984" y2="40.923" gradientUnits="userSpaceOnUse">
<stop stop-color="#FFF3C4"/>
<stop offset="0.483894" stop-color="#EDC071"/>
<stop offset="0.961122" stop-color="#BF8147"/>
</linearGradient>
<linearGradient id="paint2_linear_394_29195" x1="16.4147" y1="6.42212" x2="29.5901" y2="32.4256" gradientUnits="userSpaceOnUse">
<stop stop-color="#C8892B"/>
<stop offset="0.979601" stop-color="#FFEDA3"/>
</linearGradient>
</defs>
</svg>
