<?xml version="1.0" encoding="utf-8"?>
<!-- Generator: Adobe Illustrator 27.0.1, SVG Export Plug-In . SVG Version: 6.00 Build 0)  -->
<svg version="1.1" id="Layer_1" xmlns="http://www.w3.org/2000/svg" xmlns:xlink="http://www.w3.org/1999/xlink" x="0px" y="0px"
	 viewBox="0 0 256 256" style="enable-background:new 0 0 256 256;" xml:space="preserve">
<style type="text/css">
	.st0{fill:#ACD905;}
	.st1{fill:#AEAFAA;}
	.st2{fill:#5D6E3C;}
</style>
<g>
	<path class="st0" d="M133.3,149H75.9V65h57.4c19.7,0,35.7,16,35.7,35.7v12.5C169,133,153.1,149,133.3,149"/>
	<path class="st1" d="M148.1,191H75.9v-42c0-23.2,18.8-42,42-42h30.3c23.2,0,42,18.8,42,42S171.3,191,148.1,191"/>
	<path class="st2" d="M169,112.6v0.7c0,19.7-16,35.7-35.7,35.7H75.9c0-11.6,4.7-22.1,12.3-29.7c7.6-7.6,18.1-12.3,29.7-12.3h30.3
		C155.8,107,162.9,109.1,169,112.6"/>
</g>
</svg>
