<svg xmlns="http://www.w3.org/2000/svg" viewBox="0 0 203.2 203.2"><path d="M196.6 101.6h-37c0-21.3-7.4-38.8-22.3-52.2h-.2c-14.9-13.5-34-20.4-57-20.4s-42.3 6.9-57.6 20.7C9.1 61.9 1.6 76.8 0 94.3c-.4 3.9 2.7 7.3 6.6 7.3h37c0 21.3 7.4 38.8 22.3 52.2 14.9 13.5 34 20.4 57 20.4s42.3-6.9 57.6-20.7c13.5-12.2 21.1-27.1 22.7-44.6.4-3.9-2.7-7.3-6.6-7.3ZM158 108c0 16.5-2.8 29.4-8.3 38.6-5.7 9.4-13.3 14-23 14s-20-6-27.1-18.2c-3.2-5.3-5.7-11.5-7.4-18.2-3.4-13.1-15.1-22.5-28.5-22.5H45.3v-6.4c0-16.5 2.8-29.4 8.3-38.6 5.7-9.4 13.3-14 23-14s20 6 27.1 18.2c3.2 5.3 5.7 11.5 7.4 18.2 3.4 13.1 15.1 22.5 28.5 22.5H158v6.4Z" style="fill:#4e4e4e"/></svg>