<svg xmlns="http://www.w3.org/2000/svg" fill="none" viewBox="0 0 128 128"><g fill-rule="evenodd" clip-path="url(#a)" clip-rule="evenodd"><path fill="url(#b)" d="M64 125.394c33.907 0 61.394-27.487 61.394-61.394S97.907 2.606 64 2.606 2.606 30.093 2.606 64 30.093 125.394 64 125.394ZM128 64c0 35.346-28.654 64-64 64-35.346 0-64-28.654-64-64C0 28.654 28.654 0 64 0c35.346 0 64 28.654 64 64Z"/><path fill="url(#c)" d="M64 121.05c31.508 0 57.05-25.542 57.05-57.05 0-31.508-25.542-57.05-57.05-57.05C32.492 6.95 6.95 32.492 6.95 64c0 31.508 25.542 57.05 57.05 57.05ZM123.656 64c0 32.947-26.709 59.656-59.656 59.656S4.344 96.947 4.344 64 31.053 4.344 64 4.344 123.656 31.053 123.656 64Z"/><path fill="url(#d)" d="M64 116.706c29.109 0 52.706-23.597 52.706-52.706S93.109 11.294 64 11.294 11.294 34.891 11.294 64 34.891 116.706 64 116.706ZM119.312 64c0 30.548-24.764 55.312-55.312 55.312S8.688 94.548 8.688 64 33.452 8.688 64 8.688 119.312 33.452 119.312 64Z"/><path fill="url(#e)" d="M64 112.362c26.71 0 48.362-21.652 48.362-48.362S90.71 15.638 64 15.638 15.638 37.29 15.638 64 37.29 112.362 64 112.362ZM114.968 64c0 28.149-22.819 50.968-50.968 50.968-28.149 0-50.968-22.819-50.968-50.968 0-28.149 22.819-50.968 50.968-50.968 28.149 0 50.968 22.819 50.968 50.968Z"/><path fill="url(#f)" d="M64 108.018c24.31 0 44.018-19.707 44.018-44.018 0-24.31-19.707-44.018-44.018-44.018-24.31 0-44.018 19.708-44.018 44.018 0 24.31 19.708 44.018 44.018 44.018ZM110.624 64c0 25.75-20.874 46.624-46.624 46.624-25.75 0-46.624-20.874-46.624-46.624 0-25.75 20.874-46.624 46.624-46.624 25.75 0 46.624 20.874 46.624 46.624Z"/><path fill="url(#g)" d="M64 103.674c21.911 0 39.674-17.763 39.674-39.674 0-21.911-17.763-39.674-39.674-39.674-21.911 0-39.674 17.763-39.674 39.674 0 21.912 17.763 39.674 39.674 39.674ZM106.281 64c0 23.35-18.93 42.281-42.281 42.281-23.35 0-42.28-18.93-42.28-42.281 0-23.35 18.93-42.28 42.28-42.28S106.281 40.65 106.281 64Z"/><path fill="url(#h)" d="M64 99.33c19.512 0 35.33-15.818 35.33-35.33S83.512 28.67 64 28.67 28.67 44.488 28.67 64 44.488 99.33 64 99.33ZM101.937 64c0 20.952-16.985 37.937-37.937 37.937-20.952 0-37.937-16.985-37.937-37.937 0-20.952 16.985-37.937 37.937-37.937 20.952 0 37.937 16.985 37.937 37.937Z"/><path fill="url(#i)" d="M64 94.986c17.113 0 30.986-13.873 30.986-30.986S81.113 33.014 64 33.014 33.014 46.887 33.014 64 46.887 94.986 64 94.986ZM97.593 64c0 18.553-15.04 33.593-33.593 33.593-18.553 0-33.593-15.04-33.593-33.593 0-18.553 15.04-33.593 33.593-33.593 18.553 0 33.593 15.04 33.593 33.593Z"/><path fill="url(#j)" d="M64 90.642c14.714 0 26.642-11.928 26.642-26.642 0-14.714-11.928-26.642-26.642-26.642-14.714 0-26.642 11.928-26.642 26.642 0 14.714 11.928 26.642 26.642 26.642ZM93.249 64c0 16.154-13.095 29.249-29.249 29.249-16.154 0-29.249-13.095-29.249-29.249 0-16.154 13.095-29.249 29.249-29.249 16.154 0 29.249 13.095 29.249 29.249Z"/><path fill="url(#k)" d="M64 86.299c12.315 0 22.299-9.984 22.299-22.299S76.315 41.701 64 41.701 41.701 51.685 41.701 64 51.685 86.299 64 86.299ZM88.905 64c0 13.755-11.15 24.905-24.905 24.905S39.095 77.755 39.095 64 50.245 39.095 64 39.095 88.905 50.245 88.905 64Z"/></g><defs><radialGradient id="b" cx="0" cy="0" r="1" gradientTransform="matrix(0 64 -64 0 64 64)" gradientUnits="userSpaceOnUse"><stop offset=".28" stop-color="#D0A0E6" stop-opacity="0"/><stop offset="1" stop-color="#C575E9"/></radialGradient><radialGradient id="c" cx="0" cy="0" r="1" gradientTransform="matrix(0 64 -64 0 64 64)" gradientUnits="userSpaceOnUse"><stop offset=".28" stop-color="#D0A0E6" stop-opacity="0"/><stop offset="1" stop-color="#C575E9"/></radialGradient><radialGradient id="d" cx="0" cy="0" r="1" gradientTransform="matrix(0 64 -64 0 64 64)" gradientUnits="userSpaceOnUse"><stop offset=".28" stop-color="#D0A0E6" stop-opacity="0"/><stop offset="1" stop-color="#C575E9"/></radialGradient><radialGradient id="e" cx="0" cy="0" r="1" gradientTransform="matrix(0 64 -64 0 64 64)" gradientUnits="userSpaceOnUse"><stop offset=".28" stop-color="#D0A0E6" stop-opacity="0"/><stop offset="1" stop-color="#C575E9"/></radialGradient><radialGradient id="f" cx="0" cy="0" r="1" gradientTransform="matrix(0 64 -64 0 64 64)" gradientUnits="userSpaceOnUse"><stop offset=".28" stop-color="#D0A0E6" stop-opacity="0"/><stop offset="1" stop-color="#C575E9"/></radialGradient><radialGradient id="g" cx="0" cy="0" r="1" gradientTransform="matrix(0 64 -64 0 64 64)" gradientUnits="userSpaceOnUse"><stop offset=".28" stop-color="#D0A0E6" stop-opacity="0"/><stop offset="1" stop-color="#C575E9"/></radialGradient><radialGradient id="h" cx="0" cy="0" r="1" gradientTransform="matrix(0 64 -64 0 64 64)" gradientUnits="userSpaceOnUse"><stop offset=".28" stop-color="#D0A0E6" stop-opacity="0"/><stop offset="1" stop-color="#C575E9"/></radialGradient><radialGradient id="i" cx="0" cy="0" r="1" gradientTransform="matrix(0 64 -64 0 64 64)" gradientUnits="userSpaceOnUse"><stop offset=".28" stop-color="#D0A0E6" stop-opacity="0"/><stop offset="1" stop-color="#C575E9"/></radialGradient><radialGradient id="j" cx="0" cy="0" r="1" gradientTransform="matrix(0 64 -64 0 64 64)" gradientUnits="userSpaceOnUse"><stop offset=".28" stop-color="#D0A0E6" stop-opacity="0"/><stop offset="1" stop-color="#C575E9"/></radialGradient><radialGradient id="k" cx="0" cy="0" r="1" gradientTransform="matrix(0 64 -64 0 64 64)" gradientUnits="userSpaceOnUse"><stop offset=".28" stop-color="#D0A0E6" stop-opacity="0"/><stop offset="1" stop-color="#C575E9"/></radialGradient><clipPath id="a"><path fill="#fff" d="M0 0h128v128H0z"/></clipPath></defs></svg>