<svg id="Layer_1" data-name="Layer 1" xmlns="http://www.w3.org/2000/svg" viewBox="0 0 149.11 52.65"><defs><style>.cls-1{fill:#fff;}</style></defs><title>gcr-loco</title><path class="cls-1" d="M52.62,29.37c0,15.48-10.78,24.88-24.95,24.88C11.76,54.25.33,42.54.33,28A26.25,26.25,0,0,1,26.87,1.61c9.69,0,17.87,4.77,22.13,11.57l-9.83,5.64c-2.1-3.33-6.66-5.93-12.37-5.93-8.53,0-14.9,6.29-14.9,15.18C11.9,36.68,18,43,27.81,43c6.73,0,11.14-3,13-7.81H27.24V25H52.62Z" transform="translate(-0.33 -1.61)"/><path class="cls-1" d="M57,27.93C57,13,68,1.61,83.28,1.61A25.24,25.24,0,0,1,105,13.32L95,19.11c-2.24-3.91-6.58-6.22-11.71-6.22-9,0-14.75,6-14.75,15s5.78,15,14.75,15c5.13,0,9.54-2.31,11.71-6.22l10,5.79A25,25,0,0,1,83.28,54.25C68,54.25,57,42.82,57,27.93Z" transform="translate(-0.33 -1.61)"/><path class="cls-1" d="M127.46,36.61H122V53.24H110.4V2.62h20.24A17.32,17.32,0,0,1,148,20a16.68,16.68,0,0,1-9.33,14.68l10.78,18.59H137ZM122,26.48h8.67c3.19,0,5.79-2.82,5.79-6.51s-2.6-6.5-5.79-6.5H122Z" transform="translate(-0.33 -1.61)"/></svg>
