<?xml version="1.0" encoding="UTF-8"?>
<svg width="256px" height="256px" viewBox="0 0 256 256" version="1.1" xmlns="http://www.w3.org/2000/svg" xmlns:xlink="http://www.w3.org/1999/xlink">
    <title>Artboard</title>
    <g id="Artboard" stroke="none" stroke-width="1" fill="none" fill-rule="evenodd">
        <g id="HairDAO-Icon---Black-+-Teal" fill-rule="nonzero">
            <path d="M128,256 C57.4213953,256 0,198.582326 0,128 C0,57.4176744 57.4213953,0 128,0 C198.578605,0 256,57.4213953 256,128 C256,198.578605 198.578605,256 128,256 Z M128,9.74146977 C62.7906977,9.74146977 9.73774884,62.7906977 9.73774884,128 C9.73774884,193.209302 62.7906977,246.262326 128,246.262326 C193.209302,246.262326 246.258605,193.213023 246.258605,128 C246.258605,62.7869767 193.209302,9.74146977 128,9.74146977 L128,9.74146977 Z" id="Shape" fill="#000000"></path>
            <polygon id="Path" fill="#000000" points="111.237209 127.534884 111.237209 122.057674 111.237209 82.8874419 118.221395 75.3525581 118.221395 74.5302326 89.8716279 74.5302326 89.8716279 75.3525581 96.7218605 82.8874419 96.7218605 169.034419 89.8716279 176.431628 89.8716279 177.253953 118.221395 177.253953 118.221395 176.431628 111.237209 169.034419"></polygon>
            <path d="M51.3339535,150.946977 C51.131907,150.935442 50.9376744,150.864 50.775814,150.742326 C50.6050233,150.58307 50.4703256,150.389209 50.3802791,150.173395 C50.2906047,149.957953 50.247814,149.725395 50.2548837,149.492093 C50.187907,148.267907 50.6269767,147.08093 50.8986047,145.886512 C51.1702326,144.692093 51.2483721,143.337674 50.5488372,142.329302 C50.3181395,141.994419 50.0093023,141.715349 49.7786047,141.376744 C47.6167442,138.184186 55.255814,132.736744 57.1795349,130.902326 C60.6176744,127.613023 64.1637209,124.431628 67.8362791,121.406512 C73.2539535,116.941395 79.095814,112.312558 85.6372093,109.611163 C91.2744186,107.285581 97.3953488,108.450233 101.231628,112.565581 C105.067907,116.68093 105.655814,122.675349 102.857674,128.308837 C101.19814,131.657674 100.186047,134.106047 99.8474419,135.631628 C99.7845581,135.829209 99.7864186,136.042047 99.8533953,136.23814 C99.9203721,136.434605 100.048744,136.603907 100.219535,136.72186 C100.457674,136.84093 101.190698,136.55814 102.08,135.56093 C102.63814,134.935814 103.226047,134.266047 103.832558,133.573953 C106.909767,130.053953 110.738605,125.67814 115.095814,122.705116 C119.453023,119.732093 124.260465,119.259535 127.977674,121.436279 C130.545116,122.924651 133.432558,126.135814 133.44,132.911628 C147.951628,120 164.029767,120.893023 178.273488,121.67814 C184.997209,122.050233 191.806512,122.459535 198.493023,121.406512 C200.427907,121.101395 202.35907,120.751628 204.260465,120.290233 C205.16093,120.074419 206.243721,119.91814 206.894884,120.565581 C207.63907,121.309767 207.266977,122.623256 206.608372,123.456744 C205.949767,124.290233 205.049302,124.986047 204.729302,125.99814 C204.409302,127.010233 204.729302,128.059535 204.595349,129.082791 C204.49414,129.662512 204.272,130.214326 203.943814,130.702884 C203.615628,131.191442 203.188837,131.605209 202.690233,131.91814 C199.713488,133.860465 194.351628,133.406512 190.954419,133.495814 C186.515349,133.592558 182.072558,133.369302 177.64093,133.123721 C163.501395,132.334884 151.296744,131.661395 140.037209,142.426047 C136.498605,145.804651 131.817674,146.705116 127.813953,144.785116 C125.881674,143.833302 124.282791,142.318512 123.228651,140.440186 C122.174512,138.561488 121.714233,136.407442 121.908837,134.262326 C121.981395,133.492465 121.981395,132.717767 121.908837,131.947907 C121.793488,132.014884 121.670698,132.089302 121.536744,132.178605 C118.385116,134.329302 115.211163,137.938605 112.43907,141.108837 C111.79907,141.853023 111.181395,142.545116 110.578605,143.203721 C106.19907,148.085581 100.063256,149.529302 94.9506977,146.906047 C92.523907,145.632 90.5871628,143.590326 89.4429767,141.099907 C88.2984186,138.609116 88.0111628,135.80986 88.6251163,133.138605 C89.3693023,129.849302 91.2297674,125.882791 92.5618605,123.185116 C93.1869767,121.923721 93.2837209,120.870698 92.8148837,120.372093 C92.3460465,119.873488 91.3265116,119.653953 89.9795349,120.20093 C84.3497674,122.51907 79.2930233,126.842791 74.6530233,130.675349 C67.1553488,136.870698 60.6995349,144.189767 53.0716279,150.169302 C52.5953488,150.586047 51.9255814,150.987907 51.3339535,150.946977 Z" id="Path" fill="#36CCCC"></path>
            <polygon id="Path" fill="#000000" points="164.654884 75.3525581 164.654884 74.5302326 136.301395 74.5302326 136.301395 75.3525581 143.151628 82.8874419 143.151628 122.057674 143.151628 127.534884 143.151628 169.034419 136.301395 176.431628 136.301395 177.253953 164.654884 177.253953 164.654884 176.431628 157.804651 169.034419 157.804651 82.8874419"></polygon>
        </g>
    </g>
</svg>