<svg version="1.1" id="Layer_1" xmlns="http://www.w3.org/2000/svg" xmlns:xlink="http://www.w3.org/1999/xlink" x="0px" y="0px"
	 width="100%" viewBox="0 0 256 256" enable-background="new 0 0 256 256" xml:space="preserve">
<path fill="#000000" opacity="1.000000" stroke="none" 
	d="
M148.000000,257.000000 
	C98.666672,257.000000 49.833340,257.000000 1.000006,257.000000 
	C1.000004,171.666672 1.000004,86.333351 1.000002,1.000018 
	C86.333321,1.000012 171.666641,1.000012 257.000000,1.000006 
	C257.000000,86.333313 257.000000,171.666626 257.000000,256.999969 
	C220.833328,257.000000 184.666672,257.000000 148.000000,257.000000 
M87.922401,83.631783 
	C87.097176,85.154541 86.271950,86.677299 84.893944,88.668137 
	C77.561157,100.934311 70.516953,113.387947 62.737106,125.363701 
	C60.059780,129.485001 61.589741,130.578308 64.760773,132.378677 
	C71.470619,136.188232 78.030891,140.260239 84.679497,144.178833 
	C98.387085,152.257889 112.073601,160.374878 125.891319,168.261581 
	C127.248848,169.036392 129.792694,168.955185 131.217346,168.199478 
	C144.414001,161.199402 157.521240,154.027756 170.581345,146.774307 
	C179.427048,141.861465 188.155441,136.737457 197.205124,131.553925 
	C196.446167,129.910782 195.744553,128.391769 194.826736,126.267067 
	C194.232590,125.461388 193.638443,124.655716 192.793137,123.219658 
	C191.540588,121.440247 190.288040,119.660843 188.904007,117.389854 
	C188.618362,117.223160 188.332733,117.056465 188.001984,116.196175 
	C187.015610,114.747505 186.029236,113.298828 185.032776,111.157387 
	C184.037445,109.717888 183.042114,108.278397 182.043228,106.189423 
	C181.376801,105.427376 180.710358,104.665321 179.991165,103.214203 
	C179.341125,102.092819 178.691071,100.971436 177.880966,99.381577 
	C177.671722,99.103981 177.396347,98.932747 177.028229,98.245964 
	C176.711914,97.770020 176.395599,97.294075 176.066132,96.167542 
	C175.393799,95.395142 174.721451,94.622742 174.033615,93.228989 
	C173.704681,92.770096 173.375748,92.311203 172.745926,91.226654 
	C170.848450,88.102921 168.950989,84.979187 166.999817,81.153725 
	C165.350922,78.728355 163.702026,76.302979 161.989471,73.165581 
	C160.023026,70.048439 158.056564,66.931305 156.061478,63.101868 
	C154.054291,60.018326 152.047089,56.934780 149.736649,53.231937 
	C147.841583,50.103508 145.946518,46.975079 143.737976,43.230366 
	C138.811081,34.790169 133.884201,26.349972 128.665588,17.410013 
	C124.730804,23.840654 121.353561,29.360113 117.319214,35.142448 
	C115.871132,37.603649 114.423050,40.064850 113.021095,42.500839 
	C113.021095,42.500839 112.996109,42.454590 112.487968,43.002426 
	C107.392349,51.483624 102.296722,59.964817 96.712898,68.858353 
	C95.958290,70.305168 95.203682,71.751984 93.901794,73.659210 
	C92.997437,75.260406 92.093079,76.861595 90.698883,78.870255 
	C89.948883,80.313026 89.198875,81.755798 87.922401,83.631783 
M163.000000,161.999390 
	C163.000000,161.999390 162.940567,161.920837 162.241135,161.991364 
	C160.807877,162.967453 159.374619,163.943527 158.020248,164.882629 
	C158.020248,164.882629 157.959152,164.820526 157.230545,164.984589 
	C148.890320,169.750580 140.610901,174.629395 132.158188,179.186768 
	C130.481613,180.090698 127.615334,180.678940 126.185387,179.860947 
	C109.350174,170.230484 92.788971,160.117905 75.886940,150.609909 
	C72.425697,148.662842 69.067101,144.642166 63.525387,146.586624 
	C65.625771,149.332626 67.381836,151.628494 69.087257,154.643433 
	C72.690956,160.013519 76.170647,165.472229 79.929153,170.731689 
	C84.832718,177.593506 89.957199,184.297440 95.018768,191.774109 
	C98.325005,196.539230 101.631233,201.304337 105.226456,206.687027 
	C108.117149,210.822052 111.007835,214.957062 114.228813,219.687225 
	C116.815269,223.128387 119.401726,226.569550 122.057419,230.708923 
	C124.090187,233.669922 126.122955,236.630905 128.636978,240.292908 
	C130.970703,236.903793 132.985855,233.977325 135.556549,230.666794 
	C138.386154,226.455811 141.215744,222.244843 144.639359,217.707626 
	C147.100067,214.157150 149.560791,210.606689 152.567001,206.657974 
	C157.417358,199.800064 162.267731,192.942154 167.663635,185.684189 
	C170.018387,182.375443 172.422363,179.100418 174.717422,175.750778 
	C179.201218,169.206711 183.624176,162.620956 188.020630,155.990891 
	C188.020630,155.990891 188.055710,156.061401 188.676208,155.827286 
	C189.716675,154.212296 190.757141,152.597321 192.116272,150.368958 
	C193.929535,148.081223 195.742798,145.793488 197.556061,143.505737 
	C197.303192,143.083298 197.050339,142.660858 196.797485,142.238403 
	C187.528961,147.869919 178.260452,153.501419 168.350555,159.251266 
	C167.220978,159.883881 166.091415,160.516479 164.341248,161.007095 
	C163.875732,161.310654 163.410217,161.614212 163.000000,161.999390 
z"/>
<path fill="#FDFDFE" opacity="1.000000" stroke="none" 
	d="
M195.042938,126.872757 
	C195.744553,128.391769 196.446167,129.910782 197.205124,131.553925 
	C188.155441,136.737457 179.427048,141.861465 170.581345,146.774307 
	C157.521240,154.027756 144.414001,161.199402 131.217346,168.199478 
	C129.792694,168.955185 127.248848,169.036392 125.891319,168.261581 
	C112.073601,160.374878 98.387085,152.257889 84.679497,144.178833 
	C78.030891,140.260239 71.470619,136.188232 64.760773,132.378677 
	C61.589741,130.578308 60.059780,129.485001 62.737106,125.363701 
	C70.516953,113.387947 77.561157,100.934311 85.405273,88.731293 
	C86.086113,88.981697 86.255608,89.168938 86.287735,89.685600 
	C85.803238,91.336235 85.456123,92.657455 84.963844,94.180878 
	C84.818680,94.383080 84.631058,94.844200 84.287926,94.837929 
	C82.860580,96.529282 81.776360,98.226898 80.497894,100.043449 
	C80.104057,100.409966 80.005020,100.692795 79.746628,101.208206 
	C78.898293,102.578430 78.309837,103.751289 77.476944,105.098907 
	C76.799347,106.156342 76.366196,107.039024 75.670105,108.119720 
	C74.593117,109.867966 73.779076,111.418175 72.699295,113.160690 
	C71.627380,114.901978 70.821190,116.450974 69.766830,118.157990 
	C69.318604,118.857620 69.118546,119.399223 68.622208,120.119011 
	C67.229980,122.232109 66.134033,124.167023 65.038078,126.101936 
	C65.276245,126.572670 65.514412,127.043404 65.752571,127.514137 
	C77.403488,124.200043 89.845001,130.302017 101.466270,123.425278 
	C102.520569,125.402420 103.634483,127.491348 104.641350,129.379547 
	C105.974846,128.321564 106.846428,127.476616 107.856682,126.858208 
	C110.548569,125.210403 113.300156,123.660118 116.341499,122.000107 
	C117.771584,120.983681 118.888176,120.038208 120.337646,119.011673 
	C123.160393,116.986954 125.650253,115.043289 128.509766,113.050514 
	C130.535858,113.370743 132.192322,113.740089 134.042847,114.392044 
	C137.148514,116.146423 140.060120,117.618195 143.133743,119.378326 
	C144.861755,120.449852 146.427734,121.233025 148.196304,122.290154 
	C151.927841,124.358299 155.456802,126.152489 159.220901,128.258469 
	C161.341873,129.045990 163.218109,129.881241 165.115311,129.931992 
	C171.536072,130.103729 177.991470,130.351318 184.378998,129.859772 
	C187.988892,129.581970 191.491821,127.914352 195.042938,126.872757 
M129.026031,140.902176 
	C129.111359,144.256958 129.196686,147.611755 129.198456,151.619659 
	C129.371048,152.476517 129.543640,153.333389 129.471878,154.768921 
	C129.356140,155.820892 129.240387,156.872879 129.049911,158.736023 
	C129.198532,160.094986 129.347153,161.453964 129.518875,163.024231 
	C143.683243,156.306442 156.326096,148.380661 168.332138,139.429077 
	C168.414551,139.367630 167.406143,137.843155 166.822250,136.315475 
	C163.654816,134.813629 160.487396,133.311798 156.875534,131.289505 
	C154.264160,129.516510 151.652771,127.743523 148.601166,125.440514 
	C145.606567,123.912148 142.611969,122.383781 139.388016,120.738358 
	C139.388016,125.679558 139.388016,129.926651 139.193375,134.841568 
	C138.791489,136.916748 138.389587,138.991913 137.356750,140.669662 
	C134.613220,140.442963 131.869690,140.216263 129.026031,140.902176 
M110.174324,133.869522 
	C109.775871,134.594040 109.103287,135.293915 109.035515,136.048141 
	C108.890327,137.663925 109.057610,139.307816 109.096931,140.940186 
	C110.872513,140.637192 112.763847,140.610031 114.381676,139.931107 
	C115.405548,139.501434 116.021614,138.100006 116.766159,137.200180 
	C114.540054,135.817047 112.632256,134.631683 110.174324,133.869522 
z"/>
<path fill="#F9FCFD" opacity="1.000000" stroke="none" 
	d="
M69.137901,153.924347 
	C67.381836,151.628494 65.625771,149.332626 63.525387,146.586624 
	C69.067101,144.642166 72.425697,148.662842 75.886940,150.609909 
	C92.788971,160.117905 109.350174,170.230484 126.185387,179.860947 
	C127.615334,180.678940 130.481613,180.090698 132.158188,179.186768 
	C140.610901,174.629395 148.890320,169.750580 157.873993,165.141113 
	C158.277939,165.716125 158.038452,166.134628 157.467941,166.681122 
	C154.032913,168.765167 150.928879,170.721237 147.483887,172.773224 
	C142.341125,175.877914 137.539368,178.886673 132.378296,181.959747 
	C127.470451,183.918182 129.499893,187.783463 129.243286,191.440933 
	C129.208893,195.255783 129.263412,198.620071 129.158081,202.268677 
	C128.048096,202.349152 127.097931,202.145279 126.072861,201.600922 
	C122.890747,197.551834 119.783539,193.843231 115.903183,189.211838 
	C115.903183,194.790161 115.903183,198.901733 115.808334,203.379089 
	C115.623520,205.200363 115.533569,206.655823 115.393806,208.917282 
	C113.004776,206.399979 111.275093,204.577438 109.501678,202.716461 
	C109.457947,202.678040 109.373306,202.598099 109.407181,202.290970 
	C108.979507,201.636505 108.517960,201.289185 108.031464,200.972763 
	C108.006531,201.003677 108.065346,200.947800 108.082756,200.614044 
	C107.071793,199.174484 106.043411,198.068680 105.006409,196.982071 
	C104.997780,197.001266 105.037796,196.988220 105.006004,196.667603 
	C104.027031,195.616241 103.079849,194.885468 102.041389,193.828644 
	C100.621201,192.012268 99.292297,190.521927 97.923805,188.684540 
	C89.811890,178.006653 81.783905,167.640472 73.616371,157.385468 
	C72.474731,155.952057 70.647682,155.064545 69.137901,153.924347 
z"/>
<path fill="#96C5E4" opacity="1.000000" stroke="none" 
	d="
M72.965034,112.968391 
	C73.779076,111.418175 74.593117,109.867966 75.924469,108.410095 
	C79.696487,108.335663 82.954453,107.979080 86.205368,108.034592 
	C101.283836,108.292084 116.358917,108.797249 131.437943,108.957878 
	C147.054138,109.124222 162.673920,109.045631 178.290573,108.903450 
	C179.548813,108.891991 180.794998,107.558197 182.046783,106.838898 
	C183.042114,108.278397 184.037445,109.717888 184.957642,111.891495 
	C183.919525,113.078049 182.967224,113.892685 181.991714,113.921494 
	C177.256836,114.061249 172.515701,113.981827 167.776840,113.995743 
	C156.467468,114.028938 145.158142,114.070969 133.848785,114.109436 
	C132.192322,113.740089 130.535858,113.370743 128.028198,113.016319 
	C114.276802,113.021004 101.376625,113.012604 88.476440,112.999611 
	C83.305962,112.994400 78.135506,112.979103 72.965034,112.968391 
z"/>
<path fill="#7FB9DE" opacity="1.000000" stroke="none" 
	d="
M182.045013,106.514160 
	C180.794998,107.558197 179.548813,108.891991 178.290573,108.903450 
	C162.673920,109.045631 147.054138,109.124222 131.437943,108.957878 
	C116.358917,108.797249 101.283836,108.292084 86.205368,108.034592 
	C82.954453,107.979080 79.696487,108.335663 76.187408,108.212067 
	C76.366196,107.039024 76.799347,106.156342 77.924171,105.116287 
	C79.901955,104.670410 81.186935,104.136879 82.474358,104.130898 
	C97.083076,104.063049 111.693810,103.955025 126.299988,104.153603 
	C129.870331,104.202141 133.416336,105.794449 136.990311,105.868561 
	C148.357132,106.104294 159.734711,106.098358 171.101608,105.866264 
	C174.094498,105.805145 177.063782,104.589020 180.043915,103.903275 
	C180.710358,104.665321 181.376801,105.427376 182.045013,106.514160 
z"/>
<path fill="#308AC7" opacity="1.000000" stroke="none" 
	d="
M167.053513,81.855453 
	C168.950989,84.979187 170.848450,88.102921 172.812637,91.926346 
	C169.801224,92.751701 166.723465,92.974724 163.644928,92.985802 
	C151.762573,93.028572 139.879974,93.003654 127.998734,93.001984 
	C128.000000,93.000000 127.996033,93.002510 127.998550,92.552185 
	C128.003250,89.399940 128.005447,86.698013 128.466537,83.997360 
	C140.213684,83.999054 151.503067,84.075394 162.788742,83.905090 
	C164.220322,83.883499 165.632401,82.570274 167.053513,81.855453 
z"/>
<path fill="#235CA4" opacity="1.000000" stroke="none" 
	d="
M117.976311,34.879570 
	C121.353561,29.360113 124.730804,23.840654 128.665588,17.410013 
	C133.884201,26.349972 138.811081,34.790169 143.900787,43.901382 
	C143.477005,45.380222 142.869583,46.900322 142.307098,46.883873 
	C137.541855,46.744499 132.784821,46.324986 128.015930,45.659035 
	C127.998085,44.887634 127.989632,44.446754 127.990570,43.537483 
	C127.999962,37.643867 127.999962,32.218643 127.999962,26.793415 
	C127.477776,26.694393 126.955597,26.595369 126.433411,26.496347 
	C123.606155,31.968681 120.778893,37.441017 117.643555,42.970917 
	C116.571960,43.704880 115.808456,44.381275 114.753006,45.035782 
	C114.071434,45.004810 113.681801,44.995728 113.458420,44.515369 
	C113.415161,43.514256 113.205635,42.984425 112.996109,42.454590 
	C112.996109,42.454590 113.021095,42.500839 113.380402,42.715569 
	C115.151917,40.246719 116.564110,37.563145 117.976311,34.879570 
z"/>
<path fill="#6EAFD9" opacity="1.000000" stroke="none" 
	d="
M180.017548,103.558746 
	C177.063782,104.589020 174.094498,105.805145 171.101608,105.866264 
	C159.734711,106.098358 148.357132,106.104294 136.990311,105.868561 
	C133.416336,105.794449 129.870331,104.202141 126.299988,104.153603 
	C111.693810,103.955025 97.083076,104.063049 82.474358,104.130898 
	C81.186935,104.136879 79.901955,104.670410 78.168617,104.941528 
	C78.309837,103.751289 78.898293,102.578430 79.998779,101.468384 
	C83.607552,101.354141 86.703629,101.038849 89.801132,101.024178 
	C102.535995,100.963860 115.271286,100.994957 128.466736,100.995331 
	C133.614471,101.327751 138.301926,101.657280 143.453629,101.992340 
	C147.948547,101.994461 151.979202,101.991051 156.458847,101.988541 
	C159.601883,101.988922 162.295914,101.988411 165.367416,101.993011 
	C166.499817,101.994820 167.254776,101.991524 168.445953,101.989120 
	C170.917892,101.989098 172.953598,101.988174 175.354996,101.985718 
	C176.494125,101.272804 177.267578,100.561432 178.041031,99.850052 
	C178.691071,100.971436 179.341125,102.092819 180.017548,103.558746 
z"/>
<path fill="#2C81C1" opacity="1.000000" stroke="none" 
	d="
M167.026672,81.504585 
	C165.632401,82.570274 164.220322,83.883499 162.788742,83.905090 
	C151.503067,84.075394 140.213684,83.999054 128.464172,83.598267 
	C127.998444,82.133263 127.993958,81.068619 127.993660,79.586479 
	C128.003204,77.777184 128.008560,76.385384 128.436111,75.005875 
	C138.896805,75.337234 148.934311,75.718925 158.975372,75.879433 
	C159.990372,75.895653 161.026718,74.576859 162.053146,73.877609 
	C163.702026,76.302979 165.350922,78.728355 167.026672,81.504585 
z"/>
<path fill="#2979BB" opacity="1.000000" stroke="none" 
	d="
M162.021301,73.521591 
	C161.026718,74.576859 159.990372,75.895653 158.975372,75.879433 
	C148.934311,75.718925 138.896805,75.337234 128.432037,74.562775 
	C127.997345,71.740562 127.988907,69.373764 127.990234,66.752777 
	C128.006805,66.329155 128.013626,66.159706 128.442200,66.003662 
	C136.433838,66.314445 144.004303,66.786964 151.573090,66.761078 
	C153.082108,66.755913 154.584595,64.845856 156.090103,63.814167 
	C158.056564,66.931305 160.023026,70.048439 162.021301,73.521591 
z"/>
<path fill="#54A1D3" opacity="1.000000" stroke="none" 
	d="
M142.989365,101.986809 
	C138.301926,101.657280 133.614471,101.327751 128.373337,100.599869 
	C126.822266,99.801376 125.819260,99.039886 124.828354,99.055328 
	C110.115334,99.284561 95.403931,99.616707 80.692139,99.924522 
	C81.776360,98.226898 82.860580,96.529282 84.685486,95.002296 
	C88.998390,95.119080 92.573586,94.945236 96.142258,95.033913 
	C106.765083,95.297882 117.385353,95.664993 128.003311,95.995911 
	C128.000000,96.000000 128.007599,95.993484 128.095917,96.390869 
	C129.345978,97.192337 130.505646,97.940903 131.669769,97.947906 
	C145.279587,98.029778 158.890244,98.029602 172.500092,97.948624 
	C173.695358,97.941513 174.886322,97.212067 176.079285,96.818130 
	C176.395599,97.294075 176.711914,97.770020 176.872681,98.834991 
	C176.141190,100.278427 175.565262,101.132843 174.989319,101.987259 
	C172.953598,101.988174 170.917892,101.989098 168.393066,101.656708 
	C166.932632,101.544899 165.961288,101.766396 164.989960,101.987885 
	C162.295914,101.988411 159.601883,101.988922 156.373505,101.609741 
	C151.958313,99.312782 145.080353,99.717842 142.989365,101.986809 
z"/>
<path fill="#2670B4" opacity="1.000000" stroke="none" 
	d="
M156.075790,63.458019 
	C154.584595,64.845856 153.082108,66.755913 151.573090,66.761078 
	C144.004303,66.786964 136.433838,66.314445 128.436646,65.550552 
	C128.013840,62.053036 128.018326,59.022018 128.454102,55.993835 
	C132.123413,56.330109 135.563019,57.503273 138.548996,56.786552 
	C142.368423,55.869781 147.113464,58.125744 150.039902,53.851234 
	C152.047089,56.934780 154.054291,60.018326 156.075790,63.458019 
z"/>
<path fill="#D7E9F5" opacity="1.000000" stroke="none" 
	d="
M158.985764,127.946678 
	C155.456802,126.152489 151.927841,124.358299 148.490463,121.991371 
	C150.219086,121.279587 151.855682,121.026215 153.493225,121.020180 
	C163.620178,120.982864 173.747314,120.999626 183.874405,121.002205 
	C186.228455,121.002808 188.739120,121.277161 189.035492,117.881439 
	C190.288040,119.660843 191.540588,121.440247 192.820679,123.939194 
	C191.221405,125.104553 189.600616,125.907890 187.966705,125.935577 
	C180.034027,126.070007 172.094940,125.883018 164.165146,126.085327 
	C162.423996,126.129745 160.711472,127.296684 158.985764,127.946678 
z"/>
<path fill="#AED2EA" opacity="1.000000" stroke="none" 
	d="
M134.042847,114.392044 
	C145.158142,114.070969 156.467468,114.028938 167.776840,113.995743 
	C172.515701,113.981827 177.256836,114.061249 181.991714,113.921494 
	C182.967224,113.892685 183.919525,113.078049 184.962677,112.237885 
	C186.029236,113.298828 187.015610,114.747505 187.739685,116.856964 
	C174.519104,117.677628 161.560059,117.796387 148.603439,118.042923 
	C146.720230,118.078751 144.848679,118.725769 142.971725,119.089966 
	C140.060120,117.618195 137.148514,116.146423 134.042847,114.392044 
z"/>
<path fill="#2166AD" opacity="1.000000" stroke="none" 
	d="
M149.888275,53.541588 
	C147.113464,58.125744 142.368423,55.869781 138.548996,56.786552 
	C135.563019,57.503273 132.123413,56.330109 128.445984,55.663048 
	C127.997696,54.888180 127.988800,54.446938 127.988289,53.560978 
	C128.006226,50.740688 128.015778,48.365120 128.025314,45.989548 
	C132.784821,46.324986 137.541855,46.744499 142.307098,46.883873 
	C142.869583,46.900322 143.477005,45.380222 144.057526,44.209526 
	C145.946518,46.975079 147.841583,50.103508 149.888275,53.541588 
z"/>
<path fill="#235CA4" opacity="1.000000" stroke="none" 
	d="
M168.991928,159.132935 
	C178.260452,153.501419 187.528961,147.869919 196.797485,142.238403 
	C197.050339,142.660858 197.303192,143.083298 197.556061,143.505737 
	C195.742798,145.793488 193.929535,148.081223 191.616974,150.726288 
	C190.097031,152.742874 189.076370,154.402145 188.055710,156.061401 
	C188.055710,156.061401 188.020630,155.990891 187.694366,156.027100 
	C184.916840,158.385818 182.465576,160.708328 179.780182,162.729065 
	C177.341797,161.952271 175.104095,161.591644 172.945297,160.960953 
	C171.567108,160.558334 170.305695,159.756042 168.991928,159.132935 
z"/>
<path fill="#3E5F94" opacity="1.000000" stroke="none" 
	d="
M69.112579,154.283890 
	C70.647682,155.064545 72.474731,155.952057 73.616371,157.385468 
	C81.783905,167.640472 89.811890,178.006653 97.566269,188.671982 
	C96.494431,189.694092 95.740532,190.381699 94.986633,191.069305 
	C89.957199,184.297440 84.832718,177.593506 79.929153,170.731689 
	C76.170647,165.472229 72.690956,160.013519 69.112579,154.283890 
z"/>
<path fill="#162951" opacity="1.000000" stroke="none" 
	d="
M152.021515,207.056229 
	C149.560791,210.606689 147.100067,214.157150 143.936096,217.810547 
	C140.198380,217.615036 137.163925,217.316635 134.098022,216.737823 
	C134.111969,216.084030 134.157364,215.710663 134.448730,215.091736 
	C134.901306,213.955719 135.107925,213.065216 135.345673,212.179077 
	C135.376785,212.183411 135.439377,212.189316 135.661133,211.940048 
	C136.645935,209.586166 137.409012,207.481567 138.433777,205.336731 
	C139.045975,205.268280 139.396500,205.240051 139.749420,205.183502 
	C139.751831,205.155167 139.793839,205.193497 139.860199,205.486786 
	C140.508926,206.274551 141.091309,206.769012 141.709198,207.274689 
	C141.744720,207.285919 141.814087,207.313034 141.963333,207.612030 
	C142.784409,207.623581 143.456238,207.336121 144.386917,206.919586 
	C145.341766,206.128159 146.037781,205.465836 147.100449,204.876480 
	C148.985245,205.651718 150.503372,206.353973 152.021515,207.056229 
z"/>
<path fill="#C3DEEF" opacity="1.000000" stroke="none" 
	d="
M143.133743,119.378326 
	C144.848679,118.725769 146.720230,118.078751 148.603439,118.042923 
	C161.560059,117.796387 174.519104,117.677628 187.762238,117.203766 
	C188.332733,117.056465 188.618362,117.223160 188.969757,117.635651 
	C188.739120,121.277161 186.228455,121.002808 183.874405,121.002205 
	C173.747314,120.999626 163.620178,120.982864 153.493225,121.020180 
	C151.855682,121.026215 150.219086,121.279587 148.287888,121.717415 
	C146.427734,121.233025 144.861755,120.449852 143.133743,119.378326 
z"/>
<path fill="#2B4070" opacity="1.000000" stroke="none" 
	d="
M152.294250,206.857101 
	C150.503372,206.353973 148.985245,205.651718 147.194763,204.567520 
	C147.942215,202.791077 148.962006,201.396576 150.282288,199.851196 
	C153.165680,195.935486 155.748581,192.170609 158.621841,188.275040 
	C160.252655,187.085205 161.593140,186.026093 163.299713,184.983002 
	C164.816574,185.360764 165.967331,185.722504 167.118088,186.084244 
	C162.267731,192.942154 157.417358,199.800064 152.294250,206.857101 
z"/>
<path fill="#F1F8FB" opacity="1.000000" stroke="none" 
	d="
M159.220901,128.258469 
	C160.711472,127.296684 162.423996,126.129745 164.165146,126.085327 
	C172.094940,125.883018 180.034027,126.070007 187.966705,125.935577 
	C189.600616,125.907890 191.221405,125.104553 192.946259,124.254379 
	C193.638443,124.655716 194.232590,125.461388 194.934845,126.569908 
	C191.491821,127.914352 187.988892,129.581970 184.378998,129.859772 
	C177.991470,130.351318 171.536072,130.103729 165.115311,129.931992 
	C163.218109,129.881241 161.341873,129.045990 159.220901,128.258469 
z"/>
<path fill="#2166AD" opacity="1.000000" stroke="none" 
	d="
M168.671234,159.192108 
	C170.305695,159.756042 171.567108,160.558334 172.945297,160.960953 
	C175.104095,161.591644 177.341797,161.952271 179.643784,163.028839 
	C178.179047,165.428986 176.616623,167.227539 174.665634,168.856110 
	C171.215164,168.457199 168.139099,168.342056 165.095779,167.963531 
	C162.642975,167.658463 160.229736,167.035202 157.798950,166.553116 
	C158.038452,166.134628 158.277939,165.716125 158.238297,165.059082 
	C157.959152,164.820526 158.020248,164.882629 158.234543,165.255463 
	C159.946075,164.392471 161.443329,163.156662 162.940567,161.920837 
	C162.940567,161.920837 163.000000,161.999390 163.184021,162.280853 
	C163.899323,162.091232 164.430573,161.620148 164.961853,161.149078 
	C166.091415,160.516479 167.220978,159.883881 168.671234,159.192108 
z"/>
<path fill="#3F93CB" opacity="1.000000" stroke="none" 
	d="
M127.997475,93.003967 
	C139.879974,93.003654 151.762573,93.028572 163.644928,92.985802 
	C166.723465,92.974724 169.801224,92.751701 172.963074,92.239166 
	C173.375748,92.311203 173.704681,92.770096 173.951111,93.943146 
	C172.570038,95.104118 171.260010,95.955902 169.975128,95.919533 
	C166.534500,95.822166 163.099701,95.024284 159.671387,95.076881 
	C149.114594,95.238823 138.561890,95.668083 128.007599,95.993484 
	C128.007599,95.993484 128.000000,96.000000 128.001556,95.622551 
	C128.001221,94.498055 127.999352,93.751015 127.997475,93.003967 
z"/>
<path fill="#3C5388" opacity="1.000000" stroke="none" 
	d="
M175.054184,169.026108 
	C176.616623,167.227539 178.179047,165.428986 179.877899,163.330627 
	C182.465576,160.708328 184.916840,158.385818 187.720215,156.057892 
	C183.624176,162.620956 179.201218,169.206711 174.717422,175.750778 
	C172.422363,179.100418 170.018387,182.375443 167.390869,185.884216 
	C165.967331,185.722504 164.816574,185.360764 163.322220,184.744171 
	C162.978622,184.489334 163.018127,184.010803 163.312195,183.856598 
	C165.393036,181.455917 167.179794,179.209427 169.242233,176.783127 
	C171.363342,174.077576 173.208771,171.551849 175.054184,169.026108 
z"/>
<path fill="#0E1D3D" opacity="1.000000" stroke="none" 
	d="
M134.129456,217.018234 
	C137.163925,217.316635 140.198380,217.615036 143.639099,217.973663 
	C141.215744,222.244843 138.386154,226.455811 135.205109,230.477875 
	C132.907272,229.861404 130.960892,229.433838 129.167755,228.705185 
	C129.575607,227.330032 129.830185,226.255981 130.389084,224.984131 
	C131.282578,223.247284 131.871765,221.708237 132.653946,219.934082 
	C133.274460,218.805405 133.701965,217.911819 134.129456,217.018234 
z"/>
<path fill="#499BD0" opacity="1.000000" stroke="none" 
	d="
M128.095917,96.390869 
	C138.561890,95.668083 149.114594,95.238823 159.671387,95.076881 
	C163.099701,95.024284 166.534500,95.822166 169.975128,95.919533 
	C171.260010,95.955902 172.570038,95.104118 173.958847,94.253830 
	C174.721451,94.622742 175.393799,95.395142 176.072708,96.492828 
	C174.886322,97.212067 173.695358,97.941513 172.500092,97.948624 
	C158.890244,98.029602 145.279587,98.029778 131.669769,97.947906 
	C130.505646,97.940903 129.345978,97.192337 128.095917,96.390869 
z"/>
<path fill="#061129" opacity="1.000000" stroke="none" 
	d="
M129.014511,229.006271 
	C130.960892,229.433838 132.907272,229.861404 134.927338,230.669922 
	C132.985855,233.977325 130.970703,236.903793 128.636978,240.292908 
	C126.122955,236.630905 124.090187,233.669922 122.381149,230.199326 
	C124.516914,229.438644 126.328934,229.187546 128.359406,228.953156 
	C128.577850,228.969849 129.014511,229.006271 129.014511,229.006271 
z"/>
<path fill="#0E1D3D" opacity="1.000000" stroke="none" 
	d="
M128.140961,228.936462 
	C126.328934,229.187546 124.516914,229.438644 122.346535,229.850220 
	C119.401726,226.569550 116.815269,223.128387 114.375938,219.225739 
	C115.976181,218.186981 117.429306,217.609695 119.150162,217.200409 
	C120.287239,218.284729 121.156578,219.201019 122.096054,220.369598 
	C122.635223,221.129395 123.104271,221.636902 123.671310,222.437729 
	C124.187195,223.161621 124.605080,223.592194 125.118050,224.333878 
	C126.189079,226.075470 127.165024,227.505966 128.140961,228.936462 
z"/>
<path fill="#2B4070" opacity="1.000000" stroke="none" 
	d="
M95.002701,191.421707 
	C95.740532,190.381699 96.494431,189.694092 97.605865,189.019028 
	C99.292297,190.521927 100.621201,192.012268 102.113449,194.134674 
	C103.197121,195.507233 104.117462,196.247726 105.037796,196.988220 
	C105.037796,196.988220 104.997780,197.001266 104.936813,197.350159 
	C105.939003,198.781967 107.002174,199.864883 108.065346,200.947800 
	C108.065346,200.947800 108.006531,201.003677 107.972229,201.309601 
	C108.416389,201.943039 108.894852,202.270569 109.373306,202.598099 
	C109.373306,202.598099 109.457947,202.678040 109.255508,203.002197 
	C108.958740,203.558609 108.864410,203.790833 108.457878,204.062576 
	C107.076271,204.757889 106.006874,205.413666 104.937469,206.069443 
	C101.631233,201.304337 98.325005,196.539230 95.002701,191.421707 
z"/>
<path fill="#162951" opacity="1.000000" stroke="none" 
	d="
M105.081970,206.378235 
	C106.006874,205.413666 107.076271,204.757889 108.640915,204.362656 
	C111.903404,207.843918 114.670654,211.064636 117.580215,214.560150 
	C118.109169,215.567429 118.495796,216.299927 118.882431,217.032410 
	C117.429306,217.609695 115.976181,218.186981 114.210793,218.928177 
	C111.007835,214.957062 108.117149,210.822052 105.081970,206.378235 
z"/>
<path fill="#FDFDFE" opacity="1.000000" stroke="none" 
	d="
M112.742035,42.728508 
	C113.205635,42.984425 113.415161,43.514256 113.231026,44.786285 
	C109.861855,50.640907 106.886353,55.753326 103.657425,61.028088 
	C103.175537,61.739418 102.947075,62.288403 102.467209,63.045189 
	C100.840118,65.194855 99.464432,67.136719 97.872978,68.911827 
	C97.505173,68.645386 97.353134,68.545700 97.201103,68.446014 
	C102.296722,59.964817 107.392349,51.483624 112.742035,42.728508 
z"/>
<path fill="#FDFDFE" opacity="1.000000" stroke="none" 
	d="
M117.647766,35.011009 
	C116.564110,37.563145 115.151917,40.246719 113.357346,42.728172 
	C114.423050,40.064850 115.871132,37.603649 117.647766,35.011009 
z"/>
<path fill="#3C5388" opacity="1.000000" stroke="none" 
	d="
M188.365967,155.944336 
	C189.076370,154.402145 190.097031,152.742874 191.457642,151.032974 
	C190.757141,152.597321 189.716675,154.212296 188.365967,155.944336 
z"/>
<path fill="#FDFDFE" opacity="1.000000" stroke="none" 
	d="
M91.188721,78.462791 
	C92.093079,76.861595 92.997437,75.260406 94.395859,73.715271 
	C95.049713,73.951561 95.209503,74.131783 95.276993,74.617767 
	C94.754425,75.885788 94.324158,76.848061 93.652809,77.940170 
	C93.063141,78.484634 92.714554,78.899254 92.076668,79.094170 
	C91.587822,78.737236 91.388268,78.600014 91.188721,78.462791 
z"/>
<path fill="#F9FCFD" opacity="1.000000" stroke="none" 
	d="
M162.590851,161.956100 
	C161.443329,163.156662 159.946075,164.392471 158.195099,165.273956 
	C159.374619,163.943527 160.807877,162.967453 162.590851,161.956100 
z"/>
<path fill="#FDFDFE" opacity="1.000000" stroke="none" 
	d="
M85.681671,88.497253 
	C86.271950,86.677299 87.097176,85.154541 88.412506,83.707062 
	C89.066681,83.966232 89.230759,84.150131 89.278992,84.640884 
	C88.250458,86.417221 87.337776,87.886696 86.425102,89.356178 
	C86.255608,89.168938 86.086113,88.981697 85.681671,88.497253 
z"/>
<path fill="#FDFDFE" opacity="1.000000" stroke="none" 
	d="
M88.675735,83.490448 
	C89.198875,81.755798 89.948883,80.313026 90.943802,78.666519 
	C91.388268,78.600014 91.587822,78.737236 91.973991,79.404861 
	C91.238686,81.401512 90.316757,82.867767 89.394836,84.334023 
	C89.230759,84.150131 89.066681,83.966232 88.675735,83.490448 
z"/>
<path fill="#FDFDFE" opacity="1.000000" stroke="none" 
	d="
M94.669495,73.485062 
	C95.203682,71.751984 95.958290,70.305168 96.957001,68.652184 
	C97.353134,68.545700 97.505173,68.645386 97.822128,69.245796 
	C97.114464,71.268349 96.241882,72.790176 95.369301,74.312012 
	C95.209503,74.131783 95.049713,73.951561 94.669495,73.485062 
z"/>
<path fill="#61A8D6" opacity="1.000000" stroke="none" 
	d="
M175.355011,101.985718 
	C175.565262,101.132843 176.141190,100.278427 176.885986,99.145943 
	C177.396347,98.932747 177.671722,99.103981 177.960999,99.615814 
	C177.267578,100.561432 176.494125,101.272804 175.355011,101.985718 
z"/>
<path fill="#F9FCFD" opacity="1.000000" stroke="none" 
	d="
M164.651550,161.078094 
	C164.430573,161.620148 163.899323,162.091232 163.156372,162.240036 
	C163.410217,161.614212 163.875732,161.310654 164.651550,161.078094 
z"/>
<path fill="#AED2EA" opacity="1.000000" stroke="none" 
	d="
M72.699295,113.160690 
	C78.135506,112.979103 83.305962,112.994400 88.476440,112.999611 
	C101.376625,113.012604 114.276802,113.021004 127.658554,113.065437 
	C125.650253,115.043289 123.160393,116.986954 120.279831,118.646866 
	C119.559303,118.024216 119.226357,117.385986 118.900063,117.389381 
	C102.604691,117.558296 86.309875,117.782120 70.015007,117.999962 
	C70.821190,116.450974 71.627380,114.901978 72.699295,113.160690 
z"/>
<path fill="#D7E9F5" opacity="1.000000" stroke="none" 
	d="
M116.028000,122.071053 
	C113.300156,123.660118 110.548569,125.210403 107.856682,126.858208 
	C106.846428,127.476616 105.974846,128.321564 104.641350,129.379547 
	C103.634483,127.491348 102.520569,125.402420 101.466270,123.425278 
	C89.845001,130.302017 77.403488,124.200043 65.752571,127.514137 
	C65.514412,127.043404 65.276245,126.572670 65.038078,126.101936 
	C66.134033,124.167023 67.229980,122.232109 68.925079,120.422813 
	C83.144943,120.699417 96.766312,120.811707 110.385582,121.046104 
	C112.271706,121.078568 114.147453,121.714500 116.028000,122.071053 
z"/>
<path fill="#D4DBF1" opacity="1.000000" stroke="none" 
	d="
M166.907074,137.001831 
	C167.406143,137.843155 168.414551,139.367630 168.332138,139.429077 
	C156.326096,148.380661 143.683243,156.306442 129.518875,163.024231 
	C129.347153,161.453964 129.198532,160.094986 129.458328,158.347900 
	C132.460663,157.049744 135.031998,156.067902 137.652878,155.243652 
	C144.524963,153.082458 151.287140,150.846771 152.381439,142.030197 
	C158.006577,144.394531 159.236359,143.945221 161.044281,138.755646 
	C163.140610,137.957870 165.023834,137.479858 166.907074,137.001831 
z"/>
<path fill="#C3DEEF" opacity="1.000000" stroke="none" 
	d="
M116.341499,122.000107 
	C114.147453,121.714500 112.271706,121.078568 110.385582,121.046104 
	C96.766312,120.811707 83.144943,120.699417 69.221359,120.244629 
	C69.118546,119.399223 69.318604,118.857620 69.766830,118.157990 
	C86.309875,117.782120 102.604691,117.558296 118.900063,117.389381 
	C119.226357,117.385986 119.559303,118.024216 119.946945,118.727928 
	C118.888176,120.038208 117.771584,120.983681 116.341499,122.000107 
z"/>
<path fill="#90A3D7" opacity="1.000000" stroke="none" 
	d="
M160.831207,139.075378 
	C159.236359,143.945221 158.006577,144.394531 151.997955,142.009491 
	C149.817688,143.465958 148.418732,144.982773 146.935333,146.411972 
	C145.043304,148.234909 142.544968,151.820953 141.248779,151.440628 
	C136.552490,150.062653 133.486588,153.186676 129.716232,154.190247 
	C129.543640,153.333389 129.371048,152.476517 129.580597,151.291443 
	C132.312790,149.632431 134.662857,148.301636 137.336456,147.114258 
	C141.441650,147.405396 145.511017,147.954727 144.997345,141.682922 
	C146.365738,139.211197 147.684372,137.093567 149.367523,134.984253 
	C151.091644,135.740387 152.377258,136.787582 153.832779,137.147415 
	C155.150116,137.473068 156.652908,137.048584 158.372681,137.013702 
	C159.391373,137.740143 160.111298,138.407761 160.831207,139.075378 
z"/>
<path fill="#499BD0" opacity="1.000000" stroke="none" 
	d="
M127.998734,93.001984 
	C127.999352,93.751015 128.001221,94.498055 128.004852,95.618454 
	C117.385353,95.664993 106.765083,95.297882 96.142258,95.033913 
	C92.573586,94.945236 88.998390,95.119080 85.028618,95.008568 
	C84.631058,94.844200 84.818680,94.383080 85.271347,94.157120 
	C86.480438,93.618362 87.236877,93.305565 88.462639,92.995743 
	C101.953323,92.999985 114.974678,93.001251 127.996033,93.002510 
	C127.996033,93.002510 128.000000,93.000000 127.998734,93.001984 
z"/>
<path fill="#61A8D6" opacity="1.000000" stroke="none" 
	d="
M80.497894,100.043449 
	C95.403931,99.616707 110.115334,99.284561 124.828354,99.055328 
	C125.819260,99.039886 126.822266,99.801376 127.913040,100.596985 
	C115.271286,100.994957 102.535995,100.963860 89.801132,101.024178 
	C86.703629,101.038849 83.607552,101.354141 80.258667,101.271027 
	C80.005020,100.692795 80.104057,100.409966 80.497894,100.043449 
z"/>
<path fill="#719BCF" opacity="1.000000" stroke="none" 
	d="
M139.388016,134.173737 
	C139.388016,129.926651 139.388016,125.679558 139.388016,120.738358 
	C142.611969,122.383781 145.606567,123.912148 148.538239,125.956284 
	C148.300140,127.985878 148.124969,129.499695 147.588821,131.049744 
	C144.614563,132.115250 142.001297,133.144501 139.388016,134.173737 
z"/>
<path fill="#B7C3E7" opacity="1.000000" stroke="none" 
	d="
M129.594055,154.479584 
	C133.486588,153.186676 136.552490,150.062653 141.248779,151.440628 
	C142.544968,151.820953 145.043304,148.234909 146.935333,146.411972 
	C148.418732,144.982773 149.817688,143.465958 151.637634,142.008759 
	C151.287140,150.846771 144.524963,153.082458 137.652878,155.243652 
	C135.031998,156.067902 132.460663,157.049744 129.495697,157.942307 
	C129.240387,156.872879 129.356140,155.820892 129.594055,154.479584 
z"/>
<path fill="#8099D5" opacity="1.000000" stroke="none" 
	d="
M139.290695,134.507660 
	C142.001297,133.144501 144.614563,132.115250 147.607788,131.397339 
	C148.326157,132.797760 148.664597,133.886856 149.003021,134.975952 
	C147.684372,137.093567 146.365738,139.211197 144.623138,141.720093 
	C141.996811,142.547714 139.510223,144.674652 137.987701,141.067093 
	C138.389587,138.991913 138.791489,136.916748 139.290695,134.507660 
z"/>
<path fill="#5677BC" opacity="1.000000" stroke="none" 
	d="
M149.367523,134.984253 
	C148.664597,133.886856 148.326157,132.797760 147.968750,131.361084 
	C148.124969,129.499695 148.300140,127.985878 148.758362,126.221298 
	C151.652771,127.743523 154.264160,129.516510 157.153015,131.921661 
	C157.644974,134.020828 157.859451,135.487854 158.073929,136.954880 
	C156.652908,137.048584 155.150116,137.473068 153.832779,137.147415 
	C152.377258,136.787582 151.091644,135.740387 149.367523,134.984253 
z"/>
<path fill="#719BCF" opacity="1.000000" stroke="none" 
	d="
M137.672226,140.868378 
	C139.510223,144.674652 141.996811,142.547714 144.573395,142.074188 
	C145.511017,147.954727 141.441650,147.405396 137.184937,146.820541 
	C134.181992,144.252136 131.654083,142.120850 129.126160,139.989563 
	C131.869690,140.216263 134.613220,140.442963 137.672226,140.868378 
z"/>
<path fill="#8099D5" opacity="1.000000" stroke="none" 
	d="
M129.076096,140.445862 
	C131.654083,142.120850 134.181992,144.252136 136.861420,146.677124 
	C134.662857,148.301636 132.312790,149.632431 129.622360,150.964890 
	C129.196686,147.611755 129.111359,144.256958 129.076096,140.445862 
z"/>
<path fill="#308AC7" opacity="1.000000" stroke="none" 
	d="
M87.993309,92.992775 
	C87.236877,93.305565 86.480438,93.618362 85.416504,93.954910 
	C85.456123,92.657455 85.803238,91.336235 86.287735,89.685600 
	C87.337776,87.886696 88.250458,86.417221 89.278984,84.640884 
	C90.316757,82.867767 91.238686,81.401512 92.263290,79.624565 
	C92.714554,78.899254 93.063141,78.484634 93.781090,78.189049 
	C94.435310,78.541359 94.720177,78.774635 95.006149,79.258606 
	C95.010048,79.676407 95.012825,79.843521 94.872910,80.326530 
	C92.484566,84.759209 90.238937,88.875992 87.993309,92.992775 
z"/>
<path fill="#F1F8FB" opacity="1.000000" stroke="none" 
	d="
M110.449387,133.657928 
	C112.632256,134.631683 114.540054,135.817047 116.766159,137.200180 
	C116.021614,138.100006 115.405548,139.501434 114.381676,139.931107 
	C112.763847,140.610031 110.872513,140.637192 109.096931,140.940186 
	C109.057610,139.307816 108.890327,137.663925 109.035515,136.048141 
	C109.103287,135.293915 109.775871,134.594040 110.449387,133.657928 
z"/>
<path fill="#B7C3E7" opacity="1.000000" stroke="none" 
	d="
M158.372681,137.013702 
	C157.859451,135.487854 157.644974,134.020828 157.375229,132.181885 
	C160.487396,133.311798 163.654816,134.813629 166.864655,136.658661 
	C165.023834,137.479858 163.140610,137.957870 161.044281,138.755646 
	C160.111298,138.407761 159.391373,137.740143 158.372681,137.013702 
z"/>
<path fill="#1C7ABB" opacity="1.000000" stroke="none" 
	d="
M168.966553,176.962952 
	C167.179794,179.209427 165.393036,181.455917 162.989532,183.715469 
	C161.246796,183.482849 160.120773,183.237152 158.959579,182.643997 
	C156.641403,179.335266 155.050262,174.517624 149.635468,178.986496 
	C147.151749,179.994537 145.036179,180.987976 142.465271,181.986679 
	C138.919159,181.959778 135.828369,181.927612 132.737595,181.895447 
	C137.539368,178.886673 142.341125,175.877914 147.719849,173.105438 
	C153.306351,173.894699 158.333557,174.327667 163.316574,175.060959 
	C165.251312,175.345688 167.086182,176.308838 168.966553,176.962952 
z"/>
<path fill="#196DB2" opacity="1.000000" stroke="none" 
	d="
M169.242233,176.783127 
	C167.086182,176.308838 165.251312,175.345688 163.316574,175.060959 
	C158.333557,174.327667 153.306351,173.894699 148.060822,173.009521 
	C150.928879,170.721237 154.032913,168.765167 157.467941,166.681122 
	C160.229736,167.035202 162.642975,167.658463 165.095779,167.963531 
	C168.139099,168.342056 171.215164,168.457199 174.665634,168.856110 
	C173.208771,171.551849 171.363342,174.077576 169.242233,176.783127 
z"/>
<path fill="#1995CF" opacity="1.000000" stroke="none" 
	d="
M129.317917,201.984344 
	C129.263412,198.620071 129.208893,195.255783 129.669113,191.442200 
	C133.478821,190.652359 136.773773,190.311844 140.458038,189.972290 
	C141.890762,189.984802 142.934174,189.996368 143.974548,190.375336 
	C143.668732,192.161148 143.365952,193.579559 142.784210,195.210693 
	C141.542892,197.655975 140.580551,199.888550 139.522171,202.343903 
	C136.749237,201.136200 134.248779,193.177170 131.653076,201.992065 
	C130.652283,201.990936 129.985092,201.987640 129.317917,201.984344 
z"/>
<path fill="#1885C4" opacity="1.000000" stroke="none" 
	d="
M140.068756,189.971344 
	C136.773773,190.311844 133.478821,190.652359 129.758026,190.991608 
	C129.499893,187.783463 127.470451,183.918182 132.378296,181.959747 
	C135.828369,181.927612 138.919159,181.959778 142.489136,182.388275 
	C142.982742,183.855362 142.997147,184.926086 143.008240,186.249725 
	C143.008698,186.671188 143.012451,186.839752 142.645905,187.015167 
	C141.539978,188.005142 140.804367,188.988235 140.068756,189.971344 
z"/>
<path fill="#2DAADB" opacity="1.000000" stroke="none" 
	d="
M117.437897,214.285355 
	C114.670654,211.064636 111.903404,207.843918 108.953117,204.323120 
	C108.864410,203.790833 108.958740,203.558609 109.299240,203.040619 
	C111.275093,204.577438 113.004776,206.399979 115.393806,208.917282 
	C115.533569,206.655823 115.623520,205.200363 116.162010,203.325180 
	C117.538925,201.924072 118.467316,200.942657 119.346947,200.012802 
	C121.060738,200.760895 122.513786,201.395187 123.971764,202.444504 
	C123.708435,205.638779 123.931335,208.046570 127.375977,208.828827 
	C128.046448,208.981079 128.466080,210.237854 128.557449,210.982147 
	C125.586929,210.979156 123.060364,210.979156 120.340775,210.979156 
	C120.980759,208.266571 121.428795,206.367554 121.876831,204.468536 
	C116.521461,206.629654 118.295425,210.438843 118.567291,214.058258 
	C117.939247,214.181427 117.688568,214.233398 117.437897,214.285355 
z"/>
<path fill="#1BA5DB" opacity="1.000000" stroke="none" 
	d="
M129.001404,210.985153 
	C128.466080,210.237854 128.046448,208.981079 127.375977,208.828827 
	C123.931335,208.046570 123.708435,205.638779 124.335770,202.430298 
	C125.179161,201.981201 125.663460,201.961319 126.147766,201.941406 
	C127.097931,202.145279 128.048096,202.349152 129.158081,202.268677 
	C129.985092,201.987640 130.652283,201.990936 131.657104,202.244507 
	C131.996292,202.662964 131.997849,202.831177 131.862000,203.053345 
	C131.816605,203.071732 131.908615,203.036179 132.327667,202.976059 
	C133.373611,203.351547 134.716187,203.767838 134.706253,204.148895 
	C134.656128,206.073608 134.253952,207.989166 133.814377,210.175629 
	C132.099716,210.597519 130.991379,214.576035 129.001404,210.985153 
z"/>
<path fill="#1995CF" opacity="1.000000" stroke="none" 
	d="
M126.072861,201.600922 
	C125.663460,201.961319 125.179161,201.981201 124.330849,202.015289 
	C122.513786,201.395187 121.060738,200.760895 119.346947,200.012802 
	C118.467316,200.942657 117.538925,201.924072 116.256866,202.959381 
	C115.903183,198.901733 115.903183,194.790161 115.903183,189.211838 
	C119.783539,193.843231 122.890747,197.551834 126.072861,201.600922 
z"/>
<path fill="#2DAADB" opacity="1.000000" stroke="none" 
	d="
M108.082756,200.614044 
	C107.002174,199.864883 105.939003,198.781967 104.945435,197.330963 
	C106.043411,198.068680 107.071793,199.174484 108.082756,200.614044 
z"/>
<path fill="#2DAADB" opacity="1.000000" stroke="none" 
	d="
M105.006004,196.667603 
	C104.117462,196.247726 103.197121,195.507233 102.204727,194.460724 
	C103.079849,194.885468 104.027031,195.616241 105.006004,196.667603 
z"/>
<path fill="#2DAADB" opacity="1.000000" stroke="none" 
	d="
M109.407188,202.290970 
	C108.894852,202.270569 108.416389,201.943039 107.997169,201.278687 
	C108.517960,201.289185 108.979507,201.636505 109.407188,202.290970 
z"/>
<path fill="#3F93CB" opacity="1.000000" stroke="none" 
	d="
M88.462639,92.995743 
	C90.238937,88.875992 92.484566,84.759209 95.274216,80.373711 
	C99.525139,80.126785 103.232201,80.180351 106.938942,80.163528 
	C113.955887,80.131683 120.972641,80.059433 127.989479,80.003967 
	C127.993958,81.068619 127.998444,82.133263 128.005280,83.597000 
	C128.005447,86.698013 128.003250,89.399940 127.998550,92.552185 
	C114.974678,93.001251 101.953323,92.999985 88.462639,92.995743 
z"/>
<path fill="#397EBB" opacity="1.000000" stroke="none" 
	d="
M128.015930,45.659035 
	C128.015778,48.365120 128.006226,50.740688 127.522934,53.558899 
	C121.696686,53.999683 116.344162,53.997826 111.031387,53.644314 
	C112.395737,50.547668 113.720345,47.802670 115.044945,45.057671 
	C115.808456,44.381275 116.571960,43.704880 117.925026,43.279705 
	C121.670120,43.689240 124.825645,43.847557 127.981171,44.005871 
	C127.989632,44.446754 127.998085,44.887634 128.015930,45.659035 
z"/>
<path fill="#3574B5" opacity="1.000000" stroke="none" 
	d="
M127.990570,43.537483 
	C124.825645,43.847557 121.670120,43.689240 118.233109,43.222137 
	C120.778893,37.441017 123.606155,31.968681 126.433411,26.496347 
	C126.955597,26.595369 127.477776,26.694393 127.999962,26.793415 
	C127.999962,32.218643 127.999962,37.643867 127.990570,43.537483 
z"/>
<path fill="#2670B4" opacity="1.000000" stroke="none" 
	d="
M114.753006,45.035782 
	C113.720345,47.802670 112.395737,50.547668 110.728180,53.802933 
	C109.286728,56.134247 108.357506,58.095974 107.013580,59.713058 
	C106.402191,60.448715 104.970467,60.502605 103.910843,60.865746 
	C106.886353,55.753326 109.861855,50.640907 113.064758,45.257568 
	C113.681801,44.995728 114.071434,45.004810 114.753006,45.035782 
z"/>
<path fill="#61A8D6" opacity="1.000000" stroke="none" 
	d="
M143.453629,101.992340 
	C145.080353,99.717842 151.958313,99.312782 155.924500,101.608841 
	C151.979202,101.991051 147.948547,101.994461 143.453629,101.992340 
z"/>
<path fill="#61A8D6" opacity="1.000000" stroke="none" 
	d="
M165.367416,101.993004 
	C165.961288,101.766396 166.932632,101.544899 167.956848,101.655815 
	C167.254776,101.991524 166.499817,101.994820 165.367416,101.993004 
z"/>
<path fill="#3E8BC6" opacity="1.000000" stroke="none" 
	d="
M127.993660,79.586472 
	C120.972641,80.059433 113.955887,80.131683 106.938942,80.163528 
	C103.232201,80.180351 99.525139,80.126785 95.416916,80.057816 
	C95.012825,79.843521 95.010048,79.676407 95.308960,79.098434 
	C98.396942,74.785660 101.183220,70.883743 104.440018,66.987579 
	C112.600510,66.997871 120.290489,67.002411 127.980469,67.006958 
	C127.988907,69.373764 127.997345,71.740562 128.009857,74.550476 
	C128.008560,76.385384 128.003204,77.777184 127.993660,79.586472 
z"/>
<path fill="#3C85C1" opacity="1.000000" stroke="none" 
	d="
M127.990234,66.752777 
	C120.290489,67.002411 112.600510,66.997871 104.446785,66.598900 
	C103.561569,65.082115 103.140091,63.959751 102.718613,62.837391 
	C102.947075,62.288403 103.175537,61.739418 103.657425,61.028091 
	C104.970467,60.502605 106.402191,60.448715 107.013580,59.713058 
	C108.357506,58.095974 109.286728,56.134247 110.688446,54.154587 
	C116.344162,53.997826 121.696686,53.999683 127.514557,54.003620 
	C127.988800,54.446938 127.997696,54.888180 128.014709,55.660210 
	C128.018326,59.022018 128.013840,62.053036 128.014908,65.537155 
	C128.013626,66.159706 128.006805,66.329155 127.990234,66.752777 
z"/>
<path fill="#2DAADB" opacity="1.000000" stroke="none" 
	d="
M133.975266,209.907928 
	C134.253952,207.989166 134.656128,206.073608 134.706253,204.148895 
	C134.716187,203.767838 133.373611,203.351547 132.327362,202.975754 
	C132.000000,203.000000 131.999390,202.999390 131.999390,202.999390 
	C131.997849,202.831177 131.996292,202.662964 131.990723,202.242340 
	C134.248779,193.177170 136.749237,201.136200 139.522171,202.343903 
	C140.580551,199.888550 141.542892,197.655975 143.117874,195.264465 
	C144.531067,195.958893 145.331619,196.812241 146.240173,197.780716 
	C146.913696,195.926590 147.450455,194.448959 148.390289,192.980789 
	C149.868668,192.987564 150.943985,192.984863 151.973923,193.347260 
	C151.279633,195.808914 150.630722,197.905487 149.981796,200.002060 
	C148.962006,201.396576 147.942215,202.791077 146.828094,204.494537 
	C146.037781,205.465836 145.341766,206.128159 143.997116,206.917587 
	C142.837021,207.134125 142.325546,207.223572 141.814087,207.313019 
	C141.814087,207.313034 141.744720,207.285919 141.777145,206.919098 
	C141.137665,206.099335 140.465744,205.646408 139.793839,205.193497 
	C139.793839,205.193497 139.751831,205.155167 139.900024,204.900940 
	C139.949097,204.148254 139.849991,203.649796 139.750885,203.151321 
	C139.224625,203.893204 138.698349,204.635086 138.172073,205.376953 
	C137.409012,207.481567 136.645935,209.586166 135.507904,211.627838 
	C134.747040,211.012573 134.361145,210.460251 133.975266,209.907928 
z"/>
<path fill="#56C0E8" opacity="1.000000" stroke="none" 
	d="
M133.814377,210.175629 
	C134.361145,210.460251 134.747040,211.012573 135.286148,211.877106 
	C135.439377,212.189316 135.376785,212.183411 135.000641,212.326355 
	C134.483917,213.425293 134.343338,214.381287 134.202759,215.337280 
	C134.157364,215.710663 134.111969,216.084030 134.098022,216.737823 
	C133.701965,217.911819 133.274460,218.805405 132.221100,219.892517 
	C130.727341,220.084961 129.859436,220.083862 128.743225,219.921173 
	C127.999069,219.158295 127.503220,218.556992 127.030510,217.719391 
	C127.053650,217.483093 127.089409,217.008484 127.444580,216.937164 
	C129.716599,214.744858 128.467606,214.123459 126.400482,214.051071 
	C123.917503,213.964127 121.430115,214.002792 118.944641,213.987061 
	C118.295425,210.438843 116.521461,206.629654 121.876831,204.468536 
	C121.428795,206.367554 120.980759,208.266571 120.340775,210.979156 
	C123.060364,210.979156 125.586929,210.979156 128.557449,210.982147 
	C130.991379,214.576035 132.099716,210.597519 133.814377,210.175629 
z"/>
<path fill="#1995CF" opacity="1.000000" stroke="none" 
	d="
M138.433777,205.336731 
	C138.698349,204.635086 139.224625,203.893204 139.750885,203.151321 
	C139.849991,203.649796 139.949097,204.148254 139.897614,204.929276 
	C139.396500,205.240051 139.045975,205.268280 138.433777,205.336731 
z"/>
<path fill="#1995CF" opacity="1.000000" stroke="none" 
	d="
M139.860199,205.486786 
	C140.465744,205.646408 141.137665,206.099335 141.741638,206.907867 
	C141.091309,206.769012 140.508926,206.274551 139.860199,205.486786 
z"/>
<path fill="#2DAADB" opacity="1.000000" stroke="none" 
	d="
M134.448730,215.091736 
	C134.343338,214.381287 134.483917,213.425293 134.969513,212.322021 
	C135.107925,213.065216 134.901306,213.955719 134.448730,215.091736 
z"/>
<path fill="#1995CF" opacity="1.000000" stroke="none" 
	d="
M141.963333,207.612030 
	C142.325546,207.223572 142.837021,207.134125 143.738281,207.046661 
	C143.456238,207.336121 142.784409,207.623581 141.963333,207.612030 
z"/>
<path fill="#1885C4" opacity="1.000000" stroke="none" 
	d="
M150.282288,199.851196 
	C150.630722,197.905487 151.279633,195.808914 152.244354,193.122391 
	C153.380997,189.834869 154.349106,187.313522 158.078766,188.093933 
	C158.165543,188.195801 158.331497,188.405746 158.331497,188.405746 
	C155.748581,192.170609 153.165680,195.935486 150.282288,199.851196 
z"/>
<path fill="#1885C4" opacity="1.000000" stroke="none" 
	d="
M158.994766,182.991455 
	C160.120773,183.237152 161.246796,183.482849 162.695465,183.869675 
	C163.018127,184.010803 162.978622,184.489334 162.956116,184.728149 
	C161.593140,186.026093 160.252655,187.085205 158.621841,188.275040 
	C158.331497,188.405746 158.165543,188.195801 158.079483,187.719650 
	C157.991745,186.494339 157.990067,185.745163 158.234894,184.829071 
	C158.652512,184.105240 158.823639,183.548340 158.994766,182.991455 
z"/>
<path fill="#AED2EA" opacity="1.000000" stroke="none" 
	d="
M127.007370,217.955673 
	C127.503220,218.556992 127.999069,219.158295 128.737839,220.297913 
	C129.348755,222.284790 129.716751,223.733353 130.084763,225.181915 
	C129.830185,226.255981 129.575607,227.330032 129.167755,228.705185 
	C129.014511,229.006271 128.577850,228.969849 128.359406,228.953156 
	C127.165024,227.505966 126.189079,226.075470 125.350273,224.127731 
	C124.849373,223.121811 124.211342,222.633118 123.573311,222.144424 
	C123.104271,221.636902 122.635223,221.129395 122.181351,220.360916 
	C122.196510,220.099960 122.305283,219.965714 122.623009,219.913834 
	C124.296280,219.226532 125.651825,218.591095 127.007370,217.955673 
z"/>
<path fill="#96C5E4" opacity="1.000000" stroke="none" 
	d="
M130.389084,224.984131 
	C129.716751,223.733353 129.348755,222.284790 128.986145,220.459488 
	C129.859436,220.083862 130.727341,220.084961 132.028107,220.127625 
	C131.871765,221.708237 131.282578,223.247284 130.389084,224.984131 
z"/>
<path fill="#7FB9DE" opacity="1.000000" stroke="none" 
	d="
M118.567291,214.058258 
	C121.430115,214.002792 123.917503,213.964127 126.400482,214.051071 
	C128.467606,214.123459 129.716599,214.744858 127.174332,216.665970 
	C123.289589,215.395660 121.385010,215.967987 122.305283,219.965714 
	C122.305283,219.965714 122.196510,220.099960 122.111214,220.108643 
	C121.156578,219.201019 120.287239,218.284729 119.150162,217.200409 
	C118.495796,216.299927 118.109169,215.567429 117.580215,214.560150 
	C117.688568,214.233398 117.939247,214.181427 118.567291,214.058258 
z"/>
<path fill="#96C5E4" opacity="1.000000" stroke="none" 
	d="
M123.671310,222.437729 
	C124.211342,222.633118 124.849373,223.121811 125.255180,223.816635 
	C124.605080,223.592194 124.187195,223.161621 123.671310,222.437729 
z"/>
<path fill="#2979BB" opacity="1.000000" stroke="none" 
	d="
M102.467209,63.045189 
	C103.140091,63.959751 103.561569,65.082115 103.976273,66.593155 
	C101.183220,70.883743 98.396942,74.785660 95.307846,78.847740 
	C94.720177,78.774635 94.435310,78.541359 94.022171,78.059212 
	C94.324158,76.848061 94.754425,75.885788 95.276993,74.617767 
	C96.241882,72.790176 97.114464,71.268349 98.037903,69.412552 
	C99.464432,67.136719 100.840118,65.194855 102.467209,63.045189 
z"/>
<path fill="#3F93CB" opacity="1.000000" stroke="none" 
	d="
M143.011536,185.996826 
	C142.997147,184.926086 142.982742,183.855362 142.944489,182.383026 
	C145.036179,180.987976 147.151749,179.994537 149.818726,179.260239 
	C151.912796,181.012146 153.455490,182.504913 154.990540,184.348022 
	C154.017197,185.142670 153.083130,185.686050 152.078003,186.006775 
	C150.753494,186.429367 149.373215,186.677078 147.727585,186.865631 
	C145.962692,186.486465 144.487106,186.241653 143.011536,185.996826 
z"/>
<path fill="#2C81C1" opacity="1.000000" stroke="none" 
	d="
M154.998169,183.997665 
	C153.455490,182.504913 151.912796,181.012146 150.186874,179.245651 
	C155.050262,174.517624 156.641403,179.335266 158.959579,182.643982 
	C158.823639,183.548340 158.652512,184.105240 157.917114,184.804932 
	C156.567947,184.631042 155.783066,184.314362 154.998169,183.997665 
z"/>
<path fill="#499BD0" opacity="1.000000" stroke="none" 
	d="
M143.008240,186.249725 
	C144.487106,186.241653 145.962692,186.486465 147.723053,187.292877 
	C148.000961,189.560089 147.994095,191.265701 147.987213,192.971313 
	C147.450455,194.448959 146.913696,195.926590 146.240173,197.780716 
	C145.331619,196.812241 144.531067,195.958893 143.396851,195.051758 
	C143.365952,193.579559 143.668732,192.161148 143.981155,190.037689 
	C143.665939,188.557877 143.341064,187.783081 143.016205,187.008301 
	C143.012451,186.839752 143.008698,186.671188 143.008240,186.249725 
z"/>
<path fill="#3F93CB" opacity="1.000000" stroke="none" 
	d="
M142.645905,187.015167 
	C143.341064,187.783081 143.665939,188.557877 143.984192,189.670288 
	C142.934174,189.996368 141.890762,189.984802 140.458054,189.972290 
	C140.804367,188.988235 141.539978,188.005142 142.645905,187.015167 
z"/>
<path fill="#2DAADB" opacity="1.000000" stroke="none" 
	d="
M132.000305,203.000305 
	C131.908615,203.036179 131.816605,203.071732 131.862000,203.053345 
	C131.999390,202.999390 132.000000,203.000000 132.000305,203.000305 
z"/>
<path fill="#308AC7" opacity="1.000000" stroke="none" 
	d="
M148.390289,192.980789 
	C147.994095,191.265701 148.000961,189.560089 148.012375,187.427231 
	C149.373215,186.677078 150.753494,186.429367 152.078003,186.006775 
	C153.083130,185.686050 154.017197,185.142670 154.990540,184.348022 
	C155.783066,184.314362 156.567947,184.631042 157.670624,184.971863 
	C157.990067,185.745163 157.991745,186.494339 157.992706,187.617783 
	C154.349106,187.313522 153.380997,189.834869 152.289734,192.757294 
	C150.943985,192.984863 149.868668,192.987564 148.390289,192.980789 
z"/>
<path fill="#96C5E4" opacity="1.000000" stroke="none" 
	d="
M122.623009,219.913834 
	C121.385010,215.967987 123.289589,215.395660 126.819160,216.737289 
	C127.089409,217.008484 127.053650,217.483093 127.030510,217.719391 
	C125.651825,218.591095 124.296280,219.226532 122.623009,219.913834 
z"/>
</svg>