<?xml version="1.0" encoding="utf-8"?>
<!-- Generator: Adobe Illustrator 27.0.0, SVG Export Plug-In . SVG Version: 6.00 Build 0)  -->
<svg version="1.1" id="图层_1" xmlns="http://www.w3.org/2000/svg" xmlns:xlink="http://www.w3.org/1999/xlink" x="0px" y="0px"
	 viewBox="0 0 286 286" style="enable-background:new 0 0 286 286;" xml:space="preserve">
<style type="text/css">
	.st0{fill:#FFCC00;}
	.st1{fill:#242627;}
	.st2{fill:#141414;}
</style>
<circle class="st0" cx="143" cy="143" r="142.5"/>
<g id="_x23_141414ff">
	<path class="st1" d="M189.3,62.9c-1.1,2.5-1.1,5.2-1.4,8c-0.2,8.6-7.9,15.7-16.2,16.4c-0.5,0-1,0.1-1.4,0.1c-0.1,0-0.2,0-0.3,0
		c-9.6-0.3-16.6-8.2-17-17.5c-0.1-2.6,0.5-5,1.5-7.3c0.1-0.3,0.3-0.6,0.4-0.8c0-0.1,0.1-0.2,0.1-0.3c1.5-2.7,3.6-5,5.1-7.7
		c-1-4.1-3.7-7.4-5.8-10.8c-3.7-5.3-7.1-11.1-12-15.4c-4.9,4.4-8.3,10.1-12,15.4c-2.2,3.5-4.9,6.8-5.8,10.8
		c2.4,4.2,6.4,7.8,6.7,12.9c0.2,1,0.4,2.1,0.4,3.2c0.4,9.5-8.4,17.5-17.5,17.5c-6.6,0-12.1-3.7-15.1-8.9c-0.3-0.5-0.6-0.9-0.9-1.4
		c-2.5-4.3-1-9.7-2.9-14.1c-6.7-7.5-16.7-12.1-26.8-12c6.1,13.7,13.1,27.2,17,41.8c1.7,5.5,2.2,11.4,4.1,16.8h105.4
		c1.3-3.4,1.7-7,2.5-10.5c2.7-12.2,7.5-23.9,12.7-35.3c2-4.3,4.4-8.5,6-13C206.1,50.8,196,55.4,189.3,62.9z"/>
	<path class="st1" d="M137.1,118.8c0,0,22.2-2.1,46.2-1.8c5.2,0.1,9.4,0.2,11.7,0.3c2.6,6.8,4.1,14.1,5.8,21.1
		c1.5,5.3-4.6,9-4.1,14.1c2.2,5.7,6.8,10,9.4,15.5c3.2,6.4,6.6,12.9,8.6,19.8c-5.7,2.7-11.4,5.4-17.1,8.1c0.1,1.5,0.2,3,0.3,4.5
		c-13.6,5.2-27.2,10.5-40.8,15.7c-2.4,7-4.8,14.1-7.1,21.1l0,0l-52.5-35.5c-4.5,0.5-9.9,2.5-11.2,3.2c-6.7,3.3-12.9,7.4-18.9,11.8
		c-0.2-8.1-0.5-16.3,0.3-24.4c2.8-17.2,7.3-34.2,13.5-50.5c1.5-3.8,2.5-7.8,4.8-11.2c3.8-0.8,7.6-1.7,11.4-2.6
		C118,123.5,137.1,118.8,137.1,118.8z M169.4,147.2c-6.1,0.8-12.2,1-18.3,2.2c2.1,2.9,5.9,3.5,9,4.8c8.4,2.8,16.6,6.6,25.2,8.9
		c-0.4-2.7-1.3-5.2-1.4-8c0.1-3.4,1.3-6.5,2-9.8C180.3,145.6,174.9,146.7,169.4,147.2z"/>
	<path class="st1" d="M201.1,212.1c0.6,2.3,1.2,4.7,1.9,7c-1,2.3-2.1,4.6-3.1,6.8c0.6,4.9,1.3,9.8,1.9,14.7c-6.1,4.6-9.2,7-9.2,7
		l0,0c0,0-6.4-1.3-19-3.9l1.5-14l0,0C175.1,229.7,186.9,221.7,201.1,212.1z"/>
</g>
<path class="st2" d="M198.3,199.4"/>
<path class="st2" d="M309.7,454.8"/>
</svg>
