<svg width="256" height="256" viewBox="0 0 256 256" fill="none" xmlns="http://www.w3.org/2000/svg">
<circle cx="128" cy="128" r="128" fill="#15062D"/>
<path d="M171.446 165.186L62.8252 103.117L84.5493 90.7032L193.17 152.772L171.446 165.186Z" fill="#EBA7DA"/>
<path d="M62.8213 177.597L84.5485 190.014V140.359L149.721 103.117V78.2898L84.5485 41.0484L62.8243 53.4622V103.117L84.5485 90.7036V65.876L127.997 90.7036L62.8213 127.945V177.597Z" fill="white"/>
<path d="M193.174 78.2927L171.447 65.8759L171.447 115.531L106.274 152.773L106.274 177.6L171.447 214.842L193.171 202.428L193.171 152.773L171.447 165.186L171.447 190.014L127.998 165.186L193.174 127.945L193.174 78.2927Z" fill="white"/>
</svg>
