<svg width="400" height="402" viewBox="0 0 400 402" fill="none" xmlns="http://www.w3.org/2000/svg">
<rect width="400" height="401.105" rx="200" fill="url(#paint0_linear_3748_10)"/>
<path d="M147.91 168.711C144.47 162.702 135.213 155.805 123.2 155.805C98.3112 155.805 85.083 177.301 85.083 200.554C85.083 223.807 98.3112 245.304 123.2 245.304C135.213 245.304 144.499 238.405 147.91 232.397V243.579H170.22V155.801H147.91V168.711ZM128.332 227.227H126.968C115.813 227.227 107.389 216.73 107.389 200.375C107.389 184.02 115.784 173.881 126.968 173.881H128.332C138.625 173.881 147.91 184.202 147.91 200.554C147.91 216.905 138.654 227.223 128.332 227.223V227.227Z" fill="white"/>
<path d="M276.976 227.223H275.612C262.914 227.223 257.398 215.181 257.398 200.554C257.398 185.927 262.886 173.881 275.612 173.881H276.976C286.261 173.881 291.215 179.233 292.611 187.647H314.917C313.201 166.152 298.603 155.801 276.296 155.801C253.99 155.801 235.091 173.017 235.091 200.55C235.091 228.083 253.127 245.299 276.296 245.299C299.463 245.299 313.198 234.978 314.917 213.453H292.611C291.249 221.867 286.261 227.219 276.976 227.219V227.223Z" fill="white"/>
<path d="M223.673 156.668C196.711 156.668 179.947 173.143 179.947 199.667V243.556H202.257V198.806C202.257 184.179 209.109 177.278 223.702 177.278H231.412V156.671H223.64H223.669L223.673 156.668Z" fill="white"/>
<defs>
<linearGradient id="paint0_linear_3748_10" x1="357.62" y1="-0.00012096" x2="357.62" y2="445.312" gradientUnits="userSpaceOnUse">
<stop stop-color="#6F7CF4"/>
<stop offset="1" stop-color="#002DDE"/>
</linearGradient>
</defs>
</svg>
