<?xml version="1.0" encoding="UTF-8"?>
<svg xmlns="http://www.w3.org/2000/svg" xmlns:xlink="http://www.w3.org/1999/xlink" width="256px" height="256px" viewBox="0 0 256 256" version="1.1">
<g id="surface1">
<path style=" stroke:none;fill-rule:nonzero;fill:rgb(0%,0%,0%);fill-opacity:1;" d="M 198.261719 85.660156 L 175.617188 85.660156 C 173 85.660156 170.488281 84.542969 168.726562 82.578125 L 159.539062 72.257812 C 158.152344 70.714844 156.226562 69.8125 154.144531 69.8125 C 152.0625 69.8125 150.140625 70.714844 148.75 72.257812 L 140.84375 81.140625 C 138.28125 84.011719 134.542969 85.714844 130.699219 85.714844 L 6.730469 85.714844 C 3.203125 95.660156 0.90625 106.246094 0 117.253906 L 117.023438 117.253906 C 119.105469 117.253906 121.03125 116.40625 122.472656 114.914062 L 133.367188 103.585938 C 134.703125 102.148438 136.625 101.351562 138.546875 101.351562 L 138.976562 101.351562 C 141.058594 101.351562 142.980469 102.257812 144.371094 103.800781 L 153.558594 114.117188 C 155.320312 116.085938 157.832031 117.203125 160.449219 117.203125 L 255.945312 117.203125 C 255.039062 106.246094 252.742188 95.609375 249.214844 85.609375 Z M 198.261719 85.660156 "/>
<path style=" stroke:none;fill-rule:nonzero;fill:rgb(0%,0%,0%);fill-opacity:1;" d="M 70.824219 183.636719 C 72.90625 183.636719 74.828125 182.785156 76.269531 181.296875 L 87.167969 169.964844 C 88.554688 168.53125 90.425781 167.730469 92.402344 167.730469 L 92.828125 167.730469 C 94.910156 167.730469 96.886719 168.636719 98.222656 170.125 L 107.410156 180.445312 C 109.171875 182.414062 111.683594 183.53125 114.300781 183.53125 L 243.769531 183.53125 C 248.628906 173.53125 252.15625 162.839844 254.289062 151.617188 L 130.003906 151.617188 C 127.386719 151.617188 124.875 150.5 123.113281 148.53125 L 113.925781 138.320312 C 112.539062 136.777344 110.613281 135.925781 108.53125 135.925781 C 106.449219 135.925781 104.472656 136.828125 103.136719 138.320312 L 95.230469 147.203125 C 92.667969 150.125 88.929688 151.777344 85.03125 151.777344 L 1.761719 151.777344 C 3.898438 163 7.425781 173.691406 12.285156 183.6875 Z M 70.824219 183.636719 "/>
<path style=" stroke:none;fill-rule:nonzero;fill:rgb(0%,0%,0%);fill-opacity:1;" d="M 162.636719 51.140625 C 164.71875 51.140625 166.644531 50.289062 168.085938 48.800781 L 178.980469 37.472656 C 180.316406 36.035156 182.238281 35.238281 184.214844 35.238281 L 184.644531 35.238281 C 186.726562 35.238281 188.648438 36.140625 190.039062 37.683594 L 199.222656 48.058594 C 200.988281 50.023438 203.496094 51.140625 206.113281 51.140625 L 230.738281 51.140625 C 207.289062 20.078125 170.007812 0.0273438 128.027344 0.0273438 C 86.046875 0.0273438 48.710938 20.078125 25.261719 51.140625 Z M 162.636719 51.140625 "/>
<path style=" stroke:none;fill-rule:nonzero;fill:rgb(0%,0%,0%);fill-opacity:1;" d="M 113.230469 215.285156 L 79.582031 215.285156 C 76.964844 215.285156 74.457031 214.167969 72.691406 212.199219 L 63.507812 201.878906 C 62.117188 200.335938 60.195312 199.484375 58.113281 199.484375 C 56.027344 199.484375 54.050781 200.390625 52.71875 201.878906 L 44.8125 210.761719 C 42.25 213.6875 38.507812 215.335938 34.609375 215.335938 L 34.078125 215.335938 C 57.523438 240.335938 90.90625 256.027344 128.027344 256.027344 C 165.148438 256.027344 198.476562 240.335938 221.976562 215.335938 Z M 113.230469 215.285156 "/>
</g>
</svg>
