<svg xmlns="http://www.w3.org/2000/svg" xmlns:xlink="http://www.w3.org/1999/xlink" width="256" zoomAndPan="magnify" viewBox="0 0 192 191.999996" height="256" preserveAspectRatio="xMidYMid meet" version="1.0"><defs><clipPath id="b3789ee3af"><path d="M 66.707031 39.992188 L 124.457031 39.992188 L 124.457031 114.992188 L 66.707031 114.992188 Z M 66.707031 39.992188 " clip-rule="nonzero"/></clipPath><clipPath id="641393d507"><path d="M 69.578125 66.105469 L 114.277344 66.105469 L 114.277344 110.804688 L 69.578125 110.804688 Z M 69.578125 66.105469 " clip-rule="nonzero"/></clipPath><clipPath id="647645816b"><path d="M 91.925781 66.105469 C 79.585938 66.105469 69.578125 76.109375 69.578125 88.453125 C 69.578125 100.796875 79.585938 110.804688 91.925781 110.804688 C 104.269531 110.804688 114.277344 100.796875 114.277344 88.453125 C 114.277344 76.109375 104.269531 66.105469 91.925781 66.105469 Z M 91.925781 66.105469 " clip-rule="nonzero"/></clipPath><clipPath id="16055d7235"><path d="M 52.058594 64.785156 L 140 64.785156 L 140 119.375 L 52.058594 119.375 Z M 52.058594 64.785156 " clip-rule="nonzero"/></clipPath><clipPath id="39382349d6"><path d="M 96 64.785156 C 71.730469 64.785156 52.058594 77.003906 52.058594 92.078125 C 52.058594 107.15625 71.730469 119.375 96 119.375 C 120.269531 119.375 139.941406 107.15625 139.941406 92.078125 C 139.941406 77.003906 120.269531 64.785156 96 64.785156 Z M 96 64.785156 " clip-rule="nonzero"/></clipPath><clipPath id="4f767d4462"><path d="M 52.058594 64.785156 L 139.808594 64.785156 L 139.808594 119.535156 L 52.058594 119.535156 Z M 52.058594 64.785156 " clip-rule="nonzero"/></clipPath><clipPath id="d2195f0028"><path d="M 95.996094 64.785156 C 71.730469 64.785156 52.058594 77.003906 52.058594 92.078125 C 52.058594 107.152344 71.730469 119.371094 95.996094 119.371094 C 120.265625 119.371094 139.933594 107.152344 139.933594 92.078125 C 139.933594 77.003906 120.265625 64.785156 95.996094 64.785156 Z M 95.996094 64.785156 " clip-rule="nonzero"/></clipPath><clipPath id="a4a029ca47"><path d="M 51.097656 92.082031 L 138.847656 92.082031 L 138.847656 137.078125 L 51.097656 137.078125 Z M 51.097656 92.082031 " clip-rule="nonzero"/></clipPath><clipPath id="e930ac2680"><path d="M 95.039062 92.082031 C 70.769531 92.082031 51.097656 102.234375 51.097656 114.761719 C 51.097656 127.289062 70.769531 137.441406 95.039062 137.441406 C 119.304688 137.441406 138.976562 127.289062 138.976562 114.761719 C 138.976562 102.234375 119.304688 92.082031 95.039062 92.082031 Z M 95.039062 92.082031 " clip-rule="nonzero"/></clipPath><clipPath id="d2456a74ea"><path d="M 75.316406 77.707031 L 116.566406 77.707031 L 116.566406 106.957031 L 75.316406 106.957031 Z M 75.316406 77.707031 " clip-rule="nonzero"/></clipPath><clipPath id="618dea2cd2"><path d="M 72.992188 69.230469 L 118.742188 69.230469 L 118.742188 114.980469 L 72.992188 114.980469 Z M 72.992188 69.230469 " clip-rule="nonzero"/></clipPath><clipPath id="9294020e7d"><path d="M 13.71875 13.648438 L 177.96875 13.648438 L 177.96875 178.648438 L 13.71875 178.648438 Z M 13.71875 13.648438 " clip-rule="nonzero"/></clipPath><clipPath id="2cefad128b"><path d="M 95.996094 13.648438 C 50.554688 13.648438 13.71875 50.519531 13.71875 95.996094 C 13.71875 141.476562 50.554688 178.34375 95.996094 178.34375 C 141.433594 178.34375 178.273438 141.476562 178.273438 95.996094 C 178.273438 50.519531 141.433594 13.648438 95.996094 13.648438 Z M 95.996094 13.648438 " clip-rule="nonzero"/></clipPath><clipPath id="c28d0c7100"><path d="M 52.058594 110.804688 L 139.808594 110.804688 L 139.808594 155.804688 L 52.058594 155.804688 Z M 52.058594 110.804688 " clip-rule="nonzero"/></clipPath><clipPath id="52bba64555"><path d="M 95.996094 110.804688 C 71.730469 110.804688 52.058594 120.957031 52.058594 133.484375 C 52.058594 146.011719 71.730469 156.164062 95.996094 156.164062 C 120.265625 156.164062 139.9375 146.011719 139.9375 133.484375 C 139.9375 120.957031 120.265625 110.804688 95.996094 110.804688 Z M 95.996094 110.804688 " clip-rule="nonzero"/></clipPath></defs><rect x="-19.2" width="230.4" fill="#ffffff" y="-19.2" height="230.399995" fill-opacity="1"/><rect x="-19.2" width="230.4" fill="#000000" y="-19.2" height="230.399995" fill-opacity="1"/><g clip-path="url(#b3789ee3af)"><path fill="#ffffff" d="M 118.433594 68.882812 L 118.433594 62.75 C 118.433594 50.203125 108.222656 39.992188 95.675781 39.992188 C 83.128906 39.992188 72.914062 50.199219 72.914062 62.75 L 72.914062 68.882812 C 69.476562 68.976562 66.71875 71.777344 66.71875 75.234375 L 66.71875 108.386719 C 66.71875 108.804688 66.757812 109.21875 66.839844 109.628906 C 66.921875 110.039062 67.042969 110.4375 67.203125 110.824219 C 67.363281 111.210938 67.558594 111.578125 67.789062 111.925781 C 68.023438 112.273438 68.285156 112.59375 68.582031 112.890625 C 68.878906 113.1875 69.199219 113.449219 69.546875 113.683594 C 69.894531 113.914062 70.261719 114.113281 70.648438 114.273438 C 71.035156 114.433594 71.433594 114.550781 71.84375 114.632812 C 72.253906 114.714844 72.667969 114.757812 73.085938 114.757812 L 118.265625 114.757812 C 118.683594 114.757812 119.097656 114.714844 119.507812 114.632812 C 119.917969 114.554688 120.316406 114.433594 120.703125 114.273438 C 121.089844 114.113281 121.457031 113.914062 121.804688 113.683594 C 122.152344 113.449219 122.472656 113.1875 122.769531 112.890625 C 123.0625 112.597656 123.328125 112.273438 123.5625 111.925781 C 123.792969 111.578125 123.988281 111.210938 124.148438 110.824219 C 124.308594 110.4375 124.429688 110.039062 124.511719 109.628906 C 124.59375 109.21875 124.632812 108.804688 124.632812 108.386719 L 124.632812 75.234375 C 124.632812 71.777344 121.871094 68.976562 118.433594 68.882812 Z M 100.886719 87.230469 C 100.855469 87.425781 100.746094 87.878906 100.734375 87.910156 C 100.347656 89.257812 99.417969 90.367188 98.210938 91.039062 L 100.253906 99.753906 C 100.316406 99.9375 100.332031 100.121094 100.304688 100.3125 C 100.273438 100.503906 100.207031 100.675781 100.09375 100.832031 C 99.984375 100.988281 99.84375 101.113281 99.675781 101.203125 C 99.503906 101.292969 99.324219 101.339844 99.132812 101.34375 L 92.359375 101.34375 C 92.164062 101.339844 91.984375 101.292969 91.816406 101.203125 C 91.644531 101.113281 91.507812 100.988281 91.394531 100.832031 C 91.285156 100.675781 91.214844 100.503906 91.1875 100.3125 C 91.160156 100.121094 91.175781 99.9375 91.234375 99.753906 L 93.140625 91.039062 C 91.933594 90.367188 91.003906 89.257812 90.617188 87.910156 C 90.605469 87.878906 90.496094 87.425781 90.464844 87.230469 C 90.429688 86.988281 90.414062 86.742188 90.414062 86.496094 C 90.410156 86.148438 90.445312 85.808594 90.511719 85.46875 C 90.582031 85.128906 90.679688 84.800781 90.8125 84.480469 C 90.945312 84.160156 91.105469 83.859375 91.296875 83.570312 C 91.492188 83.285156 91.707031 83.015625 91.953125 82.773438 C 92.199219 82.527344 92.464844 82.308594 92.75 82.117188 C 93.039062 81.925781 93.339844 81.761719 93.660156 81.632812 C 93.980469 81.5 94.308594 81.398438 94.648438 81.332031 C 94.988281 81.265625 95.328125 81.230469 95.675781 81.230469 C 96.019531 81.230469 96.363281 81.265625 96.703125 81.332031 C 97.042969 81.398438 97.371094 81.5 97.691406 81.632812 C 98.007812 81.761719 98.3125 81.925781 98.601562 82.117188 C 98.886719 82.308594 99.152344 82.527344 99.398438 82.773438 C 99.640625 83.015625 99.859375 83.285156 100.050781 83.570312 C 100.246094 83.859375 100.40625 84.160156 100.539062 84.480469 C 100.671875 84.800781 100.769531 85.128906 100.839844 85.46875 C 100.90625 85.808594 100.9375 86.148438 100.9375 86.496094 C 100.9375 86.742188 100.921875 86.988281 100.886719 87.230469 Z M 110.664062 68.867188 L 80.6875 68.867188 L 80.6875 62.75 C 80.6875 54.484375 87.40625 47.757812 95.675781 47.757812 C 103.945312 47.757812 110.664062 54.484375 110.664062 62.75 Z M 110.664062 68.867188 " fill-opacity="1" fill-rule="nonzero"/></g><g clip-path="url(#641393d507)"><g clip-path="url(#647645816b)"><path fill="#000000" d="M 69.578125 66.105469 L 114.277344 66.105469 L 114.277344 110.804688 L 69.578125 110.804688 Z M 69.578125 66.105469 " fill-opacity="1" fill-rule="nonzero"/></g></g><g clip-path="url(#16055d7235)"><g clip-path="url(#39382349d6)"><path fill="#ffffff" d="M 52.058594 64.785156 L 139.914062 64.785156 L 139.914062 119.375 L 52.058594 119.375 Z M 52.058594 64.785156 " fill-opacity="1" fill-rule="nonzero"/></g></g><g clip-path="url(#4f767d4462)"><g clip-path="url(#d2195f0028)"><path stroke-linecap="butt" transform="matrix(0.75, 0, 0, 0.75, 52.060408, 64.783978)" fill="none" stroke-linejoin="miter" d="M 58.580919 0.00157053 C 26.22675 0.00157053 -0.0024184 16.293238 -0.0024184 36.392198 C -0.0024184 56.491157 26.22675 72.782825 58.580919 72.782825 C 90.940296 72.782825 117.164256 56.491157 117.164256 36.392198 C 117.164256 16.293238 90.940296 0.00157053 58.580919 0.00157053 Z M 58.580919 0.00157053 " stroke="#ffffff" stroke-width="6" stroke-opacity="1" stroke-miterlimit="4"/></g></g><g clip-path="url(#a4a029ca47)"><g clip-path="url(#e930ac2680)"><path stroke-linecap="butt" transform="matrix(0.75, 0, 0, 0.75, 51.097928, 92.080233)" fill="none" stroke-linejoin="miter" d="M 58.588179 0.00239814 C 26.228804 0.00239814 -0.000362875 13.538856 -0.000362875 30.241981 C -0.000362875 46.945106 26.228804 60.481565 58.588179 60.481565 C 90.942345 60.481565 117.171512 46.945106 117.171512 30.241981 C 117.171512 13.538856 90.942345 0.00239814 58.588179 0.00239814 Z M 58.588179 0.00239814 " stroke="#ffffff" stroke-width="6" stroke-opacity="1" stroke-miterlimit="4"/></g></g><g clip-path="url(#d2456a74ea)"><path fill="#000000" d="M 116.671875 92.234375 C 116.671875 92.710938 116.640625 93.183594 116.574219 93.65625 C 116.507812 94.128906 116.40625 94.597656 116.273438 95.066406 C 116.144531 95.53125 115.976562 95.992188 115.78125 96.449219 C 115.585938 96.902344 115.355469 97.347656 115.097656 97.789062 C 114.839844 98.226562 114.550781 98.65625 114.230469 99.078125 C 113.910156 99.496094 113.5625 99.902344 113.1875 100.296875 C 112.8125 100.695312 112.40625 101.074219 111.980469 101.441406 C 111.550781 101.808594 111.09375 102.160156 110.617188 102.496094 C 110.136719 102.835938 109.636719 103.152344 109.113281 103.453125 C 108.589844 103.757812 108.046875 104.039062 107.480469 104.304688 C 106.917969 104.566406 106.339844 104.8125 105.742188 105.035156 C 105.144531 105.257812 104.53125 105.460938 103.90625 105.644531 C 103.28125 105.828125 102.644531 105.988281 101.996094 106.125 C 101.347656 106.261719 100.691406 106.378906 100.027344 106.46875 C 99.363281 106.5625 98.695312 106.632812 98.019531 106.679688 C 97.347656 106.726562 96.671875 106.75 95.996094 106.75 C 95.316406 106.75 94.640625 106.726562 93.96875 106.679688 C 93.292969 106.632812 92.625 106.5625 91.960938 106.46875 C 91.296875 106.378906 90.640625 106.261719 89.992188 106.125 C 89.34375 105.988281 88.707031 105.828125 88.082031 105.644531 C 87.457031 105.460938 86.84375 105.257812 86.246094 105.035156 C 85.648438 104.8125 85.070312 104.566406 84.507812 104.304688 C 83.945312 104.039062 83.398438 103.757812 82.875 103.453125 C 82.351562 103.152344 81.851562 102.835938 81.375 102.496094 C 80.894531 102.160156 80.441406 101.808594 80.011719 101.441406 C 79.582031 101.074219 79.179688 100.695312 78.800781 100.296875 C 78.425781 99.902344 78.078125 99.496094 77.757812 99.078125 C 77.4375 98.65625 77.148438 98.226562 76.890625 97.789062 C 76.632812 97.347656 76.402344 96.902344 76.207031 96.449219 C 76.011719 95.992188 75.847656 95.53125 75.714844 95.066406 C 75.582031 94.597656 75.484375 94.128906 75.417969 93.65625 C 75.351562 93.183594 75.316406 92.710938 75.316406 92.234375 C 75.316406 91.757812 75.351562 91.285156 75.417969 90.8125 C 75.484375 90.335938 75.582031 89.867188 75.714844 89.402344 C 75.847656 88.9375 76.011719 88.476562 76.207031 88.019531 C 76.402344 87.566406 76.632812 87.117188 76.890625 86.679688 C 77.148438 86.238281 77.4375 85.808594 77.757812 85.390625 C 78.078125 84.972656 78.425781 84.566406 78.800781 84.167969 C 79.179688 83.773438 79.582031 83.390625 80.011719 83.023438 C 80.441406 82.65625 80.894531 82.304688 81.375 81.96875 C 81.851562 81.632812 82.351562 81.316406 82.875 81.011719 C 83.398438 80.710938 83.945312 80.429688 84.507812 80.164062 C 85.070312 79.898438 85.648438 79.65625 86.246094 79.433594 C 86.84375 79.207031 87.457031 79.003906 88.082031 78.824219 C 88.707031 78.640625 89.34375 78.480469 89.992188 78.34375 C 90.640625 78.203125 91.296875 78.089844 91.960938 77.996094 C 92.625 77.902344 93.292969 77.835938 93.96875 77.789062 C 94.640625 77.742188 95.316406 77.71875 95.996094 77.71875 C 96.671875 77.71875 97.347656 77.742188 98.019531 77.789062 C 98.695312 77.835938 99.363281 77.902344 100.027344 77.996094 C 100.691406 78.089844 101.347656 78.203125 101.996094 78.34375 C 102.644531 78.480469 103.28125 78.640625 103.90625 78.824219 C 104.53125 79.003906 105.144531 79.207031 105.742188 79.433594 C 106.339844 79.65625 106.917969 79.898438 107.480469 80.164062 C 108.046875 80.429688 108.589844 80.710938 109.113281 81.011719 C 109.636719 81.316406 110.136719 81.632812 110.617188 81.96875 C 111.09375 82.304688 111.550781 82.65625 111.980469 83.023438 C 112.40625 83.390625 112.8125 83.773438 113.1875 84.167969 C 113.5625 84.566406 113.910156 84.972656 114.230469 85.390625 C 114.550781 85.808594 114.839844 86.238281 115.097656 86.679688 C 115.355469 87.117188 115.585938 87.566406 115.78125 88.019531 C 115.976562 88.476562 116.144531 88.9375 116.273438 89.402344 C 116.40625 89.867188 116.507812 90.335938 116.574219 90.8125 C 116.640625 91.285156 116.671875 91.757812 116.671875 92.234375 Z M 116.671875 92.234375 " fill-opacity="1" fill-rule="nonzero"/></g><g clip-path="url(#618dea2cd2)"><path fill="#ffffff" d="M 95.996094 69.230469 C 83.289062 69.230469 72.992188 79.527344 72.992188 92.234375 C 72.992188 104.9375 83.289062 115.238281 95.996094 115.238281 C 97.386719 115.238281 98.75 115.113281 100.074219 114.875 C 108.882812 113.300781 115.957031 106.707031 118.226562 98.15625 C 118.730469 96.265625 118.996094 94.28125 118.996094 92.234375 C 119 79.527344 108.699219 69.230469 95.996094 69.230469 Z M 103.082031 87.558594 C 103.082031 90.199219 101.636719 92.503906 99.492188 93.722656 L 102.796875 103.996094 L 89.191406 103.996094 L 92.496094 93.722656 C 90.351562 92.503906 88.90625 90.199219 88.90625 87.558594 C 88.90625 83.644531 92.078125 80.46875 95.996094 80.46875 C 98.402344 80.46875 100.53125 81.671875 101.8125 83.507812 C 102.613281 84.65625 103.082031 86.054688 103.082031 87.558594 Z M 103.082031 87.558594 " fill-opacity="1" fill-rule="nonzero"/></g><g clip-path="url(#9294020e7d)"><g clip-path="url(#2cefad128b)"><path stroke-linecap="butt" transform="matrix(0.75, 0, 0, 0.75, 13.717485, 13.650099)" fill="none" stroke-linejoin="miter" d="M 109.704819 -0.00221532 C 49.116274 -0.00221532 0.00168722 49.159246 0.00168722 109.794667 C 0.00168722 170.435295 49.116274 219.591548 109.704819 219.591548 C 170.288156 219.591548 219.407951 170.435295 219.407951 109.794667 C 219.407951 49.159246 170.288156 -0.00221532 109.704819 -0.00221532 Z M 109.704819 -0.00221532 " stroke="#ffffff" stroke-width="10" stroke-opacity="1" stroke-miterlimit="4"/></g></g><g clip-path="url(#c28d0c7100)"><g clip-path="url(#52bba64555)"><path stroke-linecap="butt" transform="matrix(0.75, 0, 0, 0.75, 52.058447, 110.803536)" fill="none" stroke-linejoin="miter" d="M 58.583529 0.00153497 C 26.229363 0.00153497 0.000196005 13.537993 0.000196005 30.241118 C 0.000196005 46.944243 26.229363 60.480702 58.583529 60.480702 C 90.942904 60.480702 117.172071 46.944243 117.172071 30.241118 C 117.172071 13.537993 90.942904 0.00153497 58.583529 0.00153497 Z M 58.583529 0.00153497 " stroke="#ffffff" stroke-width="6" stroke-opacity="1" stroke-miterlimit="4"/></g></g></svg>