<?xml version="1.0" encoding="utf-8"?>
<!-- Generator: Adobe Illustrator 22.0.1, SVG Export Plug-In . SVG Version: 6.00 Build 0)  -->
<svg version="1.1" id="vee_x5F_icon_x5F_only_x5F_color"
	 xmlns="http://www.w3.org/2000/svg" xmlns:xlink="http://www.w3.org/1999/xlink" x="0px" y="0px" viewBox="0 0 200 200"
	 style="enable-background:new 0 0 200 200;" xml:space="preserve">
<style type="text/css">
	.st0{fill:url(#SVGID_1_);}
	.st1{opacity:0.15;}
	.st2{fill:#FFFFFF;}
	.st3{opacity:6.000000e-02;}
	.st4{fill:url(#SVGID_2_);}
	.st5{fill:none;}
</style>
<g>
	<g>
		<g>
			<g>
				<linearGradient id="SVGID_1_" gradientUnits="userSpaceOnUse" x1="100" y1="150" x2="100" y2="50">
					<stop  offset="0" style="stop-color:#546E7A"/>
					<stop  offset="1" style="stop-color:#77929E"/>
				</linearGradient>
				<circle class="st0" cx="100" cy="100" r="50"/>
			</g>
			<g class="st1">
				<path class="st2" d="M100,50c-14.8,0-28,6.4-37.2,16.6c5,11.5,12.6,23.6,22.4,35.2c14.9,17.6,31.9,30.4,46.9,36.6
					c10.9-9.2,17.9-22.9,17.9-38.3C150,72.4,127.6,50,100,50z"/>
			</g>
		</g>
		<g>
			<g>
				<g>
					<path class="st2" d="M121,78c-6.2,0-11.2,5-11.2,11.2s5,11.2,11.2,11.2s11.2-5,11.2-11.2S127.2,78,121,78z M85.7,78.4
						l23.2,43.1c0.1,0.2,0.1,0.5,0,0.7l-8.3,15.4c-0.3,0.5-1.1,0.5-1.3,0L67.8,79.1c-0.3-0.5,0.1-1.1,0.7-1.1h16.5
						C85.3,78,85.6,78.2,85.7,78.4z"/>
				</g>
			</g>
			<g class="st3">
				<linearGradient id="SVGID_2_" gradientUnits="userSpaceOnUse" x1="87.8826" y1="138" x2="87.8826" y2="78">
					<stop  offset="0.1543" style="stop-color:#000000"/>
					<stop  offset="1" style="stop-color:#707070"/>
				</linearGradient>
				<path class="st4" d="M81.7,97c-4.6-6.1-9.7-13-13.2-19h0c-0.6,0-0.9,0.6-0.7,1.1l31.5,58.5c0.3,0.5,1.1,0.5,1.3,0l7.4-13.7
					C99.2,116.8,90.1,108.1,81.7,97z"/>
			</g>
		</g>
	</g>
	<g>
		<rect class="st5" width="200" height="200"/>
	</g>
</g>
</svg>
