<svg width="256" height="256" viewBox="0 0 64 64" fill="none" xmlns="http://www.w3.org/2000/svg">
<rect width="64" height="64" rx="32" fill="#181818"/>
<path d="M47.4101 27.8869C47.5951 27.7318 47.74 27.5368 47.845 27.3218C47.945 27.1067 48 26.8717 48 26.6317V17.6703C48 17.4502 47.955 17.2352 47.87 17.0302C47.785 16.8251 47.6551 16.6451 47.5001 16.4901C47.3401 16.3351 47.1501 16.21 46.9452 16.13C46.7402 16.05 46.5052 16 46.2803 16H38.0516C37.6366 16 37.2367 16.145 36.9217 16.4101L32.5824 20.1106C32.3974 20.2707 32.2525 20.4607 32.1525 20.6807C32.0525 20.8958 32.0025 21.1358 32.0025 21.3708C32.0025 21.1308 31.9525 20.8958 31.8525 20.6807C31.7525 20.4657 31.6076 20.2707 31.4226 20.1106L27.0733 16.4101C26.7633 16.145 26.3634 16 25.9484 16H17.7147C17.4898 16 17.2698 16.045 17.0598 16.125C16.8499 16.205 16.6649 16.3301 16.5049 16.4851C16.3449 16.6401 16.22 16.8251 16.135 17.0252C16.045 17.2352 16 17.4502 16 17.6703V26.6317C16 26.8717 16.05 27.1067 16.155 27.3218C16.255 27.5368 16.4049 27.7318 16.5849 27.8869L20.9242 31.5874C21.2392 31.8575 21.6441 32.0025 22.0591 32.0025C21.6391 32.0025 21.2392 32.1475 20.9242 32.4176L16.5849 36.1181C16.3999 36.2732 16.255 36.4682 16.155 36.6832C16.05 36.9033 16 37.1383 16 37.3733V46.3347C16 46.5548 16.045 46.7698 16.13 46.9748C16.215 47.1799 16.3449 47.3599 16.4999 47.5149C16.6599 47.6699 16.8499 47.795 17.0548 47.875C17.2648 47.96 17.4848 48 17.7097 48H25.9384C26.3534 48 26.7533 47.855 27.0683 47.5899L31.4076 43.8894C31.5926 43.7343 31.7375 43.5393 31.8375 43.3193C31.9375 43.1042 31.9875 42.8692 31.9875 42.6292C31.9875 42.8692 32.0375 43.1042 32.1375 43.3193C32.2375 43.5343 32.3824 43.7293 32.5674 43.8894L36.9067 47.5899C37.2217 47.855 37.6216 48 38.0366 48H46.2653C46.4902 48 46.7152 47.955 46.9202 47.875C47.1301 47.79 47.3151 47.6699 47.4751 47.5149C47.6351 47.3599 47.76 47.1749 47.845 46.9748C47.93 46.7698 47.975 46.5548 47.975 46.3347V37.3733C47.975 37.1333 47.925 36.8983 47.82 36.6832C47.72 36.4682 47.5701 36.2732 47.3851 36.1181L44.0458 32.4176C43.7308 32.1475 43.3259 32.0025 42.911 32.0025C43.3309 32.0025 43.7308 31.8575 44.0458 31.5874L47.3851 27.8869H47.4101ZM21.0792 25.1764C20.8392 24.6163 20.7793 23.9962 20.8992 23.4012C21.0192 22.8061 21.3242 22.256 21.7641 21.8259C22.204 21.3958 22.7689 21.1008 23.3838 20.9858C23.9988 20.8658 24.6337 20.9258 25.2086 21.1608C25.7835 21.3958 26.2784 21.7859 26.6283 22.296C26.9733 22.8011 27.1583 23.3962 27.1583 24.0063C27.1583 24.4113 27.0783 24.8114 26.9183 25.1814C26.7583 25.5565 26.5284 25.8915 26.2334 26.1766C25.9384 26.4616 25.5935 26.6867 25.2086 26.8417C24.8236 26.9967 24.4137 27.0767 23.9987 27.0767C23.3738 27.0767 22.7639 26.8967 22.244 26.5567C21.7241 26.2166 21.3192 25.7365 21.0792 25.1764ZM26.6233 41.714C26.2784 42.2191 25.7835 42.6142 25.2036 42.8492C24.6237 43.0842 23.9888 43.1442 23.3788 43.0242C22.7639 42.9042 22.204 42.6142 21.7591 42.1841C21.3192 41.754 21.0142 41.2039 20.8942 40.6088C20.7743 40.0138 20.8342 39.3937 21.0742 38.8336C21.3142 38.2735 21.7191 37.7934 22.239 37.4534C22.7589 37.1133 23.3688 36.9333 23.9938 36.9333C24.4087 36.9333 24.8186 37.0133 25.2036 37.1683C25.5885 37.3233 25.9334 37.5484 26.2284 37.8334C26.5234 38.1185 26.7533 38.4585 26.9133 38.8286C27.0733 39.1986 27.1533 39.6037 27.1533 40.0037C27.1533 40.6138 26.9683 41.2089 26.6233 41.714ZM42.9108 38.8286C43.1508 39.3887 43.2107 40.0088 43.0908 40.6038C42.9708 41.1989 42.6658 41.749 42.2259 42.1791C41.786 42.6092 41.2211 42.9042 40.6062 43.0192C39.9913 43.1342 39.3563 43.0792 38.7814 42.8442C38.2065 42.6092 37.7116 42.2191 37.3617 41.709C37.0167 41.2039 36.8317 40.6088 36.8317 39.9988C36.8317 39.5937 36.9117 39.1936 37.0717 38.8236C37.2317 38.4535 37.4616 38.1135 37.7566 37.8284C38.0516 37.5434 38.3965 37.3183 38.7814 37.1633C39.1664 37.0083 39.5763 36.9283 39.9913 36.9283C40.6162 36.9283 41.2261 37.1083 41.746 37.4484C42.2659 37.7884 42.6708 38.2685 42.9108 38.8286ZM41.746 26.5567C41.2261 26.8967 40.6162 27.0767 39.9913 27.0767C39.5763 27.0767 39.1664 26.9967 38.7814 26.8417C38.3965 26.6867 38.0516 26.4616 37.7566 26.1766C37.4616 25.8915 37.2317 25.5515 37.0717 25.1814C36.9117 24.8064 36.8317 24.4063 36.8317 24.0063C36.8317 23.3962 37.0167 22.8011 37.3617 22.296C37.7066 21.7909 38.2015 21.3958 38.7814 21.1608C39.3563 20.9258 39.9963 20.8658 40.6062 20.9858C41.2211 21.1058 41.781 21.3958 42.2259 21.8259C42.6658 22.256 42.9708 22.8061 43.0908 23.4012C43.2107 23.9962 43.1508 24.6163 42.9108 25.1764C42.6708 25.7365 42.2659 26.2166 41.746 26.5567Z" fill="#54FE6D"/>
</svg>
