<svg width="256" height="256" viewBox="0 0 100 100" fill="none" xmlns="http://www.w3.org/2000/svg">
<g clip-path="url(#clip0_119_5623)">
<rect width="100" height="100" fill="#181818"/>
<path d="M79.6755 34.451L62.3099 19.6476C61.0583 18.5851 59.4538 17.9998 57.793 18H24.8661C23.9644 18 23.0715 18.1728 22.2384 18.5087C21.4054 18.8445 20.6485 19.3367 20.011 19.9573C19.3734 20.5778 18.8676 21.3144 18.5226 22.1252C18.1775 22.9359 18 23.8049 18 24.6824V60.514C17.9988 61.466 18.207 62.4072 18.6109 63.2743C19.0147 64.1414 19.6046 64.9143 20.341 65.5409L37.7024 80.3444C38.9585 81.4162 40.5735 82.0049 42.244 82H75.1339C76.9549 82 78.7014 81.2959 79.989 80.0427C81.2767 78.7895 82 77.0897 82 75.3174V39.486C82.0028 38.5341 81.797 37.5926 81.3962 36.7244C80.9953 35.8561 80.4087 35.081 79.6755 34.451ZM50.0062 62.29C47.5063 62.2908 45.0623 61.57 42.9833 60.2188C40.9043 58.8675 39.2838 56.9466 38.3267 54.6989C37.3697 52.4511 37.1191 49.9776 37.6066 47.5912C38.0941 45.2049 39.2977 43.0129 41.0655 41.2925C42.8332 39.572 45.0855 38.4004 47.5374 37.926C49.9894 37.4515 52.5309 37.6954 54.8404 38.6269C57.1499 39.5584 59.1236 41.1356 60.512 43.1589C61.9004 45.1823 62.6411 47.5609 62.6403 49.994C62.6398 51.6096 62.3121 53.2092 61.6763 54.7016C61.0404 56.194 60.1087 57.5498 58.9343 58.6917C57.7599 59.8335 56.3658 60.7391 54.8317 61.3565C53.2977 61.9739 51.6538 62.2911 49.9937 62.29H50.0062Z" fill="#54FE6D"/>
</g>
<defs>
<clipPath id="clip0_119_5623">
<rect width="100" height="100" fill="white"/>
</clipPath>
</defs>
</svg>
