<?xml version="1.0" encoding="UTF-8"?>
<svg id="Layer_1" data-name="Layer 1" xmlns="http://www.w3.org/2000/svg" viewBox="0 0 200 200">
  <defs>
    <style>
      .cls-1 {
        fill: #f2cfb1;
      }

      .cls-2 {
        fill: #ba9678;
      }

      .cls-3 {
        fill: #0465d0;
      }
    </style>
  </defs>
  <path class="cls-1" d="M183.98,75.53c2.72-6.19,3.12-13.83.77-20.27-3.01-8.29-9.99-14.12-19.71-16.59.56-7.62-1.74-15.35-6.54-21.45-5.17-6.54-12.79-10.59-21.5-11.4-17.59-1.64-25.11,6.13-28.35,13-2.45,5.27-1.89,13.77-.62,19.38.42,1.85.73,4.3-.35,5.63-1.02,1.29-3.84,2.04-7.68,2.04v24.32h.06c2.08,0,3.84,1.74,3.84,3.84v59.21c0,2.08-1.75,3.84-3.84,3.84h-.06v33.52h.31c4.03-.21,7.68-2.87,10.28-7.39.37-.66.71-1.33,1.08-1.99.5-.93,1.33-2.55,1.58-2.76,1.74.31,3.49,1.64,3.28,8.85v.87c0,13.4,8.85,24.05,21.6,25.9,1.22.14,2.39.25,3.63.25v.04c12.36-.02,23.18-9.12,25.03-21.7.5-3.41.29-6.44-.15-8.95,10.07-1.89,18.21-9.97,19.75-20.73.71-4.74,0-9.57-2.01-13.85,8.14-4.61,13.93-12.86,15.31-22.31,1.83-12.84-4.71-25.28-15.72-31.32ZM127.33,57.82c.81-1.95,3.07-2.87,5.07-2.01,1.99.87,2.85,3.07,1.99,5.01-.46,1.14-4.3,11.26,6.13,17.67,1.79,1.12,2.35,3.47,1.29,5.27-.71,1.18-2.01,1.83-3.28,1.83h-.06c-.66,0-1.37-.19-1.99-.56-13.06-8.02-11.73-21.29-9.16-27.21ZM147.7,96.82c-3.18,1.27-5.48,3.78-6.56,7.06-.79,2.43-.81,5.05-.06,7.5,1.02-.35,2.08-.64,3.18-.85,2.16-.42,4.09.91,4.55,2.97.42,2.08-.91,4.09-2.97,4.55-11.09,2.3-17.44,12.73-17.03,17.49.19,2.1-1.39,3.99-3.49,4.15h-.35c-2.01,0-3.65-1.54-3.84-3.53-.54-6.27,4.15-15.74,12.88-21.43-1.56-4.24-1.68-8.91-.19-13.27,1.79-5.38,5.79-9.62,10.95-11.76,1.93-.77,4.19.15,5.01,2.08.81,1.95-.15,4.2-2.1,5.03Z"/>
  <path class="cls-1" d="M103.9,74.04v59.21c0,2.08-1.75,3.84-3.84,3.84h-.06v33.52h-.31c-4.05-.27-7.68-2.87-10.28-7.39-.37-.6-.71-1.27-1.08-1.99-.52-.96-1.33-2.55-1.79-2.91-1.49.46-3.22,1.74-3.07,8.95v.87c0,13.42-8.85,24.05-21.54,25.9-13.87,2.01-26.71-7.64-28.72-21.45-.5-3.38-.31-6.44.15-8.95-10.07-1.89-18.21-9.99-19.75-20.68-.67-4.76,0-9.57,2.01-13.87-8.2-4.61-13.98-12.84-15.31-22.31-1.83-12.79,4.67-25.28,15.72-31.32-2.72-6.25-3.12-13.81-.77-20.27,3.03-8.27,9.93-14.12,19.71-16.57-.58-7.68,1.77-15.41,6.54-21.45,5.23-6.46,12.84-10.55,21.5-11.36,17.65-1.64,25.13,6.13,28.33,13,2.47,5.27,1.91,13.77.62,19.38-.4,1.85-.66,4.36.37,5.63,1.02,1.29,3.84,2.04,7.68,2.04v24.32h.06c2.08,0,3.84,1.74,3.84,3.84Z"/>
  <path class="cls-3" d="M127.33,57.82c.81-1.95,3.07-2.87,5.07-2.01,1.99.87,2.85,3.07,1.99,5.01-.46,1.14-4.3,11.26,6.13,17.67,1.79,1.12,2.35,3.47,1.29,5.27-.71,1.18-2.01,1.83-3.28,1.83h-.06c-.66,0-1.37-.19-1.99-.56-13.06-8.02-11.73-21.29-9.16-27.21Z"/>
  <path class="cls-3" d="M141.14,103.88c-.79,2.43-.81,5.05-.06,7.5,1.02-.35,2.08-.64,3.18-.85,2.16-.42,4.09.91,4.55,2.97.42,2.08-.91,4.09-2.97,4.55-11.09,2.3-17.44,12.73-17.03,17.49.19,2.1-1.39,3.99-3.49,4.15h-.35c-2.01,0-3.65-1.54-3.84-3.53-.54-6.27,4.15-15.74,12.88-21.43-1.56-4.24-1.68-8.91-.19-13.27,1.79-5.38,5.79-9.62,10.95-11.76,1.93-.77,4.19.15,5.01,2.08.81,1.95-.15,4.2-2.1,5.03-3.18,1.27-5.48,3.78-6.56,7.06Z"/>
  <path class="cls-2" d="M61.62,88.06c.72,0,1.43-.15,2.05-.56,13.05-8.03,11.72-21.34,9.16-27.22-.82-1.94-3.07-2.81-5.02-2-1.94.82-2.87,3.07-2.05,5.02.46,1.13,4.3,11.26-6.14,17.66-1.84,1.13-2.41,3.48-1.28,5.27.72,1.18,2,1.84,3.27,1.84Z"/>
  <path class="cls-2" d="M66.16,117.18c1.56-4.26,1.66-8.94.22-13.31-1.79-5.37-5.78-9.67-10.95-11.77-1.94-.82-4.2.15-5.02,2.1-.82,1.94.15,4.2,2.1,5.02,3.12,1.28,5.48,3.79,6.55,7.06.8,2.45.81,5.08.07,7.52-1.05-.34-2.12-.64-3.24-.87-2.15-.46-4.15.87-4.55,2.97-.46,2.1.87,4.15,2.97,4.55,11.1,2.3,17.45,12.79,17.04,17.5-.2,2.1,1.38,3.94,3.48,4.15h.36c2,0,3.68-1.54,3.84-3.53.53-6.22-4.14-15.68-12.86-21.39Z"/>
  <path d="M141.76,194.4h0s-.03,0-.05,0h.05Z"/>
  <path class="cls-2" d="M141.81,83.76c-.71,1.18-2.01,1.83-3.28,1.83h-.06c-.66,0-1.37-.19-1.99-.56-13.06-8.02-11.73-21.29-9.16-27.21.81-1.95,3.07-2.87,5.07-2.01,1.99.87,2.85,3.07,1.99,5.01-.46,1.14-4.3,11.26,6.13,17.67,1.79,1.12,2.35,3.47,1.29,5.27Z"/>
  <path class="cls-2" d="M141.14,103.88c-.79,2.43-.81,5.05-.06,7.5,1.02-.35,2.08-.64,3.18-.85,2.16-.42,4.09.91,4.55,2.97.42,2.08-.91,4.09-2.97,4.55-11.09,2.3-17.44,12.73-17.03,17.49.19,2.1-1.39,3.99-3.49,4.15h-.35c-2.01,0-3.65-1.54-3.84-3.53-.54-6.27,4.15-15.74,12.88-21.43-1.56-4.24-1.68-8.91-.19-13.27,1.79-5.38,5.79-9.62,10.95-11.76,1.93-.77,4.19.15,5.01,2.08.81,1.95-.15,4.2-2.1,5.03-3.18,1.27-5.48,3.78-6.56,7.06Z"/>
</svg>