<?xml version="1.0" encoding="UTF-8"?>
<svg xmlns="http://www.w3.org/2000/svg" xmlns:xlink="http://www.w3.org/1999/xlink" width="256" height="256" viewBox="0 0 32 32" version="1.1">
<defs>
<clipPath id="clip1">
  <path d="M 0.515625 0 L 31.484375 0 L 31.484375 30.964844 L 0.515625 30.964844 Z M 0.515625 0 "/>
</clipPath>
<clipPath id="clip2">
  <path d="M 31.484375 15.484375 C 31.484375 24.035156 24.550781 30.964844 16 30.964844 C 7.449219 30.964844 0.515625 24.035156 0.515625 15.484375 C 0.515625 6.933594 7.449219 0 16 0 C 24.550781 0 31.484375 6.933594 31.484375 15.484375 Z M 31.484375 15.484375 "/>
</clipPath>
</defs>
<g id="surface1">
<g clip-path="url(#clip1)" clip-rule="nonzero">
<g clip-path="url(#clip2)" clip-rule="nonzero">
<path style=" stroke:none;fill-rule:nonzero;fill:rgb(0%,0%,0%);fill-opacity:1;" d="M 0.515625 0 L 0.515625 30.964844 L 31.484375 30.964844 L 31.484375 0 Z M 0.515625 0 "/>
</g>
</g>
<path style=" stroke:none;fill-rule:nonzero;fill:rgb(100%,100%,100%);fill-opacity:1;" d="M 14.105469 6.082031 L 10.230469 5.046875 C 11.113281 6.988281 12.933594 10.996094 13.144531 11.472656 C 13.359375 11.945312 13.007812 12.058594 12.804688 12.054688 L 9.222656 12.054688 C 8.503906 12.054688 8.347656 12.175781 8.097656 12.746094 L 4.578125 20.484375 L 9.019531 18.769531 L 11.0625 14.289062 L 12.859375 14.289062 C 13.148438 14.289062 13.296875 14.570312 13.125 14.902344 L 8.148438 25.894531 L 12.585938 24.183594 L 15.203125 18.433594 C 15.640625 17.472656 15.664062 17.082031 15.664062 16.386719 L 15.664062 10.410156 C 15.664062 9.535156 15.417969 8.921875 15.179688 8.445312 Z M 14.105469 6.082031 "/>
<path style=" stroke:none;fill-rule:nonzero;fill:rgb(100%,100%,100%);fill-opacity:1;" d="M 17.925781 6.082031 L 21.800781 5.046875 C 20.917969 6.988281 19.101562 10.996094 18.882812 11.472656 C 18.671875 11.945312 19.019531 12.058594 19.226562 12.054688 L 22.808594 12.054688 C 23.527344 12.054688 23.683594 12.175781 23.933594 12.746094 L 27.453125 20.484375 L 23.007812 18.769531 L 20.964844 14.289062 L 19.171875 14.289062 C 18.878906 14.289062 18.734375 14.570312 18.902344 14.902344 L 23.882812 25.894531 L 19.441406 24.183594 L 16.828125 18.433594 C 16.386719 17.472656 16.367188 17.082031 16.367188 16.386719 L 16.367188 10.410156 C 16.367188 9.535156 16.613281 8.921875 16.851562 8.445312 Z M 17.925781 6.082031 "/>
<path style=" stroke:none;fill-rule:nonzero;fill:rgb(100%,100%,100%);fill-opacity:1;" d="M 14.105469 6.082031 L 10.230469 5.046875 C 11.113281 6.988281 12.933594 10.996094 13.144531 11.472656 C 13.359375 11.945312 13.007812 12.058594 12.804688 12.054688 L 9.222656 12.054688 C 8.503906 12.054688 8.347656 12.175781 8.097656 12.746094 L 4.578125 20.484375 L 9.019531 18.769531 L 11.0625 14.289062 L 12.859375 14.289062 C 13.148438 14.289062 13.296875 14.570312 13.125 14.902344 L 8.148438 25.894531 L 12.585938 24.183594 L 15.203125 18.433594 C 15.640625 17.472656 15.664062 17.082031 15.664062 16.386719 L 15.664062 10.410156 C 15.664062 9.535156 15.417969 8.921875 15.179688 8.445312 Z M 14.105469 6.082031 "/>
<path style=" stroke:none;fill-rule:nonzero;fill:rgb(100%,100%,100%);fill-opacity:1;" d="M 17.925781 6.082031 L 21.800781 5.046875 C 20.917969 6.988281 19.101562 10.996094 18.882812 11.472656 C 18.671875 11.945312 19.019531 12.058594 19.226562 12.054688 L 22.808594 12.054688 C 23.527344 12.054688 23.683594 12.175781 23.933594 12.746094 L 27.453125 20.484375 L 23.007812 18.769531 L 20.964844 14.289062 L 19.171875 14.289062 C 18.878906 14.289062 18.734375 14.570312 18.902344 14.902344 L 23.882812 25.894531 L 19.441406 24.183594 L 16.828125 18.433594 C 16.386719 17.472656 16.367188 17.082031 16.367188 16.386719 L 16.367188 10.410156 C 16.367188 9.535156 16.613281 8.921875 16.851562 8.445312 Z M 17.925781 6.082031 "/>
</g>
</svg>
