<svg id="Layer_1" data-name="Layer 1" xmlns="http://www.w3.org/2000/svg" viewBox="0 0 90 90"><defs><style>.cls-1{fill:#878787;}.cls-2{fill:#e2c88f;}.cls-3{fill:#1d1d1b;}.cls-4{fill:#fff;}.cls-5{fill:#dadada;}.cls-6{fill:#ffb8df;}</style></defs><path class="cls-1" d="M32.61,26.71a27.74,27.74,0,0,0-13.7,11.85L16.63,14.41a1.15,1.15,0,0,1,.31-.9,1.1,1.1,0,0,1,.78-.33h.09A16.26,16.26,0,0,1,32.61,26.71Z"/><path class="cls-2" d="M34.36,29.29A17.63,17.63,0,0,1,31,39.86a17.26,17.26,0,0,1-3,3.21,17.39,17.39,0,0,1-3.14,2.14,4.93,4.93,0,0,1-5.39-.49c.16-.53.34-1,.55-1.55A24.45,24.45,0,0,1,32.84,29.93C33.33,29.71,33.84,29.49,34.36,29.29Z"/><path class="cls-3" d="M34.36,29.29c-.52.2-1,.42-1.52.64a16.19,16.19,0,0,1-4.06,10.31c-.16.2-.34.39-.52.58h0a16.6,16.6,0,0,1-4.05,3,3.39,3.39,0,0,1-3.23,0,3.59,3.59,0,0,1-.89-.69c-.21.51-.39,1-.55,1.55s-.31,1-.43,1.55l.44.26a6.41,6.41,0,0,0,6.09,0A19.29,19.29,0,0,0,35.87,28.76C35.36,28.92,34.85,29.1,34.36,29.29Z"/><path class="cls-2" d="M69.74,43.9a4.82,4.82,0,0,1-4.66,0,15.44,15.44,0,0,1-2.22-1.41,17.07,17.07,0,0,1-2.92-2.71,17.8,17.8,0,0,1-4.26-10.26c.55.25,1.08.49,1.6.77a26.86,26.86,0,0,1,11.85,12.2C69.35,43,69.55,43.43,69.74,43.9Z"/><path class="cls-1" d="M73.37,13.06,70.89,39.34A29.88,29.88,0,0,0,57.2,26.9a2.28,2.28,0,0,1,0-.26,16.27,16.27,0,0,1,15-14.75h.09a1.07,1.07,0,0,1,1,1.17Z"/><path class="cls-3" d="M69.74,43.9c-.19-.47-.39-.94-.61-1.39l-.11.06a3.37,3.37,0,0,1-3.23,0,16.29,16.29,0,0,1-8.51-12.27c-.52-.28-1.05-.52-1.6-.77s-1-.42-1.56-.61a19.26,19.26,0,0,0,4.52,11.7,19.87,19.87,0,0,0,3.48,3.24,20.45,20.45,0,0,0,2.24,1.39,6.41,6.41,0,0,0,5.92.07C70.12,44.85,69.94,44.37,69.74,43.9Z"/><path class="cls-4" d="M49.16,49.65H42a3.87,3.87,0,0,1,7.12,0Z"/><path class="cls-4" d="M29.31,52.2l-.16.18h0l-.19.21H28.7Z"/><path class="cls-4" d="M45.05,41.42l.14.08-.18,0v-.13h.57Z"/><path class="cls-3" d="M47.19,41.48l2.65.4A17.74,17.74,0,0,0,47.19,41.48Z"/><path class="cls-4" d="M49.84,41.88l-2.65-.4A17.74,17.74,0,0,1,49.84,41.88Z"/><path class="cls-5" d="M71.54,55.11l-.74,2-4.4-3.36A29.5,29.5,0,0,1,61.86,49C60.94,47.91,60,46.75,59,45.67a16.92,16.92,0,0,0-12.34-5.75c-.31,0-.63,0-1,0h-.13l-.51,0c-5.09.19-8.87,1.4-12.43,5.89-.39.48-.77,1-1.16,1.46a43.09,43.09,0,0,1-4.56,5.27L18.8,58.7c0-.41-.38-7.27-.39-7.7v0a25.51,25.51,0,0,1,.69-4.68c.12-.52.26-1,.43-1.55s.34-1,.55-1.55A24.45,24.45,0,0,1,32.84,29.93c.49-.22,1-.44,1.52-.64s1-.37,1.51-.53a29.86,29.86,0,0,1,9.21-1.41,26.55,26.55,0,0,1,9,1.58c.53.19,1.05.4,1.56.61s1.08.49,1.6.77a26.86,26.86,0,0,1,11.85,12.2c.22.45.42.92.61,1.39s.38,1,.54,1.43a26.17,26.17,0,0,1,1.45,8.24C71.74,53.7,71.54,55,71.54,55.11Z"/><path class="cls-3" d="M18.9,55.13h0c0,.08.05.15.07.23a0,0,0,0,0,0,0C18.94,55.31,18.91,55.22,18.9,55.13Zm.29,1.14a4.48,4.48,0,0,0,.16.52h0C19.3,56.61,19.24,56.45,19.19,56.27Zm-3.07.29h0l.12.43C16.19,56.84,16.15,56.7,16.12,56.56ZM35.5,71.19c-.65-.3-1.24-.59-1.79-.89a18,18,0,0,1-2-1.24,16.25,16.25,0,0,1-1.4-1.14c-.68-.28-1.37-.61-2-1v0h0c-.24-.13-.48-.26-.71-.4h0l-.87-.28c-.3-.1-.58-.21-.87-.32l-.85-.37c-.27-.13-.55-.27-.82-.42a8.06,8.06,0,0,1-.71-.39l0,0a25.82,25.82,0,0,0,5.94,5.81h0l.53.41h0l.12,0h0a0,0,0,0,0,0,0h0a16.07,16.07,0,0,0,5.51,1.22h.07A10.43,10.43,0,0,1,35.5,71.19Z"/><path class="cls-3" d="M65.15,66.49l-.07.1-.41.52v0q-.28.51-.63,1a12.07,12.07,0,0,1-2.14,2.32c-.21.18-.42.34-.63.51A20.26,20.26,0,0,1,59,72a9.23,9.23,0,0,1-3,.62A10,10,0,0,0,56.18,71v0c.43-.22.85-.44,1.28-.69a15.91,15.91,0,0,0,2.71-1.83,9.84,9.84,0,0,0,.87-.82h0l.65-.41A2.2,2.2,0,0,1,62,67l-.09.15.49-.05A14.11,14.11,0,0,0,65,66.55Z"/><path class="cls-3" d="M71.74,54h0c0-.12,0-.25,0-.38C71.74,53.7,71.74,53.83,71.74,54Z"/><path class="cls-3" d="M69,60.32l0,.07a11.16,11.16,0,0,1-1.88,1.7A11.05,11.05,0,0,0,69,60.32Z"/><path class="cls-3" d="M47.28,53a1,1,0,0,0,0,.17h-.12Z"/><path class="cls-3" d="M44.27,53.08h0V53h0Z"/><path class="cls-3" d="M62,67l-.09.15-.16,0A2.2,2.2,0,0,1,62,67Z"/><path class="cls-3" d="M63.37,64.12l-.12,0a.43.43,0,0,1,0-.07Z"/><polygon class="cls-3" points="63.61 64.07 63.54 64.21 63.37 64.12 63.61 64.07"/><path class="cls-3" d="M65.15,66.49l-.07.1-.16,0a13.34,13.34,0,0,1-2.56.5A14.11,14.11,0,0,0,65,66.55Z"/><path class="cls-3" d="M74.77,53.65v.05a.11.11,0,0,0,0-.05Z"/><path class="cls-3" d="M44.27,53.08h-.14c0-.12,0-.25,0-.38h.1c0,.1,0,.21,0,.31Z"/><path class="cls-3" d="M16,56.12a12.05,12.05,0,0,1-.61-3c0-.15,0-.31,0-.46V52.2h.07a.31.31,0,0,0,0,.1A22.23,22.23,0,0,0,16,56Z"/><path class="cls-3" d="M19.53,56.71h0l-.17.08h0a4.48,4.48,0,0,1-.16-.52.24.24,0,0,1,0-.08c-.07-.23-.13-.45-.19-.68,0,0,0-.07,0-.1.06.17.12.34.19.5s.13.31.21.47S19.47,56.6,19.53,56.71Z"/><path class="cls-3" d="M31.52,64.19a14.46,14.46,0,0,1-10.27-4.93l.06,0A15.42,15.42,0,0,0,31.52,64.19Z"/><path class="cls-3" d="M33.71,70.3l-.46.18-5-3.51v0h0l-.36-.25v0h0l.54.15c.29.06.58.13.87.18.33.33.66.65,1,1a16.25,16.25,0,0,0,1.4,1.14A18,18,0,0,0,33.71,70.3Z"/><path class="cls-3" d="M62,67l-.09.15-.27.5L58,70.44l-.49-.17a15.91,15.91,0,0,0,2.71-1.83,9.84,9.84,0,0,0,.87-.82h0c.12-.13.24-.27.34-.4h.31A2.2,2.2,0,0,1,62,67Z"/><polygon class="cls-3" points="63.61 64.07 63.54 64.21 63.37 64.12 63.61 64.07"/><path class="cls-3" d="M62.88,42.13a2.39,2.39,0,1,1-2.39-2.39,2.39,2.39,0,0,1,2.39,2.39Z"/><path class="cls-3" d="M32.65,42.13a2.39,2.39,0,1,1-2.4-2.39,2.41,2.41,0,0,1,2.4,2.39Z"/><path class="cls-2" d="M63.37,64.12l-.12,0a.43.43,0,0,1,0-.07Z"/><polygon class="cls-2" points="63.61 64.07 63.54 64.21 63.37 64.12 63.61 64.07"/><path class="cls-2" d="M49.16,49.65H42a3.87,3.87,0,0,1,7.12,0Z"/><path class="cls-2" d="M29.14,52.38l-.19.21h-.18Z"/><path class="cls-4" d="M63.37,64.12l-.12,0a.43.43,0,0,1,0-.07Z"/><path class="cls-5" d="M36.16,74.36,36,74.28a27.52,27.52,0,0,1-5.84-3.06l-.26-.2h0l-.53-.41h0a34.31,34.31,0,0,1-3.84-3.78l-.09-.1c-.5-.55-.93-1.06-1.31-1.55,0,0,0,0,0,0,.27.15.55.29.82.42l.85.37c.29.11.57.22.87.32l.87.28h0l.17,0,.18,0,.54.15c.29.06.58.13.87.18.33.33.66.65,1,1a16.25,16.25,0,0,0,1.4,1.14,18,18,0,0,0,2,1.24c.55.3,1.14.59,1.79.89a10.43,10.43,0,0,0,.11,1.11,9.11,9.11,0,0,0,.45,1.78C36.09,74.17,36.13,74.26,36.16,74.36Z"/><path class="cls-5" d="M65,66.55a.56.56,0,0,1,0,.08l-.25.48v0q-.28.51-.63,1a12.07,12.07,0,0,1-2.14,2.32c-.21.18-.42.34-.63.51a26.81,26.81,0,0,1-4.44,2.63l-1.15.54a.84.84,0,0,0,0-.17l0-.11.09-.31c.08-.31.15-.62.2-.93A10,10,0,0,0,56.18,71v0c.43-.22.85-.44,1.28-.69a15.91,15.91,0,0,0,2.71-1.83,9.84,9.84,0,0,0,.87-.82h0c.12-.13.24-.27.34-.4h.31a.16.16,0,0,1,.16,0l.49-.05A14.11,14.11,0,0,0,65,66.55Z"/><path class="cls-3" d="M44.27,53.08h-.14c0-.12,0-.25,0-.38h.1c0,.1,0,.21,0,.31Z"/><path class="cls-3" d="M19.53,56.71l-.17.08h0a4.48,4.48,0,0,1-.16-.52.24.24,0,0,1,0-.08c-.07-.23-.13-.45-.19-.68,0,0,0-.07,0-.1.06.17.12.34.19.5s.13.31.21.47A2.59,2.59,0,0,0,19.53,56.71Z"/><path class="cls-3" d="M16.11,56.53a11.41,11.41,0,0,1-.72-3.46c0-.15,0-.31,0-.46V52.3h.08A22.23,22.23,0,0,0,16,56l0,.15a0,0,0,0,1,0,0s0,0,0,.05,0,0,0,0,0,0,0,.06Z"/><path class="cls-3" d="M24.91,65.57c-.27-.12-.54-.25-.81-.4s-.47-.25-.7-.38l0,0a8.06,8.06,0,0,0,.71.39C24.36,65.3,24.64,65.44,24.91,65.57Z"/><path class="cls-3" d="M28.42,66.79l-.54-.14-.18-.05.18,0Z"/><path class="cls-3" d="M15.39,51a0,0,0,0,0,0,0v0Z"/><path class="cls-3" d="M36.16,74.36,36,74.28a27.52,27.52,0,0,1-5.84-3.06l-.26-.2h0l-.53-.41c.22.16.44.32.66.46h0a0,0,0,0,0,0,0h0l.53.35a25.11,25.11,0,0,0,5.5,2.65C36.09,74.17,36.13,74.26,36.16,74.36Z"/><path class="cls-2" d="M45.58,41.4l-.53,0,0,0Z"/><path class="cls-2" d="M49.84,41.88l-2.65-.4A17.74,17.74,0,0,1,49.84,41.88Z"/><path class="cls-3" d="M45.52,39.88l-.51,0h0C45.18,39.9,45.35,39.87,45.52,39.88Z"/><path class="cls-3" d="M45.05,41.42l.14.08-.18,0v-.13h.57Z"/><path class="cls-3" d="M49.84,41.88l-2.65-.4A17.74,17.74,0,0,1,49.84,41.88Z"/><path class="cls-2" d="M29.31,52.2l-.16.18h0l-.19.21H28.7Z"/><path class="cls-2" d="M45.19,41.5l-.18,0v-.1h0Z"/><path class="cls-3" d="M29.31,52.2l-.16.18h0l-.19.21H28.7Z"/><path class="cls-3" d="M45.05,41.42l.14.08-.18,0v-.13h.57Z"/><path class="cls-3" d="M46.61,39.92h0c-.31,0-.63,0-1,0C46,39.87,46.29,39.92,46.61,39.92Z"/><path class="cls-4" d="M49.16,49.65H42a3.87,3.87,0,0,1,7.12,0Z"/><path class="cls-3" d="M60.6,71c-.52.35-1.05.69-1.59,1a27.2,27.2,0,0,1-3.16,1.55c0,.1-.05.21-.09.31l0,.11a.84.84,0,0,1,0,.17l1.15-.54A26.81,26.81,0,0,0,61.26,71c.21-.17.42-.33.63-.51A12.07,12.07,0,0,0,64,68.15q.34-.51.63-1A19.47,19.47,0,0,1,60.6,71ZM71.14,55.92l-.11.24a.75.75,0,0,1-.06.13l.24.07c0-.12.08-.25.11-.38ZM18.9,55.13a17.24,17.24,0,0,1-.42-2.88h-.09v0c0,.18,0,.36,0,.53a7.42,7.42,0,0,0,.17,1.23,4.21,4.21,0,0,0,.12.51,1.41,1.41,0,0,0,.06.22,3,3,0,0,0,.1.32s0,0,0,0,.05.15.07.23a0,0,0,0,0,0,0C18.94,55.31,18.91,55.22,18.9,55.13Z"/><path class="cls-3" d="M76.4,13.35a4.13,4.13,0,0,0-1.16-3.27A4.09,4.09,0,0,0,72,8.87a19.26,19.26,0,0,0-17.75,16.9,29.47,29.47,0,0,0-9.19-1.46,33.33,33.33,0,0,0-9.57,1.37A19.3,19.3,0,0,0,18,10.16a4.11,4.11,0,0,0-3.26,1.22,4.16,4.16,0,0,0-1.17,3.31L16.13,41.4a6.66,6.66,0,0,0,.58,2.13A27.26,27.26,0,0,0,15.39,51a0,0,0,0,0,0,0h0c0,.39,0,.78,0,1.16a.31.31,0,0,0,0,.1A22.23,22.23,0,0,0,16,56l0,.15a0,0,0,0,1,0,0s0,0,0,.05,0,0,0,0,0,0,0,.06l.06.23v0h0c0,.14.07.28.11.42a0,0,0,0,0,0,0A23.18,23.18,0,0,0,17,59.23l0,.1a29.58,29.58,0,0,0,21.4,18.56l0,0a10.16,10.16,0,0,0,7.12,3.28H46a10.15,10.15,0,0,0,6.94-2.73,10.65,10.65,0,0,0,1-1,28.76,28.76,0,0,0,8.44-3.93c3.56-2.45,6.28-6.26,8.6-10.38A13.11,13.11,0,0,0,74.76,54a.15.15,0,0,0,0-.07.61.61,0,0,0,0-.14.28.28,0,0,0,0-.09.11.11,0,0,0,0-.05,29.31,29.31,0,0,0-2-10.45,6.45,6.45,0,0,0,1.12-3.09ZM16.63,14.41a1.15,1.15,0,0,1,.31-.9,1.1,1.1,0,0,1,.78-.33h.09a16.26,16.26,0,0,1,14.8,13.52,27.74,27.74,0,0,0-13.7,11.85ZM36,74.28a27.52,27.52,0,0,1-5.84-3.06l-.26-.2h0l-.53-.41h0a25.82,25.82,0,0,1-5.94-5.81l0,0a8.06,8.06,0,0,0,.71.39c.27.15.55.29.82.42l.85.37c.29.11.57.22.87.32l.87.28h0l.17,0,.18,0,.54.15c.29.06.58.13.87.18.33.33.66.65,1,1a16.25,16.25,0,0,0,1.4,1.14,18,18,0,0,0,2,1.24c.55.3,1.14.59,1.79.89a10.43,10.43,0,0,0,.11,1.11,9.11,9.11,0,0,0,.45,1.78c0,.09.07.18.1.28ZM42,49.65a3.87,3.87,0,0,1,7.12,0Zm23,16.94-.41.52v0q-.28.51-.63,1a12.07,12.07,0,0,1-2.14,2.32c-.21.18-.42.34-.63.51a26.81,26.81,0,0,1-4.44,2.63l-1.15.54a.84.84,0,0,0,0-.17l0-.11.09-.31c.08-.31.15-.62.2-.93A10,10,0,0,0,56.18,71v0c.43-.22.85-.44,1.28-.69a15.91,15.91,0,0,0,2.71-1.83,9.84,9.84,0,0,0,.87-.82h0c.12-.13.24-.27.34-.4h.31A2.2,2.2,0,0,1,62,67l-.09.15.49-.05A14.11,14.11,0,0,0,65,66.55l.18-.06ZM71.7,54a11.16,11.16,0,0,1-.16,1.16c-.06.29-.13.58-.22.87,0,.13-.07.26-.11.38L71,56.29a.75.75,0,0,0,.06-.13l.11-.24-2.21-.66a10.83,10.83,0,0,1-2.53-1.48A29.5,29.5,0,0,1,61.86,49C60.94,47.91,60,46.75,59,45.67a16.92,16.92,0,0,0-12.34-5.75c-.31,0-1.44,0-1.6,0-5.09.19-8.87,1.4-12.43,5.89-.39.48-.77,1-1.16,1.46a43.09,43.09,0,0,1-4.56,5.27,13.71,13.71,0,0,1-4.23,2.77l-3.1,1.42h0l-.17.08h0a4.48,4.48,0,0,1-.16-.52.24.24,0,0,1,0-.08,5.27,5.27,0,0,1-.19-.68s0-.07,0-.1h0a0,0,0,0,1,0,0c0-.08-.05-.15-.07-.23s0,0,0,0a3,3,0,0,1-.1-.32,1.41,1.41,0,0,1-.06-.22,4.21,4.21,0,0,1-.12-.51,7.42,7.42,0,0,1-.17-1.23c0-.17,0-.35,0-.53v0h.09c0-.41-.06-.82-.07-1.25v0a25.51,25.51,0,0,1,.69-4.68c.12-.52.26-1,.43-1.55s.34-1,.55-1.55A24.45,24.45,0,0,1,32.84,29.93c.49-.22,1-.44,1.52-.64s1-.37,1.51-.53a29.86,29.86,0,0,1,9.21-1.41,26.55,26.55,0,0,1,9,1.58c.53.19,1.05.4,1.56.61s1.08.49,1.6.77a26.86,26.86,0,0,1,11.85,12.2c.22.45.42.92.61,1.39s.38,1,.54,1.43a26.17,26.17,0,0,1,1.45,8.24c0,.13,0,.26,0,.38Zm-.81-14.61A29.88,29.88,0,0,0,57.2,26.9a2.28,2.28,0,0,1,0-.26,16.27,16.27,0,0,1,15-14.75h.09a1.07,1.07,0,0,1,1,1.17Z"/><path class="cls-3" d="M15.43,52.2h-.07c0-.39,0-.77,0-1.16C15.39,51.43,15.4,51.82,15.43,52.2Z"/><path class="cls-3" d="M74.77,53.93V54h0A.15.15,0,0,0,74.77,53.93Z"/><path class="cls-3" d="M62,67l-.09.15-.16,0A2.2,2.2,0,0,1,62,67Z"/><path class="cls-3" d="M70.12,58.78A10.69,10.69,0,0,1,69,60.32c.29-.53.58-1.07.85-1.62Z"/><path class="cls-3" d="M71.54,55.11c-.06.29-.13.58-.22.87,0,.13-.07.26-.11.38L71,56.29a.75.75,0,0,0,.06-.13l.11-.24C71.28,55.62,71.41,55.35,71.54,55.11Z"/><path class="cls-6" d="M53.32,70.47c0,.3,0,.61-.07.91a7.17,7.17,0,0,1-2.75,5.14,7.55,7.55,0,0,1-5,1.42,6.85,6.85,0,0,1-3.33-1.17,8.4,8.4,0,0,1-3-4,14.8,14.8,0,0,1-.44-6.28c0-.28.08-.55.13-.8a1.21,1.21,0,0,0,0-.18,3,3,0,0,1,2.68-2.23,2.73,2.73,0,0,1,2.86,1.5,8.82,8.82,0,0,1,.07,3v4.47A1.51,1.51,0,0,0,46,73.79h0a1.51,1.51,0,0,0,1.51-1.5c0-1.91,0-3.81,0-5.72,0-.3,0-.6,0-.9a2.74,2.74,0,0,1,.1-.9,2.5,2.5,0,0,1,2.26-1.42,3.26,3.26,0,0,1,3.33,2.17A6.2,6.2,0,0,1,53.33,67C53.33,68.16,53.38,69.32,53.32,70.47Z"/><path class="cls-1" d="M69,60.32l0,.07a11.16,11.16,0,0,1-1.88,1.7,8.31,8.31,0,0,1-.72.49l-.44.25a3.13,3.13,0,0,1-.48.25,4.37,4.37,0,0,1-.49.23c-.21.09-.42.18-.64.25l-.29.1a1.21,1.21,0,0,1-.25.08l-.37.1-.52.13c-.34.07-.7.13-1.05.17l-.6,0H60.05l-.55,0c-5.52-.6-11.63-5.46-12.17-11a4,4,0,0,1,0-.49H50a2.4,2.4,0,0,0,1.85-.87,2.38,2.38,0,0,0,.49-2,6.9,6.9,0,0,0-13.54,0,2.39,2.39,0,0,0,2.34,2.86h3c0,.1,0,.38,0,.38a12,12,0,0,1-12,11.13h-.65a14.46,14.46,0,0,1-10.27-4.93l.06,0,2.33-1.08.12,0a19.12,19.12,0,0,0,7.18-5.45h0c.86-1,1.66-2,2.46-3h0l.41-.51L35,47.67A11.41,11.41,0,0,1,44.06,43c.51,0,1-.07,1.59-.07h0a19.53,19.53,0,0,1,2.09.13,14,14,0,0,1,9,4.73c.51.52,1,1.08,1.47,1.64s.86,1,1.28,1.53c.74.9,1.49,1.81,2.29,2.69a16.8,16.8,0,0,0,6,4.46l2,.6.28.08A10.69,10.69,0,0,1,69,60.32Z"/><circle class="cls-3" cx="54.24" cy="58.22" r="1.44"/><circle class="cls-3" cx="60.68" cy="59.42" r="1.44"/><circle class="cls-3" cx="57.55" cy="54.17" r="1.44"/><circle class="cls-3" cx="37.52" cy="58.22" r="1.44"/><circle class="cls-3" cx="31.07" cy="59.42" r="1.44"/><circle class="cls-3" cx="34.21" cy="54.17" r="1.44"/></svg>