<svg width="256" height="256" viewBox="0 0 256 256" fill="none" xmlns="http://www.w3.org/2000/svg">
<rect width="256" height="256" fill="#344AFB"/>
<g filter="url(#filter0_d_24_59)">
<path d="M55.4563 164V60.8H84.8563V109.625C85.4063 108.325 86.5563 107 88.3063 105.65C90.1063 104.25 92.4063 103.075 95.2063 102.125C98.0063 101.125 101.156 100.625 104.656 100.625C110.806 100.625 116.056 102.175 120.406 105.275C124.806 108.375 128.156 112.4 130.456 117.35C132.756 122.3 133.906 127.6 133.906 133.25C133.906 138.9 132.756 144.2 130.456 149.15C128.156 154.1 124.806 158.125 120.406 161.225C116.056 164.275 110.806 165.8 104.656 165.8C102.006 165.8 99.3813 165.35 96.7813 164.45C94.2313 163.55 91.9063 162.325 89.8063 160.775C87.7063 159.175 85.9813 157.375 84.6313 155.375V164H55.4563ZM105.031 133.25C105.031 131.55 104.606 129.95 103.756 128.45C102.906 126.95 101.706 125.75 100.156 124.85C98.6563 123.9 96.9063 123.425 94.9063 123.425C92.9063 123.425 91.1563 123.9 89.6563 124.85C88.1563 125.75 86.9813 126.95 86.1313 128.45C85.2813 129.95 84.8563 131.55 84.8563 133.25C84.8563 134.95 85.2813 136.55 86.1313 138.05C86.9813 139.55 88.1563 140.75 89.6563 141.65C91.1563 142.55 92.9063 143 94.9063 143C96.9063 143 98.6563 142.55 100.156 141.65C101.706 140.75 102.906 139.55 103.756 138.05C104.606 136.55 105.031 134.95 105.031 133.25ZM173.961 100.625C178.511 100.625 182.661 100.975 186.411 101.675C190.161 102.375 193.261 103.15 195.711 104C198.161 104.8 199.661 105.4 200.211 105.8L191.211 122.825C190.311 122.225 188.586 121.4 186.036 120.35C183.486 119.3 180.661 118.775 177.561 118.775C175.861 118.775 174.461 118.925 173.361 119.225C172.261 119.475 171.711 120 171.711 120.8C171.711 121.6 172.386 122.275 173.736 122.825C175.086 123.325 177.211 123.8 180.111 124.25C182.861 124.75 185.811 125.65 188.961 126.95C192.161 128.2 194.886 130.125 197.136 132.725C199.386 135.325 200.511 138.825 200.511 143.225C200.511 148.025 199.436 151.925 197.286 154.925C195.186 157.875 192.436 160.15 189.036 161.75C185.686 163.3 182.086 164.35 178.236 164.9C174.386 165.5 170.761 165.8 167.361 165.8C162.061 165.8 157.511 165.35 153.711 164.45C149.961 163.55 146.986 162.55 144.786 161.45C142.586 160.35 141.111 159.525 140.361 158.975L149.136 140C150.436 141 152.536 142.175 155.436 143.525C158.386 144.875 161.361 145.55 164.361 145.55C166.861 145.55 168.686 145.375 169.836 145.025C170.986 144.625 171.561 144.075 171.561 143.375C171.561 142.825 171.286 142.35 170.736 141.95C170.186 141.55 169.311 141.175 168.111 140.825C166.911 140.475 165.336 140.125 163.386 139.775C161.636 139.425 159.636 138.85 157.386 138.05C155.186 137.25 153.036 136.1 150.936 134.6C148.886 133.1 147.186 131.15 145.836 128.75C144.486 126.35 143.811 123.425 143.811 119.975C143.811 115.525 145.261 111.875 148.161 109.025C151.061 106.175 154.811 104.075 159.411 102.725C164.011 101.325 168.861 100.625 173.961 100.625Z" fill="white"/>
</g>
<defs>
<filter id="filter0_d_24_59" x="51.4561" y="60.8" width="153.055" height="113" filterUnits="userSpaceOnUse" color-interpolation-filters="sRGB">
<feFlood flood-opacity="0" result="BackgroundImageFix"/>
<feColorMatrix in="SourceAlpha" type="matrix" values="0 0 0 0 0 0 0 0 0 0 0 0 0 0 0 0 0 0 127 0" result="hardAlpha"/>
<feOffset dy="4"/>
<feGaussianBlur stdDeviation="2"/>
<feComposite in2="hardAlpha" operator="out"/>
<feColorMatrix type="matrix" values="0 0 0 0 0 0 0 0 0 0 0 0 0 0 0 0 0 0 0.25 0"/>
<feBlend mode="normal" in2="BackgroundImageFix" result="effect1_dropShadow_24_59"/>
<feBlend mode="normal" in="SourceGraphic" in2="effect1_dropShadow_24_59" result="shape"/>
</filter>
</defs>
</svg>
