<?xml version="1.0" encoding="UTF-8" standalone="no"?>
<!DOCTYPE svg PUBLIC "-//W3C//DTD SVG 1.1//EN" "http://www.w3.org/Graphics/SVG/1.1/DTD/svg11.dtd">
<svg width="100%" height="100%" viewBox="0 0 24 24" version="1.1" xmlns="http://www.w3.org/2000/svg" xmlns:xlink="http://www.w3.org/1999/xlink" xml:space="preserve" xmlns:serif="http://www.serif.com/" style="fill-rule:evenodd;clip-rule:evenodd;stroke-linejoin:round;stroke-miterlimit:2;">
    <g transform="matrix(1,0,0,1,-26.7688,-0.118677)">
        <g id="Gem-Co-Outline-3" serif:id="Gem Co Outline 3" transform="matrix(0.13395,0,0,0.149263,1.3041,-24.883)">
            <rect x="190.107" y="167.501" width="179.172" height="160.79" style="fill:none;"/>
            <clipPath id="_clip1">
                <rect x="190.107" y="167.501" width="179.172" height="160.79"/>
            </clipPath>
            <g clip-path="url(#_clip1)">
                <g transform="matrix(7.4655,0,0,6.69957,-9.73573,166.706)">
                    <path d="M38.782,0.164C45.397,0.164 50.769,5.535 50.769,12.151C50.769,18.767 45.397,24.138 38.782,24.138C32.166,24.138 26.794,18.767 26.794,12.151C26.794,5.535 32.166,0.164 38.782,0.164ZM28.23,9.797C28.066,10.545 27.98,11.322 27.98,12.119C27.98,12.993 28.084,13.843 28.28,14.657C29.008,14.779 29.683,14.934 30.315,15.139C30.721,14.222 30.923,13.318 30.923,12.104C30.923,10.913 30.755,10.068 30.416,9.253C29.739,9.484 29.013,9.658 28.23,9.797ZM28.475,15.358C28.668,15.972 28.915,16.563 29.209,17.124C29.522,16.627 29.793,16.178 30.02,15.747C29.559,15.607 29.055,15.488 28.475,15.358ZM29.613,17.828C30.493,19.238 31.69,20.431 33.103,21.307C33.697,20.885 34.277,20.52 34.862,20.221C34.501,19.298 34.006,18.523 33.156,17.673C32.293,16.81 31.562,16.328 30.72,15.99C30.416,16.602 30.044,17.208 29.613,17.828ZM33.732,21.668C34.29,21.964 34.878,22.213 35.488,22.408C35.357,21.834 35.23,21.325 35.085,20.859C34.665,21.084 34.228,21.354 33.732,21.668ZM36.274,22.627C37.078,22.819 37.918,22.92 38.782,22.92C39.614,22.92 40.425,22.826 41.204,22.647C41.327,21.914 41.483,21.234 41.691,20.597C40.78,20.197 39.88,19.998 38.675,19.998C37.448,19.998 36.589,20.176 35.751,20.536C35.971,21.186 36.138,21.88 36.274,22.627ZM41.903,22.462C42.534,22.271 43.142,22.024 43.719,21.727C43.204,21.403 42.742,21.124 42.299,20.891C42.156,21.359 42.035,21.871 41.903,22.462ZM44.426,21.328C45.86,20.446 47.073,19.239 47.962,17.81C47.531,17.21 47.159,16.625 46.853,16.035C45.891,16.399 45.095,16.897 44.219,17.773C43.362,18.631 42.881,19.358 42.544,20.193C43.17,20.503 43.79,20.884 44.426,21.328ZM48.321,17.187C48.621,16.624 48.872,16.032 49.07,15.415C48.485,15.547 47.968,15.674 47.495,15.818C47.725,16.241 48.001,16.683 48.321,17.187ZM49.288,14.636C49.481,13.828 49.583,12.985 49.583,12.119C49.583,11.277 49.487,10.457 49.304,9.67C48.545,9.548 47.841,9.393 47.185,9.184C46.795,10.083 46.6,10.975 46.6,12.166C46.6,13.422 46.787,14.293 47.165,15.151C47.824,14.934 48.529,14.769 49.288,14.636ZM49.119,8.979C48.92,8.323 48.66,7.693 48.345,7.097C48.006,7.634 47.717,8.113 47.477,8.574C47.963,8.718 48.499,8.842 49.119,8.979ZM47.943,6.396C46.959,4.826 45.582,3.526 43.951,2.634L44.498,2.965C43.858,3.429 43.235,3.828 42.607,4.151C42.965,5.045 43.457,5.802 44.285,6.631C45.167,7.513 45.911,7.996 46.776,8.335C47.093,7.69 47.485,7.052 47.943,6.396ZM43.892,2.602C43.271,2.268 42.614,1.992 41.928,1.783C42.075,2.434 42.215,3 42.38,3.515C42.844,3.265 43.329,2.961 43.892,2.602ZM41.151,1.578C40.388,1.407 39.595,1.317 38.782,1.317C37.765,1.317 36.781,1.458 35.848,1.721L36.293,1.611C36.168,2.399 36.008,3.127 35.789,3.804C36.688,4.194 37.579,4.388 38.769,4.388C40.006,4.388 40.87,4.206 41.716,3.84C41.473,3.141 41.294,2.391 41.151,1.578ZM35.606,1.792C34.923,2.002 34.269,2.278 33.652,2.612C34.209,2.965 34.705,3.265 35.18,3.513C35.332,3.006 35.461,2.446 35.606,1.792ZM32.962,3.019C31.589,3.9 30.427,5.083 29.572,6.474C30.029,7.112 30.42,7.733 30.735,8.361C31.643,8.001 32.409,7.508 33.248,6.669C34.118,5.799 34.6,5.063 34.938,4.212C34.281,3.889 33.63,3.488 32.962,3.019ZM29.215,7.102C28.895,7.709 28.632,8.351 28.432,9.019C29.055,8.878 29.602,8.742 30.1,8.585C29.858,8.127 29.563,7.651 29.215,7.102ZM31.036,9.018C31.436,9.988 31.653,10.991 31.657,12.104C31.662,13.295 31.427,14.358 30.996,15.387C31.989,15.792 32.87,16.354 33.676,17.154C34.513,17.985 35.096,18.894 35.518,19.915C36.51,19.496 37.534,19.268 38.675,19.264C39.859,19.259 40.917,19.491 41.94,19.917C42.345,18.932 42.904,18.056 43.7,17.254C44.553,16.395 45.487,15.803 46.541,15.379C46.107,14.369 45.87,13.328 45.866,12.166C45.862,10.997 46.088,9.951 46.504,8.94C45.488,8.533 44.588,7.966 43.766,7.15C42.948,6.338 42.372,5.452 41.953,4.459C40.952,4.886 39.92,5.118 38.769,5.122C37.6,5.126 36.554,4.901 35.543,4.485C35.137,5.487 34.573,6.376 33.767,7.188C32.943,8.017 32.045,8.597 31.036,9.018Z"/>
                </g>
            </g>
        </g>
    </g>
</svg>
