<svg width="23" height="32" viewBox="0 0 23 32" fill="none" xmlns="http://www.w3.org/2000/svg">
<path d="M21.7555 28.9526L14.4215 17.764V12.1339H15.3547C15.6074 12.1339 15.8263 12.0444 16.0107 11.8657C16.1956 11.6871 16.2879 11.4754 16.2879 11.2308C16.2879 10.9862 16.1956 10.7746 16.0107 10.5959C15.8264 10.4172 15.6074 10.3279 15.3547 10.3279H7.89002C7.63715 10.3279 7.41848 10.4172 7.23383 10.5959C7.04912 10.7746 6.95685 10.9863 6.95685 11.2308C6.95685 11.4754 7.04912 11.6871 7.23383 11.8657C7.41863 12.0444 7.63735 12.134 7.89002 12.134H8.82305V17.7638L1.48947 28.9525C0.945315 29.7899 0.840783 30.5074 1.17613 31.1044C1.51148 31.7017 2.19434 32.0004 3.22454 32.0004H20.0207C21.0507 32.0004 21.7334 31.7017 22.0686 31.1044C22.4042 30.5074 22.2997 29.7901 21.7555 28.9526ZM6.43209 24.7761L10.3978 18.7231L10.6893 18.2856V17.7636V12.1338H12.5553V17.7636V18.2856L12.8468 18.7231L16.8127 24.7761H6.43209Z" fill="#3971FF"/>
<path d="M8.6911 6.15306C8.6911 5.23241 7.91903 4.48608 6.96664 4.48608C6.01425 4.48608 5.24219 5.23241 5.24219 6.15306V6.15687C5.24219 7.07752 6.01425 7.82385 6.96664 7.82385C7.91903 7.82385 8.6911 7.07752 8.6911 6.15687V6.15306Z" fill="#3971FF"/>
<path d="M17.3161 6.15306C17.3161 5.23241 16.544 4.48608 15.5916 4.48608C14.6393 4.48608 13.8672 5.23241 13.8672 6.15306V6.15687C13.8672 7.07752 14.6393 7.82385 15.5916 7.82385C16.544 7.82385 17.3161 7.07752 17.3161 6.15687V6.15306Z" fill="#3971FF"/>
<path d="M13.0088 1.56444C13.0088 0.873957 12.4298 0.314209 11.7155 0.314209C11.0012 0.314209 10.4221 0.873957 10.4221 1.56444V1.5673C10.4221 2.25778 11.0012 2.81753 11.7155 2.81753C12.4298 2.81753 13.0088 2.25778 13.0088 1.5673V1.56444Z" fill="#3971FF"/>
</svg>
