<?xml version="1.0" encoding="UTF-8"?>
<svg width="78px" height="78px" viewBox="0 0 78 78" version="1.1" xmlns="http://www.w3.org/2000/svg" xmlns:xlink="http://www.w3.org/1999/xlink">
    <title>Group 3</title>
    <defs>
        <linearGradient x1="10.4929716%" y1="0%" x2="92.2525491%" y2="100%" id="linearGradient-1">
            <stop stop-color="#0093ED" offset="0%"></stop>
            <stop stop-color="#00F3AB" offset="100%"></stop>
        </linearGradient>
        <linearGradient x1="55.835705%" y1="92.5603766%" x2="35.7064518%" y2="0%" id="linearGradient-2">
            <stop stop-color="#000A17" offset="0%"></stop>
            <stop stop-color="#00554F" offset="100%"></stop>
        </linearGradient>
        <linearGradient x1="55.8372619%" y1="92.5603766%" x2="35.7026384%" y2="0%" id="linearGradient-3">
            <stop stop-color="#000A17" offset="0%"></stop>
            <stop stop-color="#00554F" offset="100%"></stop>
        </linearGradient>
        <linearGradient x1="58.1003506%" y1="92.5603766%" x2="30.1595949%" y2="0%" id="linearGradient-4">
            <stop stop-color="#000A17" offset="0%"></stop>
            <stop stop-color="#00554F" offset="100%"></stop>
        </linearGradient>
        <linearGradient x1="58.0917148%" y1="92.5603766%" x2="30.1807467%" y2="0%" id="linearGradient-5">
            <stop stop-color="#000A17" offset="0%"></stop>
            <stop stop-color="#00554F" offset="100%"></stop>
        </linearGradient>
        <linearGradient x1="64.6940493%" y1="92.5603766%" x2="14.0094722%" y2="0%" id="linearGradient-6">
            <stop stop-color="#000A17" offset="0%"></stop>
            <stop stop-color="#00554F" offset="100%"></stop>
        </linearGradient>
        <linearGradient x1="64.6979696%" y1="92.5603766%" x2="13.9998703%" y2="0%" id="linearGradient-7">
            <stop stop-color="#000A17" offset="0%"></stop>
            <stop stop-color="#00554F" offset="100%"></stop>
        </linearGradient>
        <linearGradient x1="65.9995755%" y1="92.5603766%" x2="10.8118122%" y2="0%" id="linearGradient-8">
            <stop stop-color="#000A17" offset="0%"></stop>
            <stop stop-color="#00554F" offset="100%"></stop>
        </linearGradient>
        <linearGradient x1="29.8433528%" y1="0%" x2="71.557423%" y2="100%" id="linearGradient-9">
            <stop stop-color="#0093ED" offset="0%"></stop>
            <stop stop-color="#00F3AB" offset="100%"></stop>
        </linearGradient>
    </defs>
    <g id="staker---staking-flow" stroke="none" stroke-width="1" fill="none" fill-rule="evenodd">
        <g id="copy-2-1" transform="translate(-299.000000, -152.000000)">
            <g id="Group-3" transform="translate(300.000000, 153.000000)">
                <g id="cosmos-logo-horizontal-dark">
                    <path d="M37.9999365,0 C58.9867462,0 76,17.0131586 76,37.9999365 C76,58.9867462 58.9867462,76 37.9999365,76 C17.0131586,76 0,58.9867462 0,37.9999365 C0,17.0131586 17.0131586,0 37.9999365,0 Z" id="Path" stroke-opacity="0.2" stroke="#00F3AB" fill="url(#linearGradient-1)"></path>
                    <g id="eth-crypto-cryptocurrency-cryptocurrencies-cash-money-bank-payment_95451" transform="translate(22.000000, 12.000000)" fill-rule="nonzero">
                        <g id="Group">
                            <polygon id="Path" fill="url(#linearGradient-2)" points="15.9957333 0 15.9957333 19.222338 31.9893333 26.4821838"></polygon>
                            <polygon id="Path" fill="url(#linearGradient-3)" points="15.9957333 0 0 26.4821838 15.9957333 19.222338"></polygon>
                            <polygon id="Path" fill="url(#linearGradient-4)" points="15.9957333 38.9387789 15.9957333 52 32 29.5074807"></polygon>
                            <polygon id="Path" fill="url(#linearGradient-5)" points="15.9957333 52 15.9957333 38.9366118 0 29.5074807"></polygon>
                            <polygon id="Path" fill="url(#linearGradient-6)" points="15.9957333 35.9156491 31.9893333 26.4821838 15.9957333 19.2266722"></polygon>
                            <polygon id="Path" fill="url(#linearGradient-7)" points="0 26.4821838 15.9957333 35.9156491 15.9957333 19.2266722"></polygon>
                        </g>
                    </g>
                </g>
                <g id="Group-12" transform="translate(7.000000, 10.000000)">
                    <circle id="Combined-Shape-Copy-5" fill="url(#linearGradient-8)" cx="6.5" cy="6.5" r="6.5"></circle>
                    <path d="M5.76537585,4.68486739 L5.76537585,3 L4,3 L4,10 L5.76537585,10 L5.76537585,7.69266771 C5.76537585,6.49453978 7.42824601,5.14664587 8.80637813,5.14664587 L9,5.14664587 L9,3.21216849 L8.80637813,3.21216849 C7.59908884,3.21216849 6.31207289,3.71138846 5.76537585,4.68486739 Z" id="Path" fill="url(#linearGradient-9)"></path>
                </g>
            </g>
        </g>
    </g>
</svg>