<?xml version="1.0" encoding="UTF-8"?>
<!DOCTYPE svg PUBLIC "-//W3C//DTD SVG 1.1//EN" "http://www.w3.org/Graphics/SVG/1.1/DTD/svg11.dtd">
<svg xmlns="http://www.w3.org/2000/svg" version="1.1" width="256px" height="256px" style="shape-rendering:geometricPrecision; text-rendering:geometricPrecision; image-rendering:optimizeQuality; fill-rule:evenodd; clip-rule:evenodd" xmlns:xlink="http://www.w3.org/1999/xlink">
<g><path style="opacity:1" fill="#50becb" d="M 135.5,98.5 C 137.587,99.5846 138.92,101.251 139.5,103.5C 118.204,120.866 96.8702,137.532 75.5,153.5C 81.5307,145.809 87.5307,138.142 93.5,130.5C 93.369,131.239 93.5357,131.906 94,132.5C 94.972,130.695 96.1387,129.028 97.5,127.5C 96.7176,125.671 97.3843,124.171 99.5,123C 110.94,114.528 122.106,105.695 133,96.5C 133.915,97.3279 134.581,98.3279 135,99.5C 135.399,99.2716 135.565,98.9382 135.5,98.5 Z"/></g>
<g><path style="opacity:0.569" fill="#4f6fb8" d="M 142.5,65.5 C 159.513,65.1672 176.513,65.5005 193.5,66.5C 196.547,69.5448 199.213,72.8781 201.5,76.5C 190.516,90.8142 179.182,104.814 167.5,118.5C 156.5,104.5 145.5,90.5 134.5,76.5C 137.191,72.8151 139.858,69.1484 142.5,65.5 Z"/></g>
<g><path style="opacity:1" fill="#4dc4cd" d="M 142.5,67.5 C 159.17,67.3334 175.837,67.5001 192.5,68C 195.192,70.5572 197.525,73.3905 199.5,76.5C 189.191,89.9769 178.691,103.31 168,116.5C 157.667,103.5 147.333,90.5 137,77.5C 138.071,73.883 139.904,70.5497 142.5,67.5 Z"/></g>
<g><path style="opacity:1" fill="#53b8c9" d="M 139.5,103.5 C 141.167,104.5 142.5,105.833 143.5,107.5C 117.459,129.062 90.9587,149.729 64,169.5C 63.6012,169.272 63.4346,168.938 63.5,168.5C 67.5303,163.476 71.5303,158.476 75.5,153.5C 96.8702,137.532 118.204,120.866 139.5,103.5 Z"/></g>
<g><path style="opacity:1" fill="#56b4c7" d="M 143.5,107.5 C 145.252,109.246 146.585,111.246 147.5,113.5C 146.206,112.71 145.039,111.71 144,110.5C 122.147,128.683 99.9802,146.516 77.5,164C 71.4201,168.754 65.0868,173.087 58.5,177C 57.5868,178.414 57.5868,179.914 58.5,181.5C 57.1882,180.855 56.1882,179.855 55.5,178.5C 57.8407,174.835 60.5074,171.501 63.5,168.5C 63.4346,168.938 63.6012,169.272 64,169.5C 90.9587,149.729 117.459,129.062 143.5,107.5 Z"/></g>
<g><path style="opacity:1" fill="#59b0c6" d="M 147.5,113.5 C 149.587,114.585 150.92,116.251 151.5,118.5C 151.167,118.5 150.833,118.5 150.5,118.5C 149.438,116.243 147.772,115.077 145.5,115C 116.998,137.34 88.665,159.84 60.5,182.5C 61.8569,184.186 63.1902,185.852 64.5,187.5C 64.1667,187.5 63.8333,187.5 63.5,187.5C 61.086,186.089 59.4194,184.089 58.5,181.5C 57.5868,179.914 57.5868,178.414 58.5,177C 65.0868,173.087 71.4201,168.754 77.5,164C 99.9802,146.516 122.147,128.683 144,110.5C 145.039,111.71 146.206,112.71 147.5,113.5 Z"/></g>
<g><path style="opacity:1" fill="#5aabc4" d="M 150.5,118.5 C 122.519,140.81 94.5189,163.143 66.5,185.5C 67.9492,186.172 69.2825,186.839 70.5,187.5C 68.5,187.5 66.5,187.5 64.5,187.5C 63.1902,185.852 61.8569,184.186 60.5,182.5C 88.665,159.84 116.998,137.34 145.5,115C 147.772,115.077 149.438,116.243 150.5,118.5 Z"/></g>
<g><path style="opacity:1" fill="#5ca5c2" d="M 150.5,118.5 C 150.833,118.5 151.167,118.5 151.5,118.5C 153.543,119.579 154.876,121.246 155.5,123.5C 139.077,134.673 123.077,147.173 107.5,161C 96.7111,168.626 86.3777,176.793 76.5,185.5C 77.2427,186.182 77.9094,186.849 78.5,187.5C 75.8333,187.5 73.1667,187.5 70.5,187.5C 69.2825,186.839 67.9492,186.172 66.5,185.5C 94.5189,163.143 122.519,140.81 150.5,118.5 Z"/></g>
<g><path style="opacity:1" fill="#5f9fbf" d="M 155.5,123.5 C 157.633,125.091 159.299,127.091 160.5,129.5C 160.565,129.938 160.399,130.272 160,130.5C 159,129.5 158,128.5 157,127.5C 132.782,147.026 108.282,166.193 83.5,185C 84.5707,185.852 85.5707,186.685 86.5,187.5C 83.8333,187.5 81.1667,187.5 78.5,187.5C 77.9094,186.849 77.2427,186.182 76.5,185.5C 86.3777,176.793 96.7111,168.626 107.5,161C 123.077,147.173 139.077,134.673 155.5,123.5 Z"/></g>
<g><path style="opacity:1" fill="#6199bc" d="M 160.5,129.5 C 161.906,129.973 162.573,130.973 162.5,132.5C 160.692,132.491 159.025,132.991 157.5,134C 136.348,151.074 115.015,167.908 93.5,184.5C 92.6143,185.325 92.281,186.325 92.5,187.5C 90.5,187.5 88.5,187.5 86.5,187.5C 85.5707,186.685 84.5707,185.852 83.5,185C 108.282,166.193 132.782,147.026 157,127.5C 158,128.5 159,129.5 160,130.5C 160.399,130.272 160.565,129.938 160.5,129.5 Z"/></g>
<g><path style="opacity:1" fill="#6392ba" d="M 162.5,132.5 C 163.5,132.833 164.167,133.5 164.5,134.5C 143.807,151.524 122.807,168.19 101.5,184.5C 100.614,185.325 100.281,186.325 100.5,187.5C 97.8333,187.5 95.1667,187.5 92.5,187.5C 92.281,186.325 92.6143,185.325 93.5,184.5C 115.015,167.908 136.348,151.074 157.5,134C 159.025,132.991 160.692,132.491 162.5,132.5 Z"/></g>
<g><path style="opacity:1" fill="#658bb7" d="M 164.5,134.5 C 165.728,135.306 166.728,136.306 167.5,137.5C 167.5,137.833 167.5,138.167 167.5,138.5C 154.733,148.087 142.067,157.921 129.5,168C 130.252,168.671 130.586,169.504 130.5,170.5C 129.399,169.2 128.066,168.7 126.5,169C 121.833,175 117.167,181 112.5,187C 108.514,187.499 104.514,187.666 100.5,187.5C 100.281,186.325 100.614,185.325 101.5,184.5C 122.807,168.19 143.807,151.524 164.5,134.5 Z"/></g>
<g><path style="opacity:1" fill="#6686b5" d="M 167.5,138.5 C 168.974,139.436 169.974,140.77 170.5,142.5C 158.456,151.455 146.122,160.789 133.5,170.5C 132.614,171.325 132.281,172.325 132.5,173.5C 131.094,173.027 130.427,172.027 130.5,170.5C 130.586,169.504 130.252,168.671 129.5,168C 142.067,157.921 154.733,148.087 167.5,138.5 Z"/></g>
<g><path style="opacity:1" fill="#687fb2" d="M 170.5,142.5 C 172.262,143.262 173.262,144.596 173.5,146.5C 160.754,156.721 147.754,166.721 134.5,176.5C 133.833,175.5 133.167,174.5 132.5,173.5C 132.281,172.325 132.614,171.325 133.5,170.5C 146.122,160.789 158.456,151.455 170.5,142.5 Z"/></g>
<g><path style="opacity:0.61" fill="#4e6fb8" d="M 168.5,137.5 C 168.167,137.5 167.833,137.5 167.5,137.5C 166.728,136.306 165.728,135.306 164.5,134.5C 164.167,133.5 163.5,132.833 162.5,132.5C 162.573,130.973 161.906,129.973 160.5,129.5C 159.299,127.091 157.633,125.091 155.5,123.5C 154.876,121.246 153.543,119.579 151.5,118.5C 150.92,116.251 149.587,114.585 147.5,113.5C 146.585,111.246 145.252,109.246 143.5,107.5C 142.5,105.833 141.167,104.5 139.5,103.5C 138.92,101.251 137.587,99.5846 135.5,98.5C 128.216,88.1241 120.549,77.9575 112.5,68C 95.8333,67.3333 79.1667,67.3333 62.5,68C 59.8084,70.5572 57.475,73.3905 55.5,76.5C 68.4762,93.3104 81.6429,109.977 95,126.5C 95.2997,128.066 94.7997,129.399 93.5,130.5C 87.5307,138.142 81.5307,145.809 75.5,153.5C 71.5303,158.476 67.5303,163.476 63.5,168.5C 60.5074,171.501 57.8407,174.835 55.5,178.5C 56.1882,179.855 57.1882,180.855 58.5,181.5C 59.4194,184.089 61.086,186.089 63.5,187.5C 77.5,188.167 91.5,188.833 105.5,189.5C 90.8182,189.833 76.1515,189.499 61.5,188.5C 58.6512,185.485 55.9845,182.318 53.5,179C 66.6282,161.701 79.9616,144.535 93.5,127.5C 80.5238,110.69 67.3571,94.0229 54,77.5C 55.5096,72.9478 58.3429,69.1145 62.5,66C 79.1667,65.3333 95.8333,65.3333 112.5,66C 131.763,89.422 150.429,113.255 168.5,137.5 Z"/></g>
<g><path style="opacity:1" fill="#4ec4cd" d="M 135.5,98.5 C 135.565,98.9382 135.399,99.2716 135,99.5C 134.581,98.3279 133.915,97.3279 133,96.5C 122.106,105.695 110.94,114.528 99.5,123C 97.3843,124.171 96.7176,125.671 97.5,127.5C 96.1387,129.028 94.972,130.695 94,132.5C 93.5357,131.906 93.369,131.239 93.5,130.5C 94.7997,129.399 95.2997,128.066 95,126.5C 81.6429,109.977 68.4762,93.3104 55.5,76.5C 57.475,73.3905 59.8084,70.5572 62.5,68C 79.1667,67.3333 95.8333,67.3333 112.5,68C 120.549,77.9575 128.216,88.1241 135.5,98.5 Z"/></g>
<g><path style="opacity:1" fill="#6c6eac" d="M 176.5,150.5 C 178.5,151.833 180.167,153.5 181.5,155.5C 168.682,166.074 155.682,176.407 142.5,186.5C 140.863,184.525 139.196,182.525 137.5,180.5C 151.74,171.904 164.74,161.904 176.5,150.5 Z"/></g>
<g><path style="opacity:1" fill="#6d67a9" d="M 181.5,155.5 C 182.5,156.833 183.5,158.167 184.5,159.5C 172.417,169.559 160.084,178.892 147.5,187.5C 145.585,187.784 143.919,187.451 142.5,186.5C 155.682,176.407 168.682,166.074 181.5,155.5 Z"/></g>
<g><path style="opacity:1" fill="#6f5ca5" d="M 184.5,159.5 C 185.833,161.167 187.167,162.833 188.5,164.5C 179.224,173.135 169.224,180.802 158.5,187.5C 154.833,187.5 151.167,187.5 147.5,187.5C 160.084,178.892 172.417,169.559 184.5,159.5 Z"/></g>
<g><path style="opacity:1" fill="#714fa0" d="M 188.5,164.5 C 192.143,169.148 195.81,173.815 199.5,178.5C 197.733,181.77 195.4,184.603 192.5,187C 181.172,187.5 169.838,187.667 158.5,187.5C 169.224,180.802 179.224,173.135 188.5,164.5 Z"/></g>
<g><path style="opacity:1" fill="#6a77af" d="M 173.5,146.5 C 175.262,147.262 176.262,148.596 176.5,150.5C 164.74,161.904 151.74,171.904 137.5,180.5C 136.5,179.167 135.5,177.833 134.5,176.5C 147.754,166.721 160.754,156.721 173.5,146.5 Z"/></g>
<g><path style="opacity:0.602" fill="#4f74b9" d="M 167.5,138.5 C 167.5,138.167 167.5,137.833 167.5,137.5C 167.833,137.5 168.167,137.5 168.5,137.5C 179.469,150.645 190.303,163.978 201,177.5C 201.749,178.635 201.583,179.635 200.5,180.5C 198.167,183.167 195.833,185.833 193.5,188.5C 176.51,189.666 159.51,189.833 142.5,189C 137.62,182.742 132.62,176.575 127.5,170.5C 122.38,176.575 117.38,182.742 112.5,189C 110.19,189.497 107.857,189.663 105.5,189.5C 91.5,188.833 77.5,188.167 63.5,187.5C 63.8333,187.5 64.1667,187.5 64.5,187.5C 66.5,187.5 68.5,187.5 70.5,187.5C 73.1667,187.5 75.8333,187.5 78.5,187.5C 81.1667,187.5 83.8333,187.5 86.5,187.5C 88.5,187.5 90.5,187.5 92.5,187.5C 95.1667,187.5 97.8333,187.5 100.5,187.5C 104.514,187.666 108.514,187.499 112.5,187C 117.167,181 121.833,175 126.5,169C 128.066,168.7 129.399,169.2 130.5,170.5C 130.427,172.027 131.094,173.027 132.5,173.5C 133.167,174.5 133.833,175.5 134.5,176.5C 135.5,177.833 136.5,179.167 137.5,180.5C 139.196,182.525 140.863,184.525 142.5,186.5C 143.919,187.451 145.585,187.784 147.5,187.5C 151.167,187.5 154.833,187.5 158.5,187.5C 169.838,187.667 181.172,187.5 192.5,187C 195.4,184.603 197.733,181.77 199.5,178.5C 195.81,173.815 192.143,169.148 188.5,164.5C 187.167,162.833 185.833,161.167 184.5,159.5C 183.5,158.167 182.5,156.833 181.5,155.5C 180.167,153.5 178.5,151.833 176.5,150.5C 176.262,148.596 175.262,147.262 173.5,146.5C 173.262,144.596 172.262,143.262 170.5,142.5C 169.974,140.77 168.974,139.436 167.5,138.5 Z"/></g>
</svg>
