<svg width="256px" height="256px" viewBox="0 0 252 252" version="1.1" xmlns="http://www.w3.org/2000/svg" xmlns:xlink="http://www.w3.org/1999/xlink">
    <g id="Page-1" stroke="none" stroke-width="1" fill="none" fill-rule="evenodd">
        <g id="FOX-Token-svg" fill-rule="nonzero">
            <circle id="Oval" fill="#3972FA" cx="126" cy="126" r="125.866667"></circle>
            <path d="M181.04,73.9432533 L175.066667,111.48992 L152.88,85.04512 L181.04,73.9432533 Z M175.066667,127.711787 L180.186667,148.183253 L137.52,160.138453 L175.066667,127.711787 Z M82.9066667,117.471787 L105.946667,87.60512 L145.2,87.60512 L170.8,117.471787 L82.9066667,117.471787 Z M167.386667,124.28992 L126.426667,160.138453 L84.6133333,124.28992 L167.386667,124.28992 Z M98.2666667,85.04512 L77.7866667,111.48992 L71.8133333,73.9432533 L98.2666667,85.04512 Z M114.48,159.276587 L71.8133333,147.338453 L77.7866667,127.711787 L114.48,159.276587 Z M122.16,169.516587 L114.48,178.04992 C107.653333,171.223253 99.9733333,166.111787 92.2933333,160.983253 L122.16,169.516587 Z M161.413333,160.983253 C153.733333,166.111787 146.053333,172.076587 139.226667,178.04992 L130.693333,168.671787 L161.413333,160.983253 Z M190.426667,62.00512 L146.053333,79.9165867 L104.24,79.9165867 L61.5733333,62.00512 L70.96,120.023253 L61.5733333,151.60512 L85.4666667,166.111787 C96.56,172.938453 106.8,181.471787 116.186667,191.711787 L125.573333,202.80512 L135.813333,191.711787 C144.346667,182.316587 154.586667,173.783253 164.826667,166.956587 L188.72,152.44992 L180.186667,120.876587 L190.426667,62.00512 Z" id="Fill-1" fill="#FFFFFF"></path>
        </g>
    </g>
</svg>
