<?xml version="1.0" encoding="UTF-8"?>
<svg width="30px" height="30px" viewBox="0 0 30 30" version="1.1" xmlns="http://www.w3.org/2000/svg" xmlns:xlink="http://www.w3.org/1999/xlink">
    <title>FOX</title>
    <g id="FOX" stroke="none" stroke-width="1" fill="none" fill-rule="evenodd">
        <g id="Group-3" transform="translate(0.250000, 0.250000)">
            <circle id="Oval" fill="#3972FA" cx="14.75" cy="14.75" r="14.75"></circle>
            <path d="M21.2,8.6496 L20.5,13.0496 L17.9,9.9506 L21.2,8.6496 Z M20.5,14.9506 L21.1,17.3496 L16.1,18.7506 L20.5,14.9506 Z M9.7,13.7506 L12.4,10.2506 L17,10.2506 L20,13.7506 L9.7,13.7506 Z M19.6,14.5496 L14.8,18.7506 L9.9,14.5496 L19.6,14.5496 Z M11.5,9.9506 L9.1,13.0496 L8.4,8.6496 L11.5,9.9506 Z M13.4,18.6496 L8.4,17.2506 L9.1,14.9506 L13.4,18.6496 Z M14.3,19.8496 L13.4,20.8496 C12.6,20.0496 11.7,19.4506 10.8,18.8496 L14.3,19.8496 Z M18.9,18.8496 C18,19.4506 17.1,20.1496 16.3,20.8496 L15.3,19.7506 L18.9,18.8496 Z M22.3,7.2506 L17.1,9.3496 L12.2,9.3496 L7.2,7.2506 L8.3,14.0496 L7.2,17.7506 L10,19.4506 C11.3,20.2506 12.5,21.2506 13.6,22.4506 L14.7,23.7506 L15.9,22.4506 C16.9,21.3496 18.1,20.3496 19.3,19.5496 L22.1,17.8496 L21.1,14.1496 L22.3,7.2506 Z" id="Fill-1" fill="#FFFFFF"></path>
        </g>
    </g>
</svg>