<svg width="98" height="118" viewBox="0 0 98 118" fill="none" xmlns="http://www.w3.org/2000/svg">
<g clip-path="url(#clip0_598_1361)">
<path d="M94.1735 47.6115C92.9861 46.5399 91.596 45.7869 90.1479 45.2946C90.2348 44.281 90.2928 43.2673 90.2928 42.2537C90.3217 19.2008 71.6129 0.520996 48.56 0.520996C25.5071 0.520996 6.82732 19.2008 6.82732 42.2537C6.82732 43.3832 6.9142 44.5127 7.00109 45.6421C5.87161 46.1055 4.77109 46.7426 3.81538 47.6115C-0.789407 51.7529 -1.13694 58.8194 2.97552 63.4241C15.197 77.0068 31.531 84.4787 48.9944 84.4787C66.4579 84.4787 82.7919 77.0068 95.0134 63.4241C99.1548 58.8194 98.7783 51.7529 94.1735 47.6115Z" fill="white"/>
<path d="M33.732 34.2025C36.1472 34.2025 38.1051 32.2446 38.1051 29.8294C38.1051 27.4142 36.1472 25.4563 33.732 25.4563C31.3168 25.4563 29.3589 27.4142 29.3589 29.8294C29.3589 32.2446 31.3168 34.2025 33.732 34.2025Z" fill="#3399FF"/>
<path d="M48.5889 58.3269C41.8121 58.3269 35.4407 55.4308 30.6911 50.131C29.0693 48.3354 29.2141 45.5841 31.0097 43.9913C32.8052 42.3695 35.5565 42.5432 37.1494 44.3099C40.2192 47.7272 44.3027 49.6097 48.5889 49.6097C52.8752 49.6097 56.9297 47.7272 60.0285 44.3099C61.6503 42.5143 64.4016 42.3695 66.1682 43.9913C67.9348 45.6131 68.1086 48.3644 66.4868 50.131C61.7372 55.4019 55.3658 58.3269 48.5889 58.3269Z" fill="#3399FF"/>
<path d="M67.79 29.8294C67.79 32.2446 65.8321 34.2025 63.4169 34.2025C61.0017 34.2025 59.0438 32.2446 59.0438 29.8294C59.0438 27.4142 61.0017 25.4563 63.4169 25.4563C65.8321 25.4563 67.79 27.4142 67.79 29.8294Z" fill="#3399FF"/>
</g>
<ellipse cx="48" cy="111" rx="30" ry="6.5" fill="black" fill-opacity="0.5"/>
<defs>
<clipPath id="clip0_598_1361">
<rect width="98" height="84" fill="white" transform="translate(0 0.5)"/>
</clipPath>
</defs>
</svg>
