<?xml version="1.0" encoding="utf-8"?><svg xmlns="http://www.w3.org/2000/svg" viewBox="0 0 1280 1280" style="enable-background:new 0 0 1280 1280" xml:space="preserve"><path d="M640 1280C286.5 1280 0 993.5 0 640S286.5 0 640 0s640 286.5 640 640-286.5 640-640 640z"/><linearGradient id="a" gradientUnits="userSpaceOnUse" x1="624.962" y1="1083.723" x2="624.962" y2="207.107"><stop offset=".09" style="stop-color:#d5d5d8"/><stop offset=".338" style="stop-color:#6358ff"/><stop offset=".572" style="stop-color:#0ff"/><stop offset=".715" style="stop-color:#0ff"/><stop offset="1" style="stop-color:#695dff"/></linearGradient><path d="m776.8 332.2 36.8-133.1c-70.1-19.3-144.1-19.9-214.5-1.6-70.4 18.3-134.7 54.8-186.6 105.8-51.8 51-89.4 114.8-108.8 184.8-19.4 70.1-20.1 144.1-1.9 214.5l-133.3 34.6c18.2 70.5 54.7 134.9 105.7 186.8 51 51.9 114.8 89.5 184.9 108.9 70.1 19.4 144.1 20.1 214.6 1.9 70.5-18.2 134.9-54.7 186.8-105.7l97 98.5c51.9-51.1 89.4-114.9 108.8-185.1s20-144.3 1.6-214.7c-18.3-70.5-54.9-134.9-106-186.8-51-52-114.9-89.5-185.1-108.8zm156 473.2c-12.8 46.6-37.6 88.9-72 122.8l-96.9-98.4c-34.5 34-77.4 58.3-124.3 70.5-46.9 12.2-96.2 11.8-143-1-46.7-12.9-89.3-37.8-123.3-72.3s-58.4-77.4-70.7-124.3l133.3-34.6c-12.2-46.9-11.8-96.3 1.1-143 12.9-46.8 37.9-89.3 72.5-123.3s77.5-58.4 124.4-70.6c47-12.2 96.3-11.8 143 1.1L740 465.4c35 9.6 67.8 26.1 96.4 48.4 28.6 22.3 52.6 50 70.5 81.6 17.9 31.6 29.4 66.4 33.9 102.4s1.8 72.6-7.9 107.6h-.1z" style="fill:url(#a)"/></svg>