<?xml version="1.0" encoding="UTF-8"?><svg width="1024" height="1024" xmlns="http://www.w3.org/2000/svg"><g fill="none" fill-rule="evenodd"><circle fill="#FFF" cx="512" cy="512" r="512"/><path d="m631.092 288.56 28.986-104.809a326.816 326.816 0 0 0-168.945-1.272 326.684 326.684 0 0 0-146.982 83.262 326.41 326.41 0 0 0-85.695 145.52 326.272 326.272 0 0 0-1.481 168.847L152 607.329a326.354 326.354 0 0 0 83.241 147.046 326.632 326.632 0 0 0 145.652 85.751 326.778 326.778 0 0 0 169.037 1.483 326.635 326.635 0 0 0 147.136-83.183l76.413 77.534a326.416 326.416 0 0 0 85.73-145.745 326.272 326.272 0 0 0 1.283-169.06 326.407 326.407 0 0 0-83.504-147.029 326.673 326.673 0 0 0-145.896-85.565Zm122.886 372.524a215.934 215.934 0 0 1-56.754 96.707l-76.36-77.481a217.721 217.721 0 0 1-97.945 55.536 217.808 217.808 0 0 1-112.607-.808 217.728 217.728 0 0 1-97.137-56.939 217.537 217.537 0 0 1-55.67-97.832l104.975-27.275a217.38 217.38 0 0 1 .845-112.61 217.481 217.481 0 0 1 57.079-97.095 217.661 217.661 0 0 1 98.013-55.554 217.759 217.759 0 0 1 112.675.88l-28.986 104.81a217.75 217.75 0 0 1 75.944 38.095 217.613 217.613 0 0 1 55.565 64.252 217.476 217.476 0 0 1 20.522 165.314h-.16Z" fill="#000" fill-rule="nonzero"/></g></svg>